<?xml version="1.0" encoding="UTF-8" standalone="no"?>
<!DOCTYPE svg PUBLIC "-//W3C//DTD SVG 1.1//EN"
 "http://www.w3.org/Graphics/SVG/1.1/DTD/svg11.dtd">
<!-- Generated by graphviz version 2.40.1 (20161225.0304)
 -->
<!-- Title: openage::renderer::resources::vertex_input_size Pages: 1 -->
<svg width="318pt" height="50pt"
 viewBox="0.00 0.00 318.00 50.00" xmlns="http://www.w3.org/2000/svg" xmlns:xlink="http://www.w3.org/1999/xlink">
<g id="graph0" class="graph" transform="scale(1 1) rotate(0) translate(4 46)">
<title>openage::renderer::resources::vertex_input_size</title>
<polygon fill="#ffffff" stroke="transparent" points="-4,4 -4,-46 314,-46 314,4 -4,4"/>
<!-- Node21 -->
<g id="node1" class="node">
<title>Node21</title>
<polygon fill="#bfbfbf" stroke="#000000" points="0,-6 0,-36 142,-36 142,-6 0,-6"/>
<text text-anchor="start" x="8" y="-24" font-family="Helvetica,sans-Serif" font-size="10.00" fill="#000000">openage::renderer::</text>
<text text-anchor="middle" x="71" y="-13" font-family="Helvetica,sans-Serif" font-size="10.00" fill="#000000">resources::vertex_input_size</text>
</g>
<!-- Node22 -->
<g id="node2" class="node">
<title>Node22</title>
<g id="a_node2"><a xlink:href="../../d0/d84/classopenage_1_1renderer_1_1resources_1_1_vertex_input_info.xhtml#a32cc6408584ff4eecd6d43565eed9864" target="_top" xlink:title="Returns the size of a single vertex. ">
<polygon fill="#ffffff" stroke="#000000" points="178,-.5 178,-41.5 310,-41.5 310,-.5 178,-.5"/>
<text text-anchor="start" x="186" y="-29.5" font-family="Helvetica,sans-Serif" font-size="10.00" fill="#000000">openage::renderer::</text>
<text text-anchor="start" x="186" y="-18.5" font-family="Helvetica,sans-Serif" font-size="10.00" fill="#000000">resources::VertexInputInfo</text>
<text text-anchor="middle" x="244" y="-7.5" font-family="Helvetica,sans-Serif" font-size="10.00" fill="#000000">::vert_size</text>
</a>
</g>
</g>
<!-- Node21&#45;&gt;Node22 -->
<g id="edge1" class="edge">
<title>Node21&#45;&gt;Node22</title>
<path fill="none" stroke="#191970" d="M152.6088,-21C161.0505,-21 169.5544,-21 177.7977,-21"/>
<polygon fill="#191970" stroke="#191970" points="152.3646,-17.5001 142.3645,-21 152.3645,-24.5001 152.3646,-17.5001"/>
</g>
</g>
</svg>
