<?xml version="1.0" encoding="UTF-8" standalone="no"?>
<!DOCTYPE svg PUBLIC "-//W3C//DTD SVG 1.1//EN"
 "http://www.w3.org/Graphics/SVG/1.1/DTD/svg11.dtd">
<!-- Generated by graphviz version 2.40.1 (20161225.0304)
 -->
<!-- Title: openage::event::demo::BallReflectPanel::invoke Pages: 1 -->
<svg width="1237pt" height="349pt"
 viewBox="0.00 0.00 1237.00 348.50" xmlns="http://www.w3.org/2000/svg" xmlns:xlink="http://www.w3.org/1999/xlink">
<g id="graph0" class="graph" transform="scale(1 1) rotate(0) translate(4 344.5)">
<title>openage::event::demo::BallReflectPanel::invoke</title>
<polygon fill="#ffffff" stroke="transparent" points="-4,4 -4,-344.5 1233,-344.5 1233,4 -4,4"/>
<!-- Node2 -->
<g id="node1" class="node">
<title>Node2</title>
<polygon fill="#bfbfbf" stroke="#000000" points="0,-160 0,-190 130,-190 130,-160 0,-160"/>
<text text-anchor="start" x="8" y="-178" font-family="Helvetica,sans-Serif" font-size="10.00" fill="#000000">openage::event::demo</text>
<text text-anchor="middle" x="65" y="-167" font-family="Helvetica,sans-Serif" font-size="10.00" fill="#000000">::BallReflectPanel::invoke</text>
</g>
<!-- Node3 -->
<g id="node2" class="node">
<title>Node3</title>
<g id="a_node2"><a xlink:href="../../d4/d8c/classopenage_1_1util_1_1_string_formatter.xhtml#a6d06a46c42c75fe91a1736559b914ab3" target="_top" xlink:title="openage::util::StringFormatter::fmt">
<polygon fill="#ffffff" stroke="#000000" points="166,-298.5 166,-317.5 332,-317.5 332,-298.5 166,-298.5"/>
<text text-anchor="middle" x="249" y="-305.5" font-family="Helvetica,sans-Serif" font-size="10.00" fill="#000000">openage::util::StringFormatter::fmt</text>
</a>
</g>
</g>
<!-- Node2&#45;&gt;Node3 -->
<g id="edge1" class="edge">
<title>Node2&#45;&gt;Node3</title>
<path fill="none" stroke="#191970" d="M74.037,-190.281C89.5503,-215.0977 123.7006,-263.9075 166,-289 169.6473,-291.1636 173.5194,-293.0809 177.5201,-294.7799"/>
<polygon fill="#191970" stroke="#191970" points="176.4515,-298.1173 187.0435,-298.3613 178.9155,-291.5653 176.4515,-298.1173"/>
</g>
<!-- Node4 -->
<g id="node3" class="node">
<title>Node4</title>
<g id="a_node3"><a xlink:href="../../dc/d65/classopenage_1_1util_1_1_fixed_point.xhtml#a483c36345c5b597c1626162bc96dc52c" target="_top" xlink:title="Factory function to get a fixed&#45;point number from a double. ">
<polygon fill="#ffffff" stroke="#000000" points="179,-249 179,-279 319,-279 319,-249 179,-249"/>
<text text-anchor="start" x="187" y="-267" font-family="Helvetica,sans-Serif" font-size="10.00" fill="#000000">openage::util::FixedPoint</text>
<text text-anchor="middle" x="249" y="-256" font-family="Helvetica,sans-Serif" font-size="10.00" fill="#000000">&lt; int64_t, 16 &gt;::from_double</text>
</a>
</g>
</g>
<!-- Node2&#45;&gt;Node4 -->
<g id="edge2" class="edge">
<title>Node2&#45;&gt;Node4</title>
<path fill="none" stroke="#191970" d="M96.2131,-190.0976C127.2344,-205.1025 174.9455,-228.1801 208.7889,-244.5501"/>
<polygon fill="#191970" stroke="#191970" points="207.4151,-247.7735 217.9414,-248.9771 210.4632,-241.4719 207.4151,-247.7735"/>
</g>
<!-- Node7 -->
<g id="node6" class="node">
<title>Node7</title>
<g id="a_node6"><a xlink:href="../../dd/d1a/namespaceopenage_1_1log.xhtml#a0eff614e7d6e818746700ed9d29e583f" target="_top" xlink:title="Convenience method that makes use of the &#39;general&#39; LogSource. ">
<polygon fill="#ffffff" stroke="#000000" points="751.5,-115.5 751.5,-134.5 842.5,-134.5 842.5,-115.5 751.5,-115.5"/>
<text text-anchor="middle" x="797" y="-122.5" font-family="Helvetica,sans-Serif" font-size="10.00" fill="#000000">openage::log::log</text>
</a>
</g>
</g>
<!-- Node2&#45;&gt;Node7 -->
<g id="edge5" class="edge">
<title>Node2&#45;&gt;Node7</title>
<path fill="none" stroke="#191970" d="M130.0194,-171.1826C243.925,-164.3979 486.9559,-149.49 692,-134 707.9386,-132.7959 725.227,-131.3655 741.0878,-130.0035"/>
<polygon fill="#191970" stroke="#191970" points="741.615,-133.471 751.2758,-129.1214 741.0112,-126.4971 741.615,-133.471"/>
</g>
<!-- Node13 -->
<g id="node12" class="node">
<title>Node13</title>
<g id="a_node12"><a xlink:href="../../de/d26/classopenage_1_1event_1_1demo_1_1_physics.xhtml#aaaafd5ac8b7a69517a6f26f9fa220984" target="_top" xlink:title="openage::event::demo\l::Physics::reset">
<polygon fill="#ffffff" stroke="#000000" points="192.5,-182 192.5,-212 305.5,-212 305.5,-182 192.5,-182"/>
<text text-anchor="start" x="200.5" y="-200" font-family="Helvetica,sans-Serif" font-size="10.00" fill="#000000">openage::event::demo</text>
<text text-anchor="middle" x="249" y="-189" font-family="Helvetica,sans-Serif" font-size="10.00" fill="#000000">::Physics::reset</text>
</a>
</g>
</g>
<!-- Node2&#45;&gt;Node13 -->
<g id="edge11" class="edge">
<title>Node2&#45;&gt;Node13</title>
<path fill="none" stroke="#191970" d="M130.1305,-182.7873C146.9105,-184.7936 164.9978,-186.9563 181.877,-188.9744"/>
<polygon fill="#191970" stroke="#191970" points="181.8634,-192.4976 192.2082,-190.2097 182.6945,-185.5471 181.8634,-192.4976"/>
</g>
<!-- Node22 -->
<g id="node21" class="node">
<title>Node22</title>
<g id="a_node21"><a xlink:href="../../d4/dd4/namespaceopenage_1_1py.xhtml#a4d2bbe46a5d10404c658b54f3b199551" target="_top" xlink:title="str(value); ">
<polygon fill="#ffffff" stroke="#000000" points="205.5,-105.5 205.5,-124.5 292.5,-124.5 292.5,-105.5 205.5,-105.5"/>
<text text-anchor="middle" x="249" y="-112.5" font-family="Helvetica,sans-Serif" font-size="10.00" fill="#000000">openage::py::str</text>
</a>
</g>
</g>
<!-- Node2&#45;&gt;Node22 -->
<g id="edge22" class="edge">
<title>Node2&#45;&gt;Node22</title>
<path fill="none" stroke="#191970" d="M105.5959,-159.8936C123.955,-153.2266 145.9799,-145.4558 166,-139 178.3912,-135.0042 191.9213,-130.9591 204.3934,-127.3574"/>
<polygon fill="#191970" stroke="#191970" points="205.4751,-130.6884 214.127,-124.5733 203.5501,-123.9583 205.4751,-130.6884"/>
</g>
<!-- Node25 -->
<g id="node24" class="node">
<title>Node25</title>
<g id="a_node24"><a xlink:href="../../dc/d65/classopenage_1_1util_1_1_fixed_point.xhtml#a3d55d1b8ecdb0fd4ff8e7e3da2598554" target="_top" xlink:title="Converter to retrieve the number as double. ">
<polygon fill="#ffffff" stroke="#000000" points="186.5,-56 186.5,-86 311.5,-86 311.5,-56 186.5,-56"/>
<text text-anchor="start" x="194.5" y="-74" font-family="Helvetica,sans-Serif" font-size="10.00" fill="#000000">openage::util::FixedPoint</text>
<text text-anchor="middle" x="249" y="-63" font-family="Helvetica,sans-Serif" font-size="10.00" fill="#000000">::to_double</text>
</a>
</g>
</g>
<!-- Node2&#45;&gt;Node25 -->
<g id="edge26" class="edge">
<title>Node2&#45;&gt;Node25</title>
<path fill="none" stroke="#191970" d="M80.4929,-159.8277C99.2805,-142.1954 132.5978,-113.312 166,-96 170.2839,-93.7797 174.7968,-91.7234 179.4139,-89.8248"/>
<polygon fill="#191970" stroke="#191970" points="180.9155,-92.9975 188.9979,-86.1474 178.4077,-86.4621 180.9155,-92.9975"/>
</g>
<!-- Node5 -->
<g id="node4" class="node">
<title>Node5</title>
<g id="a_node4"><a xlink:href="../../dc/d65/classopenage_1_1util_1_1_fixed_point.xhtml#aa01c403263c2142c0ce9ce40cde89066" target="_top" xlink:title="Factory function to construct a fixed&#45;point number with a given raw value. ">
<polygon fill="#ffffff" stroke="#000000" points="911,-279 911,-309 1036,-309 1036,-279 911,-279"/>
<text text-anchor="start" x="919" y="-297" font-family="Helvetica,sans-Serif" font-size="10.00" fill="#000000">openage::util::FixedPoint</text>
<text text-anchor="middle" x="973.5" y="-286" font-family="Helvetica,sans-Serif" font-size="10.00" fill="#000000">::from_raw_value</text>
</a>
</g>
</g>
<!-- Node4&#45;&gt;Node5 -->
<g id="edge3" class="edge">
<title>Node4&#45;&gt;Node5</title>
<path fill="none" stroke="#191970" d="M319.1264,-266.9038C456.7539,-272.6026 760.9561,-285.199 900.706,-290.9858"/>
<polygon fill="#191970" stroke="#191970" points="900.7473,-294.4904 910.8836,-291.4072 901.037,-287.4964 900.7473,-294.4904"/>
</g>
<!-- Node6 -->
<g id="node5" class="node">
<title>Node6</title>
<g id="a_node5"><a xlink:href="../../dc/d65/classopenage_1_1util_1_1_fixed_point.xhtml#a5f225133013eccb8bbdd9a4628308a59" target="_top" xlink:title="openage::util::FixedPoint\l::raw_value_from_double">
<polygon fill="#ffffff" stroke="#000000" points="378,-310 378,-340 503,-340 503,-310 378,-310"/>
<text text-anchor="start" x="386" y="-328" font-family="Helvetica,sans-Serif" font-size="10.00" fill="#000000">openage::util::FixedPoint</text>
<text text-anchor="middle" x="440.5" y="-317" font-family="Helvetica,sans-Serif" font-size="10.00" fill="#000000">::raw_value_from_double</text>
</a>
</g>
</g>
<!-- Node4&#45;&gt;Node6 -->
<g id="edge4" class="edge">
<title>Node4&#45;&gt;Node6</title>
<path fill="none" stroke="#191970" d="M299.9864,-279.1135C310.5844,-282.3234 321.6694,-285.7311 332,-289 349.6365,-294.5808 368.8134,-300.87 386.0711,-306.6119"/>
<polygon fill="#191970" stroke="#191970" points="385.3905,-310.0745 395.9842,-309.92 387.6063,-303.4344 385.3905,-310.0745"/>
</g>
<!-- Node8 -->
<g id="node7" class="node">
<title>Node8</title>
<g id="a_node7"><a xlink:href="../../dd/d1a/namespaceopenage_1_1log.xhtml#a3fbb0c225d01e222648ec28a43507188" target="_top" xlink:title="Returns a reference to a general named log source, for use by log::log(). ">
<polygon fill="#ffffff" stroke="#000000" points="918.5,-83 918.5,-113 1028.5,-113 1028.5,-83 918.5,-83"/>
<text text-anchor="start" x="926.5" y="-101" font-family="Helvetica,sans-Serif" font-size="10.00" fill="#000000">openage::log::general</text>
<text text-anchor="middle" x="973.5" y="-90" font-family="Helvetica,sans-Serif" font-size="10.00" fill="#000000">_source</text>
</a>
</g>
</g>
<!-- Node7&#45;&gt;Node8 -->
<g id="edge6" class="edge">
<title>Node7&#45;&gt;Node8</title>
<path fill="none" stroke="#191970" d="M842.9125,-117.9766C862.8404,-114.9281 886.5429,-111.3022 908.2497,-107.9816"/>
<polygon fill="#191970" stroke="#191970" points="909.034,-111.4025 918.3897,-106.4305 907.9755,-104.4829 909.034,-111.4025"/>
</g>
<!-- Node9 -->
<g id="node8" class="node">
<title>Node9</title>
<g id="a_node8"><a xlink:href="../../de/de3/classopenage_1_1log_1_1_log_source.xhtml#a5640099e20af4cd368c767dbcef3a1df" target="_top" xlink:title="Logs a message (get one via MSG(level)). ">
<polygon fill="#ffffff" stroke="#000000" points="902,-44.5 902,-63.5 1045,-63.5 1045,-44.5 902,-44.5"/>
<text text-anchor="middle" x="973.5" y="-51.5" font-family="Helvetica,sans-Serif" font-size="10.00" fill="#000000">openage::log::LogSource::log</text>
</a>
</g>
</g>
<!-- Node7&#45;&gt;Node9 -->
<g id="edge7" class="edge">
<title>Node7&#45;&gt;Node9</title>
<path fill="none" stroke="#191970" d="M813.6291,-115.4597C833.9503,-104.1111 869.6325,-85.1751 902,-73 908.3809,-70.5998 915.1894,-68.3781 921.974,-66.3641"/>
<polygon fill="#191970" stroke="#191970" points="923.1786,-69.6607 931.8445,-63.5654 921.269,-62.9261 923.1786,-69.6607"/>
</g>
<!-- Node10 -->
<g id="node9" class="node">
<title>Node10</title>
<g id="a_node9"><a xlink:href="../../dd/d1a/namespaceopenage_1_1log.xhtml#a3d2885be9c3a09b9ff7ee8764b2e5f39" target="_top" xlink:title="Returns a reference to the global stdout logsink object; Initializes the object if needed...">
<polygon fill="#ffffff" stroke="#000000" points="1103,-88 1103,-118 1207,-118 1207,-88 1103,-88"/>
<text text-anchor="start" x="1111" y="-106" font-family="Helvetica,sans-Serif" font-size="10.00" fill="#000000">openage::log::global</text>
<text text-anchor="middle" x="1155" y="-95" font-family="Helvetica,sans-Serif" font-size="10.00" fill="#000000">_stdoutsink</text>
</a>
</g>
</g>
<!-- Node9&#45;&gt;Node10 -->
<g id="edge8" class="edge">
<title>Node9&#45;&gt;Node10</title>
<path fill="none" stroke="#191970" d="M1009.5194,-63.5226C1020.8758,-66.5381 1033.4658,-69.8947 1045,-73 1060.5227,-77.1792 1077.2668,-81.7258 1092.8951,-85.9863"/>
<polygon fill="#191970" stroke="#191970" points="1092.4113,-89.4822 1102.98,-88.738 1094.254,-82.7291 1092.4113,-89.4822"/>
</g>
<!-- Node11 -->
<g id="node10" class="node">
<title>Node11</title>
<g id="a_node10"><a xlink:href="../../d0/d58/classopenage_1_1log_1_1_log_sink_list.xhtml#a2d47416fab12651553b4b58c86fd6f84" target="_top" xlink:title="openage::log::LogSinkList\l::instance">
<polygon fill="#ffffff" stroke="#000000" points="1090.5,-39 1090.5,-69 1219.5,-69 1219.5,-39 1090.5,-39"/>
<text text-anchor="start" x="1098.5" y="-57" font-family="Helvetica,sans-Serif" font-size="10.00" fill="#000000">openage::log::LogSinkList</text>
<text text-anchor="middle" x="1155" y="-46" font-family="Helvetica,sans-Serif" font-size="10.00" fill="#000000">::instance</text>
</a>
</g>
</g>
<!-- Node9&#45;&gt;Node11 -->
<g id="edge9" class="edge">
<title>Node9&#45;&gt;Node11</title>
<path fill="none" stroke="#191970" d="M1045.2336,-54C1056.7292,-54 1068.651,-54 1080.2157,-54"/>
<polygon fill="#191970" stroke="#191970" points="1080.267,-57.5001 1090.267,-54 1080.267,-50.5001 1080.267,-57.5001"/>
</g>
<!-- Node12 -->
<g id="node11" class="node">
<title>Node12</title>
<g id="a_node11"><a xlink:href="../../d0/d58/classopenage_1_1log_1_1_log_sink_list.xhtml#a8456b84ab55e1fe151c51438c5bfebdd" target="_top" xlink:title="openage::log::LogSinkList::log">
<polygon fill="#ffffff" stroke="#000000" points="1081,-.5 1081,-19.5 1229,-19.5 1229,-.5 1081,-.5"/>
<text text-anchor="middle" x="1155" y="-7.5" font-family="Helvetica,sans-Serif" font-size="10.00" fill="#000000">openage::log::LogSinkList::log</text>
</a>
</g>
</g>
<!-- Node9&#45;&gt;Node12 -->
<g id="edge10" class="edge">
<title>Node9&#45;&gt;Node12</title>
<path fill="none" stroke="#191970" d="M1012.8828,-44.4527C1040.1156,-37.8508 1076.5503,-29.0181 1105.7102,-21.949"/>
<polygon fill="#191970" stroke="#191970" points="1106.8002,-25.2863 1115.6941,-19.5287 1105.1509,-18.4833 1106.8002,-25.2863"/>
</g>
<!-- Node14 -->
<g id="node13" class="node">
<title>Node14</title>
<g id="a_node13"><a xlink:href="../../df/d23/classopenage_1_1event_1_1_loop.xhtml#a345332e87684e73eeef16da46255882f" target="_top" xlink:title="Add a new Event to the queue. ">
<polygon fill="#ffffff" stroke="#000000" points="385.5,-182 385.5,-212 495.5,-212 495.5,-182 385.5,-182"/>
<text text-anchor="start" x="393.5" y="-200" font-family="Helvetica,sans-Serif" font-size="10.00" fill="#000000">openage::event::Loop</text>
<text text-anchor="middle" x="440.5" y="-189" font-family="Helvetica,sans-Serif" font-size="10.00" fill="#000000">::create_event</text>
</a>
</g>
</g>
<!-- Node13&#45;&gt;Node14 -->
<g id="edge12" class="edge">
<title>Node13&#45;&gt;Node14</title>
<path fill="none" stroke="#191970" d="M305.679,-197C327.4855,-197 352.5554,-197 375.1164,-197"/>
<polygon fill="#191970" stroke="#191970" points="375.285,-200.5001 385.2849,-197 375.2849,-193.5001 375.285,-200.5001"/>
</g>
<!-- Node15 -->
<g id="node14" class="node">
<title>Node15</title>
<g id="a_node14"><a xlink:href="../../de/daa/classopenage_1_1event_1_1_event_queue.xhtml#ac5abd71bf0167e4b7d36f19a29f4a611" target="_top" xlink:title="Add an event for a specified target. ">
<polygon fill="#ffffff" stroke="#000000" points="549,-182 549,-212 692,-212 692,-182 549,-182"/>
<text text-anchor="start" x="557" y="-200" font-family="Helvetica,sans-Serif" font-size="10.00" fill="#000000">openage::event::EventQueue</text>
<text text-anchor="middle" x="620.5" y="-189" font-family="Helvetica,sans-Serif" font-size="10.00" fill="#000000">::create_event</text>
</a>
</g>
</g>
<!-- Node14&#45;&gt;Node15 -->
<g id="edge13" class="edge">
<title>Node14&#45;&gt;Node15</title>
<path fill="none" stroke="#191970" d="M495.9747,-197C509.4405,-197 524.1216,-197 538.5264,-197"/>
<polygon fill="#191970" stroke="#191970" points="538.9451,-200.5001 548.9451,-197 538.9451,-193.5001 538.9451,-200.5001"/>
</g>
<!-- Node21 -->
<g id="node20" class="node">
<title>Node21</title>
<g id="a_node20"><a xlink:href="../../dd/d1a/namespaceopenage_1_1log.xhtml#ab6b4b10be67af93ab6c4d5a36139736e" target="_top" xlink:title="error message ">
<polygon fill="#ffffff" stroke="#000000" points="579,-231.5 579,-250.5 662,-250.5 662,-231.5 579,-231.5"/>
<text text-anchor="middle" x="620.5" y="-238.5" font-family="Helvetica,sans-Serif" font-size="10.00" fill="#000000">openage.log.err</text>
</a>
</g>
</g>
<!-- Node14&#45;&gt;Node21 -->
<g id="edge21" class="edge">
<title>Node14&#45;&gt;Node21</title>
<path fill="none" stroke="#191970" d="M495.9747,-210.5605C520.1979,-216.4817 548.3541,-223.3643 571.7593,-229.0856"/>
<polygon fill="#191970" stroke="#191970" points="570.9288,-232.4856 581.4739,-231.4603 572.591,-225.6858 570.9288,-232.4856"/>
</g>
<!-- Node15&#45;&gt;Node7 -->
<g id="edge14" class="edge">
<title>Node15&#45;&gt;Node7</title>
<path fill="none" stroke="#191970" d="M657.5002,-181.9064C689.06,-169.0322 734.0019,-150.6989 764.2703,-138.3515"/>
<polygon fill="#191970" stroke="#191970" points="765.6093,-141.5854 773.5465,-134.5674 762.9652,-135.1039 765.6093,-141.5854"/>
</g>
<!-- Node16 -->
<g id="node15" class="node">
<title>Node16</title>
<g id="a_node15"><a xlink:href="../../d8/dcc/namespacestd.xhtml#a34591a1d8ee5da3f16f56554590d5e16" target="_top" xlink:title="std::min">
<polygon fill="#ffffff" stroke="#000000" points="771,-233.5 771,-252.5 823,-252.5 823,-233.5 771,-233.5"/>
<text text-anchor="middle" x="797" y="-240.5" font-family="Helvetica,sans-Serif" font-size="10.00" fill="#000000">std::min</text>
</a>
</g>
</g>
<!-- Node15&#45;&gt;Node16 -->
<g id="edge15" class="edge">
<title>Node15&#45;&gt;Node16</title>
<path fill="none" stroke="#191970" d="M678.2927,-212.0621C705.4416,-219.1377 736.9738,-227.3558 760.7135,-233.5429"/>
<polygon fill="#191970" stroke="#191970" points="760.1418,-237.0108 770.7013,-236.1459 761.9073,-230.237 760.1418,-237.0108"/>
</g>
<!-- Node18 -->
<g id="node17" class="node">
<title>Node18</title>
<g id="a_node17"><a xlink:href="../../d1/d17/classopenage_1_1event_1_1_event_store.xhtml#ae17679f5da2da238bc0f423befda3850" target="_top" xlink:title="openage::event::EventStore\l::push">
<polygon fill="#ffffff" stroke="#000000" points="728,-181 728,-211 866,-211 866,-181 728,-181"/>
<text text-anchor="start" x="736" y="-199" font-family="Helvetica,sans-Serif" font-size="10.00" fill="#000000">openage::event::EventStore</text>
<text text-anchor="middle" x="797" y="-188" font-family="Helvetica,sans-Serif" font-size="10.00" fill="#000000">::push</text>
</a>
</g>
</g>
<!-- Node15&#45;&gt;Node18 -->
<g id="edge18" class="edge">
<title>Node15&#45;&gt;Node18</title>
<path fill="none" stroke="#191970" d="M692.0349,-196.5947C700.5514,-196.5465 709.2835,-196.497 717.8981,-196.4482"/>
<polygon fill="#191970" stroke="#191970" points="717.957,-199.948 727.9369,-196.3913 717.9172,-192.9481 717.957,-199.948"/>
</g>
<!-- Node16&#45;&gt;Node5 -->
<g id="edge16" class="edge">
<title>Node16&#45;&gt;Node5</title>
<path fill="none" stroke="#191970" d="M823.0432,-250.5252C846.319,-257.2508 881.3413,-267.3706 911.7412,-276.1547"/>
<polygon fill="#191970" stroke="#191970" points="910.8495,-279.5401 921.4281,-278.9537 912.7927,-272.8153 910.8495,-279.5401"/>
</g>
<!-- Node17 -->
<g id="node16" class="node">
<title>Node17</title>
<g id="a_node16"><a xlink:href="../../dc/d65/classopenage_1_1util_1_1_fixed_point.xhtml#affe7a3ec44c6f7ac96312875af742f87" target="_top" xlink:title="Converter to retrieve the raw value of the fixed&#45;point number. ">
<polygon fill="#ffffff" stroke="#000000" points="911,-230 911,-260 1036,-260 1036,-230 911,-230"/>
<text text-anchor="start" x="919" y="-248" font-family="Helvetica,sans-Serif" font-size="10.00" fill="#000000">openage::util::FixedPoint</text>
<text text-anchor="middle" x="973.5" y="-237" font-family="Helvetica,sans-Serif" font-size="10.00" fill="#000000">::get_raw_value</text>
</a>
</g>
</g>
<!-- Node16&#45;&gt;Node17 -->
<g id="edge17" class="edge">
<title>Node16&#45;&gt;Node17</title>
<path fill="none" stroke="#191970" d="M823.0432,-243.2951C843.54,-243.5274 873.1459,-243.8628 900.6827,-244.1749"/>
<polygon fill="#191970" stroke="#191970" points="900.6745,-247.6749 910.7136,-244.2885 900.7539,-240.6754 900.6745,-247.6749"/>
</g>
<!-- Node19 -->
<g id="node18" class="node">
<title>Node19</title>
<g id="a_node18"><a xlink:href="../../dc/dfd/classopenage_1_1datastructure_1_1_pairing_heap.xhtml#a75e9e7602b59aeee47a2fd84a10c8f74" target="_top" xlink:title="adds the given item to the heap. ">
<polygon fill="#ffffff" stroke="#000000" points="915.5,-181 915.5,-211 1031.5,-211 1031.5,-181 915.5,-181"/>
<text text-anchor="start" x="923.5" y="-199" font-family="Helvetica,sans-Serif" font-size="10.00" fill="#000000">openage::datastructure</text>
<text text-anchor="middle" x="973.5" y="-188" font-family="Helvetica,sans-Serif" font-size="10.00" fill="#000000">::PairingHeap::push</text>
</a>
</g>
</g>
<!-- Node18&#45;&gt;Node19 -->
<g id="edge19" class="edge">
<title>Node18&#45;&gt;Node19</title>
<path fill="none" stroke="#191970" d="M866.2509,-196C879.0534,-196 892.4159,-196 905.1903,-196"/>
<polygon fill="#191970" stroke="#191970" points="905.287,-199.5001 915.287,-196 905.287,-192.5001 905.287,-199.5001"/>
</g>
<!-- Node20 -->
<g id="node19" class="node">
<title>Node20</title>
<g id="a_node19"><a xlink:href="../../dc/dfd/classopenage_1_1datastructure_1_1_pairing_heap.xhtml#a45599db3b89b27ad5c53ca900a67df85" target="_top" xlink:title="openage::datastructure\l::PairingHeap::size">
<polygon fill="#ffffff" stroke="#000000" points="915.5,-132 915.5,-162 1031.5,-162 1031.5,-132 915.5,-132"/>
<text text-anchor="start" x="923.5" y="-150" font-family="Helvetica,sans-Serif" font-size="10.00" fill="#000000">openage::datastructure</text>
<text text-anchor="middle" x="973.5" y="-139" font-family="Helvetica,sans-Serif" font-size="10.00" fill="#000000">::PairingHeap::size</text>
</a>
</g>
</g>
<!-- Node18&#45;&gt;Node20 -->
<g id="edge20" class="edge">
<title>Node18&#45;&gt;Node20</title>
<path fill="none" stroke="#191970" d="M851.396,-180.8986C869.7681,-175.7981 890.4474,-170.0571 909.4935,-164.7695"/>
<polygon fill="#191970" stroke="#191970" points="910.5843,-168.0991 919.2836,-162.0516 908.7117,-161.3542 910.5843,-168.0991"/>
</g>
<!-- Node23 -->
<g id="node22" class="node">
<title>Node23</title>
<g id="a_node22"><a xlink:href="../../d5/d0e/namespaceopenage_1_1testing_1_1testing.xhtml#ac25bf81db406af62d08113ef7ae9fd6e" target="_top" xlink:title="openage.testing.testing.result">
<polygon fill="#ffffff" stroke="#000000" points="368,-105.5 368,-124.5 513,-124.5 513,-105.5 368,-105.5"/>
<text text-anchor="middle" x="440.5" y="-112.5" font-family="Helvetica,sans-Serif" font-size="10.00" fill="#000000">openage.testing.testing.result</text>
</a>
</g>
</g>
<!-- Node22&#45;&gt;Node23 -->
<g id="edge23" class="edge">
<title>Node22&#45;&gt;Node23</title>
<path fill="none" stroke="#191970" d="M292.934,-115C312.1815,-115 335.4265,-115 357.7164,-115"/>
<polygon fill="#191970" stroke="#191970" points="357.8728,-118.5001 367.8727,-115 357.8727,-111.5001 357.8728,-118.5001"/>
</g>
<!-- Node24 -->
<g id="node23" class="node">
<title>Node24</title>
<g id="a_node23"><a xlink:href="../../de/d60/namespaceopenage_1_1util.xhtml#a7bc4421a5f0f57f3a0aba3f96eb8d19c" target="_top" xlink:title="method that behaves similar to python&#39;s &quot;repr&quot;. ">
<polygon fill="#ffffff" stroke="#000000" points="573,-105.5 573,-124.5 668,-124.5 668,-105.5 573,-105.5"/>
<text text-anchor="middle" x="620.5" y="-112.5" font-family="Helvetica,sans-Serif" font-size="10.00" fill="#000000">openage::util::repr</text>
</a>
</g>
</g>
<!-- Node23&#45;&gt;Node24 -->
<g id="edge24" class="edge">
<title>Node23&#45;&gt;Node24</title>
<path fill="none" stroke="#191970" d="M513.194,-108.3622C529.6821,-108.146 546.9755,-108.2423 562.7465,-108.6508"/>
<polygon fill="#191970" stroke="#191970" points="562.7631,-112.1529 572.8667,-108.9643 562.9799,-105.1563 562.7631,-112.1529"/>
</g>
<!-- Node24&#45;&gt;Node23 -->
<g id="edge25" class="edge">
<title>Node24&#45;&gt;Node23</title>
<path fill="none" stroke="#191970" d="M572.8667,-121.0357C557.7315,-121.5863 540.5252,-121.8186 523.6426,-121.7326"/>
<polygon fill="#191970" stroke="#191970" points="523.2254,-118.2287 513.194,-121.6378 523.1619,-125.2284 523.2254,-118.2287"/>
</g>
</g>
</svg>
