<?xml version="1.0" encoding="UTF-8" standalone="no"?>
<!DOCTYPE svg PUBLIC "-//W3C//DTD SVG 1.1//EN"
 "http://www.w3.org/Graphics/SVG/1.1/DTD/svg11.dtd">
<!-- Generated by graphviz version 2.40.1 (20161225.0304)
 -->
<!-- Title: /mnt/c/Users/Jameson/Desktop/git/openage&#45;new&#45;doc&#45;system/libopenage/gui/guisys/public/gui_image_provider.cpp Pages: 1 -->
<svg width="331pt" height="195pt"
 viewBox="0.00 0.00 331.00 195.00" xmlns="http://www.w3.org/2000/svg" xmlns:xlink="http://www.w3.org/1999/xlink">
<g id="graph0" class="graph" transform="scale(1 1) rotate(0) translate(4 191)">
<title>/mnt/c/Users/Jameson/Desktop/git/openage&#45;new&#45;doc&#45;system/libopenage/gui/guisys/public/gui_image_provider.cpp</title>
<polygon fill="#ffffff" stroke="transparent" points="-4,4 -4,-191 327,-191 327,4 -4,4"/>
<!-- Node0 -->
<g id="node1" class="node">
<title>Node0</title>
<polygon fill="#bfbfbf" stroke="#000000" points="40,-123.5 40,-186.5 181,-186.5 181,-123.5 40,-123.5"/>
<text text-anchor="start" x="48" y="-174.5" font-family="Helvetica,sans-Serif" font-size="10.00" fill="#000000">/mnt/c/Users/Jameson</text>
<text text-anchor="start" x="48" y="-163.5" font-family="Helvetica,sans-Serif" font-size="10.00" fill="#000000">/Desktop/git/openage</text>
<text text-anchor="start" x="48" y="-152.5" font-family="Helvetica,sans-Serif" font-size="10.00" fill="#000000">&#45;new&#45;doc&#45;system/libopenage</text>
<text text-anchor="start" x="48" y="-141.5" font-family="Helvetica,sans-Serif" font-size="10.00" fill="#000000">/gui/guisys/public/gui_image</text>
<text text-anchor="middle" x="110.5" y="-130.5" font-family="Helvetica,sans-Serif" font-size="10.00" fill="#000000">_provider.cpp</text>
</g>
<!-- Node1 -->
<g id="node2" class="node">
<title>Node1</title>
<g id="a_node2"><a xlink:href="../../d2/d99/gui__image__provider_8h.xhtml" target="_top" xlink:title="../public/gui_image\l_provider.h">
<polygon fill="#ffffff" stroke="#000000" points="2.5,-56.5 2.5,-86.5 100.5,-86.5 100.5,-56.5 2.5,-56.5"/>
<text text-anchor="start" x="10.5" y="-74.5" font-family="Helvetica,sans-Serif" font-size="10.00" fill="#000000">../public/gui_image</text>
<text text-anchor="middle" x="51.5" y="-63.5" font-family="Helvetica,sans-Serif" font-size="10.00" fill="#000000">_provider.h</text>
</a>
</g>
</g>
<!-- Node0&#45;&gt;Node1 -->
<g id="edge1" class="edge">
<title>Node0&#45;&gt;Node1</title>
<path fill="none" stroke="#191970" d="M88.1946,-123.4322C81.5376,-114.0109 74.3601,-103.8528 68.1336,-95.0407"/>
<polygon fill="#191970" stroke="#191970" points="70.9078,-92.9017 62.2786,-86.7545 65.1909,-96.9412 70.9078,-92.9017"/>
</g>
<!-- Node4 -->
<g id="node5" class="node">
<title>Node4</title>
<g id="a_node5"><a xlink:href="../../d8/d62/gui__image__provider__impl_8h.xhtml" target="_top" xlink:title="../private/gui_image\l_provider_impl.h">
<polygon fill="#ffffff" stroke="#000000" points="118.5,-56.5 118.5,-86.5 220.5,-86.5 220.5,-56.5 118.5,-56.5"/>
<text text-anchor="start" x="126.5" y="-74.5" font-family="Helvetica,sans-Serif" font-size="10.00" fill="#000000">../private/gui_image</text>
<text text-anchor="middle" x="169.5" y="-63.5" font-family="Helvetica,sans-Serif" font-size="10.00" fill="#000000">_provider_impl.h</text>
</a>
</g>
</g>
<!-- Node0&#45;&gt;Node4 -->
<g id="edge4" class="edge">
<title>Node0&#45;&gt;Node4</title>
<path fill="none" stroke="#191970" d="M132.8054,-123.4322C139.4624,-114.0109 146.6399,-103.8528 152.8664,-95.0407"/>
<polygon fill="#191970" stroke="#191970" points="155.8091,-96.9412 158.7214,-86.7545 150.0922,-92.9017 155.8091,-96.9412"/>
</g>
<!-- Node2 -->
<g id="node3" class="node">
<title>Node2</title>
<polygon fill="#ffffff" stroke="#bfbfbf" points="77.5,-.5 77.5,-19.5 129.5,-19.5 129.5,-.5 77.5,-.5"/>
<text text-anchor="middle" x="103.5" y="-7.5" font-family="Helvetica,sans-Serif" font-size="10.00" fill="#000000">memory</text>
</g>
<!-- Node1&#45;&gt;Node2 -->
<g id="edge2" class="edge">
<title>Node1&#45;&gt;Node2</title>
<path fill="none" stroke="#191970" d="M64.3539,-56.2977C71.7224,-47.5831 81.0026,-36.6075 88.6777,-27.5302"/>
<polygon fill="#191970" stroke="#191970" points="91.3902,-29.743 95.1741,-19.8469 86.0448,-25.2233 91.3902,-29.743"/>
</g>
<!-- Node3 -->
<g id="node4" class="node">
<title>Node3</title>
<polygon fill="#ffffff" stroke="#bfbfbf" points="0,-.5 0,-19.5 59,-19.5 59,-.5 0,-.5"/>
<text text-anchor="middle" x="29.5" y="-7.5" font-family="Helvetica,sans-Serif" font-size="10.00" fill="#000000">functional</text>
</g>
<!-- Node1&#45;&gt;Node3 -->
<g id="edge3" class="edge">
<title>Node1&#45;&gt;Node3</title>
<path fill="none" stroke="#191970" d="M46.0618,-56.2977C43.167,-48.2055 39.5749,-38.1639 36.4766,-29.5029"/>
<polygon fill="#191970" stroke="#191970" points="39.6862,-28.0837 33.0225,-19.8469 33.0953,-30.4415 39.6862,-28.0837"/>
</g>
<!-- Node4&#45;&gt;Node2 -->
<g id="edge5" class="edge">
<title>Node4&#45;&gt;Node2</title>
<path fill="none" stroke="#191970" d="M153.1854,-56.2977C143.5467,-47.3163 131.3309,-35.9334 121.4241,-26.702"/>
<polygon fill="#191970" stroke="#191970" points="123.7696,-24.1036 114.0674,-19.8469 118.9975,-29.2249 123.7696,-24.1036"/>
</g>
<!-- Node5 -->
<g id="node6" class="node">
<title>Node5</title>
<polygon fill="#ffffff" stroke="#bfbfbf" points="147.5,-.5 147.5,-19.5 191.5,-19.5 191.5,-.5 147.5,-.5"/>
<text text-anchor="middle" x="169.5" y="-7.5" font-family="Helvetica,sans-Serif" font-size="10.00" fill="#000000">vector</text>
</g>
<!-- Node4&#45;&gt;Node5 -->
<g id="edge6" class="edge">
<title>Node4&#45;&gt;Node5</title>
<path fill="none" stroke="#191970" d="M169.5,-56.2977C169.5,-48.3834 169.5,-38.6043 169.5,-30.0759"/>
<polygon fill="#191970" stroke="#191970" points="173.0001,-29.8469 169.5,-19.8469 166.0001,-29.847 173.0001,-29.8469"/>
</g>
<!-- Node6 -->
<g id="node7" class="node">
<title>Node6</title>
<polygon fill="#ffffff" stroke="#bfbfbf" points="210,-.5 210,-19.5 323,-19.5 323,-.5 210,-.5"/>
<text text-anchor="middle" x="266.5" y="-7.5" font-family="Helvetica,sans-Serif" font-size="10.00" fill="#000000">QQuickImageProvider</text>
</g>
<!-- Node4&#45;&gt;Node6 -->
<g id="edge7" class="edge">
<title>Node4&#45;&gt;Node6</title>
<path fill="none" stroke="#191970" d="M193.4775,-56.2977C208.4376,-46.8127 227.622,-34.6495 242.5726,-25.1705"/>
<polygon fill="#191970" stroke="#191970" points="244.6873,-27.9739 251.2587,-19.6633 240.939,-22.062 244.6873,-27.9739"/>
</g>
</g>
</svg>
