<?xml version="1.0" encoding="UTF-8" standalone="no"?>
<!DOCTYPE svg PUBLIC "-//W3C//DTD SVG 1.1//EN"
 "http://www.w3.org/Graphics/SVG/1.1/DTD/svg11.dtd">
<!-- Generated by graphviz version 2.40.1 (20161225.0304)
 -->
<!-- Title: /mnt/c/Users/Jameson/Desktop/git/openage&#45;new&#45;doc&#45;system/libopenage/renderer/resources/shader_source.h Pages: 1 -->
<!--zoomable 350 -->
<svg id="main" version="1.1" xmlns="http://www.w3.org/2000/svg" xmlns:xlink="http://www.w3.org/1999/xlink" xml:space="preserve" onload="init(evt)">
<style type="text/css"><![CDATA[
.edge:hover path { stroke: red; }
.edge:hover polygon { stroke: red; fill: red; }
]]></style>
<script type="text/javascript"><![CDATA[
var edges = document.getElementsByTagName('g');
if (edges && edges.length) {
  for (var i=0;i<edges.length;i++) {
    if (edges[i].id.substr(0,4)=='edge') {
      edges[i].setAttribute('class','edge');
    }
  }
}
]]></script>
        <defs>
                <circle id="rim" cx="0" cy="0" r="7"/>
                <circle id="rim2" cx="0" cy="0" r="3.5"/>
                <g id="zoomPlus">
                        <use xlink:href="#rim" fill="#404040">
                                <set attributeName="fill" to="#808080" begin="zoomplus.mouseover" end="zoomplus.mouseout"/>
                        </use>
                        <path d="M-4,0h8M0,-4v8" fill="none" stroke="white" stroke-width="1.5" pointer-events="none"/>
                </g>
                <g id="zoomMin">
                        <use xlink:href="#rim" fill="#404040">
                                <set attributeName="fill" to="#808080" begin="zoomminus.mouseover" end="zoomminus.mouseout"/>
                        </use>
                        <path d="M-4,0h8" fill="none" stroke="white" stroke-width="1.5" pointer-events="none"/>
                </g>
                <g id="dirArrow">
                        <path fill="none" stroke="white" stroke-width="1.5" d="M0,-3.0v7 M-2.5,-0.5L0,-3.0L2.5,-0.5"/>
                </g>
               <g id="resetDef">
                       <use xlink:href="#rim2" fill="#404040">
                               <set attributeName="fill" to="#808080" begin="reset.mouseover" end="reset.mouseout"/>
                       </use>
               </g>
        </defs>

<script type="text/javascript">
var viewWidth = 968;
var viewHeight = 350;
var sectionId = 'dynsection-1';
</script>
<script xlink:href="../../svgpan.js"/>
<svg id="graph" class="graph">
<g id="viewport">
<title>/mnt/c/Users/Jameson/Desktop/git/openage&#45;new&#45;doc&#45;system/libopenage/renderer/resources/shader_source.h</title>
<polygon fill="#ffffff" stroke="transparent" points="-4,4 -4,-346 964,-346 964,4 -4,4"/>
<!-- Node40 -->
<g id="node1" class="node">
<title>Node40</title>
<polygon fill="#bfbfbf" stroke="#000000" points="516,-278.5 516,-341.5 657,-341.5 657,-278.5 516,-278.5"/>
<text text-anchor="start" x="524" y="-329.5" font-family="Helvetica,sans-Serif" font-size="10.00" fill="#000000">/mnt/c/Users/Jameson</text>
<text text-anchor="start" x="524" y="-318.5" font-family="Helvetica,sans-Serif" font-size="10.00" fill="#000000">/Desktop/git/openage</text>
<text text-anchor="start" x="524" y="-307.5" font-family="Helvetica,sans-Serif" font-size="10.00" fill="#000000">&#45;new&#45;doc&#45;system/libopenage</text>
<text text-anchor="start" x="524" y="-296.5" font-family="Helvetica,sans-Serif" font-size="10.00" fill="#000000">/renderer/resources/shader</text>
<text text-anchor="middle" x="586.5" y="-285.5" font-family="Helvetica,sans-Serif" font-size="10.00" fill="#000000">_source.h</text>
</g>
<!-- Node41 -->
<g id="node2" class="node">
<title>Node41</title>
<g id="a_node2"><a xlink:href="../../d5/dc1/opengl_2shader__program_8h.xhtml" target="_top" xlink:title="/mnt/c/Users/Jameson\l/Desktop/git/openage\l&#45;new&#45;doc&#45;system/libopenage\l/renderer/opengl/shader_program.h">
<polygon fill="#ffffff" stroke="#000000" points="90,-184 90,-236 257,-236 257,-184 90,-184"/>
<text text-anchor="start" x="98" y="-224" font-family="Helvetica,sans-Serif" font-size="10.00" fill="#000000">/mnt/c/Users/Jameson</text>
<text text-anchor="start" x="98" y="-213" font-family="Helvetica,sans-Serif" font-size="10.00" fill="#000000">/Desktop/git/openage</text>
<text text-anchor="start" x="98" y="-202" font-family="Helvetica,sans-Serif" font-size="10.00" fill="#000000">&#45;new&#45;doc&#45;system/libopenage</text>
<text text-anchor="middle" x="173.5" y="-191" font-family="Helvetica,sans-Serif" font-size="10.00" fill="#000000">/renderer/opengl/shader_program.h</text>
</a>
</g>
</g>
<!-- Node40&#45;&gt;Node41 -->
<g id="edge1" class="edge">
<title>Node40&#45;&gt;Node41</title>
<path fill="none" stroke="#191970" d="M505.7132,-295.3704C441.0692,-283.0308 348.3449,-263.9074 268.5,-242 261.8706,-240.1811 255.0253,-238.1616 248.1885,-236.0468"/>
<polygon fill="#191970" stroke="#191970" points="505.3636,-298.8664 515.8408,-297.292 506.6685,-291.9891 505.3636,-298.8664"/>
</g>
<!-- Node46 -->
<g id="node7" class="node">
<title>Node46</title>
<g id="a_node7"><a xlink:href="../../d5/d26/renderer_2opengl_2shader_8h.xhtml" target="_top" xlink:title="/mnt/c/Users/Jameson\l/Desktop/git/openage\l&#45;new&#45;doc&#45;system/libopenage\l/renderer/opengl/shader.h">
<polygon fill="#ffffff" stroke="#000000" points="278,-184 278,-236 419,-236 419,-184 278,-184"/>
<text text-anchor="start" x="286" y="-224" font-family="Helvetica,sans-Serif" font-size="10.00" fill="#000000">/mnt/c/Users/Jameson</text>
<text text-anchor="start" x="286" y="-213" font-family="Helvetica,sans-Serif" font-size="10.00" fill="#000000">/Desktop/git/openage</text>
<text text-anchor="start" x="286" y="-202" font-family="Helvetica,sans-Serif" font-size="10.00" fill="#000000">&#45;new&#45;doc&#45;system/libopenage</text>
<text text-anchor="middle" x="348.5" y="-191" font-family="Helvetica,sans-Serif" font-size="10.00" fill="#000000">/renderer/opengl/shader.h</text>
</a>
</g>
</g>
<!-- Node40&#45;&gt;Node46 -->
<g id="edge7" class="edge">
<title>Node40&#45;&gt;Node46</title>
<path fill="none" stroke="#191970" d="M506.1831,-276.2534C474.9517,-263.131 439.7316,-248.3326 410.5122,-236.0556"/>
<polygon fill="#191970" stroke="#191970" points="505.1615,-279.6205 515.7365,-280.2675 507.8731,-273.167 505.1615,-279.6205"/>
</g>
<!-- Node48 -->
<g id="node9" class="node">
<title>Node48</title>
<g id="a_node9"><a xlink:href="../../dc/de3/shader__source_8cpp.xhtml" target="_top" xlink:title="/mnt/c/Users/Jameson\l/Desktop/git/openage\l&#45;new&#45;doc&#45;system/libopenage\l/renderer/resources/shader\l_source.cpp">
<polygon fill="#ffffff" stroke="#000000" points="437,-178.5 437,-241.5 578,-241.5 578,-178.5 437,-178.5"/>
<text text-anchor="start" x="445" y="-229.5" font-family="Helvetica,sans-Serif" font-size="10.00" fill="#000000">/mnt/c/Users/Jameson</text>
<text text-anchor="start" x="445" y="-218.5" font-family="Helvetica,sans-Serif" font-size="10.00" fill="#000000">/Desktop/git/openage</text>
<text text-anchor="start" x="445" y="-207.5" font-family="Helvetica,sans-Serif" font-size="10.00" fill="#000000">&#45;new&#45;doc&#45;system/libopenage</text>
<text text-anchor="start" x="445" y="-196.5" font-family="Helvetica,sans-Serif" font-size="10.00" fill="#000000">/renderer/resources/shader</text>
<text text-anchor="middle" x="507.5" y="-185.5" font-family="Helvetica,sans-Serif" font-size="10.00" fill="#000000">_source.cpp</text>
</a>
</g>
</g>
<!-- Node40&#45;&gt;Node48 -->
<g id="edge10" class="edge">
<title>Node40&#45;&gt;Node48</title>
<path fill="none" stroke="#191970" d="M555.3019,-270.5088C547.7701,-260.9748 539.8165,-250.907 532.6046,-241.778"/>
<polygon fill="#191970" stroke="#191970" points="552.5585,-272.6822 561.5039,-278.3594 558.0513,-268.3429 552.5585,-272.6822"/>
</g>
<!-- Node49 -->
<g id="node10" class="node">
<title>Node49</title>
<g id="a_node10"><a xlink:href="../../dc/d6c/renderer_2tests_8cpp.xhtml" target="_top" xlink:title="/mnt/c/Users/Jameson\l/Desktop/git/openage\l&#45;new&#45;doc&#45;system/libopenage\l/renderer/tests.cpp">
<polygon fill="#ffffff" stroke="#000000" points="596,-184 596,-236 737,-236 737,-184 596,-184"/>
<text text-anchor="start" x="604" y="-224" font-family="Helvetica,sans-Serif" font-size="10.00" fill="#000000">/mnt/c/Users/Jameson</text>
<text text-anchor="start" x="604" y="-213" font-family="Helvetica,sans-Serif" font-size="10.00" fill="#000000">/Desktop/git/openage</text>
<text text-anchor="start" x="604" y="-202" font-family="Helvetica,sans-Serif" font-size="10.00" fill="#000000">&#45;new&#45;doc&#45;system/libopenage</text>
<text text-anchor="middle" x="666.5" y="-191" font-family="Helvetica,sans-Serif" font-size="10.00" fill="#000000">/renderer/tests.cpp</text>
</a>
</g>
</g>
<!-- Node40&#45;&gt;Node49 -->
<g id="edge11" class="edge">
<title>Node40&#45;&gt;Node49</title>
<path fill="none" stroke="#191970" d="M618.093,-270.5088C627.3473,-258.9409 637.2303,-246.5871 645.6376,-236.078"/>
<polygon fill="#191970" stroke="#191970" points="615.3264,-268.3642 611.8125,-278.3594 620.7925,-272.7371 615.3264,-268.3642"/>
</g>
<!-- Node50 -->
<g id="node11" class="node">
<title>Node50</title>
<g id="a_node11"><a xlink:href="../../d2/dfa/vulkan_2renderer_8cpp.xhtml" target="_top" xlink:title="/mnt/c/Users/Jameson\l/Desktop/git/openage\l&#45;new&#45;doc&#45;system/libopenage\l/renderer/vulkan/renderer.cpp">
<polygon fill="#ffffff" stroke="#000000" points="749,-89.5 749,-141.5 892,-141.5 892,-89.5 749,-89.5"/>
<text text-anchor="start" x="757" y="-129.5" font-family="Helvetica,sans-Serif" font-size="10.00" fill="#000000">/mnt/c/Users/Jameson</text>
<text text-anchor="start" x="757" y="-118.5" font-family="Helvetica,sans-Serif" font-size="10.00" fill="#000000">/Desktop/git/openage</text>
<text text-anchor="start" x="757" y="-107.5" font-family="Helvetica,sans-Serif" font-size="10.00" fill="#000000">&#45;new&#45;doc&#45;system/libopenage</text>
<text text-anchor="middle" x="820.5" y="-96.5" font-family="Helvetica,sans-Serif" font-size="10.00" fill="#000000">/renderer/vulkan/renderer.cpp</text>
</a>
</g>
</g>
<!-- Node40&#45;&gt;Node50 -->
<g id="edge12" class="edge">
<title>Node40&#45;&gt;Node50</title>
<path fill="none" stroke="#191970" d="M666.7346,-286.9897C693.8786,-276.4232 722.985,-261.7423 745.5,-242 747.6656,-240.101 784.0625,-177.9923 805.3426,-141.523"/>
<polygon fill="#191970" stroke="#191970" points="665.3617,-283.7665 657.2293,-290.5572 667.8215,-290.3201 665.3617,-283.7665"/>
</g>
<!-- Node51 -->
<g id="node12" class="node">
<title>Node51</title>
<g id="a_node12"><a xlink:href="../../dd/dd6/vulkan_2shader__program_8h.xhtml" target="_top" xlink:title="/mnt/c/Users/Jameson\l/Desktop/git/openage\l&#45;new&#45;doc&#45;system/libopenage\l/renderer/vulkan/shader_program.h">
<polygon fill="#ffffff" stroke="#000000" points="793,-184 793,-236 960,-236 960,-184 793,-184"/>
<text text-anchor="start" x="801" y="-224" font-family="Helvetica,sans-Serif" font-size="10.00" fill="#000000">/mnt/c/Users/Jameson</text>
<text text-anchor="start" x="801" y="-213" font-family="Helvetica,sans-Serif" font-size="10.00" fill="#000000">/Desktop/git/openage</text>
<text text-anchor="start" x="801" y="-202" font-family="Helvetica,sans-Serif" font-size="10.00" fill="#000000">&#45;new&#45;doc&#45;system/libopenage</text>
<text text-anchor="middle" x="876.5" y="-191" font-family="Helvetica,sans-Serif" font-size="10.00" fill="#000000">/renderer/vulkan/shader_program.h</text>
</a>
</g>
</g>
<!-- Node40&#45;&gt;Node51 -->
<g id="edge13" class="edge">
<title>Node40&#45;&gt;Node51</title>
<path fill="none" stroke="#191970" d="M666.7055,-282.3429C708.6823,-267.8682 759.7796,-250.2484 801.0364,-236.0219"/>
<polygon fill="#191970" stroke="#191970" points="665.3839,-279.0963 657.0711,-285.6651 667.6659,-285.714 665.3839,-279.0963"/>
</g>
<!-- Node42 -->
<g id="node3" class="node">
<title>Node42</title>
<g id="a_node3"><a xlink:href="../../d5/d49/opengl_2renderer_8h.xhtml" target="_top" xlink:title="/mnt/c/Users/Jameson\l/Desktop/git/openage\l&#45;new&#45;doc&#45;system/libopenage\l/renderer/opengl/renderer.h">
<polygon fill="#ffffff" stroke="#000000" points="100,-89.5 100,-141.5 241,-141.5 241,-89.5 100,-89.5"/>
<text text-anchor="start" x="108" y="-129.5" font-family="Helvetica,sans-Serif" font-size="10.00" fill="#000000">/mnt/c/Users/Jameson</text>
<text text-anchor="start" x="108" y="-118.5" font-family="Helvetica,sans-Serif" font-size="10.00" fill="#000000">/Desktop/git/openage</text>
<text text-anchor="start" x="108" y="-107.5" font-family="Helvetica,sans-Serif" font-size="10.00" fill="#000000">&#45;new&#45;doc&#45;system/libopenage</text>
<text text-anchor="middle" x="170.5" y="-96.5" font-family="Helvetica,sans-Serif" font-size="10.00" fill="#000000">/renderer/opengl/renderer.h</text>
</a>
</g>
</g>
<!-- Node41&#45;&gt;Node42 -->
<g id="edge2" class="edge">
<title>Node41&#45;&gt;Node42</title>
<path fill="none" stroke="#191970" d="M172.3465,-173.6645C172.0098,-163.0577 171.6484,-151.6746 171.3354,-141.8157"/>
<polygon fill="#191970" stroke="#191970" points="168.8567,-174.0434 172.6723,-183.9273 175.8531,-173.8213 168.8567,-174.0434"/>
</g>
<!-- Node43 -->
<g id="node4" class="node">
<title>Node43</title>
<g id="a_node4"><a xlink:href="../../dd/d3d/opengl_2renderer_8cpp.xhtml" target="_top" xlink:title="/mnt/c/Users/Jameson\l/Desktop/git/openage\l&#45;new&#45;doc&#45;system/libopenage\l/renderer/opengl/renderer.cpp">
<polygon fill="#ffffff" stroke="#000000" points="0,-.5 0,-52.5 143,-52.5 143,-.5 0,-.5"/>
<text text-anchor="start" x="8" y="-40.5" font-family="Helvetica,sans-Serif" font-size="10.00" fill="#000000">/mnt/c/Users/Jameson</text>
<text text-anchor="start" x="8" y="-29.5" font-family="Helvetica,sans-Serif" font-size="10.00" fill="#000000">/Desktop/git/openage</text>
<text text-anchor="start" x="8" y="-18.5" font-family="Helvetica,sans-Serif" font-size="10.00" fill="#000000">&#45;new&#45;doc&#45;system/libopenage</text>
<text text-anchor="middle" x="71.5" y="-7.5" font-family="Helvetica,sans-Serif" font-size="10.00" fill="#000000">/renderer/opengl/renderer.cpp</text>
</a>
</g>
</g>
<!-- Node41&#45;&gt;Node43 -->
<g id="edge5" class="edge">
<title>Node41&#45;&gt;Node43</title>
<path fill="none" stroke="#191970" d="M122.2548,-177.685C110.0883,-167.6699 98.3714,-155.6297 90.5,-142 74.544,-114.3716 71.0129,-77.19 70.668,-52.5642"/>
<polygon fill="#191970" stroke="#191970" points="120.2482,-180.5592 130.2789,-183.9703 124.5648,-175.0485 120.2482,-180.5592"/>
</g>
<!-- Node45 -->
<g id="node6" class="node">
<title>Node45</title>
<g id="a_node6"><a xlink:href="../../de/d88/shader__program_8cpp.xhtml" target="_top" xlink:title="/mnt/c/Users/Jameson\l/Desktop/git/openage\l&#45;new&#45;doc&#45;system/libopenage\l/renderer/opengl/shader_program.cpp">
<polygon fill="#ffffff" stroke="#000000" points="259.5,-89.5 259.5,-141.5 437.5,-141.5 437.5,-89.5 259.5,-89.5"/>
<text text-anchor="start" x="267.5" y="-129.5" font-family="Helvetica,sans-Serif" font-size="10.00" fill="#000000">/mnt/c/Users/Jameson</text>
<text text-anchor="start" x="267.5" y="-118.5" font-family="Helvetica,sans-Serif" font-size="10.00" fill="#000000">/Desktop/git/openage</text>
<text text-anchor="start" x="267.5" y="-107.5" font-family="Helvetica,sans-Serif" font-size="10.00" fill="#000000">&#45;new&#45;doc&#45;system/libopenage</text>
<text text-anchor="middle" x="348.5" y="-96.5" font-family="Helvetica,sans-Serif" font-size="10.00" fill="#000000">/renderer/opengl/shader_program.cpp</text>
</a>
</g>
</g>
<!-- Node41&#45;&gt;Node45 -->
<g id="edge6" class="edge">
<title>Node41&#45;&gt;Node45</title>
<path fill="none" stroke="#191970" d="M230.8475,-179.0324C253.2355,-166.9429 278.624,-153.2331 300.0713,-141.6515"/>
<polygon fill="#191970" stroke="#191970" points="228.9188,-176.0961 221.7828,-183.9273 232.2449,-182.2554 228.9188,-176.0961"/>
</g>
<!-- Node42&#45;&gt;Node43 -->
<g id="edge3" class="edge">
<title>Node42&#45;&gt;Node43</title>
<path fill="none" stroke="#191970" d="M133.8762,-82.5755C122.8524,-72.6653 110.913,-61.9319 100.4593,-52.5341"/>
<polygon fill="#191970" stroke="#191970" points="131.5556,-85.1958 141.3322,-89.2784 136.2354,-79.9901 131.5556,-85.1958"/>
</g>
<!-- Node44 -->
<g id="node5" class="node">
<title>Node44</title>
<g id="a_node5"><a xlink:href="../../da/d22/opengl_2window_8cpp.xhtml" target="_top" xlink:title="/mnt/c/Users/Jameson\l/Desktop/git/openage\l&#45;new&#45;doc&#45;system/libopenage\l/renderer/opengl/window.cpp">
<polygon fill="#ffffff" stroke="#000000" points="161,-.5 161,-52.5 302,-52.5 302,-.5 161,-.5"/>
<text text-anchor="start" x="169" y="-40.5" font-family="Helvetica,sans-Serif" font-size="10.00" fill="#000000">/mnt/c/Users/Jameson</text>
<text text-anchor="start" x="169" y="-29.5" font-family="Helvetica,sans-Serif" font-size="10.00" fill="#000000">/Desktop/git/openage</text>
<text text-anchor="start" x="169" y="-18.5" font-family="Helvetica,sans-Serif" font-size="10.00" fill="#000000">&#45;new&#45;doc&#45;system/libopenage</text>
<text text-anchor="middle" x="231.5" y="-7.5" font-family="Helvetica,sans-Serif" font-size="10.00" fill="#000000">/renderer/opengl/window.cpp</text>
</a>
</g>
</g>
<!-- Node42&#45;&gt;Node44 -->
<g id="edge4" class="edge">
<title>Node42&#45;&gt;Node44</title>
<path fill="none" stroke="#191970" d="M194.2472,-80.8525C200.7044,-71.4313 207.5868,-61.3897 213.6564,-52.5341"/>
<polygon fill="#191970" stroke="#191970" points="191.2386,-79.0512 188.4721,-89.2784 197.0126,-83.0086 191.2386,-79.0512"/>
</g>
<!-- Node46&#45;&gt;Node45 -->
<g id="edge9" class="edge">
<title>Node46&#45;&gt;Node45</title>
<path fill="none" stroke="#191970" d="M348.5,-173.6645C348.5,-163.0577 348.5,-151.6746 348.5,-141.8157"/>
<polygon fill="#191970" stroke="#191970" points="345.0001,-173.9273 348.5,-183.9273 352.0001,-173.9273 345.0001,-173.9273"/>
</g>
<!-- Node47 -->
<g id="node8" class="node">
<title>Node47</title>
<g id="a_node8"><a xlink:href="../../dc/d8e/renderer_2opengl_2shader_8cpp.xhtml" target="_top" xlink:title="/mnt/c/Users/Jameson\l/Desktop/git/openage\l&#45;new&#45;doc&#45;system/libopenage\l/renderer/opengl/shader.cpp">
<polygon fill="#ffffff" stroke="#000000" points="456,-89.5 456,-141.5 597,-141.5 597,-89.5 456,-89.5"/>
<text text-anchor="start" x="464" y="-129.5" font-family="Helvetica,sans-Serif" font-size="10.00" fill="#000000">/mnt/c/Users/Jameson</text>
<text text-anchor="start" x="464" y="-118.5" font-family="Helvetica,sans-Serif" font-size="10.00" fill="#000000">/Desktop/git/openage</text>
<text text-anchor="start" x="464" y="-107.5" font-family="Helvetica,sans-Serif" font-size="10.00" fill="#000000">&#45;new&#45;doc&#45;system/libopenage</text>
<text text-anchor="middle" x="526.5" y="-96.5" font-family="Helvetica,sans-Serif" font-size="10.00" fill="#000000">/renderer/opengl/shader.cpp</text>
</a>
</g>
</g>
<!-- Node46&#45;&gt;Node47 -->
<g id="edge8" class="edge">
<title>Node46&#45;&gt;Node47</title>
<path fill="none" stroke="#191970" d="M406.5271,-179.1935C429.3727,-167.0648 455.3291,-153.2845 477.2411,-141.6515"/>
<polygon fill="#191970" stroke="#191970" points="404.8017,-176.1468 397.6105,-183.9273 408.0841,-182.3295 404.8017,-176.1468"/>
</g>
<!-- Node51&#45;&gt;Node50 -->
<g id="edge14" class="edge">
<title>Node51&#45;&gt;Node50</title>
<path fill="none" stroke="#191970" d="M855.946,-175.3151C849.3874,-164.2475 842.2411,-152.1881 836.0945,-141.8157"/>
<polygon fill="#191970" stroke="#191970" points="852.9404,-177.1087 861.0495,-183.9273 858.9625,-173.54 852.9404,-177.1087"/>
</g>
</g>
</svg>
        <g id="navigator" transform="translate(0 0)" fill="#404254">
                <rect fill="#f2f5e9" fill-opacity="0.5" stroke="#606060" stroke-width=".5" x="0" y="0" width="60" height="60"/>
                <use id="zoomplus" xlink:href="#zoomPlus" x="17" y="9" onmousedown="handleZoom(evt,'in')"/>
                <use id="zoomminus" xlink:href="#zoomMin" x="42" y="9" onmousedown="handleZoom(evt,'out')"/>
                <use id="reset" xlink:href="#resetDef" x="30" y="36" onmousedown="handleReset()"/>
                <g id="arrowUp" xlink:href="#dirArrow" transform="translate(30 24)" onmousedown="handlePan(0,-1)">
                  <use xlink:href="#rim" fill="#404040">
                        <set attributeName="fill" to="#808080" begin="arrowUp.mouseover" end="arrowUp.mouseout"/>
                  </use>
                  <path fill="none" stroke="white" stroke-width="1.5" d="M0,-3.0v7 M-2.5,-0.5L0,-3.0L2.5,-0.5"/>
                </g>
                <g id="arrowRight" xlink:href="#dirArrow" transform="rotate(90) translate(36 -43)" onmousedown="handlePan(1,0)">
                  <use xlink:href="#rim" fill="#404040">
                        <set attributeName="fill" to="#808080" begin="arrowRight.mouseover" end="arrowRight.mouseout"/>
                  </use>
                  <path fill="none" stroke="white" stroke-width="1.5" d="M0,-3.0v7 M-2.5,-0.5L0,-3.0L2.5,-0.5"/>
                </g>
                <g id="arrowDown" xlink:href="#dirArrow" transform="rotate(180) translate(-30 -48)" onmousedown="handlePan(0,1)">
                  <use xlink:href="#rim" fill="#404040">
                        <set attributeName="fill" to="#808080" begin="arrowDown.mouseover" end="arrowDown.mouseout"/>
                  </use>
                  <path fill="none" stroke="white" stroke-width="1.5" d="M0,-3.0v7 M-2.5,-0.5L0,-3.0L2.5,-0.5"/>
                </g>
                <g id="arrowLeft" xlink:href="#dirArrow" transform="rotate(270) translate(-36 17)" onmousedown="handlePan(-1,0)">
                  <use xlink:href="#rim" fill="#404040">
                        <set attributeName="fill" to="#808080" begin="arrowLeft.mouseover" end="arrowLeft.mouseout"/>
                  </use>
                  <path fill="none" stroke="white" stroke-width="1.5" d="M0,-3.0v7 M-2.5,-0.5L0,-3.0L2.5,-0.5"/>
                </g>
        </g>
        <svg viewBox="0 0 15 15" width="100%" height="30px" preserveAspectRatio="xMaxYMin meet">
         <g id="arrow_out" transform="scale(0.3 0.3)">
          <a xlink:href="shader__source_8h__dep__incl_org.svg" target="_base">
           <rect id="button" ry="5" rx="5" y="6" x="6" height="38" width="38"
                fill="#f2f5e9" fill-opacity="0.5" stroke="#606060" stroke-width="1.0"/>
           <path id="arrow"
             d="M 11.500037,31.436501 C 11.940474,20.09759 22.043105,11.32322 32.158766,21.979434 L 37.068811,17.246167 C 37.068811,17.246167 37.088388,32 37.088388,32 L 22.160133,31.978069 C 22.160133,31.978069 26.997745,27.140456 26.997745,27.140456 C 18.528582,18.264221 13.291696,25.230495 11.500037,31.436501 z"
             style="fill:#404040;"/>
          </a>
         </g>
        </svg>
</svg>
