<?xml version="1.0" encoding="UTF-8" standalone="no"?>
<!DOCTYPE svg PUBLIC "-//W3C//DTD SVG 1.1//EN"
 "http://www.w3.org/Graphics/SVG/1.1/DTD/svg11.dtd">
<!-- Generated by graphviz version 2.40.1 (20161225.0304)
 -->
<!-- Title: openage.util.math.clamp Pages: 1 -->
<svg width="474pt" height="96pt"
 viewBox="0.00 0.00 474.00 95.50" xmlns="http://www.w3.org/2000/svg" xmlns:xlink="http://www.w3.org/1999/xlink">
<g id="graph0" class="graph" transform="scale(1 1) rotate(0) translate(4 91.5)">
<title>openage.util.math.clamp</title>
<polygon fill="#ffffff" stroke="transparent" points="-4,4 -4,-91.5 470,-91.5 470,4 -4,4"/>
<!-- Node0 -->
<g id="node1" class="node">
<title>Node0</title>
<polygon fill="#bfbfbf" stroke="#000000" points="0,-49 0,-68 123,-68 123,-49 0,-49"/>
<text text-anchor="middle" x="61.5" y="-56" font-family="Helvetica,sans-Serif" font-size="10.00" fill="#000000">openage.util.math.clamp</text>
</g>
<!-- Node1 -->
<g id="node2" class="node">
<title>Node1</title>
<g id="a_node2"><a xlink:href="../../de/d06/namespaceopenage_1_1console_1_1tests.xhtml#a46ebd3333dc9196558ac9aced828d117" target="_top" xlink:title="openage::console::tests::max">
<polygon fill="#ffffff" stroke="#000000" points="159,-68 159,-87 305,-87 305,-68 159,-68"/>
<text text-anchor="middle" x="232" y="-75" font-family="Helvetica,sans-Serif" font-size="10.00" fill="#000000">openage::console::tests::max</text>
</a>
</g>
</g>
<!-- Node0&#45;&gt;Node1 -->
<g id="edge1" class="edge">
<title>Node0&#45;&gt;Node1</title>
<path fill="none" stroke="#191970" d="M123.0544,-65.3594C131.4186,-66.2915 140.1133,-67.2604 148.7801,-68.2262"/>
<polygon fill="#191970" stroke="#191970" points="148.5936,-71.727 158.9197,-69.3562 149.3689,-64.7701 148.5936,-71.727"/>
</g>
<!-- Node2 -->
<g id="node3" class="node">
<title>Node2</title>
<g id="a_node3"><a xlink:href="../../d8/dcc/namespacestd.xhtml#a34591a1d8ee5da3f16f56554590d5e16" target="_top" xlink:title="std::min">
<polygon fill="#ffffff" stroke="#000000" points="206,-30 206,-49 258,-49 258,-30 206,-30"/>
<text text-anchor="middle" x="232" y="-37" font-family="Helvetica,sans-Serif" font-size="10.00" fill="#000000">std::min</text>
</a>
</g>
</g>
<!-- Node0&#45;&gt;Node2 -->
<g id="edge2" class="edge">
<title>Node0&#45;&gt;Node2</title>
<path fill="none" stroke="#191970" d="M123.0544,-51.6406C147.3712,-48.9308 174.482,-45.9096 195.576,-43.559"/>
<polygon fill="#191970" stroke="#191970" points="196.1589,-47.0158 205.7097,-42.4297 195.3836,-40.0588 196.1589,-47.0158"/>
</g>
<!-- Node3 -->
<g id="node4" class="node">
<title>Node3</title>
<g id="a_node4"><a xlink:href="../../dc/d65/classopenage_1_1util_1_1_fixed_point.xhtml#aa01c403263c2142c0ce9ce40cde89066" target="_top" xlink:title="Factory function to construct a fixed&#45;point number with a given raw value. ">
<polygon fill="#ffffff" stroke="#000000" points="341,-49.5 341,-79.5 466,-79.5 466,-49.5 341,-49.5"/>
<text text-anchor="start" x="349" y="-67.5" font-family="Helvetica,sans-Serif" font-size="10.00" fill="#000000">openage::util::FixedPoint</text>
<text text-anchor="middle" x="403.5" y="-56.5" font-family="Helvetica,sans-Serif" font-size="10.00" fill="#000000">::from_raw_value</text>
</a>
</g>
</g>
<!-- Node2&#45;&gt;Node3 -->
<g id="edge3" class="edge">
<title>Node2&#45;&gt;Node3</title>
<path fill="none" stroke="#191970" d="M258.0472,-43.297C277.4044,-46.1187 304.8197,-50.1151 330.6395,-53.8789"/>
<polygon fill="#191970" stroke="#191970" points="330.4145,-57.3831 340.8148,-55.3622 331.4243,-50.4563 330.4145,-57.3831"/>
</g>
<!-- Node4 -->
<g id="node5" class="node">
<title>Node4</title>
<g id="a_node5"><a xlink:href="../../dc/d65/classopenage_1_1util_1_1_fixed_point.xhtml#affe7a3ec44c6f7ac96312875af742f87" target="_top" xlink:title="Converter to retrieve the raw value of the fixed&#45;point number. ">
<polygon fill="#ffffff" stroke="#000000" points="341,-.5 341,-30.5 466,-30.5 466,-.5 341,-.5"/>
<text text-anchor="start" x="349" y="-18.5" font-family="Helvetica,sans-Serif" font-size="10.00" fill="#000000">openage::util::FixedPoint</text>
<text text-anchor="middle" x="403.5" y="-7.5" font-family="Helvetica,sans-Serif" font-size="10.00" fill="#000000">::get_raw_value</text>
</a>
</g>
</g>
<!-- Node2&#45;&gt;Node4 -->
<g id="edge4" class="edge">
<title>Node2&#45;&gt;Node4</title>
<path fill="none" stroke="#191970" d="M258.0472,-35.8549C277.4044,-33.146 304.8197,-29.3095 330.6395,-25.6962"/>
<polygon fill="#191970" stroke="#191970" points="331.3964,-29.1245 340.8148,-24.2723 330.4262,-22.192 331.3964,-29.1245"/>
</g>
</g>
</svg>
