<?xml version="1.0" encoding="UTF-8" standalone="no"?>
<!DOCTYPE svg PUBLIC "-//W3C//DTD SVG 1.1//EN"
 "http://www.w3.org/Graphics/SVG/1.1/DTD/svg11.dtd">
<!-- Generated by graphviz version 2.40.1 (20161225.0304)
 -->
<!-- Title: openage.convert.dataformat.members.IncludeMembers.__repr__ Pages: 1 -->
<svg width="505pt" height="39pt"
 viewBox="0.00 0.00 505.00 39.00" xmlns="http://www.w3.org/2000/svg" xmlns:xlink="http://www.w3.org/1999/xlink">
<g id="graph0" class="graph" transform="scale(1 1) rotate(0) translate(4 35)">
<title>openage.convert.dataformat.members.IncludeMembers.__repr__</title>
<polygon fill="#ffffff" stroke="transparent" points="-4,4 -4,-35 501,-35 501,4 -4,4"/>
<!-- Node0 -->
<g id="node1" class="node">
<title>Node0</title>
<polygon fill="#bfbfbf" stroke="#000000" points="0,-.5 0,-30.5 185,-30.5 185,-.5 0,-.5"/>
<text text-anchor="start" x="8" y="-18.5" font-family="Helvetica,sans-Serif" font-size="10.00" fill="#000000">openage.convert.dataformat.members.</text>
<text text-anchor="middle" x="92.5" y="-7.5" font-family="Helvetica,sans-Serif" font-size="10.00" fill="#000000">IncludeMembers.__repr__</text>
</g>
<!-- Node1 -->
<g id="node2" class="node">
<title>Node1</title>
<g id="a_node2"><a xlink:href="../../de/d60/namespaceopenage_1_1util.xhtml#a7bc4421a5f0f57f3a0aba3f96eb8d19c" target="_top" xlink:title="method that behaves similar to python&#39;s &quot;repr&quot;. ">
<polygon fill="#ffffff" stroke="#000000" points="221,-6 221,-25 316,-25 316,-6 221,-6"/>
<text text-anchor="middle" x="268.5" y="-13" font-family="Helvetica,sans-Serif" font-size="10.00" fill="#000000">openage::util::repr</text>
</a>
</g>
</g>
<!-- Node0&#45;&gt;Node1 -->
<g id="edge1" class="edge">
<title>Node0&#45;&gt;Node1</title>
<path fill="none" stroke="#191970" d="M185.1387,-15.5C193.7565,-15.5 202.3148,-15.5 210.4819,-15.5"/>
<polygon fill="#191970" stroke="#191970" points="210.5925,-19.0001 220.5925,-15.5 210.5925,-12.0001 210.5925,-19.0001"/>
</g>
<!-- Node2 -->
<g id="node3" class="node">
<title>Node2</title>
<g id="a_node3"><a xlink:href="../../d5/d0e/namespaceopenage_1_1testing_1_1testing.xhtml#ac25bf81db406af62d08113ef7ae9fd6e" target="_top" xlink:title="openage.testing.testing.result">
<polygon fill="#ffffff" stroke="#000000" points="352,-6 352,-25 497,-25 497,-6 352,-6"/>
<text text-anchor="middle" x="424.5" y="-13" font-family="Helvetica,sans-Serif" font-size="10.00" fill="#000000">openage.testing.testing.result</text>
</a>
</g>
</g>
<!-- Node1&#45;&gt;Node2 -->
<g id="edge2" class="edge">
<title>Node1&#45;&gt;Node2</title>
<path fill="none" stroke="#191970" d="M316.1528,-9.2263C324.2675,-8.9587 332.9013,-8.8038 341.6168,-8.7618"/>
<polygon fill="#191970" stroke="#191970" points="341.8584,-12.2617 351.8592,-8.7642 341.8601,-5.2617 341.8584,-12.2617"/>
</g>
<!-- Node2&#45;&gt;Node1 -->
<g id="edge3" class="edge">
<title>Node2&#45;&gt;Node1</title>
<path fill="none" stroke="#191970" d="M351.8592,-22.2358C343.2416,-22.2815 334.5363,-22.2168 326.1668,-22.0419"/>
<polygon fill="#191970" stroke="#191970" points="326.2429,-18.5428 316.1528,-21.7737 326.0555,-25.5403 326.2429,-18.5428"/>
</g>
</g>
</svg>
