<?xml version="1.0" encoding="UTF-8" standalone="no"?>
<!DOCTYPE svg PUBLIC "-//W3C//DTD SVG 1.1//EN"
 "http://www.w3.org/Graphics/SVG/1.1/DTD/svg11.dtd">
<!-- Generated by graphviz version 2.40.1 (20161225.0304)
 -->
<!-- Title: openage::TerrainSearch::reset Pages: 1 -->
<svg width="755pt" height="137pt"
 viewBox="0.00 0.00 755.00 137.00" xmlns="http://www.w3.org/2000/svg" xmlns:xlink="http://www.w3.org/1999/xlink">
<g id="graph0" class="graph" transform="scale(1 1) rotate(0) translate(4 133)">
<title>openage::TerrainSearch::reset</title>
<polygon fill="#ffffff" stroke="transparent" points="-4,4 -4,-133 751,-133 751,4 -4,4"/>
<!-- Node20 -->
<g id="node1" class="node">
<title>Node20</title>
<polygon fill="#bfbfbf" stroke="#000000" points="0,-68.5 0,-98.5 120,-98.5 120,-68.5 0,-68.5"/>
<text text-anchor="start" x="8" y="-86.5" font-family="Helvetica,sans-Serif" font-size="10.00" fill="#000000">openage::TerrainSearch</text>
<text text-anchor="middle" x="60" y="-75.5" font-family="Helvetica,sans-Serif" font-size="10.00" fill="#000000">::reset</text>
</g>
<!-- Node21 -->
<g id="node2" class="node">
<title>Node21</title>
<g id="a_node2"><a xlink:href="../../d0/dee/classopenage_1_1_terrain_search.xhtml#a9865063a926eb992bdc7c94eab5eb85e" target="_top" xlink:title="returns all objects on the next tile ">
<polygon fill="#ffffff" stroke="#000000" points="156,-68.5 156,-98.5 276,-98.5 276,-68.5 156,-68.5"/>
<text text-anchor="start" x="164" y="-86.5" font-family="Helvetica,sans-Serif" font-size="10.00" fill="#000000">openage::TerrainSearch</text>
<text text-anchor="middle" x="216" y="-75.5" font-family="Helvetica,sans-Serif" font-size="10.00" fill="#000000">::next_tile</text>
</a>
</g>
</g>
<!-- Node20&#45;&gt;Node21 -->
<g id="edge1" class="edge">
<title>Node20&#45;&gt;Node21</title>
<path fill="none" stroke="#191970" d="M130.538,-83.5C138.9903,-83.5 147.5605,-83.5 155.8467,-83.5"/>
<polygon fill="#191970" stroke="#191970" points="130.3137,-80.0001 120.3137,-83.5 130.3136,-87.0001 130.3137,-80.0001"/>
</g>
<!-- Node22 -->
<g id="node3" class="node">
<title>Node22</title>
<g id="a_node3"><a xlink:href="../../da/d23/namespaceopenage.xhtml#a8d7d58d26d71e7447de628441782a751" target="_top" xlink:title="openage::find_in_radius">
<polygon fill="#ffffff" stroke="#000000" points="312,-98 312,-117 431,-117 431,-98 312,-98"/>
<text text-anchor="middle" x="371.5" y="-105" font-family="Helvetica,sans-Serif" font-size="10.00" fill="#000000">openage::find_in_radius</text>
</a>
</g>
</g>
<!-- Node21&#45;&gt;Node22 -->
<g id="edge2" class="edge">
<title>Node21&#45;&gt;Node22</title>
<path fill="none" stroke="#191970" d="M286.1078,-94.3205C294.6862,-95.6445 303.3899,-96.9878 311.7957,-98.2852"/>
<polygon fill="#191970" stroke="#191970" points="286.5372,-90.8454 276.1204,-92.779 285.4694,-97.7635 286.5372,-90.8454"/>
</g>
<!-- Node24 -->
<g id="node5" class="node">
<title>Node24</title>
<g id="a_node5"><a xlink:href="../../da/d23/namespaceopenage.xhtml#abf30260a65f6b06163a5dad881836523" target="_top" xlink:title="openage::find_near">
<polygon fill="#ffffff" stroke="#000000" points="322,-55 322,-74 421,-74 421,-55 322,-55"/>
<text text-anchor="middle" x="371.5" y="-62" font-family="Helvetica,sans-Serif" font-size="10.00" fill="#000000">openage::find_near</text>
</a>
</g>
</g>
<!-- Node21&#45;&gt;Node24 -->
<g id="edge4" class="edge">
<title>Node21&#45;&gt;Node24</title>
<path fill="none" stroke="#191970" d="M286.0996,-74.9348C298.0782,-73.4712 310.3014,-71.9776 321.617,-70.595"/>
<polygon fill="#191970" stroke="#191970" points="285.622,-71.467 276.1204,-76.1541 286.4711,-78.4153 285.622,-71.467"/>
</g>
<!-- Node23 -->
<g id="node4" class="node">
<title>Node23</title>
<g id="a_node4"><a xlink:href="../../d6/dc0/classopenage_1_1_build_action.xhtml#a9f64ee829cfb671065dcfc7c876c346e" target="_top" xlink:title="action to perform when popped from a units action stack ">
<polygon fill="#ffffff" stroke="#000000" points="476.5,-98.5 476.5,-128.5 585.5,-128.5 585.5,-98.5 476.5,-98.5"/>
<text text-anchor="start" x="484.5" y="-116.5" font-family="Helvetica,sans-Serif" font-size="10.00" fill="#000000">openage::BuildAction</text>
<text text-anchor="middle" x="531" y="-105.5" font-family="Helvetica,sans-Serif" font-size="10.00" fill="#000000">::on_completion</text>
</a>
</g>
</g>
<!-- Node22&#45;&gt;Node23 -->
<g id="edge3" class="edge">
<title>Node22&#45;&gt;Node23</title>
<path fill="none" stroke="#191970" d="M441.5034,-110.1334C453.1741,-110.5724 465.1275,-111.022 476.3436,-111.444"/>
<polygon fill="#191970" stroke="#191970" points="441.4702,-106.6297 431.3457,-109.7512 441.207,-113.6248 441.4702,-106.6297"/>
</g>
<!-- Node25 -->
<g id="node6" class="node">
<title>Node25</title>
<g id="a_node6"><a xlink:href="../../db/d43/classopenage_1_1_gather_action.xhtml#a578fcecec436b05efb5059bbb35837fe" target="_top" xlink:title="openage::GatherAction\l::nearest_dropsite">
<polygon fill="#ffffff" stroke="#000000" points="473,-49.5 473,-79.5 589,-79.5 589,-49.5 473,-49.5"/>
<text text-anchor="start" x="481" y="-67.5" font-family="Helvetica,sans-Serif" font-size="10.00" fill="#000000">openage::GatherAction</text>
<text text-anchor="middle" x="531" y="-56.5" font-family="Helvetica,sans-Serif" font-size="10.00" fill="#000000">::nearest_dropsite</text>
</a>
</g>
</g>
<!-- Node24&#45;&gt;Node25 -->
<g id="edge5" class="edge">
<title>Node24&#45;&gt;Node25</title>
<path fill="none" stroke="#191970" d="M431.2852,-64.5C444.8615,-64.5 459.2628,-64.5 472.7733,-64.5"/>
<polygon fill="#191970" stroke="#191970" points="431.0925,-61.0001 421.0925,-64.5 431.0924,-68.0001 431.0925,-61.0001"/>
</g>
<!-- Node27 -->
<g id="node8" class="node">
<title>Node27</title>
<g id="a_node8"><a xlink:href="../../db/d43/classopenage_1_1_gather_action.xhtml#ab76d756df9989badfa91e272f85dee9c" target="_top" xlink:title="openage::GatherAction\l::on_completion_in_range">
<polygon fill="#ffffff" stroke="#000000" points="467,-.5 467,-30.5 595,-30.5 595,-.5 467,-.5"/>
<text text-anchor="start" x="475" y="-18.5" font-family="Helvetica,sans-Serif" font-size="10.00" fill="#000000">openage::GatherAction</text>
<text text-anchor="middle" x="531" y="-7.5" font-family="Helvetica,sans-Serif" font-size="10.00" fill="#000000">::on_completion_in_range</text>
</a>
</g>
</g>
<!-- Node24&#45;&gt;Node27 -->
<g id="edge7" class="edge">
<title>Node24&#45;&gt;Node27</title>
<path fill="none" stroke="#191970" d="M412.3275,-51.9574C433.5811,-45.4281 459.721,-37.3976 482.0531,-30.537"/>
<polygon fill="#191970" stroke="#191970" points="411.1631,-48.6536 402.6318,-54.936 413.2188,-55.3449 411.1631,-48.6536"/>
</g>
<!-- Node26 -->
<g id="node7" class="node">
<title>Node26</title>
<g id="a_node7"><a xlink:href="../../db/d43/classopenage_1_1_gather_action.xhtml#ae49e08d7e107415297f6c58320570858" target="_top" xlink:title="Control units action when in range of the target. ">
<polygon fill="#ffffff" stroke="#000000" points="631,-49.5 631,-79.5 747,-79.5 747,-49.5 631,-49.5"/>
<text text-anchor="start" x="639" y="-67.5" font-family="Helvetica,sans-Serif" font-size="10.00" fill="#000000">openage::GatherAction</text>
<text text-anchor="middle" x="689" y="-56.5" font-family="Helvetica,sans-Serif" font-size="10.00" fill="#000000">::update_in_range</text>
</a>
</g>
</g>
<!-- Node25&#45;&gt;Node26 -->
<g id="edge6" class="edge">
<title>Node25&#45;&gt;Node26</title>
<path fill="none" stroke="#191970" d="M599.6732,-64.5C610.0702,-64.5 620.71,-64.5 630.8555,-64.5"/>
<polygon fill="#191970" stroke="#191970" points="599.3845,-61.0001 589.3845,-64.5 599.3844,-68.0001 599.3845,-61.0001"/>
</g>
</g>
</svg>
