<?xml version="1.0" encoding="UTF-8" standalone="no"?>
<!DOCTYPE svg PUBLIC "-//W3C//DTD SVG 1.1//EN"
 "http://www.w3.org/Graphics/SVG/1.1/DTD/svg11.dtd">
<!-- Generated by graphviz version 2.40.1 (20161225.0304)
 -->
<!-- Title: openage.util.fslike.filecollection.FileCollection.mtime Pages: 1 -->
<svg width="545pt" height="39pt"
 viewBox="0.00 0.00 545.00 39.00" xmlns="http://www.w3.org/2000/svg" xmlns:xlink="http://www.w3.org/1999/xlink">
<g id="graph0" class="graph" transform="scale(1 1) rotate(0) translate(4 35)">
<title>openage.util.fslike.filecollection.FileCollection.mtime</title>
<polygon fill="#ffffff" stroke="transparent" points="-4,4 -4,-35 541,-35 541,4 -4,4"/>
<!-- Node48 -->
<g id="node1" class="node">
<title>Node48</title>
<polygon fill="#bfbfbf" stroke="#000000" points="0,-.5 0,-30.5 155,-30.5 155,-.5 0,-.5"/>
<text text-anchor="start" x="8" y="-18.5" font-family="Helvetica,sans-Serif" font-size="10.00" fill="#000000">openage.util.fslike.filecollection.</text>
<text text-anchor="middle" x="77.5" y="-7.5" font-family="Helvetica,sans-Serif" font-size="10.00" fill="#000000">FileCollection.mtime</text>
</g>
<!-- Node49 -->
<g id="node2" class="node">
<title>Node49</title>
<g id="a_node2"><a xlink:href="../../dc/d11/classopenage_1_1util_1_1fslike_1_1filecollection_1_1_file_collection.xhtml#ab46de614c539e3beed2affa49fd09779" target="_top" xlink:title="Gets a file entry. ">
<polygon fill="#ffffff" stroke="#000000" points="191,-.5 191,-30.5 346,-30.5 346,-.5 191,-.5"/>
<text text-anchor="start" x="199" y="-18.5" font-family="Helvetica,sans-Serif" font-size="10.00" fill="#000000">openage.util.fslike.filecollection.</text>
<text text-anchor="middle" x="268.5" y="-7.5" font-family="Helvetica,sans-Serif" font-size="10.00" fill="#000000">FileCollection.get_fileentry</text>
</a>
</g>
</g>
<!-- Node48&#45;&gt;Node49 -->
<g id="edge1" class="edge">
<title>Node48&#45;&gt;Node49</title>
<path fill="none" stroke="#191970" d="M155.187,-15.5C163.6495,-15.5 172.3055,-15.5 180.8763,-15.5"/>
<polygon fill="#191970" stroke="#191970" points="180.8819,-19.0001 190.8818,-15.5 180.8818,-12.0001 180.8819,-19.0001"/>
</g>
<!-- Node50 -->
<g id="node3" class="node">
<title>Node50</title>
<g id="a_node3"><a xlink:href="../../dc/d11/classopenage_1_1util_1_1fslike_1_1filecollection_1_1_file_collection.xhtml#a236b83a25d5f87c98604b37597c2baf9" target="_top" xlink:title="Fetches the fileentries, subdirentries tuple for the given dir. ">
<polygon fill="#ffffff" stroke="#000000" points="382,-.5 382,-30.5 537,-30.5 537,-.5 382,-.5"/>
<text text-anchor="start" x="390" y="-18.5" font-family="Helvetica,sans-Serif" font-size="10.00" fill="#000000">openage.util.fslike.filecollection.</text>
<text text-anchor="middle" x="459.5" y="-7.5" font-family="Helvetica,sans-Serif" font-size="10.00" fill="#000000">FileCollection.get_direntries</text>
</a>
</g>
</g>
<!-- Node49&#45;&gt;Node50 -->
<g id="edge2" class="edge">
<title>Node49&#45;&gt;Node50</title>
<path fill="none" stroke="#191970" d="M346.187,-15.5C354.6495,-15.5 363.3055,-15.5 371.8763,-15.5"/>
<polygon fill="#191970" stroke="#191970" points="371.8819,-19.0001 381.8818,-15.5 371.8818,-12.0001 371.8819,-19.0001"/>
</g>
</g>
</svg>
