<?xml version="1.0" encoding="UTF-8" standalone="no"?>
<!DOCTYPE svg PUBLIC "-//W3C//DTD SVG 1.1//EN"
 "http://www.w3.org/Graphics/SVG/1.1/DTD/svg11.dtd">
<!-- Generated by graphviz version 2.40.1 (20161225.0304)
 -->
<!-- Title: openage.util.fslike.filecollection.FileCollection.get_fileentry Pages: 1 -->
<svg width="354pt" height="284pt"
 viewBox="0.00 0.00 354.00 284.00" xmlns="http://www.w3.org/2000/svg" xmlns:xlink="http://www.w3.org/1999/xlink">
<g id="graph0" class="graph" transform="scale(1 1) rotate(0) translate(4 280)">
<title>openage.util.fslike.filecollection.FileCollection.get_fileentry</title>
<polygon fill="#ffffff" stroke="transparent" points="-4,4 -4,-280 350,-280 350,4 -4,4"/>
<!-- Node27 -->
<g id="node1" class="node">
<title>Node27</title>
<polygon fill="#bfbfbf" stroke="#000000" points="0,-122.5 0,-152.5 155,-152.5 155,-122.5 0,-122.5"/>
<text text-anchor="start" x="8" y="-140.5" font-family="Helvetica,sans-Serif" font-size="10.00" fill="#000000">openage.util.fslike.filecollection.</text>
<text text-anchor="middle" x="77.5" y="-129.5" font-family="Helvetica,sans-Serif" font-size="10.00" fill="#000000">FileCollection.get_fileentry</text>
</g>
<!-- Node28 -->
<g id="node2" class="node">
<title>Node28</title>
<g id="a_node2"><a xlink:href="../../dc/d11/classopenage_1_1util_1_1fslike_1_1filecollection_1_1_file_collection.xhtml#abb7acc5e29787c2826c467ce0111eaca" target="_top" xlink:title="openage.util.fslike.filecollection.\lFileCollection.filesize">
<polygon fill="#ffffff" stroke="#000000" points="191,-245.5 191,-275.5 346,-275.5 346,-245.5 191,-245.5"/>
<text text-anchor="start" x="199" y="-263.5" font-family="Helvetica,sans-Serif" font-size="10.00" fill="#000000">openage.util.fslike.filecollection.</text>
<text text-anchor="middle" x="268.5" y="-252.5" font-family="Helvetica,sans-Serif" font-size="10.00" fill="#000000">FileCollection.filesize</text>
</a>
</g>
</g>
<!-- Node27&#45;&gt;Node28 -->
<g id="edge1" class="edge">
<title>Node27&#45;&gt;Node28</title>
<path fill="none" stroke="#191970" d="M97.9499,-160.1761C119.2082,-182.4929 154.4355,-216.1054 191,-236.5 197.0276,-239.862 203.587,-242.8163 210.2539,-245.3957"/>
<polygon fill="#191970" stroke="#191970" points="100.4249,-157.6986 91.0338,-152.7936 95.3164,-162.4844 100.4249,-157.6986"/>
</g>
<!-- Node29 -->
<g id="node3" class="node">
<title>Node29</title>
<g id="a_node3"><a xlink:href="../../dc/d11/classopenage_1_1util_1_1fslike_1_1filecollection_1_1_file_collection.xhtml#aa67dc8d355a1c053942b3a375fc1985c" target="_top" xlink:title="openage.util.fslike.filecollection.\lFileCollection.is_file">
<polygon fill="#ffffff" stroke="#000000" points="191,-196.5 191,-226.5 346,-226.5 346,-196.5 191,-196.5"/>
<text text-anchor="start" x="199" y="-214.5" font-family="Helvetica,sans-Serif" font-size="10.00" fill="#000000">openage.util.fslike.filecollection.</text>
<text text-anchor="middle" x="268.5" y="-203.5" font-family="Helvetica,sans-Serif" font-size="10.00" fill="#000000">FileCollection.is_file</text>
</a>
</g>
</g>
<!-- Node27&#45;&gt;Node29 -->
<g id="edge2" class="edge">
<title>Node27&#45;&gt;Node29</title>
<path fill="none" stroke="#191970" d="M118.4964,-156.92C139.8673,-166.6949 166.578,-178.3735 191,-187.5 199.3123,-190.6063 208.2269,-193.6372 216.944,-196.4417"/>
<polygon fill="#191970" stroke="#191970" points="119.9311,-153.7275 109.3843,-152.72 117.0009,-160.0847 119.9311,-153.7275"/>
</g>
<!-- Node30 -->
<g id="node4" class="node">
<title>Node30</title>
<g id="a_node4"><a xlink:href="../../dc/d11/classopenage_1_1util_1_1fslike_1_1filecollection_1_1_file_collection.xhtml#a732ece4991737e5dd9ea2a4961a899ca" target="_top" xlink:title="openage.util.fslike.filecollection.\lFileCollection.mtime">
<polygon fill="#ffffff" stroke="#000000" points="191,-147.5 191,-177.5 346,-177.5 346,-147.5 191,-147.5"/>
<text text-anchor="start" x="199" y="-165.5" font-family="Helvetica,sans-Serif" font-size="10.00" fill="#000000">openage.util.fslike.filecollection.</text>
<text text-anchor="middle" x="268.5" y="-154.5" font-family="Helvetica,sans-Serif" font-size="10.00" fill="#000000">FileCollection.mtime</text>
</a>
</g>
</g>
<!-- Node27&#45;&gt;Node30 -->
<g id="edge3" class="edge">
<title>Node27&#45;&gt;Node30</title>
<path fill="none" stroke="#191970" d="M165.1934,-148.9782C173.7647,-150.1001 182.4204,-151.233 190.8818,-152.3406"/>
<polygon fill="#191970" stroke="#191970" points="165.5567,-145.496 155.187,-147.6685 164.6482,-152.4368 165.5567,-145.496"/>
</g>
<!-- Node31 -->
<g id="node5" class="node">
<title>Node31</title>
<g id="a_node5"><a xlink:href="../../dc/d11/classopenage_1_1util_1_1fslike_1_1filecollection_1_1_file_collection.xhtml#aa7aa810fd31b2ab2290b57b3c8c3c123" target="_top" xlink:title="openage.util.fslike.filecollection.\lFileCollection.open_r">
<polygon fill="#ffffff" stroke="#000000" points="191,-98.5 191,-128.5 346,-128.5 346,-98.5 191,-98.5"/>
<text text-anchor="start" x="199" y="-116.5" font-family="Helvetica,sans-Serif" font-size="10.00" fill="#000000">openage.util.fslike.filecollection.</text>
<text text-anchor="middle" x="268.5" y="-105.5" font-family="Helvetica,sans-Serif" font-size="10.00" fill="#000000">FileCollection.open_r</text>
</a>
</g>
</g>
<!-- Node27&#45;&gt;Node31 -->
<g id="edge4" class="edge">
<title>Node27&#45;&gt;Node31</title>
<path fill="none" stroke="#191970" d="M165.1934,-126.4809C173.7647,-125.4039 182.4204,-124.3163 190.8818,-123.2531"/>
<polygon fill="#191970" stroke="#191970" points="164.6726,-123.0188 155.187,-127.7383 165.5454,-129.9641 164.6726,-123.0188"/>
</g>
<!-- Node32 -->
<g id="node6" class="node">
<title>Node32</title>
<g id="a_node6"><a xlink:href="../../dc/d11/classopenage_1_1util_1_1fslike_1_1filecollection_1_1_file_collection.xhtml#a4e32318feb8203a576433ef955b3883d" target="_top" xlink:title="openage.util.fslike.filecollection.\lFileCollection.open_w">
<polygon fill="#ffffff" stroke="#000000" points="191,-49.5 191,-79.5 346,-79.5 346,-49.5 191,-49.5"/>
<text text-anchor="start" x="199" y="-67.5" font-family="Helvetica,sans-Serif" font-size="10.00" fill="#000000">openage.util.fslike.filecollection.</text>
<text text-anchor="middle" x="268.5" y="-56.5" font-family="Helvetica,sans-Serif" font-size="10.00" fill="#000000">FileCollection.open_w</text>
</a>
</g>
</g>
<!-- Node27&#45;&gt;Node32 -->
<g id="edge5" class="edge">
<title>Node27&#45;&gt;Node32</title>
<path fill="none" stroke="#191970" d="M120.2927,-118.3505C141.4023,-109.1747 167.3505,-98.2958 191,-89.5 200.143,-86.0995 209.9876,-82.7159 219.4912,-79.5871"/>
<polygon fill="#191970" stroke="#191970" points="118.7189,-115.2187 110.9598,-122.433 121.5243,-121.6319 118.7189,-115.2187"/>
</g>
<!-- Node33 -->
<g id="node7" class="node">
<title>Node33</title>
<g id="a_node7"><a xlink:href="../../dc/d11/classopenage_1_1util_1_1fslike_1_1filecollection_1_1_file_collection.xhtml#ab6065913c8c25261d0f71cc222483fb1" target="_top" xlink:title="openage.util.fslike.filecollection.\lFileCollection.writable">
<polygon fill="#ffffff" stroke="#000000" points="191,-.5 191,-30.5 346,-30.5 346,-.5 191,-.5"/>
<text text-anchor="start" x="199" y="-18.5" font-family="Helvetica,sans-Serif" font-size="10.00" fill="#000000">openage.util.fslike.filecollection.</text>
<text text-anchor="middle" x="268.5" y="-7.5" font-family="Helvetica,sans-Serif" font-size="10.00" fill="#000000">FileCollection.writable</text>
</a>
</g>
</g>
<!-- Node27&#45;&gt;Node33 -->
<g id="edge6" class="edge">
<title>Node27&#45;&gt;Node33</title>
<path fill="none" stroke="#191970" d="M98.4498,-115.0273C119.8528,-93.2474 154.9718,-60.6341 191,-40.5 197.7877,-36.7068 205.236,-33.3895 212.7478,-30.5187"/>
<polygon fill="#191970" stroke="#191970" points="95.909,-112.6199 91.4723,-122.2411 100.9404,-117.4866 95.909,-112.6199"/>
</g>
</g>
</svg>
