<?xml version="1.0" encoding="UTF-8" standalone="no"?>
<!DOCTYPE svg PUBLIC "-//W3C//DTD SVG 1.1//EN"
 "http://www.w3.org/Graphics/SVG/1.1/DTD/svg11.dtd">
<!-- Generated by graphviz version 2.40.1 (20161225.0304)
 -->
<!-- Title: /mnt/c/Users/Jameson/Desktop/git/openage&#45;new&#45;doc&#45;system/libopenage/util/math_constants.h Pages: 1 -->
<!--zoomable 239 -->
<svg id="main" version="1.1" xmlns="http://www.w3.org/2000/svg" xmlns:xlink="http://www.w3.org/1999/xlink" xml:space="preserve" onload="init(evt)">
<style type="text/css"><![CDATA[
.edge:hover path { stroke: red; }
.edge:hover polygon { stroke: red; fill: red; }
]]></style>
<script type="text/javascript"><![CDATA[
var edges = document.getElementsByTagName('g');
if (edges && edges.length) {
  for (var i=0;i<edges.length;i++) {
    if (edges[i].id.substr(0,4)=='edge') {
      edges[i].setAttribute('class','edge');
    }
  }
}
]]></script>
        <defs>
                <circle id="rim" cx="0" cy="0" r="7"/>
                <circle id="rim2" cx="0" cy="0" r="3.5"/>
                <g id="zoomPlus">
                        <use xlink:href="#rim" fill="#404040">
                                <set attributeName="fill" to="#808080" begin="zoomplus.mouseover" end="zoomplus.mouseout"/>
                        </use>
                        <path d="M-4,0h8M0,-4v8" fill="none" stroke="white" stroke-width="1.5" pointer-events="none"/>
                </g>
                <g id="zoomMin">
                        <use xlink:href="#rim" fill="#404040">
                                <set attributeName="fill" to="#808080" begin="zoomminus.mouseover" end="zoomminus.mouseout"/>
                        </use>
                        <path d="M-4,0h8" fill="none" stroke="white" stroke-width="1.5" pointer-events="none"/>
                </g>
                <g id="dirArrow">
                        <path fill="none" stroke="white" stroke-width="1.5" d="M0,-3.0v7 M-2.5,-0.5L0,-3.0L2.5,-0.5"/>
                </g>
               <g id="resetDef">
                       <use xlink:href="#rim2" fill="#404040">
                               <set attributeName="fill" to="#808080" begin="reset.mouseover" end="reset.mouseout"/>
                       </use>
               </g>
        </defs>

<script type="text/javascript">
var viewWidth = 864;
var viewHeight = 239;
var sectionId = 'dynsection-1';
</script>
<script xlink:href="../../svgpan.js"/>
<svg id="graph" class="graph">
<g id="viewport">
<title>/mnt/c/Users/Jameson/Desktop/git/openage&#45;new&#45;doc&#45;system/libopenage/util/math_constants.h</title>
<polygon fill="#ffffff" stroke="transparent" points="-4,4 -4,-235 860,-235 860,4 -4,4"/>
<!-- Node2 -->
<g id="node1" class="node">
<title>Node2</title>
<polygon fill="#bfbfbf" stroke="#000000" points="318,-178.5 318,-230.5 459,-230.5 459,-178.5 318,-178.5"/>
<text text-anchor="start" x="326" y="-218.5" font-family="Helvetica,sans-Serif" font-size="10.00" fill="#000000">/mnt/c/Users/Jameson</text>
<text text-anchor="start" x="326" y="-207.5" font-family="Helvetica,sans-Serif" font-size="10.00" fill="#000000">/Desktop/git/openage</text>
<text text-anchor="start" x="326" y="-196.5" font-family="Helvetica,sans-Serif" font-size="10.00" fill="#000000">&#45;new&#45;doc&#45;system/libopenage</text>
<text text-anchor="middle" x="388.5" y="-185.5" font-family="Helvetica,sans-Serif" font-size="10.00" fill="#000000">/util/math_constants.h</text>
</g>
<!-- Node3 -->
<g id="node2" class="node">
<title>Node3</title>
<g id="a_node2"><a xlink:href="../../d8/d1b/generator_8cpp.xhtml" target="_top" xlink:title="/mnt/c/Users/Jameson\l/Desktop/git/openage\l&#45;new&#45;doc&#45;system/libopenage\l/gamestate/generator.cpp">
<polygon fill="#ffffff" stroke="#000000" points="0,-89.5 0,-141.5 141,-141.5 141,-89.5 0,-89.5"/>
<text text-anchor="start" x="8" y="-129.5" font-family="Helvetica,sans-Serif" font-size="10.00" fill="#000000">/mnt/c/Users/Jameson</text>
<text text-anchor="start" x="8" y="-118.5" font-family="Helvetica,sans-Serif" font-size="10.00" fill="#000000">/Desktop/git/openage</text>
<text text-anchor="start" x="8" y="-107.5" font-family="Helvetica,sans-Serif" font-size="10.00" fill="#000000">&#45;new&#45;doc&#45;system/libopenage</text>
<text text-anchor="middle" x="70.5" y="-96.5" font-family="Helvetica,sans-Serif" font-size="10.00" fill="#000000">/gamestate/generator.cpp</text>
</a>
</g>
</g>
<!-- Node2&#45;&gt;Node3 -->
<g id="edge1" class="edge">
<title>Node2&#45;&gt;Node3</title>
<path fill="none" stroke="#191970" d="M307.9132,-184.683C261.6524,-172.9716 202.5843,-157.4485 150.5,-142 147.4141,-141.0847 144.2677,-140.131 141.0941,-139.1523"/>
<polygon fill="#191970" stroke="#191970" points="307.3294,-188.1453 317.8817,-187.1979 309.0417,-181.358 307.3294,-188.1453"/>
</g>
<!-- Node4 -->
<g id="node3" class="node">
<title>Node4</title>
<g id="a_node3"><a xlink:href="../../db/d80/player_8cpp.xhtml" target="_top" xlink:title="/mnt/c/Users/Jameson\l/Desktop/git/openage\l&#45;new&#45;doc&#45;system/libopenage\l/gamestate/player.cpp">
<polygon fill="#ffffff" stroke="#000000" points="159,-89.5 159,-141.5 300,-141.5 300,-89.5 159,-89.5"/>
<text text-anchor="start" x="167" y="-129.5" font-family="Helvetica,sans-Serif" font-size="10.00" fill="#000000">/mnt/c/Users/Jameson</text>
<text text-anchor="start" x="167" y="-118.5" font-family="Helvetica,sans-Serif" font-size="10.00" fill="#000000">/Desktop/git/openage</text>
<text text-anchor="start" x="167" y="-107.5" font-family="Helvetica,sans-Serif" font-size="10.00" fill="#000000">&#45;new&#45;doc&#45;system/libopenage</text>
<text text-anchor="middle" x="229.5" y="-96.5" font-family="Helvetica,sans-Serif" font-size="10.00" fill="#000000">/gamestate/player.cpp</text>
</a>
</g>
</g>
<!-- Node2&#45;&gt;Node4 -->
<g id="edge2" class="edge">
<title>Node2&#45;&gt;Node4</title>
<path fill="none" stroke="#191970" d="M332.7288,-173.2821C314.1955,-162.9082 293.7682,-151.4741 276.0104,-141.5341"/>
<polygon fill="#191970" stroke="#191970" points="331.2192,-176.4481 341.6547,-178.2784 334.6383,-170.3399 331.2192,-176.4481"/>
</g>
<!-- Node5 -->
<g id="node4" class="node">
<title>Node5</title>
<g id="a_node4"><a xlink:href="../../d4/dc9/unit__texture_8cpp.xhtml" target="_top" xlink:title="/mnt/c/Users/Jameson\l/Desktop/git/openage\l&#45;new&#45;doc&#45;system/libopenage\l/unit/unit_texture.cpp">
<polygon fill="#ffffff" stroke="#000000" points="318,-89.5 318,-141.5 459,-141.5 459,-89.5 318,-89.5"/>
<text text-anchor="start" x="326" y="-129.5" font-family="Helvetica,sans-Serif" font-size="10.00" fill="#000000">/mnt/c/Users/Jameson</text>
<text text-anchor="start" x="326" y="-118.5" font-family="Helvetica,sans-Serif" font-size="10.00" fill="#000000">/Desktop/git/openage</text>
<text text-anchor="start" x="326" y="-107.5" font-family="Helvetica,sans-Serif" font-size="10.00" fill="#000000">&#45;new&#45;doc&#45;system/libopenage</text>
<text text-anchor="middle" x="388.5" y="-96.5" font-family="Helvetica,sans-Serif" font-size="10.00" fill="#000000">/unit/unit_texture.cpp</text>
</a>
</g>
</g>
<!-- Node2&#45;&gt;Node5 -->
<g id="edge3" class="edge">
<title>Node2&#45;&gt;Node5</title>
<path fill="none" stroke="#191970" d="M388.5,-168.1155C388.5,-159.2061 388.5,-149.8475 388.5,-141.5341"/>
<polygon fill="#191970" stroke="#191970" points="385.0001,-168.2784 388.5,-178.2784 392.0001,-168.2785 385.0001,-168.2784"/>
</g>
<!-- Node6 -->
<g id="node5" class="node">
<title>Node6</title>
<g id="a_node5"><a xlink:href="../../dc/d8d/unit__type_8cpp.xhtml" target="_top" xlink:title="/mnt/c/Users/Jameson\l/Desktop/git/openage\l&#45;new&#45;doc&#45;system/libopenage\l/unit/unit_type.cpp">
<polygon fill="#ffffff" stroke="#000000" points="477,-89.5 477,-141.5 618,-141.5 618,-89.5 477,-89.5"/>
<text text-anchor="start" x="485" y="-129.5" font-family="Helvetica,sans-Serif" font-size="10.00" fill="#000000">/mnt/c/Users/Jameson</text>
<text text-anchor="start" x="485" y="-118.5" font-family="Helvetica,sans-Serif" font-size="10.00" fill="#000000">/Desktop/git/openage</text>
<text text-anchor="start" x="485" y="-107.5" font-family="Helvetica,sans-Serif" font-size="10.00" fill="#000000">&#45;new&#45;doc&#45;system/libopenage</text>
<text text-anchor="middle" x="547.5" y="-96.5" font-family="Helvetica,sans-Serif" font-size="10.00" fill="#000000">/unit/unit_type.cpp</text>
</a>
</g>
</g>
<!-- Node2&#45;&gt;Node6 -->
<g id="edge4" class="edge">
<title>Node2&#45;&gt;Node6</title>
<path fill="none" stroke="#191970" d="M444.2712,-173.2821C462.8045,-162.9082 483.2318,-151.4741 500.9896,-141.5341"/>
<polygon fill="#191970" stroke="#191970" points="442.3617,-170.3399 435.3453,-178.2784 445.7808,-176.4481 442.3617,-170.3399"/>
</g>
<!-- Node7 -->
<g id="node6" class="node">
<title>Node7</title>
<g id="a_node6"><a xlink:href="../../da/d07/quaternion_8h.xhtml" target="_top" xlink:title="/mnt/c/Users/Jameson\l/Desktop/git/openage\l&#45;new&#45;doc&#45;system/libopenage\l/util/quaternion.h">
<polygon fill="#ffffff" stroke="#000000" points="636,-89.5 636,-141.5 777,-141.5 777,-89.5 636,-89.5"/>
<text text-anchor="start" x="644" y="-129.5" font-family="Helvetica,sans-Serif" font-size="10.00" fill="#000000">/mnt/c/Users/Jameson</text>
<text text-anchor="start" x="644" y="-118.5" font-family="Helvetica,sans-Serif" font-size="10.00" fill="#000000">/Desktop/git/openage</text>
<text text-anchor="start" x="644" y="-107.5" font-family="Helvetica,sans-Serif" font-size="10.00" fill="#000000">&#45;new&#45;doc&#45;system/libopenage</text>
<text text-anchor="middle" x="706.5" y="-96.5" font-family="Helvetica,sans-Serif" font-size="10.00" fill="#000000">/util/quaternion.h</text>
</a>
</g>
</g>
<!-- Node2&#45;&gt;Node7 -->
<g id="edge5" class="edge">
<title>Node2&#45;&gt;Node7</title>
<path fill="none" stroke="#191970" d="M468.9048,-184.9213C515.4497,-173.227 575.0268,-157.6423 627.5,-142 630.2727,-141.1735 633.0943,-140.3143 635.9403,-139.4327"/>
<polygon fill="#191970" stroke="#191970" points="468.0284,-181.5326 459.1777,-187.3562 469.7284,-188.323 468.0284,-181.5326"/>
</g>
<!-- Node8 -->
<g id="node7" class="node">
<title>Node8</title>
<g id="a_node7"><a xlink:href="../../da/d59/quaternion_8cpp.xhtml" target="_top" xlink:title="/mnt/c/Users/Jameson\l/Desktop/git/openage\l&#45;new&#45;doc&#45;system/libopenage\l/util/quaternion.cpp">
<polygon fill="#ffffff" stroke="#000000" points="556,-.5 556,-52.5 697,-52.5 697,-.5 556,-.5"/>
<text text-anchor="start" x="564" y="-40.5" font-family="Helvetica,sans-Serif" font-size="10.00" fill="#000000">/mnt/c/Users/Jameson</text>
<text text-anchor="start" x="564" y="-29.5" font-family="Helvetica,sans-Serif" font-size="10.00" fill="#000000">/Desktop/git/openage</text>
<text text-anchor="start" x="564" y="-18.5" font-family="Helvetica,sans-Serif" font-size="10.00" fill="#000000">&#45;new&#45;doc&#45;system/libopenage</text>
<text text-anchor="middle" x="626.5" y="-7.5" font-family="Helvetica,sans-Serif" font-size="10.00" fill="#000000">/util/quaternion.cpp</text>
</a>
</g>
</g>
<!-- Node7&#45;&gt;Node8 -->
<g id="edge6" class="edge">
<title>Node7&#45;&gt;Node8</title>
<path fill="none" stroke="#191970" d="M676.1323,-81.7159C667.4413,-72.0472 658.1052,-61.6608 649.9015,-52.5341"/>
<polygon fill="#191970" stroke="#191970" points="673.642,-84.1811 682.9301,-89.2784 678.848,-79.5015 673.642,-84.1811"/>
</g>
<!-- Node9 -->
<g id="node8" class="node">
<title>Node9</title>
<g id="a_node8"><a xlink:href="../../d8/dce/quaternion__test_8cpp.xhtml" target="_top" xlink:title="/mnt/c/Users/Jameson\l/Desktop/git/openage\l&#45;new&#45;doc&#45;system/libopenage\l/util/quaternion_test.cpp">
<polygon fill="#ffffff" stroke="#000000" points="715,-.5 715,-52.5 856,-52.5 856,-.5 715,-.5"/>
<text text-anchor="start" x="723" y="-40.5" font-family="Helvetica,sans-Serif" font-size="10.00" fill="#000000">/mnt/c/Users/Jameson</text>
<text text-anchor="start" x="723" y="-29.5" font-family="Helvetica,sans-Serif" font-size="10.00" fill="#000000">/Desktop/git/openage</text>
<text text-anchor="start" x="723" y="-18.5" font-family="Helvetica,sans-Serif" font-size="10.00" fill="#000000">&#45;new&#45;doc&#45;system/libopenage</text>
<text text-anchor="middle" x="785.5" y="-7.5" font-family="Helvetica,sans-Serif" font-size="10.00" fill="#000000">/util/quaternion_test.cpp</text>
</a>
</g>
</g>
<!-- Node7&#45;&gt;Node9 -->
<g id="edge7" class="edge">
<title>Node7&#45;&gt;Node9</title>
<path fill="none" stroke="#191970" d="M736.4881,-81.7159C745.0705,-72.0472 754.2899,-61.6608 762.391,-52.5341"/>
<polygon fill="#191970" stroke="#191970" points="733.7962,-79.4762 729.7753,-89.2784 739.0313,-84.1231 733.7962,-79.4762"/>
</g>
</g>
</svg>
        <g id="navigator" transform="translate(0 0)" fill="#404254">
                <rect fill="#f2f5e9" fill-opacity="0.5" stroke="#606060" stroke-width=".5" x="0" y="0" width="60" height="60"/>
                <use id="zoomplus" xlink:href="#zoomPlus" x="17" y="9" onmousedown="handleZoom(evt,'in')"/>
                <use id="zoomminus" xlink:href="#zoomMin" x="42" y="9" onmousedown="handleZoom(evt,'out')"/>
                <use id="reset" xlink:href="#resetDef" x="30" y="36" onmousedown="handleReset()"/>
                <g id="arrowUp" xlink:href="#dirArrow" transform="translate(30 24)" onmousedown="handlePan(0,-1)">
                  <use xlink:href="#rim" fill="#404040">
                        <set attributeName="fill" to="#808080" begin="arrowUp.mouseover" end="arrowUp.mouseout"/>
                  </use>
                  <path fill="none" stroke="white" stroke-width="1.5" d="M0,-3.0v7 M-2.5,-0.5L0,-3.0L2.5,-0.5"/>
                </g>
                <g id="arrowRight" xlink:href="#dirArrow" transform="rotate(90) translate(36 -43)" onmousedown="handlePan(1,0)">
                  <use xlink:href="#rim" fill="#404040">
                        <set attributeName="fill" to="#808080" begin="arrowRight.mouseover" end="arrowRight.mouseout"/>
                  </use>
                  <path fill="none" stroke="white" stroke-width="1.5" d="M0,-3.0v7 M-2.5,-0.5L0,-3.0L2.5,-0.5"/>
                </g>
                <g id="arrowDown" xlink:href="#dirArrow" transform="rotate(180) translate(-30 -48)" onmousedown="handlePan(0,1)">
                  <use xlink:href="#rim" fill="#404040">
                        <set attributeName="fill" to="#808080" begin="arrowDown.mouseover" end="arrowDown.mouseout"/>
                  </use>
                  <path fill="none" stroke="white" stroke-width="1.5" d="M0,-3.0v7 M-2.5,-0.5L0,-3.0L2.5,-0.5"/>
                </g>
                <g id="arrowLeft" xlink:href="#dirArrow" transform="rotate(270) translate(-36 17)" onmousedown="handlePan(-1,0)">
                  <use xlink:href="#rim" fill="#404040">
                        <set attributeName="fill" to="#808080" begin="arrowLeft.mouseover" end="arrowLeft.mouseout"/>
                  </use>
                  <path fill="none" stroke="white" stroke-width="1.5" d="M0,-3.0v7 M-2.5,-0.5L0,-3.0L2.5,-0.5"/>
                </g>
        </g>
        <svg viewBox="0 0 15 15" width="100%" height="30px" preserveAspectRatio="xMaxYMin meet">
         <g id="arrow_out" transform="scale(0.3 0.3)">
          <a xlink:href="math__constants_8h__dep__incl_org.svg" target="_base">
           <rect id="button" ry="5" rx="5" y="6" x="6" height="38" width="38"
                fill="#f2f5e9" fill-opacity="0.5" stroke="#606060" stroke-width="1.0"/>
           <path id="arrow"
             d="M 11.500037,31.436501 C 11.940474,20.09759 22.043105,11.32322 32.158766,21.979434 L 37.068811,17.246167 C 37.068811,17.246167 37.088388,32 37.088388,32 L 22.160133,31.978069 C 22.160133,31.978069 26.997745,27.140456 26.997745,27.140456 C 18.528582,18.264221 13.291696,25.230495 11.500037,31.436501 z"
             style="fill:#404040;"/>
          </a>
         </g>
        </svg>
</svg>
