<?xml version="1.0" encoding="UTF-8" standalone="no"?>
<!DOCTYPE svg PUBLIC "-//W3C//DTD SVG 1.1//EN"
 "http://www.w3.org/Graphics/SVG/1.1/DTD/svg11.dtd">
<!-- Generated by graphviz version 2.40.1 (20161225.0304)
 -->
<!-- Title: openage::event::EventTarget::trigger Pages: 1 -->
<svg width="330pt" height="100pt"
 viewBox="0.00 0.00 330.00 99.50" xmlns="http://www.w3.org/2000/svg" xmlns:xlink="http://www.w3.org/1999/xlink">
<g id="graph0" class="graph" transform="scale(1 1) rotate(0) translate(4 95.5)">
<title>openage::event::EventTarget::trigger</title>
<polygon fill="#ffffff" stroke="transparent" points="-4,4 -4,-95.5 326,-95.5 326,4 -4,4"/>
<!-- Node52 -->
<g id="node1" class="node">
<title>Node52</title>
<polygon fill="#bfbfbf" stroke="#000000" points="0,-33 0,-63 143,-63 143,-33 0,-33"/>
<text text-anchor="start" x="8" y="-51" font-family="Helvetica,sans-Serif" font-size="10.00" fill="#000000">openage::event::EventTarget</text>
<text text-anchor="middle" x="71.5" y="-40" font-family="Helvetica,sans-Serif" font-size="10.00" fill="#000000">::trigger</text>
</g>
<!-- Node53 -->
<g id="node2" class="node">
<title>Node53</title>
<g id="a_node2"><a xlink:href="../../d6/d15/classopenage_1_1event_1_1_event_target.xhtml#abe6736c7ec9aeba96a045c9e517bdf66" target="_top" xlink:title="For children to be able to initialize us. ">
<polygon fill="#ffffff" stroke="#000000" points="179,-61 179,-91 322,-91 322,-61 179,-61"/>
<text text-anchor="start" x="187" y="-79" font-family="Helvetica,sans-Serif" font-size="10.00" fill="#000000">openage::event::EventTarget</text>
<text text-anchor="middle" x="250.5" y="-68" font-family="Helvetica,sans-Serif" font-size="10.00" fill="#000000">::EventTarget</text>
</a>
</g>
</g>
<!-- Node52&#45;&gt;Node53 -->
<g id="edge1" class="edge">
<title>Node52&#45;&gt;Node53</title>
<path fill="none" stroke="#191970" d="M153.0428,-60.7553C161.6381,-62.0998 170.3321,-63.4598 178.8042,-64.785"/>
<polygon fill="#191970" stroke="#191970" points="153.438,-57.2746 143.0172,-59.1871 152.3562,-64.1905 153.438,-57.2746"/>
</g>
<!-- Node54 -->
<g id="node3" class="node">
<title>Node54</title>
<g id="a_node3"><a xlink:href="../../d4/dd3/classopenage_1_1event_1_1tests_1_1_test_state_1_1_test_object.xhtml#a84664c0a3a47e8029ce2c705229e385b" target="_top" xlink:title="openage::event::tests\l::TestState::TestObject\l::test_trigger">
<polygon fill="#ffffff" stroke="#000000" points="191,-.5 191,-41.5 310,-41.5 310,-.5 191,-.5"/>
<text text-anchor="start" x="199" y="-29.5" font-family="Helvetica,sans-Serif" font-size="10.00" fill="#000000">openage::event::tests</text>
<text text-anchor="start" x="199" y="-18.5" font-family="Helvetica,sans-Serif" font-size="10.00" fill="#000000">::TestState::TestObject</text>
<text text-anchor="middle" x="250.5" y="-7.5" font-family="Helvetica,sans-Serif" font-size="10.00" fill="#000000">::test_trigger</text>
</a>
</g>
</g>
<!-- Node52&#45;&gt;Node54 -->
<g id="edge2" class="edge">
<title>Node52&#45;&gt;Node54</title>
<path fill="none" stroke="#191970" d="M153.1471,-35.6845C165.8597,-33.767 178.7853,-31.8173 190.8873,-29.9919"/>
<polygon fill="#191970" stroke="#191970" points="152.3833,-32.26 143.0172,-37.2125 153.4274,-39.1817 152.3833,-32.26"/>
</g>
</g>
</svg>
