<?xml version="1.0" encoding="UTF-8" standalone="no"?>
<!DOCTYPE svg PUBLIC "-//W3C//DTD SVG 1.1//EN"
 "http://www.w3.org/Graphics/SVG/1.1/DTD/svg11.dtd">
<!-- Generated by graphviz version 2.40.1 (20161225.0304)
 -->
<!-- Title: openage.convert.colortable.ColorTable.save_visualization Pages: 1 -->
<!--zoomable 569 -->
<svg id="main" version="1.1" xmlns="http://www.w3.org/2000/svg" xmlns:xlink="http://www.w3.org/1999/xlink" xml:space="preserve" onload="init(evt)">
<style type="text/css"><![CDATA[
.edge:hover path { stroke: red; }
.edge:hover polygon { stroke: red; fill: red; }
]]></style>
<script type="text/javascript"><![CDATA[
var edges = document.getElementsByTagName('g');
if (edges && edges.length) {
  for (var i=0;i<edges.length;i++) {
    if (edges[i].id.substr(0,4)=='edge') {
      edges[i].setAttribute('class','edge');
    }
  }
}
]]></script>
        <defs>
                <circle id="rim" cx="0" cy="0" r="7"/>
                <circle id="rim2" cx="0" cy="0" r="3.5"/>
                <g id="zoomPlus">
                        <use xlink:href="#rim" fill="#404040">
                                <set attributeName="fill" to="#808080" begin="zoomplus.mouseover" end="zoomplus.mouseout"/>
                        </use>
                        <path d="M-4,0h8M0,-4v8" fill="none" stroke="white" stroke-width="1.5" pointer-events="none"/>
                </g>
                <g id="zoomMin">
                        <use xlink:href="#rim" fill="#404040">
                                <set attributeName="fill" to="#808080" begin="zoomminus.mouseover" end="zoomminus.mouseout"/>
                        </use>
                        <path d="M-4,0h8" fill="none" stroke="white" stroke-width="1.5" pointer-events="none"/>
                </g>
                <g id="dirArrow">
                        <path fill="none" stroke="white" stroke-width="1.5" d="M0,-3.0v7 M-2.5,-0.5L0,-3.0L2.5,-0.5"/>
                </g>
               <g id="resetDef">
                       <use xlink:href="#rim2" fill="#404040">
                               <set attributeName="fill" to="#808080" begin="reset.mouseover" end="reset.mouseout"/>
                       </use>
               </g>
        </defs>

<script type="text/javascript">
var viewWidth = 1206;
var viewHeight = 569;
var sectionId = 'dynsection-11';
</script>
<script xlink:href="../../svgpan.js"/>
<svg id="graph" class="graph">
<g id="viewport">
<title>openage.convert.colortable.ColorTable.save_visualization</title>
<polygon fill="#ffffff" stroke="transparent" points="-4,4 -4,-564.5 1202,-564.5 1202,4 -4,4"/>
<!-- Node56 -->
<g id="node1" class="node">
<title>Node56</title>
<polygon fill="#bfbfbf" stroke="#000000" points="0,-450.5 0,-480.5 147,-480.5 147,-450.5 0,-450.5"/>
<text text-anchor="start" x="8" y="-468.5" font-family="Helvetica,sans-Serif" font-size="10.00" fill="#000000">openage.convert.colortable.</text>
<text text-anchor="middle" x="73.5" y="-457.5" font-family="Helvetica,sans-Serif" font-size="10.00" fill="#000000">ColorTable.save_visualization</text>
</g>
<!-- Node57 -->
<g id="node2" class="node">
<title>Node57</title>
<g id="a_node2"><a xlink:href="../../d6/d8c/classopenage_1_1convert_1_1colortable_1_1_color_table.xhtml#a117e184527bb7a1a371a8c53bf7f61ff" target="_top" xlink:title="writes this color table (palette) to a png image. ">
<polygon fill="#ffffff" stroke="#000000" points="183,-497.5 183,-527.5 320,-527.5 320,-497.5 183,-497.5"/>
<text text-anchor="start" x="191" y="-515.5" font-family="Helvetica,sans-Serif" font-size="10.00" fill="#000000">openage.convert.colortable.</text>
<text text-anchor="middle" x="251.5" y="-504.5" font-family="Helvetica,sans-Serif" font-size="10.00" fill="#000000">ColorTable.gen_image</text>
</a>
</g>
</g>
<!-- Node56&#45;&gt;Node57 -->
<g id="edge1" class="edge">
<title>Node56&#45;&gt;Node57</title>
<path fill="none" stroke="#191970" d="M130.3097,-480.5003C147.6507,-485.0791 166.876,-490.1555 184.8095,-494.8907"/>
<polygon fill="#191970" stroke="#191970" points="184.0573,-498.312 194.6195,-497.481 185.8444,-491.5439 184.0573,-498.312"/>
</g>
<!-- Node62 -->
<g id="node7" class="node">
<title>Node62</title>
<g id="a_node7"><a xlink:href="../../d4/d0d/namespaceopenage_1_1gameio.xhtml#afc1134c3c633c8bddb614ecb3da48eb2" target="_top" xlink:title="a game save function that sometimes works ">
<polygon fill="#ffffff" stroke="#000000" points="192.5,-410 192.5,-429 310.5,-429 310.5,-410 192.5,-410"/>
<text text-anchor="middle" x="251.5" y="-417" font-family="Helvetica,sans-Serif" font-size="10.00" fill="#000000">openage::gameio::save</text>
</a>
</g>
</g>
<!-- Node56&#45;&gt;Node62 -->
<g id="edge7" class="edge">
<title>Node56&#45;&gt;Node62</title>
<path fill="none" stroke="#191970" d="M131.7839,-450.4379C155.4357,-444.3256 182.3864,-437.3608 204.7202,-431.5892"/>
<polygon fill="#191970" stroke="#191970" points="205.8222,-434.9194 214.6284,-429.0286 204.0707,-428.1421 205.8222,-434.9194"/>
</g>
<!-- Node58 -->
<g id="node3" class="node">
<title>Node58</title>
<g id="a_node3"><a xlink:href="../../dd/d1a/namespaceopenage_1_1log.xhtml#a5cb08687f485da2549d7eebef26368a6" target="_top" xlink:title="debug message ">
<polygon fill="#ffffff" stroke="#000000" points="381.5,-503 381.5,-522 469.5,-522 469.5,-503 381.5,-503"/>
<text text-anchor="middle" x="425.5" y="-510" font-family="Helvetica,sans-Serif" font-size="10.00" fill="#000000">openage.log.dbg</text>
</a>
</g>
</g>
<!-- Node57&#45;&gt;Node58 -->
<g id="edge2" class="edge">
<title>Node57&#45;&gt;Node58</title>
<path fill="none" stroke="#191970" d="M320.2694,-512.5C337.1788,-512.5 355.0501,-512.5 371.1706,-512.5"/>
<polygon fill="#191970" stroke="#191970" points="371.4836,-516.0001 381.4835,-512.5 371.4835,-509.0001 371.4836,-516.0001"/>
</g>
<!-- Node59 -->
<g id="node4" class="node">
<title>Node59</title>
<g id="a_node4"><a xlink:href="../../d4/dd4/namespaceopenage_1_1py.xhtml#a4d2bbe46a5d10404c658b54f3b199551" target="_top" xlink:title="str(value); ">
<polygon fill="#ffffff" stroke="#000000" points="382,-541 382,-560 469,-560 469,-541 382,-541"/>
<text text-anchor="middle" x="425.5" y="-548" font-family="Helvetica,sans-Serif" font-size="10.00" fill="#000000">openage::py::str</text>
</a>
</g>
</g>
<!-- Node57&#45;&gt;Node59 -->
<g id="edge3" class="edge">
<title>Node57&#45;&gt;Node59</title>
<path fill="none" stroke="#191970" d="M320.2694,-527.5186C337.4971,-531.281 355.7234,-535.2614 372.0793,-538.8334"/>
<polygon fill="#191970" stroke="#191970" points="371.4792,-542.2848 381.9958,-540.9991 372.9728,-535.446 371.4792,-542.2848"/>
</g>
<!-- Node60 -->
<g id="node5" class="node">
<title>Node60</title>
<g id="a_node5"><a xlink:href="../../d5/d0e/namespaceopenage_1_1testing_1_1testing.xhtml#ac25bf81db406af62d08113ef7ae9fd6e" target="_top" xlink:title="openage.testing.testing.result">
<polygon fill="#ffffff" stroke="#000000" points="531,-541 531,-560 676,-560 676,-541 531,-541"/>
<text text-anchor="middle" x="603.5" y="-548" font-family="Helvetica,sans-Serif" font-size="10.00" fill="#000000">openage.testing.testing.result</text>
</a>
</g>
</g>
<!-- Node59&#45;&gt;Node60 -->
<g id="edge4" class="edge">
<title>Node59&#45;&gt;Node60</title>
<path fill="none" stroke="#191970" d="M469.0437,-550.5C484.6165,-550.5 502.7273,-550.5 520.5161,-550.5"/>
<polygon fill="#191970" stroke="#191970" points="520.9312,-554.0001 530.9311,-550.5 520.9311,-547.0001 520.9312,-554.0001"/>
</g>
<!-- Node61 -->
<g id="node6" class="node">
<title>Node61</title>
<g id="a_node6"><a xlink:href="../../de/d60/namespaceopenage_1_1util.xhtml#a7bc4421a5f0f57f3a0aba3f96eb8d19c" target="_top" xlink:title="method that behaves similar to python&#39;s &quot;repr&quot;. ">
<polygon fill="#ffffff" stroke="#000000" points="742,-541 742,-560 837,-560 837,-541 742,-541"/>
<text text-anchor="middle" x="789.5" y="-548" font-family="Helvetica,sans-Serif" font-size="10.00" fill="#000000">openage::util::repr</text>
</a>
</g>
</g>
<!-- Node60&#45;&gt;Node61 -->
<g id="edge5" class="edge">
<title>Node60&#45;&gt;Node61</title>
<path fill="none" stroke="#191970" d="M676.2116,-543.8948C694.6091,-543.6283 714.1201,-543.7296 731.6711,-544.1987"/>
<polygon fill="#191970" stroke="#191970" points="731.6495,-547.6997 741.7552,-544.5174 731.8707,-540.7032 731.6495,-547.6997"/>
</g>
<!-- Node61&#45;&gt;Node60 -->
<g id="edge6" class="edge">
<title>Node61&#45;&gt;Node60</title>
<path fill="none" stroke="#191970" d="M741.7552,-556.4826C724.8582,-557.1046 705.3258,-557.3485 686.3624,-557.2142"/>
<polygon fill="#191970" stroke="#191970" points="686.2486,-553.7129 676.2116,-557.1052 686.1734,-560.7125 686.2486,-553.7129"/>
</g>
<!-- Node62&#45;&gt;Node58 -->
<g id="edge14" class="edge">
<title>Node62&#45;&gt;Node58</title>
<path fill="none" stroke="#191970" d="M262.2816,-429.1096C280.391,-444.7734 318.6163,-475.8314 356,-493.5 360.9478,-495.8385 366.2343,-497.9326 371.5992,-499.7975"/>
<polygon fill="#191970" stroke="#191970" points="370.6932,-503.1826 381.2845,-502.9103 372.835,-496.5183 370.6932,-503.1826"/>
</g>
<!-- Node63 -->
<g id="node8" class="node">
<title>Node63</title>
<g id="a_node8"><a xlink:href="../../dd/d1a/namespaceopenage_1_1log.xhtml#a0eff614e7d6e818746700ed9d29e583f" target="_top" xlink:title="Convenience method that makes use of the &#39;general&#39; LogSource. ">
<polygon fill="#ffffff" stroke="#000000" points="380,-77 380,-96 471,-96 471,-77 380,-77"/>
<text text-anchor="middle" x="425.5" y="-84" font-family="Helvetica,sans-Serif" font-size="10.00" fill="#000000">openage::log::log</text>
</a>
</g>
</g>
<!-- Node62&#45;&gt;Node63 -->
<g id="edge8" class="edge">
<title>Node62&#45;&gt;Node63</title>
<path fill="none" stroke="#191970" d="M256.5198,-409.8931C280.4831,-364.0323 383.4106,-167.0504 415.7423,-105.1743"/>
<polygon fill="#191970" stroke="#191970" points="418.9307,-106.6298 420.4598,-96.1459 412.7266,-103.388 418.9307,-106.6298"/>
</g>
<!-- Node69 -->
<g id="node14" class="node">
<title>Node69</title>
<g id="a_node14"><a xlink:href="../../d4/d0d/namespaceopenage_1_1gameio.xhtml#a3dbc6f4b94629a296a514691fb34a470" target="_top" xlink:title="openage::gameio::save\l_tile_content">
<polygon fill="#ffffff" stroke="#000000" points="366.5,-316.5 366.5,-346.5 484.5,-346.5 484.5,-316.5 366.5,-316.5"/>
<text text-anchor="start" x="374.5" y="-334.5" font-family="Helvetica,sans-Serif" font-size="10.00" fill="#000000">openage::gameio::save</text>
<text text-anchor="middle" x="425.5" y="-323.5" font-family="Helvetica,sans-Serif" font-size="10.00" fill="#000000">_tile_content</text>
</a>
</g>
</g>
<!-- Node62&#45;&gt;Node69 -->
<g id="edge15" class="edge">
<title>Node62&#45;&gt;Node69</title>
<path fill="none" stroke="#191970" d="M265.5386,-409.805C285.1454,-396.5557 322.138,-372.6038 356,-356.5 360.5868,-354.3187 365.418,-352.2138 370.3082,-350.2141"/>
<polygon fill="#191970" stroke="#191970" points="371.7116,-353.4232 379.7363,-346.5054 369.1491,-346.909 371.7116,-353.4232"/>
</g>
<!-- Node70 -->
<g id="node15" class="node">
<title>Node70</title>
<g id="a_node15"><a xlink:href="../../d9/dab/classopenage_1_1_terrain_chunk.xhtml#af163db3fba4ae99206de76666f8424df" target="_top" xlink:title="get tile data by absolute coordinates. ">
<polygon fill="#ffffff" stroke="#000000" points="366.5,-404.5 366.5,-434.5 484.5,-434.5 484.5,-404.5 366.5,-404.5"/>
<text text-anchor="start" x="374.5" y="-422.5" font-family="Helvetica,sans-Serif" font-size="10.00" fill="#000000">openage::TerrainChunk</text>
<text text-anchor="middle" x="425.5" y="-411.5" font-family="Helvetica,sans-Serif" font-size="10.00" fill="#000000">::get_data</text>
</a>
</g>
</g>
<!-- Node62&#45;&gt;Node70 -->
<g id="edge16" class="edge">
<title>Node62&#45;&gt;Node70</title>
<path fill="none" stroke="#191970" d="M310.8943,-419.5C325.4526,-419.5 341.1614,-419.5 356.1418,-419.5"/>
<polygon fill="#191970" stroke="#191970" points="356.3734,-423.0001 366.3734,-419.5 356.3734,-416.0001 356.3734,-423.0001"/>
</g>
<!-- Node73 -->
<g id="node18" class="node">
<title>Node73</title>
<g id="a_node18"><a xlink:href="../../d2/d82/classopenage_1_1_unit_container.xhtml#a38b39ded603419425f1b5a38f188cc17" target="_top" xlink:title="gets a list of all units in the container ">
<polygon fill="#ffffff" stroke="#000000" points="366,-453.5 366,-483.5 485,-483.5 485,-453.5 366,-453.5"/>
<text text-anchor="start" x="374" y="-471.5" font-family="Helvetica,sans-Serif" font-size="10.00" fill="#000000">openage::UnitContainer</text>
<text text-anchor="middle" x="425.5" y="-460.5" font-family="Helvetica,sans-Serif" font-size="10.00" fill="#000000">::all_units</text>
</a>
</g>
</g>
<!-- Node62&#45;&gt;Node73 -->
<g id="edge19" class="edge">
<title>Node62&#45;&gt;Node73</title>
<path fill="none" stroke="#191970" d="M285.462,-429.064C307.2986,-435.2134 336.3439,-443.3928 362.3197,-450.7078"/>
<polygon fill="#191970" stroke="#191970" points="361.5291,-454.1213 372.1034,-453.463 363.4266,-447.3833 361.5291,-454.1213"/>
</g>
<!-- Node74 -->
<g id="node19" class="node">
<title>Node74</title>
<g id="a_node19"><a xlink:href="../../d4/d0d/namespaceopenage_1_1gameio.xhtml#a644610ec4e114bf5109a4a46847f3762" target="_top" xlink:title="openage::gameio::save_unit">
<polygon fill="#ffffff" stroke="#000000" points="356,-366 356,-385 495,-385 495,-366 356,-366"/>
<text text-anchor="middle" x="425.5" y="-373" font-family="Helvetica,sans-Serif" font-size="10.00" fill="#000000">openage::gameio::save_unit</text>
</a>
</g>
</g>
<!-- Node62&#45;&gt;Node74 -->
<g id="edge21" class="edge">
<title>Node62&#45;&gt;Node74</title>
<path fill="none" stroke="#191970" d="M289.2554,-409.9527C315.2489,-403.3796 349.9871,-394.5952 377.8804,-387.5417"/>
<polygon fill="#191970" stroke="#191970" points="378.9815,-390.8735 387.8183,-385.0287 377.2654,-384.0872 378.9815,-390.8735"/>
</g>
<!-- Node64 -->
<g id="node9" class="node">
<title>Node64</title>
<g id="a_node9"><a xlink:href="../../dd/d1a/namespaceopenage_1_1log.xhtml#a3fbb0c225d01e222648ec28a43507188" target="_top" xlink:title="Returns a reference to a general named log source, for use by log::log(). ">
<polygon fill="#ffffff" stroke="#000000" points="548.5,-27.5 548.5,-57.5 658.5,-57.5 658.5,-27.5 548.5,-27.5"/>
<text text-anchor="start" x="556.5" y="-45.5" font-family="Helvetica,sans-Serif" font-size="10.00" fill="#000000">openage::log::general</text>
<text text-anchor="middle" x="603.5" y="-34.5" font-family="Helvetica,sans-Serif" font-size="10.00" fill="#000000">_source</text>
</a>
</g>
</g>
<!-- Node63&#45;&gt;Node64 -->
<g id="edge9" class="edge">
<title>Node63&#45;&gt;Node64</title>
<path fill="none" stroke="#191970" d="M464.1233,-76.9527C485.8775,-71.5752 513.6191,-64.7178 538.6156,-58.5388"/>
<polygon fill="#191970" stroke="#191970" points="539.5365,-61.9166 548.4044,-56.1191 537.8567,-55.1212 539.5365,-61.9166"/>
</g>
<!-- Node65 -->
<g id="node10" class="node">
<title>Node65</title>
<g id="a_node10"><a xlink:href="../../de/de3/classopenage_1_1log_1_1_log_source.xhtml#a5640099e20af4cd368c767dbcef3a1df" target="_top" xlink:title="Logs a message (get one via MSG(level)). ">
<polygon fill="#ffffff" stroke="#000000" points="532,-77 532,-96 675,-96 675,-77 532,-77"/>
<text text-anchor="middle" x="603.5" y="-84" font-family="Helvetica,sans-Serif" font-size="10.00" fill="#000000">openage::log::LogSource::log</text>
</a>
</g>
</g>
<!-- Node63&#45;&gt;Node65 -->
<g id="edge10" class="edge">
<title>Node63&#45;&gt;Node65</title>
<path fill="none" stroke="#191970" d="M471.3394,-86.5C486.7528,-86.5 504.445,-86.5 521.7675,-86.5"/>
<polygon fill="#191970" stroke="#191970" points="521.9041,-90.0001 531.904,-86.5 521.904,-83.0001 521.9041,-90.0001"/>
</g>
<!-- Node66 -->
<g id="node11" class="node">
<title>Node66</title>
<g id="a_node11"><a xlink:href="../../dd/d1a/namespaceopenage_1_1log.xhtml#a3d2885be9c3a09b9ff7ee8764b2e5f39" target="_top" xlink:title="Returns a reference to the global stdout logsink object; Initializes the object if needed...">
<polygon fill="#ffffff" stroke="#000000" points="737.5,-49.5 737.5,-79.5 841.5,-79.5 841.5,-49.5 737.5,-49.5"/>
<text text-anchor="start" x="745.5" y="-67.5" font-family="Helvetica,sans-Serif" font-size="10.00" fill="#000000">openage::log::global</text>
<text text-anchor="middle" x="789.5" y="-56.5" font-family="Helvetica,sans-Serif" font-size="10.00" fill="#000000">_stdoutsink</text>
</a>
</g>
</g>
<!-- Node65&#45;&gt;Node66 -->
<g id="edge11" class="edge">
<title>Node65&#45;&gt;Node66</title>
<path fill="none" stroke="#191970" d="M675.1464,-78.0257C692.2656,-76.0008 710.4053,-73.8553 727.0711,-71.8841"/>
<polygon fill="#191970" stroke="#191970" points="727.7156,-75.3323 737.2353,-70.6818 726.8934,-68.3808 727.7156,-75.3323"/>
</g>
<!-- Node67 -->
<g id="node12" class="node">
<title>Node67</title>
<g id="a_node12"><a xlink:href="../../d0/d58/classopenage_1_1log_1_1_log_sink_list.xhtml#a2d47416fab12651553b4b58c86fd6f84" target="_top" xlink:title="openage::log::LogSinkList\l::instance">
<polygon fill="#ffffff" stroke="#000000" points="725,-.5 725,-30.5 854,-30.5 854,-.5 725,-.5"/>
<text text-anchor="start" x="733" y="-18.5" font-family="Helvetica,sans-Serif" font-size="10.00" fill="#000000">openage::log::LogSinkList</text>
<text text-anchor="middle" x="789.5" y="-7.5" font-family="Helvetica,sans-Serif" font-size="10.00" fill="#000000">::instance</text>
</a>
</g>
</g>
<!-- Node65&#45;&gt;Node67 -->
<g id="edge12" class="edge">
<title>Node65&#45;&gt;Node67</title>
<path fill="none" stroke="#191970" d="M648.5596,-76.8903C657.872,-74.1312 667.4438,-70.7002 676,-66.5 693.9535,-57.6868 694.1859,-48.5917 712,-39.5 715.5677,-37.6792 719.2991,-35.9667 723.1138,-34.361"/>
<polygon fill="#191970" stroke="#191970" points="724.6927,-37.5013 732.7219,-30.5887 722.1345,-30.9855 724.6927,-37.5013"/>
</g>
<!-- Node68 -->
<g id="node13" class="node">
<title>Node68</title>
<g id="a_node13"><a xlink:href="../../d0/d58/classopenage_1_1log_1_1_log_sink_list.xhtml#a8456b84ab55e1fe151c51438c5bfebdd" target="_top" xlink:title="openage::log::LogSinkList::log">
<polygon fill="#ffffff" stroke="#000000" points="715.5,-99 715.5,-118 863.5,-118 863.5,-99 715.5,-99"/>
<text text-anchor="middle" x="789.5" y="-106" font-family="Helvetica,sans-Serif" font-size="10.00" fill="#000000">openage::log::LogSinkList::log</text>
</a>
</g>
</g>
<!-- Node65&#45;&gt;Node68 -->
<g id="edge13" class="edge">
<title>Node65&#45;&gt;Node68</title>
<path fill="none" stroke="#191970" d="M675.1464,-94.9743C685.0476,-96.1454 695.2901,-97.3569 705.3914,-98.5517"/>
<polygon fill="#191970" stroke="#191970" points="705.0859,-102.0399 715.4278,-99.7388 705.9082,-95.0883 705.0859,-102.0399"/>
</g>
<!-- Node71 -->
<g id="node16" class="node">
<title>Node71</title>
<g id="a_node16"><a xlink:href="../../d5/d10/structopenage_1_1coord_1_1tile.xhtml#ab4811e492cabe885d33e85df51ceff83" target="_top" xlink:title="openage::coord::tile\l::get_pos_on_chunk">
<polygon fill="#ffffff" stroke="#000000" points="551.5,-448.5 551.5,-478.5 655.5,-478.5 655.5,-448.5 551.5,-448.5"/>
<text text-anchor="start" x="559.5" y="-466.5" font-family="Helvetica,sans-Serif" font-size="10.00" fill="#000000">openage::coord::tile</text>
<text text-anchor="middle" x="603.5" y="-455.5" font-family="Helvetica,sans-Serif" font-size="10.00" fill="#000000">::get_pos_on_chunk</text>
</a>
</g>
</g>
<!-- Node70&#45;&gt;Node71 -->
<g id="edge17" class="edge">
<title>Node70&#45;&gt;Node71</title>
<path fill="none" stroke="#191970" d="M484.7714,-434.1514C503.0311,-438.665 523.177,-443.6449 541.6082,-448.2009"/>
<polygon fill="#191970" stroke="#191970" points="540.8109,-451.6091 551.3587,-450.6111 542.4908,-444.8136 540.8109,-451.6091"/>
</g>
<!-- Node72 -->
<g id="node17" class="node">
<title>Node72</title>
<g id="a_node17"><a xlink:href="../../de/d60/namespaceopenage_1_1util.xhtml#a7e483e123bf554b630319eb3dd012c02" target="_top" xlink:title="modulo operation that guarantees to return positive values. ">
<polygon fill="#ffffff" stroke="#000000" points="741,-503 741,-522 838,-522 838,-503 741,-503"/>
<text text-anchor="middle" x="789.5" y="-510" font-family="Helvetica,sans-Serif" font-size="10.00" fill="#000000">openage::util::mod</text>
</a>
</g>
</g>
<!-- Node71&#45;&gt;Node72 -->
<g id="edge18" class="edge">
<title>Node71&#45;&gt;Node72</title>
<path fill="none" stroke="#191970" d="M655.5689,-478.2304C673.4297,-483.1945 693.5616,-488.6918 712,-493.5 720.9583,-495.8361 730.5209,-498.2472 739.7617,-500.5351"/>
<polygon fill="#191970" stroke="#191970" points="739.0722,-503.9698 749.6188,-502.96 740.7444,-497.1725 739.0722,-503.9698"/>
</g>
<!-- Node73&#45;&gt;Node60 -->
<g id="edge20" class="edge">
<title>Node73&#45;&gt;Node60</title>
<path fill="none" stroke="#191970" d="M470.3516,-483.6013C478.6282,-486.6786 487.1362,-490.0399 495,-493.5 524.1806,-506.3395 556.3696,-523.6746 578.0501,-535.8449"/>
<polygon fill="#191970" stroke="#191970" points="576.5142,-538.9973 586.9409,-540.8773 579.9623,-532.9055 576.5142,-538.9973"/>
</g>
<!-- Node75 -->
<g id="node20" class="node">
<title>Node75</title>
<g id="a_node20"><a xlink:href="../../dd/d39/classopenage_1_1_unit_type.xhtml#ad295b572c0aa0399a04133dc61fb8a4b" target="_top" xlink:title="gets the unique id of this unit type ">
<polygon fill="#ffffff" stroke="#000000" points="547,-374 547,-393 660,-393 660,-374 547,-374"/>
<text text-anchor="middle" x="603.5" y="-381" font-family="Helvetica,sans-Serif" font-size="10.00" fill="#000000">openage::UnitType::id</text>
</a>
</g>
</g>
<!-- Node74&#45;&gt;Node75 -->
<g id="edge22" class="edge">
<title>Node74&#45;&gt;Node75</title>
<path fill="none" stroke="#191970" d="M495.0842,-378.6274C508.7596,-379.242 523.078,-379.8855 536.6609,-380.496"/>
<polygon fill="#191970" stroke="#191970" points="536.7345,-384.0027 546.8816,-380.9554 537.0488,-377.0098 536.7345,-384.0027"/>
</g>
<!-- Node76 -->
<g id="node21" class="node">
<title>Node76</title>
<g id="a_node21"><a xlink:href="../../df/dea/classopenage_1_1_unit.xhtml#a3e12324401051119f44e212dae1a87ce" target="_top" xlink:title="returns attribute based on templated value ">
<polygon fill="#ffffff" stroke="#000000" points="555,-324.5 555,-354.5 652,-354.5 652,-324.5 555,-324.5"/>
<text text-anchor="start" x="563" y="-342.5" font-family="Helvetica,sans-Serif" font-size="10.00" fill="#000000">openage::Unit::get</text>
<text text-anchor="middle" x="603.5" y="-331.5" font-family="Helvetica,sans-Serif" font-size="10.00" fill="#000000">_attribute</text>
</a>
</g>
</g>
<!-- Node74&#45;&gt;Node76 -->
<g id="edge23" class="edge">
<title>Node74&#45;&gt;Node76</title>
<path fill="none" stroke="#191970" d="M472.7334,-365.9472C494.9031,-361.4634 521.5443,-356.0753 544.979,-351.3357"/>
<polygon fill="#191970" stroke="#191970" points="545.696,-354.7616 554.8037,-349.3487 544.3083,-347.9006 545.696,-354.7616"/>
</g>
<!-- Node87 -->
<g id="node32" class="node">
<title>Node87</title>
<g id="a_node32"><a xlink:href="../../df/dea/classopenage_1_1_unit.xhtml#a6c56a8b7e9856a8e0535cacbe831bae7" target="_top" xlink:title="returns whether attribute is available ">
<polygon fill="#ffffff" stroke="#000000" points="921.5,-207.5 921.5,-237.5 1020.5,-237.5 1020.5,-207.5 921.5,-207.5"/>
<text text-anchor="start" x="929.5" y="-225.5" font-family="Helvetica,sans-Serif" font-size="10.00" fill="#000000">openage::Unit::has</text>
<text text-anchor="middle" x="971" y="-214.5" font-family="Helvetica,sans-Serif" font-size="10.00" fill="#000000">_attribute</text>
</a>
</g>
</g>
<!-- Node74&#45;&gt;Node87 -->
<g id="edge39" class="edge">
<title>Node74&#45;&gt;Node87</title>
<path fill="none" stroke="#191970" d="M474.8728,-365.884C481.9154,-363.4228 488.8475,-360.3449 495,-356.5 515.5643,-343.6487 513.6099,-332.4007 531,-315.5 605.9241,-242.6842 613.7135,-200.9333 712,-165.5 776.8061,-142.1367 802.6081,-141.0182 867,-165.5 887.0098,-173.1077 884.633,-186.5034 903,-197.5 906.423,-199.5494 910.0417,-201.4748 913.755,-203.2753"/>
<polygon fill="#191970" stroke="#191970" points="912.5674,-206.579 923.1227,-207.4936 915.4416,-200.1963 912.5674,-206.579"/>
</g>
<!-- Node77 -->
<g id="node22" class="node">
<title>Node77</title>
<g id="a_node22"><a xlink:href="../../df/dea/classopenage_1_1_unit.xhtml#ad7f76de394d832d927a9e6d46bd3c93f" target="_top" xlink:title="begins unit removal by popping some actions ">
<polygon fill="#ffffff" stroke="#000000" points="724,-175 724,-194 855,-194 855,-175 724,-175"/>
<text text-anchor="middle" x="789.5" y="-182" font-family="Helvetica,sans-Serif" font-size="10.00" fill="#000000">openage::Unit::delete_unit</text>
</a>
</g>
</g>
<!-- Node76&#45;&gt;Node77 -->
<g id="edge24" class="edge">
<title>Node76&#45;&gt;Node77</title>
<path fill="none" stroke="#191970" d="M611.2922,-324.1078C626.5397,-295.6207 663.1419,-234.7414 712,-203.5 715.319,-201.3777 718.857,-199.4925 722.5243,-197.8178"/>
<polygon fill="#191970" stroke="#191970" points="723.8781,-201.0459 731.8556,-194.0737 721.2714,-194.5493 723.8781,-201.0459"/>
</g>
<!-- Node78 -->
<g id="node23" class="node">
<title>Node78</title>
<g id="a_node23"><a xlink:href="../../de/d8a/classopenage_1_1_attributes.xhtml#a08f927be3be6911e7cf77604f9ead10f" target="_top" xlink:title="Get the attribute based on the type. ">
<polygon fill="#ffffff" stroke="#000000" points="729,-465 729,-484 850,-484 850,-465 729,-465"/>
<text text-anchor="middle" x="789.5" y="-472" font-family="Helvetica,sans-Serif" font-size="10.00" fill="#000000">openage::Attributes::get</text>
</a>
</g>
</g>
<!-- Node76&#45;&gt;Node78 -->
<g id="edge25" class="edge">
<title>Node76&#45;&gt;Node78</title>
<path fill="none" stroke="#191970" d="M652.0353,-349.7135C660.7916,-353.2707 669.2644,-358.0586 676,-364.5 707.434,-394.5609 679.2221,-426.9105 712,-455.5 714.3767,-457.573 716.9437,-459.4276 719.6481,-461.0862"/>
<polygon fill="#191970" stroke="#191970" points="718.1965,-464.2755 728.6891,-465.7439 721.4023,-458.0527 718.1965,-464.2755"/>
</g>
<!-- Node79 -->
<g id="node24" class="node">
<title>Node79</title>
<g id="a_node24"><a xlink:href="../../df/dea/classopenage_1_1_unit.xhtml#a2e9937d84fe91d95cbe273f6fe986068" target="_top" xlink:title="the container used when constructing this unit ">
<polygon fill="#ffffff" stroke="#000000" points="741,-415.5 741,-445.5 838,-445.5 838,-415.5 741,-415.5"/>
<text text-anchor="start" x="749" y="-433.5" font-family="Helvetica,sans-Serif" font-size="10.00" fill="#000000">openage::Unit::get</text>
<text text-anchor="middle" x="789.5" y="-422.5" font-family="Helvetica,sans-Serif" font-size="10.00" fill="#000000">_container</text>
</a>
</g>
</g>
<!-- Node76&#45;&gt;Node79 -->
<g id="edge26" class="edge">
<title>Node76&#45;&gt;Node79</title>
<path fill="none" stroke="#191970" d="M652.352,-352.4289C660.6038,-355.6913 668.8144,-359.6769 676,-364.5 696.1345,-378.0148 691.7312,-392.1874 712,-405.5 718.0117,-409.4485 724.6948,-412.815 731.545,-415.6749"/>
<polygon fill="#191970" stroke="#191970" points="730.3518,-418.9657 740.9423,-419.2677 732.8516,-412.4273 730.3518,-418.9657"/>
</g>
<!-- Node80 -->
<g id="node25" class="node">
<title>Node80</title>
<g id="a_node25"><a xlink:href="../../df/dea/classopenage_1_1_unit.xhtml#adfea298b04684ab09dd8f499dabb8715" target="_top" xlink:title="get a reference which can check against the container to ensure this object still exists ...">
<polygon fill="#ffffff" stroke="#000000" points="733,-377 733,-396 846,-396 846,-377 733,-377"/>
<text text-anchor="middle" x="789.5" y="-384" font-family="Helvetica,sans-Serif" font-size="10.00" fill="#000000">openage::Unit::get_ref</text>
</a>
</g>
</g>
<!-- Node76&#45;&gt;Node80 -->
<g id="edge27" class="edge">
<title>Node76&#45;&gt;Node80</title>
<path fill="none" stroke="#191970" d="M652.0779,-352.1703C670.7938,-357.0167 692.3794,-362.5634 712,-367.5 721.0768,-369.7837 730.7605,-372.1854 740.0987,-374.4837"/>
<polygon fill="#191970" stroke="#191970" points="739.5047,-377.9418 750.0508,-376.9266 741.1735,-371.1436 739.5047,-377.9418"/>
</g>
<!-- Node81 -->
<g id="node26" class="node">
<title>Node81</title>
<g id="a_node26"><a xlink:href="../../df/dea/classopenage_1_1_unit.xhtml#ae769f520dfdb148ec831c151a954a881" target="_top" xlink:title="Returns the unit&#39;s name as the LogSource name. ">
<polygon fill="#ffffff" stroke="#000000" points="712,-339 712,-358 867,-358 867,-339 712,-339"/>
<text text-anchor="middle" x="789.5" y="-346" font-family="Helvetica,sans-Serif" font-size="10.00" fill="#000000">openage::Unit::logsource_name</text>
</a>
</g>
</g>
<!-- Node76&#45;&gt;Node81 -->
<g id="edge28" class="edge">
<title>Node76&#45;&gt;Node81</title>
<path fill="none" stroke="#191970" d="M652.3693,-341.8646C667.433,-342.5935 684.5077,-343.4197 701.3683,-344.2356"/>
<polygon fill="#191970" stroke="#191970" points="701.6614,-347.7538 711.8189,-344.7412 701.9998,-340.7619 701.6614,-347.7538"/>
</g>
<!-- Node83 -->
<g id="node28" class="node">
<title>Node83</title>
<g id="a_node28"><a xlink:href="../../df/dea/classopenage_1_1_unit.xhtml#ac5dcdf3180dcd4bdce67b765d8ef2134" target="_top" xlink:title="queues a command to be applied to this unit on the next update ">
<polygon fill="#ffffff" stroke="#000000" points="722.5,-213 722.5,-232 856.5,-232 856.5,-213 722.5,-213"/>
<text text-anchor="middle" x="789.5" y="-220" font-family="Helvetica,sans-Serif" font-size="10.00" fill="#000000">openage::Unit::queue_cmd</text>
</a>
</g>
</g>
<!-- Node76&#45;&gt;Node83 -->
<g id="edge30" class="edge">
<title>Node76&#45;&gt;Node83</title>
<path fill="none" stroke="#191970" d="M616.218,-324.2406C634.9608,-302.7531 672.1158,-263.8263 712,-242.5 717.1811,-239.7296 722.7648,-237.3288 728.4769,-235.2511"/>
<polygon fill="#191970" stroke="#191970" points="729.7653,-238.5115 738.1625,-232.0511 727.5693,-231.8649 729.7653,-238.5115"/>
</g>
<!-- Node85 -->
<g id="node30" class="node">
<title>Node85</title>
<g id="a_node30"><a xlink:href="../../df/dea/classopenage_1_1_unit.xhtml#a9f53ef015fca7c42ff3bf9d0779145a3" target="_top" xlink:title="removes all actions above and including the first interuptable action this will stop any of the units...">
<polygon fill="#ffffff" stroke="#000000" points="738.5,-251.5 738.5,-281.5 840.5,-281.5 840.5,-251.5 738.5,-251.5"/>
<text text-anchor="start" x="746.5" y="-269.5" font-family="Helvetica,sans-Serif" font-size="10.00" fill="#000000">openage::Unit::stop</text>
<text text-anchor="middle" x="789.5" y="-258.5" font-family="Helvetica,sans-Serif" font-size="10.00" fill="#000000">_actions</text>
</a>
</g>
</g>
<!-- Node76&#45;&gt;Node85 -->
<g id="edge32" class="edge">
<title>Node76&#45;&gt;Node85</title>
<path fill="none" stroke="#191970" d="M641.6326,-324.3014C662.4183,-316.0385 688.6056,-305.6636 712,-296.5 721.3702,-292.8297 731.3875,-288.9324 741.0039,-285.2042"/>
<polygon fill="#191970" stroke="#191970" points="742.3864,-288.4222 750.4476,-281.5471 739.8585,-281.8946 742.3864,-288.4222"/>
</g>
<!-- Node89 -->
<g id="node34" class="node">
<title>Node89</title>
<g id="a_node34"><a xlink:href="../../df/dea/classopenage_1_1_unit.xhtml#a238fb029bd4cc32e393506533facd976" target="_top" xlink:title="removes all gather actions without calling their on_complete actions this cancels the gathering actio...">
<polygon fill="#ffffff" stroke="#000000" points="920,-295.5 920,-325.5 1022,-325.5 1022,-295.5 920,-295.5"/>
<text text-anchor="start" x="928" y="-313.5" font-family="Helvetica,sans-Serif" font-size="10.00" fill="#000000">openage::Unit::stop</text>
<text text-anchor="middle" x="971" y="-302.5" font-family="Helvetica,sans-Serif" font-size="10.00" fill="#000000">_gather</text>
</a>
</g>
</g>
<!-- Node76&#45;&gt;Node89 -->
<g id="edge38" class="edge">
<title>Node76&#45;&gt;Node89</title>
<path fill="none" stroke="#191970" d="M652.0931,-334.8262C670.8108,-333.0771 692.3937,-331.1225 712,-329.5 779.6094,-323.905 857.2186,-318.3231 909.7154,-314.6719"/>
<polygon fill="#191970" stroke="#191970" points="910.1356,-318.1513 919.8695,-313.968 909.6514,-311.168 910.1356,-318.1513"/>
</g>
<!-- Node82 -->
<g id="node27" class="node">
<title>Node82</title>
<g id="a_node27"><a xlink:href="../../d8/dcc/namespacestd.xhtml#a26aa0f4be3a77ac5cc3ce0cabb545042" target="_top" xlink:title="std::to_string">
<polygon fill="#ffffff" stroke="#000000" points="934,-345 934,-364 1008,-364 1008,-345 934,-345"/>
<text text-anchor="middle" x="971" y="-352" font-family="Helvetica,sans-Serif" font-size="10.00" fill="#000000">std::to_string</text>
</a>
</g>
</g>
<!-- Node81&#45;&gt;Node82 -->
<g id="edge29" class="edge">
<title>Node81&#45;&gt;Node82</title>
<path fill="none" stroke="#191970" d="M867.2622,-351.0707C886.3849,-351.7028 906.2933,-352.3609 923.4958,-352.9296"/>
<polygon fill="#191970" stroke="#191970" points="923.7157,-356.4387 933.8259,-353.2711 923.9471,-349.4425 923.7157,-356.4387"/>
</g>
<!-- Node84 -->
<g id="node29" class="node">
<title>Node84</title>
<g id="a_node29"><a xlink:href="../../d8/dda/classopenage_1_1_command.xhtml#afbc0a60d82b9608e375c38c5e3fdf758" target="_top" xlink:title="the ability types allowed to use this command ">
<polygon fill="#ffffff" stroke="#000000" points="903,-169 903,-188 1039,-188 1039,-169 903,-169"/>
<text text-anchor="middle" x="971" y="-176" font-family="Helvetica,sans-Serif" font-size="10.00" fill="#000000">openage::Command::ability</text>
</a>
</g>
</g>
<!-- Node83&#45;&gt;Node84 -->
<g id="edge31" class="edge">
<title>Node83&#45;&gt;Node84</title>
<path fill="none" stroke="#191970" d="M828.8828,-212.9527C856.1156,-206.3508 892.5503,-197.5181 921.7102,-190.449"/>
<polygon fill="#191970" stroke="#191970" points="922.8002,-193.7863 931.6941,-188.0287 921.1509,-186.9833 922.8002,-193.7863"/>
</g>
<!-- Node86 -->
<g id="node31" class="node">
<title>Node86</title>
<g id="a_node31"><a xlink:href="../../df/dea/classopenage_1_1_unit.xhtml#aae0b3f53cb1d75823391322876d199ef" target="_top" xlink:title="erase from action specified by func to the end of the stack all actions erased will have the on_compl...">
<polygon fill="#ffffff" stroke="#000000" points="1083,-273.5 1083,-303.5 1190,-303.5 1190,-273.5 1083,-273.5"/>
<text text-anchor="start" x="1091" y="-291.5" font-family="Helvetica,sans-Serif" font-size="10.00" fill="#000000">openage::Unit::erase</text>
<text text-anchor="middle" x="1136.5" y="-280.5" font-family="Helvetica,sans-Serif" font-size="10.00" fill="#000000">_after</text>
</a>
</g>
</g>
<!-- Node85&#45;&gt;Node86 -->
<g id="edge33" class="edge">
<title>Node85&#45;&gt;Node86</title>
<path fill="none" stroke="#191970" d="M840.701,-269.7462C902.3864,-273.6571 1006.0363,-280.2285 1072.8214,-284.4627"/>
<polygon fill="#191970" stroke="#191970" points="1072.603,-287.9558 1082.8045,-285.0957 1073.046,-280.9699 1072.603,-287.9558"/>
</g>
<!-- Node85&#45;&gt;Node87 -->
<g id="edge34" class="edge">
<title>Node85&#45;&gt;Node87</title>
<path fill="none" stroke="#191970" d="M840.5409,-254.1265C862.5524,-248.7903 888.4463,-242.513 911.3383,-236.9635"/>
<polygon fill="#191970" stroke="#191970" points="912.3876,-240.3105 921.2815,-234.553 910.7384,-233.5076 912.3876,-240.3105"/>
</g>
<!-- Node85&#45;&gt;Node89 -->
<g id="edge36" class="edge">
<title>Node85&#45;&gt;Node89</title>
<path fill="none" stroke="#191970" d="M840.5409,-278.8735C862.0957,-284.099 887.3736,-290.2269 909.9096,-295.6902"/>
<polygon fill="#191970" stroke="#191970" points="909.1702,-299.1123 919.7134,-298.0669 910.8195,-292.3093 909.1702,-299.1123"/>
</g>
<!-- Node88 -->
<g id="node33" class="node">
<title>Node88</title>
<g id="a_node33"><a xlink:href="../../de/d8a/classopenage_1_1_attributes.xhtml#aee38f453ac85b68821958ad74cdd8df5" target="_top" xlink:title="Check if the attribute of the given type exists. ">
<polygon fill="#ffffff" stroke="#000000" points="1075,-213 1075,-232 1198,-232 1198,-213 1075,-213"/>
<text text-anchor="middle" x="1136.5" y="-220" font-family="Helvetica,sans-Serif" font-size="10.00" fill="#000000">openage::Attributes::has</text>
</a>
</g>
</g>
<!-- Node87&#45;&gt;Node88 -->
<g id="edge35" class="edge">
<title>Node87&#45;&gt;Node88</title>
<path fill="none" stroke="#191970" d="M1020.6555,-222.5C1034.503,-222.5 1049.8309,-222.5 1064.6808,-222.5"/>
<polygon fill="#191970" stroke="#191970" points="1064.8611,-226.0001 1074.861,-222.5 1064.861,-219.0001 1064.8611,-226.0001"/>
</g>
<!-- Node89&#45;&gt;Node86 -->
<g id="edge37" class="edge">
<title>Node89&#45;&gt;Node86</title>
<path fill="none" stroke="#191970" d="M1022.0059,-303.7198C1037.9723,-301.5973 1055.7971,-299.2279 1072.5387,-297.0024"/>
<polygon fill="#191970" stroke="#191970" points="1073.3448,-300.4261 1082.7964,-295.6389 1072.4223,-293.4872 1073.3448,-300.4261"/>
</g>
</g>
</svg>
        <g id="navigator" transform="translate(0 0)" fill="#404254">
                <rect fill="#f2f5e9" fill-opacity="0.5" stroke="#606060" stroke-width=".5" x="0" y="0" width="60" height="60"/>
                <use id="zoomplus" xlink:href="#zoomPlus" x="17" y="9" onmousedown="handleZoom(evt,'in')"/>
                <use id="zoomminus" xlink:href="#zoomMin" x="42" y="9" onmousedown="handleZoom(evt,'out')"/>
                <use id="reset" xlink:href="#resetDef" x="30" y="36" onmousedown="handleReset()"/>
                <g id="arrowUp" xlink:href="#dirArrow" transform="translate(30 24)" onmousedown="handlePan(0,-1)">
                  <use xlink:href="#rim" fill="#404040">
                        <set attributeName="fill" to="#808080" begin="arrowUp.mouseover" end="arrowUp.mouseout"/>
                  </use>
                  <path fill="none" stroke="white" stroke-width="1.5" d="M0,-3.0v7 M-2.5,-0.5L0,-3.0L2.5,-0.5"/>
                </g>
                <g id="arrowRight" xlink:href="#dirArrow" transform="rotate(90) translate(36 -43)" onmousedown="handlePan(1,0)">
                  <use xlink:href="#rim" fill="#404040">
                        <set attributeName="fill" to="#808080" begin="arrowRight.mouseover" end="arrowRight.mouseout"/>
                  </use>
                  <path fill="none" stroke="white" stroke-width="1.5" d="M0,-3.0v7 M-2.5,-0.5L0,-3.0L2.5,-0.5"/>
                </g>
                <g id="arrowDown" xlink:href="#dirArrow" transform="rotate(180) translate(-30 -48)" onmousedown="handlePan(0,1)">
                  <use xlink:href="#rim" fill="#404040">
                        <set attributeName="fill" to="#808080" begin="arrowDown.mouseover" end="arrowDown.mouseout"/>
                  </use>
                  <path fill="none" stroke="white" stroke-width="1.5" d="M0,-3.0v7 M-2.5,-0.5L0,-3.0L2.5,-0.5"/>
                </g>
                <g id="arrowLeft" xlink:href="#dirArrow" transform="rotate(270) translate(-36 17)" onmousedown="handlePan(-1,0)">
                  <use xlink:href="#rim" fill="#404040">
                        <set attributeName="fill" to="#808080" begin="arrowLeft.mouseover" end="arrowLeft.mouseout"/>
                  </use>
                  <path fill="none" stroke="white" stroke-width="1.5" d="M0,-3.0v7 M-2.5,-0.5L0,-3.0L2.5,-0.5"/>
                </g>
        </g>
        <svg viewBox="0 0 15 15" width="100%" height="30px" preserveAspectRatio="xMaxYMin meet">
         <g id="arrow_out" transform="scale(0.3 0.3)">
          <a xlink:href="classopenage_1_1convert_1_1colortable_1_1_color_table_aeea5aabc465e55e3b8a519049bbcb623_cgraph_org.svg" target="_base">
           <rect id="button" ry="5" rx="5" y="6" x="6" height="38" width="38"
                fill="#f2f5e9" fill-opacity="0.5" stroke="#606060" stroke-width="1.0"/>
           <path id="arrow"
             d="M 11.500037,31.436501 C 11.940474,20.09759 22.043105,11.32322 32.158766,21.979434 L 37.068811,17.246167 C 37.068811,17.246167 37.088388,32 37.088388,32 L 22.160133,31.978069 C 22.160133,31.978069 26.997745,27.140456 26.997745,27.140456 C 18.528582,18.264221 13.291696,25.230495 11.500037,31.436501 z"
             style="fill:#404040;"/>
          </a>
         </g>
        </svg>
</svg>
