<?xml version="1.0" encoding="UTF-8" standalone="no"?>
<!DOCTYPE svg PUBLIC "-//W3C//DTD SVG 1.1//EN"
 "http://www.w3.org/Graphics/SVG/1.1/DTD/svg11.dtd">
<!-- Generated by graphviz version 2.40.1 (20161225.0304)
 -->
<!-- Title: openage::TerrainObject::check_collisions Pages: 1 -->
<svg width="280pt" height="57pt"
 viewBox="0.00 0.00 280.00 57.00" xmlns="http://www.w3.org/2000/svg" xmlns:xlink="http://www.w3.org/1999/xlink">
<g id="graph0" class="graph" transform="scale(1 1) rotate(0) translate(4 53)">
<title>openage::TerrainObject::check_collisions</title>
<polygon fill="#ffffff" stroke="transparent" points="-4,4 -4,-53 276,-53 276,4 -4,4"/>
<!-- Node13 -->
<g id="node1" class="node">
<title>Node13</title>
<polygon fill="#bfbfbf" stroke="#000000" points="0,-.5 0,-30.5 118,-30.5 118,-.5 0,-.5"/>
<text text-anchor="start" x="8" y="-18.5" font-family="Helvetica,sans-Serif" font-size="10.00" fill="#000000">openage::TerrainObject</text>
<text text-anchor="middle" x="59" y="-7.5" font-family="Helvetica,sans-Serif" font-size="10.00" fill="#000000">::check_collisions</text>
</g>
<!-- Node14 -->
<g id="node2" class="node">
<title>Node14</title>
<g id="a_node2"><a xlink:href="../../db/db3/classopenage_1_1_terrain_object.xhtml#ad4fa56a3ee5387e217fa8d9297acda7b" target="_top" xlink:title="returns true if this object has been placed. ">
<polygon fill="#ffffff" stroke="#000000" points="154,-.5 154,-30.5 272,-30.5 272,-.5 154,-.5"/>
<text text-anchor="start" x="162" y="-18.5" font-family="Helvetica,sans-Serif" font-size="10.00" fill="#000000">openage::TerrainObject</text>
<text text-anchor="middle" x="213" y="-7.5" font-family="Helvetica,sans-Serif" font-size="10.00" fill="#000000">::is_placed</text>
</a>
</g>
</g>
<!-- Node13&#45;&gt;Node14 -->
<g id="edge1" class="edge">
<title>Node13&#45;&gt;Node14</title>
<path fill="none" stroke="#191970" d="M118.1,-15.5C126.4218,-15.5 135.0389,-15.5 143.5326,-15.5"/>
<polygon fill="#191970" stroke="#191970" points="143.8037,-19.0001 153.8037,-15.5 143.8037,-12.0001 143.8037,-19.0001"/>
</g>
<!-- Node14&#45;&gt;Node14 -->
<g id="edge2" class="edge">
<title>Node14&#45;&gt;Node14</title>
<path fill="none" stroke="#191970" d="M186.1623,-30.659C179.6908,-40.0566 188.6367,-49 213,-49 227.8464,-49 236.9677,-45.679 240.3639,-40.9579"/>
<polygon fill="#191970" stroke="#191970" points="243.8435,-40.4673 239.8377,-30.659 236.8527,-40.8246 243.8435,-40.4673"/>
</g>
</g>
</svg>
