<?xml version="1.0" encoding="UTF-8" standalone="no"?>
<!DOCTYPE svg PUBLIC "-//W3C//DTD SVG 1.1//EN"
 "http://www.w3.org/Graphics/SVG/1.1/DTD/svg11.dtd">
<!-- Generated by graphviz version 2.40.1 (20161225.0304)
 -->
<!-- Title: openage.util.struct.Flags Pages: 1 -->
<svg width="234pt" height="287pt"
 viewBox="0.00 0.00 234.00 287.00" xmlns="http://www.w3.org/2000/svg" xmlns:xlink="http://www.w3.org/1999/xlink">
<g id="graph0" class="graph" transform="scale(1 1) rotate(0) translate(4 283)">
<title>openage.util.struct.Flags</title>
<polygon fill="#ffffff" stroke="transparent" points="-4,4 -4,-283 230,-283 230,4 -4,4"/>
<!-- Node6 -->
<g id="node1" class="node">
<title>Node6</title>
<polygon fill="#bfbfbf" stroke="#000000" points="30,-.5 30,-90.5 154,-90.5 154,-.5 30,-.5"/>
<text text-anchor="middle" x="92" y="-78.5" font-family="Helvetica,sans-Serif" font-size="10.00" fill="#000000">openage.util.struct.Flags</text>
<polyline fill="none" stroke="#000000" points="30,-71.5 154,-71.5 "/>
<text text-anchor="start" x="38" y="-59.5" font-family="Helvetica,sans-Serif" font-size="10.00" fill="#000000">&#45; _flags</text>
<polyline fill="none" stroke="#000000" points="30,-52.5 154,-52.5 "/>
<text text-anchor="start" x="38" y="-40.5" font-family="Helvetica,sans-Serif" font-size="10.00" fill="#000000">+ __init__()</text>
<text text-anchor="start" x="38" y="-29.5" font-family="Helvetica,sans-Serif" font-size="10.00" fill="#000000">+ unknown()</text>
<text text-anchor="start" x="38" y="-18.5" font-family="Helvetica,sans-Serif" font-size="10.00" fill="#000000">+ as_dict()</text>
<text text-anchor="start" x="38" y="-7.5" font-family="Helvetica,sans-Serif" font-size="10.00" fill="#000000">+ __repr__()</text>
</g>
<!-- Node7 -->
<g id="node2" class="node">
<title>Node7</title>
<polygon fill="#ffffff" stroke="#bfbfbf" points="0,-127.5 0,-184.5 62,-184.5 62,-127.5 0,-127.5"/>
<text text-anchor="middle" x="31" y="-172.5" font-family="Helvetica,sans-Serif" font-size="10.00" fill="#000000">metaclass</text>
<polyline fill="none" stroke="#bfbfbf" points="0,-165.5 62,-165.5 "/>
<text text-anchor="middle" x="31" y="-153.5" font-family="Helvetica,sans-Serif" font-size="10.00" fill="#000000"> </text>
<polyline fill="none" stroke="#bfbfbf" points="0,-146.5 62,-146.5 "/>
<text text-anchor="middle" x="31" y="-134.5" font-family="Helvetica,sans-Serif" font-size="10.00" fill="#000000"> </text>
</g>
<!-- Node7&#45;&gt;Node6 -->
<g id="edge1" class="edge">
<title>Node7&#45;&gt;Node6</title>
<path fill="none" stroke="#191970" d="M51.8012,-118.3192C56.6872,-109.4682 61.944,-99.9458 66.993,-90.7995"/>
<polygon fill="none" stroke="#191970" points="48.6366,-116.8097 46.8678,-127.2559 54.7648,-120.1928 48.6366,-116.8097"/>
</g>
<!-- Node8 -->
<g id="node3" class="node">
<title>Node8</title>
<g id="a_node3"><a xlink:href="../../d4/d24/classopenage_1_1util_1_1struct_1_1_flags_meta.xhtml" target="_top" xlink:title="Metaclass for Flags. ">
<polygon fill="#ffffff" stroke="#000000" points="80,-127.5 80,-184.5 226,-184.5 226,-127.5 80,-127.5"/>
<text text-anchor="middle" x="153" y="-172.5" font-family="Helvetica,sans-Serif" font-size="10.00" fill="#000000">openage.util.struct.FlagsMeta</text>
<polyline fill="none" stroke="#000000" points="80,-165.5 226,-165.5 "/>
<text text-anchor="middle" x="153" y="-153.5" font-family="Helvetica,sans-Serif" font-size="10.00" fill="#000000"> </text>
<polyline fill="none" stroke="#000000" points="80,-146.5 226,-146.5 "/>
<text text-anchor="start" x="88" y="-134.5" font-family="Helvetica,sans-Serif" font-size="10.00" fill="#000000">+ __new__()</text>
</a>
</g>
</g>
<!-- Node8&#45;&gt;Node6 -->
<g id="edge2" class="edge">
<title>Node8&#45;&gt;Node6</title>
<path fill="none" stroke="#191970" d="M132.1988,-118.3192C127.3128,-109.4682 122.056,-99.9458 117.007,-90.7995"/>
<polygon fill="none" stroke="#191970" points="129.2352,-120.1928 137.1322,-127.2559 135.3634,-116.8097 129.2352,-120.1928"/>
</g>
<!-- Node9 -->
<g id="node4" class="node">
<title>Node9</title>
<polygon fill="#ffffff" stroke="#bfbfbf" points="135.5,-221.5 135.5,-278.5 170.5,-278.5 170.5,-221.5 135.5,-221.5"/>
<text text-anchor="middle" x="153" y="-266.5" font-family="Helvetica,sans-Serif" font-size="10.00" fill="#000000">type</text>
<polyline fill="none" stroke="#bfbfbf" points="135.5,-259.5 170.5,-259.5 "/>
<text text-anchor="middle" x="153" y="-247.5" font-family="Helvetica,sans-Serif" font-size="10.00" fill="#000000"> </text>
<polyline fill="none" stroke="#bfbfbf" points="135.5,-240.5 170.5,-240.5 "/>
<text text-anchor="middle" x="153" y="-228.5" font-family="Helvetica,sans-Serif" font-size="10.00" fill="#000000"> </text>
</g>
<!-- Node9&#45;&gt;Node8 -->
<g id="edge3" class="edge">
<title>Node9&#45;&gt;Node8</title>
<path fill="none" stroke="#191970" d="M153,-211.1035C153,-202.2052 153,-192.9073 153,-184.538"/>
<polygon fill="none" stroke="#191970" points="149.5001,-211.2861 153,-221.2861 156.5001,-211.2862 149.5001,-211.2861"/>
</g>
</g>
</svg>
