<?xml version="1.0" encoding="UTF-8" standalone="no"?>
<!DOCTYPE svg PUBLIC "-//W3C//DTD SVG 1.1//EN"
 "http://www.w3.org/Graphics/SVG/1.1/DTD/svg11.dtd">
<!-- Generated by graphviz version 2.40.1 (20161225.0304)
 -->
<!-- Title: openage.codegen.codegen.postprocess_write Pages: 1 -->
<svg width="382pt" height="78pt"
 viewBox="0.00 0.00 382.00 77.50" xmlns="http://www.w3.org/2000/svg" xmlns:xlink="http://www.w3.org/1999/xlink">
<g id="graph0" class="graph" transform="scale(1 1) rotate(0) translate(4 73.5)">
<title>openage.codegen.codegen.postprocess_write</title>
<polygon fill="#ffffff" stroke="transparent" points="-4,4 -4,-73.5 378,-73.5 378,4 -4,4"/>
<!-- Node34 -->
<g id="node1" class="node">
<title>Node34</title>
<polygon fill="#bfbfbf" stroke="#000000" points="0,-17 0,-47 189,-47 189,-17 0,-17"/>
<text text-anchor="start" x="8" y="-35" font-family="Helvetica,sans-Serif" font-size="10.00" fill="#000000">openage.codegen.codegen.postprocess</text>
<text text-anchor="middle" x="94.5" y="-24" font-family="Helvetica,sans-Serif" font-size="10.00" fill="#000000">_write</text>
</g>
<!-- Node35 -->
<g id="node2" class="node">
<title>Node35</title>
<g id="a_node2"><a xlink:href="../../d3/df9/namespaceopenage_1_1codegen_1_1codegen.xhtml#a7cce911eb4c73e57753d1a055e95549b" target="_top" xlink:title="Yields the lines for the automatically&#45;added file header. ">
<polygon fill="#ffffff" stroke="#000000" points="225,-39 225,-69 374,-69 374,-39 225,-39"/>
<text text-anchor="start" x="233" y="-57" font-family="Helvetica,sans-Serif" font-size="10.00" fill="#000000">openage.codegen.codegen.get</text>
<text text-anchor="middle" x="299.5" y="-46" font-family="Helvetica,sans-Serif" font-size="10.00" fill="#000000">_header_lines</text>
</a>
</g>
</g>
<!-- Node34&#45;&gt;Node35 -->
<g id="edge1" class="edge">
<title>Node34&#45;&gt;Node35</title>
<path fill="none" stroke="#191970" d="M189.1991,-42.1628C197.7017,-43.0753 206.2763,-43.9955 214.687,-44.8981"/>
<polygon fill="#191970" stroke="#191970" points="214.5328,-48.4016 224.8492,-45.9887 215.2798,-41.4415 214.5328,-48.4016"/>
</g>
<!-- Node36 -->
<g id="node3" class="node">
<title>Node36</title>
<g id="a_node3"><a xlink:href="../../de/d60/namespaceopenage_1_1util.xhtml#a9556b8562574e2c6ad102d8fd87569c6" target="_top" xlink:title="Split a string at a delimiter into a vector. ">
<polygon fill="#ffffff" stroke="#000000" points="251.5,-.5 251.5,-19.5 347.5,-19.5 347.5,-.5 251.5,-.5"/>
<text text-anchor="middle" x="299.5" y="-7.5" font-family="Helvetica,sans-Serif" font-size="10.00" fill="#000000">openage::util::split</text>
</a>
</g>
</g>
<!-- Node34&#45;&gt;Node36 -->
<g id="edge2" class="edge">
<title>Node34&#45;&gt;Node36</title>
<path fill="none" stroke="#191970" d="M189.1991,-21.8372C206.8411,-19.9439 224.7931,-18.0173 240.9483,-16.2836"/>
<polygon fill="#191970" stroke="#191970" points="241.7144,-19.7216 251.2838,-15.1744 240.9674,-12.7615 241.7144,-19.7216"/>
</g>
</g>
</svg>
