<?xml version="1.0" encoding="UTF-8" standalone="no"?>
<!DOCTYPE svg PUBLIC "-//W3C//DTD SVG 1.1//EN"
 "http://www.w3.org/Graphics/SVG/1.1/DTD/svg11.dtd">
<!-- Generated by graphviz version 2.40.1 (20161225.0304)
 -->
<!-- Title: openage::util::for_each Pages: 1 -->
<svg width="1269pt" height="340pt"
 viewBox="0.00 0.00 1269.00 340.00" xmlns="http://www.w3.org/2000/svg" xmlns:xlink="http://www.w3.org/1999/xlink">
<g id="graph0" class="graph" transform="scale(1 1) rotate(0) translate(4 336)">
<title>openage::util::for_each</title>
<polygon fill="#ffffff" stroke="transparent" points="-4,4 -4,-336 1265,-336 1265,4 -4,4"/>
<!-- Node156 -->
<g id="node1" class="node">
<title>Node156</title>
<polygon fill="#bfbfbf" stroke="#000000" points="0,-158.5 0,-177.5 116,-177.5 116,-158.5 0,-158.5"/>
<text text-anchor="middle" x="58" y="-165.5" font-family="Helvetica,sans-Serif" font-size="10.00" fill="#000000">openage::util::for_each</text>
</g>
<!-- Node157 -->
<g id="node2" class="node">
<title>Node157</title>
<g id="a_node2"><a xlink:href="../../db/d42/classopenage_1_1_editor_mode.xhtml#a8bc3906c89a7ecceff2c24512c5be24b" target="_top" xlink:title="openage::EditorMode\l::announce_category\l_content">
<polygon fill="#ffffff" stroke="#000000" points="187,-290.5 187,-331.5 296,-331.5 296,-290.5 187,-290.5"/>
<text text-anchor="start" x="195" y="-319.5" font-family="Helvetica,sans-Serif" font-size="10.00" fill="#000000">openage::EditorMode</text>
<text text-anchor="start" x="195" y="-308.5" font-family="Helvetica,sans-Serif" font-size="10.00" fill="#000000">::announce_category</text>
<text text-anchor="middle" x="241.5" y="-297.5" font-family="Helvetica,sans-Serif" font-size="10.00" fill="#000000">_content</text>
</a>
</g>
</g>
<!-- Node156&#45;&gt;Node157 -->
<g id="edge1" class="edge">
<title>Node156&#45;&gt;Node157</title>
<path fill="none" stroke="#191970" d="M68.7955,-186.5383C84.2106,-211.4553 114.8181,-255.5528 152,-281 162.4134,-288.1269 174.6594,-293.6806 186.6937,-297.9627"/>
<polygon fill="#191970" stroke="#191970" points="71.6395,-184.4764 63.4801,-177.718 65.644,-188.0896 71.6395,-184.4764"/>
</g>
<!-- Node158 -->
<g id="node3" class="node">
<title>Node158</title>
<g id="a_node3"><a xlink:href="../../da/d1c/classopenage_1_1gui_1_1_gui_filled_texture_handles.xhtml#a08b5dcae915c7b1cb98cf3763f4b2361" target="_top" xlink:title="openage::gui::GuiFilledTexture\lHandles::fill_all_handles\l_with_texture">
<polygon fill="#ffffff" stroke="#000000" points="167,-230.5 167,-271.5 316,-271.5 316,-230.5 167,-230.5"/>
<text text-anchor="start" x="175" y="-259.5" font-family="Helvetica,sans-Serif" font-size="10.00" fill="#000000">openage::gui::GuiFilledTexture</text>
<text text-anchor="start" x="175" y="-248.5" font-family="Helvetica,sans-Serif" font-size="10.00" fill="#000000">Handles::fill_all_handles</text>
<text text-anchor="middle" x="241.5" y="-237.5" font-family="Helvetica,sans-Serif" font-size="10.00" fill="#000000">_with_texture</text>
</a>
</g>
</g>
<!-- Node156&#45;&gt;Node158 -->
<g id="edge2" class="edge">
<title>Node156&#45;&gt;Node158</title>
<path fill="none" stroke="#191970" d="M81.5266,-182.9252C100.1588,-194.333 127.1045,-209.9297 152,-221 159.4871,-224.3293 167.4637,-227.5025 175.453,-230.4535"/>
<polygon fill="#191970" stroke="#191970" points="83.1883,-179.8374 72.8447,-177.5439 79.5005,-185.7872 83.1883,-179.8374"/>
</g>
<!-- Node159 -->
<g id="node4" class="node">
<title>Node159</title>
<g id="a_node4"><a xlink:href="../../da/d61/classqtsdl_1_1_gui_live_reloader.xhtml#a53357cda7b2c3adde79a0fc5516d1724" target="_top" xlink:title="qtsdl::GuiLiveReloader\l::init_persistent_items">
<polygon fill="#ffffff" stroke="#000000" points="183.5,-181 183.5,-211 299.5,-211 299.5,-181 183.5,-181"/>
<text text-anchor="start" x="191.5" y="-199" font-family="Helvetica,sans-Serif" font-size="10.00" fill="#000000">qtsdl::GuiLiveReloader</text>
<text text-anchor="middle" x="241.5" y="-188" font-family="Helvetica,sans-Serif" font-size="10.00" fill="#000000">::init_persistent_items</text>
</a>
</g>
</g>
<!-- Node156&#45;&gt;Node159 -->
<g id="edge3" class="edge">
<title>Node156&#45;&gt;Node159</title>
<path fill="none" stroke="#191970" d="M126.0281,-178.3803C144.8081,-181.2459 165.0118,-184.3288 183.1873,-187.1022"/>
<polygon fill="#191970" stroke="#191970" points="126.4741,-174.9079 116.0605,-176.8594 125.4181,-181.8278 126.4741,-174.9079"/>
</g>
<!-- Node168 -->
<g id="node13" class="node">
<title>Node168</title>
<g id="a_node13"><a xlink:href="../../dc/d7b/classqtsdl_1_1_recursive_directory_watcher_worker.xhtml#a9722ee9e0a60a9f437b86c7902641767" target="_top" xlink:title="qtsdl::RecursiveDirectory\lWatcherWorker::onRootDirsPaths\lChanged">
<polygon fill="#ffffff" stroke="#000000" points="158.5,-120.5 158.5,-161.5 324.5,-161.5 324.5,-120.5 158.5,-120.5"/>
<text text-anchor="start" x="166.5" y="-149.5" font-family="Helvetica,sans-Serif" font-size="10.00" fill="#000000">qtsdl::RecursiveDirectory</text>
<text text-anchor="start" x="166.5" y="-138.5" font-family="Helvetica,sans-Serif" font-size="10.00" fill="#000000">WatcherWorker::onRootDirsPaths</text>
<text text-anchor="middle" x="241.5" y="-127.5" font-family="Helvetica,sans-Serif" font-size="10.00" fill="#000000">Changed</text>
</a>
</g>
</g>
<!-- Node156&#45;&gt;Node168 -->
<g id="edge12" class="edge">
<title>Node156&#45;&gt;Node168</title>
<path fill="none" stroke="#191970" d="M126.0027,-157.9942C136.5365,-156.4442 147.5188,-154.8283 158.3404,-153.236"/>
<polygon fill="#191970" stroke="#191970" points="125.4445,-154.5385 116.0605,-159.457 126.4636,-161.4639 125.4445,-154.5385"/>
</g>
<!-- Node170 -->
<g id="node15" class="node">
<title>Node170</title>
<g id="a_node15"><a xlink:href="../../d1/dd2/classqtsdl_1_1_qml_engine_with_singleton_items_info.xhtml#acfc796de1ec7a3ddc546a31718edc8a2" target="_top" xlink:title="qtsdl::QmlEngineWithSingleton\lItemsInfo::QmlEngineWithSingleton\lItemsInfo">
<polygon fill="#ffffff" stroke="#000000" points="155,-60.5 155,-101.5 328,-101.5 328,-60.5 155,-60.5"/>
<text text-anchor="start" x="163" y="-89.5" font-family="Helvetica,sans-Serif" font-size="10.00" fill="#000000">qtsdl::QmlEngineWithSingleton</text>
<text text-anchor="start" x="163" y="-78.5" font-family="Helvetica,sans-Serif" font-size="10.00" fill="#000000">ItemsInfo::QmlEngineWithSingleton</text>
<text text-anchor="middle" x="241.5" y="-67.5" font-family="Helvetica,sans-Serif" font-size="10.00" fill="#000000">ItemsInfo</text>
</a>
</g>
</g>
<!-- Node156&#45;&gt;Node170 -->
<g id="edge14" class="edge">
<title>Node156&#45;&gt;Node170</title>
<path fill="none" stroke="#191970" d="M80.1398,-152.6393C98.7129,-140.2347 126.2591,-122.9384 152,-111 159.136,-107.6904 166.7426,-104.5672 174.3922,-101.6768"/>
<polygon fill="#191970" stroke="#191970" points="78.1096,-149.7871 71.7902,-158.291 82.0334,-155.584 78.1096,-149.7871"/>
</g>
<!-- Node171 -->
<g id="node16" class="node">
<title>Node171</title>
<g id="a_node16"><a xlink:href="../../d1/dd2/classqtsdl_1_1_qml_engine_with_singleton_items_info.xhtml#a3ed9ffd383a3ff97dd595ce3c555a1c5" target="_top" xlink:title="qtsdl::QmlEngineWithSingleton\lItemsInfo::~QmlEngineWithSingleton\lItemsInfo">
<polygon fill="#ffffff" stroke="#000000" points="152,-.5 152,-41.5 331,-41.5 331,-.5 152,-.5"/>
<text text-anchor="start" x="160" y="-29.5" font-family="Helvetica,sans-Serif" font-size="10.00" fill="#000000">qtsdl::QmlEngineWithSingleton</text>
<text text-anchor="start" x="160" y="-18.5" font-family="Helvetica,sans-Serif" font-size="10.00" fill="#000000">ItemsInfo::~QmlEngineWithSingleton</text>
<text text-anchor="middle" x="241.5" y="-7.5" font-family="Helvetica,sans-Serif" font-size="10.00" fill="#000000">ItemsInfo</text>
</a>
</g>
</g>
<!-- Node156&#45;&gt;Node171 -->
<g id="edge15" class="edge">
<title>Node156&#45;&gt;Node171</title>
<path fill="none" stroke="#191970" d="M68.2061,-149.5195C83.2891,-123.8451 113.901,-77.5544 152,-51 156.9745,-47.5329 162.3806,-44.4413 167.9897,-41.6891"/>
<polygon fill="#191970" stroke="#191970" points="65.1301,-147.8479 63.2025,-158.266 71.2062,-151.3239 65.1301,-147.8479"/>
</g>
<!-- Node160 -->
<g id="node5" class="node">
<title>Node160</title>
<g id="a_node5"><a xlink:href="../../d4/d96/classqtsdl_1_1_gui_subtree_impl.xhtml#a766c2b35a935c60fcbfcc6758d908ecb" target="_top" xlink:title="qtsdl::GuiSubtreeImpl\l::init_persistent_items">
<polygon fill="#ffffff" stroke="#000000" points="400.5,-181 400.5,-211 513.5,-211 513.5,-181 400.5,-181"/>
<text text-anchor="start" x="408.5" y="-199" font-family="Helvetica,sans-Serif" font-size="10.00" fill="#000000">qtsdl::GuiSubtreeImpl</text>
<text text-anchor="middle" x="457" y="-188" font-family="Helvetica,sans-Serif" font-size="10.00" fill="#000000">::init_persistent_items</text>
</a>
</g>
</g>
<!-- Node159&#45;&gt;Node160 -->
<g id="edge4" class="edge">
<title>Node159&#45;&gt;Node160</title>
<path fill="none" stroke="#191970" d="M309.6561,-196C338.8537,-196 372.5566,-196 400.3541,-196"/>
<polygon fill="#191970" stroke="#191970" points="309.5336,-192.5001 299.5335,-196 309.5335,-199.5001 309.5336,-192.5001"/>
</g>
<!-- Node161 -->
<g id="node6" class="node">
<title>Node161</title>
<g id="a_node6"><a xlink:href="../../d4/d96/classqtsdl_1_1_gui_subtree_impl.xhtml#aed216357736342148f86afb0d73f3fdd" target="_top" xlink:title="qtsdl::GuiSubtreeImpl\l::component_status_changed">
<polygon fill="#ffffff" stroke="#000000" points="583,-181 583,-211 728,-211 728,-181 583,-181"/>
<text text-anchor="start" x="591" y="-199" font-family="Helvetica,sans-Serif" font-size="10.00" fill="#000000">qtsdl::GuiSubtreeImpl</text>
<text text-anchor="middle" x="655.5" y="-188" font-family="Helvetica,sans-Serif" font-size="10.00" fill="#000000">::component_status_changed</text>
</a>
</g>
</g>
<!-- Node160&#45;&gt;Node161 -->
<g id="edge5" class="edge">
<title>Node160&#45;&gt;Node161</title>
<path fill="none" stroke="#191970" d="M523.674,-196C542.6849,-196 563.4894,-196 582.8384,-196"/>
<polygon fill="#191970" stroke="#191970" points="523.6165,-192.5001 513.6165,-196 523.6165,-199.5001 523.6165,-192.5001"/>
</g>
<!-- Node162 -->
<g id="node7" class="node">
<title>Node162</title>
<g id="a_node7"><a xlink:href="../../d4/d96/classqtsdl_1_1_gui_subtree_impl.xhtml#aea9b559c07846786ebcf6c41ef58ff78" target="_top" xlink:title="qtsdl::GuiSubtreeImpl\l::onEngineReloaded">
<polygon fill="#ffffff" stroke="#000000" points="764,-206 764,-236 875,-236 875,-206 764,-206"/>
<text text-anchor="start" x="772" y="-224" font-family="Helvetica,sans-Serif" font-size="10.00" fill="#000000">qtsdl::GuiSubtreeImpl</text>
<text text-anchor="middle" x="819.5" y="-213" font-family="Helvetica,sans-Serif" font-size="10.00" fill="#000000">::onEngineReloaded</text>
</a>
</g>
</g>
<!-- Node161&#45;&gt;Node162 -->
<g id="edge6" class="edge">
<title>Node161&#45;&gt;Node162</title>
<path fill="none" stroke="#191970" d="M738.3872,-208.6352C746.919,-209.9358 755.438,-211.2345 763.5747,-212.4748"/>
<polygon fill="#191970" stroke="#191970" points="738.8011,-205.158 728.3879,-207.111 737.7462,-212.078 738.8011,-205.158"/>
</g>
<!-- Node167 -->
<g id="node12" class="node">
<title>Node167</title>
<g id="a_node12"><a xlink:href="../../d4/d96/classqtsdl_1_1_gui_subtree_impl.xhtml#a903d02ad6f5349af96add80f99ddf345" target="_top" xlink:title="qtsdl::GuiSubtreeImpl\l::attach_to">
<polygon fill="#ffffff" stroke="#000000" points="764,-157 764,-187 875,-187 875,-157 764,-157"/>
<text text-anchor="start" x="772" y="-175" font-family="Helvetica,sans-Serif" font-size="10.00" fill="#000000">qtsdl::GuiSubtreeImpl</text>
<text text-anchor="middle" x="819.5" y="-164" font-family="Helvetica,sans-Serif" font-size="10.00" fill="#000000">::attach_to</text>
</a>
</g>
</g>
<!-- Node161&#45;&gt;Node167 -->
<g id="edge11" class="edge">
<title>Node161&#45;&gt;Node167</title>
<path fill="none" stroke="#191970" d="M738.3872,-183.8702C746.919,-182.6216 755.438,-181.3749 763.5747,-180.1842"/>
<polygon fill="#191970" stroke="#191970" points="737.7756,-180.4223 728.3879,-185.3335 738.7893,-187.3485 737.7756,-180.4223"/>
</g>
<!-- Node163 -->
<g id="node8" class="node">
<title>Node163</title>
<g id="a_node8"><a xlink:href="../../dd/d89/classqtsdl_1_1_gui_engine_impl_connection.xhtml#af9d75573df9d5f7b433c54eb6f2690fa" target="_top" xlink:title="qtsdl::GuiEngineImplConnection\l::GuiEngineImplConnection">
<polygon fill="#ffffff" stroke="#000000" points="911,-230 911,-260 1068,-260 1068,-230 911,-230"/>
<text text-anchor="start" x="919" y="-248" font-family="Helvetica,sans-Serif" font-size="10.00" fill="#000000">qtsdl::GuiEngineImplConnection</text>
<text text-anchor="middle" x="989.5" y="-237" font-family="Helvetica,sans-Serif" font-size="10.00" fill="#000000">::GuiEngineImplConnection</text>
</a>
</g>
</g>
<!-- Node162&#45;&gt;Node163 -->
<g id="edge7" class="edge">
<title>Node162&#45;&gt;Node163</title>
<path fill="none" stroke="#191970" d="M885.2517,-230.2826C893.6484,-231.468 902.3096,-232.6908 910.8837,-233.9012"/>
<polygon fill="#191970" stroke="#191970" points="885.5555,-226.7909 875.1644,-228.8585 884.5769,-233.7221 885.5555,-226.7909"/>
</g>
<!-- Node164 -->
<g id="node9" class="node">
<title>Node164</title>
<g id="a_node9"><a xlink:href="../../dd/d89/classqtsdl_1_1_gui_engine_impl_connection.xhtml#ac2ef61bcd0cdb991b399a29eeb5ec74c" target="_top" xlink:title="qtsdl::GuiEngineImplConnection\l::disconnect">
<polygon fill="#ffffff" stroke="#000000" points="911,-181 911,-211 1068,-211 1068,-181 911,-181"/>
<text text-anchor="start" x="919" y="-199" font-family="Helvetica,sans-Serif" font-size="10.00" fill="#000000">qtsdl::GuiEngineImplConnection</text>
<text text-anchor="middle" x="989.5" y="-188" font-family="Helvetica,sans-Serif" font-size="10.00" fill="#000000">::disconnect</text>
</a>
</g>
</g>
<!-- Node162&#45;&gt;Node164 -->
<g id="edge8" class="edge">
<title>Node162&#45;&gt;Node164</title>
<path fill="none" stroke="#191970" d="M885.2517,-211.3306C893.6484,-210.0958 902.3096,-208.8221 910.8837,-207.5612"/>
<polygon fill="#191970" stroke="#191970" points="884.5487,-207.8963 875.1644,-212.8141 885.5672,-214.8218 884.5487,-207.8963"/>
</g>
<!-- Node165 -->
<g id="node10" class="node">
<title>Node165</title>
<g id="a_node10"><a xlink:href="../../dd/d89/classqtsdl_1_1_gui_engine_impl_connection.xhtml#a838d04049e7a234096ddc630de0fee59" target="_top" xlink:title="qtsdl::GuiEngineImplConnection\l::~GuiEngineImplConnection">
<polygon fill="#ffffff" stroke="#000000" points="1104,-206 1104,-236 1261,-236 1261,-206 1104,-206"/>
<text text-anchor="start" x="1112" y="-224" font-family="Helvetica,sans-Serif" font-size="10.00" fill="#000000">qtsdl::GuiEngineImplConnection</text>
<text text-anchor="middle" x="1182.5" y="-213" font-family="Helvetica,sans-Serif" font-size="10.00" fill="#000000">::~GuiEngineImplConnection</text>
</a>
</g>
</g>
<!-- Node164&#45;&gt;Node165 -->
<g id="edge9" class="edge">
<title>Node164&#45;&gt;Node165</title>
<path fill="none" stroke="#191970" d="M1078.0225,-207.4666C1086.607,-208.5786 1095.2762,-209.7016 1103.7559,-210.8"/>
<polygon fill="#191970" stroke="#191970" points="1078.3673,-203.9821 1068.0005,-206.1685 1077.468,-210.9241 1078.3673,-203.9821"/>
</g>
<!-- Node166 -->
<g id="node11" class="node">
<title>Node166</title>
<g id="a_node11"><a xlink:href="../../dd/d89/classqtsdl_1_1_gui_engine_impl_connection.xhtml#a3de39e1c4b2cc6b97f38d9c1217d5de5" target="_top" xlink:title="qtsdl::GuiEngineImplConnection\l::operator=">
<polygon fill="#ffffff" stroke="#000000" points="1104,-157 1104,-187 1261,-187 1261,-157 1104,-157"/>
<text text-anchor="start" x="1112" y="-175" font-family="Helvetica,sans-Serif" font-size="10.00" fill="#000000">qtsdl::GuiEngineImplConnection</text>
<text text-anchor="middle" x="1182.5" y="-164" font-family="Helvetica,sans-Serif" font-size="10.00" fill="#000000">::operator=</text>
</a>
</g>
</g>
<!-- Node164&#45;&gt;Node166 -->
<g id="edge10" class="edge">
<title>Node164&#45;&gt;Node166</title>
<path fill="none" stroke="#191970" d="M1078.0225,-184.992C1086.607,-183.9245 1095.2762,-182.8465 1103.7559,-181.792"/>
<polygon fill="#191970" stroke="#191970" points="1077.4921,-181.5309 1068.0005,-186.2383 1078.356,-188.4774 1077.4921,-181.5309"/>
</g>
<!-- Node169 -->
<g id="node14" class="node">
<title>Node169</title>
<g id="a_node14"><a xlink:href="../../d3/dea/classqtsdl_1_1_recursive_directory_watcher.xhtml#a783cc986da8f9ed63ac735b00f119404" target="_top" xlink:title="qtsdl::RecursiveDirectory\lWatcher::RecursiveDirectoryWatcher">
<polygon fill="#ffffff" stroke="#000000" points="367,-126 367,-156 547,-156 547,-126 367,-126"/>
<text text-anchor="start" x="375" y="-144" font-family="Helvetica,sans-Serif" font-size="10.00" fill="#000000">qtsdl::RecursiveDirectory</text>
<text text-anchor="middle" x="457" y="-133" font-family="Helvetica,sans-Serif" font-size="10.00" fill="#000000">Watcher::RecursiveDirectoryWatcher</text>
</a>
</g>
</g>
<!-- Node168&#45;&gt;Node169 -->
<g id="edge13" class="edge">
<title>Node168&#45;&gt;Node169</title>
<path fill="none" stroke="#191970" d="M334.6767,-141C345.3578,-141 356.2336,-141 366.8737,-141"/>
<polygon fill="#191970" stroke="#191970" points="334.5097,-137.5001 324.5097,-141 334.5096,-144.5001 334.5097,-137.5001"/>
</g>
</g>
</svg>
