<?xml version="1.0" encoding="UTF-8" standalone="no"?>
<!DOCTYPE svg PUBLIC "-//W3C//DTD SVG 1.1//EN"
 "http://www.w3.org/Graphics/SVG/1.1/DTD/svg11.dtd">
<!-- Generated by graphviz version 2.40.1 (20161225.0304)
 -->
<!-- Title: openage::util::utf8_decode Pages: 1 -->
<svg width="415pt" height="39pt"
 viewBox="0.00 0.00 415.00 39.00" xmlns="http://www.w3.org/2000/svg" xmlns:xlink="http://www.w3.org/1999/xlink">
<g id="graph0" class="graph" transform="scale(1 1) rotate(0) translate(4 35)">
<title>openage::util::utf8_decode</title>
<polygon fill="#ffffff" stroke="transparent" points="-4,4 -4,-35 411,-35 411,4 -4,4"/>
<!-- Node736 -->
<g id="node1" class="node">
<title>Node736</title>
<polygon fill="#bfbfbf" stroke="#000000" points="0,-.5 0,-30.5 95,-30.5 95,-.5 0,-.5"/>
<text text-anchor="start" x="8" y="-18.5" font-family="Helvetica,sans-Serif" font-size="10.00" fill="#000000">openage::util::utf8</text>
<text text-anchor="middle" x="47.5" y="-7.5" font-family="Helvetica,sans-Serif" font-size="10.00" fill="#000000">_decode</text>
</g>
<!-- Node737 -->
<g id="node2" class="node">
<title>Node737</title>
<g id="a_node2"><a xlink:href="../../d5/d0e/namespaceopenage_1_1testing_1_1testing.xhtml#ac25bf81db406af62d08113ef7ae9fd6e" target="_top" xlink:title="openage.testing.testing.result">
<polygon fill="#ffffff" stroke="#000000" points="131,-6 131,-25 276,-25 276,-6 131,-6"/>
<text text-anchor="middle" x="203.5" y="-13" font-family="Helvetica,sans-Serif" font-size="10.00" fill="#000000">openage.testing.testing.result</text>
</a>
</g>
</g>
<!-- Node736&#45;&gt;Node737 -->
<g id="edge1" class="edge">
<title>Node736&#45;&gt;Node737</title>
<path fill="none" stroke="#191970" d="M95.1528,-15.5C103.2675,-15.5 111.9013,-15.5 120.6168,-15.5"/>
<polygon fill="#191970" stroke="#191970" points="120.8593,-19.0001 130.8592,-15.5 120.8592,-12.0001 120.8593,-19.0001"/>
</g>
<!-- Node738 -->
<g id="node3" class="node">
<title>Node738</title>
<g id="a_node3"><a xlink:href="../../de/d60/namespaceopenage_1_1util.xhtml#a7bc4421a5f0f57f3a0aba3f96eb8d19c" target="_top" xlink:title="method that behaves similar to python&#39;s &quot;repr&quot;. ">
<polygon fill="#ffffff" stroke="#000000" points="312,-6 312,-25 407,-25 407,-6 312,-6"/>
<text text-anchor="middle" x="359.5" y="-13" font-family="Helvetica,sans-Serif" font-size="10.00" fill="#000000">openage::util::repr</text>
</a>
</g>
</g>
<!-- Node737&#45;&gt;Node738 -->
<g id="edge2" class="edge">
<title>Node737&#45;&gt;Node738</title>
<path fill="none" stroke="#191970" d="M276.0196,-8.7648C284.6179,-8.7182 293.3054,-8.7815 301.6614,-8.9545"/>
<polygon fill="#191970" stroke="#191970" points="301.5718,-12.4533 311.6613,-9.2201 301.7578,-5.4558 301.5718,-12.4533"/>
</g>
<!-- Node738&#45;&gt;Node737 -->
<g id="edge3" class="edge">
<title>Node738&#45;&gt;Node737</title>
<path fill="none" stroke="#191970" d="M311.6613,-21.7799C303.5562,-22.0451 294.9375,-22.1982 286.24,-22.2389"/>
<polygon fill="#191970" stroke="#191970" points="286.021,-18.7389 276.0196,-22.2352 286.0183,-25.7389 286.021,-18.7389"/>
</g>
</g>
</svg>
