<?xml version="1.0" encoding="UTF-8" standalone="no"?>
<!DOCTYPE svg PUBLIC "-//W3C//DTD SVG 1.1//EN"
 "http://www.w3.org/Graphics/SVG/1.1/DTD/svg11.dtd">
<!-- Generated by graphviz version 2.40.1 (20161225.0304)
 -->
<!-- Title: openage::util::gl_check_error Pages: 1 -->
<svg width="419pt" height="39pt"
 viewBox="0.00 0.00 419.00 39.00" xmlns="http://www.w3.org/2000/svg" xmlns:xlink="http://www.w3.org/1999/xlink">
<g id="graph0" class="graph" transform="scale(1 1) rotate(0) translate(4 35)">
<title>openage::util::gl_check_error</title>
<polygon fill="#ffffff" stroke="transparent" points="-4,4 -4,-35 415,-35 415,4 -4,4"/>
<!-- Node183 -->
<g id="node1" class="node">
<title>Node183</title>
<polygon fill="#bfbfbf" stroke="#000000" points="0,-.5 0,-30.5 117,-30.5 117,-.5 0,-.5"/>
<text text-anchor="start" x="8" y="-18.5" font-family="Helvetica,sans-Serif" font-size="10.00" fill="#000000">openage::util::gl_check</text>
<text text-anchor="middle" x="58.5" y="-7.5" font-family="Helvetica,sans-Serif" font-size="10.00" fill="#000000">_error</text>
</g>
<!-- Node184 -->
<g id="node2" class="node">
<title>Node184</title>
<g id="a_node2"><a xlink:href="../../d6/d40/classopenage_1_1_engine.xhtml#adc80abfebed9b4f30df3de15984431e8" target="_top" xlink:title="main engine loop function. ">
<polygon fill="#ffffff" stroke="#000000" points="153,-6 153,-25 266,-25 266,-6 153,-6"/>
<text text-anchor="middle" x="209.5" y="-13" font-family="Helvetica,sans-Serif" font-size="10.00" fill="#000000">openage::Engine::loop</text>
</a>
</g>
</g>
<!-- Node183&#45;&gt;Node184 -->
<g id="edge1" class="edge">
<title>Node183&#45;&gt;Node184</title>
<path fill="none" stroke="#191970" d="M127.4767,-15.5C135.8765,-15.5 144.3848,-15.5 152.5815,-15.5"/>
<polygon fill="#191970" stroke="#191970" points="127.313,-12.0001 117.3129,-15.5 127.3129,-19.0001 127.313,-12.0001"/>
</g>
<!-- Node185 -->
<g id="node3" class="node">
<title>Node185</title>
<g id="a_node3"><a xlink:href="../../d6/d40/classopenage_1_1_engine.xhtml#a1f1b60bb90c738f6b64a6e19e49cde6d" target="_top" xlink:title="starts the engine loop. ">
<polygon fill="#ffffff" stroke="#000000" points="302,-6 302,-25 411,-25 411,-6 302,-6"/>
<text text-anchor="middle" x="356.5" y="-13" font-family="Helvetica,sans-Serif" font-size="10.00" fill="#000000">openage::Engine::run</text>
</a>
</g>
</g>
<!-- Node184&#45;&gt;Node185 -->
<g id="edge2" class="edge">
<title>Node184&#45;&gt;Node185</title>
<path fill="none" stroke="#191970" d="M276.5402,-15.5C284.9787,-15.5 293.5317,-15.5 301.7496,-15.5"/>
<polygon fill="#191970" stroke="#191970" points="276.3341,-12.0001 266.334,-15.5 276.334,-19.0001 276.3341,-12.0001"/>
</g>
</g>
</svg>
