<?xml version="1.0" encoding="UTF-8" standalone="no"?>
<!DOCTYPE svg PUBLIC "-//W3C//DTD SVG 1.1//EN"
 "http://www.w3.org/Graphics/SVG/1.1/DTD/svg11.dtd">
<!-- Generated by graphviz version 2.40.1 (20161225.0304)
 -->
<!-- Title: openage::util::addr_to_string Pages: 1 -->
<!--zoomable 212 -->
<svg id="main" version="1.1" xmlns="http://www.w3.org/2000/svg" xmlns:xlink="http://www.w3.org/1999/xlink" xml:space="preserve" onload="init(evt)">
<style type="text/css"><![CDATA[
.edge:hover path { stroke: red; }
.edge:hover polygon { stroke: red; fill: red; }
]]></style>
<script type="text/javascript"><![CDATA[
var edges = document.getElementsByTagName('g');
if (edges && edges.length) {
  for (var i=0;i<edges.length;i++) {
    if (edges[i].id.substr(0,4)=='edge') {
      edges[i].setAttribute('class','edge');
    }
  }
}
]]></script>
        <defs>
                <circle id="rim" cx="0" cy="0" r="7"/>
                <circle id="rim2" cx="0" cy="0" r="3.5"/>
                <g id="zoomPlus">
                        <use xlink:href="#rim" fill="#404040">
                                <set attributeName="fill" to="#808080" begin="zoomplus.mouseover" end="zoomplus.mouseout"/>
                        </use>
                        <path d="M-4,0h8M0,-4v8" fill="none" stroke="white" stroke-width="1.5" pointer-events="none"/>
                </g>
                <g id="zoomMin">
                        <use xlink:href="#rim" fill="#404040">
                                <set attributeName="fill" to="#808080" begin="zoomminus.mouseover" end="zoomminus.mouseout"/>
                        </use>
                        <path d="M-4,0h8" fill="none" stroke="white" stroke-width="1.5" pointer-events="none"/>
                </g>
                <g id="dirArrow">
                        <path fill="none" stroke="white" stroke-width="1.5" d="M0,-3.0v7 M-2.5,-0.5L0,-3.0L2.5,-0.5"/>
                </g>
               <g id="resetDef">
                       <use xlink:href="#rim2" fill="#404040">
                               <set attributeName="fill" to="#808080" begin="reset.mouseover" end="reset.mouseout"/>
                       </use>
               </g>
        </defs>

<script type="text/javascript">
var viewWidth = 1045;
var viewHeight = 212;
var sectionId = 'dynsection-1';
</script>
<script xlink:href="../../svgpan.js"/>
<svg id="graph" class="graph">
<g id="viewport">
<title>openage::util::addr_to_string</title>
<polygon fill="#ffffff" stroke="transparent" points="-4,4 -4,-207.5 1041,-207.5 1041,4 -4,4"/>
<!-- Node3 -->
<g id="node1" class="node">
<title>Node3</title>
<polygon fill="#bfbfbf" stroke="#000000" points="0,-90 0,-120 97,-120 97,-90 0,-90"/>
<text text-anchor="start" x="8" y="-108" font-family="Helvetica,sans-Serif" font-size="10.00" fill="#000000">openage::util::addr</text>
<text text-anchor="middle" x="48.5" y="-97" font-family="Helvetica,sans-Serif" font-size="10.00" fill="#000000">_to_string</text>
</g>
<!-- Node4 -->
<g id="node2" class="node">
<title>Node4</title>
<g id="a_node2"><a xlink:href="../../de/d60/namespaceopenage_1_1util.xhtml#aff957b2c0c7a7eb98cf68468cc04c1d8" target="_top" xlink:title="Returns the (demangled) symbol name for a given address. ">
<polygon fill="#ffffff" stroke="#000000" points="133,-95.5 133,-114.5 272,-114.5 272,-95.5 133,-95.5"/>
<text text-anchor="middle" x="202.5" y="-102.5" font-family="Helvetica,sans-Serif" font-size="10.00" fill="#000000">openage::util::symbol_name</text>
</a>
</g>
</g>
<!-- Node3&#45;&gt;Node4 -->
<g id="edge1" class="edge">
<title>Node3&#45;&gt;Node4</title>
<path fill="none" stroke="#191970" d="M107.2945,-105C115.697,-105 124.4063,-105 132.9902,-105"/>
<polygon fill="#191970" stroke="#191970" points="107.2266,-101.5001 97.2266,-105 107.2265,-108.5001 107.2266,-101.5001"/>
</g>
<!-- Node5 -->
<g id="node3" class="node">
<title>Node5</title>
<g id="a_node3"><a xlink:href="../../da/d79/classopenage_1_1error_1_1_stack_analyzer.xhtml#ab807f0825ce961e84c901c715cc79976" target="_top" xlink:title="Returns (via the callback) symbolic names for all stack frames, to its best knowledge. ">
<polygon fill="#ffffff" stroke="#000000" points="309.5,-173 309.5,-203 458.5,-203 458.5,-173 309.5,-173"/>
<text text-anchor="start" x="317.5" y="-191" font-family="Helvetica,sans-Serif" font-size="10.00" fill="#000000">openage::error::StackAnalyzer</text>
<text text-anchor="middle" x="384" y="-180" font-family="Helvetica,sans-Serif" font-size="10.00" fill="#000000">::get_symbols</text>
</a>
</g>
</g>
<!-- Node4&#45;&gt;Node5 -->
<g id="edge2" class="edge">
<title>Node4&#45;&gt;Node5</title>
<path fill="none" stroke="#191970" d="M226.3412,-119.7728C247.315,-132.36 278.9482,-150.3653 308,-163 316.152,-166.5453 324.978,-169.8805 333.6315,-172.889"/>
<polygon fill="#191970" stroke="#191970" points="228.1384,-116.7694 217.7732,-114.5757 224.508,-122.7545 228.1384,-116.7694"/>
</g>
<!-- Node6 -->
<g id="node4" class="node">
<title>Node6</title>
<g id="a_node4"><a xlink:href="../../d0/d44/classopenage_1_1pyinterface_1_1_func.xhtml#a83b9691db46167c2637c86f5a71cb40f" target="_top" xlink:title="raises an Error if this&#45;&gt;fptr is still uninitialized. ">
<polygon fill="#ffffff" stroke="#000000" points="308,-112.5 308,-153.5 460,-153.5 460,-112.5 308,-112.5"/>
<text text-anchor="start" x="316" y="-141.5" font-family="Helvetica,sans-Serif" font-size="10.00" fill="#000000">openage::pyinterface</text>
<text text-anchor="start" x="316" y="-130.5" font-family="Helvetica,sans-Serif" font-size="10.00" fill="#000000">::Func&lt; ReturnType, ArgTypes</text>
<text text-anchor="middle" x="384" y="-119.5" font-family="Helvetica,sans-Serif" font-size="10.00" fill="#000000"> ... &gt;::check_fptr</text>
</a>
</g>
</g>
<!-- Node4&#45;&gt;Node6 -->
<g id="edge3" class="edge">
<title>Node4&#45;&gt;Node6</title>
<path fill="none" stroke="#191970" d="M274.1777,-116.0577C285.1828,-117.7555 296.5797,-119.5137 307.681,-121.2263"/>
<polygon fill="#191970" stroke="#191970" points="274.6176,-112.5843 264.2009,-114.5186 273.5503,-119.5024 274.6176,-112.5843"/>
</g>
<!-- Node7 -->
<g id="node5" class="node">
<title>Node7</title>
<g id="a_node5"><a xlink:href="../../d9/dde/namespaceopenage_1_1pyinterface.xhtml#a591d9bd55fa1f9904547f3f2dcb3796d" target="_top" xlink:title="Adds a Python interface component. ">
<polygon fill="#ffffff" stroke="#000000" points="325,-63 325,-93 443,-93 443,-63 325,-63"/>
<text text-anchor="start" x="333" y="-81" font-family="Helvetica,sans-Serif" font-size="10.00" fill="#000000">openage::pyinterface</text>
<text text-anchor="middle" x="384" y="-70" font-family="Helvetica,sans-Serif" font-size="10.00" fill="#000000">::add_py_if_component</text>
</a>
</g>
</g>
<!-- Node4&#45;&gt;Node7 -->
<g id="edge4" class="edge">
<title>Node4&#45;&gt;Node7</title>
<path fill="none" stroke="#191970" d="M276.4113,-94.0049C292.5284,-91.6073 309.3799,-89.1005 324.835,-86.8014"/>
<polygon fill="#191970" stroke="#191970" points="275.8662,-90.5474 266.4901,-95.4808 276.8963,-97.4712 275.8662,-90.5474"/>
</g>
<!-- Node9 -->
<g id="node7" class="node">
<title>Node9</title>
<g id="a_node7"><a xlink:href="../../d9/dde/namespaceopenage_1_1pyinterface.xhtml#a7c3f96bce0d4711ba04a941b5c460b17" target="_top" xlink:title="Checks whether all objects that have been registered via add_py_if_component have been properly initi...">
<polygon fill="#ffffff" stroke="#000000" points="330.5,-14 330.5,-44 437.5,-44 437.5,-14 330.5,-14"/>
<text text-anchor="start" x="338.5" y="-32" font-family="Helvetica,sans-Serif" font-size="10.00" fill="#000000">openage::pyinterface</text>
<text text-anchor="middle" x="384" y="-21" font-family="Helvetica,sans-Serif" font-size="10.00" fill="#000000">::check</text>
</a>
</g>
</g>
<!-- Node4&#45;&gt;Node9 -->
<g id="edge6" class="edge">
<title>Node4&#45;&gt;Node9</title>
<path fill="none" stroke="#191970" d="M229.4558,-90.7435C250.5114,-79.9091 280.6841,-65.0386 308,-54 316.6284,-50.5132 325.9461,-47.1391 335.0013,-44.0575"/>
<polygon fill="#191970" stroke="#191970" points="227.7296,-87.696 220.4661,-95.4092 230.9542,-93.9091 227.7296,-87.696"/>
</g>
<!-- Node8 -->
<g id="node6" class="node">
<title>Node8</title>
<g id="a_node6"><a xlink:href="../../d2/d29/classopenage_1_1pyinterface_1_1_py_if_func.xhtml#a151c2faee8d91169645204f1eb3a6a22" target="_top" xlink:title="openage::pyinterface\l::PyIfFunc::PyIfFunc">
<polygon fill="#ffffff" stroke="#000000" points="524,-63 524,-93 632,-93 632,-63 524,-63"/>
<text text-anchor="start" x="532" y="-81" font-family="Helvetica,sans-Serif" font-size="10.00" fill="#000000">openage::pyinterface</text>
<text text-anchor="middle" x="578" y="-70" font-family="Helvetica,sans-Serif" font-size="10.00" fill="#000000">::PyIfFunc::PyIfFunc</text>
</a>
</g>
</g>
<!-- Node7&#45;&gt;Node8 -->
<g id="edge5" class="edge">
<title>Node7&#45;&gt;Node8</title>
<path fill="none" stroke="#191970" d="M453.3601,-78C476.4914,-78 501.9106,-78 523.7264,-78"/>
<polygon fill="#191970" stroke="#191970" points="453.2606,-74.5001 443.2605,-78 453.2605,-81.5001 453.2606,-74.5001"/>
</g>
<!-- Node10 -->
<g id="node8" class="node">
<title>Node10</title>
<g id="a_node8"><a xlink:href="../../d8/de6/namespaceopenage_1_1cppinterface_1_1setup.xhtml#ae1c256c521da867c4f2ee7e9a7460ad3" target="_top" xlink:title="After a call to setup(), the C++ interface is in a usable state. ">
<polygon fill="#ffffff" stroke="#000000" points="496,-19.5 496,-38.5 660,-38.5 660,-19.5 496,-19.5"/>
<text text-anchor="middle" x="578" y="-26.5" font-family="Helvetica,sans-Serif" font-size="10.00" fill="#000000">openage.cppinterface.setup.setup</text>
</a>
</g>
</g>
<!-- Node9&#45;&gt;Node10 -->
<g id="edge7" class="edge">
<title>Node9&#45;&gt;Node10</title>
<path fill="none" stroke="#191970" d="M447.9269,-29C463.2736,-29 479.8751,-29 495.9188,-29"/>
<polygon fill="#191970" stroke="#191970" points="447.5249,-25.5001 437.5249,-29 447.5249,-32.5001 447.5249,-25.5001"/>
</g>
<!-- Node11 -->
<g id="node9" class="node">
<title>Node11</title>
<g id="a_node9"><a xlink:href="../../d6/d02/namespaceopenage_1_1convert_1_1main.xhtml#ab4e998cdda52db3b3cae6efbcd2eda23" target="_top" xlink:title="CLI entry point. ">
<polygon fill="#ffffff" stroke="#000000" points="713,-38.5 713,-57.5 850,-57.5 850,-38.5 713,-38.5"/>
<text text-anchor="middle" x="781.5" y="-45.5" font-family="Helvetica,sans-Serif" font-size="10.00" fill="#000000">openage.convert.main.main</text>
</a>
</g>
</g>
<!-- Node10&#45;&gt;Node11 -->
<g id="edge8" class="edge">
<title>Node10&#45;&gt;Node11</title>
<path fill="none" stroke="#191970" d="M670.472,-37.6338C684.6811,-38.9604 699.1334,-40.3098 712.7084,-41.5772"/>
<polygon fill="#191970" stroke="#191970" points="670.4668,-34.1181 660.1847,-36.6733 669.816,-41.0878 670.4668,-34.1181"/>
</g>
<!-- Node12 -->
<g id="node10" class="node">
<title>Node12</title>
<g id="a_node10"><a xlink:href="../../d7/d35/namespaceopenage_1_1testing_1_1main.xhtml#a346b6762051aaadb5cc302e1adbf5f1e" target="_top" xlink:title="Processes the given args, detecting errors. ">
<polygon fill="#ffffff" stroke="#000000" points="696,-.5 696,-19.5 867,-19.5 867,-.5 696,-.5"/>
<text text-anchor="middle" x="781.5" y="-7.5" font-family="Helvetica,sans-Serif" font-size="10.00" fill="#000000">openage.testing.main.process_args</text>
</a>
</g>
</g>
<!-- Node10&#45;&gt;Node12 -->
<g id="edge9" class="edge">
<title>Node10&#45;&gt;Node12</title>
<path fill="none" stroke="#191970" d="M670.3987,-20.3731C678.8202,-19.5868 687.3279,-18.7925 695.6884,-18.0119"/>
<polygon fill="#191970" stroke="#191970" points="669.816,-16.9122 660.1847,-21.3267 670.4668,-23.8819 669.816,-16.9122"/>
</g>
<!-- Node13 -->
<g id="node11" class="node">
<title>Node13</title>
<g id="a_node11"><a xlink:href="../../d7/d35/namespaceopenage_1_1testing_1_1main.xhtml#a22daa2dd4990bc8d016d850a9d9fc5fb" target="_top" xlink:title="CLI main method. ">
<polygon fill="#ffffff" stroke="#000000" points="903,-.5 903,-19.5 1037,-19.5 1037,-.5 903,-.5"/>
<text text-anchor="middle" x="970" y="-7.5" font-family="Helvetica,sans-Serif" font-size="10.00" fill="#000000">openage.testing.main.main</text>
</a>
</g>
</g>
<!-- Node12&#45;&gt;Node13 -->
<g id="edge10" class="edge">
<title>Node12&#45;&gt;Node13</title>
<path fill="none" stroke="#191970" d="M877.3206,-10C885.9492,-10 894.5603,-10 902.8644,-10"/>
<polygon fill="#191970" stroke="#191970" points="877.2007,-6.5001 867.2006,-10 877.2006,-13.5001 877.2007,-6.5001"/>
</g>
</g>
</svg>
        <g id="navigator" transform="translate(0 0)" fill="#404254">
                <rect fill="#f2f5e9" fill-opacity="0.5" stroke="#606060" stroke-width=".5" x="0" y="0" width="60" height="60"/>
                <use id="zoomplus" xlink:href="#zoomPlus" x="17" y="9" onmousedown="handleZoom(evt,'in')"/>
                <use id="zoomminus" xlink:href="#zoomMin" x="42" y="9" onmousedown="handleZoom(evt,'out')"/>
                <use id="reset" xlink:href="#resetDef" x="30" y="36" onmousedown="handleReset()"/>
                <g id="arrowUp" xlink:href="#dirArrow" transform="translate(30 24)" onmousedown="handlePan(0,-1)">
                  <use xlink:href="#rim" fill="#404040">
                        <set attributeName="fill" to="#808080" begin="arrowUp.mouseover" end="arrowUp.mouseout"/>
                  </use>
                  <path fill="none" stroke="white" stroke-width="1.5" d="M0,-3.0v7 M-2.5,-0.5L0,-3.0L2.5,-0.5"/>
                </g>
                <g id="arrowRight" xlink:href="#dirArrow" transform="rotate(90) translate(36 -43)" onmousedown="handlePan(1,0)">
                  <use xlink:href="#rim" fill="#404040">
                        <set attributeName="fill" to="#808080" begin="arrowRight.mouseover" end="arrowRight.mouseout"/>
                  </use>
                  <path fill="none" stroke="white" stroke-width="1.5" d="M0,-3.0v7 M-2.5,-0.5L0,-3.0L2.5,-0.5"/>
                </g>
                <g id="arrowDown" xlink:href="#dirArrow" transform="rotate(180) translate(-30 -48)" onmousedown="handlePan(0,1)">
                  <use xlink:href="#rim" fill="#404040">
                        <set attributeName="fill" to="#808080" begin="arrowDown.mouseover" end="arrowDown.mouseout"/>
                  </use>
                  <path fill="none" stroke="white" stroke-width="1.5" d="M0,-3.0v7 M-2.5,-0.5L0,-3.0L2.5,-0.5"/>
                </g>
                <g id="arrowLeft" xlink:href="#dirArrow" transform="rotate(270) translate(-36 17)" onmousedown="handlePan(-1,0)">
                  <use xlink:href="#rim" fill="#404040">
                        <set attributeName="fill" to="#808080" begin="arrowLeft.mouseover" end="arrowLeft.mouseout"/>
                  </use>
                  <path fill="none" stroke="white" stroke-width="1.5" d="M0,-3.0v7 M-2.5,-0.5L0,-3.0L2.5,-0.5"/>
                </g>
        </g>
        <svg viewBox="0 0 15 15" width="100%" height="30px" preserveAspectRatio="xMaxYMin meet">
         <g id="arrow_out" transform="scale(0.3 0.3)">
          <a xlink:href="namespaceopenage_1_1util_abe26c67b0463cb53c33b0659ebb89370_icgraph_org.svg" target="_base">
           <rect id="button" ry="5" rx="5" y="6" x="6" height="38" width="38"
                fill="#f2f5e9" fill-opacity="0.5" stroke="#606060" stroke-width="1.0"/>
           <path id="arrow"
             d="M 11.500037,31.436501 C 11.940474,20.09759 22.043105,11.32322 32.158766,21.979434 L 37.068811,17.246167 C 37.068811,17.246167 37.088388,32 37.088388,32 L 22.160133,31.978069 C 22.160133,31.978069 26.997745,27.140456 26.997745,27.140456 C 18.528582,18.264221 13.291696,25.230495 11.500037,31.436501 z"
             style="fill:#404040;"/>
          </a>
         </g>
        </svg>
</svg>
