<?xml version="1.0" encoding="UTF-8" standalone="no"?>
<!DOCTYPE svg PUBLIC "-//W3C//DTD SVG 1.1//EN"
 "http://www.w3.org/Graphics/SVG/1.1/DTD/svg11.dtd">
<!-- Generated by graphviz version 2.40.1 (20161225.0304)
 -->
<!-- Title: openage::util::operator/ Pages: 1 -->
<svg width="285pt" height="127pt"
 viewBox="0.00 0.00 285.00 126.50" xmlns="http://www.w3.org/2000/svg" xmlns:xlink="http://www.w3.org/1999/xlink">
<g id="graph0" class="graph" transform="scale(1 1) rotate(0) translate(4 122.5)">
<title>openage::util::operator/</title>
<polygon fill="#ffffff" stroke="transparent" points="-4,4 -4,-122.5 281,-122.5 281,4 -4,4"/>
<!-- Node294 -->
<g id="node1" class="node">
<title>Node294</title>
<polygon fill="#bfbfbf" stroke="#000000" points="0,-55 0,-74 116,-74 116,-55 0,-55"/>
<text text-anchor="middle" x="58" y="-62" font-family="Helvetica,sans-Serif" font-size="10.00" fill="#000000">openage::util::operator/</text>
</g>
<!-- Node295 -->
<g id="node2" class="node">
<title>Node295</title>
<g id="a_node2"><a xlink:href="../../de/d60/namespaceopenage_1_1util.xhtml#a34ba6f7abd32acb48dfc6ad6efdc1bc8" target="_top" xlink:title="implements the &#39;correct&#39; version of the division operator, which always rounds to &#45;inf ...">
<polygon fill="#ffffff" stroke="#000000" points="169,-99 169,-118 260,-118 260,-99 169,-99"/>
<text text-anchor="middle" x="214.5" y="-106" font-family="Helvetica,sans-Serif" font-size="10.00" fill="#000000">openage::util::div</text>
</a>
</g>
</g>
<!-- Node294&#45;&gt;Node295 -->
<g id="edge1" class="edge">
<title>Node294&#45;&gt;Node295</title>
<path fill="none" stroke="#191970" d="M91.9582,-74.0473C115.0297,-80.5339 145.761,-89.174 170.6762,-96.1789"/>
<polygon fill="#191970" stroke="#191970" points="170.034,-99.634 180.6081,-98.9713 171.9287,-92.8953 170.034,-99.634"/>
</g>
<!-- Node296 -->
<g id="node3" class="node">
<title>Node296</title>
<g id="a_node3"><a xlink:href="../../dc/d65/classopenage_1_1util_1_1_fixed_point.xhtml#aa01c403263c2142c0ce9ce40cde89066" target="_top" xlink:title="Factory function to construct a fixed&#45;point number with a given raw value. ">
<polygon fill="#ffffff" stroke="#000000" points="152,-49.5 152,-79.5 277,-79.5 277,-49.5 152,-49.5"/>
<text text-anchor="start" x="160" y="-67.5" font-family="Helvetica,sans-Serif" font-size="10.00" fill="#000000">openage::util::FixedPoint</text>
<text text-anchor="middle" x="214.5" y="-56.5" font-family="Helvetica,sans-Serif" font-size="10.00" fill="#000000">::from_raw_value</text>
</a>
</g>
</g>
<!-- Node294&#45;&gt;Node296 -->
<g id="edge2" class="edge">
<title>Node294&#45;&gt;Node296</title>
<path fill="none" stroke="#191970" d="M116.2748,-64.5C124.6448,-64.5 133.3416,-64.5 141.946,-64.5"/>
<polygon fill="#191970" stroke="#191970" points="141.9794,-68.0001 151.9794,-64.5 141.9794,-61.0001 141.9794,-68.0001"/>
</g>
<!-- Node297 -->
<g id="node4" class="node">
<title>Node297</title>
<g id="a_node4"><a xlink:href="../../dc/d65/classopenage_1_1util_1_1_fixed_point.xhtml#affe7a3ec44c6f7ac96312875af742f87" target="_top" xlink:title="Converter to retrieve the raw value of the fixed&#45;point number. ">
<polygon fill="#ffffff" stroke="#000000" points="152,-.5 152,-30.5 277,-30.5 277,-.5 152,-.5"/>
<text text-anchor="start" x="160" y="-18.5" font-family="Helvetica,sans-Serif" font-size="10.00" fill="#000000">openage::util::FixedPoint</text>
<text text-anchor="middle" x="214.5" y="-7.5" font-family="Helvetica,sans-Serif" font-size="10.00" fill="#000000">::get_raw_value</text>
</a>
</g>
</g>
<!-- Node294&#45;&gt;Node297 -->
<g id="edge3" class="edge">
<title>Node294&#45;&gt;Node297</title>
<path fill="none" stroke="#191970" d="M88.5463,-54.936C107.9271,-48.8679 133.6213,-40.823 156.7463,-33.5826"/>
<polygon fill="#191970" stroke="#191970" points="157.9764,-36.8651 166.4738,-30.537 155.8848,-30.1849 157.9764,-36.8651"/>
</g>
</g>
</svg>
