<?xml version="1.0" encoding="UTF-8" standalone="no"?>
<!DOCTYPE svg PUBLIC "-//W3C//DTD SVG 1.1//EN"
 "http://www.w3.org/Graphics/SVG/1.1/DTD/svg11.dtd">
<!-- Generated by graphviz version 2.40.1 (20161225.0304)
 -->
<!-- Title: openage::util::hash Pages: 1 -->
<!--zoomable 443 -->
<svg id="main" version="1.1" xmlns="http://www.w3.org/2000/svg" xmlns:xlink="http://www.w3.org/1999/xlink" xml:space="preserve" onload="init(evt)">
<style type="text/css"><![CDATA[
.edge:hover path { stroke: red; }
.edge:hover polygon { stroke: red; fill: red; }
]]></style>
<script type="text/javascript"><![CDATA[
var edges = document.getElementsByTagName('g');
if (edges && edges.length) {
  for (var i=0;i<edges.length;i++) {
    if (edges[i].id.substr(0,4)=='edge') {
      edges[i].setAttribute('class','edge');
    }
  }
}
]]></script>
        <defs>
                <circle id="rim" cx="0" cy="0" r="7"/>
                <circle id="rim2" cx="0" cy="0" r="3.5"/>
                <g id="zoomPlus">
                        <use xlink:href="#rim" fill="#404040">
                                <set attributeName="fill" to="#808080" begin="zoomplus.mouseover" end="zoomplus.mouseout"/>
                        </use>
                        <path d="M-4,0h8M0,-4v8" fill="none" stroke="white" stroke-width="1.5" pointer-events="none"/>
                </g>
                <g id="zoomMin">
                        <use xlink:href="#rim" fill="#404040">
                                <set attributeName="fill" to="#808080" begin="zoomminus.mouseover" end="zoomminus.mouseout"/>
                        </use>
                        <path d="M-4,0h8" fill="none" stroke="white" stroke-width="1.5" pointer-events="none"/>
                </g>
                <g id="dirArrow">
                        <path fill="none" stroke="white" stroke-width="1.5" d="M0,-3.0v7 M-2.5,-0.5L0,-3.0L2.5,-0.5"/>
                </g>
               <g id="resetDef">
                       <use xlink:href="#rim2" fill="#404040">
                               <set attributeName="fill" to="#808080" begin="reset.mouseover" end="reset.mouseout"/>
                       </use>
               </g>
        </defs>

<script type="text/javascript">
var viewWidth = 617;
var viewHeight = 443;
var sectionId = 'dynsection-22';
</script>
<script xlink:href="../../svgpan.js"/>
<svg id="graph" class="graph">
<g id="viewport">
<title>openage::util::hash</title>
<polygon fill="#ffffff" stroke="transparent" points="-4,4 -4,-439 613,-439 613,4 -4,4"/>
<!-- Node191 -->
<g id="node1" class="node">
<title>Node191</title>
<polygon fill="#bfbfbf" stroke="#000000" points="0,-214 0,-233 99,-233 99,-214 0,-214"/>
<text text-anchor="middle" x="49.5" y="-221" font-family="Helvetica,sans-Serif" font-size="10.00" fill="#000000">openage::util::hash</text>
</g>
<!-- Node192 -->
<g id="node2" class="node">
<title>Node192</title>
<g id="a_node2"><a xlink:href="../../db/d32/classopenage_1_1convert_1_1dataformat_1_1header__snippet_1_1_header_snippet.xhtml#a3eb4f0dc98dbea6b9b2bbbcf3b2ac03c" target="_top" xlink:title="openage.convert.dataformat.header\l_snippet.HeaderSnippet.__hash__">
<polygon fill="#ffffff" stroke="#000000" points="136.5,-404.5 136.5,-434.5 306.5,-434.5 306.5,-404.5 136.5,-404.5"/>
<text text-anchor="start" x="144.5" y="-422.5" font-family="Helvetica,sans-Serif" font-size="10.00" fill="#000000">openage.convert.dataformat.header</text>
<text text-anchor="middle" x="221.5" y="-411.5" font-family="Helvetica,sans-Serif" font-size="10.00" fill="#000000">_snippet.HeaderSnippet.__hash__</text>
</a>
</g>
</g>
<!-- Node191&#45;&gt;Node192 -->
<g id="edge1" class="edge">
<title>Node191&#45;&gt;Node192</title>
<path fill="none" stroke="#191970" d="M53.6964,-243.126C62.3893,-278.9298 85.8034,-354.8911 135,-395.5 139.2066,-398.9723 143.8799,-401.9438 148.8135,-404.4865"/>
<polygon fill="#191970" stroke="#191970" points="57.023,-241.9734 51.3772,-233.0082 50.2,-243.5374 57.023,-241.9734"/>
</g>
<!-- Node193 -->
<g id="node3" class="node">
<title>Node193</title>
<g id="a_node3"><a xlink:href="../../d1/d46/classopenage_1_1convert_1_1dataformat_1_1struct__snippet_1_1_struct_snippet.xhtml#a9e739fd9d74f6571c56fea8df3f70e76" target="_top" xlink:title="openage.convert.dataformat.struct\l_snippet.StructSnippet.__hash__">
<polygon fill="#ffffff" stroke="#000000" points="138.5,-355.5 138.5,-385.5 304.5,-385.5 304.5,-355.5 138.5,-355.5"/>
<text text-anchor="start" x="146.5" y="-373.5" font-family="Helvetica,sans-Serif" font-size="10.00" fill="#000000">openage.convert.dataformat.struct</text>
<text text-anchor="middle" x="221.5" y="-362.5" font-family="Helvetica,sans-Serif" font-size="10.00" fill="#000000">_snippet.StructSnippet.__hash__</text>
</a>
</g>
</g>
<!-- Node191&#45;&gt;Node193 -->
<g id="edge2" class="edge">
<title>Node191&#45;&gt;Node193</title>
<path fill="none" stroke="#191970" d="M57.5365,-242.422C70.0593,-269.6069 96.8187,-319.4146 135,-346.5 139.8302,-349.9265 145.1324,-352.8646 150.66,-355.3837"/>
<polygon fill="#191970" stroke="#191970" points="60.6999,-240.9218 53.4399,-233.2054 54.3033,-243.765 60.6999,-240.9218"/>
</g>
<!-- Node194 -->
<g id="node4" class="node">
<title>Node194</title>
<g id="a_node4"><a xlink:href="../../d3/d4a/classopenage_1_1convert_1_1dataformat_1_1content__snippet_1_1_content_snippet.xhtml#aac51f2cc25a8fd6dd2949923bd704169" target="_top" xlink:title="hash all relevant snippet properties ">
<polygon fill="#ffffff" stroke="#000000" points="135,-306.5 135,-336.5 308,-336.5 308,-306.5 135,-306.5"/>
<text text-anchor="start" x="143" y="-324.5" font-family="Helvetica,sans-Serif" font-size="10.00" fill="#000000">openage.convert.dataformat.content</text>
<text text-anchor="middle" x="221.5" y="-313.5" font-family="Helvetica,sans-Serif" font-size="10.00" fill="#000000">_snippet.ContentSnippet.__hash__</text>
</a>
</g>
</g>
<!-- Node191&#45;&gt;Node194 -->
<g id="edge3" class="edge">
<title>Node191&#45;&gt;Node194</title>
<path fill="none" stroke="#191970" d="M64.9203,-240.7032C80.8903,-257.5139 107.343,-282.6757 135,-297.5 141.3185,-300.8868 148.1592,-303.8313 155.1304,-306.3832"/>
<polygon fill="#191970" stroke="#191970" points="67.3302,-238.1546 57.9633,-233.2035 62.1982,-242.9152 67.3302,-238.1546"/>
</g>
<!-- Node195 -->
<g id="node5" class="node">
<title>Node195</title>
<g id="a_node5"><a xlink:href="../../dd/db2/classopenage_1_1util_1_1_siphash.xhtml#a59bdccc7e794fe057e4777031a177650" target="_top" xlink:title="Hashes the input data as uint8_t array and returns the result. ">
<polygon fill="#ffffff" stroke="#000000" points="165,-257.5 165,-287.5 278,-287.5 278,-257.5 165,-257.5"/>
<text text-anchor="start" x="173" y="-275.5" font-family="Helvetica,sans-Serif" font-size="10.00" fill="#000000">openage::util::Siphash</text>
<text text-anchor="middle" x="221.5" y="-264.5" font-family="Helvetica,sans-Serif" font-size="10.00" fill="#000000">::digest</text>
</a>
</g>
</g>
<!-- Node191&#45;&gt;Node195 -->
<g id="edge4" class="edge">
<title>Node191&#45;&gt;Node195</title>
<path fill="none" stroke="#191970" d="M92.9062,-235.8657C115.9358,-242.4265 144.4169,-250.5403 168.7172,-257.463"/>
<polygon fill="#191970" stroke="#191970" points="93.648,-232.4378 83.0716,-233.064 91.73,-239.17 93.648,-232.4378"/>
</g>
<!-- Node198 -->
<g id="node8" class="node">
<title>Node198</title>
<g id="a_node8"><a xlink:href="../../d4/d54/classopenage_1_1renderer_1_1_glyph_atlas.xhtml#a936adb09a68c1fc46e9572cd2866d961" target="_top" xlink:title="openage::renderer::\lGlyphAtlas::get_cache_key">
<polygon fill="#ffffff" stroke="#000000" points="153,-208.5 153,-238.5 290,-238.5 290,-208.5 153,-208.5"/>
<text text-anchor="start" x="161" y="-226.5" font-family="Helvetica,sans-Serif" font-size="10.00" fill="#000000">openage::renderer::</text>
<text text-anchor="middle" x="221.5" y="-215.5" font-family="Helvetica,sans-Serif" font-size="10.00" fill="#000000">GlyphAtlas::get_cache_key</text>
</a>
</g>
</g>
<!-- Node191&#45;&gt;Node198 -->
<g id="edge8" class="edge">
<title>Node191&#45;&gt;Node198</title>
<path fill="none" stroke="#191970" d="M109.307,-223.5C123.4051,-223.5 138.5415,-223.5 152.9901,-223.5"/>
<polygon fill="#191970" stroke="#191970" points="109.2496,-220.0001 99.2495,-223.5 109.2495,-227.0001 109.2496,-220.0001"/>
</g>
<!-- Node201 -->
<g id="node11" class="node">
<title>Node201</title>
<g id="a_node11"><a xlink:href="../../d2/dde/structstd_1_1hash_3_01openage_1_1coord_1_1tile_01_4.xhtml#a2fec981b71cc0384f2ac435f404b310c" target="_top" xlink:title="std::hash\&lt; openage\l::coord::tile \&gt;::operator()">
<polygon fill="#ffffff" stroke="#000000" points="160.5,-159.5 160.5,-189.5 282.5,-189.5 282.5,-159.5 160.5,-159.5"/>
<text text-anchor="start" x="168.5" y="-177.5" font-family="Helvetica,sans-Serif" font-size="10.00" fill="#000000">std::hash&lt; openage</text>
<text text-anchor="middle" x="221.5" y="-166.5" font-family="Helvetica,sans-Serif" font-size="10.00" fill="#000000">::coord::tile &gt;::operator()</text>
</a>
</g>
</g>
<!-- Node191&#45;&gt;Node201 -->
<g id="edge11" class="edge">
<title>Node191&#45;&gt;Node201</title>
<path fill="none" stroke="#191970" d="M91.6705,-211.0439C105.4684,-207.002 120.8773,-202.5237 135,-198.5 145.192,-195.5962 156.0726,-192.5416 166.557,-189.6214"/>
<polygon fill="#191970" stroke="#191970" points="90.559,-207.7225 81.9496,-213.8973 92.5306,-214.4391 90.559,-207.7225"/>
</g>
<!-- Node202 -->
<g id="node12" class="node">
<title>Node202</title>
<g id="a_node12"><a xlink:href="../../d6/df6/structstd_1_1hash_3_01openage_1_1coord_1_1phys3_01_4.xhtml#af680679a5d1eeeeb4e6b1226d60c9140" target="_top" xlink:title="std::hash\&lt; openage\l::coord::phys3 \&gt;::operator()">
<polygon fill="#ffffff" stroke="#000000" points="154,-110.5 154,-140.5 289,-140.5 289,-110.5 154,-110.5"/>
<text text-anchor="start" x="162" y="-128.5" font-family="Helvetica,sans-Serif" font-size="10.00" fill="#000000">std::hash&lt; openage</text>
<text text-anchor="middle" x="221.5" y="-117.5" font-family="Helvetica,sans-Serif" font-size="10.00" fill="#000000">::coord::phys3 &gt;::operator()</text>
</a>
</g>
</g>
<!-- Node191&#45;&gt;Node202 -->
<g id="edge12" class="edge">
<title>Node191&#45;&gt;Node202</title>
<path fill="none" stroke="#191970" d="M64.9203,-206.2968C80.8903,-189.4861 107.343,-164.3243 135,-149.5 141.3185,-146.1132 148.1592,-143.1687 155.1304,-140.6168"/>
<polygon fill="#191970" stroke="#191970" points="62.1982,-204.0848 57.9633,-213.7965 67.3302,-208.8454 62.1982,-204.0848"/>
</g>
<!-- Node203 -->
<g id="node13" class="node">
<title>Node203</title>
<g id="a_node13"><a xlink:href="../../d3/dfb/structstd_1_1hash_3_01openage_1_1renderer_1_1font__description_01_4.xhtml#a69356bbc9713e82eb3c678c45181c760" target="_top" xlink:title="std::hash\&lt; openage\l::renderer::font_description\l \&gt;::operator()">
<polygon fill="#ffffff" stroke="#000000" points="155,-50 155,-91 288,-91 288,-50 155,-50"/>
<text text-anchor="start" x="163" y="-79" font-family="Helvetica,sans-Serif" font-size="10.00" fill="#000000">std::hash&lt; openage</text>
<text text-anchor="start" x="163" y="-68" font-family="Helvetica,sans-Serif" font-size="10.00" fill="#000000">::renderer::font_description</text>
<text text-anchor="middle" x="221.5" y="-57" font-family="Helvetica,sans-Serif" font-size="10.00" fill="#000000"> &gt;::operator()</text>
</a>
</g>
</g>
<!-- Node191&#45;&gt;Node203 -->
<g id="edge13" class="edge">
<title>Node191&#45;&gt;Node203</title>
<path fill="none" stroke="#191970" d="M57.9379,-204.5379C70.8177,-177.667 97.8578,-128.6535 135,-100.5 140.9536,-95.9872 147.6367,-92.1203 154.5808,-88.8142"/>
<polygon fill="#191970" stroke="#191970" points="54.597,-203.4229 53.5667,-213.9676 60.9478,-206.3669 54.597,-203.4229"/>
</g>
<!-- Node204 -->
<g id="node14" class="node">
<title>Node204</title>
<g id="a_node14"><a xlink:href="../../dd/d63/structstd_1_1hash_3_01openage_1_1path_1_1_node_01_6_01_4.xhtml#a82c375ba3d6cda6123b93c89890b5af1" target="_top" xlink:title="std::hash\&lt; openage\l::path::Node &amp; \&gt;::operator()">
<polygon fill="#ffffff" stroke="#000000" points="153,-.5 153,-30.5 290,-30.5 290,-.5 153,-.5"/>
<text text-anchor="start" x="161" y="-18.5" font-family="Helvetica,sans-Serif" font-size="10.00" fill="#000000">std::hash&lt; openage</text>
<text text-anchor="middle" x="221.5" y="-7.5" font-family="Helvetica,sans-Serif" font-size="10.00" fill="#000000">::path::Node &amp; &gt;::operator()</text>
</a>
</g>
</g>
<!-- Node191&#45;&gt;Node204 -->
<g id="edge14" class="edge">
<title>Node191&#45;&gt;Node204</title>
<path fill="none" stroke="#191970" d="M53.1368,-203.7168C61.0812,-166.1901 83.5571,-84.4967 135,-40.5 140.3459,-35.9279 146.4852,-32.1907 152.9737,-29.1362"/>
<polygon fill="#191970" stroke="#191970" points="49.6385,-203.3639 51.1218,-213.8544 56.5042,-204.7286 49.6385,-203.3639"/>
</g>
<!-- Node196 -->
<g id="node6" class="node">
<title>Node196</title>
<g id="a_node6"><a xlink:href="../../da/daa/classopenage_1_1rng_1_1_r_n_g.xhtml#a196e215960939e55ac626c9c75a451e0" target="_top" xlink:title="Initializes the rng using bits from the buffer pointed to by data. ">
<polygon fill="#ffffff" stroke="#000000" points="481,-285 481,-304 609,-304 609,-285 481,-285"/>
<text text-anchor="middle" x="545" y="-292" font-family="Helvetica,sans-Serif" font-size="10.00" fill="#000000">openage::rng::RNG::seed</text>
</a>
</g>
</g>
<!-- Node195&#45;&gt;Node196 -->
<g id="edge5" class="edge">
<title>Node195&#45;&gt;Node196</title>
<path fill="none" stroke="#191970" d="M288.0119,-288.6066C306.0659,-292.2832 325.6874,-295.6504 344,-297.5 388.6617,-302.0108 400.1162,-298.1731 445,-297.5 456.6359,-297.3255 469.0308,-297.0369 480.9903,-296.7058"/>
<polygon fill="#191970" stroke="#191970" points="288.6671,-285.168 278.1614,-286.54 287.2297,-292.0188 288.6671,-285.168"/>
</g>
<!-- Node197 -->
<g id="node7" class="node">
<title>Node197</title>
<g id="a_node7"><a xlink:href="../../d5/d3c/namespaceopenage_1_1util_1_1tests.xhtml#aec3c7190e428e8fd67bce6f0dd4d582f" target="_top" xlink:title="openage::util::tests\l::siphash">
<polygon fill="#ffffff" stroke="#000000" points="344.5,-257.5 344.5,-287.5 444.5,-287.5 444.5,-257.5 344.5,-257.5"/>
<text text-anchor="start" x="352.5" y="-275.5" font-family="Helvetica,sans-Serif" font-size="10.00" fill="#000000">openage::util::tests</text>
<text text-anchor="middle" x="394.5" y="-264.5" font-family="Helvetica,sans-Serif" font-size="10.00" fill="#000000">::siphash</text>
</a>
</g>
</g>
<!-- Node195&#45;&gt;Node197 -->
<g id="edge6" class="edge">
<title>Node195&#45;&gt;Node197</title>
<path fill="none" stroke="#191970" d="M288.3499,-272.5C306.9965,-272.5 326.9294,-272.5 344.4286,-272.5"/>
<polygon fill="#191970" stroke="#191970" points="288.1467,-269.0001 278.1467,-272.5 288.1466,-276.0001 288.1467,-269.0001"/>
</g>
<!-- Node197&#45;&gt;Node196 -->
<g id="edge7" class="edge">
<title>Node197&#45;&gt;Node196</title>
<path fill="none" stroke="#191970" d="M454.6122,-281.2872C463.2626,-282.5517 472.1913,-283.8569 480.9153,-285.1321"/>
<polygon fill="#191970" stroke="#191970" points="455.0154,-277.809 444.6143,-279.8257 454.0029,-284.7354 455.0154,-277.809"/>
</g>
<!-- Node199 -->
<g id="node9" class="node">
<title>Node199</title>
<g id="a_node9"><a xlink:href="../../d4/d54/classopenage_1_1renderer_1_1_glyph_atlas.xhtml#ae5ac0cf0b966e3636c0f9a950e3f1870" target="_top" xlink:title="Retrieves the atlas entry for a specified font and glyph. ">
<polygon fill="#ffffff" stroke="#000000" points="344,-208.5 344,-238.5 445,-238.5 445,-208.5 344,-208.5"/>
<text text-anchor="start" x="352" y="-226.5" font-family="Helvetica,sans-Serif" font-size="10.00" fill="#000000">openage::renderer::</text>
<text text-anchor="middle" x="394.5" y="-215.5" font-family="Helvetica,sans-Serif" font-size="10.00" fill="#000000">GlyphAtlas::get</text>
</a>
</g>
</g>
<!-- Node198&#45;&gt;Node199 -->
<g id="edge9" class="edge">
<title>Node198&#45;&gt;Node199</title>
<path fill="none" stroke="#191970" d="M300.5313,-223.5C315.3055,-223.5 330.3723,-223.5 343.9907,-223.5"/>
<polygon fill="#191970" stroke="#191970" points="300.3713,-220.0001 290.3713,-223.5 300.3712,-227.0001 300.3713,-220.0001"/>
</g>
<!-- Node200 -->
<g id="node10" class="node">
<title>Node200</title>
<g id="a_node10"><a xlink:href="../../d4/dba/classopenage_1_1renderer_1_1_text_renderer.xhtml#ad5f8238ffefc1fcf24366c34141b710e" target="_top" xlink:title="Render all the text draw requests made during the frame. ">
<polygon fill="#ffffff" stroke="#000000" points="490.5,-208.5 490.5,-238.5 599.5,-238.5 599.5,-208.5 490.5,-208.5"/>
<text text-anchor="start" x="498.5" y="-226.5" font-family="Helvetica,sans-Serif" font-size="10.00" fill="#000000">openage::renderer::</text>
<text text-anchor="middle" x="545" y="-215.5" font-family="Helvetica,sans-Serif" font-size="10.00" fill="#000000">TextRenderer::render</text>
</a>
</g>
</g>
<!-- Node199&#45;&gt;Node200 -->
<g id="edge10" class="edge">
<title>Node199&#45;&gt;Node200</title>
<path fill="none" stroke="#191970" d="M455.1434,-223.5C466.8253,-223.5 478.9956,-223.5 490.4691,-223.5"/>
<polygon fill="#191970" stroke="#191970" points="455.033,-220.0001 445.033,-223.5 455.033,-227.0001 455.033,-220.0001"/>
</g>
</g>
</svg>
        <g id="navigator" transform="translate(0 0)" fill="#404254">
                <rect fill="#f2f5e9" fill-opacity="0.5" stroke="#606060" stroke-width=".5" x="0" y="0" width="60" height="60"/>
                <use id="zoomplus" xlink:href="#zoomPlus" x="17" y="9" onmousedown="handleZoom(evt,'in')"/>
                <use id="zoomminus" xlink:href="#zoomMin" x="42" y="9" onmousedown="handleZoom(evt,'out')"/>
                <use id="reset" xlink:href="#resetDef" x="30" y="36" onmousedown="handleReset()"/>
                <g id="arrowUp" xlink:href="#dirArrow" transform="translate(30 24)" onmousedown="handlePan(0,-1)">
                  <use xlink:href="#rim" fill="#404040">
                        <set attributeName="fill" to="#808080" begin="arrowUp.mouseover" end="arrowUp.mouseout"/>
                  </use>
                  <path fill="none" stroke="white" stroke-width="1.5" d="M0,-3.0v7 M-2.5,-0.5L0,-3.0L2.5,-0.5"/>
                </g>
                <g id="arrowRight" xlink:href="#dirArrow" transform="rotate(90) translate(36 -43)" onmousedown="handlePan(1,0)">
                  <use xlink:href="#rim" fill="#404040">
                        <set attributeName="fill" to="#808080" begin="arrowRight.mouseover" end="arrowRight.mouseout"/>
                  </use>
                  <path fill="none" stroke="white" stroke-width="1.5" d="M0,-3.0v7 M-2.5,-0.5L0,-3.0L2.5,-0.5"/>
                </g>
                <g id="arrowDown" xlink:href="#dirArrow" transform="rotate(180) translate(-30 -48)" onmousedown="handlePan(0,1)">
                  <use xlink:href="#rim" fill="#404040">
                        <set attributeName="fill" to="#808080" begin="arrowDown.mouseover" end="arrowDown.mouseout"/>
                  </use>
                  <path fill="none" stroke="white" stroke-width="1.5" d="M0,-3.0v7 M-2.5,-0.5L0,-3.0L2.5,-0.5"/>
                </g>
                <g id="arrowLeft" xlink:href="#dirArrow" transform="rotate(270) translate(-36 17)" onmousedown="handlePan(-1,0)">
                  <use xlink:href="#rim" fill="#404040">
                        <set attributeName="fill" to="#808080" begin="arrowLeft.mouseover" end="arrowLeft.mouseout"/>
                  </use>
                  <path fill="none" stroke="white" stroke-width="1.5" d="M0,-3.0v7 M-2.5,-0.5L0,-3.0L2.5,-0.5"/>
                </g>
        </g>
        <svg viewBox="0 0 15 15" width="100%" height="30px" preserveAspectRatio="xMaxYMin meet">
         <g id="arrow_out" transform="scale(0.3 0.3)">
          <a xlink:href="namespaceopenage_1_1util_a3cb605abe74b26763ac7340c3785656a_icgraph_org.svg" target="_base">
           <rect id="button" ry="5" rx="5" y="6" x="6" height="38" width="38"
                fill="#f2f5e9" fill-opacity="0.5" stroke="#606060" stroke-width="1.0"/>
           <path id="arrow"
             d="M 11.500037,31.436501 C 11.940474,20.09759 22.043105,11.32322 32.158766,21.979434 L 37.068811,17.246167 C 37.068811,17.246167 37.088388,32 37.088388,32 L 22.160133,31.978069 C 22.160133,31.978069 26.997745,27.140456 26.997745,27.140456 C 18.528582,18.264221 13.291696,25.230495 11.500037,31.436501 z"
             style="fill:#404040;"/>
          </a>
         </g>
        </svg>
</svg>
