<?xml version="1.0" encoding="UTF-8" standalone="no"?>
<!DOCTYPE svg PUBLIC "-//W3C//DTD SVG 1.1//EN"
 "http://www.w3.org/Graphics/SVG/1.1/DTD/svg11.dtd">
<!-- Generated by graphviz version 2.40.1 (20161225.0304)
 -->
<!-- Title: openage::util::demangle Pages: 1 -->
<svg width="1068pt" height="312pt"
 viewBox="0.00 0.00 1068.00 312.00" xmlns="http://www.w3.org/2000/svg" xmlns:xlink="http://www.w3.org/1999/xlink">
<g id="graph0" class="graph" transform="scale(1 1) rotate(0) translate(4 308)">
<title>openage::util::demangle</title>
<polygon fill="#ffffff" stroke="transparent" points="-4,4 -4,-308 1064,-308 1064,4 -4,4"/>
<!-- Node75 -->
<g id="node1" class="node">
<title>Node75</title>
<polygon fill="#bfbfbf" stroke="#000000" points="0,-148 0,-167 120,-167 120,-148 0,-148"/>
<text text-anchor="middle" x="60" y="-155" font-family="Helvetica,sans-Serif" font-size="10.00" fill="#000000">openage::util::demangle</text>
</g>
<!-- Node76 -->
<g id="node2" class="node">
<title>Node76</title>
<g id="a_node2"><a xlink:href="../../d1/d18/namespaceopenage_1_1pyinterface_1_1tests.xhtml#a1e06395c26a8fbab8f488d6e573cde6b" target="_top" xlink:title="openage::pyinterface\l::tests::err_py_to_cpp">
<polygon fill="#ffffff" stroke="#000000" points="169.5,-273.5 169.5,-303.5 281.5,-303.5 281.5,-273.5 169.5,-273.5"/>
<text text-anchor="start" x="177.5" y="-291.5" font-family="Helvetica,sans-Serif" font-size="10.00" fill="#000000">openage::pyinterface</text>
<text text-anchor="middle" x="225.5" y="-280.5" font-family="Helvetica,sans-Serif" font-size="10.00" fill="#000000">::tests::err_py_to_cpp</text>
</a>
</g>
</g>
<!-- Node75&#45;&gt;Node76 -->
<g id="edge1" class="edge">
<title>Node75&#45;&gt;Node76</title>
<path fill="none" stroke="#191970" d="M71.965,-175.4406C88.3668,-198.7613 119.94,-239.3516 156,-263.5 161.6469,-267.2816 167.9345,-270.5689 174.3555,-273.4045"/>
<polygon fill="#191970" stroke="#191970" points="74.8106,-173.4017 66.2603,-167.1454 69.0429,-177.3683 74.8106,-173.4017"/>
</g>
<!-- Node77 -->
<g id="node3" class="node">
<title>Node77</title>
<g id="a_node3"><a xlink:href="../../de/d6a/classopenage_1_1_game_spec.xhtml#a4de64c8c4a5463dc086f082659147b02" target="_top" xlink:title="perform the main loading job. ">
<polygon fill="#ffffff" stroke="#000000" points="168.5,-224.5 168.5,-254.5 282.5,-254.5 282.5,-224.5 168.5,-224.5"/>
<text text-anchor="start" x="176.5" y="-242.5" font-family="Helvetica,sans-Serif" font-size="10.00" fill="#000000">openage::GameSpec::</text>
<text text-anchor="middle" x="225.5" y="-231.5" font-family="Helvetica,sans-Serif" font-size="10.00" fill="#000000">initialize</text>
</a>
</g>
</g>
<!-- Node75&#45;&gt;Node77 -->
<g id="edge2" class="edge">
<title>Node75&#45;&gt;Node77</title>
<path fill="none" stroke="#191970" d="M82.7284,-172.6758C101.766,-184.9714 129.9344,-202.2111 156,-214.5 163.539,-218.0543 171.7302,-221.4154 179.7563,-224.4523"/>
<polygon fill="#191970" stroke="#191970" points="84.4512,-169.6206 74.1654,-167.0804 80.6221,-175.4805 84.4512,-169.6206"/>
</g>
<!-- Node78 -->
<g id="node4" class="node">
<title>Node78</title>
<g id="a_node4"><a xlink:href="../../db/dbd/namespaceopenage_1_1error.xhtml#a902be6cbbea4f6485907cc5e15406b3a" target="_top" xlink:title="openage::error::operator\&lt;\&lt;">
<polygon fill="#ffffff" stroke="#000000" points="341,-46 341,-65 473,-65 473,-46 341,-46"/>
<text text-anchor="middle" x="407" y="-53" font-family="Helvetica,sans-Serif" font-size="10.00" fill="#000000">openage::error::operator&lt;&lt;</text>
</a>
</g>
</g>
<!-- Node75&#45;&gt;Node78 -->
<g id="edge3" class="edge">
<title>Node75&#45;&gt;Node78</title>
<path fill="none" stroke="#191970" d="M130.2683,-166.3169C179.4908,-169.1085 245.1206,-165.784 295,-137.5 318.8199,-123.993 309.5817,-104.5612 331,-87.5 343.5416,-77.5097 359.6562,-70.1359 373.8169,-65.0014"/>
<polygon fill="#191970" stroke="#191970" points="130.2358,-162.8071 120.0254,-165.6352 129.7708,-169.7917 130.2358,-162.8071"/>
</g>
<!-- Node79 -->
<g id="node5" class="node">
<title>Node79</title>
<g id="a_node5"><a xlink:href="../../de/d60/namespaceopenage_1_1util.xhtml#aff957b2c0c7a7eb98cf68468cc04c1d8" target="_top" xlink:title="Returns the (demangled) symbol name for a given address. ">
<polygon fill="#ffffff" stroke="#000000" points="156,-186 156,-205 295,-205 295,-186 156,-186"/>
<text text-anchor="middle" x="225.5" y="-193" font-family="Helvetica,sans-Serif" font-size="10.00" fill="#000000">openage::util::symbol_name</text>
</a>
</g>
</g>
<!-- Node75&#45;&gt;Node79 -->
<g id="edge4" class="edge">
<title>Node75&#45;&gt;Node79</title>
<path fill="none" stroke="#191970" d="M111.8105,-169.3961C135.0733,-174.7374 162.1469,-180.9537 184.0377,-185.9799"/>
<polygon fill="#191970" stroke="#191970" points="112.2923,-165.9157 101.7626,-167.089 110.7258,-172.7382 112.2923,-165.9157"/>
</g>
<!-- Node89 -->
<g id="node15" class="node">
<title>Node89</title>
<g id="a_node15"><a xlink:href="../../db/dbd/namespaceopenage_1_1error.xhtml#ae713528ccc0e378838c233a2a405026a" target="_top" xlink:title="openage::error::terminate\l_handler">
<polygon fill="#ffffff" stroke="#000000" points="163,-98.5 163,-128.5 288,-128.5 288,-98.5 163,-98.5"/>
<text text-anchor="start" x="171" y="-116.5" font-family="Helvetica,sans-Serif" font-size="10.00" fill="#000000">openage::error::terminate</text>
<text text-anchor="middle" x="225.5" y="-105.5" font-family="Helvetica,sans-Serif" font-size="10.00" fill="#000000">_handler</text>
</a>
</g>
</g>
<!-- Node75&#45;&gt;Node89 -->
<g id="edge14" class="edge">
<title>Node75&#45;&gt;Node89</title>
<path fill="none" stroke="#191970" d="M105.771,-145.3313C125.2875,-140.1426 148.2588,-134.0354 168.8337,-128.5654"/>
<polygon fill="#191970" stroke="#191970" points="104.676,-142.0007 95.911,-147.9527 106.4746,-148.7657 104.676,-142.0007"/>
</g>
<!-- Node90 -->
<g id="node16" class="node">
<title>Node90</title>
<g id="a_node16"><a xlink:href="../../d9/dde/namespaceopenage_1_1pyinterface.xhtml#a17ffe36150248f6802ac372166798637" target="_top" xlink:title="Analyzes the current C++ exception, and creates and raises an analogous Python CPPException object...">
<polygon fill="#ffffff" stroke="#000000" points="160,-49.5 160,-79.5 291,-79.5 291,-49.5 160,-49.5"/>
<text text-anchor="start" x="168" y="-67.5" font-family="Helvetica,sans-Serif" font-size="10.00" fill="#000000">openage::pyinterface</text>
<text text-anchor="middle" x="225.5" y="-56.5" font-family="Helvetica,sans-Serif" font-size="10.00" fill="#000000">::translate_exc_cpp_to_py</text>
</a>
</g>
</g>
<!-- Node75&#45;&gt;Node90 -->
<g id="edge15" class="edge">
<title>Node75&#45;&gt;Node90</title>
<path fill="none" stroke="#191970" d="M78.8346,-141.4135C97.4488,-126.1521 127.2343,-103.3972 156,-88.5 162.3477,-85.2126 169.244,-82.215 176.1451,-79.5377"/>
<polygon fill="#191970" stroke="#191970" points="76.5577,-138.7549 71.112,-147.8431 81.0365,-144.1345 76.5577,-138.7549"/>
</g>
<!-- Node91 -->
<g id="node17" class="node">
<title>Node91</title>
<g id="a_node17"><a xlink:href="../../d0/df4/classopenage_1_1error_1_1_error.xhtml#a6c5c486df5943aa399b6c051d9eb9059" target="_top" xlink:title="The type name of the exception (for pretty&#45;printing in case the exception hierarchy is used)...">
<polygon fill="#ffffff" stroke="#000000" points="172.5,-.5 172.5,-30.5 278.5,-30.5 278.5,-.5 172.5,-.5"/>
<text text-anchor="start" x="180.5" y="-18.5" font-family="Helvetica,sans-Serif" font-size="10.00" fill="#000000">openage::error::Error</text>
<text text-anchor="middle" x="225.5" y="-7.5" font-family="Helvetica,sans-Serif" font-size="10.00" fill="#000000">::type_name</text>
</a>
</g>
</g>
<!-- Node75&#45;&gt;Node91 -->
<g id="edge16" class="edge">
<title>Node75&#45;&gt;Node91</title>
<path fill="none" stroke="#191970" d="M70.5156,-138.9142C86.0299,-113.0831 117.4241,-66.4713 156,-39.5 161.0216,-35.989 166.6035,-32.9509 172.3589,-30.3318"/>
<polygon fill="#191970" stroke="#191970" points="67.3967,-137.3141 65.3653,-147.7124 73.4378,-140.8505 67.3967,-137.3141"/>
</g>
<!-- Node80 -->
<g id="node6" class="node">
<title>Node80</title>
<g id="a_node6"><a xlink:href="../../da/d79/classopenage_1_1error_1_1_stack_analyzer.xhtml#ab807f0825ce961e84c901c715cc79976" target="_top" xlink:title="Returns (via the callback) symbolic names for all stack frames, to its best knowledge. ">
<polygon fill="#ffffff" stroke="#000000" points="332.5,-207.5 332.5,-237.5 481.5,-237.5 481.5,-207.5 332.5,-207.5"/>
<text text-anchor="start" x="340.5" y="-225.5" font-family="Helvetica,sans-Serif" font-size="10.00" fill="#000000">openage::error::StackAnalyzer</text>
<text text-anchor="middle" x="407" y="-214.5" font-family="Helvetica,sans-Serif" font-size="10.00" fill="#000000">::get_symbols</text>
</a>
</g>
</g>
<!-- Node79&#45;&gt;Node80 -->
<g id="edge5" class="edge">
<title>Node79&#45;&gt;Node80</title>
<path fill="none" stroke="#191970" d="M299.3819,-206.4907C310.2765,-208.1114 321.5072,-209.7821 332.4159,-211.4048"/>
<polygon fill="#191970" stroke="#191970" points="299.8963,-203.0288 289.4901,-205.0192 298.8662,-209.9526 299.8963,-203.0288"/>
</g>
<!-- Node81 -->
<g id="node7" class="node">
<title>Node81</title>
<g id="a_node7"><a xlink:href="../../d0/d44/classopenage_1_1pyinterface_1_1_func.xhtml#a83b9691db46167c2637c86f5a71cb40f" target="_top" xlink:title="raises an Error if this&#45;&gt;fptr is still uninitialized. ">
<polygon fill="#ffffff" stroke="#000000" points="331,-147 331,-188 483,-188 483,-147 331,-147"/>
<text text-anchor="start" x="339" y="-176" font-family="Helvetica,sans-Serif" font-size="10.00" fill="#000000">openage::pyinterface</text>
<text text-anchor="start" x="339" y="-165" font-family="Helvetica,sans-Serif" font-size="10.00" fill="#000000">::Func&lt; ReturnType, ArgTypes</text>
<text text-anchor="middle" x="407" y="-154" font-family="Helvetica,sans-Serif" font-size="10.00" fill="#000000"> ... &gt;::check_fptr</text>
</a>
</g>
</g>
<!-- Node79&#45;&gt;Node81 -->
<g id="edge6" class="edge">
<title>Node79&#45;&gt;Node81</title>
<path fill="none" stroke="#191970" d="M297.1777,-184.4423C308.1828,-182.7445 319.5797,-180.9863 330.681,-179.2737"/>
<polygon fill="#191970" stroke="#191970" points="296.5503,-180.9976 287.2009,-185.9814 297.6176,-187.9157 296.5503,-180.9976"/>
</g>
<!-- Node82 -->
<g id="node8" class="node">
<title>Node82</title>
<g id="a_node8"><a xlink:href="../../d9/dde/namespaceopenage_1_1pyinterface.xhtml#a591d9bd55fa1f9904547f3f2dcb3796d" target="_top" xlink:title="Adds a Python interface component. ">
<polygon fill="#ffffff" stroke="#000000" points="348,-97.5 348,-127.5 466,-127.5 466,-97.5 348,-97.5"/>
<text text-anchor="start" x="356" y="-115.5" font-family="Helvetica,sans-Serif" font-size="10.00" fill="#000000">openage::pyinterface</text>
<text text-anchor="middle" x="407" y="-104.5" font-family="Helvetica,sans-Serif" font-size="10.00" fill="#000000">::add_py_if_component</text>
</a>
</g>
</g>
<!-- Node79&#45;&gt;Node82 -->
<g id="edge7" class="edge">
<title>Node79&#45;&gt;Node82</title>
<path fill="none" stroke="#191970" d="M272.0941,-182.4922C280.0046,-179.428 287.9366,-175.779 295,-171.5 313.8233,-160.097 312.0934,-148.7643 331,-137.5 337.3243,-133.7321 344.2875,-130.4527 351.3539,-127.6212"/>
<polygon fill="#191970" stroke="#191970" points="270.7375,-179.2606 262.5156,-185.9428 273.11,-185.8463 270.7375,-179.2606"/>
</g>
<!-- Node84 -->
<g id="node10" class="node">
<title>Node84</title>
<g id="a_node10"><a xlink:href="../../d9/dde/namespaceopenage_1_1pyinterface.xhtml#a7c3f96bce0d4711ba04a941b5c460b17" target="_top" xlink:title="Checks whether all objects that have been registered via add_py_if_component have been properly initi...">
<polygon fill="#ffffff" stroke="#000000" points="353.5,-256.5 353.5,-286.5 460.5,-286.5 460.5,-256.5 353.5,-256.5"/>
<text text-anchor="start" x="361.5" y="-274.5" font-family="Helvetica,sans-Serif" font-size="10.00" fill="#000000">openage::pyinterface</text>
<text text-anchor="middle" x="407" y="-263.5" font-family="Helvetica,sans-Serif" font-size="10.00" fill="#000000">::check</text>
</a>
</g>
</g>
<!-- Node79&#45;&gt;Node84 -->
<g id="edge9" class="edge">
<title>Node79&#45;&gt;Node84</title>
<path fill="none" stroke="#191970" d="M281.7697,-208.4403C286.3516,-210.2233 290.8212,-212.2347 295,-214.5 313.8199,-224.7021 312.446,-235.8219 331,-246.5 337.9824,-250.5185 345.702,-253.9993 353.4664,-256.9799"/>
<polygon fill="#191970" stroke="#191970" points="282.8588,-205.1132 272.264,-205.093 280.5338,-211.7158 282.8588,-205.1132"/>
</g>
<!-- Node83 -->
<g id="node9" class="node">
<title>Node83</title>
<g id="a_node9"><a xlink:href="../../d2/d29/classopenage_1_1pyinterface_1_1_py_if_func.xhtml#a151c2faee8d91169645204f1eb3a6a22" target="_top" xlink:title="openage::pyinterface\l::PyIfFunc::PyIfFunc">
<polygon fill="#ffffff" stroke="#000000" points="547,-97.5 547,-127.5 655,-127.5 655,-97.5 547,-97.5"/>
<text text-anchor="start" x="555" y="-115.5" font-family="Helvetica,sans-Serif" font-size="10.00" fill="#000000">openage::pyinterface</text>
<text text-anchor="middle" x="601" y="-104.5" font-family="Helvetica,sans-Serif" font-size="10.00" fill="#000000">::PyIfFunc::PyIfFunc</text>
</a>
</g>
</g>
<!-- Node82&#45;&gt;Node83 -->
<g id="edge8" class="edge">
<title>Node82&#45;&gt;Node83</title>
<path fill="none" stroke="#191970" d="M476.3601,-112.5C499.4914,-112.5 524.9106,-112.5 546.7264,-112.5"/>
<polygon fill="#191970" stroke="#191970" points="476.2606,-109.0001 466.2605,-112.5 476.2605,-116.0001 476.2606,-109.0001"/>
</g>
<!-- Node85 -->
<g id="node11" class="node">
<title>Node85</title>
<g id="a_node11"><a xlink:href="../../d8/de6/namespaceopenage_1_1cppinterface_1_1setup.xhtml#ae1c256c521da867c4f2ee7e9a7460ad3" target="_top" xlink:title="After a call to setup(), the C++ interface is in a usable state. ">
<polygon fill="#ffffff" stroke="#000000" points="519,-262 519,-281 683,-281 683,-262 519,-262"/>
<text text-anchor="middle" x="601" y="-269" font-family="Helvetica,sans-Serif" font-size="10.00" fill="#000000">openage.cppinterface.setup.setup</text>
</a>
</g>
</g>
<!-- Node84&#45;&gt;Node85 -->
<g id="edge10" class="edge">
<title>Node84&#45;&gt;Node85</title>
<path fill="none" stroke="#191970" d="M470.9269,-271.5C486.2736,-271.5 502.8751,-271.5 518.9188,-271.5"/>
<polygon fill="#191970" stroke="#191970" points="470.5249,-268.0001 460.5249,-271.5 470.5249,-275.0001 470.5249,-268.0001"/>
</g>
<!-- Node86 -->
<g id="node12" class="node">
<title>Node86</title>
<g id="a_node12"><a xlink:href="../../d6/d02/namespaceopenage_1_1convert_1_1main.xhtml#ab4e998cdda52db3b3cae6efbcd2eda23" target="_top" xlink:title="CLI entry point. ">
<polygon fill="#ffffff" stroke="#000000" points="736,-281 736,-300 873,-300 873,-281 736,-281"/>
<text text-anchor="middle" x="804.5" y="-288" font-family="Helvetica,sans-Serif" font-size="10.00" fill="#000000">openage.convert.main.main</text>
</a>
</g>
</g>
<!-- Node85&#45;&gt;Node86 -->
<g id="edge11" class="edge">
<title>Node85&#45;&gt;Node86</title>
<path fill="none" stroke="#191970" d="M693.472,-280.1338C707.6811,-281.4604 722.1334,-282.8098 735.7084,-284.0772"/>
<polygon fill="#191970" stroke="#191970" points="693.4668,-276.6181 683.1847,-279.1733 692.816,-283.5878 693.4668,-276.6181"/>
</g>
<!-- Node87 -->
<g id="node13" class="node">
<title>Node87</title>
<g id="a_node13"><a xlink:href="../../d7/d35/namespaceopenage_1_1testing_1_1main.xhtml#a346b6762051aaadb5cc302e1adbf5f1e" target="_top" xlink:title="Processes the given args, detecting errors. ">
<polygon fill="#ffffff" stroke="#000000" points="719,-243 719,-262 890,-262 890,-243 719,-243"/>
<text text-anchor="middle" x="804.5" y="-250" font-family="Helvetica,sans-Serif" font-size="10.00" fill="#000000">openage.testing.main.process_args</text>
</a>
</g>
</g>
<!-- Node85&#45;&gt;Node87 -->
<g id="edge12" class="edge">
<title>Node85&#45;&gt;Node87</title>
<path fill="none" stroke="#191970" d="M693.3987,-262.8731C701.8202,-262.0868 710.3279,-261.2925 718.6884,-260.5119"/>
<polygon fill="#191970" stroke="#191970" points="692.816,-259.4122 683.1847,-263.8267 693.4668,-266.3819 692.816,-259.4122"/>
</g>
<!-- Node88 -->
<g id="node14" class="node">
<title>Node88</title>
<g id="a_node14"><a xlink:href="../../d7/d35/namespaceopenage_1_1testing_1_1main.xhtml#a22daa2dd4990bc8d016d850a9d9fc5fb" target="_top" xlink:title="CLI main method. ">
<polygon fill="#ffffff" stroke="#000000" points="926,-243 926,-262 1060,-262 1060,-243 926,-243"/>
<text text-anchor="middle" x="993" y="-250" font-family="Helvetica,sans-Serif" font-size="10.00" fill="#000000">openage.testing.main.main</text>
</a>
</g>
</g>
<!-- Node87&#45;&gt;Node88 -->
<g id="edge13" class="edge">
<title>Node87&#45;&gt;Node88</title>
<path fill="none" stroke="#191970" d="M900.3206,-252.5C908.9492,-252.5 917.5603,-252.5 925.8644,-252.5"/>
<polygon fill="#191970" stroke="#191970" points="900.2007,-249.0001 890.2006,-252.5 900.2006,-256.0001 900.2007,-249.0001"/>
</g>
<!-- Node91&#45;&gt;Node78 -->
<g id="edge17" class="edge">
<title>Node91&#45;&gt;Node78</title>
<path fill="none" stroke="#191970" d="M288.9873,-29.4917C313.6735,-34.9322 341.3266,-41.0265 363.656,-45.9476"/>
<polygon fill="#191970" stroke="#191970" points="289.4933,-26.0193 278.9743,-27.285 287.9867,-32.8552 289.4933,-26.0193"/>
</g>
</g>
</svg>
