<?xml version="1.0" encoding="UTF-8" standalone="no"?>
<!DOCTYPE svg PUBLIC "-//W3C//DTD SVG 1.1//EN"
 "http://www.w3.org/Graphics/SVG/1.1/DTD/svg11.dtd">
<!-- Generated by graphviz version 2.40.1 (20161225.0304)
 -->
<!-- Title: qtsdl::GuiItemListModel&lt; T &gt; Pages: 1 -->
<svg width="346pt" height="792pt"
 viewBox="0.00 0.00 346.00 792.00" xmlns="http://www.w3.org/2000/svg" xmlns:xlink="http://www.w3.org/1999/xlink">
<g id="graph0" class="graph" transform="scale(1 1) rotate(0) translate(4 788)">
<title>qtsdl::GuiItemListModel&lt; T &gt;</title>
<polygon fill="#ffffff" stroke="transparent" points="-4,4 -4,-788 342,-788 342,4 -4,4"/>
<!-- Node7 -->
<g id="node1" class="node">
<title>Node7</title>
<polygon fill="#bfbfbf" stroke="#000000" points="89.5,-.5 89.5,-112.5 244.5,-112.5 244.5,-.5 89.5,-.5"/>
<text text-anchor="middle" x="167" y="-100.5" font-family="Helvetica,sans-Serif" font-size="10.00" fill="#000000">qtsdl::GuiItemListModel&lt; T &gt;</text>
<polyline fill="none" stroke="#000000" points="89.5,-93.5 244.5,-93.5 "/>
<text text-anchor="middle" x="167" y="-81.5" font-family="Helvetica,sans-Serif" font-size="10.00" fill="#000000"> </text>
<polyline fill="none" stroke="#000000" points="89.5,-74.5 244.5,-74.5 "/>
<text text-anchor="start" x="97.5" y="-62.5" font-family="Helvetica,sans-Serif" font-size="10.00" fill="#000000">+ GuiItemListModel()</text>
<text text-anchor="start" x="97.5" y="-51.5" font-family="Helvetica,sans-Serif" font-size="10.00" fill="#000000">&#45; on_core_adopted()</text>
<text text-anchor="start" x="97.5" y="-40.5" font-family="Helvetica,sans-Serif" font-size="10.00" fill="#000000">&#45; establish_from_gui</text>
<text text-anchor="start" x="97.5" y="-29.5" font-family="Helvetica,sans-Serif" font-size="10.00" fill="#000000">_propagation()</text>
<text text-anchor="start" x="97.5" y="-18.5" font-family="Helvetica,sans-Serif" font-size="10.00" fill="#000000">&#45; establish_to_gui_propagation()</text>
<text text-anchor="start" x="97.5" y="-7.5" font-family="Helvetica,sans-Serif" font-size="10.00" fill="#000000">&#45; do_initial_to_gui_propagation()</text>
</g>
<!-- Node8 -->
<g id="node2" class="node">
<title>Node8</title>
<g id="a_node2"><a xlink:href="../../dd/d7b/classqtsdl_1_1_gui_item.xhtml" target="_top" xlink:title="Base for shell QObjects that need corresponding cores to be kept alive across GUI reloads...">
<polygon fill="#ffffff" stroke="#000000" points="116,-150.5 116,-207.5 218,-207.5 218,-150.5 116,-150.5"/>
<text text-anchor="middle" x="167" y="-195.5" font-family="Helvetica,sans-Serif" font-size="10.00" fill="#000000">qtsdl::GuiItem&lt; T &gt;</text>
<polyline fill="none" stroke="#000000" points="116,-188.5 218,-188.5 "/>
<text text-anchor="middle" x="167" y="-176.5" font-family="Helvetica,sans-Serif" font-size="10.00" fill="#000000"> </text>
<polyline fill="none" stroke="#000000" points="116,-169.5 218,-169.5 "/>
<text text-anchor="start" x="124" y="-157.5" font-family="Helvetica,sans-Serif" font-size="10.00" fill="#000000">+ GuiItem()</text>
</a>
</g>
</g>
<!-- Node8&#45;&gt;Node7 -->
<g id="edge1" class="edge">
<title>Node8&#45;&gt;Node7</title>
<path fill="none" stroke="#191970" d="M167,-140.1358C167,-131.4939 167,-122.1625 167,-112.9752"/>
<polygon fill="none" stroke="#191970" points="163.5001,-140.2792 167,-150.2792 170.5001,-140.2792 163.5001,-140.2792"/>
</g>
<!-- Node9 -->
<g id="node3" class="node">
<title>Node9</title>
<g id="a_node3"><a xlink:href="../../d9/db0/classqtsdl_1_1_gui_item_origin.xhtml" target="_top" xlink:title="{qtsdl::GuiItemOrigin\&lt; T \&gt;\n||}">
<polygon fill="#ffffff" stroke="#000000" points="20,-273 20,-330 148,-330 148,-273 20,-273"/>
<text text-anchor="middle" x="84" y="-318" font-family="Helvetica,sans-Serif" font-size="10.00" fill="#000000">qtsdl::GuiItemOrigin&lt; T &gt;</text>
<polyline fill="none" stroke="#000000" points="20,-311 148,-311 "/>
<text text-anchor="middle" x="84" y="-299" font-family="Helvetica,sans-Serif" font-size="10.00" fill="#000000"> </text>
<polyline fill="none" stroke="#000000" points="20,-292 148,-292 "/>
<text text-anchor="middle" x="84" y="-280" font-family="Helvetica,sans-Serif" font-size="10.00" fill="#000000"> </text>
</a>
</g>
</g>
<!-- Node9&#45;&gt;Node8 -->
<g id="edge2" class="edge">
<title>Node9&#45;&gt;Node8</title>
<path fill="none" stroke="#191970" d="M109.3087,-264.1468C121.6418,-245.9444 136.2375,-224.4025 147.6621,-207.5409"/>
<polygon fill="none" stroke="#191970" points="106.1715,-262.5373 103.4598,-272.7792 111.9666,-266.4637 106.1715,-262.5373"/>
</g>
<!-- Node10 -->
<g id="node4" class="node">
<title>Node10</title>
<g id="a_node4"><a xlink:href="../../d5/ddf/classqtsdl_1_1_persistent_core_holder.xhtml" target="_top" xlink:title="{qtsdl::PersistentCoreHolder\l\&lt; typename qtsdl::Unwrap\l\&lt; T \&gt;::Type \&gt;\n|+ core\l|+ PersistentCoreHolder()\l+ PersistentCoreHolder()\l+ adopt_shell()\l}">
<polygon fill="#ffffff" stroke="#000000" points="15.5,-422 15.5,-523 152.5,-523 152.5,-422 15.5,-422"/>
<text text-anchor="start" x="23.5" y="-511" font-family="Helvetica,sans-Serif" font-size="10.00" fill="#000000">qtsdl::PersistentCoreHolder</text>
<text text-anchor="start" x="23.5" y="-500" font-family="Helvetica,sans-Serif" font-size="10.00" fill="#000000">&lt; typename qtsdl::Unwrap</text>
<text text-anchor="middle" x="84" y="-489" font-family="Helvetica,sans-Serif" font-size="10.00" fill="#000000">&lt; T &gt;::Type &gt;</text>
<polyline fill="none" stroke="#000000" points="15.5,-482 152.5,-482 "/>
<text text-anchor="start" x="23.5" y="-470" font-family="Helvetica,sans-Serif" font-size="10.00" fill="#000000">+ core</text>
<polyline fill="none" stroke="#000000" points="15.5,-463 152.5,-463 "/>
<text text-anchor="start" x="23.5" y="-451" font-family="Helvetica,sans-Serif" font-size="10.00" fill="#000000">+ PersistentCoreHolder()</text>
<text text-anchor="start" x="23.5" y="-440" font-family="Helvetica,sans-Serif" font-size="10.00" fill="#000000">+ PersistentCoreHolder()</text>
<text text-anchor="start" x="23.5" y="-429" font-family="Helvetica,sans-Serif" font-size="10.00" fill="#000000">+ adopt_shell()</text>
</a>
</g>
</g>
<!-- Node10&#45;&gt;Node9 -->
<g id="edge3" class="edge">
<title>Node10&#45;&gt;Node9</title>
<path fill="none" stroke="#404040" d="M84,-421.6573C84,-396.2881 84,-366.0187 84,-342.2078"/>
<polygon fill="none" stroke="#404040" points="84.0001,-342.0614 80,-336.0614 84,-330.0614 88,-336.0613 84.0001,-342.0614"/>
<text text-anchor="middle" x="100.5" y="-379" font-family="Helvetica,sans-Serif" font-size="10.00" fill="#000000"> &#45;holder</text>
</g>
<!-- Node11 -->
<g id="node5" class="node">
<title>Node11</title>
<g id="a_node5"><a xlink:href="../../df/db1/classqtsdl_1_1_persistent_core_holder_base.xhtml" target="_top" xlink:title="Helper to hide the type of the core. ">
<polygon fill="#ffffff" stroke="#000000" points="0,-715.5 0,-783.5 160,-783.5 160,-715.5 0,-715.5"/>
<text text-anchor="middle" x="80" y="-771.5" font-family="Helvetica,sans-Serif" font-size="10.00" fill="#000000">qtsdl::PersistentCoreHolderBase</text>
<polyline fill="none" stroke="#000000" points="0,-764.5 160,-764.5 "/>
<text text-anchor="middle" x="80" y="-752.5" font-family="Helvetica,sans-Serif" font-size="10.00" fill="#000000"> </text>
<polyline fill="none" stroke="#000000" points="0,-745.5 160,-745.5 "/>
<text text-anchor="start" x="8" y="-733.5" font-family="Helvetica,sans-Serif" font-size="10.00" fill="#000000">+ ~PersistentCoreHolderBase()</text>
<text text-anchor="start" x="8" y="-722.5" font-family="Helvetica,sans-Serif" font-size="10.00" fill="#000000">+ adopt_shell()</text>
</a>
</g>
</g>
<!-- Node11&#45;&gt;Node10 -->
<g id="edge4" class="edge">
<title>Node11&#45;&gt;Node10</title>
<path fill="none" stroke="#191970" d="M80.6405,-705.1461C81.3576,-655.4853 82.5175,-575.1616 83.2694,-523.0927"/>
<polygon fill="none" stroke="#191970" points="77.1393,-705.207 80.4945,-715.2565 84.1386,-705.3082 77.1393,-705.207"/>
</g>
<!-- Node12 -->
<g id="node6" class="node">
<title>Node12</title>
<g id="a_node6"><a xlink:href="../../d5/ddf/classqtsdl_1_1_persistent_core_holder.xhtml" target="_top" xlink:title="{qtsdl::PersistentCoreHolder\&lt; T \&gt;\n|+ core\l|+ PersistentCoreHolder()\l+ PersistentCoreHolder()\l+ adopt_shell()\l}">
<polygon fill="#ffffff" stroke="#000000" points="96.5,-598.5 96.5,-677.5 257.5,-677.5 257.5,-598.5 96.5,-598.5"/>
<text text-anchor="middle" x="177" y="-665.5" font-family="Helvetica,sans-Serif" font-size="10.00" fill="#000000">qtsdl::PersistentCoreHolder&lt; T &gt;</text>
<polyline fill="none" stroke="#000000" points="96.5,-658.5 257.5,-658.5 "/>
<text text-anchor="start" x="104.5" y="-646.5" font-family="Helvetica,sans-Serif" font-size="10.00" fill="#000000">+ core</text>
<polyline fill="none" stroke="#000000" points="96.5,-639.5 257.5,-639.5 "/>
<text text-anchor="start" x="104.5" y="-627.5" font-family="Helvetica,sans-Serif" font-size="10.00" fill="#000000">+ PersistentCoreHolder()</text>
<text text-anchor="start" x="104.5" y="-616.5" font-family="Helvetica,sans-Serif" font-size="10.00" fill="#000000">+ PersistentCoreHolder()</text>
<text text-anchor="start" x="104.5" y="-605.5" font-family="Helvetica,sans-Serif" font-size="10.00" fill="#000000">+ adopt_shell()</text>
</a>
</g>
</g>
<!-- Node11&#45;&gt;Node12 -->
<g id="edge6" class="edge">
<title>Node11&#45;&gt;Node12</title>
<path fill="none" stroke="#191970" d="M116.3477,-707.7189C124.8952,-697.8936 133.981,-687.4496 142.4471,-677.718"/>
<polygon fill="none" stroke="#191970" points="113.5531,-705.5986 109.6303,-715.4405 118.8344,-710.1931 113.5531,-705.5986"/>
</g>
<!-- Node12&#45;&gt;Node10 -->
<g id="edge5" class="edge">
<title>Node12&#45;&gt;Node10</title>
<path fill="none" stroke="#ffa500" d="M149.8234,-589.6374C138.0761,-568.7321 124.3273,-544.2653 112.442,-523.1146"/>
<polygon fill="#ffa500" stroke="#ffa500" points="146.774,-591.3554 154.7242,-598.3586 152.8765,-587.9261 146.774,-591.3554"/>
<text text-anchor="start" x="145" y="-572" font-family="Helvetica,sans-Serif" font-size="10.00" fill="#000000"> &lt; typename qtsdl::Unwrap</text>
<text text-anchor="middle" x="204.5" y="-561" font-family="Helvetica,sans-Serif" font-size="10.00" fill="#000000">&lt; T &gt;::Type &gt;</text>
</g>
<!-- Node13 -->
<g id="node7" class="node">
<title>Node13</title>
<g id="a_node7"><a xlink:href="../../df/df5/classqtsdl_1_1_gui_item_core_instantiator.xhtml" target="_top" xlink:title="{qtsdl::GuiItemCoreInstantiator\&lt; T \&gt;\n|+ instantiate_core_func\l+ do_adopt_core_func\l|+ GuiItemCoreInstantiator()\l&#45; instantiate_core()\l&#45; do_adopt_core()\l&#45; GuiItemCoreInstantiator()\l&#45; operator=()\l}">
<polygon fill="#ffffff" stroke="#000000" points="166,-245.5 166,-357.5 338,-357.5 338,-245.5 166,-245.5"/>
<text text-anchor="middle" x="252" y="-345.5" font-family="Helvetica,sans-Serif" font-size="10.00" fill="#000000">qtsdl::GuiItemCoreInstantiator&lt; T &gt;</text>
<polyline fill="none" stroke="#000000" points="166,-338.5 338,-338.5 "/>
<text text-anchor="start" x="174" y="-326.5" font-family="Helvetica,sans-Serif" font-size="10.00" fill="#000000">+ instantiate_core_func</text>
<text text-anchor="start" x="174" y="-315.5" font-family="Helvetica,sans-Serif" font-size="10.00" fill="#000000">+ do_adopt_core_func</text>
<polyline fill="none" stroke="#000000" points="166,-308.5 338,-308.5 "/>
<text text-anchor="start" x="174" y="-296.5" font-family="Helvetica,sans-Serif" font-size="10.00" fill="#000000">+ GuiItemCoreInstantiator()</text>
<text text-anchor="start" x="174" y="-285.5" font-family="Helvetica,sans-Serif" font-size="10.00" fill="#000000">&#45; instantiate_core()</text>
<text text-anchor="start" x="174" y="-274.5" font-family="Helvetica,sans-Serif" font-size="10.00" fill="#000000">&#45; do_adopt_core()</text>
<text text-anchor="start" x="174" y="-263.5" font-family="Helvetica,sans-Serif" font-size="10.00" fill="#000000">&#45; GuiItemCoreInstantiator()</text>
<text text-anchor="start" x="174" y="-252.5" font-family="Helvetica,sans-Serif" font-size="10.00" fill="#000000">&#45; operator=()</text>
</a>
</g>
</g>
<!-- Node13&#45;&gt;Node8 -->
<g id="edge7" class="edge">
<title>Node13&#45;&gt;Node8</title>
<path fill="none" stroke="#191970" d="M207.2256,-236.9722C200.0504,-226.6314 192.9619,-216.4157 186.7813,-207.5083"/>
<polygon fill="none" stroke="#191970" points="204.4064,-239.0488 212.9829,-245.2694 210.1576,-235.0582 204.4064,-239.0488"/>
</g>
<!-- Node14 -->
<g id="node8" class="node">
<title>Node14</title>
<g id="a_node8"><a xlink:href="../../d5/db2/classqtsdl_1_1_gui_item_methods.xhtml" target="_top" xlink:title="Member function of the GuiPersistentItem. ">
<polygon fill="#ffffff" stroke="#000000" points="182,-405.5 182,-539.5 322,-539.5 322,-405.5 182,-405.5"/>
<text text-anchor="middle" x="252" y="-527.5" font-family="Helvetica,sans-Serif" font-size="10.00" fill="#000000">qtsdl::GuiItemMethods&lt; T &gt;</text>
<polyline fill="none" stroke="#000000" points="182,-520.5 322,-520.5 "/>
<text text-anchor="middle" x="252" y="-508.5" font-family="Helvetica,sans-Serif" font-size="10.00" fill="#000000"> </text>
<polyline fill="none" stroke="#000000" points="182,-501.5 322,-501.5 "/>
<text text-anchor="start" x="190" y="-489.5" font-family="Helvetica,sans-Serif" font-size="10.00" fill="#000000">+ ~GuiItemMethods()</text>
<text text-anchor="start" x="190" y="-478.5" font-family="Helvetica,sans-Serif" font-size="10.00" fill="#000000">+ get()</text>
<text text-anchor="start" x="190" y="-467.5" font-family="Helvetica,sans-Serif" font-size="10.00" fill="#000000">+ get()</text>
<text text-anchor="start" x="190" y="-456.5" font-family="Helvetica,sans-Serif" font-size="10.00" fill="#000000">+ i()</text>
<text text-anchor="start" x="190" y="-445.5" font-family="Helvetica,sans-Serif" font-size="10.00" fill="#000000"># s()</text>
<text text-anchor="start" x="190" y="-434.5" font-family="Helvetica,sans-Serif" font-size="10.00" fill="#000000"># sf()</text>
<text text-anchor="start" x="190" y="-423.5" font-family="Helvetica,sans-Serif" font-size="10.00" fill="#000000">&#45; assign_while_catching</text>
<text text-anchor="start" x="190" y="-412.5" font-family="Helvetica,sans-Serif" font-size="10.00" fill="#000000">_constant_properies_inits()</text>
</a>
</g>
</g>
<!-- Node14&#45;&gt;Node13 -->
<g id="edge8" class="edge">
<title>Node14&#45;&gt;Node13</title>
<path fill="none" stroke="#191970" d="M252,-395.3044C252,-382.6144 252,-369.678 252,-357.6278"/>
<polygon fill="none" stroke="#191970" points="248.5001,-395.407 252,-405.4071 255.5001,-395.4071 248.5001,-395.407"/>
</g>
</g>
</svg>
