<?xml version="1.0" encoding="UTF-8" standalone="no"?>
<!DOCTYPE svg PUBLIC "-//W3C//DTD SVG 1.1//EN"
 "http://www.w3.org/Graphics/SVG/1.1/DTD/svg11.dtd">
<!-- Generated by graphviz version 2.40.1 (20161225.0304)
 -->
<!-- Title: openage::console::Console Pages: 1 -->
<!--zoomable 380 -->
<svg id="main" version="1.1" xmlns="http://www.w3.org/2000/svg" xmlns:xlink="http://www.w3.org/1999/xlink" xml:space="preserve" onload="init(evt)">
<style type="text/css"><![CDATA[
.edge:hover path { stroke: red; }
.edge:hover polygon { stroke: red; fill: red; }
]]></style>
<script type="text/javascript"><![CDATA[
var edges = document.getElementsByTagName('g');
if (edges && edges.length) {
  for (var i=0;i<edges.length;i++) {
    if (edges[i].id.substr(0,4)=='edge') {
      edges[i].setAttribute('class','edge');
    }
  }
}
]]></script>
        <defs>
                <circle id="rim" cx="0" cy="0" r="7"/>
                <circle id="rim2" cx="0" cy="0" r="3.5"/>
                <g id="zoomPlus">
                        <use xlink:href="#rim" fill="#404040">
                                <set attributeName="fill" to="#808080" begin="zoomplus.mouseover" end="zoomplus.mouseout"/>
                        </use>
                        <path d="M-4,0h8M0,-4v8" fill="none" stroke="white" stroke-width="1.5" pointer-events="none"/>
                </g>
                <g id="zoomMin">
                        <use xlink:href="#rim" fill="#404040">
                                <set attributeName="fill" to="#808080" begin="zoomminus.mouseover" end="zoomminus.mouseout"/>
                        </use>
                        <path d="M-4,0h8" fill="none" stroke="white" stroke-width="1.5" pointer-events="none"/>
                </g>
                <g id="dirArrow">
                        <path fill="none" stroke="white" stroke-width="1.5" d="M0,-3.0v7 M-2.5,-0.5L0,-3.0L2.5,-0.5"/>
                </g>
               <g id="resetDef">
                       <use xlink:href="#rim2" fill="#404040">
                               <set attributeName="fill" to="#808080" begin="reset.mouseover" end="reset.mouseout"/>
                       </use>
               </g>
        </defs>

<script type="text/javascript">
var viewWidth = 526;
var viewHeight = 380;
var sectionId = 'dynsection-0';
</script>
<script xlink:href="../../svgpan.js"/>
<svg id="graph" class="graph">
<g id="viewport">
<title>openage::console::Console</title>
<polygon fill="#ffffff" stroke="transparent" points="-4,4 -4,-376 521.5,-376 521.5,4 -4,4"/>
<!-- Node0 -->
<g id="node1" class="node">
<title>Node0</title>
<polygon fill="#bfbfbf" stroke="#000000" points="187,-.5 187,-266.5 322,-266.5 322,-.5 187,-.5"/>
<text text-anchor="middle" x="254.5" y="-254.5" font-family="Helvetica,sans-Serif" font-size="10.00" fill="#000000">openage::console::Console</text>
<polyline fill="none" stroke="#000000" points="187,-247.5 322,-247.5 "/>
<text text-anchor="start" x="195" y="-235.5" font-family="Helvetica,sans-Serif" font-size="10.00" fill="#000000">+ bottomleft</text>
<text text-anchor="start" x="195" y="-224.5" font-family="Helvetica,sans-Serif" font-size="10.00" fill="#000000">+ topright</text>
<text text-anchor="start" x="195" y="-213.5" font-family="Helvetica,sans-Serif" font-size="10.00" fill="#000000">+ charsize</text>
<text text-anchor="start" x="195" y="-202.5" font-family="Helvetica,sans-Serif" font-size="10.00" fill="#000000">+ termcolors</text>
<text text-anchor="start" x="195" y="-191.5" font-family="Helvetica,sans-Serif" font-size="10.00" fill="#000000">+ visible</text>
<text text-anchor="start" x="195" y="-180.5" font-family="Helvetica,sans-Serif" font-size="10.00" fill="#000000">+ buf</text>
<text text-anchor="start" x="195" y="-169.5" font-family="Helvetica,sans-Serif" font-size="10.00" fill="#000000">+ font</text>
<text text-anchor="start" x="195" y="-158.5" font-family="Helvetica,sans-Serif" font-size="10.00" fill="#000000">+ input_context</text>
<text text-anchor="start" x="195" y="-147.5" font-family="Helvetica,sans-Serif" font-size="10.00" fill="#000000">+ command</text>
<text text-anchor="start" x="195" y="-136.5" font-family="Helvetica,sans-Serif" font-size="10.00" fill="#000000"># engine</text>
<polyline fill="none" stroke="#000000" points="187,-129.5 322,-129.5 "/>
<text text-anchor="start" x="195" y="-117.5" font-family="Helvetica,sans-Serif" font-size="10.00" fill="#000000">+ Console()</text>
<text text-anchor="start" x="195" y="-106.5" font-family="Helvetica,sans-Serif" font-size="10.00" fill="#000000">+ ~Console()</text>
<text text-anchor="start" x="195" y="-95.5" font-family="Helvetica,sans-Serif" font-size="10.00" fill="#000000">+ load_colors()</text>
<text text-anchor="start" x="195" y="-84.5" font-family="Helvetica,sans-Serif" font-size="10.00" fill="#000000">+ register_to_engine()</text>
<text text-anchor="start" x="195" y="-73.5" font-family="Helvetica,sans-Serif" font-size="10.00" fill="#000000">+ set_visible()</text>
<text text-anchor="start" x="195" y="-62.5" font-family="Helvetica,sans-Serif" font-size="10.00" fill="#000000">+ write()</text>
<text text-anchor="start" x="195" y="-51.5" font-family="Helvetica,sans-Serif" font-size="10.00" fill="#000000">+ interpret()</text>
<text text-anchor="start" x="195" y="-40.5" font-family="Helvetica,sans-Serif" font-size="10.00" fill="#000000">+ on_drawhud()</text>
<text text-anchor="start" x="195" y="-29.5" font-family="Helvetica,sans-Serif" font-size="10.00" fill="#000000">+ on_tick()</text>
<text text-anchor="start" x="195" y="-18.5" font-family="Helvetica,sans-Serif" font-size="10.00" fill="#000000">+ on_input()</text>
<text text-anchor="start" x="195" y="-7.5" font-family="Helvetica,sans-Serif" font-size="10.00" fill="#000000">+ on_resize()</text>
</g>
<!-- Node1 -->
<g id="node2" class="node">
<title>Node1</title>
<g id="a_node2"><a xlink:href="../../da/dc5/classopenage_1_1_input_handler.xhtml" target="_top" xlink:title="superclass for handling any input event. ">
<polygon fill="#ffffff" stroke="#000000" points="0,-303.5 0,-371.5 115,-371.5 115,-303.5 0,-303.5"/>
<text text-anchor="middle" x="57.5" y="-359.5" font-family="Helvetica,sans-Serif" font-size="10.00" fill="#000000">openage::InputHandler</text>
<polyline fill="none" stroke="#000000" points="0,-352.5 115,-352.5 "/>
<text text-anchor="middle" x="57.5" y="-340.5" font-family="Helvetica,sans-Serif" font-size="10.00" fill="#000000"> </text>
<polyline fill="none" stroke="#000000" points="0,-333.5 115,-333.5 "/>
<text text-anchor="start" x="8" y="-321.5" font-family="Helvetica,sans-Serif" font-size="10.00" fill="#000000">+ ~InputHandler()</text>
<text text-anchor="start" x="8" y="-310.5" font-family="Helvetica,sans-Serif" font-size="10.00" fill="#000000">+ on_input()</text>
</a>
</g>
</g>
<!-- Node1&#45;&gt;Node0 -->
<g id="edge1" class="edge">
<title>Node1&#45;&gt;Node0</title>
<path fill="none" stroke="#8b1a1a" d="M97.4626,-296.1174C123.0571,-269.6135 156.9267,-234.5403 186.6575,-203.7532"/>
<polygon fill="none" stroke="#8b1a1a" points="94.9023,-293.7302 90.4734,-303.355 99.9377,-298.5929 94.9023,-293.7302"/>
</g>
<!-- Node2 -->
<g id="node3" class="node">
<title>Node2</title>
<g id="a_node3"><a xlink:href="../../d1/da0/classopenage_1_1_tick_handler.xhtml" target="_top" xlink:title="superclass for all calculations being done on engine tick. ">
<polygon fill="#ffffff" stroke="#000000" points="133.5,-303.5 133.5,-371.5 245.5,-371.5 245.5,-303.5 133.5,-303.5"/>
<text text-anchor="middle" x="189.5" y="-359.5" font-family="Helvetica,sans-Serif" font-size="10.00" fill="#000000">openage::TickHandler</text>
<polyline fill="none" stroke="#000000" points="133.5,-352.5 245.5,-352.5 "/>
<text text-anchor="middle" x="189.5" y="-340.5" font-family="Helvetica,sans-Serif" font-size="10.00" fill="#000000"> </text>
<polyline fill="none" stroke="#000000" points="133.5,-333.5 245.5,-333.5 "/>
<text text-anchor="start" x="141.5" y="-321.5" font-family="Helvetica,sans-Serif" font-size="10.00" fill="#000000">+ ~TickHandler()</text>
<text text-anchor="start" x="141.5" y="-310.5" font-family="Helvetica,sans-Serif" font-size="10.00" fill="#000000">+ on_tick()</text>
</a>
</g>
</g>
<!-- Node2&#45;&gt;Node0 -->
<g id="edge2" class="edge">
<title>Node2&#45;&gt;Node0</title>
<path fill="none" stroke="#8b1a1a" d="M203.4964,-293.5727C206.1595,-285.2149 209.0711,-276.077 212.1102,-266.5388"/>
<polygon fill="none" stroke="#8b1a1a" points="200.0807,-292.7644 200.3795,-303.355 206.7503,-294.8895 200.0807,-292.7644"/>
</g>
<!-- Node3 -->
<g id="node4" class="node">
<title>Node3</title>
<g id="a_node4"><a xlink:href="../../dd/dba/classopenage_1_1_hud_handler.xhtml" target="_top" xlink:title="superclass for all possible drawing operations in the game. ">
<polygon fill="#ffffff" stroke="#000000" points="264,-303.5 264,-371.5 375,-371.5 375,-303.5 264,-303.5"/>
<text text-anchor="middle" x="319.5" y="-359.5" font-family="Helvetica,sans-Serif" font-size="10.00" fill="#000000">openage::HudHandler</text>
<polyline fill="none" stroke="#000000" points="264,-352.5 375,-352.5 "/>
<text text-anchor="middle" x="319.5" y="-340.5" font-family="Helvetica,sans-Serif" font-size="10.00" fill="#000000"> </text>
<polyline fill="none" stroke="#000000" points="264,-333.5 375,-333.5 "/>
<text text-anchor="start" x="272" y="-321.5" font-family="Helvetica,sans-Serif" font-size="10.00" fill="#000000">+ ~HudHandler()</text>
<text text-anchor="start" x="272" y="-310.5" font-family="Helvetica,sans-Serif" font-size="10.00" fill="#000000">+ on_drawhud()</text>
</a>
</g>
</g>
<!-- Node3&#45;&gt;Node0 -->
<g id="edge3" class="edge">
<title>Node3&#45;&gt;Node0</title>
<path fill="none" stroke="#8b1a1a" d="M305.5036,-293.5727C302.8405,-285.2149 299.9289,-276.077 296.8898,-266.5388"/>
<polygon fill="none" stroke="#8b1a1a" points="302.2497,-294.8895 308.6205,-303.355 308.9193,-292.7644 302.2497,-294.8895"/>
</g>
<!-- Node4 -->
<g id="node5" class="node">
<title>Node4</title>
<g id="a_node5"><a xlink:href="../../db/d8a/classopenage_1_1_resize_handler.xhtml" target="_top" xlink:title="superclass for handling a window resize event. ">
<polygon fill="#ffffff" stroke="#000000" points="393.5,-303.5 393.5,-371.5 517.5,-371.5 517.5,-303.5 393.5,-303.5"/>
<text text-anchor="middle" x="455.5" y="-359.5" font-family="Helvetica,sans-Serif" font-size="10.00" fill="#000000">openage::ResizeHandler</text>
<polyline fill="none" stroke="#000000" points="393.5,-352.5 517.5,-352.5 "/>
<text text-anchor="middle" x="455.5" y="-340.5" font-family="Helvetica,sans-Serif" font-size="10.00" fill="#000000"> </text>
<polyline fill="none" stroke="#000000" points="393.5,-333.5 517.5,-333.5 "/>
<text text-anchor="start" x="401.5" y="-321.5" font-family="Helvetica,sans-Serif" font-size="10.00" fill="#000000">+ ~ResizeHandler()</text>
<text text-anchor="start" x="401.5" y="-310.5" font-family="Helvetica,sans-Serif" font-size="10.00" fill="#000000">+ on_resize()</text>
</a>
</g>
</g>
<!-- Node4&#45;&gt;Node0 -->
<g id="edge4" class="edge">
<title>Node4&#45;&gt;Node0</title>
<path fill="none" stroke="#8b1a1a" d="M414.6027,-295.9923C388.0244,-269.0173 352.7386,-233.2049 322.0581,-202.0665"/>
<polygon fill="none" stroke="#8b1a1a" points="412.3454,-298.6882 421.8571,-303.355 417.3317,-293.7752 412.3454,-298.6882"/>
</g>
</g>
</svg>
        <g id="navigator" transform="translate(0 0)" fill="#404254">
                <rect fill="#f2f5e9" fill-opacity="0.5" stroke="#606060" stroke-width=".5" x="0" y="0" width="60" height="60"/>
                <use id="zoomplus" xlink:href="#zoomPlus" x="17" y="9" onmousedown="handleZoom(evt,'in')"/>
                <use id="zoomminus" xlink:href="#zoomMin" x="42" y="9" onmousedown="handleZoom(evt,'out')"/>
                <use id="reset" xlink:href="#resetDef" x="30" y="36" onmousedown="handleReset()"/>
                <g id="arrowUp" xlink:href="#dirArrow" transform="translate(30 24)" onmousedown="handlePan(0,-1)">
                  <use xlink:href="#rim" fill="#404040">
                        <set attributeName="fill" to="#808080" begin="arrowUp.mouseover" end="arrowUp.mouseout"/>
                  </use>
                  <path fill="none" stroke="white" stroke-width="1.5" d="M0,-3.0v7 M-2.5,-0.5L0,-3.0L2.5,-0.5"/>
                </g>
                <g id="arrowRight" xlink:href="#dirArrow" transform="rotate(90) translate(36 -43)" onmousedown="handlePan(1,0)">
                  <use xlink:href="#rim" fill="#404040">
                        <set attributeName="fill" to="#808080" begin="arrowRight.mouseover" end="arrowRight.mouseout"/>
                  </use>
                  <path fill="none" stroke="white" stroke-width="1.5" d="M0,-3.0v7 M-2.5,-0.5L0,-3.0L2.5,-0.5"/>
                </g>
                <g id="arrowDown" xlink:href="#dirArrow" transform="rotate(180) translate(-30 -48)" onmousedown="handlePan(0,1)">
                  <use xlink:href="#rim" fill="#404040">
                        <set attributeName="fill" to="#808080" begin="arrowDown.mouseover" end="arrowDown.mouseout"/>
                  </use>
                  <path fill="none" stroke="white" stroke-width="1.5" d="M0,-3.0v7 M-2.5,-0.5L0,-3.0L2.5,-0.5"/>
                </g>
                <g id="arrowLeft" xlink:href="#dirArrow" transform="rotate(270) translate(-36 17)" onmousedown="handlePan(-1,0)">
                  <use xlink:href="#rim" fill="#404040">
                        <set attributeName="fill" to="#808080" begin="arrowLeft.mouseover" end="arrowLeft.mouseout"/>
                  </use>
                  <path fill="none" stroke="white" stroke-width="1.5" d="M0,-3.0v7 M-2.5,-0.5L0,-3.0L2.5,-0.5"/>
                </g>
        </g>
        <svg viewBox="0 0 15 15" width="100%" height="30px" preserveAspectRatio="xMaxYMin meet">
         <g id="arrow_out" transform="scale(0.3 0.3)">
          <a xlink:href="classopenage_1_1console_1_1_console__inherit__graph_org.svg" target="_base">
           <rect id="button" ry="5" rx="5" y="6" x="6" height="38" width="38"
                fill="#f2f5e9" fill-opacity="0.5" stroke="#606060" stroke-width="1.0"/>
           <path id="arrow"
             d="M 11.500037,31.436501 C 11.940474,20.09759 22.043105,11.32322 32.158766,21.979434 L 37.068811,17.246167 C 37.068811,17.246167 37.088388,32 37.088388,32 L 22.160133,31.978069 C 22.160133,31.978069 26.997745,27.140456 26.997745,27.140456 C 18.528582,18.264221 13.291696,25.230495 11.500037,31.436501 z"
             style="fill:#404040;"/>
          </a>
         </g>
        </svg>
</svg>
