<?xml version="1.0" encoding="UTF-8" standalone="no"?>
<!DOCTYPE svg PUBLIC "-//W3C//DTD SVG 1.1//EN"
 "http://www.w3.org/Graphics/SVG/1.1/DTD/svg11.dtd">
<!-- Generated by graphviz version 2.40.1 (20161225.0304)
 -->
<!-- Title: openage.log.crit Pages: 1 -->
<svg width="462pt" height="116pt"
 viewBox="0.00 0.00 462.00 116.00" xmlns="http://www.w3.org/2000/svg" xmlns:xlink="http://www.w3.org/1999/xlink">
<g id="graph0" class="graph" transform="scale(1 1) rotate(0) translate(4 112)">
<title>openage.log.crit</title>
<polygon fill="#ffffff" stroke="transparent" points="-4,4 -4,-112 458,-112 458,4 -4,4"/>
<!-- Node3 -->
<g id="node1" class="node">
<title>Node3</title>
<polygon fill="#bfbfbf" stroke="#000000" points="0,-44.5 0,-63.5 86,-63.5 86,-44.5 0,-44.5"/>
<text text-anchor="middle" x="43" y="-51.5" font-family="Helvetica,sans-Serif" font-size="10.00" fill="#000000">openage.log.crit</text>
</g>
<!-- Node4 -->
<g id="node2" class="node">
<title>Node4</title>
<g id="a_node2"><a xlink:href="../../d0/d89/namespaceopenage_1_1convert_1_1opus_1_1demo.xhtml#ae0391ea8f0edf327a1f80b107ef7b68e" target="_top" xlink:title="Demonstrates the usage of the opusenc module. ">
<polygon fill="#ffffff" stroke="#000000" points="122,-88.5 122,-107.5 297,-107.5 297,-88.5 122,-88.5"/>
<text text-anchor="middle" x="209.5" y="-95.5" font-family="Helvetica,sans-Serif" font-size="10.00" fill="#000000">openage.convert.opus.demo.convert</text>
</a>
</g>
</g>
<!-- Node3&#45;&gt;Node4 -->
<g id="edge1" class="edge">
<title>Node3&#45;&gt;Node4</title>
<path fill="none" stroke="#191970" d="M80.5577,-66.6679C93.6016,-70.8586 108.3743,-75.373 122,-79 134.7686,-82.3988 148.7045,-85.6353 161.6248,-88.4425"/>
<polygon fill="#191970" stroke="#191970" points="81.5599,-63.3135 70.9676,-63.5465 79.3933,-69.9698 81.5599,-63.3135"/>
</g>
<!-- Node5 -->
<g id="node3" class="node">
<title>Node5</title>
<g id="a_node3"><a xlink:href="../../d0/d53/namespaceopenage_1_1log_1_1tests.xhtml#a10013d742153bb6a37a94e50e5249f7c" target="_top" xlink:title="openage::log::tests\l::demo">
<polygon fill="#ffffff" stroke="#000000" points="159.5,-39 159.5,-69 259.5,-69 259.5,-39 159.5,-39"/>
<text text-anchor="start" x="167.5" y="-57" font-family="Helvetica,sans-Serif" font-size="10.00" fill="#000000">openage::log::tests</text>
<text text-anchor="middle" x="209.5" y="-46" font-family="Helvetica,sans-Serif" font-size="10.00" fill="#000000">::demo</text>
</a>
</g>
</g>
<!-- Node3&#45;&gt;Node5 -->
<g id="edge2" class="edge">
<title>Node3&#45;&gt;Node5</title>
<path fill="none" stroke="#191970" d="M96.5687,-54C116.7058,-54 139.5088,-54 159.3258,-54"/>
<polygon fill="#191970" stroke="#191970" points="96.3113,-50.5001 86.3113,-54 96.3112,-57.5001 96.3113,-50.5001"/>
</g>
<!-- Node7 -->
<g id="node5" class="node">
<title>Node7</title>
<g id="a_node5"><a xlink:href="../../d3/d8f/namespaceopenage_1_1gui.xhtml#a92817cf5cb133b7059976330da2f9931" target="_top" xlink:title="openage::gui::gui_log">
<polygon fill="#ffffff" stroke="#000000" points="155,-.5 155,-19.5 264,-19.5 264,-.5 155,-.5"/>
<text text-anchor="middle" x="209.5" y="-7.5" font-family="Helvetica,sans-Serif" font-size="10.00" fill="#000000">openage::gui::gui_log</text>
</a>
</g>
</g>
<!-- Node3&#45;&gt;Node7 -->
<g id="edge4" class="edge">
<title>Node3&#45;&gt;Node7</title>
<path fill="none" stroke="#191970" d="M82.584,-41.3797C95.1351,-37.5383 109.1015,-33.4289 122,-30 135.8549,-26.3169 151.0523,-22.698 164.8378,-19.5729"/>
<polygon fill="#191970" stroke="#191970" points="81.3881,-38.0859 72.869,-44.3849 83.4568,-44.7733 81.3881,-38.0859"/>
</g>
<!-- Node6 -->
<g id="node4" class="node">
<title>Node6</title>
<g id="a_node4"><a xlink:href="../../d0/d53/namespaceopenage_1_1log_1_1tests.xhtml#a9ca6bf494467589807a56e954b8b3bb3" target="_top" xlink:title="Demonstrates the Python logging facility. ">
<polygon fill="#ffffff" stroke="#000000" points="333,-44.5 333,-63.5 454,-63.5 454,-44.5 333,-44.5"/>
<text text-anchor="middle" x="393.5" y="-51.5" font-family="Helvetica,sans-Serif" font-size="10.00" fill="#000000">openage.log.tests.demo</text>
</a>
</g>
</g>
<!-- Node5&#45;&gt;Node6 -->
<g id="edge3" class="edge">
<title>Node5&#45;&gt;Node6</title>
<path fill="none" stroke="#191970" d="M269.8035,-54C290.0188,-54 312.5602,-54 332.8054,-54"/>
<polygon fill="#191970" stroke="#191970" points="269.7788,-50.5001 259.7788,-54 269.7788,-57.5001 269.7788,-50.5001"/>
</g>
</g>
</svg>
