<?xml version="1.0" encoding="UTF-8" standalone="no"?>
<!DOCTYPE svg PUBLIC "-//W3C//DTD SVG 1.1//EN"
 "http://www.w3.org/Graphics/SVG/1.1/DTD/svg11.dtd">
<!-- Generated by graphviz version 2.40.1 (20161225.0304)
 -->
<!-- Title: openage::pyinterface::PyObjectRef::to_int Pages: 1 -->
<svg width="260pt" height="39pt"
 viewBox="0.00 0.00 260.00 39.00" xmlns="http://www.w3.org/2000/svg" xmlns:xlink="http://www.w3.org/1999/xlink">
<g id="graph0" class="graph" transform="scale(1 1) rotate(0) translate(4 35)">
<title>openage::pyinterface::PyObjectRef::to_int</title>
<polygon fill="#ffffff" stroke="transparent" points="-4,4 -4,-35 256,-35 256,4 -4,4"/>
<!-- Node151 -->
<g id="node1" class="node">
<title>Node151</title>
<polygon fill="#bfbfbf" stroke="#000000" points="0,-.5 0,-30.5 109,-30.5 109,-.5 0,-.5"/>
<text text-anchor="start" x="8" y="-18.5" font-family="Helvetica,sans-Serif" font-size="10.00" fill="#000000">openage::pyinterface</text>
<text text-anchor="middle" x="54.5" y="-7.5" font-family="Helvetica,sans-Serif" font-size="10.00" fill="#000000">::PyObjectRef::to_int</text>
</g>
<!-- Node152 -->
<g id="node2" class="node">
<title>Node152</title>
<g id="a_node2"><a xlink:href="../../d1/d18/namespaceopenage_1_1pyinterface_1_1tests.xhtml#ad69d94519ba25682897d8da53beb86df" target="_top" xlink:title="openage::pyinterface\l::tests::pyobject">
<polygon fill="#ffffff" stroke="#000000" points="145,-.5 145,-30.5 252,-30.5 252,-.5 145,-.5"/>
<text text-anchor="start" x="153" y="-18.5" font-family="Helvetica,sans-Serif" font-size="10.00" fill="#000000">openage::pyinterface</text>
<text text-anchor="middle" x="198.5" y="-7.5" font-family="Helvetica,sans-Serif" font-size="10.00" fill="#000000">::tests::pyobject</text>
</a>
</g>
</g>
<!-- Node151&#45;&gt;Node152 -->
<g id="edge1" class="edge">
<title>Node151&#45;&gt;Node152</title>
<path fill="none" stroke="#191970" d="M119.5408,-15.5C127.9726,-15.5 136.5329,-15.5 144.7533,-15.5"/>
<polygon fill="#191970" stroke="#191970" points="119.351,-12.0001 109.351,-15.5 119.351,-19.0001 119.351,-12.0001"/>
</g>
</g>
</svg>
