<?xml version="1.0" encoding="UTF-8" standalone="no"?>
<!DOCTYPE svg PUBLIC "-//W3C//DTD SVG 1.1//EN"
 "http://www.w3.org/Graphics/SVG/1.1/DTD/svg11.dtd">
<!-- Generated by graphviz version 2.40.1 (20161225.0304)
 -->
<!-- Title: openage::UnitSelection::toggle_unit Pages: 1 -->
<svg width="1419pt" height="422pt"
 viewBox="0.00 0.00 1419.00 422.00" xmlns="http://www.w3.org/2000/svg" xmlns:xlink="http://www.w3.org/1999/xlink">
<g id="graph0" class="graph" transform="scale(1 1) rotate(0) translate(4 418)">
<title>openage::UnitSelection::toggle_unit</title>
<polygon fill="#ffffff" stroke="transparent" points="-4,4 -4,-418 1415,-418 1415,4 -4,4"/>
<!-- Node281 -->
<g id="node1" class="node">
<title>Node281</title>
<polygon fill="#bfbfbf" stroke="#000000" points="0,-184 0,-214 118,-214 118,-184 0,-184"/>
<text text-anchor="start" x="8" y="-202" font-family="Helvetica,sans-Serif" font-size="10.00" fill="#000000">openage::UnitSelection</text>
<text text-anchor="middle" x="59" y="-191" font-family="Helvetica,sans-Serif" font-size="10.00" fill="#000000">::toggle_unit</text>
</g>
<!-- Node282 -->
<g id="node2" class="node">
<title>Node282</title>
<g id="a_node2"><a xlink:href="../../d9/de2/classopenage_1_1_unit_selection.xhtml#ac7668d88460dbf57f79a75cbe55e34f3" target="_top" xlink:title="openage::UnitSelection\l::add_unit">
<polygon fill="#ffffff" stroke="#000000" points="154,-209 154,-239 272,-239 272,-209 154,-209"/>
<text text-anchor="start" x="162" y="-227" font-family="Helvetica,sans-Serif" font-size="10.00" fill="#000000">openage::UnitSelection</text>
<text text-anchor="middle" x="213" y="-216" font-family="Helvetica,sans-Serif" font-size="10.00" fill="#000000">::add_unit</text>
</a>
</g>
</g>
<!-- Node281&#45;&gt;Node282 -->
<g id="edge1" class="edge">
<title>Node281&#45;&gt;Node282</title>
<path fill="none" stroke="#191970" d="M118.1,-208.5942C126.5133,-209.9599 135.2284,-211.3747 143.8126,-212.7683"/>
<polygon fill="#191970" stroke="#191970" points="143.3721,-216.2425 153.8037,-214.3902 144.4938,-209.333 143.3721,-216.2425"/>
</g>
<!-- Node301 -->
<g id="node21" class="node">
<title>Node301</title>
<g id="a_node21"><a xlink:href="../../d9/de2/classopenage_1_1_unit_selection.xhtml#a55faa863da0461730ad3deed70b726c2" target="_top" xlink:title="openage::UnitSelection\l::remove_unit">
<polygon fill="#ffffff" stroke="#000000" points="154,-160 154,-190 272,-190 272,-160 154,-160"/>
<text text-anchor="start" x="162" y="-178" font-family="Helvetica,sans-Serif" font-size="10.00" fill="#000000">openage::UnitSelection</text>
<text text-anchor="middle" x="213" y="-167" font-family="Helvetica,sans-Serif" font-size="10.00" fill="#000000">::remove_unit</text>
</a>
</g>
</g>
<!-- Node281&#45;&gt;Node301 -->
<g id="edge27" class="edge">
<title>Node281&#45;&gt;Node301</title>
<path fill="none" stroke="#191970" d="M118.1,-189.7896C126.5133,-188.4785 135.2284,-187.1203 143.8126,-185.7825"/>
<polygon fill="#191970" stroke="#191970" points="144.462,-189.2236 153.8037,-184.2254 143.384,-182.3071 144.462,-189.2236"/>
</g>
<!-- Node283 -->
<g id="node3" class="node">
<title>Node283</title>
<g id="a_node3"><a xlink:href="../../d9/de2/classopenage_1_1_unit_selection.xhtml#aa97b9724248f01b525488bbba21d6b59" target="_top" xlink:title="openage::UnitSelection\l::clear">
<polygon fill="#ffffff" stroke="#000000" points="311.5,-297 311.5,-327 429.5,-327 429.5,-297 311.5,-297"/>
<text text-anchor="start" x="319.5" y="-315" font-family="Helvetica,sans-Serif" font-size="10.00" fill="#000000">openage::UnitSelection</text>
<text text-anchor="middle" x="370.5" y="-304" font-family="Helvetica,sans-Serif" font-size="10.00" fill="#000000">::clear</text>
</a>
</g>
</g>
<!-- Node282&#45;&gt;Node283 -->
<g id="edge2" class="edge">
<title>Node282&#45;&gt;Node283</title>
<path fill="none" stroke="#191970" d="M236.4274,-239.2132C255.4223,-251.325 283.0416,-268.4357 308,-282 314.4706,-285.5166 321.4186,-289.0661 328.2461,-292.4317"/>
<polygon fill="#191970" stroke="#191970" points="326.9008,-295.6692 337.4254,-296.8869 329.9573,-289.3717 326.9008,-295.6692"/>
</g>
<!-- Node284 -->
<g id="node4" class="node">
<title>Node284</title>
<g id="a_node4"><a xlink:href="../../df/dea/classopenage_1_1_unit.xhtml#a3e12324401051119f44e212dae1a87ce" target="_top" xlink:title="returns attribute based on templated value ">
<polygon fill="#ffffff" stroke="#000000" points="792,-209 792,-239 889,-239 889,-209 792,-209"/>
<text text-anchor="start" x="800" y="-227" font-family="Helvetica,sans-Serif" font-size="10.00" fill="#000000">openage::Unit::get</text>
<text text-anchor="middle" x="840.5" y="-216" font-family="Helvetica,sans-Serif" font-size="10.00" fill="#000000">_attribute</text>
</a>
</g>
</g>
<!-- Node282&#45;&gt;Node284 -->
<g id="edge3" class="edge">
<title>Node282&#45;&gt;Node284</title>
<path fill="none" stroke="#191970" d="M272.0337,-224C391.8004,-224 662.0879,-224 781.6775,-224"/>
<polygon fill="#191970" stroke="#191970" points="781.7426,-227.5001 791.7426,-224 781.7425,-220.5001 781.7426,-227.5001"/>
</g>
<!-- Node288 -->
<g id="node8" class="node">
<title>Node288</title>
<g id="a_node8"><a xlink:href="../../df/dea/classopenage_1_1_unit.xhtml#adfea298b04684ab09dd8f499dabb8715" target="_top" xlink:title="get a reference which can check against the container to ensure this object still exists ...">
<polygon fill="#ffffff" stroke="#000000" points="946,-394.5 946,-413.5 1059,-413.5 1059,-394.5 946,-394.5"/>
<text text-anchor="middle" x="1002.5" y="-401.5" font-family="Helvetica,sans-Serif" font-size="10.00" fill="#000000">openage::Unit::get_ref</text>
</a>
</g>
</g>
<!-- Node282&#45;&gt;Node288 -->
<g id="edge19" class="edge">
<title>Node282&#45;&gt;Node288</title>
<path fill="none" stroke="#191970" d="M272.2952,-236.9635C336.9236,-249.9424 443.5443,-268 536.5,-268 536.5,-268 536.5,-268 698,-268 811.5014,-268 818.7011,-345.2116 925,-385 931.6898,-387.504 938.8288,-389.7702 945.9647,-391.7927"/>
<polygon fill="#191970" stroke="#191970" points="945.0849,-395.1804 955.6509,-394.399 946.9038,-388.4208 945.0849,-395.1804"/>
</g>
<!-- Node295 -->
<g id="node15" class="node">
<title>Node295</title>
<g id="a_node15"><a xlink:href="../../df/dea/classopenage_1_1_unit.xhtml#a6c56a8b7e9856a8e0535cacbe831bae7" target="_top" xlink:title="returns whether attribute is available ">
<polygon fill="#ffffff" stroke="#000000" points="1134.5,-42 1134.5,-72 1233.5,-72 1233.5,-42 1134.5,-42"/>
<text text-anchor="start" x="1142.5" y="-60" font-family="Helvetica,sans-Serif" font-size="10.00" fill="#000000">openage::Unit::has</text>
<text text-anchor="middle" x="1184" y="-49" font-family="Helvetica,sans-Serif" font-size="10.00" fill="#000000">_attribute</text>
</a>
</g>
</g>
<!-- Node282&#45;&gt;Node295 -->
<g id="edge26" class="edge">
<title>Node282&#45;&gt;Node295</title>
<path fill="none" stroke="#191970" d="M260.2564,-208.9257C264.5301,-206.3784 268.5422,-203.423 272,-200 301.4473,-170.8488 279.688,-144.2551 308,-114 385.5464,-31.1314 423.0071,0 536.5,0 536.5,0 536.5,0 840.5,0 941.1236,0 1056.118,-24.0984 1124.2535,-40.957"/>
<polygon fill="#191970" stroke="#191970" points="1123.817,-44.4558 1134.3678,-43.4918 1125.5187,-37.6658 1123.817,-44.4558"/>
</g>
<!-- Node298 -->
<g id="node18" class="node">
<title>Node298</title>
<g id="a_node18"><a xlink:href="../../d9/de2/classopenage_1_1_unit_selection.xhtml#a9ec8fd5cfcfa451cce1123ff87894719" target="_top" xlink:title="Check whether the currently selected units may be selected at the same time If not, deselect some units This is the order in which the checks occur: Own units &gt; own building(s) &gt; enemy unit &gt; enemy building &gt; any object. ">
<polygon fill="#ffffff" stroke="#000000" points="308,-124 308,-154 433,-154 433,-124 308,-124"/>
<text text-anchor="start" x="316" y="-142" font-family="Helvetica,sans-Serif" font-size="10.00" fill="#000000">openage::UnitSelection</text>
<text text-anchor="middle" x="370.5" y="-131" font-family="Helvetica,sans-Serif" font-size="10.00" fill="#000000">::get_unit_selection_type</text>
</a>
</g>
</g>
<!-- Node282&#45;&gt;Node298 -->
<g id="edge20" class="edge">
<title>Node282&#45;&gt;Node298</title>
<path fill="none" stroke="#191970" d="M252.7655,-208.895C259.2769,-206.1175 265.8887,-203.1075 272,-200 295.527,-188.037 320.8144,-172.3112 339.8763,-159.8231"/>
<polygon fill="#191970" stroke="#191970" points="342.0245,-162.5985 348.4327,-154.1612 338.1617,-156.7608 342.0245,-162.5985"/>
</g>
<!-- Node285 -->
<g id="node5" class="node">
<title>Node285</title>
<g id="a_node5"><a xlink:href="../../df/dea/classopenage_1_1_unit.xhtml#ad7f76de394d832d927a9e6d46bd3c93f" target="_top" xlink:title="begins unit removal by popping some actions ">
<polygon fill="#ffffff" stroke="#000000" points="937,-192.5 937,-211.5 1068,-211.5 1068,-192.5 937,-192.5"/>
<text text-anchor="middle" x="1002.5" y="-199.5" font-family="Helvetica,sans-Serif" font-size="10.00" fill="#000000">openage::Unit::delete_unit</text>
</a>
</g>
</g>
<!-- Node284&#45;&gt;Node285 -->
<g id="edge4" class="edge">
<title>Node284&#45;&gt;Node285</title>
<path fill="none" stroke="#191970" d="M889.1053,-217.3993C900.9453,-215.7914 913.8909,-214.0333 926.6645,-212.2986"/>
<polygon fill="#191970" stroke="#191970" points="927.4094,-215.7297 936.8474,-210.9158 926.4673,-208.7934 927.4094,-215.7297"/>
</g>
<!-- Node286 -->
<g id="node6" class="node">
<title>Node286</title>
<g id="a_node6"><a xlink:href="../../de/d8a/classopenage_1_1_attributes.xhtml#a08f927be3be6911e7cf77604f9ead10f" target="_top" xlink:title="Get the attribute based on the type. ">
<polygon fill="#ffffff" stroke="#000000" points="942,-154.5 942,-173.5 1063,-173.5 1063,-154.5 942,-154.5"/>
<text text-anchor="middle" x="1002.5" y="-161.5" font-family="Helvetica,sans-Serif" font-size="10.00" fill="#000000">openage::Attributes::get</text>
</a>
</g>
</g>
<!-- Node284&#45;&gt;Node286 -->
<g id="edge5" class="edge">
<title>Node284&#45;&gt;Node286</title>
<path fill="none" stroke="#191970" d="M868.0245,-208.8099C884.241,-200.3299 905.366,-190.0799 925,-183 931.8988,-180.5123 939.2584,-178.2411 946.5932,-176.203"/>
<polygon fill="#191970" stroke="#191970" points="947.7637,-179.5138 956.5343,-173.5701 945.9715,-172.7471 947.7637,-179.5138"/>
</g>
<!-- Node287 -->
<g id="node7" class="node">
<title>Node287</title>
<g id="a_node7"><a xlink:href="../../df/dea/classopenage_1_1_unit.xhtml#a2e9937d84fe91d95cbe273f6fe986068" target="_top" xlink:title="the container used when constructing this unit ">
<polygon fill="#ffffff" stroke="#000000" points="954,-105 954,-135 1051,-135 1051,-105 954,-105"/>
<text text-anchor="start" x="962" y="-123" font-family="Helvetica,sans-Serif" font-size="10.00" fill="#000000">openage::Unit::get</text>
<text text-anchor="middle" x="1002.5" y="-112" font-family="Helvetica,sans-Serif" font-size="10.00" fill="#000000">_container</text>
</a>
</g>
</g>
<!-- Node284&#45;&gt;Node287 -->
<g id="edge6" class="edge">
<title>Node284&#45;&gt;Node287</title>
<path fill="none" stroke="#191970" d="M853.0095,-208.7937C868.2929,-191.1286 895.7491,-162.2136 925,-145 930.976,-141.4832 937.507,-138.3963 944.1607,-135.7037"/>
<polygon fill="#191970" stroke="#191970" points="945.8109,-138.8231 953.9469,-132.0366 943.3546,-132.2681 945.8109,-138.8231"/>
</g>
<!-- Node284&#45;&gt;Node288 -->
<g id="edge7" class="edge">
<title>Node284&#45;&gt;Node288</title>
<path fill="none" stroke="#191970" d="M872.5285,-239.0351C878.7052,-243.1532 884.6098,-248.1344 889,-254 925.1808,-302.3402 881.7157,-342.9013 925,-385 928.4789,-388.3836 932.4569,-391.197 936.7323,-393.5328"/>
<polygon fill="#191970" stroke="#191970" points="935.3094,-396.7306 945.8611,-397.6864 938.2085,-390.3591 935.3094,-396.7306"/>
</g>
<!-- Node289 -->
<g id="node9" class="node">
<title>Node289</title>
<g id="a_node9"><a xlink:href="../../df/dea/classopenage_1_1_unit.xhtml#ae769f520dfdb148ec831c151a954a881" target="_top" xlink:title="Returns the unit&#39;s name as the LogSource name. ">
<polygon fill="#ffffff" stroke="#000000" points="925,-356.5 925,-375.5 1080,-375.5 1080,-356.5 925,-356.5"/>
<text text-anchor="middle" x="1002.5" y="-363.5" font-family="Helvetica,sans-Serif" font-size="10.00" fill="#000000">openage::Unit::logsource_name</text>
</a>
</g>
</g>
<!-- Node284&#45;&gt;Node289 -->
<g id="edge8" class="edge">
<title>Node284&#45;&gt;Node289</title>
<path fill="none" stroke="#191970" d="M871.584,-239.0525C877.9648,-243.2159 884.1924,-248.2115 889,-254 917.3181,-288.0959 891.7059,-317.7434 925,-347 926.7756,-348.5603 928.6588,-349.997 930.6273,-351.3196"/>
<polygon fill="#191970" stroke="#191970" points="929.3006,-354.5879 939.7362,-356.4179 932.7195,-348.4796 929.3006,-354.5879"/>
</g>
<!-- Node291 -->
<g id="node11" class="node">
<title>Node291</title>
<g id="a_node11"><a xlink:href="../../df/dea/classopenage_1_1_unit.xhtml#ac5dcdf3180dcd4bdce67b765d8ef2134" target="_top" xlink:title="queues a command to be applied to this unit on the next update ">
<polygon fill="#ffffff" stroke="#000000" points="935.5,-318.5 935.5,-337.5 1069.5,-337.5 1069.5,-318.5 935.5,-318.5"/>
<text text-anchor="middle" x="1002.5" y="-325.5" font-family="Helvetica,sans-Serif" font-size="10.00" fill="#000000">openage::Unit::queue_cmd</text>
</a>
</g>
</g>
<!-- Node284&#45;&gt;Node291 -->
<g id="edge10" class="edge">
<title>Node284&#45;&gt;Node291</title>
<path fill="none" stroke="#191970" d="M869.0294,-239.0652C875.9515,-243.3963 883.0617,-248.4639 889,-254 909.029,-272.6726 902.7701,-288.0107 925,-304 931.0532,-308.3539 937.9169,-311.9334 944.9971,-314.8726"/>
<polygon fill="#191970" stroke="#191970" points="944.1375,-318.2872 954.7303,-318.4963 946.5799,-311.7271 944.1375,-318.2872"/>
</g>
<!-- Node293 -->
<g id="node13" class="node">
<title>Node293</title>
<g id="a_node13"><a xlink:href="../../df/dea/classopenage_1_1_unit.xhtml#a9f53ef015fca7c42ff3bf9d0779145a3" target="_top" xlink:title="removes all actions above and including the first interuptable action this will stop any of the units...">
<polygon fill="#ffffff" stroke="#000000" points="951.5,-231 951.5,-261 1053.5,-261 1053.5,-231 951.5,-231"/>
<text text-anchor="start" x="959.5" y="-249" font-family="Helvetica,sans-Serif" font-size="10.00" fill="#000000">openage::Unit::stop</text>
<text text-anchor="middle" x="1002.5" y="-238" font-family="Helvetica,sans-Serif" font-size="10.00" fill="#000000">_actions</text>
</a>
</g>
</g>
<!-- Node284&#45;&gt;Node293 -->
<g id="edge12" class="edge">
<title>Node284&#45;&gt;Node293</title>
<path fill="none" stroke="#191970" d="M889.1053,-230.6007C905.5441,-232.8332 924.1142,-235.355 941.3962,-237.7019"/>
<polygon fill="#191970" stroke="#191970" points="941.0168,-241.1825 951.3968,-239.0601 941.9588,-234.2461 941.0168,-241.1825"/>
</g>
<!-- Node297 -->
<g id="node17" class="node">
<title>Node297</title>
<g id="a_node17"><a xlink:href="../../df/dea/classopenage_1_1_unit.xhtml#a238fb029bd4cc32e393506533facd976" target="_top" xlink:title="removes all gather actions without calling their on_complete actions this cancels the gathering actio...">
<polygon fill="#ffffff" stroke="#000000" points="1133,-269 1133,-299 1235,-299 1235,-269 1133,-269"/>
<text text-anchor="start" x="1141" y="-287" font-family="Helvetica,sans-Serif" font-size="10.00" fill="#000000">openage::Unit::stop</text>
<text text-anchor="middle" x="1184" y="-276" font-family="Helvetica,sans-Serif" font-size="10.00" fill="#000000">_gather</text>
</a>
</g>
</g>
<!-- Node284&#45;&gt;Node297 -->
<g id="edge18" class="edge">
<title>Node284&#45;&gt;Node297</title>
<path fill="none" stroke="#191970" d="M864.9338,-239.2293C885.2451,-251.5772 912.735,-267.4881 925,-271 990.5324,-289.7644 1069.1447,-290.8804 1122.4426,-288.66"/>
<polygon fill="#191970" stroke="#191970" points="1122.9286,-292.1411 1132.7533,-288.1757 1122.6001,-285.1488 1122.9286,-292.1411"/>
</g>
<!-- Node290 -->
<g id="node10" class="node">
<title>Node290</title>
<g id="a_node10"><a xlink:href="../../d8/dcc/namespacestd.xhtml#a26aa0f4be3a77ac5cc3ce0cabb545042" target="_top" xlink:title="std::to_string">
<polygon fill="#ffffff" stroke="#000000" points="1147,-356.5 1147,-375.5 1221,-375.5 1221,-356.5 1147,-356.5"/>
<text text-anchor="middle" x="1184" y="-363.5" font-family="Helvetica,sans-Serif" font-size="10.00" fill="#000000">std::to_string</text>
</a>
</g>
</g>
<!-- Node289&#45;&gt;Node290 -->
<g id="edge9" class="edge">
<title>Node289&#45;&gt;Node290</title>
<path fill="none" stroke="#191970" d="M1080.2622,-366C1099.3849,-366 1119.2933,-366 1136.4958,-366"/>
<polygon fill="#191970" stroke="#191970" points="1136.826,-369.5001 1146.8259,-366 1136.8259,-362.5001 1136.826,-369.5001"/>
</g>
<!-- Node292 -->
<g id="node12" class="node">
<title>Node292</title>
<g id="a_node12"><a xlink:href="../../d8/dda/classopenage_1_1_command.xhtml#afbc0a60d82b9608e375c38c5e3fdf758" target="_top" xlink:title="the ability types allowed to use this command ">
<polygon fill="#ffffff" stroke="#000000" points="1116,-318.5 1116,-337.5 1252,-337.5 1252,-318.5 1116,-318.5"/>
<text text-anchor="middle" x="1184" y="-325.5" font-family="Helvetica,sans-Serif" font-size="10.00" fill="#000000">openage::Command::ability</text>
</a>
</g>
</g>
<!-- Node291&#45;&gt;Node292 -->
<g id="edge11" class="edge">
<title>Node291&#45;&gt;Node292</title>
<path fill="none" stroke="#191970" d="M1069.5682,-328C1081.402,-328 1093.8134,-328 1105.9182,-328"/>
<polygon fill="#191970" stroke="#191970" points="1105.9946,-331.5001 1115.9946,-328 1105.9945,-324.5001 1105.9946,-331.5001"/>
</g>
<!-- Node294 -->
<g id="node14" class="node">
<title>Node294</title>
<g id="a_node14"><a xlink:href="../../df/dea/classopenage_1_1_unit.xhtml#aae0b3f53cb1d75823391322876d199ef" target="_top" xlink:title="erase from action specified by func to the end of the stack all actions erased will have the on_compl...">
<polygon fill="#ffffff" stroke="#000000" points="1296,-247 1296,-277 1403,-277 1403,-247 1296,-247"/>
<text text-anchor="start" x="1304" y="-265" font-family="Helvetica,sans-Serif" font-size="10.00" fill="#000000">openage::Unit::erase</text>
<text text-anchor="middle" x="1349.5" y="-254" font-family="Helvetica,sans-Serif" font-size="10.00" fill="#000000">_after</text>
</a>
</g>
</g>
<!-- Node293&#45;&gt;Node294 -->
<g id="edge13" class="edge">
<title>Node293&#45;&gt;Node294</title>
<path fill="none" stroke="#191970" d="M1053.701,-248.3609C1115.2598,-251.1993 1218.6108,-255.9648 1285.4095,-259.0448"/>
<polygon fill="#191970" stroke="#191970" points="1285.6539,-262.5597 1295.8045,-259.5241 1285.9764,-255.5671 1285.6539,-262.5597"/>
</g>
<!-- Node293&#45;&gt;Node295 -->
<g id="edge14" class="edge">
<title>Node293&#45;&gt;Node295</title>
<path fill="none" stroke="#191970" d="M1053.7976,-235.0292C1063.1013,-231.5409 1072.2868,-226.972 1080,-221 1128.0408,-183.8042 1159.9817,-117.707 1174.6833,-81.8309"/>
<polygon fill="#191970" stroke="#191970" points="1178.0912,-82.7325 1178.532,-72.1469 1171.5861,-80.1472 1178.0912,-82.7325"/>
</g>
<!-- Node293&#45;&gt;Node297 -->
<g id="edge16" class="edge">
<title>Node293&#45;&gt;Node297</title>
<path fill="none" stroke="#191970" d="M1053.5409,-256.6862C1075.0957,-261.1991 1100.3736,-266.4914 1122.9096,-271.2097"/>
<polygon fill="#191970" stroke="#191970" points="1122.2083,-274.6387 1132.7134,-273.2623 1123.6428,-267.7873 1122.2083,-274.6387"/>
</g>
<!-- Node296 -->
<g id="node16" class="node">
<title>Node296</title>
<g id="a_node16"><a xlink:href="../../de/d8a/classopenage_1_1_attributes.xhtml#aee38f453ac85b68821958ad74cdd8df5" target="_top" xlink:title="Check if the attribute of the given type exists. ">
<polygon fill="#ffffff" stroke="#000000" points="1288,-47.5 1288,-66.5 1411,-66.5 1411,-47.5 1288,-47.5"/>
<text text-anchor="middle" x="1349.5" y="-54.5" font-family="Helvetica,sans-Serif" font-size="10.00" fill="#000000">openage::Attributes::has</text>
</a>
</g>
</g>
<!-- Node295&#45;&gt;Node296 -->
<g id="edge15" class="edge">
<title>Node295&#45;&gt;Node296</title>
<path fill="none" stroke="#191970" d="M1233.6555,-57C1247.503,-57 1262.8309,-57 1277.6808,-57"/>
<polygon fill="#191970" stroke="#191970" points="1277.8611,-60.5001 1287.861,-57 1277.861,-53.5001 1277.8611,-60.5001"/>
</g>
<!-- Node297&#45;&gt;Node294 -->
<g id="edge17" class="edge">
<title>Node297&#45;&gt;Node294</title>
<path fill="none" stroke="#191970" d="M1235.0059,-277.2198C1250.9723,-275.0973 1268.7971,-272.7279 1285.5387,-270.5024"/>
<polygon fill="#191970" stroke="#191970" points="1286.3448,-273.9261 1295.7964,-269.1389 1285.4223,-266.9872 1286.3448,-273.9261"/>
</g>
<!-- Node298&#45;&gt;Node295 -->
<g id="edge21" class="edge">
<title>Node298&#45;&gt;Node295</title>
<path fill="none" stroke="#191970" d="M398.9427,-123.8793C454.6745,-95.7037 582.8674,-38 698,-38 698,-38 698,-38 840.5,-38 940.0599,-38 1055.6042,-46.0558 1124.1044,-51.6764"/>
<polygon fill="#191970" stroke="#191970" points="1124.0177,-55.1812 1134.2732,-52.5213 1124.5974,-48.2052 1124.0177,-55.1812"/>
</g>
<!-- Node299 -->
<g id="node19" class="node">
<title>Node299</title>
<g id="a_node19"><a xlink:href="../../df/dea/classopenage_1_1_unit.xhtml#aba4a16068cf5a6b218a4c78f499874b0" target="_top" xlink:title="checks whether the current player is the owner of this unit ">
<polygon fill="#ffffff" stroke="#000000" points="469,-129.5 469,-148.5 604,-148.5 604,-129.5 469,-129.5"/>
<text text-anchor="middle" x="536.5" y="-136.5" font-family="Helvetica,sans-Serif" font-size="10.00" fill="#000000">openage::Unit::is_own_unit</text>
</a>
</g>
</g>
<!-- Node298&#45;&gt;Node299 -->
<g id="edge22" class="edge">
<title>Node298&#45;&gt;Node299</title>
<path fill="none" stroke="#191970" d="M433.2575,-139C441.6383,-139 450.3124,-139 458.9087,-139"/>
<polygon fill="#191970" stroke="#191970" points="458.9422,-142.5001 468.9422,-139 458.9421,-135.5001 458.9422,-142.5001"/>
</g>
<!-- Node300 -->
<g id="node20" class="node">
<title>Node300</title>
<g id="a_node20"><a xlink:href="../../d8/d47/classopenage_1_1_player.xhtml#aefd20341c814fc53919cac8761bad38b" target="_top" xlink:title="this player owns the specified unit ">
<polygon fill="#ffffff" stroke="#000000" points="640,-129.5 640,-148.5 756,-148.5 756,-129.5 640,-129.5"/>
<text text-anchor="middle" x="698" y="-136.5" font-family="Helvetica,sans-Serif" font-size="10.00" fill="#000000">openage::Player::owns</text>
</a>
</g>
</g>
<!-- Node299&#45;&gt;Node300 -->
<g id="edge23" class="edge">
<title>Node299&#45;&gt;Node300</title>
<path fill="none" stroke="#191970" d="M604.0548,-139C612.535,-139 621.2147,-139 629.7061,-139"/>
<polygon fill="#191970" stroke="#191970" points="629.9444,-142.5001 639.9443,-139 629.9443,-135.5001 629.9444,-142.5001"/>
</g>
<!-- Node300&#45;&gt;Node284 -->
<g id="edge24" class="edge">
<title>Node300&#45;&gt;Node284</title>
<path fill="none" stroke="#191970" d="M714.0696,-148.5854C736.3654,-161.8846 777.2359,-186.2635 806.4756,-203.7048"/>
<polygon fill="#191970" stroke="#191970" points="804.762,-206.7579 815.1432,-208.8749 808.348,-200.7462 804.762,-206.7579"/>
</g>
<!-- Node300&#45;&gt;Node295 -->
<g id="edge25" class="edge">
<title>Node300&#45;&gt;Node295</title>
<path fill="none" stroke="#191970" d="M743.9722,-129.4482C789.7492,-120.0883 862.077,-105.7085 925,-95 993.0438,-83.4201 1071.5095,-72.2055 1124.0827,-64.9985"/>
<polygon fill="#191970" stroke="#191970" points="1124.8067,-68.4322 1134.2413,-63.6116 1123.8598,-61.4966 1124.8067,-68.4322"/>
</g>
</g>
</svg>
