<?xml version="1.0" encoding="UTF-8" standalone="no"?>
<!DOCTYPE svg PUBLIC "-//W3C//DTD SVG 1.1//EN"
 "http://www.w3.org/Graphics/SVG/1.1/DTD/svg11.dtd">
<!-- Generated by graphviz version 2.40.1 (20161225.0304)
 -->
<!-- Title: openage::UnitSelection::all_invoke Pages: 1 -->
<svg width="425pt" height="61pt"
 viewBox="0.00 0.00 425.00 61.00" xmlns="http://www.w3.org/2000/svg" xmlns:xlink="http://www.w3.org/1999/xlink">
<g id="graph0" class="graph" transform="scale(1 1) rotate(0) translate(4 57)">
<title>openage::UnitSelection::all_invoke</title>
<polygon fill="#ffffff" stroke="transparent" points="-4,4 -4,-57 421,-57 421,4 -4,4"/>
<!-- Node28 -->
<g id="node1" class="node">
<title>Node28</title>
<polygon fill="#bfbfbf" stroke="#000000" points="0,-22.5 0,-52.5 118,-52.5 118,-22.5 0,-22.5"/>
<text text-anchor="start" x="8" y="-40.5" font-family="Helvetica,sans-Serif" font-size="10.00" fill="#000000">openage::UnitSelection</text>
<text text-anchor="middle" x="59" y="-29.5" font-family="Helvetica,sans-Serif" font-size="10.00" fill="#000000">::all_invoke</text>
</g>
<!-- Node29 -->
<g id="node2" class="node">
<title>Node29</title>
<g id="a_node2"><a xlink:href="../../d8/d06/classopenage_1_1_action_mode.xhtml#a43f98279255b857ee8fa9943117271e8" target="_top" xlink:title="Called after GameControl has been set by QML from set_game_control. ">
<polygon fill="#ffffff" stroke="#000000" points="301,-22.5 301,-52.5 417,-52.5 417,-22.5 301,-22.5"/>
<text text-anchor="start" x="309" y="-40.5" font-family="Helvetica,sans-Serif" font-size="10.00" fill="#000000">openage::ActionMode</text>
<text text-anchor="middle" x="359" y="-29.5" font-family="Helvetica,sans-Serif" font-size="10.00" fill="#000000">::on_game_control_set</text>
</a>
</g>
</g>
<!-- Node28&#45;&gt;Node29 -->
<g id="edge1" class="edge">
<title>Node28&#45;&gt;Node29</title>
<path fill="none" stroke="#191970" d="M128.1724,-39.9392C136.8668,-40.1708 145.6395,-40.368 154,-40.5 203.3272,-41.2787 215.6729,-41.2869 265,-40.5 276.5912,-40.3151 288.9834,-40.002 300.8406,-39.646"/>
<polygon fill="#191970" stroke="#191970" points="128.1261,-36.4366 118.0315,-39.6535 127.9289,-43.4338 128.1261,-36.4366"/>
</g>
<!-- Node30 -->
<g id="node3" class="node">
<title>Node30</title>
<g id="a_node3"><a xlink:href="../../d8/d06/classopenage_1_1_action_mode.xhtml#a3865e557756044d8183a3d24cd5b8ab4" target="_top" xlink:title="places hovering building ">
<polygon fill="#ffffff" stroke="#000000" points="154,-.5 154,-30.5 265,-30.5 265,-.5 154,-.5"/>
<text text-anchor="start" x="162" y="-18.5" font-family="Helvetica,sans-Serif" font-size="10.00" fill="#000000">openage::ActionMode</text>
<text text-anchor="middle" x="209.5" y="-7.5" font-family="Helvetica,sans-Serif" font-size="10.00" fill="#000000">::place_selection</text>
</a>
</g>
</g>
<!-- Node28&#45;&gt;Node30 -->
<g id="edge2" class="edge">
<title>Node28&#45;&gt;Node30</title>
<path fill="none" stroke="#191970" d="M128.0195,-27.4108C136.5775,-26.1598 145.2437,-24.8929 153.5713,-23.6756"/>
<polygon fill="#191970" stroke="#191970" points="127.4382,-23.9585 118.0496,-28.8682 128.4507,-30.8848 127.4382,-23.9585"/>
</g>
<!-- Node30&#45;&gt;Node29 -->
<g id="edge3" class="edge">
<title>Node30&#45;&gt;Node29</title>
<path fill="none" stroke="#191970" d="M275.1039,-25.1541C283.6543,-26.4123 292.3668,-27.6944 300.7847,-28.9332"/>
<polygon fill="#191970" stroke="#191970" points="275.5713,-21.6853 265.1683,-23.692 274.5521,-28.6107 275.5713,-21.6853"/>
</g>
</g>
</svg>
