<?xml version="1.0" encoding="UTF-8" standalone="no"?>
<!DOCTYPE svg PUBLIC "-//W3C//DTD SVG 1.1//EN"
 "http://www.w3.org/Graphics/SVG/1.1/DTD/svg11.dtd">
<!-- Generated by graphviz version 2.40.1 (20161225.0304)
 -->
<!-- Title: openage.convert.dataformat.content_snippet.ContentSnippet.get_data Pages: 1 -->
<svg width="419pt" height="39pt"
 viewBox="0.00 0.00 419.00 39.00" xmlns="http://www.w3.org/2000/svg" xmlns:xlink="http://www.w3.org/1999/xlink">
<g id="graph0" class="graph" transform="scale(1 1) rotate(0) translate(4 35)">
<title>openage.convert.dataformat.content_snippet.ContentSnippet.get_data</title>
<polygon fill="#ffffff" stroke="transparent" points="-4,4 -4,-35 415,-35 415,4 -4,4"/>
<!-- Node32 -->
<g id="node1" class="node">
<title>Node32</title>
<polygon fill="#bfbfbf" stroke="#000000" points="0,-.5 0,-30.5 173,-30.5 173,-.5 0,-.5"/>
<text text-anchor="start" x="8" y="-18.5" font-family="Helvetica,sans-Serif" font-size="10.00" fill="#000000">openage.convert.dataformat.content</text>
<text text-anchor="middle" x="86.5" y="-7.5" font-family="Helvetica,sans-Serif" font-size="10.00" fill="#000000">_snippet.ContentSnippet.get_data</text>
</g>
<!-- Node33 -->
<g id="node2" class="node">
<title>Node33</title>
<g id="a_node2"><a xlink:href="../../d3/d4a/classopenage_1_1convert_1_1dataformat_1_1content__snippet_1_1_content_snippet.xhtml#afc550a2b9cedfe1e91a8852514cc0ecb" target="_top" xlink:title="openage.convert.dataformat.content\l_snippet.ContentSnippet.generate_content">
<polygon fill="#ffffff" stroke="#000000" points="209,-.5 209,-30.5 411,-30.5 411,-.5 209,-.5"/>
<text text-anchor="start" x="217" y="-18.5" font-family="Helvetica,sans-Serif" font-size="10.00" fill="#000000">openage.convert.dataformat.content</text>
<text text-anchor="middle" x="310" y="-7.5" font-family="Helvetica,sans-Serif" font-size="10.00" fill="#000000">_snippet.ContentSnippet.generate_content</text>
</a>
</g>
</g>
<!-- Node32&#45;&gt;Node33 -->
<g id="edge1" class="edge">
<title>Node32&#45;&gt;Node33</title>
<path fill="none" stroke="#191970" d="M173.2308,-15.5C181.6092,-15.5 190.1853,-15.5 198.7575,-15.5"/>
<polygon fill="#191970" stroke="#191970" points="198.8066,-19.0001 208.8065,-15.5 198.8065,-12.0001 198.8066,-19.0001"/>
</g>
</g>
</svg>
