<?xml version="1.0" encoding="UTF-8" standalone="no"?>
<!DOCTYPE svg PUBLIC "-//W3C//DTD SVG 1.1//EN"
 "http://www.w3.org/Graphics/SVG/1.1/DTD/svg11.dtd">
<!-- Generated by graphviz version 2.40.1 (20161225.0304)
 -->
<!-- Title: /mnt/c/Users/Jameson/Desktop/git/openage&#45;new&#45;doc&#45;system/libopenage/gui/guisys/private/livereload/recursive_directory_watcher_worker.cpp Pages: 1 -->
<svg width="468pt" height="206pt"
 viewBox="0.00 0.00 467.50 206.00" xmlns="http://www.w3.org/2000/svg" xmlns:xlink="http://www.w3.org/1999/xlink">
<g id="graph0" class="graph" transform="scale(1 1) rotate(0) translate(4 202)">
<title>/mnt/c/Users/Jameson/Desktop/git/openage&#45;new&#45;doc&#45;system/libopenage/gui/guisys/private/livereload/recursive_directory_watcher_worker.cpp</title>
<polygon fill="#ffffff" stroke="transparent" points="-4,4 -4,-202 463.5,-202 463.5,4 -4,4"/>
<!-- Node0 -->
<g id="node1" class="node">
<title>Node0</title>
<polygon fill="#bfbfbf" stroke="#000000" points="243,-123.5 243,-197.5 385,-197.5 385,-123.5 243,-123.5"/>
<text text-anchor="start" x="251" y="-185.5" font-family="Helvetica,sans-Serif" font-size="10.00" fill="#000000">/mnt/c/Users/Jameson</text>
<text text-anchor="start" x="251" y="-174.5" font-family="Helvetica,sans-Serif" font-size="10.00" fill="#000000">/Desktop/git/openage</text>
<text text-anchor="start" x="251" y="-163.5" font-family="Helvetica,sans-Serif" font-size="10.00" fill="#000000">&#45;new&#45;doc&#45;system/libopenage</text>
<text text-anchor="start" x="251" y="-152.5" font-family="Helvetica,sans-Serif" font-size="10.00" fill="#000000">/gui/guisys/private/livereload</text>
<text text-anchor="start" x="251" y="-141.5" font-family="Helvetica,sans-Serif" font-size="10.00" fill="#000000">/recursive_directory_watcher</text>
<text text-anchor="middle" x="314" y="-130.5" font-family="Helvetica,sans-Serif" font-size="10.00" fill="#000000">_worker.cpp</text>
</g>
<!-- Node1 -->
<g id="node2" class="node">
<title>Node1</title>
<g id="a_node2"><a xlink:href="../../d4/da8/recursive__directory__watcher__worker_8h.xhtml" target="_top" xlink:title="recursive_directory\l_watcher_worker.h">
<polygon fill="#ffffff" stroke="#000000" points="128.5,-56.5 128.5,-86.5 227.5,-86.5 227.5,-56.5 128.5,-56.5"/>
<text text-anchor="start" x="136.5" y="-74.5" font-family="Helvetica,sans-Serif" font-size="10.00" fill="#000000">recursive_directory</text>
<text text-anchor="middle" x="178" y="-63.5" font-family="Helvetica,sans-Serif" font-size="10.00" fill="#000000">_watcher_worker.h</text>
</a>
</g>
</g>
<!-- Node0&#45;&gt;Node1 -->
<g id="edge1" class="edge">
<title>Node0&#45;&gt;Node1</title>
<path fill="none" stroke="#191970" d="M257.1118,-123.2717C240.8368,-112.6211 223.689,-101.3994 209.5345,-92.1366"/>
<polygon fill="#191970" stroke="#191970" points="211.4269,-89.1921 201.1428,-86.6449 207.5938,-95.0494 211.4269,-89.1921"/>
</g>
<!-- Node6 -->
<g id="node7" class="node">
<title>Node6</title>
<polygon fill="#ffffff" stroke="#bfbfbf" points="246,-62 246,-81 302,-81 302,-62 246,-62"/>
<text text-anchor="middle" x="274" y="-69" font-family="Helvetica,sans-Serif" font-size="10.00" fill="#000000">algorithm</text>
</g>
<!-- Node0&#45;&gt;Node6 -->
<g id="edge6" class="edge">
<title>Node0&#45;&gt;Node6</title>
<path fill="none" stroke="#191970" d="M297.2682,-123.2717C292.1743,-111.9379 286.7898,-99.9573 282.4848,-90.3788"/>
<polygon fill="#191970" stroke="#191970" points="285.5939,-88.7584 278.3021,-81.0721 279.2091,-91.628 285.5939,-88.7584"/>
</g>
<!-- Node7 -->
<g id="node8" class="node">
<title>Node7</title>
<polygon fill="#ffffff" stroke="#bfbfbf" points="320,-62 320,-81 388,-81 388,-62 320,-62"/>
<text text-anchor="middle" x="354" y="-69" font-family="Helvetica,sans-Serif" font-size="10.00" fill="#000000">QDirIterator</text>
</g>
<!-- Node0&#45;&gt;Node7 -->
<g id="edge7" class="edge">
<title>Node0&#45;&gt;Node7</title>
<path fill="none" stroke="#191970" d="M330.7318,-123.2717C335.8257,-111.9379 341.2102,-99.9573 345.5152,-90.3788"/>
<polygon fill="#191970" stroke="#191970" points="348.7909,-91.628 349.6979,-81.0721 342.4061,-88.7584 348.7909,-91.628"/>
</g>
<!-- Node8 -->
<g id="node9" class="node">
<title>Node8</title>
<polygon fill="#ffffff" stroke="#bfbfbf" points="406.5,-62 406.5,-81 459.5,-81 459.5,-62 406.5,-62"/>
<text text-anchor="middle" x="433" y="-69" font-family="Helvetica,sans-Serif" font-size="10.00" fill="#000000">QDebug</text>
</g>
<!-- Node0&#45;&gt;Node8 -->
<g id="edge8" class="edge">
<title>Node0&#45;&gt;Node8</title>
<path fill="none" stroke="#191970" d="M363.7772,-123.2717C380.7047,-110.6116 398.7113,-97.1445 412.1153,-87.1196"/>
<polygon fill="#191970" stroke="#191970" points="414.2895,-89.8642 420.2014,-81.0721 410.097,-84.2585 414.2895,-89.8642"/>
</g>
<!-- Node2 -->
<g id="node3" class="node">
<title>Node2</title>
<polygon fill="#ffffff" stroke="#bfbfbf" points="0,-.5 0,-19.5 52,-19.5 52,-.5 0,-.5"/>
<text text-anchor="middle" x="26" y="-7.5" font-family="Helvetica,sans-Serif" font-size="10.00" fill="#000000">memory</text>
</g>
<!-- Node1&#45;&gt;Node2 -->
<g id="edge2" class="edge">
<title>Node1&#45;&gt;Node2</title>
<path fill="none" stroke="#191970" d="M140.8166,-56.4554C115.7887,-46.329 83.0837,-33.0964 58.9834,-23.3453"/>
<polygon fill="#191970" stroke="#191970" points="60.1373,-20.0366 49.5546,-19.5303 57.5118,-26.5256 60.1373,-20.0366"/>
</g>
<!-- Node3 -->
<g id="node4" class="node">
<title>Node3</title>
<polygon fill="#ffffff" stroke="#bfbfbf" points="70,-.5 70,-19.5 180,-19.5 180,-.5 70,-.5"/>
<text text-anchor="middle" x="125" y="-7.5" font-family="Helvetica,sans-Serif" font-size="10.00" fill="#000000">QFileSystemWatcher</text>
</g>
<!-- Node1&#45;&gt;Node3 -->
<g id="edge3" class="edge">
<title>Node1&#45;&gt;Node3</title>
<path fill="none" stroke="#191970" d="M164.8989,-56.2977C157.3887,-47.5831 147.93,-36.6075 140.1073,-27.5302"/>
<polygon fill="#191970" stroke="#191970" points="142.6655,-25.1372 133.486,-19.8469 137.3629,-29.707 142.6655,-25.1372"/>
</g>
<!-- Node4 -->
<g id="node5" class="node">
<title>Node4</title>
<polygon fill="#ffffff" stroke="#bfbfbf" points="198.5,-.5 198.5,-19.5 263.5,-19.5 263.5,-.5 198.5,-.5"/>
<text text-anchor="middle" x="231" y="-7.5" font-family="Helvetica,sans-Serif" font-size="10.00" fill="#000000">QStringList</text>
</g>
<!-- Node1&#45;&gt;Node4 -->
<g id="edge4" class="edge">
<title>Node1&#45;&gt;Node4</title>
<path fill="none" stroke="#191970" d="M191.1011,-56.2977C198.6113,-47.5831 208.07,-36.6075 215.8927,-27.5302"/>
<polygon fill="#191970" stroke="#191970" points="218.6371,-29.707 222.514,-19.8469 213.3345,-25.1372 218.6371,-29.707"/>
</g>
<!-- Node5 -->
<g id="node6" class="node">
<title>Node5</title>
<polygon fill="#ffffff" stroke="#bfbfbf" points="281.5,-.5 281.5,-19.5 330.5,-19.5 330.5,-.5 281.5,-.5"/>
<text text-anchor="middle" x="306" y="-7.5" font-family="Helvetica,sans-Serif" font-size="10.00" fill="#000000">QTimer</text>
</g>
<!-- Node1&#45;&gt;Node5 -->
<g id="edge5" class="edge">
<title>Node1&#45;&gt;Node5</title>
<path fill="none" stroke="#191970" d="M209.3123,-56.4554C230.0138,-46.509 256.9523,-33.5659 277.1353,-23.8686"/>
<polygon fill="#191970" stroke="#191970" points="278.6667,-27.0159 286.1645,-19.5303 275.6352,-20.7064 278.6667,-27.0159"/>
</g>
</g>
</svg>
