<?xml version="1.0" encoding="UTF-8" standalone="no"?>
<!DOCTYPE svg PUBLIC "-//W3C//DTD SVG 1.1//EN"
 "http://www.w3.org/Graphics/SVG/1.1/DTD/svg11.dtd">
<!-- Generated by graphviz version 2.40.1 (20161225.0304)
 -->
<!-- Title: /mnt/c/Users/Jameson/Desktop/git/openage&#45;new&#45;doc&#45;system/libopenage/datastructure/concurrent_queue.h Pages: 1 -->
<svg width="290pt" height="128pt"
 viewBox="0.00 0.00 289.50 128.00" xmlns="http://www.w3.org/2000/svg" xmlns:xlink="http://www.w3.org/1999/xlink">
<g id="graph0" class="graph" transform="scale(1 1) rotate(0) translate(4 124)">
<title>/mnt/c/Users/Jameson/Desktop/git/openage&#45;new&#45;doc&#45;system/libopenage/datastructure/concurrent_queue.h</title>
<polygon fill="#ffffff" stroke="transparent" points="-4,4 -4,-124 285.5,-124 285.5,4 -4,4"/>
<!-- Node0 -->
<g id="node1" class="node">
<title>Node0</title>
<polygon fill="#bfbfbf" stroke="#000000" points="96,-56.5 96,-119.5 237,-119.5 237,-56.5 96,-56.5"/>
<text text-anchor="start" x="104" y="-107.5" font-family="Helvetica,sans-Serif" font-size="10.00" fill="#000000">/mnt/c/Users/Jameson</text>
<text text-anchor="start" x="104" y="-96.5" font-family="Helvetica,sans-Serif" font-size="10.00" fill="#000000">/Desktop/git/openage</text>
<text text-anchor="start" x="104" y="-85.5" font-family="Helvetica,sans-Serif" font-size="10.00" fill="#000000">&#45;new&#45;doc&#45;system/libopenage</text>
<text text-anchor="start" x="104" y="-74.5" font-family="Helvetica,sans-Serif" font-size="10.00" fill="#000000">/datastructure/concurrent</text>
<text text-anchor="middle" x="166.5" y="-63.5" font-family="Helvetica,sans-Serif" font-size="10.00" fill="#000000">_queue.h</text>
</g>
<!-- Node1 -->
<g id="node2" class="node">
<title>Node1</title>
<polygon fill="#ffffff" stroke="#bfbfbf" points="0,-.5 0,-19.5 95,-19.5 95,-.5 0,-.5"/>
<text text-anchor="middle" x="47.5" y="-7.5" font-family="Helvetica,sans-Serif" font-size="10.00" fill="#000000">condition_variable</text>
</g>
<!-- Node0&#45;&gt;Node1 -->
<g id="edge1" class="edge">
<title>Node0&#45;&gt;Node1</title>
<path fill="none" stroke="#191970" d="M118.4412,-56.4992C101.9842,-45.7123 84.3136,-34.13 70.7252,-25.2232"/>
<polygon fill="#191970" stroke="#191970" points="72.3172,-22.0819 62.035,-19.5271 68.4798,-27.9364 72.3172,-22.0819"/>
</g>
<!-- Node2 -->
<g id="node3" class="node">
<title>Node2</title>
<polygon fill="#ffffff" stroke="#bfbfbf" points="113.5,-.5 113.5,-19.5 157.5,-19.5 157.5,-.5 113.5,-.5"/>
<text text-anchor="middle" x="135.5" y="-7.5" font-family="Helvetica,sans-Serif" font-size="10.00" fill="#000000">mutex</text>
</g>
<!-- Node0&#45;&gt;Node2 -->
<g id="edge2" class="edge">
<title>Node0&#45;&gt;Node2</title>
<path fill="none" stroke="#191970" d="M153.8911,-56.2744C150.2138,-47.0218 146.3114,-37.2028 143.0519,-29.0015"/>
<polygon fill="#191970" stroke="#191970" points="146.2783,-27.6428 139.3323,-19.6426 139.7732,-30.2282 146.2783,-27.6428"/>
</g>
<!-- Node3 -->
<g id="node4" class="node">
<title>Node3</title>
<polygon fill="#ffffff" stroke="#bfbfbf" points="176,-.5 176,-19.5 219,-19.5 219,-.5 176,-.5"/>
<text text-anchor="middle" x="197.5" y="-7.5" font-family="Helvetica,sans-Serif" font-size="10.00" fill="#000000">queue</text>
</g>
<!-- Node0&#45;&gt;Node3 -->
<g id="edge3" class="edge">
<title>Node0&#45;&gt;Node3</title>
<path fill="none" stroke="#191970" d="M179.1089,-56.2744C182.7862,-47.0218 186.6886,-37.2028 189.9481,-29.0015"/>
<polygon fill="#191970" stroke="#191970" points="193.2268,-30.2282 193.6677,-19.6426 186.7217,-27.6428 193.2268,-30.2282"/>
</g>
<!-- Node4 -->
<g id="node5" class="node">
<title>Node4</title>
<polygon fill="#ffffff" stroke="#bfbfbf" points="237.5,-.5 237.5,-19.5 281.5,-19.5 281.5,-.5 237.5,-.5"/>
<text text-anchor="middle" x="259.5" y="-7.5" font-family="Helvetica,sans-Serif" font-size="10.00" fill="#000000">thread</text>
</g>
<!-- Node0&#45;&gt;Node4 -->
<g id="edge4" class="edge">
<title>Node0&#45;&gt;Node4</title>
<path fill="none" stroke="#191970" d="M204.0586,-56.4992C216.4694,-46.0902 229.7633,-34.9405 240.2216,-26.169"/>
<polygon fill="#191970" stroke="#191970" points="242.5172,-28.8117 247.93,-19.7039 238.0189,-23.4483 242.5172,-28.8117"/>
</g>
</g>
</svg>
