<?xml version="1.0" encoding="UTF-8" standalone="no"?>
<!DOCTYPE svg PUBLIC "-//W3C//DTD SVG 1.1//EN"
 "http://www.w3.org/Graphics/SVG/1.1/DTD/svg11.dtd">
<!-- Generated by graphviz version 2.40.1 (20161225.0304)
 -->
<!-- Title: openage::console::Console::interpret Pages: 1 -->
<!--zoomable 313 -->
<svg id="main" version="1.1" xmlns="http://www.w3.org/2000/svg" xmlns:xlink="http://www.w3.org/1999/xlink" xml:space="preserve" onload="init(evt)">
<style type="text/css"><![CDATA[
.edge:hover path { stroke: red; }
.edge:hover polygon { stroke: red; fill: red; }
]]></style>
<script type="text/javascript"><![CDATA[
var edges = document.getElementsByTagName('g');
if (edges && edges.length) {
  for (var i=0;i<edges.length;i++) {
    if (edges[i].id.substr(0,4)=='edge') {
      edges[i].setAttribute('class','edge');
    }
  }
}
]]></script>
        <defs>
                <circle id="rim" cx="0" cy="0" r="7"/>
                <circle id="rim2" cx="0" cy="0" r="3.5"/>
                <g id="zoomPlus">
                        <use xlink:href="#rim" fill="#404040">
                                <set attributeName="fill" to="#808080" begin="zoomplus.mouseover" end="zoomplus.mouseout"/>
                        </use>
                        <path d="M-4,0h8M0,-4v8" fill="none" stroke="white" stroke-width="1.5" pointer-events="none"/>
                </g>
                <g id="zoomMin">
                        <use xlink:href="#rim" fill="#404040">
                                <set attributeName="fill" to="#808080" begin="zoomminus.mouseover" end="zoomminus.mouseout"/>
                        </use>
                        <path d="M-4,0h8" fill="none" stroke="white" stroke-width="1.5" pointer-events="none"/>
                </g>
                <g id="dirArrow">
                        <path fill="none" stroke="white" stroke-width="1.5" d="M0,-3.0v7 M-2.5,-0.5L0,-3.0L2.5,-0.5"/>
                </g>
               <g id="resetDef">
                       <use xlink:href="#rim2" fill="#404040">
                               <set attributeName="fill" to="#808080" begin="reset.mouseover" end="reset.mouseout"/>
                       </use>
               </g>
        </defs>

<script type="text/javascript">
var viewWidth = 704;
var viewHeight = 313;
var sectionId = 'dynsection-3';
</script>
<script xlink:href="../../svgpan.js"/>
<svg id="graph" class="graph">
<g id="viewport">
<title>openage::console::Console::interpret</title>
<polygon fill="#ffffff" stroke="transparent" points="-4,4 -4,-308.5 700,-308.5 700,4 -4,4"/>
<!-- Node18 -->
<g id="node1" class="node">
<title>Node18</title>
<polygon fill="#bfbfbf" stroke="#000000" points="0,-164.5 0,-194.5 135,-194.5 135,-164.5 0,-164.5"/>
<text text-anchor="start" x="8" y="-182.5" font-family="Helvetica,sans-Serif" font-size="10.00" fill="#000000">openage::console::Console</text>
<text text-anchor="middle" x="67.5" y="-171.5" font-family="Helvetica,sans-Serif" font-size="10.00" fill="#000000">::interpret</text>
</g>
<!-- Node19 -->
<g id="node2" class="node">
<title>Node19</title>
<g id="a_node2"><a xlink:href="../../db/db2/classopenage_1_1cvar_1_1_c_var_manager.xhtml#abf47769212763bbf43146a97443779da" target="_top" xlink:title="Gets the value of a config entry. ">
<polygon fill="#ffffff" stroke="#000000" points="171,-285 171,-304 335,-304 335,-285 171,-285"/>
<text text-anchor="middle" x="253" y="-292" font-family="Helvetica,sans-Serif" font-size="10.00" fill="#000000">openage::cvar::CVarManager::get</text>
</a>
</g>
</g>
<!-- Node18&#45;&gt;Node19 -->
<g id="edge1" class="edge">
<title>Node18&#45;&gt;Node19</title>
<path fill="none" stroke="#191970" d="M79.4398,-194.7506C97.0852,-216.1972 132.246,-254.9407 171,-275.5 175.4839,-277.8788 180.2606,-279.9618 185.1682,-281.7856"/>
<polygon fill="#191970" stroke="#191970" points="184.1304,-285.129 194.7243,-284.9828 186.3515,-278.4907 184.1304,-285.129"/>
</g>
<!-- Node20 -->
<g id="node3" class="node">
<title>Node20</title>
<g id="a_node3"><a xlink:href="../../d6/d40/classopenage_1_1_engine.xhtml#ab9a7642ba035448c4a3c22e11ad40646" target="_top" xlink:title="return this engine&#39;s cvar manager. ">
<polygon fill="#ffffff" stroke="#000000" points="198.5,-235.5 198.5,-265.5 307.5,-265.5 307.5,-235.5 198.5,-235.5"/>
<text text-anchor="start" x="206.5" y="-253.5" font-family="Helvetica,sans-Serif" font-size="10.00" fill="#000000">openage::Engine::get</text>
<text text-anchor="middle" x="253" y="-242.5" font-family="Helvetica,sans-Serif" font-size="10.00" fill="#000000">_cvar_manager</text>
</a>
</g>
</g>
<!-- Node18&#45;&gt;Node20 -->
<g id="edge2" class="edge">
<title>Node18&#45;&gt;Node20</title>
<path fill="none" stroke="#191970" d="M97.8191,-194.642C118.2011,-204.4777 145.839,-217.1585 171,-226.5 176.7492,-228.6345 182.7801,-230.7055 188.8519,-232.6779"/>
<polygon fill="#191970" stroke="#191970" points="187.8023,-236.0168 198.3921,-235.6911 189.9106,-229.3418 187.8023,-236.0168"/>
</g>
<!-- Node21 -->
<g id="node4" class="node">
<title>Node21</title>
<g id="a_node4"><a xlink:href="../../d9/d52/classopenage_1_1options_1_1_option_node.xhtml#a39b02a21c2c4b5693dba2e515a81dd2d" target="_top" xlink:title="lists all available options in a readable format ">
<polygon fill="#ffffff" stroke="#000000" points="190.5,-186.5 190.5,-216.5 315.5,-216.5 315.5,-186.5 190.5,-186.5"/>
<text text-anchor="start" x="198.5" y="-204.5" font-family="Helvetica,sans-Serif" font-size="10.00" fill="#000000">openage::options::Option</text>
<text text-anchor="middle" x="253" y="-193.5" font-family="Helvetica,sans-Serif" font-size="10.00" fill="#000000">Node::list_options</text>
</a>
</g>
</g>
<!-- Node18&#45;&gt;Node21 -->
<g id="edge3" class="edge">
<title>Node18&#45;&gt;Node21</title>
<path fill="none" stroke="#191970" d="M135.2572,-187.5359C149.8891,-189.2712 165.4178,-191.1129 180.2324,-192.8699"/>
<polygon fill="#191970" stroke="#191970" points="180.0121,-196.3682 190.3548,-194.0704 180.8366,-189.4169 180.0121,-196.3682"/>
</g>
<!-- Node24 -->
<g id="node7" class="node">
<title>Node24</title>
<g id="a_node7"><a xlink:href="../../db/db2/classopenage_1_1cvar_1_1_c_var_manager.xhtml#a972739b7927c488b0761a10319653e8a" target="_top" xlink:title="Sets the config entry value. ">
<polygon fill="#ffffff" stroke="#000000" points="171,-148 171,-167 335,-167 335,-148 171,-148"/>
<text text-anchor="middle" x="253" y="-155" font-family="Helvetica,sans-Serif" font-size="10.00" fill="#000000">openage::cvar::CVarManager::set</text>
</a>
</g>
</g>
<!-- Node18&#45;&gt;Node24 -->
<g id="edge7" class="edge">
<title>Node18&#45;&gt;Node24</title>
<path fill="none" stroke="#191970" d="M135.2572,-171.4641C144.2259,-170.4004 153.5315,-169.2968 162.803,-168.1972"/>
<polygon fill="#191970" stroke="#191970" points="163.3146,-171.6612 172.8327,-167.0077 162.4901,-164.7099 163.3146,-171.6612"/>
</g>
<!-- Node25 -->
<g id="node8" class="node">
<title>Node25</title>
<g id="a_node8"><a xlink:href="../../d7/d6d/classopenage_1_1console_1_1_console.xhtml#a8a86e7fece57c47da16e37633c624ece" target="_top" xlink:title="openage::console::Console\l::set_visible">
<polygon fill="#ffffff" stroke="#000000" points="185.5,-98.5 185.5,-128.5 320.5,-128.5 320.5,-98.5 185.5,-98.5"/>
<text text-anchor="start" x="193.5" y="-116.5" font-family="Helvetica,sans-Serif" font-size="10.00" fill="#000000">openage::console::Console</text>
<text text-anchor="middle" x="253" y="-105.5" font-family="Helvetica,sans-Serif" font-size="10.00" fill="#000000">::set_visible</text>
</a>
</g>
</g>
<!-- Node18&#45;&gt;Node25 -->
<g id="edge8" class="edge">
<title>Node18&#45;&gt;Node25</title>
<path fill="none" stroke="#191970" d="M103.6321,-164.3518C123.3887,-156.2809 148.3787,-146.4142 171,-138.5 177.5126,-136.2215 184.3556,-133.9484 191.1957,-131.7534"/>
<polygon fill="#191970" stroke="#191970" points="192.6943,-134.9506 201.1764,-128.602 190.5866,-128.2755 192.6943,-134.9506"/>
</g>
<!-- Node31 -->
<g id="node14" class="node">
<title>Node31</title>
<g id="a_node14"><a xlink:href="../../d7/d6d/classopenage_1_1console_1_1_console.xhtml#a4d97e8f7fc2d7ba24490bf5f0b494332" target="_top" xlink:title="prints the given text on the console. ">
<polygon fill="#ffffff" stroke="#000000" points="185.5,-25.5 185.5,-55.5 320.5,-55.5 320.5,-25.5 185.5,-25.5"/>
<text text-anchor="start" x="193.5" y="-43.5" font-family="Helvetica,sans-Serif" font-size="10.00" fill="#000000">openage::console::Console</text>
<text text-anchor="middle" x="253" y="-32.5" font-family="Helvetica,sans-Serif" font-size="10.00" fill="#000000">::write</text>
</a>
</g>
</g>
<!-- Node18&#45;&gt;Node31 -->
<g id="edge14" class="edge">
<title>Node18&#45;&gt;Node31</title>
<path fill="none" stroke="#191970" d="M83.2498,-164.2261C102.9265,-145.5251 138.0307,-113.3965 171,-89.5 185.2336,-79.1833 201.7387,-69.0092 216.1939,-60.6284"/>
<polygon fill="#191970" stroke="#191970" points="217.9463,-63.6582 224.8908,-55.6566 214.4722,-57.5811 217.9463,-63.6582"/>
</g>
<!-- Node22 -->
<g id="node5" class="node">
<title>Node22</title>
<g id="a_node5"><a xlink:href="../../d5/d0e/namespaceopenage_1_1testing_1_1testing.xhtml#ac25bf81db406af62d08113ef7ae9fd6e" target="_top" xlink:title="openage.testing.testing.result">
<polygon fill="#ffffff" stroke="#000000" points="371.5,-197 371.5,-216 516.5,-216 516.5,-197 371.5,-197"/>
<text text-anchor="middle" x="444" y="-204" font-family="Helvetica,sans-Serif" font-size="10.00" fill="#000000">openage.testing.testing.result</text>
</a>
</g>
</g>
<!-- Node21&#45;&gt;Node22 -->
<g id="edge4" class="edge">
<title>Node21&#45;&gt;Node22</title>
<path fill="none" stroke="#191970" d="M315.5405,-203.1372C330.177,-203.5203 345.9908,-203.9343 361.3527,-204.3365"/>
<polygon fill="#191970" stroke="#191970" points="361.2773,-207.8356 371.3655,-204.5986 361.4605,-200.838 361.2773,-207.8356"/>
</g>
<!-- Node23 -->
<g id="node6" class="node">
<title>Node23</title>
<g id="a_node6"><a xlink:href="../../de/d60/namespaceopenage_1_1util.xhtml#a7bc4421a5f0f57f3a0aba3f96eb8d19c" target="_top" xlink:title="method that behaves similar to python&#39;s &quot;repr&quot;. ">
<polygon fill="#ffffff" stroke="#000000" points="577,-197 577,-216 672,-216 672,-197 577,-197"/>
<text text-anchor="middle" x="624.5" y="-204" font-family="Helvetica,sans-Serif" font-size="10.00" fill="#000000">openage::util::repr</text>
</a>
</g>
</g>
<!-- Node22&#45;&gt;Node23 -->
<g id="edge5" class="edge">
<title>Node22&#45;&gt;Node23</title>
<path fill="none" stroke="#191970" d="M516.636,-199.8656C533.2703,-199.6447 550.7352,-199.7404 566.6502,-200.1525"/>
<polygon fill="#191970" stroke="#191970" points="566.7568,-203.6574 576.8604,-200.4689 566.9736,-196.6607 566.7568,-203.6574"/>
</g>
<!-- Node23&#45;&gt;Node22 -->
<g id="edge6" class="edge">
<title>Node23&#45;&gt;Node22</title>
<path fill="none" stroke="#191970" d="M576.8604,-212.5311C561.4507,-213.0924 543.8899,-213.325 526.6972,-213.2289"/>
<polygon fill="#191970" stroke="#191970" points="526.6685,-209.7286 516.636,-213.1344 526.6027,-216.7283 526.6685,-209.7286"/>
</g>
<!-- Node26 -->
<g id="node9" class="node">
<title>Node26</title>
<g id="a_node9"><a xlink:href="../../d6/d40/classopenage_1_1_engine.xhtml#a248149eac4678d70fe55d6ba5cdc695a" target="_top" xlink:title="return this engine&#39;s keybind manager. ">
<polygon fill="#ffffff" stroke="#000000" points="389.5,-147.5 389.5,-177.5 498.5,-177.5 498.5,-147.5 389.5,-147.5"/>
<text text-anchor="start" x="397.5" y="-165.5" font-family="Helvetica,sans-Serif" font-size="10.00" fill="#000000">openage::Engine::get</text>
<text text-anchor="middle" x="444" y="-154.5" font-family="Helvetica,sans-Serif" font-size="10.00" fill="#000000">_input_manager</text>
</a>
</g>
</g>
<!-- Node25&#45;&gt;Node26 -->
<g id="edge9" class="edge">
<title>Node25&#45;&gt;Node26</title>
<path fill="none" stroke="#191970" d="M311.6043,-128.5346C333.0957,-134.0481 357.533,-140.3174 379.5119,-145.9559"/>
<polygon fill="#191970" stroke="#191970" points="378.8618,-149.4024 389.4179,-148.4973 380.6013,-142.622 378.8618,-149.4024"/>
</g>
<!-- Node27 -->
<g id="node10" class="node">
<title>Node27</title>
<g id="a_node10"><a xlink:href="../../d7/df3/classopenage_1_1input_1_1_input_manager.xhtml#a2ece2b2ad4a08c15fb00a39b0f553d3c" target="_top" xlink:title="register a hotkey context by pushing it onto the stack. ">
<polygon fill="#ffffff" stroke="#000000" points="371,-98.5 371,-128.5 517,-128.5 517,-98.5 371,-98.5"/>
<text text-anchor="start" x="379" y="-116.5" font-family="Helvetica,sans-Serif" font-size="10.00" fill="#000000">openage::input::InputManager</text>
<text text-anchor="middle" x="444" y="-105.5" font-family="Helvetica,sans-Serif" font-size="10.00" fill="#000000">::push_context</text>
</a>
</g>
</g>
<!-- Node25&#45;&gt;Node27 -->
<g id="edge10" class="edge">
<title>Node25&#45;&gt;Node27</title>
<path fill="none" stroke="#191970" d="M320.6082,-113.5C333.6067,-113.5 347.3607,-113.5 360.7855,-113.5"/>
<polygon fill="#191970" stroke="#191970" points="360.9693,-117.0001 370.9693,-113.5 360.9692,-110.0001 360.9693,-117.0001"/>
</g>
<!-- Node29 -->
<g id="node12" class="node">
<title>Node29</title>
<g id="a_node12"><a xlink:href="../../d7/df3/classopenage_1_1input_1_1_input_manager.xhtml#a469024c2b2ac7769e0fa578c73fde160" target="_top" xlink:title="removes any matching registered context from the stack. ">
<polygon fill="#ffffff" stroke="#000000" points="371,-49.5 371,-79.5 517,-79.5 517,-49.5 371,-49.5"/>
<text text-anchor="start" x="379" y="-67.5" font-family="Helvetica,sans-Serif" font-size="10.00" fill="#000000">openage::input::InputManager</text>
<text text-anchor="middle" x="444" y="-56.5" font-family="Helvetica,sans-Serif" font-size="10.00" fill="#000000">::remove_context</text>
</a>
</g>
</g>
<!-- Node25&#45;&gt;Node29 -->
<g id="edge12" class="edge">
<title>Node25&#45;&gt;Node29</title>
<path fill="none" stroke="#191970" d="M311.6043,-98.4654C331.8629,-93.2682 354.7391,-87.3994 375.7063,-82.0204"/>
<polygon fill="#191970" stroke="#191970" points="376.6899,-85.3814 385.5065,-79.5062 374.9504,-78.601 376.6899,-85.3814"/>
</g>
<!-- Node28 -->
<g id="node11" class="node">
<title>Node28</title>
<g id="a_node11"><a xlink:href="../../d7/d57/classopenage_1_1input_1_1_input_context.xhtml#a0a5d3374a164faf57483d7555f0b84b5" target="_top" xlink:title="Called by the InputManager where this context shall be registered to. ">
<polygon fill="#ffffff" stroke="#000000" points="553,-98.5 553,-128.5 696,-128.5 696,-98.5 553,-98.5"/>
<text text-anchor="start" x="561" y="-116.5" font-family="Helvetica,sans-Serif" font-size="10.00" fill="#000000">openage::input::InputContext</text>
<text text-anchor="middle" x="624.5" y="-105.5" font-family="Helvetica,sans-Serif" font-size="10.00" fill="#000000">::register_to</text>
</a>
</g>
</g>
<!-- Node27&#45;&gt;Node28 -->
<g id="edge11" class="edge">
<title>Node27&#45;&gt;Node28</title>
<path fill="none" stroke="#191970" d="M517.1561,-113.5C525.6549,-113.5 534.3637,-113.5 542.9658,-113.5"/>
<polygon fill="#191970" stroke="#191970" points="542.9961,-117.0001 552.9961,-113.5 542.996,-110.0001 542.9961,-117.0001"/>
</g>
<!-- Node30 -->
<g id="node13" class="node">
<title>Node30</title>
<g id="a_node13"><a xlink:href="../../d7/d57/classopenage_1_1input_1_1_input_context.xhtml#a12ae83daa8c6bfefef320a07377a9246" target="_top" xlink:title="Remove the registration to an input manager. ">
<polygon fill="#ffffff" stroke="#000000" points="553,-49.5 553,-79.5 696,-79.5 696,-49.5 553,-49.5"/>
<text text-anchor="start" x="561" y="-67.5" font-family="Helvetica,sans-Serif" font-size="10.00" fill="#000000">openage::input::InputContext</text>
<text text-anchor="middle" x="624.5" y="-56.5" font-family="Helvetica,sans-Serif" font-size="10.00" fill="#000000">::unregister</text>
</a>
</g>
</g>
<!-- Node29&#45;&gt;Node30 -->
<g id="edge13" class="edge">
<title>Node29&#45;&gt;Node30</title>
<path fill="none" stroke="#191970" d="M517.1561,-64.5C525.6549,-64.5 534.3637,-64.5 542.9658,-64.5"/>
<polygon fill="#191970" stroke="#191970" points="542.9961,-68.0001 552.9961,-64.5 542.996,-61.0001 542.9961,-68.0001"/>
</g>
<!-- Node32 -->
<g id="node15" class="node">
<title>Node32</title>
<g id="a_node15"><a xlink:href="../../d9/db3/classopenage_1_1console_1_1_buf.xhtml#a3db6d160e44c8db825a37c0cfbc143ea" target="_top" xlink:title="write a byte string to the buffer ">
<polygon fill="#ffffff" stroke="#000000" points="387,-.5 387,-30.5 501,-30.5 501,-.5 387,-.5"/>
<text text-anchor="start" x="395" y="-18.5" font-family="Helvetica,sans-Serif" font-size="10.00" fill="#000000">openage::console::Buf</text>
<text text-anchor="middle" x="444" y="-7.5" font-family="Helvetica,sans-Serif" font-size="10.00" fill="#000000">::write</text>
</a>
</g>
</g>
<!-- Node31&#45;&gt;Node32 -->
<g id="edge15" class="edge">
<title>Node31&#45;&gt;Node32</title>
<path fill="none" stroke="#191970" d="M320.6082,-31.6508C338.8986,-29.2567 358.6851,-26.6669 376.9449,-24.2768"/>
<polygon fill="#191970" stroke="#191970" points="377.4519,-27.7404 386.913,-22.9721 376.5433,-20.7996 377.4519,-27.7404"/>
</g>
</g>
</svg>
        <g id="navigator" transform="translate(0 0)" fill="#404254">
                <rect fill="#f2f5e9" fill-opacity="0.5" stroke="#606060" stroke-width=".5" x="0" y="0" width="60" height="60"/>
                <use id="zoomplus" xlink:href="#zoomPlus" x="17" y="9" onmousedown="handleZoom(evt,'in')"/>
                <use id="zoomminus" xlink:href="#zoomMin" x="42" y="9" onmousedown="handleZoom(evt,'out')"/>
                <use id="reset" xlink:href="#resetDef" x="30" y="36" onmousedown="handleReset()"/>
                <g id="arrowUp" xlink:href="#dirArrow" transform="translate(30 24)" onmousedown="handlePan(0,-1)">
                  <use xlink:href="#rim" fill="#404040">
                        <set attributeName="fill" to="#808080" begin="arrowUp.mouseover" end="arrowUp.mouseout"/>
                  </use>
                  <path fill="none" stroke="white" stroke-width="1.5" d="M0,-3.0v7 M-2.5,-0.5L0,-3.0L2.5,-0.5"/>
                </g>
                <g id="arrowRight" xlink:href="#dirArrow" transform="rotate(90) translate(36 -43)" onmousedown="handlePan(1,0)">
                  <use xlink:href="#rim" fill="#404040">
                        <set attributeName="fill" to="#808080" begin="arrowRight.mouseover" end="arrowRight.mouseout"/>
                  </use>
                  <path fill="none" stroke="white" stroke-width="1.5" d="M0,-3.0v7 M-2.5,-0.5L0,-3.0L2.5,-0.5"/>
                </g>
                <g id="arrowDown" xlink:href="#dirArrow" transform="rotate(180) translate(-30 -48)" onmousedown="handlePan(0,1)">
                  <use xlink:href="#rim" fill="#404040">
                        <set attributeName="fill" to="#808080" begin="arrowDown.mouseover" end="arrowDown.mouseout"/>
                  </use>
                  <path fill="none" stroke="white" stroke-width="1.5" d="M0,-3.0v7 M-2.5,-0.5L0,-3.0L2.5,-0.5"/>
                </g>
                <g id="arrowLeft" xlink:href="#dirArrow" transform="rotate(270) translate(-36 17)" onmousedown="handlePan(-1,0)">
                  <use xlink:href="#rim" fill="#404040">
                        <set attributeName="fill" to="#808080" begin="arrowLeft.mouseover" end="arrowLeft.mouseout"/>
                  </use>
                  <path fill="none" stroke="white" stroke-width="1.5" d="M0,-3.0v7 M-2.5,-0.5L0,-3.0L2.5,-0.5"/>
                </g>
        </g>
        <svg viewBox="0 0 15 15" width="100%" height="30px" preserveAspectRatio="xMaxYMin meet">
         <g id="arrow_out" transform="scale(0.3 0.3)">
          <a xlink:href="classopenage_1_1console_1_1_console_a4e0359f0f3cbbf66da045ba1a33ffa57_cgraph_org.svg" target="_base">
           <rect id="button" ry="5" rx="5" y="6" x="6" height="38" width="38"
                fill="#f2f5e9" fill-opacity="0.5" stroke="#606060" stroke-width="1.0"/>
           <path id="arrow"
             d="M 11.500037,31.436501 C 11.940474,20.09759 22.043105,11.32322 32.158766,21.979434 L 37.068811,17.246167 C 37.068811,17.246167 37.088388,32 37.088388,32 L 22.160133,31.978069 C 22.160133,31.978069 26.997745,27.140456 26.997745,27.140456 C 18.528582,18.264221 13.291696,25.230495 11.500037,31.436501 z"
             style="fill:#404040;"/>
          </a>
         </g>
        </svg>
</svg>
