<?xml version="1.0" encoding="UTF-8" standalone="no"?>
<!DOCTYPE svg PUBLIC "-//W3C//DTD SVG 1.1//EN"
 "http://www.w3.org/Graphics/SVG/1.1/DTD/svg11.dtd">
<!-- Generated by graphviz version 2.40.1 (20161225.0304)
 -->
<!-- Title: openage::console::Console::write Pages: 1 -->
<svg width="485pt" height="39pt"
 viewBox="0.00 0.00 485.00 39.00" xmlns="http://www.w3.org/2000/svg" xmlns:xlink="http://www.w3.org/1999/xlink">
<g id="graph0" class="graph" transform="scale(1 1) rotate(0) translate(4 35)">
<title>openage::console::Console::write</title>
<polygon fill="#ffffff" stroke="transparent" points="-4,4 -4,-35 481,-35 481,4 -4,4"/>
<!-- Node105 -->
<g id="node1" class="node">
<title>Node105</title>
<polygon fill="#bfbfbf" stroke="#000000" points="0,-.5 0,-30.5 135,-30.5 135,-.5 0,-.5"/>
<text text-anchor="start" x="8" y="-18.5" font-family="Helvetica,sans-Serif" font-size="10.00" fill="#000000">openage::console::Console</text>
<text text-anchor="middle" x="67.5" y="-7.5" font-family="Helvetica,sans-Serif" font-size="10.00" fill="#000000">::write</text>
</g>
<!-- Node106 -->
<g id="node2" class="node">
<title>Node106</title>
<g id="a_node2"><a xlink:href="../../d7/d6d/classopenage_1_1console_1_1_console.xhtml#a4e0359f0f3cbbf66da045ba1a33ffa57" target="_top" xlink:title="a temporary console command interpreter ">
<polygon fill="#ffffff" stroke="#000000" points="171,-.5 171,-30.5 306,-30.5 306,-.5 171,-.5"/>
<text text-anchor="start" x="179" y="-18.5" font-family="Helvetica,sans-Serif" font-size="10.00" fill="#000000">openage::console::Console</text>
<text text-anchor="middle" x="238.5" y="-7.5" font-family="Helvetica,sans-Serif" font-size="10.00" fill="#000000">::interpret</text>
</a>
</g>
</g>
<!-- Node105&#45;&gt;Node106 -->
<g id="edge1" class="edge">
<title>Node105&#45;&gt;Node106</title>
<path fill="none" stroke="#191970" d="M145.0998,-15.5C153.692,-15.5 162.3915,-15.5 170.8472,-15.5"/>
<polygon fill="#191970" stroke="#191970" points="145.0838,-12.0001 135.0837,-15.5 145.0837,-19.0001 145.0838,-12.0001"/>
</g>
<!-- Node107 -->
<g id="node3" class="node">
<title>Node107</title>
<g id="a_node3"><a xlink:href="../../d7/d6d/classopenage_1_1console_1_1_console.xhtml#ab5e30408417ac212bd3f35e50edd3a82" target="_top" xlink:title="register this console to the engine. ">
<polygon fill="#ffffff" stroke="#000000" points="342,-.5 342,-30.5 477,-30.5 477,-.5 342,-.5"/>
<text text-anchor="start" x="350" y="-18.5" font-family="Helvetica,sans-Serif" font-size="10.00" fill="#000000">openage::console::Console</text>
<text text-anchor="middle" x="409.5" y="-7.5" font-family="Helvetica,sans-Serif" font-size="10.00" fill="#000000">::register_to_engine</text>
</a>
</g>
</g>
<!-- Node106&#45;&gt;Node107 -->
<g id="edge2" class="edge">
<title>Node106&#45;&gt;Node107</title>
<path fill="none" stroke="#191970" d="M316.0998,-15.5C324.692,-15.5 333.3915,-15.5 341.8472,-15.5"/>
<polygon fill="#191970" stroke="#191970" points="316.0838,-12.0001 306.0837,-15.5 316.0837,-19.0001 316.0838,-12.0001"/>
</g>
</g>
</svg>
