<?xml version="1.0" encoding="UTF-8" standalone="no"?>
<!DOCTYPE svg PUBLIC "-//W3C//DTD SVG 1.1//EN"
 "http://www.w3.org/Graphics/SVG/1.1/DTD/svg11.dtd">
<!-- Generated by graphviz version 2.40.1 (20161225.0304)
 -->
<!-- Title: openage::Command::Command Pages: 1 -->
<svg width="343pt" height="66pt"
 viewBox="0.00 0.00 343.00 66.00" xmlns="http://www.w3.org/2000/svg" xmlns:xlink="http://www.w3.org/1999/xlink">
<g id="graph0" class="graph" transform="scale(1 1) rotate(0) translate(4 62)">
<title>openage::Command::Command</title>
<polygon fill="#ffffff" stroke="transparent" points="-4,4 -4,-62 339,-62 339,4 -4,4"/>
<!-- Node6 -->
<g id="node1" class="node">
<title>Node6</title>
<polygon fill="#bfbfbf" stroke="#000000" points="0,-19.5 0,-38.5 155,-38.5 155,-19.5 0,-19.5"/>
<text text-anchor="middle" x="77.5" y="-26.5" font-family="Helvetica,sans-Serif" font-size="10.00" fill="#000000">openage::Command::Command</text>
</g>
<!-- Node7 -->
<g id="node2" class="node">
<title>Node7</title>
<g id="a_node2"><a xlink:href="../../d8/dda/classopenage_1_1_command.xhtml#add4c17e9b3367bccb83b83d09469cc86" target="_top" xlink:title="openage::Command::position">
<polygon fill="#ffffff" stroke="#000000" points="191,-38.5 191,-57.5 335,-57.5 335,-38.5 191,-38.5"/>
<text text-anchor="middle" x="263" y="-45.5" font-family="Helvetica,sans-Serif" font-size="10.00" fill="#000000">openage::Command::position</text>
</a>
</g>
</g>
<!-- Node6&#45;&gt;Node7 -->
<g id="edge1" class="edge">
<title>Node6&#45;&gt;Node7</title>
<path fill="none" stroke="#191970" d="M155.0939,-36.9476C163.5855,-37.8174 172.2513,-38.705 180.7962,-39.5802"/>
<polygon fill="#191970" stroke="#191970" points="180.4492,-43.0629 190.7538,-40.6001 181.1625,-36.0993 180.4492,-43.0629"/>
</g>
<!-- Node8 -->
<g id="node3" class="node">
<title>Node8</title>
<g id="a_node3"><a xlink:href="../../d8/dda/classopenage_1_1_command.xhtml#aac8f87a8abd4c2ed97832d42c4954514" target="_top" xlink:title="openage::Command::unit">
<polygon fill="#ffffff" stroke="#000000" points="200,-.5 200,-19.5 326,-19.5 326,-.5 200,-.5"/>
<text text-anchor="middle" x="263" y="-7.5" font-family="Helvetica,sans-Serif" font-size="10.00" fill="#000000">openage::Command::unit</text>
</a>
</g>
</g>
<!-- Node6&#45;&gt;Node8 -->
<g id="edge2" class="edge">
<title>Node6&#45;&gt;Node8</title>
<path fill="none" stroke="#191970" d="M155.0939,-21.0524C166.4957,-19.8845 178.2115,-18.6845 189.5269,-17.5255"/>
<polygon fill="#191970" stroke="#191970" points="190.1942,-20.9756 199.7855,-16.4748 189.4809,-14.012 190.1942,-20.9756"/>
</g>
</g>
</svg>
