<?xml version="1.0" encoding="UTF-8" standalone="no"?>
<!DOCTYPE svg PUBLIC "-//W3C//DTD SVG 1.1//EN"
 "http://www.w3.org/Graphics/SVG/1.1/DTD/svg11.dtd">
<!-- Generated by graphviz version 2.40.1 (20161225.0304)
 -->
<!-- Title: openage::renderer::GlyphAtlas::get_cache_key Pages: 1 -->
<!--zoomable 97 -->
<svg id="main" version="1.1" xmlns="http://www.w3.org/2000/svg" xmlns:xlink="http://www.w3.org/1999/xlink" xml:space="preserve" onload="init(evt)">
<style type="text/css"><![CDATA[
.edge:hover path { stroke: red; }
.edge:hover polygon { stroke: red; fill: red; }
]]></style>
<script type="text/javascript"><![CDATA[
var edges = document.getElementsByTagName('g');
if (edges && edges.length) {
  for (var i=0;i<edges.length;i++) {
    if (edges[i].id.substr(0,4)=='edge') {
      edges[i].setAttribute('class','edge');
    }
  }
}
]]></script>
        <defs>
                <circle id="rim" cx="0" cy="0" r="7"/>
                <circle id="rim2" cx="0" cy="0" r="3.5"/>
                <g id="zoomPlus">
                        <use xlink:href="#rim" fill="#404040">
                                <set attributeName="fill" to="#808080" begin="zoomplus.mouseover" end="zoomplus.mouseout"/>
                        </use>
                        <path d="M-4,0h8M0,-4v8" fill="none" stroke="white" stroke-width="1.5" pointer-events="none"/>
                </g>
                <g id="zoomMin">
                        <use xlink:href="#rim" fill="#404040">
                                <set attributeName="fill" to="#808080" begin="zoomminus.mouseover" end="zoomminus.mouseout"/>
                        </use>
                        <path d="M-4,0h8" fill="none" stroke="white" stroke-width="1.5" pointer-events="none"/>
                </g>
                <g id="dirArrow">
                        <path fill="none" stroke="white" stroke-width="1.5" d="M0,-3.0v7 M-2.5,-0.5L0,-3.0L2.5,-0.5"/>
                </g>
               <g id="resetDef">
                       <use xlink:href="#rim2" fill="#404040">
                               <set attributeName="fill" to="#808080" begin="reset.mouseover" end="reset.mouseout"/>
                       </use>
               </g>
        </defs>

<script type="text/javascript">
var viewWidth = 733;
var viewHeight = 97;
var sectionId = 'dynsection-4';
</script>
<script xlink:href="../../svgpan.js"/>
<svg id="graph" class="graph">
<g id="viewport">
<title>openage::renderer::GlyphAtlas::get_cache_key</title>
<polygon fill="#ffffff" stroke="transparent" points="-4,4 -4,-92.5 729,-92.5 729,4 -4,4"/>
<!-- Node18 -->
<g id="node1" class="node">
<title>Node18</title>
<polygon fill="#bfbfbf" stroke="#000000" points="0,-22.5 0,-52.5 137,-52.5 137,-22.5 0,-22.5"/>
<text text-anchor="start" x="8" y="-40.5" font-family="Helvetica,sans-Serif" font-size="10.00" fill="#000000">openage::renderer::</text>
<text text-anchor="middle" x="68.5" y="-29.5" font-family="Helvetica,sans-Serif" font-size="10.00" fill="#000000">GlyphAtlas::get_cache_key</text>
</g>
<!-- Node19 -->
<g id="node2" class="node">
<title>Node19</title>
<g id="a_node2"><a xlink:href="../../de/d60/namespaceopenage_1_1util.xhtml#a3cb605abe74b26763ac7340c3785656a" target="_top" xlink:title="Siphash implementation. ">
<polygon fill="#ffffff" stroke="#000000" points="173,-50 173,-69 272,-69 272,-50 173,-50"/>
<text text-anchor="middle" x="222.5" y="-57" font-family="Helvetica,sans-Serif" font-size="10.00" fill="#000000">openage::util::hash</text>
</a>
</g>
</g>
<!-- Node18&#45;&gt;Node19 -->
<g id="edge1" class="edge">
<title>Node18&#45;&gt;Node19</title>
<path fill="none" stroke="#191970" d="M137.3923,-47.3418C145.8187,-48.5455 154.3761,-49.768 162.6547,-50.9507"/>
<polygon fill="#191970" stroke="#191970" points="162.1925,-54.4201 172.587,-52.3696 163.1825,-47.4905 162.1925,-54.4201"/>
</g>
<!-- Node24 -->
<g id="node7" class="node">
<title>Node24</title>
<g id="a_node7"><a xlink:href="../../de/d60/namespaceopenage_1_1util.xhtml#a5cfc0e84830b5945b5731d2148eea3b4" target="_top" xlink:title="A hash combination function Creates a hash value as a combination of two other hashes. ">
<polygon fill="#ffffff" stroke="#000000" points="173,-.5 173,-30.5 272,-30.5 272,-.5 173,-.5"/>
<text text-anchor="start" x="181" y="-18.5" font-family="Helvetica,sans-Serif" font-size="10.00" fill="#000000">openage::util::hash</text>
<text text-anchor="middle" x="222.5" y="-7.5" font-family="Helvetica,sans-Serif" font-size="10.00" fill="#000000">_combine</text>
</a>
</g>
</g>
<!-- Node18&#45;&gt;Node24 -->
<g id="edge7" class="edge">
<title>Node18&#45;&gt;Node24</title>
<path fill="none" stroke="#191970" d="M137.3923,-27.6582C145.8187,-26.4545 154.3761,-25.232 162.6547,-24.0493"/>
<polygon fill="#191970" stroke="#191970" points="163.1825,-27.5095 172.587,-22.6304 162.1925,-20.5799 163.1825,-27.5095"/>
</g>
<!-- Node20 -->
<g id="node3" class="node">
<title>Node20</title>
<g id="a_node3"><a xlink:href="../../de/d60/namespaceopenage_1_1util.xhtml#a69b6ecf2b5119f11c33d2b5b89cec86c" target="_top" xlink:title="Convert a C&#45;style array of uint8_t to a uint64_t. ">
<polygon fill="#ffffff" stroke="#000000" points="308,-44.5 308,-74.5 413,-74.5 413,-44.5 308,-44.5"/>
<text text-anchor="start" x="316" y="-62.5" font-family="Helvetica,sans-Serif" font-size="10.00" fill="#000000">openage::util::array8</text>
<text text-anchor="middle" x="360.5" y="-51.5" font-family="Helvetica,sans-Serif" font-size="10.00" fill="#000000">_to_uint64</text>
</a>
</g>
</g>
<!-- Node19&#45;&gt;Node20 -->
<g id="edge2" class="edge">
<title>Node19&#45;&gt;Node20</title>
<path fill="none" stroke="#191970" d="M272.3212,-59.5C280.5542,-59.5 289.1831,-59.5 297.6856,-59.5"/>
<polygon fill="#191970" stroke="#191970" points="297.9591,-63.0001 307.9591,-59.5 297.959,-56.0001 297.9591,-63.0001"/>
</g>
<!-- Node21 -->
<g id="node4" class="node">
<title>Node21</title>
<g id="a_node4"><a xlink:href="../../dd/d1a/namespaceopenage_1_1log.xhtml#ab6b4b10be67af93ab6c4d5a36139736e" target="_top" xlink:title="error message ">
<polygon fill="#ffffff" stroke="#000000" points="480,-69 480,-88 563,-88 563,-69 480,-69"/>
<text text-anchor="middle" x="521.5" y="-76" font-family="Helvetica,sans-Serif" font-size="10.00" fill="#000000">openage.log.err</text>
</a>
</g>
</g>
<!-- Node20&#45;&gt;Node21 -->
<g id="edge3" class="edge">
<title>Node20&#45;&gt;Node21</title>
<path fill="none" stroke="#191970" d="M413.2174,-65.7213C431.3942,-67.8664 451.725,-70.2657 469.8182,-72.4009"/>
<polygon fill="#191970" stroke="#191970" points="469.5533,-75.8938 479.8946,-73.59 470.3737,-68.9421 469.5533,-75.8938"/>
</g>
<!-- Node22 -->
<g id="node5" class="node">
<title>Node22</title>
<g id="a_node5"><a xlink:href="../../d5/d0e/namespaceopenage_1_1testing_1_1testing.xhtml#ac25bf81db406af62d08113ef7ae9fd6e" target="_top" xlink:title="openage.testing.testing.result">
<polygon fill="#ffffff" stroke="#000000" points="449,-31 449,-50 594,-50 594,-31 449,-31"/>
<text text-anchor="middle" x="521.5" y="-38" font-family="Helvetica,sans-Serif" font-size="10.00" fill="#000000">openage.testing.testing.result</text>
</a>
</g>
</g>
<!-- Node20&#45;&gt;Node22 -->
<g id="edge4" class="edge">
<title>Node20&#45;&gt;Node22</title>
<path fill="none" stroke="#191970" d="M413.2174,-53.2787C421.3909,-52.3141 429.9999,-51.2982 438.6451,-50.2779"/>
<polygon fill="#191970" stroke="#191970" points="439.2658,-53.729 448.7866,-49.0811 438.4453,-46.7773 439.2658,-53.729"/>
</g>
<!-- Node23 -->
<g id="node6" class="node">
<title>Node23</title>
<g id="a_node6"><a xlink:href="../../de/d60/namespaceopenage_1_1util.xhtml#a7bc4421a5f0f57f3a0aba3f96eb8d19c" target="_top" xlink:title="method that behaves similar to python&#39;s &quot;repr&quot;. ">
<polygon fill="#ffffff" stroke="#000000" points="630,-31 630,-50 725,-50 725,-31 630,-31"/>
<text text-anchor="middle" x="677.5" y="-38" font-family="Helvetica,sans-Serif" font-size="10.00" fill="#000000">openage::util::repr</text>
</a>
</g>
</g>
<!-- Node22&#45;&gt;Node23 -->
<g id="edge5" class="edge">
<title>Node22&#45;&gt;Node23</title>
<path fill="none" stroke="#191970" d="M594.0196,-33.7648C602.6179,-33.7182 611.3054,-33.7815 619.6614,-33.9545"/>
<polygon fill="#191970" stroke="#191970" points="619.5718,-37.4533 629.6613,-34.2201 619.7578,-30.4558 619.5718,-37.4533"/>
</g>
<!-- Node23&#45;&gt;Node22 -->
<g id="edge6" class="edge">
<title>Node23&#45;&gt;Node22</title>
<path fill="none" stroke="#191970" d="M629.6613,-46.7799C621.5562,-47.0451 612.9375,-47.1982 604.24,-47.2389"/>
<polygon fill="#191970" stroke="#191970" points="604.021,-43.7389 594.0196,-47.2352 604.0183,-50.7389 604.021,-43.7389"/>
</g>
</g>
</svg>
        <g id="navigator" transform="translate(0 0)" fill="#404254">
                <rect fill="#f2f5e9" fill-opacity="0.5" stroke="#606060" stroke-width=".5" x="0" y="0" width="60" height="60"/>
                <use id="zoomplus" xlink:href="#zoomPlus" x="17" y="9" onmousedown="handleZoom(evt,'in')"/>
                <use id="zoomminus" xlink:href="#zoomMin" x="42" y="9" onmousedown="handleZoom(evt,'out')"/>
                <use id="reset" xlink:href="#resetDef" x="30" y="36" onmousedown="handleReset()"/>
                <g id="arrowUp" xlink:href="#dirArrow" transform="translate(30 24)" onmousedown="handlePan(0,-1)">
                  <use xlink:href="#rim" fill="#404040">
                        <set attributeName="fill" to="#808080" begin="arrowUp.mouseover" end="arrowUp.mouseout"/>
                  </use>
                  <path fill="none" stroke="white" stroke-width="1.5" d="M0,-3.0v7 M-2.5,-0.5L0,-3.0L2.5,-0.5"/>
                </g>
                <g id="arrowRight" xlink:href="#dirArrow" transform="rotate(90) translate(36 -43)" onmousedown="handlePan(1,0)">
                  <use xlink:href="#rim" fill="#404040">
                        <set attributeName="fill" to="#808080" begin="arrowRight.mouseover" end="arrowRight.mouseout"/>
                  </use>
                  <path fill="none" stroke="white" stroke-width="1.5" d="M0,-3.0v7 M-2.5,-0.5L0,-3.0L2.5,-0.5"/>
                </g>
                <g id="arrowDown" xlink:href="#dirArrow" transform="rotate(180) translate(-30 -48)" onmousedown="handlePan(0,1)">
                  <use xlink:href="#rim" fill="#404040">
                        <set attributeName="fill" to="#808080" begin="arrowDown.mouseover" end="arrowDown.mouseout"/>
                  </use>
                  <path fill="none" stroke="white" stroke-width="1.5" d="M0,-3.0v7 M-2.5,-0.5L0,-3.0L2.5,-0.5"/>
                </g>
                <g id="arrowLeft" xlink:href="#dirArrow" transform="rotate(270) translate(-36 17)" onmousedown="handlePan(-1,0)">
                  <use xlink:href="#rim" fill="#404040">
                        <set attributeName="fill" to="#808080" begin="arrowLeft.mouseover" end="arrowLeft.mouseout"/>
                  </use>
                  <path fill="none" stroke="white" stroke-width="1.5" d="M0,-3.0v7 M-2.5,-0.5L0,-3.0L2.5,-0.5"/>
                </g>
        </g>
        <svg viewBox="0 0 15 15" width="100%" height="30px" preserveAspectRatio="xMaxYMin meet">
         <g id="arrow_out" transform="scale(0.3 0.3)">
          <a xlink:href="classopenage_1_1renderer_1_1_glyph_atlas_a936adb09a68c1fc46e9572cd2866d961_cgraph_org.svg" target="_base">
           <rect id="button" ry="5" rx="5" y="6" x="6" height="38" width="38"
                fill="#f2f5e9" fill-opacity="0.5" stroke="#606060" stroke-width="1.0"/>
           <path id="arrow"
             d="M 11.500037,31.436501 C 11.940474,20.09759 22.043105,11.32322 32.158766,21.979434 L 37.068811,17.246167 C 37.068811,17.246167 37.088388,32 37.088388,32 L 22.160133,31.978069 C 22.160133,31.978069 26.997745,27.140456 26.997745,27.140456 C 18.528582,18.264221 13.291696,25.230495 11.500037,31.436501 z"
             style="fill:#404040;"/>
          </a>
         </g>
        </svg>
</svg>
