<?xml version="1.0" encoding="UTF-8" standalone="no"?>
<!DOCTYPE svg PUBLIC "-//W3C//DTD SVG 1.1//EN"
 "http://www.w3.org/Graphics/SVG/1.1/DTD/svg11.dtd">
<!-- Generated by graphviz version 2.40.1 (20161225.0304)
 -->
<!-- Title: openage::gui::isAtlasTexture Pages: 1 -->
<svg width="1412pt" height="173pt"
 viewBox="0.00 0.00 1412.00 172.50" xmlns="http://www.w3.org/2000/svg" xmlns:xlink="http://www.w3.org/1999/xlink">
<g id="graph0" class="graph" transform="scale(1 1) rotate(0) translate(4 168.5)">
<title>openage::gui::isAtlasTexture</title>
<polygon fill="#ffffff" stroke="transparent" points="-4,4 -4,-168.5 1408,-168.5 1408,4 -4,4"/>
<!-- Node28 -->
<g id="node1" class="node">
<title>Node28</title>
<polygon fill="#bfbfbf" stroke="#000000" points="0,-66.5 0,-85.5 141,-85.5 141,-66.5 0,-66.5"/>
<text text-anchor="middle" x="70.5" y="-73.5" font-family="Helvetica,sans-Serif" font-size="10.00" fill="#000000">openage::gui::isAtlasTexture</text>
</g>
<!-- Node29 -->
<g id="node2" class="node">
<title>Node29</title>
<g id="a_node2"><a xlink:href="../../d9/d93/classopenage_1_1gui_1_1_gui_texture.xhtml#aa857182d062f11dc1d300e5965596511" target="_top" xlink:title="openage::gui::GuiTexture\l::isAtlasTexture">
<polygon fill="#ffffff" stroke="#000000" points="178,-85 178,-115 304,-115 304,-85 178,-85"/>
<text text-anchor="start" x="186" y="-103" font-family="Helvetica,sans-Serif" font-size="10.00" fill="#000000">openage::gui::GuiTexture</text>
<text text-anchor="middle" x="241" y="-92" font-family="Helvetica,sans-Serif" font-size="10.00" fill="#000000">::isAtlasTexture</text>
</a>
</g>
</g>
<!-- Node28&#45;&gt;Node29 -->
<g id="edge1" class="edge">
<title>Node28&#45;&gt;Node29</title>
<path fill="none" stroke="#191970" d="M148.5219,-86.9826C158.3235,-88.3623 168.2534,-89.76 177.7884,-91.1022"/>
<polygon fill="#191970" stroke="#191970" points="148.7663,-83.4825 138.376,-85.5544 147.7905,-90.4142 148.7663,-83.4825"/>
</g>
<!-- Node32 -->
<g id="node5" class="node">
<title>Node32</title>
<g id="a_node5"><a xlink:href="../../d3/d8f/namespaceopenage_1_1gui.xhtml#a4f415900a4d4e55b09b0be3c2ba60d54" target="_top" xlink:title="openage::gui::native_size">
<polygon fill="#ffffff" stroke="#000000" points="177,-44.5 177,-63.5 305,-63.5 305,-44.5 177,-44.5"/>
<text text-anchor="middle" x="241" y="-51.5" font-family="Helvetica,sans-Serif" font-size="10.00" fill="#000000">openage::gui::native_size</text>
</a>
</g>
</g>
<!-- Node28&#45;&gt;Node32 -->
<g id="edge4" class="edge">
<title>Node28&#45;&gt;Node32</title>
<path fill="none" stroke="#191970" d="M151.3538,-65.5672C159.9371,-64.4597 168.58,-63.3445 176.9331,-62.2667"/>
<polygon fill="#191970" stroke="#191970" points="150.796,-62.1101 141.3261,-66.8611 151.6918,-69.0526 150.796,-62.1101"/>
</g>
<!-- Node30 -->
<g id="node3" class="node">
<title>Node30</title>
<g id="a_node3"><a xlink:href="../../d9/d93/classopenage_1_1gui_1_1_gui_texture.xhtml#acabd4037e0b47cda554ae353c2c3be3e" target="_top" xlink:title="openage::gui::GuiTexture\l::removedFromAtlas">
<polygon fill="#ffffff" stroke="#000000" points="348.5,-134 348.5,-164 474.5,-164 474.5,-134 348.5,-134"/>
<text text-anchor="start" x="356.5" y="-152" font-family="Helvetica,sans-Serif" font-size="10.00" fill="#000000">openage::gui::GuiTexture</text>
<text text-anchor="middle" x="411.5" y="-141" font-family="Helvetica,sans-Serif" font-size="10.00" fill="#000000">::removedFromAtlas</text>
</a>
</g>
</g>
<!-- Node29&#45;&gt;Node30 -->
<g id="edge2" class="edge">
<title>Node29&#45;&gt;Node30</title>
<path fill="none" stroke="#191970" d="M303.2641,-117.8941C321.6027,-123.1644 341.4751,-128.8755 359.1267,-133.9484"/>
<polygon fill="#191970" stroke="#191970" points="304.1246,-114.4998 293.5468,-115.1014 302.1911,-121.2275 304.1246,-114.4998"/>
</g>
<!-- Node31 -->
<g id="node4" class="node">
<title>Node31</title>
<g id="a_node4"><a xlink:href="../../d9/d93/classopenage_1_1gui_1_1_gui_texture.xhtml#afee0e8d811d508b6e16ae7ab4cf2c4a3" target="_top" xlink:title="openage::gui::GuiTexture\l::normalizedTextureSubRect">
<polygon fill="#ffffff" stroke="#000000" points="341,-85 341,-115 482,-115 482,-85 341,-85"/>
<text text-anchor="start" x="349" y="-103" font-family="Helvetica,sans-Serif" font-size="10.00" fill="#000000">openage::gui::GuiTexture</text>
<text text-anchor="middle" x="411.5" y="-92" font-family="Helvetica,sans-Serif" font-size="10.00" fill="#000000">::normalizedTextureSubRect</text>
</a>
</g>
</g>
<!-- Node29&#45;&gt;Node31 -->
<g id="edge3" class="edge">
<title>Node29&#45;&gt;Node31</title>
<path fill="none" stroke="#191970" d="M314.2143,-100C323.0002,-100 331.96,-100 340.7105,-100"/>
<polygon fill="#191970" stroke="#191970" points="314.0035,-96.5001 304.0035,-100 314.0035,-103.5001 314.0035,-96.5001"/>
</g>
<!-- Node33 -->
<g id="node6" class="node">
<title>Node33</title>
<g id="a_node6"><a xlink:href="../../d3/d8f/namespaceopenage_1_1gui.xhtml#a1ed7c99cf0d2a47548927d8d688b0c42" target="_top" xlink:title="The sourceSize property of the Image QML element ends up here for checking. ">
<polygon fill="#ffffff" stroke="#000000" points="358,-36 358,-66 465,-66 465,-36 358,-36"/>
<text text-anchor="start" x="366" y="-54" font-family="Helvetica,sans-Serif" font-size="10.00" fill="#000000">openage::gui::aspect</text>
<text text-anchor="middle" x="411.5" y="-43" font-family="Helvetica,sans-Serif" font-size="10.00" fill="#000000">_fit_size</text>
</a>
</g>
</g>
<!-- Node32&#45;&gt;Node33 -->
<g id="edge5" class="edge">
<title>Node32&#45;&gt;Node33</title>
<path fill="none" stroke="#191970" d="M315.6861,-52.6859C329.8591,-52.4365 344.4277,-52.1802 357.7922,-51.945"/>
<polygon fill="#191970" stroke="#191970" points="315.3956,-49.1903 305.4587,-52.8658 315.5188,-56.1893 315.3956,-49.1903"/>
</g>
<!-- Node34 -->
<g id="node7" class="node">
<title>Node34</title>
<g id="a_node7"><a xlink:href="../../d3/d9a/classopenage_1_1gui_1_1_gui_game_spec_image_provider_impl.xhtml#ac4c74475a47396d2e1824d2625e9d666" target="_top" xlink:title="openage::gui::GuiGameSpec\lImageProviderImpl::overwrite\l_texture_handle">
<polygon fill="#ffffff" stroke="#000000" points="518,-30.5 518,-71.5 662,-71.5 662,-30.5 518,-30.5"/>
<text text-anchor="start" x="526" y="-59.5" font-family="Helvetica,sans-Serif" font-size="10.00" fill="#000000">openage::gui::GuiGameSpec</text>
<text text-anchor="start" x="526" y="-48.5" font-family="Helvetica,sans-Serif" font-size="10.00" fill="#000000">ImageProviderImpl::overwrite</text>
<text text-anchor="middle" x="590" y="-37.5" font-family="Helvetica,sans-Serif" font-size="10.00" fill="#000000">_texture_handle</text>
</a>
</g>
</g>
<!-- Node33&#45;&gt;Node34 -->
<g id="edge6" class="edge">
<title>Node33&#45;&gt;Node34</title>
<path fill="none" stroke="#191970" d="M475.4143,-51C489.2165,-51 503.9001,-51 517.9881,-51"/>
<polygon fill="#191970" stroke="#191970" points="475.0559,-47.5001 465.0559,-51 475.0559,-54.5001 475.0559,-47.5001"/>
</g>
<!-- Node35 -->
<g id="node8" class="node">
<title>Node35</title>
<g id="a_node8"><a xlink:href="../../d3/d9a/classopenage_1_1gui_1_1_gui_game_spec_image_provider_impl.xhtml#ab296b31a83e17fbd14f7106ce4c2a54a" target="_top" xlink:title="Change the already produced texture handles to use new source. ">
<polygon fill="#ffffff" stroke="#000000" points="698,-60.5 698,-101.5 840,-101.5 840,-60.5 698,-60.5"/>
<text text-anchor="start" x="706" y="-89.5" font-family="Helvetica,sans-Serif" font-size="10.00" fill="#000000">openage::gui::GuiGameSpec</text>
<text text-anchor="start" x="706" y="-78.5" font-family="Helvetica,sans-Serif" font-size="10.00" fill="#000000">ImageProviderImpl::migrate</text>
<text text-anchor="middle" x="769" y="-67.5" font-family="Helvetica,sans-Serif" font-size="10.00" fill="#000000">_to_new_game_spec</text>
</a>
</g>
</g>
<!-- Node34&#45;&gt;Node35 -->
<g id="edge7" class="edge">
<title>Node34&#45;&gt;Node35</title>
<path fill="none" stroke="#191970" d="M672.1139,-64.7621C680.7546,-66.2103 689.4878,-67.6739 697.9883,-69.0986"/>
<polygon fill="#191970" stroke="#191970" points="672.4734,-61.2736 662.0324,-63.0725 671.3163,-68.1773 672.4734,-61.2736"/>
</g>
<!-- Node39 -->
<g id="node12" class="node">
<title>Node39</title>
<g id="a_node12"><a xlink:href="../../d3/d9a/classopenage_1_1gui_1_1_gui_game_spec_image_provider_impl.xhtml#a183dbf9c55bb6ce603654585a92db3b1" target="_top" xlink:title="Fills in the provided handle object. ">
<polygon fill="#ffffff" stroke="#000000" points="698,-.5 698,-41.5 840,-41.5 840,-.5 698,-.5"/>
<text text-anchor="start" x="706" y="-29.5" font-family="Helvetica,sans-Serif" font-size="10.00" fill="#000000">openage::gui::GuiGameSpec</text>
<text text-anchor="start" x="706" y="-18.5" font-family="Helvetica,sans-Serif" font-size="10.00" fill="#000000">ImageProviderImpl::fill</text>
<text text-anchor="middle" x="769" y="-7.5" font-family="Helvetica,sans-Serif" font-size="10.00" fill="#000000">_texture_handle</text>
</a>
</g>
</g>
<!-- Node34&#45;&gt;Node39 -->
<g id="edge12" class="edge">
<title>Node34&#45;&gt;Node39</title>
<path fill="none" stroke="#191970" d="M672.1139,-37.2379C680.7546,-35.7897 689.4878,-34.3261 697.9883,-32.9014"/>
<polygon fill="#191970" stroke="#191970" points="671.3163,-33.8227 662.0324,-38.9275 672.4734,-40.7264 671.3163,-33.8227"/>
</g>
<!-- Node36 -->
<g id="node9" class="node">
<title>Node36</title>
<g id="a_node9"><a xlink:href="../../d3/d9a/classopenage_1_1gui_1_1_gui_game_spec_image_provider_impl.xhtml#a96f49e5b70c5848778479d8ae36431b9" target="_top" xlink:title="Unblocks the provider. ">
<polygon fill="#ffffff" stroke="#000000" points="876,-60.5 876,-101.5 1020,-101.5 1020,-60.5 876,-60.5"/>
<text text-anchor="start" x="884" y="-89.5" font-family="Helvetica,sans-Serif" font-size="10.00" fill="#000000">openage::gui::GuiGameSpec</text>
<text text-anchor="start" x="884" y="-78.5" font-family="Helvetica,sans-Serif" font-size="10.00" fill="#000000">ImageProviderImpl::on_game</text>
<text text-anchor="middle" x="948" y="-67.5" font-family="Helvetica,sans-Serif" font-size="10.00" fill="#000000">_spec_loaded</text>
</a>
</g>
</g>
<!-- Node35&#45;&gt;Node36 -->
<g id="edge8" class="edge">
<title>Node35&#45;&gt;Node36</title>
<path fill="none" stroke="#191970" d="M850.0551,-81C858.6761,-81 867.4026,-81 875.9107,-81"/>
<polygon fill="#191970" stroke="#191970" points="850.0027,-77.5001 840.0026,-81 850.0026,-84.5001 850.0027,-77.5001"/>
</g>
<!-- Node37 -->
<g id="node10" class="node">
<title>Node37</title>
<g id="a_node10"><a xlink:href="../../db/d8b/classopenage_1_1gui_1_1_gui_image_provider_link.xhtml#a545162ca0fa8e596f4a2afafda0e2b0f" target="_top" xlink:title="Sets the game spec to load textures from. ">
<polygon fill="#ffffff" stroke="#000000" points="1248,-66 1248,-96 1404,-96 1404,-66 1248,-66"/>
<text text-anchor="start" x="1256" y="-84" font-family="Helvetica,sans-Serif" font-size="10.00" fill="#000000">openage::gui::GuiImageProvider</text>
<text text-anchor="middle" x="1326" y="-73" font-family="Helvetica,sans-Serif" font-size="10.00" fill="#000000">Link::set_game_spec</text>
</a>
</g>
</g>
<!-- Node36&#45;&gt;Node37 -->
<g id="edge9" class="edge">
<title>Node36&#45;&gt;Node37</title>
<path fill="none" stroke="#191970" d="M1030.2176,-83.5214C1038.9215,-83.7174 1047.6421,-83.8839 1056,-84 1125.3266,-84.9627 1142.6727,-84.912 1212,-84 1223.5811,-83.8476 1235.8223,-83.6083 1247.8172,-83.3296"/>
<polygon fill="#191970" stroke="#191970" points="1030.1108,-80.018 1020.0304,-83.2791 1029.9443,-87.016 1030.1108,-80.018"/>
</g>
<!-- Node38 -->
<g id="node11" class="node">
<title>Node38</title>
<g id="a_node11"><a xlink:href="../../db/d8b/classopenage_1_1gui_1_1_gui_image_provider_link.xhtml#a4448d1bf9cbb8e7f8842989fd414c66b" target="_top" xlink:title="Pass loaded assets to the image provider. ">
<polygon fill="#ffffff" stroke="#000000" points="1056,-44 1056,-74 1212,-74 1212,-44 1056,-44"/>
<text text-anchor="start" x="1064" y="-62" font-family="Helvetica,sans-Serif" font-size="10.00" fill="#000000">openage::gui::GuiImageProvider</text>
<text text-anchor="middle" x="1134" y="-51" font-family="Helvetica,sans-Serif" font-size="10.00" fill="#000000">Link::on_game_spec_loaded</text>
</a>
</g>
</g>
<!-- Node36&#45;&gt;Node38 -->
<g id="edge10" class="edge">
<title>Node36&#45;&gt;Node38</title>
<path fill="none" stroke="#191970" d="M1030.3699,-71.2573C1038.7882,-70.2616 1047.3243,-69.252 1055.6973,-68.2616"/>
<polygon fill="#191970" stroke="#191970" points="1029.6983,-67.8123 1020.1787,-72.4627 1030.5206,-74.7638 1029.6983,-67.8123"/>
</g>
<!-- Node38&#45;&gt;Node37 -->
<g id="edge11" class="edge">
<title>Node38&#45;&gt;Node37</title>
<path fill="none" stroke="#191970" d="M1222.1526,-69.1008C1230.7687,-70.0881 1239.4697,-71.0851 1247.9755,-72.0597"/>
<polygon fill="#191970" stroke="#191970" points="1222.4272,-65.6095 1212.0938,-67.9482 1221.6303,-72.564 1222.4272,-65.6095"/>
</g>
<!-- Node40 -->
<g id="node13" class="node">
<title>Node40</title>
<g id="a_node13"><a xlink:href="../../d8/d79/classopenage_1_1gui_1_1_gui_texture_factory.xhtml#af51021a1b0298e9c467ae7b50f2a8180" target="_top" xlink:title="openage::gui::GuiTexture\lFactory::GuiTextureFactory">
<polygon fill="#ffffff" stroke="#000000" points="879.5,-6 879.5,-36 1016.5,-36 1016.5,-6 879.5,-6"/>
<text text-anchor="start" x="887.5" y="-24" font-family="Helvetica,sans-Serif" font-size="10.00" fill="#000000">openage::gui::GuiTexture</text>
<text text-anchor="middle" x="948" y="-13" font-family="Helvetica,sans-Serif" font-size="10.00" fill="#000000">Factory::GuiTextureFactory</text>
</a>
</g>
</g>
<!-- Node39&#45;&gt;Node40 -->
<g id="edge13" class="edge">
<title>Node39&#45;&gt;Node40</title>
<path fill="none" stroke="#191970" d="M850.1318,-21C859.9175,-21 869.8378,-21 879.4193,-21"/>
<polygon fill="#191970" stroke="#191970" points="850.0027,-17.5001 840.0026,-21 850.0026,-24.5001 850.0027,-17.5001"/>
</g>
</g>
</svg>
