<?xml version="1.0" encoding="UTF-8" standalone="no"?>
<!DOCTYPE svg PUBLIC "-//W3C//DTD SVG 1.1//EN"
 "http://www.w3.org/Graphics/SVG/1.1/DTD/svg11.dtd">
<!-- Generated by graphviz version 2.40.1 (20161225.0304)
 -->
<!-- Title: openage::gui::textureSize Pages: 1 -->
<!--zoomable 149 -->
<svg id="main" version="1.1" xmlns="http://www.w3.org/2000/svg" xmlns:xlink="http://www.w3.org/1999/xlink" xml:space="preserve" onload="init(evt)">
<style type="text/css"><![CDATA[
.edge:hover path { stroke: red; }
.edge:hover polygon { stroke: red; fill: red; }
]]></style>
<script type="text/javascript"><![CDATA[
var edges = document.getElementsByTagName('g');
if (edges && edges.length) {
  for (var i=0;i<edges.length;i++) {
    if (edges[i].id.substr(0,4)=='edge') {
      edges[i].setAttribute('class','edge');
    }
  }
}
]]></script>
        <defs>
                <circle id="rim" cx="0" cy="0" r="7"/>
                <circle id="rim2" cx="0" cy="0" r="3.5"/>
                <g id="zoomPlus">
                        <use xlink:href="#rim" fill="#404040">
                                <set attributeName="fill" to="#808080" begin="zoomplus.mouseover" end="zoomplus.mouseout"/>
                        </use>
                        <path d="M-4,0h8M0,-4v8" fill="none" stroke="white" stroke-width="1.5" pointer-events="none"/>
                </g>
                <g id="zoomMin">
                        <use xlink:href="#rim" fill="#404040">
                                <set attributeName="fill" to="#808080" begin="zoomminus.mouseover" end="zoomminus.mouseout"/>
                        </use>
                        <path d="M-4,0h8" fill="none" stroke="white" stroke-width="1.5" pointer-events="none"/>
                </g>
                <g id="dirArrow">
                        <path fill="none" stroke="white" stroke-width="1.5" d="M0,-3.0v7 M-2.5,-0.5L0,-3.0L2.5,-0.5"/>
                </g>
               <g id="resetDef">
                       <use xlink:href="#rim2" fill="#404040">
                               <set attributeName="fill" to="#808080" begin="reset.mouseover" end="reset.mouseout"/>
                       </use>
               </g>
        </defs>

<script type="text/javascript">
var viewWidth = 527;
var viewHeight = 149;
var sectionId = 'dynsection-8';
</script>
<script xlink:href="../../svgpan.js"/>
<svg id="graph" class="graph">
<g id="viewport">
<title>openage::gui::textureSize</title>
<polygon fill="#ffffff" stroke="transparent" points="-4,4 -4,-144.5 523,-144.5 523,4 -4,4"/>
<!-- Node58 -->
<g id="node1" class="node">
<title>Node58</title>
<polygon fill="#bfbfbf" stroke="#000000" points="0,-55 0,-74 128,-74 128,-55 0,-55"/>
<text text-anchor="middle" x="64" y="-62" font-family="Helvetica,sans-Serif" font-size="10.00" fill="#000000">openage::gui::textureSize</text>
</g>
<!-- Node59 -->
<g id="node2" class="node">
<title>Node59</title>
<g id="a_node2"><a xlink:href="../../da/d1c/classopenage_1_1gui_1_1_gui_filled_texture_handles.xhtml#a08b5dcae915c7b1cb98cf3763f4b2361" target="_top" xlink:title="openage::gui::GuiFilledTexture\lHandles::fill_all_handles\l_with_texture">
<polygon fill="#ffffff" stroke="#000000" points="164,-99 164,-140 313,-140 313,-99 164,-99"/>
<text text-anchor="start" x="172" y="-128" font-family="Helvetica,sans-Serif" font-size="10.00" fill="#000000">openage::gui::GuiFilledTexture</text>
<text text-anchor="start" x="172" y="-117" font-family="Helvetica,sans-Serif" font-size="10.00" fill="#000000">Handles::fill_all_handles</text>
<text text-anchor="middle" x="238.5" y="-106" font-family="Helvetica,sans-Serif" font-size="10.00" fill="#000000">_with_texture</text>
</a>
</g>
</g>
<!-- Node58&#45;&gt;Node59 -->
<g id="edge1" class="edge">
<title>Node58&#45;&gt;Node59</title>
<path fill="none" stroke="#191970" d="M104.0468,-77.1222C124.5885,-83.5967 150.1244,-91.6452 173.4063,-98.9834"/>
<polygon fill="#191970" stroke="#191970" points="104.9852,-73.7483 94.3956,-74.0803 102.8809,-80.4245 104.9852,-73.7483"/>
</g>
<!-- Node60 -->
<g id="node3" class="node">
<title>Node60</title>
<g id="a_node3"><a xlink:href="../../d8/d79/classopenage_1_1gui_1_1_gui_texture_factory.xhtml#a2af0c7e7d25985cd93743b6d08468d9d" target="_top" xlink:title="openage::gui::GuiTexture\lFactory::textureSize">
<polygon fill="#ffffff" stroke="#000000" points="175.5,-49.5 175.5,-79.5 301.5,-79.5 301.5,-49.5 175.5,-49.5"/>
<text text-anchor="start" x="183.5" y="-67.5" font-family="Helvetica,sans-Serif" font-size="10.00" fill="#000000">openage::gui::GuiTexture</text>
<text text-anchor="middle" x="238.5" y="-56.5" font-family="Helvetica,sans-Serif" font-size="10.00" fill="#000000">Factory::textureSize</text>
</a>
</g>
</g>
<!-- Node58&#45;&gt;Node60 -->
<g id="edge2" class="edge">
<title>Node58&#45;&gt;Node60</title>
<path fill="none" stroke="#191970" d="M138.6714,-64.5C150.9227,-64.5 163.512,-64.5 175.4456,-64.5"/>
<polygon fill="#191970" stroke="#191970" points="138.4816,-61.0001 128.4816,-64.5 138.4815,-68.0001 138.4816,-61.0001"/>
</g>
<!-- Node62 -->
<g id="node5" class="node">
<title>Node62</title>
<g id="a_node5"><a xlink:href="../../d9/d93/classopenage_1_1gui_1_1_gui_texture.xhtml#a1cf359edf8b8ca23bd7c445d44ecc5f2" target="_top" xlink:title="openage::gui::GuiTexture\l::textureSize">
<polygon fill="#ffffff" stroke="#000000" points="175.5,-.5 175.5,-30.5 301.5,-30.5 301.5,-.5 175.5,-.5"/>
<text text-anchor="start" x="183.5" y="-18.5" font-family="Helvetica,sans-Serif" font-size="10.00" fill="#000000">openage::gui::GuiTexture</text>
<text text-anchor="middle" x="238.5" y="-7.5" font-family="Helvetica,sans-Serif" font-size="10.00" fill="#000000">::textureSize</text>
</a>
</g>
</g>
<!-- Node58&#45;&gt;Node62 -->
<g id="edge4" class="edge">
<title>Node58&#45;&gt;Node62</title>
<path fill="none" stroke="#191970" d="M107.7231,-52.2224C131.1422,-45.6463 160.186,-37.4908 184.95,-30.537"/>
<polygon fill="#191970" stroke="#191970" points="106.741,-48.8628 98.0596,-54.936 108.6335,-55.6021 106.741,-48.8628"/>
</g>
<!-- Node61 -->
<g id="node4" class="node">
<title>Node61</title>
<g id="a_node4"><a xlink:href="../../d3/d9a/classopenage_1_1gui_1_1_gui_game_spec_image_provider_impl.xhtml#a8a2c7319a6690e41380689f6f3283eea" target="_top" xlink:title="openage::gui::GuiGameSpec\lImageProviderImpl::requestTexture">
<polygon fill="#ffffff" stroke="#000000" points="349,-49.5 349,-79.5 519,-79.5 519,-49.5 349,-49.5"/>
<text text-anchor="start" x="357" y="-67.5" font-family="Helvetica,sans-Serif" font-size="10.00" fill="#000000">openage::gui::GuiGameSpec</text>
<text text-anchor="middle" x="434" y="-56.5" font-family="Helvetica,sans-Serif" font-size="10.00" fill="#000000">ImageProviderImpl::requestTexture</text>
</a>
</g>
</g>
<!-- Node60&#45;&gt;Node61 -->
<g id="edge3" class="edge">
<title>Node60&#45;&gt;Node61</title>
<path fill="none" stroke="#191970" d="M311.749,-64.5C323.8803,-64.5 336.5497,-64.5 348.9423,-64.5"/>
<polygon fill="#191970" stroke="#191970" points="311.7033,-61.0001 301.7033,-64.5 311.7032,-68.0001 311.7033,-61.0001"/>
</g>
</g>
</svg>
        <g id="navigator" transform="translate(0 0)" fill="#404254">
                <rect fill="#f2f5e9" fill-opacity="0.5" stroke="#606060" stroke-width=".5" x="0" y="0" width="60" height="60"/>
                <use id="zoomplus" xlink:href="#zoomPlus" x="17" y="9" onmousedown="handleZoom(evt,'in')"/>
                <use id="zoomminus" xlink:href="#zoomMin" x="42" y="9" onmousedown="handleZoom(evt,'out')"/>
                <use id="reset" xlink:href="#resetDef" x="30" y="36" onmousedown="handleReset()"/>
                <g id="arrowUp" xlink:href="#dirArrow" transform="translate(30 24)" onmousedown="handlePan(0,-1)">
                  <use xlink:href="#rim" fill="#404040">
                        <set attributeName="fill" to="#808080" begin="arrowUp.mouseover" end="arrowUp.mouseout"/>
                  </use>
                  <path fill="none" stroke="white" stroke-width="1.5" d="M0,-3.0v7 M-2.5,-0.5L0,-3.0L2.5,-0.5"/>
                </g>
                <g id="arrowRight" xlink:href="#dirArrow" transform="rotate(90) translate(36 -43)" onmousedown="handlePan(1,0)">
                  <use xlink:href="#rim" fill="#404040">
                        <set attributeName="fill" to="#808080" begin="arrowRight.mouseover" end="arrowRight.mouseout"/>
                  </use>
                  <path fill="none" stroke="white" stroke-width="1.5" d="M0,-3.0v7 M-2.5,-0.5L0,-3.0L2.5,-0.5"/>
                </g>
                <g id="arrowDown" xlink:href="#dirArrow" transform="rotate(180) translate(-30 -48)" onmousedown="handlePan(0,1)">
                  <use xlink:href="#rim" fill="#404040">
                        <set attributeName="fill" to="#808080" begin="arrowDown.mouseover" end="arrowDown.mouseout"/>
                  </use>
                  <path fill="none" stroke="white" stroke-width="1.5" d="M0,-3.0v7 M-2.5,-0.5L0,-3.0L2.5,-0.5"/>
                </g>
                <g id="arrowLeft" xlink:href="#dirArrow" transform="rotate(270) translate(-36 17)" onmousedown="handlePan(-1,0)">
                  <use xlink:href="#rim" fill="#404040">
                        <set attributeName="fill" to="#808080" begin="arrowLeft.mouseover" end="arrowLeft.mouseout"/>
                  </use>
                  <path fill="none" stroke="white" stroke-width="1.5" d="M0,-3.0v7 M-2.5,-0.5L0,-3.0L2.5,-0.5"/>
                </g>
        </g>
        <svg viewBox="0 0 15 15" width="100%" height="30px" preserveAspectRatio="xMaxYMin meet">
         <g id="arrow_out" transform="scale(0.3 0.3)">
          <a xlink:href="namespaceopenage_1_1gui_a1404eed030dfc77b51edc61cb3fbbbef_icgraph_org.svg" target="_base">
           <rect id="button" ry="5" rx="5" y="6" x="6" height="38" width="38"
                fill="#f2f5e9" fill-opacity="0.5" stroke="#606060" stroke-width="1.0"/>
           <path id="arrow"
             d="M 11.500037,31.436501 C 11.940474,20.09759 22.043105,11.32322 32.158766,21.979434 L 37.068811,17.246167 C 37.068811,17.246167 37.088388,32 37.088388,32 L 22.160133,31.978069 C 22.160133,31.978069 26.997745,27.140456 26.997745,27.140456 C 18.528582,18.264221 13.291696,25.230495 11.500037,31.436501 z"
             style="fill:#404040;"/>
          </a>
         </g>
        </svg>
</svg>
