<?xml version="1.0" encoding="UTF-8" standalone="no"?>
<!DOCTYPE svg PUBLIC "-//W3C//DTD SVG 1.1//EN"
 "http://www.w3.org/Graphics/SVG/1.1/DTD/svg11.dtd">
<!-- Generated by graphviz version 2.40.1 (20161225.0304)
 -->
<!-- Title: openage::AttackAction::completed_in_range Pages: 1 -->
<svg width="779pt" height="318pt"
 viewBox="0.00 0.00 779.00 318.00" xmlns="http://www.w3.org/2000/svg" xmlns:xlink="http://www.w3.org/1999/xlink">
<g id="graph0" class="graph" transform="scale(1 1) rotate(0) translate(4 314)">
<title>openage::AttackAction::completed_in_range</title>
<polygon fill="#ffffff" stroke="transparent" points="-4,4 -4,-314 775,-314 775,4 -4,4"/>
<!-- Node61 -->
<g id="node1" class="node">
<title>Node61</title>
<polygon fill="#bfbfbf" stroke="#000000" points="0,-143 0,-173 116,-173 116,-143 0,-143"/>
<text text-anchor="start" x="8" y="-161" font-family="Helvetica,sans-Serif" font-size="10.00" fill="#000000">openage::AttackAction</text>
<text text-anchor="middle" x="58" y="-150" font-family="Helvetica,sans-Serif" font-size="10.00" fill="#000000">::completed_in_range</text>
</g>
<!-- Node62 -->
<g id="node2" class="node">
<title>Node62</title>
<g id="a_node2"><a xlink:href="../../df/dea/classopenage_1_1_unit.xhtml#a3e12324401051119f44e212dae1a87ce" target="_top" xlink:title="returns attribute based on templated value ">
<polygon fill="#ffffff" stroke="#000000" points="152,-143 152,-173 249,-173 249,-143 152,-143"/>
<text text-anchor="start" x="160" y="-161" font-family="Helvetica,sans-Serif" font-size="10.00" fill="#000000">openage::Unit::get</text>
<text text-anchor="middle" x="200.5" y="-150" font-family="Helvetica,sans-Serif" font-size="10.00" fill="#000000">_attribute</text>
</a>
</g>
</g>
<!-- Node61&#45;&gt;Node62 -->
<g id="edge1" class="edge">
<title>Node61&#45;&gt;Node62</title>
<path fill="none" stroke="#191970" d="M116.3714,-158C124.7865,-158 133.4497,-158 141.8699,-158"/>
<polygon fill="#191970" stroke="#191970" points="141.9872,-161.5001 151.9872,-158 141.9872,-154.5001 141.9872,-161.5001"/>
</g>
<!-- Node63 -->
<g id="node3" class="node">
<title>Node63</title>
<g id="a_node3"><a xlink:href="../../de/d8a/classopenage_1_1_attributes.xhtml#a08f927be3be6911e7cf77604f9ead10f" target="_top" xlink:title="Get the attribute based on the type. ">
<polygon fill="#ffffff" stroke="#000000" points="302,-290.5 302,-309.5 423,-309.5 423,-290.5 302,-290.5"/>
<text text-anchor="middle" x="362.5" y="-297.5" font-family="Helvetica,sans-Serif" font-size="10.00" fill="#000000">openage::Attributes::get</text>
</a>
</g>
</g>
<!-- Node62&#45;&gt;Node63 -->
<g id="edge2" class="edge">
<title>Node62&#45;&gt;Node63</title>
<path fill="none" stroke="#191970" d="M206.5562,-173.1454C217.8561,-199.3877 244.7155,-253.1648 285,-281 287.8796,-282.9897 290.9457,-284.7717 294.1334,-286.3677"/>
<polygon fill="#191970" stroke="#191970" points="292.8189,-289.6126 303.3851,-290.3907 295.6104,-283.1933 292.8189,-289.6126"/>
</g>
<!-- Node64 -->
<g id="node4" class="node">
<title>Node64</title>
<g id="a_node4"><a xlink:href="../../df/dea/classopenage_1_1_unit.xhtml#ac5dcdf3180dcd4bdce67b765d8ef2134" target="_top" xlink:title="queues a command to be applied to this unit on the next update ">
<polygon fill="#ffffff" stroke="#000000" points="295.5,-252.5 295.5,-271.5 429.5,-271.5 429.5,-252.5 295.5,-252.5"/>
<text text-anchor="middle" x="362.5" y="-259.5" font-family="Helvetica,sans-Serif" font-size="10.00" fill="#000000">openage::Unit::queue_cmd</text>
</a>
</g>
</g>
<!-- Node62&#45;&gt;Node64 -->
<g id="edge3" class="edge">
<title>Node62&#45;&gt;Node64</title>
<path fill="none" stroke="#191970" d="M212.6645,-173.1493C227.8191,-191.0732 255.3543,-220.6627 285,-238 292.5973,-242.443 301.1029,-246.1469 309.6209,-249.2078"/>
<polygon fill="#191970" stroke="#191970" points="308.6019,-252.5574 319.1955,-252.3956 310.8132,-245.9158 308.6019,-252.5574"/>
</g>
<!-- Node66 -->
<g id="node6" class="node">
<title>Node66</title>
<g id="a_node6"><a xlink:href="../../df/dea/classopenage_1_1_unit.xhtml#a238fb029bd4cc32e393506533facd976" target="_top" xlink:title="removes all gather actions without calling their on_complete actions this cancels the gathering actio...">
<polygon fill="#ffffff" stroke="#000000" points="493,-209 493,-239 595,-239 595,-209 493,-209"/>
<text text-anchor="start" x="501" y="-227" font-family="Helvetica,sans-Serif" font-size="10.00" fill="#000000">openage::Unit::stop</text>
<text text-anchor="middle" x="544" y="-216" font-family="Helvetica,sans-Serif" font-size="10.00" fill="#000000">_gather</text>
</a>
</g>
</g>
<!-- Node62&#45;&gt;Node66 -->
<g id="edge5" class="edge">
<title>Node62&#45;&gt;Node66</title>
<path fill="none" stroke="#191970" d="M221.5701,-173.142C237.9981,-184.0723 261.8394,-198.0781 285,-205 350.4047,-224.5471 429.0404,-227.6187 482.3787,-226.8657"/>
<polygon fill="#191970" stroke="#191970" points="482.7666,-230.359 492.6976,-226.6678 482.6323,-223.3603 482.7666,-230.359"/>
</g>
<!-- Node68 -->
<g id="node8" class="node">
<title>Node68</title>
<g id="a_node8"><a xlink:href="../../df/dea/classopenage_1_1_unit.xhtml#a9f53ef015fca7c42ff3bf9d0779145a3" target="_top" xlink:title="removes all actions above and including the first interuptable action this will stop any of the units...">
<polygon fill="#ffffff" stroke="#000000" points="311.5,-165 311.5,-195 413.5,-195 413.5,-165 311.5,-165"/>
<text text-anchor="start" x="319.5" y="-183" font-family="Helvetica,sans-Serif" font-size="10.00" fill="#000000">openage::Unit::stop</text>
<text text-anchor="middle" x="362.5" y="-172" font-family="Helvetica,sans-Serif" font-size="10.00" fill="#000000">_actions</text>
</a>
</g>
</g>
<!-- Node62&#45;&gt;Node68 -->
<g id="edge7" class="edge">
<title>Node62&#45;&gt;Node68</title>
<path fill="none" stroke="#191970" d="M249.1053,-164.6007C265.5441,-166.8332 284.1142,-169.355 301.3962,-171.7019"/>
<polygon fill="#191970" stroke="#191970" points="301.0168,-175.1825 311.3968,-173.0601 301.9588,-168.2461 301.0168,-175.1825"/>
</g>
<!-- Node71 -->
<g id="node11" class="node">
<title>Node71</title>
<g id="a_node11"><a xlink:href="../../df/dea/classopenage_1_1_unit.xhtml#ad7f76de394d832d927a9e6d46bd3c93f" target="_top" xlink:title="begins unit removal by popping some actions ">
<polygon fill="#ffffff" stroke="#000000" points="297,-126.5 297,-145.5 428,-145.5 428,-126.5 297,-126.5"/>
<text text-anchor="middle" x="362.5" y="-133.5" font-family="Helvetica,sans-Serif" font-size="10.00" fill="#000000">openage::Unit::delete_unit</text>
</a>
</g>
</g>
<!-- Node62&#45;&gt;Node71 -->
<g id="edge12" class="edge">
<title>Node62&#45;&gt;Node71</title>
<path fill="none" stroke="#191970" d="M249.1053,-151.3993C260.9453,-149.7914 273.8909,-148.0333 286.6645,-146.2986"/>
<polygon fill="#191970" stroke="#191970" points="287.4094,-149.7297 296.8474,-144.9158 286.4673,-142.7934 287.4094,-149.7297"/>
</g>
<!-- Node72 -->
<g id="node12" class="node">
<title>Node72</title>
<g id="a_node12"><a xlink:href="../../df/dea/classopenage_1_1_unit.xhtml#adfea298b04684ab09dd8f499dabb8715" target="_top" xlink:title="get a reference which can check against the container to ensure this object still exists ...">
<polygon fill="#ffffff" stroke="#000000" points="306,-88.5 306,-107.5 419,-107.5 419,-88.5 306,-88.5"/>
<text text-anchor="middle" x="362.5" y="-95.5" font-family="Helvetica,sans-Serif" font-size="10.00" fill="#000000">openage::Unit::get_ref</text>
</a>
</g>
</g>
<!-- Node62&#45;&gt;Node72 -->
<g id="edge13" class="edge">
<title>Node62&#45;&gt;Node72</title>
<path fill="none" stroke="#191970" d="M228.0245,-142.8099C244.241,-134.3299 265.366,-124.0799 285,-117 291.8988,-114.5123 299.2584,-112.2411 306.5932,-110.203"/>
<polygon fill="#191970" stroke="#191970" points="307.7637,-113.5138 316.5343,-107.5701 305.9715,-106.7471 307.7637,-113.5138"/>
</g>
<!-- Node73 -->
<g id="node13" class="node">
<title>Node73</title>
<g id="a_node13"><a xlink:href="../../df/dea/classopenage_1_1_unit.xhtml#a2e9937d84fe91d95cbe273f6fe986068" target="_top" xlink:title="the container used when constructing this unit ">
<polygon fill="#ffffff" stroke="#000000" points="314,-39 314,-69 411,-69 411,-39 314,-39"/>
<text text-anchor="start" x="322" y="-57" font-family="Helvetica,sans-Serif" font-size="10.00" fill="#000000">openage::Unit::get</text>
<text text-anchor="middle" x="362.5" y="-46" font-family="Helvetica,sans-Serif" font-size="10.00" fill="#000000">_container</text>
</a>
</g>
</g>
<!-- Node62&#45;&gt;Node73 -->
<g id="edge14" class="edge">
<title>Node62&#45;&gt;Node73</title>
<path fill="none" stroke="#191970" d="M213.0095,-142.7937C228.2929,-125.1286 255.7491,-96.2136 285,-79 290.976,-75.4832 297.507,-72.3963 304.1607,-69.7037"/>
<polygon fill="#191970" stroke="#191970" points="305.8109,-72.8231 313.9469,-66.0366 303.3546,-66.2681 305.8109,-72.8231"/>
</g>
<!-- Node74 -->
<g id="node14" class="node">
<title>Node74</title>
<g id="a_node14"><a xlink:href="../../df/dea/classopenage_1_1_unit.xhtml#ae769f520dfdb148ec831c151a954a881" target="_top" xlink:title="Returns the unit&#39;s name as the LogSource name. ">
<polygon fill="#ffffff" stroke="#000000" points="285,-.5 285,-19.5 440,-19.5 440,-.5 285,-.5"/>
<text text-anchor="middle" x="362.5" y="-7.5" font-family="Helvetica,sans-Serif" font-size="10.00" fill="#000000">openage::Unit::logsource_name</text>
</a>
</g>
</g>
<!-- Node62&#45;&gt;Node74 -->
<g id="edge15" class="edge">
<title>Node62&#45;&gt;Node74</title>
<path fill="none" stroke="#191970" d="M206.0022,-142.9853C216.7627,-115.8047 243.2526,-58.5307 285,-29 287.7143,-27.08 290.6009,-25.3529 293.6035,-23.7996"/>
<polygon fill="#191970" stroke="#191970" points="295.2031,-26.9184 302.9035,-19.6414 292.3458,-20.5281 295.2031,-26.9184"/>
</g>
<!-- Node65 -->
<g id="node5" class="node">
<title>Node65</title>
<g id="a_node5"><a xlink:href="../../d8/dda/classopenage_1_1_command.xhtml#afbc0a60d82b9608e375c38c5e3fdf758" target="_top" xlink:title="the ability types allowed to use this command ">
<polygon fill="#ffffff" stroke="#000000" points="476,-258.5 476,-277.5 612,-277.5 612,-258.5 476,-258.5"/>
<text text-anchor="middle" x="544" y="-265.5" font-family="Helvetica,sans-Serif" font-size="10.00" fill="#000000">openage::Command::ability</text>
</a>
</g>
</g>
<!-- Node64&#45;&gt;Node65 -->
<g id="edge4" class="edge">
<title>Node64&#45;&gt;Node65</title>
<path fill="none" stroke="#191970" d="M429.5682,-264.2171C441.402,-264.6083 453.8134,-265.0186 465.9182,-265.4188"/>
<polygon fill="#191970" stroke="#191970" points="465.8844,-268.9195 475.9946,-265.7519 466.1157,-261.9233 465.8844,-268.9195"/>
</g>
<!-- Node67 -->
<g id="node7" class="node">
<title>Node67</title>
<g id="a_node7"><a xlink:href="../../df/dea/classopenage_1_1_unit.xhtml#aae0b3f53cb1d75823391322876d199ef" target="_top" xlink:title="erase from action specified by func to the end of the stack all actions erased will have the on_compl...">
<polygon fill="#ffffff" stroke="#000000" points="656,-187 656,-217 763,-217 763,-187 656,-187"/>
<text text-anchor="start" x="664" y="-205" font-family="Helvetica,sans-Serif" font-size="10.00" fill="#000000">openage::Unit::erase</text>
<text text-anchor="middle" x="709.5" y="-194" font-family="Helvetica,sans-Serif" font-size="10.00" fill="#000000">_after</text>
</a>
</g>
</g>
<!-- Node66&#45;&gt;Node67 -->
<g id="edge6" class="edge">
<title>Node66&#45;&gt;Node67</title>
<path fill="none" stroke="#191970" d="M595.0059,-217.2198C610.9723,-215.0973 628.7971,-212.7279 645.5387,-210.5024"/>
<polygon fill="#191970" stroke="#191970" points="646.3448,-213.9261 655.7964,-209.1389 645.4223,-206.9872 646.3448,-213.9261"/>
</g>
<!-- Node68&#45;&gt;Node66 -->
<g id="edge10" class="edge">
<title>Node68&#45;&gt;Node66</title>
<path fill="none" stroke="#191970" d="M413.5409,-192.3735C435.0957,-197.599 460.3736,-203.7269 482.9096,-209.1902"/>
<polygon fill="#191970" stroke="#191970" points="482.1702,-212.6123 492.7134,-211.5669 483.8195,-205.8093 482.1702,-212.6123"/>
</g>
<!-- Node68&#45;&gt;Node67 -->
<g id="edge11" class="edge">
<title>Node68&#45;&gt;Node67</title>
<path fill="none" stroke="#191970" d="M413.701,-183.2462C475.3864,-187.1571 579.0363,-193.7285 645.8214,-197.9627"/>
<polygon fill="#191970" stroke="#191970" points="645.603,-201.4558 655.8045,-198.5957 646.046,-194.4699 645.603,-201.4558"/>
</g>
<!-- Node69 -->
<g id="node9" class="node">
<title>Node69</title>
<g id="a_node9"><a xlink:href="../../df/dea/classopenage_1_1_unit.xhtml#a6c56a8b7e9856a8e0535cacbe831bae7" target="_top" xlink:title="returns whether attribute is available ">
<polygon fill="#ffffff" stroke="#000000" points="494.5,-121 494.5,-151 593.5,-151 593.5,-121 494.5,-121"/>
<text text-anchor="start" x="502.5" y="-139" font-family="Helvetica,sans-Serif" font-size="10.00" fill="#000000">openage::Unit::has</text>
<text text-anchor="middle" x="544" y="-128" font-family="Helvetica,sans-Serif" font-size="10.00" fill="#000000">_attribute</text>
</a>
</g>
</g>
<!-- Node68&#45;&gt;Node69 -->
<g id="edge8" class="edge">
<title>Node68&#45;&gt;Node69</title>
<path fill="none" stroke="#191970" d="M413.5409,-167.6265C435.5524,-162.2903 461.4463,-156.013 484.3383,-150.4635"/>
<polygon fill="#191970" stroke="#191970" points="485.3876,-153.8105 494.2815,-148.053 483.7384,-147.0076 485.3876,-153.8105"/>
</g>
<!-- Node70 -->
<g id="node10" class="node">
<title>Node70</title>
<g id="a_node10"><a xlink:href="../../de/d8a/classopenage_1_1_attributes.xhtml#aee38f453ac85b68821958ad74cdd8df5" target="_top" xlink:title="Check if the attribute of the given type exists. ">
<polygon fill="#ffffff" stroke="#000000" points="648,-126.5 648,-145.5 771,-145.5 771,-126.5 648,-126.5"/>
<text text-anchor="middle" x="709.5" y="-133.5" font-family="Helvetica,sans-Serif" font-size="10.00" fill="#000000">openage::Attributes::has</text>
</a>
</g>
</g>
<!-- Node69&#45;&gt;Node70 -->
<g id="edge9" class="edge">
<title>Node69&#45;&gt;Node70</title>
<path fill="none" stroke="#191970" d="M593.6555,-136C607.503,-136 622.8309,-136 637.6808,-136"/>
<polygon fill="#191970" stroke="#191970" points="637.8611,-139.5001 647.861,-136 637.861,-132.5001 637.8611,-139.5001"/>
</g>
<!-- Node75 -->
<g id="node15" class="node">
<title>Node75</title>
<g id="a_node15"><a xlink:href="../../d8/dcc/namespacestd.xhtml#a26aa0f4be3a77ac5cc3ce0cabb545042" target="_top" xlink:title="std::to_string">
<polygon fill="#ffffff" stroke="#000000" points="507,-.5 507,-19.5 581,-19.5 581,-.5 507,-.5"/>
<text text-anchor="middle" x="544" y="-7.5" font-family="Helvetica,sans-Serif" font-size="10.00" fill="#000000">std::to_string</text>
</a>
</g>
</g>
<!-- Node74&#45;&gt;Node75 -->
<g id="edge16" class="edge">
<title>Node74&#45;&gt;Node75</title>
<path fill="none" stroke="#191970" d="M440.2622,-10C459.3849,-10 479.2933,-10 496.4958,-10"/>
<polygon fill="#191970" stroke="#191970" points="496.826,-13.5001 506.8259,-10 496.8259,-6.5001 496.826,-13.5001"/>
</g>
</g>
</svg>
