<?xml version="1.0" encoding="UTF-8" standalone="no"?>
<!DOCTYPE svg PUBLIC "-//W3C//DTD SVG 1.1//EN"
 "http://www.w3.org/Graphics/SVG/1.1/DTD/svg11.dtd">
<!-- Generated by graphviz version 2.40.1 (20161225.0304)
 -->
<!-- Title: openage::curve::Queue::end Pages: 1 -->
<!--zoomable 610 -->
<svg id="main" version="1.1" xmlns="http://www.w3.org/2000/svg" xmlns:xlink="http://www.w3.org/1999/xlink" xml:space="preserve" onload="init(evt)">
<style type="text/css"><![CDATA[
.edge:hover path { stroke: red; }
.edge:hover polygon { stroke: red; fill: red; }
]]></style>
<script type="text/javascript"><![CDATA[
var edges = document.getElementsByTagName('g');
if (edges && edges.length) {
  for (var i=0;i<edges.length;i++) {
    if (edges[i].id.substr(0,4)=='edge') {
      edges[i].setAttribute('class','edge');
    }
  }
}
]]></script>
        <defs>
                <circle id="rim" cx="0" cy="0" r="7"/>
                <circle id="rim2" cx="0" cy="0" r="3.5"/>
                <g id="zoomPlus">
                        <use xlink:href="#rim" fill="#404040">
                                <set attributeName="fill" to="#808080" begin="zoomplus.mouseover" end="zoomplus.mouseout"/>
                        </use>
                        <path d="M-4,0h8M0,-4v8" fill="none" stroke="white" stroke-width="1.5" pointer-events="none"/>
                </g>
                <g id="zoomMin">
                        <use xlink:href="#rim" fill="#404040">
                                <set attributeName="fill" to="#808080" begin="zoomminus.mouseover" end="zoomminus.mouseout"/>
                        </use>
                        <path d="M-4,0h8" fill="none" stroke="white" stroke-width="1.5" pointer-events="none"/>
                </g>
                <g id="dirArrow">
                        <path fill="none" stroke="white" stroke-width="1.5" d="M0,-3.0v7 M-2.5,-0.5L0,-3.0L2.5,-0.5"/>
                </g>
               <g id="resetDef">
                       <use xlink:href="#rim2" fill="#404040">
                               <set attributeName="fill" to="#808080" begin="reset.mouseover" end="reset.mouseout"/>
                       </use>
               </g>
        </defs>

<script type="text/javascript">
var viewWidth = 2047;
var viewHeight = 610;
var sectionId = 'dynsection-8';
</script>
<script xlink:href="../../svgpan.js"/>
<svg id="graph" class="graph">
<g id="viewport">
<title>openage::curve::Queue::end</title>
<polygon fill="#ffffff" stroke="transparent" points="-4,4 -4,-605.5 2043,-605.5 2043,4 -4,4"/>
<!-- Node78 -->
<g id="node1" class="node">
<title>Node78</title>
<polygon fill="#bfbfbf" stroke="#000000" points="0,-456.5 0,-475.5 140,-475.5 140,-456.5 0,-456.5"/>
<text text-anchor="middle" x="70" y="-463.5" font-family="Helvetica,sans-Serif" font-size="10.00" fill="#000000">openage::curve::Queue::end</text>
</g>
<!-- Node79 -->
<g id="node2" class="node">
<title>Node79</title>
<g id="a_node2"><a xlink:href="../../df/d88/classopenage_1_1curve_1_1_queue.xhtml#acbff846f0aad39b82c1dbffe83f80fba" target="_top" xlink:title="openage::curve::Queue\l::begin">
<polygon fill="#ffffff" stroke="#000000" points="176,-451 176,-481 294,-481 294,-451 176,-451"/>
<text text-anchor="start" x="184" y="-469" font-family="Helvetica,sans-Serif" font-size="10.00" fill="#000000">openage::curve::Queue</text>
<text text-anchor="middle" x="235" y="-458" font-family="Helvetica,sans-Serif" font-size="10.00" fill="#000000">::begin</text>
</a>
</g>
</g>
<!-- Node78&#45;&gt;Node79 -->
<g id="edge1" class="edge">
<title>Node78&#45;&gt;Node79</title>
<path fill="none" stroke="#191970" d="M150.4884,-466C159.067,-466 167.6747,-466 175.94,-466"/>
<polygon fill="#191970" stroke="#191970" points="150.4535,-462.5001 140.4535,-466 150.4534,-469.5001 150.4535,-462.5001"/>
</g>
<!-- Node80 -->
<g id="node3" class="node">
<title>Node80</title>
<g id="a_node3"><a xlink:href="../../df/d88/classopenage_1_1curve_1_1_queue.xhtml#a3ba35a56fa550d939d0d16c71c63e56c" target="_top" xlink:title="openage::curve::Queue\l::between">
<polygon fill="#ffffff" stroke="#000000" points="330,-492 330,-522 448,-522 448,-492 330,-492"/>
<text text-anchor="start" x="338" y="-510" font-family="Helvetica,sans-Serif" font-size="10.00" fill="#000000">openage::curve::Queue</text>
<text text-anchor="middle" x="389" y="-499" font-family="Helvetica,sans-Serif" font-size="10.00" fill="#000000">::between</text>
</a>
</g>
</g>
<!-- Node78&#45;&gt;Node80 -->
<g id="edge33" class="edge">
<title>Node78&#45;&gt;Node80</title>
<path fill="none" stroke="#191970" d="M116.0008,-477.9225C134.5283,-482.3286 156.1691,-486.9795 176,-490 227.71,-497.8762 287.0739,-502.2334 329.9737,-504.5586"/>
<polygon fill="#191970" stroke="#191970" points="116.6026,-474.4671 106.0594,-475.5118 114.9529,-481.2699 116.6026,-474.4671"/>
</g>
<!-- Node81 -->
<g id="node4" class="node">
<title>Node81</title>
<g id="a_node4"><a xlink:href="../../d5/d9d/namespaceopenage_1_1curve_1_1tests.xhtml#ae4b27fadf76c2a10960f6b7e7ff7c724" target="_top" xlink:title="openage::curve::tests\l::test_queue">
<polygon fill="#ffffff" stroke="#000000" points="484,-448 484,-478 595,-478 595,-448 484,-448"/>
<text text-anchor="start" x="492" y="-466" font-family="Helvetica,sans-Serif" font-size="10.00" fill="#000000">openage::curve::tests</text>
<text text-anchor="middle" x="539.5" y="-455" font-family="Helvetica,sans-Serif" font-size="10.00" fill="#000000">::test_queue</text>
</a>
</g>
</g>
<!-- Node78&#45;&gt;Node81 -->
<g id="edge34" class="edge">
<title>Node78&#45;&gt;Node81</title>
<path fill="none" stroke="#191970" d="M111.8425,-453.7708C131.1829,-448.7307 154.5691,-443.493 176,-441 284.6434,-428.3617 412.4517,-442.8518 483.9071,-453.5763"/>
<polygon fill="#191970" stroke="#191970" points="110.883,-450.4044 102.1293,-456.3729 112.6944,-457.166 110.883,-450.4044"/>
</g>
<!-- Node79&#45;&gt;Node80 -->
<g id="edge2" class="edge">
<title>Node79&#45;&gt;Node80</title>
<path fill="none" stroke="#191970" d="M301.3311,-483.6596C311.7279,-486.4276 322.3894,-489.266 332.5374,-491.9677"/>
<polygon fill="#191970" stroke="#191970" points="302.0333,-480.2247 291.4695,-481.0341 300.2324,-486.9891 302.0333,-480.2247"/>
</g>
<!-- Node79&#45;&gt;Node81 -->
<g id="edge32" class="edge">
<title>Node79&#45;&gt;Node81</title>
<path fill="none" stroke="#191970" d="M304.3229,-465.317C358.7139,-464.7811 433.4248,-464.0451 483.9284,-463.5475"/>
<polygon fill="#191970" stroke="#191970" points="304.0367,-461.8196 294.0717,-465.418 304.1057,-468.8192 304.0367,-461.8196"/>
</g>
<!-- Node80&#45;&gt;Node81 -->
<g id="edge3" class="edge">
<title>Node80&#45;&gt;Node81</title>
<path fill="none" stroke="#191970" d="M450.2971,-489.0793C462.8504,-485.4092 475.9407,-481.5821 488.1035,-478.0262"/>
<polygon fill="#191970" stroke="#191970" points="448.9887,-485.8152 440.3726,-491.9808 450.953,-492.5339 448.9887,-485.8152"/>
</g>
<!-- Node82 -->
<g id="node5" class="node">
<title>Node82</title>
<g id="a_node5"><a xlink:href="../../d5/d9d/namespaceopenage_1_1curve_1_1tests.xhtml#afc4e799a037edab37e1e35a74da593b7" target="_top" xlink:title="openage::curve::tests\l::container">
<polygon fill="#ffffff" stroke="#000000" points="631,-448 631,-478 742,-478 742,-448 631,-448"/>
<text text-anchor="start" x="639" y="-466" font-family="Helvetica,sans-Serif" font-size="10.00" fill="#000000">openage::curve::tests</text>
<text text-anchor="middle" x="686.5" y="-455" font-family="Helvetica,sans-Serif" font-size="10.00" fill="#000000">::container</text>
</a>
</g>
</g>
<!-- Node81&#45;&gt;Node82 -->
<g id="edge4" class="edge">
<title>Node81&#45;&gt;Node82</title>
<path fill="none" stroke="#191970" d="M605.0775,-463C613.6805,-463 622.4299,-463 630.847,-463"/>
<polygon fill="#191970" stroke="#191970" points="605.0744,-459.5001 595.0744,-463 605.0744,-466.5001 605.0744,-459.5001"/>
</g>
<!-- Node83 -->
<g id="node6" class="node">
<title>Node83</title>
<g id="a_node6"><a xlink:href="../../d8/d06/classopenage_1_1_action_mode.xhtml#a3865e557756044d8183a3d24cd5b8ab4" target="_top" xlink:title="places hovering building ">
<polygon fill="#ffffff" stroke="#000000" points="780.5,-571 780.5,-601 891.5,-601 891.5,-571 780.5,-571"/>
<text text-anchor="start" x="788.5" y="-589" font-family="Helvetica,sans-Serif" font-size="10.00" fill="#000000">openage::ActionMode</text>
<text text-anchor="middle" x="836" y="-578" font-family="Helvetica,sans-Serif" font-size="10.00" fill="#000000">::place_selection</text>
</a>
</g>
</g>
<!-- Node82&#45;&gt;Node83 -->
<g id="edge5" class="edge">
<title>Node82&#45;&gt;Node83</title>
<path fill="none" stroke="#191970" d="M703.5151,-486.1369C720.4226,-507.8141 748.0891,-539.9462 778,-561 783.2902,-564.7237 789.2227,-568.0589 795.2204,-570.9869"/>
<polygon fill="#191970" stroke="#191970" points="706.2275,-483.9221 697.3707,-478.1075 700.6684,-488.1761 706.2275,-483.9221"/>
</g>
<!-- Node85 -->
<g id="node8" class="node">
<title>Node85</title>
<g id="a_node8"><a xlink:href="../../db/d42/classopenage_1_1_editor_mode.xhtml#a1430647b024d4c9e7021756a6fa9700d" target="_top" xlink:title="openage::EditorMode\l::paint_entity_at">
<polygon fill="#ffffff" stroke="#000000" points="781.5,-522 781.5,-552 890.5,-552 890.5,-522 781.5,-522"/>
<text text-anchor="start" x="789.5" y="-540" font-family="Helvetica,sans-Serif" font-size="10.00" fill="#000000">openage::EditorMode</text>
<text text-anchor="middle" x="836" y="-529" font-family="Helvetica,sans-Serif" font-size="10.00" fill="#000000">::paint_entity_at</text>
</a>
</g>
</g>
<!-- Node82&#45;&gt;Node85 -->
<g id="edge7" class="edge">
<title>Node82&#45;&gt;Node85</title>
<path fill="none" stroke="#191970" d="M722.3176,-483.0879C739.0623,-492.2438 759.3746,-503.0187 778,-512 784.9137,-515.3338 792.383,-518.7137 799.5872,-521.8651"/>
<polygon fill="#191970" stroke="#191970" points="723.864,-479.9439 713.4154,-478.1894 720.4894,-486.0768 723.864,-479.9439"/>
</g>
<!-- Node87 -->
<g id="node10" class="node">
<title>Node87</title>
<g id="a_node10"><a xlink:href="../../d5/d62/classopenage_1_1_train_action.xhtml#af5515a9c445b00f4dd69348e7177c94c" target="_top" xlink:title="each action has its own update functionality which gets called when this is the active action ...">
<polygon fill="#ffffff" stroke="#000000" points="781.5,-473 781.5,-503 890.5,-503 890.5,-473 781.5,-473"/>
<text text-anchor="start" x="789.5" y="-491" font-family="Helvetica,sans-Serif" font-size="10.00" fill="#000000">openage::TrainAction</text>
<text text-anchor="middle" x="836" y="-480" font-family="Helvetica,sans-Serif" font-size="10.00" fill="#000000">::update</text>
</a>
</g>
</g>
<!-- Node82&#45;&gt;Node87 -->
<g id="edge9" class="edge">
<title>Node82&#45;&gt;Node87</title>
<path fill="none" stroke="#191970" d="M752.1875,-473.9845C761.9009,-475.6088 771.8214,-477.2678 781.2799,-478.8495"/>
<polygon fill="#191970" stroke="#191970" points="752.6086,-470.5064 742.1683,-472.3091 751.454,-477.4106 752.6086,-470.5064"/>
</g>
<!-- Node88 -->
<g id="node11" class="node">
<title>Node88</title>
<g id="a_node11"><a xlink:href="../../d7/d12/classopenage_1_1_attack_action.xhtml#a1a76ce122961d9e09c526b8d0f2f513f" target="_top" xlink:title="add a projectile game object which moves towards the target ">
<polygon fill="#ffffff" stroke="#000000" points="778,-424 778,-454 894,-454 894,-424 778,-424"/>
<text text-anchor="start" x="786" y="-442" font-family="Helvetica,sans-Serif" font-size="10.00" fill="#000000">openage::AttackAction</text>
<text text-anchor="middle" x="836" y="-431" font-family="Helvetica,sans-Serif" font-size="10.00" fill="#000000">::fire_projectile</text>
</a>
</g>
</g>
<!-- Node82&#45;&gt;Node88 -->
<g id="edge10" class="edge">
<title>Node82&#45;&gt;Node88</title>
<path fill="none" stroke="#191970" d="M752.1039,-452.4683C760.6543,-451.0956 769.3668,-449.697 777.7847,-448.3456"/>
<polygon fill="#191970" stroke="#191970" points="751.4871,-449.0224 742.1683,-454.0633 752.5967,-455.9339 751.4871,-449.0224"/>
</g>
<!-- Node91 -->
<g id="node14" class="node">
<title>Node91</title>
<g id="a_node14"><a xlink:href="../../dd/d68/classopenage_1_1pyinterface_1_1_py_object_ref.xhtml#a54af3d98bf36729efd5a013bc124a2e9" target="_top" xlink:title="obj(args...) ">
<polygon fill="#ffffff" stroke="#000000" points="782.5,-375 782.5,-405 889.5,-405 889.5,-375 782.5,-375"/>
<text text-anchor="start" x="790.5" y="-393" font-family="Helvetica,sans-Serif" font-size="10.00" fill="#000000">openage::pyinterface</text>
<text text-anchor="middle" x="836" y="-382" font-family="Helvetica,sans-Serif" font-size="10.00" fill="#000000">::PyObjectRef::call</text>
</a>
</g>
</g>
<!-- Node82&#45;&gt;Node91 -->
<g id="edge13" class="edge">
<title>Node82&#45;&gt;Node91</title>
<path fill="none" stroke="#191970" d="M721.8896,-442.9898C738.6915,-433.7639 759.172,-422.9099 778,-414 784.4026,-410.9701 791.2931,-407.9316 798.0109,-405.0842"/>
<polygon fill="#191970" stroke="#191970" points="720.0238,-440.022 712.9675,-447.925 723.4121,-446.1473 720.0238,-440.022"/>
</g>
<!-- Node94 -->
<g id="node17" class="node">
<title>Node94</title>
<g id="a_node17"><a xlink:href="../../de/d60/namespaceopenage_1_1util.xhtml#ac6f34c002692bc844cd70de03e10bc5d" target="_top" xlink:title="std::for_each except just on containers. ">
<polygon fill="#ffffff" stroke="#000000" points="778,-181.5 778,-200.5 894,-200.5 894,-181.5 778,-181.5"/>
<text text-anchor="middle" x="836" y="-188.5" font-family="Helvetica,sans-Serif" font-size="10.00" fill="#000000">openage::util::for_each</text>
</a>
</g>
</g>
<!-- Node82&#45;&gt;Node94 -->
<g id="edge16" class="edge">
<title>Node82&#45;&gt;Node94</title>
<path fill="none" stroke="#191970" d="M699.732,-438.9257C731.2687,-381.548 809.7942,-238.6788 830.7761,-200.5044"/>
<polygon fill="#191970" stroke="#191970" points="696.5002,-437.5393 694.7507,-447.9887 702.6347,-440.911 696.5002,-437.5393"/>
</g>
<!-- Node84 -->
<g id="node7" class="node">
<title>Node84</title>
<g id="a_node7"><a xlink:href="../../d8/d06/classopenage_1_1_action_mode.xhtml#a43f98279255b857ee8fa9943117271e8" target="_top" xlink:title="Called after GameControl has been set by QML from set_game_control. ">
<polygon fill="#ffffff" stroke="#000000" points="961.5,-571 961.5,-601 1077.5,-601 1077.5,-571 961.5,-571"/>
<text text-anchor="start" x="969.5" y="-589" font-family="Helvetica,sans-Serif" font-size="10.00" fill="#000000">openage::ActionMode</text>
<text text-anchor="middle" x="1019.5" y="-578" font-family="Helvetica,sans-Serif" font-size="10.00" fill="#000000">::on_game_control_set</text>
</a>
</g>
</g>
<!-- Node83&#45;&gt;Node84 -->
<g id="edge6" class="edge">
<title>Node83&#45;&gt;Node84</title>
<path fill="none" stroke="#191970" d="M901.5703,-586C921.064,-586 942.2784,-586 961.2711,-586"/>
<polygon fill="#191970" stroke="#191970" points="901.5541,-582.5001 891.554,-586 901.554,-589.5001 901.5541,-582.5001"/>
</g>
<!-- Node86 -->
<g id="node9" class="node">
<title>Node86</title>
<g id="a_node9"><a xlink:href="../../db/d42/classopenage_1_1_editor_mode.xhtml#a29b4d3a8c32153ccdc566f60fcdacf7f" target="_top" xlink:title="Called after GameControl has been set by QML from set_game_control. ">
<polygon fill="#ffffff" stroke="#000000" points="961.5,-522 961.5,-552 1077.5,-552 1077.5,-522 961.5,-522"/>
<text text-anchor="start" x="969.5" y="-540" font-family="Helvetica,sans-Serif" font-size="10.00" fill="#000000">openage::EditorMode</text>
<text text-anchor="middle" x="1019.5" y="-529" font-family="Helvetica,sans-Serif" font-size="10.00" fill="#000000">::on_game_control_set</text>
</a>
</g>
</g>
<!-- Node85&#45;&gt;Node86 -->
<g id="edge8" class="edge">
<title>Node85&#45;&gt;Node86</title>
<path fill="none" stroke="#191970" d="M900.697,-537C920.4452,-537 942.0297,-537 961.3183,-537"/>
<polygon fill="#191970" stroke="#191970" points="900.5593,-533.5001 890.5592,-537 900.5592,-540.5001 900.5593,-533.5001"/>
</g>
<!-- Node89 -->
<g id="node12" class="node">
<title>Node89</title>
<g id="a_node12"><a xlink:href="../../d7/d12/classopenage_1_1_attack_action.xhtml#ae6ce05cd88d0f3000950c6d39421c24c" target="_top" xlink:title="use attack action ">
<polygon fill="#ffffff" stroke="#000000" points="961.5,-449 961.5,-479 1077.5,-479 1077.5,-449 961.5,-449"/>
<text text-anchor="start" x="969.5" y="-467" font-family="Helvetica,sans-Serif" font-size="10.00" fill="#000000">openage::AttackAction</text>
<text text-anchor="middle" x="1019.5" y="-456" font-family="Helvetica,sans-Serif" font-size="10.00" fill="#000000">::attack</text>
</a>
</g>
</g>
<!-- Node88&#45;&gt;Node89 -->
<g id="edge11" class="edge">
<title>Node88&#45;&gt;Node89</title>
<path fill="none" stroke="#191970" d="M904.0281,-448.2681C922.8081,-450.8267 943.0118,-453.5793 961.1873,-456.0555"/>
<polygon fill="#191970" stroke="#191970" points="904.4415,-444.7922 894.0605,-446.9102 903.4965,-451.7281 904.4415,-444.7922"/>
</g>
<!-- Node90 -->
<g id="node13" class="node">
<title>Node90</title>
<g id="a_node13"><a xlink:href="../../d7/d12/classopenage_1_1_attack_action.xhtml#af3e4ae03273bd3d6ea4b5a196ce6351c" target="_top" xlink:title="Control units action when in range of the target. ">
<polygon fill="#ffffff" stroke="#000000" points="1177,-449 1177,-479 1293,-479 1293,-449 1177,-449"/>
<text text-anchor="start" x="1185" y="-467" font-family="Helvetica,sans-Serif" font-size="10.00" fill="#000000">openage::AttackAction</text>
<text text-anchor="middle" x="1235" y="-456" font-family="Helvetica,sans-Serif" font-size="10.00" fill="#000000">::update_in_range</text>
</a>
</g>
</g>
<!-- Node89&#45;&gt;Node90 -->
<g id="edge12" class="edge">
<title>Node89&#45;&gt;Node90</title>
<path fill="none" stroke="#191970" d="M1087.868,-464C1116.4961,-464 1149.4249,-464 1176.8628,-464"/>
<polygon fill="#191970" stroke="#191970" points="1087.5336,-460.5001 1077.5335,-464 1087.5335,-467.5001 1087.5336,-460.5001"/>
</g>
<!-- Node92 -->
<g id="node15" class="node">
<title>Node92</title>
<g id="a_node15"><a xlink:href="../../d1/d18/namespaceopenage_1_1pyinterface_1_1tests.xhtml#ad69d94519ba25682897d8da53beb86df" target="_top" xlink:title="openage::pyinterface\l::tests::pyobject">
<polygon fill="#ffffff" stroke="#000000" points="966,-400 966,-430 1073,-430 1073,-400 966,-400"/>
<text text-anchor="start" x="974" y="-418" font-family="Helvetica,sans-Serif" font-size="10.00" fill="#000000">openage::pyinterface</text>
<text text-anchor="middle" x="1019.5" y="-407" font-family="Helvetica,sans-Serif" font-size="10.00" fill="#000000">::tests::pyobject</text>
</a>
</g>
</g>
<!-- Node91&#45;&gt;Node92 -->
<g id="edge14" class="edge">
<title>Node91&#45;&gt;Node92</title>
<path fill="none" stroke="#191970" d="M899.6348,-398.6696C921.2308,-401.6118 945.1272,-404.8675 965.8643,-407.6927"/>
<polygon fill="#191970" stroke="#191970" points="899.9501,-395.1803 889.5691,-397.2982 899.005,-402.1162 899.9501,-395.1803"/>
</g>
<!-- Node93 -->
<g id="node16" class="node">
<title>Node93</title>
<g id="a_node16"><a xlink:href="../../d1/d18/namespaceopenage_1_1pyinterface_1_1tests.xhtml#a0f930d1710b53aa90f3e05e85aa5d544" target="_top" xlink:title="openage::pyinterface\l::tests::pyobject_demo">
<polygon fill="#ffffff" stroke="#000000" points="961.5,-351 961.5,-381 1077.5,-381 1077.5,-351 961.5,-351"/>
<text text-anchor="start" x="969.5" y="-369" font-family="Helvetica,sans-Serif" font-size="10.00" fill="#000000">openage::pyinterface</text>
<text text-anchor="middle" x="1019.5" y="-358" font-family="Helvetica,sans-Serif" font-size="10.00" fill="#000000">::tests::pyobject_demo</text>
</a>
</g>
</g>
<!-- Node91&#45;&gt;Node93 -->
<g id="edge15" class="edge">
<title>Node91&#45;&gt;Node93</title>
<path fill="none" stroke="#191970" d="M899.5522,-381.688C919.6274,-379.0624 941.6976,-376.1758 961.3735,-373.6024"/>
<polygon fill="#191970" stroke="#191970" points="899.0307,-378.2263 889.5691,-382.9937 899.9386,-385.1672 899.0307,-378.2263"/>
</g>
<!-- Node95 -->
<g id="node18" class="node">
<title>Node95</title>
<g id="a_node18"><a xlink:href="../../db/d42/classopenage_1_1_editor_mode.xhtml#a8bc3906c89a7ecceff2c24512c5be24b" target="_top" xlink:title="openage::EditorMode\l::announce_category\l_content">
<polygon fill="#ffffff" stroke="#000000" points="965,-290.5 965,-331.5 1074,-331.5 1074,-290.5 965,-290.5"/>
<text text-anchor="start" x="973" y="-319.5" font-family="Helvetica,sans-Serif" font-size="10.00" fill="#000000">openage::EditorMode</text>
<text text-anchor="start" x="973" y="-308.5" font-family="Helvetica,sans-Serif" font-size="10.00" fill="#000000">::announce_category</text>
<text text-anchor="middle" x="1019.5" y="-297.5" font-family="Helvetica,sans-Serif" font-size="10.00" fill="#000000">_content</text>
</a>
</g>
</g>
<!-- Node94&#45;&gt;Node95 -->
<g id="edge17" class="edge">
<title>Node94&#45;&gt;Node95</title>
<path fill="none" stroke="#191970" d="M849.9049,-208.3209C866.8671,-228.4042 897.3441,-261.2674 930,-281 940.6598,-287.4413 952.8784,-292.7021 964.7908,-296.9156"/>
<polygon fill="#191970" stroke="#191970" points="852.5663,-206.047 843.4959,-200.5718 847.1721,-210.5084 852.5663,-206.047"/>
</g>
<!-- Node96 -->
<g id="node19" class="node">
<title>Node96</title>
<g id="a_node19"><a xlink:href="../../d1/dd2/classqtsdl_1_1_qml_engine_with_singleton_items_info.xhtml#acfc796de1ec7a3ddc546a31718edc8a2" target="_top" xlink:title="qtsdl::QmlEngineWithSingleton\lItemsInfo::QmlEngineWithSingleton\lItemsInfo">
<polygon fill="#ffffff" stroke="#000000" points="933,-230.5 933,-271.5 1106,-271.5 1106,-230.5 933,-230.5"/>
<text text-anchor="start" x="941" y="-259.5" font-family="Helvetica,sans-Serif" font-size="10.00" fill="#000000">qtsdl::QmlEngineWithSingleton</text>
<text text-anchor="start" x="941" y="-248.5" font-family="Helvetica,sans-Serif" font-size="10.00" fill="#000000">ItemsInfo::QmlEngineWithSingleton</text>
<text text-anchor="middle" x="1019.5" y="-237.5" font-family="Helvetica,sans-Serif" font-size="10.00" fill="#000000">ItemsInfo</text>
</a>
</g>
</g>
<!-- Node94&#45;&gt;Node96 -->
<g id="edge18" class="edge">
<title>Node94&#45;&gt;Node96</title>
<path fill="none" stroke="#191970" d="M874.7909,-203.6837C898.564,-211.4569 929.5504,-221.5887 956.7477,-230.4816"/>
<polygon fill="#191970" stroke="#191970" points="875.6687,-200.2884 865.0761,-200.5072 873.4932,-206.9418 875.6687,-200.2884"/>
</g>
<!-- Node97 -->
<g id="node20" class="node">
<title>Node97</title>
<g id="a_node20"><a xlink:href="../../d1/dd2/classqtsdl_1_1_qml_engine_with_singleton_items_info.xhtml#a3ed9ffd383a3ff97dd595ce3c555a1c5" target="_top" xlink:title="qtsdl::QmlEngineWithSingleton\lItemsInfo::~QmlEngineWithSingleton\lItemsInfo">
<polygon fill="#ffffff" stroke="#000000" points="930,-170.5 930,-211.5 1109,-211.5 1109,-170.5 930,-170.5"/>
<text text-anchor="start" x="938" y="-199.5" font-family="Helvetica,sans-Serif" font-size="10.00" fill="#000000">qtsdl::QmlEngineWithSingleton</text>
<text text-anchor="start" x="938" y="-188.5" font-family="Helvetica,sans-Serif" font-size="10.00" fill="#000000">ItemsInfo::~QmlEngineWithSingleton</text>
<text text-anchor="middle" x="1019.5" y="-177.5" font-family="Helvetica,sans-Serif" font-size="10.00" fill="#000000">ItemsInfo</text>
</a>
</g>
</g>
<!-- Node94&#45;&gt;Node97 -->
<g id="edge19" class="edge">
<title>Node94&#45;&gt;Node97</title>
<path fill="none" stroke="#191970" d="M904.1682,-191C912.5873,-191 921.2906,-191 929.9674,-191"/>
<polygon fill="#191970" stroke="#191970" points="904.0606,-187.5001 894.0605,-191 904.0605,-194.5001 904.0606,-187.5001"/>
</g>
<!-- Node98 -->
<g id="node21" class="node">
<title>Node98</title>
<g id="a_node21"><a xlink:href="../../da/d61/classqtsdl_1_1_gui_live_reloader.xhtml#a53357cda7b2c3adde79a0fc5516d1724" target="_top" xlink:title="qtsdl::GuiLiveReloader\l::init_persistent_items">
<polygon fill="#ffffff" stroke="#000000" points="961.5,-121 961.5,-151 1077.5,-151 1077.5,-121 961.5,-121"/>
<text text-anchor="start" x="969.5" y="-139" font-family="Helvetica,sans-Serif" font-size="10.00" fill="#000000">qtsdl::GuiLiveReloader</text>
<text text-anchor="middle" x="1019.5" y="-128" font-family="Helvetica,sans-Serif" font-size="10.00" fill="#000000">::init_persistent_items</text>
</a>
</g>
</g>
<!-- Node94&#45;&gt;Node98 -->
<g id="edge20" class="edge">
<title>Node94&#45;&gt;Node98</title>
<path fill="none" stroke="#191970" d="M874.693,-178.3005C891.626,-172.8338 911.7533,-166.4581 930,-161 941.1285,-157.6711 953.0769,-154.2372 964.5036,-151.0206"/>
<polygon fill="#191970" stroke="#191970" points="873.5639,-174.9871 865.1306,-181.4004 875.7226,-181.646 873.5639,-174.9871"/>
</g>
<!-- Node107 -->
<g id="node30" class="node">
<title>Node107</title>
<g id="a_node30"><a xlink:href="../../dc/d7b/classqtsdl_1_1_recursive_directory_watcher_worker.xhtml#a9722ee9e0a60a9f437b86c7902641767" target="_top" xlink:title="qtsdl::RecursiveDirectory\lWatcherWorker::onRootDirsPaths\lChanged">
<polygon fill="#ffffff" stroke="#000000" points="936.5,-60.5 936.5,-101.5 1102.5,-101.5 1102.5,-60.5 936.5,-60.5"/>
<text text-anchor="start" x="944.5" y="-89.5" font-family="Helvetica,sans-Serif" font-size="10.00" fill="#000000">qtsdl::RecursiveDirectory</text>
<text text-anchor="start" x="944.5" y="-78.5" font-family="Helvetica,sans-Serif" font-size="10.00" fill="#000000">WatcherWorker::onRootDirsPaths</text>
<text text-anchor="middle" x="1019.5" y="-67.5" font-family="Helvetica,sans-Serif" font-size="10.00" fill="#000000">Changed</text>
</a>
</g>
</g>
<!-- Node94&#45;&gt;Node107 -->
<g id="edge29" class="edge">
<title>Node94&#45;&gt;Node107</title>
<path fill="none" stroke="#191970" d="M852.1522,-173.8104C869.7837,-155.9274 899.5821,-128.1854 930,-111 936.1353,-107.5337 942.7346,-104.3855 949.469,-101.5462"/>
<polygon fill="#191970" stroke="#191970" points="849.3842,-171.638 844.9489,-181.2598 854.4164,-176.5039 849.3842,-171.638"/>
</g>
<!-- Node109 -->
<g id="node32" class="node">
<title>Node109</title>
<g id="a_node32"><a xlink:href="../../da/d1c/classopenage_1_1gui_1_1_gui_filled_texture_handles.xhtml#a08b5dcae915c7b1cb98cf3763f4b2361" target="_top" xlink:title="openage::gui::GuiFilledTexture\lHandles::fill_all_handles\l_with_texture">
<polygon fill="#ffffff" stroke="#000000" points="945,-.5 945,-41.5 1094,-41.5 1094,-.5 945,-.5"/>
<text text-anchor="start" x="953" y="-29.5" font-family="Helvetica,sans-Serif" font-size="10.00" fill="#000000">openage::gui::GuiFilledTexture</text>
<text text-anchor="start" x="953" y="-18.5" font-family="Helvetica,sans-Serif" font-size="10.00" fill="#000000">Handles::fill_all_handles</text>
<text text-anchor="middle" x="1019.5" y="-7.5" font-family="Helvetica,sans-Serif" font-size="10.00" fill="#000000">_with_texture</text>
</a>
</g>
</g>
<!-- Node94&#45;&gt;Node109 -->
<g id="edge31" class="edge">
<title>Node94&#45;&gt;Node109</title>
<path fill="none" stroke="#191970" d="M843.8995,-171.8915C857.2559,-141.8696 887.1008,-83.7114 930,-51 934.5611,-47.5221 939.5479,-44.4345 944.7588,-41.6953"/>
<polygon fill="#191970" stroke="#191970" points="840.6103,-170.6805 839.8685,-181.2493 847.0392,-173.4499 840.6103,-170.6805"/>
</g>
<!-- Node99 -->
<g id="node22" class="node">
<title>Node99</title>
<g id="a_node22"><a xlink:href="../../d4/d96/classqtsdl_1_1_gui_subtree_impl.xhtml#a766c2b35a935c60fcbfcc6758d908ecb" target="_top" xlink:title="qtsdl::GuiSubtreeImpl\l::init_persistent_items">
<polygon fill="#ffffff" stroke="#000000" points="1178.5,-121 1178.5,-151 1291.5,-151 1291.5,-121 1178.5,-121"/>
<text text-anchor="start" x="1186.5" y="-139" font-family="Helvetica,sans-Serif" font-size="10.00" fill="#000000">qtsdl::GuiSubtreeImpl</text>
<text text-anchor="middle" x="1235" y="-128" font-family="Helvetica,sans-Serif" font-size="10.00" fill="#000000">::init_persistent_items</text>
</a>
</g>
</g>
<!-- Node98&#45;&gt;Node99 -->
<g id="edge21" class="edge">
<title>Node98&#45;&gt;Node99</title>
<path fill="none" stroke="#191970" d="M1087.6561,-136C1116.8537,-136 1150.5566,-136 1178.3541,-136"/>
<polygon fill="#191970" stroke="#191970" points="1087.5336,-132.5001 1077.5335,-136 1087.5335,-139.5001 1087.5336,-132.5001"/>
</g>
<!-- Node100 -->
<g id="node23" class="node">
<title>Node100</title>
<g id="a_node23"><a xlink:href="../../d4/d96/classqtsdl_1_1_gui_subtree_impl.xhtml#aed216357736342148f86afb0d73f3fdd" target="_top" xlink:title="qtsdl::GuiSubtreeImpl\l::component_status_changed">
<polygon fill="#ffffff" stroke="#000000" points="1361,-121 1361,-151 1506,-151 1506,-121 1361,-121"/>
<text text-anchor="start" x="1369" y="-139" font-family="Helvetica,sans-Serif" font-size="10.00" fill="#000000">qtsdl::GuiSubtreeImpl</text>
<text text-anchor="middle" x="1433.5" y="-128" font-family="Helvetica,sans-Serif" font-size="10.00" fill="#000000">::component_status_changed</text>
</a>
</g>
</g>
<!-- Node99&#45;&gt;Node100 -->
<g id="edge22" class="edge">
<title>Node99&#45;&gt;Node100</title>
<path fill="none" stroke="#191970" d="M1301.674,-136C1320.6849,-136 1341.4894,-136 1360.8384,-136"/>
<polygon fill="#191970" stroke="#191970" points="1301.6165,-132.5001 1291.6165,-136 1301.6165,-139.5001 1301.6165,-132.5001"/>
</g>
<!-- Node101 -->
<g id="node24" class="node">
<title>Node101</title>
<g id="a_node24"><a xlink:href="../../d4/d96/classqtsdl_1_1_gui_subtree_impl.xhtml#aea9b559c07846786ebcf6c41ef58ff78" target="_top" xlink:title="qtsdl::GuiSubtreeImpl\l::onEngineReloaded">
<polygon fill="#ffffff" stroke="#000000" points="1542,-146 1542,-176 1653,-176 1653,-146 1542,-146"/>
<text text-anchor="start" x="1550" y="-164" font-family="Helvetica,sans-Serif" font-size="10.00" fill="#000000">qtsdl::GuiSubtreeImpl</text>
<text text-anchor="middle" x="1597.5" y="-153" font-family="Helvetica,sans-Serif" font-size="10.00" fill="#000000">::onEngineReloaded</text>
</a>
</g>
</g>
<!-- Node100&#45;&gt;Node101 -->
<g id="edge23" class="edge">
<title>Node100&#45;&gt;Node101</title>
<path fill="none" stroke="#191970" d="M1516.3872,-148.6352C1524.919,-149.9358 1533.438,-151.2345 1541.5747,-152.4748"/>
<polygon fill="#191970" stroke="#191970" points="1516.8011,-145.158 1506.3879,-147.111 1515.7462,-152.078 1516.8011,-145.158"/>
</g>
<!-- Node106 -->
<g id="node29" class="node">
<title>Node106</title>
<g id="a_node29"><a xlink:href="../../d4/d96/classqtsdl_1_1_gui_subtree_impl.xhtml#a903d02ad6f5349af96add80f99ddf345" target="_top" xlink:title="qtsdl::GuiSubtreeImpl\l::attach_to">
<polygon fill="#ffffff" stroke="#000000" points="1542,-97 1542,-127 1653,-127 1653,-97 1542,-97"/>
<text text-anchor="start" x="1550" y="-115" font-family="Helvetica,sans-Serif" font-size="10.00" fill="#000000">qtsdl::GuiSubtreeImpl</text>
<text text-anchor="middle" x="1597.5" y="-104" font-family="Helvetica,sans-Serif" font-size="10.00" fill="#000000">::attach_to</text>
</a>
</g>
</g>
<!-- Node100&#45;&gt;Node106 -->
<g id="edge28" class="edge">
<title>Node100&#45;&gt;Node106</title>
<path fill="none" stroke="#191970" d="M1516.3872,-123.8702C1524.919,-122.6216 1533.438,-121.3749 1541.5747,-120.1842"/>
<polygon fill="#191970" stroke="#191970" points="1515.7756,-120.4223 1506.3879,-125.3335 1516.7893,-127.3485 1515.7756,-120.4223"/>
</g>
<!-- Node102 -->
<g id="node25" class="node">
<title>Node102</title>
<g id="a_node25"><a xlink:href="../../dd/d89/classqtsdl_1_1_gui_engine_impl_connection.xhtml#af9d75573df9d5f7b433c54eb6f2690fa" target="_top" xlink:title="qtsdl::GuiEngineImplConnection\l::GuiEngineImplConnection">
<polygon fill="#ffffff" stroke="#000000" points="1689,-170 1689,-200 1846,-200 1846,-170 1689,-170"/>
<text text-anchor="start" x="1697" y="-188" font-family="Helvetica,sans-Serif" font-size="10.00" fill="#000000">qtsdl::GuiEngineImplConnection</text>
<text text-anchor="middle" x="1767.5" y="-177" font-family="Helvetica,sans-Serif" font-size="10.00" fill="#000000">::GuiEngineImplConnection</text>
</a>
</g>
</g>
<!-- Node101&#45;&gt;Node102 -->
<g id="edge24" class="edge">
<title>Node101&#45;&gt;Node102</title>
<path fill="none" stroke="#191970" d="M1663.2517,-170.2826C1671.6484,-171.468 1680.3096,-172.6908 1688.8837,-173.9012"/>
<polygon fill="#191970" stroke="#191970" points="1663.5555,-166.7909 1653.1644,-168.8585 1662.5769,-173.7221 1663.5555,-166.7909"/>
</g>
<!-- Node103 -->
<g id="node26" class="node">
<title>Node103</title>
<g id="a_node26"><a xlink:href="../../dd/d89/classqtsdl_1_1_gui_engine_impl_connection.xhtml#ac2ef61bcd0cdb991b399a29eeb5ec74c" target="_top" xlink:title="qtsdl::GuiEngineImplConnection\l::disconnect">
<polygon fill="#ffffff" stroke="#000000" points="1689,-121 1689,-151 1846,-151 1846,-121 1689,-121"/>
<text text-anchor="start" x="1697" y="-139" font-family="Helvetica,sans-Serif" font-size="10.00" fill="#000000">qtsdl::GuiEngineImplConnection</text>
<text text-anchor="middle" x="1767.5" y="-128" font-family="Helvetica,sans-Serif" font-size="10.00" fill="#000000">::disconnect</text>
</a>
</g>
</g>
<!-- Node101&#45;&gt;Node103 -->
<g id="edge25" class="edge">
<title>Node101&#45;&gt;Node103</title>
<path fill="none" stroke="#191970" d="M1663.2517,-151.3306C1671.6484,-150.0958 1680.3096,-148.8221 1688.8837,-147.5612"/>
<polygon fill="#191970" stroke="#191970" points="1662.5487,-147.8963 1653.1644,-152.8141 1663.5672,-154.8218 1662.5487,-147.8963"/>
</g>
<!-- Node104 -->
<g id="node27" class="node">
<title>Node104</title>
<g id="a_node27"><a xlink:href="../../dd/d89/classqtsdl_1_1_gui_engine_impl_connection.xhtml#a838d04049e7a234096ddc630de0fee59" target="_top" xlink:title="qtsdl::GuiEngineImplConnection\l::~GuiEngineImplConnection">
<polygon fill="#ffffff" stroke="#000000" points="1882,-146 1882,-176 2039,-176 2039,-146 1882,-146"/>
<text text-anchor="start" x="1890" y="-164" font-family="Helvetica,sans-Serif" font-size="10.00" fill="#000000">qtsdl::GuiEngineImplConnection</text>
<text text-anchor="middle" x="1960.5" y="-153" font-family="Helvetica,sans-Serif" font-size="10.00" fill="#000000">::~GuiEngineImplConnection</text>
</a>
</g>
</g>
<!-- Node103&#45;&gt;Node104 -->
<g id="edge26" class="edge">
<title>Node103&#45;&gt;Node104</title>
<path fill="none" stroke="#191970" d="M1856.0225,-147.4666C1864.607,-148.5786 1873.2762,-149.7016 1881.7559,-150.8"/>
<polygon fill="#191970" stroke="#191970" points="1856.3673,-143.9821 1846.0005,-146.1685 1855.468,-150.9241 1856.3673,-143.9821"/>
</g>
<!-- Node105 -->
<g id="node28" class="node">
<title>Node105</title>
<g id="a_node28"><a xlink:href="../../dd/d89/classqtsdl_1_1_gui_engine_impl_connection.xhtml#a3de39e1c4b2cc6b97f38d9c1217d5de5" target="_top" xlink:title="qtsdl::GuiEngineImplConnection\l::operator=">
<polygon fill="#ffffff" stroke="#000000" points="1882,-97 1882,-127 2039,-127 2039,-97 1882,-97"/>
<text text-anchor="start" x="1890" y="-115" font-family="Helvetica,sans-Serif" font-size="10.00" fill="#000000">qtsdl::GuiEngineImplConnection</text>
<text text-anchor="middle" x="1960.5" y="-104" font-family="Helvetica,sans-Serif" font-size="10.00" fill="#000000">::operator=</text>
</a>
</g>
</g>
<!-- Node103&#45;&gt;Node105 -->
<g id="edge27" class="edge">
<title>Node103&#45;&gt;Node105</title>
<path fill="none" stroke="#191970" d="M1856.0225,-124.992C1864.607,-123.9245 1873.2762,-122.8465 1881.7559,-121.792"/>
<polygon fill="#191970" stroke="#191970" points="1855.4921,-121.5309 1846.0005,-126.2383 1856.356,-128.4774 1855.4921,-121.5309"/>
</g>
<!-- Node108 -->
<g id="node31" class="node">
<title>Node108</title>
<g id="a_node31"><a xlink:href="../../d3/dea/classqtsdl_1_1_recursive_directory_watcher.xhtml#a783cc986da8f9ed63ac735b00f119404" target="_top" xlink:title="qtsdl::RecursiveDirectory\lWatcher::RecursiveDirectoryWatcher">
<polygon fill="#ffffff" stroke="#000000" points="1145,-66 1145,-96 1325,-96 1325,-66 1145,-66"/>
<text text-anchor="start" x="1153" y="-84" font-family="Helvetica,sans-Serif" font-size="10.00" fill="#000000">qtsdl::RecursiveDirectory</text>
<text text-anchor="middle" x="1235" y="-73" font-family="Helvetica,sans-Serif" font-size="10.00" fill="#000000">Watcher::RecursiveDirectoryWatcher</text>
</a>
</g>
</g>
<!-- Node107&#45;&gt;Node108 -->
<g id="edge30" class="edge">
<title>Node107&#45;&gt;Node108</title>
<path fill="none" stroke="#191970" d="M1112.6767,-81C1123.3578,-81 1134.2336,-81 1144.8737,-81"/>
<polygon fill="#191970" stroke="#191970" points="1112.5097,-77.5001 1102.5097,-81 1112.5096,-84.5001 1112.5097,-77.5001"/>
</g>
</g>
</svg>
        <g id="navigator" transform="translate(0 0)" fill="#404254">
                <rect fill="#f2f5e9" fill-opacity="0.5" stroke="#606060" stroke-width=".5" x="0" y="0" width="60" height="60"/>
                <use id="zoomplus" xlink:href="#zoomPlus" x="17" y="9" onmousedown="handleZoom(evt,'in')"/>
                <use id="zoomminus" xlink:href="#zoomMin" x="42" y="9" onmousedown="handleZoom(evt,'out')"/>
                <use id="reset" xlink:href="#resetDef" x="30" y="36" onmousedown="handleReset()"/>
                <g id="arrowUp" xlink:href="#dirArrow" transform="translate(30 24)" onmousedown="handlePan(0,-1)">
                  <use xlink:href="#rim" fill="#404040">
                        <set attributeName="fill" to="#808080" begin="arrowUp.mouseover" end="arrowUp.mouseout"/>
                  </use>
                  <path fill="none" stroke="white" stroke-width="1.5" d="M0,-3.0v7 M-2.5,-0.5L0,-3.0L2.5,-0.5"/>
                </g>
                <g id="arrowRight" xlink:href="#dirArrow" transform="rotate(90) translate(36 -43)" onmousedown="handlePan(1,0)">
                  <use xlink:href="#rim" fill="#404040">
                        <set attributeName="fill" to="#808080" begin="arrowRight.mouseover" end="arrowRight.mouseout"/>
                  </use>
                  <path fill="none" stroke="white" stroke-width="1.5" d="M0,-3.0v7 M-2.5,-0.5L0,-3.0L2.5,-0.5"/>
                </g>
                <g id="arrowDown" xlink:href="#dirArrow" transform="rotate(180) translate(-30 -48)" onmousedown="handlePan(0,1)">
                  <use xlink:href="#rim" fill="#404040">
                        <set attributeName="fill" to="#808080" begin="arrowDown.mouseover" end="arrowDown.mouseout"/>
                  </use>
                  <path fill="none" stroke="white" stroke-width="1.5" d="M0,-3.0v7 M-2.5,-0.5L0,-3.0L2.5,-0.5"/>
                </g>
                <g id="arrowLeft" xlink:href="#dirArrow" transform="rotate(270) translate(-36 17)" onmousedown="handlePan(-1,0)">
                  <use xlink:href="#rim" fill="#404040">
                        <set attributeName="fill" to="#808080" begin="arrowLeft.mouseover" end="arrowLeft.mouseout"/>
                  </use>
                  <path fill="none" stroke="white" stroke-width="1.5" d="M0,-3.0v7 M-2.5,-0.5L0,-3.0L2.5,-0.5"/>
                </g>
        </g>
        <svg viewBox="0 0 15 15" width="100%" height="30px" preserveAspectRatio="xMaxYMin meet">
         <g id="arrow_out" transform="scale(0.3 0.3)">
          <a xlink:href="classopenage_1_1curve_1_1_queue_a3a60297cec80ae6d759ea3567922db8e_icgraph_org.svg" target="_base">
           <rect id="button" ry="5" rx="5" y="6" x="6" height="38" width="38"
                fill="#f2f5e9" fill-opacity="0.5" stroke="#606060" stroke-width="1.0"/>
           <path id="arrow"
             d="M 11.500037,31.436501 C 11.940474,20.09759 22.043105,11.32322 32.158766,21.979434 L 37.068811,17.246167 C 37.068811,17.246167 37.088388,32 37.088388,32 L 22.160133,31.978069 C 22.160133,31.978069 26.997745,27.140456 26.997745,27.140456 C 18.528582,18.264221 13.291696,25.230495 11.500037,31.436501 z"
             style="fill:#404040;"/>
          </a>
         </g>
        </svg>
</svg>
