<?xml version="1.0" encoding="UTF-8" standalone="no"?>
<!DOCTYPE svg PUBLIC "-//W3C//DTD SVG 1.1//EN"
 "http://www.w3.org/Graphics/SVG/1.1/DTD/svg11.dtd">
<!-- Generated by graphviz version 2.40.1 (20161225.0304)
 -->
<!-- Title: openage::curve::Queue::insert Pages: 1 -->
<svg width="308pt" height="138pt"
 viewBox="0.00 0.00 308.00 137.50" xmlns="http://www.w3.org/2000/svg" xmlns:xlink="http://www.w3.org/1999/xlink">
<g id="graph0" class="graph" transform="scale(1 1) rotate(0) translate(4 133.5)">
<title>openage::curve::Queue::insert</title>
<polygon fill="#ffffff" stroke="transparent" points="-4,4 -4,-133.5 304,-133.5 304,4 -4,4"/>
<!-- Node114 -->
<g id="node1" class="node">
<title>Node114</title>
<polygon fill="#bfbfbf" stroke="#000000" points="0,-55.5 0,-85.5 118,-85.5 118,-55.5 0,-55.5"/>
<text text-anchor="start" x="8" y="-73.5" font-family="Helvetica,sans-Serif" font-size="10.00" fill="#000000">openage::curve::Queue</text>
<text text-anchor="middle" x="59" y="-62.5" font-family="Helvetica,sans-Serif" font-size="10.00" fill="#000000">::insert</text>
</g>
<!-- Node115 -->
<g id="node2" class="node">
<title>Node115</title>
<g id="a_node2"><a xlink:href="../../de/d06/namespaceopenage_1_1console_1_1tests.xhtml#a46ebd3333dc9196558ac9aced828d117" target="_top" xlink:title="openage::console::tests::max">
<polygon fill="#ffffff" stroke="#000000" points="154,-110 154,-129 300,-129 300,-110 154,-110"/>
<text text-anchor="middle" x="227" y="-117" font-family="Helvetica,sans-Serif" font-size="10.00" fill="#000000">openage::console::tests::max</text>
</a>
</g>
</g>
<!-- Node114&#45;&gt;Node115 -->
<g id="edge1" class="edge">
<title>Node114&#45;&gt;Node115</title>
<path fill="none" stroke="#191970" d="M105.2427,-85.6258C120.6953,-90.5404 138.0437,-95.9074 154,-100.5 161.9629,-102.7919 170.4491,-105.1116 178.7134,-107.3053"/>
<polygon fill="#191970" stroke="#191970" points="178.073,-110.7557 188.6339,-109.9083 179.8496,-103.9849 178.073,-110.7557"/>
</g>
<!-- Node116 -->
<g id="node3" class="node">
<title>Node116</title>
<g id="a_node3"><a xlink:href="../../d4/d69/structopenage_1_1curve_1_1_queue_1_1queue__wrapper.xhtml#a9f13d26ca7d8cc64b9b4d003c7d18873" target="_top" xlink:title="openage::curve::Queue\l::queue_wrapper::queue\l_wrapper">
<polygon fill="#ffffff" stroke="#000000" points="166.5,-50 166.5,-91 287.5,-91 287.5,-50 166.5,-50"/>
<text text-anchor="start" x="174.5" y="-79" font-family="Helvetica,sans-Serif" font-size="10.00" fill="#000000">openage::curve::Queue</text>
<text text-anchor="start" x="174.5" y="-68" font-family="Helvetica,sans-Serif" font-size="10.00" fill="#000000">::queue_wrapper::queue</text>
<text text-anchor="middle" x="227" y="-57" font-family="Helvetica,sans-Serif" font-size="10.00" fill="#000000">_wrapper</text>
</a>
</g>
</g>
<!-- Node114&#45;&gt;Node116 -->
<g id="edge2" class="edge">
<title>Node114&#45;&gt;Node116</title>
<path fill="none" stroke="#191970" d="M118.2305,-70.5C130.53,-70.5 143.6075,-70.5 156.2721,-70.5"/>
<polygon fill="#191970" stroke="#191970" points="156.3176,-74.0001 166.3175,-70.5 156.3175,-67.0001 156.3176,-74.0001"/>
</g>
<!-- Node117 -->
<g id="node4" class="node">
<title>Node117</title>
<g id="a_node4"><a xlink:href="../../d4/d69/structopenage_1_1curve_1_1_queue_1_1queue__wrapper.xhtml#ac9a915e29db89fbd0731899d845db899" target="_top" xlink:title="openage::curve::Queue\l::queue_wrapper::time">
<polygon fill="#ffffff" stroke="#000000" points="168,-.5 168,-30.5 286,-30.5 286,-.5 168,-.5"/>
<text text-anchor="start" x="176" y="-18.5" font-family="Helvetica,sans-Serif" font-size="10.00" fill="#000000">openage::curve::Queue</text>
<text text-anchor="middle" x="227" y="-7.5" font-family="Helvetica,sans-Serif" font-size="10.00" fill="#000000">::queue_wrapper::time</text>
</a>
</g>
</g>
<!-- Node114&#45;&gt;Node117 -->
<g id="edge3" class="edge">
<title>Node114&#45;&gt;Node117</title>
<path fill="none" stroke="#191970" d="M104.9067,-55.471C125.4634,-48.7411 149.8817,-40.7471 171.4589,-33.6831"/>
<polygon fill="#191970" stroke="#191970" points="172.7341,-36.9485 181.1488,-30.5108 170.5561,-30.2959 172.7341,-36.9485"/>
</g>
</g>
</svg>
