<?xml version="1.0" encoding="UTF-8" standalone="no"?>
<!DOCTYPE svg PUBLIC "-//W3C//DTD SVG 1.1//EN"
 "http://www.w3.org/Graphics/SVG/1.1/DTD/svg11.dtd">
<!-- Generated by graphviz version 2.40.1 (20161225.0304)
 -->
<!-- Title: openage::TerrainSearch Pages: 1 -->
<svg width="128pt" height="453pt"
 viewBox="0.00 0.00 128.00 453.00" xmlns="http://www.w3.org/2000/svg" xmlns:xlink="http://www.w3.org/1999/xlink">
<g id="graph0" class="graph" transform="scale(1 1) rotate(0) translate(4 449)">
<title>openage::TerrainSearch</title>
<polygon fill="#ffffff" stroke="transparent" points="-4,4 -4,-449 124,-449 124,4 -4,4"/>
<!-- Node1 -->
<g id="node1" class="node">
<title>Node1</title>
<polygon fill="#bfbfbf" stroke="#000000" points="0,-.5 0,-156.5 120,-156.5 120,-.5 0,-.5"/>
<text text-anchor="middle" x="60" y="-144.5" font-family="Helvetica,sans-Serif" font-size="10.00" fill="#000000">openage::TerrainSearch</text>
<polyline fill="none" stroke="#000000" points="0,-137.5 120,-137.5 "/>
<text text-anchor="start" x="8" y="-125.5" font-family="Helvetica,sans-Serif" font-size="10.00" fill="#000000">&#45; terrain</text>
<text text-anchor="start" x="8" y="-114.5" font-family="Helvetica,sans-Serif" font-size="10.00" fill="#000000">&#45; tiles</text>
<text text-anchor="start" x="8" y="-103.5" font-family="Helvetica,sans-Serif" font-size="10.00" fill="#000000">&#45; visited</text>
<text text-anchor="start" x="8" y="-92.5" font-family="Helvetica,sans-Serif" font-size="10.00" fill="#000000">&#45; previous_radius</text>
<text text-anchor="start" x="8" y="-81.5" font-family="Helvetica,sans-Serif" font-size="10.00" fill="#000000">&#45; max_radius</text>
<polyline fill="none" stroke="#000000" points="0,-74.5 120,-74.5 "/>
<text text-anchor="start" x="8" y="-62.5" font-family="Helvetica,sans-Serif" font-size="10.00" fill="#000000">+ TerrainSearch()</text>
<text text-anchor="start" x="8" y="-51.5" font-family="Helvetica,sans-Serif" font-size="10.00" fill="#000000">+ TerrainSearch()</text>
<text text-anchor="start" x="8" y="-40.5" font-family="Helvetica,sans-Serif" font-size="10.00" fill="#000000">+ ~TerrainSearch()</text>
<text text-anchor="start" x="8" y="-29.5" font-family="Helvetica,sans-Serif" font-size="10.00" fill="#000000">+ start_tile()</text>
<text text-anchor="start" x="8" y="-18.5" font-family="Helvetica,sans-Serif" font-size="10.00" fill="#000000">+ reset()</text>
<text text-anchor="start" x="8" y="-7.5" font-family="Helvetica,sans-Serif" font-size="10.00" fill="#000000">+ next_tile()</text>
</g>
<!-- Node2 -->
<g id="node2" class="node">
<title>Node2</title>
<g id="a_node2"><a xlink:href="../../d5/d10/structopenage_1_1coord_1_1tile.xhtml" target="_top" xlink:title="{openage::coord::tile\n||+ to_tile3()\l+ to_phys2()\l+ to_phys3()\l+ to_camgame()\l+ to_viewport()\l+ to_chunk()\l+ get_pos_on_chunk()\l}">
<polygon fill="#ffffff" stroke="#000000" points="3.5,-204.5 3.5,-327.5 116.5,-327.5 116.5,-204.5 3.5,-204.5"/>
<text text-anchor="middle" x="60" y="-315.5" font-family="Helvetica,sans-Serif" font-size="10.00" fill="#000000">openage::coord::tile</text>
<polyline fill="none" stroke="#000000" points="3.5,-308.5 116.5,-308.5 "/>
<text text-anchor="middle" x="60" y="-296.5" font-family="Helvetica,sans-Serif" font-size="10.00" fill="#000000"> </text>
<polyline fill="none" stroke="#000000" points="3.5,-289.5 116.5,-289.5 "/>
<text text-anchor="start" x="11.5" y="-277.5" font-family="Helvetica,sans-Serif" font-size="10.00" fill="#000000">+ to_tile3()</text>
<text text-anchor="start" x="11.5" y="-266.5" font-family="Helvetica,sans-Serif" font-size="10.00" fill="#000000">+ to_phys2()</text>
<text text-anchor="start" x="11.5" y="-255.5" font-family="Helvetica,sans-Serif" font-size="10.00" fill="#000000">+ to_phys3()</text>
<text text-anchor="start" x="11.5" y="-244.5" font-family="Helvetica,sans-Serif" font-size="10.00" fill="#000000">+ to_camgame()</text>
<text text-anchor="start" x="11.5" y="-233.5" font-family="Helvetica,sans-Serif" font-size="10.00" fill="#000000">+ to_viewport()</text>
<text text-anchor="start" x="11.5" y="-222.5" font-family="Helvetica,sans-Serif" font-size="10.00" fill="#000000">+ to_chunk()</text>
<text text-anchor="start" x="11.5" y="-211.5" font-family="Helvetica,sans-Serif" font-size="10.00" fill="#000000">+ get_pos_on_chunk()</text>
</a>
</g>
</g>
<!-- Node2&#45;&gt;Node1 -->
<g id="edge1" class="edge">
<title>Node2&#45;&gt;Node1</title>
<path fill="none" stroke="#404040" d="M60,-204.3458C60,-192.8983 60,-180.7247 60,-168.6316"/>
<polygon fill="none" stroke="#404040" points="60.0001,-168.5951 56,-162.5951 60,-156.5951 64,-162.595 60.0001,-168.5951"/>
<text text-anchor="middle" x="73" y="-178" font-family="Helvetica,sans-Serif" font-size="10.00" fill="#000000"> &#45;start</text>
</g>
<!-- Node3 -->
<g id="node3" class="node">
<title>Node3</title>
<polygon fill="#ffffff" stroke="#bfbfbf" points="4,-365.5 4,-444.5 116,-444.5 116,-365.5 4,-365.5"/>
<text text-anchor="start" x="12" y="-432.5" font-family="Helvetica,sans-Serif" font-size="10.00" fill="#000000">CoordNeSeAbsolute&lt;</text>
<text text-anchor="start" x="12" y="-421.5" font-family="Helvetica,sans-Serif" font-size="10.00" fill="#000000"> tile_t, tile, tile</text>
<text text-anchor="middle" x="60" y="-410.5" font-family="Helvetica,sans-Serif" font-size="10.00" fill="#000000">_delta &gt;</text>
<polyline fill="none" stroke="#bfbfbf" points="4,-403.5 116,-403.5 "/>
<text text-anchor="middle" x="60" y="-391.5" font-family="Helvetica,sans-Serif" font-size="10.00" fill="#000000"> </text>
<polyline fill="none" stroke="#bfbfbf" points="4,-384.5 116,-384.5 "/>
<text text-anchor="middle" x="60" y="-372.5" font-family="Helvetica,sans-Serif" font-size="10.00" fill="#000000"> </text>
</g>
<!-- Node3&#45;&gt;Node2 -->
<g id="edge2" class="edge">
<title>Node3&#45;&gt;Node2</title>
<path fill="none" stroke="#191970" d="M60,-354.996C60,-346.1171 60,-336.7763 60,-327.6203"/>
<polygon fill="none" stroke="#191970" points="56.5001,-355.1681 60,-365.1682 63.5001,-355.1682 56.5001,-355.1681"/>
</g>
</g>
</svg>
