<?xml version="1.0" encoding="UTF-8" standalone="no"?>
<!DOCTYPE svg PUBLIC "-//W3C//DTD SVG 1.1//EN"
 "http://www.w3.org/Graphics/SVG/1.1/DTD/svg11.dtd">
<!-- Generated by graphviz version 2.40.1 (20161225.0304)
 -->
<!-- Title: qtsdl::EventHandlingQuickWindow Pages: 1 -->
<svg width="170pt" height="204pt"
 viewBox="0.00 0.00 170.00 204.00" xmlns="http://www.w3.org/2000/svg" xmlns:xlink="http://www.w3.org/1999/xlink">
<g id="graph0" class="graph" transform="scale(1 1) rotate(0) translate(4 200)">
<title>qtsdl::EventHandlingQuickWindow</title>
<polygon fill="#ffffff" stroke="transparent" points="-4,4 -4,-200 166,-200 166,4 -4,4"/>
<!-- Node0 -->
<g id="node1" class="node">
<title>Node0</title>
<polygon fill="#bfbfbf" stroke="#000000" points="0,-.5 0,-101.5 162,-101.5 162,-.5 0,-.5"/>
<text text-anchor="start" x="8" y="-89.5" font-family="Helvetica,sans-Serif" font-size="10.00" fill="#000000">qtsdl::EventHandlingQuick</text>
<text text-anchor="middle" x="81" y="-78.5" font-family="Helvetica,sans-Serif" font-size="10.00" fill="#000000">Window</text>
<polyline fill="none" stroke="#000000" points="0,-71.5 162,-71.5 "/>
<text text-anchor="start" x="8" y="-59.5" font-family="Helvetica,sans-Serif" font-size="10.00" fill="#000000">&#45; focused_item</text>
<polyline fill="none" stroke="#000000" points="0,-52.5 162,-52.5 "/>
<text text-anchor="start" x="8" y="-40.5" font-family="Helvetica,sans-Serif" font-size="10.00" fill="#000000">+ EventHandlingQuickWindow()</text>
<text text-anchor="start" x="8" y="-29.5" font-family="Helvetica,sans-Serif" font-size="10.00" fill="#000000">+ ~EventHandlingQuickWindow()</text>
<text text-anchor="start" x="8" y="-18.5" font-family="Helvetica,sans-Serif" font-size="10.00" fill="#000000">+ on_input_event()</text>
<text text-anchor="start" x="8" y="-7.5" font-family="Helvetica,sans-Serif" font-size="10.00" fill="#000000">+ on_resized()</text>
</g>
<!-- Node1 -->
<g id="node2" class="node">
<title>Node1</title>
<polygon fill="#ffffff" stroke="#bfbfbf" points="38.5,-138.5 38.5,-195.5 123.5,-195.5 123.5,-138.5 38.5,-138.5"/>
<text text-anchor="middle" x="81" y="-183.5" font-family="Helvetica,sans-Serif" font-size="10.00" fill="#000000">QQuickWindow</text>
<polyline fill="none" stroke="#bfbfbf" points="38.5,-176.5 123.5,-176.5 "/>
<text text-anchor="middle" x="81" y="-164.5" font-family="Helvetica,sans-Serif" font-size="10.00" fill="#000000"> </text>
<polyline fill="none" stroke="#bfbfbf" points="38.5,-157.5 123.5,-157.5 "/>
<text text-anchor="middle" x="81" y="-145.5" font-family="Helvetica,sans-Serif" font-size="10.00" fill="#000000"> </text>
</g>
<!-- Node1&#45;&gt;Node0 -->
<g id="edge1" class="edge">
<title>Node1&#45;&gt;Node0</title>
<path fill="none" stroke="#191970" d="M81,-128.0826C81,-119.6942 81,-110.7064 81,-101.9373"/>
<polygon fill="none" stroke="#191970" points="77.5001,-128.3258 81,-138.3258 84.5001,-128.3259 77.5001,-128.3258"/>
</g>
</g>
</svg>
