<?xml version="1.0" encoding="UTF-8" standalone="no"?>
<!DOCTYPE svg PUBLIC "-//W3C//DTD SVG 1.1//EN"
 "http://www.w3.org/Graphics/SVG/1.1/DTD/svg11.dtd">
<!-- Generated by graphviz version 2.40.1 (20161225.0304)
 -->
<!-- Title: openage::EditorMode::name Pages: 1 -->
<svg width="429pt" height="137pt"
 viewBox="0.00 0.00 429.00 137.00" xmlns="http://www.w3.org/2000/svg" xmlns:xlink="http://www.w3.org/1999/xlink">
<g id="graph0" class="graph" transform="scale(1 1) rotate(0) translate(4 133)">
<title>openage::EditorMode::name</title>
<polygon fill="#ffffff" stroke="transparent" points="-4,4 -4,-133 425,-133 425,4 -4,4"/>
<!-- Node56 -->
<g id="node1" class="node">
<title>Node56</title>
<polygon fill="#bfbfbf" stroke="#000000" points="0,-49.5 0,-79.5 109,-79.5 109,-49.5 0,-49.5"/>
<text text-anchor="start" x="8" y="-67.5" font-family="Helvetica,sans-Serif" font-size="10.00" fill="#000000">openage::EditorMode</text>
<text text-anchor="middle" x="54.5" y="-56.5" font-family="Helvetica,sans-Serif" font-size="10.00" fill="#000000">::name</text>
</g>
<!-- Node57 -->
<g id="node2" class="node">
<title>Node57</title>
<g id="a_node2"><a xlink:href="../../d6/d6b/classopenage_1_1util_1_1fslike_1_1path_1_1_path.xhtml#aab5ade46752aa652e414b1c3bac704c1" target="_top" xlink:title="Name without suffix (such that stem + suffix == name). ">
<polygon fill="#ffffff" stroke="#000000" points="145,-98.5 145,-128.5 265,-128.5 265,-98.5 145,-98.5"/>
<text text-anchor="start" x="153" y="-116.5" font-family="Helvetica,sans-Serif" font-size="10.00" fill="#000000">openage.util.fslike.path.</text>
<text text-anchor="middle" x="205" y="-105.5" font-family="Helvetica,sans-Serif" font-size="10.00" fill="#000000">Path.stem</text>
</a>
</g>
</g>
<!-- Node56&#45;&gt;Node57 -->
<g id="edge1" class="edge">
<title>Node56&#45;&gt;Node57</title>
<path fill="none" stroke="#191970" d="M110.5815,-82.7591C126.4552,-87.9273 143.5481,-93.4924 158.7702,-98.4484"/>
<polygon fill="#191970" stroke="#191970" points="111.4753,-79.3693 100.883,-79.6014 109.3081,-86.0254 111.4753,-79.3693"/>
</g>
<!-- Node59 -->
<g id="node4" class="node">
<title>Node59</title>
<g id="a_node4"><a xlink:href="../../d6/d6b/classopenage_1_1util_1_1fslike_1_1path_1_1_path.xhtml#a7b11153f6ef9787c4c583bcf0126ba6a" target="_top" xlink:title="The last suffix of the name of the topmost component (str). ">
<polygon fill="#ffffff" stroke="#000000" points="145,-49.5 145,-79.5 265,-79.5 265,-49.5 145,-49.5"/>
<text text-anchor="start" x="153" y="-67.5" font-family="Helvetica,sans-Serif" font-size="10.00" fill="#000000">openage.util.fslike.path.</text>
<text text-anchor="middle" x="205" y="-56.5" font-family="Helvetica,sans-Serif" font-size="10.00" fill="#000000">Path.suffix</text>
</a>
</g>
</g>
<!-- Node56&#45;&gt;Node59 -->
<g id="edge3" class="edge">
<title>Node56&#45;&gt;Node59</title>
<path fill="none" stroke="#191970" d="M119.4644,-64.5C127.9265,-64.5 136.5654,-64.5 144.9423,-64.5"/>
<polygon fill="#191970" stroke="#191970" points="119.2597,-61.0001 109.2597,-64.5 119.2597,-68.0001 119.2597,-61.0001"/>
</g>
<!-- Node60 -->
<g id="node5" class="node">
<title>Node60</title>
<g id="a_node5"><a xlink:href="../../d6/d6b/classopenage_1_1util_1_1fslike_1_1path_1_1_path.xhtml#a912043b2fbd330e3493588f6c6af92b8" target="_top" xlink:title="The suffixes of the name of the topmost component (str list). ">
<polygon fill="#ffffff" stroke="#000000" points="145,-.5 145,-30.5 265,-30.5 265,-.5 145,-.5"/>
<text text-anchor="start" x="153" y="-18.5" font-family="Helvetica,sans-Serif" font-size="10.00" fill="#000000">openage.util.fslike.path.</text>
<text text-anchor="middle" x="205" y="-7.5" font-family="Helvetica,sans-Serif" font-size="10.00" fill="#000000">Path.suffixes</text>
</a>
</g>
</g>
<!-- Node56&#45;&gt;Node60 -->
<g id="edge4" class="edge">
<title>Node56&#45;&gt;Node60</title>
<path fill="none" stroke="#191970" d="M110.5815,-46.2409C126.4552,-41.0727 143.5481,-35.5076 158.7702,-30.5516"/>
<polygon fill="#191970" stroke="#191970" points="109.3081,-42.9746 100.883,-49.3986 111.4753,-49.6307 109.3081,-42.9746"/>
</g>
<!-- Node58 -->
<g id="node3" class="node">
<title>Node58</title>
<g id="a_node3"><a xlink:href="../../d6/d6b/classopenage_1_1util_1_1fslike_1_1path_1_1_path.xhtml#a3ab02f8ab30da2c239dc08a5bb463b58" target="_top" xlink:title="Returns path for different suffix (same parent and stem). ">
<polygon fill="#ffffff" stroke="#000000" points="301,-98.5 301,-128.5 421,-128.5 421,-98.5 301,-98.5"/>
<text text-anchor="start" x="309" y="-116.5" font-family="Helvetica,sans-Serif" font-size="10.00" fill="#000000">openage.util.fslike.path.</text>
<text text-anchor="middle" x="361" y="-105.5" font-family="Helvetica,sans-Serif" font-size="10.00" fill="#000000">Path.with_suffix</text>
</a>
</g>
</g>
<!-- Node57&#45;&gt;Node58 -->
<g id="edge2" class="edge">
<title>Node57&#45;&gt;Node58</title>
<path fill="none" stroke="#191970" d="M275.538,-113.5C283.9903,-113.5 292.5605,-113.5 300.8467,-113.5"/>
<polygon fill="#191970" stroke="#191970" points="275.3137,-110.0001 265.3137,-113.5 275.3136,-117.0001 275.3137,-110.0001"/>
</g>
</g>
</svg>
