<?xml version="1.0" encoding="UTF-8" standalone="no"?>
<!DOCTYPE svg PUBLIC "-//W3C//DTD SVG 1.1//EN"
 "http://www.w3.org/Graphics/SVG/1.1/DTD/svg11.dtd">
<!-- Generated by graphviz version 2.40.1 (20161225.0304)
 -->
<!-- Title: openage::audio::DynamicResource::use Pages: 1 -->
<svg width="392pt" height="137pt"
 viewBox="0.00 0.00 392.00 137.00" xmlns="http://www.w3.org/2000/svg" xmlns:xlink="http://www.w3.org/1999/xlink">
<g id="graph0" class="graph" transform="scale(1 1) rotate(0) translate(4 133)">
<title>openage::audio::DynamicResource::use</title>
<polygon fill="#ffffff" stroke="transparent" points="-4,4 -4,-133 388,-133 388,4 -4,4"/>
<!-- Node27 -->
<g id="node1" class="node">
<title>Node27</title>
<polygon fill="#bfbfbf" stroke="#000000" points="0,-55 0,-74 191,-74 191,-55 0,-55"/>
<text text-anchor="middle" x="95.5" y="-62" font-family="Helvetica,sans-Serif" font-size="10.00" fill="#000000">openage::audio::DynamicResource::use</text>
</g>
<!-- Node28 -->
<g id="node2" class="node">
<title>Node28</title>
<g id="a_node2"><a xlink:href="../../d0/df5/classopenage_1_1audio_1_1_dynamic_loader.xhtml#a112547e0d5b12a174840c036b80b9aad" target="_top" xlink:title="Creates a DynamicLoader instance that supports the given format. ">
<polygon fill="#ffffff" stroke="#000000" points="227,-98.5 227,-128.5 384,-128.5 384,-98.5 227,-98.5"/>
<text text-anchor="start" x="235" y="-116.5" font-family="Helvetica,sans-Serif" font-size="10.00" fill="#000000">openage::audio::DynamicLoader</text>
<text text-anchor="middle" x="305.5" y="-105.5" font-family="Helvetica,sans-Serif" font-size="10.00" fill="#000000">::create</text>
</a>
</g>
</g>
<!-- Node27&#45;&gt;Node28 -->
<g id="edge1" class="edge">
<title>Node27&#45;&gt;Node28</title>
<path fill="none" stroke="#191970" d="M136.2391,-74.0058C163.1544,-80.286 199.2232,-88.7021 231.1486,-96.1513"/>
<polygon fill="#191970" stroke="#191970" points="230.375,-99.5648 240.9088,-98.4287 231.9657,-92.7479 230.375,-99.5648"/>
</g>
<!-- Node29 -->
<g id="node3" class="node">
<title>Node29</title>
<g id="a_node3"><a xlink:href="../../dc/d9a/classopenage_1_1job_1_1_job_manager.xhtml#a26dd9d9c12b38ca0d7bf4c7e3c17ee36" target="_top" xlink:title="Creates a job group, in order to be able to execute multiple jobs on the same worker thread...">
<polygon fill="#ffffff" stroke="#000000" points="240,-49.5 240,-79.5 371,-79.5 371,-49.5 240,-49.5"/>
<text text-anchor="start" x="248" y="-67.5" font-family="Helvetica,sans-Serif" font-size="10.00" fill="#000000">openage::job::JobManager</text>
<text text-anchor="middle" x="305.5" y="-56.5" font-family="Helvetica,sans-Serif" font-size="10.00" fill="#000000">::create_job_group</text>
</a>
</g>
</g>
<!-- Node27&#45;&gt;Node29 -->
<g id="edge2" class="edge">
<title>Node27&#45;&gt;Node29</title>
<path fill="none" stroke="#191970" d="M191.282,-64.5C204.1278,-64.5 217.1589,-64.5 229.5985,-64.5"/>
<polygon fill="#191970" stroke="#191970" points="229.8916,-68.0001 239.8915,-64.5 229.8915,-61.0001 229.8916,-68.0001"/>
</g>
<!-- Node30 -->
<g id="node4" class="node">
<title>Node30</title>
<g id="a_node4"><a xlink:href="../../d0/d62/classopenage_1_1audio_1_1_audio_manager.xhtml#add5dcdf1895b883af210f102e4e64199" target="_top" xlink:title="Return the game engine the audio manager is attached to. ">
<polygon fill="#ffffff" stroke="#000000" points="230,-.5 230,-30.5 381,-30.5 381,-.5 230,-.5"/>
<text text-anchor="start" x="238" y="-18.5" font-family="Helvetica,sans-Serif" font-size="10.00" fill="#000000">openage::audio::AudioManager</text>
<text text-anchor="middle" x="305.5" y="-7.5" font-family="Helvetica,sans-Serif" font-size="10.00" fill="#000000">::get_job_manager</text>
</a>
</g>
</g>
<!-- Node27&#45;&gt;Node30 -->
<g id="edge3" class="edge">
<title>Node27&#45;&gt;Node30</title>
<path fill="none" stroke="#191970" d="M136.2391,-54.9942C163.1544,-48.714 199.2232,-40.2979 231.1486,-32.8487"/>
<polygon fill="#191970" stroke="#191970" points="231.9657,-36.2521 240.9088,-30.5713 230.375,-29.4352 231.9657,-36.2521"/>
</g>
</g>
</svg>
