<?xml version="1.0" encoding="UTF-8" standalone="no"?>
<!DOCTYPE svg PUBLIC "-//W3C//DTD SVG 1.1//EN"
 "http://www.w3.org/Graphics/SVG/1.1/DTD/svg11.dtd">
<!-- Generated by graphviz version 2.40.1 (20161225.0304)
 -->
<!-- Title: openage::audio::DynamicResource::load_chunk_async Pages: 1 -->
<svg width="626pt" height="39pt"
 viewBox="0.00 0.00 626.00 39.00" xmlns="http://www.w3.org/2000/svg" xmlns:xlink="http://www.w3.org/1999/xlink">
<g id="graph0" class="graph" transform="scale(1 1) rotate(0) translate(4 35)">
<title>openage::audio::DynamicResource::load_chunk_async</title>
<polygon fill="#ffffff" stroke="transparent" points="-4,4 -4,-35 622,-35 622,4 -4,4"/>
<!-- Node11 -->
<g id="node1" class="node">
<title>Node11</title>
<polygon fill="#bfbfbf" stroke="#000000" points="0,-.5 0,-30.5 170,-30.5 170,-.5 0,-.5"/>
<text text-anchor="start" x="8" y="-18.5" font-family="Helvetica,sans-Serif" font-size="10.00" fill="#000000">openage::audio::DynamicResource</text>
<text text-anchor="middle" x="85" y="-7.5" font-family="Helvetica,sans-Serif" font-size="10.00" fill="#000000">::load_chunk_async</text>
</g>
<!-- Node12 -->
<g id="node2" class="node">
<title>Node12</title>
<g id="a_node2"><a xlink:href="../../d1/d28/classopenage_1_1job_1_1_job_group.xhtml#a793449eefa0dcc327cd2dc8bdd4144bc" target="_top" xlink:title="Enqueues the given function into the job group&#39;s worker thread. ">
<polygon fill="#ffffff" stroke="#000000" points="206,-.5 206,-30.5 326,-30.5 326,-.5 206,-.5"/>
<text text-anchor="start" x="214" y="-18.5" font-family="Helvetica,sans-Serif" font-size="10.00" fill="#000000">openage::job::JobGroup</text>
<text text-anchor="middle" x="266" y="-7.5" font-family="Helvetica,sans-Serif" font-size="10.00" fill="#000000">::enqueue</text>
</a>
</g>
</g>
<!-- Node11&#45;&gt;Node12 -->
<g id="edge1" class="edge">
<title>Node11&#45;&gt;Node12</title>
<path fill="none" stroke="#191970" d="M170.2,-15.5C178.7394,-15.5 187.342,-15.5 195.7022,-15.5"/>
<polygon fill="#191970" stroke="#191970" points="195.7591,-19.0001 205.7591,-15.5 195.7591,-12.0001 195.7591,-19.0001"/>
</g>
<!-- Node13 -->
<g id="node3" class="node">
<title>Node13</title>
<g id="a_node3"><a xlink:href="../../d5/d79/classopenage_1_1job_1_1_worker.xhtml#ace257fda681faf0b5c87e9296da18b7c" target="_top" xlink:title="Adds the given job to the internal pending job queue. ">
<polygon fill="#ffffff" stroke="#000000" points="362,-.5 362,-30.5 472,-30.5 472,-.5 362,-.5"/>
<text text-anchor="start" x="370" y="-18.5" font-family="Helvetica,sans-Serif" font-size="10.00" fill="#000000">openage::job::Worker</text>
<text text-anchor="middle" x="417" y="-7.5" font-family="Helvetica,sans-Serif" font-size="10.00" fill="#000000">::enqueue</text>
</a>
</g>
</g>
<!-- Node12&#45;&gt;Node13 -->
<g id="edge2" class="edge">
<title>Node12&#45;&gt;Node13</title>
<path fill="none" stroke="#191970" d="M326.1131,-15.5C334.5328,-15.5 343.2192,-15.5 351.7289,-15.5"/>
<polygon fill="#191970" stroke="#191970" points="351.9916,-19.0001 361.9916,-15.5 351.9915,-12.0001 351.9916,-19.0001"/>
</g>
<!-- Node14 -->
<g id="node4" class="node">
<title>Node14</title>
<g id="a_node4"><a xlink:href="../../d5/d79/classopenage_1_1job_1_1_worker.xhtml#a3a1cffa81bce40320896181ac63205cb" target="_top" xlink:title="Notifies this worker, that new jobs are available. ">
<polygon fill="#ffffff" stroke="#000000" points="508,-.5 508,-30.5 618,-30.5 618,-.5 508,-.5"/>
<text text-anchor="start" x="516" y="-18.5" font-family="Helvetica,sans-Serif" font-size="10.00" fill="#000000">openage::job::Worker</text>
<text text-anchor="middle" x="563" y="-7.5" font-family="Helvetica,sans-Serif" font-size="10.00" fill="#000000">::notify</text>
</a>
</g>
</g>
<!-- Node13&#45;&gt;Node14 -->
<g id="edge3" class="edge">
<title>Node13&#45;&gt;Node14</title>
<path fill="none" stroke="#191970" d="M472.1963,-15.5C480.4633,-15.5 489.0546,-15.5 497.5101,-15.5"/>
<polygon fill="#191970" stroke="#191970" points="497.7256,-19.0001 507.7256,-15.5 497.7256,-12.0001 497.7256,-19.0001"/>
</g>
</g>
</svg>
