<?xml version="1.0" encoding="UTF-8" standalone="no"?>
<!DOCTYPE svg PUBLIC "-//W3C//DTD SVG 1.1//EN"
 "http://www.w3.org/Graphics/SVG/1.1/DTD/svg11.dtd">
<!-- Generated by graphviz version 2.40.1 (20161225.0304)
 -->
<!-- Title: openage::renderer::opengl::GlSimpleObject::get_handle Pages: 1 -->
<svg width="291pt" height="50pt"
 viewBox="0.00 0.00 291.00 50.00" xmlns="http://www.w3.org/2000/svg" xmlns:xlink="http://www.w3.org/1999/xlink">
<g id="graph0" class="graph" transform="scale(1 1) rotate(0) translate(4 46)">
<title>openage::renderer::opengl::GlSimpleObject::get_handle</title>
<polygon fill="#ffffff" stroke="transparent" points="-4,4 -4,-46 287,-46 287,4 -4,4"/>
<!-- Node9 -->
<g id="node1" class="node">
<title>Node9</title>
<polygon fill="#bfbfbf" stroke="#000000" points="0,-.5 0,-41.5 119,-41.5 119,-.5 0,-.5"/>
<text text-anchor="start" x="8" y="-29.5" font-family="Helvetica,sans-Serif" font-size="10.00" fill="#000000">openage::renderer::</text>
<text text-anchor="start" x="8" y="-18.5" font-family="Helvetica,sans-Serif" font-size="10.00" fill="#000000">opengl::GlSimpleObject</text>
<text text-anchor="middle" x="59.5" y="-7.5" font-family="Helvetica,sans-Serif" font-size="10.00" fill="#000000">::get_handle</text>
</g>
<!-- Node10 -->
<g id="node2" class="node">
<title>Node10</title>
<g id="a_node2"><a xlink:href="../../dd/d46/classopenage_1_1renderer_1_1opengl_1_1_gl_shader_program.xhtml#aa779365799f67daace32b90e4a4fde5e" target="_top" xlink:title="Tries to create a shader program from the given sources. ">
<polygon fill="#ffffff" stroke="#000000" points="155,-.5 155,-41.5 283,-41.5 283,-.5 155,-.5"/>
<text text-anchor="start" x="163" y="-29.5" font-family="Helvetica,sans-Serif" font-size="10.00" fill="#000000">openage::renderer::</text>
<text text-anchor="start" x="163" y="-18.5" font-family="Helvetica,sans-Serif" font-size="10.00" fill="#000000">opengl::GlShaderProgram</text>
<text text-anchor="middle" x="219" y="-7.5" font-family="Helvetica,sans-Serif" font-size="10.00" fill="#000000">::GlShaderProgram</text>
</a>
</g>
</g>
<!-- Node9&#45;&gt;Node10 -->
<g id="edge1" class="edge">
<title>Node9&#45;&gt;Node10</title>
<path fill="none" stroke="#191970" d="M129.5119,-21C137.9271,-21 146.4891,-21 154.8156,-21"/>
<polygon fill="#191970" stroke="#191970" points="129.3457,-17.5001 119.3457,-21 129.3457,-24.5001 129.3457,-17.5001"/>
</g>
</g>
</svg>
