<?xml version="1.0" encoding="UTF-8" standalone="no"?>
<!DOCTYPE svg PUBLIC "-//W3C//DTD SVG 1.1//EN"
 "http://www.w3.org/Graphics/SVG/1.1/DTD/svg11.dtd">
<!-- Generated by graphviz version 2.40.1 (20161225.0304)
 -->
<!-- Title: openage::renderer::resources::Texture2dData::get_data Pages: 1 -->
<svg width="302pt" height="110pt"
 viewBox="0.00 0.00 302.00 110.00" xmlns="http://www.w3.org/2000/svg" xmlns:xlink="http://www.w3.org/1999/xlink">
<g id="graph0" class="graph" transform="scale(1 1) rotate(0) translate(4 106)">
<title>openage::renderer::resources::Texture2dData::get_data</title>
<polygon fill="#ffffff" stroke="transparent" points="-4,4 -4,-106 298,-106 298,4 -4,4"/>
<!-- Node45 -->
<g id="node1" class="node">
<title>Node45</title>
<polygon fill="#bfbfbf" stroke="#000000" points="0,-30.5 0,-71.5 130,-71.5 130,-30.5 0,-30.5"/>
<text text-anchor="start" x="8" y="-59.5" font-family="Helvetica,sans-Serif" font-size="10.00" fill="#000000">openage::renderer::</text>
<text text-anchor="start" x="8" y="-48.5" font-family="Helvetica,sans-Serif" font-size="10.00" fill="#000000">resources::Texture2dData</text>
<text text-anchor="middle" x="65" y="-37.5" font-family="Helvetica,sans-Serif" font-size="10.00" fill="#000000">::get_data</text>
</g>
<!-- Node46 -->
<g id="node2" class="node">
<title>Node46</title>
<g id="a_node2"><a xlink:href="../../d6/dae/classopenage_1_1renderer_1_1opengl_1_1_gl_texture2d.xhtml#aa521e75b491d72b51afade86d6c18ad4" target="_top" xlink:title="Uploads the provided data into the GPU texture storage. ">
<polygon fill="#ffffff" stroke="#000000" points="178,-60.5 178,-101.5 282,-101.5 282,-60.5 178,-60.5"/>
<text text-anchor="start" x="186" y="-89.5" font-family="Helvetica,sans-Serif" font-size="10.00" fill="#000000">openage::renderer::</text>
<text text-anchor="start" x="186" y="-78.5" font-family="Helvetica,sans-Serif" font-size="10.00" fill="#000000">opengl::GlTexture2d</text>
<text text-anchor="middle" x="230" y="-67.5" font-family="Helvetica,sans-Serif" font-size="10.00" fill="#000000">::upload</text>
</a>
</g>
</g>
<!-- Node45&#45;&gt;Node46 -->
<g id="edge1" class="edge">
<title>Node45&#45;&gt;Node46</title>
<path fill="none" stroke="#191970" d="M140.3406,-64.6983C153.0598,-67.0109 166.0078,-69.3651 177.9628,-71.5387"/>
<polygon fill="#191970" stroke="#191970" points="140.6772,-61.2022 130.2124,-62.8568 139.4249,-68.0893 140.6772,-61.2022"/>
</g>
<!-- Node47 -->
<g id="node3" class="node">
<title>Node47</title>
<g id="a_node3"><a xlink:href="../../dc/d3b/classopenage_1_1renderer_1_1opengl_1_1_gl_texture2d_array.xhtml#a2c8d96d2ec74e7ab4b744aebb19cf31d" target="_top" xlink:title="Uploads the given texture data into the specified layer. ">
<polygon fill="#ffffff" stroke="#000000" points="166,-.5 166,-41.5 294,-41.5 294,-.5 166,-.5"/>
<text text-anchor="start" x="174" y="-29.5" font-family="Helvetica,sans-Serif" font-size="10.00" fill="#000000">openage::renderer::</text>
<text text-anchor="start" x="174" y="-18.5" font-family="Helvetica,sans-Serif" font-size="10.00" fill="#000000">opengl::GlTexture2dArray</text>
<text text-anchor="middle" x="230" y="-7.5" font-family="Helvetica,sans-Serif" font-size="10.00" fill="#000000">::upload</text>
</a>
</g>
</g>
<!-- Node45&#45;&gt;Node47 -->
<g id="edge2" class="edge">
<title>Node45&#45;&gt;Node47</title>
<path fill="none" stroke="#191970" d="M140.1861,-37.3298C148.7425,-35.7741 157.4048,-34.1991 165.8007,-32.6726"/>
<polygon fill="#191970" stroke="#191970" points="139.4249,-33.9107 130.2124,-39.1432 140.6772,-40.7978 139.4249,-33.9107"/>
</g>
</g>
</svg>
