<?xml version="1.0" encoding="UTF-8" standalone="no"?>
<!DOCTYPE svg PUBLIC "-//W3C//DTD SVG 1.1//EN"
 "http://www.w3.org/Graphics/SVG/1.1/DTD/svg11.dtd">
<!-- Generated by graphviz version 2.40.1 (20161225.0304)
 -->
<!-- Title: openage::renderer::resources::Texture2dData::flip_y Pages: 1 -->
<svg width="816pt" height="448pt"
 viewBox="0.00 0.00 816.00 447.50" xmlns="http://www.w3.org/2000/svg" xmlns:xlink="http://www.w3.org/1999/xlink">
<g id="graph0" class="graph" transform="scale(1 1) rotate(0) translate(4 443.5)">
<title>openage::renderer::resources::Texture2dData::flip_y</title>
<polygon fill="#ffffff" stroke="transparent" points="-4,4 -4,-443.5 812,-443.5 812,4 -4,4"/>
<!-- Node22 -->
<g id="node1" class="node">
<title>Node22</title>
<polygon fill="#bfbfbf" stroke="#000000" points="0,-330 0,-371 130,-371 130,-330 0,-330"/>
<text text-anchor="start" x="8" y="-359" font-family="Helvetica,sans-Serif" font-size="10.00" fill="#000000">openage::renderer::</text>
<text text-anchor="start" x="8" y="-348" font-family="Helvetica,sans-Serif" font-size="10.00" fill="#000000">resources::Texture2dData</text>
<text text-anchor="middle" x="65" y="-337" font-family="Helvetica,sans-Serif" font-size="10.00" fill="#000000">::flip_y</text>
</g>
<!-- Node23 -->
<g id="node2" class="node">
<title>Node23</title>
<g id="a_node2"><a xlink:href="../../d0/dd8/classopenage_1_1renderer_1_1resources_1_1_texture2d_info.xhtml#a2d87c131a3e1f175ce29d3ec146c2790" target="_top" xlink:title="Returns the size in bytes of a single row, including possible padding at its end. ...">
<polygon fill="#ffffff" stroke="#000000" points="168.5,-398 168.5,-439 293.5,-439 293.5,-398 168.5,-398"/>
<text text-anchor="start" x="176.5" y="-427" font-family="Helvetica,sans-Serif" font-size="10.00" fill="#000000">openage::renderer::</text>
<text text-anchor="start" x="176.5" y="-416" font-family="Helvetica,sans-Serif" font-size="10.00" fill="#000000">resources::Texture2dInfo</text>
<text text-anchor="middle" x="231" y="-405" font-family="Helvetica,sans-Serif" font-size="10.00" fill="#000000">::get_row_size</text>
</a>
</g>
</g>
<!-- Node22&#45;&gt;Node23 -->
<g id="edge1" class="edge">
<title>Node22&#45;&gt;Node23</title>
<path fill="none" stroke="#191970" d="M115.256,-371.0868C132.9709,-378.3435 153.0558,-386.5711 171.4633,-394.1115"/>
<polygon fill="#191970" stroke="#191970" points="170.3344,-397.4313 180.9149,-397.9832 172.9879,-390.9537 170.3344,-397.4313"/>
</g>
<!-- Node25 -->
<g id="node4" class="node">
<title>Node25</title>
<g id="a_node4"><a xlink:href="../../d0/dd8/classopenage_1_1renderer_1_1resources_1_1_texture2d_info.xhtml#a3bd462432c63a67c1b199c3f717bce50" target="_top" xlink:title="Returns the dimensions of the whole texture bitmap. ">
<polygon fill="#ffffff" stroke="#000000" points="168.5,-330 168.5,-371 293.5,-371 293.5,-330 168.5,-330"/>
<text text-anchor="start" x="176.5" y="-359" font-family="Helvetica,sans-Serif" font-size="10.00" fill="#000000">openage::renderer::</text>
<text text-anchor="start" x="176.5" y="-348" font-family="Helvetica,sans-Serif" font-size="10.00" fill="#000000">resources::Texture2dInfo</text>
<text text-anchor="middle" x="231" y="-337" font-family="Helvetica,sans-Serif" font-size="10.00" fill="#000000">::get_size</text>
</a>
</g>
</g>
<!-- Node22&#45;&gt;Node25 -->
<g id="edge3" class="edge">
<title>Node22&#45;&gt;Node25</title>
<path fill="none" stroke="#191970" d="M130.1312,-350.5C139.3364,-350.5 148.8494,-350.5 158.1878,-350.5"/>
<polygon fill="#191970" stroke="#191970" points="158.2296,-354.0001 168.2296,-350.5 158.2295,-347.0001 158.2296,-354.0001"/>
</g>
<!-- Node26 -->
<g id="node5" class="node">
<title>Node26</title>
<g id="a_node5"><a xlink:href="../../d8/db0/classopenage_1_1renderer_1_1resources_1_1_texture2d_data.xhtml#a54659e7f41b37d889bba34111bb003d0" target="_top" xlink:title="Create a texture from an image file. ">
<polygon fill="#ffffff" stroke="#000000" points="166,-254 166,-295 296,-295 296,-254 166,-254"/>
<text text-anchor="start" x="174" y="-283" font-family="Helvetica,sans-Serif" font-size="10.00" fill="#000000">openage::renderer::</text>
<text text-anchor="start" x="174" y="-272" font-family="Helvetica,sans-Serif" font-size="10.00" fill="#000000">resources::Texture2dData</text>
<text text-anchor="middle" x="231" y="-261" font-family="Helvetica,sans-Serif" font-size="10.00" fill="#000000">::Texture2dData</text>
</a>
</g>
</g>
<!-- Node22&#45;&gt;Node26 -->
<g id="edge4" class="edge">
<title>Node22&#45;&gt;Node26</title>
<path fill="none" stroke="#191970" d="M109.922,-329.9333C130.4978,-320.5131 155.0595,-309.2679 176.6664,-299.3756"/>
<polygon fill="#191970" stroke="#191970" points="178.4067,-302.4283 186.0421,-295.0831 175.4927,-296.0636 178.4067,-302.4283"/>
</g>
<!-- Node24 -->
<g id="node3" class="node">
<title>Node24</title>
<g id="a_node3"><a xlink:href="../../d1/d65/namespaceopenage_1_1renderer_1_1resources.xhtml#aa8bc42c345504717eba7d38b39d278c2" target="_top" xlink:title="Returns the size in bytes of a single pixel of the specified format. ">
<polygon fill="#ffffff" stroke="#000000" points="498,-349.5 498,-379.5 607,-379.5 607,-349.5 498,-349.5"/>
<text text-anchor="start" x="506" y="-367.5" font-family="Helvetica,sans-Serif" font-size="10.00" fill="#000000">openage::renderer::</text>
<text text-anchor="middle" x="552.5" y="-356.5" font-family="Helvetica,sans-Serif" font-size="10.00" fill="#000000">resources::pixel_size</text>
</a>
</g>
</g>
<!-- Node23&#45;&gt;Node24 -->
<g id="edge2" class="edge">
<title>Node23&#45;&gt;Node24</title>
<path fill="none" stroke="#191970" d="M293.5427,-421.1474C336.613,-421.6209 394.8836,-419.5806 445,-408.5 468.7978,-403.2384 494.0855,-393.1379 514.1522,-383.9402"/>
<polygon fill="#191970" stroke="#191970" points="515.7021,-387.0792 523.2666,-379.661 512.7271,-380.7428 515.7021,-387.0792"/>
</g>
<!-- Node27 -->
<g id="node6" class="node">
<title>Node27</title>
<g id="a_node6"><a xlink:href="../../dd/d1a/namespaceopenage_1_1log.xhtml#a5cb08687f485da2549d7eebef26368a6" target="_top" xlink:title="debug message ">
<polygon fill="#ffffff" stroke="#000000" points="344.5,-380 344.5,-399 432.5,-399 432.5,-380 344.5,-380"/>
<text text-anchor="middle" x="388.5" y="-387" font-family="Helvetica,sans-Serif" font-size="10.00" fill="#000000">openage.log.dbg</text>
</a>
</g>
</g>
<!-- Node26&#45;&gt;Node27 -->
<g id="edge5" class="edge">
<title>Node26&#45;&gt;Node27</title>
<path fill="none" stroke="#191970" d="M264.7257,-295.2231C275.3203,-302.532 286.6754,-311.2512 296,-320.5 315.4415,-339.7836 309.9643,-354.2441 332,-370.5 334.6233,-372.4352 337.4565,-374.1819 340.4081,-375.7571"/>
<polygon fill="#191970" stroke="#191970" points="338.9827,-378.954 349.5272,-379.9853 341.9273,-372.6035 338.9827,-378.954"/>
</g>
<!-- Node28 -->
<g id="node7" class="node">
<title>Node28</title>
<g id="a_node7"><a xlink:href="../../dd/d1a/namespaceopenage_1_1log.xhtml#ab6b4b10be67af93ab6c4d5a36139736e" target="_top" xlink:title="error message ">
<polygon fill="#ffffff" stroke="#000000" points="347,-342 347,-361 430,-361 430,-342 347,-342"/>
<text text-anchor="middle" x="388.5" y="-349" font-family="Helvetica,sans-Serif" font-size="10.00" fill="#000000">openage.log.err</text>
</a>
</g>
</g>
<!-- Node26&#45;&gt;Node28 -->
<g id="edge6" class="edge">
<title>Node26&#45;&gt;Node28</title>
<path fill="none" stroke="#191970" d="M263.3457,-295.2573C282.7529,-307.1525 308.2131,-321.7963 332,-332.5 336.7157,-334.622 341.7431,-336.6395 346.7809,-338.5124"/>
<polygon fill="#191970" stroke="#191970" points="345.8075,-341.8808 356.4022,-341.9255 348.1478,-335.2836 345.8075,-341.8808"/>
</g>
<!-- Node29 -->
<g id="node8" class="node">
<title>Node29</title>
<g id="a_node8"><a xlink:href="../../dd/dc1/classopenage_1_1util_1_1_path.xhtml#a3fc6528c66f6d83e122e753f73511a3d" target="_top" xlink:title="openage::util::Path\l::get_parent">
<polygon fill="#ffffff" stroke="#000000" points="339.5,-232.5 339.5,-262.5 437.5,-262.5 437.5,-232.5 339.5,-232.5"/>
<text text-anchor="start" x="347.5" y="-250.5" font-family="Helvetica,sans-Serif" font-size="10.00" fill="#000000">openage::util::Path</text>
<text text-anchor="middle" x="388.5" y="-239.5" font-family="Helvetica,sans-Serif" font-size="10.00" fill="#000000">::get_parent</text>
</a>
</g>
</g>
<!-- Node26&#45;&gt;Node29 -->
<g id="edge7" class="edge">
<title>Node26&#45;&gt;Node29</title>
<path fill="none" stroke="#191970" d="M296.4259,-263.2841C307.3141,-261.4176 318.5523,-259.491 329.2751,-257.6528"/>
<polygon fill="#191970" stroke="#191970" points="330.1046,-261.0618 339.3695,-255.9224 328.9218,-254.1624 330.1046,-261.0618"/>
</g>
<!-- Node31 -->
<g id="node10" class="node">
<title>Node31</title>
<g id="a_node10"><a xlink:href="../../dd/dc1/classopenage_1_1util_1_1_path.xhtml#afed5e82e9f515fc2d8e2cdc291edebca" target="_top" xlink:title="openage::util::Path\l::get_stem">
<polygon fill="#ffffff" stroke="#000000" points="339.5,-183.5 339.5,-213.5 437.5,-213.5 437.5,-183.5 339.5,-183.5"/>
<text text-anchor="start" x="347.5" y="-201.5" font-family="Helvetica,sans-Serif" font-size="10.00" fill="#000000">openage::util::Path</text>
<text text-anchor="middle" x="388.5" y="-190.5" font-family="Helvetica,sans-Serif" font-size="10.00" fill="#000000">::get_stem</text>
</a>
</g>
</g>
<!-- Node26&#45;&gt;Node31 -->
<g id="edge9" class="edge">
<title>Node26&#45;&gt;Node31</title>
<path fill="none" stroke="#191970" d="M270.5848,-253.9242C289.1267,-244.4379 311.5819,-233.1646 332,-223.5 336.0356,-221.5898 340.2526,-219.6398 344.4853,-217.7136"/>
<polygon fill="#191970" stroke="#191970" points="346.0309,-220.8561 353.7122,-213.559 343.1569,-214.4733 346.0309,-220.8561"/>
</g>
<!-- Node33 -->
<g id="node12" class="node">
<title>Node33</title>
<g id="a_node12"><a xlink:href="../../d1/d65/namespaceopenage_1_1renderer_1_1resources.xhtml#a62ad4c6594b8ad6f357a9e5b18575bc4" target="_top" xlink:title="Tries to guess the alignment of image rows based on image parameters. ">
<polygon fill="#ffffff" stroke="#000000" points="332,-282 332,-323 445,-323 445,-282 332,-282"/>
<text text-anchor="start" x="340" y="-311" font-family="Helvetica,sans-Serif" font-size="10.00" fill="#000000">openage::renderer::</text>
<text text-anchor="start" x="340" y="-300" font-family="Helvetica,sans-Serif" font-size="10.00" fill="#000000">resources::guess_row</text>
<text text-anchor="middle" x="388.5" y="-289" font-family="Helvetica,sans-Serif" font-size="10.00" fill="#000000">_alignment</text>
</a>
</g>
</g>
<!-- Node26&#45;&gt;Node33 -->
<g id="edge11" class="edge">
<title>Node26&#45;&gt;Node33</title>
<path fill="none" stroke="#191970" d="M296.4259,-286.1313C304.7178,-287.6054 313.2128,-289.1156 321.5285,-290.5939"/>
<polygon fill="#191970" stroke="#191970" points="321.0989,-294.0724 331.5571,-292.3768 322.3242,-287.1804 321.0989,-294.0724"/>
</g>
<!-- Node34 -->
<g id="node13" class="node">
<title>Node34</title>
<g id="a_node13"><a xlink:href="../../dd/d1a/namespaceopenage_1_1log.xhtml#a0eff614e7d6e818746700ed9d29e583f" target="_top" xlink:title="Convenience method that makes use of the &#39;general&#39; LogSource. ">
<polygon fill="#ffffff" stroke="#000000" points="343,-143 343,-162 434,-162 434,-143 343,-143"/>
<text text-anchor="middle" x="388.5" y="-150" font-family="Helvetica,sans-Serif" font-size="10.00" fill="#000000">openage::log::log</text>
</a>
</g>
</g>
<!-- Node26&#45;&gt;Node34 -->
<g id="edge13" class="edge">
<title>Node26&#45;&gt;Node34</title>
<path fill="none" stroke="#191970" d="M247.2688,-253.9806C265.7655,-231.8047 297.8521,-196.6716 332,-174.5 336.9206,-171.3051 342.3767,-168.4586 347.9019,-165.9602"/>
<polygon fill="#191970" stroke="#191970" points="349.3043,-169.1675 357.1832,-162.0842 346.6067,-162.7082 349.3043,-169.1675"/>
</g>
<!-- Node40 -->
<g id="node19" class="node">
<title>Node40</title>
<g id="a_node19"><a xlink:href="../../dd/dc1/classopenage_1_1util_1_1_path.xhtml#a4ca4da6e9e2d8adadb02373ff2be8ebe" target="_top" xlink:title="Resolve the native path by flattening all underlying filesystem objects (like unions). ">
<polygon fill="#ffffff" stroke="#000000" points="333.5,-49.5 333.5,-79.5 443.5,-79.5 443.5,-49.5 333.5,-49.5"/>
<text text-anchor="start" x="341.5" y="-67.5" font-family="Helvetica,sans-Serif" font-size="10.00" fill="#000000">openage::util::Path</text>
<text text-anchor="middle" x="388.5" y="-56.5" font-family="Helvetica,sans-Serif" font-size="10.00" fill="#000000">::resolve_native_path</text>
</a>
</g>
</g>
<!-- Node26&#45;&gt;Node40 -->
<g id="edge19" class="edge">
<title>Node26&#45;&gt;Node40</title>
<path fill="none" stroke="#191970" d="M245.3092,-253.647C264.5199,-225.8575 299.9482,-175.3263 332,-133.5 344.0102,-117.8272 358.0759,-100.6459 369.1686,-87.3487"/>
<polygon fill="#191970" stroke="#191970" points="371.9055,-89.5319 375.6461,-79.6194 366.5404,-85.0356 371.9055,-89.5319"/>
</g>
<!-- Node30 -->
<g id="node9" class="node">
<title>Node30</title>
<g id="a_node9"><a xlink:href="../../dd/dc1/classopenage_1_1util_1_1_path.xhtml#a21fb5a34dad3027d7c9fca721211a258" target="_top" xlink:title="openage::util::Path\l::joinpath">
<polygon fill="#ffffff" stroke="#000000" points="503.5,-235.5 503.5,-265.5 601.5,-265.5 601.5,-235.5 503.5,-235.5"/>
<text text-anchor="start" x="511.5" y="-253.5" font-family="Helvetica,sans-Serif" font-size="10.00" fill="#000000">openage::util::Path</text>
<text text-anchor="middle" x="552.5" y="-242.5" font-family="Helvetica,sans-Serif" font-size="10.00" fill="#000000">::joinpath</text>
</a>
</g>
</g>
<!-- Node29&#45;&gt;Node30 -->
<g id="edge8" class="edge">
<title>Node29&#45;&gt;Node30</title>
<path fill="none" stroke="#191970" d="M437.7054,-248.4001C455.1381,-248.719 474.9383,-249.0812 493.127,-249.4139"/>
<polygon fill="#191970" stroke="#191970" points="493.2669,-252.917 503.3293,-249.6005 493.395,-245.9181 493.2669,-252.917"/>
</g>
<!-- Node32 -->
<g id="node11" class="node">
<title>Node32</title>
<g id="a_node11"><a xlink:href="../../dd/dc1/classopenage_1_1util_1_1_path.xhtml#a20819ad3bd985841f0538e3adac52cf6" target="_top" xlink:title="openage::util::Path\l::get_name">
<polygon fill="#ffffff" stroke="#000000" points="503.5,-186.5 503.5,-216.5 601.5,-216.5 601.5,-186.5 503.5,-186.5"/>
<text text-anchor="start" x="511.5" y="-204.5" font-family="Helvetica,sans-Serif" font-size="10.00" fill="#000000">openage::util::Path</text>
<text text-anchor="middle" x="552.5" y="-193.5" font-family="Helvetica,sans-Serif" font-size="10.00" fill="#000000">::get_name</text>
</a>
</g>
</g>
<!-- Node31&#45;&gt;Node32 -->
<g id="edge10" class="edge">
<title>Node31&#45;&gt;Node32</title>
<path fill="none" stroke="#191970" d="M437.7054,-199.4001C455.1381,-199.719 474.9383,-200.0812 493.127,-200.4139"/>
<polygon fill="#191970" stroke="#191970" points="493.2669,-203.917 503.3293,-200.6005 493.395,-196.9181 493.2669,-203.917"/>
</g>
<!-- Node33&#45;&gt;Node24 -->
<g id="edge12" class="edge">
<title>Node33&#45;&gt;Node24</title>
<path fill="none" stroke="#191970" d="M443.1096,-323.1451C462.4705,-330.4645 484.1329,-338.6539 503.0403,-345.8018"/>
<polygon fill="#191970" stroke="#191970" points="502.0581,-349.1722 512.6497,-349.4347 504.5335,-342.6245 502.0581,-349.1722"/>
</g>
<!-- Node35 -->
<g id="node14" class="node">
<title>Node35</title>
<g id="a_node14"><a xlink:href="../../dd/d1a/namespaceopenage_1_1log.xhtml#a3fbb0c225d01e222648ec28a43507188" target="_top" xlink:title="Returns a reference to a general named log source, for use by log::log(). ">
<polygon fill="#ffffff" stroke="#000000" points="497.5,-137.5 497.5,-167.5 607.5,-167.5 607.5,-137.5 497.5,-137.5"/>
<text text-anchor="start" x="505.5" y="-155.5" font-family="Helvetica,sans-Serif" font-size="10.00" fill="#000000">openage::log::general</text>
<text text-anchor="middle" x="552.5" y="-144.5" font-family="Helvetica,sans-Serif" font-size="10.00" fill="#000000">_source</text>
</a>
</g>
</g>
<!-- Node34&#45;&gt;Node35 -->
<g id="edge14" class="edge">
<title>Node34&#45;&gt;Node35</title>
<path fill="none" stroke="#191970" d="M434.1831,-152.5C450.5834,-152.5 469.4125,-152.5 487.1555,-152.5"/>
<polygon fill="#191970" stroke="#191970" points="487.4502,-156.0001 497.4502,-152.5 487.4502,-149.0001 487.4502,-156.0001"/>
</g>
<!-- Node36 -->
<g id="node15" class="node">
<title>Node36</title>
<g id="a_node15"><a xlink:href="../../de/de3/classopenage_1_1log_1_1_log_source.xhtml#a5640099e20af4cd368c767dbcef3a1df" target="_top" xlink:title="Logs a message (get one via MSG(level)). ">
<polygon fill="#ffffff" stroke="#000000" points="481,-99 481,-118 624,-118 624,-99 481,-99"/>
<text text-anchor="middle" x="552.5" y="-106" font-family="Helvetica,sans-Serif" font-size="10.00" fill="#000000">openage::log::LogSource::log</text>
</a>
</g>
</g>
<!-- Node34&#45;&gt;Node36 -->
<g id="edge15" class="edge">
<title>Node34&#45;&gt;Node36</title>
<path fill="none" stroke="#191970" d="M424.0856,-142.9527C448.4777,-136.4084 481.0399,-127.6722 507.2709,-120.6346"/>
<polygon fill="#191970" stroke="#191970" points="508.2324,-124.0005 516.9839,-118.0287 506.4185,-117.2396 508.2324,-124.0005"/>
</g>
<!-- Node37 -->
<g id="node16" class="node">
<title>Node37</title>
<g id="a_node16"><a xlink:href="../../dd/d1a/namespaceopenage_1_1log.xhtml#a3d2885be9c3a09b9ff7ee8764b2e5f39" target="_top" xlink:title="Returns a reference to the global stdout logsink object; Initializes the object if needed...">
<polygon fill="#ffffff" stroke="#000000" points="682,-142.5 682,-172.5 786,-172.5 786,-142.5 682,-142.5"/>
<text text-anchor="start" x="690" y="-160.5" font-family="Helvetica,sans-Serif" font-size="10.00" fill="#000000">openage::log::global</text>
<text text-anchor="middle" x="734" y="-149.5" font-family="Helvetica,sans-Serif" font-size="10.00" fill="#000000">_stdoutsink</text>
</a>
</g>
</g>
<!-- Node36&#45;&gt;Node37 -->
<g id="edge16" class="edge">
<title>Node36&#45;&gt;Node37</title>
<path fill="none" stroke="#191970" d="M587.9259,-118.064C611.8272,-124.5167 644.008,-133.2046 672.0812,-140.7836"/>
<polygon fill="#191970" stroke="#191970" points="671.2527,-144.1852 681.8194,-143.4127 673.0773,-137.4272 671.2527,-144.1852"/>
</g>
<!-- Node38 -->
<g id="node17" class="node">
<title>Node38</title>
<g id="a_node17"><a xlink:href="../../d0/d58/classopenage_1_1log_1_1_log_sink_list.xhtml#a2d47416fab12651553b4b58c86fd6f84" target="_top" xlink:title="openage::log::LogSinkList\l::instance">
<polygon fill="#ffffff" stroke="#000000" points="669.5,-93.5 669.5,-123.5 798.5,-123.5 798.5,-93.5 669.5,-93.5"/>
<text text-anchor="start" x="677.5" y="-111.5" font-family="Helvetica,sans-Serif" font-size="10.00" fill="#000000">openage::log::LogSinkList</text>
<text text-anchor="middle" x="734" y="-100.5" font-family="Helvetica,sans-Serif" font-size="10.00" fill="#000000">::instance</text>
</a>
</g>
</g>
<!-- Node36&#45;&gt;Node38 -->
<g id="edge17" class="edge">
<title>Node36&#45;&gt;Node38</title>
<path fill="none" stroke="#191970" d="M624.2336,-108.5C635.7292,-108.5 647.651,-108.5 659.2157,-108.5"/>
<polygon fill="#191970" stroke="#191970" points="659.267,-112.0001 669.267,-108.5 659.267,-105.0001 659.267,-112.0001"/>
</g>
<!-- Node39 -->
<g id="node18" class="node">
<title>Node39</title>
<g id="a_node18"><a xlink:href="../../d0/d58/classopenage_1_1log_1_1_log_sink_list.xhtml#a8456b84ab55e1fe151c51438c5bfebdd" target="_top" xlink:title="openage::log::LogSinkList::log">
<polygon fill="#ffffff" stroke="#000000" points="660,-55 660,-74 808,-74 808,-55 660,-55"/>
<text text-anchor="middle" x="734" y="-62" font-family="Helvetica,sans-Serif" font-size="10.00" fill="#000000">openage::log::LogSinkList::log</text>
</a>
</g>
</g>
<!-- Node36&#45;&gt;Node39 -->
<g id="edge18" class="edge">
<title>Node36&#45;&gt;Node39</title>
<path fill="none" stroke="#191970" d="M591.8828,-98.9527C619.1156,-92.3508 655.5503,-83.5181 684.7102,-76.449"/>
<polygon fill="#191970" stroke="#191970" points="685.8002,-79.7863 694.6941,-74.0287 684.1509,-72.9833 685.8002,-79.7863"/>
</g>
<!-- Node41 -->
<g id="node20" class="node">
<title>Node41</title>
<g id="a_node20"><a xlink:href="../../dd/dc1/classopenage_1_1util_1_1_path.xhtml#a919083912ceb465d8b3c28e4766161fe" target="_top" xlink:title="openage::util::Path\l::resolve_native_path_r">
<polygon fill="#ffffff" stroke="#000000" points="493.5,-49.5 493.5,-79.5 611.5,-79.5 611.5,-49.5 493.5,-49.5"/>
<text text-anchor="start" x="501.5" y="-67.5" font-family="Helvetica,sans-Serif" font-size="10.00" fill="#000000">openage::util::Path</text>
<text text-anchor="middle" x="552.5" y="-56.5" font-family="Helvetica,sans-Serif" font-size="10.00" fill="#000000">::resolve_native_path_r</text>
</a>
</g>
</g>
<!-- Node40&#45;&gt;Node41 -->
<g id="edge20" class="edge">
<title>Node40&#45;&gt;Node41</title>
<path fill="none" stroke="#191970" d="M443.5659,-64.5C456.3201,-64.5 470.0523,-64.5 483.3248,-64.5"/>
<polygon fill="#191970" stroke="#191970" points="483.3611,-68.0001 493.361,-64.5 483.361,-61.0001 483.3611,-68.0001"/>
</g>
<!-- Node42 -->
<g id="node21" class="node">
<title>Node42</title>
<g id="a_node21"><a xlink:href="../../dd/dc1/classopenage_1_1util_1_1_path.xhtml#a1175be01a6df63d066ca6f2d3e2c4d3c" target="_top" xlink:title="openage::util::Path\l::resolve_native_path_w">
<polygon fill="#ffffff" stroke="#000000" points="491.5,-.5 491.5,-30.5 613.5,-30.5 613.5,-.5 491.5,-.5"/>
<text text-anchor="start" x="499.5" y="-18.5" font-family="Helvetica,sans-Serif" font-size="10.00" fill="#000000">openage::util::Path</text>
<text text-anchor="middle" x="552.5" y="-7.5" font-family="Helvetica,sans-Serif" font-size="10.00" fill="#000000">::resolve_native_path_w</text>
</a>
</g>
</g>
<!-- Node40&#45;&gt;Node42 -->
<g id="edge21" class="edge">
<title>Node40&#45;&gt;Node42</title>
<path fill="none" stroke="#191970" d="M439.0436,-49.3986C455.9579,-44.3449 474.9769,-38.6624 492.5391,-33.4152"/>
<polygon fill="#191970" stroke="#191970" points="493.5438,-36.7679 502.1233,-30.5516 491.5398,-30.0609 493.5438,-36.7679"/>
</g>
</g>
</svg>
