<?xml version="1.0" encoding="UTF-8" standalone="no"?>
<!DOCTYPE svg PUBLIC "-//W3C//DTD SVG 1.1//EN"
 "http://www.w3.org/Graphics/SVG/1.1/DTD/svg11.dtd">
<!-- Generated by graphviz version 2.40.1 (20161225.0304)
 -->
<!-- Title: openage::renderer::resources::Texture2dData::get_info Pages: 1 -->
<svg width="278pt" height="50pt"
 viewBox="0.00 0.00 278.00 50.00" xmlns="http://www.w3.org/2000/svg" xmlns:xlink="http://www.w3.org/1999/xlink">
<g id="graph0" class="graph" transform="scale(1 1) rotate(0) translate(4 46)">
<title>openage::renderer::resources::Texture2dData::get_info</title>
<polygon fill="#ffffff" stroke="transparent" points="-4,4 -4,-46 274,-46 274,4 -4,4"/>
<!-- Node49 -->
<g id="node1" class="node">
<title>Node49</title>
<polygon fill="#bfbfbf" stroke="#000000" points="0,-.5 0,-41.5 130,-41.5 130,-.5 0,-.5"/>
<text text-anchor="start" x="8" y="-29.5" font-family="Helvetica,sans-Serif" font-size="10.00" fill="#000000">openage::renderer::</text>
<text text-anchor="start" x="8" y="-18.5" font-family="Helvetica,sans-Serif" font-size="10.00" fill="#000000">resources::Texture2dData</text>
<text text-anchor="middle" x="65" y="-7.5" font-family="Helvetica,sans-Serif" font-size="10.00" fill="#000000">::get_info</text>
</g>
<!-- Node50 -->
<g id="node2" class="node">
<title>Node50</title>
<g id="a_node2"><a xlink:href="../../d6/dae/classopenage_1_1renderer_1_1opengl_1_1_gl_texture2d.xhtml#aa521e75b491d72b51afade86d6c18ad4" target="_top" xlink:title="Uploads the provided data into the GPU texture storage. ">
<polygon fill="#ffffff" stroke="#000000" points="166,-.5 166,-41.5 270,-41.5 270,-.5 166,-.5"/>
<text text-anchor="start" x="174" y="-29.5" font-family="Helvetica,sans-Serif" font-size="10.00" fill="#000000">openage::renderer::</text>
<text text-anchor="start" x="174" y="-18.5" font-family="Helvetica,sans-Serif" font-size="10.00" fill="#000000">opengl::GlTexture2d</text>
<text text-anchor="middle" x="218" y="-7.5" font-family="Helvetica,sans-Serif" font-size="10.00" fill="#000000">::upload</text>
</a>
</g>
</g>
<!-- Node49&#45;&gt;Node50 -->
<g id="edge1" class="edge">
<title>Node49&#45;&gt;Node50</title>
<path fill="none" stroke="#191970" d="M140.3957,-21C149,-21 157.623,-21 165.8291,-21"/>
<polygon fill="#191970" stroke="#191970" points="140.3296,-17.5001 130.3296,-21 140.3295,-24.5001 140.3296,-17.5001"/>
</g>
</g>
</svg>
