<?xml version="1.0" encoding="UTF-8" standalone="no"?>
<!DOCTYPE svg PUBLIC "-//W3C//DTD SVG 1.1//EN"
 "http://www.w3.org/Graphics/SVG/1.1/DTD/svg11.dtd">
<!-- Generated by graphviz version 2.40.1 (20161225.0304)
 -->
<!-- Title: openage.convert.hdlanguagefile.read_age2_hd_fe_stringresources Pages: 1 -->
<svg width="528pt" height="66pt"
 viewBox="0.00 0.00 528.00 66.00" xmlns="http://www.w3.org/2000/svg" xmlns:xlink="http://www.w3.org/1999/xlink">
<g id="graph0" class="graph" transform="scale(1 1) rotate(0) translate(4 62)">
<title>openage.convert.hdlanguagefile.read_age2_hd_fe_stringresources</title>
<polygon fill="#ffffff" stroke="transparent" points="-4,4 -4,-62 524,-62 524,4 -4,4"/>
<!-- Node11 -->
<g id="node1" class="node">
<title>Node11</title>
<polygon fill="#bfbfbf" stroke="#000000" points="0,-14 0,-44 176,-44 176,-14 0,-14"/>
<text text-anchor="start" x="8" y="-32" font-family="Helvetica,sans-Serif" font-size="10.00" fill="#000000">openage.convert.hdlanguagefile.read</text>
<text text-anchor="middle" x="88" y="-21" font-family="Helvetica,sans-Serif" font-size="10.00" fill="#000000">_age2_hd_fe_stringresources</text>
</g>
<!-- Node12 -->
<g id="node2" class="node">
<title>Node12</title>
<g id="a_node2"><a xlink:href="../../d0/d98/namespaceopenage_1_1convert_1_1hdlanguagefile.xhtml#acc46a3a14127905594fced841fdfb09b" target="_top" xlink:title="Takes a file object, and the file&#39;s language code. ">
<polygon fill="#ffffff" stroke="#000000" points="212,-14 212,-44 388,-44 388,-14 212,-14"/>
<text text-anchor="start" x="220" y="-32" font-family="Helvetica,sans-Serif" font-size="10.00" fill="#000000">openage.convert.hdlanguagefile.read</text>
<text text-anchor="middle" x="300" y="-21" font-family="Helvetica,sans-Serif" font-size="10.00" fill="#000000">_hd_language_file</text>
</a>
</g>
</g>
<!-- Node11&#45;&gt;Node12 -->
<g id="edge1" class="edge">
<title>Node11&#45;&gt;Node12</title>
<path fill="none" stroke="#191970" d="M176.0653,-29C184.5691,-29 193.2315,-29 201.825,-29"/>
<polygon fill="#191970" stroke="#191970" points="201.8676,-32.5001 211.8676,-29 201.8676,-25.5001 201.8676,-32.5001"/>
</g>
<!-- Node13 -->
<g id="node3" class="node">
<title>Node13</title>
<g id="a_node3"><a xlink:href="../../dd/d1a/namespaceopenage_1_1log.xhtml#a5cb08687f485da2549d7eebef26368a6" target="_top" xlink:title="debug message ">
<polygon fill="#ffffff" stroke="#000000" points="428,-38.5 428,-57.5 516,-57.5 516,-38.5 428,-38.5"/>
<text text-anchor="middle" x="472" y="-45.5" font-family="Helvetica,sans-Serif" font-size="10.00" fill="#000000">openage.log.dbg</text>
</a>
</g>
</g>
<!-- Node12&#45;&gt;Node13 -->
<g id="edge2" class="edge">
<title>Node12&#45;&gt;Node13</title>
<path fill="none" stroke="#191970" d="M388.0155,-38.7226C398.0912,-39.8357 408.1301,-40.9446 417.5785,-41.9883"/>
<polygon fill="#191970" stroke="#191970" points="417.2491,-45.4731 427.573,-43.0924 418.0177,-38.5155 417.2491,-45.4731"/>
</g>
<!-- Node14 -->
<g id="node4" class="node">
<title>Node14</title>
<g id="a_node4"><a xlink:href="../../de/d60/namespaceopenage_1_1util.xhtml#a9556b8562574e2c6ad102d8fd87569c6" target="_top" xlink:title="Split a string at a delimiter into a vector. ">
<polygon fill="#ffffff" stroke="#000000" points="424,-.5 424,-19.5 520,-19.5 520,-.5 424,-.5"/>
<text text-anchor="middle" x="472" y="-7.5" font-family="Helvetica,sans-Serif" font-size="10.00" fill="#000000">openage::util::split</text>
</a>
</g>
</g>
<!-- Node12&#45;&gt;Node14 -->
<g id="edge3" class="edge">
<title>Node12&#45;&gt;Node14</title>
<path fill="none" stroke="#191970" d="M388.0155,-19.2774C396.6164,-18.3273 405.1905,-17.3801 413.3933,-16.474"/>
<polygon fill="#191970" stroke="#191970" points="414.0038,-19.9279 423.5591,-15.351 413.2352,-12.9703 414.0038,-19.9279"/>
</g>
</g>
</svg>
