<?xml version="1.0" encoding="UTF-8" standalone="no"?>
<!DOCTYPE svg PUBLIC "-//W3C//DTD SVG 1.1//EN"
 "http://www.w3.org/Graphics/SVG/1.1/DTD/svg11.dtd">
<!-- Generated by graphviz version 2.40.1 (20161225.0304)
 -->
<!-- Title: /mnt/c/Users/Jameson/Desktop/git/openage&#45;new&#45;doc&#45;system/libopenage/error/stackanalyzer.cpp Pages: 1 -->
<!--zoomable 453 -->
<svg id="main" version="1.1" xmlns="http://www.w3.org/2000/svg" xmlns:xlink="http://www.w3.org/1999/xlink" xml:space="preserve" onload="init(evt)">
<style type="text/css"><![CDATA[
.edge:hover path { stroke: red; }
.edge:hover polygon { stroke: red; fill: red; }
]]></style>
<script type="text/javascript"><![CDATA[
var edges = document.getElementsByTagName('g');
if (edges && edges.length) {
  for (var i=0;i<edges.length;i++) {
    if (edges[i].id.substr(0,4)=='edge') {
      edges[i].setAttribute('class','edge');
    }
  }
}
]]></script>
        <defs>
                <circle id="rim" cx="0" cy="0" r="7"/>
                <circle id="rim2" cx="0" cy="0" r="3.5"/>
                <g id="zoomPlus">
                        <use xlink:href="#rim" fill="#404040">
                                <set attributeName="fill" to="#808080" begin="zoomplus.mouseover" end="zoomplus.mouseout"/>
                        </use>
                        <path d="M-4,0h8M0,-4v8" fill="none" stroke="white" stroke-width="1.5" pointer-events="none"/>
                </g>
                <g id="zoomMin">
                        <use xlink:href="#rim" fill="#404040">
                                <set attributeName="fill" to="#808080" begin="zoomminus.mouseover" end="zoomminus.mouseout"/>
                        </use>
                        <path d="M-4,0h8" fill="none" stroke="white" stroke-width="1.5" pointer-events="none"/>
                </g>
                <g id="dirArrow">
                        <path fill="none" stroke="white" stroke-width="1.5" d="M0,-3.0v7 M-2.5,-0.5L0,-3.0L2.5,-0.5"/>
                </g>
               <g id="resetDef">
                       <use xlink:href="#rim2" fill="#404040">
                               <set attributeName="fill" to="#808080" begin="reset.mouseover" end="reset.mouseout"/>
                       </use>
               </g>
        </defs>

<script type="text/javascript">
var viewWidth = 880;
var viewHeight = 453;
var sectionId = 'dynsection-0';
</script>
<script xlink:href="../../svgpan.js"/>
<svg id="graph" class="graph">
<g id="viewport">
<title>/mnt/c/Users/Jameson/Desktop/git/openage&#45;new&#45;doc&#45;system/libopenage/error/stackanalyzer.cpp</title>
<polygon fill="#ffffff" stroke="transparent" points="-4,4 -4,-449.4516 876,-449.4516 876,4 -4,4"/>
<!-- Node0 -->
<g id="node1" class="node">
<title>Node0</title>
<polygon fill="#bfbfbf" stroke="#000000" points="106.5,-392.9516 106.5,-444.9516 247.5,-444.9516 247.5,-392.9516 106.5,-392.9516"/>
<text text-anchor="start" x="114.5" y="-432.9516" font-family="Helvetica,sans-Serif" font-size="10.00" fill="#000000">/mnt/c/Users/Jameson</text>
<text text-anchor="start" x="114.5" y="-421.9516" font-family="Helvetica,sans-Serif" font-size="10.00" fill="#000000">/Desktop/git/openage</text>
<text text-anchor="start" x="114.5" y="-410.9516" font-family="Helvetica,sans-Serif" font-size="10.00" fill="#000000">&#45;new&#45;doc&#45;system/libopenage</text>
<text text-anchor="middle" x="177" y="-399.9516" font-family="Helvetica,sans-Serif" font-size="10.00" fill="#000000">/error/stackanalyzer.cpp</text>
</g>
<!-- Node1 -->
<g id="node2" class="node">
<title>Node1</title>
<g id="a_node2"><a xlink:href="../../de/d3f/stackanalyzer_8h.xhtml" target="_top" xlink:title="stackanalyzer.h">
<polygon fill="#ffffff" stroke="#000000" points="368,-280.9516 368,-299.9516 454,-299.9516 454,-280.9516 368,-280.9516"/>
<text text-anchor="middle" x="411" y="-287.9516" font-family="Helvetica,sans-Serif" font-size="10.00" fill="#000000">stackanalyzer.h</text>
</a>
</g>
</g>
<!-- Node0&#45;&gt;Node1 -->
<g id="edge1" class="edge">
<title>Node0&#45;&gt;Node1</title>
<path fill="none" stroke="#191970" d="M184.2356,-392.8437C190.6746,-374.4128 201.9282,-350.574 220,-336.4516 241.2014,-319.8837 308.8201,-306.265 357.5872,-298.2535"/>
<polygon fill="#191970" stroke="#191970" points="358.3664,-301.6732 367.6839,-296.63 357.2551,-294.762 358.3664,-301.6732"/>
</g>
<!-- Node7 -->
<g id="node8" class="node">
<title>Node7</title>
<polygon fill="#ffffff" stroke="#bfbfbf" points="66.5,-224.9516 66.5,-243.9516 117.5,-243.9516 117.5,-224.9516 66.5,-224.9516"/>
<text text-anchor="middle" x="92" y="-231.9516" font-family="Helvetica,sans-Serif" font-size="10.00" fill="#000000">config.h</text>
</g>
<!-- Node0&#45;&gt;Node7 -->
<g id="edge7" class="edge">
<title>Node0&#45;&gt;Node7</title>
<path fill="none" stroke="#191970" d="M165.0019,-392.9086C147.6665,-355.2807 116.0213,-286.5921 100.7306,-253.4021"/>
<polygon fill="#191970" stroke="#191970" points="103.9074,-251.933 96.5441,-244.3151 97.5497,-254.8621 103.9074,-251.933"/>
</g>
<!-- Node8 -->
<g id="node9" class="node">
<title>Node8</title>
<g id="a_node9"><a xlink:href="../../d7/d7f/log_8h.xhtml" target="_top" xlink:title="../log/log.h">
<polygon fill="#ffffff" stroke="#000000" points="68,-336.9516 68,-355.9516 130,-355.9516 130,-336.9516 68,-336.9516"/>
<text text-anchor="middle" x="99" y="-343.9516" font-family="Helvetica,sans-Serif" font-size="10.00" fill="#000000">../log/log.h</text>
</a>
</g>
</g>
<!-- Node0&#45;&gt;Node8 -->
<g id="edge8" class="edge">
<title>Node0&#45;&gt;Node8</title>
<path fill="none" stroke="#191970" d="M148.8402,-392.7775C138.0673,-382.7642 126.0957,-371.6367 116.586,-362.7976"/>
<polygon fill="#191970" stroke="#191970" points="118.9647,-360.2302 109.2573,-355.9856 114.199,-365.3574 118.9647,-360.2302"/>
</g>
<!-- Node12 -->
<g id="node13" class="node">
<title>Node12</title>
<g id="a_node13"><a xlink:href="../../d4/dd1/compiler_8h.xhtml" target="_top" xlink:title="compiler.h">
<polygon fill="#ffffff" stroke="#000000" points="84,-56.9516 84,-75.9516 146,-75.9516 146,-56.9516 84,-56.9516"/>
<text text-anchor="middle" x="115" y="-63.9516" font-family="Helvetica,sans-Serif" font-size="10.00" fill="#000000">compiler.h</text>
</a>
</g>
</g>
<!-- Node0&#45;&gt;Node12 -->
<g id="edge45" class="edge">
<title>Node0&#45;&gt;Node12</title>
<path fill="none" stroke="#191970" d="M106.2818,-398.5798C56.9804,-379.5419 0,-345.6079 0,-290.4516 0,-290.4516 0,-290.4516 0,-178.4516 0,-131.7063 49.3676,-98.1361 83.4117,-80.5433"/>
<polygon fill="#191970" stroke="#191970" points="85.1515,-83.5873 92.5538,-76.0073 82.0402,-77.3167 85.1515,-83.5873"/>
</g>
<!-- Node31 -->
<g id="node32" class="node">
<title>Node31</title>
<g id="a_node32"><a xlink:href="../../d8/dc0/init_8h.xhtml" target="_top" xlink:title="../util/init.h">
<polygon fill="#ffffff" stroke="#000000" points="577,-280.9516 577,-299.9516 639,-299.9516 639,-280.9516 577,-280.9516"/>
<text text-anchor="middle" x="608" y="-287.9516" font-family="Helvetica,sans-Serif" font-size="10.00" fill="#000000">../util/init.h</text>
</a>
</g>
</g>
<!-- Node0&#45;&gt;Node31 -->
<g id="edge46" class="edge">
<title>Node0&#45;&gt;Node31</title>
<path fill="none" stroke="#191970" d="M193.6115,-392.7976C207.1618,-373.8342 228.0956,-349.342 253,-336.4516 280.4132,-322.2628 479.0881,-302.3919 566.6922,-294.2041"/>
<polygon fill="#191970" stroke="#191970" points="567.1727,-297.6746 576.8061,-293.2646 566.5252,-290.7046 567.1727,-297.6746"/>
</g>
<!-- Node32 -->
<g id="node33" class="node">
<title>Node32</title>
<polygon fill="#ffffff" stroke="#bfbfbf" points="262,-336.9516 262,-355.9516 324,-355.9516 324,-336.9516 262,-336.9516"/>
<text text-anchor="middle" x="293" y="-343.9516" font-family="Helvetica,sans-Serif" font-size="10.00" fill="#000000">execinfo.h</text>
</g>
<!-- Node0&#45;&gt;Node32 -->
<g id="edge48" class="edge">
<title>Node0&#45;&gt;Node32</title>
<path fill="none" stroke="#191970" d="M218.8787,-392.7775C235.7009,-382.2635 254.4887,-370.5212 268.9397,-361.4893"/>
<polygon fill="#191970" stroke="#191970" points="271.1206,-364.2537 277.7456,-355.9856 267.4106,-358.3177 271.1206,-364.2537"/>
</g>
<!-- Node2 -->
<g id="node3" class="node">
<title>Node2</title>
<g id="a_node3"><a xlink:href="../../d3/dda/backtrace_8h.xhtml" target="_top" xlink:title="backtrace.h">
<polygon fill="#ffffff" stroke="#000000" points="451,-112.9516 451,-131.9516 519,-131.9516 519,-112.9516 451,-112.9516"/>
<text text-anchor="middle" x="485" y="-119.9516" font-family="Helvetica,sans-Serif" font-size="10.00" fill="#000000">backtrace.h</text>
</a>
</g>
</g>
<!-- Node1&#45;&gt;Node2 -->
<g id="edge2" class="edge">
<title>Node1&#45;&gt;Node2</title>
<path fill="none" stroke="#191970" d="M421.6661,-280.8579C430.7039,-272.1774 443.3759,-258.6166 451,-244.4516 468.9836,-211.0397 478.1717,-167.2354 482.2504,-142.2326"/>
<polygon fill="#191970" stroke="#191970" points="485.737,-142.5849 483.7782,-132.1727 478.8163,-141.5338 485.737,-142.5849"/>
</g>
<!-- Node3 -->
<g id="node4" class="node">
<title>Node3</title>
<polygon fill="#ffffff" stroke="#bfbfbf" points="436,-56.9516 436,-75.9516 480,-75.9516 480,-56.9516 436,-56.9516"/>
<text text-anchor="middle" x="458" y="-63.9516" font-family="Helvetica,sans-Serif" font-size="10.00" fill="#000000">vector</text>
</g>
<!-- Node2&#45;&gt;Node3 -->
<g id="edge3" class="edge">
<title>Node2&#45;&gt;Node3</title>
<path fill="none" stroke="#191970" d="M480.297,-112.6972C476.6576,-105.149 471.5076,-94.4674 467.0738,-85.2714"/>
<polygon fill="#191970" stroke="#191970" points="470.1449,-83.5819 462.6491,-76.0943 463.8395,-86.6221 470.1449,-83.5819"/>
</g>
<!-- Node4 -->
<g id="node5" class="node">
<title>Node4</title>
<polygon fill="#ffffff" stroke="#bfbfbf" points="349.5,-.9516 349.5,-19.9516 390.5,-19.9516 390.5,-.9516 349.5,-.9516"/>
<text text-anchor="middle" x="370" y="-7.9516" font-family="Helvetica,sans-Serif" font-size="10.00" fill="#000000">string</text>
</g>
<!-- Node2&#45;&gt;Node4 -->
<g id="edge4" class="edge">
<title>Node2&#45;&gt;Node4</title>
<path fill="none" stroke="#191970" d="M471.5176,-112.8874C459.372,-104.0146 441.2847,-90.1509 427,-76.4516 411.2238,-61.3221 395.1129,-42.2659 384.0624,-28.5241"/>
<polygon fill="#191970" stroke="#191970" points="386.5414,-26.0171 377.5859,-20.3558 381.0563,-30.3662 386.5414,-26.0171"/>
</g>
<!-- Node5 -->
<g id="node6" class="node">
<title>Node5</title>
<polygon fill="#ffffff" stroke="#bfbfbf" points="288,-56.9516 288,-75.9516 342,-75.9516 342,-56.9516 288,-56.9516"/>
<text text-anchor="middle" x="315" y="-63.9516" font-family="Helvetica,sans-Serif" font-size="10.00" fill="#000000">iostream</text>
</g>
<!-- Node2&#45;&gt;Node5 -->
<g id="edge5" class="edge">
<title>Node2&#45;&gt;Node5</title>
<path fill="none" stroke="#191970" d="M455.776,-112.8249C426.9936,-103.3436 382.9348,-88.8302 351.7847,-78.5689"/>
<polygon fill="#191970" stroke="#191970" points="352.7533,-75.2031 342.1603,-75.3985 350.5632,-81.8516 352.7533,-75.2031"/>
</g>
<!-- Node6 -->
<g id="node7" class="node">
<title>Node6</title>
<polygon fill="#ffffff" stroke="#bfbfbf" points="742.5,-56.9516 742.5,-75.9516 801.5,-75.9516 801.5,-56.9516 742.5,-56.9516"/>
<text text-anchor="middle" x="772" y="-63.9516" font-family="Helvetica,sans-Serif" font-size="10.00" fill="#000000">functional</text>
</g>
<!-- Node2&#45;&gt;Node6 -->
<g id="edge6" class="edge">
<title>Node2&#45;&gt;Node6</title>
<path fill="none" stroke="#191970" d="M519.2306,-114.3133C522.1922,-113.6631 525.1462,-113.0336 528,-112.4516 615.5418,-94.5996 640.8598,-95.8423 732.2851,-76.469"/>
<polygon fill="#191970" stroke="#191970" points="733.2018,-79.852 742.2456,-74.3329 731.734,-73.0077 733.2018,-79.852"/>
</g>
<!-- Node9 -->
<g id="node10" class="node">
<title>Node9</title>
<g id="a_node10"><a xlink:href="../../de/d09/level_8h.xhtml" target="_top" xlink:title="level.h">
<polygon fill="#ffffff" stroke="#000000" points="75.5,-168.9516 75.5,-187.9516 120.5,-187.9516 120.5,-168.9516 75.5,-168.9516"/>
<text text-anchor="middle" x="98" y="-175.9516" font-family="Helvetica,sans-Serif" font-size="10.00" fill="#000000">level.h</text>
</a>
</g>
</g>
<!-- Node8&#45;&gt;Node9 -->
<g id="edge9" class="edge">
<title>Node8&#45;&gt;Node9</title>
<path fill="none" stroke="#191970" d="M91.0777,-336.8848C74.9697,-316.2135 41.2098,-265.8988 57,-224.4516 61.2275,-213.355 69.4971,-203.233 77.5088,-195.3268"/>
<polygon fill="#191970" stroke="#191970" points="80.2703,-197.5432 85.2752,-188.205 75.5393,-192.384 80.2703,-197.5432"/>
</g>
<!-- Node15 -->
<g id="node16" class="node">
<title>Node15</title>
<g id="a_node16"><a xlink:href="../../d2/d0d/message_8h.xhtml" target="_top" xlink:title="message.h">
<polygon fill="#ffffff" stroke="#000000" points="197.5,-280.9516 197.5,-299.9516 262.5,-299.9516 262.5,-280.9516 197.5,-280.9516"/>
<text text-anchor="middle" x="230" y="-287.9516" font-family="Helvetica,sans-Serif" font-size="10.00" fill="#000000">message.h</text>
</a>
</g>
</g>
<!-- Node8&#45;&gt;Node15 -->
<g id="edge18" class="edge">
<title>Node8&#45;&gt;Node15</title>
<path fill="none" stroke="#191970" d="M121.5197,-336.8249C142.7372,-327.7548 174.7276,-314.0795 198.4769,-303.9272"/>
<polygon fill="#191970" stroke="#191970" points="199.9548,-307.1018 207.7742,-299.9528 197.2033,-300.6653 199.9548,-307.1018"/>
</g>
<!-- Node10 -->
<g id="node11" class="node">
<title>Node10</title>
<g id="a_node11"><a xlink:href="../../d0/d9b/enum_8h.xhtml" target="_top" xlink:title="../util/enum.h">
<polygon fill="#ffffff" stroke="#000000" points="143,-112.9516 143,-131.9516 217,-131.9516 217,-112.9516 143,-112.9516"/>
<text text-anchor="middle" x="180" y="-119.9516" font-family="Helvetica,sans-Serif" font-size="10.00" fill="#000000">../util/enum.h</text>
</a>
</g>
</g>
<!-- Node9&#45;&gt;Node10 -->
<g id="edge10" class="edge">
<title>Node9&#45;&gt;Node10</title>
<path fill="none" stroke="#191970" d="M112.2833,-168.6972C124.747,-160.1854 143.0451,-147.6891 157.4792,-137.8317"/>
<polygon fill="#191970" stroke="#191970" points="159.5962,-140.6243 165.8804,-132.0943 155.6485,-134.8437 159.5962,-140.6243"/>
</g>
<!-- Node10&#45;&gt;Node5 -->
<g id="edge11" class="edge">
<title>Node10&#45;&gt;Node5</title>
<path fill="none" stroke="#191970" d="M203.2073,-112.8249C225.1699,-103.7145 258.3332,-89.9579 282.8401,-79.792"/>
<polygon fill="#191970" stroke="#191970" points="284.1997,-83.0173 292.0955,-75.9528 281.5176,-76.5515 284.1997,-83.0173"/>
</g>
<!-- Node11 -->
<g id="node12" class="node">
<title>Node11</title>
<polygon fill="#ffffff" stroke="#bfbfbf" points="164.5,-56.9516 164.5,-75.9516 215.5,-75.9516 215.5,-56.9516 164.5,-56.9516"/>
<text text-anchor="middle" x="190" y="-63.9516" font-family="Helvetica,sans-Serif" font-size="10.00" fill="#000000">typeinfo</text>
</g>
<!-- Node10&#45;&gt;Node11 -->
<g id="edge12" class="edge">
<title>Node10&#45;&gt;Node11</title>
<path fill="none" stroke="#191970" d="M181.7419,-112.6972C183.0467,-105.3899 184.876,-95.146 186.4813,-86.1562"/>
<polygon fill="#191970" stroke="#191970" points="189.9656,-86.5539 188.2781,-76.0943 183.0746,-85.3233 189.9656,-86.5539"/>
</g>
<!-- Node10&#45;&gt;Node12 -->
<g id="edge13" class="edge">
<title>Node10&#45;&gt;Node12</title>
<path fill="none" stroke="#191970" d="M168.6779,-112.6972C159.0777,-104.4263 145.1108,-92.3933 133.8305,-82.6749"/>
<polygon fill="#191970" stroke="#191970" points="136.053,-79.9698 126.1924,-76.0943 131.484,-85.2731 136.053,-79.9698"/>
</g>
<!-- Node12&#45;&gt;Node4 -->
<g id="edge15" class="edge">
<title>Node12&#45;&gt;Node4</title>
<path fill="none" stroke="#191970" d="M146.4184,-58.4892C149.3166,-57.7873 152.2108,-57.0985 155,-56.4516 220.6449,-41.2282 297.9962,-25.1255 339.6904,-16.5959"/>
<polygon fill="#191970" stroke="#191970" points="340.3952,-20.0243 349.4936,-14.5956 338.9957,-13.1656 340.3952,-20.0243"/>
</g>
<!-- Node13 -->
<g id="node14" class="node">
<title>Node13</title>
<polygon fill="#ffffff" stroke="#bfbfbf" points="56,-.9516 56,-19.9516 106,-19.9516 106,-.9516 56,-.9516"/>
<text text-anchor="middle" x="81" y="-7.9516" font-family="Helvetica,sans-Serif" font-size="10.00" fill="#000000">ciso646</text>
</g>
<!-- Node12&#45;&gt;Node13 -->
<g id="edge14" class="edge">
<title>Node12&#45;&gt;Node13</title>
<path fill="none" stroke="#191970" d="M109.0777,-56.6972C104.3973,-48.9884 97.7327,-38.0114 92.0711,-28.6864"/>
<polygon fill="#191970" stroke="#191970" points="95.0361,-26.8258 86.8545,-20.0943 89.0525,-30.4586 95.0361,-26.8258"/>
</g>
<!-- Node14 -->
<g id="node15" class="node">
<title>Node14</title>
<g id="a_node15"><a xlink:href="../../d8/d39/signal_8h.xhtml" target="_top" xlink:title="signal.h">
<polygon fill="#ffffff" stroke="#000000" points="124,-.9516 124,-19.9516 174,-19.9516 174,-.9516 124,-.9516"/>
<text text-anchor="middle" x="149" y="-7.9516" font-family="Helvetica,sans-Serif" font-size="10.00" fill="#000000">signal.h</text>
</a>
</g>
</g>
<!-- Node12&#45;&gt;Node14 -->
<g id="edge16" class="edge">
<title>Node12&#45;&gt;Node14</title>
<path fill="none" stroke="#191970" d="M120.9223,-56.6972C125.6027,-48.9884 132.2673,-38.0114 137.9289,-28.6864"/>
<polygon fill="#191970" stroke="#191970" points="140.9475,-30.4586 143.1455,-20.0943 134.9639,-26.8258 140.9475,-30.4586"/>
</g>
<!-- Node14&#45;&gt;Node14 -->
<g id="edge17" class="edge">
<title>Node14&#45;&gt;Node14</title>
<path fill="none" stroke="#191970" d="M167.5634,-20.0262C179.9465,-22.7213 192,-19.5298 192,-10.4516 192,-3.9267 185.7731,-.4429 177.6726,0"/>
<polygon fill="#191970" stroke="#191970" points="177.2234,3.4743 167.5634,-.877 177.8285,-3.4995 177.2234,3.4743"/>
</g>
<!-- Node15&#45;&gt;Node4 -->
<g id="edge20" class="edge">
<title>Node15&#45;&gt;Node4</title>
<path fill="none" stroke="#191970" d="M231.8783,-280.9401C233.7107,-271.6403 236.5693,-257.0771 239,-244.4516 255.1497,-160.5662 225.1363,-122.7561 279,-56.4516 294.3734,-37.5276 319.545,-25.6512 339.522,-18.7168"/>
<polygon fill="#191970" stroke="#191970" points="340.6889,-22.018 349.1301,-15.6152 338.5384,-15.3565 340.6889,-22.018"/>
</g>
<!-- Node15&#45;&gt;Node7 -->
<g id="edge21" class="edge">
<title>Node15&#45;&gt;Node7</title>
<path fill="none" stroke="#191970" d="M206.277,-280.8249C183.8263,-271.7145 149.9261,-257.9579 124.8745,-247.792"/>
<polygon fill="#191970" stroke="#191970" points="125.9957,-244.4698 115.4135,-243.9528 123.3635,-250.9561 125.9957,-244.4698"/>
</g>
<!-- Node15&#45;&gt;Node9 -->
<g id="edge44" class="edge">
<title>Node15&#45;&gt;Node9</title>
<path fill="none" stroke="#191970" d="M215.0417,-280.8709C201.5321,-271.9869 181.3263,-258.1161 165,-244.4516 146.5785,-229.0336 127.2016,-209.5382 114.0519,-195.7445"/>
<polygon fill="#191970" stroke="#191970" points="116.4908,-193.2293 107.0834,-188.3557 111.3984,-198.0321 116.4908,-193.2293"/>
</g>
<!-- Node16 -->
<g id="node17" class="node">
<title>Node16</title>
<polygon fill="#ffffff" stroke="#bfbfbf" points="286,-224.9516 286,-243.9516 332,-243.9516 332,-224.9516 286,-224.9516"/>
<text text-anchor="middle" x="309" y="-231.9516" font-family="Helvetica,sans-Serif" font-size="10.00" fill="#000000">cstdint</text>
</g>
<!-- Node15&#45;&gt;Node16 -->
<g id="edge19" class="edge">
<title>Node15&#45;&gt;Node16</title>
<path fill="none" stroke="#191970" d="M243.7607,-280.6972C255.6552,-272.2657 273.065,-259.9245 286.9085,-250.1114"/>
<polygon fill="#191970" stroke="#191970" points="289.2628,-252.7328 295.3969,-244.0943 285.2146,-247.022 289.2628,-252.7328"/>
</g>
<!-- Node17 -->
<g id="node18" class="node">
<title>Node17</title>
<g id="a_node18"><a xlink:href="../../d1/d06/constexpr_8h.xhtml" target="_top" xlink:title="../util/constexpr.h">
<polygon fill="#ffffff" stroke="#000000" points="350,-224.9516 350,-243.9516 442,-243.9516 442,-224.9516 350,-224.9516"/>
<text text-anchor="middle" x="396" y="-231.9516" font-family="Helvetica,sans-Serif" font-size="10.00" fill="#000000">../util/constexpr.h</text>
</a>
</g>
</g>
<!-- Node15&#45;&gt;Node17 -->
<g id="edge22" class="edge">
<title>Node15&#45;&gt;Node17</title>
<path fill="none" stroke="#191970" d="M258.5364,-280.8249C286.0202,-271.5533 327.7686,-257.4695 358.0452,-247.2557"/>
<polygon fill="#191970" stroke="#191970" points="359.4794,-250.4657 367.836,-243.9528 357.2418,-243.8329 359.4794,-250.4657"/>
</g>
<!-- Node19 -->
<g id="node20" class="node">
<title>Node19</title>
<g id="a_node20"><a xlink:href="../../de/d65/stringformatter_8h.xhtml" target="_top" xlink:title="../util/stringformatter.h">
<polygon fill="#ffffff" stroke="#000000" points="498.5,-168.9516 498.5,-187.9516 611.5,-187.9516 611.5,-168.9516 498.5,-168.9516"/>
<text text-anchor="middle" x="555" y="-175.9516" font-family="Helvetica,sans-Serif" font-size="10.00" fill="#000000">../util/stringformatter.h</text>
</a>
</g>
</g>
<!-- Node15&#45;&gt;Node19 -->
<g id="edge24" class="edge">
<title>Node15&#45;&gt;Node19</title>
<path fill="none" stroke="#191970" d="M262.5317,-287.3784C306.5949,-282.3979 387.0831,-270.3782 451,-244.4516 482.4166,-231.7082 514.8075,-209.436 534.917,-194.3247"/>
<polygon fill="#191970" stroke="#191970" points="537.182,-196.9986 542.9947,-188.1406 532.9268,-191.4404 537.182,-196.9986"/>
</g>
<!-- Node28 -->
<g id="node29" class="node">
<title>Node28</title>
<g id="a_node29"><a xlink:href="../../d3/d4e/logsink_8h.xhtml" target="_top" xlink:title="logsink.h">
<polygon fill="#ffffff" stroke="#000000" points="174,-224.9516 174,-243.9516 230,-243.9516 230,-224.9516 174,-224.9516"/>
<text text-anchor="middle" x="202" y="-231.9516" font-family="Helvetica,sans-Serif" font-size="10.00" fill="#000000">logsink.h</text>
</a>
</g>
</g>
<!-- Node15&#45;&gt;Node28 -->
<g id="edge40" class="edge">
<title>Node15&#45;&gt;Node28</title>
<path fill="none" stroke="#191970" d="M225.1228,-280.6972C221.3487,-273.149 216.0079,-262.4674 211.4099,-253.2714"/>
<polygon fill="#191970" stroke="#191970" points="214.424,-251.4733 206.8213,-244.0943 208.163,-254.6039 214.424,-251.4733"/>
</g>
<!-- Node18 -->
<g id="node19" class="node">
<title>Node18</title>
<polygon fill="#ffffff" stroke="#bfbfbf" points="373.5,-168.9516 373.5,-187.9516 418.5,-187.9516 418.5,-168.9516 373.5,-168.9516"/>
<text text-anchor="middle" x="396" y="-175.9516" font-family="Helvetica,sans-Serif" font-size="10.00" fill="#000000">cstdlib</text>
</g>
<!-- Node17&#45;&gt;Node18 -->
<g id="edge23" class="edge">
<title>Node17&#45;&gt;Node18</title>
<path fill="none" stroke="#191970" d="M396,-224.6972C396,-217.3899 396,-207.146 396,-198.1562"/>
<polygon fill="#191970" stroke="#191970" points="399.5001,-198.0943 396,-188.0943 392.5001,-198.0943 399.5001,-198.0943"/>
</g>
<!-- Node19&#45;&gt;Node12 -->
<g id="edge28" class="edge">
<title>Node19&#45;&gt;Node12</title>
<path fill="none" stroke="#191970" d="M498.3056,-173.9322C386.6321,-164.8005 147.7639,-144.0369 134,-132.4516 120.7698,-121.3156 116.432,-101.6143 115.1574,-86.6269"/>
<polygon fill="#191970" stroke="#191970" points="118.6385,-86.1335 114.6831,-76.3047 111.6458,-86.4548 118.6385,-86.1335"/>
</g>
<!-- Node20 -->
<g id="node21" class="node">
<title>Node20</title>
<polygon fill="#ffffff" stroke="#bfbfbf" points="273,-112.9516 273,-131.9516 319,-131.9516 319,-112.9516 273,-112.9516"/>
<text text-anchor="middle" x="296" y="-119.9516" font-family="Helvetica,sans-Serif" font-size="10.00" fill="#000000">atomic</text>
</g>
<!-- Node19&#45;&gt;Node20 -->
<g id="edge25" class="edge">
<title>Node19&#45;&gt;Node20</title>
<path fill="none" stroke="#191970" d="M499.5944,-168.8725C455.6636,-160.9032 392.5598,-148.6281 329.1107,-132.5551"/>
<polygon fill="#191970" stroke="#191970" points="329.8951,-129.1431 319.3391,-130.0498 328.1566,-135.9238 329.8951,-129.1431"/>
</g>
<!-- Node21 -->
<g id="node22" class="node">
<title>Node21</title>
<polygon fill="#ffffff" stroke="#bfbfbf" points="820,-56.9516 820,-75.9516 872,-75.9516 872,-56.9516 820,-56.9516"/>
<text text-anchor="middle" x="846" y="-63.9516" font-family="Helvetica,sans-Serif" font-size="10.00" fill="#000000">memory</text>
</g>
<!-- Node19&#45;&gt;Node21 -->
<g id="edge26" class="edge">
<title>Node19&#45;&gt;Node21</title>
<path fill="none" stroke="#191970" d="M581.897,-168.7806C607.262,-159.6067 646.3094,-145.3458 680,-132.4516 726.3981,-114.694 779.7265,-93.3177 813.1453,-79.8042"/>
<polygon fill="#191970" stroke="#191970" points="814.4786,-83.0405 822.434,-76.0433 811.8514,-76.5522 814.4786,-83.0405"/>
</g>
<!-- Node22 -->
<g id="node23" class="node">
<title>Node22</title>
<polygon fill="#ffffff" stroke="#bfbfbf" points="537,-112.9516 537,-131.9516 599,-131.9516 599,-112.9516 537,-112.9516"/>
<text text-anchor="middle" x="568" y="-119.9516" font-family="Helvetica,sans-Serif" font-size="10.00" fill="#000000">type_traits</text>
</g>
<!-- Node19&#45;&gt;Node22 -->
<g id="edge27" class="edge">
<title>Node19&#45;&gt;Node22</title>
<path fill="none" stroke="#191970" d="M557.2644,-168.6972C558.9794,-161.3096 561.3912,-150.9205 563.4944,-141.8603"/>
<polygon fill="#191970" stroke="#191970" points="566.9095,-142.6268 565.7615,-132.0943 560.0908,-141.0438 566.9095,-142.6268"/>
</g>
<!-- Node23 -->
<g id="node24" class="node">
<title>Node23</title>
<g id="a_node24"><a xlink:href="../../dc/dcf/externalsstream_8h.xhtml" target="_top" xlink:title="externalsstream.h">
<polygon fill="#ffffff" stroke="#000000" points="337.5,-112.9516 337.5,-131.9516 432.5,-131.9516 432.5,-112.9516 337.5,-112.9516"/>
<text text-anchor="middle" x="385" y="-119.9516" font-family="Helvetica,sans-Serif" font-size="10.00" fill="#000000">externalsstream.h</text>
</a>
</g>
</g>
<!-- Node19&#45;&gt;Node23 -->
<g id="edge29" class="edge">
<title>Node19&#45;&gt;Node23</title>
<path fill="none" stroke="#191970" d="M525.776,-168.8249C497.5075,-159.5129 454.5035,-145.3469 423.4656,-135.1227"/>
<polygon fill="#191970" stroke="#191970" points="424.4357,-131.7573 413.8427,-131.9528 422.2456,-138.4058 424.4357,-131.7573"/>
</g>
<!-- Node24 -->
<g id="node25" class="node">
<title>Node24</title>
<g id="a_node25"><a xlink:href="../../d6/d90/strings_8h.xhtml" target="_top" xlink:title="strings.h">
<polygon fill="#ffffff" stroke="#000000" points="617,-112.9516 617,-131.9516 671,-131.9516 671,-112.9516 617,-112.9516"/>
<text text-anchor="middle" x="644" y="-119.9516" font-family="Helvetica,sans-Serif" font-size="10.00" fill="#000000">strings.h</text>
</a>
</g>
</g>
<!-- Node19&#45;&gt;Node24 -->
<g id="edge32" class="edge">
<title>Node19&#45;&gt;Node24</title>
<path fill="none" stroke="#191970" d="M570.5026,-168.6972C584.158,-160.1051 604.2657,-147.453 619.9989,-137.5534"/>
<polygon fill="#191970" stroke="#191970" points="622.0751,-140.3823 628.675,-132.0943 618.3471,-134.4576 622.0751,-140.3823"/>
</g>
<!-- Node23&#45;&gt;Node4 -->
<g id="edge31" class="edge">
<title>Node23&#45;&gt;Node4</title>
<path fill="none" stroke="#191970" d="M383.7211,-112.9026C381.2746,-94.6356 375.8869,-54.4069 372.6381,-30.1493"/>
<polygon fill="#191970" stroke="#191970" points="376.0722,-29.4234 371.2757,-19.9765 369.1341,-30.3527 376.0722,-29.4234"/>
</g>
<!-- Node23&#45;&gt;Node5 -->
<g id="edge30" class="edge">
<title>Node23&#45;&gt;Node5</title>
<path fill="none" stroke="#191970" d="M372.8069,-112.6972C362.3679,-104.346 347.1345,-92.1593 334.926,-82.3925"/>
<polygon fill="#191970" stroke="#191970" points="337.0485,-79.6082 327.0533,-76.0943 332.6756,-85.0743 337.0485,-79.6082"/>
</g>
<!-- Node24&#45;&gt;Node3 -->
<g id="edge39" class="edge">
<title>Node24&#45;&gt;Node3</title>
<path fill="none" stroke="#191970" d="M616.954,-114.3088C583.299,-104.1761 525.9025,-86.8954 490.0666,-76.1061"/>
<polygon fill="#191970" stroke="#191970" points="490.7126,-72.6455 480.1281,-73.1139 488.6945,-79.3483 490.7126,-72.6455"/>
</g>
<!-- Node24&#45;&gt;Node4 -->
<g id="edge38" class="edge">
<title>Node24&#45;&gt;Node4</title>
<path fill="none" stroke="#191970" d="M617.9003,-112.9247C594.1915,-104.0769 558.3858,-90.2291 528,-76.4516 510.2588,-68.4075 506.7759,-64.4188 489,-56.4516 459.4649,-43.214 424.8753,-30.101 400.6244,-21.2834"/>
<polygon fill="#191970" stroke="#191970" points="401.5033,-17.8798 390.909,-17.7796 399.1285,-24.4647 401.5033,-17.8798"/>
</g>
<!-- Node24&#45;&gt;Node6 -->
<g id="edge34" class="edge">
<title>Node24&#45;&gt;Node6</title>
<path fill="none" stroke="#191970" d="M666.004,-112.8249C686.6435,-103.7951 717.7158,-90.201 740.8889,-80.0627"/>
<polygon fill="#191970" stroke="#191970" points="742.5245,-83.1676 750.2831,-75.9528 739.7187,-76.7544 742.5245,-83.1676"/>
</g>
<!-- Node24&#45;&gt;Node21 -->
<g id="edge36" class="edge">
<title>Node24&#45;&gt;Node21</title>
<path fill="none" stroke="#191970" d="M671.2122,-115.0415C702.4115,-106.527 755.3425,-92.0254 809.811,-76.7688"/>
<polygon fill="#191970" stroke="#191970" points="810.951,-80.0842 819.6343,-74.0137 809.0607,-73.3443 810.951,-80.0842"/>
</g>
<!-- Node25 -->
<g id="node26" class="node">
<title>Node25</title>
<polygon fill="#ffffff" stroke="#bfbfbf" points="536.5,-56.9516 536.5,-75.9516 585.5,-75.9516 585.5,-56.9516 536.5,-56.9516"/>
<text text-anchor="middle" x="561" y="-63.9516" font-family="Helvetica,sans-Serif" font-size="10.00" fill="#000000">cstdarg</text>
</g>
<!-- Node24&#45;&gt;Node25 -->
<g id="edge33" class="edge">
<title>Node24&#45;&gt;Node25</title>
<path fill="none" stroke="#191970" d="M629.5425,-112.6972C616.9268,-104.1854 598.4056,-91.6891 583.7955,-81.8317"/>
<polygon fill="#191970" stroke="#191970" points="585.5391,-78.786 575.2918,-76.0943 581.6239,-84.5887 585.5391,-78.786"/>
</g>
<!-- Node26 -->
<g id="node27" class="node">
<title>Node26</title>
<polygon fill="#ffffff" stroke="#bfbfbf" points="604,-56.9516 604,-75.9516 654,-75.9516 654,-56.9516 604,-56.9516"/>
<text text-anchor="middle" x="629" y="-63.9516" font-family="Helvetica,sans-Serif" font-size="10.00" fill="#000000">iomanip</text>
</g>
<!-- Node24&#45;&gt;Node26 -->
<g id="edge35" class="edge">
<title>Node24&#45;&gt;Node26</title>
<path fill="none" stroke="#191970" d="M641.3872,-112.6972C639.4084,-105.3096 636.6256,-94.9205 634.1988,-85.8603"/>
<polygon fill="#191970" stroke="#191970" points="637.5511,-84.8482 631.5829,-76.0943 630.7895,-86.6594 637.5511,-84.8482"/>
</g>
<!-- Node27 -->
<g id="node28" class="node">
<title>Node27</title>
<polygon fill="#ffffff" stroke="#bfbfbf" points="672,-56.9516 672,-75.9516 724,-75.9516 724,-56.9516 672,-56.9516"/>
<text text-anchor="middle" x="698" y="-63.9516" font-family="Helvetica,sans-Serif" font-size="10.00" fill="#000000">sstream</text>
</g>
<!-- Node24&#45;&gt;Node27 -->
<g id="edge37" class="edge">
<title>Node24&#45;&gt;Node27</title>
<path fill="none" stroke="#191970" d="M653.4061,-112.6972C661.1493,-104.6672 672.312,-93.091 681.5318,-83.5298"/>
<polygon fill="#191970" stroke="#191970" points="684.2798,-85.7223 688.7017,-76.0943 679.2409,-80.8633 684.2798,-85.7223"/>
</g>
<!-- Node28&#45;&gt;Node9 -->
<g id="edge43" class="edge">
<title>Node28&#45;&gt;Node9</title>
<path fill="none" stroke="#191970" d="M183.8846,-224.6972C167.555,-215.9043 143.329,-202.8596 124.7661,-192.8641"/>
<polygon fill="#191970" stroke="#191970" points="126.3719,-189.7537 115.9078,-188.0943 123.0532,-195.917 126.3719,-189.7537"/>
</g>
<!-- Node29 -->
<g id="node30" class="node">
<title>Node29</title>
<polygon fill="#ffffff" stroke="#bfbfbf" points="138.5,-168.9516 138.5,-187.9516 167.5,-187.9516 167.5,-168.9516 138.5,-168.9516"/>
<text text-anchor="middle" x="153" y="-175.9516" font-family="Helvetica,sans-Serif" font-size="10.00" fill="#000000">list</text>
</g>
<!-- Node28&#45;&gt;Node29 -->
<g id="edge41" class="edge">
<title>Node28&#45;&gt;Node29</title>
<path fill="none" stroke="#191970" d="M193.4649,-224.6972C186.5088,-216.7475 176.5117,-205.3222 168.1949,-195.8172"/>
<polygon fill="#191970" stroke="#191970" points="170.6564,-193.3153 161.4373,-188.0943 165.3884,-197.9249 170.6564,-193.3153"/>
</g>
<!-- Node30 -->
<g id="node31" class="node">
<title>Node30</title>
<polygon fill="#ffffff" stroke="#bfbfbf" points="186,-168.9516 186,-187.9516 230,-187.9516 230,-168.9516 186,-168.9516"/>
<text text-anchor="middle" x="208" y="-175.9516" font-family="Helvetica,sans-Serif" font-size="10.00" fill="#000000">mutex</text>
</g>
<!-- Node28&#45;&gt;Node30 -->
<g id="edge42" class="edge">
<title>Node28&#45;&gt;Node30</title>
<path fill="none" stroke="#191970" d="M203.0451,-224.6972C203.828,-217.3899 204.9256,-207.146 205.8888,-198.1562"/>
<polygon fill="#191970" stroke="#191970" points="209.3815,-198.4103 206.9669,-188.0943 202.4214,-197.6645 209.3815,-198.4103"/>
</g>
<!-- Node31&#45;&gt;Node6 -->
<g id="edge47" class="edge">
<title>Node31&#45;&gt;Node6</title>
<path fill="none" stroke="#191970" d="M615.0469,-280.8266C640.2271,-246.4341 726.003,-129.2768 758.9575,-84.2657"/>
<polygon fill="#191970" stroke="#191970" points="761.896,-86.177 764.9794,-76.0408 756.2479,-82.0418 761.896,-86.177"/>
</g>
</g>
</svg>
        <g id="navigator" transform="translate(0 0)" fill="#404254">
                <rect fill="#f2f5e9" fill-opacity="0.5" stroke="#606060" stroke-width=".5" x="0" y="0" width="60" height="60"/>
                <use id="zoomplus" xlink:href="#zoomPlus" x="17" y="9" onmousedown="handleZoom(evt,'in')"/>
                <use id="zoomminus" xlink:href="#zoomMin" x="42" y="9" onmousedown="handleZoom(evt,'out')"/>
                <use id="reset" xlink:href="#resetDef" x="30" y="36" onmousedown="handleReset()"/>
                <g id="arrowUp" xlink:href="#dirArrow" transform="translate(30 24)" onmousedown="handlePan(0,-1)">
                  <use xlink:href="#rim" fill="#404040">
                        <set attributeName="fill" to="#808080" begin="arrowUp.mouseover" end="arrowUp.mouseout"/>
                  </use>
                  <path fill="none" stroke="white" stroke-width="1.5" d="M0,-3.0v7 M-2.5,-0.5L0,-3.0L2.5,-0.5"/>
                </g>
                <g id="arrowRight" xlink:href="#dirArrow" transform="rotate(90) translate(36 -43)" onmousedown="handlePan(1,0)">
                  <use xlink:href="#rim" fill="#404040">
                        <set attributeName="fill" to="#808080" begin="arrowRight.mouseover" end="arrowRight.mouseout"/>
                  </use>
                  <path fill="none" stroke="white" stroke-width="1.5" d="M0,-3.0v7 M-2.5,-0.5L0,-3.0L2.5,-0.5"/>
                </g>
                <g id="arrowDown" xlink:href="#dirArrow" transform="rotate(180) translate(-30 -48)" onmousedown="handlePan(0,1)">
                  <use xlink:href="#rim" fill="#404040">
                        <set attributeName="fill" to="#808080" begin="arrowDown.mouseover" end="arrowDown.mouseout"/>
                  </use>
                  <path fill="none" stroke="white" stroke-width="1.5" d="M0,-3.0v7 M-2.5,-0.5L0,-3.0L2.5,-0.5"/>
                </g>
                <g id="arrowLeft" xlink:href="#dirArrow" transform="rotate(270) translate(-36 17)" onmousedown="handlePan(-1,0)">
                  <use xlink:href="#rim" fill="#404040">
                        <set attributeName="fill" to="#808080" begin="arrowLeft.mouseover" end="arrowLeft.mouseout"/>
                  </use>
                  <path fill="none" stroke="white" stroke-width="1.5" d="M0,-3.0v7 M-2.5,-0.5L0,-3.0L2.5,-0.5"/>
                </g>
        </g>
        <svg viewBox="0 0 15 15" width="100%" height="30px" preserveAspectRatio="xMaxYMin meet">
         <g id="arrow_out" transform="scale(0.3 0.3)">
          <a xlink:href="stackanalyzer_8cpp__incl_org.svg" target="_base">
           <rect id="button" ry="5" rx="5" y="6" x="6" height="38" width="38"
                fill="#f2f5e9" fill-opacity="0.5" stroke="#606060" stroke-width="1.0"/>
           <path id="arrow"
             d="M 11.500037,31.436501 C 11.940474,20.09759 22.043105,11.32322 32.158766,21.979434 L 37.068811,17.246167 C 37.068811,17.246167 37.088388,32 37.088388,32 L 22.160133,31.978069 C 22.160133,31.978069 26.997745,27.140456 26.997745,27.140456 C 18.528582,18.264221 13.291696,25.230495 11.500037,31.436501 z"
             style="fill:#404040;"/>
          </a>
         </g>
        </svg>
</svg>
