<?xml version="1.0" encoding="UTF-8" standalone="no"?>
<!DOCTYPE svg PUBLIC "-//W3C//DTD SVG 1.1//EN"
 "http://www.w3.org/Graphics/SVG/1.1/DTD/svg11.dtd">
<!-- Generated by graphviz version 2.40.1 (20161225.0304)
 -->
<!-- Title: openage::util::Path::open_r Pages: 1 -->
<svg width="443pt" height="235pt"
 viewBox="0.00 0.00 443.00 235.00" xmlns="http://www.w3.org/2000/svg" xmlns:xlink="http://www.w3.org/1999/xlink">
<g id="graph0" class="graph" transform="scale(1 1) rotate(0) translate(4 231)">
<title>openage::util::Path::open_r</title>
<polygon fill="#ffffff" stroke="transparent" points="-4,4 -4,-231 439,-231 439,4 -4,4"/>
<!-- Node158 -->
<g id="node1" class="node">
<title>Node158</title>
<polygon fill="#bfbfbf" stroke="#000000" points="0,-73.5 0,-103.5 98,-103.5 98,-73.5 0,-73.5"/>
<text text-anchor="start" x="8" y="-91.5" font-family="Helvetica,sans-Serif" font-size="10.00" fill="#000000">openage::util::Path</text>
<text text-anchor="middle" x="49" y="-80.5" font-family="Helvetica,sans-Serif" font-size="10.00" fill="#000000">::open_r</text>
</g>
<!-- Node159 -->
<g id="node2" class="node">
<title>Node159</title>
<g id="a_node2"><a xlink:href="../../dd/dc1/classopenage_1_1util_1_1_path.xhtml#a5b429e300ae4a048dbbd1a733bc1452a" target="_top" xlink:title="openage::util::Path\l::open">
<polygon fill="#ffffff" stroke="#000000" points="140,-122.5 140,-152.5 238,-152.5 238,-122.5 140,-122.5"/>
<text text-anchor="start" x="148" y="-140.5" font-family="Helvetica,sans-Serif" font-size="10.00" fill="#000000">openage::util::Path</text>
<text text-anchor="middle" x="189" y="-129.5" font-family="Helvetica,sans-Serif" font-size="10.00" fill="#000000">::open</text>
</a>
</g>
</g>
<!-- Node158&#45;&gt;Node159 -->
<g id="edge1" class="edge">
<title>Node158&#45;&gt;Node159</title>
<path fill="none" stroke="#191970" d="M101.9586,-107.0355C116.4168,-112.0959 131.9077,-117.5177 145.7545,-122.3641"/>
<polygon fill="#191970" stroke="#191970" points="102.7418,-103.6015 92.147,-103.6014 100.4293,-110.2085 102.7418,-103.6015"/>
</g>
<!-- Node163 -->
<g id="node6" class="node">
<title>Node163</title>
<g id="a_node6"><a xlink:href="../../d5/d78/namespaceopenage_1_1audio.xhtml#a2b9ae1ef31b0fe76e8f6d90fa1fc9db7" target="_top" xlink:title="Opens a opus file. ">
<polygon fill="#ffffff" stroke="#000000" points="134,-49.5 134,-79.5 244,-79.5 244,-49.5 134,-49.5"/>
<text text-anchor="start" x="142" y="-67.5" font-family="Helvetica,sans-Serif" font-size="10.00" fill="#000000">openage::audio::open</text>
<text text-anchor="middle" x="189" y="-56.5" font-family="Helvetica,sans-Serif" font-size="10.00" fill="#000000">_opus_file</text>
</a>
</g>
</g>
<!-- Node158&#45;&gt;Node163 -->
<g id="edge5" class="edge">
<title>Node158&#45;&gt;Node163</title>
<path fill="none" stroke="#191970" d="M108.219,-78.3482C116.7302,-76.8891 125.4593,-75.3927 133.8865,-73.948"/>
<polygon fill="#191970" stroke="#191970" points="107.6236,-74.8991 98.3588,-80.0385 108.8064,-81.7985 107.6236,-74.8991"/>
</g>
<!-- Node160 -->
<g id="node3" class="node">
<title>Node160</title>
<g id="a_node3"><a xlink:href="../../df/d83/classopenage_1_1util_1_1_c_s_v_collection.xhtml#aae99478db7d16d650eff5dd34a2194ca" target="_top" xlink:title="Initialize the collection by reading the given file. ">
<polygon fill="#ffffff" stroke="#000000" points="286,-196.5 286,-226.5 429,-226.5 429,-196.5 286,-196.5"/>
<text text-anchor="start" x="294" y="-214.5" font-family="Helvetica,sans-Serif" font-size="10.00" fill="#000000">openage::util::CSVCollection</text>
<text text-anchor="middle" x="357.5" y="-203.5" font-family="Helvetica,sans-Serif" font-size="10.00" fill="#000000">::CSVCollection</text>
</a>
</g>
</g>
<!-- Node159&#45;&gt;Node160 -->
<g id="edge2" class="edge">
<title>Node159&#45;&gt;Node160</title>
<path fill="none" stroke="#191970" d="M222.3384,-157.9397C239.2128,-167.7322 260.2586,-179.1217 280,-187.5 287.5202,-190.6916 295.6109,-193.669 303.6277,-196.3653"/>
<polygon fill="#191970" stroke="#191970" points="223.8208,-154.7509 213.4277,-152.693 220.2691,-160.783 223.8208,-154.7509"/>
</g>
<!-- Node161 -->
<g id="node4" class="node">
<title>Node161</title>
<g id="a_node4"><a xlink:href="../../d3/d7e/classopenage_1_1_game_renderer.xhtml#a153e060bb9dd679446e2a3090887590a" target="_top" xlink:title="openage::GameRenderer\l::GameRenderer">
<polygon fill="#ffffff" stroke="#000000" points="295,-147.5 295,-177.5 420,-177.5 420,-147.5 295,-147.5"/>
<text text-anchor="start" x="303" y="-165.5" font-family="Helvetica,sans-Serif" font-size="10.00" fill="#000000">openage::GameRenderer</text>
<text text-anchor="middle" x="357.5" y="-154.5" font-family="Helvetica,sans-Serif" font-size="10.00" fill="#000000">::GameRenderer</text>
</a>
</g>
</g>
<!-- Node159&#45;&gt;Node161 -->
<g id="edge3" class="edge">
<title>Node159&#45;&gt;Node161</title>
<path fill="none" stroke="#191970" d="M248.3727,-146.309C263.3862,-148.5365 279.5575,-150.9358 294.7325,-153.1873"/>
<polygon fill="#191970" stroke="#191970" points="248.5956,-142.8038 238.1901,-144.7982 247.5682,-149.728 248.5956,-142.8038"/>
</g>
<!-- Node162 -->
<g id="node5" class="node">
<title>Node162</title>
<g id="a_node5"><a xlink:href="../../de/d60/namespaceopenage_1_1util.xhtml#a16ef0fe69558a29af4a8d568f2b5b518" target="_top" xlink:title="read a single csv file. ">
<polygon fill="#ffffff" stroke="#000000" points="309,-98.5 309,-128.5 406,-128.5 406,-98.5 309,-98.5"/>
<text text-anchor="start" x="317" y="-116.5" font-family="Helvetica,sans-Serif" font-size="10.00" fill="#000000">openage::util::read</text>
<text text-anchor="middle" x="357.5" y="-105.5" font-family="Helvetica,sans-Serif" font-size="10.00" fill="#000000">_csv_file</text>
</a>
</g>
</g>
<!-- Node159&#45;&gt;Node162 -->
<g id="edge4" class="edge">
<title>Node159&#45;&gt;Node162</title>
<path fill="none" stroke="#191970" d="M248.3322,-129.0491C268.1283,-126.2295 289.9413,-123.1226 308.8308,-120.4321"/>
<polygon fill="#191970" stroke="#191970" points="247.5967,-125.6185 238.1901,-130.4937 248.5838,-132.5485 247.5967,-125.6185"/>
</g>
<!-- Node164 -->
<g id="node7" class="node">
<title>Node164</title>
<g id="a_node7"><a xlink:href="../../d4/d04/classopenage_1_1audio_1_1_opus_in_memory_loader.xhtml#afd535fc99780b2823cdd38c8dfc03f5d" target="_top" xlink:title="Returns the resource as pcm data buffer. ">
<polygon fill="#ffffff" stroke="#000000" points="280,-49.5 280,-79.5 435,-79.5 435,-49.5 280,-49.5"/>
<text text-anchor="start" x="288" y="-67.5" font-family="Helvetica,sans-Serif" font-size="10.00" fill="#000000">openage::audio::OpusInMemory</text>
<text text-anchor="middle" x="357.5" y="-56.5" font-family="Helvetica,sans-Serif" font-size="10.00" fill="#000000">Loader::get_resource</text>
</a>
</g>
</g>
<!-- Node163&#45;&gt;Node164 -->
<g id="edge6" class="edge">
<title>Node163&#45;&gt;Node164</title>
<path fill="none" stroke="#191970" d="M254.2576,-64.5C262.6525,-64.5 271.3129,-64.5 279.8812,-64.5"/>
<polygon fill="#191970" stroke="#191970" points="254.1732,-61.0001 244.1732,-64.5 254.1732,-68.0001 254.1732,-61.0001"/>
</g>
<!-- Node165 -->
<g id="node8" class="node">
<title>Node165</title>
<g id="a_node8"><a xlink:href="../../d7/d48/classopenage_1_1audio_1_1_opus_dynamic_loader.xhtml#aaabed108ab439a182bd2aba5bbb54e64" target="_top" xlink:title="Creates a new OpusDynamicLoader. ">
<polygon fill="#ffffff" stroke="#000000" points="282,-.5 282,-30.5 433,-30.5 433,-.5 282,-.5"/>
<text text-anchor="start" x="290" y="-18.5" font-family="Helvetica,sans-Serif" font-size="10.00" fill="#000000">openage::audio::OpusDynamic</text>
<text text-anchor="middle" x="357.5" y="-7.5" font-family="Helvetica,sans-Serif" font-size="10.00" fill="#000000">Loader::OpusDynamicLoader</text>
</a>
</g>
</g>
<!-- Node163&#45;&gt;Node165 -->
<g id="edge7" class="edge">
<title>Node163&#45;&gt;Node165</title>
<path fill="none" stroke="#191970" d="M250.5337,-46.6059C268.6573,-41.3356 288.2965,-35.6245 305.741,-30.5516"/>
<polygon fill="#191970" stroke="#191970" points="249.5554,-43.2454 240.9305,-49.3986 251.51,-49.9669 249.5554,-43.2454"/>
</g>
</g>
</svg>
