<?xml version="1.0" encoding="UTF-8" standalone="no"?>
<!DOCTYPE svg PUBLIC "-//W3C//DTD SVG 1.1//EN"
 "http://www.w3.org/Graphics/SVG/1.1/DTD/svg11.dtd">
<!-- Generated by graphviz version 2.40.1 (20161225.0304)
 -->
<!-- Title: openage::util::Path::with_name Pages: 1 -->
<svg width="559pt" height="66pt"
 viewBox="0.00 0.00 559.00 66.00" xmlns="http://www.w3.org/2000/svg" xmlns:xlink="http://www.w3.org/1999/xlink">
<g id="graph0" class="graph" transform="scale(1 1) rotate(0) translate(4 62)">
<title>openage::util::Path::with_name</title>
<polygon fill="#ffffff" stroke="transparent" points="-4,4 -4,-62 555,-62 555,4 -4,4"/>
<!-- Node252 -->
<g id="node1" class="node">
<title>Node252</title>
<polygon fill="#bfbfbf" stroke="#000000" points="0,-14 0,-44 98,-44 98,-14 0,-14"/>
<text text-anchor="start" x="8" y="-32" font-family="Helvetica,sans-Serif" font-size="10.00" fill="#000000">openage::util::Path</text>
<text text-anchor="middle" x="49" y="-21" font-family="Helvetica,sans-Serif" font-size="10.00" fill="#000000">::with_name</text>
</g>
<!-- Node253 -->
<g id="node2" class="node">
<title>Node253</title>
<g id="a_node2"><a xlink:href="../../dd/dc1/classopenage_1_1util_1_1_path.xhtml#aa7993e64af5227c5949074566deadbf6" target="_top" xlink:title="openage::util::Path\l::with_suffix">
<polygon fill="#ffffff" stroke="#000000" points="134,-14 134,-44 232,-44 232,-14 134,-14"/>
<text text-anchor="start" x="142" y="-32" font-family="Helvetica,sans-Serif" font-size="10.00" fill="#000000">openage::util::Path</text>
<text text-anchor="middle" x="183" y="-21" font-family="Helvetica,sans-Serif" font-size="10.00" fill="#000000">::with_suffix</text>
</a>
</g>
</g>
<!-- Node252&#45;&gt;Node253 -->
<g id="edge1" class="edge">
<title>Node252&#45;&gt;Node253</title>
<path fill="none" stroke="#191970" d="M108.3979,-29C116.9092,-29 125.5863,-29 133.8702,-29"/>
<polygon fill="#191970" stroke="#191970" points="108.1358,-25.5001 98.1358,-29 108.1357,-32.5001 108.1358,-25.5001"/>
</g>
<!-- Node254 -->
<g id="node3" class="node">
<title>Node254</title>
<g id="a_node3"><a xlink:href="../../d4/d5b/classopenage_1_1_texture.xhtml#a1fba0cda4b2ce8306d8f6278e936681a" target="_top" xlink:title="openage::Texture::load">
<polygon fill="#ffffff" stroke="#000000" points="268,-19.5 268,-38.5 384,-38.5 384,-19.5 268,-19.5"/>
<text text-anchor="middle" x="326" y="-26.5" font-family="Helvetica,sans-Serif" font-size="10.00" fill="#000000">openage::Texture::load</text>
</a>
</g>
</g>
<!-- Node253&#45;&gt;Node254 -->
<g id="edge2" class="edge">
<title>Node253&#45;&gt;Node254</title>
<path fill="none" stroke="#191970" d="M242.3416,-29C250.7668,-29 259.4241,-29 267.8268,-29"/>
<polygon fill="#191970" stroke="#191970" points="242.2125,-25.5001 232.2125,-29 242.2125,-32.5001 242.2125,-25.5001"/>
</g>
<!-- Node255 -->
<g id="node4" class="node">
<title>Node255</title>
<g id="a_node4"><a xlink:href="../../d4/d5b/classopenage_1_1_texture.xhtml#ac02524c602d22cecd5a06199e113cc43" target="_top" xlink:title="Reload the image file. ">
<polygon fill="#ffffff" stroke="#000000" points="423,-38.5 423,-57.5 548,-57.5 548,-38.5 423,-38.5"/>
<text text-anchor="middle" x="485.5" y="-45.5" font-family="Helvetica,sans-Serif" font-size="10.00" fill="#000000">openage::Texture::reload</text>
</a>
</g>
</g>
<!-- Node254&#45;&gt;Node255 -->
<g id="edge3" class="edge">
<title>Node254&#45;&gt;Node255</title>
<path fill="none" stroke="#191970" d="M394.254,-37.1306C403.7772,-38.265 413.5239,-39.426 422.9352,-40.5471"/>
<polygon fill="#191970" stroke="#191970" points="394.3782,-33.6207 384.0344,-35.9132 393.5501,-40.5716 394.3782,-33.6207"/>
</g>
<!-- Node256 -->
<g id="node5" class="node">
<title>Node256</title>
<g id="a_node5"><a xlink:href="../../d4/d5b/classopenage_1_1_texture.xhtml#a245b2f41a0307ea3553fadfbc777bb54" target="_top" xlink:title="Create a texture from a existing image file. ">
<polygon fill="#ffffff" stroke="#000000" points="420,-.5 420,-19.5 551,-19.5 551,-.5 420,-.5"/>
<text text-anchor="middle" x="485.5" y="-7.5" font-family="Helvetica,sans-Serif" font-size="10.00" fill="#000000">openage::Texture::Texture</text>
</a>
</g>
</g>
<!-- Node254&#45;&gt;Node256 -->
<g id="edge4" class="edge">
<title>Node254&#45;&gt;Node256</title>
<path fill="none" stroke="#191970" d="M394.0143,-20.898C402.6095,-19.8741 411.3906,-18.8281 419.9465,-17.8089"/>
<polygon fill="#191970" stroke="#191970" points="393.5501,-17.4284 384.0344,-22.0868 394.3782,-24.3793 393.5501,-17.4284"/>
</g>
</g>
</svg>
