<?xml version="1.0" encoding="UTF-8" standalone="no"?>
<!DOCTYPE svg PUBLIC "-//W3C//DTD SVG 1.1//EN"
 "http://www.w3.org/Graphics/SVG/1.1/DTD/svg11.dtd">
<!-- Generated by graphviz version 2.40.1 (20161225.0304)
 -->
<!-- Title: openage::util::Path::joinpath Pages: 1 -->
<svg width="262pt" height="88pt"
 viewBox="0.00 0.00 262.00 88.00" xmlns="http://www.w3.org/2000/svg" xmlns:xlink="http://www.w3.org/1999/xlink">
<g id="graph0" class="graph" transform="scale(1 1) rotate(0) translate(4 84)">
<title>openage::util::Path::joinpath</title>
<polygon fill="#ffffff" stroke="transparent" points="-4,4 -4,-84 258,-84 258,4 -4,4"/>
<!-- Node128 -->
<g id="node1" class="node">
<title>Node128</title>
<polygon fill="#bfbfbf" stroke="#000000" points="0,-24.5 0,-54.5 98,-54.5 98,-24.5 0,-24.5"/>
<text text-anchor="start" x="8" y="-42.5" font-family="Helvetica,sans-Serif" font-size="10.00" fill="#000000">openage::util::Path</text>
<text text-anchor="middle" x="49" y="-31.5" font-family="Helvetica,sans-Serif" font-size="10.00" fill="#000000">::joinpath</text>
</g>
<!-- Node129 -->
<g id="node2" class="node">
<title>Node129</title>
<g id="a_node2"><a xlink:href="../../d6/d6b/classopenage_1_1util_1_1fslike_1_1path_1_1_path.xhtml#af3d064f84b10f3baca839c4490ff6cd3" target="_top" xlink:title="Like joinpath. ">
<polygon fill="#ffffff" stroke="#000000" points="134,-49.5 134,-79.5 254,-79.5 254,-49.5 134,-49.5"/>
<text text-anchor="start" x="142" y="-67.5" font-family="Helvetica,sans-Serif" font-size="10.00" fill="#000000">openage.util.fslike.path.</text>
<text text-anchor="middle" x="194" y="-56.5" font-family="Helvetica,sans-Serif" font-size="10.00" fill="#000000">Path.__getitem__</text>
</a>
</g>
</g>
<!-- Node128&#45;&gt;Node129 -->
<g id="edge1" class="edge">
<title>Node128&#45;&gt;Node129</title>
<path fill="none" stroke="#191970" d="M107.9746,-49.668C116.5217,-51.1417 125.3287,-52.6601 133.8977,-54.1375"/>
<polygon fill="#191970" stroke="#191970" points="108.5397,-46.2139 98.0904,-47.9639 107.3503,-53.1121 108.5397,-46.2139"/>
</g>
<!-- Node130 -->
<g id="node3" class="node">
<title>Node130</title>
<g id="a_node3"><a xlink:href="../../d6/d6b/classopenage_1_1util_1_1fslike_1_1path_1_1_path.xhtml#a2fe104e5eec859814a5192501d7069d7" target="_top" xlink:title="Like joinpath. ">
<polygon fill="#ffffff" stroke="#000000" points="134,-.5 134,-30.5 254,-30.5 254,-.5 134,-.5"/>
<text text-anchor="start" x="142" y="-18.5" font-family="Helvetica,sans-Serif" font-size="10.00" fill="#000000">openage.util.fslike.path.</text>
<text text-anchor="middle" x="194" y="-7.5" font-family="Helvetica,sans-Serif" font-size="10.00" fill="#000000">Path.__truediv__</text>
</a>
</g>
</g>
<!-- Node128&#45;&gt;Node130 -->
<g id="edge2" class="edge">
<title>Node128&#45;&gt;Node130</title>
<path fill="none" stroke="#191970" d="M107.9746,-29.7387C116.5217,-28.324 125.3287,-26.8663 133.8977,-25.448"/>
<polygon fill="#191970" stroke="#191970" points="107.3846,-26.2886 98.0904,-31.3747 108.5277,-33.1947 107.3846,-26.2886"/>
</g>
</g>
</svg>
