<?xml version="1.0" encoding="UTF-8" standalone="no"?>
<!DOCTYPE svg PUBLIC "-//W3C//DTD SVG 1.1//EN"
 "http://www.w3.org/Graphics/SVG/1.1/DTD/svg11.dtd">
<!-- Generated by graphviz version 2.40.1 (20161225.0304)
 -->
<!-- Title: openage::Player::is_unit_pending Pages: 1 -->
<svg width="428pt" height="127pt"
 viewBox="0.00 0.00 428.00 126.50" xmlns="http://www.w3.org/2000/svg" xmlns:xlink="http://www.w3.org/1999/xlink">
<g id="graph0" class="graph" transform="scale(1 1) rotate(0) translate(4 122.5)">
<title>openage::Player::is_unit_pending</title>
<polygon fill="#ffffff" stroke="transparent" points="-4,4 -4,-122.5 424,-122.5 424,4 -4,4"/>
<!-- Node246 -->
<g id="node1" class="node">
<title>Node246</title>
<polygon fill="#bfbfbf" stroke="#000000" points="0,-39 0,-69 101,-69 101,-39 0,-39"/>
<text text-anchor="start" x="8" y="-57" font-family="Helvetica,sans-Serif" font-size="10.00" fill="#000000">openage::Player::is</text>
<text text-anchor="middle" x="50.5" y="-46" font-family="Helvetica,sans-Serif" font-size="10.00" fill="#000000">_unit_pending</text>
</g>
<!-- Node247 -->
<g id="node2" class="node">
<title>Node247</title>
<g id="a_node2"><a xlink:href="../../d8/d47/classopenage_1_1_player.xhtml#a69c98ddc434aed6aceec5dbb4931f064" target="_top" xlink:title="Called when a unit is created and active. ">
<polygon fill="#ffffff" stroke="#000000" points="141.5,-88 141.5,-118 260.5,-118 260.5,-88 141.5,-88"/>
<text text-anchor="start" x="149.5" y="-106" font-family="Helvetica,sans-Serif" font-size="10.00" fill="#000000">openage::Player::active</text>
<text text-anchor="middle" x="201" y="-95" font-family="Helvetica,sans-Serif" font-size="10.00" fill="#000000">_unit_added</text>
</a>
</g>
</g>
<!-- Node246&#45;&gt;Node247 -->
<g id="edge1" class="edge">
<title>Node246&#45;&gt;Node247</title>
<path fill="none" stroke="#191970" d="M106.5815,-72.2591C122.4552,-77.4273 139.5481,-82.9924 154.7702,-87.9484"/>
<polygon fill="#191970" stroke="#191970" points="107.4753,-68.8693 96.883,-69.1014 105.3081,-75.5254 107.4753,-68.8693"/>
</g>
<!-- Node249 -->
<g id="node4" class="node">
<title>Node249</title>
<g id="a_node4"><a xlink:href="../../d8/d47/classopenage_1_1_player.xhtml#ad3f9e5b486a9d6b07402596e3eabca82" target="_top" xlink:title="Called when a unit is destroyed. ">
<polygon fill="#ffffff" stroke="#000000" points="141.5,-39 141.5,-69 260.5,-69 260.5,-39 141.5,-39"/>
<text text-anchor="start" x="149.5" y="-57" font-family="Helvetica,sans-Serif" font-size="10.00" fill="#000000">openage::Player::active</text>
<text text-anchor="middle" x="201" y="-46" font-family="Helvetica,sans-Serif" font-size="10.00" fill="#000000">_unit_removed</text>
</a>
</g>
</g>
<!-- Node246&#45;&gt;Node249 -->
<g id="edge3" class="edge">
<title>Node246&#45;&gt;Node249</title>
<path fill="none" stroke="#191970" d="M111.2614,-54C121.2286,-54 131.5482,-54 141.4846,-54"/>
<polygon fill="#191970" stroke="#191970" points="111.033,-50.5001 101.033,-54 111.033,-57.5001 111.033,-50.5001"/>
</g>
<!-- Node250 -->
<g id="node5" class="node">
<title>Node250</title>
<g id="a_node5"><a xlink:href="../../d8/d47/classopenage_1_1_player.xhtml#a684dfdb6a9add2fb4bf76c1f4e87ec86" target="_top" xlink:title="Get the current age. ">
<polygon fill="#ffffff" stroke="#000000" points="137,-.5 137,-19.5 265,-19.5 265,-.5 137,-.5"/>
<text text-anchor="middle" x="201" y="-7.5" font-family="Helvetica,sans-Serif" font-size="10.00" fill="#000000">openage::Player::get_age</text>
</a>
</g>
</g>
<!-- Node246&#45;&gt;Node250 -->
<g id="edge4" class="edge">
<title>Node246&#45;&gt;Node250</title>
<path fill="none" stroke="#191970" d="M110.8351,-36.3605C130.4663,-30.6212 151.5083,-24.4693 168.3235,-19.5533"/>
<polygon fill="#191970" stroke="#191970" points="109.649,-33.0607 101.033,-39.2262 111.6134,-39.7794 109.649,-33.0607"/>
</g>
<!-- Node248 -->
<g id="node3" class="node">
<title>Node248</title>
<g id="a_node3"><a xlink:href="../../d2/d82/classopenage_1_1_unit_container.xhtml#a9ef13f975890f222c360b8a5e3242939" target="_top" xlink:title="adds a new unit to the container and initialises using a unit type ">
<polygon fill="#ffffff" stroke="#000000" points="301,-88 301,-118 420,-118 420,-88 301,-88"/>
<text text-anchor="start" x="309" y="-106" font-family="Helvetica,sans-Serif" font-size="10.00" fill="#000000">openage::UnitContainer</text>
<text text-anchor="middle" x="360.5" y="-95" font-family="Helvetica,sans-Serif" font-size="10.00" fill="#000000">::new_unit</text>
</a>
</g>
</g>
<!-- Node247&#45;&gt;Node248 -->
<g id="edge2" class="edge">
<title>Node247&#45;&gt;Node248</title>
<path fill="none" stroke="#191970" d="M271.0902,-103C281.0164,-103 291.1453,-103 300.8494,-103"/>
<polygon fill="#191970" stroke="#191970" points="270.8457,-99.5001 260.8457,-103 270.8457,-106.5001 270.8457,-99.5001"/>
</g>
</g>
</svg>
