<?xml version="1.0" encoding="UTF-8" standalone="no"?>
<!DOCTYPE svg PUBLIC "-//W3C//DTD SVG 1.1//EN"
 "http://www.w3.org/Graphics/SVG/1.1/DTD/svg11.dtd">
<!-- Generated by graphviz version 2.40.1 (20161225.0304)
 -->
<!-- Title: openage::Player::get_age Pages: 1 -->
<svg width="934pt" height="362pt"
 viewBox="0.00 0.00 934.00 361.50" xmlns="http://www.w3.org/2000/svg" xmlns:xlink="http://www.w3.org/1999/xlink">
<g id="graph0" class="graph" transform="scale(1 1) rotate(0) translate(4 357.5)">
<title>openage::Player::get_age</title>
<polygon fill="#ffffff" stroke="transparent" points="-4,4 -4,-357.5 930,-357.5 930,4 -4,4"/>
<!-- Node142 -->
<g id="node1" class="node">
<title>Node142</title>
<polygon fill="#bfbfbf" stroke="#000000" points="0,-270.5 0,-289.5 128,-289.5 128,-270.5 0,-270.5"/>
<text text-anchor="middle" x="64" y="-277.5" font-family="Helvetica,sans-Serif" font-size="10.00" fill="#000000">openage::Player::get_age</text>
</g>
<!-- Node143 -->
<g id="node2" class="node">
<title>Node143</title>
<g id="a_node2"><a xlink:href="../../d8/d47/classopenage_1_1_player.xhtml#af95cd6a1823c78ef20a347369901830d" target="_top" xlink:title="The number of units considered part of the workforce. ">
<polygon fill="#ffffff" stroke="#000000" points="164,-290 164,-320 271,-320 271,-290 164,-290"/>
<text text-anchor="start" x="172" y="-308" font-family="Helvetica,sans-Serif" font-size="10.00" fill="#000000">openage::Player::get</text>
<text text-anchor="middle" x="217.5" y="-297" font-family="Helvetica,sans-Serif" font-size="10.00" fill="#000000">_workforce_count</text>
</a>
</g>
</g>
<!-- Node142&#45;&gt;Node143 -->
<g id="edge1" class="edge">
<title>Node142&#45;&gt;Node143</title>
<path fill="none" stroke="#191970" d="M122.4697,-289.5227C132.6366,-291.1786 143.258,-292.9085 153.5623,-294.5867"/>
<polygon fill="#191970" stroke="#191970" points="153.2997,-298.09 163.7323,-296.243 154.425,-291.181 153.2997,-298.09"/>
</g>
<!-- Node144 -->
<g id="node3" class="node">
<title>Node144</title>
<g id="a_node3"><a xlink:href="../../d8/d47/classopenage_1_1_player.xhtml#a5b26a30f3d83b7455b70fac759b07ae6" target="_top" xlink:title="openage::Player::is\l_unit_pending">
<polygon fill="#ffffff" stroke="#000000" points="167,-241 167,-271 268,-271 268,-241 167,-241"/>
<text text-anchor="start" x="175" y="-259" font-family="Helvetica,sans-Serif" font-size="10.00" fill="#000000">openage::Player::is</text>
<text text-anchor="middle" x="217.5" y="-248" font-family="Helvetica,sans-Serif" font-size="10.00" fill="#000000">_unit_pending</text>
</a>
</g>
</g>
<!-- Node142&#45;&gt;Node144 -->
<g id="edge2" class="edge">
<title>Node142&#45;&gt;Node144</title>
<path fill="none" stroke="#191970" d="M125.1083,-270.4456C135.6257,-268.8012 146.5523,-267.0928 157.0521,-265.4511"/>
<polygon fill="#191970" stroke="#191970" points="157.6217,-268.9047 166.9609,-263.9019 156.5403,-261.9887 157.6217,-268.9047"/>
</g>
<!-- Node145 -->
<g id="node4" class="node">
<title>Node145</title>
<g id="a_node4"><a xlink:href="../../df/dea/classopenage_1_1_unit.xhtml#a6c56a8b7e9856a8e0535cacbe831bae7" target="_top" xlink:title="returns whether attribute is available ">
<polygon fill="#ffffff" stroke="#000000" points="649.5,-323 649.5,-353 748.5,-353 748.5,-323 649.5,-323"/>
<text text-anchor="start" x="657.5" y="-341" font-family="Helvetica,sans-Serif" font-size="10.00" fill="#000000">openage::Unit::has</text>
<text text-anchor="middle" x="699" y="-330" font-family="Helvetica,sans-Serif" font-size="10.00" fill="#000000">_attribute</text>
</a>
</g>
</g>
<!-- Node144&#45;&gt;Node145 -->
<g id="edge3" class="edge">
<title>Node144&#45;&gt;Node145</title>
<path fill="none" stroke="#191970" d="M260.7973,-271.0882C305.1973,-285.8864 376.5433,-307.8081 440,-319 507.6419,-330.9301 586.4984,-335.3897 639.2677,-337.0453"/>
<polygon fill="#191970" stroke="#191970" points="639.3656,-340.5495 649.4627,-337.3404 639.5682,-333.5524 639.3656,-340.5495"/>
</g>
<!-- Node147 -->
<g id="node6" class="node">
<title>Node147</title>
<g id="a_node6"><a xlink:href="../../df/dea/classopenage_1_1_unit.xhtml#a3e12324401051119f44e212dae1a87ce" target="_top" xlink:title="returns attribute based on templated value ">
<polygon fill="#ffffff" stroke="#000000" points="307,-159 307,-189 404,-189 404,-159 307,-159"/>
<text text-anchor="start" x="315" y="-177" font-family="Helvetica,sans-Serif" font-size="10.00" fill="#000000">openage::Unit::get</text>
<text text-anchor="middle" x="355.5" y="-166" font-family="Helvetica,sans-Serif" font-size="10.00" fill="#000000">_attribute</text>
</a>
</g>
</g>
<!-- Node144&#45;&gt;Node147 -->
<g id="edge5" class="edge">
<title>Node144&#45;&gt;Node147</title>
<path fill="none" stroke="#191970" d="M242.8113,-240.9599C264.7523,-227.9225 296.7055,-208.9359 320.9878,-194.5072"/>
<polygon fill="#191970" stroke="#191970" points="323.0729,-197.3396 329.8818,-189.2224 319.497,-191.3218 323.0729,-197.3396"/>
</g>
<!-- Node146 -->
<g id="node5" class="node">
<title>Node146</title>
<g id="a_node5"><a xlink:href="../../de/d8a/classopenage_1_1_attributes.xhtml#aee38f453ac85b68821958ad74cdd8df5" target="_top" xlink:title="Check if the attribute of the given type exists. ">
<polygon fill="#ffffff" stroke="#000000" points="803,-328.5 803,-347.5 926,-347.5 926,-328.5 803,-328.5"/>
<text text-anchor="middle" x="864.5" y="-335.5" font-family="Helvetica,sans-Serif" font-size="10.00" fill="#000000">openage::Attributes::has</text>
</a>
</g>
</g>
<!-- Node145&#45;&gt;Node146 -->
<g id="edge4" class="edge">
<title>Node145&#45;&gt;Node146</title>
<path fill="none" stroke="#191970" d="M748.6555,-338C762.503,-338 777.8309,-338 792.6808,-338"/>
<polygon fill="#191970" stroke="#191970" points="792.8611,-341.5001 802.861,-338 792.861,-334.5001 792.8611,-341.5001"/>
</g>
<!-- Node148 -->
<g id="node7" class="node">
<title>Node148</title>
<g id="a_node7"><a xlink:href="../../de/d8a/classopenage_1_1_attributes.xhtml#a08f927be3be6911e7cf77604f9ead10f" target="_top" xlink:title="Get the attribute based on the type. ">
<polygon fill="#ffffff" stroke="#000000" points="457,-202.5 457,-221.5 578,-221.5 578,-202.5 457,-202.5"/>
<text text-anchor="middle" x="517.5" y="-209.5" font-family="Helvetica,sans-Serif" font-size="10.00" fill="#000000">openage::Attributes::get</text>
</a>
</g>
</g>
<!-- Node147&#45;&gt;Node148 -->
<g id="edge6" class="edge">
<title>Node147&#45;&gt;Node148</title>
<path fill="none" stroke="#191970" d="M404.1053,-185.4013C423.9579,-190.058 446.9189,-195.4439 466.9656,-200.1462"/>
<polygon fill="#191970" stroke="#191970" points="466.3126,-203.588 476.8476,-202.4643 467.9112,-196.773 466.3126,-203.588"/>
</g>
<!-- Node149 -->
<g id="node8" class="node">
<title>Node149</title>
<g id="a_node8"><a xlink:href="../../df/dea/classopenage_1_1_unit.xhtml#ac5dcdf3180dcd4bdce67b765d8ef2134" target="_top" xlink:title="queues a command to be applied to this unit on the next update ">
<polygon fill="#ffffff" stroke="#000000" points="450.5,-164.5 450.5,-183.5 584.5,-183.5 584.5,-164.5 450.5,-164.5"/>
<text text-anchor="middle" x="517.5" y="-171.5" font-family="Helvetica,sans-Serif" font-size="10.00" fill="#000000">openage::Unit::queue_cmd</text>
</a>
</g>
</g>
<!-- Node147&#45;&gt;Node149 -->
<g id="edge7" class="edge">
<title>Node147&#45;&gt;Node149</title>
<path fill="none" stroke="#191970" d="M404.1053,-174C415.464,-174 427.8403,-174 440.106,-174"/>
<polygon fill="#191970" stroke="#191970" points="440.3585,-177.5001 450.3585,-174 440.3585,-170.5001 440.3585,-177.5001"/>
</g>
<!-- Node151 -->
<g id="node10" class="node">
<title>Node151</title>
<g id="a_node10"><a xlink:href="../../df/dea/classopenage_1_1_unit.xhtml#a238fb029bd4cc32e393506533facd976" target="_top" xlink:title="removes all gather actions without calling their on_complete actions this cancels the gathering actio...">
<polygon fill="#ffffff" stroke="#000000" points="648,-235 648,-265 750,-265 750,-235 648,-235"/>
<text text-anchor="start" x="656" y="-253" font-family="Helvetica,sans-Serif" font-size="10.00" fill="#000000">openage::Unit::stop</text>
<text text-anchor="middle" x="699" y="-242" font-family="Helvetica,sans-Serif" font-size="10.00" fill="#000000">_gather</text>
</a>
</g>
</g>
<!-- Node147&#45;&gt;Node151 -->
<g id="edge9" class="edge">
<title>Node147&#45;&gt;Node151</title>
<path fill="none" stroke="#191970" d="M372.1667,-189.1629C388.2423,-202.7772 413.9141,-221.9676 440,-231 504.8402,-253.4514 584.1234,-255.9233 637.7607,-254.2363"/>
<polygon fill="#191970" stroke="#191970" points="637.9381,-257.7322 647.801,-253.8625 637.6777,-250.7371 637.9381,-257.7322"/>
</g>
<!-- Node153 -->
<g id="node12" class="node">
<title>Node153</title>
<g id="a_node12"><a xlink:href="../../df/dea/classopenage_1_1_unit.xhtml#a9f53ef015fca7c42ff3bf9d0779145a3" target="_top" xlink:title="removes all actions above and including the first interuptable action this will stop any of the units...">
<polygon fill="#ffffff" stroke="#000000" points="466.5,-279 466.5,-309 568.5,-309 568.5,-279 466.5,-279"/>
<text text-anchor="start" x="474.5" y="-297" font-family="Helvetica,sans-Serif" font-size="10.00" fill="#000000">openage::Unit::stop</text>
<text text-anchor="middle" x="517.5" y="-286" font-family="Helvetica,sans-Serif" font-size="10.00" fill="#000000">_actions</text>
</a>
</g>
</g>
<!-- Node147&#45;&gt;Node153 -->
<g id="edge11" class="edge">
<title>Node147&#45;&gt;Node153</title>
<path fill="none" stroke="#191970" d="M366.1846,-189.0323C380.8322,-208.6763 408.8992,-243.0355 440,-264 446.0042,-268.0473 452.6328,-271.6607 459.4102,-274.8548"/>
<polygon fill="#191970" stroke="#191970" points="458.1377,-278.1189 468.6998,-278.9519 460.9625,-271.7141 458.1377,-278.1189"/>
</g>
<!-- Node154 -->
<g id="node13" class="node">
<title>Node154</title>
<g id="a_node13"><a xlink:href="../../df/dea/classopenage_1_1_unit.xhtml#ad7f76de394d832d927a9e6d46bd3c93f" target="_top" xlink:title="begins unit removal by popping some actions ">
<polygon fill="#ffffff" stroke="#000000" points="452,-126.5 452,-145.5 583,-145.5 583,-126.5 452,-126.5"/>
<text text-anchor="middle" x="517.5" y="-133.5" font-family="Helvetica,sans-Serif" font-size="10.00" fill="#000000">openage::Unit::delete_unit</text>
</a>
</g>
</g>
<!-- Node147&#45;&gt;Node154 -->
<g id="edge15" class="edge">
<title>Node147&#45;&gt;Node154</title>
<path fill="none" stroke="#191970" d="M404.1053,-162.5987C423.9579,-157.942 446.9189,-152.5561 466.9656,-147.8538"/>
<polygon fill="#191970" stroke="#191970" points="467.9112,-151.227 476.8476,-145.5357 466.3126,-144.412 467.9112,-151.227"/>
</g>
<!-- Node155 -->
<g id="node14" class="node">
<title>Node155</title>
<g id="a_node14"><a xlink:href="../../df/dea/classopenage_1_1_unit.xhtml#adfea298b04684ab09dd8f499dabb8715" target="_top" xlink:title="get a reference which can check against the container to ensure this object still exists ...">
<polygon fill="#ffffff" stroke="#000000" points="461,-88.5 461,-107.5 574,-107.5 574,-88.5 461,-88.5"/>
<text text-anchor="middle" x="517.5" y="-95.5" font-family="Helvetica,sans-Serif" font-size="10.00" fill="#000000">openage::Unit::get_ref</text>
</a>
</g>
</g>
<!-- Node147&#45;&gt;Node155 -->
<g id="edge16" class="edge">
<title>Node147&#45;&gt;Node155</title>
<path fill="none" stroke="#191970" d="M373.8298,-158.8147C390.2283,-145.9448 415.4066,-127.8924 440,-117 445.6525,-114.4965 451.6892,-112.2885 457.8045,-110.349"/>
<polygon fill="#191970" stroke="#191970" points="458.8279,-113.6964 467.435,-107.5184 456.8539,-106.9805 458.8279,-113.6964"/>
</g>
<!-- Node156 -->
<g id="node15" class="node">
<title>Node156</title>
<g id="a_node15"><a xlink:href="../../df/dea/classopenage_1_1_unit.xhtml#a2e9937d84fe91d95cbe273f6fe986068" target="_top" xlink:title="the container used when constructing this unit ">
<polygon fill="#ffffff" stroke="#000000" points="469,-39 469,-69 566,-69 566,-39 469,-39"/>
<text text-anchor="start" x="477" y="-57" font-family="Helvetica,sans-Serif" font-size="10.00" fill="#000000">openage::Unit::get</text>
<text text-anchor="middle" x="517.5" y="-46" font-family="Helvetica,sans-Serif" font-size="10.00" fill="#000000">_container</text>
</a>
</g>
</g>
<!-- Node147&#45;&gt;Node156 -->
<g id="edge17" class="edge">
<title>Node147&#45;&gt;Node156</title>
<path fill="none" stroke="#191970" d="M365.0879,-158.8943C379.0934,-138.0084 407.0905,-100.4643 440,-79 446.0244,-75.0708 452.7151,-71.7159 459.5693,-68.8623"/>
<polygon fill="#191970" stroke="#191970" points="460.8752,-72.1102 468.9702,-65.2749 458.3795,-65.5702 460.8752,-72.1102"/>
</g>
<!-- Node157 -->
<g id="node16" class="node">
<title>Node157</title>
<g id="a_node16"><a xlink:href="../../df/dea/classopenage_1_1_unit.xhtml#ae769f520dfdb148ec831c151a954a881" target="_top" xlink:title="Returns the unit&#39;s name as the LogSource name. ">
<polygon fill="#ffffff" stroke="#000000" points="440,-.5 440,-19.5 595,-19.5 595,-.5 440,-.5"/>
<text text-anchor="middle" x="517.5" y="-7.5" font-family="Helvetica,sans-Serif" font-size="10.00" fill="#000000">openage::Unit::logsource_name</text>
</a>
</g>
</g>
<!-- Node147&#45;&gt;Node157 -->
<g id="edge18" class="edge">
<title>Node147&#45;&gt;Node157</title>
<path fill="none" stroke="#191970" d="M360.001,-158.5589C369.542,-128.6604 394.7223,-62.837 440,-29 442.5263,-27.1121 445.2161,-25.4096 448.0205,-23.8747"/>
<polygon fill="#191970" stroke="#191970" points="449.7384,-26.9349 457.3064,-19.5202 446.7664,-20.5971 449.7384,-26.9349"/>
</g>
<!-- Node150 -->
<g id="node9" class="node">
<title>Node150</title>
<g id="a_node9"><a xlink:href="../../d8/dda/classopenage_1_1_command.xhtml#afbc0a60d82b9608e375c38c5e3fdf758" target="_top" xlink:title="the ability types allowed to use this command ">
<polygon fill="#ffffff" stroke="#000000" points="631,-164.5 631,-183.5 767,-183.5 767,-164.5 631,-164.5"/>
<text text-anchor="middle" x="699" y="-171.5" font-family="Helvetica,sans-Serif" font-size="10.00" fill="#000000">openage::Command::ability</text>
</a>
</g>
</g>
<!-- Node149&#45;&gt;Node150 -->
<g id="edge8" class="edge">
<title>Node149&#45;&gt;Node150</title>
<path fill="none" stroke="#191970" d="M584.5682,-174C596.402,-174 608.8134,-174 620.9182,-174"/>
<polygon fill="#191970" stroke="#191970" points="620.9946,-177.5001 630.9946,-174 620.9945,-170.5001 620.9946,-177.5001"/>
</g>
<!-- Node152 -->
<g id="node11" class="node">
<title>Node152</title>
<g id="a_node11"><a xlink:href="../../df/dea/classopenage_1_1_unit.xhtml#aae0b3f53cb1d75823391322876d199ef" target="_top" xlink:title="erase from action specified by func to the end of the stack all actions erased will have the on_compl...">
<polygon fill="#ffffff" stroke="#000000" points="811,-257 811,-287 918,-287 918,-257 811,-257"/>
<text text-anchor="start" x="819" y="-275" font-family="Helvetica,sans-Serif" font-size="10.00" fill="#000000">openage::Unit::erase</text>
<text text-anchor="middle" x="864.5" y="-264" font-family="Helvetica,sans-Serif" font-size="10.00" fill="#000000">_after</text>
</a>
</g>
</g>
<!-- Node151&#45;&gt;Node152 -->
<g id="edge10" class="edge">
<title>Node151&#45;&gt;Node152</title>
<path fill="none" stroke="#191970" d="M750.0059,-256.7802C765.9723,-258.9027 783.7971,-261.2721 800.5387,-263.4976"/>
<polygon fill="#191970" stroke="#191970" points="800.4223,-267.0128 810.7964,-264.8611 801.3448,-260.0739 800.4223,-267.0128"/>
</g>
<!-- Node153&#45;&gt;Node145 -->
<g id="edge12" class="edge">
<title>Node153&#45;&gt;Node145</title>
<path fill="none" stroke="#191970" d="M568.5409,-306.3735C590.5524,-311.7097 616.4463,-317.987 639.3383,-323.5365"/>
<polygon fill="#191970" stroke="#191970" points="638.7384,-326.9924 649.2815,-325.947 640.3876,-320.1895 638.7384,-326.9924"/>
</g>
<!-- Node153&#45;&gt;Node151 -->
<g id="edge13" class="edge">
<title>Node153&#45;&gt;Node151</title>
<path fill="none" stroke="#191970" d="M568.5409,-281.6265C590.0957,-276.401 615.3736,-270.2731 637.9096,-264.8098"/>
<polygon fill="#191970" stroke="#191970" points="638.8195,-268.1907 647.7134,-262.4331 637.1702,-261.3877 638.8195,-268.1907"/>
</g>
<!-- Node153&#45;&gt;Node152 -->
<g id="edge14" class="edge">
<title>Node153&#45;&gt;Node152</title>
<path fill="none" stroke="#191970" d="M568.701,-290.7538C630.3864,-286.8429 734.0363,-280.2715 800.8214,-276.0373"/>
<polygon fill="#191970" stroke="#191970" points="801.046,-279.5301 810.8045,-275.4043 800.603,-272.5442 801.046,-279.5301"/>
</g>
<!-- Node158 -->
<g id="node17" class="node">
<title>Node158</title>
<g id="a_node17"><a xlink:href="../../d8/dcc/namespacestd.xhtml#a26aa0f4be3a77ac5cc3ce0cabb545042" target="_top" xlink:title="std::to_string">
<polygon fill="#ffffff" stroke="#000000" points="662,-.5 662,-19.5 736,-19.5 736,-.5 662,-.5"/>
<text text-anchor="middle" x="699" y="-7.5" font-family="Helvetica,sans-Serif" font-size="10.00" fill="#000000">std::to_string</text>
</a>
</g>
</g>
<!-- Node157&#45;&gt;Node158 -->
<g id="edge19" class="edge">
<title>Node157&#45;&gt;Node158</title>
<path fill="none" stroke="#191970" d="M595.2622,-10C614.3849,-10 634.2933,-10 651.4958,-10"/>
<polygon fill="#191970" stroke="#191970" points="651.826,-13.5001 661.8259,-10 651.8259,-6.5001 651.826,-13.5001"/>
</g>
</g>
</svg>
