<?xml version="1.0" encoding="UTF-8" standalone="no"?>
<!DOCTYPE svg PUBLIC "-//W3C//DTD SVG 1.1//EN"
 "http://www.w3.org/Graphics/SVG/1.1/DTD/svg11.dtd">
<!-- Generated by graphviz version 2.40.1 (20161225.0304)
 -->
<!-- Title: openage::Player::get_workforce_count Pages: 1 -->
<svg width="622pt" height="264pt"
 viewBox="0.00 0.00 622.00 264.00" xmlns="http://www.w3.org/2000/svg" xmlns:xlink="http://www.w3.org/1999/xlink">
<g id="graph0" class="graph" transform="scale(1 1) rotate(0) translate(4 260)">
<title>openage::Player::get_workforce_count</title>
<polygon fill="#ffffff" stroke="transparent" points="-4,4 -4,-260 618,-260 618,4 -4,4"/>
<!-- Node201 -->
<g id="node1" class="node">
<title>Node201</title>
<polygon fill="#bfbfbf" stroke="#000000" points="0,-93.5 0,-123.5 107,-123.5 107,-93.5 0,-93.5"/>
<text text-anchor="start" x="8" y="-111.5" font-family="Helvetica,sans-Serif" font-size="10.00" fill="#000000">openage::Player::get</text>
<text text-anchor="middle" x="53.5" y="-100.5" font-family="Helvetica,sans-Serif" font-size="10.00" fill="#000000">_workforce_count</text>
</g>
<!-- Node202 -->
<g id="node2" class="node">
<title>Node202</title>
<g id="a_node2"><a xlink:href="../../d8/d5b/classopenage_1_1_resource_cost.xhtml#a916923be9959f675aadb992258068e32" target="_top" xlink:title="Returns the cost. ">
<polygon fill="#ffffff" stroke="#000000" points="143,-118 143,-137 285,-137 285,-118 143,-118"/>
<text text-anchor="middle" x="214" y="-125" font-family="Helvetica,sans-Serif" font-size="10.00" fill="#000000">openage::ResourceCost::get</text>
</a>
</g>
</g>
<!-- Node201&#45;&gt;Node202 -->
<g id="edge1" class="edge">
<title>Node201&#45;&gt;Node202</title>
<path fill="none" stroke="#191970" d="M117.4361,-116.0688C125.7929,-117.058 134.3961,-118.0765 142.8622,-119.0787"/>
<polygon fill="#191970" stroke="#191970" points="117.7328,-112.5795 107.3907,-114.8796 116.9098,-119.531 117.7328,-112.5795"/>
</g>
<!-- Node211 -->
<g id="node11" class="node">
<title>Node211</title>
<g id="a_node11"><a xlink:href="../../d8/d47/classopenage_1_1_player.xhtml#a684dfdb6a9add2fb4bf76c1f4e87ec86" target="_top" xlink:title="Get the current age. ">
<polygon fill="#ffffff" stroke="#000000" points="150,-80 150,-99 278,-99 278,-80 150,-80"/>
<text text-anchor="middle" x="214" y="-87" font-family="Helvetica,sans-Serif" font-size="10.00" fill="#000000">openage::Player::get_age</text>
</a>
</g>
</g>
<!-- Node201&#45;&gt;Node211 -->
<g id="edge10" class="edge">
<title>Node201&#45;&gt;Node211</title>
<path fill="none" stroke="#191970" d="M117.4912,-100.9247C128.1819,-99.6592 139.2744,-98.346 149.9662,-97.0803"/>
<polygon fill="#191970" stroke="#191970" points="116.9098,-97.469 107.3907,-102.1204 117.7328,-104.4205 116.9098,-97.469"/>
</g>
<!-- Node203 -->
<g id="node3" class="node">
<title>Node203</title>
<g id="a_node3"><a xlink:href="../../d8/d06/classopenage_1_1_action_mode.xhtml#a3865e557756044d8183a3d24cd5b8ab4" target="_top" xlink:title="places hovering building ">
<polygon fill="#ffffff" stroke="#000000" points="334.5,-225.5 334.5,-255.5 445.5,-255.5 445.5,-225.5 334.5,-225.5"/>
<text text-anchor="start" x="342.5" y="-243.5" font-family="Helvetica,sans-Serif" font-size="10.00" fill="#000000">openage::ActionMode</text>
<text text-anchor="middle" x="390" y="-232.5" font-family="Helvetica,sans-Serif" font-size="10.00" fill="#000000">::place_selection</text>
</a>
</g>
</g>
<!-- Node202&#45;&gt;Node203 -->
<g id="edge2" class="edge">
<title>Node202&#45;&gt;Node203</title>
<path fill="none" stroke="#191970" d="M230.839,-144.4994C250.8365,-163.8966 285.9195,-195.5102 321,-215.5 327.5314,-219.2217 334.7172,-222.5559 341.9088,-225.4834"/>
<polygon fill="#191970" stroke="#191970" points="233.0514,-141.7658 223.4719,-137.2399 228.1382,-146.7518 233.0514,-141.7658"/>
</g>
<!-- Node205 -->
<g id="node5" class="node">
<title>Node205</title>
<g id="a_node5"><a xlink:href="../../d8/d47/classopenage_1_1_player.xhtml#a4909a76cf5b65e544b1a62dc21147d77" target="_top" xlink:title="Check if the player can make a new unit of the given type. ">
<polygon fill="#ffffff" stroke="#000000" points="321,-187 321,-206 459,-206 459,-187 321,-187"/>
<text text-anchor="middle" x="390" y="-194" font-family="Helvetica,sans-Serif" font-size="10.00" fill="#000000">openage::Player::can_make</text>
</a>
</g>
</g>
<!-- Node202&#45;&gt;Node205 -->
<g id="edge4" class="edge">
<title>Node202&#45;&gt;Node205</title>
<path fill="none" stroke="#191970" d="M241.7055,-141.5557C263.0327,-152.0382 293.43,-166.2551 321,-176.5 331.2882,-180.3231 342.6566,-183.881 353.1469,-186.9044"/>
<polygon fill="#191970" stroke="#191970" points="243.1009,-138.3409 232.5874,-137.0299 239.9886,-144.611 243.1009,-138.3409"/>
</g>
<!-- Node206 -->
<g id="node6" class="node">
<title>Node206</title>
<g id="a_node6"><a xlink:href="../../d8/d47/classopenage_1_1_player.xhtml#a69c98ddc434aed6aceec5dbb4931f064" target="_top" xlink:title="Called when a unit is created and active. ">
<polygon fill="#ffffff" stroke="#000000" points="330.5,-137.5 330.5,-167.5 449.5,-167.5 449.5,-137.5 330.5,-137.5"/>
<text text-anchor="start" x="338.5" y="-155.5" font-family="Helvetica,sans-Serif" font-size="10.00" fill="#000000">openage::Player::active</text>
<text text-anchor="middle" x="390" y="-144.5" font-family="Helvetica,sans-Serif" font-size="10.00" fill="#000000">_unit_added</text>
</a>
</g>
</g>
<!-- Node202&#45;&gt;Node206 -->
<g id="edge5" class="edge">
<title>Node202&#45;&gt;Node206</title>
<path fill="none" stroke="#191970" d="M291.0309,-138.4419C304.2069,-140.3135 317.7161,-142.2324 330.3521,-144.0273"/>
<polygon fill="#191970" stroke="#191970" points="291.433,-134.964 281.0401,-137.0227 290.4485,-141.8944 291.433,-134.964"/>
</g>
<!-- Node208 -->
<g id="node8" class="node">
<title>Node208</title>
<g id="a_node8"><a xlink:href="../../d8/d47/classopenage_1_1_player.xhtml#ad3f9e5b486a9d6b07402596e3eabca82" target="_top" xlink:title="Called when a unit is destroyed. ">
<polygon fill="#ffffff" stroke="#000000" points="330.5,-88.5 330.5,-118.5 449.5,-118.5 449.5,-88.5 330.5,-88.5"/>
<text text-anchor="start" x="338.5" y="-106.5" font-family="Helvetica,sans-Serif" font-size="10.00" fill="#000000">openage::Player::active</text>
<text text-anchor="middle" x="390" y="-95.5" font-family="Helvetica,sans-Serif" font-size="10.00" fill="#000000">_unit_removed</text>
</a>
</g>
</g>
<!-- Node202&#45;&gt;Node208 -->
<g id="edge7" class="edge">
<title>Node202&#45;&gt;Node208</title>
<path fill="none" stroke="#191970" d="M294.0439,-116.5849C306.3074,-114.9126 318.7786,-113.212 330.4945,-111.6144"/>
<polygon fill="#191970" stroke="#191970" points="293.248,-113.161 283.8126,-117.9801 294.1939,-120.0968 293.248,-113.161"/>
</g>
<!-- Node209 -->
<g id="node9" class="node">
<title>Node209</title>
<g id="a_node9"><a xlink:href="../../d8/d47/classopenage_1_1_player.xhtml#a2d3f269dc4b0acd1972e4d0a32f97c2f" target="_top" xlink:title="Called when a unit is killed by this player. ">
<polygon fill="#ffffff" stroke="#000000" points="321.5,-50 321.5,-69 458.5,-69 458.5,-50 321.5,-50"/>
<text text-anchor="middle" x="390" y="-57" font-family="Helvetica,sans-Serif" font-size="10.00" fill="#000000">openage::Player::killed_unit</text>
</a>
</g>
</g>
<!-- Node202&#45;&gt;Node209 -->
<g id="edge8" class="edge">
<title>Node202&#45;&gt;Node209</title>
<path fill="none" stroke="#191970" d="M270.8081,-114.7083C275.714,-112.8861 280.5125,-110.8254 285,-108.5 303.4919,-98.9173 302.5428,-88.1494 321,-78.5 328.2673,-74.7007 336.3736,-71.5975 344.4033,-69.084"/>
<polygon fill="#191970" stroke="#191970" points="269.6466,-111.4063 261.2949,-117.9255 271.8892,-118.0374 269.6466,-111.4063"/>
</g>
<!-- Node210 -->
<g id="node10" class="node">
<title>Node210</title>
<g id="a_node10"><a xlink:href="../../db/da0/classopenage_1_1_repair_action.xhtml#a30a410ac792adbc34048d4af46a770e2" target="_top" xlink:title="openage::RepairAction\l::RepairAction">
<polygon fill="#ffffff" stroke="#000000" points="332,-.5 332,-30.5 448,-30.5 448,-.5 332,-.5"/>
<text text-anchor="start" x="340" y="-18.5" font-family="Helvetica,sans-Serif" font-size="10.00" fill="#000000">openage::RepairAction</text>
<text text-anchor="middle" x="390" y="-7.5" font-family="Helvetica,sans-Serif" font-size="10.00" fill="#000000">::RepairAction</text>
</a>
</g>
</g>
<!-- Node202&#45;&gt;Node210 -->
<g id="edge9" class="edge">
<title>Node202&#45;&gt;Node210</title>
<path fill="none" stroke="#191970" d="M277.6895,-113.471C280.2551,-111.9776 282.7076,-110.3262 285,-108.5 311.7466,-87.1926 295.1955,-62.9391 321,-40.5 325.4227,-36.6541 330.4838,-33.3832 335.8111,-30.6047"/>
<polygon fill="#191970" stroke="#191970" points="276.014,-110.3949 268.5999,-117.9634 279.1156,-116.6703 276.014,-110.3949"/>
</g>
<!-- Node204 -->
<g id="node4" class="node">
<title>Node204</title>
<g id="a_node4"><a xlink:href="../../d8/d06/classopenage_1_1_action_mode.xhtml#a43f98279255b857ee8fa9943117271e8" target="_top" xlink:title="Called after GameControl has been set by QML from set_game_control. ">
<polygon fill="#ffffff" stroke="#000000" points="496.5,-225.5 496.5,-255.5 612.5,-255.5 612.5,-225.5 496.5,-225.5"/>
<text text-anchor="start" x="504.5" y="-243.5" font-family="Helvetica,sans-Serif" font-size="10.00" fill="#000000">openage::ActionMode</text>
<text text-anchor="middle" x="554.5" y="-232.5" font-family="Helvetica,sans-Serif" font-size="10.00" fill="#000000">::on_game_control_set</text>
</a>
</g>
</g>
<!-- Node203&#45;&gt;Node204 -->
<g id="edge3" class="edge">
<title>Node203&#45;&gt;Node204</title>
<path fill="none" stroke="#191970" d="M455.8003,-240.5C469.2061,-240.5 483.2198,-240.5 496.3371,-240.5"/>
<polygon fill="#191970" stroke="#191970" points="455.6922,-237.0001 445.6922,-240.5 455.6922,-244.0001 455.6922,-237.0001"/>
</g>
<!-- Node207 -->
<g id="node7" class="node">
<title>Node207</title>
<g id="a_node7"><a xlink:href="../../d2/d82/classopenage_1_1_unit_container.xhtml#a9ef13f975890f222c360b8a5e3242939" target="_top" xlink:title="adds a new unit to the container and initialises using a unit type ">
<polygon fill="#ffffff" stroke="#000000" points="495,-137.5 495,-167.5 614,-167.5 614,-137.5 495,-137.5"/>
<text text-anchor="start" x="503" y="-155.5" font-family="Helvetica,sans-Serif" font-size="10.00" fill="#000000">openage::UnitContainer</text>
<text text-anchor="middle" x="554.5" y="-144.5" font-family="Helvetica,sans-Serif" font-size="10.00" fill="#000000">::new_unit</text>
</a>
</g>
</g>
<!-- Node206&#45;&gt;Node207 -->
<g id="edge6" class="edge">
<title>Node206&#45;&gt;Node207</title>
<path fill="none" stroke="#191970" d="M459.9787,-152.5C471.6264,-152.5 483.6098,-152.5 494.9664,-152.5"/>
<polygon fill="#191970" stroke="#191970" points="459.8537,-149.0001 449.8536,-152.5 459.8536,-156.0001 459.8537,-149.0001"/>
</g>
</g>
</svg>
