<?xml version="1.0" encoding="UTF-8" standalone="no"?>
<!DOCTYPE svg PUBLIC "-//W3C//DTD SVG 1.1//EN"
 "http://www.w3.org/Graphics/SVG/1.1/DTD/svg11.dtd">
<!-- Generated by graphviz version 2.40.1 (20161225.0304)
 -->
<!-- Title: openage::Player::can_make Pages: 1 -->
<svg width="680pt" height="215pt"
 viewBox="0.00 0.00 680.00 214.50" xmlns="http://www.w3.org/2000/svg" xmlns:xlink="http://www.w3.org/1999/xlink">
<g id="graph0" class="graph" transform="scale(1 1) rotate(0) translate(4 210.5)">
<title>openage::Player::can_make</title>
<polygon fill="#ffffff" stroke="transparent" points="-4,4 -4,-210.5 676,-210.5 676,4 -4,4"/>
<!-- Node99 -->
<g id="node1" class="node">
<title>Node99</title>
<polygon fill="#bfbfbf" stroke="#000000" points="0,-93.5 0,-112.5 138,-112.5 138,-93.5 0,-93.5"/>
<text text-anchor="middle" x="69" y="-100.5" font-family="Helvetica,sans-Serif" font-size="10.00" fill="#000000">openage::Player::can_make</text>
</g>
<!-- Node100 -->
<g id="node2" class="node">
<title>Node100</title>
<g id="a_node2"><a xlink:href="../../d8/d47/classopenage_1_1_player.xhtml#a5511f9f158fdeabca07be9d5314d7c38" target="_top" xlink:title="Check if the player has enough resources to deduct the given amount. ">
<polygon fill="#ffffff" stroke="#000000" points="190.5,-176 190.5,-206 299.5,-206 299.5,-176 190.5,-176"/>
<text text-anchor="start" x="198.5" y="-194" font-family="Helvetica,sans-Serif" font-size="10.00" fill="#000000">openage::Player::can</text>
<text text-anchor="middle" x="245" y="-183" font-family="Helvetica,sans-Serif" font-size="10.00" fill="#000000">_deduct</text>
</a>
</g>
</g>
<!-- Node99&#45;&gt;Node100 -->
<g id="edge1" class="edge">
<title>Node99&#45;&gt;Node100</title>
<path fill="none" stroke="#191970" d="M83.0978,-112.7218C102.789,-126.0023 139.9479,-149.9903 174,-166 178.6123,-168.1685 183.467,-170.2565 188.3834,-172.2382"/>
<polygon fill="#191970" stroke="#191970" points="187.2771,-175.563 197.8662,-175.9113 189.8055,-169.0355 187.2771,-175.563"/>
</g>
<!-- Node102 -->
<g id="node4" class="node">
<title>Node102</title>
<g id="a_node4"><a xlink:href="../../d8/d5b/classopenage_1_1_resource_cost.xhtml#a916923be9959f675aadb992258068e32" target="_top" xlink:title="Returns the cost. ">
<polygon fill="#ffffff" stroke="#000000" points="174,-137.5 174,-156.5 316,-156.5 316,-137.5 174,-137.5"/>
<text text-anchor="middle" x="245" y="-144.5" font-family="Helvetica,sans-Serif" font-size="10.00" fill="#000000">openage::ResourceCost::get</text>
</a>
</g>
</g>
<!-- Node99&#45;&gt;Node102 -->
<g id="edge3" class="edge">
<title>Node99&#45;&gt;Node102</title>
<path fill="none" stroke="#191970" d="M107.1894,-112.5473C133.4816,-119.1204 168.6192,-127.9048 196.833,-134.9583"/>
<polygon fill="#191970" stroke="#191970" points="196.3348,-138.4414 206.8852,-137.4713 198.0326,-131.6504 196.3348,-138.4414"/>
</g>
<!-- Node106 -->
<g id="node8" class="node">
<title>Node106</title>
<g id="a_node8"><a xlink:href="../../d8/d47/classopenage_1_1_player.xhtml#a03454af8fd68e803804e2619b62b7231" target="_top" xlink:title="Get the number of units the player has for each unit type id. ">
<polygon fill="#ffffff" stroke="#000000" points="191.5,-88 191.5,-118 298.5,-118 298.5,-88 191.5,-88"/>
<text text-anchor="start" x="199.5" y="-106" font-family="Helvetica,sans-Serif" font-size="10.00" fill="#000000">openage::Player::get</text>
<text text-anchor="middle" x="245" y="-95" font-family="Helvetica,sans-Serif" font-size="10.00" fill="#000000">_units_have</text>
</a>
</g>
</g>
<!-- Node99&#45;&gt;Node106 -->
<g id="edge7" class="edge">
<title>Node99&#45;&gt;Node106</title>
<path fill="none" stroke="#191970" d="M138.0547,-103C152.3137,-103 167.2693,-103 181.3261,-103"/>
<polygon fill="#191970" stroke="#191970" points="181.3801,-106.5001 191.3801,-103 181.3801,-99.5001 181.3801,-106.5001"/>
</g>
<!-- Node107 -->
<g id="node9" class="node">
<title>Node107</title>
<g id="a_node9"><a xlink:href="../../d8/d47/classopenage_1_1_player.xhtml#a2befde4e71e0efad0e77bf8525311a79" target="_top" xlink:title="Get the number of units the player has being made for each unit type id. ">
<polygon fill="#ffffff" stroke="#000000" points="191.5,-39 191.5,-69 298.5,-69 298.5,-39 191.5,-39"/>
<text text-anchor="start" x="199.5" y="-57" font-family="Helvetica,sans-Serif" font-size="10.00" fill="#000000">openage::Player::get</text>
<text text-anchor="middle" x="245" y="-46" font-family="Helvetica,sans-Serif" font-size="10.00" fill="#000000">_units_pending</text>
</a>
</g>
</g>
<!-- Node99&#45;&gt;Node107 -->
<g id="edge8" class="edge">
<title>Node99&#45;&gt;Node107</title>
<path fill="none" stroke="#191970" d="M103.3524,-93.436C125.5287,-87.2619 155.0552,-79.0415 181.4099,-71.7041"/>
<polygon fill="#191970" stroke="#191970" points="182.6385,-74.9952 191.3333,-68.9413 180.761,-68.2517 182.6385,-74.9952"/>
</g>
<!-- Node108 -->
<g id="node10" class="node">
<title>Node108</title>
<g id="a_node10"><a xlink:href="../../dd/d39/classopenage_1_1_unit_type.xhtml#ad295b572c0aa0399a04133dc61fb8a4b" target="_top" xlink:title="gets the unique id of this unit type ">
<polygon fill="#ffffff" stroke="#000000" points="188.5,-.5 188.5,-19.5 301.5,-19.5 301.5,-.5 188.5,-.5"/>
<text text-anchor="middle" x="245" y="-7.5" font-family="Helvetica,sans-Serif" font-size="10.00" fill="#000000">openage::UnitType::id</text>
</a>
</g>
</g>
<!-- Node99&#45;&gt;Node108 -->
<g id="edge9" class="edge">
<title>Node99&#45;&gt;Node108</title>
<path fill="none" stroke="#191970" d="M79.8314,-93.3709C98.025,-77.6791 136.4297,-46.5818 174,-29 179.0563,-26.6338 184.458,-24.5215 189.9394,-22.6453"/>
<polygon fill="#191970" stroke="#191970" points="191.3533,-25.8692 199.8346,-19.5194 189.2447,-19.1943 191.3533,-25.8692"/>
</g>
<!-- Node101 -->
<g id="node3" class="node">
<title>Node101</title>
<g id="a_node3"><a xlink:href="../../d2/de9/classopenage_1_1_resource_bundle.xhtml#a386ff157dd71560a8c9b1578fe5386e6" target="_top" xlink:title="openage::ResourceBundle::has">
<polygon fill="#ffffff" stroke="#000000" points="352,-181.5 352,-200.5 505,-200.5 505,-181.5 352,-181.5"/>
<text text-anchor="middle" x="428.5" y="-188.5" font-family="Helvetica,sans-Serif" font-size="10.00" fill="#000000">openage::ResourceBundle::has</text>
</a>
</g>
</g>
<!-- Node100&#45;&gt;Node101 -->
<g id="edge2" class="edge">
<title>Node100&#45;&gt;Node101</title>
<path fill="none" stroke="#191970" d="M299.5592,-191C312.7361,-191 327.1449,-191 341.4035,-191"/>
<polygon fill="#191970" stroke="#191970" points="341.7396,-194.5001 351.7396,-191 341.7396,-187.5001 341.7396,-194.5001"/>
</g>
<!-- Node103 -->
<g id="node5" class="node">
<title>Node103</title>
<g id="a_node5"><a xlink:href="../../d2/de9/classopenage_1_1_resource_bundle.xhtml#aec4c3c3cae1b78ff42a0bc533929e51c" target="_top" xlink:title="openage::ResourceBundle\l::clone">
<polygon fill="#ffffff" stroke="#000000" points="363,-132 363,-162 494,-162 494,-132 363,-132"/>
<text text-anchor="start" x="371" y="-150" font-family="Helvetica,sans-Serif" font-size="10.00" fill="#000000">openage::ResourceBundle</text>
<text text-anchor="middle" x="428.5" y="-139" font-family="Helvetica,sans-Serif" font-size="10.00" fill="#000000">::clone</text>
</a>
</g>
</g>
<!-- Node102&#45;&gt;Node103 -->
<g id="edge4" class="edge">
<title>Node102&#45;&gt;Node103</title>
<path fill="none" stroke="#191970" d="M316.2085,-147C328.1718,-147 340.6262,-147 352.7004,-147"/>
<polygon fill="#191970" stroke="#191970" points="352.7342,-150.5001 362.7342,-147 352.7341,-143.5001 352.7342,-150.5001"/>
</g>
<!-- Node105 -->
<g id="node7" class="node">
<title>Node105</title>
<g id="a_node7"><a xlink:href="../../d8/d47/classopenage_1_1_player.xhtml#af95cd6a1823c78ef20a347369901830d" target="_top" xlink:title="The number of units considered part of the workforce. ">
<polygon fill="#ffffff" stroke="#000000" points="375,-83 375,-113 482,-113 482,-83 375,-83"/>
<text text-anchor="start" x="383" y="-101" font-family="Helvetica,sans-Serif" font-size="10.00" fill="#000000">openage::Player::get</text>
<text text-anchor="middle" x="428.5" y="-90" font-family="Helvetica,sans-Serif" font-size="10.00" fill="#000000">_workforce_count</text>
</a>
</g>
</g>
<!-- Node102&#45;&gt;Node105 -->
<g id="edge6" class="edge">
<title>Node102&#45;&gt;Node105</title>
<path fill="none" stroke="#191970" d="M280.8163,-137.436C304.7011,-131.058 336.7638,-122.4963 364.911,-114.9802"/>
<polygon fill="#191970" stroke="#191970" points="365.9253,-118.332 374.6838,-112.3705 364.1194,-111.569 365.9253,-118.332"/>
</g>
<!-- Node104 -->
<g id="node6" class="node">
<title>Node104</title>
<g id="a_node6"><a xlink:href="../../d2/de9/classopenage_1_1_resource_bundle.xhtml#acc8ae3310aa9478c9b4fee2cabc8134e" target="_top" xlink:title="openage::ResourceBundle\l::ResourceBundle">
<polygon fill="#ffffff" stroke="#000000" points="541,-132 541,-162 672,-162 672,-132 541,-132"/>
<text text-anchor="start" x="549" y="-150" font-family="Helvetica,sans-Serif" font-size="10.00" fill="#000000">openage::ResourceBundle</text>
<text text-anchor="middle" x="606.5" y="-139" font-family="Helvetica,sans-Serif" font-size="10.00" fill="#000000">::ResourceBundle</text>
</a>
</g>
</g>
<!-- Node103&#45;&gt;Node104 -->
<g id="edge5" class="edge">
<title>Node103&#45;&gt;Node104</title>
<path fill="none" stroke="#191970" d="M494.0223,-147C505.9487,-147 518.4808,-147 530.6754,-147"/>
<polygon fill="#191970" stroke="#191970" points="530.8189,-150.5001 540.8189,-147 530.8188,-143.5001 530.8189,-150.5001"/>
</g>
</g>
</svg>
