<?xml version="1.0" encoding="UTF-8" standalone="no"?>
<!DOCTYPE svg PUBLIC "-//W3C//DTD SVG 1.1//EN"
 "http://www.w3.org/Graphics/SVG/1.1/DTD/svg11.dtd">
<!-- Generated by graphviz version 2.40.1 (20161225.0304)
 -->
<!-- Title: openage::Player::initialise_unit_types Pages: 1 -->
<!--zoomable 132 -->
<svg id="main" version="1.1" xmlns="http://www.w3.org/2000/svg" xmlns:xlink="http://www.w3.org/1999/xlink" xml:space="preserve" onload="init(evt)">
<style type="text/css"><![CDATA[
.edge:hover path { stroke: red; }
.edge:hover polygon { stroke: red; fill: red; }
]]></style>
<script type="text/javascript"><![CDATA[
var edges = document.getElementsByTagName('g');
if (edges && edges.length) {
  for (var i=0;i<edges.length;i++) {
    if (edges[i].id.substr(0,4)=='edge') {
      edges[i].setAttribute('class','edge');
    }
  }
}
]]></script>
        <defs>
                <circle id="rim" cx="0" cy="0" r="7"/>
                <circle id="rim2" cx="0" cy="0" r="3.5"/>
                <g id="zoomPlus">
                        <use xlink:href="#rim" fill="#404040">
                                <set attributeName="fill" to="#808080" begin="zoomplus.mouseover" end="zoomplus.mouseout"/>
                        </use>
                        <path d="M-4,0h8M0,-4v8" fill="none" stroke="white" stroke-width="1.5" pointer-events="none"/>
                </g>
                <g id="zoomMin">
                        <use xlink:href="#rim" fill="#404040">
                                <set attributeName="fill" to="#808080" begin="zoomminus.mouseover" end="zoomminus.mouseout"/>
                        </use>
                        <path d="M-4,0h8" fill="none" stroke="white" stroke-width="1.5" pointer-events="none"/>
                </g>
                <g id="dirArrow">
                        <path fill="none" stroke="white" stroke-width="1.5" d="M0,-3.0v7 M-2.5,-0.5L0,-3.0L2.5,-0.5"/>
                </g>
               <g id="resetDef">
                       <use xlink:href="#rim2" fill="#404040">
                               <set attributeName="fill" to="#808080" begin="reset.mouseover" end="reset.mouseout"/>
                       </use>
               </g>
        </defs>

<script type="text/javascript">
var viewWidth = 642;
var viewHeight = 132;
var sectionId = 'dynsection-24';
</script>
<script xlink:href="../../svgpan.js"/>
<svg id="graph" class="graph">
<g id="viewport">
<title>openage::Player::initialise_unit_types</title>
<polygon fill="#ffffff" stroke="transparent" points="-4,4 -4,-128 638,-128 638,4 -4,4"/>
<!-- Node212 -->
<g id="node1" class="node">
<title>Node212</title>
<polygon fill="#bfbfbf" stroke="#000000" points="0,-61 0,-91 128,-91 128,-61 0,-61"/>
<text text-anchor="start" x="8" y="-79" font-family="Helvetica,sans-Serif" font-size="10.00" fill="#000000">openage::Player::initialise</text>
<text text-anchor="middle" x="64" y="-68" font-family="Helvetica,sans-Serif" font-size="10.00" fill="#000000">_unit_types</text>
</g>
<!-- Node213 -->
<g id="node2" class="node">
<title>Node213</title>
<g id="a_node2"><a xlink:href="../../dd/d1a/namespaceopenage_1_1log.xhtml#a403182e8d0c54bd49bea6934c3cb1e28" target="_top" xlink:title="info message ">
<polygon fill="#ffffff" stroke="#000000" points="173.5,-104.5 173.5,-123.5 261.5,-123.5 261.5,-104.5 173.5,-104.5"/>
<text text-anchor="middle" x="217.5" y="-111.5" font-family="Helvetica,sans-Serif" font-size="10.00" fill="#000000">openage.log.info</text>
</a>
</g>
</g>
<!-- Node212&#45;&gt;Node213 -->
<g id="edge1" class="edge">
<title>Node212&#45;&gt;Node213</title>
<path fill="none" stroke="#191970" d="M124.6673,-91.0186C139.3677,-94.6578 154.8924,-98.501 168.9507,-101.9813"/>
<polygon fill="#191970" stroke="#191970" points="168.3475,-105.4375 178.8955,-104.4432 170.0296,-98.6426 168.3475,-105.4375"/>
</g>
<!-- Node214 -->
<g id="node3" class="node">
<title>Node214</title>
<g id="a_node3"><a xlink:href="../../dd/d1a/namespaceopenage_1_1log.xhtml#a0eff614e7d6e818746700ed9d29e583f" target="_top" xlink:title="Convenience method that makes use of the &#39;general&#39; LogSource. ">
<polygon fill="#ffffff" stroke="#000000" points="172,-66.5 172,-85.5 263,-85.5 263,-66.5 172,-66.5"/>
<text text-anchor="middle" x="217.5" y="-73.5" font-family="Helvetica,sans-Serif" font-size="10.00" fill="#000000">openage::log::log</text>
</a>
</g>
</g>
<!-- Node212&#45;&gt;Node214 -->
<g id="edge2" class="edge">
<title>Node212&#45;&gt;Node214</title>
<path fill="none" stroke="#191970" d="M128.2084,-76C139.2903,-76 150.7306,-76 161.5715,-76"/>
<polygon fill="#191970" stroke="#191970" points="161.7503,-79.5001 171.7502,-76 161.7502,-72.5001 161.7503,-79.5001"/>
</g>
<!-- Node220 -->
<g id="node9" class="node">
<title>Node220</title>
<g id="a_node9"><a xlink:href="../../de/d7a/classopenage_1_1_civilisation.xhtml#acc3a4d02c42d7f8eda5b9b87175f4613" target="_top" xlink:title="return all the objects available to this civ ">
<polygon fill="#ffffff" stroke="#000000" points="164,-17 164,-47 271,-47 271,-17 164,-17"/>
<text text-anchor="start" x="172" y="-35" font-family="Helvetica,sans-Serif" font-size="10.00" fill="#000000">openage::Civilisation</text>
<text text-anchor="middle" x="217.5" y="-24" font-family="Helvetica,sans-Serif" font-size="10.00" fill="#000000">::object_meta</text>
</a>
</g>
</g>
<!-- Node212&#45;&gt;Node220 -->
<g id="edge8" class="edge">
<title>Node212&#45;&gt;Node220</title>
<path fill="none" stroke="#191970" d="M116.3967,-60.9808C128.9236,-57.39 142.4161,-53.5224 155.3361,-49.819"/>
<polygon fill="#191970" stroke="#191970" points="156.4306,-53.1463 165.079,-47.0262 154.5017,-46.4173 156.4306,-53.1463"/>
</g>
<!-- Node215 -->
<g id="node4" class="node">
<title>Node215</title>
<g id="a_node4"><a xlink:href="../../dd/d1a/namespaceopenage_1_1log.xhtml#a3fbb0c225d01e222648ec28a43507188" target="_top" xlink:title="Returns a reference to a general named log source, for use by log::log(). ">
<polygon fill="#ffffff" stroke="#000000" points="323.5,-83 323.5,-113 433.5,-113 433.5,-83 323.5,-83"/>
<text text-anchor="start" x="331.5" y="-101" font-family="Helvetica,sans-Serif" font-size="10.00" fill="#000000">openage::log::general</text>
<text text-anchor="middle" x="378.5" y="-90" font-family="Helvetica,sans-Serif" font-size="10.00" fill="#000000">_source</text>
</a>
</g>
</g>
<!-- Node214&#45;&gt;Node215 -->
<g id="edge3" class="edge">
<title>Node214&#45;&gt;Node215</title>
<path fill="none" stroke="#191970" d="M263.2055,-82.2455C278.68,-84.36 296.2786,-86.7648 312.9847,-89.0476"/>
<polygon fill="#191970" stroke="#191970" points="312.8625,-92.5633 323.2443,-90.4495 313.8103,-85.6278 312.8625,-92.5633"/>
</g>
<!-- Node216 -->
<g id="node5" class="node">
<title>Node216</title>
<g id="a_node5"><a xlink:href="../../de/de3/classopenage_1_1log_1_1_log_source.xhtml#a5640099e20af4cd368c767dbcef3a1df" target="_top" xlink:title="Logs a message (get one via MSG(level)). ">
<polygon fill="#ffffff" stroke="#000000" points="307,-44.5 307,-63.5 450,-63.5 450,-44.5 307,-44.5"/>
<text text-anchor="middle" x="378.5" y="-51.5" font-family="Helvetica,sans-Serif" font-size="10.00" fill="#000000">openage::log::LogSource::log</text>
</a>
</g>
</g>
<!-- Node214&#45;&gt;Node216 -->
<g id="edge4" class="edge">
<title>Node214&#45;&gt;Node216</title>
<path fill="none" stroke="#191970" d="M263.2055,-69.7545C274.3178,-68.2361 286.5256,-66.5679 298.7115,-64.9028"/>
<polygon fill="#191970" stroke="#191970" points="299.4841,-68.3298 308.9181,-63.5081 298.5363,-61.3943 299.4841,-68.3298"/>
</g>
<!-- Node217 -->
<g id="node6" class="node">
<title>Node217</title>
<g id="a_node6"><a xlink:href="../../dd/d1a/namespaceopenage_1_1log.xhtml#a3d2885be9c3a09b9ff7ee8764b2e5f39" target="_top" xlink:title="Returns a reference to the global stdout logsink object; Initializes the object if needed...">
<polygon fill="#ffffff" stroke="#000000" points="508,-88 508,-118 612,-118 612,-88 508,-88"/>
<text text-anchor="start" x="516" y="-106" font-family="Helvetica,sans-Serif" font-size="10.00" fill="#000000">openage::log::global</text>
<text text-anchor="middle" x="560" y="-95" font-family="Helvetica,sans-Serif" font-size="10.00" fill="#000000">_stdoutsink</text>
</a>
</g>
</g>
<!-- Node216&#45;&gt;Node217 -->
<g id="edge5" class="edge">
<title>Node216&#45;&gt;Node217</title>
<path fill="none" stroke="#191970" d="M413.9259,-63.564C437.8272,-70.0167 470.008,-78.7046 498.0812,-86.2836"/>
<polygon fill="#191970" stroke="#191970" points="497.2527,-89.6852 507.8194,-88.9127 499.0773,-82.9272 497.2527,-89.6852"/>
</g>
<!-- Node218 -->
<g id="node7" class="node">
<title>Node218</title>
<g id="a_node7"><a xlink:href="../../d0/d58/classopenage_1_1log_1_1_log_sink_list.xhtml#a2d47416fab12651553b4b58c86fd6f84" target="_top" xlink:title="openage::log::LogSinkList\l::instance">
<polygon fill="#ffffff" stroke="#000000" points="495.5,-39 495.5,-69 624.5,-69 624.5,-39 495.5,-39"/>
<text text-anchor="start" x="503.5" y="-57" font-family="Helvetica,sans-Serif" font-size="10.00" fill="#000000">openage::log::LogSinkList</text>
<text text-anchor="middle" x="560" y="-46" font-family="Helvetica,sans-Serif" font-size="10.00" fill="#000000">::instance</text>
</a>
</g>
</g>
<!-- Node216&#45;&gt;Node218 -->
<g id="edge6" class="edge">
<title>Node216&#45;&gt;Node218</title>
<path fill="none" stroke="#191970" d="M450.2336,-54C461.7292,-54 473.651,-54 485.2157,-54"/>
<polygon fill="#191970" stroke="#191970" points="485.267,-57.5001 495.267,-54 485.267,-50.5001 485.267,-57.5001"/>
</g>
<!-- Node219 -->
<g id="node8" class="node">
<title>Node219</title>
<g id="a_node8"><a xlink:href="../../d0/d58/classopenage_1_1log_1_1_log_sink_list.xhtml#a8456b84ab55e1fe151c51438c5bfebdd" target="_top" xlink:title="openage::log::LogSinkList::log">
<polygon fill="#ffffff" stroke="#000000" points="486,-.5 486,-19.5 634,-19.5 634,-.5 486,-.5"/>
<text text-anchor="middle" x="560" y="-7.5" font-family="Helvetica,sans-Serif" font-size="10.00" fill="#000000">openage::log::LogSinkList::log</text>
</a>
</g>
</g>
<!-- Node216&#45;&gt;Node219 -->
<g id="edge7" class="edge">
<title>Node216&#45;&gt;Node219</title>
<path fill="none" stroke="#191970" d="M417.8828,-44.4527C445.1156,-37.8508 481.5503,-29.0181 510.7102,-21.949"/>
<polygon fill="#191970" stroke="#191970" points="511.8002,-25.2863 520.6941,-19.5287 510.1509,-18.4833 511.8002,-25.2863"/>
</g>
</g>
</svg>
        <g id="navigator" transform="translate(0 0)" fill="#404254">
                <rect fill="#f2f5e9" fill-opacity="0.5" stroke="#606060" stroke-width=".5" x="0" y="0" width="60" height="60"/>
                <use id="zoomplus" xlink:href="#zoomPlus" x="17" y="9" onmousedown="handleZoom(evt,'in')"/>
                <use id="zoomminus" xlink:href="#zoomMin" x="42" y="9" onmousedown="handleZoom(evt,'out')"/>
                <use id="reset" xlink:href="#resetDef" x="30" y="36" onmousedown="handleReset()"/>
                <g id="arrowUp" xlink:href="#dirArrow" transform="translate(30 24)" onmousedown="handlePan(0,-1)">
                  <use xlink:href="#rim" fill="#404040">
                        <set attributeName="fill" to="#808080" begin="arrowUp.mouseover" end="arrowUp.mouseout"/>
                  </use>
                  <path fill="none" stroke="white" stroke-width="1.5" d="M0,-3.0v7 M-2.5,-0.5L0,-3.0L2.5,-0.5"/>
                </g>
                <g id="arrowRight" xlink:href="#dirArrow" transform="rotate(90) translate(36 -43)" onmousedown="handlePan(1,0)">
                  <use xlink:href="#rim" fill="#404040">
                        <set attributeName="fill" to="#808080" begin="arrowRight.mouseover" end="arrowRight.mouseout"/>
                  </use>
                  <path fill="none" stroke="white" stroke-width="1.5" d="M0,-3.0v7 M-2.5,-0.5L0,-3.0L2.5,-0.5"/>
                </g>
                <g id="arrowDown" xlink:href="#dirArrow" transform="rotate(180) translate(-30 -48)" onmousedown="handlePan(0,1)">
                  <use xlink:href="#rim" fill="#404040">
                        <set attributeName="fill" to="#808080" begin="arrowDown.mouseover" end="arrowDown.mouseout"/>
                  </use>
                  <path fill="none" stroke="white" stroke-width="1.5" d="M0,-3.0v7 M-2.5,-0.5L0,-3.0L2.5,-0.5"/>
                </g>
                <g id="arrowLeft" xlink:href="#dirArrow" transform="rotate(270) translate(-36 17)" onmousedown="handlePan(-1,0)">
                  <use xlink:href="#rim" fill="#404040">
                        <set attributeName="fill" to="#808080" begin="arrowLeft.mouseover" end="arrowLeft.mouseout"/>
                  </use>
                  <path fill="none" stroke="white" stroke-width="1.5" d="M0,-3.0v7 M-2.5,-0.5L0,-3.0L2.5,-0.5"/>
                </g>
        </g>
        <svg viewBox="0 0 15 15" width="100%" height="30px" preserveAspectRatio="xMaxYMin meet">
         <g id="arrow_out" transform="scale(0.3 0.3)">
          <a xlink:href="classopenage_1_1_player_a95a450855aec639900bf4b5d24e98521_cgraph_org.svg" target="_base">
           <rect id="button" ry="5" rx="5" y="6" x="6" height="38" width="38"
                fill="#f2f5e9" fill-opacity="0.5" stroke="#606060" stroke-width="1.0"/>
           <path id="arrow"
             d="M 11.500037,31.436501 C 11.940474,20.09759 22.043105,11.32322 32.158766,21.979434 L 37.068811,17.246167 C 37.068811,17.246167 37.088388,32 37.088388,32 L 22.160133,31.978069 C 22.160133,31.978069 26.997745,27.140456 26.997745,27.140456 C 18.528582,18.264221 13.291696,25.230495 11.500037,31.436501 z"
             style="fill:#404040;"/>
          </a>
         </g>
        </svg>
</svg>
