<?xml version="1.0" encoding="UTF-8" standalone="no"?>
<!DOCTYPE svg PUBLIC "-//W3C//DTD SVG 1.1//EN"
 "http://www.w3.org/Graphics/SVG/1.1/DTD/svg11.dtd">
<!-- Generated by graphviz version 2.40.1 (20161225.0304)
 -->
<!-- Title: openage::gui::GameMainLink::on_core_adopted Pages: 1 -->
<svg width="330pt" height="78pt"
 viewBox="0.00 0.00 330.00 77.50" xmlns="http://www.w3.org/2000/svg" xmlns:xlink="http://www.w3.org/1999/xlink">
<g id="graph0" class="graph" transform="scale(1 1) rotate(0) translate(4 73.5)">
<title>openage::gui::GameMainLink::on_core_adopted</title>
<polygon fill="#ffffff" stroke="transparent" points="-4,4 -4,-73.5 326,-73.5 326,4 -4,4"/>
<!-- Node17 -->
<g id="node1" class="node">
<title>Node17</title>
<polygon fill="#bfbfbf" stroke="#000000" points="0,-17 0,-47 143,-47 143,-17 0,-17"/>
<text text-anchor="start" x="8" y="-35" font-family="Helvetica,sans-Serif" font-size="10.00" fill="#000000">openage::gui::GameMainLink</text>
<text text-anchor="middle" x="71.5" y="-24" font-family="Helvetica,sans-Serif" font-size="10.00" fill="#000000">::on_core_adopted</text>
</g>
<!-- Node18 -->
<g id="node2" class="node">
<title>Node18</title>
<g id="a_node2"><a xlink:href="../../d4/d5d/classopenage_1_1gui_1_1_game_main_link.xhtml#aa925b45aaa6c1928deea20369e60c907" target="_top" xlink:title="openage::gui::GameMainLink\l::on_game_running">
<polygon fill="#ffffff" stroke="#000000" points="179,-39 179,-69 322,-69 322,-39 179,-39"/>
<text text-anchor="start" x="187" y="-57" font-family="Helvetica,sans-Serif" font-size="10.00" fill="#000000">openage::gui::GameMainLink</text>
<text text-anchor="middle" x="250.5" y="-46" font-family="Helvetica,sans-Serif" font-size="10.00" fill="#000000">::on_game_running</text>
</a>
</g>
</g>
<!-- Node17&#45;&gt;Node18 -->
<g id="edge1" class="edge">
<title>Node17&#45;&gt;Node18</title>
<path fill="none" stroke="#191970" d="M143.0172,-40.7898C151.4862,-41.8307 160.1793,-42.8991 168.776,-43.9557"/>
<polygon fill="#191970" stroke="#191970" points="168.4519,-47.4421 178.8042,-45.1882 169.3059,-40.4944 168.4519,-47.4421"/>
</g>
<!-- Node19 -->
<g id="node3" class="node">
<title>Node19</title>
<g id="a_node3"><a xlink:href="../../d6/dda/namespaceqtsdl.xhtml#af1666c815e9f0f5791315530fd76b18d" target="_top" xlink:title="qtsdl::unwrap">
<polygon fill="#ffffff" stroke="#000000" points="213,-.5 213,-19.5 288,-19.5 288,-.5 213,-.5"/>
<text text-anchor="middle" x="250.5" y="-7.5" font-family="Helvetica,sans-Serif" font-size="10.00" fill="#000000">qtsdl::unwrap</text>
</a>
</g>
</g>
<!-- Node17&#45;&gt;Node19 -->
<g id="edge2" class="edge">
<title>Node17&#45;&gt;Node19</title>
<path fill="none" stroke="#191970" d="M143.0172,-23.2102C162.9725,-20.7576 184.1718,-18.1521 202.4226,-15.909"/>
<polygon fill="#191970" stroke="#191970" points="203.0147,-19.3626 212.513,-14.6688 202.1607,-12.4149 203.0147,-19.3626"/>
</g>
</g>
</svg>
