<?xml version="1.0" encoding="UTF-8" standalone="no"?>
<!DOCTYPE svg PUBLIC "-//W3C//DTD SVG 1.1//EN"
 "http://www.w3.org/Graphics/SVG/1.1/DTD/svg11.dtd">
<!-- Generated by graphviz version 2.40.1 (20161225.0304)
 -->
<!-- Title: openage::coord::phys3::to_phys2 Pages: 1 -->
<svg width="276pt" height="137pt"
 viewBox="0.00 0.00 276.00 137.00" xmlns="http://www.w3.org/2000/svg" xmlns:xlink="http://www.w3.org/1999/xlink">
<g id="graph0" class="graph" transform="scale(1 1) rotate(0) translate(4 133)">
<title>openage::coord::phys3::to_phys2</title>
<polygon fill="#ffffff" stroke="transparent" points="-4,4 -4,-133 272,-133 272,4 -4,4"/>
<!-- Node20 -->
<g id="node1" class="node">
<title>Node20</title>
<polygon fill="#bfbfbf" stroke="#000000" points="0,-49.5 0,-79.5 116,-79.5 116,-49.5 0,-49.5"/>
<text text-anchor="start" x="8" y="-67.5" font-family="Helvetica,sans-Serif" font-size="10.00" fill="#000000">openage::coord::phys3</text>
<text text-anchor="middle" x="58" y="-56.5" font-family="Helvetica,sans-Serif" font-size="10.00" fill="#000000">::to_phys2</text>
</g>
<!-- Node21 -->
<g id="node2" class="node">
<title>Node21</title>
<g id="a_node2"><a xlink:href="../../d6/d31/classopenage_1_1_radial_object.xhtml#a8df3ce8c1bc15cc827e7de59f2a39f5a" target="_top" xlink:title="does this space contain a given point ">
<polygon fill="#ffffff" stroke="#000000" points="152,-98.5 152,-128.5 268,-128.5 268,-98.5 152,-98.5"/>
<text text-anchor="start" x="160" y="-116.5" font-family="Helvetica,sans-Serif" font-size="10.00" fill="#000000">openage::RadialObject</text>
<text text-anchor="middle" x="210" y="-105.5" font-family="Helvetica,sans-Serif" font-size="10.00" fill="#000000">::contains</text>
</a>
</g>
</g>
<!-- Node20&#45;&gt;Node21 -->
<g id="edge1" class="edge">
<title>Node20&#45;&gt;Node21</title>
<path fill="none" stroke="#191970" d="M114.6404,-82.7591C130.6723,-87.9273 147.9357,-93.4924 163.3094,-98.4484"/>
<polygon fill="#191970" stroke="#191970" points="115.4369,-79.3385 104.8453,-79.6014 113.2891,-86.0009 115.4369,-79.3385"/>
</g>
<!-- Node22 -->
<g id="node3" class="node">
<title>Node22</title>
<g id="a_node3"><a xlink:href="../../d6/d31/classopenage_1_1_radial_object.xhtml#af59b8ff3a8aa105883ac3b1ed61ef68a" target="_top" xlink:title="how far is a point from the edge of this object ">
<polygon fill="#ffffff" stroke="#000000" points="152,-49.5 152,-79.5 268,-79.5 268,-49.5 152,-49.5"/>
<text text-anchor="start" x="160" y="-67.5" font-family="Helvetica,sans-Serif" font-size="10.00" fill="#000000">openage::RadialObject</text>
<text text-anchor="middle" x="210" y="-56.5" font-family="Helvetica,sans-Serif" font-size="10.00" fill="#000000">::from_edge</text>
</a>
</g>
</g>
<!-- Node20&#45;&gt;Node22 -->
<g id="edge2" class="edge">
<title>Node20&#45;&gt;Node22</title>
<path fill="none" stroke="#191970" d="M126.5423,-64.5C134.9862,-64.5 143.5541,-64.5 151.8236,-64.5"/>
<polygon fill="#191970" stroke="#191970" points="126.3325,-61.0001 116.3325,-64.5 126.3324,-68.0001 126.3325,-61.0001"/>
</g>
<!-- Node23 -->
<g id="node4" class="node">
<title>Node23</title>
<g id="a_node4"><a xlink:href="../../d6/d31/classopenage_1_1_radial_object.xhtml#adef472de61d9336b562db89eb8ac28a7" target="_top" xlink:title="would this intersect with another object if it were positioned at the given point ...">
<polygon fill="#ffffff" stroke="#000000" points="152,-.5 152,-30.5 268,-30.5 268,-.5 152,-.5"/>
<text text-anchor="start" x="160" y="-18.5" font-family="Helvetica,sans-Serif" font-size="10.00" fill="#000000">openage::RadialObject</text>
<text text-anchor="middle" x="210" y="-7.5" font-family="Helvetica,sans-Serif" font-size="10.00" fill="#000000">::intersects</text>
</a>
</g>
</g>
<!-- Node20&#45;&gt;Node23 -->
<g id="edge3" class="edge">
<title>Node20&#45;&gt;Node23</title>
<path fill="none" stroke="#191970" d="M114.6404,-46.2409C130.6723,-41.0727 147.9357,-35.5076 163.3094,-30.5516"/>
<polygon fill="#191970" stroke="#191970" points="113.2891,-42.9991 104.8453,-49.3986 115.4369,-49.6615 113.2891,-42.9991"/>
</g>
</g>
</svg>
