<?xml version="1.0" encoding="UTF-8" standalone="no"?>
<!DOCTYPE svg PUBLIC "-//W3C//DTD SVG 1.1//EN"
 "http://www.w3.org/Graphics/SVG/1.1/DTD/svg11.dtd">
<!-- Generated by graphviz version 2.40.1 (20161225.0304)
 -->
<!-- Title: openage::Generator::player_names Pages: 1 -->
<svg width="423pt" height="78pt"
 viewBox="0.00 0.00 423.00 77.50" xmlns="http://www.w3.org/2000/svg" xmlns:xlink="http://www.w3.org/1999/xlink">
<g id="graph0" class="graph" transform="scale(1 1) rotate(0) translate(4 73.5)">
<title>openage::Generator::player_names</title>
<polygon fill="#ffffff" stroke="transparent" points="-4,4 -4,-73.5 419,-73.5 419,4 -4,4"/>
<!-- Node124 -->
<g id="node1" class="node">
<title>Node124</title>
<polygon fill="#bfbfbf" stroke="#000000" points="0,-17 0,-47 102,-47 102,-17 0,-17"/>
<text text-anchor="start" x="8" y="-35" font-family="Helvetica,sans-Serif" font-size="10.00" fill="#000000">openage::Generator</text>
<text text-anchor="middle" x="51" y="-24" font-family="Helvetica,sans-Serif" font-size="10.00" fill="#000000">::player_names</text>
</g>
<!-- Node125 -->
<g id="node2" class="node">
<title>Node125</title>
<g id="a_node2"><a xlink:href="../../db/d4f/structqtsdl_1_1_gui_property_map.xhtml#a88e34211690a34ab7dda78ffa4f760f0" target="_top" xlink:title="qtsdl::GuiPropertyMap\l::get_csv">
<polygon fill="#ffffff" stroke="#000000" points="153.5,-39 153.5,-69 267.5,-69 267.5,-39 153.5,-39"/>
<text text-anchor="start" x="161.5" y="-57" font-family="Helvetica,sans-Serif" font-size="10.00" fill="#000000">qtsdl::GuiPropertyMap</text>
<text text-anchor="middle" x="210.5" y="-46" font-family="Helvetica,sans-Serif" font-size="10.00" fill="#000000">::get_csv</text>
</a>
</g>
</g>
<!-- Node124&#45;&gt;Node125 -->
<g id="edge1" class="edge">
<title>Node124&#45;&gt;Node125</title>
<path fill="none" stroke="#191970" d="M102.3448,-39.082C115.4621,-40.8913 129.7589,-42.8633 143.5333,-44.7632"/>
<polygon fill="#191970" stroke="#191970" points="143.062,-48.2313 153.4465,-46.1305 144.0185,-41.2969 143.062,-48.2313"/>
</g>
<!-- Node127 -->
<g id="node4" class="node">
<title>Node127</title>
<g id="a_node4"><a xlink:href="../../d5/d0e/namespaceopenage_1_1testing_1_1testing.xhtml#ac25bf81db406af62d08113ef7ae9fd6e" target="_top" xlink:title="openage.testing.testing.result">
<polygon fill="#ffffff" stroke="#000000" points="138,-.5 138,-19.5 283,-19.5 283,-.5 138,-.5"/>
<text text-anchor="middle" x="210.5" y="-7.5" font-family="Helvetica,sans-Serif" font-size="10.00" fill="#000000">openage.testing.testing.result</text>
</a>
</g>
</g>
<!-- Node124&#45;&gt;Node127 -->
<g id="edge3" class="edge">
<title>Node124&#45;&gt;Node127</title>
<path fill="none" stroke="#191970" d="M102.3448,-24.918C111.702,-23.6273 121.6594,-22.2539 131.5992,-20.8829"/>
<polygon fill="#191970" stroke="#191970" points="132.0823,-24.3495 141.5103,-19.5158 131.1258,-17.4151 132.0823,-24.3495"/>
</g>
<!-- Node126 -->
<g id="node3" class="node">
<title>Node126</title>
<g id="a_node3"><a xlink:href="../../de/d60/namespaceopenage_1_1util.xhtml#a9556b8562574e2c6ad102d8fd87569c6" target="_top" xlink:title="Split a string at a delimiter into a vector. ">
<polygon fill="#ffffff" stroke="#000000" points="319,-44.5 319,-63.5 415,-63.5 415,-44.5 319,-44.5"/>
<text text-anchor="middle" x="367" y="-51.5" font-family="Helvetica,sans-Serif" font-size="10.00" fill="#000000">openage::util::split</text>
</a>
</g>
</g>
<!-- Node125&#45;&gt;Node126 -->
<g id="edge2" class="edge">
<title>Node125&#45;&gt;Node126</title>
<path fill="none" stroke="#191970" d="M267.8862,-54C281.2333,-54 295.4542,-54 308.8347,-54"/>
<polygon fill="#191970" stroke="#191970" points="308.8746,-57.5001 318.8746,-54 308.8746,-50.5001 308.8746,-57.5001"/>
</g>
<!-- Node128 -->
<g id="node5" class="node">
<title>Node128</title>
<g id="a_node5"><a xlink:href="../../de/d60/namespaceopenage_1_1util.xhtml#a7bc4421a5f0f57f3a0aba3f96eb8d19c" target="_top" xlink:title="method that behaves similar to python&#39;s &quot;repr&quot;. ">
<polygon fill="#ffffff" stroke="#000000" points="319.5,-.5 319.5,-19.5 414.5,-19.5 414.5,-.5 319.5,-.5"/>
<text text-anchor="middle" x="367" y="-7.5" font-family="Helvetica,sans-Serif" font-size="10.00" fill="#000000">openage::util::repr</text>
</a>
</g>
</g>
<!-- Node127&#45;&gt;Node128 -->
<g id="edge4" class="edge">
<title>Node127&#45;&gt;Node128</title>
<path fill="none" stroke="#191970" d="M283.2521,-3.2648C291.9914,-3.2176 300.8226,-3.2831 309.3067,-3.4614"/>
<polygon fill="#191970" stroke="#191970" points="309.3633,-6.9641 319.454,-3.7348 309.5519,.0333 309.3633,-6.9641"/>
</g>
<!-- Node128&#45;&gt;Node127 -->
<g id="edge5" class="edge">
<title>Node128&#45;&gt;Node127</title>
<path fill="none" stroke="#191970" d="M319.454,-16.2652C311.1459,-16.5411 302.2889,-16.6992 293.3517,-16.7396"/>
<polygon fill="#191970" stroke="#191970" points="293.2537,-13.2397 283.2521,-16.7352 293.2505,-20.2397 293.2537,-13.2397"/>
</g>
</g>
</svg>
