<?xml version="1.0" encoding="UTF-8" standalone="no"?>
<!DOCTYPE svg PUBLIC "-//W3C//DTD SVG 1.1//EN"
 "http://www.w3.org/Graphics/SVG/1.1/DTD/svg11.dtd">
<!-- Generated by graphviz version 2.40.1 (20161225.0304)
 -->
<!-- Title: openage::Generator::create_regions Pages: 1 -->
<!--zoomable 391 -->
<svg id="main" version="1.1" xmlns="http://www.w3.org/2000/svg" xmlns:xlink="http://www.w3.org/1999/xlink" xml:space="preserve" onload="init(evt)">
<style type="text/css"><![CDATA[
.edge:hover path { stroke: red; }
.edge:hover polygon { stroke: red; fill: red; }
]]></style>
<script type="text/javascript"><![CDATA[
var edges = document.getElementsByTagName('g');
if (edges && edges.length) {
  for (var i=0;i<edges.length;i++) {
    if (edges[i].id.substr(0,4)=='edge') {
      edges[i].setAttribute('class','edge');
    }
  }
}
]]></script>
        <defs>
                <circle id="rim" cx="0" cy="0" r="7"/>
                <circle id="rim2" cx="0" cy="0" r="3.5"/>
                <g id="zoomPlus">
                        <use xlink:href="#rim" fill="#404040">
                                <set attributeName="fill" to="#808080" begin="zoomplus.mouseover" end="zoomplus.mouseout"/>
                        </use>
                        <path d="M-4,0h8M0,-4v8" fill="none" stroke="white" stroke-width="1.5" pointer-events="none"/>
                </g>
                <g id="zoomMin">
                        <use xlink:href="#rim" fill="#404040">
                                <set attributeName="fill" to="#808080" begin="zoomminus.mouseover" end="zoomminus.mouseout"/>
                        </use>
                        <path d="M-4,0h8" fill="none" stroke="white" stroke-width="1.5" pointer-events="none"/>
                </g>
                <g id="dirArrow">
                        <path fill="none" stroke="white" stroke-width="1.5" d="M0,-3.0v7 M-2.5,-0.5L0,-3.0L2.5,-0.5"/>
                </g>
               <g id="resetDef">
                       <use xlink:href="#rim2" fill="#404040">
                               <set attributeName="fill" to="#808080" begin="reset.mouseover" end="reset.mouseout"/>
                       </use>
               </g>
        </defs>

<script type="text/javascript">
var viewWidth = 1277;
var viewHeight = 391;
var sectionId = 'dynsection-5';
</script>
<script xlink:href="../../svgpan.js"/>
<svg id="graph" class="graph">
<g id="viewport">
<title>openage::Generator::create_regions</title>
<polygon fill="#ffffff" stroke="transparent" points="-4,4 -4,-386.5 1273,-386.5 1273,4 -4,4"/>
<!-- Node93 -->
<g id="node1" class="node">
<title>Node93</title>
<polygon fill="#bfbfbf" stroke="#000000" points="0,-228.5 0,-258.5 102,-258.5 102,-228.5 0,-228.5"/>
<text text-anchor="start" x="8" y="-246.5" font-family="Helvetica,sans-Serif" font-size="10.00" fill="#000000">openage::Generator</text>
<text text-anchor="middle" x="51" y="-235.5" font-family="Helvetica,sans-Serif" font-size="10.00" fill="#000000">::create_regions</text>
</g>
<!-- Node94 -->
<g id="node2" class="node">
<title>Node94</title>
<g id="a_node2"><a xlink:href="../../dd/d1a/namespaceopenage_1_1log.xhtml#a5cb08687f485da2549d7eebef26368a6" target="_top" xlink:title="debug message ">
<polygon fill="#ffffff" stroke="#000000" points="151.5,-363 151.5,-382 239.5,-382 239.5,-363 151.5,-363"/>
<text text-anchor="middle" x="195.5" y="-370" font-family="Helvetica,sans-Serif" font-size="10.00" fill="#000000">openage.log.dbg</text>
</a>
</g>
</g>
<!-- Node93&#45;&gt;Node94 -->
<g id="edge1" class="edge">
<title>Node93&#45;&gt;Node94</title>
<path fill="none" stroke="#191970" d="M59.0627,-258.6154C72.4056,-282.2294 101.2888,-327.821 138,-353.5 140.843,-355.4886 143.9085,-357.2803 147.0919,-358.8927"/>
<polygon fill="#191970" stroke="#191970" points="145.7288,-362.1169 156.2887,-362.977 148.5699,-355.7194 145.7288,-362.1169"/>
</g>
<!-- Node95 -->
<g id="node3" class="node">
<title>Node95</title>
<g id="a_node3"><a xlink:href="../../d1/d80/classopenage_1_1_region.xhtml#a049c7aba99df7ba3c2e6c1412eb37281" target="_top" xlink:title="the center point of the region ">
<polygon fill="#ffffff" stroke="#000000" points="140.5,-313.5 140.5,-343.5 250.5,-343.5 250.5,-313.5 140.5,-313.5"/>
<text text-anchor="start" x="148.5" y="-331.5" font-family="Helvetica,sans-Serif" font-size="10.00" fill="#000000">openage::Region::get</text>
<text text-anchor="middle" x="195.5" y="-320.5" font-family="Helvetica,sans-Serif" font-size="10.00" fill="#000000">_center</text>
</a>
</g>
</g>
<!-- Node93&#45;&gt;Node95 -->
<g id="edge2" class="edge">
<title>Node93&#45;&gt;Node95</title>
<path fill="none" stroke="#191970" d="M73.9438,-258.7366C91.3029,-270.0843 115.854,-285.7518 138,-298.5 143.9008,-301.8967 150.222,-305.3626 156.436,-308.6754"/>
<polygon fill="#191970" stroke="#191970" points="154.9224,-311.8339 165.4018,-313.3938 158.1823,-305.6394 154.9224,-311.8339"/>
</g>
<!-- Node96 -->
<g id="node4" class="node">
<title>Node96</title>
<g id="a_node4"><a xlink:href="../../dd/d1a/namespaceopenage_1_1log.xhtml#a0eff614e7d6e818746700ed9d29e583f" target="_top" xlink:title="Convenience method that makes use of the &#39;general&#39; LogSource. ">
<polygon fill="#ffffff" stroke="#000000" points="797.5,-274 797.5,-293 888.5,-293 888.5,-274 797.5,-274"/>
<text text-anchor="middle" x="843" y="-281" font-family="Helvetica,sans-Serif" font-size="10.00" fill="#000000">openage::log::log</text>
</a>
</g>
</g>
<!-- Node93&#45;&gt;Node96 -->
<g id="edge3" class="edge">
<title>Node93&#45;&gt;Node96</title>
<path fill="none" stroke="#191970" d="M102.0973,-254.4334C163.4108,-266.579 269.4717,-284.5 361.5,-284.5 361.5,-284.5 361.5,-284.5 534,-284.5 622.493,-284.5 725.2408,-284.0848 787.1302,-283.7895"/>
<polygon fill="#191970" stroke="#191970" points="787.4675,-287.288 797.4504,-283.7395 787.4336,-280.2881 787.4675,-287.288"/>
</g>
<!-- Node102 -->
<g id="node10" class="node">
<title>Node102</title>
<g id="a_node10"><a xlink:href="../../d8/dcc/namespacestd.xhtml#a1c0bc145caf5f0b2af8d16d29d952180" target="_top" xlink:title="std::max">
<polygon fill="#ffffff" stroke="#000000" points="168,-143 168,-162 223,-162 223,-143 168,-143"/>
<text text-anchor="middle" x="195.5" y="-150" font-family="Helvetica,sans-Serif" font-size="10.00" fill="#000000">std::max</text>
</a>
</g>
</g>
<!-- Node93&#45;&gt;Node102 -->
<g id="edge9" class="edge">
<title>Node93&#45;&gt;Node102</title>
<path fill="none" stroke="#191970" d="M67.3104,-228.4361C84.0743,-213.5322 111.4116,-190.793 138,-175.5 144.4075,-171.8146 151.5204,-168.4498 158.4978,-165.4993"/>
<polygon fill="#191970" stroke="#191970" points="159.8756,-168.7178 167.8494,-161.7415 157.2655,-162.2226 159.8756,-168.7178"/>
</g>
<!-- Node105 -->
<g id="node13" class="node">
<title>Node105</title>
<g id="a_node13"><a xlink:href="../../dd/d78/classopenage_1_1_generator.xhtml#af11850ef5723aa275de62da0964e8da7" target="_top" xlink:title="return the list of player names ">
<polygon fill="#ffffff" stroke="#000000" points="144.5,-44.5 144.5,-74.5 246.5,-74.5 246.5,-44.5 144.5,-44.5"/>
<text text-anchor="start" x="152.5" y="-62.5" font-family="Helvetica,sans-Serif" font-size="10.00" fill="#000000">openage::Generator</text>
<text text-anchor="middle" x="195.5" y="-51.5" font-family="Helvetica,sans-Serif" font-size="10.00" fill="#000000">::player_names</text>
</a>
</g>
</g>
<!-- Node93&#45;&gt;Node105 -->
<g id="edge12" class="edge">
<title>Node93&#45;&gt;Node105</title>
<path fill="none" stroke="#191970" d="M62.825,-228.4425C88.0789,-196.2854 147.4179,-120.7257 177.4344,-82.504"/>
<polygon fill="#191970" stroke="#191970" points="180.2905,-84.5339 183.7142,-74.5075 174.7852,-80.2105 180.2905,-84.5339"/>
</g>
<!-- Node110 -->
<g id="node18" class="node">
<title>Node110</title>
<g id="a_node18"><a xlink:href="../../d1/d80/classopenage_1_1_region.xhtml#a365efd8b6f0199a7cb270af90291a662" target="_top" xlink:title="similiar to take_tiles, but takes a random group of tiles ">
<polygon fill="#ffffff" stroke="#000000" points="138,-184.5 138,-214.5 253,-214.5 253,-184.5 138,-184.5"/>
<text text-anchor="start" x="146" y="-202.5" font-family="Helvetica,sans-Serif" font-size="10.00" fill="#000000">openage::Region::take</text>
<text text-anchor="middle" x="195.5" y="-191.5" font-family="Helvetica,sans-Serif" font-size="10.00" fill="#000000">_random</text>
</a>
</g>
</g>
<!-- Node93&#45;&gt;Node110 -->
<g id="edge18" class="edge">
<title>Node93&#45;&gt;Node110</title>
<path fill="none" stroke="#191970" d="M100.3246,-228.4808C111.8219,-224.9798 124.1833,-221.2158 136.0668,-217.5973"/>
<polygon fill="#191970" stroke="#191970" points="137.3604,-220.8622 145.9071,-214.6009 135.3213,-214.1657 137.3604,-220.8622"/>
</g>
<!-- Node111 -->
<g id="node19" class="node">
<title>Node111</title>
<g id="a_node19"><a xlink:href="../../d1/d80/classopenage_1_1_region.xhtml#a268c678dfa97caf1cd17b632ca74de40" target="_top" xlink:title="removes the given set of tiles from this region, which get split of as a new child region ...">
<polygon fill="#ffffff" stroke="#000000" points="304,-225.5 304,-255.5 419,-255.5 419,-225.5 304,-225.5"/>
<text text-anchor="start" x="312" y="-243.5" font-family="Helvetica,sans-Serif" font-size="10.00" fill="#000000">openage::Region::take</text>
<text text-anchor="middle" x="361.5" y="-232.5" font-family="Helvetica,sans-Serif" font-size="10.00" fill="#000000">_tiles</text>
</a>
</g>
</g>
<!-- Node93&#45;&gt;Node111 -->
<g id="edge31" class="edge">
<title>Node93&#45;&gt;Node111</title>
<path fill="none" stroke="#191970" d="M102.2728,-243.0046C154.595,-242.4991 236.0778,-241.7118 293.7034,-241.155"/>
<polygon fill="#191970" stroke="#191970" points="293.848,-244.6539 303.8137,-241.0574 293.7803,-237.6542 293.848,-244.6539"/>
</g>
<!-- Node97 -->
<g id="node5" class="node">
<title>Node97</title>
<g id="a_node5"><a xlink:href="../../dd/d1a/namespaceopenage_1_1log.xhtml#a3fbb0c225d01e222648ec28a43507188" target="_top" xlink:title="Returns a reference to a general named log source, for use by log::log(). ">
<polygon fill="#ffffff" stroke="#000000" points="958.5,-290.5 958.5,-320.5 1068.5,-320.5 1068.5,-290.5 958.5,-290.5"/>
<text text-anchor="start" x="966.5" y="-308.5" font-family="Helvetica,sans-Serif" font-size="10.00" fill="#000000">openage::log::general</text>
<text text-anchor="middle" x="1013.5" y="-297.5" font-family="Helvetica,sans-Serif" font-size="10.00" fill="#000000">_source</text>
</a>
</g>
</g>
<!-- Node96&#45;&gt;Node97 -->
<g id="edge4" class="edge">
<title>Node96&#45;&gt;Node97</title>
<path fill="none" stroke="#191970" d="M888.6909,-289.3956C907.0023,-291.7584 928.4424,-294.5248 948.3354,-297.0917"/>
<polygon fill="#191970" stroke="#191970" points="947.8974,-300.5641 958.2631,-298.3727 948.7933,-293.6216 947.8974,-300.5641"/>
</g>
<!-- Node98 -->
<g id="node6" class="node">
<title>Node98</title>
<g id="a_node6"><a xlink:href="../../de/de3/classopenage_1_1log_1_1_log_source.xhtml#a5640099e20af4cd368c767dbcef3a1df" target="_top" xlink:title="Logs a message (get one via MSG(level)). ">
<polygon fill="#ffffff" stroke="#000000" points="942,-252 942,-271 1085,-271 1085,-252 942,-252"/>
<text text-anchor="middle" x="1013.5" y="-259" font-family="Helvetica,sans-Serif" font-size="10.00" fill="#000000">openage::log::LogSource::log</text>
</a>
</g>
</g>
<!-- Node96&#45;&gt;Node98 -->
<g id="edge5" class="edge">
<title>Node96&#45;&gt;Node98</title>
<path fill="none" stroke="#191970" d="M888.6909,-277.6044C901.9951,-275.8877 916.9509,-273.9579 931.765,-272.0465"/>
<polygon fill="#191970" stroke="#191970" points="932.5063,-275.4799 941.9762,-270.7289 931.6105,-268.5375 932.5063,-275.4799"/>
</g>
<!-- Node99 -->
<g id="node7" class="node">
<title>Node99</title>
<g id="a_node7"><a xlink:href="../../dd/d1a/namespaceopenage_1_1log.xhtml#a3d2885be9c3a09b9ff7ee8764b2e5f39" target="_top" xlink:title="Returns a reference to the global stdout logsink object; Initializes the object if needed...">
<polygon fill="#ffffff" stroke="#000000" points="1143,-295.5 1143,-325.5 1247,-325.5 1247,-295.5 1143,-295.5"/>
<text text-anchor="start" x="1151" y="-313.5" font-family="Helvetica,sans-Serif" font-size="10.00" fill="#000000">openage::log::global</text>
<text text-anchor="middle" x="1195" y="-302.5" font-family="Helvetica,sans-Serif" font-size="10.00" fill="#000000">_stdoutsink</text>
</a>
</g>
</g>
<!-- Node98&#45;&gt;Node99 -->
<g id="edge6" class="edge">
<title>Node98&#45;&gt;Node99</title>
<path fill="none" stroke="#191970" d="M1048.9259,-271.064C1072.8272,-277.5167 1105.008,-286.2046 1133.0812,-293.7836"/>
<polygon fill="#191970" stroke="#191970" points="1132.2527,-297.1852 1142.8194,-296.4127 1134.0773,-290.4272 1132.2527,-297.1852"/>
</g>
<!-- Node100 -->
<g id="node8" class="node">
<title>Node100</title>
<g id="a_node8"><a xlink:href="../../d0/d58/classopenage_1_1log_1_1_log_sink_list.xhtml#a2d47416fab12651553b4b58c86fd6f84" target="_top" xlink:title="openage::log::LogSinkList\l::instance">
<polygon fill="#ffffff" stroke="#000000" points="1130.5,-246.5 1130.5,-276.5 1259.5,-276.5 1259.5,-246.5 1130.5,-246.5"/>
<text text-anchor="start" x="1138.5" y="-264.5" font-family="Helvetica,sans-Serif" font-size="10.00" fill="#000000">openage::log::LogSinkList</text>
<text text-anchor="middle" x="1195" y="-253.5" font-family="Helvetica,sans-Serif" font-size="10.00" fill="#000000">::instance</text>
</a>
</g>
</g>
<!-- Node98&#45;&gt;Node100 -->
<g id="edge7" class="edge">
<title>Node98&#45;&gt;Node100</title>
<path fill="none" stroke="#191970" d="M1085.2336,-261.5C1096.7292,-261.5 1108.651,-261.5 1120.2157,-261.5"/>
<polygon fill="#191970" stroke="#191970" points="1120.267,-265.0001 1130.267,-261.5 1120.267,-258.0001 1120.267,-265.0001"/>
</g>
<!-- Node101 -->
<g id="node9" class="node">
<title>Node101</title>
<g id="a_node9"><a xlink:href="../../d0/d58/classopenage_1_1log_1_1_log_sink_list.xhtml#a8456b84ab55e1fe151c51438c5bfebdd" target="_top" xlink:title="openage::log::LogSinkList::log">
<polygon fill="#ffffff" stroke="#000000" points="1121,-208 1121,-227 1269,-227 1269,-208 1121,-208"/>
<text text-anchor="middle" x="1195" y="-215" font-family="Helvetica,sans-Serif" font-size="10.00" fill="#000000">openage::log::LogSinkList::log</text>
</a>
</g>
</g>
<!-- Node98&#45;&gt;Node101 -->
<g id="edge8" class="edge">
<title>Node98&#45;&gt;Node101</title>
<path fill="none" stroke="#191970" d="M1052.8828,-251.9527C1080.1156,-245.3508 1116.5503,-236.5181 1145.7102,-229.449"/>
<polygon fill="#191970" stroke="#191970" points="1146.8002,-232.7863 1155.6941,-227.0287 1145.1509,-225.9833 1146.8002,-232.7863"/>
</g>
<!-- Node103 -->
<g id="node11" class="node">
<title>Node103</title>
<g id="a_node11"><a xlink:href="../../dc/d65/classopenage_1_1util_1_1_fixed_point.xhtml#aa01c403263c2142c0ce9ce40cde89066" target="_top" xlink:title="Factory function to construct a fixed&#45;point number with a given raw value. ">
<polygon fill="#ffffff" stroke="#000000" points="299,-137.5 299,-167.5 424,-167.5 424,-137.5 299,-137.5"/>
<text text-anchor="start" x="307" y="-155.5" font-family="Helvetica,sans-Serif" font-size="10.00" fill="#000000">openage::util::FixedPoint</text>
<text text-anchor="middle" x="361.5" y="-144.5" font-family="Helvetica,sans-Serif" font-size="10.00" fill="#000000">::from_raw_value</text>
</a>
</g>
</g>
<!-- Node102&#45;&gt;Node103 -->
<g id="edge10" class="edge">
<title>Node102&#45;&gt;Node103</title>
<path fill="none" stroke="#191970" d="M223.2847,-152.5C241.2138,-152.5 265.4337,-152.5 288.5902,-152.5"/>
<polygon fill="#191970" stroke="#191970" points="288.7767,-156.0001 298.7767,-152.5 288.7767,-149.0001 288.7767,-156.0001"/>
</g>
<!-- Node104 -->
<g id="node12" class="node">
<title>Node104</title>
<g id="a_node12"><a xlink:href="../../dc/d65/classopenage_1_1util_1_1_fixed_point.xhtml#affe7a3ec44c6f7ac96312875af742f87" target="_top" xlink:title="Converter to retrieve the raw value of the fixed&#45;point number. ">
<polygon fill="#ffffff" stroke="#000000" points="299,-88.5 299,-118.5 424,-118.5 424,-88.5 299,-88.5"/>
<text text-anchor="start" x="307" y="-106.5" font-family="Helvetica,sans-Serif" font-size="10.00" fill="#000000">openage::util::FixedPoint</text>
<text text-anchor="middle" x="361.5" y="-95.5" font-family="Helvetica,sans-Serif" font-size="10.00" fill="#000000">::get_raw_value</text>
</a>
</g>
</g>
<!-- Node102&#45;&gt;Node104 -->
<g id="edge11" class="edge">
<title>Node102&#45;&gt;Node104</title>
<path fill="none" stroke="#191970" d="M223.2847,-144.2985C244.4106,-138.0625 274.2709,-129.2484 300.8339,-121.4075"/>
<polygon fill="#191970" stroke="#191970" points="301.8488,-124.7573 310.4488,-118.5693 299.867,-118.0436 301.8488,-124.7573"/>
</g>
<!-- Node106 -->
<g id="node14" class="node">
<title>Node106</title>
<g id="a_node14"><a xlink:href="../../d5/d0e/namespaceopenage_1_1testing_1_1testing.xhtml#ac25bf81db406af62d08113ef7ae9fd6e" target="_top" xlink:title="openage.testing.testing.result">
<polygon fill="#ffffff" stroke="#000000" points="289,-50 289,-69 434,-69 434,-50 289,-50"/>
<text text-anchor="middle" x="361.5" y="-57" font-family="Helvetica,sans-Serif" font-size="10.00" fill="#000000">openage.testing.testing.result</text>
</a>
</g>
</g>
<!-- Node105&#45;&gt;Node106 -->
<g id="edge13" class="edge">
<title>Node105&#45;&gt;Node106</title>
<path fill="none" stroke="#191970" d="M246.66,-59.5C256.871,-59.5 267.8398,-59.5 278.8016,-59.5"/>
<polygon fill="#191970" stroke="#191970" points="278.8447,-63.0001 288.8447,-59.5 278.8447,-56.0001 278.8447,-63.0001"/>
</g>
<!-- Node108 -->
<g id="node16" class="node">
<title>Node108</title>
<g id="a_node16"><a xlink:href="../../db/d4f/structqtsdl_1_1_gui_property_map.xhtml#a88e34211690a34ab7dda78ffa4f760f0" target="_top" xlink:title="qtsdl::GuiPropertyMap\l::get_csv">
<polygon fill="#ffffff" stroke="#000000" points="304.5,-.5 304.5,-30.5 418.5,-30.5 418.5,-.5 304.5,-.5"/>
<text text-anchor="start" x="312.5" y="-18.5" font-family="Helvetica,sans-Serif" font-size="10.00" fill="#000000">qtsdl::GuiPropertyMap</text>
<text text-anchor="middle" x="361.5" y="-7.5" font-family="Helvetica,sans-Serif" font-size="10.00" fill="#000000">::get_csv</text>
</a>
</g>
</g>
<!-- Node105&#45;&gt;Node108 -->
<g id="edge16" class="edge">
<title>Node105&#45;&gt;Node108</title>
<path fill="none" stroke="#191970" d="M246.66,-45.9395C261.8857,-41.9038 278.7964,-37.4214 294.8563,-33.1646"/>
<polygon fill="#191970" stroke="#191970" points="295.9538,-36.4946 304.7232,-30.5493 294.1602,-29.7283 295.9538,-36.4946"/>
</g>
<!-- Node107 -->
<g id="node15" class="node">
<title>Node107</title>
<g id="a_node15"><a xlink:href="../../de/d60/namespaceopenage_1_1util.xhtml#a7bc4421a5f0f57f3a0aba3f96eb8d19c" target="_top" xlink:title="method that behaves similar to python&#39;s &quot;repr&quot;. ">
<polygon fill="#ffffff" stroke="#000000" points="486.5,-50 486.5,-69 581.5,-69 581.5,-50 486.5,-50"/>
<text text-anchor="middle" x="534" y="-57" font-family="Helvetica,sans-Serif" font-size="10.00" fill="#000000">openage::util::repr</text>
</a>
</g>
</g>
<!-- Node106&#45;&gt;Node107 -->
<g id="edge14" class="edge">
<title>Node106&#45;&gt;Node107</title>
<path fill="none" stroke="#191970" d="M434.1556,-52.8251C448.2432,-52.6683 462.8273,-52.7571 476.353,-53.0913"/>
<polygon fill="#191970" stroke="#191970" points="476.3636,-56.5931 486.4641,-53.3948 476.5737,-49.5963 476.3636,-56.5931"/>
</g>
<!-- Node107&#45;&gt;Node106 -->
<g id="edge15" class="edge">
<title>Node107&#45;&gt;Node106</title>
<path fill="none" stroke="#191970" d="M486.4641,-65.6052C473.3263,-66.0736 458.6763,-66.2869 444.162,-66.2448"/>
<polygon fill="#191970" stroke="#191970" points="444.1798,-62.7449 434.1556,-66.1749 444.1309,-69.7448 444.1798,-62.7449"/>
</g>
<!-- Node109 -->
<g id="node17" class="node">
<title>Node109</title>
<g id="a_node17"><a xlink:href="../../de/d60/namespaceopenage_1_1util.xhtml#a9556b8562574e2c6ad102d8fd87569c6" target="_top" xlink:title="Split a string at a delimiter into a vector. ">
<polygon fill="#ffffff" stroke="#000000" points="486,-6 486,-25 582,-25 582,-6 486,-6"/>
<text text-anchor="middle" x="534" y="-13" font-family="Helvetica,sans-Serif" font-size="10.00" fill="#000000">openage::util::split</text>
</a>
</g>
</g>
<!-- Node108&#45;&gt;Node109 -->
<g id="edge17" class="edge">
<title>Node108&#45;&gt;Node109</title>
<path fill="none" stroke="#191970" d="M418.94,-15.5C437.1309,-15.5 457.2535,-15.5 475.5168,-15.5"/>
<polygon fill="#191970" stroke="#191970" points="475.7359,-19.0001 485.7359,-15.5 475.7359,-12.0001 475.7359,-19.0001"/>
</g>
<!-- Node110&#45;&gt;Node111 -->
<g id="edge19" class="edge">
<title>Node110&#45;&gt;Node111</title>
<path fill="none" stroke="#191970" d="M253.0929,-213.7247C266.2796,-216.9817 280.4132,-220.4725 293.9753,-223.8222"/>
<polygon fill="#191970" stroke="#191970" points="293.1804,-227.231 303.728,-226.231 294.859,-220.4352 293.1804,-227.231"/>
</g>
<!-- Node119 -->
<g id="node27" class="node">
<title>Node119</title>
<g id="a_node27"><a xlink:href="../../d1/d80/classopenage_1_1_region.xhtml#a01b77dd370f14a109a1691702244bb15" target="_top" xlink:title="picks a random tile from this subset ">
<polygon fill="#ffffff" stroke="#000000" points="470,-190 470,-209 598,-209 598,-190 470,-190"/>
<text text-anchor="middle" x="534" y="-197" font-family="Helvetica,sans-Serif" font-size="10.00" fill="#000000">openage::Region::get_tile</text>
</a>
</g>
</g>
<!-- Node110&#45;&gt;Node119 -->
<g id="edge29" class="edge">
<title>Node110&#45;&gt;Node119</title>
<path fill="none" stroke="#191970" d="M253.3056,-199.5C310.2756,-199.5 397.5714,-199.5 459.6711,-199.5"/>
<polygon fill="#191970" stroke="#191970" points="459.7986,-203.0001 469.7985,-199.5 459.7985,-196.0001 459.7986,-203.0001"/>
</g>
<!-- Node112 -->
<g id="node20" class="node">
<title>Node112</title>
<g id="a_node20"><a xlink:href="../../d1/d80/classopenage_1_1_region.xhtml#aab907d7f645bc78647dd204ba136b5d4" target="_top" xlink:title="find a group of tiles inside this region, number is the number of tiles to be contained in the subset...">
<polygon fill="#ffffff" stroke="#000000" points="471.5,-231 471.5,-250 596.5,-250 596.5,-231 471.5,-231"/>
<text text-anchor="middle" x="534" y="-238" font-family="Helvetica,sans-Serif" font-size="10.00" fill="#000000">openage::Region::subset</text>
</a>
</g>
</g>
<!-- Node111&#45;&gt;Node112 -->
<g id="edge20" class="edge">
<title>Node111&#45;&gt;Node112</title>
<path fill="none" stroke="#191970" d="M419.4199,-240.5C432.8879,-240.5 447.3927,-240.5 461.4042,-240.5"/>
<polygon fill="#191970" stroke="#191970" points="461.4978,-244.0001 471.4978,-240.5 461.4977,-237.0001 461.4978,-244.0001"/>
</g>
<!-- Node113 -->
<g id="node21" class="node">
<title>Node113</title>
<g id="a_node21"><a xlink:href="../../da/d23/namespaceopenage.xhtml#a3acc47409b93e64eef42ad8add16052b" target="_top" xlink:title="picks a random tile from a set ">
<polygon fill="#ffffff" stroke="#000000" points="634,-232 634,-251 744,-251 744,-232 634,-232"/>
<text text-anchor="middle" x="689" y="-239" font-family="Helvetica,sans-Serif" font-size="10.00" fill="#000000">openage::random_tile</text>
</a>
</g>
</g>
<!-- Node112&#45;&gt;Node113 -->
<g id="edge21" class="edge">
<title>Node112&#45;&gt;Node113</title>
<path fill="none" stroke="#191970" d="M596.5977,-240.9039C605.4145,-240.9607 614.4988,-241.0193 623.3704,-241.0766"/>
<polygon fill="#191970" stroke="#191970" points="623.6362,-244.5783 633.6586,-241.143 623.6814,-237.5784 623.6362,-244.5783"/>
</g>
<!-- Node117 -->
<g id="node25" class="node">
<title>Node117</title>
<g id="a_node25"><a xlink:href="../../da/daa/classopenage_1_1rng_1_1_r_n_g.xhtml#ab24ce8fabde7df2ec900e3e1883281a4" target="_top" xlink:title="Returns true with the passed probability. ">
<polygon fill="#ffffff" stroke="#000000" points="635.5,-182.5 635.5,-212.5 742.5,-212.5 742.5,-182.5 635.5,-182.5"/>
<text text-anchor="start" x="643.5" y="-200.5" font-family="Helvetica,sans-Serif" font-size="10.00" fill="#000000">openage::rng::RNG::</text>
<text text-anchor="middle" x="689" y="-189.5" font-family="Helvetica,sans-Serif" font-size="10.00" fill="#000000">probability</text>
</a>
</g>
</g>
<!-- Node112&#45;&gt;Node117 -->
<g id="edge26" class="edge">
<title>Node112&#45;&gt;Node117</title>
<path fill="none" stroke="#191970" d="M568.3995,-230.9569C585.185,-226.3003 605.9256,-220.5464 625.4457,-215.1312"/>
<polygon fill="#191970" stroke="#191970" points="626.5095,-218.4683 635.2099,-212.4224 624.6382,-211.7231 626.5095,-218.4683"/>
</g>
<!-- Node113&#45;&gt;Node96 -->
<g id="edge23" class="edge">
<title>Node113&#45;&gt;Node96</title>
<path fill="none" stroke="#191970" d="M723.945,-251.0305C745.92,-257.0236 774.4871,-264.8147 798.1296,-271.2626"/>
<polygon fill="#191970" stroke="#191970" points="797.3585,-274.6801 807.9271,-273.9347 799.2004,-267.9267 797.3585,-274.6801"/>
</g>
<!-- Node114 -->
<g id="node22" class="node">
<title>Node114</title>
<g id="a_node22"><a xlink:href="../../dd/d1a/namespaceopenage_1_1log.xhtml#ab6b4b10be67af93ab6c4d5a36139736e" target="_top" xlink:title="error message ">
<polygon fill="#ffffff" stroke="#000000" points="801.5,-233 801.5,-252 884.5,-252 884.5,-233 801.5,-233"/>
<text text-anchor="middle" x="843" y="-240" font-family="Helvetica,sans-Serif" font-size="10.00" fill="#000000">openage.log.err</text>
</a>
</g>
</g>
<!-- Node113&#45;&gt;Node114 -->
<g id="edge22" class="edge">
<title>Node113&#45;&gt;Node114</title>
<path fill="none" stroke="#191970" d="M744.1626,-241.8582C759.4495,-241.9575 775.9883,-242.0649 791.0833,-242.1629"/>
<polygon fill="#191970" stroke="#191970" points="791.2473,-245.6639 801.2699,-242.229 791.2928,-238.6641 791.2473,-245.6639"/>
</g>
<!-- Node115 -->
<g id="node23" class="node">
<title>Node115</title>
<g id="a_node23"><a xlink:href="../../da/daa/classopenage_1_1rng_1_1_r_n_g.xhtml#a95f8c2c7e00ab2531e0e6c33ae70e154" target="_top" xlink:title="Retrieves a random value from the generator. ">
<polygon fill="#ffffff" stroke="#000000" points="789.5,-183.5 789.5,-213.5 896.5,-213.5 896.5,-183.5 789.5,-183.5"/>
<text text-anchor="start" x="797.5" y="-201.5" font-family="Helvetica,sans-Serif" font-size="10.00" fill="#000000">openage::rng::RNG::</text>
<text text-anchor="middle" x="843" y="-190.5" font-family="Helvetica,sans-Serif" font-size="10.00" fill="#000000">random</text>
</a>
</g>
</g>
<!-- Node113&#45;&gt;Node115 -->
<g id="edge24" class="edge">
<title>Node113&#45;&gt;Node115</title>
<path fill="none" stroke="#191970" d="M723.1776,-231.9569C739.779,-227.3215 760.2743,-221.5987 779.5912,-216.2051"/>
<polygon fill="#191970" stroke="#191970" points="780.5662,-219.5668 789.2565,-213.5063 778.6836,-212.8247 780.5662,-219.5668"/>
</g>
<!-- Node116 -->
<g id="node24" class="node">
<title>Node116</title>
<g id="a_node24"><a xlink:href="../../d8/d88/namespaceopenage_1_1rng.xhtml#af7d90437e58aaa4fe1d816ad7b62dc07" target="_top" xlink:title="openage::rng::do_rng">
<polygon fill="#ffffff" stroke="#000000" points="959.5,-189 959.5,-208 1067.5,-208 1067.5,-189 959.5,-189"/>
<text text-anchor="middle" x="1013.5" y="-196" font-family="Helvetica,sans-Serif" font-size="10.00" fill="#000000">openage::rng::do_rng</text>
</a>
</g>
</g>
<!-- Node115&#45;&gt;Node116 -->
<g id="edge25" class="edge">
<title>Node115&#45;&gt;Node116</title>
<path fill="none" stroke="#191970" d="M896.9473,-198.5C913.429,-198.5 931.7234,-198.5 948.8399,-198.5"/>
<polygon fill="#191970" stroke="#191970" points="949.3185,-202.0001 959.3185,-198.5 949.3184,-195.0001 949.3185,-202.0001"/>
</g>
<!-- Node117&#45;&gt;Node115 -->
<g id="edge27" class="edge">
<title>Node117&#45;&gt;Node115</title>
<path fill="none" stroke="#191970" d="M742.8617,-197.8498C754.6525,-197.9263 767.2412,-198.0081 779.373,-198.0868"/>
<polygon fill="#191970" stroke="#191970" points="779.4062,-201.587 789.4287,-198.1521 779.4517,-194.5872 779.4062,-201.587"/>
</g>
<!-- Node118 -->
<g id="node26" class="node">
<title>Node118</title>
<g id="a_node26"><a xlink:href="../../da/daa/classopenage_1_1rng_1_1_r_n_g.xhtml#accd55f47ffd4049900e96f032f0a9375" target="_top" xlink:title="openage::rng::RNG::max">
<polygon fill="#ffffff" stroke="#000000" points="780,-145 780,-164 906,-164 906,-145 780,-145"/>
<text text-anchor="middle" x="843" y="-152" font-family="Helvetica,sans-Serif" font-size="10.00" fill="#000000">openage::rng::RNG::max</text>
</a>
</g>
</g>
<!-- Node117&#45;&gt;Node118 -->
<g id="edge28" class="edge">
<title>Node117&#45;&gt;Node118</title>
<path fill="none" stroke="#191970" d="M742.8617,-182.4607C761.1333,-177.3589 781.3212,-171.722 798.7555,-166.854"/>
<polygon fill="#191970" stroke="#191970" points="799.9767,-170.147 808.667,-164.0865 798.0941,-163.4048 799.9767,-170.147"/>
</g>
<!-- Node119&#45;&gt;Node113 -->
<g id="edge30" class="edge">
<title>Node119&#45;&gt;Node113</title>
<path fill="none" stroke="#191970" d="M569.1719,-209.0305C591.2896,-215.0236 620.0422,-222.8147 643.8383,-229.2626"/>
<polygon fill="#191970" stroke="#191970" points="643.132,-232.6974 653.6993,-231.9347 644.9628,-225.941 643.132,-232.6974"/>
</g>
</g>
</svg>
        <g id="navigator" transform="translate(0 0)" fill="#404254">
                <rect fill="#f2f5e9" fill-opacity="0.5" stroke="#606060" stroke-width=".5" x="0" y="0" width="60" height="60"/>
                <use id="zoomplus" xlink:href="#zoomPlus" x="17" y="9" onmousedown="handleZoom(evt,'in')"/>
                <use id="zoomminus" xlink:href="#zoomMin" x="42" y="9" onmousedown="handleZoom(evt,'out')"/>
                <use id="reset" xlink:href="#resetDef" x="30" y="36" onmousedown="handleReset()"/>
                <g id="arrowUp" xlink:href="#dirArrow" transform="translate(30 24)" onmousedown="handlePan(0,-1)">
                  <use xlink:href="#rim" fill="#404040">
                        <set attributeName="fill" to="#808080" begin="arrowUp.mouseover" end="arrowUp.mouseout"/>
                  </use>
                  <path fill="none" stroke="white" stroke-width="1.5" d="M0,-3.0v7 M-2.5,-0.5L0,-3.0L2.5,-0.5"/>
                </g>
                <g id="arrowRight" xlink:href="#dirArrow" transform="rotate(90) translate(36 -43)" onmousedown="handlePan(1,0)">
                  <use xlink:href="#rim" fill="#404040">
                        <set attributeName="fill" to="#808080" begin="arrowRight.mouseover" end="arrowRight.mouseout"/>
                  </use>
                  <path fill="none" stroke="white" stroke-width="1.5" d="M0,-3.0v7 M-2.5,-0.5L0,-3.0L2.5,-0.5"/>
                </g>
                <g id="arrowDown" xlink:href="#dirArrow" transform="rotate(180) translate(-30 -48)" onmousedown="handlePan(0,1)">
                  <use xlink:href="#rim" fill="#404040">
                        <set attributeName="fill" to="#808080" begin="arrowDown.mouseover" end="arrowDown.mouseout"/>
                  </use>
                  <path fill="none" stroke="white" stroke-width="1.5" d="M0,-3.0v7 M-2.5,-0.5L0,-3.0L2.5,-0.5"/>
                </g>
                <g id="arrowLeft" xlink:href="#dirArrow" transform="rotate(270) translate(-36 17)" onmousedown="handlePan(-1,0)">
                  <use xlink:href="#rim" fill="#404040">
                        <set attributeName="fill" to="#808080" begin="arrowLeft.mouseover" end="arrowLeft.mouseout"/>
                  </use>
                  <path fill="none" stroke="white" stroke-width="1.5" d="M0,-3.0v7 M-2.5,-0.5L0,-3.0L2.5,-0.5"/>
                </g>
        </g>
        <svg viewBox="0 0 15 15" width="100%" height="30px" preserveAspectRatio="xMaxYMin meet">
         <g id="arrow_out" transform="scale(0.3 0.3)">
          <a xlink:href="classopenage_1_1_generator_ae221973cf4125fbf62af6f9626609b4a_cgraph_org.svg" target="_base">
           <rect id="button" ry="5" rx="5" y="6" x="6" height="38" width="38"
                fill="#f2f5e9" fill-opacity="0.5" stroke="#606060" stroke-width="1.0"/>
           <path id="arrow"
             d="M 11.500037,31.436501 C 11.940474,20.09759 22.043105,11.32322 32.158766,21.979434 L 37.068811,17.246167 C 37.068811,17.246167 37.088388,32 37.088388,32 L 22.160133,31.978069 C 22.160133,31.978069 26.997745,27.140456 26.997745,27.140456 C 18.528582,18.264221 13.291696,25.230495 11.500037,31.436501 z"
             style="fill:#404040;"/>
          </a>
         </g>
        </svg>
</svg>
