<?xml version="1.0" encoding="UTF-8" standalone="no"?>
<!DOCTYPE svg PUBLIC "-//W3C//DTD SVG 1.1//EN"
 "http://www.w3.org/Graphics/SVG/1.1/DTD/svg11.dtd">
<!-- Generated by graphviz version 2.40.1 (20161225.0304)
 -->
<!-- Title: openage::Generator::add_units Pages: 1 -->
<!--zoomable 588 -->
<svg id="main" version="1.1" xmlns="http://www.w3.org/2000/svg" xmlns:xlink="http://www.w3.org/1999/xlink" xml:space="preserve" onload="init(evt)">
<style type="text/css"><![CDATA[
.edge:hover path { stroke: red; }
.edge:hover polygon { stroke: red; fill: red; }
]]></style>
<script type="text/javascript"><![CDATA[
var edges = document.getElementsByTagName('g');
if (edges && edges.length) {
  for (var i=0;i<edges.length;i++) {
    if (edges[i].id.substr(0,4)=='edge') {
      edges[i].setAttribute('class','edge');
    }
  }
}
]]></script>
        <defs>
                <circle id="rim" cx="0" cy="0" r="7"/>
                <circle id="rim2" cx="0" cy="0" r="3.5"/>
                <g id="zoomPlus">
                        <use xlink:href="#rim" fill="#404040">
                                <set attributeName="fill" to="#808080" begin="zoomplus.mouseover" end="zoomplus.mouseout"/>
                        </use>
                        <path d="M-4,0h8M0,-4v8" fill="none" stroke="white" stroke-width="1.5" pointer-events="none"/>
                </g>
                <g id="zoomMin">
                        <use xlink:href="#rim" fill="#404040">
                                <set attributeName="fill" to="#808080" begin="zoomminus.mouseover" end="zoomminus.mouseout"/>
                        </use>
                        <path d="M-4,0h8" fill="none" stroke="white" stroke-width="1.5" pointer-events="none"/>
                </g>
                <g id="dirArrow">
                        <path fill="none" stroke="white" stroke-width="1.5" d="M0,-3.0v7 M-2.5,-0.5L0,-3.0L2.5,-0.5"/>
                </g>
               <g id="resetDef">
                       <use xlink:href="#rim2" fill="#404040">
                               <set attributeName="fill" to="#808080" begin="reset.mouseover" end="reset.mouseout"/>
                       </use>
               </g>
        </defs>

<script type="text/javascript">
var viewWidth = 960;
var viewHeight = 588;
var sectionId = 'dynsection-3';
</script>
<script xlink:href="../../svgpan.js"/>
<svg id="graph" class="graph">
<g id="viewport">
<title>openage::Generator::add_units</title>
<polygon fill="#ffffff" stroke="transparent" points="-4,4 -4,-583.5 956,-583.5 956,4 -4,4"/>
<!-- Node4 -->
<g id="node1" class="node">
<title>Node4</title>
<polygon fill="#bfbfbf" stroke="#000000" points="0,-141.5 0,-171.5 102,-171.5 102,-141.5 0,-141.5"/>
<text text-anchor="start" x="8" y="-159.5" font-family="Helvetica,sans-Serif" font-size="10.00" fill="#000000">openage::Generator</text>
<text text-anchor="middle" x="51" y="-148.5" font-family="Helvetica,sans-Serif" font-size="10.00" fill="#000000">::add_units</text>
</g>
<!-- Node5 -->
<g id="node2" class="node">
<title>Node5</title>
<g id="a_node2"><a xlink:href="../../da/d23/namespaceopenage.xhtml#a8c248986ac22a8251e1f27a6cef087eb" target="_top" xlink:title="sets a building to a fully completed state ">
<polygon fill="#ffffff" stroke="#000000" points="138,-235 138,-254 275,-254 275,-235 138,-235"/>
<text text-anchor="middle" x="206.5" y="-242" font-family="Helvetica,sans-Serif" font-size="10.00" fill="#000000">openage::complete_building</text>
</a>
</g>
</g>
<!-- Node4&#45;&gt;Node5 -->
<g id="edge1" class="edge">
<title>Node4&#45;&gt;Node5</title>
<path fill="none" stroke="#191970" d="M66.014,-171.5619C82.3798,-187.1758 109.9921,-211.2537 138,-225.5 142.5582,-227.8185 147.4354,-229.8843 152.4091,-231.7184"/>
<polygon fill="#191970" stroke="#191970" points="151.4398,-235.0851 162.034,-234.9653 153.6774,-228.4524 151.4398,-235.0851"/>
</g>
<!-- Node20 -->
<g id="node17" class="node">
<title>Node20</title>
<g id="a_node17"><a xlink:href="../../d9/d9c/classopenage_1_1_game_main.xhtml#ace86de3be7238212c0b49ecc1247e8a4" target="_top" xlink:title="player by index ">
<polygon fill="#ffffff" stroke="#000000" points="150,-185.5 150,-215.5 263,-215.5 263,-185.5 150,-185.5"/>
<text text-anchor="start" x="158" y="-203.5" font-family="Helvetica,sans-Serif" font-size="10.00" fill="#000000">openage::GameMain::</text>
<text text-anchor="middle" x="206.5" y="-192.5" font-family="Helvetica,sans-Serif" font-size="10.00" fill="#000000">get_player</text>
</a>
</g>
</g>
<!-- Node4&#45;&gt;Node20 -->
<g id="edge19" class="edge">
<title>Node4&#45;&gt;Node20</title>
<path fill="none" stroke="#191970" d="M102.3475,-171.0292C115.5169,-174.7556 129.8331,-178.8065 143.5159,-182.6781"/>
<polygon fill="#191970" stroke="#191970" points="142.7665,-186.1034 153.3417,-185.4584 144.6724,-179.3679 142.7665,-186.1034"/>
</g>
<!-- Node21 -->
<g id="node18" class="node">
<title>Node21</title>
<g id="a_node18"><a xlink:href="../../d8/d47/classopenage_1_1_player.xhtml#a67c7f6853d4be5c38d2456169af3d5a1" target="_top" xlink:title="unit types by aoe gamedata unit ids – the unit type which corresponds to an aoe unit id ...">
<polygon fill="#ffffff" stroke="#000000" points="141,-147 141,-166 272,-166 272,-147 141,-147"/>
<text text-anchor="middle" x="206.5" y="-154" font-family="Helvetica,sans-Serif" font-size="10.00" fill="#000000">openage::Player::get_type</text>
</a>
</g>
</g>
<!-- Node4&#45;&gt;Node21 -->
<g id="edge20" class="edge">
<title>Node4&#45;&gt;Node21</title>
<path fill="none" stroke="#191970" d="M102.3475,-156.5C111.4738,-156.5 121.1509,-156.5 130.7862,-156.5"/>
<polygon fill="#191970" stroke="#191970" points="130.7873,-160.0001 140.7873,-156.5 130.7873,-153.0001 130.7873,-160.0001"/>
</g>
<!-- Node29 -->
<g id="node26" class="node">
<title>Node29</title>
<g id="a_node26"><a xlink:href="../../d2/d82/classopenage_1_1_unit_container.xhtml#a39947500d16e9d67eb72458f3df7c796" target="_top" xlink:title="creates a new unit without initialising ">
<polygon fill="#ffffff" stroke="#000000" points="147,-97.5 147,-127.5 266,-127.5 266,-97.5 147,-97.5"/>
<text text-anchor="start" x="155" y="-115.5" font-family="Helvetica,sans-Serif" font-size="10.00" fill="#000000">openage::UnitContainer</text>
<text text-anchor="middle" x="206.5" y="-104.5" font-family="Helvetica,sans-Serif" font-size="10.00" fill="#000000">::new_unit</text>
</a>
</g>
</g>
<!-- Node4&#45;&gt;Node29 -->
<g id="edge28" class="edge">
<title>Node4&#45;&gt;Node29</title>
<path fill="none" stroke="#191970" d="M102.3475,-141.9708C115.5169,-138.2444 129.8331,-134.1935 143.5159,-130.3219"/>
<polygon fill="#191970" stroke="#191970" points="144.6724,-133.6321 153.3417,-127.5416 142.7665,-126.8966 144.6724,-133.6321"/>
</g>
<!-- Node30 -->
<g id="node27" class="node">
<title>Node30</title>
<g id="a_node27"><a xlink:href="../../d5/d10/structopenage_1_1coord_1_1tile.xhtml#ac306cc74c14e094567447277327b389a" target="_top" xlink:title="openage::coord::tile\l::to_phys3">
<polygon fill="#ffffff" stroke="#000000" points="155.5,-48.5 155.5,-78.5 257.5,-78.5 257.5,-48.5 155.5,-48.5"/>
<text text-anchor="start" x="163.5" y="-66.5" font-family="Helvetica,sans-Serif" font-size="10.00" fill="#000000">openage::coord::tile</text>
<text text-anchor="middle" x="206.5" y="-55.5" font-family="Helvetica,sans-Serif" font-size="10.00" fill="#000000">::to_phys3</text>
</a>
</g>
</g>
<!-- Node4&#45;&gt;Node30 -->
<g id="edge29" class="edge">
<title>Node4&#45;&gt;Node30</title>
<path fill="none" stroke="#191970" d="M66.8208,-141.2359C83.4156,-125.9109 110.8183,-102.4824 138,-87.5 141.0728,-85.8063 144.2875,-84.1971 147.5769,-82.6741"/>
<polygon fill="#191970" stroke="#191970" points="149.1948,-85.7879 156.989,-78.6114 146.4207,-79.3611 149.1948,-85.7879"/>
</g>
<!-- Node6 -->
<g id="node3" class="node">
<title>Node6</title>
<g id="a_node3"><a xlink:href="../../df/dea/classopenage_1_1_unit.xhtml#a3e12324401051119f44e212dae1a87ce" target="_top" xlink:title="returns attribute based on templated value ">
<polygon fill="#ffffff" stroke="#000000" points="316,-390.5 316,-420.5 413,-420.5 413,-390.5 316,-390.5"/>
<text text-anchor="start" x="324" y="-408.5" font-family="Helvetica,sans-Serif" font-size="10.00" fill="#000000">openage::Unit::get</text>
<text text-anchor="middle" x="364.5" y="-397.5" font-family="Helvetica,sans-Serif" font-size="10.00" fill="#000000">_attribute</text>
</a>
</g>
</g>
<!-- Node5&#45;&gt;Node6 -->
<g id="edge2" class="edge">
<title>Node5&#45;&gt;Node6</title>
<path fill="none" stroke="#191970" d="M215.9105,-254.0891C240.4923,-279.1377 307.149,-347.06 342.2281,-382.8052"/>
<polygon fill="#191970" stroke="#191970" points="340.1112,-385.6451 349.6135,-390.3309 345.1073,-380.7421 340.1112,-385.6451"/>
</g>
<!-- Node13 -->
<g id="node10" class="node">
<title>Node13</title>
<g id="a_node10"><a xlink:href="../../df/dea/classopenage_1_1_unit.xhtml#a6c56a8b7e9856a8e0535cacbe831bae7" target="_top" xlink:title="returns whether attribute is available ">
<polygon fill="#ffffff" stroke="#000000" points="669.5,-258.5 669.5,-288.5 768.5,-288.5 768.5,-258.5 669.5,-258.5"/>
<text text-anchor="start" x="677.5" y="-276.5" font-family="Helvetica,sans-Serif" font-size="10.00" fill="#000000">openage::Unit::has</text>
<text text-anchor="middle" x="719" y="-265.5" font-family="Helvetica,sans-Serif" font-size="10.00" fill="#000000">_attribute</text>
</a>
</g>
</g>
<!-- Node5&#45;&gt;Node13 -->
<g id="edge18" class="edge">
<title>Node5&#45;&gt;Node13</title>
<path fill="none" stroke="#191970" d="M275.3233,-245.6058C355.5412,-247.2723 492.0492,-251.2789 609,-260.5 625.3519,-261.7893 643.019,-263.6626 659.3095,-265.5877"/>
<polygon fill="#191970" stroke="#191970" points="658.9032,-269.064 669.2507,-266.7882 659.7425,-262.1145 658.9032,-269.064"/>
</g>
<!-- Node7 -->
<g id="node4" class="node">
<title>Node7</title>
<g id="a_node4"><a xlink:href="../../de/d8a/classopenage_1_1_attributes.xhtml#a08f927be3be6911e7cf77604f9ead10f" target="_top" xlink:title="Get the attribute based on the type. ">
<polygon fill="#ffffff" stroke="#000000" points="471,-434 471,-453 592,-453 592,-434 471,-434"/>
<text text-anchor="middle" x="531.5" y="-441" font-family="Helvetica,sans-Serif" font-size="10.00" fill="#000000">openage::Attributes::get</text>
</a>
</g>
</g>
<!-- Node6&#45;&gt;Node7 -->
<g id="edge3" class="edge">
<title>Node6&#45;&gt;Node7</title>
<path fill="none" stroke="#191970" d="M413.2522,-416.5933C434.1133,-421.3401 458.4961,-426.8883 479.6834,-431.7094"/>
<polygon fill="#191970" stroke="#191970" points="478.9553,-435.1331 489.4827,-433.9392 480.5085,-428.3076 478.9553,-435.1331"/>
</g>
<!-- Node8 -->
<g id="node5" class="node">
<title>Node8</title>
<g id="a_node5"><a xlink:href="../../df/dea/classopenage_1_1_unit.xhtml#ac5dcdf3180dcd4bdce67b765d8ef2134" target="_top" xlink:title="queues a command to be applied to this unit on the next update ">
<polygon fill="#ffffff" stroke="#000000" points="464.5,-396 464.5,-415 598.5,-415 598.5,-396 464.5,-396"/>
<text text-anchor="middle" x="531.5" y="-403" font-family="Helvetica,sans-Serif" font-size="10.00" fill="#000000">openage::Unit::queue_cmd</text>
</a>
</g>
</g>
<!-- Node6&#45;&gt;Node8 -->
<g id="edge4" class="edge">
<title>Node6&#45;&gt;Node8</title>
<path fill="none" stroke="#191970" d="M413.2522,-405.5C426.1124,-405.5 440.3109,-405.5 454.2741,-405.5"/>
<polygon fill="#191970" stroke="#191970" points="454.3774,-409.0001 464.3773,-405.5 454.3773,-402.0001 454.3774,-409.0001"/>
</g>
<!-- Node10 -->
<g id="node7" class="node">
<title>Node10</title>
<g id="a_node7"><a xlink:href="../../df/dea/classopenage_1_1_unit.xhtml#a238fb029bd4cc32e393506533facd976" target="_top" xlink:title="removes all gather actions without calling their on_complete actions this cancels the gathering actio...">
<polygon fill="#ffffff" stroke="#000000" points="668,-351.5 668,-381.5 770,-381.5 770,-351.5 668,-351.5"/>
<text text-anchor="start" x="676" y="-369.5" font-family="Helvetica,sans-Serif" font-size="10.00" fill="#000000">openage::Unit::stop</text>
<text text-anchor="middle" x="719" y="-358.5" font-family="Helvetica,sans-Serif" font-size="10.00" fill="#000000">_gather</text>
</a>
</g>
</g>
<!-- Node6&#45;&gt;Node10 -->
<g id="edge6" class="edge">
<title>Node6&#45;&gt;Node10</title>
<path fill="none" stroke="#191970" d="M413.0613,-393.9553C426.2777,-391.152 440.6346,-388.4143 454,-386.5 523.5084,-376.5447 604.03,-371.3577 657.9039,-368.7879"/>
<polygon fill="#191970" stroke="#191970" points="658.1501,-372.2804 667.9781,-368.3231 657.8274,-365.2878 658.1501,-372.2804"/>
</g>
<!-- Node12 -->
<g id="node9" class="node">
<title>Node12</title>
<g id="a_node9"><a xlink:href="../../df/dea/classopenage_1_1_unit.xhtml#a9f53ef015fca7c42ff3bf9d0779145a3" target="_top" xlink:title="removes all actions above and including the first interuptable action this will stop any of the units...">
<polygon fill="#ffffff" stroke="#000000" points="480.5,-308.5 480.5,-338.5 582.5,-338.5 582.5,-308.5 480.5,-308.5"/>
<text text-anchor="start" x="488.5" y="-326.5" font-family="Helvetica,sans-Serif" font-size="10.00" fill="#000000">openage::Unit::stop</text>
<text text-anchor="middle" x="531.5" y="-315.5" font-family="Helvetica,sans-Serif" font-size="10.00" fill="#000000">_actions</text>
</a>
</g>
</g>
<!-- Node6&#45;&gt;Node12 -->
<g id="edge8" class="edge">
<title>Node6&#45;&gt;Node12</title>
<path fill="none" stroke="#191970" d="M388.2536,-390.3222C405.977,-379.3404 430.9984,-364.5497 454,-353.5 462.2135,-349.5544 471.0912,-345.7296 479.8056,-342.2063"/>
<polygon fill="#191970" stroke="#191970" points="481.1447,-345.4406 489.1583,-338.51 478.5718,-338.9305 481.1447,-345.4406"/>
</g>
<!-- Node15 -->
<g id="node12" class="node">
<title>Node15</title>
<g id="a_node12"><a xlink:href="../../df/dea/classopenage_1_1_unit.xhtml#ad7f76de394d832d927a9e6d46bd3c93f" target="_top" xlink:title="begins unit removal by popping some actions ">
<polygon fill="#ffffff" stroke="#000000" points="466,-270 466,-289 597,-289 597,-270 466,-270"/>
<text text-anchor="middle" x="531.5" y="-277" font-family="Helvetica,sans-Serif" font-size="10.00" fill="#000000">openage::Unit::delete_unit</text>
</a>
</g>
</g>
<!-- Node6&#45;&gt;Node15 -->
<g id="edge13" class="edge">
<title>Node6&#45;&gt;Node15</title>
<path fill="none" stroke="#191970" d="M373.0788,-390.2789C386.9822,-367.0415 416.6816,-322.9527 454,-299.5 458.1215,-296.9098 462.5663,-294.6541 467.1686,-292.6896"/>
<polygon fill="#191970" stroke="#191970" points="468.6687,-295.8643 476.7838,-289.0528 466.1922,-289.317 468.6687,-295.8643"/>
</g>
<!-- Node16 -->
<g id="node13" class="node">
<title>Node16</title>
<g id="a_node13"><a xlink:href="../../df/dea/classopenage_1_1_unit.xhtml#adfea298b04684ab09dd8f499dabb8715" target="_top" xlink:title="get a reference which can check against the container to ensure this object still exists ...">
<polygon fill="#ffffff" stroke="#000000" points="475,-560 475,-579 588,-579 588,-560 475,-560"/>
<text text-anchor="middle" x="531.5" y="-567" font-family="Helvetica,sans-Serif" font-size="10.00" fill="#000000">openage::Unit::get_ref</text>
</a>
</g>
</g>
<!-- Node6&#45;&gt;Node16 -->
<g id="edge14" class="edge">
<title>Node6&#45;&gt;Node16</title>
<path fill="none" stroke="#191970" d="M369.5407,-420.9529C380.1253,-450.8721 407.5965,-516.7299 454,-550.5 457.6264,-553.1391 461.575,-555.4145 465.7064,-557.3761"/>
<polygon fill="#191970" stroke="#191970" points="464.4086,-560.6268 474.9886,-561.1884 467.068,-554.1516 464.4086,-560.6268"/>
</g>
<!-- Node17 -->
<g id="node14" class="node">
<title>Node17</title>
<g id="a_node14"><a xlink:href="../../df/dea/classopenage_1_1_unit.xhtml#a2e9937d84fe91d95cbe273f6fe986068" target="_top" xlink:title="the container used when constructing this unit ">
<polygon fill="#ffffff" stroke="#000000" points="483,-510.5 483,-540.5 580,-540.5 580,-510.5 483,-510.5"/>
<text text-anchor="start" x="491" y="-528.5" font-family="Helvetica,sans-Serif" font-size="10.00" fill="#000000">openage::Unit::get</text>
<text text-anchor="middle" x="531.5" y="-517.5" font-family="Helvetica,sans-Serif" font-size="10.00" fill="#000000">_container</text>
</a>
</g>
</g>
<!-- Node6&#45;&gt;Node17 -->
<g id="edge15" class="edge">
<title>Node6&#45;&gt;Node17</title>
<path fill="none" stroke="#191970" d="M374.8673,-420.5823C389.9535,-441.4402 419.9046,-478.9515 454,-500.5 459.8615,-504.2045 466.3218,-507.4072 472.9362,-510.1644"/>
<polygon fill="#191970" stroke="#191970" points="472.0951,-513.5898 482.6856,-513.8917 474.5949,-507.0514 472.0951,-513.5898"/>
</g>
<!-- Node18 -->
<g id="node15" class="node">
<title>Node18</title>
<g id="a_node15"><a xlink:href="../../df/dea/classopenage_1_1_unit.xhtml#ae769f520dfdb148ec831c151a954a881" target="_top" xlink:title="Returns the unit&#39;s name as the LogSource name. ">
<polygon fill="#ffffff" stroke="#000000" points="454,-472 454,-491 609,-491 609,-472 454,-472"/>
<text text-anchor="middle" x="531.5" y="-479" font-family="Helvetica,sans-Serif" font-size="10.00" fill="#000000">openage::Unit::logsource_name</text>
</a>
</g>
</g>
<!-- Node6&#45;&gt;Node18 -->
<g id="edge16" class="edge">
<title>Node6&#45;&gt;Node18</title>
<path fill="none" stroke="#191970" d="M384.0625,-420.6316C401.5262,-433.467 428.2504,-451.4991 454,-462.5 459.7686,-464.9645 465.9211,-467.1516 472.1414,-469.0823"/>
<polygon fill="#191970" stroke="#191970" points="471.3478,-472.4961 481.9264,-471.9083 473.2902,-465.7709 471.3478,-472.4961"/>
</g>
<!-- Node9 -->
<g id="node6" class="node">
<title>Node9</title>
<g id="a_node6"><a xlink:href="../../d8/dda/classopenage_1_1_command.xhtml#afbc0a60d82b9608e375c38c5e3fdf758" target="_top" xlink:title="the ability types allowed to use this command ">
<polygon fill="#ffffff" stroke="#000000" points="651,-401 651,-420 787,-420 787,-401 651,-401"/>
<text text-anchor="middle" x="719" y="-408" font-family="Helvetica,sans-Serif" font-size="10.00" fill="#000000">openage::Command::ability</text>
</a>
</g>
</g>
<!-- Node8&#45;&gt;Node9 -->
<g id="edge5" class="edge">
<title>Node8&#45;&gt;Node9</title>
<path fill="none" stroke="#191970" d="M598.6622,-407.291C612.2759,-407.654 626.7049,-408.0388 640.6651,-408.4111"/>
<polygon fill="#191970" stroke="#191970" points="640.6393,-411.9115 650.7291,-408.6794 640.826,-404.914 640.6393,-411.9115"/>
</g>
<!-- Node11 -->
<g id="node8" class="node">
<title>Node11</title>
<g id="a_node8"><a xlink:href="../../df/dea/classopenage_1_1_unit.xhtml#aae0b3f53cb1d75823391322876d199ef" target="_top" xlink:title="erase from action specified by func to the end of the stack all actions erased will have the on_compl...">
<polygon fill="#ffffff" stroke="#000000" points="837,-329.5 837,-359.5 944,-359.5 944,-329.5 837,-329.5"/>
<text text-anchor="start" x="845" y="-347.5" font-family="Helvetica,sans-Serif" font-size="10.00" fill="#000000">openage::Unit::erase</text>
<text text-anchor="middle" x="890.5" y="-336.5" font-family="Helvetica,sans-Serif" font-size="10.00" fill="#000000">_after</text>
</a>
</g>
</g>
<!-- Node10&#45;&gt;Node11 -->
<g id="edge7" class="edge">
<title>Node10&#45;&gt;Node11</title>
<path fill="none" stroke="#191970" d="M770.4557,-359.8993C788.1876,-357.6246 808.2619,-355.0495 826.8495,-352.6651"/>
<polygon fill="#191970" stroke="#191970" points="827.5253,-356.1072 836.9986,-351.3632 826.6345,-349.1641 827.5253,-356.1072"/>
</g>
<!-- Node12&#45;&gt;Node10 -->
<g id="edge11" class="edge">
<title>Node12&#45;&gt;Node10</title>
<path fill="none" stroke="#191970" d="M582.7352,-335.2499C605.988,-340.5826 633.6678,-346.9305 657.9867,-352.5076"/>
<polygon fill="#191970" stroke="#191970" points="657.2974,-355.9403 667.8267,-354.7643 658.8622,-349.1174 657.2974,-355.9403"/>
</g>
<!-- Node12&#45;&gt;Node11 -->
<g id="edge12" class="edge">
<title>Node12&#45;&gt;Node11</title>
<path fill="none" stroke="#191970" d="M582.5547,-326.4865C646.7236,-330.2401 756.8824,-336.6839 826.5835,-340.7612"/>
<polygon fill="#191970" stroke="#191970" points="826.7989,-344.2796 836.9863,-341.3697 827.2077,-337.2916 826.7989,-344.2796"/>
</g>
<!-- Node12&#45;&gt;Node13 -->
<g id="edge9" class="edge">
<title>Node12&#45;&gt;Node13</title>
<path fill="none" stroke="#191970" d="M582.7352,-309.8373C606.4645,-303.5095 634.8041,-295.9522 659.4774,-289.3727"/>
<polygon fill="#191970" stroke="#191970" points="660.6848,-292.6731 669.4453,-286.7146 658.8811,-285.9095 660.6848,-292.6731"/>
</g>
<!-- Node14 -->
<g id="node11" class="node">
<title>Node14</title>
<g id="a_node11"><a xlink:href="../../de/d8a/classopenage_1_1_attributes.xhtml#aee38f453ac85b68821958ad74cdd8df5" target="_top" xlink:title="Check if the attribute of the given type exists. ">
<polygon fill="#ffffff" stroke="#000000" points="829,-264 829,-283 952,-283 952,-264 829,-264"/>
<text text-anchor="middle" x="890.5" y="-271" font-family="Helvetica,sans-Serif" font-size="10.00" fill="#000000">openage::Attributes::has</text>
</a>
</g>
</g>
<!-- Node13&#45;&gt;Node14 -->
<g id="edge10" class="edge">
<title>Node13&#45;&gt;Node14</title>
<path fill="none" stroke="#191970" d="M768.6049,-273.5C784.1704,-273.5 801.6808,-273.5 818.4708,-273.5"/>
<polygon fill="#191970" stroke="#191970" points="818.808,-277.0001 828.8079,-273.5 818.8079,-270.0001 818.808,-277.0001"/>
</g>
<!-- Node19 -->
<g id="node16" class="node">
<title>Node19</title>
<g id="a_node16"><a xlink:href="../../d8/dcc/namespacestd.xhtml#a26aa0f4be3a77ac5cc3ce0cabb545042" target="_top" xlink:title="std::to_string">
<polygon fill="#ffffff" stroke="#000000" points="682,-472 682,-491 756,-491 756,-472 682,-472"/>
<text text-anchor="middle" x="719" y="-479" font-family="Helvetica,sans-Serif" font-size="10.00" fill="#000000">std::to_string</text>
</a>
</g>
</g>
<!-- Node18&#45;&gt;Node19 -->
<g id="edge17" class="edge">
<title>Node18&#45;&gt;Node19</title>
<path fill="none" stroke="#191970" d="M609.1169,-481.5C630.3682,-481.5 652.7598,-481.5 671.7451,-481.5"/>
<polygon fill="#191970" stroke="#191970" points="671.9132,-485.0001 681.9132,-481.5 671.9131,-478.0001 671.9132,-485.0001"/>
</g>
<!-- Node22 -->
<g id="node19" class="node">
<title>Node22</title>
<g id="a_node19"><a xlink:href="../../dd/d1a/namespaceopenage_1_1log.xhtml#a0eff614e7d6e818746700ed9d29e583f" target="_top" xlink:title="Convenience method that makes use of the &#39;general&#39; LogSource. ">
<polygon fill="#ffffff" stroke="#000000" points="319,-159 319,-178 410,-178 410,-159 319,-159"/>
<text text-anchor="middle" x="364.5" y="-166" font-family="Helvetica,sans-Serif" font-size="10.00" fill="#000000">openage::log::log</text>
</a>
</g>
</g>
<!-- Node21&#45;&gt;Node22 -->
<g id="edge21" class="edge">
<title>Node21&#45;&gt;Node22</title>
<path fill="none" stroke="#191970" d="M272.1336,-161.4848C284.1997,-162.4012 296.6942,-163.3502 308.4468,-164.2428"/>
<polygon fill="#191970" stroke="#191970" points="308.3181,-167.743 318.5544,-165.0105 308.8482,-160.7631 308.3181,-167.743"/>
</g>
<!-- Node28 -->
<g id="node25" class="node">
<title>Node28</title>
<g id="a_node25"><a xlink:href="../../dd/d1a/namespaceopenage_1_1log.xhtml#a403182e8d0c54bd49bea6934c3cb1e28" target="_top" xlink:title="info message ">
<polygon fill="#ffffff" stroke="#000000" points="320.5,-121 320.5,-140 408.5,-140 408.5,-121 320.5,-121"/>
<text text-anchor="middle" x="364.5" y="-128" font-family="Helvetica,sans-Serif" font-size="10.00" fill="#000000">openage.log.info</text>
</a>
</g>
</g>
<!-- Node21&#45;&gt;Node28 -->
<g id="edge27" class="edge">
<title>Node21&#45;&gt;Node28</title>
<path fill="none" stroke="#191970" d="M264.4362,-146.9662C279.4636,-144.4933 295.5879,-141.84 310.4092,-139.401"/>
<polygon fill="#191970" stroke="#191970" points="311.1335,-142.829 320.4324,-137.7516 309.9968,-135.9219 311.1335,-142.829"/>
</g>
<!-- Node23 -->
<g id="node20" class="node">
<title>Node23</title>
<g id="a_node20"><a xlink:href="../../dd/d1a/namespaceopenage_1_1log.xhtml#a3fbb0c225d01e222648ec28a43507188" target="_top" xlink:title="Returns a reference to a general named log source, for use by log::log(). ">
<polygon fill="#ffffff" stroke="#000000" points="476.5,-110.5 476.5,-140.5 586.5,-140.5 586.5,-110.5 476.5,-110.5"/>
<text text-anchor="start" x="484.5" y="-128.5" font-family="Helvetica,sans-Serif" font-size="10.00" fill="#000000">openage::log::general</text>
<text text-anchor="middle" x="531.5" y="-117.5" font-family="Helvetica,sans-Serif" font-size="10.00" fill="#000000">_source</text>
</a>
</g>
</g>
<!-- Node22&#45;&gt;Node23 -->
<g id="edge22" class="edge">
<title>Node22&#45;&gt;Node23</title>
<path fill="none" stroke="#191970" d="M401.5627,-158.9569C420.6454,-154.0434 444.4726,-147.9082 466.4932,-142.2383"/>
<polygon fill="#191970" stroke="#191970" points="467.6487,-145.555 476.4601,-139.672 465.9032,-138.7761 467.6487,-145.555"/>
</g>
<!-- Node24 -->
<g id="node21" class="node">
<title>Node24</title>
<g id="a_node21"><a xlink:href="../../de/de3/classopenage_1_1log_1_1_log_source.xhtml#a5640099e20af4cd368c767dbcef3a1df" target="_top" xlink:title="Logs a message (get one via MSG(level)). ">
<polygon fill="#ffffff" stroke="#000000" points="460,-160 460,-179 603,-179 603,-160 460,-160"/>
<text text-anchor="middle" x="531.5" y="-167" font-family="Helvetica,sans-Serif" font-size="10.00" fill="#000000">openage::log::LogSource::log</text>
</a>
</g>
</g>
<!-- Node22&#45;&gt;Node24 -->
<g id="edge23" class="edge">
<title>Node22&#45;&gt;Node24</title>
<path fill="none" stroke="#191970" d="M410.1335,-168.7733C422.3696,-168.8465 435.9822,-168.928 449.5406,-169.0092"/>
<polygon fill="#191970" stroke="#191970" points="449.8537,-172.5111 459.8745,-169.0711 449.8956,-165.5112 449.8537,-172.5111"/>
</g>
<!-- Node25 -->
<g id="node22" class="node">
<title>Node25</title>
<g id="a_node22"><a xlink:href="../../dd/d1a/namespaceopenage_1_1log.xhtml#a3d2885be9c3a09b9ff7ee8764b2e5f39" target="_top" xlink:title="Returns a reference to the global stdout logsink object; Initializes the object if needed...">
<polygon fill="#ffffff" stroke="#000000" points="667,-110.5 667,-140.5 771,-140.5 771,-110.5 667,-110.5"/>
<text text-anchor="start" x="675" y="-128.5" font-family="Helvetica,sans-Serif" font-size="10.00" fill="#000000">openage::log::global</text>
<text text-anchor="middle" x="719" y="-117.5" font-family="Helvetica,sans-Serif" font-size="10.00" fill="#000000">_stdoutsink</text>
</a>
</g>
</g>
<!-- Node24&#45;&gt;Node25 -->
<g id="edge24" class="edge">
<title>Node24&#45;&gt;Node25</title>
<path fill="none" stroke="#191970" d="M572.1847,-159.9527C596.9334,-154.145 629.0387,-146.6109 656.9128,-140.0698"/>
<polygon fill="#191970" stroke="#191970" points="658.0333,-143.402 666.9692,-137.7099 656.4341,-136.5871 658.0333,-143.402"/>
</g>
<!-- Node26 -->
<g id="node23" class="node">
<title>Node26</title>
<g id="a_node23"><a xlink:href="../../d0/d58/classopenage_1_1log_1_1_log_sink_list.xhtml#a2d47416fab12651553b4b58c86fd6f84" target="_top" xlink:title="openage::log::LogSinkList\l::instance">
<polygon fill="#ffffff" stroke="#000000" points="654.5,-198.5 654.5,-228.5 783.5,-228.5 783.5,-198.5 654.5,-198.5"/>
<text text-anchor="start" x="662.5" y="-216.5" font-family="Helvetica,sans-Serif" font-size="10.00" fill="#000000">openage::log::LogSinkList</text>
<text text-anchor="middle" x="719" y="-205.5" font-family="Helvetica,sans-Serif" font-size="10.00" fill="#000000">::instance</text>
</a>
</g>
</g>
<!-- Node24&#45;&gt;Node26 -->
<g id="edge25" class="edge">
<title>Node24&#45;&gt;Node26</title>
<path fill="none" stroke="#191970" d="M572.1847,-179.0473C593.4835,-184.0455 620.2308,-190.3222 645.0407,-196.1442"/>
<polygon fill="#191970" stroke="#191970" points="644.2658,-199.5574 654.801,-198.4346 645.8651,-192.7425 644.2658,-199.5574"/>
</g>
<!-- Node27 -->
<g id="node24" class="node">
<title>Node27</title>
<g id="a_node24"><a xlink:href="../../d0/d58/classopenage_1_1log_1_1_log_sink_list.xhtml#a8456b84ab55e1fe151c51438c5bfebdd" target="_top" xlink:title="openage::log::LogSinkList::log">
<polygon fill="#ffffff" stroke="#000000" points="645,-160 645,-179 793,-179 793,-160 645,-160"/>
<text text-anchor="middle" x="719" y="-167" font-family="Helvetica,sans-Serif" font-size="10.00" fill="#000000">openage::log::LogSinkList::log</text>
</a>
</g>
</g>
<!-- Node24&#45;&gt;Node27 -->
<g id="edge26" class="edge">
<title>Node24&#45;&gt;Node27</title>
<path fill="none" stroke="#191970" d="M603.1883,-169.5C613.5298,-169.5 624.251,-169.5 634.8088,-169.5"/>
<polygon fill="#191970" stroke="#191970" points="634.8635,-173.0001 644.8635,-169.5 634.8634,-166.0001 634.8635,-173.0001"/>
</g>
<!-- Node31 -->
<g id="node28" class="node">
<title>Node31</title>
<g id="a_node28"><a xlink:href="../../d5/d10/structopenage_1_1coord_1_1tile.xhtml#a3b1cc7af8687d57f014cf86e57476b2b" target="_top" xlink:title="adds an UP component to the coordinate. ">
<polygon fill="#ffffff" stroke="#000000" points="313.5,-49.5 313.5,-79.5 415.5,-79.5 415.5,-49.5 313.5,-49.5"/>
<text text-anchor="start" x="321.5" y="-67.5" font-family="Helvetica,sans-Serif" font-size="10.00" fill="#000000">openage::coord::tile</text>
<text text-anchor="middle" x="364.5" y="-56.5" font-family="Helvetica,sans-Serif" font-size="10.00" fill="#000000">::to_tile3</text>
</a>
</g>
</g>
<!-- Node30&#45;&gt;Node31 -->
<g id="edge30" class="edge">
<title>Node30&#45;&gt;Node31</title>
<path fill="none" stroke="#191970" d="M257.7981,-63.8247C272.2941,-63.9164 288.215,-64.0172 303.2341,-64.1122"/>
<polygon fill="#191970" stroke="#191970" points="303.4373,-67.6135 313.4593,-64.177 303.4817,-60.6136 303.4373,-67.6135"/>
</g>
<!-- Node32 -->
<g id="node29" class="node">
<title>Node32</title>
<g id="a_node29"><a xlink:href="../../db/dd1/structopenage_1_1coord_1_1tile3.xhtml#a4c8cdcd73dd2d7d1e6109c8b4a82ba65" target="_top" xlink:title="openage::coord::tile3\l::to_phys3">
<polygon fill="#ffffff" stroke="#000000" points="311,-.5 311,-30.5 418,-30.5 418,-.5 311,-.5"/>
<text text-anchor="start" x="319" y="-18.5" font-family="Helvetica,sans-Serif" font-size="10.00" fill="#000000">openage::coord::tile3</text>
<text text-anchor="middle" x="364.5" y="-7.5" font-family="Helvetica,sans-Serif" font-size="10.00" fill="#000000">::to_phys3</text>
</a>
</g>
</g>
<!-- Node30&#45;&gt;Node32 -->
<g id="edge31" class="edge">
<title>Node30&#45;&gt;Node32</title>
<path fill="none" stroke="#191970" d="M256.0587,-48.4442C271.6474,-43.7084 289.0208,-38.4304 305.2138,-33.511"/>
<polygon fill="#191970" stroke="#191970" points="306.5664,-36.7581 315.1172,-30.5024 304.5316,-30.0604 306.5664,-36.7581"/>
</g>
</g>
</svg>
        <g id="navigator" transform="translate(0 0)" fill="#404254">
                <rect fill="#f2f5e9" fill-opacity="0.5" stroke="#606060" stroke-width=".5" x="0" y="0" width="60" height="60"/>
                <use id="zoomplus" xlink:href="#zoomPlus" x="17" y="9" onmousedown="handleZoom(evt,'in')"/>
                <use id="zoomminus" xlink:href="#zoomMin" x="42" y="9" onmousedown="handleZoom(evt,'out')"/>
                <use id="reset" xlink:href="#resetDef" x="30" y="36" onmousedown="handleReset()"/>
                <g id="arrowUp" xlink:href="#dirArrow" transform="translate(30 24)" onmousedown="handlePan(0,-1)">
                  <use xlink:href="#rim" fill="#404040">
                        <set attributeName="fill" to="#808080" begin="arrowUp.mouseover" end="arrowUp.mouseout"/>
                  </use>
                  <path fill="none" stroke="white" stroke-width="1.5" d="M0,-3.0v7 M-2.5,-0.5L0,-3.0L2.5,-0.5"/>
                </g>
                <g id="arrowRight" xlink:href="#dirArrow" transform="rotate(90) translate(36 -43)" onmousedown="handlePan(1,0)">
                  <use xlink:href="#rim" fill="#404040">
                        <set attributeName="fill" to="#808080" begin="arrowRight.mouseover" end="arrowRight.mouseout"/>
                  </use>
                  <path fill="none" stroke="white" stroke-width="1.5" d="M0,-3.0v7 M-2.5,-0.5L0,-3.0L2.5,-0.5"/>
                </g>
                <g id="arrowDown" xlink:href="#dirArrow" transform="rotate(180) translate(-30 -48)" onmousedown="handlePan(0,1)">
                  <use xlink:href="#rim" fill="#404040">
                        <set attributeName="fill" to="#808080" begin="arrowDown.mouseover" end="arrowDown.mouseout"/>
                  </use>
                  <path fill="none" stroke="white" stroke-width="1.5" d="M0,-3.0v7 M-2.5,-0.5L0,-3.0L2.5,-0.5"/>
                </g>
                <g id="arrowLeft" xlink:href="#dirArrow" transform="rotate(270) translate(-36 17)" onmousedown="handlePan(-1,0)">
                  <use xlink:href="#rim" fill="#404040">
                        <set attributeName="fill" to="#808080" begin="arrowLeft.mouseover" end="arrowLeft.mouseout"/>
                  </use>
                  <path fill="none" stroke="white" stroke-width="1.5" d="M0,-3.0v7 M-2.5,-0.5L0,-3.0L2.5,-0.5"/>
                </g>
        </g>
        <svg viewBox="0 0 15 15" width="100%" height="30px" preserveAspectRatio="xMaxYMin meet">
         <g id="arrow_out" transform="scale(0.3 0.3)">
          <a xlink:href="classopenage_1_1_generator_a5ba29f137cba8325e0dfff1b753f2d23_cgraph_org.svg" target="_base">
           <rect id="button" ry="5" rx="5" y="6" x="6" height="38" width="38"
                fill="#f2f5e9" fill-opacity="0.5" stroke="#606060" stroke-width="1.0"/>
           <path id="arrow"
             d="M 11.500037,31.436501 C 11.940474,20.09759 22.043105,11.32322 32.158766,21.979434 L 37.068811,17.246167 C 37.068811,17.246167 37.088388,32 37.088388,32 L 22.160133,31.978069 C 22.160133,31.978069 26.997745,27.140456 26.997745,27.140456 C 18.528582,18.264221 13.291696,25.230495 11.500037,31.436501 z"
             style="fill:#404040;"/>
          </a>
         </g>
        </svg>
</svg>
