<?xml version="1.0" encoding="UTF-8" standalone="no"?>
<!DOCTYPE svg PUBLIC "-//W3C//DTD SVG 1.1//EN"
 "http://www.w3.org/Graphics/SVG/1.1/DTD/svg11.dtd">
<!-- Generated by graphviz version 2.40.1 (20161225.0304)
 -->
<!-- Title: openage::Generator::player_names Pages: 1 -->
<svg width="386pt" height="39pt"
 viewBox="0.00 0.00 386.00 39.00" xmlns="http://www.w3.org/2000/svg" xmlns:xlink="http://www.w3.org/1999/xlink">
<g id="graph0" class="graph" transform="scale(1 1) rotate(0) translate(4 35)">
<title>openage::Generator::player_names</title>
<polygon fill="#ffffff" stroke="transparent" points="-4,4 -4,-35 382,-35 382,4 -4,4"/>
<!-- Node129 -->
<g id="node1" class="node">
<title>Node129</title>
<polygon fill="#bfbfbf" stroke="#000000" points="0,-.5 0,-30.5 102,-30.5 102,-.5 0,-.5"/>
<text text-anchor="start" x="8" y="-18.5" font-family="Helvetica,sans-Serif" font-size="10.00" fill="#000000">openage::Generator</text>
<text text-anchor="middle" x="51" y="-7.5" font-family="Helvetica,sans-Serif" font-size="10.00" fill="#000000">::player_names</text>
</g>
<!-- Node130 -->
<g id="node2" class="node">
<title>Node130</title>
<g id="a_node2"><a xlink:href="../../dd/d78/classopenage_1_1_generator.xhtml#ae221973cf4125fbf62af6f9626609b4a" target="_top" xlink:title="openage::Generator\l::create_regions">
<polygon fill="#ffffff" stroke="#000000" points="138,-.5 138,-30.5 240,-30.5 240,-.5 138,-.5"/>
<text text-anchor="start" x="146" y="-18.5" font-family="Helvetica,sans-Serif" font-size="10.00" fill="#000000">openage::Generator</text>
<text text-anchor="middle" x="189" y="-7.5" font-family="Helvetica,sans-Serif" font-size="10.00" fill="#000000">::create_regions</text>
</a>
</g>
</g>
<!-- Node129&#45;&gt;Node130 -->
<g id="edge1" class="edge">
<title>Node129&#45;&gt;Node130</title>
<path fill="none" stroke="#191970" d="M112.4957,-15.5C120.872,-15.5 129.3977,-15.5 137.571,-15.5"/>
<polygon fill="#191970" stroke="#191970" points="112.3861,-12.0001 102.3861,-15.5 112.3861,-19.0001 112.3861,-12.0001"/>
</g>
<!-- Node131 -->
<g id="node3" class="node">
<title>Node131</title>
<g id="a_node3"><a xlink:href="../../dd/d78/classopenage_1_1_generator.xhtml#ab7579f771b73612867f7d07482e0a540" target="_top" xlink:title="Create a game from a specification. ">
<polygon fill="#ffffff" stroke="#000000" points="276,-.5 276,-30.5 378,-30.5 378,-.5 276,-.5"/>
<text text-anchor="start" x="284" y="-18.5" font-family="Helvetica,sans-Serif" font-size="10.00" fill="#000000">openage::Generator</text>
<text text-anchor="middle" x="327" y="-7.5" font-family="Helvetica,sans-Serif" font-size="10.00" fill="#000000">::create</text>
</a>
</g>
</g>
<!-- Node130&#45;&gt;Node131 -->
<g id="edge2" class="edge">
<title>Node130&#45;&gt;Node131</title>
<path fill="none" stroke="#191970" d="M250.4957,-15.5C258.872,-15.5 267.3977,-15.5 275.571,-15.5"/>
<polygon fill="#191970" stroke="#191970" points="250.3861,-12.0001 240.3861,-15.5 250.3861,-19.0001 250.3861,-12.0001"/>
</g>
</g>
</svg>
