<?xml version="1.0" encoding="UTF-8" standalone="no"?>
<!DOCTYPE svg PUBLIC "-//W3C//DTD SVG 1.1//EN"
 "http://www.w3.org/Graphics/SVG/1.1/DTD/svg11.dtd">
<!-- Generated by graphviz version 2.40.1 (20161225.0304)
 -->
<!-- Title: openage::TargetAction::completed Pages: 1 -->
<svg width="427pt" height="88pt"
 viewBox="0.00 0.00 427.00 88.00" xmlns="http://www.w3.org/2000/svg" xmlns:xlink="http://www.w3.org/1999/xlink">
<g id="graph0" class="graph" transform="scale(1 1) rotate(0) translate(4 84)">
<title>openage::TargetAction::completed</title>
<polygon fill="#ffffff" stroke="transparent" points="-4,4 -4,-84 423,-84 423,4 -4,4"/>
<!-- Node20 -->
<g id="node1" class="node">
<title>Node20</title>
<polygon fill="#bfbfbf" stroke="#000000" points="0,-24.5 0,-54.5 115,-54.5 115,-24.5 0,-24.5"/>
<text text-anchor="start" x="8" y="-42.5" font-family="Helvetica,sans-Serif" font-size="10.00" fill="#000000">openage::TargetAction</text>
<text text-anchor="middle" x="57.5" y="-31.5" font-family="Helvetica,sans-Serif" font-size="10.00" fill="#000000">::completed</text>
</g>
<!-- Node21 -->
<g id="node2" class="node">
<title>Node21</title>
<g id="a_node2"><a xlink:href="../../db/d43/classopenage_1_1_gather_action.xhtml#a578fcecec436b05efb5059bbb35837fe" target="_top" xlink:title="openage::GatherAction\l::nearest_dropsite">
<polygon fill="#ffffff" stroke="#000000" points="151,-49.5 151,-79.5 267,-79.5 267,-49.5 151,-49.5"/>
<text text-anchor="start" x="159" y="-67.5" font-family="Helvetica,sans-Serif" font-size="10.00" fill="#000000">openage::GatherAction</text>
<text text-anchor="middle" x="209" y="-56.5" font-family="Helvetica,sans-Serif" font-size="10.00" fill="#000000">::nearest_dropsite</text>
</a>
</g>
</g>
<!-- Node20&#45;&gt;Node21 -->
<g id="edge1" class="edge">
<title>Node20&#45;&gt;Node21</title>
<path fill="none" stroke="#191970" d="M125.2035,-50.6722C133.7959,-52.0901 142.528,-53.531 150.9508,-54.9209"/>
<polygon fill="#191970" stroke="#191970" points="125.6443,-47.1977 115.2078,-49.0227 124.5045,-54.1043 125.6443,-47.1977"/>
</g>
<!-- Node23 -->
<g id="node4" class="node">
<title>Node23</title>
<g id="a_node4"><a xlink:href="../../d6/dc0/classopenage_1_1_build_action.xhtml#a9f64ee829cfb671065dcfc7c876c346e" target="_top" xlink:title="action to perform when popped from a units action stack ">
<polygon fill="#ffffff" stroke="#000000" points="154.5,-.5 154.5,-30.5 263.5,-30.5 263.5,-.5 154.5,-.5"/>
<text text-anchor="start" x="162.5" y="-18.5" font-family="Helvetica,sans-Serif" font-size="10.00" fill="#000000">openage::BuildAction</text>
<text text-anchor="middle" x="209" y="-7.5" font-family="Helvetica,sans-Serif" font-size="10.00" fill="#000000">::on_completion</text>
</a>
</g>
</g>
<!-- Node20&#45;&gt;Node23 -->
<g id="edge3" class="edge">
<title>Node20&#45;&gt;Node23</title>
<path fill="none" stroke="#191970" d="M125.2876,-28.7614C135.0484,-27.2151 144.9876,-25.6406 154.4472,-24.142"/>
<polygon fill="#191970" stroke="#191970" points="124.537,-25.3365 115.2078,-30.3582 125.6323,-32.2503 124.537,-25.3365"/>
</g>
<!-- Node22 -->
<g id="node3" class="node">
<title>Node22</title>
<g id="a_node3"><a xlink:href="../../db/d43/classopenage_1_1_gather_action.xhtml#ae49e08d7e107415297f6c58320570858" target="_top" xlink:title="Control units action when in range of the target. ">
<polygon fill="#ffffff" stroke="#000000" points="303,-49.5 303,-79.5 419,-79.5 419,-49.5 303,-49.5"/>
<text text-anchor="start" x="311" y="-67.5" font-family="Helvetica,sans-Serif" font-size="10.00" fill="#000000">openage::GatherAction</text>
<text text-anchor="middle" x="361" y="-56.5" font-family="Helvetica,sans-Serif" font-size="10.00" fill="#000000">::update_in_range</text>
</a>
</g>
</g>
<!-- Node21&#45;&gt;Node22 -->
<g id="edge2" class="edge">
<title>Node21&#45;&gt;Node22</title>
<path fill="none" stroke="#191970" d="M277.5423,-64.5C285.9862,-64.5 294.5541,-64.5 302.8236,-64.5"/>
<polygon fill="#191970" stroke="#191970" points="277.3325,-61.0001 267.3325,-64.5 277.3324,-68.0001 277.3325,-61.0001"/>
</g>
</g>
</svg>
