<?xml version="1.0" encoding="UTF-8" standalone="no"?>
<!DOCTYPE svg PUBLIC "-//W3C//DTD SVG 1.1//EN"
 "http://www.w3.org/Graphics/SVG/1.1/DTD/svg11.dtd">
<!-- Generated by graphviz version 2.40.1 (20161225.0304)
 -->
<!-- Title: qtsdl::RecursiveDirectoryWatcherWorker::changeDetected Pages: 1 -->
<svg width="386pt" height="100pt"
 viewBox="0.00 0.00 386.00 99.50" xmlns="http://www.w3.org/2000/svg" xmlns:xlink="http://www.w3.org/1999/xlink">
<g id="graph0" class="graph" transform="scale(1 1) rotate(0) translate(4 95.5)">
<title>qtsdl::RecursiveDirectoryWatcherWorker::changeDetected</title>
<polygon fill="#ffffff" stroke="transparent" points="-4,4 -4,-95.5 382,-95.5 382,4 -4,4"/>
<!-- Node6 -->
<g id="node1" class="node">
<title>Node6</title>
<polygon fill="#bfbfbf" stroke="#000000" points="0,-33 0,-63 162,-63 162,-33 0,-33"/>
<text text-anchor="start" x="8" y="-51" font-family="Helvetica,sans-Serif" font-size="10.00" fill="#000000">qtsdl::RecursiveDirectory</text>
<text text-anchor="middle" x="81" y="-40" font-family="Helvetica,sans-Serif" font-size="10.00" fill="#000000">WatcherWorker::changeDetected</text>
</g>
<!-- Node7 -->
<g id="node2" class="node">
<title>Node7</title>
<g id="a_node2"><a xlink:href="../../d3/dea/classqtsdl_1_1_recursive_directory_watcher.xhtml#a783cc986da8f9ed63ac735b00f119404" target="_top" xlink:title="qtsdl::RecursiveDirectory\lWatcher::RecursiveDirectoryWatcher">
<polygon fill="#ffffff" stroke="#000000" points="198,-61 198,-91 378,-91 378,-61 198,-61"/>
<text text-anchor="start" x="206" y="-79" font-family="Helvetica,sans-Serif" font-size="10.00" fill="#000000">qtsdl::RecursiveDirectory</text>
<text text-anchor="middle" x="288" y="-68" font-family="Helvetica,sans-Serif" font-size="10.00" fill="#000000">Watcher::RecursiveDirectoryWatcher</text>
</a>
</g>
</g>
<!-- Node6&#45;&gt;Node7 -->
<g id="edge1" class="edge">
<title>Node6&#45;&gt;Node7</title>
<path fill="none" stroke="#191970" d="M172.1413,-60.3283C180.651,-61.4794 189.2737,-62.6457 197.7749,-63.7956"/>
<polygon fill="#191970" stroke="#191970" points="172.5967,-56.8581 162.2178,-58.986 171.6583,-63.7949 172.5967,-56.8581"/>
</g>
<!-- Node8 -->
<g id="node3" class="node">
<title>Node8</title>
<g id="a_node3"><a xlink:href="../../dc/d7b/classqtsdl_1_1_recursive_directory_watcher_worker.xhtml#a7f4f7905175d63ff609dfa5a0d17480e" target="_top" xlink:title="qtsdl::RecursiveDirectory\lWatcherWorker::RecursiveDirectory\lWatcherWorker">
<polygon fill="#ffffff" stroke="#000000" points="200.5,-.5 200.5,-41.5 375.5,-41.5 375.5,-.5 200.5,-.5"/>
<text text-anchor="start" x="208.5" y="-29.5" font-family="Helvetica,sans-Serif" font-size="10.00" fill="#000000">qtsdl::RecursiveDirectory</text>
<text text-anchor="start" x="208.5" y="-18.5" font-family="Helvetica,sans-Serif" font-size="10.00" fill="#000000">WatcherWorker::RecursiveDirectory</text>
<text text-anchor="middle" x="288" y="-7.5" font-family="Helvetica,sans-Serif" font-size="10.00" fill="#000000">WatcherWorker</text>
</a>
</g>
</g>
<!-- Node6&#45;&gt;Node8 -->
<g id="edge2" class="edge">
<title>Node6&#45;&gt;Node8</title>
<path fill="none" stroke="#191970" d="M172.2276,-36.1008C181.5139,-34.8895 190.9339,-33.6608 200.1829,-32.4544"/>
<polygon fill="#191970" stroke="#191970" points="171.6811,-32.6423 162.2178,-37.4064 172.5865,-39.5835 171.6811,-32.6423"/>
</g>
</g>
</svg>
