<?xml version="1.0" encoding="UTF-8" standalone="no"?>
<!DOCTYPE svg PUBLIC "-//W3C//DTD SVG 1.1//EN"
 "http://www.w3.org/Graphics/SVG/1.1/DTD/svg11.dtd">
<!-- Generated by graphviz version 2.40.1 (20161225.0304)
 -->
<!-- Title: /mnt/c/Users/Jameson/Desktop/git/openage&#45;new&#45;doc&#45;system/libopenage/renderer/opengl/context.h Pages: 1 -->
<svg width="609pt" height="328pt"
 viewBox="0.00 0.00 609.16 328.00" xmlns="http://www.w3.org/2000/svg" xmlns:xlink="http://www.w3.org/1999/xlink">
<g id="graph0" class="graph" transform="scale(1 1) rotate(0) translate(4 324)">
<title>/mnt/c/Users/Jameson/Desktop/git/openage&#45;new&#45;doc&#45;system/libopenage/renderer/opengl/context.h</title>
<polygon fill="#ffffff" stroke="transparent" points="-4,4 -4,-324 605.1589,-324 605.1589,4 -4,4"/>
<!-- Node2 -->
<g id="node1" class="node">
<title>Node2</title>
<polygon fill="#bfbfbf" stroke="#000000" points="227,-267.5 227,-319.5 368,-319.5 368,-267.5 227,-267.5"/>
<text text-anchor="start" x="235" y="-307.5" font-family="Helvetica,sans-Serif" font-size="10.00" fill="#000000">/mnt/c/Users/Jameson</text>
<text text-anchor="start" x="235" y="-296.5" font-family="Helvetica,sans-Serif" font-size="10.00" fill="#000000">/Desktop/git/openage</text>
<text text-anchor="start" x="235" y="-285.5" font-family="Helvetica,sans-Serif" font-size="10.00" fill="#000000">&#45;new&#45;doc&#45;system/libopenage</text>
<text text-anchor="middle" x="297.5" y="-274.5" font-family="Helvetica,sans-Serif" font-size="10.00" fill="#000000">/renderer/opengl/context.h</text>
</g>
<!-- Node3 -->
<g id="node2" class="node">
<title>Node3</title>
<g id="a_node2"><a xlink:href="../../db/d12/context_8cpp.xhtml" target="_top" xlink:title="/mnt/c/Users/Jameson\l/Desktop/git/openage\l&#45;new&#45;doc&#45;system/libopenage\l/renderer/opengl/context.cpp">
<polygon fill="#ffffff" stroke="#000000" points="0,-178.5 0,-230.5 141,-230.5 141,-178.5 0,-178.5"/>
<text text-anchor="start" x="8" y="-218.5" font-family="Helvetica,sans-Serif" font-size="10.00" fill="#000000">/mnt/c/Users/Jameson</text>
<text text-anchor="start" x="8" y="-207.5" font-family="Helvetica,sans-Serif" font-size="10.00" fill="#000000">/Desktop/git/openage</text>
<text text-anchor="start" x="8" y="-196.5" font-family="Helvetica,sans-Serif" font-size="10.00" fill="#000000">&#45;new&#45;doc&#45;system/libopenage</text>
<text text-anchor="middle" x="70.5" y="-185.5" font-family="Helvetica,sans-Serif" font-size="10.00" fill="#000000">/renderer/opengl/context.cpp</text>
</a>
</g>
</g>
<!-- Node2&#45;&gt;Node3 -->
<g id="edge1" class="edge">
<title>Node2&#45;&gt;Node3</title>
<path fill="none" stroke="#191970" d="M221.4115,-263.6679C194.0936,-252.9574 163.52,-240.9704 137.0725,-230.6011"/>
<polygon fill="#191970" stroke="#191970" points="220.3387,-267.0067 230.9263,-267.3984 222.8939,-260.4897 220.3387,-267.0067"/>
</g>
<!-- Node4 -->
<g id="node3" class="node">
<title>Node4</title>
<g id="a_node3"><a xlink:href="../../d5/d49/opengl_2renderer_8h.xhtml" target="_top" xlink:title="/mnt/c/Users/Jameson\l/Desktop/git/openage\l&#45;new&#45;doc&#45;system/libopenage\l/renderer/opengl/renderer.h">
<polygon fill="#ffffff" stroke="#000000" points="283,-89.5 283,-141.5 424,-141.5 424,-89.5 283,-89.5"/>
<text text-anchor="start" x="291" y="-129.5" font-family="Helvetica,sans-Serif" font-size="10.00" fill="#000000">/mnt/c/Users/Jameson</text>
<text text-anchor="start" x="291" y="-118.5" font-family="Helvetica,sans-Serif" font-size="10.00" fill="#000000">/Desktop/git/openage</text>
<text text-anchor="start" x="291" y="-107.5" font-family="Helvetica,sans-Serif" font-size="10.00" fill="#000000">&#45;new&#45;doc&#45;system/libopenage</text>
<text text-anchor="middle" x="353.5" y="-96.5" font-family="Helvetica,sans-Serif" font-size="10.00" fill="#000000">/renderer/opengl/renderer.h</text>
</a>
</g>
</g>
<!-- Node2&#45;&gt;Node4 -->
<g id="edge2" class="edge">
<title>Node2&#45;&gt;Node4</title>
<path fill="none" stroke="#191970" d="M321.2847,-258.4996C326.309,-249.8182 331.1098,-240.3229 334.5,-231 345.1952,-201.589 349.8984,-165.7663 351.9484,-141.8891"/>
<polygon fill="#191970" stroke="#191970" points="318.1969,-256.8421 316.0178,-267.2105 324.187,-260.464 318.1969,-256.8421"/>
</g>
<!-- Node7 -->
<g id="node6" class="node">
<title>Node7</title>
<g id="a_node6"><a xlink:href="../../d5/dc1/opengl_2shader__program_8h.xhtml" target="_top" xlink:title="/mnt/c/Users/Jameson\l/Desktop/git/openage\l&#45;new&#45;doc&#45;system/libopenage\l/renderer/opengl/shader_program.h">
<polygon fill="#ffffff" stroke="#000000" points="159,-178.5 159,-230.5 326,-230.5 326,-178.5 159,-178.5"/>
<text text-anchor="start" x="167" y="-218.5" font-family="Helvetica,sans-Serif" font-size="10.00" fill="#000000">/mnt/c/Users/Jameson</text>
<text text-anchor="start" x="167" y="-207.5" font-family="Helvetica,sans-Serif" font-size="10.00" fill="#000000">/Desktop/git/openage</text>
<text text-anchor="start" x="167" y="-196.5" font-family="Helvetica,sans-Serif" font-size="10.00" fill="#000000">&#45;new&#45;doc&#45;system/libopenage</text>
<text text-anchor="middle" x="242.5" y="-185.5" font-family="Helvetica,sans-Serif" font-size="10.00" fill="#000000">/renderer/opengl/shader_program.h</text>
</a>
</g>
</g>
<!-- Node2&#45;&gt;Node7 -->
<g id="edge5" class="edge">
<title>Node2&#45;&gt;Node7</title>
<path fill="none" stroke="#191970" d="M275.9103,-258.5639C270.1399,-249.2264 264.0052,-239.2993 258.5885,-230.5341"/>
<polygon fill="#191970" stroke="#191970" points="273.0613,-260.6117 281.2957,-267.2784 279.016,-256.9317 273.0613,-260.6117"/>
</g>
<!-- Node9 -->
<g id="node8" class="node">
<title>Node9</title>
<g id="a_node8"><a xlink:href="../../d9/d4f/opengl_2window_8h.xhtml" target="_top" xlink:title="/mnt/c/Users/Jameson\l/Desktop/git/openage\l&#45;new&#45;doc&#45;system/libopenage\l/renderer/opengl/window.h">
<polygon fill="#ffffff" stroke="#000000" points="442,-178.5 442,-230.5 583,-230.5 583,-178.5 442,-178.5"/>
<text text-anchor="start" x="450" y="-218.5" font-family="Helvetica,sans-Serif" font-size="10.00" fill="#000000">/mnt/c/Users/Jameson</text>
<text text-anchor="start" x="450" y="-207.5" font-family="Helvetica,sans-Serif" font-size="10.00" fill="#000000">/Desktop/git/openage</text>
<text text-anchor="start" x="450" y="-196.5" font-family="Helvetica,sans-Serif" font-size="10.00" fill="#000000">&#45;new&#45;doc&#45;system/libopenage</text>
<text text-anchor="middle" x="512.5" y="-185.5" font-family="Helvetica,sans-Serif" font-size="10.00" fill="#000000">/renderer/opengl/window.h</text>
</a>
</g>
</g>
<!-- Node2&#45;&gt;Node9 -->
<g id="edge9" class="edge">
<title>Node2&#45;&gt;Node9</title>
<path fill="none" stroke="#191970" d="M369.9053,-263.5276C395.6929,-252.8527 424.5067,-240.9251 449.4468,-230.6011"/>
<polygon fill="#191970" stroke="#191970" points="368.4553,-260.3397 360.5544,-267.3984 371.1327,-266.8075 368.4553,-260.3397"/>
</g>
<!-- Node5 -->
<g id="node4" class="node">
<title>Node5</title>
<g id="a_node4"><a xlink:href="../../dd/d3d/opengl_2renderer_8cpp.xhtml" target="_top" xlink:title="/mnt/c/Users/Jameson\l/Desktop/git/openage\l&#45;new&#45;doc&#45;system/libopenage\l/renderer/opengl/renderer.cpp">
<polygon fill="#ffffff" stroke="#000000" points="168,-.5 168,-52.5 311,-52.5 311,-.5 168,-.5"/>
<text text-anchor="start" x="176" y="-40.5" font-family="Helvetica,sans-Serif" font-size="10.00" fill="#000000">/mnt/c/Users/Jameson</text>
<text text-anchor="start" x="176" y="-29.5" font-family="Helvetica,sans-Serif" font-size="10.00" fill="#000000">/Desktop/git/openage</text>
<text text-anchor="start" x="176" y="-18.5" font-family="Helvetica,sans-Serif" font-size="10.00" fill="#000000">&#45;new&#45;doc&#45;system/libopenage</text>
<text text-anchor="middle" x="239.5" y="-7.5" font-family="Helvetica,sans-Serif" font-size="10.00" fill="#000000">/renderer/opengl/renderer.cpp</text>
</a>
</g>
</g>
<!-- Node4&#45;&gt;Node5 -->
<g id="edge3" class="edge">
<title>Node4&#45;&gt;Node5</title>
<path fill="none" stroke="#191970" d="M311.693,-82.8612C298.8976,-72.8718 285.0004,-62.0222 272.8471,-52.5341"/>
<polygon fill="#191970" stroke="#191970" points="309.8766,-85.8835 319.9128,-89.2784 314.1843,-80.3658 309.8766,-85.8835"/>
</g>
<!-- Node6 -->
<g id="node5" class="node">
<title>Node6</title>
<g id="a_node5"><a xlink:href="../../da/d22/opengl_2window_8cpp.xhtml" target="_top" xlink:title="/mnt/c/Users/Jameson\l/Desktop/git/openage\l&#45;new&#45;doc&#45;system/libopenage\l/renderer/opengl/window.cpp">
<polygon fill="#ffffff" stroke="#000000" points="396,-.5 396,-52.5 537,-52.5 537,-.5 396,-.5"/>
<text text-anchor="start" x="404" y="-40.5" font-family="Helvetica,sans-Serif" font-size="10.00" fill="#000000">/mnt/c/Users/Jameson</text>
<text text-anchor="start" x="404" y="-29.5" font-family="Helvetica,sans-Serif" font-size="10.00" fill="#000000">/Desktop/git/openage</text>
<text text-anchor="start" x="404" y="-18.5" font-family="Helvetica,sans-Serif" font-size="10.00" fill="#000000">&#45;new&#45;doc&#45;system/libopenage</text>
<text text-anchor="middle" x="466.5" y="-7.5" font-family="Helvetica,sans-Serif" font-size="10.00" fill="#000000">/renderer/opengl/window.cpp</text>
</a>
</g>
</g>
<!-- Node4&#45;&gt;Node6 -->
<g id="edge4" class="edge">
<title>Node4&#45;&gt;Node6</title>
<path fill="none" stroke="#191970" d="M394.9403,-82.8612C407.6234,-72.8718 421.3987,-62.0222 433.4454,-52.5341"/>
<polygon fill="#191970" stroke="#191970" points="392.4829,-80.3414 386.7925,-89.2784 396.8141,-85.8406 392.4829,-80.3414"/>
</g>
<!-- Node7&#45;&gt;Node4 -->
<g id="edge6" class="edge">
<title>Node7&#45;&gt;Node4</title>
<path fill="none" stroke="#191970" d="M283.2069,-171.8612C295.6655,-161.8718 309.197,-151.0222 321.0304,-141.5341"/>
<polygon fill="#191970" stroke="#191970" points="280.8157,-169.2922 275.2033,-178.2784 285.1946,-174.7535 280.8157,-169.2922"/>
</g>
<!-- Node7&#45;&gt;Node5 -->
<g id="edge7" class="edge">
<title>Node7&#45;&gt;Node5</title>
<path fill="none" stroke="#191970" d="M152.2202,-175.1677C116.4297,-162.6427 82.5132,-149.2597 77.5,-142 64.115,-122.6169 64.1744,-108.424 77.5,-89 88.4996,-72.9665 129.5489,-57.2217 167.5705,-45.5458"/>
<polygon fill="#191970" stroke="#191970" points="151.246,-178.5342 161.8407,-178.4999 153.537,-171.9197 151.246,-178.5342"/>
</g>
<!-- Node8 -->
<g id="node7" class="node">
<title>Node8</title>
<g id="a_node7"><a xlink:href="../../de/d88/shader__program_8cpp.xhtml" target="_top" xlink:title="/mnt/c/Users/Jameson\l/Desktop/git/openage\l&#45;new&#45;doc&#45;system/libopenage\l/renderer/opengl/shader_program.cpp">
<polygon fill="#ffffff" stroke="#000000" points="86.5,-89.5 86.5,-141.5 264.5,-141.5 264.5,-89.5 86.5,-89.5"/>
<text text-anchor="start" x="94.5" y="-129.5" font-family="Helvetica,sans-Serif" font-size="10.00" fill="#000000">/mnt/c/Users/Jameson</text>
<text text-anchor="start" x="94.5" y="-118.5" font-family="Helvetica,sans-Serif" font-size="10.00" fill="#000000">/Desktop/git/openage</text>
<text text-anchor="start" x="94.5" y="-107.5" font-family="Helvetica,sans-Serif" font-size="10.00" fill="#000000">&#45;new&#45;doc&#45;system/libopenage</text>
<text text-anchor="middle" x="175.5" y="-96.5" font-family="Helvetica,sans-Serif" font-size="10.00" fill="#000000">/renderer/opengl/shader_program.cpp</text>
</a>
</g>
</g>
<!-- Node7&#45;&gt;Node8 -->
<g id="edge8" class="edge">
<title>Node7&#45;&gt;Node8</title>
<path fill="none" stroke="#191970" d="M216.634,-170.1407C209.479,-160.6363 201.8333,-150.4801 195.0987,-141.5341"/>
<polygon fill="#191970" stroke="#191970" points="213.9495,-172.3942 222.7602,-178.2784 219.542,-168.1842 213.9495,-172.3942"/>
</g>
<!-- Node9&#45;&gt;Node6 -->
<g id="edge10" class="edge">
<title>Node9&#45;&gt;Node6</title>
<path fill="none" stroke="#191970" d="M568.2129,-171.9343C578.0303,-163.5031 586.8911,-153.4997 592.5,-142 602.8263,-120.8285 604.9157,-109.0178 592.5,-89 579.9513,-68.7678 558.6844,-54.8809 537.1603,-45.4409"/>
<polygon fill="#191970" stroke="#191970" points="565.8037,-169.3793 560.1783,-178.3573 570.1747,-174.8469 565.8037,-169.3793"/>
</g>
<!-- Node10 -->
<g id="node9" class="node">
<title>Node10</title>
<g id="a_node9"><a xlink:href="../../dc/d6c/renderer_2tests_8cpp.xhtml" target="_top" xlink:title="/mnt/c/Users/Jameson\l/Desktop/git/openage\l&#45;new&#45;doc&#45;system/libopenage\l/renderer/tests.cpp">
<polygon fill="#ffffff" stroke="#000000" points="442,-89.5 442,-141.5 583,-141.5 583,-89.5 442,-89.5"/>
<text text-anchor="start" x="450" y="-129.5" font-family="Helvetica,sans-Serif" font-size="10.00" fill="#000000">/mnt/c/Users/Jameson</text>
<text text-anchor="start" x="450" y="-118.5" font-family="Helvetica,sans-Serif" font-size="10.00" fill="#000000">/Desktop/git/openage</text>
<text text-anchor="start" x="450" y="-107.5" font-family="Helvetica,sans-Serif" font-size="10.00" fill="#000000">&#45;new&#45;doc&#45;system/libopenage</text>
<text text-anchor="middle" x="512.5" y="-96.5" font-family="Helvetica,sans-Serif" font-size="10.00" fill="#000000">/renderer/tests.cpp</text>
</a>
</g>
</g>
<!-- Node9&#45;&gt;Node10 -->
<g id="edge11" class="edge">
<title>Node9&#45;&gt;Node10</title>
<path fill="none" stroke="#191970" d="M512.5,-168.1155C512.5,-159.2061 512.5,-149.8475 512.5,-141.5341"/>
<polygon fill="#191970" stroke="#191970" points="509.0001,-168.2784 512.5,-178.2784 516.0001,-168.2785 509.0001,-168.2784"/>
</g>
</g>
</svg>
