<?xml version="1.0" encoding="UTF-8" standalone="no"?>
<!DOCTYPE svg PUBLIC "-//W3C//DTD SVG 1.1//EN"
 "http://www.w3.org/Graphics/SVG/1.1/DTD/svg11.dtd">
<!-- Generated by graphviz version 2.40.1 (20161225.0304)
 -->
<!-- Title: /mnt/c/Users/Jameson/Desktop/git/openage&#45;new&#45;doc&#45;system/libopenage/coord/pixel.cpp Pages: 1 -->
<svg width="1050pt" height="733pt"
 viewBox="0.00 0.00 1049.71 733.45" xmlns="http://www.w3.org/2000/svg" xmlns:xlink="http://www.w3.org/1999/xlink">
<g id="graph0" class="graph" transform="scale(1 1) rotate(0) translate(4 729.4516)">
<title>/mnt/c/Users/Jameson/Desktop/git/openage&#45;new&#45;doc&#45;system/libopenage/coord/pixel.cpp</title>
<polygon fill="#ffffff" stroke="transparent" points="-4,4 -4,-729.4516 1045.7101,-729.4516 1045.7101,4 -4,4"/>
<!-- Node0 -->
<g id="node1" class="node">
<title>Node0</title>
<polygon fill="#bfbfbf" stroke="#000000" points="614.1231,-672.9516 614.1231,-724.9516 755.1231,-724.9516 755.1231,-672.9516 614.1231,-672.9516"/>
<text text-anchor="start" x="622.1231" y="-712.9516" font-family="Helvetica,sans-Serif" font-size="10.00" fill="#000000">/mnt/c/Users/Jameson</text>
<text text-anchor="start" x="622.1231" y="-701.9516" font-family="Helvetica,sans-Serif" font-size="10.00" fill="#000000">/Desktop/git/openage</text>
<text text-anchor="start" x="622.1231" y="-690.9516" font-family="Helvetica,sans-Serif" font-size="10.00" fill="#000000">&#45;new&#45;doc&#45;system/libopenage</text>
<text text-anchor="middle" x="684.6231" y="-679.9516" font-family="Helvetica,sans-Serif" font-size="10.00" fill="#000000">/coord/pixel.cpp</text>
</g>
<!-- Node1 -->
<g id="node2" class="node">
<title>Node1</title>
<g id="a_node2"><a xlink:href="../../dd/dcd/pixel_8h.xhtml" target="_top" xlink:title="pixel.h">
<polygon fill="#ffffff" stroke="#000000" points="608.1231,-560.9516 608.1231,-579.9516 653.1231,-579.9516 653.1231,-560.9516 608.1231,-560.9516"/>
<text text-anchor="middle" x="630.6231" y="-567.9516" font-family="Helvetica,sans-Serif" font-size="10.00" fill="#000000">pixel.h</text>
</a>
</g>
</g>
<!-- Node0&#45;&gt;Node1 -->
<g id="edge1" class="edge">
<title>Node0&#45;&gt;Node1</title>
<path fill="none" stroke="#191970" d="M673.6954,-672.9477C663.2663,-648.1303 647.8071,-611.3432 638.5231,-589.2506"/>
<polygon fill="#191970" stroke="#191970" points="641.7222,-587.8289 634.6213,-579.9658 635.2688,-590.5408 641.7222,-587.8289"/>
</g>
<!-- Node42 -->
<g id="node43" class="node">
<title>Node42</title>
<g id="a_node43"><a xlink:href="../../da/d63/coordmanager_8h.xhtml" target="_top" xlink:title="coordmanager.h">
<polygon fill="#ffffff" stroke="#000000" points="712.6231,-616.9516 712.6231,-635.9516 798.6231,-635.9516 798.6231,-616.9516 712.6231,-616.9516"/>
<text text-anchor="middle" x="755.6231" y="-623.9516" font-family="Helvetica,sans-Serif" font-size="10.00" fill="#000000">coordmanager.h</text>
</a>
</g>
</g>
<!-- Node0&#45;&gt;Node42 -->
<g id="edge63" class="edge">
<title>Node0&#45;&gt;Node42</title>
<path fill="none" stroke="#191970" d="M710.2557,-672.7775C719.8657,-662.9645 730.5236,-652.0814 739.0933,-643.3307"/>
<polygon fill="#191970" stroke="#191970" points="741.7902,-645.5791 746.2863,-635.9856 736.7889,-640.6814 741.7902,-645.5791"/>
</g>
<!-- Node43 -->
<g id="node44" class="node">
<title>Node43</title>
<g id="a_node44"><a xlink:href="../../d0/d8a/phys_8h.xhtml" target="_top" xlink:title="phys.h">
<polygon fill="#ffffff" stroke="#000000" points="732.6231,-560.9516 732.6231,-579.9516 778.6231,-579.9516 778.6231,-560.9516 732.6231,-560.9516"/>
<text text-anchor="middle" x="755.6231" y="-567.9516" font-family="Helvetica,sans-Serif" font-size="10.00" fill="#000000">phys.h</text>
</a>
</g>
</g>
<!-- Node0&#45;&gt;Node43 -->
<g id="edge80" class="edge">
<title>Node0&#45;&gt;Node43</title>
<path fill="none" stroke="#191970" d="M686.4993,-672.8893C688.6831,-655.8427 693.4069,-633.6328 703.6231,-616.4516 710.6496,-604.6347 721.7378,-594.2161 731.8733,-586.2956"/>
<polygon fill="#191970" stroke="#191970" points="734.0886,-589.0106 740.053,-580.254 729.9298,-583.3799 734.0886,-589.0106"/>
</g>
<!-- Node2 -->
<g id="node3" class="node">
<title>Node2</title>
<polygon fill="#ffffff" stroke="#bfbfbf" points="488.1231,-504.9516 488.1231,-523.9516 571.1231,-523.9516 571.1231,-504.9516 488.1231,-504.9516"/>
<text text-anchor="middle" x="529.6231" y="-511.9516" font-family="Helvetica,sans-Serif" font-size="10.00" fill="#000000">coord_xy.gen.h</text>
</g>
<!-- Node1&#45;&gt;Node2 -->
<g id="edge2" class="edge">
<title>Node1&#45;&gt;Node2</title>
<path fill="none" stroke="#191970" d="M613.0302,-560.6972C597.2441,-551.9445 573.8592,-538.9786 555.8644,-529.0013"/>
<polygon fill="#191970" stroke="#191970" points="557.4572,-525.8824 547.0143,-524.0943 554.0628,-532.0044 557.4572,-525.8824"/>
</g>
<!-- Node3 -->
<g id="node4" class="node">
<title>Node3</title>
<g id="a_node4"><a xlink:href="../../db/d40/declarations_8h.xhtml" target="_top" xlink:title="declarations.h">
<polygon fill="#ffffff" stroke="#000000" points="589.1231,-504.9516 589.1231,-523.9516 666.1231,-523.9516 666.1231,-504.9516 589.1231,-504.9516"/>
<text text-anchor="middle" x="627.6231" y="-511.9516" font-family="Helvetica,sans-Serif" font-size="10.00" fill="#000000">declarations.h</text>
</a>
</g>
</g>
<!-- Node1&#45;&gt;Node3 -->
<g id="edge3" class="edge">
<title>Node1&#45;&gt;Node3</title>
<path fill="none" stroke="#191970" d="M630.1005,-560.6972C629.7091,-553.3899 629.1603,-543.146 628.6787,-534.1562"/>
<polygon fill="#191970" stroke="#191970" points="632.1697,-533.8927 628.1397,-524.0943 625.1797,-534.2673 632.1697,-533.8927"/>
</g>
<!-- Node4 -->
<g id="node5" class="node">
<title>Node4</title>
<polygon fill="#ffffff" stroke="#bfbfbf" points="161.6231,-224.9516 161.6231,-243.9516 207.6231,-243.9516 207.6231,-224.9516 161.6231,-224.9516"/>
<text text-anchor="middle" x="184.6231" y="-231.9516" font-family="Helvetica,sans-Serif" font-size="10.00" fill="#000000">cstdint</text>
</g>
<!-- Node3&#45;&gt;Node4 -->
<g id="edge4" class="edge">
<title>Node3&#45;&gt;Node4</title>
<path fill="none" stroke="#191970" d="M603.3243,-504.8675C516.9008,-470.7751 229.5043,-357.3605 228.6231,-356.4516 200.9206,-327.8794 190.4969,-280.6048 186.6979,-254.0734"/>
<polygon fill="#191970" stroke="#191970" points="190.1628,-253.5739 185.4444,-244.0878 183.2173,-254.4459 190.1628,-253.5739"/>
</g>
<!-- Node5 -->
<g id="node6" class="node">
<title>Node5</title>
<g id="a_node6"><a xlink:href="../../de/d62/fixed__point_8h.xhtml" target="_top" xlink:title="../util/fixed_point.h">
<polygon fill="#ffffff" stroke="#000000" points="171.1231,-448.9516 171.1231,-467.9516 268.1231,-467.9516 268.1231,-448.9516 171.1231,-448.9516"/>
<text text-anchor="middle" x="219.6231" y="-455.9516" font-family="Helvetica,sans-Serif" font-size="10.00" fill="#000000">../util/fixed_point.h</text>
</a>
</g>
</g>
<!-- Node3&#45;&gt;Node5 -->
<g id="edge5" class="edge">
<title>Node3&#45;&gt;Node5</title>
<path fill="none" stroke="#191970" d="M588.8996,-506.1128C585.7667,-505.5209 582.6453,-504.9587 579.6231,-504.4516 473.9034,-486.7128 349.7018,-472.235 278.2768,-464.5185"/>
<polygon fill="#191970" stroke="#191970" points="278.4465,-461.0167 268.1301,-463.4295 277.6994,-467.9767 278.4465,-461.0167"/>
</g>
<!-- Node6 -->
<g id="node7" class="node">
<title>Node6</title>
<polygon fill="#ffffff" stroke="#bfbfbf" points="299.6231,-336.9516 299.6231,-355.9516 355.6231,-355.9516 355.6231,-336.9516 299.6231,-336.9516"/>
<text text-anchor="middle" x="327.6231" y="-343.9516" font-family="Helvetica,sans-Serif" font-size="10.00" fill="#000000">algorithm</text>
</g>
<!-- Node5&#45;&gt;Node6 -->
<g id="edge6" class="edge">
<title>Node5&#45;&gt;Node6</title>
<path fill="none" stroke="#191970" d="M262.0727,-448.8774C282.3349,-442.0968 305.0639,-430.8282 318.6231,-412.4516 328.375,-399.2349 330.0763,-380.368 329.6584,-366.1888"/>
<polygon fill="#191970" stroke="#191970" points="333.1381,-365.7655 328.9822,-356.0198 326.1535,-366.23 333.1381,-365.7655"/>
</g>
<!-- Node7 -->
<g id="node8" class="node">
<title>Node7</title>
<polygon fill="#ffffff" stroke="#bfbfbf" points="60.1231,-392.9516 60.1231,-411.9516 105.1231,-411.9516 105.1231,-392.9516 60.1231,-392.9516"/>
<text text-anchor="middle" x="82.6231" y="-399.9516" font-family="Helvetica,sans-Serif" font-size="10.00" fill="#000000">climits</text>
</g>
<!-- Node5&#45;&gt;Node7 -->
<g id="edge7" class="edge">
<title>Node5&#45;&gt;Node7</title>
<path fill="none" stroke="#191970" d="M196.072,-448.8249C173.649,-439.6593 139.7211,-425.791 114.8082,-415.6076"/>
<polygon fill="#191970" stroke="#191970" points="115.9925,-412.3106 105.4117,-411.7667 113.3439,-418.7902 115.9925,-412.3106"/>
</g>
<!-- Node8 -->
<g id="node9" class="node">
<title>Node8</title>
<polygon fill="#ffffff" stroke="#bfbfbf" points="237.6231,-336.9516 237.6231,-355.9516 281.6231,-355.9516 281.6231,-336.9516 237.6231,-336.9516"/>
<text text-anchor="middle" x="259.6231" y="-343.9516" font-family="Helvetica,sans-Serif" font-size="10.00" fill="#000000">cmath</text>
</g>
<!-- Node5&#45;&gt;Node8 -->
<g id="edge8" class="edge">
<title>Node5&#45;&gt;Node8</title>
<path fill="none" stroke="#191970" d="M209.8519,-448.8338C197.834,-435.7852 180.2292,-411.8728 190.6231,-392.4516 198.7035,-377.3532 214.171,-366.3546 228.4165,-358.9055"/>
<polygon fill="#191970" stroke="#191970" points="230.0271,-362.0145 237.5115,-354.5155 226.9842,-355.7104 230.0271,-362.0145"/>
</g>
<!-- Node9 -->
<g id="node10" class="node">
<title>Node9</title>
<polygon fill="#ffffff" stroke="#bfbfbf" points="205.6231,-112.9516 205.6231,-131.9516 255.6231,-131.9516 255.6231,-112.9516 205.6231,-112.9516"/>
<text text-anchor="middle" x="230.6231" y="-119.9516" font-family="Helvetica,sans-Serif" font-size="10.00" fill="#000000">iomanip</text>
</g>
<!-- Node5&#45;&gt;Node9 -->
<g id="edge9" class="edge">
<title>Node5&#45;&gt;Node9</title>
<path fill="none" stroke="#191970" d="M171.121,-451.8489C126.5524,-444.6699 65.2553,-431.5989 50.6231,-412.4516 25.0565,-378.9959 -92.1707,-440.5481 152.6231,-168.4516 164.9006,-154.8047 182.2055,-144.0371 197.3973,-136.3612"/>
<polygon fill="#191970" stroke="#191970" points="199.0183,-139.4655 206.5194,-131.9833 195.9895,-133.1546 199.0183,-139.4655"/>
</g>
<!-- Node10 -->
<g id="node11" class="node">
<title>Node10</title>
<polygon fill="#ffffff" stroke="#bfbfbf" points="199.6231,-392.9516 199.6231,-411.9516 239.6231,-411.9516 239.6231,-392.9516 199.6231,-392.9516"/>
<text text-anchor="middle" x="219.6231" y="-399.9516" font-family="Helvetica,sans-Serif" font-size="10.00" fill="#000000">limits</text>
</g>
<!-- Node5&#45;&gt;Node10 -->
<g id="edge10" class="edge">
<title>Node5&#45;&gt;Node10</title>
<path fill="none" stroke="#191970" d="M219.6231,-448.6972C219.6231,-441.3899 219.6231,-431.146 219.6231,-422.1562"/>
<polygon fill="#191970" stroke="#191970" points="223.1232,-422.0943 219.6231,-412.0943 216.1232,-422.0943 223.1232,-422.0943"/>
</g>
<!-- Node11 -->
<g id="node12" class="node">
<title>Node11</title>
<polygon fill="#ffffff" stroke="#bfbfbf" points="257.6231,-392.9516 257.6231,-411.9516 309.6231,-411.9516 309.6231,-392.9516 257.6231,-392.9516"/>
<text text-anchor="middle" x="283.6231" y="-399.9516" font-family="Helvetica,sans-Serif" font-size="10.00" fill="#000000">ostream</text>
</g>
<!-- Node5&#45;&gt;Node11 -->
<g id="edge11" class="edge">
<title>Node5&#45;&gt;Node11</title>
<path fill="none" stroke="#191970" d="M230.771,-448.6972C240.1318,-440.5066 253.7089,-428.6266 264.758,-418.9586"/>
<polygon fill="#191970" stroke="#191970" points="267.3819,-421.3134 272.6029,-412.0943 262.7723,-416.0454 267.3819,-421.3134"/>
</g>
<!-- Node12 -->
<g id="node13" class="node">
<title>Node12</title>
<polygon fill="#ffffff" stroke="#bfbfbf" points="161.6231,-168.9516 161.6231,-187.9516 223.6231,-187.9516 223.6231,-168.9516 161.6231,-168.9516"/>
<text text-anchor="middle" x="192.6231" y="-175.9516" font-family="Helvetica,sans-Serif" font-size="10.00" fill="#000000">type_traits</text>
</g>
<!-- Node5&#45;&gt;Node12 -->
<g id="edge12" class="edge">
<title>Node5&#45;&gt;Node12</title>
<path fill="none" stroke="#191970" d="M204.643,-448.6984C180.0035,-431.3388 133.6231,-392.5407 133.6231,-346.4516 133.6231,-346.4516 133.6231,-346.4516 133.6231,-290.4516 133.6231,-259.927 138.0418,-251.2684 152.6231,-224.4516 158.4463,-213.7419 167.1275,-203.3569 174.9157,-195.1727"/>
<polygon fill="#191970" stroke="#191970" points="177.4176,-197.6205 181.9868,-188.0615 172.4539,-192.6847 177.4176,-197.6205"/>
</g>
<!-- Node13 -->
<g id="node14" class="node">
<title>Node13</title>
<g id="a_node14"><a xlink:href="../../d4/d08/misc_8h.xhtml" target="_top" xlink:title="misc.h">
<polygon fill="#ffffff" stroke="#000000" points="682.6231,-392.9516 682.6231,-411.9516 728.6231,-411.9516 728.6231,-392.9516 682.6231,-392.9516"/>
<text text-anchor="middle" x="705.6231" y="-399.9516" font-family="Helvetica,sans-Serif" font-size="10.00" fill="#000000">misc.h</text>
</a>
</g>
</g>
<!-- Node5&#45;&gt;Node13 -->
<g id="edge13" class="edge">
<title>Node5&#45;&gt;Node13</title>
<path fill="none" stroke="#191970" d="M268.4478,-452.8257C367.2457,-441.4416 588.5889,-415.937 672.5084,-406.2673"/>
<polygon fill="#191970" stroke="#191970" points="672.968,-409.7376 682.5016,-405.1158 672.1667,-402.7836 672.968,-409.7376"/>
</g>
<!-- Node13&#45;&gt;Node6 -->
<g id="edge14" class="edge">
<title>Node13&#45;&gt;Node6</title>
<path fill="none" stroke="#191970" d="M682.278,-400.0505C627.4418,-394.2375 486.2389,-378.2632 369.6231,-356.4516 368.3798,-356.2191 367.1179,-355.9737 365.8453,-355.7183"/>
<polygon fill="#191970" stroke="#191970" points="366.5211,-352.2837 356.0093,-353.6072 365.0521,-359.1279 366.5211,-352.2837"/>
</g>
<!-- Node13&#45;&gt;Node8 -->
<g id="edge16" class="edge">
<title>Node13&#45;&gt;Node8</title>
<path fill="none" stroke="#191970" d="M682.4174,-401.5197C620.362,-398.684 445.4327,-388.4399 291.9081,-356.3523"/>
<polygon fill="#191970" stroke="#191970" points="292.3376,-352.8654 281.8281,-354.207 290.8804,-359.7121 292.3376,-352.8654"/>
</g>
<!-- Node14 -->
<g id="node15" class="node">
<title>Node14</title>
<polygon fill="#ffffff" stroke="#bfbfbf" points="904.6231,-336.9516 904.6231,-355.9516 952.6231,-355.9516 952.6231,-336.9516 904.6231,-336.9516"/>
<text text-anchor="middle" x="928.6231" y="-343.9516" font-family="Helvetica,sans-Serif" font-size="10.00" fill="#000000">limits.h</text>
</g>
<!-- Node13&#45;&gt;Node14 -->
<g id="edge15" class="edge">
<title>Node13&#45;&gt;Node14</title>
<path fill="none" stroke="#191970" d="M728.7216,-396.8153C763.7603,-388.2412 832.4289,-371.343 890.6231,-356.4516 891.887,-356.1282 893.1742,-355.7973 894.4741,-355.4618"/>
<polygon fill="#191970" stroke="#191970" points="895.7171,-358.755 904.5132,-352.8492 893.954,-351.9806 895.7171,-358.755"/>
</g>
<!-- Node15 -->
<g id="node16" class="node">
<title>Node15</title>
<polygon fill="#ffffff" stroke="#bfbfbf" points="613.6231,-336.9516 613.6231,-355.9516 659.6231,-355.9516 659.6231,-336.9516 613.6231,-336.9516"/>
<text text-anchor="middle" x="636.6231" y="-343.9516" font-family="Helvetica,sans-Serif" font-size="10.00" fill="#000000">cstring</text>
</g>
<!-- Node13&#45;&gt;Node15 -->
<g id="edge17" class="edge">
<title>Node13&#45;&gt;Node15</title>
<path fill="none" stroke="#191970" d="M693.6042,-392.6972C683.4133,-384.4263 668.5869,-372.3933 656.6124,-362.6749"/>
<polygon fill="#191970" stroke="#191970" points="658.4745,-359.6784 648.5042,-356.0943 654.0632,-365.1136 658.4745,-359.6784"/>
</g>
<!-- Node16 -->
<g id="node17" class="node">
<title>Node16</title>
<polygon fill="#ffffff" stroke="#bfbfbf" points="151.1231,-.9516 151.1231,-19.9516 192.1231,-19.9516 192.1231,-.9516 151.1231,-.9516"/>
<text text-anchor="middle" x="171.6231" y="-7.9516" font-family="Helvetica,sans-Serif" font-size="10.00" fill="#000000">string</text>
</g>
<!-- Node13&#45;&gt;Node16 -->
<g id="edge18" class="edge">
<title>Node13&#45;&gt;Node16</title>
<path fill="none" stroke="#191970" d="M682.5396,-398.6688C604.8076,-385.3543 346.599,-336.4224 152.6231,-244.4516 106.1685,-222.4259 57.6231,-229.8633 57.6231,-178.4516 57.6231,-178.4516 57.6231,-178.4516 57.6231,-122.4516 57.6231,-75.1536 108.1746,-41.1833 141.9523,-23.7641"/>
<polygon fill="#191970" stroke="#191970" points="143.5715,-26.868 150.9786,-19.2926 140.4641,-20.5955 143.5715,-26.868"/>
</g>
<!-- Node17 -->
<g id="node18" class="node">
<title>Node17</title>
<polygon fill="#ffffff" stroke="#bfbfbf" points="840.6231,-112.9516 840.6231,-131.9516 884.6231,-131.9516 884.6231,-112.9516 840.6231,-112.9516"/>
<text text-anchor="middle" x="862.6231" y="-119.9516" font-family="Helvetica,sans-Serif" font-size="10.00" fill="#000000">vector</text>
</g>
<!-- Node13&#45;&gt;Node17 -->
<g id="edge19" class="edge">
<title>Node13&#45;&gt;Node17</title>
<path fill="none" stroke="#191970" d="M728.7574,-395.6866C750.9916,-388.4233 784.7861,-375.3242 809.6231,-356.4516 835.2686,-336.9647 844.1715,-330.5563 855.6231,-300.4516 876.2699,-246.1739 870.3943,-175.7552 865.796,-142.0758"/>
<polygon fill="#191970" stroke="#191970" points="869.2518,-141.5189 864.3257,-132.1389 862.3272,-142.5436 869.2518,-141.5189"/>
</g>
<!-- Node18 -->
<g id="node19" class="node">
<title>Node18</title>
<polygon fill="#ffffff" stroke="#bfbfbf" points="770.6231,-112.9516 770.6231,-131.9516 822.6231,-131.9516 822.6231,-112.9516 770.6231,-112.9516"/>
<text text-anchor="middle" x="796.6231" y="-119.9516" font-family="Helvetica,sans-Serif" font-size="10.00" fill="#000000">memory</text>
</g>
<!-- Node13&#45;&gt;Node18 -->
<g id="edge20" class="edge">
<title>Node13&#45;&gt;Node18</title>
<path fill="none" stroke="#191970" d="M727.1515,-392.8798C757.4616,-378.0613 811.4845,-346.4014 833.6231,-300.4516 859.6836,-246.3617 826.5863,-174.3757 807.8575,-140.9542"/>
<polygon fill="#191970" stroke="#191970" points="810.8471,-139.1325 802.802,-132.2385 804.792,-142.6447 810.8471,-139.1325"/>
</g>
<!-- Node19 -->
<g id="node20" class="node">
<title>Node19</title>
<g id="a_node20"><a xlink:href="../../d7/dce/error_2error_8h.xhtml" target="_top" xlink:title="../error/error.h">
<polygon fill="#ffffff" stroke="#000000" points="677.6231,-336.9516 677.6231,-355.9516 753.6231,-355.9516 753.6231,-336.9516 677.6231,-336.9516"/>
<text text-anchor="middle" x="715.6231" y="-343.9516" font-family="Helvetica,sans-Serif" font-size="10.00" fill="#000000">../error/error.h</text>
</a>
</g>
</g>
<!-- Node13&#45;&gt;Node19 -->
<g id="edge21" class="edge">
<title>Node13&#45;&gt;Node19</title>
<path fill="none" stroke="#191970" d="M707.365,-392.6972C708.6698,-385.3899 710.4991,-375.146 712.1044,-366.1562"/>
<polygon fill="#191970" stroke="#191970" points="715.5887,-366.5539 713.9012,-356.0943 708.6977,-365.3233 715.5887,-366.5539"/>
</g>
<!-- Node22 -->
<g id="node23" class="node">
<title>Node22</title>
<g id="a_node23"><a xlink:href="../../d4/dd1/compiler_8h.xhtml" target="_top" xlink:title="../util/compiler.h">
<polygon fill="#ffffff" stroke="#000000" points="715.6231,-56.9516 715.6231,-75.9516 801.6231,-75.9516 801.6231,-56.9516 715.6231,-56.9516"/>
<text text-anchor="middle" x="758.6231" y="-63.9516" font-family="Helvetica,sans-Serif" font-size="10.00" fill="#000000">../util/compiler.h</text>
</a>
</g>
</g>
<!-- Node13&#45;&gt;Node22 -->
<g id="edge62" class="edge">
<title>Node13&#45;&gt;Node22</title>
<path fill="none" stroke="#191970" d="M728.787,-401.3484C785.169,-398.198 927.4284,-387.3092 961.6231,-356.4516 984.2847,-336.0016 980.6231,-320.9763 980.6231,-290.4516 980.6231,-290.4516 980.6231,-290.4516 980.6231,-178.4516 980.6231,-103.157 877.5702,-78.4718 811.8892,-70.3851"/>
<polygon fill="#191970" stroke="#191970" points="812.0218,-66.8777 801.6902,-69.2246 811.2303,-73.8328 812.0218,-66.8777"/>
</g>
<!-- Node19&#45;&gt;Node16 -->
<g id="edge25" class="edge">
<title>Node19&#45;&gt;Node16</title>
<path fill="none" stroke="#191970" d="M677.4397,-338.1373C674.4604,-337.5468 671.4952,-336.9777 668.6231,-336.4516 565.1212,-317.495 536.1638,-328.0466 434.6231,-300.4516 402.089,-291.6101 171.5584,-216.346 152.6231,-188.4516 119.2461,-139.2824 146.3316,-64.2551 162.1769,-29.432"/>
<polygon fill="#191970" stroke="#191970" points="165.5326,-30.5241 166.6542,-19.9888 159.2075,-27.5252 165.5326,-30.5241"/>
</g>
<!-- Node19&#45;&gt;Node18 -->
<g id="edge23" class="edge">
<title>Node19&#45;&gt;Node18</title>
<path fill="none" stroke="#191970" d="M720.7725,-336.5633C727.9431,-323.2082 741.7414,-298.9496 756.6231,-280.4516 771.0051,-262.5749 784.3221,-265.4257 793.6231,-244.4516 808.4449,-211.0282 804.6471,-167.2279 800.5975,-142.2289"/>
<polygon fill="#191970" stroke="#191970" points="804.0031,-141.3915 798.7852,-132.1707 797.114,-142.6329 804.0031,-141.3915"/>
</g>
<!-- Node20 -->
<g id="node21" class="node">
<title>Node20</title>
<polygon fill="#ffffff" stroke="#bfbfbf" points="294.6231,-56.9516 294.6231,-75.9516 348.6231,-75.9516 348.6231,-56.9516 294.6231,-56.9516"/>
<text text-anchor="middle" x="321.6231" y="-63.9516" font-family="Helvetica,sans-Serif" font-size="10.00" fill="#000000">iostream</text>
</g>
<!-- Node19&#45;&gt;Node20 -->
<g id="edge22" class="edge">
<title>Node19&#45;&gt;Node20</title>
<path fill="none" stroke="#191970" d="M677.4089,-338.2947C674.4366,-337.6682 671.4814,-337.048 668.6231,-336.4516 590.4645,-320.1437 568.5863,-325.0344 492.6231,-300.4516 435.0901,-281.8331 421.6709,-273.4796 368.6231,-244.4516 328.6105,-222.5566 218.3622,-172.5491 196.6231,-132.4516 176.374,-95.1025 240.677,-78.0853 284.4349,-70.9814"/>
<polygon fill="#191970" stroke="#191970" points="285.1442,-74.414 294.5087,-69.4586 284.0979,-67.4927 285.1442,-74.414"/>
</g>
<!-- Node21 -->
<g id="node22" class="node">
<title>Node21</title>
<polygon fill="#ffffff" stroke="#bfbfbf" points="765.1231,-280.9516 765.1231,-299.9516 824.1231,-299.9516 824.1231,-280.9516 765.1231,-280.9516"/>
<text text-anchor="middle" x="794.6231" y="-287.9516" font-family="Helvetica,sans-Serif" font-size="10.00" fill="#000000">stdexcept</text>
</g>
<!-- Node19&#45;&gt;Node21 -->
<g id="edge24" class="edge">
<title>Node19&#45;&gt;Node21</title>
<path fill="none" stroke="#191970" d="M729.3838,-336.6972C741.2783,-328.2657 758.6881,-315.9245 772.5316,-306.1114"/>
<polygon fill="#191970" stroke="#191970" points="774.8859,-308.7328 781.02,-300.0943 770.8377,-303.022 774.8859,-308.7328"/>
</g>
<!-- Node19&#45;&gt;Node22 -->
<g id="edge26" class="edge">
<title>Node19&#45;&gt;Node22</title>
<path fill="none" stroke="#191970" d="M753.6897,-340.1443C779.3662,-334.0484 812.324,-322.3706 833.6231,-300.4516 888.8767,-243.5899 880.0912,-210.574 893.6231,-132.4516 895.1402,-123.6932 898.7965,-119.6799 893.6231,-112.4516 883.6975,-98.5837 845.3662,-86.3213 812.0723,-77.952"/>
<polygon fill="#191970" stroke="#191970" points="812.4829,-74.4497 801.9385,-75.4821 810.8253,-81.2506 812.4829,-74.4497"/>
</g>
<!-- Node25 -->
<g id="node26" class="node">
<title>Node25</title>
<g id="a_node26"><a xlink:href="../../d2/d0d/message_8h.xhtml" target="_top" xlink:title="../log/message.h">
<polygon fill="#ffffff" stroke="#000000" points="502.1231,-280.9516 502.1231,-299.9516 591.1231,-299.9516 591.1231,-280.9516 502.1231,-280.9516"/>
<text text-anchor="middle" x="546.6231" y="-287.9516" font-family="Helvetica,sans-Serif" font-size="10.00" fill="#000000">../log/message.h</text>
</a>
</g>
</g>
<!-- Node19&#45;&gt;Node25 -->
<g id="edge31" class="edge">
<title>Node19&#45;&gt;Node25</title>
<path fill="none" stroke="#191970" d="M686.571,-336.8249C658.4688,-327.5129 615.7177,-313.3469 584.8624,-303.1227"/>
<polygon fill="#191970" stroke="#191970" points="585.8895,-299.7759 575.2961,-299.9528 583.6876,-306.4206 585.8895,-299.7759"/>
</g>
<!-- Node22&#45;&gt;Node16 -->
<g id="edge28" class="edge">
<title>Node22&#45;&gt;Node16</title>
<path fill="none" stroke="#191970" d="M715.5837,-57.9562C712.2198,-57.4069 708.8701,-56.8967 705.6231,-56.4516 515.27,-30.3624 284.5912,-16.4334 202.4692,-12.0208"/>
<polygon fill="#191970" stroke="#191970" points="202.4944,-8.5173 192.3234,-11.4838 202.1244,-15.5076 202.4944,-8.5173"/>
</g>
<!-- Node23 -->
<g id="node24" class="node">
<title>Node23</title>
<polygon fill="#ffffff" stroke="#bfbfbf" points="776.6231,-.9516 776.6231,-19.9516 826.6231,-19.9516 826.6231,-.9516 776.6231,-.9516"/>
<text text-anchor="middle" x="801.6231" y="-7.9516" font-family="Helvetica,sans-Serif" font-size="10.00" fill="#000000">ciso646</text>
</g>
<!-- Node22&#45;&gt;Node23 -->
<g id="edge27" class="edge">
<title>Node22&#45;&gt;Node23</title>
<path fill="none" stroke="#191970" d="M766.1131,-56.6972C772.1557,-48.8278 780.8134,-37.5526 788.0672,-28.1058"/>
<polygon fill="#191970" stroke="#191970" points="790.9046,-30.1574 794.2189,-20.0943 785.3526,-25.8942 790.9046,-30.1574"/>
</g>
<!-- Node24 -->
<g id="node25" class="node">
<title>Node24</title>
<g id="a_node25"><a xlink:href="../../d8/d39/signal_8h.xhtml" target="_top" xlink:title="signal.h">
<polygon fill="#ffffff" stroke="#000000" points="690.6231,-.9516 690.6231,-19.9516 740.6231,-19.9516 740.6231,-.9516 690.6231,-.9516"/>
<text text-anchor="middle" x="715.6231" y="-7.9516" font-family="Helvetica,sans-Serif" font-size="10.00" fill="#000000">signal.h</text>
</a>
</g>
</g>
<!-- Node22&#45;&gt;Node24 -->
<g id="edge29" class="edge">
<title>Node22&#45;&gt;Node24</title>
<path fill="none" stroke="#191970" d="M751.1331,-56.6972C745.0905,-48.8278 736.4328,-37.5526 729.179,-28.1058"/>
<polygon fill="#191970" stroke="#191970" points="731.8936,-25.8942 723.0273,-20.0943 726.3416,-30.1574 731.8936,-25.8942"/>
</g>
<!-- Node24&#45;&gt;Node24 -->
<g id="edge30" class="edge">
<title>Node24&#45;&gt;Node24</title>
<path fill="none" stroke="#191970" d="M734.1865,-20.0262C746.5696,-22.7213 758.6231,-19.5298 758.6231,-10.4516 758.6231,-3.9267 752.3962,-.4429 744.2957,0"/>
<polygon fill="#191970" stroke="#191970" points="743.8465,3.4743 734.1865,-.877 744.4516,-3.4995 743.8465,3.4743"/>
</g>
<!-- Node25&#45;&gt;Node4 -->
<g id="edge32" class="edge">
<title>Node25&#45;&gt;Node4</title>
<path fill="none" stroke="#191970" d="M501.8717,-283.5288C428.2241,-272.1358 283.1432,-249.6923 217.849,-239.5916"/>
<polygon fill="#191970" stroke="#191970" points="218.1297,-236.0934 207.7121,-238.0234 217.0595,-243.0111 218.1297,-236.0934"/>
</g>
<!-- Node25&#45;&gt;Node16 -->
<g id="edge33" class="edge">
<title>Node25&#45;&gt;Node16</title>
<path fill="none" stroke="#191970" d="M501.7662,-283.0403C464.9459,-275.9816 411.9972,-263.564 368.6231,-244.4516 326.8842,-226.0598 222.2967,-170.1513 196.6231,-132.4516 175.4106,-101.3027 171.4945,-56.0125 171.1553,-30.2784"/>
<polygon fill="#191970" stroke="#191970" points="174.6566,-29.9675 171.2019,-19.9518 167.6567,-29.9359 174.6566,-29.9675"/>
</g>
<!-- Node26 -->
<g id="node27" class="node">
<title>Node26</title>
<polygon fill="#ffffff" stroke="#bfbfbf" points="548.1231,-224.9516 548.1231,-243.9516 599.1231,-243.9516 599.1231,-224.9516 548.1231,-224.9516"/>
<text text-anchor="middle" x="573.6231" y="-231.9516" font-family="Helvetica,sans-Serif" font-size="10.00" fill="#000000">config.h</text>
</g>
<!-- Node25&#45;&gt;Node26 -->
<g id="edge34" class="edge">
<title>Node25&#45;&gt;Node26</title>
<path fill="none" stroke="#191970" d="M551.3261,-280.6972C554.9655,-273.149 560.1155,-262.4674 564.5493,-253.2714"/>
<polygon fill="#191970" stroke="#191970" points="567.7836,-254.6221 568.9739,-244.0943 561.4782,-251.5819 567.7836,-254.6221"/>
</g>
<!-- Node27 -->
<g id="node28" class="node">
<title>Node27</title>
<g id="a_node28"><a xlink:href="../../d1/d06/constexpr_8h.xhtml" target="_top" xlink:title="../util/constexpr.h">
<polygon fill="#ffffff" stroke="#000000" points="692.6231,-224.9516 692.6231,-243.9516 784.6231,-243.9516 784.6231,-224.9516 692.6231,-224.9516"/>
<text text-anchor="middle" x="738.6231" y="-231.9516" font-family="Helvetica,sans-Serif" font-size="10.00" fill="#000000">../util/constexpr.h</text>
</a>
</g>
</g>
<!-- Node25&#45;&gt;Node27 -->
<g id="edge35" class="edge">
<title>Node25&#45;&gt;Node27</title>
<path fill="none" stroke="#191970" d="M579.6291,-280.8249C611.8322,-271.4323 660.9673,-257.1012 696.087,-246.858"/>
<polygon fill="#191970" stroke="#191970" points="697.4278,-250.1128 706.0478,-243.9528 695.4678,-243.3928 697.4278,-250.1128"/>
</g>
<!-- Node29 -->
<g id="node30" class="node">
<title>Node29</title>
<g id="a_node30"><a xlink:href="../../de/d65/stringformatter_8h.xhtml" target="_top" xlink:title="../util/stringformatter.h">
<polygon fill="#ffffff" stroke="#000000" points="378.1231,-224.9516 378.1231,-243.9516 491.1231,-243.9516 491.1231,-224.9516 378.1231,-224.9516"/>
<text text-anchor="middle" x="434.6231" y="-231.9516" font-family="Helvetica,sans-Serif" font-size="10.00" fill="#000000">../util/stringformatter.h</text>
</a>
</g>
</g>
<!-- Node25&#45;&gt;Node29 -->
<g id="edge37" class="edge">
<title>Node25&#45;&gt;Node29</title>
<path fill="none" stroke="#191970" d="M527.3696,-280.8249C509.5519,-271.9161 482.8484,-258.5643 462.6637,-248.4719"/>
<polygon fill="#191970" stroke="#191970" points="464.1349,-245.2944 453.6253,-243.9528 461.0044,-251.5554 464.1349,-245.2944"/>
</g>
<!-- Node36 -->
<g id="node37" class="node">
<title>Node36</title>
<g id="a_node37"><a xlink:href="../../d3/d4e/logsink_8h.xhtml" target="_top" xlink:title="logsink.h">
<polygon fill="#ffffff" stroke="#000000" points="617.6231,-224.9516 617.6231,-243.9516 673.6231,-243.9516 673.6231,-224.9516 617.6231,-224.9516"/>
<text text-anchor="middle" x="645.6231" y="-231.9516" font-family="Helvetica,sans-Serif" font-size="10.00" fill="#000000">logsink.h</text>
</a>
</g>
</g>
<!-- Node25&#45;&gt;Node36 -->
<g id="edge53" class="edge">
<title>Node25&#45;&gt;Node36</title>
<path fill="none" stroke="#191970" d="M563.8676,-280.6972C579.1992,-272.0248 601.843,-259.2161 619.4147,-249.2766"/>
<polygon fill="#191970" stroke="#191970" points="621.5955,-252.0642 628.5762,-244.0943 618.149,-245.9714 621.5955,-252.0642"/>
</g>
<!-- Node39 -->
<g id="node40" class="node">
<title>Node39</title>
<g id="a_node40"><a xlink:href="../../de/d09/level_8h.xhtml" target="_top" xlink:title="level.h">
<polygon fill="#ffffff" stroke="#000000" points="568.1231,-168.9516 568.1231,-187.9516 613.1231,-187.9516 613.1231,-168.9516 568.1231,-168.9516"/>
<text text-anchor="middle" x="590.6231" y="-175.9516" font-family="Helvetica,sans-Serif" font-size="10.00" fill="#000000">level.h</text>
</a>
</g>
</g>
<!-- Node25&#45;&gt;Node39 -->
<g id="edge61" class="edge">
<title>Node25&#45;&gt;Node39</title>
<path fill="none" stroke="#191970" d="M542.3231,-280.5702C537.1893,-267.2229 530.2791,-242.9732 538.6231,-224.4516 544.1927,-212.0885 554.9094,-201.7079 565.1737,-193.955"/>
<polygon fill="#191970" stroke="#191970" points="567.3849,-196.6793 573.5664,-188.0747 563.3682,-190.9464 567.3849,-196.6793"/>
</g>
<!-- Node28 -->
<g id="node29" class="node">
<title>Node28</title>
<polygon fill="#ffffff" stroke="#bfbfbf" points="741.1231,-168.9516 741.1231,-187.9516 786.1231,-187.9516 786.1231,-168.9516 741.1231,-168.9516"/>
<text text-anchor="middle" x="763.6231" y="-175.9516" font-family="Helvetica,sans-Serif" font-size="10.00" fill="#000000">cstdlib</text>
</g>
<!-- Node27&#45;&gt;Node28 -->
<g id="edge36" class="edge">
<title>Node27&#45;&gt;Node28</title>
<path fill="none" stroke="#191970" d="M742.9778,-224.6972C746.3475,-217.149 751.1161,-206.4674 755.2214,-197.2714"/>
<polygon fill="#191970" stroke="#191970" points="758.4377,-198.6525 759.3183,-188.0943 752.0458,-195.7989 758.4377,-198.6525"/>
</g>
<!-- Node29&#45;&gt;Node12 -->
<g id="edge40" class="edge">
<title>Node29&#45;&gt;Node12</title>
<path fill="none" stroke="#191970" d="M393.2968,-224.8885C348.7111,-214.5712 278.1446,-198.2417 233.6684,-187.9497"/>
<polygon fill="#191970" stroke="#191970" points="234.3062,-184.5049 223.7746,-185.6602 232.7281,-191.3247 234.3062,-184.5049"/>
</g>
<!-- Node29&#45;&gt;Node18 -->
<g id="edge39" class="edge">
<title>Node29&#45;&gt;Node18</title>
<path fill="none" stroke="#191970" d="M451.1847,-224.8103C479.6412,-208.3857 536.8544,-176.0173 558.6231,-168.4516 643.1088,-139.089 669.1907,-151.3082 756.6231,-132.4516 757.8826,-132.18 759.1628,-131.8971 760.4544,-131.6059"/>
<polygon fill="#191970" stroke="#191970" points="761.4973,-134.9562 770.4302,-129.2593 759.8944,-128.1422 761.4973,-134.9562"/>
</g>
<!-- Node29&#45;&gt;Node22 -->
<g id="edge41" class="edge">
<title>Node29&#45;&gt;Node22</title>
<path fill="none" stroke="#191970" d="M443.4839,-224.527C457.3148,-209.7241 485.5806,-182.1405 515.6231,-168.4516 600.997,-129.5508 647.6654,-187.5189 723.6231,-132.4516 739.0016,-121.3026 748.2393,-101.3096 753.3292,-86.2403"/>
<polygon fill="#191970" stroke="#191970" points="756.7804,-86.9199 756.3309,-76.3347 750.0812,-84.8899 756.7804,-86.9199"/>
</g>
<!-- Node30 -->
<g id="node31" class="node">
<title>Node30</title>
<polygon fill="#ffffff" stroke="#bfbfbf" points="427.6231,-168.9516 427.6231,-187.9516 473.6231,-187.9516 473.6231,-168.9516 427.6231,-168.9516"/>
<text text-anchor="middle" x="450.6231" y="-175.9516" font-family="Helvetica,sans-Serif" font-size="10.00" fill="#000000">atomic</text>
</g>
<!-- Node29&#45;&gt;Node30 -->
<g id="edge38" class="edge">
<title>Node29&#45;&gt;Node30</title>
<path fill="none" stroke="#191970" d="M437.4101,-224.6972C439.5208,-217.3096 442.4891,-206.9205 445.0778,-197.8603"/>
<polygon fill="#191970" stroke="#191970" points="448.4861,-198.6711 447.868,-188.0943 441.7554,-196.748 448.4861,-198.6711"/>
</g>
<!-- Node31 -->
<g id="node32" class="node">
<title>Node31</title>
<g id="a_node32"><a xlink:href="../../dc/dcf/externalsstream_8h.xhtml" target="_top" xlink:title="externalsstream.h">
<polygon fill="#ffffff" stroke="#000000" points="274.1231,-112.9516 274.1231,-131.9516 369.1231,-131.9516 369.1231,-112.9516 274.1231,-112.9516"/>
<text text-anchor="middle" x="321.6231" y="-119.9516" font-family="Helvetica,sans-Serif" font-size="10.00" fill="#000000">externalsstream.h</text>
</a>
</g>
</g>
<!-- Node29&#45;&gt;Node31 -->
<g id="edge42" class="edge">
<title>Node29&#45;&gt;Node31</title>
<path fill="none" stroke="#191970" d="M404.159,-224.842C385.3447,-217.5263 361.9524,-205.733 346.6231,-188.4516 334.9604,-175.3038 328.5185,-156.1695 325.1083,-141.8848"/>
<polygon fill="#191970" stroke="#191970" points="328.5316,-141.1558 323.0552,-132.0861 321.6804,-142.5913 328.5316,-141.1558"/>
</g>
<!-- Node32 -->
<g id="node33" class="node">
<title>Node32</title>
<g id="a_node33"><a xlink:href="../../d6/d90/strings_8h.xhtml" target="_top" xlink:title="strings.h">
<polygon fill="#ffffff" stroke="#000000" points="355.6231,-168.9516 355.6231,-187.9516 409.6231,-187.9516 409.6231,-168.9516 355.6231,-168.9516"/>
<text text-anchor="middle" x="382.6231" y="-175.9516" font-family="Helvetica,sans-Serif" font-size="10.00" fill="#000000">strings.h</text>
</a>
</g>
</g>
<!-- Node29&#45;&gt;Node32 -->
<g id="edge45" class="edge">
<title>Node29&#45;&gt;Node32</title>
<path fill="none" stroke="#191970" d="M425.5654,-224.6972C418.1089,-216.6672 407.3597,-205.091 398.4814,-195.5298"/>
<polygon fill="#191970" stroke="#191970" points="400.9463,-193.0407 391.577,-188.0943 395.8168,-197.8039 400.9463,-193.0407"/>
</g>
<!-- Node31&#45;&gt;Node16 -->
<g id="edge44" class="edge">
<title>Node31&#45;&gt;Node16</title>
<path fill="none" stroke="#191970" d="M308.8342,-112.9026C282.9304,-93.5611 224.0515,-49.5982 192.5031,-26.042"/>
<polygon fill="#191970" stroke="#191970" points="194.4865,-23.155 184.3796,-19.9765 190.2984,-28.7639 194.4865,-23.155"/>
</g>
<!-- Node31&#45;&gt;Node20 -->
<g id="edge43" class="edge">
<title>Node31&#45;&gt;Node20</title>
<path fill="none" stroke="#191970" d="M321.6231,-112.6972C321.6231,-105.3899 321.6231,-95.146 321.6231,-86.1562"/>
<polygon fill="#191970" stroke="#191970" points="325.1232,-86.0943 321.6231,-76.0943 318.1232,-86.0943 325.1232,-86.0943"/>
</g>
<!-- Node32&#45;&gt;Node9 -->
<g id="edge48" class="edge">
<title>Node32&#45;&gt;Node9</title>
<path fill="none" stroke="#191970" d="M356.4934,-168.8249C331.3195,-159.5503 293.0759,-145.4605 265.3506,-135.246"/>
<polygon fill="#191970" stroke="#191970" points="266.249,-131.847 255.6556,-131.6741 263.829,-138.4155 266.249,-131.847"/>
</g>
<!-- Node32&#45;&gt;Node16 -->
<g id="edge51" class="edge">
<title>Node32&#45;&gt;Node16</title>
<path fill="none" stroke="#191970" d="M409.6992,-170.7213C412.7027,-169.9262 415.723,-169.1536 418.6231,-168.4516 497.5827,-149.3395 642.8518,-176.3029 592.6231,-112.4516 543.747,-50.3198 291.2256,-21.4469 202.4946,-13.1088"/>
<polygon fill="#191970" stroke="#191970" points="202.5512,-9.5994 192.2734,-12.1718 201.9121,-16.5702 202.5512,-9.5994"/>
</g>
<!-- Node32&#45;&gt;Node17 -->
<g id="edge52" class="edge">
<title>Node32&#45;&gt;Node17</title>
<path fill="none" stroke="#191970" d="M409.6263,-170.3764C412.6435,-169.6459 415.6869,-168.9827 418.6231,-168.4516 596.7454,-136.2325 649.1893,-167.8149 830.5701,-132.2458"/>
<polygon fill="#191970" stroke="#191970" points="831.3133,-135.6666 840.4315,-130.2713 829.9389,-128.8028 831.3133,-135.6666"/>
</g>
<!-- Node32&#45;&gt;Node18 -->
<g id="edge49" class="edge">
<title>Node32&#45;&gt;Node18</title>
<path fill="none" stroke="#191970" d="M409.6434,-170.4668C412.6574,-169.7193 415.6953,-169.0275 418.6231,-168.4516 552.5534,-142.1079 588.2226,-149.715 723.6231,-132.4516 735.4756,-130.9405 748.3974,-129.2007 760.0301,-127.6005"/>
<polygon fill="#191970" stroke="#191970" points="760.8579,-131.0193 770.2832,-126.1806 759.8976,-124.0855 760.8579,-131.0193"/>
</g>
<!-- Node33 -->
<g id="node34" class="node">
<title>Node33</title>
<polygon fill="#ffffff" stroke="#bfbfbf" points="458.1231,-112.9516 458.1231,-131.9516 507.1231,-131.9516 507.1231,-112.9516 458.1231,-112.9516"/>
<text text-anchor="middle" x="482.6231" y="-119.9516" font-family="Helvetica,sans-Serif" font-size="10.00" fill="#000000">cstdarg</text>
</g>
<!-- Node32&#45;&gt;Node33 -->
<g id="edge46" class="edge">
<title>Node32&#45;&gt;Node33</title>
<path fill="none" stroke="#191970" d="M400.0418,-168.6972C415.6716,-159.9445 438.825,-146.9786 456.6416,-137.0013"/>
<polygon fill="#191970" stroke="#191970" points="458.3891,-140.0342 465.404,-132.0943 454.9688,-133.9266 458.3891,-140.0342"/>
</g>
<!-- Node34 -->
<g id="node35" class="node">
<title>Node34</title>
<polygon fill="#ffffff" stroke="#bfbfbf" points="525.1231,-112.9516 525.1231,-131.9516 584.1231,-131.9516 584.1231,-112.9516 525.1231,-112.9516"/>
<text text-anchor="middle" x="554.6231" y="-119.9516" font-family="Helvetica,sans-Serif" font-size="10.00" fill="#000000">functional</text>
</g>
<!-- Node32&#45;&gt;Node34 -->
<g id="edge47" class="edge">
<title>Node32&#45;&gt;Node34</title>
<path fill="none" stroke="#191970" d="M409.877,-169.5783C438.3775,-160.299 483.3665,-145.6515 515.6231,-135.1493"/>
<polygon fill="#191970" stroke="#191970" points="516.7676,-138.4576 525.1927,-132.0336 514.6004,-131.8015 516.7676,-138.4576"/>
</g>
<!-- Node35 -->
<g id="node36" class="node">
<title>Node35</title>
<polygon fill="#ffffff" stroke="#bfbfbf" points="387.6231,-112.9516 387.6231,-131.9516 439.6231,-131.9516 439.6231,-112.9516 387.6231,-112.9516"/>
<text text-anchor="middle" x="413.6231" y="-119.9516" font-family="Helvetica,sans-Serif" font-size="10.00" fill="#000000">sstream</text>
</g>
<!-- Node32&#45;&gt;Node35 -->
<g id="edge50" class="edge">
<title>Node32&#45;&gt;Node35</title>
<path fill="none" stroke="#191970" d="M388.0229,-168.6972C392.2458,-161.0687 398.2404,-150.2398 403.3672,-140.9784"/>
<polygon fill="#191970" stroke="#191970" points="406.5041,-142.5384 408.2852,-132.0943 400.3798,-139.1481 406.5041,-142.5384"/>
</g>
<!-- Node37 -->
<g id="node38" class="node">
<title>Node37</title>
<polygon fill="#ffffff" stroke="#bfbfbf" points="631.1231,-168.9516 631.1231,-187.9516 660.1231,-187.9516 660.1231,-168.9516 631.1231,-168.9516"/>
<text text-anchor="middle" x="645.6231" y="-175.9516" font-family="Helvetica,sans-Serif" font-size="10.00" fill="#000000">list</text>
</g>
<!-- Node36&#45;&gt;Node37 -->
<g id="edge54" class="edge">
<title>Node36&#45;&gt;Node37</title>
<path fill="none" stroke="#191970" d="M645.6231,-224.6972C645.6231,-217.3899 645.6231,-207.146 645.6231,-198.1562"/>
<polygon fill="#191970" stroke="#191970" points="649.1232,-198.0943 645.6231,-188.0943 642.1232,-198.0943 649.1232,-198.0943"/>
</g>
<!-- Node38 -->
<g id="node39" class="node">
<title>Node38</title>
<polygon fill="#ffffff" stroke="#bfbfbf" points="678.6231,-168.9516 678.6231,-187.9516 722.6231,-187.9516 722.6231,-168.9516 678.6231,-168.9516"/>
<text text-anchor="middle" x="700.6231" y="-175.9516" font-family="Helvetica,sans-Serif" font-size="10.00" fill="#000000">mutex</text>
</g>
<!-- Node36&#45;&gt;Node38 -->
<g id="edge55" class="edge">
<title>Node36&#45;&gt;Node38</title>
<path fill="none" stroke="#191970" d="M655.2034,-224.6972C663.1689,-216.5869 674.6871,-204.8591 684.131,-195.2435"/>
<polygon fill="#191970" stroke="#191970" points="686.6426,-197.6813 691.1526,-188.0943 681.6484,-192.7763 686.6426,-197.6813"/>
</g>
<!-- Node36&#45;&gt;Node39 -->
<g id="edge56" class="edge">
<title>Node36&#45;&gt;Node39</title>
<path fill="none" stroke="#191970" d="M636.0428,-224.6972C628.0773,-216.5869 616.559,-204.8591 607.1152,-195.2435"/>
<polygon fill="#191970" stroke="#191970" points="609.5978,-192.7763 600.0936,-188.0943 604.6036,-197.6813 609.5978,-192.7763"/>
</g>
<!-- Node40 -->
<g id="node41" class="node">
<title>Node40</title>
<g id="a_node41"><a xlink:href="../../d0/d9b/enum_8h.xhtml" target="_top" xlink:title="../util/enum.h">
<polygon fill="#ffffff" stroke="#000000" points="640.6231,-112.9516 640.6231,-131.9516 714.6231,-131.9516 714.6231,-112.9516 640.6231,-112.9516"/>
<text text-anchor="middle" x="677.6231" y="-119.9516" font-family="Helvetica,sans-Serif" font-size="10.00" fill="#000000">../util/enum.h</text>
</a>
</g>
</g>
<!-- Node39&#45;&gt;Node40 -->
<g id="edge57" class="edge">
<title>Node39&#45;&gt;Node40</title>
<path fill="none" stroke="#191970" d="M605.7773,-168.6972C619.1258,-160.1051 638.7817,-147.453 654.1614,-137.5534"/>
<polygon fill="#191970" stroke="#191970" points="656.1282,-140.4498 662.6425,-132.0943 652.3395,-134.5638 656.1282,-140.4498"/>
</g>
<!-- Node40&#45;&gt;Node20 -->
<g id="edge58" class="edge">
<title>Node40&#45;&gt;Node20</title>
<path fill="none" stroke="#191970" d="M640.5323,-116.6171C572.2677,-105.8789 427.4655,-83.101 358.9929,-72.33"/>
<polygon fill="#191970" stroke="#191970" points="359.4944,-68.866 349.0719,-70.7694 358.4066,-75.7809 359.4944,-68.866"/>
</g>
<!-- Node40&#45;&gt;Node22 -->
<g id="edge60" class="edge">
<title>Node40&#45;&gt;Node22</title>
<path fill="none" stroke="#191970" d="M691.7322,-112.6972C704.044,-104.1854 722.1189,-91.6891 736.3769,-81.8317"/>
<polygon fill="#191970" stroke="#191970" points="738.4405,-84.6601 744.6757,-76.0943 734.4597,-78.9022 738.4405,-84.6601"/>
</g>
<!-- Node41 -->
<g id="node42" class="node">
<title>Node41</title>
<polygon fill="#ffffff" stroke="#bfbfbf" points="646.1231,-56.9516 646.1231,-75.9516 697.1231,-75.9516 697.1231,-56.9516 646.1231,-56.9516"/>
<text text-anchor="middle" x="671.6231" y="-63.9516" font-family="Helvetica,sans-Serif" font-size="10.00" fill="#000000">typeinfo</text>
</g>
<!-- Node40&#45;&gt;Node41 -->
<g id="edge59" class="edge">
<title>Node40&#45;&gt;Node41</title>
<path fill="none" stroke="#191970" d="M676.578,-112.6972C675.795,-105.3899 674.6975,-95.146 673.7343,-86.1562"/>
<polygon fill="#191970" stroke="#191970" points="677.2017,-85.6645 672.6562,-76.0943 670.2416,-86.4103 677.2017,-85.6645"/>
</g>
<!-- Node42&#45;&gt;Node1 -->
<g id="edge73" class="edge">
<title>Node42&#45;&gt;Node1</title>
<path fill="none" stroke="#191970" d="M734.1348,-616.8249C713.9791,-607.7951 683.635,-594.201 661.005,-584.0627"/>
<polygon fill="#191970" stroke="#191970" points="662.388,-580.8472 651.831,-579.9528 659.526,-587.2354 662.388,-580.8472"/>
</g>
<!-- Node42&#45;&gt;Node43 -->
<g id="edge64" class="edge">
<title>Node42&#45;&gt;Node43</title>
<path fill="none" stroke="#191970" d="M755.6231,-616.6972C755.6231,-609.3899 755.6231,-599.146 755.6231,-590.1562"/>
<polygon fill="#191970" stroke="#191970" points="759.1232,-590.0943 755.6231,-580.0943 752.1232,-590.0943 759.1232,-590.0943"/>
</g>
<!-- Node49 -->
<g id="node50" class="node">
<title>Node49</title>
<g id="a_node50"><a xlink:href="../../da/dce/tile_8h.xhtml" target="_top" xlink:title="tile.h">
<polygon fill="#ffffff" stroke="#000000" points="818.6231,-560.9516 818.6231,-579.9516 856.6231,-579.9516 856.6231,-560.9516 818.6231,-560.9516"/>
<text text-anchor="middle" x="837.6231" y="-567.9516" font-family="Helvetica,sans-Serif" font-size="10.00" fill="#000000">tile.h</text>
</a>
</g>
</g>
<!-- Node42&#45;&gt;Node49 -->
<g id="edge74" class="edge">
<title>Node42&#45;&gt;Node49</title>
<path fill="none" stroke="#191970" d="M769.9064,-616.6972C782.3701,-608.1854 800.6682,-595.6891 815.1023,-585.8317"/>
<polygon fill="#191970" stroke="#191970" points="817.2193,-588.6243 823.5035,-580.0943 813.2716,-582.8437 817.2193,-588.6243"/>
</g>
<!-- Node43&#45;&gt;Node3 -->
<g id="edge70" class="edge">
<title>Node43&#45;&gt;Node3</title>
<path fill="none" stroke="#191970" d="M733.6191,-560.8249C712.9796,-551.7951 681.9073,-538.201 658.7342,-528.0627"/>
<polygon fill="#191970" stroke="#191970" points="659.9044,-524.7544 649.3399,-523.9528 657.0986,-531.1676 659.9044,-524.7544"/>
</g>
<!-- Node43&#45;&gt;Node13 -->
<g id="edge65" class="edge">
<title>Node43&#45;&gt;Node13</title>
<path fill="none" stroke="#191970" d="M742.8542,-560.6603C732.9534,-552.2499 719.8959,-539.1761 713.6231,-524.4516 699.2668,-490.7523 700.6304,-447.048 703.044,-422.141"/>
<polygon fill="#191970" stroke="#191970" points="706.5309,-422.4528 704.1741,-412.1234 699.5751,-421.668 706.5309,-422.4528"/>
</g>
<!-- Node44 -->
<g id="node45" class="node">
<title>Node44</title>
<g id="a_node45"><a xlink:href="../../db/dfb/hash_8h.xhtml" target="_top" xlink:title="../util/hash.h">
<polygon fill="#ffffff" stroke="#000000" points="723.1231,-504.9516 723.1231,-523.9516 794.1231,-523.9516 794.1231,-504.9516 723.1231,-504.9516"/>
<text text-anchor="middle" x="758.6231" y="-511.9516" font-family="Helvetica,sans-Serif" font-size="10.00" fill="#000000">../util/hash.h</text>
</a>
</g>
</g>
<!-- Node43&#45;&gt;Node44 -->
<g id="edge66" class="edge">
<title>Node43&#45;&gt;Node44</title>
<path fill="none" stroke="#191970" d="M756.1457,-560.6972C756.5371,-553.3899 757.0859,-543.146 757.5675,-534.1562"/>
<polygon fill="#191970" stroke="#191970" points="761.0665,-534.2673 758.1065,-524.0943 754.0765,-533.8927 761.0665,-534.2673"/>
</g>
<!-- Node47 -->
<g id="node48" class="node">
<title>Node47</title>
<polygon fill="#ffffff" stroke="#bfbfbf" points="812.6231,-504.9516 812.6231,-523.9516 906.6231,-523.9516 906.6231,-504.9516 812.6231,-504.9516"/>
<text text-anchor="middle" x="859.6231" y="-511.9516" font-family="Helvetica,sans-Serif" font-size="10.00" fill="#000000">coord_nese.gen.h</text>
</g>
<!-- Node43&#45;&gt;Node47 -->
<g id="edge71" class="edge">
<title>Node43&#45;&gt;Node47</title>
<path fill="none" stroke="#191970" d="M773.7385,-560.6972C790.0681,-551.9043 814.2941,-538.8596 832.857,-528.8641"/>
<polygon fill="#191970" stroke="#191970" points="834.5699,-531.917 841.7153,-524.0943 831.2512,-525.7537 834.5699,-531.917"/>
</g>
<!-- Node48 -->
<g id="node49" class="node">
<title>Node48</title>
<polygon fill="#ffffff" stroke="#bfbfbf" points="924.6231,-504.9516 924.6231,-523.9516 1028.6231,-523.9516 1028.6231,-504.9516 924.6231,-504.9516"/>
<text text-anchor="middle" x="976.6231" y="-511.9516" font-family="Helvetica,sans-Serif" font-size="10.00" fill="#000000">coord_neseup.gen.h</text>
</g>
<!-- Node43&#45;&gt;Node48 -->
<g id="edge72" class="edge">
<title>Node43&#45;&gt;Node48</title>
<path fill="none" stroke="#191970" d="M778.8563,-564.5645C814.373,-555.5648 882.9133,-538.1971 929.2195,-526.4634"/>
<polygon fill="#191970" stroke="#191970" points="930.1979,-529.8262 939.0318,-523.977 928.4784,-523.0406 930.1979,-529.8262"/>
</g>
<!-- Node44&#45;&gt;Node28 -->
<g id="edge67" class="edge">
<title>Node44&#45;&gt;Node28</title>
<path fill="none" stroke="#191970" d="M788.4484,-504.9169C856.742,-482.656 1018.6231,-427.2718 1018.6231,-402.4516 1018.6231,-402.4516 1018.6231,-402.4516 1018.6231,-290.4516 1018.6231,-242.3902 864.8534,-201.4342 796.1314,-185.5302"/>
<polygon fill="#191970" stroke="#191970" points="796.7801,-182.0884 786.2526,-183.2814 795.2263,-188.9138 796.7801,-182.0884"/>
</g>
<!-- Node45 -->
<g id="node46" class="node">
<title>Node45</title>
<polygon fill="#ffffff" stroke="#bfbfbf" points="731.6231,-448.9516 731.6231,-467.9516 769.6231,-467.9516 769.6231,-448.9516 731.6231,-448.9516"/>
<text text-anchor="middle" x="750.6231" y="-455.9516" font-family="Helvetica,sans-Serif" font-size="10.00" fill="#000000">array</text>
</g>
<!-- Node44&#45;&gt;Node45 -->
<g id="edge68" class="edge">
<title>Node44&#45;&gt;Node45</title>
<path fill="none" stroke="#191970" d="M757.2296,-504.6972C756.1857,-497.3899 754.7223,-487.146 753.438,-478.1562"/>
<polygon fill="#191970" stroke="#191970" points="756.8797,-477.4988 752.0006,-468.0943 749.9501,-478.4888 756.8797,-477.4988"/>
</g>
<!-- Node46 -->
<g id="node47" class="node">
<title>Node46</title>
<polygon fill="#ffffff" stroke="#bfbfbf" points="788.1231,-448.9516 788.1231,-467.9516 847.1231,-467.9516 847.1231,-448.9516 788.1231,-448.9516"/>
<text text-anchor="middle" x="817.6231" y="-455.9516" font-family="Helvetica,sans-Serif" font-size="10.00" fill="#000000">typeindex</text>
</g>
<!-- Node44&#45;&gt;Node46 -->
<g id="edge69" class="edge">
<title>Node44&#45;&gt;Node46</title>
<path fill="none" stroke="#191970" d="M768.9001,-504.6972C777.4449,-496.5869 789.8009,-484.8591 799.9316,-475.2435"/>
<polygon fill="#191970" stroke="#191970" points="802.6203,-477.5172 807.4639,-468.0943 797.8013,-472.44 802.6203,-477.5172"/>
</g>
<!-- Node49&#45;&gt;Node3 -->
<g id="edge75" class="edge">
<title>Node49&#45;&gt;Node3</title>
<path fill="none" stroke="#191970" d="M818.6166,-565.3832C786.0456,-556.6976 718.6945,-538.7373 673.3226,-526.6382"/>
<polygon fill="#191970" stroke="#191970" points="673.9941,-523.195 663.4299,-524.0001 672.1904,-529.9586 673.9941,-523.195"/>
</g>
<!-- Node49&#45;&gt;Node13 -->
<g id="edge78" class="edge">
<title>Node49&#45;&gt;Node13</title>
<path fill="none" stroke="#191970" d="M856.8945,-568.9911C902.5369,-565.0912 1015.0993,-552.744 1037.6231,-524.4516 1043.1594,-517.4974 1042.8985,-511.6059 1037.6231,-504.4516 1001.48,-455.4358 815.6672,-420.2661 738.8843,-407.6097"/>
<polygon fill="#191970" stroke="#191970" points="739.2318,-404.1204 728.8004,-405.9741 738.111,-411.0301 739.2318,-404.1204"/>
</g>
<!-- Node49&#45;&gt;Node44 -->
<g id="edge79" class="edge">
<title>Node49&#45;&gt;Node44</title>
<path fill="none" stroke="#191970" d="M823.8623,-560.6972C811.9679,-552.2657 794.5581,-539.9245 780.7145,-530.1114"/>
<polygon fill="#191970" stroke="#191970" points="782.4085,-527.022 772.2262,-524.0943 778.3603,-532.7328 782.4085,-527.022"/>
</g>
<!-- Node49&#45;&gt;Node47 -->
<g id="edge76" class="edge">
<title>Node49&#45;&gt;Node47</title>
<path fill="none" stroke="#191970" d="M841.4552,-560.6972C844.389,-553.2293 848.5278,-542.6943 852.1141,-533.5653"/>
<polygon fill="#191970" stroke="#191970" points="855.4359,-534.6816 855.8349,-524.0943 848.9207,-532.122 855.4359,-534.6816"/>
</g>
<!-- Node49&#45;&gt;Node48 -->
<g id="edge77" class="edge">
<title>Node49&#45;&gt;Node48</title>
<path fill="none" stroke="#191970" d="M856.659,-562.7825C878.9091,-553.8184 916.1307,-538.8227 943.2222,-527.9081"/>
<polygon fill="#191970" stroke="#191970" points="944.7309,-531.0737 952.6985,-524.0903 942.115,-524.5809 944.7309,-531.0737"/>
</g>
</g>
</svg>
