<?xml version="1.0" encoding="UTF-8" standalone="no"?>
<!DOCTYPE svg PUBLIC "-//W3C//DTD SVG 1.1//EN"
 "http://www.w3.org/Graphics/SVG/1.1/DTD/svg11.dtd">
<!-- Generated by graphviz version 2.40.1 (20161225.0304)
 -->
<!-- Title: /mnt/c/Users/Jameson/Desktop/git/openage&#45;new&#45;doc&#45;system/libopenage/terrain/terrain_outline.cpp Pages: 1 -->
<svg width="1401pt" height="509pt"
 viewBox="0.00 0.00 1401.06 509.45" xmlns="http://www.w3.org/2000/svg" xmlns:xlink="http://www.w3.org/1999/xlink">
<g id="graph0" class="graph" transform="scale(1 1) rotate(0) translate(4 505.4516)">
<title>/mnt/c/Users/Jameson/Desktop/git/openage&#45;new&#45;doc&#45;system/libopenage/terrain/terrain_outline.cpp</title>
<polygon fill="#ffffff" stroke="transparent" points="-4,4 -4,-505.4516 1397.0603,-505.4516 1397.0603,4 -4,4"/>
<!-- Node0 -->
<g id="node1" class="node">
<title>Node0</title>
<polygon fill="#bfbfbf" stroke="#000000" points="66.5603,-448.9516 66.5603,-500.9516 207.5603,-500.9516 207.5603,-448.9516 66.5603,-448.9516"/>
<text text-anchor="start" x="74.5603" y="-488.9516" font-family="Helvetica,sans-Serif" font-size="10.00" fill="#000000">/mnt/c/Users/Jameson</text>
<text text-anchor="start" x="74.5603" y="-477.9516" font-family="Helvetica,sans-Serif" font-size="10.00" fill="#000000">/Desktop/git/openage</text>
<text text-anchor="start" x="74.5603" y="-466.9516" font-family="Helvetica,sans-Serif" font-size="10.00" fill="#000000">&#45;new&#45;doc&#45;system/libopenage</text>
<text text-anchor="middle" x="137.0603" y="-455.9516" font-family="Helvetica,sans-Serif" font-size="10.00" fill="#000000">/terrain/terrain_outline.cpp</text>
</g>
<!-- Node1 -->
<g id="node2" class="node">
<title>Node1</title>
<polygon fill="#ffffff" stroke="#bfbfbf" points="363.0603,-112.9516 363.0603,-131.9516 407.0603,-131.9516 407.0603,-112.9516 363.0603,-112.9516"/>
<text text-anchor="middle" x="385.0603" y="-119.9516" font-family="Helvetica,sans-Serif" font-size="10.00" fill="#000000">cmath</text>
</g>
<!-- Node0&#45;&gt;Node1 -->
<g id="edge1" class="edge">
<title>Node0&#45;&gt;Node1</title>
<path fill="none" stroke="#191970" d="M163.0198,-448.7353C172.3184,-438.1711 182.1889,-425.4239 189.0603,-412.4516 203.3485,-385.4776 208.0603,-376.9763 208.0603,-346.4516 208.0603,-346.4516 208.0603,-346.4516 208.0603,-234.4516 208.0603,-166.5806 302.1431,-138.1422 353.123,-127.7145"/>
<polygon fill="#191970" stroke="#191970" points="353.8451,-131.1399 363.001,-125.8088 352.519,-124.2666 353.8451,-131.1399"/>
</g>
<!-- Node2 -->
<g id="node3" class="node">
<title>Node2</title>
<g id="a_node3"><a xlink:href="../../df/db1/math_8h.xhtml" target="_top" xlink:title="math.h">
<polygon fill="#ffffff" stroke="#000000" points="28.5603,-392.9516 28.5603,-411.9516 75.5603,-411.9516 75.5603,-392.9516 28.5603,-392.9516"/>
<text text-anchor="middle" x="52.0603" y="-399.9516" font-family="Helvetica,sans-Serif" font-size="10.00" fill="#000000">math.h</text>
</a>
</g>
</g>
<!-- Node0&#45;&gt;Node2 -->
<g id="edge2" class="edge">
<title>Node0&#45;&gt;Node2</title>
<path fill="none" stroke="#191970" d="M106.3733,-448.7775C94.5162,-438.6641 81.3266,-427.4141 70.9144,-418.5331"/>
<polygon fill="#191970" stroke="#191970" points="73.1178,-415.8122 63.2381,-411.9856 68.5751,-421.1381 73.1178,-415.8122"/>
</g>
<!-- Node3 -->
<g id="node4" class="node">
<title>Node3</title>
<polygon fill="#ffffff" stroke="#bfbfbf" points="471.0603,-56.9516 471.0603,-75.9516 523.0603,-75.9516 523.0603,-56.9516 471.0603,-56.9516"/>
<text text-anchor="middle" x="497.0603" y="-63.9516" font-family="Helvetica,sans-Serif" font-size="10.00" fill="#000000">memory</text>
</g>
<!-- Node0&#45;&gt;Node3 -->
<g id="edge4" class="edge">
<title>Node0&#45;&gt;Node3</title>
<path fill="none" stroke="#191970" d="M66.3815,-449.1858C48.8651,-439.9194 31.5543,-427.8388 19.0603,-412.4516 -.1808,-388.755 .0603,-376.9763 .0603,-346.4516 .0603,-346.4516 .0603,-346.4516 .0603,-178.4516 .0603,-95.742 93.963,-133.0749 174.0603,-112.4516 276.0004,-86.2043 400.1543,-73.8234 460.5481,-69.0086"/>
<polygon fill="#191970" stroke="#191970" points="461.0181,-72.4828 470.7183,-68.2218 460.4781,-65.5037 461.0181,-72.4828"/>
</g>
<!-- Node4 -->
<g id="node5" class="node">
<title>Node4</title>
<g id="a_node5"><a xlink:href="../../df/dba/texture_8h.xhtml" target="_top" xlink:title="../texture.h">
<polygon fill="#ffffff" stroke="#000000" points="862.0603,-392.9516 862.0603,-411.9516 926.0603,-411.9516 926.0603,-392.9516 862.0603,-392.9516"/>
<text text-anchor="middle" x="894.0603" y="-399.9516" font-family="Helvetica,sans-Serif" font-size="10.00" fill="#000000">../texture.h</text>
</a>
</g>
</g>
<!-- Node0&#45;&gt;Node4 -->
<g id="edge5" class="edge">
<title>Node0&#45;&gt;Node4</title>
<path fill="none" stroke="#191970" d="M207.5972,-468.1961C362.2037,-453.389 727.0443,-418.4472 851.5557,-406.5224"/>
<polygon fill="#191970" stroke="#191970" points="852.1983,-409.977 861.819,-405.5395 851.5308,-403.0089 852.1983,-409.977"/>
</g>
<!-- Node65 -->
<g id="node50" class="node">
<title>Node65</title>
<g id="a_node50"><a xlink:href="../../db/d01/terrain__outline_8h.xhtml" target="_top" xlink:title="terrain_outline.h">
<polygon fill="#ffffff" stroke="#000000" points="94.0603,-392.9516 94.0603,-411.9516 180.0603,-411.9516 180.0603,-392.9516 94.0603,-392.9516"/>
<text text-anchor="middle" x="137.0603" y="-399.9516" font-family="Helvetica,sans-Serif" font-size="10.00" fill="#000000">terrain_outline.h</text>
</a>
</g>
</g>
<!-- Node0&#45;&gt;Node65 -->
<g id="edge80" class="edge">
<title>Node0&#45;&gt;Node65</title>
<path fill="none" stroke="#191970" d="M137.0603,-448.7775C137.0603,-439.9658 137.0603,-430.2913 137.0603,-422.0727"/>
<polygon fill="#191970" stroke="#191970" points="140.5604,-421.9856 137.0603,-411.9856 133.5604,-421.9857 140.5604,-421.9856"/>
</g>
<!-- Node2&#45;&gt;Node1 -->
<g id="edge3" class="edge">
<title>Node2&#45;&gt;Node1</title>
<path fill="none" stroke="#191970" d="M75.3733,-392.9329C109.7621,-377.1621 170.0603,-342.1396 170.0603,-290.4516 170.0603,-290.4516 170.0603,-290.4516 170.0603,-234.4516 170.0603,-203.2391 170.7845,-189.2473 194.0603,-168.4516 217.293,-147.6945 304.6317,-133.1374 352.7524,-126.5019"/>
<polygon fill="#191970" stroke="#191970" points="353.5073,-129.932 362.9529,-125.133 352.5762,-122.9942 353.5073,-129.932"/>
</g>
<!-- Node4&#45;&gt;Node3 -->
<g id="edge8" class="edge">
<title>Node4&#45;&gt;Node3</title>
<path fill="none" stroke="#191970" d="M861.9611,-398.017C821.2534,-391.7564 749.3457,-378.5545 691.0603,-356.4516 599.0471,-321.5585 583.0803,-297.2874 500.0603,-244.4516 461.266,-219.7621 449.2287,-216.8491 413.0603,-188.4516 384.6244,-166.1253 368.3299,-165.6697 354.0603,-132.4516 334.7556,-87.5127 412.2445,-73.1514 460.6868,-68.5769"/>
<polygon fill="#191970" stroke="#191970" points="461.1615,-72.0494 470.8313,-67.7198 460.5721,-65.0742 461.1615,-72.0494"/>
</g>
<!-- Node5 -->
<g id="node6" class="node">
<title>Node5</title>
<polygon fill="#ffffff" stroke="#bfbfbf" points="1149.0603,-280.9516 1149.0603,-299.9516 1211.0603,-299.9516 1211.0603,-280.9516 1149.0603,-280.9516"/>
<text text-anchor="middle" x="1180.0603" y="-287.9516" font-family="Helvetica,sans-Serif" font-size="10.00" fill="#000000">epoxy/gl.h</text>
</g>
<!-- Node4&#45;&gt;Node5 -->
<g id="edge6" class="edge">
<title>Node4&#45;&gt;Node5</title>
<path fill="none" stroke="#191970" d="M926.3324,-400.1032C1002.9311,-394.2025 1190.6934,-377.6955 1209.0603,-356.4516 1221.2402,-342.3639 1209.4639,-322.3556 1197.4652,-308.0685"/>
<polygon fill="#191970" stroke="#191970" points="1199.8507,-305.4876 1190.5542,-300.4057 1194.6525,-310.1758 1199.8507,-305.4876"/>
</g>
<!-- Node6 -->
<g id="node7" class="node">
<title>Node6</title>
<polygon fill="#ffffff" stroke="#bfbfbf" points="996.0603,-112.9516 996.0603,-131.9516 1040.0603,-131.9516 1040.0603,-112.9516 996.0603,-112.9516"/>
<text text-anchor="middle" x="1018.0603" y="-119.9516" font-family="Helvetica,sans-Serif" font-size="10.00" fill="#000000">vector</text>
</g>
<!-- Node4&#45;&gt;Node6 -->
<g id="edge7" class="edge">
<title>Node4&#45;&gt;Node6</title>
<path fill="none" stroke="#191970" d="M900.7429,-392.7668C913.0518,-373.9545 938.0603,-330.7715 938.0603,-290.4516 938.0603,-290.4516 938.0603,-290.4516 938.0603,-234.4516 938.0603,-194.0526 972.9522,-158.1652 996.6497,-138.4503"/>
<polygon fill="#191970" stroke="#191970" points="998.8727,-141.1541 1004.4894,-132.1705 994.4964,-135.6907 998.8727,-141.1541"/>
</g>
<!-- Node7 -->
<g id="node8" class="node">
<title>Node7</title>
<polygon fill="#ffffff" stroke="#bfbfbf" points="790.5603,-336.9516 790.5603,-355.9516 909.5603,-355.9516 909.5603,-336.9516 790.5603,-336.9516"/>
<text text-anchor="middle" x="850.0603" y="-343.9516" font-family="Helvetica,sans-Serif" font-size="10.00" fill="#000000">gamedata/texture.gen.h</text>
</g>
<!-- Node4&#45;&gt;Node7 -->
<g id="edge9" class="edge">
<title>Node4&#45;&gt;Node7</title>
<path fill="none" stroke="#191970" d="M886.3961,-392.6972C880.213,-384.8278 871.3539,-373.5526 863.9314,-364.1058"/>
<polygon fill="#191970" stroke="#191970" points="866.567,-361.7951 857.6367,-356.0943 861.0628,-366.1199 866.567,-361.7951"/>
</g>
<!-- Node8 -->
<g id="node9" class="node">
<title>Node8</title>
<g id="a_node9"><a xlink:href="../../dd/dcd/pixel_8h.xhtml" target="_top" xlink:title="coord/pixel.h">
<polygon fill="#ffffff" stroke="#000000" points="700.0603,-336.9516 700.0603,-355.9516 772.0603,-355.9516 772.0603,-336.9516 700.0603,-336.9516"/>
<text text-anchor="middle" x="736.0603" y="-343.9516" font-family="Helvetica,sans-Serif" font-size="10.00" fill="#000000">coord/pixel.h</text>
</a>
</g>
</g>
<!-- Node4&#45;&gt;Node8 -->
<g id="edge10" class="edge">
<title>Node4&#45;&gt;Node8</title>
<path fill="none" stroke="#191970" d="M866.8991,-392.8249C840.8536,-383.5936 801.3487,-369.5918 772.5624,-359.3891"/>
<polygon fill="#191970" stroke="#191970" points="773.4618,-355.9946 762.867,-355.9528 771.1233,-362.5924 773.4618,-355.9946"/>
</g>
<!-- Node46 -->
<g id="node31" class="node">
<title>Node46</title>
<g id="a_node31"><a xlink:href="../../da/dce/tile_8h.xhtml" target="_top" xlink:title="coord/tile.h">
<polygon fill="#ffffff" stroke="#000000" points="473.5603,-336.9516 473.5603,-355.9516 538.5603,-355.9516 538.5603,-336.9516 473.5603,-336.9516"/>
<text text-anchor="middle" x="506.0603" y="-343.9516" font-family="Helvetica,sans-Serif" font-size="10.00" fill="#000000">coord/tile.h</text>
</a>
</g>
</g>
<!-- Node4&#45;&gt;Node46 -->
<g id="edge44" class="edge">
<title>Node4&#45;&gt;Node46</title>
<path fill="none" stroke="#191970" d="M861.8029,-398.7386C801.5552,-391.6536 667.9043,-375.2281 556.0603,-356.4516 553.7031,-356.0559 551.287,-355.6324 548.8505,-355.1914"/>
<polygon fill="#191970" stroke="#191970" points="549.2935,-351.7135 538.8191,-353.3062 548.0006,-358.5931 549.2935,-351.7135"/>
</g>
<!-- Node52 -->
<g id="node38" class="node">
<title>Node52</title>
<g id="a_node38"><a xlink:href="../../d1/dea/program_8h.xhtml" target="_top" xlink:title="shader/program.h">
<polygon fill="#ffffff" stroke="#000000" points="1108.0603,-336.9516 1108.0603,-355.9516 1200.0603,-355.9516 1200.0603,-336.9516 1108.0603,-336.9516"/>
<text text-anchor="middle" x="1154.0603" y="-343.9516" font-family="Helvetica,sans-Serif" font-size="10.00" fill="#000000">shader/program.h</text>
</a>
</g>
</g>
<!-- Node4&#45;&gt;Node52 -->
<g id="edge53" class="edge">
<title>Node4&#45;&gt;Node52</title>
<path fill="none" stroke="#191970" d="M926.2022,-395.5288C969.5995,-386.1816 1047.531,-369.3964 1100.0178,-358.0915"/>
<polygon fill="#191970" stroke="#191970" points="1100.794,-361.5047 1109.8329,-355.9775 1099.3201,-354.6616 1100.794,-361.5047"/>
</g>
<!-- Node53 -->
<g id="node39" class="node">
<title>Node53</title>
<g id="a_node39"><a xlink:href="../../d2/d22/shader_2shader_8h.xhtml" target="_top" xlink:title="shader/shader.h">
<polygon fill="#ffffff" stroke="#000000" points="1004.0603,-336.9516 1004.0603,-355.9516 1090.0603,-355.9516 1090.0603,-336.9516 1004.0603,-336.9516"/>
<text text-anchor="middle" x="1047.0603" y="-343.9516" font-family="Helvetica,sans-Serif" font-size="10.00" fill="#000000">shader/shader.h</text>
</a>
</g>
</g>
<!-- Node4&#45;&gt;Node53 -->
<g id="edge55" class="edge">
<title>Node4&#45;&gt;Node53</title>
<path fill="none" stroke="#191970" d="M920.3619,-392.8249C945.4731,-383.6339 983.5041,-369.714 1011.3475,-359.523"/>
<polygon fill="#191970" stroke="#191970" points="1012.9141,-362.6767 1021.1019,-355.9528 1010.5081,-356.1032 1012.9141,-362.6767"/>
</g>
<!-- Node55 -->
<g id="node41" class="node">
<title>Node55</title>
<g id="a_node41"><a xlink:href="../../d1/d11/util_2path_8h.xhtml" target="_top" xlink:title="util/path.h">
<polygon fill="#ffffff" stroke="#000000" points="980.5603,-280.9516 980.5603,-299.9516 1039.5603,-299.9516 1039.5603,-280.9516 980.5603,-280.9516"/>
<text text-anchor="middle" x="1010.0603" y="-287.9516" font-family="Helvetica,sans-Serif" font-size="10.00" fill="#000000">util/path.h</text>
</a>
</g>
</g>
<!-- Node4&#45;&gt;Node55 -->
<g id="edge58" class="edge">
<title>Node4&#45;&gt;Node55</title>
<path fill="none" stroke="#191970" d="M907.5146,-392.8581C919.6414,-383.9654 937.7167,-370.0892 952.0603,-356.4516 968.0208,-341.2767 984.4262,-322.2263 995.6984,-308.4982"/>
<polygon fill="#191970" stroke="#191970" points="998.7327,-310.3129 1002.3083,-300.3396 993.2937,-305.9063 998.7327,-310.3129"/>
</g>
<!-- Node9 -->
<g id="node10" class="node">
<title>Node9</title>
<polygon fill="#ffffff" stroke="#bfbfbf" points="737.5603,-280.9516 737.5603,-299.9516 820.5603,-299.9516 820.5603,-280.9516 737.5603,-280.9516"/>
<text text-anchor="middle" x="779.0603" y="-287.9516" font-family="Helvetica,sans-Serif" font-size="10.00" fill="#000000">coord_xy.gen.h</text>
</g>
<!-- Node8&#45;&gt;Node9 -->
<g id="edge11" class="edge">
<title>Node8&#45;&gt;Node9</title>
<path fill="none" stroke="#191970" d="M743.5503,-336.6972C749.5929,-328.8278 758.2506,-317.5526 765.5044,-308.1058"/>
<polygon fill="#191970" stroke="#191970" points="768.3418,-310.1574 771.6561,-300.0943 762.7898,-305.8942 768.3418,-310.1574"/>
</g>
<!-- Node10 -->
<g id="node11" class="node">
<title>Node10</title>
<g id="a_node11"><a xlink:href="../../db/d40/declarations_8h.xhtml" target="_top" xlink:title="declarations.h">
<polygon fill="#ffffff" stroke="#000000" points="598.5603,-280.9516 598.5603,-299.9516 675.5603,-299.9516 675.5603,-280.9516 598.5603,-280.9516"/>
<text text-anchor="middle" x="637.0603" y="-287.9516" font-family="Helvetica,sans-Serif" font-size="10.00" fill="#000000">declarations.h</text>
</a>
</g>
</g>
<!-- Node8&#45;&gt;Node10 -->
<g id="edge12" class="edge">
<title>Node8&#45;&gt;Node10</title>
<path fill="none" stroke="#191970" d="M718.8158,-336.6972C703.4842,-328.0248 680.8404,-315.2161 663.2687,-305.2766"/>
<polygon fill="#191970" stroke="#191970" points="664.5344,-301.9714 654.1072,-300.0943 661.0879,-308.0642 664.5344,-301.9714"/>
</g>
<!-- Node11 -->
<g id="node12" class="node">
<title>Node11</title>
<polygon fill="#ffffff" stroke="#bfbfbf" points="632.0603,-.9516 632.0603,-19.9516 678.0603,-19.9516 678.0603,-.9516 632.0603,-.9516"/>
<text text-anchor="middle" x="655.0603" y="-7.9516" font-family="Helvetica,sans-Serif" font-size="10.00" fill="#000000">cstdint</text>
</g>
<!-- Node10&#45;&gt;Node11 -->
<g id="edge13" class="edge">
<title>Node10&#45;&gt;Node11</title>
<path fill="none" stroke="#191970" d="M617.2308,-280.9273C568.0832,-257.23 444.2187,-196.9117 439.0603,-188.4516 434.4327,-180.8623 438.1616,-177.295 439.0603,-168.4516 444.1977,-117.8954 426.6968,-92.9447 462.0603,-56.4516 483.89,-33.9247 572.3514,-20.1675 621.582,-14.1042"/>
<polygon fill="#191970" stroke="#191970" points="622.2279,-17.5521 631.7435,-12.8933 621.3995,-10.6013 622.2279,-17.5521"/>
</g>
<!-- Node12 -->
<g id="node13" class="node">
<title>Node12</title>
<g id="a_node13"><a xlink:href="../../de/d62/fixed__point_8h.xhtml" target="_top" xlink:title="../util/fixed_point.h">
<polygon fill="#ffffff" stroke="#000000" points="583.5603,-224.9516 583.5603,-243.9516 680.5603,-243.9516 680.5603,-224.9516 583.5603,-224.9516"/>
<text text-anchor="middle" x="632.0603" y="-231.9516" font-family="Helvetica,sans-Serif" font-size="10.00" fill="#000000">../util/fixed_point.h</text>
</a>
</g>
</g>
<!-- Node10&#45;&gt;Node12 -->
<g id="edge14" class="edge">
<title>Node10&#45;&gt;Node12</title>
<path fill="none" stroke="#191970" d="M636.1893,-280.6972C635.5369,-273.3899 634.6223,-263.146 633.8196,-254.1562"/>
<polygon fill="#191970" stroke="#191970" points="637.2968,-253.7434 632.9212,-244.0943 630.3245,-254.366 637.2968,-253.7434"/>
</g>
<!-- Node12&#45;&gt;Node1 -->
<g id="edge17" class="edge">
<title>Node12&#45;&gt;Node1</title>
<path fill="none" stroke="#191970" d="M583.1223,-226.4701C534.1514,-217.8374 462.7795,-203.3066 439.0603,-188.4516 420.3276,-176.7197 405.0784,-156.2243 395.6207,-141.1772"/>
<polygon fill="#191970" stroke="#191970" points="398.4012,-139.0073 390.2637,-132.2227 392.3941,-142.6011 398.4012,-139.0073"/>
</g>
<!-- Node13 -->
<g id="node14" class="node">
<title>Node13</title>
<polygon fill="#ffffff" stroke="#bfbfbf" points="546.0603,-112.9516 546.0603,-131.9516 602.0603,-131.9516 602.0603,-112.9516 546.0603,-112.9516"/>
<text text-anchor="middle" x="574.0603" y="-119.9516" font-family="Helvetica,sans-Serif" font-size="10.00" fill="#000000">algorithm</text>
</g>
<!-- Node12&#45;&gt;Node13 -->
<g id="edge15" class="edge">
<title>Node12&#45;&gt;Node13</title>
<path fill="none" stroke="#191970" d="M680.689,-225.6353C718.7564,-217.6279 767.1836,-204.6128 779.0603,-188.4516 784.3241,-181.2889 784.6268,-175.3817 779.0603,-168.4516 732.5998,-110.6103 688.3713,-149.0442 616.0603,-132.4516 614.8275,-132.1687 613.5747,-131.8797 612.3099,-131.5865"/>
<polygon fill="#191970" stroke="#191970" points="613.0466,-128.1644 602.512,-129.2924 611.4507,-134.9801 613.0466,-128.1644"/>
</g>
<!-- Node14 -->
<g id="node15" class="node">
<title>Node14</title>
<polygon fill="#ffffff" stroke="#bfbfbf" points="448.5603,-168.9516 448.5603,-187.9516 493.5603,-187.9516 493.5603,-168.9516 448.5603,-168.9516"/>
<text text-anchor="middle" x="471.0603" y="-175.9516" font-family="Helvetica,sans-Serif" font-size="10.00" fill="#000000">climits</text>
</g>
<!-- Node12&#45;&gt;Node14 -->
<g id="edge16" class="edge">
<title>Node12&#45;&gt;Node14</title>
<path fill="none" stroke="#191970" d="M604.3834,-224.8249C576.2735,-215.0475 532.7782,-199.9187 503.1701,-189.6203"/>
<polygon fill="#191970" stroke="#191970" points="504.2986,-186.3072 493.7038,-186.3276 501.9989,-192.9186 504.2986,-186.3072"/>
</g>
<!-- Node15 -->
<g id="node16" class="node">
<title>Node15</title>
<polygon fill="#ffffff" stroke="#bfbfbf" points="512.0603,-168.9516 512.0603,-187.9516 562.0603,-187.9516 562.0603,-168.9516 512.0603,-168.9516"/>
<text text-anchor="middle" x="537.0603" y="-175.9516" font-family="Helvetica,sans-Serif" font-size="10.00" fill="#000000">iomanip</text>
</g>
<!-- Node12&#45;&gt;Node15 -->
<g id="edge18" class="edge">
<title>Node12&#45;&gt;Node15</title>
<path fill="none" stroke="#191970" d="M615.5125,-224.6972C600.8004,-216.0248 579.0715,-203.2161 562.2098,-193.2766"/>
<polygon fill="#191970" stroke="#191970" points="563.8104,-190.1573 553.4184,-188.0943 560.2557,-196.1876 563.8104,-190.1573"/>
</g>
<!-- Node16 -->
<g id="node17" class="node">
<title>Node16</title>
<polygon fill="#ffffff" stroke="#bfbfbf" points="580.0603,-168.9516 580.0603,-187.9516 620.0603,-187.9516 620.0603,-168.9516 580.0603,-168.9516"/>
<text text-anchor="middle" x="600.0603" y="-175.9516" font-family="Helvetica,sans-Serif" font-size="10.00" fill="#000000">limits</text>
</g>
<!-- Node12&#45;&gt;Node16 -->
<g id="edge19" class="edge">
<title>Node12&#45;&gt;Node16</title>
<path fill="none" stroke="#191970" d="M626.4863,-224.6972C622.1272,-217.0687 615.9392,-206.2398 610.647,-196.9784"/>
<polygon fill="#191970" stroke="#191970" points="613.5707,-195.0402 605.5704,-188.0943 607.493,-198.5133 613.5707,-195.0402"/>
</g>
<!-- Node17 -->
<g id="node18" class="node">
<title>Node17</title>
<polygon fill="#ffffff" stroke="#bfbfbf" points="638.0603,-168.9516 638.0603,-187.9516 690.0603,-187.9516 690.0603,-168.9516 638.0603,-168.9516"/>
<text text-anchor="middle" x="664.0603" y="-175.9516" font-family="Helvetica,sans-Serif" font-size="10.00" fill="#000000">ostream</text>
</g>
<!-- Node12&#45;&gt;Node17 -->
<g id="edge20" class="edge">
<title>Node12&#45;&gt;Node17</title>
<path fill="none" stroke="#191970" d="M637.6343,-224.6972C641.9934,-217.0687 648.1813,-206.2398 653.4736,-196.9784"/>
<polygon fill="#191970" stroke="#191970" points="656.6276,-198.5133 658.5502,-188.0943 650.5499,-195.0402 656.6276,-198.5133"/>
</g>
<!-- Node18 -->
<g id="node19" class="node">
<title>Node18</title>
<polygon fill="#ffffff" stroke="#bfbfbf" points="708.0603,-168.9516 708.0603,-187.9516 770.0603,-187.9516 770.0603,-168.9516 708.0603,-168.9516"/>
<text text-anchor="middle" x="739.0603" y="-175.9516" font-family="Helvetica,sans-Serif" font-size="10.00" fill="#000000">type_traits</text>
</g>
<!-- Node12&#45;&gt;Node18 -->
<g id="edge21" class="edge">
<title>Node12&#45;&gt;Node18</title>
<path fill="none" stroke="#191970" d="M650.6983,-224.6972C667.4989,-215.9043 692.4237,-202.8596 711.5221,-192.8641"/>
<polygon fill="#191970" stroke="#191970" points="713.3989,-195.8323 720.6359,-188.0943 710.153,-189.6304 713.3989,-195.8323"/>
</g>
<!-- Node19 -->
<g id="node20" class="node">
<title>Node19</title>
<g id="a_node20"><a xlink:href="../../d4/d08/misc_8h.xhtml" target="_top" xlink:title="misc.h">
<polygon fill="#ffffff" stroke="#000000" points="864.0603,-168.9516 864.0603,-187.9516 910.0603,-187.9516 910.0603,-168.9516 864.0603,-168.9516"/>
<text text-anchor="middle" x="887.0603" y="-175.9516" font-family="Helvetica,sans-Serif" font-size="10.00" fill="#000000">misc.h</text>
</a>
</g>
</g>
<!-- Node12&#45;&gt;Node19 -->
<g id="edge22" class="edge">
<title>Node12&#45;&gt;Node19</title>
<path fill="none" stroke="#191970" d="M680.7225,-224.9953C725.018,-216.195 792.1428,-202.3773 850.0603,-188.4516 851.334,-188.1454 852.6306,-187.8271 853.9391,-187.5004"/>
<polygon fill="#191970" stroke="#191970" points="855.214,-190.7859 864.0188,-184.893 853.4609,-184.009 855.214,-190.7859"/>
</g>
<!-- Node19&#45;&gt;Node1 -->
<g id="edge25" class="edge">
<title>Node19&#45;&gt;Node1</title>
<path fill="none" stroke="#191970" d="M863.8546,-175.8629C782.6228,-166.8012 510.9333,-136.4932 417.1882,-126.0356"/>
<polygon fill="#191970" stroke="#191970" points="417.4899,-122.5477 407.1635,-124.9173 416.7138,-129.5045 417.4899,-122.5477"/>
</g>
<!-- Node19&#45;&gt;Node3 -->
<g id="edge29" class="edge">
<title>Node19&#45;&gt;Node3</title>
<path fill="none" stroke="#191970" d="M863.8295,-176.2478C820.5556,-171.647 725.0995,-159.153 649.0603,-132.4516 631.053,-126.1283 628.3761,-120.4771 611.0603,-112.4516 585.0844,-100.4125 555.0284,-88.3594 532.3012,-79.613"/>
<polygon fill="#191970" stroke="#191970" points="533.3207,-76.2558 522.73,-75.958 530.8234,-82.7952 533.3207,-76.2558"/>
</g>
<!-- Node19&#45;&gt;Node6 -->
<g id="edge28" class="edge">
<title>Node19&#45;&gt;Node6</title>
<path fill="none" stroke="#191970" d="M909.58,-168.8249C930.7975,-159.7548 962.7879,-146.0795 986.5371,-135.9272"/>
<polygon fill="#191970" stroke="#191970" points="988.0151,-139.1018 995.8344,-131.9528 985.2636,-132.6653 988.0151,-139.1018"/>
</g>
<!-- Node19&#45;&gt;Node13 -->
<g id="edge23" class="edge">
<title>Node19&#45;&gt;Node13</title>
<path fill="none" stroke="#191970" d="M863.6677,-171.7075C859.173,-170.5316 854.4872,-169.3874 850.0603,-168.4516 747.1114,-146.691 719.3262,-152.6542 616.0603,-132.4516 614.8189,-132.2088 613.5588,-131.9545 612.2876,-131.6913"/>
<polygon fill="#191970" stroke="#191970" points="612.9756,-128.2591 602.4588,-129.5427 611.4806,-135.0977 612.9756,-128.2591"/>
</g>
<!-- Node20 -->
<g id="node21" class="node">
<title>Node20</title>
<polygon fill="#ffffff" stroke="#bfbfbf" points="658.0603,-112.9516 658.0603,-131.9516 706.0603,-131.9516 706.0603,-112.9516 658.0603,-112.9516"/>
<text text-anchor="middle" x="682.0603" y="-119.9516" font-family="Helvetica,sans-Serif" font-size="10.00" fill="#000000">limits.h</text>
</g>
<!-- Node19&#45;&gt;Node20 -->
<g id="edge24" class="edge">
<title>Node19&#45;&gt;Node20</title>
<path fill="none" stroke="#191970" d="M863.9709,-172.1984C859.3637,-170.9543 854.5588,-169.6594 850.0603,-168.4516 793.0156,-153.137 776.3838,-149.7723 715.8622,-132.6181"/>
<polygon fill="#191970" stroke="#191970" points="716.7594,-129.2345 706.1833,-129.8638 714.8434,-135.9672 716.7594,-129.2345"/>
</g>
<!-- Node21 -->
<g id="node22" class="node">
<title>Node21</title>
<polygon fill="#ffffff" stroke="#bfbfbf" points="724.0603,-112.9516 724.0603,-131.9516 770.0603,-131.9516 770.0603,-112.9516 724.0603,-112.9516"/>
<text text-anchor="middle" x="747.0603" y="-119.9516" font-family="Helvetica,sans-Serif" font-size="10.00" fill="#000000">cstring</text>
</g>
<!-- Node19&#45;&gt;Node21 -->
<g id="edge26" class="edge">
<title>Node19&#45;&gt;Node21</title>
<path fill="none" stroke="#191970" d="M863.9421,-169.2044C840.9409,-160.0039 805.441,-145.8039 779.5982,-135.4668"/>
<polygon fill="#191970" stroke="#191970" points="780.7974,-132.1769 770.2128,-131.7126 778.1977,-138.6763 780.7974,-132.1769"/>
</g>
<!-- Node22 -->
<g id="node23" class="node">
<title>Node22</title>
<polygon fill="#ffffff" stroke="#bfbfbf" points="1102.5603,-.9516 1102.5603,-19.9516 1143.5603,-19.9516 1143.5603,-.9516 1102.5603,-.9516"/>
<text text-anchor="middle" x="1123.0603" y="-7.9516" font-family="Helvetica,sans-Serif" font-size="10.00" fill="#000000">string</text>
</g>
<!-- Node19&#45;&gt;Node22 -->
<g id="edge27" class="edge">
<title>Node19&#45;&gt;Node22</title>
<path fill="none" stroke="#191970" d="M900.8269,-168.9028C923.9637,-152.9338 969.8068,-121.6524 987.0603,-112.4516 1023.6224,-92.9542 1040.3123,-101.8388 1073.0603,-76.4516 1089.8356,-63.4469 1103.8934,-43.4872 1112.7878,-28.922"/>
<polygon fill="#191970" stroke="#191970" points="1115.8291,-30.6545 1117.8636,-20.2568 1109.7891,-27.1164 1115.8291,-30.6545"/>
</g>
<!-- Node23 -->
<g id="node24" class="node">
<title>Node23</title>
<g id="a_node24"><a xlink:href="../../d7/dce/error_2error_8h.xhtml" target="_top" xlink:title="../error/error.h">
<polygon fill="#ffffff" stroke="#000000" points="826.0603,-112.9516 826.0603,-131.9516 902.0603,-131.9516 902.0603,-112.9516 826.0603,-112.9516"/>
<text text-anchor="middle" x="864.0603" y="-119.9516" font-family="Helvetica,sans-Serif" font-size="10.00" fill="#000000">../error/error.h</text>
</a>
</g>
</g>
<!-- Node19&#45;&gt;Node23 -->
<g id="edge30" class="edge">
<title>Node19&#45;&gt;Node23</title>
<path fill="none" stroke="#191970" d="M883.054,-168.6972C879.9868,-161.2293 875.66,-150.6943 871.9106,-141.5653"/>
<polygon fill="#191970" stroke="#191970" points="875.0575,-140.0148 868.0207,-132.0943 868.5823,-142.6742 875.0575,-140.0148"/>
</g>
<!-- Node26 -->
<g id="node27" class="node">
<title>Node26</title>
<g id="a_node27"><a xlink:href="../../d4/dd1/compiler_8h.xhtml" target="_top" xlink:title="../util/compiler.h">
<polygon fill="#ffffff" stroke="#000000" points="978.0603,-56.9516 978.0603,-75.9516 1064.0603,-75.9516 1064.0603,-56.9516 978.0603,-56.9516"/>
<text text-anchor="middle" x="1021.0603" y="-63.9516" font-family="Helvetica,sans-Serif" font-size="10.00" fill="#000000">../util/compiler.h</text>
</a>
</g>
</g>
<!-- Node19&#45;&gt;Node26 -->
<g id="edge43" class="edge">
<title>Node19&#45;&gt;Node26</title>
<path fill="none" stroke="#191970" d="M896.1055,-168.5015C908.5377,-155.0763 931.8928,-130.7385 954.0603,-112.4516 967.6789,-101.217 983.9908,-89.9755 997.1098,-81.4177"/>
<polygon fill="#191970" stroke="#191970" points="999.0896,-84.3059 1005.6097,-75.9549 995.3049,-78.4171 999.0896,-84.3059"/>
</g>
<!-- Node23&#45;&gt;Node3 -->
<g id="edge32" class="edge">
<title>Node23&#45;&gt;Node3</title>
<path fill="none" stroke="#191970" d="M825.8234,-116.6171C754.751,-105.7723 603.202,-82.6476 533.5063,-72.0129"/>
<polygon fill="#191970" stroke="#191970" points="533.8555,-68.5257 523.4419,-70.4772 532.7995,-75.4456 533.8555,-68.5257"/>
</g>
<!-- Node23&#45;&gt;Node22 -->
<g id="edge34" class="edge">
<title>Node23&#45;&gt;Node22</title>
<path fill="none" stroke="#191970" d="M866.088,-112.6358C869.656,-97.9751 878.5089,-70.5749 897.0603,-56.4516 963.0145,-6.2406 999.0129,-37.8423 1080.0603,-20.4516 1084.0766,-19.5898 1088.2958,-18.6506 1092.457,-17.7041"/>
<polygon fill="#191970" stroke="#191970" points="1093.5771,-21.0376 1102.5326,-15.3765 1092.0013,-14.2173 1093.5771,-21.0376"/>
</g>
<!-- Node24 -->
<g id="node25" class="node">
<title>Node24</title>
<polygon fill="#ffffff" stroke="#bfbfbf" points="906.0603,-56.9516 906.0603,-75.9516 960.0603,-75.9516 960.0603,-56.9516 906.0603,-56.9516"/>
<text text-anchor="middle" x="933.0603" y="-63.9516" font-family="Helvetica,sans-Serif" font-size="10.00" fill="#000000">iostream</text>
</g>
<!-- Node23&#45;&gt;Node24 -->
<g id="edge31" class="edge">
<title>Node23&#45;&gt;Node24</title>
<path fill="none" stroke="#191970" d="M876.0792,-112.6972C886.2701,-104.4263 901.0965,-92.3933 913.071,-82.6749"/>
<polygon fill="#191970" stroke="#191970" points="915.6201,-85.1136 921.1791,-76.0943 911.2089,-79.6784 915.6201,-85.1136"/>
</g>
<!-- Node25 -->
<g id="node26" class="node">
<title>Node25</title>
<polygon fill="#ffffff" stroke="#bfbfbf" points="683.5603,-56.9516 683.5603,-75.9516 742.5603,-75.9516 742.5603,-56.9516 683.5603,-56.9516"/>
<text text-anchor="middle" x="713.0603" y="-63.9516" font-family="Helvetica,sans-Serif" font-size="10.00" fill="#000000">stdexcept</text>
</g>
<!-- Node23&#45;&gt;Node25 -->
<g id="edge33" class="edge">
<title>Node23&#45;&gt;Node25</title>
<path fill="none" stroke="#191970" d="M838.1025,-112.8249C813.3195,-103.6339 775.7857,-89.714 748.3062,-79.523"/>
<polygon fill="#191970" stroke="#191970" points="749.2724,-76.1484 738.6794,-75.9528 746.8383,-82.7116 749.2724,-76.1484"/>
</g>
<!-- Node23&#45;&gt;Node26 -->
<g id="edge35" class="edge">
<title>Node23&#45;&gt;Node26</title>
<path fill="none" stroke="#191970" d="M891.0495,-112.8249C916.9302,-103.5936 956.1851,-89.5918 984.7892,-79.3891"/>
<polygon fill="#191970" stroke="#191970" points="986.1803,-82.609 994.4232,-75.9528 983.8286,-76.0158 986.1803,-82.609"/>
</g>
<!-- Node29 -->
<g id="node30" class="node">
<title>Node29</title>
<g id="a_node30"><a xlink:href="../../d2/d0d/message_8h.xhtml" target="_top" xlink:title="../log/message.h">
<polygon fill="#ffffff" stroke="#ff0000" points="760.5603,-56.9516 760.5603,-75.9516 849.5603,-75.9516 849.5603,-56.9516 760.5603,-56.9516"/>
<text text-anchor="middle" x="805.0603" y="-63.9516" font-family="Helvetica,sans-Serif" font-size="10.00" fill="#000000">../log/message.h</text>
</a>
</g>
</g>
<!-- Node23&#45;&gt;Node29 -->
<g id="edge40" class="edge">
<title>Node23&#45;&gt;Node29</title>
<path fill="none" stroke="#191970" d="M853.7833,-112.6972C845.2385,-104.5869 832.8825,-92.8591 822.7518,-83.2435"/>
<polygon fill="#191970" stroke="#191970" points="824.8821,-80.44 815.2195,-76.0943 820.0631,-85.5172 824.8821,-80.44"/>
</g>
<!-- Node26&#45;&gt;Node22 -->
<g id="edge37" class="edge">
<title>Node26&#45;&gt;Node22</title>
<path fill="none" stroke="#191970" d="M1038.8273,-56.6972C1054.7698,-47.9445 1078.3862,-34.9786 1096.5592,-25.0013"/>
<polygon fill="#191970" stroke="#191970" points="1098.4155,-27.975 1105.4968,-20.0943 1095.0466,-21.8389 1098.4155,-27.975"/>
</g>
<!-- Node27 -->
<g id="node28" class="node">
<title>Node27</title>
<polygon fill="#ffffff" stroke="#bfbfbf" points="935.0603,-.9516 935.0603,-19.9516 985.0603,-19.9516 985.0603,-.9516 935.0603,-.9516"/>
<text text-anchor="middle" x="960.0603" y="-7.9516" font-family="Helvetica,sans-Serif" font-size="10.00" fill="#000000">ciso646</text>
</g>
<!-- Node26&#45;&gt;Node27 -->
<g id="edge36" class="edge">
<title>Node26&#45;&gt;Node27</title>
<path fill="none" stroke="#191970" d="M1010.4349,-56.6972C1001.513,-48.5066 988.5723,-36.6266 978.041,-26.9586"/>
<polygon fill="#191970" stroke="#191970" points="980.2974,-24.2788 970.5639,-20.0943 975.5635,-29.4353 980.2974,-24.2788"/>
</g>
<!-- Node28 -->
<g id="node29" class="node">
<title>Node28</title>
<g id="a_node29"><a xlink:href="../../d8/d39/signal_8h.xhtml" target="_top" xlink:title="signal.h">
<polygon fill="#ffffff" stroke="#000000" points="1003.0603,-.9516 1003.0603,-19.9516 1053.0603,-19.9516 1053.0603,-.9516 1003.0603,-.9516"/>
<text text-anchor="middle" x="1028.0603" y="-7.9516" font-family="Helvetica,sans-Serif" font-size="10.00" fill="#000000">signal.h</text>
</a>
</g>
</g>
<!-- Node26&#45;&gt;Node28 -->
<g id="edge38" class="edge">
<title>Node26&#45;&gt;Node28</title>
<path fill="none" stroke="#191970" d="M1022.2796,-56.6972C1023.193,-49.3899 1024.4735,-39.146 1025.5972,-30.1562"/>
<polygon fill="#191970" stroke="#191970" points="1029.0875,-30.4512 1026.8549,-20.0943 1022.1415,-29.5829 1029.0875,-30.4512"/>
</g>
<!-- Node28&#45;&gt;Node28 -->
<g id="edge39" class="edge">
<title>Node28&#45;&gt;Node28</title>
<path fill="none" stroke="#191970" d="M1046.6237,-20.0262C1059.0068,-22.7213 1071.0603,-19.5298 1071.0603,-10.4516 1071.0603,-3.9267 1064.8334,-.4429 1056.7329,0"/>
<polygon fill="#191970" stroke="#191970" points="1056.2837,3.4743 1046.6237,-.877 1056.8888,-3.4995 1056.2837,3.4743"/>
</g>
<!-- Node29&#45;&gt;Node11 -->
<g id="edge41" class="edge">
<title>Node29&#45;&gt;Node11</title>
<path fill="none" stroke="#191970" d="M779.2744,-56.8249C754.0588,-47.4111 715.5551,-33.0363 688.1055,-22.7885"/>
<polygon fill="#191970" stroke="#191970" points="689.1303,-19.4352 678.5377,-19.2165 686.682,-25.9931 689.1303,-19.4352"/>
</g>
<!-- Node29&#45;&gt;Node22 -->
<g id="edge42" class="edge">
<title>Node29&#45;&gt;Node22</title>
<path fill="none" stroke="#191970" d="M849.8359,-58.8493C854.6372,-58.038 859.4498,-57.2265 864.0603,-56.4516 960.0382,-40.3198 984.6151,-39.4838 1080.0603,-20.4516 1084.0887,-19.6484 1088.3149,-18.7431 1092.4797,-17.8139"/>
<polygon fill="#191970" stroke="#191970" points="1093.5954,-21.1488 1102.5579,-15.4987 1092.0281,-14.3265 1093.5954,-21.1488"/>
</g>
<!-- Node46&#45;&gt;Node10 -->
<g id="edge45" class="edge">
<title>Node46&#45;&gt;Node10</title>
<path fill="none" stroke="#191970" d="M528.58,-336.8249C549.7975,-327.7548 581.7879,-314.0795 605.5371,-303.9272"/>
<polygon fill="#191970" stroke="#191970" points="607.0151,-307.1018 614.8344,-299.9528 604.2636,-300.6653 607.0151,-307.1018"/>
</g>
<!-- Node46&#45;&gt;Node19 -->
<g id="edge48" class="edge">
<title>Node46&#45;&gt;Node19</title>
<path fill="none" stroke="#191970" d="M538.8035,-340.9278C575.2232,-334.1185 635.3448,-320.8773 684.0603,-300.4516 754.674,-270.8445 829.971,-219.7563 865.7736,-194.1046"/>
<polygon fill="#191970" stroke="#191970" points="867.9441,-196.8544 873.9982,-188.1596 863.8434,-191.1812 867.9441,-196.8544"/>
</g>
<!-- Node47 -->
<g id="node32" class="node">
<title>Node47</title>
<polygon fill="#ffffff" stroke="#bfbfbf" points="358.0603,-280.9516 358.0603,-299.9516 452.0603,-299.9516 452.0603,-280.9516 358.0603,-280.9516"/>
<text text-anchor="middle" x="405.0603" y="-287.9516" font-family="Helvetica,sans-Serif" font-size="10.00" fill="#000000">coord_nese.gen.h</text>
</g>
<!-- Node46&#45;&gt;Node47 -->
<g id="edge46" class="edge">
<title>Node46&#45;&gt;Node47</title>
<path fill="none" stroke="#191970" d="M488.4674,-336.6972C472.6813,-327.9445 449.2964,-314.9786 431.3016,-305.0013"/>
<polygon fill="#191970" stroke="#191970" points="432.8944,-301.8824 422.4515,-300.0943 429.5,-308.0044 432.8944,-301.8824"/>
</g>
<!-- Node48 -->
<g id="node33" class="node">
<title>Node48</title>
<polygon fill="#ffffff" stroke="#bfbfbf" points="236.0603,-280.9516 236.0603,-299.9516 340.0603,-299.9516 340.0603,-280.9516 236.0603,-280.9516"/>
<text text-anchor="middle" x="288.0603" y="-287.9516" font-family="Helvetica,sans-Serif" font-size="10.00" fill="#000000">coord_neseup.gen.h</text>
</g>
<!-- Node46&#45;&gt;Node48 -->
<g id="edge47" class="edge">
<title>Node46&#45;&gt;Node48</title>
<path fill="none" stroke="#191970" d="M473.4235,-338.0679C436.7733,-328.6531 376.9755,-313.2922 335.2412,-302.5715"/>
<polygon fill="#191970" stroke="#191970" points="335.8658,-299.1184 325.3094,-300.0202 334.1241,-305.8983 335.8658,-299.1184"/>
</g>
<!-- Node49 -->
<g id="node34" class="node">
<title>Node49</title>
<g id="a_node34"><a xlink:href="../../db/dfb/hash_8h.xhtml" target="_top" xlink:title="../util/hash.h">
<polygon fill="#ffffff" stroke="#000000" points="470.5603,-280.9516 470.5603,-299.9516 541.5603,-299.9516 541.5603,-280.9516 470.5603,-280.9516"/>
<text text-anchor="middle" x="506.0603" y="-287.9516" font-family="Helvetica,sans-Serif" font-size="10.00" fill="#000000">../util/hash.h</text>
</a>
</g>
</g>
<!-- Node46&#45;&gt;Node49 -->
<g id="edge49" class="edge">
<title>Node46&#45;&gt;Node49</title>
<path fill="none" stroke="#191970" d="M506.0603,-336.6972C506.0603,-329.3899 506.0603,-319.146 506.0603,-310.1562"/>
<polygon fill="#191970" stroke="#191970" points="509.5604,-310.0943 506.0603,-300.0943 502.5604,-310.0943 509.5604,-310.0943"/>
</g>
<!-- Node32 -->
<g id="node35" class="node">
<title>Node32</title>
<polygon fill="#ffffff" stroke="#bfbfbf" points="353.5603,-224.9516 353.5603,-243.9516 398.5603,-243.9516 398.5603,-224.9516 353.5603,-224.9516"/>
<text text-anchor="middle" x="376.0603" y="-231.9516" font-family="Helvetica,sans-Serif" font-size="10.00" fill="#000000">cstdlib</text>
</g>
<!-- Node49&#45;&gt;Node32 -->
<g id="edge50" class="edge">
<title>Node49&#45;&gt;Node32</title>
<path fill="none" stroke="#191970" d="M483.7125,-280.8249C462.6569,-271.7548 430.9107,-258.0795 407.3428,-247.9272"/>
<polygon fill="#191970" stroke="#191970" points="408.6853,-244.6946 398.1165,-243.9528 405.9159,-251.1235 408.6853,-244.6946"/>
</g>
<!-- Node50 -->
<g id="node36" class="node">
<title>Node50</title>
<polygon fill="#ffffff" stroke="#bfbfbf" points="417.0603,-224.9516 417.0603,-243.9516 455.0603,-243.9516 455.0603,-224.9516 417.0603,-224.9516"/>
<text text-anchor="middle" x="436.0603" y="-231.9516" font-family="Helvetica,sans-Serif" font-size="10.00" fill="#000000">array</text>
</g>
<!-- Node49&#45;&gt;Node50 -->
<g id="edge51" class="edge">
<title>Node49&#45;&gt;Node50</title>
<path fill="none" stroke="#191970" d="M493.8672,-280.6972C483.4282,-272.346 468.1948,-260.1593 455.9863,-250.3925"/>
<polygon fill="#191970" stroke="#191970" points="458.1088,-247.6082 448.1136,-244.0943 453.7359,-253.0743 458.1088,-247.6082"/>
</g>
<!-- Node51 -->
<g id="node37" class="node">
<title>Node51</title>
<polygon fill="#ffffff" stroke="#bfbfbf" points="276.5603,-224.9516 276.5603,-243.9516 335.5603,-243.9516 335.5603,-224.9516 276.5603,-224.9516"/>
<text text-anchor="middle" x="306.0603" y="-231.9516" font-family="Helvetica,sans-Serif" font-size="10.00" fill="#000000">typeindex</text>
</g>
<!-- Node49&#45;&gt;Node51 -->
<g id="edge52" class="edge">
<title>Node49&#45;&gt;Node51</title>
<path fill="none" stroke="#191970" d="M471.6791,-280.8249C436.663,-271.0204 382.4286,-255.8348 345.6426,-245.5347"/>
<polygon fill="#191970" stroke="#191970" points="346.3336,-242.0936 335.7602,-242.7676 344.4461,-248.8344 346.3336,-242.0936"/>
</g>
<!-- Node52&#45;&gt;Node5 -->
<g id="edge54" class="edge">
<title>Node52&#45;&gt;Node5</title>
<path fill="none" stroke="#191970" d="M1158.5891,-336.6972C1162.0937,-329.149 1167.053,-318.4674 1171.3226,-309.2714"/>
<polygon fill="#191970" stroke="#191970" points="1174.5467,-310.6383 1175.5833,-300.0943 1168.1976,-307.6905 1174.5467,-310.6383"/>
</g>
<!-- Node53&#45;&gt;Node5 -->
<g id="edge57" class="edge">
<title>Node53&#45;&gt;Node5</title>
<path fill="none" stroke="#191970" d="M1069.9238,-336.8249C1091.4652,-327.7548 1123.944,-314.0795 1148.0559,-303.9272"/>
<polygon fill="#191970" stroke="#191970" points="1149.637,-307.0591 1157.4951,-299.9528 1146.9205,-300.6077 1149.637,-307.0591"/>
</g>
<!-- Node54 -->
<g id="node40" class="node">
<title>Node54</title>
<polygon fill="#ffffff" stroke="#bfbfbf" points="1057.5603,-280.9516 1057.5603,-299.9516 1130.5603,-299.9516 1130.5603,-280.9516 1057.5603,-280.9516"/>
<text text-anchor="middle" x="1094.0603" y="-287.9516" font-family="Helvetica,sans-Serif" font-size="10.00" fill="#000000">initializer_list</text>
</g>
<!-- Node53&#45;&gt;Node54 -->
<g id="edge56" class="edge">
<title>Node53&#45;&gt;Node54</title>
<path fill="none" stroke="#191970" d="M1055.2471,-336.6972C1061.9191,-328.7475 1071.5082,-317.3222 1079.4856,-307.8172"/>
<polygon fill="#191970" stroke="#191970" points="1082.2195,-310.0041 1085.9673,-300.0943 1076.8577,-305.504 1082.2195,-310.0041"/>
</g>
<!-- Node55&#45;&gt;Node6 -->
<g id="edge60" class="edge">
<title>Node55&#45;&gt;Node6</title>
<path fill="none" stroke="#191970" d="M1039.7071,-282.3765C1077.7339,-271.7273 1139.588,-253.3052 1146.0603,-244.4516 1165.9961,-217.1808 1166.5264,-196.0597 1147.0603,-168.4516 1144.125,-164.2886 1087.3018,-145.0823 1050.06,-132.841"/>
<polygon fill="#191970" stroke="#191970" points="1050.7289,-129.3773 1040.1362,-129.5913 1048.5504,-136.0297 1050.7289,-129.3773"/>
</g>
<!-- Node55&#45;&gt;Node22 -->
<g id="edge59" class="edge">
<title>Node55&#45;&gt;Node22</title>
<path fill="none" stroke="#191970" d="M1039.795,-282.5616C1129.7825,-258.5826 1393.0603,-187.6418 1393.0603,-178.4516 1393.0603,-178.4516 1393.0603,-178.4516 1393.0603,-122.4516 1393.0603,-88.1516 1381.1415,-76.1478 1353.0603,-56.4516 1321.2587,-34.146 1209.1189,-19.5389 1154.0453,-13.5439"/>
<polygon fill="#191970" stroke="#191970" points="1154.1458,-10.035 1143.8322,-12.4601 1153.407,-16.9959 1154.1458,-10.035"/>
</g>
<!-- Node56 -->
<g id="node42" class="node">
<title>Node56</title>
<g id="a_node42"><a xlink:href="../../d2/d4b/pyobject_8h.xhtml" target="_top" xlink:title="../pyinterface/pyobject.h">
<polygon fill="#ffffff" stroke="#000000" points="1016.0603,-168.9516 1016.0603,-187.9516 1138.0603,-187.9516 1138.0603,-168.9516 1016.0603,-168.9516"/>
<text text-anchor="middle" x="1077.0603" y="-175.9516" font-family="Helvetica,sans-Serif" font-size="10.00" fill="#000000">../pyinterface/pyobject.h</text>
</a>
</g>
</g>
<!-- Node55&#45;&gt;Node56 -->
<g id="edge61" class="edge">
<title>Node55&#45;&gt;Node56</title>
<path fill="none" stroke="#191970" d="M1003.7876,-280.8307C995.8712,-267.3584 984.4905,-242.5004 995.0603,-224.4516 1003.7357,-209.6376 1019.1229,-199.2318 1034.2427,-192.1124"/>
<polygon fill="#191970" stroke="#191970" points="1035.7636,-195.2682 1043.5601,-188.0943 1032.9915,-188.8404 1035.7636,-195.2682"/>
</g>
<!-- Node62 -->
<g id="node47" class="node">
<title>Node62</title>
<g id="a_node47"><a xlink:href="../../d2/d4d/file_8h.xhtml" target="_top" xlink:title="file.h">
<polygon fill="#ffffff" stroke="#000000" points="1004.0603,-224.9516 1004.0603,-243.9516 1042.0603,-243.9516 1042.0603,-224.9516 1004.0603,-224.9516"/>
<text text-anchor="middle" x="1023.0603" y="-231.9516" font-family="Helvetica,sans-Serif" font-size="10.00" fill="#000000">file.h</text>
</a>
</g>
</g>
<!-- Node55&#45;&gt;Node62 -->
<g id="edge70" class="edge">
<title>Node55&#45;&gt;Node62</title>
<path fill="none" stroke="#191970" d="M1012.3247,-280.6972C1014.0397,-273.3096 1016.4514,-262.9205 1018.5547,-253.8603"/>
<polygon fill="#191970" stroke="#191970" points="1021.9698,-254.6268 1020.8218,-244.0943 1015.1511,-253.0438 1021.9698,-254.6268"/>
</g>
<!-- Node64 -->
<g id="node49" class="node">
<title>Node64</title>
<g id="a_node49"><a xlink:href="../../d3/d0f/fslike_2native_8h.xhtml" target="_top" xlink:title="fslike/native.h">
<polygon fill="#ffffff" stroke="#000000" points="1060.5603,-224.9516 1060.5603,-243.9516 1137.5603,-243.9516 1137.5603,-224.9516 1060.5603,-224.9516"/>
<text text-anchor="middle" x="1099.0603" y="-231.9516" font-family="Helvetica,sans-Serif" font-size="10.00" fill="#000000">fslike/native.h</text>
</a>
</g>
</g>
<!-- Node55&#45;&gt;Node64 -->
<g id="edge79" class="edge">
<title>Node55&#45;&gt;Node64</title>
<path fill="none" stroke="#191970" d="M1025.5629,-280.6972C1039.2182,-272.1051 1059.326,-259.453 1075.0592,-249.5534"/>
<polygon fill="#191970" stroke="#191970" points="1077.1354,-252.3823 1083.7353,-244.0943 1073.4074,-246.4576 1077.1354,-252.3823"/>
</g>
<!-- Node56&#45;&gt;Node6 -->
<g id="edge64" class="edge">
<title>Node56&#45;&gt;Node6</title>
<path fill="none" stroke="#191970" d="M1066.7833,-168.6972C1058.2385,-160.5869 1045.8825,-148.8591 1035.7518,-139.2435"/>
<polygon fill="#191970" stroke="#191970" points="1037.8821,-136.44 1028.2195,-132.0943 1033.0631,-141.5172 1037.8821,-136.44"/>
</g>
<!-- Node56&#45;&gt;Node11 -->
<g id="edge62" class="edge">
<title>Node56&#45;&gt;Node11</title>
<path fill="none" stroke="#191970" d="M1015.8333,-173.0167C962.2818,-167.0022 882.982,-155.0163 817.0603,-132.4516 799.0036,-126.2709 796.5836,-120.0134 779.0603,-112.4516 733.7644,-92.9052 708.0614,-112.1966 674.0603,-76.4516 662.2727,-64.0594 657.7295,-44.834 656.0132,-30.3231"/>
<polygon fill="#191970" stroke="#191970" points="659.4993,-30.0105 655.1786,-20.3368 652.5237,-30.5936 659.4993,-30.0105"/>
</g>
<!-- Node56&#45;&gt;Node22 -->
<g id="edge63" class="edge">
<title>Node56&#45;&gt;Node22</title>
<path fill="none" stroke="#191970" d="M1086.6514,-168.8198C1094.6701,-160.115 1105.6401,-146.5398 1111.0603,-132.4516 1124.1889,-98.3277 1125.1011,-55.0624 1124.2808,-30.2916"/>
<polygon fill="#191970" stroke="#191970" points="1127.7641,-29.8503 1123.8023,-20.0241 1120.7717,-30.1762 1127.7641,-29.8503"/>
</g>
<!-- Node57 -->
<g id="node43" class="node">
<title>Node57</title>
<g id="a_node43"><a xlink:href="../../d5/d64/defs_8h.xhtml" target="_top" xlink:title="defs.h">
<polygon fill="#ffffff" stroke="#000000" points="1058.0603,-112.9516 1058.0603,-131.9516 1102.0603,-131.9516 1102.0603,-112.9516 1058.0603,-112.9516"/>
<text text-anchor="middle" x="1080.0603" y="-119.9516" font-family="Helvetica,sans-Serif" font-size="10.00" fill="#000000">defs.h</text>
</a>
</g>
</g>
<!-- Node56&#45;&gt;Node57 -->
<g id="edge65" class="edge">
<title>Node56&#45;&gt;Node57</title>
<path fill="none" stroke="#191970" d="M1077.5828,-168.6972C1077.9743,-161.3899 1078.5231,-151.146 1079.0047,-142.1562"/>
<polygon fill="#191970" stroke="#191970" points="1082.5037,-142.2673 1079.5437,-132.0943 1075.5137,-141.8927 1082.5037,-142.2673"/>
</g>
<!-- Node58 -->
<g id="node44" class="node">
<title>Node58</title>
<g id="a_node44"><a xlink:href="../../d8/dea/functional_8h.xhtml" target="_top" xlink:title="functional.h">
<polygon fill="#ffffff" stroke="#ff0000" points="1259.5603,-112.9516 1259.5603,-131.9516 1326.5603,-131.9516 1326.5603,-112.9516 1259.5603,-112.9516"/>
<text text-anchor="middle" x="1293.0603" y="-119.9516" font-family="Helvetica,sans-Serif" font-size="10.00" fill="#000000">functional.h</text>
</a>
</g>
</g>
<!-- Node56&#45;&gt;Node58 -->
<g id="edge66" class="edge">
<title>Node56&#45;&gt;Node58</title>
<path fill="none" stroke="#191970" d="M1114.192,-168.8249C1151.6969,-159.1014 1209.6162,-144.0853 1249.323,-133.7909"/>
<polygon fill="#191970" stroke="#191970" points="1250.4512,-137.1142 1259.2528,-131.2165 1248.6944,-130.3382 1250.4512,-137.1142"/>
</g>
<!-- Node58&#45;&gt;Node26 -->
<g id="edge69" class="edge">
<title>Node58&#45;&gt;Node26</title>
<path fill="none" stroke="#191970" d="M1259.2809,-114.4943C1256.1663,-113.7913 1253.0566,-113.1008 1250.0603,-112.4516 1189.8768,-99.4121 1120.5141,-85.6561 1074.0395,-76.6219"/>
<polygon fill="#191970" stroke="#191970" points="1074.6752,-73.1801 1064.1916,-74.7117 1073.3421,-80.052 1074.6752,-73.1801"/>
</g>
<!-- Node38 -->
<g id="node45" class="node">
<title>Node38</title>
<polygon fill="#ffffff" stroke="#bfbfbf" points="1203.5603,-56.9516 1203.5603,-75.9516 1262.5603,-75.9516 1262.5603,-56.9516 1203.5603,-56.9516"/>
<text text-anchor="middle" x="1233.0603" y="-63.9516" font-family="Helvetica,sans-Serif" font-size="10.00" fill="#000000">functional</text>
</g>
<!-- Node58&#45;&gt;Node38 -->
<g id="edge67" class="edge">
<title>Node58&#45;&gt;Node38</title>
<path fill="none" stroke="#191970" d="M1282.6091,-112.6972C1273.8334,-104.5066 1261.1048,-92.6266 1250.7463,-82.9586"/>
<polygon fill="#191970" stroke="#191970" points="1253.0904,-80.3588 1243.3917,-76.0943 1248.3142,-85.4762 1253.0904,-80.3588"/>
</g>
<!-- Node42 -->
<g id="node46" class="node">
<title>Node42</title>
<polygon fill="#ffffff" stroke="#bfbfbf" points="1281.0603,-56.9516 1281.0603,-75.9516 1325.0603,-75.9516 1325.0603,-56.9516 1281.0603,-56.9516"/>
<text text-anchor="middle" x="1303.0603" y="-63.9516" font-family="Helvetica,sans-Serif" font-size="10.00" fill="#000000">mutex</text>
</g>
<!-- Node58&#45;&gt;Node42 -->
<g id="edge68" class="edge">
<title>Node58&#45;&gt;Node42</title>
<path fill="none" stroke="#191970" d="M1294.8021,-112.6972C1296.107,-105.3899 1297.9363,-95.146 1299.5416,-86.1562"/>
<polygon fill="#191970" stroke="#191970" points="1303.0259,-86.5539 1301.3384,-76.0943 1296.1349,-85.3233 1303.0259,-86.5539"/>
</g>
<!-- Node62&#45;&gt;Node3 -->
<g id="edge71" class="edge">
<title>Node62&#45;&gt;Node3</title>
<path fill="none" stroke="#191970" d="M1003.7478,-229.1618C948.0516,-213.9149 790.3632,-170.8126 779.0603,-168.4516 672.6185,-146.2176 627.6089,-192.6608 537.0603,-132.4516 520.5617,-121.4811 509.777,-101.1627 503.61,-85.9563"/>
<polygon fill="#191970" stroke="#191970" points="506.8309,-84.576 500.0648,-76.4231 500.2699,-87.016 506.8309,-84.576"/>
</g>
<!-- Node62&#45;&gt;Node6 -->
<g id="edge73" class="edge">
<title>Node62&#45;&gt;Node6</title>
<path fill="none" stroke="#191970" d="M1018.6493,-224.8319C1014.7184,-215.6942 1009.2577,-201.4578 1007.0603,-188.4516 1004.4297,-172.8813 1007.6945,-155.237 1011.3354,-142.1116"/>
<polygon fill="#191970" stroke="#191970" points="1014.7606,-142.8812 1014.3611,-132.2939 1008.0711,-140.8195 1014.7606,-142.8812"/>
</g>
<!-- Node62&#45;&gt;Node22 -->
<g id="edge72" class="edge">
<title>Node62&#45;&gt;Node22</title>
<path fill="none" stroke="#191970" d="M1042.2931,-227.4292C1045.2214,-226.4046 1048.2148,-225.3823 1051.0603,-224.4516 1177.5684,-183.0747 1258.6283,-240.7135 1336.0603,-132.4516 1344.9326,-120.0467 1355.9348,-82.6379 1334.0603,-56.4516 1311.2923,-29.1957 1206.6687,-17.0885 1153.81,-12.6356"/>
<polygon fill="#191970" stroke="#191970" points="1153.9137,-9.1328 1143.6658,-11.8218 1153.3539,-16.1104 1153.9137,-9.1328"/>
</g>
<!-- Node62&#45;&gt;Node56 -->
<g id="edge78" class="edge">
<title>Node62&#45;&gt;Node56</title>
<path fill="none" stroke="#191970" d="M1032.4664,-224.6972C1040.2096,-216.6672 1051.3723,-205.091 1060.5921,-195.5298"/>
<polygon fill="#191970" stroke="#191970" points="1063.3401,-197.7223 1067.762,-188.0943 1058.3011,-192.8633 1063.3401,-197.7223"/>
</g>
<!-- Node63 -->
<g id="node48" class="node">
<title>Node63</title>
<g id="a_node48"><a xlink:href="../../d7/db5/filelike_8h.xhtml" target="_top" xlink:title="filelike/filelike.h">
<polygon fill="#ffffff" stroke="#000000" points="1158.5603,-112.9516 1158.5603,-131.9516 1241.5603,-131.9516 1241.5603,-112.9516 1158.5603,-112.9516"/>
<text text-anchor="middle" x="1200.0603" y="-119.9516" font-family="Helvetica,sans-Serif" font-size="10.00" fill="#000000">filelike/filelike.h</text>
</a>
</g>
</g>
<!-- Node62&#45;&gt;Node63 -->
<g id="edge74" class="edge">
<title>Node62&#45;&gt;Node63</title>
<path fill="none" stroke="#191970" d="M1042.2839,-227.4689C1076.5498,-215.002 1144.8312,-190.059 1147.0603,-188.4516 1164.6608,-175.7606 1179.5899,-155.7528 1189.074,-141.0905"/>
<polygon fill="#191970" stroke="#191970" points="1192.1941,-142.7003 1194.4934,-132.3579 1186.2464,-139.0091 1192.1941,-142.7003"/>
</g>
<!-- Node63&#45;&gt;Node22 -->
<g id="edge76" class="edge">
<title>Node63&#45;&gt;Node22</title>
<path fill="none" stroke="#191970" d="M1193.4953,-112.9026C1180.6526,-94.2223 1152.0204,-52.5754 1135.4876,-28.5278"/>
<polygon fill="#191970" stroke="#191970" points="1138.1581,-26.2341 1129.6086,-19.9765 1132.3898,-30.1998 1138.1581,-26.2341"/>
</g>
<!-- Node63&#45;&gt;Node24 -->
<g id="edge75" class="edge">
<title>Node63&#45;&gt;Node24</title>
<path fill="none" stroke="#191970" d="M1158.5478,-115.1471C1114.2365,-107.137 1041.7741,-93.4295 970.2188,-76.5991"/>
<polygon fill="#191970" stroke="#191970" points="970.6692,-73.1088 960.1311,-74.2038 969.052,-79.9194 970.6692,-73.1088"/>
</g>
<!-- Node63&#45;&gt;Node26 -->
<g id="edge77" class="edge">
<title>Node63&#45;&gt;Node26</title>
<path fill="none" stroke="#191970" d="M1169.2891,-112.8249C1139.3953,-103.4726 1093.851,-89.2242 1061.1386,-78.9901"/>
<polygon fill="#191970" stroke="#191970" points="1062.0188,-75.5983 1051.4299,-75.9528 1059.9287,-82.279 1062.0188,-75.5983"/>
</g>
<!-- Node65&#45;&gt;Node3 -->
<g id="edge81" class="edge">
<title>Node65&#45;&gt;Node3</title>
<path fill="none" stroke="#191970" d="M136.3439,-392.8697C134.9614,-373.5234 132.0603,-328.4061 132.0603,-290.4516 132.0603,-290.4516 132.0603,-290.4516 132.0603,-178.4516 132.0603,-110.1595 368.5403,-79.2425 460.807,-69.7788"/>
<polygon fill="#191970" stroke="#191970" points="461.2079,-73.2563 470.8104,-68.7793 460.5119,-66.291 461.2079,-73.2563"/>
</g>
<!-- Node65&#45;&gt;Node46 -->
<g id="edge82" class="edge">
<title>Node65&#45;&gt;Node46</title>
<path fill="none" stroke="#191970" d="M180.1114,-395.9181C251.3238,-385.1108 392.7979,-363.6405 463.6117,-352.8937"/>
<polygon fill="#191970" stroke="#191970" points="464.1686,-356.3493 473.5302,-351.3885 463.1182,-349.4286 464.1686,-356.3493"/>
</g>
</g>
</svg>
