<?xml version="1.0" encoding="UTF-8" standalone="no"?>
<!DOCTYPE svg PUBLIC "-//W3C//DTD SVG 1.1//EN"
 "http://www.w3.org/Graphics/SVG/1.1/DTD/svg11.dtd">
<!-- Generated by graphviz version 2.40.1 (20161225.0304)
 -->
<!-- Title: openage.codegen.cpp_testlist.generate_testlist Pages: 1 -->
<svg width="619pt" height="78pt"
 viewBox="0.00 0.00 619.00 77.50" xmlns="http://www.w3.org/2000/svg" xmlns:xlink="http://www.w3.org/1999/xlink">
<g id="graph0" class="graph" transform="scale(1 1) rotate(0) translate(4 73.5)">
<title>openage.codegen.cpp_testlist.generate_testlist</title>
<polygon fill="#ffffff" stroke="transparent" points="-4,4 -4,-73.5 615,-73.5 615,4 -4,4"/>
<!-- Node0 -->
<g id="node1" class="node">
<title>Node0</title>
<polygon fill="#bfbfbf" stroke="#000000" points="0,-22.5 0,-52.5 126,-52.5 126,-22.5 0,-22.5"/>
<text text-anchor="start" x="8" y="-40.5" font-family="Helvetica,sans-Serif" font-size="10.00" fill="#000000">openage.codegen.cpp</text>
<text text-anchor="middle" x="63" y="-29.5" font-family="Helvetica,sans-Serif" font-size="10.00" fill="#000000">_testlist.generate_testlist</text>
</g>
<!-- Node1 -->
<g id="node2" class="node">
<title>Node1</title>
<g id="a_node2"><a xlink:href="../../d4/dd4/namespaceopenage_1_1py.xhtml#a58cbca251b8e2118e0a6b9b0b78a7b32" target="_top" xlink:title="list() ">
<polygon fill="#ffffff" stroke="#000000" points="186,-50 186,-69 275,-69 275,-50 186,-50"/>
<text text-anchor="middle" x="230.5" y="-57" font-family="Helvetica,sans-Serif" font-size="10.00" fill="#000000">openage::py::list</text>
</a>
</g>
</g>
<!-- Node0&#45;&gt;Node1 -->
<g id="edge1" class="edge">
<title>Node0&#45;&gt;Node1</title>
<path fill="none" stroke="#191970" d="M126.3246,-45.8173C142.5877,-47.9533 159.9452,-50.2331 175.7348,-52.307"/>
<polygon fill="#191970" stroke="#191970" points="175.4865,-55.8043 185.8572,-53.6365 176.3981,-48.8639 175.4865,-55.8043"/>
</g>
<!-- Node4 -->
<g id="node5" class="node">
<title>Node4</title>
<g id="a_node5"><a xlink:href="../../d2/d4c/namespaceopenage_1_1testing_1_1list__processor.xhtml#a598be9bf16c59330d7350e0024b2f363" target="_top" xlink:title="Invokes list_targets() with the C++&#45;specific listers. ">
<polygon fill="#ffffff" stroke="#000000" points="162,-.5 162,-30.5 299,-30.5 299,-.5 162,-.5"/>
<text text-anchor="start" x="170" y="-18.5" font-family="Helvetica,sans-Serif" font-size="10.00" fill="#000000">openage.testing.list</text>
<text text-anchor="middle" x="230.5" y="-7.5" font-family="Helvetica,sans-Serif" font-size="10.00" fill="#000000">_processor.list_targets_cpp</text>
</a>
</g>
</g>
<!-- Node0&#45;&gt;Node4 -->
<g id="edge5" class="edge">
<title>Node0&#45;&gt;Node4</title>
<path fill="none" stroke="#191970" d="M126.3246,-29.1827C134.6479,-28.0895 143.258,-26.9587 151.7977,-25.837"/>
<polygon fill="#191970" stroke="#191970" points="152.31,-29.2999 161.769,-24.5274 151.3984,-22.3595 152.31,-29.2999"/>
</g>
<!-- Node2 -->
<g id="node3" class="node">
<title>Node2</title>
<g id="a_node3"><a xlink:href="../../d5/d0e/namespaceopenage_1_1testing_1_1testing.xhtml#ac25bf81db406af62d08113ef7ae9fd6e" target="_top" xlink:title="openage.testing.testing.result">
<polygon fill="#ffffff" stroke="#000000" points="335,-50 335,-69 480,-69 480,-50 335,-50"/>
<text text-anchor="middle" x="407.5" y="-57" font-family="Helvetica,sans-Serif" font-size="10.00" fill="#000000">openage.testing.testing.result</text>
</a>
</g>
</g>
<!-- Node1&#45;&gt;Node2 -->
<g id="edge2" class="edge">
<title>Node1&#45;&gt;Node2</title>
<path fill="none" stroke="#191970" d="M275.1646,-59.5C290.3175,-59.5 307.7642,-59.5 324.9134,-59.5"/>
<polygon fill="#191970" stroke="#191970" points="324.9567,-63.0001 334.9567,-59.5 324.9567,-56.0001 324.9567,-63.0001"/>
</g>
<!-- Node3 -->
<g id="node4" class="node">
<title>Node3</title>
<g id="a_node4"><a xlink:href="../../de/d60/namespaceopenage_1_1util.xhtml#a7bc4421a5f0f57f3a0aba3f96eb8d19c" target="_top" xlink:title="method that behaves similar to python&#39;s &quot;repr&quot;. ">
<polygon fill="#ffffff" stroke="#000000" points="516,-50 516,-69 611,-69 611,-50 516,-50"/>
<text text-anchor="middle" x="563.5" y="-57" font-family="Helvetica,sans-Serif" font-size="10.00" fill="#000000">openage::util::repr</text>
</a>
</g>
</g>
<!-- Node2&#45;&gt;Node3 -->
<g id="edge3" class="edge">
<title>Node2&#45;&gt;Node3</title>
<path fill="none" stroke="#191970" d="M480.0196,-52.7648C488.6179,-52.7182 497.3054,-52.7815 505.6614,-52.9545"/>
<polygon fill="#191970" stroke="#191970" points="505.5718,-56.4533 515.6613,-53.2201 505.7578,-49.4558 505.5718,-56.4533"/>
</g>
<!-- Node3&#45;&gt;Node2 -->
<g id="edge4" class="edge">
<title>Node3&#45;&gt;Node2</title>
<path fill="none" stroke="#191970" d="M515.6613,-65.7799C507.5562,-66.0451 498.9375,-66.1982 490.24,-66.2389"/>
<polygon fill="#191970" stroke="#191970" points="490.021,-62.7389 480.0196,-66.2352 490.0183,-69.7389 490.021,-62.7389"/>
</g>
<!-- Node5 -->
<g id="node6" class="node">
<title>Node5</title>
<g id="a_node6"><a xlink:href="../../d2/d4c/namespaceopenage_1_1testing_1_1list__processor.xhtml#a96f8756c2413d5f3fe509b1532a91967" target="_top" xlink:title="openage.testing.list\l_processor.list_targets">
<polygon fill="#ffffff" stroke="#000000" points="349.5,-.5 349.5,-30.5 465.5,-30.5 465.5,-.5 349.5,-.5"/>
<text text-anchor="start" x="357.5" y="-18.5" font-family="Helvetica,sans-Serif" font-size="10.00" fill="#000000">openage.testing.list</text>
<text text-anchor="middle" x="407.5" y="-7.5" font-family="Helvetica,sans-Serif" font-size="10.00" fill="#000000">_processor.list_targets</text>
</a>
</g>
</g>
<!-- Node4&#45;&gt;Node5 -->
<g id="edge6" class="edge">
<title>Node4&#45;&gt;Node5</title>
<path fill="none" stroke="#191970" d="M299.1862,-15.5C312.2979,-15.5 326.0213,-15.5 339.1234,-15.5"/>
<polygon fill="#191970" stroke="#191970" points="339.4742,-19.0001 349.4742,-15.5 339.4741,-12.0001 339.4742,-19.0001"/>
</g>
</g>
</svg>
