<?xml version="1.0" encoding="UTF-8" standalone="no"?>
<!DOCTYPE svg PUBLIC "-//W3C//DTD SVG 1.1//EN"
 "http://www.w3.org/Graphics/SVG/1.1/DTD/svg11.dtd">
<!-- Generated by graphviz version 2.40.1 (20161225.0304)
 -->
<!-- Title: openage::TypePair Pages: 1 -->
<svg width="813pt" height="1362pt"
 viewBox="0.00 0.00 812.50 1362.00" xmlns="http://www.w3.org/2000/svg" xmlns:xlink="http://www.w3.org/1999/xlink">
<g id="graph0" class="graph" transform="scale(1 1) rotate(0) translate(4 1358)">
<title>openage::TypePair</title>
<polygon fill="#ffffff" stroke="transparent" points="-4,4 -4,-1358 808.5,-1358 808.5,4 -4,4"/>
<!-- Node1 -->
<g id="node1" class="node">
<title>Node1</title>
<polygon fill="#bfbfbf" stroke="#000000" points="186,-.5 186,-57.5 284,-57.5 284,-.5 186,-.5"/>
<text text-anchor="middle" x="235" y="-45.5" font-family="Helvetica,sans-Serif" font-size="10.00" fill="#000000">openage::TypePair</text>
<polyline fill="none" stroke="#000000" points="186,-38.5 284,-38.5 "/>
<text text-anchor="middle" x="235" y="-26.5" font-family="Helvetica,sans-Serif" font-size="10.00" fill="#000000"> </text>
<polyline fill="none" stroke="#000000" points="186,-19.5 284,-19.5 "/>
<text text-anchor="start" x="194" y="-7.5" font-family="Helvetica,sans-Serif" font-size="10.00" fill="#000000">+ TypePair()</text>
</g>
<!-- Node2 -->
<g id="node2" class="node">
<title>Node2</title>
<g id="a_node2"><a xlink:href="../../dd/d39/classopenage_1_1_unit_type.xhtml" target="_top" xlink:title="units in aoc have a class and a type ">
<polygon fill="#ffffff" stroke="#000000" points="185.5,-116.5 185.5,-371.5 284.5,-371.5 284.5,-116.5 185.5,-116.5"/>
<text text-anchor="middle" x="235" y="-359.5" font-family="Helvetica,sans-Serif" font-size="10.00" fill="#000000">openage::UnitType</text>
<polyline fill="none" stroke="#000000" points="185.5,-352.5 284.5,-352.5 "/>
<text text-anchor="start" x="193.5" y="-340.5" font-family="Helvetica,sans-Serif" font-size="10.00" fill="#000000">+ instances</text>
<text text-anchor="start" x="193.5" y="-329.5" font-family="Helvetica,sans-Serif" font-size="10.00" fill="#000000">+ type_abilities</text>
<text text-anchor="start" x="193.5" y="-318.5" font-family="Helvetica,sans-Serif" font-size="10.00" fill="#000000">+ have_limit</text>
<text text-anchor="start" x="193.5" y="-307.5" font-family="Helvetica,sans-Serif" font-size="10.00" fill="#000000">+ had_limit</text>
<text text-anchor="start" x="193.5" y="-296.5" font-family="Helvetica,sans-Serif" font-size="10.00" fill="#000000">+ graphics</text>
<text text-anchor="start" x="193.5" y="-285.5" font-family="Helvetica,sans-Serif" font-size="10.00" fill="#000000">+ icon</text>
<text text-anchor="start" x="193.5" y="-274.5" font-family="Helvetica,sans-Serif" font-size="10.00" fill="#000000">+ unit_class</text>
<text text-anchor="start" x="193.5" y="-263.5" font-family="Helvetica,sans-Serif" font-size="10.00" fill="#000000">&#45; class_id</text>
<text text-anchor="start" x="193.5" y="-252.5" font-family="Helvetica,sans-Serif" font-size="10.00" fill="#000000">&#45; unit_type_id</text>
<polyline fill="none" stroke="#000000" points="185.5,-245.5 284.5,-245.5 "/>
<text text-anchor="start" x="193.5" y="-233.5" font-family="Helvetica,sans-Serif" font-size="10.00" fill="#000000">+ UnitType()</text>
<text text-anchor="start" x="193.5" y="-222.5" font-family="Helvetica,sans-Serif" font-size="10.00" fill="#000000">+ match()</text>
<text text-anchor="start" x="193.5" y="-211.5" font-family="Helvetica,sans-Serif" font-size="10.00" fill="#000000">+ UnitType()</text>
<text text-anchor="start" x="193.5" y="-200.5" font-family="Helvetica,sans-Serif" font-size="10.00" fill="#000000">+ ~UnitType()</text>
<text text-anchor="start" x="193.5" y="-189.5" font-family="Helvetica,sans-Serif" font-size="10.00" fill="#000000">+ id()</text>
<text text-anchor="start" x="193.5" y="-178.5" font-family="Helvetica,sans-Serif" font-size="10.00" fill="#000000">+ parent_id()</text>
<text text-anchor="start" x="193.5" y="-167.5" font-family="Helvetica,sans-Serif" font-size="10.00" fill="#000000">+ name()</text>
<text text-anchor="start" x="193.5" y="-156.5" font-family="Helvetica,sans-Serif" font-size="10.00" fill="#000000">+ initialise()</text>
<text text-anchor="start" x="193.5" y="-145.5" font-family="Helvetica,sans-Serif" font-size="10.00" fill="#000000">+ reinitialise()</text>
<text text-anchor="start" x="193.5" y="-134.5" font-family="Helvetica,sans-Serif" font-size="10.00" fill="#000000">+ place()</text>
<text text-anchor="start" x="193.5" y="-123.5" font-family="Helvetica,sans-Serif" font-size="10.00" fill="#000000">and 7 more...</text>
</a>
</g>
</g>
<!-- Node2&#45;&gt;Node1 -->
<g id="edge1" class="edge">
<title>Node2&#45;&gt;Node1</title>
<path fill="none" stroke="#404040" d="M235,-116.4487C235,-99.729 235,-83.6802 235,-69.9984"/>
<polygon fill="none" stroke="#404040" points="235.0001,-69.6615 231,-63.6615 235,-57.6615 239,-63.6614 235.0001,-69.6615"/>
<text text-anchor="middle" x="241" y="-90" font-family="Helvetica,sans-Serif" font-size="10.00" fill="#000000"> &#45;a</text>
<text text-anchor="middle" x="241" y="-79" font-family="Helvetica,sans-Serif" font-size="10.00" fill="#000000">&#45;b</text>
</g>
<!-- Node3 -->
<g id="node3" class="node">
<title>Node3</title>
<g id="a_node3"><a xlink:href="../../db/db5/structopenage_1_1coord_1_1tile__delta.xhtml" target="_top" xlink:title="{openage::coord::tile\l_delta\n||}">
<polygon fill="#ffffff" stroke="#000000" points="4,-524 4,-592 106,-592 106,-524 4,-524"/>
<text text-anchor="start" x="12" y="-580" font-family="Helvetica,sans-Serif" font-size="10.00" fill="#000000">openage::coord::tile</text>
<text text-anchor="middle" x="55" y="-569" font-family="Helvetica,sans-Serif" font-size="10.00" fill="#000000">_delta</text>
<polyline fill="none" stroke="#000000" points="4,-562 106,-562 "/>
<text text-anchor="middle" x="55" y="-550" font-family="Helvetica,sans-Serif" font-size="10.00" fill="#000000"> </text>
<polyline fill="none" stroke="#000000" points="4,-543 106,-543 "/>
<text text-anchor="middle" x="55" y="-531" font-family="Helvetica,sans-Serif" font-size="10.00" fill="#000000"> </text>
</a>
</g>
</g>
<!-- Node3&#45;&gt;Node2 -->
<g id="edge2" class="edge">
<title>Node3&#45;&gt;Node2</title>
<path fill="none" stroke="#404040" d="M60.3524,-523.7533C66.8921,-488.5198 80.1518,-432.8815 104,-390 123.0346,-355.7739 151.4032,-322.8354 176.8788,-296.9344"/>
<polygon fill="none" stroke="#404040" points="176.9018,-296.9114 178.3182,-289.8407 185.3897,-288.4287 183.9733,-295.4993 176.9018,-296.9114"/>
<text text-anchor="middle" x="143" y="-393" font-family="Helvetica,sans-Serif" font-size="10.00" fill="#000000"> +foundation_size</text>
</g>
<!-- Node4 -->
<g id="node4" class="node">
<title>Node4</title>
<polygon fill="#ffffff" stroke="#bfbfbf" points="0,-838 0,-917 110,-917 110,-838 0,-838"/>
<text text-anchor="start" x="8" y="-905" font-family="Helvetica,sans-Serif" font-size="10.00" fill="#000000">CoordNeSeRelative&lt;</text>
<text text-anchor="start" x="8" y="-894" font-family="Helvetica,sans-Serif" font-size="10.00" fill="#000000"> tile_t, tile, tile</text>
<text text-anchor="middle" x="55" y="-883" font-family="Helvetica,sans-Serif" font-size="10.00" fill="#000000">_delta &gt;</text>
<polyline fill="none" stroke="#bfbfbf" points="0,-876 110,-876 "/>
<text text-anchor="middle" x="55" y="-864" font-family="Helvetica,sans-Serif" font-size="10.00" fill="#000000"> </text>
<polyline fill="none" stroke="#bfbfbf" points="0,-857 110,-857 "/>
<text text-anchor="middle" x="55" y="-845" font-family="Helvetica,sans-Serif" font-size="10.00" fill="#000000"> </text>
</g>
<!-- Node4&#45;&gt;Node3 -->
<g id="edge3" class="edge">
<title>Node4&#45;&gt;Node3</title>
<path fill="none" stroke="#191970" d="M55,-827.607C55,-762.1886 55,-649.1092 55,-592.4505"/>
<polygon fill="none" stroke="#191970" points="51.5001,-827.6811 55,-837.6811 58.5001,-827.6811 51.5001,-827.6811"/>
</g>
<!-- Node5 -->
<g id="node5" class="node">
<title>Node5</title>
<g id="a_node5"><a xlink:href="../../de/d8a/classopenage_1_1_attributes.xhtml" target="_top" xlink:title="Contains a group of attributes. ">
<polygon fill="#ffffff" stroke="#000000" points="124.5,-491 124.5,-625 225.5,-625 225.5,-491 124.5,-491"/>
<text text-anchor="middle" x="175" y="-613" font-family="Helvetica,sans-Serif" font-size="10.00" fill="#000000">openage::Attributes</text>
<polyline fill="none" stroke="#000000" points="124.5,-606 225.5,-606 "/>
<text text-anchor="start" x="132.5" y="-594" font-family="Helvetica,sans-Serif" font-size="10.00" fill="#000000">&#45; attrs</text>
<polyline fill="none" stroke="#000000" points="124.5,-587 225.5,-587 "/>
<text text-anchor="start" x="132.5" y="-575" font-family="Helvetica,sans-Serif" font-size="10.00" fill="#000000">+ Attributes()</text>
<text text-anchor="start" x="132.5" y="-564" font-family="Helvetica,sans-Serif" font-size="10.00" fill="#000000">+ add()</text>
<text text-anchor="start" x="132.5" y="-553" font-family="Helvetica,sans-Serif" font-size="10.00" fill="#000000">+ add_copies()</text>
<text text-anchor="start" x="132.5" y="-542" font-family="Helvetica,sans-Serif" font-size="10.00" fill="#000000">+ add_copies()</text>
<text text-anchor="start" x="132.5" y="-531" font-family="Helvetica,sans-Serif" font-size="10.00" fill="#000000">+ remove()</text>
<text text-anchor="start" x="132.5" y="-520" font-family="Helvetica,sans-Serif" font-size="10.00" fill="#000000">+ has()</text>
<text text-anchor="start" x="132.5" y="-509" font-family="Helvetica,sans-Serif" font-size="10.00" fill="#000000">+ get()</text>
<text text-anchor="start" x="132.5" y="-498" font-family="Helvetica,sans-Serif" font-size="10.00" fill="#000000">+ get()</text>
</a>
</g>
</g>
<!-- Node5&#45;&gt;Node2 -->
<g id="edge4" class="edge">
<title>Node5&#45;&gt;Node2</title>
<path fill="none" stroke="#404040" d="M176.0155,-490.8686C177.4469,-459.9222 180.5299,-422.8498 187,-390 187.4262,-387.8361 187.8749,-385.6598 188.3442,-383.4741"/>
<polygon fill="none" stroke="#404040" points="188.359,-383.4094 185.8006,-376.6674 191.04,-371.7127 193.5984,-378.4548 188.359,-383.4094"/>
<text text-anchor="middle" x="229.5" y="-393" font-family="Helvetica,sans-Serif" font-size="10.00" fill="#000000"> +default_attributes</text>
</g>
<!-- Node6 -->
<g id="node6" class="node">
<title>Node6</title>
<g id="a_node6"><a xlink:href="../../d8/d5b/classopenage_1_1_resource_cost.xhtml" target="_top" xlink:title="A container for a constant or dynamic ResourceBundle representing the cost. ">
<polygon fill="#ffffff" stroke="#000000" points="244,-502 244,-614 366,-614 366,-502 244,-502"/>
<text text-anchor="middle" x="305" y="-602" font-family="Helvetica,sans-Serif" font-size="10.00" fill="#000000">openage::ResourceCost</text>
<polyline fill="none" stroke="#000000" points="244,-595 366,-595 "/>
<text text-anchor="start" x="252" y="-583" font-family="Helvetica,sans-Serif" font-size="10.00" fill="#000000">&#45; type</text>
<polyline fill="none" stroke="#000000" points="244,-576 366,-576 "/>
<text text-anchor="start" x="252" y="-564" font-family="Helvetica,sans-Serif" font-size="10.00" fill="#000000">+ ResourceCost()</text>
<text text-anchor="start" x="252" y="-553" font-family="Helvetica,sans-Serif" font-size="10.00" fill="#000000">+ ResourceCost()</text>
<text text-anchor="start" x="252" y="-542" font-family="Helvetica,sans-Serif" font-size="10.00" fill="#000000">+ ResourceCost()</text>
<text text-anchor="start" x="252" y="-531" font-family="Helvetica,sans-Serif" font-size="10.00" fill="#000000">+ ~ResourceCost()</text>
<text text-anchor="start" x="252" y="-520" font-family="Helvetica,sans-Serif" font-size="10.00" fill="#000000">+ set()</text>
<text text-anchor="start" x="252" y="-509" font-family="Helvetica,sans-Serif" font-size="10.00" fill="#000000">+ get()</text>
</a>
</g>
</g>
<!-- Node6&#45;&gt;Node2 -->
<g id="edge5" class="edge">
<title>Node6&#45;&gt;Node2</title>
<path fill="none" stroke="#404040" d="M294.7572,-501.8406C288.593,-469.1207 280.343,-427.1207 272,-390 271.5158,-387.8454 271.0232,-385.6741 270.5234,-383.4895"/>
<polygon fill="none" stroke="#404040" points="270.5001,-383.389 265.2474,-378.4484 267.7876,-371.6995 273.0403,-376.6401 270.5001,-383.389"/>
<text text-anchor="middle" x="288" y="-393" font-family="Helvetica,sans-Serif" font-size="10.00" fill="#000000"> +cost</text>
</g>
<!-- Node7 -->
<g id="node7" class="node">
<title>Node7</title>
<g id="a_node7"><a xlink:href="../../d2/de9/classopenage_1_1_resource_bundle.xhtml" target="_top" xlink:title="A set of amounts of game resources. ">
<polygon fill="#ffffff" stroke="#000000" points="183.5,-766.5 183.5,-988.5 314.5,-988.5 314.5,-766.5 183.5,-766.5"/>
<text text-anchor="middle" x="249" y="-976.5" font-family="Helvetica,sans-Serif" font-size="10.00" fill="#000000">openage::ResourceBundle</text>
<polyline fill="none" stroke="#000000" points="183.5,-969.5 314.5,-969.5 "/>
<text text-anchor="start" x="191.5" y="-957.5" font-family="Helvetica,sans-Serif" font-size="10.00" fill="#000000">&#45; count</text>
<text text-anchor="start" x="191.5" y="-946.5" font-family="Helvetica,sans-Serif" font-size="10.00" fill="#000000">&#45; value</text>
<polyline fill="none" stroke="#000000" points="183.5,-939.5 314.5,-939.5 "/>
<text text-anchor="start" x="191.5" y="-927.5" font-family="Helvetica,sans-Serif" font-size="10.00" fill="#000000">+ ResourceBundle()</text>
<text text-anchor="start" x="191.5" y="-916.5" font-family="Helvetica,sans-Serif" font-size="10.00" fill="#000000">+ ResourceBundle()</text>
<text text-anchor="start" x="191.5" y="-905.5" font-family="Helvetica,sans-Serif" font-size="10.00" fill="#000000">+ ~ResourceBundle()</text>
<text text-anchor="start" x="191.5" y="-894.5" font-family="Helvetica,sans-Serif" font-size="10.00" fill="#000000">+ ResourceBundle()</text>
<text text-anchor="start" x="191.5" y="-883.5" font-family="Helvetica,sans-Serif" font-size="10.00" fill="#000000">+ clone()</text>
<text text-anchor="start" x="191.5" y="-872.5" font-family="Helvetica,sans-Serif" font-size="10.00" fill="#000000">+ operator&gt;()</text>
<text text-anchor="start" x="191.5" y="-861.5" font-family="Helvetica,sans-Serif" font-size="10.00" fill="#000000">+ operator&gt;=()</text>
<text text-anchor="start" x="191.5" y="-850.5" font-family="Helvetica,sans-Serif" font-size="10.00" fill="#000000">+ operator+=()</text>
<text text-anchor="start" x="191.5" y="-839.5" font-family="Helvetica,sans-Serif" font-size="10.00" fill="#000000">+ operator&#45;=()</text>
<text text-anchor="start" x="191.5" y="-828.5" font-family="Helvetica,sans-Serif" font-size="10.00" fill="#000000">+ operator*=()</text>
<text text-anchor="start" x="191.5" y="-817.5" font-family="Helvetica,sans-Serif" font-size="10.00" fill="#000000">and 13 more...</text>
<text text-anchor="start" x="191.5" y="-806.5" font-family="Helvetica,sans-Serif" font-size="10.00" fill="#000000">&#45; ResourceBundle()</text>
<text text-anchor="start" x="191.5" y="-795.5" font-family="Helvetica,sans-Serif" font-size="10.00" fill="#000000">&#45; expand()</text>
<text text-anchor="start" x="191.5" y="-784.5" font-family="Helvetica,sans-Serif" font-size="10.00" fill="#000000">&#45; expand()</text>
<text text-anchor="start" x="191.5" y="-773.5" font-family="Helvetica,sans-Serif" font-size="10.00" fill="#000000">&#45; min_count()</text>
</a>
</g>
</g>
<!-- Node7&#45;&gt;Node6 -->
<g id="edge6" class="edge">
<title>Node7&#45;&gt;Node6</title>
<path fill="none" stroke="#404040" d="M244.7979,-766.489C245.5467,-749.1696 247.1343,-731.5399 250,-715 255.2201,-684.871 265.5298,-652.8093 275.8264,-625.5669"/>
<polygon fill="none" stroke="#404040" points="275.892,-625.3974 274.3274,-618.358 280.2235,-614.2064 281.7881,-621.2457 275.892,-625.3974"/>
<text text-anchor="middle" x="274.5" y="-723.5" font-family="Helvetica,sans-Serif" font-size="10.00" fill="#000000"> &#45;resources</text>
</g>
<!-- Node8 -->
<g id="node8" class="node">
<title>Node8</title>
<g id="a_node8"><a xlink:href="../../d8/d47/classopenage_1_1_player.xhtml" target="_top" xlink:title="{openage::Player\n|+ player_number\l+ color\l+ name\l&#45; available_objects\l&#45; available_ids\l&#45; units_have\l&#45; units_had\l&#45; units_pending\l&#45; age\l|+ Player()\l+ operator==()\l+ is_enemy()\l+ is_ally()\l+ owns()\l+ receive()\l+ receive()\l+ can_receive()\l+ can_receive()\l+ deduct()\land 18 more...\l&#45; is_unit_pending()\l&#45; on_resources_change()\l}">
<polygon fill="#ffffff" stroke="#000000" points="451,-419.5 451,-696.5 575,-696.5 575,-419.5 451,-419.5"/>
<text text-anchor="middle" x="513" y="-684.5" font-family="Helvetica,sans-Serif" font-size="10.00" fill="#000000">openage::Player</text>
<polyline fill="none" stroke="#000000" points="451,-677.5 575,-677.5 "/>
<text text-anchor="start" x="459" y="-665.5" font-family="Helvetica,sans-Serif" font-size="10.00" fill="#000000">+ player_number</text>
<text text-anchor="start" x="459" y="-654.5" font-family="Helvetica,sans-Serif" font-size="10.00" fill="#000000">+ color</text>
<text text-anchor="start" x="459" y="-643.5" font-family="Helvetica,sans-Serif" font-size="10.00" fill="#000000">+ name</text>
<text text-anchor="start" x="459" y="-632.5" font-family="Helvetica,sans-Serif" font-size="10.00" fill="#000000">&#45; available_objects</text>
<text text-anchor="start" x="459" y="-621.5" font-family="Helvetica,sans-Serif" font-size="10.00" fill="#000000">&#45; available_ids</text>
<text text-anchor="start" x="459" y="-610.5" font-family="Helvetica,sans-Serif" font-size="10.00" fill="#000000">&#45; units_have</text>
<text text-anchor="start" x="459" y="-599.5" font-family="Helvetica,sans-Serif" font-size="10.00" fill="#000000">&#45; units_had</text>
<text text-anchor="start" x="459" y="-588.5" font-family="Helvetica,sans-Serif" font-size="10.00" fill="#000000">&#45; units_pending</text>
<text text-anchor="start" x="459" y="-577.5" font-family="Helvetica,sans-Serif" font-size="10.00" fill="#000000">&#45; age</text>
<polyline fill="none" stroke="#000000" points="451,-570.5 575,-570.5 "/>
<text text-anchor="start" x="459" y="-558.5" font-family="Helvetica,sans-Serif" font-size="10.00" fill="#000000">+ Player()</text>
<text text-anchor="start" x="459" y="-547.5" font-family="Helvetica,sans-Serif" font-size="10.00" fill="#000000">+ operator==()</text>
<text text-anchor="start" x="459" y="-536.5" font-family="Helvetica,sans-Serif" font-size="10.00" fill="#000000">+ is_enemy()</text>
<text text-anchor="start" x="459" y="-525.5" font-family="Helvetica,sans-Serif" font-size="10.00" fill="#000000">+ is_ally()</text>
<text text-anchor="start" x="459" y="-514.5" font-family="Helvetica,sans-Serif" font-size="10.00" fill="#000000">+ owns()</text>
<text text-anchor="start" x="459" y="-503.5" font-family="Helvetica,sans-Serif" font-size="10.00" fill="#000000">+ receive()</text>
<text text-anchor="start" x="459" y="-492.5" font-family="Helvetica,sans-Serif" font-size="10.00" fill="#000000">+ receive()</text>
<text text-anchor="start" x="459" y="-481.5" font-family="Helvetica,sans-Serif" font-size="10.00" fill="#000000">+ can_receive()</text>
<text text-anchor="start" x="459" y="-470.5" font-family="Helvetica,sans-Serif" font-size="10.00" fill="#000000">+ can_receive()</text>
<text text-anchor="start" x="459" y="-459.5" font-family="Helvetica,sans-Serif" font-size="10.00" fill="#000000">+ deduct()</text>
<text text-anchor="start" x="459" y="-448.5" font-family="Helvetica,sans-Serif" font-size="10.00" fill="#000000">and 18 more...</text>
<text text-anchor="start" x="459" y="-437.5" font-family="Helvetica,sans-Serif" font-size="10.00" fill="#000000">&#45; is_unit_pending()</text>
<text text-anchor="start" x="459" y="-426.5" font-family="Helvetica,sans-Serif" font-size="10.00" fill="#000000">&#45; on_resources_change()</text>
</a>
</g>
</g>
<!-- Node7&#45;&gt;Node8 -->
<g id="edge15" class="edge">
<title>Node7&#45;&gt;Node8</title>
<path fill="none" stroke="#404040" d="M314.5328,-768.8134C317.6838,-764.1133 320.848,-759.4902 324,-755 337.0807,-736.3662 340.5886,-731.7574 356,-715 363.8742,-706.4381 366.6791,-705.1284 375,-697 397.0209,-675.4887 420.7243,-651.8094 442.1667,-630.1853"/>
<polygon fill="none" stroke="#404040" points="442.4469,-629.9023 443.8264,-622.8244 450.8905,-621.3755 449.511,-628.4534 442.4469,-629.9023"/>
<text text-anchor="middle" x="401.5" y="-729" font-family="Helvetica,sans-Serif" font-size="10.00" fill="#000000"> &#45;resources_capacity</text>
<text text-anchor="middle" x="401.5" y="-718" font-family="Helvetica,sans-Serif" font-size="10.00" fill="#000000">&#45;resources</text>
</g>
<!-- Node8&#45;&gt;Node2 -->
<g id="edge7" class="edge">
<title>Node8&#45;&gt;Node2</title>
<path fill="none" stroke="#404040" d="M450.9574,-487.9231C403.631,-434.4681 338.9244,-361.3822 292.7063,-309.1791"/>
<polygon fill="none" stroke="#404040" points="292.5437,-308.9954 285.5715,-307.1546 284.5891,-300.0107 291.5613,-301.8515 292.5437,-308.9954"/>
<text text-anchor="middle" x="392" y="-393" font-family="Helvetica,sans-Serif" font-size="10.00" fill="#000000"> +owner</text>
</g>
<!-- Node9 -->
<g id="node9" class="node">
<title>Node9</title>
<g id="a_node9"><a xlink:href="../../d8/de3/classopenage_1_1_player_score.xhtml" target="_top" xlink:title="The score of a player. ">
<polygon fill="#ffffff" stroke="#000000" points="512.5,-210 512.5,-278 625.5,-278 625.5,-210 512.5,-210"/>
<text text-anchor="middle" x="569" y="-266" font-family="Helvetica,sans-Serif" font-size="10.00" fill="#000000">openage::PlayerScore</text>
<polyline fill="none" stroke="#000000" points="512.5,-259 625.5,-259 "/>
<text text-anchor="middle" x="569" y="-247" font-family="Helvetica,sans-Serif" font-size="10.00" fill="#000000"> </text>
<polyline fill="none" stroke="#000000" points="512.5,-240 625.5,-240 "/>
<text text-anchor="start" x="520.5" y="-228" font-family="Helvetica,sans-Serif" font-size="10.00" fill="#000000">+ PlayerScore()</text>
<text text-anchor="start" x="520.5" y="-217" font-family="Helvetica,sans-Serif" font-size="10.00" fill="#000000">+ update_score()</text>
</a>
</g>
</g>
<!-- Node8&#45;&gt;Node9 -->
<g id="edge10" class="edge">
<title>Node8&#45;&gt;Node9</title>
<path fill="none" stroke="#404040" d="M505.9545,-419.1664C506.8492,-409.2546 508.1628,-399.4496 510,-390 516.8326,-354.8561 532.1141,-317.4621 545.4125,-289.3167"/>
<polygon fill="none" stroke="#404040" points="545.5447,-289.0431 544.5557,-281.9002 550.7689,-278.24 551.7579,-285.383 545.5447,-289.0431"/>
<text text-anchor="middle" x="526.5" y="-393" font-family="Helvetica,sans-Serif" font-size="10.00" fill="#000000"> &#45;player</text>
</g>
<!-- Node9&#45;&gt;Node8 -->
<g id="edge8" class="edge">
<title>Node9&#45;&gt;Node8</title>
<path fill="none" stroke="#404040" d="M564.9599,-278.1098C561.009,-309.99 554.504,-358.8643 547,-401 546.6134,-403.1708 546.2182,-405.3573 545.8154,-407.5563"/>
<polygon fill="none" stroke="#404040" points="545.8027,-407.6249 548.6297,-414.2588 543.5934,-419.4198 540.7664,-412.786 545.8027,-407.6249"/>
<text text-anchor="middle" x="565" y="-393" font-family="Helvetica,sans-Serif" font-size="10.00" fill="#000000"> +score</text>
</g>
<!-- Node10 -->
<g id="node10" class="node">
<title>Node10</title>
<g id="a_node10"><a xlink:href="../../d8/dd7/classopenage_1_1_score.xhtml" target="_top" xlink:title="Keeps track of a score and all the sub&#45;scores. ">
<polygon fill="#ffffff" stroke="#000000" points="677.5,-1153.5 677.5,-1353.5 804.5,-1353.5 804.5,-1153.5 677.5,-1153.5"/>
<text text-anchor="middle" x="741" y="-1341.5" font-family="Helvetica,sans-Serif" font-size="10.00" fill="#000000">openage::Score</text>
<polyline fill="none" stroke="#000000" points="677.5,-1334.5 804.5,-1334.5 "/>
<text text-anchor="start" x="685.5" y="-1322.5" font-family="Helvetica,sans-Serif" font-size="10.00" fill="#000000"># score</text>
<text text-anchor="start" x="685.5" y="-1311.5" font-family="Helvetica,sans-Serif" font-size="10.00" fill="#000000"># score_total</text>
<text text-anchor="start" x="685.5" y="-1300.5" font-family="Helvetica,sans-Serif" font-size="10.00" fill="#000000">&#45; score_exploration</text>
<text text-anchor="start" x="685.5" y="-1289.5" font-family="Helvetica,sans-Serif" font-size="10.00" fill="#000000">&#45; score_resources</text>
<polyline fill="none" stroke="#000000" points="677.5,-1282.5 804.5,-1282.5 "/>
<text text-anchor="start" x="685.5" y="-1270.5" font-family="Helvetica,sans-Serif" font-size="10.00" fill="#000000">+ Score()</text>
<text text-anchor="start" x="685.5" y="-1259.5" font-family="Helvetica,sans-Serif" font-size="10.00" fill="#000000">+ add_score()</text>
<text text-anchor="start" x="685.5" y="-1248.5" font-family="Helvetica,sans-Serif" font-size="10.00" fill="#000000">+ add_score()</text>
<text text-anchor="start" x="685.5" y="-1237.5" font-family="Helvetica,sans-Serif" font-size="10.00" fill="#000000">+ remove_score()</text>
<text text-anchor="start" x="685.5" y="-1226.5" font-family="Helvetica,sans-Serif" font-size="10.00" fill="#000000">+ remove_score()</text>
<text text-anchor="start" x="685.5" y="-1215.5" font-family="Helvetica,sans-Serif" font-size="10.00" fill="#000000">+ update_map_explored()</text>
<text text-anchor="start" x="685.5" y="-1204.5" font-family="Helvetica,sans-Serif" font-size="10.00" fill="#000000">+ update_resources()</text>
<text text-anchor="start" x="685.5" y="-1193.5" font-family="Helvetica,sans-Serif" font-size="10.00" fill="#000000">+ update_score()</text>
<text text-anchor="start" x="685.5" y="-1182.5" font-family="Helvetica,sans-Serif" font-size="10.00" fill="#000000">+ get_score()</text>
<text text-anchor="start" x="685.5" y="-1171.5" font-family="Helvetica,sans-Serif" font-size="10.00" fill="#000000">+ get_score()</text>
<text text-anchor="start" x="685.5" y="-1160.5" font-family="Helvetica,sans-Serif" font-size="10.00" fill="#000000">+ get_score_total()</text>
</a>
</g>
</g>
<!-- Node10&#45;&gt;Node9 -->
<g id="edge9" class="edge">
<title>Node10&#45;&gt;Node9</title>
<path fill="none" stroke="#191970" d="M776.1131,-1143.1889C780.2301,-1122.8804 783,-1101.7082 783,-1081.5 783,-1081.5 783,-1081.5 783,-558 783,-438.4287 675.7271,-330.7718 613.0815,-278.0965"/>
<polygon fill="none" stroke="#191970" points="772.6664,-1142.5693 773.9899,-1153.0811 779.5105,-1144.0382 772.6664,-1142.5693"/>
</g>
<!-- Node12 -->
<g id="node12" class="node">
<title>Node12</title>
<g id="a_node12"><a xlink:href="../../d4/db7/classopenage_1_1_team_score.xhtml" target="_top" xlink:title="The score of a team. ">
<polygon fill="#ffffff" stroke="#000000" points="645,-1047.5 645,-1115.5 755,-1115.5 755,-1047.5 645,-1047.5"/>
<text text-anchor="middle" x="700" y="-1103.5" font-family="Helvetica,sans-Serif" font-size="10.00" fill="#000000">openage::TeamScore</text>
<polyline fill="none" stroke="#000000" points="645,-1096.5 755,-1096.5 "/>
<text text-anchor="middle" x="700" y="-1084.5" font-family="Helvetica,sans-Serif" font-size="10.00" fill="#000000"> </text>
<polyline fill="none" stroke="#000000" points="645,-1077.5 755,-1077.5 "/>
<text text-anchor="start" x="653" y="-1065.5" font-family="Helvetica,sans-Serif" font-size="10.00" fill="#000000">+ TeamScore()</text>
<text text-anchor="start" x="653" y="-1054.5" font-family="Helvetica,sans-Serif" font-size="10.00" fill="#000000">+ update_score()</text>
</a>
</g>
</g>
<!-- Node10&#45;&gt;Node12 -->
<g id="edge13" class="edge">
<title>Node10&#45;&gt;Node12</title>
<path fill="none" stroke="#191970" d="M714.82,-1143.6717C712.4207,-1133.6063 710.1341,-1124.0136 708.1064,-1115.5073"/>
<polygon fill="none" stroke="#191970" points="711.4267,-1144.531 717.1501,-1153.4469 718.2359,-1142.9078 711.4267,-1144.531"/>
</g>
<!-- Node11 -->
<g id="node11" class="node">
<title>Node11</title>
<g id="a_node11"><a xlink:href="../../de/dfb/classopenage_1_1_team.xhtml" target="_top" xlink:title="A team of players. ">
<polygon fill="#ffffff" stroke="#000000" points="627,-788.5 627,-966.5 755,-966.5 755,-788.5 627,-788.5"/>
<text text-anchor="middle" x="691" y="-954.5" font-family="Helvetica,sans-Serif" font-size="10.00" fill="#000000">openage::Team</text>
<polyline fill="none" stroke="#000000" points="627,-947.5 755,-947.5 "/>
<text text-anchor="start" x="635" y="-935.5" font-family="Helvetica,sans-Serif" font-size="10.00" fill="#000000">+ id</text>
<text text-anchor="start" x="635" y="-924.5" font-family="Helvetica,sans-Serif" font-size="10.00" fill="#000000">+ name</text>
<text text-anchor="start" x="635" y="-913.5" font-family="Helvetica,sans-Serif" font-size="10.00" fill="#000000">&#45; members</text>
<polyline fill="none" stroke="#000000" points="627,-906.5 755,-906.5 "/>
<text text-anchor="start" x="635" y="-894.5" font-family="Helvetica,sans-Serif" font-size="10.00" fill="#000000">+ Team()</text>
<text text-anchor="start" x="635" y="-883.5" font-family="Helvetica,sans-Serif" font-size="10.00" fill="#000000">+ Team()</text>
<text text-anchor="start" x="635" y="-872.5" font-family="Helvetica,sans-Serif" font-size="10.00" fill="#000000">+ Team()</text>
<text text-anchor="start" x="635" y="-861.5" font-family="Helvetica,sans-Serif" font-size="10.00" fill="#000000">+ operator==()</text>
<text text-anchor="start" x="635" y="-850.5" font-family="Helvetica,sans-Serif" font-size="10.00" fill="#000000">+ add_member()</text>
<text text-anchor="start" x="635" y="-839.5" font-family="Helvetica,sans-Serif" font-size="10.00" fill="#000000">+ change_member_type()</text>
<text text-anchor="start" x="635" y="-828.5" font-family="Helvetica,sans-Serif" font-size="10.00" fill="#000000">+ is_member()</text>
<text text-anchor="start" x="635" y="-817.5" font-family="Helvetica,sans-Serif" font-size="10.00" fill="#000000">+ remove_member()</text>
<text text-anchor="start" x="635" y="-806.5" font-family="Helvetica,sans-Serif" font-size="10.00" fill="#000000">+ get_member_type()</text>
<text text-anchor="start" x="635" y="-795.5" font-family="Helvetica,sans-Serif" font-size="10.00" fill="#000000">+ get_players()</text>
</a>
</g>
</g>
<!-- Node11&#45;&gt;Node8 -->
<g id="edge11" class="edge">
<title>Node11&#45;&gt;Node8</title>
<path fill="none" stroke="#404040" d="M641.1804,-788.0766C622.5055,-754.5561 600.955,-715.8744 580.9174,-679.908"/>
<polygon fill="none" stroke="#404040" points="580.8723,-679.8269 574.4578,-676.5322 575.032,-669.3439 581.4464,-672.6386 580.8723,-679.8269"/>
<text text-anchor="middle" x="627.5" y="-723.5" font-family="Helvetica,sans-Serif" font-size="10.00" fill="#000000"> +team</text>
</g>
<!-- Node11&#45;&gt;Node12 -->
<g id="edge14" class="edge">
<title>Node11&#45;&gt;Node12</title>
<path fill="none" stroke="#404040" d="M661.9643,-966.8814C659.0249,-987.511 659.0067,-1009.2053 665,-1029 665.7738,-1031.5556 666.7175,-1034.1004 667.7918,-1036.6135"/>
<polygon fill="none" stroke="#404040" points="667.8097,-1036.649 674.0839,-1040.2035 673.216,-1047.3622 666.9418,-1043.8077 667.8097,-1036.649"/>
<text text-anchor="middle" x="679" y="-1021" font-family="Helvetica,sans-Serif" font-size="10.00" fill="#000000"> &#45;team</text>
</g>
<!-- Node12&#45;&gt;Node11 -->
<g id="edge12" class="edge">
<title>Node12&#45;&gt;Node11</title>
<path fill="none" stroke="#404040" d="M698.4936,-1047.355C697.655,-1028.3474 696.5626,-1003.5863 695.4724,-978.8742"/>
<polygon fill="none" stroke="#404040" points="695.4675,-978.7605 691.2069,-972.9427 694.9385,-966.7722 699.1991,-972.59 695.4675,-978.7605"/>
<text text-anchor="middle" x="714" y="-1021" font-family="Helvetica,sans-Serif" font-size="10.00" fill="#000000"> +score</text>
</g>
<!-- Node13 -->
<g id="node13" class="node">
<title>Node13</title>
<g id="a_node13"><a xlink:href="../../dd/d70/classopenage_1_1_population_tracker.xhtml" target="_top" xlink:title="Keeps track of the population size and capacity. ">
<polygon fill="#ffffff" stroke="#000000" points="333,-755.5 333,-999.5 471,-999.5 471,-755.5 333,-755.5"/>
<text text-anchor="middle" x="402" y="-987.5" font-family="Helvetica,sans-Serif" font-size="10.00" fill="#000000">openage::PopulationTracker</text>
<polyline fill="none" stroke="#000000" points="333,-980.5 471,-980.5 "/>
<text text-anchor="start" x="341" y="-968.5" font-family="Helvetica,sans-Serif" font-size="10.00" fill="#000000">&#45; demand</text>
<text text-anchor="start" x="341" y="-957.5" font-family="Helvetica,sans-Serif" font-size="10.00" fill="#000000">&#45; capacity_static</text>
<text text-anchor="start" x="341" y="-946.5" font-family="Helvetica,sans-Serif" font-size="10.00" fill="#000000">&#45; capacity_real</text>
<text text-anchor="start" x="341" y="-935.5" font-family="Helvetica,sans-Serif" font-size="10.00" fill="#000000">&#45; capacity_max</text>
<text text-anchor="start" x="341" y="-924.5" font-family="Helvetica,sans-Serif" font-size="10.00" fill="#000000">&#45; capacity_total</text>
<text text-anchor="start" x="341" y="-913.5" font-family="Helvetica,sans-Serif" font-size="10.00" fill="#000000">&#45; capacity</text>
<polyline fill="none" stroke="#000000" points="333,-906.5 471,-906.5 "/>
<text text-anchor="start" x="341" y="-894.5" font-family="Helvetica,sans-Serif" font-size="10.00" fill="#000000">+ PopulationTracker()</text>
<text text-anchor="start" x="341" y="-883.5" font-family="Helvetica,sans-Serif" font-size="10.00" fill="#000000">+ demand_population()</text>
<text text-anchor="start" x="341" y="-872.5" font-family="Helvetica,sans-Serif" font-size="10.00" fill="#000000">+ free_population()</text>
<text text-anchor="start" x="341" y="-861.5" font-family="Helvetica,sans-Serif" font-size="10.00" fill="#000000">+ add_capacity_static()</text>
<text text-anchor="start" x="341" y="-850.5" font-family="Helvetica,sans-Serif" font-size="10.00" fill="#000000">+ add_capacity()</text>
<text text-anchor="start" x="341" y="-839.5" font-family="Helvetica,sans-Serif" font-size="10.00" fill="#000000">+ remove_capacity()</text>
<text text-anchor="start" x="341" y="-828.5" font-family="Helvetica,sans-Serif" font-size="10.00" fill="#000000">+ add_capacity_max()</text>
<text text-anchor="start" x="341" y="-817.5" font-family="Helvetica,sans-Serif" font-size="10.00" fill="#000000">+ get_demand()</text>
<text text-anchor="start" x="341" y="-806.5" font-family="Helvetica,sans-Serif" font-size="10.00" fill="#000000">+ get_capacity()</text>
<text text-anchor="start" x="341" y="-795.5" font-family="Helvetica,sans-Serif" font-size="10.00" fill="#000000">+ get_space()</text>
<text text-anchor="start" x="341" y="-784.5" font-family="Helvetica,sans-Serif" font-size="10.00" fill="#000000">+ get_capacity_overflow()</text>
<text text-anchor="start" x="341" y="-773.5" font-family="Helvetica,sans-Serif" font-size="10.00" fill="#000000">+ is_capacity_maxed()</text>
<text text-anchor="start" x="341" y="-762.5" font-family="Helvetica,sans-Serif" font-size="10.00" fill="#000000">&#45; update_capacity()</text>
</a>
</g>
</g>
<!-- Node13&#45;&gt;Node8 -->
<g id="edge16" class="edge">
<title>Node13&#45;&gt;Node8</title>
<path fill="none" stroke="#404040" d="M444.4395,-755.3432C449.8076,-739.8916 455.3486,-723.9426 460.8456,-708.1201"/>
<polygon fill="none" stroke="#404040" points="460.8993,-707.9655 459.0899,-700.985 464.8374,-696.6301 466.6468,-703.6105 460.8993,-707.9655"/>
<text text-anchor="middle" x="485" y="-723.5" font-family="Helvetica,sans-Serif" font-size="10.00" fill="#000000"> +population</text>
</g>
<!-- Node14 -->
<g id="node14" class="node">
<title>Node14</title>
<g id="a_node14"><a xlink:href="../../de/d7a/classopenage_1_1_civilisation.xhtml" target="_top" xlink:title="contains the initial tech structure for one civilisation ">
<polygon fill="#ffffff" stroke="#000000" points="489.5,-788.5 489.5,-966.5 608.5,-966.5 608.5,-788.5 489.5,-788.5"/>
<text text-anchor="middle" x="549" y="-954.5" font-family="Helvetica,sans-Serif" font-size="10.00" fill="#000000">openage::Civilisation</text>
<polyline fill="none" stroke="#000000" points="489.5,-947.5 608.5,-947.5 "/>
<text text-anchor="start" x="497.5" y="-935.5" font-family="Helvetica,sans-Serif" font-size="10.00" fill="#000000">+ civ_id</text>
<text text-anchor="start" x="497.5" y="-924.5" font-family="Helvetica,sans-Serif" font-size="10.00" fill="#000000">+ civ_name</text>
<text text-anchor="start" x="497.5" y="-913.5" font-family="Helvetica,sans-Serif" font-size="10.00" fill="#000000">&#45; civ_objects</text>
<text text-anchor="start" x="497.5" y="-902.5" font-family="Helvetica,sans-Serif" font-size="10.00" fill="#000000">&#45; all_categories</text>
<text text-anchor="start" x="497.5" y="-891.5" font-family="Helvetica,sans-Serif" font-size="10.00" fill="#000000">&#45; categories</text>
<text text-anchor="start" x="497.5" y="-880.5" font-family="Helvetica,sans-Serif" font-size="10.00" fill="#000000">&#45; buildings</text>
<polyline fill="none" stroke="#000000" points="489.5,-873.5 608.5,-873.5 "/>
<text text-anchor="start" x="497.5" y="-861.5" font-family="Helvetica,sans-Serif" font-size="10.00" fill="#000000">+ Civilisation()</text>
<text text-anchor="start" x="497.5" y="-850.5" font-family="Helvetica,sans-Serif" font-size="10.00" fill="#000000">+ object_meta()</text>
<text text-anchor="start" x="497.5" y="-839.5" font-family="Helvetica,sans-Serif" font-size="10.00" fill="#000000">+ get_category()</text>
<text text-anchor="start" x="497.5" y="-828.5" font-family="Helvetica,sans-Serif" font-size="10.00" fill="#000000">+ get_type_categories()</text>
<text text-anchor="start" x="497.5" y="-817.5" font-family="Helvetica,sans-Serif" font-size="10.00" fill="#000000">+ get_building_data()</text>
<text text-anchor="start" x="497.5" y="-806.5" font-family="Helvetica,sans-Serif" font-size="10.00" fill="#000000">+ initialise_unit_types()</text>
<text text-anchor="start" x="497.5" y="-795.5" font-family="Helvetica,sans-Serif" font-size="10.00" fill="#000000">&#45; add_to_category()</text>
</a>
</g>
</g>
<!-- Node14&#45;&gt;Node8 -->
<g id="edge17" class="edge">
<title>Node14&#45;&gt;Node8</title>
<path fill="none" stroke="#404040" d="M538.9241,-788.0766C536.1428,-763.3921 533.046,-735.9087 529.9884,-708.7718"/>
<polygon fill="none" stroke="#404040" points="529.9783,-708.682 525.3316,-703.1677 528.6346,-696.7575 533.2813,-702.2719 529.9783,-708.682"/>
<text text-anchor="middle" x="545" y="-723.5" font-family="Helvetica,sans-Serif" font-size="10.00" fill="#000000"> +civ</text>
</g>
</g>
</svg>
