<?xml version="1.0" encoding="UTF-8" standalone="no"?>
<!DOCTYPE svg PUBLIC "-//W3C//DTD SVG 1.1//EN"
 "http://www.w3.org/Graphics/SVG/1.1/DTD/svg11.dtd">
<!-- Generated by graphviz version 2.40.1 (20161225.0304)
 -->
<!-- Title: openage::ResearchAction::ResearchAction Pages: 1 -->
<svg width="296pt" height="88pt"
 viewBox="0.00 0.00 296.00 88.00" xmlns="http://www.w3.org/2000/svg" xmlns:xlink="http://www.w3.org/1999/xlink">
<g id="graph0" class="graph" transform="scale(1 1) rotate(0) translate(4 84)">
<title>openage::ResearchAction::ResearchAction</title>
<polygon fill="#ffffff" stroke="transparent" points="-4,4 -4,-84 292,-84 292,4 -4,4"/>
<!-- Node0 -->
<g id="node1" class="node">
<title>Node0</title>
<polygon fill="#bfbfbf" stroke="#000000" points="0,-24.5 0,-54.5 129,-54.5 129,-24.5 0,-24.5"/>
<text text-anchor="start" x="8" y="-42.5" font-family="Helvetica,sans-Serif" font-size="10.00" fill="#000000">openage::ResearchAction</text>
<text text-anchor="middle" x="64.5" y="-31.5" font-family="Helvetica,sans-Serif" font-size="10.00" fill="#000000">::ResearchAction</text>
</g>
<!-- Node1 -->
<g id="node2" class="node">
<title>Node1</title>
<g id="a_node2"><a xlink:href="../../d2/d89/classopenage_1_1_research_type.xhtml#a4a3186a0805b6d799dfc6abac2c9a404" target="_top" xlink:title="openage::ResearchType\l::get_research_time">
<polygon fill="#ffffff" stroke="#000000" points="165,-49.5 165,-79.5 288,-79.5 288,-49.5 165,-49.5"/>
<text text-anchor="start" x="173" y="-67.5" font-family="Helvetica,sans-Serif" font-size="10.00" fill="#000000">openage::ResearchType</text>
<text text-anchor="middle" x="226.5" y="-56.5" font-family="Helvetica,sans-Serif" font-size="10.00" fill="#000000">::get_research_time</text>
</a>
</g>
</g>
<!-- Node0&#45;&gt;Node1 -->
<g id="edge1" class="edge">
<title>Node0&#45;&gt;Node1</title>
<path fill="none" stroke="#191970" d="M129.4582,-49.5244C137.873,-50.823 146.5284,-52.1587 155.0412,-53.4724"/>
<polygon fill="#191970" stroke="#191970" points="154.5293,-56.9348 164.9461,-55.0009 155.5969,-50.0166 154.5293,-56.9348"/>
</g>
<!-- Node2 -->
<g id="node3" class="node">
<title>Node2</title>
<g id="a_node3"><a xlink:href="../../db/d44/classopenage_1_1_research.xhtml#aae7972075b9f90f16c0bad595f03f0b2" target="_top" xlink:title="Called when a unit started researching this research. ">
<polygon fill="#ffffff" stroke="#000000" points="173,-.5 173,-30.5 280,-30.5 280,-.5 173,-.5"/>
<text text-anchor="start" x="181" y="-18.5" font-family="Helvetica,sans-Serif" font-size="10.00" fill="#000000">openage::Research::</text>
<text text-anchor="middle" x="226.5" y="-7.5" font-family="Helvetica,sans-Serif" font-size="10.00" fill="#000000">started</text>
</a>
</g>
</g>
<!-- Node0&#45;&gt;Node2 -->
<g id="edge2" class="edge">
<title>Node0&#45;&gt;Node2</title>
<path fill="none" stroke="#191970" d="M129.4582,-29.8766C140.511,-28.2391 151.979,-26.5402 162.9937,-24.9083"/>
<polygon fill="#191970" stroke="#191970" points="163.5779,-28.3601 172.957,-23.4323 162.552,-21.4357 163.5779,-28.3601"/>
</g>
</g>
</svg>
