<?xml version="1.0" encoding="UTF-8" standalone="no"?>
<!DOCTYPE svg PUBLIC "-//W3C//DTD SVG 1.1//EN"
 "http://www.w3.org/Graphics/SVG/1.1/DTD/svg11.dtd">
<!-- Generated by graphviz version 2.40.1 (20161225.0304)
 -->
<!-- Title: /mnt/c/Users/Jameson/Desktop/git/openage&#45;new&#45;doc&#45;system/libopenage/unit/selection.h Pages: 1 -->
<svg width="3828pt" height="428pt"
 viewBox="0.00 0.00 3828.00 428.00" xmlns="http://www.w3.org/2000/svg" xmlns:xlink="http://www.w3.org/1999/xlink">
<g id="graph0" class="graph" transform="scale(1 1) rotate(0) translate(4 424)">
<title>/mnt/c/Users/Jameson/Desktop/git/openage&#45;new&#45;doc&#45;system/libopenage/unit/selection.h</title>
<polygon fill="#ffffff" stroke="transparent" points="-4,4 -4,-424 3824,-424 3824,4 -4,4"/>
<!-- Node57 -->
<g id="node1" class="node">
<title>Node57</title>
<polygon fill="#bfbfbf" stroke="#000000" points="2099,-367.5 2099,-419.5 2240,-419.5 2240,-367.5 2099,-367.5"/>
<text text-anchor="start" x="2107" y="-407.5" font-family="Helvetica,sans-Serif" font-size="10.00" fill="#000000">/mnt/c/Users/Jameson</text>
<text text-anchor="start" x="2107" y="-396.5" font-family="Helvetica,sans-Serif" font-size="10.00" fill="#000000">/Desktop/git/openage</text>
<text text-anchor="start" x="2107" y="-385.5" font-family="Helvetica,sans-Serif" font-size="10.00" fill="#000000">&#45;new&#45;doc&#45;system/libopenage</text>
<text text-anchor="middle" x="2169.5" y="-374.5" font-family="Helvetica,sans-Serif" font-size="10.00" fill="#000000">/unit/selection.h</text>
</g>
<!-- Node58 -->
<g id="node2" class="node">
<title>Node58</title>
<g id="a_node2"><a xlink:href="../../d1/d55/engine_8h.xhtml" target="_top" xlink:title="/mnt/c/Users/Jameson\l/Desktop/git/openage\l&#45;new&#45;doc&#45;system/libopenage\l/engine.h">
<polygon fill="#ffffff" stroke="#000000" points="2099,-278.5 2099,-330.5 2240,-330.5 2240,-278.5 2099,-278.5"/>
<text text-anchor="start" x="2107" y="-318.5" font-family="Helvetica,sans-Serif" font-size="10.00" fill="#000000">/mnt/c/Users/Jameson</text>
<text text-anchor="start" x="2107" y="-307.5" font-family="Helvetica,sans-Serif" font-size="10.00" fill="#000000">/Desktop/git/openage</text>
<text text-anchor="start" x="2107" y="-296.5" font-family="Helvetica,sans-Serif" font-size="10.00" fill="#000000">&#45;new&#45;doc&#45;system/libopenage</text>
<text text-anchor="middle" x="2169.5" y="-285.5" font-family="Helvetica,sans-Serif" font-size="10.00" fill="#000000">/engine.h</text>
</a>
</g>
</g>
<!-- Node57&#45;&gt;Node58 -->
<g id="edge1" class="edge">
<title>Node57&#45;&gt;Node58</title>
<path fill="none" stroke="#191970" d="M2169.5,-357.1155C2169.5,-348.2061 2169.5,-338.8475 2169.5,-330.5341"/>
<polygon fill="#191970" stroke="#191970" points="2166.0001,-357.2784 2169.5,-367.2784 2173.0001,-357.2785 2166.0001,-357.2784"/>
</g>
<!-- Node78 -->
<g id="node22" class="node">
<title>Node78</title>
<g id="a_node22"><a xlink:href="../../df/dbb/selection_8cpp.xhtml" target="_top" xlink:title="/mnt/c/Users/Jameson\l/Desktop/git/openage\l&#45;new&#45;doc&#45;system/libopenage\l/unit/selection.cpp">
<polygon fill="#ffffff" stroke="#000000" points="3679,-189.5 3679,-241.5 3820,-241.5 3820,-189.5 3679,-189.5"/>
<text text-anchor="start" x="3687" y="-229.5" font-family="Helvetica,sans-Serif" font-size="10.00" fill="#000000">/mnt/c/Users/Jameson</text>
<text text-anchor="start" x="3687" y="-218.5" font-family="Helvetica,sans-Serif" font-size="10.00" fill="#000000">/Desktop/git/openage</text>
<text text-anchor="start" x="3687" y="-207.5" font-family="Helvetica,sans-Serif" font-size="10.00" fill="#000000">&#45;new&#45;doc&#45;system/libopenage</text>
<text text-anchor="middle" x="3749.5" y="-196.5" font-family="Helvetica,sans-Serif" font-size="10.00" fill="#000000">/unit/selection.cpp</text>
</a>
</g>
</g>
<!-- Node57&#45;&gt;Node78 -->
<g id="edge35" class="edge">
<title>Node57&#45;&gt;Node78</title>
<path fill="none" stroke="#191970" d="M2250.4687,-391.6553C2477.2225,-385.1386 3136.8489,-356.927 3670.5,-242 3673.187,-241.4213 3675.9103,-240.7826 3678.6498,-240.0959"/>
<polygon fill="#191970" stroke="#191970" points="2250.22,-388.1608 2240.3223,-391.9406 2250.4168,-395.1581 2250.22,-388.1608"/>
</g>
<!-- Node81 -->
<g id="node25" class="node">
<title>Node81</title>
<g id="a_node25"><a xlink:href="../../d5/d9d/game__control_8h.xhtml" target="_top" xlink:title="/mnt/c/Users/Jameson\l/Desktop/git/openage\l&#45;new&#45;doc&#45;system/libopenage\l/game_control.h">
<polygon fill="#ffffff" stroke="#000000" points="456,-278.5 456,-330.5 597,-330.5 597,-278.5 456,-278.5"/>
<text text-anchor="start" x="464" y="-318.5" font-family="Helvetica,sans-Serif" font-size="10.00" fill="#000000">/mnt/c/Users/Jameson</text>
<text text-anchor="start" x="464" y="-307.5" font-family="Helvetica,sans-Serif" font-size="10.00" fill="#000000">/Desktop/git/openage</text>
<text text-anchor="start" x="464" y="-296.5" font-family="Helvetica,sans-Serif" font-size="10.00" fill="#000000">&#45;new&#45;doc&#45;system/libopenage</text>
<text text-anchor="middle" x="526.5" y="-285.5" font-family="Helvetica,sans-Serif" font-size="10.00" fill="#000000">/game_control.h</text>
</a>
</g>
</g>
<!-- Node57&#45;&gt;Node81 -->
<g id="edge24" class="edge">
<title>Node57&#45;&gt;Node81</title>
<path fill="none" stroke="#191970" d="M2088.7262,-389.1245C1806.0232,-373.8108 863.8286,-322.7728 597.2952,-308.3349"/>
<polygon fill="#191970" stroke="#191970" points="2088.7276,-392.6297 2098.9023,-389.6758 2089.1063,-385.6399 2088.7276,-392.6297"/>
</g>
<!-- Node59 -->
<g id="node3" class="node">
<title>Node59</title>
<g id="a_node3"><a xlink:href="../../d7/d28/dynamic__resource_8cpp.xhtml" target="_top" xlink:title="/mnt/c/Users/Jameson\l/Desktop/git/openage\l&#45;new&#45;doc&#45;system/libopenage\l/audio/dynamic_resource.cpp">
<polygon fill="#ffffff" stroke="#000000" points="1410.5,-189.5 1410.5,-241.5 1554.5,-241.5 1554.5,-189.5 1410.5,-189.5"/>
<text text-anchor="start" x="1418.5" y="-229.5" font-family="Helvetica,sans-Serif" font-size="10.00" fill="#000000">/mnt/c/Users/Jameson</text>
<text text-anchor="start" x="1418.5" y="-218.5" font-family="Helvetica,sans-Serif" font-size="10.00" fill="#000000">/Desktop/git/openage</text>
<text text-anchor="start" x="1418.5" y="-207.5" font-family="Helvetica,sans-Serif" font-size="10.00" fill="#000000">&#45;new&#45;doc&#45;system/libopenage</text>
<text text-anchor="middle" x="1482.5" y="-196.5" font-family="Helvetica,sans-Serif" font-size="10.00" fill="#000000">/audio/dynamic_resource.cpp</text>
</a>
</g>
</g>
<!-- Node58&#45;&gt;Node59 -->
<g id="edge2" class="edge">
<title>Node58&#45;&gt;Node59</title>
<path fill="none" stroke="#191970" d="M2088.453,-301.6321C1971.4123,-296.2556 1748.7812,-281.3903 1563.5,-242 1560.6055,-241.3846 1557.6689,-240.7037 1554.7144,-239.9711"/>
<polygon fill="#191970" stroke="#191970" points="2088.6113,-305.1426 2098.7578,-302.0934 2088.9244,-298.1496 2088.6113,-305.1426"/>
</g>
<!-- Node60 -->
<g id="node4" class="node">
<title>Node60</title>
<g id="a_node4"><a xlink:href="../../db/d87/audio_2resource_8cpp.xhtml" target="_top" xlink:title="/mnt/c/Users/Jameson\l/Desktop/git/openage\l&#45;new&#45;doc&#45;system/libopenage\l/audio/resource.cpp">
<polygon fill="#ffffff" stroke="#000000" points="1573,-189.5 1573,-241.5 1714,-241.5 1714,-189.5 1573,-189.5"/>
<text text-anchor="start" x="1581" y="-229.5" font-family="Helvetica,sans-Serif" font-size="10.00" fill="#000000">/mnt/c/Users/Jameson</text>
<text text-anchor="start" x="1581" y="-218.5" font-family="Helvetica,sans-Serif" font-size="10.00" fill="#000000">/Desktop/git/openage</text>
<text text-anchor="start" x="1581" y="-207.5" font-family="Helvetica,sans-Serif" font-size="10.00" fill="#000000">&#45;new&#45;doc&#45;system/libopenage</text>
<text text-anchor="middle" x="1643.5" y="-196.5" font-family="Helvetica,sans-Serif" font-size="10.00" fill="#000000">/audio/resource.cpp</text>
</a>
</g>
</g>
<!-- Node58&#45;&gt;Node60 -->
<g id="edge3" class="edge">
<title>Node58&#45;&gt;Node60</title>
<path fill="none" stroke="#191970" d="M2088.5323,-297.7161C1998.3458,-289.1135 1848.6369,-271.705 1722.5,-242 1719.8246,-241.3699 1717.1111,-240.6874 1714.38,-239.9637"/>
<polygon fill="#191970" stroke="#191970" points="2088.4057,-301.2195 2098.6896,-298.6717 2089.0614,-294.2503 2088.4057,-301.2195"/>
</g>
<!-- Node61 -->
<g id="node5" class="node">
<title>Node61</title>
<g id="a_node5"><a xlink:href="../../d9/dda/console_8cpp.xhtml" target="_top" xlink:title="/mnt/c/Users/Jameson\l/Desktop/git/openage\l&#45;new&#45;doc&#45;system/libopenage\l/console/console.cpp">
<polygon fill="#ffffff" stroke="#000000" points="1732,-189.5 1732,-241.5 1873,-241.5 1873,-189.5 1732,-189.5"/>
<text text-anchor="start" x="1740" y="-229.5" font-family="Helvetica,sans-Serif" font-size="10.00" fill="#000000">/mnt/c/Users/Jameson</text>
<text text-anchor="start" x="1740" y="-218.5" font-family="Helvetica,sans-Serif" font-size="10.00" fill="#000000">/Desktop/git/openage</text>
<text text-anchor="start" x="1740" y="-207.5" font-family="Helvetica,sans-Serif" font-size="10.00" fill="#000000">&#45;new&#45;doc&#45;system/libopenage</text>
<text text-anchor="middle" x="1802.5" y="-196.5" font-family="Helvetica,sans-Serif" font-size="10.00" fill="#000000">/console/console.cpp</text>
</a>
</g>
</g>
<!-- Node58&#45;&gt;Node61 -->
<g id="edge4" class="edge">
<title>Node58&#45;&gt;Node61</title>
<path fill="none" stroke="#191970" d="M2088.9926,-289.494C2030.9184,-278.0723 1950.863,-261.0978 1881.5,-242 1878.7105,-241.232 1875.8747,-240.4222 1873.0169,-239.5819"/>
<polygon fill="#191970" stroke="#191970" points="2088.3588,-292.9363 2098.8446,-291.4199 2089.7018,-286.0664 2088.3588,-292.9363"/>
</g>
<!-- Node62 -->
<g id="node6" class="node">
<title>Node62</title>
<g id="a_node6"><a xlink:href="../../da/d9f/draw_8cpp.xhtml" target="_top" xlink:title="/mnt/c/Users/Jameson\l/Desktop/git/openage\l&#45;new&#45;doc&#45;system/libopenage\l/console/draw.cpp">
<polygon fill="#ffffff" stroke="#000000" points="1891,-189.5 1891,-241.5 2032,-241.5 2032,-189.5 1891,-189.5"/>
<text text-anchor="start" x="1899" y="-229.5" font-family="Helvetica,sans-Serif" font-size="10.00" fill="#000000">/mnt/c/Users/Jameson</text>
<text text-anchor="start" x="1899" y="-218.5" font-family="Helvetica,sans-Serif" font-size="10.00" fill="#000000">/Desktop/git/openage</text>
<text text-anchor="start" x="1899" y="-207.5" font-family="Helvetica,sans-Serif" font-size="10.00" fill="#000000">&#45;new&#45;doc&#45;system/libopenage</text>
<text text-anchor="middle" x="1961.5" y="-196.5" font-family="Helvetica,sans-Serif" font-size="10.00" fill="#000000">/console/draw.cpp</text>
</a>
</g>
</g>
<!-- Node58&#45;&gt;Node62 -->
<g id="edge5" class="edge">
<title>Node58&#45;&gt;Node62</title>
<path fill="none" stroke="#191970" d="M2099.1236,-274.387C2074.2597,-263.7481 2046.5225,-251.8798 2022.5003,-241.6011"/>
<polygon fill="#191970" stroke="#191970" points="2097.9279,-277.6823 2108.4986,-278.3984 2100.6817,-271.2467 2097.9279,-277.6823"/>
</g>
<!-- Node63 -->
<g id="node7" class="node">
<title>Node63</title>
<g id="a_node7"><a xlink:href="../../da/d5c/engine_8cpp.xhtml" target="_top" xlink:title="/mnt/c/Users/Jameson\l/Desktop/git/openage\l&#45;new&#45;doc&#45;system/libopenage\l/engine.cpp">
<polygon fill="#ffffff" stroke="#000000" points="2050,-189.5 2050,-241.5 2191,-241.5 2191,-189.5 2050,-189.5"/>
<text text-anchor="start" x="2058" y="-229.5" font-family="Helvetica,sans-Serif" font-size="10.00" fill="#000000">/mnt/c/Users/Jameson</text>
<text text-anchor="start" x="2058" y="-218.5" font-family="Helvetica,sans-Serif" font-size="10.00" fill="#000000">/Desktop/git/openage</text>
<text text-anchor="start" x="2058" y="-207.5" font-family="Helvetica,sans-Serif" font-size="10.00" fill="#000000">&#45;new&#45;doc&#45;system/libopenage</text>
<text text-anchor="middle" x="2120.5" y="-196.5" font-family="Helvetica,sans-Serif" font-size="10.00" fill="#000000">/engine.cpp</text>
</a>
</g>
</g>
<!-- Node58&#45;&gt;Node63 -->
<g id="edge6" class="edge">
<title>Node58&#45;&gt;Node63</title>
<path fill="none" stroke="#191970" d="M2150.1064,-269.2749C2145.0121,-260.0219 2139.6094,-250.209 2134.8334,-241.5341"/>
<polygon fill="#191970" stroke="#191970" points="2147.1744,-271.2064 2155.0634,-278.2784 2153.3064,-267.8303 2147.1744,-271.2064"/>
</g>
<!-- Node64 -->
<g id="node8" class="node">
<title>Node64</title>
<g id="a_node8"><a xlink:href="../../d0/d03/game__control_8cpp.xhtml" target="_top" xlink:title="/mnt/c/Users/Jameson\l/Desktop/git/openage\l&#45;new&#45;doc&#45;system/libopenage\l/game_control.cpp">
<polygon fill="#ffffff" stroke="#000000" points="456,-189.5 456,-241.5 597,-241.5 597,-189.5 456,-189.5"/>
<text text-anchor="start" x="464" y="-229.5" font-family="Helvetica,sans-Serif" font-size="10.00" fill="#000000">/mnt/c/Users/Jameson</text>
<text text-anchor="start" x="464" y="-218.5" font-family="Helvetica,sans-Serif" font-size="10.00" fill="#000000">/Desktop/git/openage</text>
<text text-anchor="start" x="464" y="-207.5" font-family="Helvetica,sans-Serif" font-size="10.00" fill="#000000">&#45;new&#45;doc&#45;system/libopenage</text>
<text text-anchor="middle" x="526.5" y="-196.5" font-family="Helvetica,sans-Serif" font-size="10.00" fill="#000000">/game_control.cpp</text>
</a>
</g>
</g>
<!-- Node58&#45;&gt;Node64 -->
<g id="edge7" class="edge">
<title>Node58&#45;&gt;Node64</title>
<path fill="none" stroke="#191970" d="M2088.1896,-302.6005C1787.948,-295.4012 751.5168,-268.8414 605.5,-242 602.7967,-241.5031 600.0595,-240.9339 597.3083,-240.306"/>
<polygon fill="#191970" stroke="#191970" points="2088.476,-306.1083 2098.5569,-302.8484 2088.6434,-299.1103 2088.476,-306.1083"/>
</g>
<!-- Node65 -->
<g id="node9" class="node">
<title>Node65</title>
<g id="a_node9"><a xlink:href="../../d3/da1/game__renderer_8cpp.xhtml" target="_top" xlink:title="/mnt/c/Users/Jameson\l/Desktop/git/openage\l&#45;new&#45;doc&#45;system/libopenage\l/game_renderer.cpp">
<polygon fill="#ffffff" stroke="#000000" points="2248,-189.5 2248,-241.5 2389,-241.5 2389,-189.5 2248,-189.5"/>
<text text-anchor="start" x="2256" y="-229.5" font-family="Helvetica,sans-Serif" font-size="10.00" fill="#000000">/mnt/c/Users/Jameson</text>
<text text-anchor="start" x="2256" y="-218.5" font-family="Helvetica,sans-Serif" font-size="10.00" fill="#000000">/Desktop/git/openage</text>
<text text-anchor="start" x="2256" y="-207.5" font-family="Helvetica,sans-Serif" font-size="10.00" fill="#000000">&#45;new&#45;doc&#45;system/libopenage</text>
<text text-anchor="middle" x="2318.5" y="-196.5" font-family="Helvetica,sans-Serif" font-size="10.00" fill="#000000">/game_renderer.cpp</text>
</a>
</g>
</g>
<!-- Node58&#45;&gt;Node65 -->
<g id="edge8" class="edge">
<title>Node58&#45;&gt;Node65</title>
<path fill="none" stroke="#191970" d="M2222.2377,-272.9989C2239.4791,-262.7004 2258.4251,-251.3837 2274.9147,-241.5341"/>
<polygon fill="#191970" stroke="#191970" points="2220.1893,-270.1456 2213.399,-278.2784 2223.7789,-276.1552 2220.1893,-270.1456"/>
</g>
<!-- Node66 -->
<g id="node10" class="node">
<title>Node66</title>
<g id="a_node10"><a xlink:href="../../d9/d96/game__main_8cpp.xhtml" target="_top" xlink:title="/mnt/c/Users/Jameson\l/Desktop/git/openage\l&#45;new&#45;doc&#45;system/libopenage\l/gamestate/game_main.cpp">
<polygon fill="#ffffff" stroke="#000000" points="2407,-189.5 2407,-241.5 2548,-241.5 2548,-189.5 2407,-189.5"/>
<text text-anchor="start" x="2415" y="-229.5" font-family="Helvetica,sans-Serif" font-size="10.00" fill="#000000">/mnt/c/Users/Jameson</text>
<text text-anchor="start" x="2415" y="-218.5" font-family="Helvetica,sans-Serif" font-size="10.00" fill="#000000">/Desktop/git/openage</text>
<text text-anchor="start" x="2415" y="-207.5" font-family="Helvetica,sans-Serif" font-size="10.00" fill="#000000">&#45;new&#45;doc&#45;system/libopenage</text>
<text text-anchor="middle" x="2477.5" y="-196.5" font-family="Helvetica,sans-Serif" font-size="10.00" fill="#000000">/gamestate/game_main.cpp</text>
</a>
</g>
</g>
<!-- Node58&#45;&gt;Node66 -->
<g id="edge9" class="edge">
<title>Node58&#45;&gt;Node66</title>
<path fill="none" stroke="#191970" d="M2249.8669,-283.5698C2293.6694,-271.886 2348.7409,-256.7477 2397.5,-242 2400.581,-241.0681 2403.7232,-240.1007 2406.8935,-239.1107"/>
<polygon fill="#191970" stroke="#191970" points="2248.8938,-280.2068 2240.1295,-286.1598 2250.6932,-286.9716 2248.8938,-280.2068"/>
</g>
<!-- Node67 -->
<g id="node11" class="node">
<title>Node67</title>
<g id="a_node11"><a xlink:href="../../dd/d4a/game__spec_8cpp.xhtml" target="_top" xlink:title="/mnt/c/Users/Jameson\l/Desktop/git/openage\l&#45;new&#45;doc&#45;system/libopenage\l/gamestate/game_spec.cpp">
<polygon fill="#ffffff" stroke="#000000" points="2566,-189.5 2566,-241.5 2707,-241.5 2707,-189.5 2566,-189.5"/>
<text text-anchor="start" x="2574" y="-229.5" font-family="Helvetica,sans-Serif" font-size="10.00" fill="#000000">/mnt/c/Users/Jameson</text>
<text text-anchor="start" x="2574" y="-218.5" font-family="Helvetica,sans-Serif" font-size="10.00" fill="#000000">/Desktop/git/openage</text>
<text text-anchor="start" x="2574" y="-207.5" font-family="Helvetica,sans-Serif" font-size="10.00" fill="#000000">&#45;new&#45;doc&#45;system/libopenage</text>
<text text-anchor="middle" x="2636.5" y="-196.5" font-family="Helvetica,sans-Serif" font-size="10.00" fill="#000000">/gamestate/game_spec.cpp</text>
</a>
</g>
</g>
<!-- Node58&#45;&gt;Node67 -->
<g id="edge10" class="edge">
<title>Node58&#45;&gt;Node67</title>
<path fill="none" stroke="#191970" d="M2250.4329,-295.2554C2329.2543,-285.3567 2452.1096,-267.5455 2556.5,-242 2559.4845,-241.2697 2562.5176,-240.4808 2565.5714,-239.648"/>
<polygon fill="#191970" stroke="#191970" points="2249.5801,-291.8344 2240.0881,-296.5408 2250.4434,-298.7809 2249.5801,-291.8344"/>
</g>
<!-- Node68 -->
<g id="node12" class="node">
<title>Node68</title>
<g id="a_node12"><a xlink:href="../../df/d79/engine__link_8cpp.xhtml" target="_top" xlink:title="/mnt/c/Users/Jameson\l/Desktop/git/openage\l&#45;new&#45;doc&#45;system/libopenage\l/gui/engine_link.cpp">
<polygon fill="#ffffff" stroke="#000000" points="2725,-189.5 2725,-241.5 2866,-241.5 2866,-189.5 2725,-189.5"/>
<text text-anchor="start" x="2733" y="-229.5" font-family="Helvetica,sans-Serif" font-size="10.00" fill="#000000">/mnt/c/Users/Jameson</text>
<text text-anchor="start" x="2733" y="-218.5" font-family="Helvetica,sans-Serif" font-size="10.00" fill="#000000">/Desktop/git/openage</text>
<text text-anchor="start" x="2733" y="-207.5" font-family="Helvetica,sans-Serif" font-size="10.00" fill="#000000">&#45;new&#45;doc&#45;system/libopenage</text>
<text text-anchor="middle" x="2795.5" y="-196.5" font-family="Helvetica,sans-Serif" font-size="10.00" fill="#000000">/gui/engine_link.cpp</text>
</a>
</g>
</g>
<!-- Node58&#45;&gt;Node68 -->
<g id="edge11" class="edge">
<title>Node58&#45;&gt;Node68</title>
<path fill="none" stroke="#191970" d="M2250.1812,-300.4656C2357.4841,-293.9213 2552.5754,-277.9072 2715.5,-242 2718.5005,-241.3387 2721.5471,-240.6076 2724.612,-239.8226"/>
<polygon fill="#191970" stroke="#191970" points="2249.8484,-296.9791 2240.0751,-301.0697 2250.2661,-303.9667 2249.8484,-296.9791"/>
</g>
<!-- Node69 -->
<g id="node13" class="node">
<title>Node69</title>
<g id="a_node13"><a xlink:href="../../d1/de8/game__control__link_8cpp.xhtml" target="_top" xlink:title="/mnt/c/Users/Jameson\l/Desktop/git/openage\l&#45;new&#45;doc&#45;system/libopenage\l/gui/game_control_link.cpp">
<polygon fill="#ffffff" stroke="#000000" points="1335,-95 1335,-147 1476,-147 1476,-95 1335,-95"/>
<text text-anchor="start" x="1343" y="-135" font-family="Helvetica,sans-Serif" font-size="10.00" fill="#000000">/mnt/c/Users/Jameson</text>
<text text-anchor="start" x="1343" y="-124" font-family="Helvetica,sans-Serif" font-size="10.00" fill="#000000">/Desktop/git/openage</text>
<text text-anchor="start" x="1343" y="-113" font-family="Helvetica,sans-Serif" font-size="10.00" fill="#000000">&#45;new&#45;doc&#45;system/libopenage</text>
<text text-anchor="middle" x="1405.5" y="-102" font-family="Helvetica,sans-Serif" font-size="10.00" fill="#000000">/gui/game_control_link.cpp</text>
</a>
</g>
</g>
<!-- Node58&#45;&gt;Node69 -->
<g id="edge12" class="edge">
<title>Node58&#45;&gt;Node69</title>
<path fill="none" stroke="#191970" d="M2193.7355,-269.3458C2207.9078,-244.0718 2219.465,-210.7479 2199.5,-189 2151.0814,-136.2574 1661.8286,-124.3495 1476.3104,-121.7232"/>
<polygon fill="#191970" stroke="#191970" points="2190.5412,-267.8704 2188.4493,-278.2567 2196.5616,-271.4419 2190.5412,-267.8704"/>
</g>
<!-- Node70 -->
<g id="node14" class="node">
<title>Node70</title>
<g id="a_node14"><a xlink:href="../../df/d64/game__main__link_8cpp.xhtml" target="_top" xlink:title="/mnt/c/Users/Jameson\l/Desktop/git/openage\l&#45;new&#45;doc&#45;system/libopenage\l/gui/game_main_link.cpp">
<polygon fill="#ffffff" stroke="#000000" points="2884,-189.5 2884,-241.5 3025,-241.5 3025,-189.5 2884,-189.5"/>
<text text-anchor="start" x="2892" y="-229.5" font-family="Helvetica,sans-Serif" font-size="10.00" fill="#000000">/mnt/c/Users/Jameson</text>
<text text-anchor="start" x="2892" y="-218.5" font-family="Helvetica,sans-Serif" font-size="10.00" fill="#000000">/Desktop/git/openage</text>
<text text-anchor="start" x="2892" y="-207.5" font-family="Helvetica,sans-Serif" font-size="10.00" fill="#000000">&#45;new&#45;doc&#45;system/libopenage</text>
<text text-anchor="middle" x="2954.5" y="-196.5" font-family="Helvetica,sans-Serif" font-size="10.00" fill="#000000">/gui/game_main_link.cpp</text>
</a>
</g>
</g>
<!-- Node58&#45;&gt;Node70 -->
<g id="edge13" class="edge">
<title>Node58&#45;&gt;Node70</title>
<path fill="none" stroke="#191970" d="M2250.425,-299.7385C2409.575,-289.9787 2758.0082,-266.5482 2875.5,-242 2878.1905,-241.4379 2880.9168,-240.8132 2883.6588,-240.1384"/>
<polygon fill="#191970" stroke="#191970" points="2249.9883,-296.2585 2240.2202,-300.3614 2250.4149,-303.2455 2249.9883,-296.2585"/>
</g>
<!-- Node71 -->
<g id="node15" class="node">
<title>Node71</title>
<g id="a_node15"><a xlink:href="../../d6/d86/gui_2gui_8cpp.xhtml" target="_top" xlink:title="/mnt/c/Users/Jameson\l/Desktop/git/openage\l&#45;new&#45;doc&#45;system/libopenage\l/gui/gui.cpp">
<polygon fill="#ffffff" stroke="#000000" points="3043,-189.5 3043,-241.5 3184,-241.5 3184,-189.5 3043,-189.5"/>
<text text-anchor="start" x="3051" y="-229.5" font-family="Helvetica,sans-Serif" font-size="10.00" fill="#000000">/mnt/c/Users/Jameson</text>
<text text-anchor="start" x="3051" y="-218.5" font-family="Helvetica,sans-Serif" font-size="10.00" fill="#000000">/Desktop/git/openage</text>
<text text-anchor="start" x="3051" y="-207.5" font-family="Helvetica,sans-Serif" font-size="10.00" fill="#000000">&#45;new&#45;doc&#45;system/libopenage</text>
<text text-anchor="middle" x="3113.5" y="-196.5" font-family="Helvetica,sans-Serif" font-size="10.00" fill="#000000">/gui/gui.cpp</text>
</a>
</g>
</g>
<!-- Node58&#45;&gt;Node71 -->
<g id="edge14" class="edge">
<title>Node58&#45;&gt;Node71</title>
<path fill="none" stroke="#191970" d="M2250.3573,-301.2563C2435.5297,-293.4069 2885.8092,-271.8144 3034.5,-242 3037.195,-241.4596 3039.9251,-240.8535 3042.6702,-240.1943"/>
<polygon fill="#191970" stroke="#191970" points="2249.9868,-297.7687 2240.1431,-301.6867 2250.2816,-304.7625 2249.9868,-297.7687"/>
</g>
<!-- Node72 -->
<g id="node16" class="node">
<title>Node72</title>
<g id="a_node16"><a xlink:href="../../df/d0a/main_8cpp.xhtml" target="_top" xlink:title="/mnt/c/Users/Jameson\l/Desktop/git/openage\l&#45;new&#45;doc&#45;system/libopenage\l/main.cpp">
<polygon fill="#ffffff" stroke="#000000" points="615,-189.5 615,-241.5 756,-241.5 756,-189.5 615,-189.5"/>
<text text-anchor="start" x="623" y="-229.5" font-family="Helvetica,sans-Serif" font-size="10.00" fill="#000000">/mnt/c/Users/Jameson</text>
<text text-anchor="start" x="623" y="-218.5" font-family="Helvetica,sans-Serif" font-size="10.00" fill="#000000">/Desktop/git/openage</text>
<text text-anchor="start" x="623" y="-207.5" font-family="Helvetica,sans-Serif" font-size="10.00" fill="#000000">&#45;new&#45;doc&#45;system/libopenage</text>
<text text-anchor="middle" x="685.5" y="-196.5" font-family="Helvetica,sans-Serif" font-size="10.00" fill="#000000">/main.cpp</text>
</a>
</g>
</g>
<!-- Node58&#45;&gt;Node72 -->
<g id="edge15" class="edge">
<title>Node58&#45;&gt;Node72</title>
<path fill="none" stroke="#191970" d="M2088.8056,-303.8623C1829.7657,-301.3517 1021.2148,-289.7896 764.5,-242 761.7978,-241.497 759.0616,-240.9226 756.3112,-240.2903"/>
<polygon fill="#191970" stroke="#191970" points="2088.858,-307.3629 2098.8908,-303.9581 2088.9246,-300.3632 2088.858,-307.3629"/>
</g>
<!-- Node73 -->
<g id="node17" class="node">
<title>Node73</title>
<g id="a_node17"><a xlink:href="../../dc/dcd/terrain_8cpp.xhtml" target="_top" xlink:title="/mnt/c/Users/Jameson\l/Desktop/git/openage\l&#45;new&#45;doc&#45;system/libopenage\l/terrain/terrain.cpp">
<polygon fill="#ffffff" stroke="#000000" points="3202,-189.5 3202,-241.5 3343,-241.5 3343,-189.5 3202,-189.5"/>
<text text-anchor="start" x="3210" y="-229.5" font-family="Helvetica,sans-Serif" font-size="10.00" fill="#000000">/mnt/c/Users/Jameson</text>
<text text-anchor="start" x="3210" y="-218.5" font-family="Helvetica,sans-Serif" font-size="10.00" fill="#000000">/Desktop/git/openage</text>
<text text-anchor="start" x="3210" y="-207.5" font-family="Helvetica,sans-Serif" font-size="10.00" fill="#000000">&#45;new&#45;doc&#45;system/libopenage</text>
<text text-anchor="middle" x="3272.5" y="-196.5" font-family="Helvetica,sans-Serif" font-size="10.00" fill="#000000">/terrain/terrain.cpp</text>
</a>
</g>
</g>
<!-- Node58&#45;&gt;Node73 -->
<g id="edge16" class="edge">
<title>Node58&#45;&gt;Node73</title>
<path fill="none" stroke="#191970" d="M2250.3802,-302.3041C2459.319,-296.1929 3013.3031,-277.0861 3193.5,-242 3196.1979,-241.4747 3198.9306,-240.8814 3201.6779,-240.233"/>
<polygon fill="#191970" stroke="#191970" points="2249.9911,-298.8139 2240.0969,-302.6025 2250.1942,-305.8109 2249.9911,-298.8139"/>
</g>
<!-- Node74 -->
<g id="node18" class="node">
<title>Node74</title>
<g id="a_node18"><a xlink:href="../../d8/d52/terrain__chunk_8cpp.xhtml" target="_top" xlink:title="/mnt/c/Users/Jameson\l/Desktop/git/openage\l&#45;new&#45;doc&#45;system/libopenage\l/terrain/terrain_chunk.cpp">
<polygon fill="#ffffff" stroke="#000000" points="3361,-189.5 3361,-241.5 3502,-241.5 3502,-189.5 3361,-189.5"/>
<text text-anchor="start" x="3369" y="-229.5" font-family="Helvetica,sans-Serif" font-size="10.00" fill="#000000">/mnt/c/Users/Jameson</text>
<text text-anchor="start" x="3369" y="-218.5" font-family="Helvetica,sans-Serif" font-size="10.00" fill="#000000">/Desktop/git/openage</text>
<text text-anchor="start" x="3369" y="-207.5" font-family="Helvetica,sans-Serif" font-size="10.00" fill="#000000">&#45;new&#45;doc&#45;system/libopenage</text>
<text text-anchor="middle" x="3431.5" y="-196.5" font-family="Helvetica,sans-Serif" font-size="10.00" fill="#000000">/terrain/terrain_chunk.cpp</text>
</a>
</g>
</g>
<!-- Node58&#45;&gt;Node74 -->
<g id="edge17" class="edge">
<title>Node58&#45;&gt;Node74</title>
<path fill="none" stroke="#191970" d="M2250.2094,-303.0774C2480.9623,-298.5594 3140.4833,-282.3828 3352.5,-242 3355.2001,-241.4857 3357.9345,-240.9018 3360.6833,-240.2614"/>
<polygon fill="#191970" stroke="#191970" points="2250.1356,-299.578 2240.2053,-303.2712 2250.2712,-306.5767 2250.1356,-299.578"/>
</g>
<!-- Node75 -->
<g id="node19" class="node">
<title>Node75</title>
<g id="a_node19"><a xlink:href="../../d5/d40/terrain__object_8cpp.xhtml" target="_top" xlink:title="/mnt/c/Users/Jameson\l/Desktop/git/openage\l&#45;new&#45;doc&#45;system/libopenage\l/terrain/terrain_object.cpp">
<polygon fill="#ffffff" stroke="#000000" points="3520,-189.5 3520,-241.5 3661,-241.5 3661,-189.5 3520,-189.5"/>
<text text-anchor="start" x="3528" y="-229.5" font-family="Helvetica,sans-Serif" font-size="10.00" fill="#000000">/mnt/c/Users/Jameson</text>
<text text-anchor="start" x="3528" y="-218.5" font-family="Helvetica,sans-Serif" font-size="10.00" fill="#000000">/Desktop/git/openage</text>
<text text-anchor="start" x="3528" y="-207.5" font-family="Helvetica,sans-Serif" font-size="10.00" fill="#000000">&#45;new&#45;doc&#45;system/libopenage</text>
<text text-anchor="middle" x="3590.5" y="-196.5" font-family="Helvetica,sans-Serif" font-size="10.00" fill="#000000">/terrain/terrain_object.cpp</text>
</a>
</g>
</g>
<!-- Node58&#45;&gt;Node75 -->
<g id="edge18" class="edge">
<title>Node58&#45;&gt;Node75</title>
<path fill="none" stroke="#191970" d="M2250.4408,-302.0361C2521.6165,-293.6005 3388.0009,-265.1235 3511.5,-242 3514.2017,-241.4942 3516.9375,-240.9174 3519.6874,-240.2831"/>
<polygon fill="#191970" stroke="#191970" points="2250.1647,-298.5429 2240.2781,-302.3515 2250.3819,-305.5395 2250.1647,-298.5429"/>
</g>
<!-- Node76 -->
<g id="node20" class="node">
<title>Node76</title>
<g id="a_node20"><a xlink:href="../../de/d96/unit_2action_8cpp.xhtml" target="_top" xlink:title="/mnt/c/Users/Jameson\l/Desktop/git/openage\l&#45;new&#45;doc&#45;system/libopenage\l/unit/action.cpp">
<polygon fill="#ffffff" stroke="#000000" points="774,-189.5 774,-241.5 915,-241.5 915,-189.5 774,-189.5"/>
<text text-anchor="start" x="782" y="-229.5" font-family="Helvetica,sans-Serif" font-size="10.00" fill="#000000">/mnt/c/Users/Jameson</text>
<text text-anchor="start" x="782" y="-218.5" font-family="Helvetica,sans-Serif" font-size="10.00" fill="#000000">/Desktop/git/openage</text>
<text text-anchor="start" x="782" y="-207.5" font-family="Helvetica,sans-Serif" font-size="10.00" fill="#000000">&#45;new&#45;doc&#45;system/libopenage</text>
<text text-anchor="middle" x="844.5" y="-196.5" font-family="Helvetica,sans-Serif" font-size="10.00" fill="#000000">/unit/action.cpp</text>
</a>
</g>
</g>
<!-- Node58&#45;&gt;Node76 -->
<g id="edge19" class="edge">
<title>Node58&#45;&gt;Node76</title>
<path fill="none" stroke="#191970" d="M2088.6637,-303.3261C1849.5056,-299.3974 1148.1242,-284.4741 923.5,-242 920.7993,-241.4893 918.0642,-240.9085 915.3149,-240.2707"/>
<polygon fill="#191970" stroke="#191970" points="2088.6248,-306.8258 2098.6803,-303.4886 2088.7384,-299.8267 2088.6248,-306.8258"/>
</g>
<!-- Node77 -->
<g id="node21" class="node">
<title>Node77</title>
<g id="a_node21"><a xlink:href="../../db/d66/producer_8cpp.xhtml" target="_top" xlink:title="Many values in this file are hardcoded, due to limited understanding of how the original game files w...">
<polygon fill="#ffffff" stroke="#000000" points="933,-189.5 933,-241.5 1074,-241.5 1074,-189.5 933,-189.5"/>
<text text-anchor="start" x="941" y="-229.5" font-family="Helvetica,sans-Serif" font-size="10.00" fill="#000000">/mnt/c/Users/Jameson</text>
<text text-anchor="start" x="941" y="-218.5" font-family="Helvetica,sans-Serif" font-size="10.00" fill="#000000">/Desktop/git/openage</text>
<text text-anchor="start" x="941" y="-207.5" font-family="Helvetica,sans-Serif" font-size="10.00" fill="#000000">&#45;new&#45;doc&#45;system/libopenage</text>
<text text-anchor="middle" x="1003.5" y="-196.5" font-family="Helvetica,sans-Serif" font-size="10.00" fill="#000000">/unit/producer.cpp</text>
</a>
</g>
</g>
<!-- Node58&#45;&gt;Node77 -->
<g id="edge20" class="edge">
<title>Node58&#45;&gt;Node77</title>
<path fill="none" stroke="#191970" d="M2088.6129,-302.6356C1870.773,-297.1703 1275.2547,-279.1787 1082.5,-242 1079.8011,-241.4794 1077.0677,-240.8902 1074.3198,-240.2453"/>
<polygon fill="#191970" stroke="#191970" points="2088.6137,-306.1366 2098.6977,-302.8864 2088.7878,-299.1388 2088.6137,-306.1366"/>
</g>
<!-- Node58&#45;&gt;Node78 -->
<g id="edge21" class="edge">
<title>Node58&#45;&gt;Node78</title>
<path fill="none" stroke="#191970" d="M2250.4968,-301.7598C2552.6489,-291.4556 3600.3197,-254.9616 3670.5,-242 3673.2029,-241.5008 3675.9397,-240.9297 3678.6906,-240.3002"/>
<polygon fill="#191970" stroke="#191970" points="2249.9407,-298.2766 2240.0657,-302.1152 2250.1791,-305.2725 2249.9407,-298.2766"/>
</g>
<!-- Node79 -->
<g id="node23" class="node">
<title>Node79</title>
<g id="a_node23"><a xlink:href="../../d7/d49/unit_8cpp.xhtml" target="_top" xlink:title="/mnt/c/Users/Jameson\l/Desktop/git/openage\l&#45;new&#45;doc&#45;system/libopenage\l/unit/unit.cpp">
<polygon fill="#ffffff" stroke="#000000" points="1092,-189.5 1092,-241.5 1233,-241.5 1233,-189.5 1092,-189.5"/>
<text text-anchor="start" x="1100" y="-229.5" font-family="Helvetica,sans-Serif" font-size="10.00" fill="#000000">/mnt/c/Users/Jameson</text>
<text text-anchor="start" x="1100" y="-218.5" font-family="Helvetica,sans-Serif" font-size="10.00" fill="#000000">/Desktop/git/openage</text>
<text text-anchor="start" x="1100" y="-207.5" font-family="Helvetica,sans-Serif" font-size="10.00" fill="#000000">&#45;new&#45;doc&#45;system/libopenage</text>
<text text-anchor="middle" x="1162.5" y="-196.5" font-family="Helvetica,sans-Serif" font-size="10.00" fill="#000000">/unit/unit.cpp</text>
</a>
</g>
</g>
<!-- Node58&#45;&gt;Node79 -->
<g id="edge22" class="edge">
<title>Node58&#45;&gt;Node79</title>
<path fill="none" stroke="#191970" d="M2088.7111,-301.7167C1893.9337,-294.578 1402.6612,-273.9059 1241.5,-242 1238.8037,-241.4662 1236.0725,-240.8657 1233.3264,-240.2112"/>
<polygon fill="#191970" stroke="#191970" points="2088.7572,-305.2206 2098.878,-302.0869 2089.012,-298.2252 2088.7572,-305.2206"/>
</g>
<!-- Node80 -->
<g id="node24" class="node">
<title>Node80</title>
<g id="a_node24"><a xlink:href="../../da/d97/profiler_8cpp.xhtml" target="_top" xlink:title="/mnt/c/Users/Jameson\l/Desktop/git/openage\l&#45;new&#45;doc&#45;system/libopenage\l/util/profiler.cpp">
<polygon fill="#ffffff" stroke="#000000" points="1251,-189.5 1251,-241.5 1392,-241.5 1392,-189.5 1251,-189.5"/>
<text text-anchor="start" x="1259" y="-229.5" font-family="Helvetica,sans-Serif" font-size="10.00" fill="#000000">/mnt/c/Users/Jameson</text>
<text text-anchor="start" x="1259" y="-218.5" font-family="Helvetica,sans-Serif" font-size="10.00" fill="#000000">/Desktop/git/openage</text>
<text text-anchor="start" x="1259" y="-207.5" font-family="Helvetica,sans-Serif" font-size="10.00" fill="#000000">&#45;new&#45;doc&#45;system/libopenage</text>
<text text-anchor="middle" x="1321.5" y="-196.5" font-family="Helvetica,sans-Serif" font-size="10.00" fill="#000000">/util/profiler.cpp</text>
</a>
</g>
</g>
<!-- Node58&#45;&gt;Node80 -->
<g id="edge23" class="edge">
<title>Node58&#45;&gt;Node80</title>
<path fill="none" stroke="#191970" d="M2088.6553,-300.3688C1919.0766,-291.3031 1531.1732,-268.3587 1401.5,-242 1398.4891,-241.388 1395.4338,-240.698 1392.3617,-239.9471"/>
<polygon fill="#191970" stroke="#191970" points="2088.5987,-303.8706 2098.7706,-300.9069 2088.9707,-296.8805 2088.5987,-303.8706"/>
</g>
<!-- Node81&#45;&gt;Node64 -->
<g id="edge25" class="edge">
<title>Node81&#45;&gt;Node64</title>
<path fill="none" stroke="#191970" d="M526.5,-268.1155C526.5,-259.2061 526.5,-249.8475 526.5,-241.5341"/>
<polygon fill="#191970" stroke="#191970" points="523.0001,-268.2784 526.5,-278.2784 530.0001,-268.2785 523.0001,-268.2784"/>
</g>
<!-- Node81&#45;&gt;Node72 -->
<g id="edge34" class="edge">
<title>Node81&#45;&gt;Node72</title>
<path fill="none" stroke="#191970" d="M582.2712,-273.2821C600.8045,-262.9082 621.2318,-251.4741 638.9896,-241.5341"/>
<polygon fill="#191970" stroke="#191970" points="580.3617,-270.3399 573.3453,-278.2784 583.7808,-276.4481 580.3617,-270.3399"/>
</g>
<!-- Node82 -->
<g id="node26" class="node">
<title>Node82</title>
<g id="a_node26"><a xlink:href="../../da/dfb/game__control__link_8h.xhtml" target="_top" xlink:title="/mnt/c/Users/Jameson\l/Desktop/git/openage\l&#45;new&#45;doc&#45;system/libopenage\l/gui/game_control_link.h">
<polygon fill="#ffffff" stroke="#000000" points="258,-189.5 258,-241.5 399,-241.5 399,-189.5 258,-189.5"/>
<text text-anchor="start" x="266" y="-229.5" font-family="Helvetica,sans-Serif" font-size="10.00" fill="#000000">/mnt/c/Users/Jameson</text>
<text text-anchor="start" x="266" y="-218.5" font-family="Helvetica,sans-Serif" font-size="10.00" fill="#000000">/Desktop/git/openage</text>
<text text-anchor="start" x="266" y="-207.5" font-family="Helvetica,sans-Serif" font-size="10.00" fill="#000000">&#45;new&#45;doc&#45;system/libopenage</text>
<text text-anchor="middle" x="328.5" y="-196.5" font-family="Helvetica,sans-Serif" font-size="10.00" fill="#000000">/gui/game_control_link.h</text>
</a>
</g>
</g>
<!-- Node81&#45;&gt;Node82 -->
<g id="edge26" class="edge">
<title>Node81&#45;&gt;Node82</title>
<path fill="none" stroke="#191970" d="M459.1941,-274.2464C435.606,-263.6436 409.3342,-251.8346 386.5676,-241.6011"/>
<polygon fill="#191970" stroke="#191970" points="457.8754,-277.4909 468.4313,-278.3984 460.7453,-271.1062 457.8754,-277.4909"/>
</g>
<!-- Node86 -->
<g id="node30" class="node">
<title>Node86</title>
<g id="a_node30"><a xlink:href="../../de/d32/resources__list__model_8cpp.xhtml" target="_top" xlink:title="/mnt/c/Users/Jameson\l/Desktop/git/openage\l&#45;new&#45;doc&#45;system/libopenage\l/gui/resources_list_model.cpp">
<polygon fill="#ffffff" stroke="#000000" points="356.5,-95 356.5,-147 502.5,-147 502.5,-95 356.5,-95"/>
<text text-anchor="start" x="364.5" y="-135" font-family="Helvetica,sans-Serif" font-size="10.00" fill="#000000">/mnt/c/Users/Jameson</text>
<text text-anchor="start" x="364.5" y="-124" font-family="Helvetica,sans-Serif" font-size="10.00" fill="#000000">/Desktop/git/openage</text>
<text text-anchor="start" x="364.5" y="-113" font-family="Helvetica,sans-Serif" font-size="10.00" fill="#000000">&#45;new&#45;doc&#45;system/libopenage</text>
<text text-anchor="middle" x="429.5" y="-102" font-family="Helvetica,sans-Serif" font-size="10.00" fill="#000000">/gui/resources_list_model.cpp</text>
</a>
</g>
</g>
<!-- Node81&#45;&gt;Node86 -->
<g id="edge33" class="edge">
<title>Node81&#45;&gt;Node86</title>
<path fill="none" stroke="#191970" d="M472.9492,-272.086C462.6883,-263.5271 453.101,-253.4335 446.5,-242 429.6358,-212.7896 427.1622,-173.1873 427.7089,-147.37"/>
<polygon fill="#191970" stroke="#191970" points="470.8644,-274.899 480.8888,-278.3286 475.1911,-269.3963 470.8644,-274.899"/>
</g>
<!-- Node82&#45;&gt;Node69 -->
<g id="edge31" class="edge">
<title>Node82&#45;&gt;Node69</title>
<path fill="none" stroke="#191970" d="M409.2014,-195.692C421.635,-193.1294 434.3703,-190.7818 446.5,-189 776.365,-140.5451 1175.325,-126.3062 1334.7233,-122.3882"/>
<polygon fill="#191970" stroke="#191970" points="408.3697,-192.2905 399.3119,-197.7866 409.8201,-199.1385 408.3697,-192.2905"/>
</g>
<!-- Node83 -->
<g id="node27" class="node">
<title>Node83</title>
<g id="a_node27"><a xlink:href="../../d7/d15/actions__list__model_8h.xhtml" target="_top" xlink:title="/mnt/c/Users/Jameson\l/Desktop/git/openage\l&#45;new&#45;doc&#45;system/libopenage\l/gui/actions_list_model.h">
<polygon fill="#ffffff" stroke="#000000" points="159,-95 159,-147 300,-147 300,-95 159,-95"/>
<text text-anchor="start" x="167" y="-135" font-family="Helvetica,sans-Serif" font-size="10.00" fill="#000000">/mnt/c/Users/Jameson</text>
<text text-anchor="start" x="167" y="-124" font-family="Helvetica,sans-Serif" font-size="10.00" fill="#000000">/Desktop/git/openage</text>
<text text-anchor="start" x="167" y="-113" font-family="Helvetica,sans-Serif" font-size="10.00" fill="#000000">&#45;new&#45;doc&#45;system/libopenage</text>
<text text-anchor="middle" x="229.5" y="-102" font-family="Helvetica,sans-Serif" font-size="10.00" fill="#000000">/gui/actions_list_model.h</text>
</a>
</g>
</g>
<!-- Node82&#45;&gt;Node83 -->
<g id="edge27" class="edge">
<title>Node82&#45;&gt;Node83</title>
<path fill="none" stroke="#191970" d="M293.8775,-182.4512C281.824,-170.9457 268.4731,-158.2016 257.0688,-147.3157"/>
<polygon fill="#191970" stroke="#191970" points="291.5355,-185.0543 301.1857,-189.4273 296.3688,-179.9908 291.5355,-185.0543"/>
</g>
<!-- Node84 -->
<g id="node28" class="node">
<title>Node84</title>
<g id="a_node28"><a xlink:href="../../df/dfa/actions__list__model_8cpp.xhtml" target="_top" xlink:title="/mnt/c/Users/Jameson\l/Desktop/git/openage\l&#45;new&#45;doc&#45;system/libopenage\l/gui/actions_list_model.cpp">
<polygon fill="#ffffff" stroke="#000000" points="208,-.5 208,-52.5 349,-52.5 349,-.5 208,-.5"/>
<text text-anchor="start" x="216" y="-40.5" font-family="Helvetica,sans-Serif" font-size="10.00" fill="#000000">/mnt/c/Users/Jameson</text>
<text text-anchor="start" x="216" y="-29.5" font-family="Helvetica,sans-Serif" font-size="10.00" fill="#000000">/Desktop/git/openage</text>
<text text-anchor="start" x="216" y="-18.5" font-family="Helvetica,sans-Serif" font-size="10.00" fill="#000000">&#45;new&#45;doc&#45;system/libopenage</text>
<text text-anchor="middle" x="278.5" y="-7.5" font-family="Helvetica,sans-Serif" font-size="10.00" fill="#000000">/gui/actions_list_model.cpp</text>
</a>
</g>
</g>
<!-- Node82&#45;&gt;Node84 -->
<g id="edge29" class="edge">
<title>Node82&#45;&gt;Node84</title>
<path fill="none" stroke="#191970" d="M325.5932,-179.2842C322.8578,-153.6376 317.7466,-118.6643 308.5,-89 304.6317,-76.5901 298.688,-63.5274 293.1084,-52.5714"/>
<polygon fill="#191970" stroke="#191970" points="322.1184,-179.7118 326.5931,-189.3153 329.0838,-179.0174 322.1184,-179.7118"/>
</g>
<!-- Node85 -->
<g id="node29" class="node">
<title>Node85</title>
<g id="a_node29"><a xlink:href="../../df/d6a/category__contents__list__model_8cpp.xhtml" target="_top" xlink:title="/mnt/c/Users/Jameson\l/Desktop/git/openage\l&#45;new&#45;doc&#45;system/libopenage\l/gui/category_contents_list\l_model.cpp">
<polygon fill="#ffffff" stroke="#000000" points="0,-89.5 0,-152.5 141,-152.5 141,-89.5 0,-89.5"/>
<text text-anchor="start" x="8" y="-140.5" font-family="Helvetica,sans-Serif" font-size="10.00" fill="#000000">/mnt/c/Users/Jameson</text>
<text text-anchor="start" x="8" y="-129.5" font-family="Helvetica,sans-Serif" font-size="10.00" fill="#000000">/Desktop/git/openage</text>
<text text-anchor="start" x="8" y="-118.5" font-family="Helvetica,sans-Serif" font-size="10.00" fill="#000000">&#45;new&#45;doc&#45;system/libopenage</text>
<text text-anchor="start" x="8" y="-107.5" font-family="Helvetica,sans-Serif" font-size="10.00" fill="#000000">/gui/category_contents_list</text>
<text text-anchor="middle" x="70.5" y="-96.5" font-family="Helvetica,sans-Serif" font-size="10.00" fill="#000000">_model.cpp</text>
</a>
</g>
</g>
<!-- Node82&#45;&gt;Node85 -->
<g id="edge30" class="edge">
<title>Node82&#45;&gt;Node85</title>
<path fill="none" stroke="#191970" d="M247.7969,-188.2605C216.9245,-177.5948 181.4627,-165.0453 149.5,-153 146.7306,-151.9563 143.9117,-150.8804 141.068,-149.7837"/>
<polygon fill="#191970" stroke="#191970" points="247.0541,-191.7064 257.6488,-191.6542 249.334,-185.0881 247.0541,-191.7064"/>
</g>
<!-- Node82&#45;&gt;Node86 -->
<g id="edge32" class="edge">
<title>Node82&#45;&gt;Node86</title>
<path fill="none" stroke="#191970" d="M363.822,-182.4512C376.1189,-170.9457 389.7396,-158.2016 401.3743,-147.3157"/>
<polygon fill="#191970" stroke="#191970" points="361.2769,-180.0393 356.3661,-189.4273 366.0595,-185.1508 361.2769,-180.0393"/>
</g>
<!-- Node83&#45;&gt;Node84 -->
<g id="edge28" class="edge">
<title>Node83&#45;&gt;Node84</title>
<path fill="none" stroke="#191970" d="M247.6554,-85.9861C253.3472,-75.0089 259.5298,-63.0854 264.8548,-52.8157"/>
<polygon fill="#191970" stroke="#191970" points="244.5153,-84.4386 243.0192,-94.9273 250.7295,-87.6609 244.5153,-84.4386"/>
</g>
</g>
</svg>
