<?xml version="1.0" encoding="UTF-8" standalone="no"?>
<!DOCTYPE svg PUBLIC "-//W3C//DTD SVG 1.1//EN"
 "http://www.w3.org/Graphics/SVG/1.1/DTD/svg11.dtd">
<!-- Generated by graphviz version 2.40.1 (20161225.0304)
 -->
<!-- Title: openage::gui::GuiGameSpecImageProviderImpl::on_game_spec_loaded Pages: 1 -->
<svg width="1177pt" height="132pt"
 viewBox="0.00 0.00 1177.00 131.50" xmlns="http://www.w3.org/2000/svg" xmlns:xlink="http://www.w3.org/1999/xlink">
<g id="graph0" class="graph" transform="scale(1 1) rotate(0) translate(4 127.5)">
<title>openage::gui::GuiGameSpecImageProviderImpl::on_game_spec_loaded</title>
<polygon fill="#ffffff" stroke="transparent" points="-4,4 -4,-127.5 1173,-127.5 1173,4 -4,4"/>
<!-- Node51 -->
<g id="node1" class="node">
<title>Node51</title>
<polygon fill="#bfbfbf" stroke="#000000" points="0,-68 0,-109 144,-109 144,-68 0,-68"/>
<text text-anchor="start" x="8" y="-97" font-family="Helvetica,sans-Serif" font-size="10.00" fill="#000000">openage::gui::GuiGameSpec</text>
<text text-anchor="start" x="8" y="-86" font-family="Helvetica,sans-Serif" font-size="10.00" fill="#000000">ImageProviderImpl::on_game</text>
<text text-anchor="middle" x="72" y="-75" font-family="Helvetica,sans-Serif" font-size="10.00" fill="#000000">_spec_loaded</text>
</g>
<!-- Node52 -->
<g id="node2" class="node">
<title>Node52</title>
<g id="a_node2"><a xlink:href="../../d3/d9a/classopenage_1_1gui_1_1_gui_game_spec_image_provider_impl.xhtml#ab296b31a83e17fbd14f7106ce4c2a54a" target="_top" xlink:title="Change the already produced texture handles to use new source. ">
<polygon fill="#ffffff" stroke="#000000" points="180,-68 180,-109 322,-109 322,-68 180,-68"/>
<text text-anchor="start" x="188" y="-97" font-family="Helvetica,sans-Serif" font-size="10.00" fill="#000000">openage::gui::GuiGameSpec</text>
<text text-anchor="start" x="188" y="-86" font-family="Helvetica,sans-Serif" font-size="10.00" fill="#000000">ImageProviderImpl::migrate</text>
<text text-anchor="middle" x="251" y="-75" font-family="Helvetica,sans-Serif" font-size="10.00" fill="#000000">_to_new_game_spec</text>
</a>
</g>
</g>
<!-- Node51&#45;&gt;Node52 -->
<g id="edge1" class="edge">
<title>Node51&#45;&gt;Node52</title>
<path fill="none" stroke="#191970" d="M144.0324,-88.5C152.551,-88.5 161.2893,-88.5 169.9221,-88.5"/>
<polygon fill="#191970" stroke="#191970" points="169.9884,-92.0001 179.9883,-88.5 169.9883,-85.0001 169.9884,-92.0001"/>
</g>
<!-- Node53 -->
<g id="node3" class="node">
<title>Node53</title>
<g id="a_node3"><a xlink:href="../../d3/db5/namespaceopenage_1_1renderer.xhtml#a00b1f2873c9bbd71a19b3a26bd11d03e" target="_top" xlink:title="Make this vertex array object the current one. ">
<polygon fill="#ffffff" stroke="#000000" points="370.5,-104 370.5,-123 489.5,-123 489.5,-104 370.5,-104"/>
<text text-anchor="middle" x="430" y="-111" font-family="Helvetica,sans-Serif" font-size="10.00" fill="#000000">openage::renderer::bind</text>
</a>
</g>
</g>
<!-- Node52&#45;&gt;Node53 -->
<g id="edge2" class="edge">
<title>Node52&#45;&gt;Node53</title>
<path fill="none" stroke="#191970" d="M322.0026,-98.4166C334.6338,-100.1807 347.779,-102.0166 360.3714,-103.7753"/>
<polygon fill="#191970" stroke="#191970" points="359.9434,-107.2495 370.3315,-105.1664 360.9117,-100.3167 359.9434,-107.2495"/>
</g>
<!-- Node54 -->
<g id="node4" class="node">
<title>Node54</title>
<g id="a_node4"><a xlink:href="../../d3/d9a/classopenage_1_1gui_1_1_gui_game_spec_image_provider_impl.xhtml#ac4c74475a47396d2e1824d2625e9d666" target="_top" xlink:title="openage::gui::GuiGameSpec\lImageProviderImpl::overwrite\l_texture_handle">
<polygon fill="#ffffff" stroke="#000000" points="358,-44 358,-85 502,-85 502,-44 358,-44"/>
<text text-anchor="start" x="366" y="-73" font-family="Helvetica,sans-Serif" font-size="10.00" fill="#000000">openage::gui::GuiGameSpec</text>
<text text-anchor="start" x="366" y="-62" font-family="Helvetica,sans-Serif" font-size="10.00" fill="#000000">ImageProviderImpl::overwrite</text>
<text text-anchor="middle" x="430" y="-51" font-family="Helvetica,sans-Serif" font-size="10.00" fill="#000000">_texture_handle</text>
</a>
</g>
</g>
<!-- Node52&#45;&gt;Node54 -->
<g id="edge3" class="edge">
<title>Node52&#45;&gt;Node54</title>
<path fill="none" stroke="#191970" d="M322.0026,-78.9801C330.4915,-77.8419 339.2126,-76.6726 347.842,-75.5156"/>
<polygon fill="#191970" stroke="#191970" points="348.4645,-78.9635 357.9107,-74.1656 347.5343,-72.0256 348.4645,-78.9635"/>
</g>
<!-- Node55 -->
<g id="node5" class="node">
<title>Node55</title>
<g id="a_node5"><a xlink:href="../../d3/d9a/classopenage_1_1gui_1_1_gui_game_spec_image_provider_impl.xhtml#a28738ee06bd6ef675a723b0db02433c2" target="_top" xlink:title="openage::gui::GuiGameSpec\lImageProviderImpl::get\l_texture_handle">
<polygon fill="#ffffff" stroke="#000000" points="538,-72 538,-113 680,-113 680,-72 538,-72"/>
<text text-anchor="start" x="546" y="-101" font-family="Helvetica,sans-Serif" font-size="10.00" fill="#000000">openage::gui::GuiGameSpec</text>
<text text-anchor="start" x="546" y="-90" font-family="Helvetica,sans-Serif" font-size="10.00" fill="#000000">ImageProviderImpl::get</text>
<text text-anchor="middle" x="609" y="-79" font-family="Helvetica,sans-Serif" font-size="10.00" fill="#000000">_texture_handle</text>
</a>
</g>
</g>
<!-- Node54&#45;&gt;Node55 -->
<g id="edge4" class="edge">
<title>Node54&#45;&gt;Node55</title>
<path fill="none" stroke="#191970" d="M502.0324,-75.7676C510.551,-77.1002 519.2893,-78.467 527.9221,-79.8174"/>
<polygon fill="#191970" stroke="#191970" points="527.5675,-83.3044 537.9883,-81.392 528.6494,-76.3885 527.5675,-83.3044"/>
</g>
<!-- Node56 -->
<g id="node6" class="node">
<title>Node56</title>
<g id="a_node6"><a xlink:href="../../d3/d8f/namespaceopenage_1_1gui.xhtml#a1ed7c99cf0d2a47548927d8d688b0c42" target="_top" xlink:title="The sourceSize property of the Image QML element ends up here for checking. ">
<polygon fill="#ffffff" stroke="#000000" points="555.5,-22.5 555.5,-52.5 662.5,-52.5 662.5,-22.5 555.5,-22.5"/>
<text text-anchor="start" x="563.5" y="-40.5" font-family="Helvetica,sans-Serif" font-size="10.00" fill="#000000">openage::gui::aspect</text>
<text text-anchor="middle" x="609" y="-29.5" font-family="Helvetica,sans-Serif" font-size="10.00" fill="#000000">_fit_size</text>
</a>
</g>
</g>
<!-- Node54&#45;&gt;Node56 -->
<g id="edge5" class="edge">
<title>Node54&#45;&gt;Node56</title>
<path fill="none" stroke="#191970" d="M502.0324,-53.6348C516.3381,-51.4769 531.2633,-49.2257 545.2682,-47.1132"/>
<polygon fill="#191970" stroke="#191970" points="545.9152,-50.5553 555.2813,-45.6028 544.8711,-43.6336 545.9152,-50.5553"/>
</g>
<!-- Node57 -->
<g id="node7" class="node">
<title>Node57</title>
<g id="a_node7"><a xlink:href="../../d3/d8f/namespaceopenage_1_1gui.xhtml#a4f415900a4d4e55b09b0be3c2ba60d54" target="_top" xlink:title="openage::gui::native_size">
<polygon fill="#ffffff" stroke="#000000" points="716,-28 716,-47 844,-47 844,-28 716,-28"/>
<text text-anchor="middle" x="780" y="-35" font-family="Helvetica,sans-Serif" font-size="10.00" fill="#000000">openage::gui::native_size</text>
</a>
</g>
</g>
<!-- Node56&#45;&gt;Node57 -->
<g id="edge6" class="edge">
<title>Node56&#45;&gt;Node57</title>
<path fill="none" stroke="#191970" d="M662.6363,-37.5C676.1927,-37.5 690.9963,-37.5 705.3821,-37.5"/>
<polygon fill="#191970" stroke="#191970" points="705.7596,-41.0001 715.7595,-37.5 705.7595,-34.0001 705.7596,-41.0001"/>
</g>
<!-- Node58 -->
<g id="node8" class="node">
<title>Node58</title>
<g id="a_node8"><a xlink:href="../../d4/d5b/classopenage_1_1_texture.xhtml#aa2ba756d0a2a61a5dada563790e3ceec" target="_top" xlink:title="Get the subtexture coordinates by its id. ">
<polygon fill="#ffffff" stroke="#000000" points="894.5,-44.5 894.5,-74.5 1006.5,-74.5 1006.5,-44.5 894.5,-44.5"/>
<text text-anchor="start" x="902.5" y="-62.5" font-family="Helvetica,sans-Serif" font-size="10.00" fill="#000000">openage::Texture::get</text>
<text text-anchor="middle" x="950.5" y="-51.5" font-family="Helvetica,sans-Serif" font-size="10.00" fill="#000000">_subtexture</text>
</a>
</g>
</g>
<!-- Node57&#45;&gt;Node58 -->
<g id="edge7" class="edge">
<title>Node57&#45;&gt;Node58</title>
<path fill="none" stroke="#191970" d="M844.4587,-45.8173C857.4061,-47.4879 871.0349,-49.2464 884.0486,-50.9256"/>
<polygon fill="#191970" stroke="#191970" points="883.963,-54.4435 894.3287,-52.2521 884.8588,-47.5011 883.963,-54.4435"/>
</g>
<!-- Node59 -->
<g id="node9" class="node">
<title>Node59</title>
<g id="a_node9"><a xlink:href="../../d3/d8f/namespaceopenage_1_1gui.xhtml#af717f0e1527d227ea7c4a8e9f34e87b8" target="_top" xlink:title="openage::gui::isAtlasTexture">
<polygon fill="#ffffff" stroke="#000000" points="880,-6 880,-25 1021,-25 1021,-6 880,-6"/>
<text text-anchor="middle" x="950.5" y="-13" font-family="Helvetica,sans-Serif" font-size="10.00" fill="#000000">openage::gui::isAtlasTexture</text>
</a>
</g>
</g>
<!-- Node57&#45;&gt;Node59 -->
<g id="edge8" class="edge">
<title>Node57&#45;&gt;Node59</title>
<path fill="none" stroke="#191970" d="M844.4587,-29.1827C852.7956,-28.107 861.415,-26.9948 869.9708,-25.8909"/>
<polygon fill="#191970" stroke="#191970" points="870.4948,-29.3524 879.9647,-24.6013 869.5989,-22.4099 870.4948,-29.3524"/>
</g>
<!-- Node60 -->
<g id="node10" class="node">
<title>Node60</title>
<g id="a_node10"><a xlink:href="../../d4/d5b/classopenage_1_1_texture.xhtml#a4548b2bc3eb5310a97deee94ab536035" target="_top" xlink:title="openage::Texture::get\l_subtexture_count">
<polygon fill="#ffffff" stroke="#000000" points="1057,-.5 1057,-30.5 1169,-30.5 1169,-.5 1057,-.5"/>
<text text-anchor="start" x="1065" y="-18.5" font-family="Helvetica,sans-Serif" font-size="10.00" fill="#000000">openage::Texture::get</text>
<text text-anchor="middle" x="1113" y="-7.5" font-family="Helvetica,sans-Serif" font-size="10.00" fill="#000000">_subtexture_count</text>
</a>
</g>
</g>
<!-- Node59&#45;&gt;Node60 -->
<g id="edge9" class="edge">
<title>Node59&#45;&gt;Node60</title>
<path fill="none" stroke="#191970" d="M1021.3022,-15.5C1029.6933,-15.5 1038.2355,-15.5 1046.563,-15.5"/>
<polygon fill="#191970" stroke="#191970" points="1046.5894,-19.0001 1056.5894,-15.5 1046.5894,-12.0001 1046.5894,-19.0001"/>
</g>
</g>
</svg>
