<?xml version="1.0" encoding="UTF-8" standalone="no"?>
<!DOCTYPE svg PUBLIC "-//W3C//DTD SVG 1.1//EN"
 "http://www.w3.org/Graphics/SVG/1.1/DTD/svg11.dtd">
<!-- Generated by graphviz version 2.40.1 (20161225.0304)
 -->
<!-- Title: openage::gui::GuiGameSpecImageProviderImpl::migrate_to_new_game_spec Pages: 1 -->
<!--zoomable 67 -->
<svg id="main" version="1.1" xmlns="http://www.w3.org/2000/svg" xmlns:xlink="http://www.w3.org/1999/xlink" xml:space="preserve" onload="init(evt)">
<style type="text/css"><![CDATA[
.edge:hover path { stroke: red; }
.edge:hover polygon { stroke: red; fill: red; }
]]></style>
<script type="text/javascript"><![CDATA[
var edges = document.getElementsByTagName('g');
if (edges && edges.length) {
  for (var i=0;i<edges.length;i++) {
    if (edges[i].id.substr(0,4)=='edge') {
      edges[i].setAttribute('class','edge');
    }
  }
}
]]></script>
        <defs>
                <circle id="rim" cx="0" cy="0" r="7"/>
                <circle id="rim2" cx="0" cy="0" r="3.5"/>
                <g id="zoomPlus">
                        <use xlink:href="#rim" fill="#404040">
                                <set attributeName="fill" to="#808080" begin="zoomplus.mouseover" end="zoomplus.mouseout"/>
                        </use>
                        <path d="M-4,0h8M0,-4v8" fill="none" stroke="white" stroke-width="1.5" pointer-events="none"/>
                </g>
                <g id="zoomMin">
                        <use xlink:href="#rim" fill="#404040">
                                <set attributeName="fill" to="#808080" begin="zoomminus.mouseover" end="zoomminus.mouseout"/>
                        </use>
                        <path d="M-4,0h8" fill="none" stroke="white" stroke-width="1.5" pointer-events="none"/>
                </g>
                <g id="dirArrow">
                        <path fill="none" stroke="white" stroke-width="1.5" d="M0,-3.0v7 M-2.5,-0.5L0,-3.0L2.5,-0.5"/>
                </g>
               <g id="resetDef">
                       <use xlink:href="#rim2" fill="#404040">
                               <set attributeName="fill" to="#808080" begin="reset.mouseover" end="reset.mouseout"/>
                       </use>
               </g>
        </defs>

<script type="text/javascript">
var viewWidth = 714;
var viewHeight = 67;
var sectionId = 'dynsection-8';
</script>
<script xlink:href="../../svgpan.js"/>
<svg id="graph" class="graph">
<g id="viewport">
<title>openage::gui::GuiGameSpecImageProviderImpl::migrate_to_new_game_spec</title>
<polygon fill="#ffffff" stroke="transparent" points="-4,4 -4,-62.5 710,-62.5 710,4 -4,4"/>
<!-- Node43 -->
<g id="node1" class="node">
<title>Node43</title>
<polygon fill="#bfbfbf" stroke="#000000" points="0,-17 0,-58 142,-58 142,-17 0,-17"/>
<text text-anchor="start" x="8" y="-46" font-family="Helvetica,sans-Serif" font-size="10.00" fill="#000000">openage::gui::GuiGameSpec</text>
<text text-anchor="start" x="8" y="-35" font-family="Helvetica,sans-Serif" font-size="10.00" fill="#000000">ImageProviderImpl::migrate</text>
<text text-anchor="middle" x="71" y="-24" font-family="Helvetica,sans-Serif" font-size="10.00" fill="#000000">_to_new_game_spec</text>
</g>
<!-- Node44 -->
<g id="node2" class="node">
<title>Node44</title>
<g id="a_node2"><a xlink:href="../../d3/d9a/classopenage_1_1gui_1_1_gui_game_spec_image_provider_impl.xhtml#a96f49e5b70c5848778479d8ae36431b9" target="_top" xlink:title="Unblocks the provider. ">
<polygon fill="#ffffff" stroke="#000000" points="178,-17 178,-58 322,-58 322,-17 178,-17"/>
<text text-anchor="start" x="186" y="-46" font-family="Helvetica,sans-Serif" font-size="10.00" fill="#000000">openage::gui::GuiGameSpec</text>
<text text-anchor="start" x="186" y="-35" font-family="Helvetica,sans-Serif" font-size="10.00" fill="#000000">ImageProviderImpl::on_game</text>
<text text-anchor="middle" x="250" y="-24" font-family="Helvetica,sans-Serif" font-size="10.00" fill="#000000">_spec_loaded</text>
</a>
</g>
</g>
<!-- Node43&#45;&gt;Node44 -->
<g id="edge1" class="edge">
<title>Node43&#45;&gt;Node44</title>
<path fill="none" stroke="#191970" d="M152.0551,-37.5C160.6761,-37.5 169.4026,-37.5 177.9107,-37.5"/>
<polygon fill="#191970" stroke="#191970" points="152.0027,-34.0001 142.0026,-37.5 152.0026,-41.0001 152.0027,-34.0001"/>
</g>
<!-- Node45 -->
<g id="node3" class="node">
<title>Node45</title>
<g id="a_node3"><a xlink:href="../../db/d8b/classopenage_1_1gui_1_1_gui_image_provider_link.xhtml#a545162ca0fa8e596f4a2afafda0e2b0f" target="_top" xlink:title="Sets the game spec to load textures from. ">
<polygon fill="#ffffff" stroke="#000000" points="550,-22.5 550,-52.5 706,-52.5 706,-22.5 550,-22.5"/>
<text text-anchor="start" x="558" y="-40.5" font-family="Helvetica,sans-Serif" font-size="10.00" fill="#000000">openage::gui::GuiImageProvider</text>
<text text-anchor="middle" x="628" y="-29.5" font-family="Helvetica,sans-Serif" font-size="10.00" fill="#000000">Link::set_game_spec</text>
</a>
</g>
</g>
<!-- Node44&#45;&gt;Node45 -->
<g id="edge2" class="edge">
<title>Node44&#45;&gt;Node45</title>
<path fill="none" stroke="#191970" d="M332.2176,-40.0214C340.9215,-40.2174 349.6421,-40.3839 358,-40.5 427.3266,-41.4627 444.6727,-41.412 514,-40.5 525.5811,-40.3476 537.8223,-40.1083 549.8172,-39.8296"/>
<polygon fill="#191970" stroke="#191970" points="332.1108,-36.518 322.0304,-39.7791 331.9443,-43.516 332.1108,-36.518"/>
</g>
<!-- Node46 -->
<g id="node4" class="node">
<title>Node46</title>
<g id="a_node4"><a xlink:href="../../db/d8b/classopenage_1_1gui_1_1_gui_image_provider_link.xhtml#a4448d1bf9cbb8e7f8842989fd414c66b" target="_top" xlink:title="Pass loaded assets to the image provider. ">
<polygon fill="#ffffff" stroke="#000000" points="358,-.5 358,-30.5 514,-30.5 514,-.5 358,-.5"/>
<text text-anchor="start" x="366" y="-18.5" font-family="Helvetica,sans-Serif" font-size="10.00" fill="#000000">openage::gui::GuiImageProvider</text>
<text text-anchor="middle" x="436" y="-7.5" font-family="Helvetica,sans-Serif" font-size="10.00" fill="#000000">Link::on_game_spec_loaded</text>
</a>
</g>
</g>
<!-- Node44&#45;&gt;Node46 -->
<g id="edge3" class="edge">
<title>Node44&#45;&gt;Node46</title>
<path fill="none" stroke="#191970" d="M332.3699,-27.7573C340.7882,-26.7616 349.3243,-25.752 357.6973,-24.7616"/>
<polygon fill="#191970" stroke="#191970" points="331.6983,-24.3123 322.1787,-28.9627 332.5206,-31.2638 331.6983,-24.3123"/>
</g>
<!-- Node46&#45;&gt;Node45 -->
<g id="edge4" class="edge">
<title>Node46&#45;&gt;Node45</title>
<path fill="none" stroke="#191970" d="M524.1526,-25.6008C532.7687,-26.5881 541.4697,-27.5851 549.9755,-28.5597"/>
<polygon fill="#191970" stroke="#191970" points="524.4272,-22.1095 514.0938,-24.4482 523.6303,-29.064 524.4272,-22.1095"/>
</g>
</g>
</svg>
        <g id="navigator" transform="translate(0 0)" fill="#404254">
                <rect fill="#f2f5e9" fill-opacity="0.5" stroke="#606060" stroke-width=".5" x="0" y="0" width="60" height="60"/>
                <use id="zoomplus" xlink:href="#zoomPlus" x="17" y="9" onmousedown="handleZoom(evt,'in')"/>
                <use id="zoomminus" xlink:href="#zoomMin" x="42" y="9" onmousedown="handleZoom(evt,'out')"/>
                <use id="reset" xlink:href="#resetDef" x="30" y="36" onmousedown="handleReset()"/>
                <g id="arrowUp" xlink:href="#dirArrow" transform="translate(30 24)" onmousedown="handlePan(0,-1)">
                  <use xlink:href="#rim" fill="#404040">
                        <set attributeName="fill" to="#808080" begin="arrowUp.mouseover" end="arrowUp.mouseout"/>
                  </use>
                  <path fill="none" stroke="white" stroke-width="1.5" d="M0,-3.0v7 M-2.5,-0.5L0,-3.0L2.5,-0.5"/>
                </g>
                <g id="arrowRight" xlink:href="#dirArrow" transform="rotate(90) translate(36 -43)" onmousedown="handlePan(1,0)">
                  <use xlink:href="#rim" fill="#404040">
                        <set attributeName="fill" to="#808080" begin="arrowRight.mouseover" end="arrowRight.mouseout"/>
                  </use>
                  <path fill="none" stroke="white" stroke-width="1.5" d="M0,-3.0v7 M-2.5,-0.5L0,-3.0L2.5,-0.5"/>
                </g>
                <g id="arrowDown" xlink:href="#dirArrow" transform="rotate(180) translate(-30 -48)" onmousedown="handlePan(0,1)">
                  <use xlink:href="#rim" fill="#404040">
                        <set attributeName="fill" to="#808080" begin="arrowDown.mouseover" end="arrowDown.mouseout"/>
                  </use>
                  <path fill="none" stroke="white" stroke-width="1.5" d="M0,-3.0v7 M-2.5,-0.5L0,-3.0L2.5,-0.5"/>
                </g>
                <g id="arrowLeft" xlink:href="#dirArrow" transform="rotate(270) translate(-36 17)" onmousedown="handlePan(-1,0)">
                  <use xlink:href="#rim" fill="#404040">
                        <set attributeName="fill" to="#808080" begin="arrowLeft.mouseover" end="arrowLeft.mouseout"/>
                  </use>
                  <path fill="none" stroke="white" stroke-width="1.5" d="M0,-3.0v7 M-2.5,-0.5L0,-3.0L2.5,-0.5"/>
                </g>
        </g>
        <svg viewBox="0 0 15 15" width="100%" height="30px" preserveAspectRatio="xMaxYMin meet">
         <g id="arrow_out" transform="scale(0.3 0.3)">
          <a xlink:href="classopenage_1_1gui_1_1_gui_game_spec_image_provider_impl_ab296b31a83e17fbd14f7106ce4c2a54a_icgraph_org.svg" target="_base">
           <rect id="button" ry="5" rx="5" y="6" x="6" height="38" width="38"
                fill="#f2f5e9" fill-opacity="0.5" stroke="#606060" stroke-width="1.0"/>
           <path id="arrow"
             d="M 11.500037,31.436501 C 11.940474,20.09759 22.043105,11.32322 32.158766,21.979434 L 37.068811,17.246167 C 37.068811,17.246167 37.088388,32 37.088388,32 L 22.160133,31.978069 C 22.160133,31.978069 26.997745,27.140456 26.997745,27.140456 C 18.528582,18.264221 13.291696,25.230495 11.500037,31.436501 z"
             style="fill:#404040;"/>
          </a>
         </g>
        </svg>
</svg>
