<?xml version="1.0" encoding="UTF-8" standalone="no"?>
<!DOCTYPE svg PUBLIC "-//W3C//DTD SVG 1.1//EN"
 "http://www.w3.org/Graphics/SVG/1.1/DTD/svg11.dtd">
<!-- Generated by graphviz version 2.40.1 (20161225.0304)
 -->
<!-- Title: openage.convert.main.wanna_use_wine Pages: 1 -->
<!--zoomable 88 -->
<svg id="main" version="1.1" xmlns="http://www.w3.org/2000/svg" xmlns:xlink="http://www.w3.org/1999/xlink" xml:space="preserve" onload="init(evt)">
<style type="text/css"><![CDATA[
.edge:hover path { stroke: red; }
.edge:hover polygon { stroke: red; fill: red; }
]]></style>
<script type="text/javascript"><![CDATA[
var edges = document.getElementsByTagName('g');
if (edges && edges.length) {
  for (var i=0;i<edges.length;i++) {
    if (edges[i].id.substr(0,4)=='edge') {
      edges[i].setAttribute('class','edge');
    }
  }
}
]]></script>
        <defs>
                <circle id="rim" cx="0" cy="0" r="7"/>
                <circle id="rim2" cx="0" cy="0" r="3.5"/>
                <g id="zoomPlus">
                        <use xlink:href="#rim" fill="#404040">
                                <set attributeName="fill" to="#808080" begin="zoomplus.mouseover" end="zoomplus.mouseout"/>
                        </use>
                        <path d="M-4,0h8M0,-4v8" fill="none" stroke="white" stroke-width="1.5" pointer-events="none"/>
                </g>
                <g id="zoomMin">
                        <use xlink:href="#rim" fill="#404040">
                                <set attributeName="fill" to="#808080" begin="zoomminus.mouseover" end="zoomminus.mouseout"/>
                        </use>
                        <path d="M-4,0h8" fill="none" stroke="white" stroke-width="1.5" pointer-events="none"/>
                </g>
                <g id="dirArrow">
                        <path fill="none" stroke="white" stroke-width="1.5" d="M0,-3.0v7 M-2.5,-0.5L0,-3.0L2.5,-0.5"/>
                </g>
               <g id="resetDef">
                       <use xlink:href="#rim2" fill="#404040">
                               <set attributeName="fill" to="#808080" begin="reset.mouseover" end="reset.mouseout"/>
                       </use>
               </g>
        </defs>

<script type="text/javascript">
var viewWidth = 884;
var viewHeight = 88;
var sectionId = 'dynsection-22';
</script>
<script xlink:href="../../svgpan.js"/>
<svg id="graph" class="graph">
<g id="viewport">
<title>openage.convert.main.wanna_use_wine</title>
<polygon fill="#ffffff" stroke="transparent" points="-4,4 -4,-84 880,-84 880,4 -4,4"/>
<!-- Node292 -->
<g id="node1" class="node">
<title>Node292</title>
<polygon fill="#bfbfbf" stroke="#000000" points="0,-24.5 0,-54.5 144,-54.5 144,-24.5 0,-24.5"/>
<text text-anchor="start" x="8" y="-42.5" font-family="Helvetica,sans-Serif" font-size="10.00" fill="#000000">openage.convert.main.wanna</text>
<text text-anchor="middle" x="72" y="-31.5" font-family="Helvetica,sans-Serif" font-size="10.00" fill="#000000">_use_wine</text>
</g>
<!-- Node293 -->
<g id="node2" class="node">
<title>Node293</title>
<g id="a_node2"><a xlink:href="../../d6/d02/namespaceopenage_1_1convert_1_1main.xhtml#a3974808f6a0e99b94c7dea8fdea4bceb" target="_top" xlink:title="Acquires source dir for the asset conversion. ">
<polygon fill="#ffffff" stroke="#000000" points="180,-24.5 180,-54.5 327,-54.5 327,-24.5 180,-24.5"/>
<text text-anchor="start" x="188" y="-42.5" font-family="Helvetica,sans-Serif" font-size="10.00" fill="#000000">openage.convert.main.acquire</text>
<text text-anchor="middle" x="253.5" y="-31.5" font-family="Helvetica,sans-Serif" font-size="10.00" fill="#000000">_conversion_source_dir</text>
</a>
</g>
</g>
<!-- Node292&#45;&gt;Node293 -->
<g id="edge1" class="edge">
<title>Node292&#45;&gt;Node293</title>
<path fill="none" stroke="#191970" d="M154.4579,-39.5C162.8776,-39.5 171.3933,-39.5 179.7118,-39.5"/>
<polygon fill="#191970" stroke="#191970" points="154.2552,-36.0001 144.2551,-39.5 154.2551,-43.0001 154.2552,-36.0001"/>
</g>
<!-- Node294 -->
<g id="node3" class="node">
<title>Node294</title>
<g id="a_node3"><a xlink:href="../../d6/d02/namespaceopenage_1_1convert_1_1main.xhtml#a607817dd5809140455a8b393c9a68fdc" target="_top" xlink:title="Mount the input folders for conversion. ">
<polygon fill="#ffffff" stroke="#000000" points="363,-24.5 363,-54.5 506,-54.5 506,-24.5 363,-24.5"/>
<text text-anchor="start" x="371" y="-42.5" font-family="Helvetica,sans-Serif" font-size="10.00" fill="#000000">openage.convert.main.mount</text>
<text text-anchor="middle" x="434.5" y="-31.5" font-family="Helvetica,sans-Serif" font-size="10.00" fill="#000000">_input</text>
</a>
</g>
</g>
<!-- Node293&#45;&gt;Node294 -->
<g id="edge2" class="edge">
<title>Node293&#45;&gt;Node294</title>
<path fill="none" stroke="#191970" d="M337.1878,-39.5C345.8129,-39.5 354.5211,-39.5 362.9965,-39.5"/>
<polygon fill="#191970" stroke="#191970" points="337.1197,-36.0001 327.1196,-39.5 337.1196,-43.0001 337.1197,-36.0001"/>
</g>
<!-- Node295 -->
<g id="node4" class="node">
<title>Node295</title>
<g id="a_node4"><a xlink:href="../../d6/d02/namespaceopenage_1_1convert_1_1main.xhtml#a06157ab72dcb855b2e993bf128e9faf1" target="_top" xlink:title="Perform asset conversion. ">
<polygon fill="#ffffff" stroke="#000000" points="548.5,-49.5 548.5,-79.5 696.5,-79.5 696.5,-49.5 548.5,-49.5"/>
<text text-anchor="start" x="556.5" y="-67.5" font-family="Helvetica,sans-Serif" font-size="10.00" fill="#000000">openage.convert.main.convert</text>
<text text-anchor="middle" x="622.5" y="-56.5" font-family="Helvetica,sans-Serif" font-size="10.00" fill="#000000">_assets</text>
</a>
</g>
</g>
<!-- Node294&#45;&gt;Node295 -->
<g id="edge3" class="edge">
<title>Node294&#45;&gt;Node295</title>
<path fill="none" stroke="#191970" d="M516.2404,-50.3697C526.8927,-51.7863 537.7587,-53.2312 548.2786,-54.6301"/>
<polygon fill="#191970" stroke="#191970" points="516.4852,-46.8716 506.111,-49.0227 515.5624,-53.8105 516.4852,-46.8716"/>
</g>
<!-- Node298 -->
<g id="node7" class="node">
<title>Node298</title>
<g id="a_node7"><a xlink:href="../../d6/d02/namespaceopenage_1_1convert_1_1main.xhtml#a4973f96b5a25450372f6d09c153284bf" target="_top" xlink:title="openage.convert.main.interactive\l_browser">
<polygon fill="#ffffff" stroke="#000000" points="542,-.5 542,-30.5 703,-30.5 703,-.5 542,-.5"/>
<text text-anchor="start" x="550" y="-18.5" font-family="Helvetica,sans-Serif" font-size="10.00" fill="#000000">openage.convert.main.interactive</text>
<text text-anchor="middle" x="622.5" y="-7.5" font-family="Helvetica,sans-Serif" font-size="10.00" fill="#000000">_browser</text>
</a>
</g>
</g>
<!-- Node294&#45;&gt;Node298 -->
<g id="edge6" class="edge">
<title>Node294&#45;&gt;Node298</title>
<path fill="none" stroke="#191970" d="M516.1041,-29.0825C524.6866,-27.9868 533.4094,-26.8733 541.9796,-25.7792"/>
<polygon fill="#191970" stroke="#191970" points="515.5873,-25.6199 506.111,-30.3582 516.4738,-32.5636 515.5873,-25.6199"/>
</g>
<!-- Node296 -->
<g id="node5" class="node">
<title>Node296</title>
<g id="a_node5"><a xlink:href="../../df/dfe/namespaceopenage_1_1game_1_1main.xhtml#ae53287c14640e82b47c8b3af1e85c4ca" target="_top" xlink:title="openage.game.main.main">
<polygon fill="#ffffff" stroke="#000000" points="743.5,-55 743.5,-74 871.5,-74 871.5,-55 743.5,-55"/>
<text text-anchor="middle" x="807.5" y="-62" font-family="Helvetica,sans-Serif" font-size="10.00" fill="#000000">openage.game.main.main</text>
</a>
</g>
</g>
<!-- Node295&#45;&gt;Node296 -->
<g id="edge4" class="edge">
<title>Node295&#45;&gt;Node296</title>
<path fill="none" stroke="#191970" d="M706.9231,-64.5C719.1927,-64.5 731.6534,-64.5 743.4327,-64.5"/>
<polygon fill="#191970" stroke="#191970" points="706.6806,-61.0001 696.6806,-64.5 706.6806,-68.0001 706.6806,-61.0001"/>
</g>
<!-- Node297 -->
<g id="node6" class="node">
<title>Node297</title>
<g id="a_node6"><a xlink:href="../../d6/d02/namespaceopenage_1_1convert_1_1main.xhtml#ab4e998cdda52db3b3cae6efbcd2eda23" target="_top" xlink:title="CLI entry point. ">
<polygon fill="#ffffff" stroke="#000000" points="739,-12 739,-31 876,-31 876,-12 739,-12"/>
<text text-anchor="middle" x="807.5" y="-19" font-family="Helvetica,sans-Serif" font-size="10.00" fill="#000000">openage.convert.main.main</text>
</a>
</g>
</g>
<!-- Node295&#45;&gt;Node297 -->
<g id="edge5" class="edge">
<title>Node295&#45;&gt;Node297</title>
<path fill="none" stroke="#191970" d="M697.2263,-47.1312C720.8863,-41.6318 746.1585,-35.7578 766.5322,-31.0223"/>
<polygon fill="#191970" stroke="#191970" points="696.152,-43.7875 687.204,-49.4607 697.7368,-50.6058 696.152,-43.7875"/>
</g>
<!-- Node298&#45;&gt;Node297 -->
<g id="edge7" class="edge">
<title>Node298&#45;&gt;Node297</title>
<path fill="none" stroke="#191970" d="M713.1739,-18.4408C721.7741,-18.7197 730.3954,-18.9993 738.7402,-19.27"/>
<polygon fill="#191970" stroke="#191970" points="713.2138,-14.9403 703.1055,-18.1142 712.9868,-21.9366 713.2138,-14.9403"/>
</g>
</g>
</svg>
        <g id="navigator" transform="translate(0 0)" fill="#404254">
                <rect fill="#f2f5e9" fill-opacity="0.5" stroke="#606060" stroke-width=".5" x="0" y="0" width="60" height="60"/>
                <use id="zoomplus" xlink:href="#zoomPlus" x="17" y="9" onmousedown="handleZoom(evt,'in')"/>
                <use id="zoomminus" xlink:href="#zoomMin" x="42" y="9" onmousedown="handleZoom(evt,'out')"/>
                <use id="reset" xlink:href="#resetDef" x="30" y="36" onmousedown="handleReset()"/>
                <g id="arrowUp" xlink:href="#dirArrow" transform="translate(30 24)" onmousedown="handlePan(0,-1)">
                  <use xlink:href="#rim" fill="#404040">
                        <set attributeName="fill" to="#808080" begin="arrowUp.mouseover" end="arrowUp.mouseout"/>
                  </use>
                  <path fill="none" stroke="white" stroke-width="1.5" d="M0,-3.0v7 M-2.5,-0.5L0,-3.0L2.5,-0.5"/>
                </g>
                <g id="arrowRight" xlink:href="#dirArrow" transform="rotate(90) translate(36 -43)" onmousedown="handlePan(1,0)">
                  <use xlink:href="#rim" fill="#404040">
                        <set attributeName="fill" to="#808080" begin="arrowRight.mouseover" end="arrowRight.mouseout"/>
                  </use>
                  <path fill="none" stroke="white" stroke-width="1.5" d="M0,-3.0v7 M-2.5,-0.5L0,-3.0L2.5,-0.5"/>
                </g>
                <g id="arrowDown" xlink:href="#dirArrow" transform="rotate(180) translate(-30 -48)" onmousedown="handlePan(0,1)">
                  <use xlink:href="#rim" fill="#404040">
                        <set attributeName="fill" to="#808080" begin="arrowDown.mouseover" end="arrowDown.mouseout"/>
                  </use>
                  <path fill="none" stroke="white" stroke-width="1.5" d="M0,-3.0v7 M-2.5,-0.5L0,-3.0L2.5,-0.5"/>
                </g>
                <g id="arrowLeft" xlink:href="#dirArrow" transform="rotate(270) translate(-36 17)" onmousedown="handlePan(-1,0)">
                  <use xlink:href="#rim" fill="#404040">
                        <set attributeName="fill" to="#808080" begin="arrowLeft.mouseover" end="arrowLeft.mouseout"/>
                  </use>
                  <path fill="none" stroke="white" stroke-width="1.5" d="M0,-3.0v7 M-2.5,-0.5L0,-3.0L2.5,-0.5"/>
                </g>
        </g>
        <svg viewBox="0 0 15 15" width="100%" height="30px" preserveAspectRatio="xMaxYMin meet">
         <g id="arrow_out" transform="scale(0.3 0.3)">
          <a xlink:href="namespaceopenage_1_1convert_1_1main_a4a6e38f51a7b482ac175c932acd397e9_icgraph_org.svg" target="_base">
           <rect id="button" ry="5" rx="5" y="6" x="6" height="38" width="38"
                fill="#f2f5e9" fill-opacity="0.5" stroke="#606060" stroke-width="1.0"/>
           <path id="arrow"
             d="M 11.500037,31.436501 C 11.940474,20.09759 22.043105,11.32322 32.158766,21.979434 L 37.068811,17.246167 C 37.068811,17.246167 37.088388,32 37.088388,32 L 22.160133,31.978069 C 22.160133,31.978069 26.997745,27.140456 26.997745,27.140456 C 18.528582,18.264221 13.291696,25.230495 11.500037,31.436501 z"
             style="fill:#404040;"/>
          </a>
         </g>
        </svg>
</svg>
