<?xml version="1.0" encoding="UTF-8" standalone="no"?>
<!DOCTYPE svg PUBLIC "-//W3C//DTD SVG 1.1//EN"
 "http://www.w3.org/Graphics/SVG/1.1/DTD/svg11.dtd">
<!-- Generated by graphviz version 2.40.1 (20161225.0304)
 -->
<!-- Title: openage.convert.main.wine_to_real_path Pages: 1 -->
<svg width="1057pt" height="88pt"
 viewBox="0.00 0.00 1057.00 88.00" xmlns="http://www.w3.org/2000/svg" xmlns:xlink="http://www.w3.org/1999/xlink">
<g id="graph0" class="graph" transform="scale(1 1) rotate(0) translate(4 84)">
<title>openage.convert.main.wine_to_real_path</title>
<polygon fill="#ffffff" stroke="transparent" points="-4,4 -4,-84 1053,-84 1053,4 -4,4"/>
<!-- Node300 -->
<g id="node1" class="node">
<title>Node300</title>
<polygon fill="#bfbfbf" stroke="#000000" points="0,-24.5 0,-54.5 136,-54.5 136,-24.5 0,-24.5"/>
<text text-anchor="start" x="8" y="-42.5" font-family="Helvetica,sans-Serif" font-size="10.00" fill="#000000">openage.convert.main.wine</text>
<text text-anchor="middle" x="68" y="-31.5" font-family="Helvetica,sans-Serif" font-size="10.00" fill="#000000">_to_real_path</text>
</g>
<!-- Node301 -->
<g id="node2" class="node">
<title>Node301</title>
<g id="a_node2"><a xlink:href="../../d6/d02/namespaceopenage_1_1convert_1_1main.xhtml#aa5695bc5f7849528b2fdd1f5b186a1cc" target="_top" xlink:title="Yield a list of directory names where an installation might be found. ">
<polygon fill="#ffffff" stroke="#000000" points="172,-24.5 172,-54.5 317,-54.5 317,-24.5 172,-24.5"/>
<text text-anchor="start" x="180" y="-42.5" font-family="Helvetica,sans-Serif" font-size="10.00" fill="#000000">openage.convert.main.source</text>
<text text-anchor="middle" x="244.5" y="-31.5" font-family="Helvetica,sans-Serif" font-size="10.00" fill="#000000">_dir_proposals</text>
</a>
</g>
</g>
<!-- Node300&#45;&gt;Node301 -->
<g id="edge1" class="edge">
<title>Node300&#45;&gt;Node301</title>
<path fill="none" stroke="#191970" d="M146.4361,-39.5C154.8618,-39.5 163.4084,-39.5 171.7634,-39.5"/>
<polygon fill="#191970" stroke="#191970" points="146.2395,-36.0001 136.2395,-39.5 146.2395,-43.0001 146.2395,-36.0001"/>
</g>
<!-- Node302 -->
<g id="node3" class="node">
<title>Node302</title>
<g id="a_node3"><a xlink:href="../../d6/d02/namespaceopenage_1_1convert_1_1main.xhtml#a3974808f6a0e99b94c7dea8fdea4bceb" target="_top" xlink:title="Acquires source dir for the asset conversion. ">
<polygon fill="#ffffff" stroke="#000000" points="353,-24.5 353,-54.5 500,-54.5 500,-24.5 353,-24.5"/>
<text text-anchor="start" x="361" y="-42.5" font-family="Helvetica,sans-Serif" font-size="10.00" fill="#000000">openage.convert.main.acquire</text>
<text text-anchor="middle" x="426.5" y="-31.5" font-family="Helvetica,sans-Serif" font-size="10.00" fill="#000000">_conversion_source_dir</text>
</a>
</g>
</g>
<!-- Node301&#45;&gt;Node302 -->
<g id="edge2" class="edge">
<title>Node301&#45;&gt;Node302</title>
<path fill="none" stroke="#191970" d="M327.433,-39.5C335.8632,-39.5 344.3865,-39.5 352.7104,-39.5"/>
<polygon fill="#191970" stroke="#191970" points="327.2159,-36.0001 317.2159,-39.5 327.2158,-43.0001 327.2159,-36.0001"/>
</g>
<!-- Node303 -->
<g id="node4" class="node">
<title>Node303</title>
<g id="a_node4"><a xlink:href="../../d6/d02/namespaceopenage_1_1convert_1_1main.xhtml#a607817dd5809140455a8b393c9a68fdc" target="_top" xlink:title="Mount the input folders for conversion. ">
<polygon fill="#ffffff" stroke="#000000" points="536,-24.5 536,-54.5 679,-54.5 679,-24.5 536,-24.5"/>
<text text-anchor="start" x="544" y="-42.5" font-family="Helvetica,sans-Serif" font-size="10.00" fill="#000000">openage.convert.main.mount</text>
<text text-anchor="middle" x="607.5" y="-31.5" font-family="Helvetica,sans-Serif" font-size="10.00" fill="#000000">_input</text>
</a>
</g>
</g>
<!-- Node302&#45;&gt;Node303 -->
<g id="edge3" class="edge">
<title>Node302&#45;&gt;Node303</title>
<path fill="none" stroke="#191970" d="M510.1878,-39.5C518.8129,-39.5 527.5211,-39.5 535.9965,-39.5"/>
<polygon fill="#191970" stroke="#191970" points="510.1197,-36.0001 500.1196,-39.5 510.1196,-43.0001 510.1197,-36.0001"/>
</g>
<!-- Node304 -->
<g id="node5" class="node">
<title>Node304</title>
<g id="a_node5"><a xlink:href="../../d6/d02/namespaceopenage_1_1convert_1_1main.xhtml#a06157ab72dcb855b2e993bf128e9faf1" target="_top" xlink:title="Perform asset conversion. ">
<polygon fill="#ffffff" stroke="#000000" points="721.5,-49.5 721.5,-79.5 869.5,-79.5 869.5,-49.5 721.5,-49.5"/>
<text text-anchor="start" x="729.5" y="-67.5" font-family="Helvetica,sans-Serif" font-size="10.00" fill="#000000">openage.convert.main.convert</text>
<text text-anchor="middle" x="795.5" y="-56.5" font-family="Helvetica,sans-Serif" font-size="10.00" fill="#000000">_assets</text>
</a>
</g>
</g>
<!-- Node303&#45;&gt;Node304 -->
<g id="edge4" class="edge">
<title>Node303&#45;&gt;Node304</title>
<path fill="none" stroke="#191970" d="M689.2404,-50.3697C699.8927,-51.7863 710.7587,-53.2312 721.2786,-54.6301"/>
<polygon fill="#191970" stroke="#191970" points="689.4852,-46.8716 679.111,-49.0227 688.5624,-53.8105 689.4852,-46.8716"/>
</g>
<!-- Node307 -->
<g id="node8" class="node">
<title>Node307</title>
<g id="a_node8"><a xlink:href="../../d6/d02/namespaceopenage_1_1convert_1_1main.xhtml#a4973f96b5a25450372f6d09c153284bf" target="_top" xlink:title="openage.convert.main.interactive\l_browser">
<polygon fill="#ffffff" stroke="#000000" points="715,-.5 715,-30.5 876,-30.5 876,-.5 715,-.5"/>
<text text-anchor="start" x="723" y="-18.5" font-family="Helvetica,sans-Serif" font-size="10.00" fill="#000000">openage.convert.main.interactive</text>
<text text-anchor="middle" x="795.5" y="-7.5" font-family="Helvetica,sans-Serif" font-size="10.00" fill="#000000">_browser</text>
</a>
</g>
</g>
<!-- Node303&#45;&gt;Node307 -->
<g id="edge7" class="edge">
<title>Node303&#45;&gt;Node307</title>
<path fill="none" stroke="#191970" d="M689.1041,-29.0825C697.6866,-27.9868 706.4094,-26.8733 714.9796,-25.7792"/>
<polygon fill="#191970" stroke="#191970" points="688.5873,-25.6199 679.111,-30.3582 689.4738,-32.5636 688.5873,-25.6199"/>
</g>
<!-- Node305 -->
<g id="node6" class="node">
<title>Node305</title>
<g id="a_node6"><a xlink:href="../../df/dfe/namespaceopenage_1_1game_1_1main.xhtml#ae53287c14640e82b47c8b3af1e85c4ca" target="_top" xlink:title="openage.game.main.main">
<polygon fill="#ffffff" stroke="#000000" points="916.5,-55 916.5,-74 1044.5,-74 1044.5,-55 916.5,-55"/>
<text text-anchor="middle" x="980.5" y="-62" font-family="Helvetica,sans-Serif" font-size="10.00" fill="#000000">openage.game.main.main</text>
</a>
</g>
</g>
<!-- Node304&#45;&gt;Node305 -->
<g id="edge5" class="edge">
<title>Node304&#45;&gt;Node305</title>
<path fill="none" stroke="#191970" d="M879.9231,-64.5C892.1927,-64.5 904.6534,-64.5 916.4327,-64.5"/>
<polygon fill="#191970" stroke="#191970" points="879.6806,-61.0001 869.6806,-64.5 879.6806,-68.0001 879.6806,-61.0001"/>
</g>
<!-- Node306 -->
<g id="node7" class="node">
<title>Node306</title>
<g id="a_node7"><a xlink:href="../../d6/d02/namespaceopenage_1_1convert_1_1main.xhtml#ab4e998cdda52db3b3cae6efbcd2eda23" target="_top" xlink:title="CLI entry point. ">
<polygon fill="#ffffff" stroke="#000000" points="912,-12 912,-31 1049,-31 1049,-12 912,-12"/>
<text text-anchor="middle" x="980.5" y="-19" font-family="Helvetica,sans-Serif" font-size="10.00" fill="#000000">openage.convert.main.main</text>
</a>
</g>
</g>
<!-- Node304&#45;&gt;Node306 -->
<g id="edge6" class="edge">
<title>Node304&#45;&gt;Node306</title>
<path fill="none" stroke="#191970" d="M870.2263,-47.1312C893.8863,-41.6318 919.1585,-35.7578 939.5322,-31.0223"/>
<polygon fill="#191970" stroke="#191970" points="869.152,-43.7875 860.204,-49.4607 870.7368,-50.6058 869.152,-43.7875"/>
</g>
<!-- Node307&#45;&gt;Node306 -->
<g id="edge8" class="edge">
<title>Node307&#45;&gt;Node306</title>
<path fill="none" stroke="#191970" d="M886.1739,-18.4408C894.7741,-18.7197 903.3954,-18.9993 911.7402,-19.27"/>
<polygon fill="#191970" stroke="#191970" points="886.2138,-14.9403 876.1055,-18.1142 885.9868,-21.9366 886.2138,-14.9403"/>
</g>
</g>
</svg>
