<?xml version="1.0" encoding="UTF-8" standalone="no"?>
<!DOCTYPE svg PUBLIC "-//W3C//DTD SVG 1.1//EN"
 "http://www.w3.org/Graphics/SVG/1.1/DTD/svg11.dtd">
<!-- Generated by graphviz version 2.40.1 (20161225.0304)
 -->
<!-- Title: qtsdl::GuiRendererImpl::GuiRendererImpl Pages: 1 -->
<svg width="294pt" height="137pt"
 viewBox="0.00 0.00 294.00 137.00" xmlns="http://www.w3.org/2000/svg" xmlns:xlink="http://www.w3.org/1999/xlink">
<g id="graph0" class="graph" transform="scale(1 1) rotate(0) translate(4 133)">
<title>qtsdl::GuiRendererImpl::GuiRendererImpl</title>
<polygon fill="#ffffff" stroke="transparent" points="-4,4 -4,-133 290,-133 290,4 -4,4"/>
<!-- Node0 -->
<g id="node1" class="node">
<title>Node0</title>
<polygon fill="#bfbfbf" stroke="#000000" points="0,-49.5 0,-79.5 117,-79.5 117,-49.5 0,-49.5"/>
<text text-anchor="start" x="8" y="-67.5" font-family="Helvetica,sans-Serif" font-size="10.00" fill="#000000">qtsdl::GuiRendererImpl</text>
<text text-anchor="middle" x="58.5" y="-56.5" font-family="Helvetica,sans-Serif" font-size="10.00" fill="#000000">::GuiRendererImpl</text>
</g>
<!-- Node1 -->
<g id="node2" class="node">
<title>Node1</title>
<g id="a_node2"><a xlink:href="../../d1/df3/classqtsdl_1_1_gui_rendering_setup_routines.xhtml#aa429b17e8b2687c755e3db6de5840515" target="_top" xlink:title="qtsdl::GuiRenderingSetup\lRoutines::get_ctx">
<polygon fill="#ffffff" stroke="#000000" points="155.5,-98.5 155.5,-128.5 283.5,-128.5 283.5,-98.5 155.5,-98.5"/>
<text text-anchor="start" x="163.5" y="-116.5" font-family="Helvetica,sans-Serif" font-size="10.00" fill="#000000">qtsdl::GuiRenderingSetup</text>
<text text-anchor="middle" x="219.5" y="-105.5" font-family="Helvetica,sans-Serif" font-size="10.00" fill="#000000">Routines::get_ctx</text>
</a>
</g>
</g>
<!-- Node0&#45;&gt;Node1 -->
<g id="edge1" class="edge">
<title>Node0&#45;&gt;Node1</title>
<path fill="none" stroke="#191970" d="M108.119,-79.6014C124.5702,-84.6083 143.0494,-90.2324 160.1566,-95.439"/>
<polygon fill="#191970" stroke="#191970" points="159.459,-98.8851 170.0448,-98.4484 161.4972,-92.1884 159.459,-98.8851"/>
</g>
<!-- Node2 -->
<g id="node3" class="node">
<title>Node2</title>
<g id="a_node3"><a xlink:href="../../dd/dee/classqtsdl_1_1_event_handling_quick_window.xhtml#a7d392ef80d0d1b74370d6188799e94d7" target="_top" xlink:title="qtsdl::EventHandlingQuick\lWindow::on_resized">
<polygon fill="#ffffff" stroke="#000000" points="153,-49.5 153,-79.5 286,-79.5 286,-49.5 153,-49.5"/>
<text text-anchor="start" x="161" y="-67.5" font-family="Helvetica,sans-Serif" font-size="10.00" fill="#000000">qtsdl::EventHandlingQuick</text>
<text text-anchor="middle" x="219.5" y="-56.5" font-family="Helvetica,sans-Serif" font-size="10.00" fill="#000000">Window::on_resized</text>
</a>
</g>
</g>
<!-- Node0&#45;&gt;Node2 -->
<g id="edge2" class="edge">
<title>Node0&#45;&gt;Node2</title>
<path fill="none" stroke="#191970" d="M117.0801,-64.5C125.4165,-64.5 134.0923,-64.5 142.7113,-64.5"/>
<polygon fill="#191970" stroke="#191970" points="142.7794,-68.0001 152.7793,-64.5 142.7793,-61.0001 142.7794,-68.0001"/>
</g>
<!-- Node3 -->
<g id="node4" class="node">
<title>Node3</title>
<g id="a_node4"><a xlink:href="../../dd/db2/classqtsdl_1_1_gui_renderer_impl.xhtml#a6dc0a432c6dae56ec3e2022389ffe29e" target="_top" xlink:title="qtsdl::GuiRendererImpl\l::on_scene_changed">
<polygon fill="#ffffff" stroke="#000000" points="161,-.5 161,-30.5 278,-30.5 278,-.5 161,-.5"/>
<text text-anchor="start" x="169" y="-18.5" font-family="Helvetica,sans-Serif" font-size="10.00" fill="#000000">qtsdl::GuiRendererImpl</text>
<text text-anchor="middle" x="219.5" y="-7.5" font-family="Helvetica,sans-Serif" font-size="10.00" fill="#000000">::on_scene_changed</text>
</a>
</g>
</g>
<!-- Node0&#45;&gt;Node3 -->
<g id="edge3" class="edge">
<title>Node0&#45;&gt;Node3</title>
<path fill="none" stroke="#191970" d="M108.119,-49.3986C124.5702,-44.3917 143.0494,-38.7676 160.1566,-33.561"/>
<polygon fill="#191970" stroke="#191970" points="161.4972,-36.8116 170.0448,-30.5516 159.459,-30.1149 161.4972,-36.8116"/>
</g>
</g>
</svg>
