<?xml version="1.0" encoding="UTF-8" standalone="no"?>
<!DOCTYPE svg PUBLIC "-//W3C//DTD SVG 1.1//EN"
 "http://www.w3.org/Graphics/SVG/1.1/DTD/svg11.dtd">
<!-- Generated by graphviz version 2.40.1 (20161225.0304)
 -->
<!-- Title: qtsdl::GuiRendererImpl::process_freeze Pages: 1 -->
<svg width="496pt" height="160pt"
 viewBox="0.00 0.00 496.00 159.50" xmlns="http://www.w3.org/2000/svg" xmlns:xlink="http://www.w3.org/1999/xlink">
<g id="graph0" class="graph" transform="scale(1 1) rotate(0) translate(4 155.5)">
<title>qtsdl::GuiRendererImpl::process_freeze</title>
<polygon fill="#ffffff" stroke="transparent" points="-4,4 -4,-155.5 492,-155.5 492,4 -4,4"/>
<!-- Node42 -->
<g id="node1" class="node">
<title>Node42</title>
<polygon fill="#bfbfbf" stroke="#000000" points="0,-66 0,-96 117,-96 117,-66 0,-66"/>
<text text-anchor="start" x="8" y="-84" font-family="Helvetica,sans-Serif" font-size="10.00" fill="#000000">qtsdl::GuiRendererImpl</text>
<text text-anchor="middle" x="58.5" y="-73" font-family="Helvetica,sans-Serif" font-size="10.00" fill="#000000">::process_freeze</text>
</g>
<!-- Node43 -->
<g id="node2" class="node">
<title>Node43</title>
<g id="a_node2"><a xlink:href="../../dd/db2/classqtsdl_1_1_gui_renderer_impl.xhtml#acf11f47c7c6294d8e939d60694d9733e" target="_top" xlink:title="qtsdl::GuiRendererImpl\l::event">
<polygon fill="#ffffff" stroke="#000000" points="162,-121 162,-151 279,-151 279,-121 162,-121"/>
<text text-anchor="start" x="170" y="-139" font-family="Helvetica,sans-Serif" font-size="10.00" fill="#000000">qtsdl::GuiRendererImpl</text>
<text text-anchor="middle" x="220.5" y="-128" font-family="Helvetica,sans-Serif" font-size="10.00" fill="#000000">::event</text>
</a>
</g>
</g>
<!-- Node42&#45;&gt;Node43 -->
<g id="edge1" class="edge">
<title>Node42&#45;&gt;Node43</title>
<path fill="none" stroke="#191970" d="M112.3951,-99.2977C133.1372,-106.3398 156.5597,-114.2919 176.2863,-120.9892"/>
<polygon fill="#191970" stroke="#191970" points="113.3616,-95.9297 102.7672,-96.029 111.1112,-102.5581 113.3616,-95.9297"/>
</g>
<!-- Node44 -->
<g id="node3" class="node">
<title>Node44</title>
<g id="a_node3"><a xlink:href="../../dd/db2/classqtsdl_1_1_gui_renderer_impl.xhtml#a69ad2da6645ab9bd5f6acb9875442782" target="_top" xlink:title="When render thread is locked waiting for the gui thread to finish its current event and go to the hig...">
<polygon fill="#ffffff" stroke="#000000" points="153,-60.5 153,-101.5 288,-101.5 288,-60.5 153,-60.5"/>
<text text-anchor="start" x="161" y="-89.5" font-family="Helvetica,sans-Serif" font-size="10.00" fill="#000000">qtsdl::GuiRendererImpl</text>
<text text-anchor="start" x="161" y="-78.5" font-family="Helvetica,sans-Serif" font-size="10.00" fill="#000000">::make_sure_render_thread</text>
<text text-anchor="middle" x="220.5" y="-67.5" font-family="Helvetica,sans-Serif" font-size="10.00" fill="#000000">_unlocked</text>
</a>
</g>
</g>
<!-- Node42&#45;&gt;Node44 -->
<g id="edge2" class="edge">
<title>Node42&#45;&gt;Node44</title>
<path fill="none" stroke="#191970" d="M127.5434,-81C135.9143,-81 144.4593,-81 152.8103,-81"/>
<polygon fill="#191970" stroke="#191970" points="127.444,-77.5001 117.444,-81 127.444,-84.5001 127.444,-77.5001"/>
</g>
<!-- Node45 -->
<g id="node4" class="node">
<title>Node45</title>
<g id="a_node4"><a xlink:href="../../dd/db2/classqtsdl_1_1_gui_renderer_impl.xhtml#a1c114484132e4b98d63a49a5224424ad" target="_top" xlink:title="Assures that the render thread won&#39;t try to stop the gui thread for syncing. ">
<polygon fill="#ffffff" stroke="#000000" points="153,-.5 153,-41.5 288,-41.5 288,-.5 153,-.5"/>
<text text-anchor="start" x="161" y="-29.5" font-family="Helvetica,sans-Serif" font-size="10.00" fill="#000000">qtsdl::GuiRendererImpl</text>
<text text-anchor="start" x="161" y="-18.5" font-family="Helvetica,sans-Serif" font-size="10.00" fill="#000000">::make_sure_render_thread</text>
<text text-anchor="middle" x="220.5" y="-7.5" font-family="Helvetica,sans-Serif" font-size="10.00" fill="#000000">_wont_sync</text>
</a>
</g>
</g>
<!-- Node42&#45;&gt;Node45 -->
<g id="edge3" class="edge">
<title>Node42&#45;&gt;Node45</title>
<path fill="none" stroke="#191970" d="M108.9832,-62.3025C126.7423,-55.7251 146.7938,-48.2986 164.9471,-41.5751"/>
<polygon fill="#191970" stroke="#191970" points="107.5413,-59.1041 99.3794,-65.8595 109.9726,-65.6684 107.5413,-59.1041"/>
</g>
<!-- Node46 -->
<g id="node5" class="node">
<title>Node46</title>
<g id="a_node5"><a xlink:href="../../d6/da8/classqtsdl_1_1_temporary_disable_gui_renderer_sync.xhtml#a1c09bf6d7d98cdd77fe4b555f4936cd4" target="_top" xlink:title="qtsdl::TemporaryDisableGui\lRendererSync::TemporaryDisable\lGuiRendererSync">
<polygon fill="#ffffff" stroke="#000000" points="324,-.5 324,-41.5 488,-41.5 488,-.5 324,-.5"/>
<text text-anchor="start" x="332" y="-29.5" font-family="Helvetica,sans-Serif" font-size="10.00" fill="#000000">qtsdl::TemporaryDisableGui</text>
<text text-anchor="start" x="332" y="-18.5" font-family="Helvetica,sans-Serif" font-size="10.00" fill="#000000">RendererSync::TemporaryDisable</text>
<text text-anchor="middle" x="406" y="-7.5" font-family="Helvetica,sans-Serif" font-size="10.00" fill="#000000">GuiRendererSync</text>
</a>
</g>
</g>
<!-- Node45&#45;&gt;Node46 -->
<g id="edge4" class="edge">
<title>Node45&#45;&gt;Node46</title>
<path fill="none" stroke="#191970" d="M298.4311,-21C306.8558,-21 315.448,-21 323.9198,-21"/>
<polygon fill="#191970" stroke="#191970" points="298.2572,-17.5001 288.2572,-21 298.2571,-24.5001 298.2572,-17.5001"/>
</g>
</g>
</svg>
