<?xml version="1.0" encoding="UTF-8" standalone="no"?>
<!DOCTYPE svg PUBLIC "-//W3C//DTD SVG 1.1//EN"
 "http://www.w3.org/Graphics/SVG/1.1/DTD/svg11.dtd">
<!-- Generated by graphviz version 2.40.1 (20161225.0304)
 -->
<!-- Title: qtsdl::GuiRendererImpl::make_sure_render_thread_wont_sync Pages: 1 -->
<svg width="343pt" height="50pt"
 viewBox="0.00 0.00 343.00 50.00" xmlns="http://www.w3.org/2000/svg" xmlns:xlink="http://www.w3.org/1999/xlink">
<g id="graph0" class="graph" transform="scale(1 1) rotate(0) translate(4 46)">
<title>qtsdl::GuiRendererImpl::make_sure_render_thread_wont_sync</title>
<polygon fill="#ffffff" stroke="transparent" points="-4,4 -4,-46 339,-46 339,4 -4,4"/>
<!-- Node36 -->
<g id="node1" class="node">
<title>Node36</title>
<polygon fill="#bfbfbf" stroke="#000000" points="0,-.5 0,-41.5 135,-41.5 135,-.5 0,-.5"/>
<text text-anchor="start" x="8" y="-29.5" font-family="Helvetica,sans-Serif" font-size="10.00" fill="#000000">qtsdl::GuiRendererImpl</text>
<text text-anchor="start" x="8" y="-18.5" font-family="Helvetica,sans-Serif" font-size="10.00" fill="#000000">::make_sure_render_thread</text>
<text text-anchor="middle" x="67.5" y="-7.5" font-family="Helvetica,sans-Serif" font-size="10.00" fill="#000000">_wont_sync</text>
</g>
<!-- Node37 -->
<g id="node2" class="node">
<title>Node37</title>
<g id="a_node2"><a xlink:href="../../d6/da8/classqtsdl_1_1_temporary_disable_gui_renderer_sync.xhtml#a1c09bf6d7d98cdd77fe4b555f4936cd4" target="_top" xlink:title="qtsdl::TemporaryDisableGui\lRendererSync::TemporaryDisable\lGuiRendererSync">
<polygon fill="#ffffff" stroke="#000000" points="171,-.5 171,-41.5 335,-41.5 335,-.5 171,-.5"/>
<text text-anchor="start" x="179" y="-29.5" font-family="Helvetica,sans-Serif" font-size="10.00" fill="#000000">qtsdl::TemporaryDisableGui</text>
<text text-anchor="start" x="179" y="-18.5" font-family="Helvetica,sans-Serif" font-size="10.00" fill="#000000">RendererSync::TemporaryDisable</text>
<text text-anchor="middle" x="253" y="-7.5" font-family="Helvetica,sans-Serif" font-size="10.00" fill="#000000">GuiRendererSync</text>
</a>
</g>
</g>
<!-- Node36&#45;&gt;Node37 -->
<g id="edge1" class="edge">
<title>Node36&#45;&gt;Node37</title>
<path fill="none" stroke="#191970" d="M145.4311,-21C153.8558,-21 162.448,-21 170.9198,-21"/>
<polygon fill="#191970" stroke="#191970" points="145.2572,-17.5001 135.2572,-21 145.2571,-24.5001 145.2572,-17.5001"/>
</g>
</g>
</svg>
