<?xml version="1.0" encoding="UTF-8" standalone="no"?>
<!DOCTYPE svg PUBLIC "-//W3C//DTD SVG 1.1//EN"
 "http://www.w3.org/Graphics/SVG/1.1/DTD/svg11.dtd">
<!-- Generated by graphviz version 2.40.1 (20161225.0304)
 -->
<!-- Title: qtsdl::GuiRendererImpl::get_window Pages: 1 -->
<svg width="986pt" height="161pt"
 viewBox="0.00 0.00 986.00 161.00" xmlns="http://www.w3.org/2000/svg" xmlns:xlink="http://www.w3.org/1999/xlink">
<g id="graph0" class="graph" transform="scale(1 1) rotate(0) translate(4 157)">
<title>qtsdl::GuiRendererImpl::get_window</title>
<polygon fill="#ffffff" stroke="transparent" points="-4,4 -4,-157 982,-157 982,4 -4,4"/>
<!-- Node14 -->
<g id="node1" class="node">
<title>Node14</title>
<polygon fill="#bfbfbf" stroke="#000000" points="0,-97.5 0,-127.5 117,-127.5 117,-97.5 0,-97.5"/>
<text text-anchor="start" x="8" y="-115.5" font-family="Helvetica,sans-Serif" font-size="10.00" fill="#000000">qtsdl::GuiRendererImpl</text>
<text text-anchor="middle" x="58.5" y="-104.5" font-family="Helvetica,sans-Serif" font-size="10.00" fill="#000000">::get_window</text>
</g>
<!-- Node15 -->
<g id="node2" class="node">
<title>Node15</title>
<g id="a_node2"><a xlink:href="../../de/d58/classqtsdl_1_1_gui_engine_impl.xhtml#a5b83bd915fa9ce9bf9e36f26000143cc" target="_top" xlink:title="qtsdl::GuiEngineImpl\l::attach_to">
<polygon fill="#ffffff" stroke="#000000" points="155,-122.5 155,-152.5 262,-152.5 262,-122.5 155,-122.5"/>
<text text-anchor="start" x="163" y="-140.5" font-family="Helvetica,sans-Serif" font-size="10.00" fill="#000000">qtsdl::GuiEngineImpl</text>
<text text-anchor="middle" x="208.5" y="-129.5" font-family="Helvetica,sans-Serif" font-size="10.00" fill="#000000">::attach_to</text>
</a>
</g>
</g>
<!-- Node14&#45;&gt;Node15 -->
<g id="edge1" class="edge">
<title>Node14&#45;&gt;Node15</title>
<path fill="none" stroke="#191970" d="M127.2667,-123.9611C136.4725,-125.4954 145.8043,-127.0507 154.7024,-128.5337"/>
<polygon fill="#191970" stroke="#191970" points="127.7928,-120.5006 117.3535,-122.3089 126.642,-127.4054 127.7928,-120.5006"/>
</g>
<!-- Node17 -->
<g id="node4" class="node">
<title>Node17</title>
<g id="a_node4"><a xlink:href="../../d4/d96/classqtsdl_1_1_gui_subtree_impl.xhtml#a810b181409e571b440ab128d2c073703" target="_top" xlink:title="qtsdl::GuiSubtreeImpl\l::reparent_root">
<polygon fill="#ffffff" stroke="#000000" points="153,-73.5 153,-103.5 264,-103.5 264,-73.5 153,-73.5"/>
<text text-anchor="start" x="161" y="-91.5" font-family="Helvetica,sans-Serif" font-size="10.00" fill="#000000">qtsdl::GuiSubtreeImpl</text>
<text text-anchor="middle" x="208.5" y="-80.5" font-family="Helvetica,sans-Serif" font-size="10.00" fill="#000000">::reparent_root</text>
</a>
</g>
</g>
<!-- Node14&#45;&gt;Node17 -->
<g id="edge3" class="edge">
<title>Node14&#45;&gt;Node17</title>
<path fill="none" stroke="#191970" d="M127.2902,-101.4936C135.8198,-100.1288 144.4572,-98.7468 152.7571,-97.4189"/>
<polygon fill="#191970" stroke="#191970" points="126.6749,-98.0474 117.3535,-103.0834 127.7809,-104.9595 126.6749,-98.0474"/>
</g>
<!-- Node16 -->
<g id="node3" class="node">
<title>Node16</title>
<g id="a_node3"><a xlink:href="../../de/d58/classqtsdl_1_1_gui_engine_impl.xhtml#a4088026e44037a9ec5c6a7d664651c0f" target="_top" xlink:title="qtsdl::GuiEngineImpl\l::GuiEngineImpl">
<polygon fill="#ffffff" stroke="#000000" points="319,-122.5 319,-152.5 426,-152.5 426,-122.5 319,-122.5"/>
<text text-anchor="start" x="327" y="-140.5" font-family="Helvetica,sans-Serif" font-size="10.00" fill="#000000">qtsdl::GuiEngineImpl</text>
<text text-anchor="middle" x="372.5" y="-129.5" font-family="Helvetica,sans-Serif" font-size="10.00" fill="#000000">::GuiEngineImpl</text>
</a>
</g>
</g>
<!-- Node15&#45;&gt;Node16 -->
<g id="edge2" class="edge">
<title>Node15&#45;&gt;Node16</title>
<path fill="none" stroke="#191970" d="M272.2004,-137.5C287.6567,-137.5 304.027,-137.5 318.9598,-137.5"/>
<polygon fill="#191970" stroke="#191970" points="272.1998,-134.0001 262.1997,-137.5 272.1997,-141.0001 272.1998,-134.0001"/>
</g>
<!-- Node18 -->
<g id="node5" class="node">
<title>Node18</title>
<g id="a_node5"><a xlink:href="../../d4/d96/classqtsdl_1_1_gui_subtree_impl.xhtml#aee5a3d8f253ea34f7c49a6709b5e1e8f" target="_top" xlink:title="qtsdl::GuiSubtreeImpl\l::attach_to">
<polygon fill="#ffffff" stroke="#000000" points="317,-73.5 317,-103.5 428,-103.5 428,-73.5 317,-73.5"/>
<text text-anchor="start" x="325" y="-91.5" font-family="Helvetica,sans-Serif" font-size="10.00" fill="#000000">qtsdl::GuiSubtreeImpl</text>
<text text-anchor="middle" x="372.5" y="-80.5" font-family="Helvetica,sans-Serif" font-size="10.00" fill="#000000">::attach_to</text>
</a>
</g>
</g>
<!-- Node17&#45;&gt;Node18 -->
<g id="edge4" class="edge">
<title>Node17&#45;&gt;Node18</title>
<path fill="none" stroke="#191970" d="M274.1565,-88.5C288.2713,-88.5 303.0596,-88.5 316.7554,-88.5"/>
<polygon fill="#191970" stroke="#191970" points="274.023,-85.0001 264.0229,-88.5 274.0229,-92.0001 274.023,-85.0001"/>
</g>
<!-- Node19 -->
<g id="node6" class="node">
<title>Node19</title>
<g id="a_node6"><a xlink:href="../../d4/d96/classqtsdl_1_1_gui_subtree_impl.xhtml#aed216357736342148f86afb0d73f3fdd" target="_top" xlink:title="qtsdl::GuiSubtreeImpl\l::component_status_changed">
<polygon fill="#ffffff" stroke="#000000" points="300,-24.5 300,-54.5 445,-54.5 445,-24.5 300,-24.5"/>
<text text-anchor="start" x="308" y="-42.5" font-family="Helvetica,sans-Serif" font-size="10.00" fill="#000000">qtsdl::GuiSubtreeImpl</text>
<text text-anchor="middle" x="372.5" y="-31.5" font-family="Helvetica,sans-Serif" font-size="10.00" fill="#000000">::component_status_changed</text>
</a>
</g>
</g>
<!-- Node17&#45;&gt;Node19 -->
<g id="edge5" class="edge">
<title>Node17&#45;&gt;Node19</title>
<path fill="none" stroke="#191970" d="M268.6343,-70.533C286.206,-65.283 305.2229,-59.6011 322.1233,-54.5516"/>
<polygon fill="#191970" stroke="#191970" points="267.6231,-67.1822 259.0436,-73.3986 269.6271,-73.8892 267.6231,-67.1822"/>
</g>
<!-- Node20 -->
<g id="node7" class="node">
<title>Node20</title>
<g id="a_node7"><a xlink:href="../../d4/d96/classqtsdl_1_1_gui_subtree_impl.xhtml#aea9b559c07846786ebcf6c41ef58ff78" target="_top" xlink:title="qtsdl::GuiSubtreeImpl\l::onEngineReloaded">
<polygon fill="#ffffff" stroke="#000000" points="481,-49.5 481,-79.5 592,-79.5 592,-49.5 481,-49.5"/>
<text text-anchor="start" x="489" y="-67.5" font-family="Helvetica,sans-Serif" font-size="10.00" fill="#000000">qtsdl::GuiSubtreeImpl</text>
<text text-anchor="middle" x="536.5" y="-56.5" font-family="Helvetica,sans-Serif" font-size="10.00" fill="#000000">::onEngineReloaded</text>
</a>
</g>
</g>
<!-- Node19&#45;&gt;Node20 -->
<g id="edge6" class="edge">
<title>Node19&#45;&gt;Node20</title>
<path fill="none" stroke="#191970" d="M455.3872,-52.1352C463.919,-53.4358 472.438,-54.7345 480.5747,-55.9748"/>
<polygon fill="#191970" stroke="#191970" points="455.8011,-48.658 445.3879,-50.611 454.7462,-55.578 455.8011,-48.658"/>
</g>
<!-- Node25 -->
<g id="node12" class="node">
<title>Node25</title>
<g id="a_node12"><a xlink:href="../../d4/d96/classqtsdl_1_1_gui_subtree_impl.xhtml#a903d02ad6f5349af96add80f99ddf345" target="_top" xlink:title="qtsdl::GuiSubtreeImpl\l::attach_to">
<polygon fill="#ffffff" stroke="#000000" points="481,-.5 481,-30.5 592,-30.5 592,-.5 481,-.5"/>
<text text-anchor="start" x="489" y="-18.5" font-family="Helvetica,sans-Serif" font-size="10.00" fill="#000000">qtsdl::GuiSubtreeImpl</text>
<text text-anchor="middle" x="536.5" y="-7.5" font-family="Helvetica,sans-Serif" font-size="10.00" fill="#000000">::attach_to</text>
</a>
</g>
</g>
<!-- Node19&#45;&gt;Node25 -->
<g id="edge11" class="edge">
<title>Node19&#45;&gt;Node25</title>
<path fill="none" stroke="#191970" d="M455.3872,-27.3702C463.919,-26.1216 472.438,-24.8749 480.5747,-23.6842"/>
<polygon fill="#191970" stroke="#191970" points="454.7756,-23.9223 445.3879,-28.8335 455.7893,-30.8485 454.7756,-23.9223"/>
</g>
<!-- Node21 -->
<g id="node8" class="node">
<title>Node21</title>
<g id="a_node8"><a xlink:href="../../dd/d89/classqtsdl_1_1_gui_engine_impl_connection.xhtml#af9d75573df9d5f7b433c54eb6f2690fa" target="_top" xlink:title="qtsdl::GuiEngineImplConnection\l::GuiEngineImplConnection">
<polygon fill="#ffffff" stroke="#000000" points="628,-73.5 628,-103.5 785,-103.5 785,-73.5 628,-73.5"/>
<text text-anchor="start" x="636" y="-91.5" font-family="Helvetica,sans-Serif" font-size="10.00" fill="#000000">qtsdl::GuiEngineImplConnection</text>
<text text-anchor="middle" x="706.5" y="-80.5" font-family="Helvetica,sans-Serif" font-size="10.00" fill="#000000">::GuiEngineImplConnection</text>
</a>
</g>
</g>
<!-- Node20&#45;&gt;Node21 -->
<g id="edge7" class="edge">
<title>Node20&#45;&gt;Node21</title>
<path fill="none" stroke="#191970" d="M602.2517,-73.7826C610.6484,-74.968 619.3096,-76.1908 627.8837,-77.4012"/>
<polygon fill="#191970" stroke="#191970" points="602.5555,-70.2909 592.1644,-72.3585 601.5769,-77.2221 602.5555,-70.2909"/>
</g>
<!-- Node22 -->
<g id="node9" class="node">
<title>Node22</title>
<g id="a_node9"><a xlink:href="../../dd/d89/classqtsdl_1_1_gui_engine_impl_connection.xhtml#ac2ef61bcd0cdb991b399a29eeb5ec74c" target="_top" xlink:title="qtsdl::GuiEngineImplConnection\l::disconnect">
<polygon fill="#ffffff" stroke="#000000" points="628,-24.5 628,-54.5 785,-54.5 785,-24.5 628,-24.5"/>
<text text-anchor="start" x="636" y="-42.5" font-family="Helvetica,sans-Serif" font-size="10.00" fill="#000000">qtsdl::GuiEngineImplConnection</text>
<text text-anchor="middle" x="706.5" y="-31.5" font-family="Helvetica,sans-Serif" font-size="10.00" fill="#000000">::disconnect</text>
</a>
</g>
</g>
<!-- Node20&#45;&gt;Node22 -->
<g id="edge8" class="edge">
<title>Node20&#45;&gt;Node22</title>
<path fill="none" stroke="#191970" d="M602.2517,-54.8306C610.6484,-53.5958 619.3096,-52.3221 627.8837,-51.0612"/>
<polygon fill="#191970" stroke="#191970" points="601.5487,-51.3963 592.1644,-56.3141 602.5672,-58.3218 601.5487,-51.3963"/>
</g>
<!-- Node23 -->
<g id="node10" class="node">
<title>Node23</title>
<g id="a_node10"><a xlink:href="../../dd/d89/classqtsdl_1_1_gui_engine_impl_connection.xhtml#a3de39e1c4b2cc6b97f38d9c1217d5de5" target="_top" xlink:title="qtsdl::GuiEngineImplConnection\l::operator=">
<polygon fill="#ffffff" stroke="#000000" points="821,-49.5 821,-79.5 978,-79.5 978,-49.5 821,-49.5"/>
<text text-anchor="start" x="829" y="-67.5" font-family="Helvetica,sans-Serif" font-size="10.00" fill="#000000">qtsdl::GuiEngineImplConnection</text>
<text text-anchor="middle" x="899.5" y="-56.5" font-family="Helvetica,sans-Serif" font-size="10.00" fill="#000000">::operator=</text>
</a>
</g>
</g>
<!-- Node22&#45;&gt;Node23 -->
<g id="edge9" class="edge">
<title>Node22&#45;&gt;Node23</title>
<path fill="none" stroke="#191970" d="M795.0225,-50.9666C803.607,-52.0786 812.2762,-53.2016 820.7559,-54.3"/>
<polygon fill="#191970" stroke="#191970" points="795.3673,-47.4821 785.0005,-49.6685 794.468,-54.4241 795.3673,-47.4821"/>
</g>
<!-- Node24 -->
<g id="node11" class="node">
<title>Node24</title>
<g id="a_node11"><a xlink:href="../../dd/d89/classqtsdl_1_1_gui_engine_impl_connection.xhtml#a838d04049e7a234096ddc630de0fee59" target="_top" xlink:title="qtsdl::GuiEngineImplConnection\l::~GuiEngineImplConnection">
<polygon fill="#ffffff" stroke="#000000" points="821,-.5 821,-30.5 978,-30.5 978,-.5 821,-.5"/>
<text text-anchor="start" x="829" y="-18.5" font-family="Helvetica,sans-Serif" font-size="10.00" fill="#000000">qtsdl::GuiEngineImplConnection</text>
<text text-anchor="middle" x="899.5" y="-7.5" font-family="Helvetica,sans-Serif" font-size="10.00" fill="#000000">::~GuiEngineImplConnection</text>
</a>
</g>
</g>
<!-- Node22&#45;&gt;Node24 -->
<g id="edge10" class="edge">
<title>Node22&#45;&gt;Node24</title>
<path fill="none" stroke="#191970" d="M795.0225,-28.492C803.607,-27.4245 812.2762,-26.3465 820.7559,-25.292"/>
<polygon fill="#191970" stroke="#191970" points="794.4921,-25.0309 785.0005,-29.7383 795.356,-31.9774 794.4921,-25.0309"/>
</g>
</g>
</svg>
