<?xml version="1.0" encoding="UTF-8" standalone="no"?>
<!DOCTYPE svg PUBLIC "-//W3C//DTD SVG 1.1//EN"
 "http://www.w3.org/Graphics/SVG/1.1/DTD/svg11.dtd">
<!-- Generated by graphviz version 2.40.1 (20161225.0304)
 -->
<!-- Title: /mnt/c/Users/Jameson/Desktop/git/openage&#45;new&#45;doc&#45;system/libopenage/event/event.h Pages: 1 -->
<svg width="1076pt" height="677pt"
 viewBox="0.00 0.00 1076.00 677.45" xmlns="http://www.w3.org/2000/svg" xmlns:xlink="http://www.w3.org/1999/xlink">
<g id="graph0" class="graph" transform="scale(1 1) rotate(0) translate(4 673.4516)">
<title>/mnt/c/Users/Jameson/Desktop/git/openage&#45;new&#45;doc&#45;system/libopenage/event/event.h</title>
<polygon fill="#ffffff" stroke="transparent" points="-4,4 -4,-673.4516 1072,-673.4516 1072,4 -4,4"/>
<!-- Node0 -->
<g id="node1" class="node">
<title>Node0</title>
<polygon fill="#bfbfbf" stroke="#000000" points="775.5,-616.9516 775.5,-668.9516 916.5,-668.9516 916.5,-616.9516 775.5,-616.9516"/>
<text text-anchor="start" x="783.5" y="-656.9516" font-family="Helvetica,sans-Serif" font-size="10.00" fill="#000000">/mnt/c/Users/Jameson</text>
<text text-anchor="start" x="783.5" y="-645.9516" font-family="Helvetica,sans-Serif" font-size="10.00" fill="#000000">/Desktop/git/openage</text>
<text text-anchor="start" x="783.5" y="-634.9516" font-family="Helvetica,sans-Serif" font-size="10.00" fill="#000000">&#45;new&#45;doc&#45;system/libopenage</text>
<text text-anchor="middle" x="846" y="-623.9516" font-family="Helvetica,sans-Serif" font-size="10.00" fill="#000000">/event/event.h</text>
</g>
<!-- Node1 -->
<g id="node2" class="node">
<title>Node1</title>
<polygon fill="#ffffff" stroke="#bfbfbf" points="727,-112.9516 727,-131.9516 779,-131.9516 779,-112.9516 727,-112.9516"/>
<text text-anchor="middle" x="753" y="-119.9516" font-family="Helvetica,sans-Serif" font-size="10.00" fill="#000000">memory</text>
</g>
<!-- Node0&#45;&gt;Node1 -->
<g id="edge1" class="edge">
<title>Node0&#45;&gt;Node1</title>
<path fill="none" stroke="#191970" d="M916.5472,-632.2859C981.552,-617.9848 1068,-585.5925 1068,-514.4516 1068,-514.4516 1068,-514.4516 1068,-458.4516 1068,-381.8987 1030,-367.0045 1030,-290.4516 1030,-290.4516 1030,-290.4516 1030,-234.4516 1030,-183.0515 863.9978,-144.1127 789.0098,-129.1451"/>
<polygon fill="#191970" stroke="#191970" points="789.5462,-125.6837 779.0595,-127.1934 788.1988,-132.5528 789.5462,-125.6837"/>
</g>
<!-- Node2 -->
<g id="node3" class="node">
<title>Node2</title>
<g id="a_node3"><a xlink:href="../../d5/d08/eventclass_8h.xhtml" target="_top" xlink:title="eventclass.h">
<polygon fill="#ffffff" stroke="#000000" points="810,-560.9516 810,-579.9516 882,-579.9516 882,-560.9516 810,-560.9516"/>
<text text-anchor="middle" x="846" y="-567.9516" font-family="Helvetica,sans-Serif" font-size="10.00" fill="#000000">eventclass.h</text>
</a>
</g>
</g>
<!-- Node0&#45;&gt;Node2 -->
<g id="edge2" class="edge">
<title>Node0&#45;&gt;Node2</title>
<path fill="none" stroke="#191970" d="M846,-616.7775C846,-607.9658 846,-598.2913 846,-590.0727"/>
<polygon fill="#191970" stroke="#191970" points="849.5001,-589.9856 846,-579.9856 842.5001,-589.9857 849.5001,-589.9856"/>
</g>
<!-- Node3 -->
<g id="node4" class="node">
<title>Node3</title>
<g id="a_node4"><a xlink:href="../../df/de9/curve_8h.xhtml" target="_top" xlink:title="../curve/curve.h">
<polygon fill="#ffffff" stroke="#000000" points="681.5,-504.9516 681.5,-523.9516 766.5,-523.9516 766.5,-504.9516 681.5,-504.9516"/>
<text text-anchor="middle" x="724" y="-511.9516" font-family="Helvetica,sans-Serif" font-size="10.00" fill="#000000">../curve/curve.h</text>
</a>
</g>
</g>
<!-- Node0&#45;&gt;Node3 -->
<g id="edge67" class="edge">
<title>Node0&#45;&gt;Node3</title>
<path fill="none" stroke="#191970" d="M821.3115,-616.9477C797.1097,-591.4566 760.9183,-553.3368 740.1711,-531.4843"/>
<polygon fill="#191970" stroke="#191970" points="742.4564,-528.8081 733.0329,-523.9658 737.38,-533.6278 742.4564,-528.8081"/>
</g>
<!-- Node2&#45;&gt;Node1 -->
<g id="edge64" class="edge">
<title>Node2&#45;&gt;Node1</title>
<path fill="none" stroke="#191970" d="M882.2833,-566.0621C910.4248,-560.7989 948.479,-549.3234 972,-524.4516 993.0601,-502.1821 992,-489.1022 992,-458.4516 992,-458.4516 992,-458.4516 992,-402.4516 992,-272.9666 842.3092,-173.0617 779.8596,-137.0165"/>
<polygon fill="#191970" stroke="#191970" points="781.3895,-133.8606 770.9638,-131.9749 777.938,-139.9505 781.3895,-133.8606"/>
</g>
<!-- Node2&#45;&gt;Node3 -->
<g id="edge3" class="edge">
<title>Node2&#45;&gt;Node3</title>
<path fill="none" stroke="#191970" d="M825.0275,-560.8249C805.4433,-551.8354 776.0039,-538.3223 753.949,-528.1987"/>
<polygon fill="#191970" stroke="#191970" points="755.2473,-524.9436 744.6989,-523.9528 752.3271,-531.3054 755.2473,-524.9436"/>
</g>
<!-- Node16 -->
<g id="node17" class="node">
<title>Node16</title>
<polygon fill="#ffffff" stroke="#bfbfbf" points="528.5,-.9516 528.5,-19.9516 569.5,-19.9516 569.5,-.9516 528.5,-.9516"/>
<text text-anchor="middle" x="549" y="-7.9516" font-family="Helvetica,sans-Serif" font-size="10.00" fill="#000000">string</text>
</g>
<!-- Node2&#45;&gt;Node16 -->
<g id="edge65" class="edge">
<title>Node2&#45;&gt;Node16</title>
<path fill="none" stroke="#191970" d="M837.577,-560.8909C827.217,-547.9069 812.041,-524.0675 821,-504.4516 881.3427,-372.3303 1068,-435.7007 1068,-290.4516 1068,-290.4516 1068,-290.4516 1068,-122.4516 1068,-72.2165 691.6738,-26.3235 579.9254,-13.8032"/>
<polygon fill="#191970" stroke="#191970" points="579.9908,-10.289 569.6657,-12.6645 579.2186,-17.2463 579.9908,-10.289"/>
</g>
<!-- Node41 -->
<g id="node42" class="node">
<title>Node41</title>
<polygon fill="#ffffff" stroke="#bfbfbf" points="830,-504.9516 830,-523.9516 862,-523.9516 862,-504.9516 830,-504.9516"/>
<text text-anchor="middle" x="846" y="-511.9516" font-family="Helvetica,sans-Serif" font-size="10.00" fill="#000000">any</text>
</g>
<!-- Node2&#45;&gt;Node41 -->
<g id="edge63" class="edge">
<title>Node2&#45;&gt;Node41</title>
<path fill="none" stroke="#191970" d="M846,-560.6972C846,-553.3899 846,-543.146 846,-534.1562"/>
<polygon fill="#191970" stroke="#191970" points="849.5001,-534.0943 846,-524.0943 842.5001,-534.0943 849.5001,-534.0943"/>
</g>
<!-- Node42 -->
<g id="node43" class="node">
<title>Node42</title>
<polygon fill="#ffffff" stroke="#bfbfbf" points="880.5,-504.9516 880.5,-523.9516 963.5,-523.9516 963.5,-504.9516 880.5,-504.9516"/>
<text text-anchor="middle" x="922" y="-511.9516" font-family="Helvetica,sans-Serif" font-size="10.00" fill="#000000">unordered_map</text>
</g>
<!-- Node2&#45;&gt;Node42 -->
<g id="edge66" class="edge">
<title>Node2&#45;&gt;Node42</title>
<path fill="none" stroke="#191970" d="M859.2382,-560.6972C870.681,-552.2657 887.4296,-539.9245 900.7475,-530.1114"/>
<polygon fill="#191970" stroke="#191970" points="902.9391,-532.844 908.9135,-524.0943 898.7867,-527.2086 902.9391,-532.844"/>
</g>
<!-- Node4 -->
<g id="node5" class="node">
<title>Node4</title>
<polygon fill="#ffffff" stroke="#bfbfbf" points="150,-224.9516 150,-243.9516 196,-243.9516 196,-224.9516 150,-224.9516"/>
<text text-anchor="middle" x="173" y="-231.9516" font-family="Helvetica,sans-Serif" font-size="10.00" fill="#000000">cstdint</text>
</g>
<!-- Node3&#45;&gt;Node4 -->
<g id="edge4" class="edge">
<title>Node3&#45;&gt;Node4</title>
<path fill="none" stroke="#191970" d="M703.0935,-504.8387C650.8726,-480.7284 510.6816,-415.3936 396,-356.4516 323.7195,-319.3022 240.0332,-272.4683 198.7541,-249.107"/>
<polygon fill="#191970" stroke="#191970" points="200.3307,-245.9775 189.9052,-244.0908 196.8786,-252.0671 200.3307,-245.9775"/>
</g>
<!-- Node5 -->
<g id="node6" class="node">
<title>Node5</title>
<g id="a_node6"><a xlink:href="../../de/d62/fixed__point_8h.xhtml" target="_top" xlink:title="../util/fixed_point.h">
<polygon fill="#ffffff" stroke="#000000" points="648.5,-448.9516 648.5,-467.9516 745.5,-467.9516 745.5,-448.9516 648.5,-448.9516"/>
<text text-anchor="middle" x="697" y="-455.9516" font-family="Helvetica,sans-Serif" font-size="10.00" fill="#000000">../util/fixed_point.h</text>
</a>
</g>
</g>
<!-- Node3&#45;&gt;Node5 -->
<g id="edge5" class="edge">
<title>Node3&#45;&gt;Node5</title>
<path fill="none" stroke="#191970" d="M719.297,-504.6972C715.6576,-497.149 710.5076,-486.4674 706.0738,-477.2714"/>
<polygon fill="#191970" stroke="#191970" points="709.1449,-475.5819 701.6491,-468.0943 702.8395,-478.6221 709.1449,-475.5819"/>
</g>
<!-- Node6 -->
<g id="node7" class="node">
<title>Node6</title>
<polygon fill="#ffffff" stroke="#bfbfbf" points="846,-336.9516 846,-355.9516 902,-355.9516 902,-336.9516 846,-336.9516"/>
<text text-anchor="middle" x="874" y="-343.9516" font-family="Helvetica,sans-Serif" font-size="10.00" fill="#000000">algorithm</text>
</g>
<!-- Node5&#45;&gt;Node6 -->
<g id="edge6" class="edge">
<title>Node5&#45;&gt;Node6</title>
<path fill="none" stroke="#191970" d="M721.1065,-448.7915C741.0406,-440.3648 769.7466,-427.2018 793,-412.4516 816.2185,-397.7236 840.339,-377.2979 856.1532,-363.0853"/>
<polygon fill="#191970" stroke="#191970" points="858.584,-365.6054 863.6171,-356.2824 853.8686,-360.4318 858.584,-365.6054"/>
</g>
<!-- Node7 -->
<g id="node8" class="node">
<title>Node7</title>
<polygon fill="#ffffff" stroke="#bfbfbf" points="674.5,-392.9516 674.5,-411.9516 719.5,-411.9516 719.5,-392.9516 674.5,-392.9516"/>
<text text-anchor="middle" x="697" y="-399.9516" font-family="Helvetica,sans-Serif" font-size="10.00" fill="#000000">climits</text>
</g>
<!-- Node5&#45;&gt;Node7 -->
<g id="edge7" class="edge">
<title>Node5&#45;&gt;Node7</title>
<path fill="none" stroke="#191970" d="M697,-448.6972C697,-441.3899 697,-431.146 697,-422.1562"/>
<polygon fill="#191970" stroke="#191970" points="700.5001,-422.0943 697,-412.0943 693.5001,-422.0943 700.5001,-422.0943"/>
</g>
<!-- Node8 -->
<g id="node9" class="node">
<title>Node8</title>
<polygon fill="#ffffff" stroke="#bfbfbf" points="920,-336.9516 920,-355.9516 964,-355.9516 964,-336.9516 920,-336.9516"/>
<text text-anchor="middle" x="942" y="-343.9516" font-family="Helvetica,sans-Serif" font-size="10.00" fill="#000000">cmath</text>
</g>
<!-- Node5&#45;&gt;Node8 -->
<g id="edge8" class="edge">
<title>Node5&#45;&gt;Node8</title>
<path fill="none" stroke="#191970" d="M726.8009,-448.894C752.4478,-440.3372 790.2282,-426.9357 822,-412.4516 856.1875,-396.8663 893.8925,-375.3738 917.746,-361.2053"/>
<polygon fill="#191970" stroke="#191970" points="919.6901,-364.1208 926.4722,-355.9812 916.0945,-358.1148 919.6901,-364.1208"/>
</g>
<!-- Node9 -->
<g id="node10" class="node">
<title>Node9</title>
<polygon fill="#ffffff" stroke="#bfbfbf" points="256,-112.9516 256,-131.9516 306,-131.9516 306,-112.9516 256,-112.9516"/>
<text text-anchor="middle" x="281" y="-119.9516" font-family="Helvetica,sans-Serif" font-size="10.00" fill="#000000">iomanip</text>
</g>
<!-- Node5&#45;&gt;Node9 -->
<g id="edge9" class="edge">
<title>Node5&#45;&gt;Node9</title>
<path fill="none" stroke="#191970" d="M648.2653,-455.7738C489.9068,-446.4307 0,-412.2123 0,-346.4516 0,-346.4516 0,-346.4516 0,-290.4516 0,-225.8541 25.8178,-205.119 79,-168.4516 139.2889,-126.8844 170.3792,-149.2114 245.8712,-132.4615"/>
<polygon fill="#191970" stroke="#191970" points="246.8928,-135.816 255.8069,-130.0898 245.2675,-129.0073 246.8928,-135.816"/>
</g>
<!-- Node10 -->
<g id="node11" class="node">
<title>Node10</title>
<polygon fill="#ffffff" stroke="#bfbfbf" points="546,-392.9516 546,-411.9516 586,-411.9516 586,-392.9516 546,-392.9516"/>
<text text-anchor="middle" x="566" y="-399.9516" font-family="Helvetica,sans-Serif" font-size="10.00" fill="#000000">limits</text>
</g>
<!-- Node5&#45;&gt;Node10 -->
<g id="edge10" class="edge">
<title>Node5&#45;&gt;Node10</title>
<path fill="none" stroke="#191970" d="M674.4803,-448.8249C652.6198,-439.48 619.3237,-425.2465 595.3874,-415.0142"/>
<polygon fill="#191970" stroke="#191970" points="596.6519,-411.7484 586.0811,-411.0359 593.9004,-418.185 596.6519,-411.7484"/>
</g>
<!-- Node11 -->
<g id="node12" class="node">
<title>Node11</title>
<polygon fill="#ffffff" stroke="#bfbfbf" points="604,-392.9516 604,-411.9516 656,-411.9516 656,-392.9516 604,-392.9516"/>
<text text-anchor="middle" x="630" y="-399.9516" font-family="Helvetica,sans-Serif" font-size="10.00" fill="#000000">ostream</text>
</g>
<!-- Node5&#45;&gt;Node11 -->
<g id="edge11" class="edge">
<title>Node5&#45;&gt;Node11</title>
<path fill="none" stroke="#191970" d="M685.3295,-448.6972C675.4339,-440.4263 661.0373,-428.3933 649.4099,-418.6749"/>
<polygon fill="#191970" stroke="#191970" points="651.4542,-415.8219 641.5368,-412.0943 646.965,-421.1929 651.4542,-415.8219"/>
</g>
<!-- Node12 -->
<g id="node13" class="node">
<title>Node12</title>
<polygon fill="#ffffff" stroke="#bfbfbf" points="88,-168.9516 88,-187.9516 150,-187.9516 150,-168.9516 88,-168.9516"/>
<text text-anchor="middle" x="119" y="-175.9516" font-family="Helvetica,sans-Serif" font-size="10.00" fill="#000000">type_traits</text>
</g>
<!-- Node5&#45;&gt;Node12 -->
<g id="edge12" class="edge">
<title>Node5&#45;&gt;Node12</title>
<path fill="none" stroke="#191970" d="M648.2965,-451.6653C508.1784,-431.8172 114,-373.5709 114,-346.4516 114,-346.4516 114,-346.4516 114,-290.4516 114,-258.1311 116.1037,-220.6162 117.582,-198.2445"/>
<polygon fill="#191970" stroke="#191970" points="121.0898,-198.25 118.2836,-188.0336 114.1063,-197.7701 121.0898,-198.25"/>
</g>
<!-- Node13 -->
<g id="node14" class="node">
<title>Node13</title>
<g id="a_node14"><a xlink:href="../../d4/d08/misc_8h.xhtml" target="_top" xlink:title="misc.h">
<polygon fill="#ffffff" stroke="#000000" points="738,-392.9516 738,-411.9516 784,-411.9516 784,-392.9516 738,-392.9516"/>
<text text-anchor="middle" x="761" y="-399.9516" font-family="Helvetica,sans-Serif" font-size="10.00" fill="#000000">misc.h</text>
</a>
</g>
</g>
<!-- Node5&#45;&gt;Node13 -->
<g id="edge13" class="edge">
<title>Node5&#45;&gt;Node13</title>
<path fill="none" stroke="#191970" d="M708.1479,-448.6972C717.5087,-440.5066 731.0858,-428.6266 742.1349,-418.9586"/>
<polygon fill="#191970" stroke="#191970" points="744.7588,-421.3134 749.9798,-412.0943 740.1492,-416.0454 744.7588,-421.3134"/>
</g>
<!-- Node13&#45;&gt;Node1 -->
<g id="edge20" class="edge">
<title>Node13&#45;&gt;Node1</title>
<path fill="none" stroke="#191970" d="M760.944,-392.6381C760.7275,-360.475 759.7593,-255.3277 756,-168.4516 755.6242,-159.7664 755.0272,-150.1697 754.4643,-141.9988"/>
<polygon fill="#191970" stroke="#191970" points="757.9507,-141.6828 753.742,-131.9598 750.9688,-142.1852 757.9507,-141.6828"/>
</g>
<!-- Node13&#45;&gt;Node6 -->
<g id="edge14" class="edge">
<title>Node13&#45;&gt;Node6</title>
<path fill="none" stroke="#191970" d="M780.4254,-392.8249C798.4021,-383.9161 825.3441,-370.5643 845.709,-360.4719"/>
<polygon fill="#191970" stroke="#191970" points="847.4222,-363.5292 854.8281,-355.9528 844.3139,-357.2572 847.4222,-363.5292"/>
</g>
<!-- Node13&#45;&gt;Node8 -->
<g id="edge16" class="edge">
<title>Node13&#45;&gt;Node8</title>
<path fill="none" stroke="#191970" d="M784.1592,-395.4631C811.8688,-387.0768 859.9031,-372.4622 910.2406,-356.6612"/>
<polygon fill="#191970" stroke="#191970" points="911.5079,-359.9318 919.9971,-353.5927 909.4077,-353.2542 911.5079,-359.9318"/>
</g>
<!-- Node14 -->
<g id="node15" class="node">
<title>Node14</title>
<polygon fill="#ffffff" stroke="#bfbfbf" points="602,-336.9516 602,-355.9516 650,-355.9516 650,-336.9516 602,-336.9516"/>
<text text-anchor="middle" x="626" y="-343.9516" font-family="Helvetica,sans-Serif" font-size="10.00" fill="#000000">limits.h</text>
</g>
<!-- Node13&#45;&gt;Node14 -->
<g id="edge15" class="edge">
<title>Node13&#45;&gt;Node14</title>
<path fill="none" stroke="#191970" d="M737.7927,-392.8249C715.8301,-383.7145 682.6668,-369.9579 658.1599,-359.792"/>
<polygon fill="#191970" stroke="#191970" points="659.4824,-356.5515 648.9045,-355.9528 656.8003,-363.0173 659.4824,-356.5515"/>
</g>
<!-- Node15 -->
<g id="node16" class="node">
<title>Node15</title>
<polygon fill="#ffffff" stroke="#bfbfbf" points="668,-336.9516 668,-355.9516 714,-355.9516 714,-336.9516 668,-336.9516"/>
<text text-anchor="middle" x="691" y="-343.9516" font-family="Helvetica,sans-Serif" font-size="10.00" fill="#000000">cstring</text>
</g>
<!-- Node13&#45;&gt;Node15 -->
<g id="edge17" class="edge">
<title>Node13&#45;&gt;Node15</title>
<path fill="none" stroke="#191970" d="M748.8069,-392.6972C738.3679,-384.346 723.1345,-372.1593 710.926,-362.3925"/>
<polygon fill="#191970" stroke="#191970" points="713.0485,-359.6082 703.0533,-356.0943 708.6756,-365.0743 713.0485,-359.6082"/>
</g>
<!-- Node13&#45;&gt;Node16 -->
<g id="edge18" class="edge">
<title>Node13&#45;&gt;Node16</title>
<path fill="none" stroke="#191970" d="M737.702,-394.805C734.4671,-393.9157 731.1675,-393.0974 728,-392.4516 473.9808,-340.6623 390.6391,-401.7398 152,-300.4516 85.1433,-272.0749 54.5957,-257.7963 33,-188.4516 15.538,-132.3805 -4.2881,-96.1382 39,-56.4516 74.3631,-24.0307 412.6979,-13.579 517.926,-11.0985"/>
<polygon fill="#191970" stroke="#191970" points="518.2806,-14.5914 528.1982,-10.8645 518.1211,-7.5932 518.2806,-14.5914"/>
</g>
<!-- Node17 -->
<g id="node18" class="node">
<title>Node17</title>
<polygon fill="#ffffff" stroke="#bfbfbf" points="577,-112.9516 577,-131.9516 621,-131.9516 621,-112.9516 577,-112.9516"/>
<text text-anchor="middle" x="599" y="-119.9516" font-family="Helvetica,sans-Serif" font-size="10.00" fill="#000000">vector</text>
</g>
<!-- Node13&#45;&gt;Node17 -->
<g id="edge19" class="edge">
<title>Node13&#45;&gt;Node17</title>
<path fill="none" stroke="#191970" d="M758.1965,-392.6582C752.9113,-373.3037 742,-328.7128 742,-290.4516 742,-290.4516 742,-290.4516 742,-234.4516 742,-178.2528 672.6998,-146.0219 630.5853,-131.6235"/>
<polygon fill="#191970" stroke="#191970" points="631.6229,-128.2805 621.0304,-128.5013 629.4486,-134.9343 631.6229,-128.2805"/>
</g>
<!-- Node18 -->
<g id="node19" class="node">
<title>Node18</title>
<g id="a_node19"><a xlink:href="../../d7/dce/error_2error_8h.xhtml" target="_top" xlink:title="../error/error.h">
<polygon fill="#ffffff" stroke="#000000" points="405,-336.9516 405,-355.9516 481,-355.9516 481,-336.9516 405,-336.9516"/>
<text text-anchor="middle" x="443" y="-343.9516" font-family="Helvetica,sans-Serif" font-size="10.00" fill="#000000">../error/error.h</text>
</a>
</g>
</g>
<!-- Node13&#45;&gt;Node18 -->
<g id="edge21" class="edge">
<title>Node13&#45;&gt;Node18</title>
<path fill="none" stroke="#191970" d="M737.6686,-394.9584C734.4389,-394.0454 731.1497,-393.1796 728,-392.4516 645.7119,-373.4334 548.2678,-359.5212 491.2753,-352.2334"/>
<polygon fill="#191970" stroke="#191970" points="491.4769,-348.7312 481.117,-350.95 490.5994,-355.676 491.4769,-348.7312"/>
</g>
<!-- Node21 -->
<g id="node22" class="node">
<title>Node21</title>
<g id="a_node22"><a xlink:href="../../d4/dd1/compiler_8h.xhtml" target="_top" xlink:title="../util/compiler.h">
<polygon fill="#ffffff" stroke="#000000" points="677,-56.9516 677,-75.9516 763,-75.9516 763,-56.9516 677,-56.9516"/>
<text text-anchor="middle" x="720" y="-63.9516" font-family="Helvetica,sans-Serif" font-size="10.00" fill="#000000">../util/compiler.h</text>
</a>
</g>
</g>
<!-- Node13&#45;&gt;Node21 -->
<g id="edge62" class="edge">
<title>Node13&#45;&gt;Node21</title>
<path fill="none" stroke="#191970" d="M766.5517,-392.8384C787.9654,-354.3772 861.2087,-209.0052 804,-112.4516 795.1564,-97.5258 779.5668,-87.1252 764.1998,-80.0407"/>
<polygon fill="#191970" stroke="#191970" points="765.2971,-76.705 754.7227,-76.0472 762.5789,-83.1557 765.2971,-76.705"/>
</g>
<!-- Node18&#45;&gt;Node1 -->
<g id="edge23" class="edge">
<title>Node18&#45;&gt;Node1</title>
<path fill="none" stroke="#191970" d="M481.1798,-338.5873C532.7419,-326.2899 625.0663,-298.1521 685,-244.4516 717.0629,-215.7234 737.359,-168.1649 746.7882,-141.7113"/>
<polygon fill="#191970" stroke="#191970" points="750.1564,-142.678 750.0691,-132.0835 743.5305,-140.42 750.1564,-142.678"/>
</g>
<!-- Node18&#45;&gt;Node16 -->
<g id="edge25" class="edge">
<title>Node18&#45;&gt;Node16</title>
<path fill="none" stroke="#191970" d="M404.8745,-342.7716C297.1577,-330.2796 .5216,-280.4279 35,-112.4516 40.4445,-85.9263 37.1161,-72.3993 59,-56.4516 96.102,-29.414 416.2626,-15.3529 518.0613,-11.5364"/>
<polygon fill="#191970" stroke="#191970" points="518.4306,-15.0253 528.2951,-11.1599 518.1732,-8.03 518.4306,-15.0253"/>
</g>
<!-- Node19 -->
<g id="node20" class="node">
<title>Node19</title>
<polygon fill="#ffffff" stroke="#bfbfbf" points="68,-56.9516 68,-75.9516 122,-75.9516 122,-56.9516 68,-56.9516"/>
<text text-anchor="middle" x="95" y="-63.9516" font-family="Helvetica,sans-Serif" font-size="10.00" fill="#000000">iostream</text>
</g>
<!-- Node18&#45;&gt;Node19 -->
<g id="edge22" class="edge">
<title>Node18&#45;&gt;Node19</title>
<path fill="none" stroke="#191970" d="M404.648,-338.7921C345.1511,-325.7797 228.3708,-295.6621 141,-244.4516 83.4286,-210.7075 60.5994,-196.2403 41,-132.4516 38.3893,-123.9548 37.2734,-120.5216 41,-112.4516 46.8259,-99.8357 58.0069,-89.4045 68.6905,-81.683"/>
<polygon fill="#191970" stroke="#191970" points="70.6856,-84.5593 77.0401,-76.0816 66.7858,-78.7462 70.6856,-84.5593"/>
</g>
<!-- Node20 -->
<g id="node21" class="node">
<title>Node20</title>
<polygon fill="#ffffff" stroke="#bfbfbf" points="321.5,-280.9516 321.5,-299.9516 380.5,-299.9516 380.5,-280.9516 321.5,-280.9516"/>
<text text-anchor="middle" x="351" y="-287.9516" font-family="Helvetica,sans-Serif" font-size="10.00" fill="#000000">stdexcept</text>
</g>
<!-- Node18&#45;&gt;Node20 -->
<g id="edge24" class="edge">
<title>Node18&#45;&gt;Node20</title>
<path fill="none" stroke="#191970" d="M426.9748,-336.6972C412.8592,-328.1051 392.0737,-315.453 375.8101,-305.5534"/>
<polygon fill="#191970" stroke="#191970" points="377.2034,-302.3041 366.8415,-300.0943 373.5637,-308.2835 377.2034,-302.3041"/>
</g>
<!-- Node18&#45;&gt;Node21 -->
<g id="edge26" class="edge">
<title>Node18&#45;&gt;Node21</title>
<path fill="none" stroke="#191970" d="M481.3098,-341.4016C520.1374,-335.2929 581.2682,-322.9153 630,-300.4516 668.7564,-282.5862 677.8601,-274.6646 708,-244.4516 751.2028,-201.1441 769.3317,-190.7055 788,-132.4516 790.7127,-123.9868 792.1678,-120.3029 788,-112.4516 780.6154,-98.5406 766.9364,-88.0682 753.7728,-80.6579"/>
<polygon fill="#191970" stroke="#191970" points="755.3134,-77.5141 744.8255,-76.0122 752.0876,-83.7266 755.3134,-77.5141"/>
</g>
<!-- Node24 -->
<g id="node25" class="node">
<title>Node24</title>
<g id="a_node25"><a xlink:href="../../d2/d0d/message_8h.xhtml" target="_top" xlink:title="../log/message.h">
<polygon fill="#ffffff" stroke="#000000" points="398.5,-280.9516 398.5,-299.9516 487.5,-299.9516 487.5,-280.9516 398.5,-280.9516"/>
<text text-anchor="middle" x="443" y="-287.9516" font-family="Helvetica,sans-Serif" font-size="10.00" fill="#000000">../log/message.h</text>
</a>
</g>
</g>
<!-- Node18&#45;&gt;Node24 -->
<g id="edge31" class="edge">
<title>Node18&#45;&gt;Node24</title>
<path fill="none" stroke="#191970" d="M443,-336.6972C443,-329.3899 443,-319.146 443,-310.1562"/>
<polygon fill="#191970" stroke="#191970" points="446.5001,-310.0943 443,-300.0943 439.5001,-310.0943 446.5001,-310.0943"/>
</g>
<!-- Node21&#45;&gt;Node16 -->
<g id="edge28" class="edge">
<title>Node21&#45;&gt;Node16</title>
<path fill="none" stroke="#191970" d="M690.6041,-56.8249C659.5844,-46.6664 610.9249,-30.7311 579.4958,-20.4386"/>
<polygon fill="#191970" stroke="#191970" points="580.5339,-17.0957 569.9412,-17.3096 578.3553,-23.748 580.5339,-17.0957"/>
</g>
<!-- Node22 -->
<g id="node23" class="node">
<title>Node22</title>
<polygon fill="#ffffff" stroke="#bfbfbf" points="661,-.9516 661,-19.9516 711,-19.9516 711,-.9516 661,-.9516"/>
<text text-anchor="middle" x="686" y="-7.9516" font-family="Helvetica,sans-Serif" font-size="10.00" fill="#000000">ciso646</text>
</g>
<!-- Node21&#45;&gt;Node22 -->
<g id="edge27" class="edge">
<title>Node21&#45;&gt;Node22</title>
<path fill="none" stroke="#191970" d="M714.0777,-56.6972C709.3973,-48.9884 702.7327,-38.0114 697.0711,-28.6864"/>
<polygon fill="#191970" stroke="#191970" points="700.0361,-26.8258 691.8545,-20.0943 694.0525,-30.4586 700.0361,-26.8258"/>
</g>
<!-- Node23 -->
<g id="node24" class="node">
<title>Node23</title>
<g id="a_node24"><a xlink:href="../../d8/d39/signal_8h.xhtml" target="_top" xlink:title="signal.h">
<polygon fill="#ffffff" stroke="#000000" points="729,-.9516 729,-19.9516 779,-19.9516 779,-.9516 729,-.9516"/>
<text text-anchor="middle" x="754" y="-7.9516" font-family="Helvetica,sans-Serif" font-size="10.00" fill="#000000">signal.h</text>
</a>
</g>
</g>
<!-- Node21&#45;&gt;Node23 -->
<g id="edge29" class="edge">
<title>Node21&#45;&gt;Node23</title>
<path fill="none" stroke="#191970" d="M725.9223,-56.6972C730.6027,-48.9884 737.2673,-38.0114 742.9289,-28.6864"/>
<polygon fill="#191970" stroke="#191970" points="745.9475,-30.4586 748.1455,-20.0943 739.9639,-26.8258 745.9475,-30.4586"/>
</g>
<!-- Node23&#45;&gt;Node23 -->
<g id="edge30" class="edge">
<title>Node23&#45;&gt;Node23</title>
<path fill="none" stroke="#191970" d="M772.5634,-20.0262C784.9465,-22.7213 797,-19.5298 797,-10.4516 797,-3.9267 790.7731,-.4429 782.6726,0"/>
<polygon fill="#191970" stroke="#191970" points="782.2234,3.4743 772.5634,-.877 782.8285,-3.4995 782.2234,3.4743"/>
</g>
<!-- Node24&#45;&gt;Node4 -->
<g id="edge32" class="edge">
<title>Node24&#45;&gt;Node4</title>
<path fill="none" stroke="#191970" d="M398.3417,-281.9165C352.3058,-273.0067 278.4968,-258.4118 215,-244.4516 212.0214,-243.7968 208.9287,-243.0975 205.8333,-242.3844"/>
<polygon fill="#191970" stroke="#191970" points="206.6087,-238.9713 196.0739,-240.0973 205.0115,-245.7867 206.6087,-238.9713"/>
</g>
<!-- Node24&#45;&gt;Node16 -->
<g id="edge33" class="edge">
<title>Node24&#45;&gt;Node16</title>
<path fill="none" stroke="#191970" d="M451.3154,-280.5229C462.7577,-267.122 484.2999,-242.8117 505,-224.4516 556.6063,-178.6793 598.873,-194.01 630,-132.4516 650.4655,-91.978 603.0764,-48.6703 572.4624,-26.1317"/>
<polygon fill="#191970" stroke="#191970" points="574.1451,-23.0334 563.9682,-20.087 570.0865,-28.7367 574.1451,-23.0334"/>
</g>
<!-- Node25 -->
<g id="node26" class="node">
<title>Node25</title>
<polygon fill="#ffffff" stroke="#bfbfbf" points="514.5,-224.9516 514.5,-243.9516 565.5,-243.9516 565.5,-224.9516 514.5,-224.9516"/>
<text text-anchor="middle" x="540" y="-231.9516" font-family="Helvetica,sans-Serif" font-size="10.00" fill="#000000">config.h</text>
</g>
<!-- Node24&#45;&gt;Node25 -->
<g id="edge34" class="edge">
<title>Node24&#45;&gt;Node25</title>
<path fill="none" stroke="#191970" d="M459.8961,-280.6972C474.918,-272.0248 497.1043,-259.2161 514.321,-249.2766"/>
<polygon fill="#191970" stroke="#191970" points="516.3871,-252.1253 523.2975,-244.0943 512.8872,-246.063 516.3871,-252.1253"/>
</g>
<!-- Node26 -->
<g id="node27" class="node">
<title>Node26</title>
<g id="a_node27"><a xlink:href="../../d1/d06/constexpr_8h.xhtml" target="_top" xlink:title="../util/constexpr.h">
<polygon fill="#ffffff" stroke="#000000" points="584,-224.9516 584,-243.9516 676,-243.9516 676,-224.9516 584,-224.9516"/>
<text text-anchor="middle" x="630" y="-231.9516" font-family="Helvetica,sans-Serif" font-size="10.00" fill="#000000">../util/constexpr.h</text>
</a>
</g>
</g>
<!-- Node24&#45;&gt;Node26 -->
<g id="edge35" class="edge">
<title>Node24&#45;&gt;Node26</title>
<path fill="none" stroke="#191970" d="M475.1464,-280.8249C506.5109,-271.4323 554.3665,-257.1012 588.5716,-246.858"/>
<polygon fill="#191970" stroke="#191970" points="589.6975,-250.1745 598.273,-243.9528 587.6893,-243.4687 589.6975,-250.1745"/>
</g>
<!-- Node28 -->
<g id="node29" class="node">
<title>Node28</title>
<g id="a_node29"><a xlink:href="../../de/d65/stringformatter_8h.xhtml" target="_top" xlink:title="../util/stringformatter.h">
<polygon fill="#ffffff" stroke="#000000" points="344.5,-224.9516 344.5,-243.9516 457.5,-243.9516 457.5,-224.9516 344.5,-224.9516"/>
<text text-anchor="middle" x="401" y="-231.9516" font-family="Helvetica,sans-Serif" font-size="10.00" fill="#000000">../util/stringformatter.h</text>
</a>
</g>
</g>
<!-- Node24&#45;&gt;Node28 -->
<g id="edge37" class="edge">
<title>Node24&#45;&gt;Node28</title>
<path fill="none" stroke="#191970" d="M435.6842,-280.6972C429.7821,-272.8278 421.3258,-261.5526 414.2406,-252.1058"/>
<polygon fill="#191970" stroke="#191970" points="417.0321,-249.9943 408.232,-244.0943 411.432,-254.1943 417.0321,-249.9943"/>
</g>
<!-- Node35 -->
<g id="node36" class="node">
<title>Node35</title>
<g id="a_node36"><a xlink:href="../../d3/d4e/logsink_8h.xhtml" target="_top" xlink:title="logsink.h">
<polygon fill="#ffffff" stroke="#000000" points="224,-224.9516 224,-243.9516 280,-243.9516 280,-224.9516 224,-224.9516"/>
<text text-anchor="middle" x="252" y="-231.9516" font-family="Helvetica,sans-Serif" font-size="10.00" fill="#000000">logsink.h</text>
</a>
</g>
</g>
<!-- Node24&#45;&gt;Node35 -->
<g id="edge53" class="edge">
<title>Node24&#45;&gt;Node35</title>
<path fill="none" stroke="#191970" d="M410.1659,-280.8249C376.7715,-271.0338 325.0737,-255.8764 289.9457,-245.5771"/>
<polygon fill="#191970" stroke="#191970" points="290.6417,-242.1338 280.0609,-242.6789 288.6722,-248.8511 290.6417,-242.1338"/>
</g>
<!-- Node38 -->
<g id="node39" class="node">
<title>Node38</title>
<g id="a_node39"><a xlink:href="../../de/d09/level_8h.xhtml" target="_top" xlink:title="level.h">
<polygon fill="#ffffff" stroke="#000000" points="278.5,-168.9516 278.5,-187.9516 323.5,-187.9516 323.5,-168.9516 278.5,-168.9516"/>
<text text-anchor="middle" x="301" y="-175.9516" font-family="Helvetica,sans-Serif" font-size="10.00" fill="#000000">level.h</text>
</a>
</g>
</g>
<!-- Node24&#45;&gt;Node38 -->
<g id="edge61" class="edge">
<title>Node24&#45;&gt;Node38</title>
<path fill="none" stroke="#191970" d="M403.8502,-280.9363C381.5293,-273.8909 354.2563,-262.3504 335,-244.4516 321.3255,-231.7411 312.2407,-212.2855 306.9295,-197.7864"/>
<polygon fill="#191970" stroke="#191970" points="310.2323,-196.6271 303.7174,-188.2721 303.6,-198.8663 310.2323,-196.6271"/>
</g>
<!-- Node27 -->
<g id="node28" class="node">
<title>Node27</title>
<polygon fill="#ffffff" stroke="#bfbfbf" points="630.5,-168.9516 630.5,-187.9516 675.5,-187.9516 675.5,-168.9516 630.5,-168.9516"/>
<text text-anchor="middle" x="653" y="-175.9516" font-family="Helvetica,sans-Serif" font-size="10.00" fill="#000000">cstdlib</text>
</g>
<!-- Node26&#45;&gt;Node27 -->
<g id="edge36" class="edge">
<title>Node26&#45;&gt;Node27</title>
<path fill="none" stroke="#191970" d="M634.0063,-224.6972C637.0735,-217.2293 641.4003,-206.6943 645.1497,-197.5653"/>
<polygon fill="#191970" stroke="#191970" points="648.4779,-198.6742 649.0396,-188.0943 642.0028,-196.0148 648.4779,-198.6742"/>
</g>
<!-- Node28&#45;&gt;Node1 -->
<g id="edge39" class="edge">
<title>Node28&#45;&gt;Node1</title>
<path fill="none" stroke="#191970" d="M446.7906,-224.95C482.9381,-216.8787 534.3735,-204.1203 578,-188.4516 597.8366,-181.3272 601.4684,-176.374 621,-168.4516 653.1053,-155.4292 690.4532,-142.6256 717.212,-133.8465"/>
<polygon fill="#191970" stroke="#191970" points="718.4911,-137.111 726.9162,-130.6869 716.3239,-130.4549 718.4911,-137.111"/>
</g>
<!-- Node28&#45;&gt;Node12 -->
<g id="edge40" class="edge">
<title>Node28&#45;&gt;Node12</title>
<path fill="none" stroke="#191970" d="M346.0339,-224.9275C299.0738,-216.5809 229.5007,-203.7212 160.1803,-188.6269"/>
<polygon fill="#191970" stroke="#191970" points="160.9206,-185.2061 150.4029,-186.4824 159.4209,-192.0436 160.9206,-185.2061"/>
</g>
<!-- Node28&#45;&gt;Node21 -->
<g id="edge41" class="edge">
<title>Node28&#45;&gt;Node21</title>
<path fill="none" stroke="#191970" d="M427.3354,-224.9225C470.9155,-208.6767 560.1541,-173.375 630,-132.4516 655.7168,-117.3839 683.024,-96.5937 700.7246,-82.3986"/>
<polygon fill="#191970" stroke="#191970" points="703.0332,-85.0327 708.5932,-76.0139 698.6226,-79.597 703.0332,-85.0327"/>
</g>
<!-- Node29 -->
<g id="node30" class="node">
<title>Node29</title>
<polygon fill="#ffffff" stroke="#bfbfbf" points="452,-168.9516 452,-187.9516 498,-187.9516 498,-168.9516 452,-168.9516"/>
<text text-anchor="middle" x="475" y="-175.9516" font-family="Helvetica,sans-Serif" font-size="10.00" fill="#000000">atomic</text>
</g>
<!-- Node28&#45;&gt;Node29 -->
<g id="edge38" class="edge">
<title>Node28&#45;&gt;Node29</title>
<path fill="none" stroke="#191970" d="M413.8898,-224.6972C424.9254,-216.346 441.0292,-204.1593 453.9353,-194.3925"/>
<polygon fill="#191970" stroke="#191970" points="456.3959,-196.9197 462.2579,-188.0943 452.1717,-191.3378 456.3959,-196.9197"/>
</g>
<!-- Node30 -->
<g id="node31" class="node">
<title>Node30</title>
<g id="a_node31"><a xlink:href="../../dc/dcf/externalsstream_8h.xhtml" target="_top" xlink:title="externalsstream.h">
<polygon fill="#ffffff" stroke="#000000" points="50.5,-112.9516 50.5,-131.9516 145.5,-131.9516 145.5,-112.9516 50.5,-112.9516"/>
<text text-anchor="middle" x="98" y="-119.9516" font-family="Helvetica,sans-Serif" font-size="10.00" fill="#000000">externalsstream.h</text>
</a>
</g>
</g>
<!-- Node28&#45;&gt;Node30 -->
<g id="edge42" class="edge">
<title>Node28&#45;&gt;Node30</title>
<path fill="none" stroke="#191970" d="M393.7497,-224.5788C382.3567,-209.8435 358.7795,-182.3472 332,-168.4516 324.146,-164.3763 222.4089,-145.2266 155.6942,-132.9555"/>
<polygon fill="#191970" stroke="#191970" points="156.1819,-129.4866 145.7142,-131.123 154.9177,-136.3715 156.1819,-129.4866"/>
</g>
<!-- Node31 -->
<g id="node32" class="node">
<title>Node31</title>
<g id="a_node32"><a xlink:href="../../d6/d90/strings_8h.xhtml" target="_top" xlink:title="strings.h">
<polygon fill="#ffffff" stroke="#000000" points="380,-168.9516 380,-187.9516 434,-187.9516 434,-168.9516 380,-168.9516"/>
<text text-anchor="middle" x="407" y="-175.9516" font-family="Helvetica,sans-Serif" font-size="10.00" fill="#000000">strings.h</text>
</a>
</g>
</g>
<!-- Node28&#45;&gt;Node31 -->
<g id="edge45" class="edge">
<title>Node28&#45;&gt;Node31</title>
<path fill="none" stroke="#191970" d="M402.0451,-224.6972C402.828,-217.3899 403.9256,-207.146 404.8888,-198.1562"/>
<polygon fill="#191970" stroke="#191970" points="408.3815,-198.4103 405.9669,-188.0943 401.4214,-197.6645 408.3815,-198.4103"/>
</g>
<!-- Node30&#45;&gt;Node16 -->
<g id="edge44" class="edge">
<title>Node30&#45;&gt;Node16</title>
<path fill="none" stroke="#191970" d="M105.0245,-112.8208C116.5227,-97.8828 140.9135,-69.4925 169,-56.4516 231.0274,-27.6515 438.9439,-15.4272 518.0715,-11.7413"/>
<polygon fill="#191970" stroke="#191970" points="518.5215,-15.2247 528.3534,-11.2771 518.2057,-8.2318 518.5215,-15.2247"/>
</g>
<!-- Node30&#45;&gt;Node19 -->
<g id="edge43" class="edge">
<title>Node30&#45;&gt;Node19</title>
<path fill="none" stroke="#191970" d="M97.4774,-112.6972C97.086,-105.3899 96.5372,-95.146 96.0556,-86.1562"/>
<polygon fill="#191970" stroke="#191970" points="99.5466,-85.8927 95.5166,-76.0943 92.5566,-86.2673 99.5466,-85.8927"/>
</g>
<!-- Node31&#45;&gt;Node1 -->
<g id="edge49" class="edge">
<title>Node31&#45;&gt;Node1</title>
<path fill="none" stroke="#191970" d="M434.0383,-170.5548C437.0489,-169.7908 440.0812,-169.0711 443,-168.4516 540.9547,-147.6624 658.2899,-132.9897 716.511,-126.3839"/>
<polygon fill="#191970" stroke="#191970" points="717.1283,-129.8367 726.6762,-125.2447 716.3486,-122.8803 717.1283,-129.8367"/>
</g>
<!-- Node31&#45;&gt;Node9 -->
<g id="edge48" class="edge">
<title>Node31&#45;&gt;Node9</title>
<path fill="none" stroke="#191970" d="M385.3398,-168.8249C365.0228,-159.7951 334.436,-146.201 311.625,-136.0627"/>
<polygon fill="#191970" stroke="#191970" points="312.9372,-132.8159 302.3775,-131.9528 310.0941,-139.2125 312.9372,-132.8159"/>
</g>
<!-- Node31&#45;&gt;Node16 -->
<g id="edge51" class="edge">
<title>Node31&#45;&gt;Node16</title>
<path fill="none" stroke="#191970" d="M434.257,-169.8727C468.535,-158.8407 523.6995,-140.1842 530,-132.4516 553.8259,-103.2107 553.8749,-56.5286 551.5766,-30.1965"/>
<polygon fill="#191970" stroke="#191970" points="555.0253,-29.532 550.4715,-19.9658 548.0657,-30.2839 555.0253,-29.532"/>
</g>
<!-- Node31&#45;&gt;Node17 -->
<g id="edge52" class="edge">
<title>Node31&#45;&gt;Node17</title>
<path fill="none" stroke="#191970" d="M434.1017,-170.547C469.0614,-160.3504 529.7858,-142.6391 566.9829,-131.7899"/>
<polygon fill="#191970" stroke="#191970" points="568.1896,-135.0839 576.8096,-128.9238 566.2296,-128.3639 568.1896,-135.0839"/>
</g>
<!-- Node32 -->
<g id="node33" class="node">
<title>Node32</title>
<polygon fill="#ffffff" stroke="#bfbfbf" points="324.5,-112.9516 324.5,-131.9516 373.5,-131.9516 373.5,-112.9516 324.5,-112.9516"/>
<text text-anchor="middle" x="349" y="-119.9516" font-family="Helvetica,sans-Serif" font-size="10.00" fill="#000000">cstdarg</text>
</g>
<!-- Node31&#45;&gt;Node32 -->
<g id="edge46" class="edge">
<title>Node31&#45;&gt;Node32</title>
<path fill="none" stroke="#191970" d="M396.8972,-168.6972C388.4972,-160.5869 376.3506,-148.8591 366.3916,-139.2435"/>
<polygon fill="#191970" stroke="#191970" points="368.6122,-136.5224 358.9871,-132.0943 363.75,-141.5582 368.6122,-136.5224"/>
</g>
<!-- Node33 -->
<g id="node34" class="node">
<title>Node33</title>
<polygon fill="#ffffff" stroke="#bfbfbf" points="391.5,-112.9516 391.5,-131.9516 450.5,-131.9516 450.5,-112.9516 391.5,-112.9516"/>
<text text-anchor="middle" x="421" y="-119.9516" font-family="Helvetica,sans-Serif" font-size="10.00" fill="#000000">functional</text>
</g>
<!-- Node31&#45;&gt;Node33 -->
<g id="edge47" class="edge">
<title>Node31&#45;&gt;Node33</title>
<path fill="none" stroke="#191970" d="M409.4386,-168.6972C411.2855,-161.3096 413.8828,-150.9205 416.1478,-141.8603"/>
<polygon fill="#191970" stroke="#191970" points="419.5594,-142.6446 418.5893,-132.0943 412.7684,-140.9468 419.5594,-142.6446"/>
</g>
<!-- Node34 -->
<g id="node35" class="node">
<title>Node34</title>
<polygon fill="#ffffff" stroke="#bfbfbf" points="469,-112.9516 469,-131.9516 521,-131.9516 521,-112.9516 469,-112.9516"/>
<text text-anchor="middle" x="495" y="-119.9516" font-family="Helvetica,sans-Serif" font-size="10.00" fill="#000000">sstream</text>
</g>
<!-- Node31&#45;&gt;Node34 -->
<g id="edge50" class="edge">
<title>Node31&#45;&gt;Node34</title>
<path fill="none" stroke="#191970" d="M422.3284,-168.6972C435.8303,-160.1051 455.7122,-147.453 471.2686,-137.5534"/>
<polygon fill="#191970" stroke="#191970" points="473.2897,-140.4159 479.8472,-132.0943 469.5315,-134.5103 473.2897,-140.4159"/>
</g>
<!-- Node36 -->
<g id="node37" class="node">
<title>Node36</title>
<polygon fill="#ffffff" stroke="#bfbfbf" points="168.5,-168.9516 168.5,-187.9516 197.5,-187.9516 197.5,-168.9516 168.5,-168.9516"/>
<text text-anchor="middle" x="183" y="-175.9516" font-family="Helvetica,sans-Serif" font-size="10.00" fill="#000000">list</text>
</g>
<!-- Node35&#45;&gt;Node36 -->
<g id="edge54" class="edge">
<title>Node35&#45;&gt;Node36</title>
<path fill="none" stroke="#191970" d="M239.9811,-224.6972C229.7902,-216.4263 214.9638,-204.3933 202.9893,-194.6749"/>
<polygon fill="#191970" stroke="#191970" points="204.8514,-191.6784 194.8812,-188.0943 200.4402,-197.1136 204.8514,-191.6784"/>
</g>
<!-- Node37 -->
<g id="node38" class="node">
<title>Node37</title>
<polygon fill="#ffffff" stroke="#bfbfbf" points="216,-168.9516 216,-187.9516 260,-187.9516 260,-168.9516 216,-168.9516"/>
<text text-anchor="middle" x="238" y="-175.9516" font-family="Helvetica,sans-Serif" font-size="10.00" fill="#000000">mutex</text>
</g>
<!-- Node35&#45;&gt;Node37 -->
<g id="edge55" class="edge">
<title>Node35&#45;&gt;Node37</title>
<path fill="none" stroke="#191970" d="M249.5614,-224.6972C247.7145,-217.3096 245.1172,-206.9205 242.8522,-197.8603"/>
<polygon fill="#191970" stroke="#191970" points="246.2316,-196.9468 240.4107,-188.0943 239.4406,-198.6446 246.2316,-196.9468"/>
</g>
<!-- Node35&#45;&gt;Node38 -->
<g id="edge56" class="edge">
<title>Node35&#45;&gt;Node38</title>
<path fill="none" stroke="#191970" d="M260.5351,-224.6972C267.4912,-216.7475 277.4883,-205.3222 285.8051,-195.8172"/>
<polygon fill="#191970" stroke="#191970" points="288.6116,-197.9249 292.5627,-188.0943 283.3436,-193.3153 288.6116,-197.9249"/>
</g>
<!-- Node39 -->
<g id="node40" class="node">
<title>Node39</title>
<g id="a_node40"><a xlink:href="../../d0/d9b/enum_8h.xhtml" target="_top" xlink:title="../util/enum.h">
<polygon fill="#ffffff" stroke="#000000" points="164,-112.9516 164,-131.9516 238,-131.9516 238,-112.9516 164,-112.9516"/>
<text text-anchor="middle" x="201" y="-119.9516" font-family="Helvetica,sans-Serif" font-size="10.00" fill="#000000">../util/enum.h</text>
</a>
</g>
</g>
<!-- Node38&#45;&gt;Node39 -->
<g id="edge57" class="edge">
<title>Node38&#45;&gt;Node39</title>
<path fill="none" stroke="#191970" d="M283.5813,-168.6972C267.9515,-159.9445 244.7981,-146.9786 226.9815,-137.0013"/>
<polygon fill="#191970" stroke="#191970" points="228.6543,-133.9266 218.2191,-132.0943 225.234,-140.0342 228.6543,-133.9266"/>
</g>
<!-- Node39&#45;&gt;Node19 -->
<g id="edge58" class="edge">
<title>Node39&#45;&gt;Node19</title>
<path fill="none" stroke="#191970" d="M182.5362,-112.6972C165.8926,-103.9043 141.2007,-90.8596 122.2808,-80.8641"/>
<polygon fill="#191970" stroke="#191970" points="123.7291,-77.6709 113.2522,-76.0943 120.4592,-83.8602 123.7291,-77.6709"/>
</g>
<!-- Node39&#45;&gt;Node21 -->
<g id="edge60" class="edge">
<title>Node39&#45;&gt;Node21</title>
<path fill="none" stroke="#191970" d="M238.0869,-113.9989C241.0945,-113.4326 244.0934,-112.9073 247,-112.4516 398.3227,-88.7289 578.9221,-75.2216 666.7543,-69.5894"/>
<polygon fill="#191970" stroke="#191970" points="666.9844,-73.0819 676.7433,-68.9573 666.5422,-66.0959 666.9844,-73.0819"/>
</g>
<!-- Node40 -->
<g id="node41" class="node">
<title>Node40</title>
<polygon fill="#ffffff" stroke="#bfbfbf" points="178.5,-56.9516 178.5,-75.9516 229.5,-75.9516 229.5,-56.9516 178.5,-56.9516"/>
<text text-anchor="middle" x="204" y="-63.9516" font-family="Helvetica,sans-Serif" font-size="10.00" fill="#000000">typeinfo</text>
</g>
<!-- Node39&#45;&gt;Node40 -->
<g id="edge59" class="edge">
<title>Node39&#45;&gt;Node40</title>
<path fill="none" stroke="#191970" d="M201.5226,-112.6972C201.914,-105.3899 202.4628,-95.146 202.9444,-86.1562"/>
<polygon fill="#191970" stroke="#191970" points="206.4434,-86.2673 203.4834,-76.0943 199.4534,-85.8927 206.4434,-86.2673"/>
</g>
</g>
</svg>
