<?xml version="1.0" encoding="UTF-8" standalone="no"?>
<!DOCTYPE svg PUBLIC "-//W3C//DTD SVG 1.1//EN"
 "http://www.w3.org/Graphics/SVG/1.1/DTD/svg11.dtd">
<!-- Generated by graphviz version 2.40.1 (20161225.0304)
 -->
<!-- Title: qtsdl::unwrap Pages: 1 -->
<!--zoomable 615 -->
<svg id="main" version="1.1" xmlns="http://www.w3.org/2000/svg" xmlns:xlink="http://www.w3.org/1999/xlink" xml:space="preserve" onload="init(evt)">
<style type="text/css"><![CDATA[
.edge:hover path { stroke: red; }
.edge:hover polygon { stroke: red; fill: red; }
]]></style>
<script type="text/javascript"><![CDATA[
var edges = document.getElementsByTagName('g');
if (edges && edges.length) {
  for (var i=0;i<edges.length;i++) {
    if (edges[i].id.substr(0,4)=='edge') {
      edges[i].setAttribute('class','edge');
    }
  }
}
]]></script>
        <defs>
                <circle id="rim" cx="0" cy="0" r="7"/>
                <circle id="rim2" cx="0" cy="0" r="3.5"/>
                <g id="zoomPlus">
                        <use xlink:href="#rim" fill="#404040">
                                <set attributeName="fill" to="#808080" begin="zoomplus.mouseover" end="zoomplus.mouseout"/>
                        </use>
                        <path d="M-4,0h8M0,-4v8" fill="none" stroke="white" stroke-width="1.5" pointer-events="none"/>
                </g>
                <g id="zoomMin">
                        <use xlink:href="#rim" fill="#404040">
                                <set attributeName="fill" to="#808080" begin="zoomminus.mouseover" end="zoomminus.mouseout"/>
                        </use>
                        <path d="M-4,0h8" fill="none" stroke="white" stroke-width="1.5" pointer-events="none"/>
                </g>
                <g id="dirArrow">
                        <path fill="none" stroke="white" stroke-width="1.5" d="M0,-3.0v7 M-2.5,-0.5L0,-3.0L2.5,-0.5"/>
                </g>
               <g id="resetDef">
                       <use xlink:href="#rim2" fill="#404040">
                               <set attributeName="fill" to="#808080" begin="reset.mouseover" end="reset.mouseout"/>
                       </use>
               </g>
        </defs>

<script type="text/javascript">
var viewWidth = 624;
var viewHeight = 615;
var sectionId = 'dynsection-6';
</script>
<script xlink:href="../../svgpan.js"/>
<svg id="graph" class="graph">
<g id="viewport">
<title>qtsdl::unwrap</title>
<polygon fill="#ffffff" stroke="transparent" points="-4,4 -4,-611 620,-611 620,4 -4,4"/>
<!-- Node51 -->
<g id="node1" class="node">
<title>Node51</title>
<polygon fill="#bfbfbf" stroke="#000000" points="0,-258 0,-277 75,-277 75,-258 0,-258"/>
<text text-anchor="middle" x="37.5" y="-265" font-family="Helvetica,sans-Serif" font-size="10.00" fill="#000000">qtsdl::unwrap</text>
</g>
<!-- Node52 -->
<g id="node2" class="node">
<title>Node52</title>
<g id="a_node2"><a xlink:href="../../d5/db2/classqtsdl_1_1_gui_item_methods.xhtml#a4491ae15b14efd72465173059446b173" target="_top" xlink:title="Static QML properties assignments during the init phase are stored for a batch assignment at the end ...">
<polygon fill="#ffffff" stroke="#000000" points="114.5,-554.5 114.5,-606.5 250.5,-606.5 250.5,-554.5 114.5,-554.5"/>
<text text-anchor="start" x="122.5" y="-594.5" font-family="Helvetica,sans-Serif" font-size="10.00" fill="#000000">qtsdl::GuiItemMethods</text>
<text text-anchor="start" x="122.5" y="-583.5" font-family="Helvetica,sans-Serif" font-size="10.00" fill="#000000">&lt; GameSpecLink &gt;::assign</text>
<text text-anchor="start" x="122.5" y="-572.5" font-family="Helvetica,sans-Serif" font-size="10.00" fill="#000000">_while_catching_constant</text>
<text text-anchor="middle" x="182.5" y="-561.5" font-family="Helvetica,sans-Serif" font-size="10.00" fill="#000000">_properies_inits</text>
</a>
</g>
</g>
<!-- Node51&#45;&gt;Node52 -->
<g id="edge1" class="edge">
<title>Node51&#45;&gt;Node52</title>
<path fill="none" stroke="#191970" d="M40.5734,-287.1637C49.7003,-343.4804 78.0702,-503.9333 111,-544.5 113.8905,-548.0608 117.2238,-551.3018 120.8379,-554.2462"/>
<polygon fill="#191970" stroke="#191970" points="43.9966,-286.4044 38.9659,-277.0801 37.0839,-287.5065 43.9966,-286.4044"/>
</g>
<!-- Node53 -->
<g id="node3" class="node">
<title>Node53</title>
<g id="a_node3"><a xlink:href="../../d6/d56/classqtsdl_1_1_gui_item_list_model.xhtml#abe1b332e693caa36185c1cd7835c40de" target="_top" xlink:title="qtsdl::GuiItemListModel\l\&lt; GeneratorLink \&gt;::do\l_initial_to_gui_propagation">
<polygon fill="#ffffff" stroke="#000000" points="117,-494 117,-535 248,-535 248,-494 117,-494"/>
<text text-anchor="start" x="125" y="-523" font-family="Helvetica,sans-Serif" font-size="10.00" fill="#000000">qtsdl::GuiItemListModel</text>
<text text-anchor="start" x="125" y="-512" font-family="Helvetica,sans-Serif" font-size="10.00" fill="#000000">&lt; GeneratorLink &gt;::do</text>
<text text-anchor="middle" x="182.5" y="-501" font-family="Helvetica,sans-Serif" font-size="10.00" fill="#000000">_initial_to_gui_propagation</text>
</a>
</g>
</g>
<!-- Node51&#45;&gt;Node53 -->
<g id="edge2" class="edge">
<title>Node51&#45;&gt;Node53</title>
<path fill="none" stroke="#191970" d="M38.8748,-287.3514C42.7885,-329.1374 57.466,-427.0413 111,-484.5 114.3035,-488.0457 118.0919,-491.1875 122.1634,-493.9687"/>
<polygon fill="#191970" stroke="#191970" points="42.3423,-286.8127 38.033,-277.1339 35.366,-287.3876 42.3423,-286.8127"/>
</g>
<!-- Node54 -->
<g id="node4" class="node">
<title>Node54</title>
<g id="a_node4"><a xlink:href="../../d9/dbc/classopenage_1_1gui_1_1_engine_link.xhtml#a729c9cd9c03e4c663ebb8801c659dcb1" target="_top" xlink:title="openage::gui::EngineLink\l::EngineLink">
<polygon fill="#ffffff" stroke="#000000" points="119.5,-444.5 119.5,-474.5 245.5,-474.5 245.5,-444.5 119.5,-444.5"/>
<text text-anchor="start" x="127.5" y="-462.5" font-family="Helvetica,sans-Serif" font-size="10.00" fill="#000000">openage::gui::EngineLink</text>
<text text-anchor="middle" x="182.5" y="-451.5" font-family="Helvetica,sans-Serif" font-size="10.00" fill="#000000">::EngineLink</text>
</a>
</g>
</g>
<!-- Node51&#45;&gt;Node54 -->
<g id="edge3" class="edge">
<title>Node51&#45;&gt;Node54</title>
<path fill="none" stroke="#191970" d="M40.8811,-287.2064C47.8298,-321.8261 66.9281,-393.7483 111,-434.5 115.1517,-438.3389 119.9259,-441.5935 124.9965,-444.3519"/>
<polygon fill="#191970" stroke="#191970" points="44.3186,-286.5475 39.0356,-277.3638 37.4385,-287.8376 44.3186,-286.5475"/>
</g>
<!-- Node55 -->
<g id="node5" class="node">
<title>Node55</title>
<g id="a_node5"><a xlink:href="../../d6/d56/classqtsdl_1_1_gui_item_list_model.xhtml#a2d423aeb58ef3a7faf28b153fe35cacc" target="_top" xlink:title="qtsdl::GuiItemListModel\l\&lt; GeneratorLink \&gt;::establish\l_from_gui_propagation">
<polygon fill="#ffffff" stroke="#000000" points="112.5,-384 112.5,-425 252.5,-425 252.5,-384 112.5,-384"/>
<text text-anchor="start" x="120.5" y="-413" font-family="Helvetica,sans-Serif" font-size="10.00" fill="#000000">qtsdl::GuiItemListModel</text>
<text text-anchor="start" x="120.5" y="-402" font-family="Helvetica,sans-Serif" font-size="10.00" fill="#000000">&lt; GeneratorLink &gt;::establish</text>
<text text-anchor="middle" x="182.5" y="-391" font-family="Helvetica,sans-Serif" font-size="10.00" fill="#000000">_from_gui_propagation</text>
</a>
</g>
</g>
<!-- Node51&#45;&gt;Node55 -->
<g id="edge4" class="edge">
<title>Node51&#45;&gt;Node55</title>
<path fill="none" stroke="#191970" d="M46.2385,-286.4025C57.9636,-309.9208 80.8507,-349.9651 111,-374.5 115.2809,-377.9837 120.0245,-381.121 124.9729,-383.9336"/>
<polygon fill="#191970" stroke="#191970" points="49.2741,-284.6394 41.7791,-277.1511 42.9684,-287.679 49.2741,-284.6394"/>
</g>
<!-- Node56 -->
<g id="node6" class="node">
<title>Node56</title>
<g id="a_node6"><a xlink:href="../../d6/d56/classqtsdl_1_1_gui_item_list_model.xhtml#a0e965b2d5161f95e8118b197ac2f0f42" target="_top" xlink:title="qtsdl::GuiItemListModel\l\&lt; GeneratorLink \&gt;::establish\l_to_gui_propagation">
<polygon fill="#ffffff" stroke="#000000" points="112.5,-324 112.5,-365 252.5,-365 252.5,-324 112.5,-324"/>
<text text-anchor="start" x="120.5" y="-353" font-family="Helvetica,sans-Serif" font-size="10.00" fill="#000000">qtsdl::GuiItemListModel</text>
<text text-anchor="start" x="120.5" y="-342" font-family="Helvetica,sans-Serif" font-size="10.00" fill="#000000">&lt; GeneratorLink &gt;::establish</text>
<text text-anchor="middle" x="182.5" y="-331" font-family="Helvetica,sans-Serif" font-size="10.00" fill="#000000">_to_gui_propagation</text>
</a>
</g>
</g>
<!-- Node51&#45;&gt;Node56 -->
<g id="edge5" class="edge">
<title>Node51&#45;&gt;Node56</title>
<path fill="none" stroke="#191970" d="M59.5147,-282.9881C73.8144,-292.6902 93.0655,-305.0923 111,-314.5 117.1989,-317.7517 123.8296,-320.9202 130.4609,-323.9051"/>
<polygon fill="#191970" stroke="#191970" points="61.1193,-279.8438 50.8964,-277.061 57.1526,-285.6115 61.1193,-279.8438"/>
</g>
<!-- Node57 -->
<g id="node7" class="node">
<title>Node57</title>
<g id="a_node7"><a xlink:href="../../d5/db2/classqtsdl_1_1_gui_item_methods.xhtml#ac54e8509493e71387cc423d3b594c774" target="_top" xlink:title="Invoke a function in the logic thread (the thread of the core of this object). ">
<polygon fill="#ffffff" stroke="#000000" points="124.5,-274.5 124.5,-304.5 240.5,-304.5 240.5,-274.5 124.5,-274.5"/>
<text text-anchor="start" x="132.5" y="-292.5" font-family="Helvetica,sans-Serif" font-size="10.00" fill="#000000">qtsdl::GuiItemMethods</text>
<text text-anchor="middle" x="182.5" y="-281.5" font-family="Helvetica,sans-Serif" font-size="10.00" fill="#000000">&lt; GameSpecLink &gt;::i</text>
</a>
</g>
</g>
<!-- Node51&#45;&gt;Node57 -->
<g id="edge6" class="edge">
<title>Node51&#45;&gt;Node57</title>
<path fill="none" stroke="#191970" d="M85.4119,-274.7694C97.9018,-276.6644 111.496,-278.727 124.4489,-280.6922"/>
<polygon fill="#191970" stroke="#191970" points="85.6304,-271.2626 75.2185,-273.2228 84.5803,-278.1834 85.6304,-271.2626"/>
</g>
<!-- Node60 -->
<g id="node10" class="node">
<title>Node60</title>
<g id="a_node10"><a xlink:href="../../d2/d90/classopenage_1_1gui_1_1_game_spec_link.xhtml#aa2749ef2e6877074640f1a74b3d59eb5" target="_top" xlink:title="openage::gui::GameSpecLink\l::on_core_adopted">
<polygon fill="#ffffff" stroke="#000000" points="471,-252.5 471,-282.5 616,-282.5 616,-252.5 471,-252.5"/>
<text text-anchor="start" x="479" y="-270.5" font-family="Helvetica,sans-Serif" font-size="10.00" fill="#000000">openage::gui::GameSpecLink</text>
<text text-anchor="middle" x="543.5" y="-259.5" font-family="Helvetica,sans-Serif" font-size="10.00" fill="#000000">::on_core_adopted</text>
</a>
</g>
</g>
<!-- Node51&#45;&gt;Node60 -->
<g id="edge12" class="edge">
<title>Node51&#45;&gt;Node60</title>
<path fill="none" stroke="#191970" d="M85.4513,-265.2603C93.9599,-264.9434 102.7395,-264.6685 111,-264.5 254.97,-261.5631 291.0138,-262.5098 435,-264.5 446.588,-264.6602 458.8701,-264.9165 470.8441,-265.2136"/>
<polygon fill="#191970" stroke="#191970" points="85.1141,-261.7708 75.2602,-265.6631 85.3906,-268.7653 85.1141,-261.7708"/>
</g>
<!-- Node62 -->
<g id="node12" class="node">
<title>Node62</title>
<g id="a_node12"><a xlink:href="../../d4/d5d/classopenage_1_1gui_1_1_game_main_link.xhtml#a360f50de98c75d538bf46a03c3731874" target="_top" xlink:title="openage::gui::GameMainLink\l::on_core_adopted">
<polygon fill="#ffffff" stroke="#000000" points="111,-186.5 111,-216.5 254,-216.5 254,-186.5 111,-186.5"/>
<text text-anchor="start" x="119" y="-204.5" font-family="Helvetica,sans-Serif" font-size="10.00" fill="#000000">openage::gui::GameMainLink</text>
<text text-anchor="middle" x="182.5" y="-193.5" font-family="Helvetica,sans-Serif" font-size="10.00" fill="#000000">::on_core_adopted</text>
</a>
</g>
</g>
<!-- Node51&#45;&gt;Node62 -->
<g id="edge11" class="edge">
<title>Node51&#45;&gt;Node62</title>
<path fill="none" stroke="#191970" d="M65.7006,-253.2104C79.3019,-246.4412 95.9054,-238.3563 111,-231.5 122.1534,-226.4339 134.412,-221.1787 145.5808,-216.509"/>
<polygon fill="#191970" stroke="#191970" points="63.7671,-250.2642 56.3918,-257.8705 66.9007,-256.5236 63.7671,-250.2642"/>
</g>
<!-- Node63 -->
<g id="node13" class="node">
<title>Node63</title>
<g id="a_node13"><a xlink:href="../../d1/d78/classopenage_1_1gui_1_1_output_mode_link.xhtml#abf451f81e81e1e1688d72a4a4a232a5f" target="_top" xlink:title="openage::gui::OutputMode\lLink::OutputModeLink">
<polygon fill="#ffffff" stroke="#000000" points="117,-137.5 117,-167.5 248,-167.5 248,-137.5 117,-137.5"/>
<text text-anchor="start" x="125" y="-155.5" font-family="Helvetica,sans-Serif" font-size="10.00" fill="#000000">openage::gui::OutputMode</text>
<text text-anchor="middle" x="182.5" y="-144.5" font-family="Helvetica,sans-Serif" font-size="10.00" fill="#000000">Link::OutputModeLink</text>
</a>
</g>
</g>
<!-- Node51&#45;&gt;Node63 -->
<g id="edge13" class="edge">
<title>Node51&#45;&gt;Node63</title>
<path fill="none" stroke="#191970" d="M47.9645,-249.0296C60.4669,-228.5362 83.2201,-195.8175 111,-176.5 115.9451,-173.0613 121.4216,-170.0835 127.0789,-167.512"/>
<polygon fill="#191970" stroke="#191970" points="44.889,-247.3545 42.8165,-257.7446 50.916,-250.9147 44.889,-247.3545"/>
</g>
<!-- Node64 -->
<g id="node14" class="node">
<title>Node64</title>
<g id="a_node14"><a xlink:href="../../d7/dd2/classopenage_1_1gui_1_1_resources_list_model.xhtml#ac7c796467bd307ad2b501df35fa8139f" target="_top" xlink:title="openage::gui::ResourcesList\lModel::set_action_mode">
<polygon fill="#ffffff" stroke="#000000" points="112,-88.5 112,-118.5 253,-118.5 253,-88.5 112,-88.5"/>
<text text-anchor="start" x="120" y="-106.5" font-family="Helvetica,sans-Serif" font-size="10.00" fill="#000000">openage::gui::ResourcesList</text>
<text text-anchor="middle" x="182.5" y="-95.5" font-family="Helvetica,sans-Serif" font-size="10.00" fill="#000000">Model::set_action_mode</text>
</a>
</g>
</g>
<!-- Node51&#45;&gt;Node64 -->
<g id="edge14" class="edge">
<title>Node51&#45;&gt;Node64</title>
<path fill="none" stroke="#191970" d="M42.6242,-248.0189C51.5239,-217.9147 72.6609,-160.1612 111,-127.5 114.9869,-124.1035 119.4736,-121.1825 124.2064,-118.6713"/>
<polygon fill="#191970" stroke="#191970" points="39.2223,-247.1874 39.8898,-257.7612 45.9619,-249.0791 39.2223,-247.1874"/>
</g>
<!-- Node65 -->
<g id="node15" class="node">
<title>Node65</title>
<g id="a_node15"><a xlink:href="../../d6/dda/namespaceqtsdl.xhtml#a993df7502f716e746ca8c9a2568c3292" target="_top" xlink:title="qtsdl::unwrap_if_can">
<polygon fill="#ffffff" stroke="#000000" points="129,-50 129,-69 236,-69 236,-50 129,-50"/>
<text text-anchor="middle" x="182.5" y="-57" font-family="Helvetica,sans-Serif" font-size="10.00" fill="#000000">qtsdl::unwrap_if_can</text>
</a>
</g>
</g>
<!-- Node51&#45;&gt;Node65 -->
<g id="edge15" class="edge">
<title>Node51&#45;&gt;Node65</title>
<path fill="none" stroke="#191970" d="M39.3925,-247.5882C44.1441,-209.0416 60.1125,-124.0235 111,-78.5 116.1692,-73.8757 122.339,-70.3569 128.8573,-67.6829"/>
<polygon fill="#191970" stroke="#191970" points="35.8657,-247.6412 38.2517,-257.9639 42.8237,-248.4063 35.8657,-247.6412"/>
</g>
<!-- Node66 -->
<g id="node16" class="node">
<title>Node66</title>
<g id="a_node16"><a xlink:href="../../d9/dbc/classopenage_1_1gui_1_1_engine_link.xhtml#a9d1db877d12c5db968eab75948ac68ca" target="_top" xlink:title="openage::gui::EngineLink\l::~EngineLink">
<polygon fill="#ffffff" stroke="#000000" points="119.5,-.5 119.5,-30.5 245.5,-30.5 245.5,-.5 119.5,-.5"/>
<text text-anchor="start" x="127.5" y="-18.5" font-family="Helvetica,sans-Serif" font-size="10.00" fill="#000000">openage::gui::EngineLink</text>
<text text-anchor="middle" x="182.5" y="-7.5" font-family="Helvetica,sans-Serif" font-size="10.00" fill="#000000">::~EngineLink</text>
</a>
</g>
</g>
<!-- Node51&#45;&gt;Node66 -->
<g id="edge16" class="edge">
<title>Node51&#45;&gt;Node66</title>
<path fill="none" stroke="#191970" d="M41.5515,-247.6992C52.0369,-198.2009 81.3229,-70.8745 111,-40.5 114.7679,-36.6436 119.1628,-33.3812 123.8873,-30.6214"/>
<polygon fill="#191970" stroke="#191970" points="38.0672,-247.263 39.4521,-257.7669 44.9198,-248.692 38.0672,-247.263"/>
</g>
<!-- Node58 -->
<g id="node8" class="node">
<title>Node58</title>
<g id="a_node8"><a xlink:href="../../d2/d90/classopenage_1_1gui_1_1_game_spec_link.xhtml#a98bb68a9a0277acdbcd10157293f22dd" target="_top" xlink:title="openage::gui::GameSpecLink\l::on_load_job_finished">
<polygon fill="#ffffff" stroke="#000000" points="290,-323.5 290,-353.5 435,-353.5 435,-323.5 290,-323.5"/>
<text text-anchor="start" x="298" y="-341.5" font-family="Helvetica,sans-Serif" font-size="10.00" fill="#000000">openage::gui::GameSpecLink</text>
<text text-anchor="middle" x="362.5" y="-330.5" font-family="Helvetica,sans-Serif" font-size="10.00" fill="#000000">::on_load_job_finished</text>
</a>
</g>
</g>
<!-- Node57&#45;&gt;Node58 -->
<g id="edge7" class="edge">
<title>Node57&#45;&gt;Node58</title>
<path fill="none" stroke="#191970" d="M247.6985,-307.2485C267.2069,-312.5591 288.4016,-318.3288 307.2085,-323.4484"/>
<polygon fill="#191970" stroke="#191970" points="248.5429,-303.851 237.9747,-304.6014 246.7042,-310.6053 248.5429,-303.851"/>
</g>
<!-- Node61 -->
<g id="node11" class="node">
<title>Node61</title>
<g id="a_node11"><a xlink:href="../../d2/d90/classopenage_1_1gui_1_1_game_spec_link.xhtml#afccf3db32b4308dd15be7fb90bea9c0f" target="_top" xlink:title="openage::gui::GameSpecLink\l::invalidate">
<polygon fill="#ffffff" stroke="#000000" points="290,-274.5 290,-304.5 435,-304.5 435,-274.5 290,-274.5"/>
<text text-anchor="start" x="298" y="-292.5" font-family="Helvetica,sans-Serif" font-size="10.00" fill="#000000">openage::gui::GameSpecLink</text>
<text text-anchor="middle" x="362.5" y="-281.5" font-family="Helvetica,sans-Serif" font-size="10.00" fill="#000000">::invalidate</text>
</a>
</g>
</g>
<!-- Node57&#45;&gt;Node61 -->
<g id="edge10" class="edge">
<title>Node57&#45;&gt;Node61</title>
<path fill="none" stroke="#191970" d="M250.9873,-289.5C263.7033,-289.5 277.0278,-289.5 289.8627,-289.5"/>
<polygon fill="#191970" stroke="#191970" points="250.9409,-286.0001 240.9408,-289.5 250.9408,-293.0001 250.9409,-286.0001"/>
</g>
<!-- Node59 -->
<g id="node9" class="node">
<title>Node59</title>
<g id="a_node9"><a xlink:href="../../d2/d90/classopenage_1_1gui_1_1_game_spec_link.xhtml#a5488cce3206d1827e8ebe4896ef4a3a8" target="_top" xlink:title="openage::gui::GameSpecLink\l::componentComplete">
<polygon fill="#ffffff" stroke="#000000" points="471,-323.5 471,-353.5 616,-353.5 616,-323.5 471,-323.5"/>
<text text-anchor="start" x="479" y="-341.5" font-family="Helvetica,sans-Serif" font-size="10.00" fill="#000000">openage::gui::GameSpecLink</text>
<text text-anchor="middle" x="543.5" y="-330.5" font-family="Helvetica,sans-Serif" font-size="10.00" fill="#000000">::componentComplete</text>
</a>
</g>
</g>
<!-- Node58&#45;&gt;Node59 -->
<g id="edge8" class="edge">
<title>Node58&#45;&gt;Node59</title>
<path fill="none" stroke="#191970" d="M445.1164,-338.5C453.7223,-338.5 462.424,-338.5 470.907,-338.5"/>
<polygon fill="#191970" stroke="#191970" points="445.0767,-335.0001 435.0767,-338.5 445.0767,-342.0001 445.0767,-335.0001"/>
</g>
<!-- Node58&#45;&gt;Node60 -->
<g id="edge9" class="edge">
<title>Node58&#45;&gt;Node60</title>
<path fill="none" stroke="#191970" d="M419.4152,-320.1956C424.7057,-318.3329 429.9671,-316.4188 435,-314.5 460.7032,-304.7009 489.2259,-292.2829 510.5742,-282.6724"/>
<polygon fill="#191970" stroke="#191970" points="418.2121,-316.9082 409.9039,-323.4828 420.4986,-323.5243 418.2121,-316.9082"/>
</g>
</g>
</svg>
        <g id="navigator" transform="translate(0 0)" fill="#404254">
                <rect fill="#f2f5e9" fill-opacity="0.5" stroke="#606060" stroke-width=".5" x="0" y="0" width="60" height="60"/>
                <use id="zoomplus" xlink:href="#zoomPlus" x="17" y="9" onmousedown="handleZoom(evt,'in')"/>
                <use id="zoomminus" xlink:href="#zoomMin" x="42" y="9" onmousedown="handleZoom(evt,'out')"/>
                <use id="reset" xlink:href="#resetDef" x="30" y="36" onmousedown="handleReset()"/>
                <g id="arrowUp" xlink:href="#dirArrow" transform="translate(30 24)" onmousedown="handlePan(0,-1)">
                  <use xlink:href="#rim" fill="#404040">
                        <set attributeName="fill" to="#808080" begin="arrowUp.mouseover" end="arrowUp.mouseout"/>
                  </use>
                  <path fill="none" stroke="white" stroke-width="1.5" d="M0,-3.0v7 M-2.5,-0.5L0,-3.0L2.5,-0.5"/>
                </g>
                <g id="arrowRight" xlink:href="#dirArrow" transform="rotate(90) translate(36 -43)" onmousedown="handlePan(1,0)">
                  <use xlink:href="#rim" fill="#404040">
                        <set attributeName="fill" to="#808080" begin="arrowRight.mouseover" end="arrowRight.mouseout"/>
                  </use>
                  <path fill="none" stroke="white" stroke-width="1.5" d="M0,-3.0v7 M-2.5,-0.5L0,-3.0L2.5,-0.5"/>
                </g>
                <g id="arrowDown" xlink:href="#dirArrow" transform="rotate(180) translate(-30 -48)" onmousedown="handlePan(0,1)">
                  <use xlink:href="#rim" fill="#404040">
                        <set attributeName="fill" to="#808080" begin="arrowDown.mouseover" end="arrowDown.mouseout"/>
                  </use>
                  <path fill="none" stroke="white" stroke-width="1.5" d="M0,-3.0v7 M-2.5,-0.5L0,-3.0L2.5,-0.5"/>
                </g>
                <g id="arrowLeft" xlink:href="#dirArrow" transform="rotate(270) translate(-36 17)" onmousedown="handlePan(-1,0)">
                  <use xlink:href="#rim" fill="#404040">
                        <set attributeName="fill" to="#808080" begin="arrowLeft.mouseover" end="arrowLeft.mouseout"/>
                  </use>
                  <path fill="none" stroke="white" stroke-width="1.5" d="M0,-3.0v7 M-2.5,-0.5L0,-3.0L2.5,-0.5"/>
                </g>
        </g>
        <svg viewBox="0 0 15 15" width="100%" height="30px" preserveAspectRatio="xMaxYMin meet">
         <g id="arrow_out" transform="scale(0.3 0.3)">
          <a xlink:href="namespaceqtsdl_af1666c815e9f0f5791315530fd76b18d_icgraph_org.svg" target="_base">
           <rect id="button" ry="5" rx="5" y="6" x="6" height="38" width="38"
                fill="#f2f5e9" fill-opacity="0.5" stroke="#606060" stroke-width="1.0"/>
           <path id="arrow"
             d="M 11.500037,31.436501 C 11.940474,20.09759 22.043105,11.32322 32.158766,21.979434 L 37.068811,17.246167 C 37.068811,17.246167 37.088388,32 37.088388,32 L 22.160133,31.978069 C 22.160133,31.978069 26.997745,27.140456 26.997745,27.140456 C 18.528582,18.264221 13.291696,25.230495 11.500037,31.436501 z"
             style="fill:#404040;"/>
          </a>
         </g>
        </svg>
</svg>
