<?xml version="1.0" encoding="UTF-8" standalone="no"?>
<!DOCTYPE svg PUBLIC "-//W3C//DTD SVG 1.1//EN"
 "http://www.w3.org/Graphics/SVG/1.1/DTD/svg11.dtd">
<!-- Generated by graphviz version 2.40.1 (20161225.0304)
 -->
<!-- Title: openage::gui::GameSpecLink::game_spec_loaded Pages: 1 -->
<svg width="526pt" height="88pt"
 viewBox="0.00 0.00 526.00 88.00" xmlns="http://www.w3.org/2000/svg" xmlns:xlink="http://www.w3.org/1999/xlink">
<g id="graph0" class="graph" transform="scale(1 1) rotate(0) translate(4 84)">
<title>openage::gui::GameSpecLink::game_spec_loaded</title>
<polygon fill="#ffffff" stroke="transparent" points="-4,4 -4,-84 522,-84 522,4 -4,4"/>
<!-- Node15 -->
<g id="node1" class="node">
<title>Node15</title>
<polygon fill="#bfbfbf" stroke="#000000" points="0,-24.5 0,-54.5 145,-54.5 145,-24.5 0,-24.5"/>
<text text-anchor="start" x="8" y="-42.5" font-family="Helvetica,sans-Serif" font-size="10.00" fill="#000000">openage::gui::GameSpecLink</text>
<text text-anchor="middle" x="72.5" y="-31.5" font-family="Helvetica,sans-Serif" font-size="10.00" fill="#000000">::game_spec_loaded</text>
</g>
<!-- Node16 -->
<g id="node2" class="node">
<title>Node16</title>
<g id="a_node2"><a xlink:href="../../d2/d90/classopenage_1_1gui_1_1_game_spec_link.xhtml#a42d190fd51e980de501b05925991d546" target="_top" xlink:title="openage::gui::GameSpecLink\l::on_game_spec_loaded">
<polygon fill="#ffffff" stroke="#000000" points="186.5,-49.5 186.5,-79.5 331.5,-79.5 331.5,-49.5 186.5,-49.5"/>
<text text-anchor="start" x="194.5" y="-67.5" font-family="Helvetica,sans-Serif" font-size="10.00" fill="#000000">openage::gui::GameSpecLink</text>
<text text-anchor="middle" x="259" y="-56.5" font-family="Helvetica,sans-Serif" font-size="10.00" fill="#000000">::on_game_spec_loaded</text>
</a>
</g>
</g>
<!-- Node15&#45;&gt;Node16 -->
<g id="edge1" class="edge">
<title>Node15&#45;&gt;Node16</title>
<path fill="none" stroke="#191970" d="M155.3601,-50.6073C165.6564,-51.9875 176.1237,-53.3906 186.2516,-54.7482"/>
<polygon fill="#191970" stroke="#191970" points="155.5162,-47.0969 145.1398,-49.2372 154.5861,-54.0349 155.5162,-47.0969"/>
</g>
<!-- Node18 -->
<g id="node4" class="node">
<title>Node18</title>
<g id="a_node4"><a xlink:href="../../db/d8b/classopenage_1_1gui_1_1_gui_image_provider_link.xhtml#a545162ca0fa8e596f4a2afafda0e2b0f" target="_top" xlink:title="Sets the game spec to load textures from. ">
<polygon fill="#ffffff" stroke="#000000" points="181,-.5 181,-30.5 337,-30.5 337,-.5 181,-.5"/>
<text text-anchor="start" x="189" y="-18.5" font-family="Helvetica,sans-Serif" font-size="10.00" fill="#000000">openage::gui::GuiImageProvider</text>
<text text-anchor="middle" x="259" y="-7.5" font-family="Helvetica,sans-Serif" font-size="10.00" fill="#000000">Link::set_game_spec</text>
</a>
</g>
</g>
<!-- Node15&#45;&gt;Node18 -->
<g id="edge3" class="edge">
<title>Node15&#45;&gt;Node18</title>
<path fill="none" stroke="#191970" d="M155.0677,-28.8747C163.5867,-27.7784 172.2262,-26.6666 180.6967,-25.5766"/>
<polygon fill="#191970" stroke="#191970" points="154.6113,-25.4045 145.1398,-30.1523 155.5048,-32.3472 154.6113,-25.4045"/>
</g>
<!-- Node17 -->
<g id="node3" class="node">
<title>Node17</title>
<g id="a_node3"><a xlink:href="../../d2/d90/classopenage_1_1gui_1_1_game_spec_link.xhtml#aa2749ef2e6877074640f1a74b3d59eb5" target="_top" xlink:title="openage::gui::GameSpecLink\l::on_core_adopted">
<polygon fill="#ffffff" stroke="#000000" points="373,-49.5 373,-79.5 518,-79.5 518,-49.5 373,-49.5"/>
<text text-anchor="start" x="381" y="-67.5" font-family="Helvetica,sans-Serif" font-size="10.00" fill="#000000">openage::gui::GameSpecLink</text>
<text text-anchor="middle" x="445.5" y="-56.5" font-family="Helvetica,sans-Serif" font-size="10.00" fill="#000000">::on_core_adopted</text>
</a>
</g>
</g>
<!-- Node16&#45;&gt;Node17 -->
<g id="edge2" class="edge">
<title>Node16&#45;&gt;Node17</title>
<path fill="none" stroke="#191970" d="M341.8601,-64.5C352.1564,-64.5 362.6237,-64.5 372.7516,-64.5"/>
<polygon fill="#191970" stroke="#191970" points="341.6398,-61.0001 331.6398,-64.5 341.6398,-68.0001 341.6398,-61.0001"/>
</g>
</g>
</svg>
