<?xml version="1.0" encoding="UTF-8" standalone="no"?>
<!DOCTYPE svg PUBLIC "-//W3C//DTD SVG 1.1//EN"
 "http://www.w3.org/Graphics/SVG/1.1/DTD/svg11.dtd">
<!-- Generated by graphviz version 2.40.1 (20161225.0304)
 -->
<!-- Title: qtsdl::GuiRenderingSetupRoutines::get_ctx Pages: 1 -->
<svg width="442pt" height="88pt"
 viewBox="0.00 0.00 442.00 88.00" xmlns="http://www.w3.org/2000/svg" xmlns:xlink="http://www.w3.org/1999/xlink">
<g id="graph0" class="graph" transform="scale(1 1) rotate(0) translate(4 84)">
<title>qtsdl::GuiRenderingSetupRoutines::get_ctx</title>
<polygon fill="#ffffff" stroke="transparent" points="-4,4 -4,-84 438,-84 438,4 -4,4"/>
<!-- Node5 -->
<g id="node1" class="node">
<title>Node5</title>
<polygon fill="#bfbfbf" stroke="#000000" points="0,-24.5 0,-54.5 128,-54.5 128,-24.5 0,-24.5"/>
<text text-anchor="start" x="8" y="-42.5" font-family="Helvetica,sans-Serif" font-size="10.00" fill="#000000">qtsdl::GuiRenderingSetup</text>
<text text-anchor="middle" x="64" y="-31.5" font-family="Helvetica,sans-Serif" font-size="10.00" fill="#000000">Routines::get_ctx</text>
</g>
<!-- Node6 -->
<g id="node2" class="node">
<title>Node6</title>
<g id="a_node2"><a xlink:href="../../dd/db2/classqtsdl_1_1_gui_renderer_impl.xhtml#aff444c99b88cb4f669597ad3f74ccfe7" target="_top" xlink:title="qtsdl::GuiRendererImpl\l::GuiRendererImpl">
<polygon fill="#ffffff" stroke="#000000" points="164,-49.5 164,-79.5 281,-79.5 281,-49.5 164,-49.5"/>
<text text-anchor="start" x="172" y="-67.5" font-family="Helvetica,sans-Serif" font-size="10.00" fill="#000000">qtsdl::GuiRendererImpl</text>
<text text-anchor="middle" x="222.5" y="-56.5" font-family="Helvetica,sans-Serif" font-size="10.00" fill="#000000">::GuiRendererImpl</text>
</a>
</g>
</g>
<!-- Node5&#45;&gt;Node6 -->
<g id="edge1" class="edge">
<title>Node5&#45;&gt;Node6</title>
<path fill="none" stroke="#191970" d="M138.1025,-51.1881C146.7522,-52.5524 155.4839,-53.9296 163.8833,-55.2545"/>
<polygon fill="#191970" stroke="#191970" points="138.4344,-47.6972 128.0111,-49.5964 137.3437,-54.6118 138.4344,-47.6972"/>
</g>
<!-- Node7 -->
<g id="node3" class="node">
<title>Node7</title>
<g id="a_node3"><a xlink:href="../../dd/db2/classqtsdl_1_1_gui_renderer_impl.xhtml#aa388a8bb4fdb12a784481acf834803b7" target="_top" xlink:title="If size changes, then create a new FBO for GUI rendering. ">
<polygon fill="#ffffff" stroke="#000000" points="164,-.5 164,-30.5 281,-30.5 281,-.5 164,-.5"/>
<text text-anchor="start" x="172" y="-18.5" font-family="Helvetica,sans-Serif" font-size="10.00" fill="#000000">qtsdl::GuiRendererImpl</text>
<text text-anchor="middle" x="222.5" y="-7.5" font-family="Helvetica,sans-Serif" font-size="10.00" fill="#000000">::reinit_fbo_if_needed</text>
</a>
</g>
</g>
<!-- Node5&#45;&gt;Node7 -->
<g id="edge2" class="edge">
<title>Node5&#45;&gt;Node7</title>
<path fill="none" stroke="#191970" d="M138.1025,-28.2794C146.7522,-26.9697 155.4839,-25.6475 163.8833,-24.3757"/>
<polygon fill="#191970" stroke="#191970" points="137.3744,-24.8497 128.0111,-29.8075 138.4225,-31.7708 137.3744,-24.8497"/>
</g>
<!-- Node8 -->
<g id="node4" class="node">
<title>Node8</title>
<g id="a_node4"><a xlink:href="../../dd/db2/classqtsdl_1_1_gui_renderer_impl.xhtml#a2d1f046c61fee8711895e27fba9fe6d0" target="_top" xlink:title="qtsdl::GuiRendererImpl\l::render">
<polygon fill="#ffffff" stroke="#000000" points="317,-.5 317,-30.5 434,-30.5 434,-.5 317,-.5"/>
<text text-anchor="start" x="325" y="-18.5" font-family="Helvetica,sans-Serif" font-size="10.00" fill="#000000">qtsdl::GuiRendererImpl</text>
<text text-anchor="middle" x="375.5" y="-7.5" font-family="Helvetica,sans-Serif" font-size="10.00" fill="#000000">::render</text>
</a>
</g>
</g>
<!-- Node7&#45;&gt;Node8 -->
<g id="edge3" class="edge">
<title>Node7&#45;&gt;Node8</title>
<path fill="none" stroke="#191970" d="M291.4932,-15.5C299.9927,-15.5 308.617,-15.5 316.9409,-15.5"/>
<polygon fill="#191970" stroke="#191970" points="291.2163,-12.0001 281.2162,-15.5 291.2162,-19.0001 291.2163,-12.0001"/>
</g>
</g>
</svg>
