<?xml version="1.0" encoding="UTF-8" standalone="no"?>
<!DOCTYPE svg PUBLIC "-//W3C//DTD SVG 1.1//EN"
 "http://www.w3.org/Graphics/SVG/1.1/DTD/svg11.dtd">
<!-- Generated by graphviz version 2.40.1 (20161225.0304)
 -->
<!-- Title: openage::util::Quaternion::normalize Pages: 1 -->
<svg width="636pt" height="72pt"
 viewBox="0.00 0.00 636.00 71.50" xmlns="http://www.w3.org/2000/svg" xmlns:xlink="http://www.w3.org/1999/xlink">
<g id="graph0" class="graph" transform="scale(1 1) rotate(0) translate(4 67.5)">
<title>openage::util::Quaternion::normalize</title>
<polygon fill="#ffffff" stroke="transparent" points="-4,4 -4,-67.5 632,-67.5 632,4 -4,4"/>
<!-- Node99 -->
<g id="node1" class="node">
<title>Node99</title>
<polygon fill="#bfbfbf" stroke="#000000" points="0,-19.5 0,-49.5 125,-49.5 125,-19.5 0,-19.5"/>
<text text-anchor="start" x="8" y="-37.5" font-family="Helvetica,sans-Serif" font-size="10.00" fill="#000000">openage::util::Quaternion</text>
<text text-anchor="middle" x="62.5" y="-26.5" font-family="Helvetica,sans-Serif" font-size="10.00" fill="#000000">::normalize</text>
</g>
<!-- Node100 -->
<g id="node2" class="node">
<title>Node100</title>
<g id="a_node2"><a xlink:href="../../d4/d43/classopenage_1_1util_1_1_quaternion.xhtml#a82f95e1d240ee7f39982060a17fe37ec" target="_top" xlink:title="Calculate the length of the quaternion. ">
<polygon fill="#ffffff" stroke="#000000" points="161,-19.5 161,-49.5 286,-49.5 286,-19.5 161,-19.5"/>
<text text-anchor="start" x="169" y="-37.5" font-family="Helvetica,sans-Serif" font-size="10.00" fill="#000000">openage::util::Quaternion</text>
<text text-anchor="middle" x="223.5" y="-26.5" font-family="Helvetica,sans-Serif" font-size="10.00" fill="#000000">::norm</text>
</a>
</g>
</g>
<!-- Node99&#45;&gt;Node100 -->
<g id="edge1" class="edge">
<title>Node99&#45;&gt;Node100</title>
<path fill="none" stroke="#191970" d="M125.2078,-34.5C133.6481,-34.5 142.3631,-34.5 150.9559,-34.5"/>
<polygon fill="#191970" stroke="#191970" points="150.9634,-38.0001 160.9633,-34.5 150.9633,-31.0001 150.9634,-38.0001"/>
</g>
<!-- Node101 -->
<g id="node3" class="node">
<title>Node101</title>
<g id="a_node3"><a xlink:href="../../d4/d43/classopenage_1_1util_1_1_quaternion.xhtml#a57799e61cbbfbb15b122f77ba76940a8" target="_top" xlink:title="Perform a dot product with another quaternion. ">
<polygon fill="#ffffff" stroke="#000000" points="322,-44 322,-63 467,-63 467,-44 322,-44"/>
<text text-anchor="middle" x="394.5" y="-51" font-family="Helvetica,sans-Serif" font-size="10.00" fill="#000000">openage::util::Quaternion::dot</text>
</a>
</g>
</g>
<!-- Node100&#45;&gt;Node101 -->
<g id="edge2" class="edge">
<title>Node100&#45;&gt;Node101</title>
<path fill="none" stroke="#191970" d="M286.2031,-41.467C294.5614,-42.3957 303.2332,-43.3592 311.8661,-44.3185"/>
<polygon fill="#191970" stroke="#191970" points="311.6359,-47.8143 321.9612,-45.4401 312.4089,-40.8571 311.6359,-47.8143"/>
</g>
<!-- Node102 -->
<g id="node4" class="node">
<title>Node102</title>
<g id="a_node4"><a xlink:href="../../d8/dcc/namespacestd.xhtml#a0fc492a11cf74e80f976b24bea2a2eb2" target="_top" xlink:title="std::sqrt">
<polygon fill="#ffffff" stroke="#000000" points="368,-6 368,-25 421,-25 421,-6 368,-6"/>
<text text-anchor="middle" x="394.5" y="-13" font-family="Helvetica,sans-Serif" font-size="10.00" fill="#000000">std::sqrt</text>
</a>
</g>
</g>
<!-- Node100&#45;&gt;Node102 -->
<g id="edge3" class="edge">
<title>Node100&#45;&gt;Node102</title>
<path fill="none" stroke="#191970" d="M286.2031,-27.533C310.1766,-24.8693 336.7296,-21.9189 357.5431,-19.6063"/>
<polygon fill="#191970" stroke="#191970" points="358.0085,-23.0762 367.5608,-18.4932 357.2354,-16.1191 358.0085,-23.0762"/>
</g>
<!-- Node103 -->
<g id="node5" class="node">
<title>Node103</title>
<g id="a_node5"><a xlink:href="../../dc/d65/classopenage_1_1util_1_1_fixed_point.xhtml#ae963a0d669b00ec8a65da1bf0041172a" target="_top" xlink:title="openage::util::FixedPoint\l::sqrt">
<polygon fill="#ffffff" stroke="#000000" points="503,-.5 503,-30.5 628,-30.5 628,-.5 503,-.5"/>
<text text-anchor="start" x="511" y="-18.5" font-family="Helvetica,sans-Serif" font-size="10.00" fill="#000000">openage::util::FixedPoint</text>
<text text-anchor="middle" x="565.5" y="-7.5" font-family="Helvetica,sans-Serif" font-size="10.00" fill="#000000">::sqrt</text>
</a>
</g>
</g>
<!-- Node102&#45;&gt;Node103 -->
<g id="edge4" class="edge">
<title>Node102&#45;&gt;Node103</title>
<path fill="none" stroke="#191970" d="M421.2188,-15.5C440.4574,-15.5 467.392,-15.5 492.7869,-15.5"/>
<polygon fill="#191970" stroke="#191970" points="492.7969,-19.0001 502.7969,-15.5 492.7969,-12.0001 492.7969,-19.0001"/>
</g>
</g>
</svg>
