<?xml version="1.0" encoding="UTF-8" standalone="no"?>
<!DOCTYPE svg PUBLIC "-//W3C//DTD SVG 1.1//EN"
 "http://www.w3.org/Graphics/SVG/1.1/DTD/svg11.dtd">
<!-- Generated by graphviz version 2.40.1 (20161225.0304)
 -->
<!-- Title: openage::util::Quaternion::conjugate Pages: 1 -->
<svg width="752pt" height="39pt"
 viewBox="0.00 0.00 752.00 39.00" xmlns="http://www.w3.org/2000/svg" xmlns:xlink="http://www.w3.org/1999/xlink">
<g id="graph0" class="graph" transform="scale(1 1) rotate(0) translate(4 35)">
<title>openage::util::Quaternion::conjugate</title>
<polygon fill="#ffffff" stroke="transparent" points="-4,4 -4,-35 748,-35 748,4 -4,4"/>
<!-- Node21 -->
<g id="node1" class="node">
<title>Node21</title>
<polygon fill="#bfbfbf" stroke="#000000" points="0,-.5 0,-30.5 125,-30.5 125,-.5 0,-.5"/>
<text text-anchor="start" x="8" y="-18.5" font-family="Helvetica,sans-Serif" font-size="10.00" fill="#000000">openage::util::Quaternion</text>
<text text-anchor="middle" x="62.5" y="-7.5" font-family="Helvetica,sans-Serif" font-size="10.00" fill="#000000">::conjugate</text>
</g>
<!-- Node22 -->
<g id="node2" class="node">
<title>Node22</title>
<g id="a_node2"><a xlink:href="../../d4/d43/classopenage_1_1util_1_1_quaternion.xhtml#ae0ee465942e8ffecbeb0ab2761b35a14" target="_top" xlink:title="Return the conjugated quaternion. ">
<polygon fill="#ffffff" stroke="#000000" points="161,-.5 161,-30.5 286,-30.5 286,-.5 161,-.5"/>
<text text-anchor="start" x="169" y="-18.5" font-family="Helvetica,sans-Serif" font-size="10.00" fill="#000000">openage::util::Quaternion</text>
<text text-anchor="middle" x="223.5" y="-7.5" font-family="Helvetica,sans-Serif" font-size="10.00" fill="#000000">::conjugated</text>
</a>
</g>
</g>
<!-- Node21&#45;&gt;Node22 -->
<g id="edge1" class="edge">
<title>Node21&#45;&gt;Node22</title>
<path fill="none" stroke="#191970" d="M135.2184,-15.5C143.8129,-15.5 152.5268,-15.5 160.9633,-15.5"/>
<polygon fill="#191970" stroke="#191970" points="135.2078,-12.0001 125.2078,-15.5 135.2078,-19.0001 135.2078,-12.0001"/>
</g>
<!-- Node23 -->
<g id="node3" class="node">
<title>Node23</title>
<g id="a_node3"><a xlink:href="../../d4/d43/classopenage_1_1util_1_1_quaternion.xhtml#a61731d4de80ddb267346159ea173511b" target="_top" xlink:title="Inverted the quaternion: Flip the rotation axes and scale by inverse sum of all components squared...">
<polygon fill="#ffffff" stroke="#000000" points="322,-.5 322,-30.5 447,-30.5 447,-.5 322,-.5"/>
<text text-anchor="start" x="330" y="-18.5" font-family="Helvetica,sans-Serif" font-size="10.00" fill="#000000">openage::util::Quaternion</text>
<text text-anchor="middle" x="384.5" y="-7.5" font-family="Helvetica,sans-Serif" font-size="10.00" fill="#000000">::inverse</text>
</a>
</g>
</g>
<!-- Node22&#45;&gt;Node23 -->
<g id="edge2" class="edge">
<title>Node22&#45;&gt;Node23</title>
<path fill="none" stroke="#191970" d="M296.2184,-15.5C304.8129,-15.5 313.5268,-15.5 321.9633,-15.5"/>
<polygon fill="#191970" stroke="#191970" points="296.2078,-12.0001 286.2078,-15.5 296.2078,-19.0001 296.2078,-12.0001"/>
</g>
<!-- Node24 -->
<g id="node4" class="node">
<title>Node24</title>
<g id="a_node4"><a xlink:href="../../d4/d43/classopenage_1_1util_1_1_quaternion.xhtml#ab7cebbaf133b69d0122980f73416ddf6" target="_top" xlink:title="Return the inverted quaternion. ">
<polygon fill="#ffffff" stroke="#000000" points="483,-.5 483,-30.5 608,-30.5 608,-.5 483,-.5"/>
<text text-anchor="start" x="491" y="-18.5" font-family="Helvetica,sans-Serif" font-size="10.00" fill="#000000">openage::util::Quaternion</text>
<text text-anchor="middle" x="545.5" y="-7.5" font-family="Helvetica,sans-Serif" font-size="10.00" fill="#000000">::inversed</text>
</a>
</g>
</g>
<!-- Node23&#45;&gt;Node24 -->
<g id="edge3" class="edge">
<title>Node23&#45;&gt;Node24</title>
<path fill="none" stroke="#191970" d="M457.2184,-15.5C465.8129,-15.5 474.5268,-15.5 482.9633,-15.5"/>
<polygon fill="#191970" stroke="#191970" points="457.2078,-12.0001 447.2078,-15.5 457.2078,-19.0001 457.2078,-12.0001"/>
</g>
<!-- Node25 -->
<g id="node5" class="node">
<title>Node25</title>
<g id="a_node5"><a xlink:href="../../d5/d3c/namespaceopenage_1_1util_1_1tests.xhtml#ab3f1d081c603b383598beeee8e4429df" target="_top" xlink:title="openage::util::tests\l::quaternion">
<polygon fill="#ffffff" stroke="#000000" points="644,-.5 644,-30.5 744,-30.5 744,-.5 644,-.5"/>
<text text-anchor="start" x="652" y="-18.5" font-family="Helvetica,sans-Serif" font-size="10.00" fill="#000000">openage::util::tests</text>
<text text-anchor="middle" x="694" y="-7.5" font-family="Helvetica,sans-Serif" font-size="10.00" fill="#000000">::quaternion</text>
</a>
</g>
</g>
<!-- Node24&#45;&gt;Node25 -->
<g id="edge4" class="edge">
<title>Node24&#45;&gt;Node25</title>
<path fill="none" stroke="#191970" d="M618.1484,-15.5C626.7886,-15.5 635.4577,-15.5 643.6875,-15.5"/>
<polygon fill="#191970" stroke="#191970" points="618.047,-12.0001 608.047,-15.5 618.0469,-19.0001 618.047,-12.0001"/>
</g>
</g>
</svg>
