<?xml version="1.0" encoding="UTF-8" standalone="no"?>
<!DOCTYPE svg PUBLIC "-//W3C//DTD SVG 1.1//EN"
 "http://www.w3.org/Graphics/SVG/1.1/DTD/svg11.dtd">
<!-- Generated by graphviz version 2.40.1 (20161225.0304)
 -->
<!-- Title: openage::renderer::resources::Texture2dInfo::get_row_size Pages: 1 -->
<svg width="765pt" height="208pt"
 viewBox="0.00 0.00 765.00 208.00" xmlns="http://www.w3.org/2000/svg" xmlns:xlink="http://www.w3.org/1999/xlink">
<g id="graph0" class="graph" transform="scale(1 1) rotate(0) translate(4 204)">
<title>openage::renderer::resources::Texture2dInfo::get_row_size</title>
<polygon fill="#ffffff" stroke="transparent" points="-4,4 -4,-204 761,-204 761,4 -4,4"/>
<!-- Node34 -->
<g id="node1" class="node">
<title>Node34</title>
<polygon fill="#bfbfbf" stroke="#000000" points="0,-73.5 0,-114.5 125,-114.5 125,-73.5 0,-73.5"/>
<text text-anchor="start" x="8" y="-102.5" font-family="Helvetica,sans-Serif" font-size="10.00" fill="#000000">openage::renderer::</text>
<text text-anchor="start" x="8" y="-91.5" font-family="Helvetica,sans-Serif" font-size="10.00" fill="#000000">resources::Texture2dInfo</text>
<text text-anchor="middle" x="62.5" y="-80.5" font-family="Helvetica,sans-Serif" font-size="10.00" fill="#000000">::get_row_size</text>
</g>
<!-- Node35 -->
<g id="node2" class="node">
<title>Node35</title>
<g id="a_node2"><a xlink:href="../../d8/db0/classopenage_1_1renderer_1_1resources_1_1_texture2d_data.xhtml#a01acf205a4e2c76612af7d0e36123496" target="_top" xlink:title="Flips the texture along the Y&#45;axis and returns the flipped data with the same info. ">
<polygon fill="#ffffff" stroke="#000000" points="161,-158.5 161,-199.5 291,-199.5 291,-158.5 161,-158.5"/>
<text text-anchor="start" x="169" y="-187.5" font-family="Helvetica,sans-Serif" font-size="10.00" fill="#000000">openage::renderer::</text>
<text text-anchor="start" x="169" y="-176.5" font-family="Helvetica,sans-Serif" font-size="10.00" fill="#000000">resources::Texture2dData</text>
<text text-anchor="middle" x="226" y="-165.5" font-family="Helvetica,sans-Serif" font-size="10.00" fill="#000000">::flip_y</text>
</a>
</g>
</g>
<!-- Node34&#45;&gt;Node35 -->
<g id="edge1" class="edge">
<title>Node34&#45;&gt;Node35</title>
<path fill="none" stroke="#191970" d="M106.7605,-119.6652C123.5885,-129.171 143.0324,-139.8543 161,-149 167.2027,-152.1573 173.8021,-155.3688 180.3278,-158.4597"/>
<polygon fill="#191970" stroke="#191970" points="108.1307,-116.4183 97.7068,-114.5227 104.6734,-122.505 108.1307,-116.4183"/>
</g>
<!-- Node36 -->
<g id="node3" class="node">
<title>Node36</title>
<g id="a_node3"><a xlink:href="../../d0/dd8/classopenage_1_1renderer_1_1resources_1_1_texture2d_info.xhtml#a09329202a589131b1c723fbffb1f806b" target="_top" xlink:title="Returns the size in bytes of the raw pixel data. ">
<polygon fill="#ffffff" stroke="#000000" points="163.5,-98.5 163.5,-139.5 288.5,-139.5 288.5,-98.5 163.5,-98.5"/>
<text text-anchor="start" x="171.5" y="-127.5" font-family="Helvetica,sans-Serif" font-size="10.00" fill="#000000">openage::renderer::</text>
<text text-anchor="start" x="171.5" y="-116.5" font-family="Helvetica,sans-Serif" font-size="10.00" fill="#000000">resources::Texture2dInfo</text>
<text text-anchor="middle" x="226" y="-105.5" font-family="Helvetica,sans-Serif" font-size="10.00" fill="#000000">::get_data_size</text>
</a>
</g>
</g>
<!-- Node34&#45;&gt;Node36 -->
<g id="edge2" class="edge">
<title>Node34&#45;&gt;Node36</title>
<path fill="none" stroke="#191970" d="M135.3302,-105.1361C144.7028,-106.5692 154.2337,-108.0266 163.4221,-109.4315"/>
<polygon fill="#191970" stroke="#191970" points="135.6599,-101.6459 125.2458,-103.5942 134.6018,-108.5655 135.6599,-101.6459"/>
</g>
<!-- Node39 -->
<g id="node6" class="node">
<title>Node39</title>
<g id="a_node6"><a xlink:href="../../d8/db0/classopenage_1_1renderer_1_1resources_1_1_texture2d_data.xhtml#ad1afa8d4edac82bbb12a3bf371149a41" target="_top" xlink:title="Reads the pixel at the given position and casts it to the given type. ">
<polygon fill="#ffffff" stroke="#000000" points="327,-38.5 327,-79.5 457,-79.5 457,-38.5 327,-38.5"/>
<text text-anchor="start" x="335" y="-67.5" font-family="Helvetica,sans-Serif" font-size="10.00" fill="#000000">openage::renderer::</text>
<text text-anchor="start" x="335" y="-56.5" font-family="Helvetica,sans-Serif" font-size="10.00" fill="#000000">resources::Texture2dData</text>
<text text-anchor="middle" x="392" y="-45.5" font-family="Helvetica,sans-Serif" font-size="10.00" fill="#000000">::read_pixel</text>
</a>
</g>
</g>
<!-- Node34&#45;&gt;Node39 -->
<g id="edge8" class="edge">
<title>Node34&#45;&gt;Node39</title>
<path fill="none" stroke="#191970" d="M135.3276,-86.2641C192.6297,-80.1774 271.7516,-71.773 326.9467,-65.9101"/>
<polygon fill="#191970" stroke="#191970" points="134.8263,-82.7976 125.252,-87.3344 135.5658,-89.7584 134.8263,-82.7976"/>
</g>
<!-- Node42 -->
<g id="node9" class="node">
<title>Node42</title>
<g id="a_node9"><a xlink:href="../../d8/db0/classopenage_1_1renderer_1_1resources_1_1_texture2d_data.xhtml#a3dceab170bbee853bcafd6fd924be208" target="_top" xlink:title="Stores this texture data in the given file in the PNG format. ">
<polygon fill="#ffffff" stroke="#000000" points="161,-.5 161,-41.5 291,-41.5 291,-.5 161,-.5"/>
<text text-anchor="start" x="169" y="-29.5" font-family="Helvetica,sans-Serif" font-size="10.00" fill="#000000">openage::renderer::</text>
<text text-anchor="start" x="169" y="-18.5" font-family="Helvetica,sans-Serif" font-size="10.00" fill="#000000">resources::Texture2dData</text>
<text text-anchor="middle" x="226" y="-7.5" font-family="Helvetica,sans-Serif" font-size="10.00" fill="#000000">::store</text>
</a>
</g>
</g>
<!-- Node34&#45;&gt;Node42 -->
<g id="edge9" class="edge">
<title>Node34&#45;&gt;Node42</title>
<path fill="none" stroke="#191970" d="M117.613,-69.393C137.9152,-60.3284 160.6783,-50.1651 180.0831,-41.5011"/>
<polygon fill="#191970" stroke="#191970" points="116.1832,-66.1983 108.479,-73.4712 119.0371,-72.5901 116.1832,-66.1983"/>
</g>
<!-- Node37 -->
<g id="node4" class="node">
<title>Node37</title>
<g id="a_node4"><a xlink:href="../../d5/dde/classopenage_1_1renderer_1_1opengl_1_1_gl_renderer.xhtml#ad5d4ec5b1523d89a23170beea4bf6525" target="_top" xlink:title="Stores the display framebuffer into a CPU&#45;accessible data object. Essentially, this takes a screensho...">
<polygon fill="#ffffff" stroke="#000000" points="338.5,-158.5 338.5,-199.5 445.5,-199.5 445.5,-158.5 338.5,-158.5"/>
<text text-anchor="start" x="346.5" y="-187.5" font-family="Helvetica,sans-Serif" font-size="10.00" fill="#000000">openage::renderer::</text>
<text text-anchor="start" x="346.5" y="-176.5" font-family="Helvetica,sans-Serif" font-size="10.00" fill="#000000">opengl::GlRenderer::</text>
<text text-anchor="middle" x="392" y="-165.5" font-family="Helvetica,sans-Serif" font-size="10.00" fill="#000000">display_into_data</text>
</a>
</g>
</g>
<!-- Node36&#45;&gt;Node37 -->
<g id="edge3" class="edge">
<title>Node36&#45;&gt;Node37</title>
<path fill="none" stroke="#191970" d="M292.9348,-143.1933C308.0543,-148.6582 323.9133,-154.3903 338.4,-159.6265"/>
<polygon fill="#191970" stroke="#191970" points="293.7221,-139.7563 283.1278,-139.6486 291.3426,-146.3395 293.7221,-139.7563"/>
</g>
<!-- Node38 -->
<g id="node5" class="node">
<title>Node38</title>
<g id="a_node5"><a xlink:href="../../d6/dae/classopenage_1_1renderer_1_1opengl_1_1_gl_texture2d.xhtml#ab2038754e208bb1929a244dbf29f2b6b" target="_top" xlink:title="Copies this texture&#39;s data from graphics hardware into a CPU&#45;accessible Texture2dData buffer...">
<polygon fill="#ffffff" stroke="#000000" points="340,-98.5 340,-139.5 444,-139.5 444,-98.5 340,-98.5"/>
<text text-anchor="start" x="348" y="-127.5" font-family="Helvetica,sans-Serif" font-size="10.00" fill="#000000">openage::renderer::</text>
<text text-anchor="start" x="348" y="-116.5" font-family="Helvetica,sans-Serif" font-size="10.00" fill="#000000">opengl::GlTexture2d</text>
<text text-anchor="middle" x="392" y="-105.5" font-family="Helvetica,sans-Serif" font-size="10.00" fill="#000000">::into_data</text>
</a>
</g>
</g>
<!-- Node36&#45;&gt;Node38 -->
<g id="edge4" class="edge">
<title>Node36&#45;&gt;Node38</title>
<path fill="none" stroke="#191970" d="M298.7698,-119C312.6451,-119 326.9078,-119 339.9747,-119"/>
<polygon fill="#191970" stroke="#191970" points="298.7575,-115.5001 288.7575,-119 298.7574,-122.5001 298.7575,-115.5001"/>
</g>
<!-- Node36&#45;&gt;Node39 -->
<g id="edge5" class="edge">
<title>Node36&#45;&gt;Node39</title>
<path fill="none" stroke="#191970" d="M292.7155,-94.886C306.7434,-89.8156 321.4173,-84.5118 335.0482,-79.585"/>
<polygon fill="#191970" stroke="#191970" points="291.3426,-91.6605 283.1278,-98.3514 293.7221,-98.2437 291.3426,-91.6605"/>
</g>
<!-- Node40 -->
<g id="node7" class="node">
<title>Node40</title>
<g id="a_node7"><a xlink:href="../../dc/dbb/namespaceopenage_1_1renderer_1_1tests.xhtml#a6f980e5dd40ec0b730e586e2484233d2" target="_top" xlink:title="openage::renderer::\ltests::renderer_demo_0">
<polygon fill="#ffffff" stroke="#000000" points="493,-44 493,-74 612,-74 612,-44 493,-44"/>
<text text-anchor="start" x="501" y="-62" font-family="Helvetica,sans-Serif" font-size="10.00" fill="#000000">openage::renderer::</text>
<text text-anchor="middle" x="552.5" y="-51" font-family="Helvetica,sans-Serif" font-size="10.00" fill="#000000">tests::renderer_demo_0</text>
</a>
</g>
</g>
<!-- Node39&#45;&gt;Node40 -->
<g id="edge6" class="edge">
<title>Node39&#45;&gt;Node40</title>
<path fill="none" stroke="#191970" d="M467.3228,-59C475.9265,-59 484.6061,-59 492.9638,-59"/>
<polygon fill="#191970" stroke="#191970" points="467.2815,-55.5001 457.2815,-59 467.2815,-62.5001 467.2815,-55.5001"/>
</g>
<!-- Node41 -->
<g id="node8" class="node">
<title>Node41</title>
<g id="a_node8"><a xlink:href="../../dc/dbb/namespaceopenage_1_1renderer_1_1tests.xhtml#ac2256044717a0f7f7aafbb1f2be3a1eb" target="_top" xlink:title="openage::renderer::\ltests::renderer_demo">
<polygon fill="#ffffff" stroke="#000000" points="648,-44 648,-74 757,-74 757,-44 648,-44"/>
<text text-anchor="start" x="656" y="-62" font-family="Helvetica,sans-Serif" font-size="10.00" fill="#000000">openage::renderer::</text>
<text text-anchor="middle" x="702.5" y="-51" font-family="Helvetica,sans-Serif" font-size="10.00" fill="#000000">tests::renderer_demo</text>
</a>
</g>
</g>
<!-- Node40&#45;&gt;Node41 -->
<g id="edge7" class="edge">
<title>Node40&#45;&gt;Node41</title>
<path fill="none" stroke="#191970" d="M622.2386,-59C630.8367,-59 639.5274,-59 647.8559,-59"/>
<polygon fill="#191970" stroke="#191970" points="622.215,-55.5001 612.215,-59 622.2149,-62.5001 622.215,-55.5001"/>
</g>
<!-- Node42&#45;&gt;Node39 -->
<g id="edge10" class="edge">
<title>Node42&#45;&gt;Node39</title>
<path fill="none" stroke="#191970" d="M301.1138,-38.1947C309.6807,-40.1558 318.3607,-42.1428 326.7842,-44.0711"/>
<polygon fill="#191970" stroke="#191970" points="301.66,-34.7293 291.1312,-35.9095 300.098,-41.5528 301.66,-34.7293"/>
</g>
</g>
</svg>
