<?xml version="1.0" encoding="UTF-8" standalone="no"?>
<!DOCTYPE svg PUBLIC "-//W3C//DTD SVG 1.1//EN"
 "http://www.w3.org/Graphics/SVG/1.1/DTD/svg11.dtd">
<!-- Generated by graphviz version 2.40.1 (20161225.0304)
 -->
<!-- Title: /mnt/c/Users/Jameson/Desktop/git/openage&#45;new&#45;doc&#45;system/libopenage/error/handlers.h Pages: 1 -->
<svg width="204pt" height="173pt"
 viewBox="0.00 0.00 204.00 173.45" xmlns="http://www.w3.org/2000/svg" xmlns:xlink="http://www.w3.org/1999/xlink">
<g id="graph0" class="graph" transform="scale(1 1) rotate(0) translate(4 169.4516)">
<title>/mnt/c/Users/Jameson/Desktop/git/openage&#45;new&#45;doc&#45;system/libopenage/error/handlers.h</title>
<polygon fill="#ffffff" stroke="transparent" points="-4,4 -4,-169.4516 200,-169.4516 200,4 -4,4"/>
<!-- Node0 -->
<g id="node1" class="node">
<title>Node0</title>
<polygon fill="#bfbfbf" stroke="#000000" points="18.5,-112.9516 18.5,-164.9516 159.5,-164.9516 159.5,-112.9516 18.5,-112.9516"/>
<text text-anchor="start" x="26.5" y="-152.9516" font-family="Helvetica,sans-Serif" font-size="10.00" fill="#000000">/mnt/c/Users/Jameson</text>
<text text-anchor="start" x="26.5" y="-141.9516" font-family="Helvetica,sans-Serif" font-size="10.00" fill="#000000">/Desktop/git/openage</text>
<text text-anchor="start" x="26.5" y="-130.9516" font-family="Helvetica,sans-Serif" font-size="10.00" fill="#000000">&#45;new&#45;doc&#45;system/libopenage</text>
<text text-anchor="middle" x="89" y="-119.9516" font-family="Helvetica,sans-Serif" font-size="10.00" fill="#000000">/error/handlers.h</text>
</g>
<!-- Node1 -->
<g id="node2" class="node">
<title>Node1</title>
<g id="a_node2"><a xlink:href="../../d4/dd1/compiler_8h.xhtml" target="_top" xlink:title="../util/compiler.h">
<polygon fill="#ffffff" stroke="#000000" points="46,-56.9516 46,-75.9516 132,-75.9516 132,-56.9516 46,-56.9516"/>
<text text-anchor="middle" x="89" y="-63.9516" font-family="Helvetica,sans-Serif" font-size="10.00" fill="#000000">../util/compiler.h</text>
</a>
</g>
</g>
<!-- Node0&#45;&gt;Node1 -->
<g id="edge1" class="edge">
<title>Node0&#45;&gt;Node1</title>
<path fill="none" stroke="#191970" d="M89,-112.7775C89,-103.9658 89,-94.2913 89,-86.0727"/>
<polygon fill="#191970" stroke="#191970" points="92.5001,-85.9856 89,-75.9856 85.5001,-85.9857 92.5001,-85.9856"/>
</g>
<!-- Node2 -->
<g id="node3" class="node">
<title>Node2</title>
<polygon fill="#ffffff" stroke="#bfbfbf" points="0,-.9516 0,-19.9516 50,-19.9516 50,-.9516 0,-.9516"/>
<text text-anchor="middle" x="25" y="-7.9516" font-family="Helvetica,sans-Serif" font-size="10.00" fill="#000000">ciso646</text>
</g>
<!-- Node1&#45;&gt;Node2 -->
<g id="edge2" class="edge">
<title>Node1&#45;&gt;Node2</title>
<path fill="none" stroke="#191970" d="M77.8521,-56.6972C68.4913,-48.5066 54.9142,-36.6266 43.8651,-26.9586"/>
<polygon fill="#191970" stroke="#191970" points="45.8508,-24.0454 36.0202,-20.0943 41.2412,-29.3134 45.8508,-24.0454"/>
</g>
<!-- Node3 -->
<g id="node4" class="node">
<title>Node3</title>
<polygon fill="#ffffff" stroke="#bfbfbf" points="68.5,-.9516 68.5,-19.9516 109.5,-19.9516 109.5,-.9516 68.5,-.9516"/>
<text text-anchor="middle" x="89" y="-7.9516" font-family="Helvetica,sans-Serif" font-size="10.00" fill="#000000">string</text>
</g>
<!-- Node1&#45;&gt;Node3 -->
<g id="edge3" class="edge">
<title>Node1&#45;&gt;Node3</title>
<path fill="none" stroke="#191970" d="M89,-56.6972C89,-49.3899 89,-39.146 89,-30.1562"/>
<polygon fill="#191970" stroke="#191970" points="92.5001,-30.0943 89,-20.0943 85.5001,-30.0943 92.5001,-30.0943"/>
</g>
<!-- Node4 -->
<g id="node5" class="node">
<title>Node4</title>
<g id="a_node5"><a xlink:href="../../d8/d39/signal_8h.xhtml" target="_top" xlink:title="signal.h">
<polygon fill="#ffffff" stroke="#000000" points="128,-.9516 128,-19.9516 178,-19.9516 178,-.9516 128,-.9516"/>
<text text-anchor="middle" x="153" y="-7.9516" font-family="Helvetica,sans-Serif" font-size="10.00" fill="#000000">signal.h</text>
</a>
</g>
</g>
<!-- Node1&#45;&gt;Node4 -->
<g id="edge4" class="edge">
<title>Node1&#45;&gt;Node4</title>
<path fill="none" stroke="#191970" d="M100.1479,-56.6972C109.5087,-48.5066 123.0858,-36.6266 134.1349,-26.9586"/>
<polygon fill="#191970" stroke="#191970" points="136.7588,-29.3134 141.9798,-20.0943 132.1492,-24.0454 136.7588,-29.3134"/>
</g>
<!-- Node4&#45;&gt;Node4 -->
<g id="edge5" class="edge">
<title>Node4&#45;&gt;Node4</title>
<path fill="none" stroke="#191970" d="M171.5634,-20.0262C183.9465,-22.7213 196,-19.5298 196,-10.4516 196,-3.9267 189.7731,-.4429 181.6726,0"/>
<polygon fill="#191970" stroke="#191970" points="181.2234,3.4743 171.5634,-.877 181.8285,-3.4995 181.2234,3.4743"/>
</g>
</g>
</svg>
