<?xml version="1.0" encoding="UTF-8" standalone="no"?>
<!DOCTYPE svg PUBLIC "-//W3C//DTD SVG 1.1//EN"
 "http://www.w3.org/Graphics/SVG/1.1/DTD/svg11.dtd">
<!-- Generated by graphviz version 2.40.1 (20161225.0304)
 -->
<!-- Title: openage::renderer::opengl::GlGeometry::draw Pages: 1 -->
<svg width="278pt" height="78pt"
 viewBox="0.00 0.00 278.00 77.50" xmlns="http://www.w3.org/2000/svg" xmlns:xlink="http://www.w3.org/1999/xlink">
<g id="graph0" class="graph" transform="scale(1 1) rotate(0) translate(4 73.5)">
<title>openage::renderer::opengl::GlGeometry::draw</title>
<polygon fill="#ffffff" stroke="transparent" points="-4,4 -4,-73.5 274,-73.5 274,4 -4,4"/>
<!-- Node6 -->
<g id="node1" class="node">
<title>Node6</title>
<polygon fill="#bfbfbf" stroke="#000000" points="0,-22.5 0,-52.5 131,-52.5 131,-22.5 0,-22.5"/>
<text text-anchor="start" x="8" y="-40.5" font-family="Helvetica,sans-Serif" font-size="10.00" fill="#000000">openage::renderer::</text>
<text text-anchor="middle" x="65.5" y="-29.5" font-family="Helvetica,sans-Serif" font-size="10.00" fill="#000000">opengl::GlGeometry::draw</text>
</g>
<!-- Node7 -->
<g id="node2" class="node">
<title>Node7</title>
<g id="a_node2"><a xlink:href="../../dd/d1a/namespaceopenage_1_1log.xhtml#ab6b4b10be67af93ab6c4d5a36139736e" target="_top" xlink:title="error message ">
<polygon fill="#ffffff" stroke="#000000" points="177,-50 177,-69 260,-69 260,-50 177,-50"/>
<text text-anchor="middle" x="218.5" y="-57" font-family="Helvetica,sans-Serif" font-size="10.00" fill="#000000">openage.log.err</text>
</a>
</g>
</g>
<!-- Node6&#45;&gt;Node7 -->
<g id="edge1" class="edge">
<title>Node6&#45;&gt;Node7</title>
<path fill="none" stroke="#191970" d="M131.2737,-46.9577C143.0556,-48.6518 155.1838,-50.3957 166.5104,-52.0244"/>
<polygon fill="#191970" stroke="#191970" points="166.2578,-55.524 176.6542,-53.483 167.2541,-48.5952 166.2578,-55.524"/>
</g>
<!-- Node8 -->
<g id="node3" class="node">
<title>Node8</title>
<g id="a_node3"><a xlink:href="../../d2/d58/classopenage_1_1renderer_1_1_geometry.xhtml#af798beba5997d99d6cd882ac4451cc25" target="_top" xlink:title="Returns the type of this geometry. ">
<polygon fill="#ffffff" stroke="#000000" points="167,-.5 167,-30.5 270,-30.5 270,-.5 167,-.5"/>
<text text-anchor="start" x="175" y="-18.5" font-family="Helvetica,sans-Serif" font-size="10.00" fill="#000000">openage::renderer::</text>
<text text-anchor="middle" x="218.5" y="-7.5" font-family="Helvetica,sans-Serif" font-size="10.00" fill="#000000">Geometry::get_type</text>
</a>
</g>
</g>
<!-- Node6&#45;&gt;Node8 -->
<g id="edge2" class="edge">
<title>Node6&#45;&gt;Node8</title>
<path fill="none" stroke="#191970" d="M131.2737,-28.0423C139.6805,-26.8335 148.2636,-25.5994 156.606,-24.3998"/>
<polygon fill="#191970" stroke="#191970" points="157.2345,-27.8455 166.6345,-22.9578 156.2381,-20.9168 157.2345,-27.8455"/>
</g>
</g>
</svg>
