<?xml version="1.0" encoding="UTF-8" standalone="no"?>
<!DOCTYPE svg PUBLIC "-//W3C//DTD SVG 1.1//EN"
 "http://www.w3.org/Graphics/SVG/1.1/DTD/svg11.dtd">
<!-- Generated by graphviz version 2.40.1 (20161225.0304)
 -->
<!-- Title: /mnt/c/Users/Jameson/Desktop/git/openage&#45;new&#45;doc&#45;system/libopenage/log/logsink.cpp Pages: 1 -->
<svg width="713pt" height="397pt"
 viewBox="0.00 0.00 713.00 397.45" xmlns="http://www.w3.org/2000/svg" xmlns:xlink="http://www.w3.org/1999/xlink">
<g id="graph0" class="graph" transform="scale(1 1) rotate(0) translate(4 393.4516)">
<title>/mnt/c/Users/Jameson/Desktop/git/openage&#45;new&#45;doc&#45;system/libopenage/log/logsink.cpp</title>
<polygon fill="#ffffff" stroke="transparent" points="-4,4 -4,-393.4516 709,-393.4516 709,4 -4,4"/>
<!-- Node0 -->
<g id="node1" class="node">
<title>Node0</title>
<polygon fill="#bfbfbf" stroke="#000000" points="119.5,-336.9516 119.5,-388.9516 260.5,-388.9516 260.5,-336.9516 119.5,-336.9516"/>
<text text-anchor="start" x="127.5" y="-376.9516" font-family="Helvetica,sans-Serif" font-size="10.00" fill="#000000">/mnt/c/Users/Jameson</text>
<text text-anchor="start" x="127.5" y="-365.9516" font-family="Helvetica,sans-Serif" font-size="10.00" fill="#000000">/Desktop/git/openage</text>
<text text-anchor="start" x="127.5" y="-354.9516" font-family="Helvetica,sans-Serif" font-size="10.00" fill="#000000">&#45;new&#45;doc&#45;system/libopenage</text>
<text text-anchor="middle" x="190" y="-343.9516" font-family="Helvetica,sans-Serif" font-size="10.00" fill="#000000">/log/logsink.cpp</text>
</g>
<!-- Node1 -->
<g id="node2" class="node">
<title>Node1</title>
<g id="a_node2"><a xlink:href="../../d3/d4e/logsink_8h.xhtml" target="_top" xlink:title="logsink.h">
<polygon fill="#ffffff" stroke="#000000" points="78,-224.9516 78,-243.9516 134,-243.9516 134,-224.9516 78,-224.9516"/>
<text text-anchor="middle" x="106" y="-231.9516" font-family="Helvetica,sans-Serif" font-size="10.00" fill="#000000">logsink.h</text>
</a>
</g>
</g>
<!-- Node0&#45;&gt;Node1 -->
<g id="edge1" class="edge">
<title>Node0&#45;&gt;Node1</title>
<path fill="none" stroke="#191970" d="M173.0013,-336.9477C156.5581,-311.7935 132.0763,-274.3422 117.7061,-252.3591"/>
<polygon fill="#191970" stroke="#191970" points="120.6206,-250.421 112.2194,-243.9658 114.7614,-254.2512 120.6206,-250.421"/>
</g>
<!-- Node12 -->
<g id="node13" class="node">
<title>Node12</title>
<polygon fill="#ffffff" stroke="#bfbfbf" points="162,-280.9516 162,-299.9516 218,-299.9516 218,-280.9516 162,-280.9516"/>
<text text-anchor="middle" x="190" y="-287.9516" font-family="Helvetica,sans-Serif" font-size="10.00" fill="#000000">algorithm</text>
</g>
<!-- Node0&#45;&gt;Node12 -->
<g id="edge13" class="edge">
<title>Node0&#45;&gt;Node12</title>
<path fill="none" stroke="#191970" d="M190,-336.7775C190,-327.9658 190,-318.2913 190,-310.0727"/>
<polygon fill="#191970" stroke="#191970" points="193.5001,-309.9856 190,-299.9856 186.5001,-309.9857 193.5001,-309.9856"/>
</g>
<!-- Node13 -->
<g id="node14" class="node">
<title>Node13</title>
<g id="a_node14"><a xlink:href="../../d2/d0d/message_8h.xhtml" target="_top" xlink:title="message.h">
<polygon fill="#ffffff" stroke="#000000" points="236.5,-280.9516 236.5,-299.9516 301.5,-299.9516 301.5,-280.9516 236.5,-280.9516"/>
<text text-anchor="middle" x="269" y="-287.9516" font-family="Helvetica,sans-Serif" font-size="10.00" fill="#000000">message.h</text>
</a>
</g>
</g>
<!-- Node0&#45;&gt;Node13 -->
<g id="edge14" class="edge">
<title>Node0&#45;&gt;Node13</title>
<path fill="none" stroke="#191970" d="M218.5208,-336.7775C229.4318,-326.7642 241.5569,-315.6367 251.1885,-306.7976"/>
<polygon fill="#191970" stroke="#191970" points="253.6101,-309.3258 258.6112,-299.9856 248.877,-304.1684 253.6101,-309.3258"/>
</g>
<!-- Node2 -->
<g id="node3" class="node">
<title>Node2</title>
<polygon fill="#ffffff" stroke="#bfbfbf" points="36.5,-168.9516 36.5,-187.9516 65.5,-187.9516 65.5,-168.9516 36.5,-168.9516"/>
<text text-anchor="middle" x="51" y="-175.9516" font-family="Helvetica,sans-Serif" font-size="10.00" fill="#000000">list</text>
</g>
<!-- Node1&#45;&gt;Node2 -->
<g id="edge2" class="edge">
<title>Node1&#45;&gt;Node2</title>
<path fill="none" stroke="#191970" d="M96.4197,-224.6972C88.4542,-216.5869 76.9359,-204.8591 67.4921,-195.2435"/>
<polygon fill="#191970" stroke="#191970" points="69.9747,-192.7763 60.4705,-188.0943 64.9805,-197.6813 69.9747,-192.7763"/>
</g>
<!-- Node3 -->
<g id="node4" class="node">
<title>Node3</title>
<polygon fill="#ffffff" stroke="#bfbfbf" points="84,-168.9516 84,-187.9516 128,-187.9516 128,-168.9516 84,-168.9516"/>
<text text-anchor="middle" x="106" y="-175.9516" font-family="Helvetica,sans-Serif" font-size="10.00" fill="#000000">mutex</text>
</g>
<!-- Node1&#45;&gt;Node3 -->
<g id="edge3" class="edge">
<title>Node1&#45;&gt;Node3</title>
<path fill="none" stroke="#191970" d="M106,-224.6972C106,-217.3899 106,-207.146 106,-198.1562"/>
<polygon fill="#191970" stroke="#191970" points="109.5001,-198.0943 106,-188.0943 102.5001,-198.0943 109.5001,-198.0943"/>
</g>
<!-- Node4 -->
<g id="node5" class="node">
<title>Node4</title>
<g id="a_node5"><a xlink:href="../../de/d09/level_8h.xhtml" target="_top" xlink:title="level.h">
<polygon fill="#ffffff" stroke="#000000" points="146.5,-168.9516 146.5,-187.9516 191.5,-187.9516 191.5,-168.9516 146.5,-168.9516"/>
<text text-anchor="middle" x="169" y="-175.9516" font-family="Helvetica,sans-Serif" font-size="10.00" fill="#000000">level.h</text>
</a>
</g>
</g>
<!-- Node1&#45;&gt;Node4 -->
<g id="edge4" class="edge">
<title>Node1&#45;&gt;Node4</title>
<path fill="none" stroke="#191970" d="M116.9738,-224.6972C126.1882,-216.5066 139.5532,-204.6266 150.4297,-194.9586"/>
<polygon fill="#191970" stroke="#191970" points="153.0032,-197.3539 158.152,-188.0943 148.3526,-192.122 153.0032,-197.3539"/>
</g>
<!-- Node5 -->
<g id="node6" class="node">
<title>Node5</title>
<g id="a_node6"><a xlink:href="../../d0/d9b/enum_8h.xhtml" target="_top" xlink:title="../util/enum.h">
<polygon fill="#ffffff" stroke="#000000" points="91,-112.9516 91,-131.9516 165,-131.9516 165,-112.9516 91,-112.9516"/>
<text text-anchor="middle" x="128" y="-119.9516" font-family="Helvetica,sans-Serif" font-size="10.00" fill="#000000">../util/enum.h</text>
</a>
</g>
</g>
<!-- Node4&#45;&gt;Node5 -->
<g id="edge5" class="edge">
<title>Node4&#45;&gt;Node5</title>
<path fill="none" stroke="#191970" d="M161.8583,-168.6972C156.1556,-160.9081 148.01,-149.7824 141.1375,-140.3956"/>
<polygon fill="#191970" stroke="#191970" points="143.7913,-138.0954 135.0598,-132.0943 138.1432,-142.2306 143.7913,-138.0954"/>
</g>
<!-- Node6 -->
<g id="node7" class="node">
<title>Node6</title>
<polygon fill="#ffffff" stroke="#bfbfbf" points="86,-.9516 86,-19.9516 140,-19.9516 140,-.9516 86,-.9516"/>
<text text-anchor="middle" x="113" y="-7.9516" font-family="Helvetica,sans-Serif" font-size="10.00" fill="#000000">iostream</text>
</g>
<!-- Node5&#45;&gt;Node6 -->
<g id="edge6" class="edge">
<title>Node5&#45;&gt;Node6</title>
<path fill="none" stroke="#191970" d="M100.3041,-112.8791C83.9537,-105.6298 64.6261,-93.8952 55,-76.4516 44.1349,-56.7627 65.0176,-37.8631 84.6862,-25.373"/>
<polygon fill="#191970" stroke="#191970" points="86.7231,-28.2335 93.5193,-20.1055 83.1378,-22.2213 86.7231,-28.2335"/>
</g>
<!-- Node7 -->
<g id="node8" class="node">
<title>Node7</title>
<polygon fill="#ffffff" stroke="#bfbfbf" points="64.5,-56.9516 64.5,-75.9516 115.5,-75.9516 115.5,-56.9516 64.5,-56.9516"/>
<text text-anchor="middle" x="90" y="-63.9516" font-family="Helvetica,sans-Serif" font-size="10.00" fill="#000000">typeinfo</text>
</g>
<!-- Node5&#45;&gt;Node7 -->
<g id="edge7" class="edge">
<title>Node5&#45;&gt;Node7</title>
<path fill="none" stroke="#191970" d="M121.3809,-112.6972C116.0954,-104.9081 108.5459,-93.7824 102.1762,-84.3956"/>
<polygon fill="#191970" stroke="#191970" points="105.0545,-82.4038 96.5432,-76.0943 99.2621,-86.3344 105.0545,-82.4038"/>
</g>
<!-- Node8 -->
<g id="node9" class="node">
<title>Node8</title>
<g id="a_node9"><a xlink:href="../../d4/dd1/compiler_8h.xhtml" target="_top" xlink:title="compiler.h">
<polygon fill="#ffffff" stroke="#000000" points="134,-56.9516 134,-75.9516 196,-75.9516 196,-56.9516 134,-56.9516"/>
<text text-anchor="middle" x="165" y="-63.9516" font-family="Helvetica,sans-Serif" font-size="10.00" fill="#000000">compiler.h</text>
</a>
</g>
</g>
<!-- Node5&#45;&gt;Node8 -->
<g id="edge8" class="edge">
<title>Node5&#45;&gt;Node8</title>
<path fill="none" stroke="#191970" d="M134.4449,-112.6972C139.5382,-104.9884 146.7908,-94.0114 152.952,-84.6864"/>
<polygon fill="#191970" stroke="#191970" points="156.0365,-86.3671 158.6289,-76.0943 150.1962,-82.5083 156.0365,-86.3671"/>
</g>
<!-- Node9 -->
<g id="node10" class="node">
<title>Node9</title>
<polygon fill="#ffffff" stroke="#bfbfbf" points="158,-.9516 158,-19.9516 208,-19.9516 208,-.9516 158,-.9516"/>
<text text-anchor="middle" x="183" y="-7.9516" font-family="Helvetica,sans-Serif" font-size="10.00" fill="#000000">ciso646</text>
</g>
<!-- Node8&#45;&gt;Node9 -->
<g id="edge9" class="edge">
<title>Node8&#45;&gt;Node9</title>
<path fill="none" stroke="#191970" d="M168.1354,-56.6972C170.51,-49.3096 173.8493,-38.9205 176.7615,-29.8603"/>
<polygon fill="#191970" stroke="#191970" points="180.1725,-30.6857 179.9006,-20.0943 173.5083,-28.5435 180.1725,-30.6857"/>
</g>
<!-- Node10 -->
<g id="node11" class="node">
<title>Node10</title>
<polygon fill="#ffffff" stroke="#bfbfbf" points="244.5,-.9516 244.5,-19.9516 285.5,-19.9516 285.5,-.9516 244.5,-.9516"/>
<text text-anchor="middle" x="265" y="-7.9516" font-family="Helvetica,sans-Serif" font-size="10.00" fill="#000000">string</text>
</g>
<!-- Node8&#45;&gt;Node10 -->
<g id="edge10" class="edge">
<title>Node8&#45;&gt;Node10</title>
<path fill="none" stroke="#191970" d="M182.4187,-56.6972C198.0485,-47.9445 221.2019,-34.9786 239.0185,-25.0013"/>
<polygon fill="#191970" stroke="#191970" points="240.766,-28.0342 247.7809,-20.0943 237.3457,-21.9266 240.766,-28.0342"/>
</g>
<!-- Node11 -->
<g id="node12" class="node">
<title>Node11</title>
<g id="a_node12"><a xlink:href="../../d8/d39/signal_8h.xhtml" target="_top" xlink:title="signal.h">
<polygon fill="#ffffff" stroke="#000000" points="0,-.9516 0,-19.9516 50,-19.9516 50,-.9516 0,-.9516"/>
<text text-anchor="middle" x="25" y="-7.9516" font-family="Helvetica,sans-Serif" font-size="10.00" fill="#000000">signal.h</text>
</a>
</g>
</g>
<!-- Node8&#45;&gt;Node11 -->
<g id="edge11" class="edge">
<title>Node8&#45;&gt;Node11</title>
<path fill="none" stroke="#191970" d="M140.9331,-56.8249C118.1572,-47.7145 83.7656,-33.9579 58.351,-23.792"/>
<polygon fill="#191970" stroke="#191970" points="59.3375,-20.4171 48.7528,-19.9528 56.7377,-26.9164 59.3375,-20.4171"/>
</g>
<!-- Node11&#45;&gt;Node11 -->
<g id="edge12" class="edge">
<title>Node11&#45;&gt;Node11</title>
<path fill="none" stroke="#191970" d="M43.5634,-20.0262C55.9465,-22.7213 68,-19.5298 68,-10.4516 68,-3.9267 61.7731,-.4429 53.6726,0"/>
<polygon fill="#191970" stroke="#191970" points="53.2234,3.4743 43.5634,-.877 53.8285,-3.4995 53.2234,3.4743"/>
</g>
<!-- Node13&#45;&gt;Node1 -->
<g id="edge36" class="edge">
<title>Node13&#45;&gt;Node1</title>
<path fill="none" stroke="#191970" d="M240.9793,-280.8249C213.9922,-271.5533 172.9983,-257.4695 143.2689,-247.2557"/>
<polygon fill="#191970" stroke="#191970" points="144.2497,-243.8919 133.6551,-243.9528 141.9752,-250.5121 144.2497,-243.8919"/>
</g>
<!-- Node13&#45;&gt;Node4 -->
<g id="edge37" class="edge">
<title>Node13&#45;&gt;Node4</title>
<path fill="none" stroke="#191970" d="M273.6953,-280.5746C279.4902,-266.798 287.281,-241.5808 276,-224.4516 259.5783,-199.5169 226.5036,-188.0428 201.4493,-182.7969"/>
<polygon fill="#191970" stroke="#191970" points="202.0868,-179.3555 191.6148,-180.9643 200.8044,-186.2371 202.0868,-179.3555"/>
</g>
<!-- Node13&#45;&gt;Node10 -->
<g id="edge16" class="edge">
<title>Node13&#45;&gt;Node10</title>
<path fill="none" stroke="#191970" d="M301.7368,-286.6955C350.7936,-280.4234 440.079,-266.3093 463,-244.4516 485.0905,-223.386 482,-208.9763 482,-178.4516 482,-178.4516 482,-178.4516 482,-122.4516 482,-91.927 485.2659,-77.3318 463,-56.4516 408.5659,-5.4054 371.2847,-38.9912 299,-20.4516 297.9272,-20.1765 296.8372,-19.8906 295.7377,-19.5968"/>
<polygon fill="#191970" stroke="#191970" points="296.3671,-16.1387 285.7941,-16.8178 294.4829,-22.8803 296.3671,-16.1387"/>
</g>
<!-- Node14 -->
<g id="node15" class="node">
<title>Node14</title>
<polygon fill="#ffffff" stroke="#bfbfbf" points="152,-224.9516 152,-243.9516 198,-243.9516 198,-224.9516 152,-224.9516"/>
<text text-anchor="middle" x="175" y="-231.9516" font-family="Helvetica,sans-Serif" font-size="10.00" fill="#000000">cstdint</text>
</g>
<!-- Node13&#45;&gt;Node14 -->
<g id="edge15" class="edge">
<title>Node13&#45;&gt;Node14</title>
<path fill="none" stroke="#191970" d="M252.6264,-280.6972C238.0692,-272.0248 216.569,-259.2161 199.8848,-249.2766"/>
<polygon fill="#191970" stroke="#191970" points="201.5683,-246.2055 191.1859,-244.0943 197.9856,-252.2193 201.5683,-246.2055"/>
</g>
<!-- Node15 -->
<g id="node16" class="node">
<title>Node15</title>
<polygon fill="#ffffff" stroke="#bfbfbf" points="216.5,-224.9516 216.5,-243.9516 267.5,-243.9516 267.5,-224.9516 216.5,-224.9516"/>
<text text-anchor="middle" x="242" y="-231.9516" font-family="Helvetica,sans-Serif" font-size="10.00" fill="#000000">config.h</text>
</g>
<!-- Node13&#45;&gt;Node15 -->
<g id="edge17" class="edge">
<title>Node13&#45;&gt;Node15</title>
<path fill="none" stroke="#191970" d="M264.297,-280.6972C260.6576,-273.149 255.5076,-262.4674 251.0738,-253.2714"/>
<polygon fill="#191970" stroke="#191970" points="254.1449,-251.5819 246.6491,-244.0943 247.8395,-254.6221 254.1449,-251.5819"/>
</g>
<!-- Node16 -->
<g id="node17" class="node">
<title>Node16</title>
<g id="a_node17"><a xlink:href="../../d1/d06/constexpr_8h.xhtml" target="_top" xlink:title="../util/constexpr.h">
<polygon fill="#ffffff" stroke="#000000" points="362,-224.9516 362,-243.9516 454,-243.9516 454,-224.9516 362,-224.9516"/>
<text text-anchor="middle" x="408" y="-231.9516" font-family="Helvetica,sans-Serif" font-size="10.00" fill="#000000">../util/constexpr.h</text>
</a>
</g>
</g>
<!-- Node13&#45;&gt;Node16 -->
<g id="edge18" class="edge">
<title>Node13&#45;&gt;Node16</title>
<path fill="none" stroke="#191970" d="M292.895,-280.8249C315.5082,-271.7145 349.6542,-257.9579 374.8873,-247.792"/>
<polygon fill="#191970" stroke="#191970" points="376.4493,-250.9362 384.4169,-243.9528 373.8334,-244.4433 376.4493,-250.9362"/>
</g>
<!-- Node18 -->
<g id="node19" class="node">
<title>Node18</title>
<g id="a_node19"><a xlink:href="../../de/d65/stringformatter_8h.xhtml" target="_top" xlink:title="../util/stringformatter.h">
<polygon fill="#ffffff" stroke="#000000" points="302.5,-112.9516 302.5,-131.9516 415.5,-131.9516 415.5,-112.9516 302.5,-112.9516"/>
<text text-anchor="middle" x="359" y="-119.9516" font-family="Helvetica,sans-Serif" font-size="10.00" fill="#000000">../util/stringformatter.h</text>
</a>
</g>
</g>
<!-- Node13&#45;&gt;Node18 -->
<g id="edge20" class="edge">
<title>Node13&#45;&gt;Node18</title>
<path fill="none" stroke="#191970" d="M274.0967,-280.9379C288.5083,-254.0361 329.7503,-177.051 348.9461,-141.2189"/>
<polygon fill="#191970" stroke="#191970" points="352.098,-142.7471 353.7351,-132.2795 345.9276,-139.4415 352.098,-142.7471"/>
</g>
<!-- Node17 -->
<g id="node18" class="node">
<title>Node17</title>
<polygon fill="#ffffff" stroke="#bfbfbf" points="385.5,-168.9516 385.5,-187.9516 430.5,-187.9516 430.5,-168.9516 385.5,-168.9516"/>
<text text-anchor="middle" x="408" y="-175.9516" font-family="Helvetica,sans-Serif" font-size="10.00" fill="#000000">cstdlib</text>
</g>
<!-- Node16&#45;&gt;Node17 -->
<g id="edge19" class="edge">
<title>Node16&#45;&gt;Node17</title>
<path fill="none" stroke="#191970" d="M408,-224.6972C408,-217.3899 408,-207.146 408,-198.1562"/>
<polygon fill="#191970" stroke="#191970" points="411.5001,-198.0943 408,-188.0943 404.5001,-198.0943 411.5001,-198.0943"/>
</g>
<!-- Node18&#45;&gt;Node8 -->
<g id="edge24" class="edge">
<title>Node18&#45;&gt;Node8</title>
<path fill="none" stroke="#191970" d="M325.6502,-112.8249C292.6186,-103.29 241.9563,-88.6658 206.376,-78.3952"/>
<polygon fill="#191970" stroke="#191970" points="206.8902,-74.9008 196.3117,-75.4901 204.9488,-81.6262 206.8902,-74.9008"/>
</g>
<!-- Node19 -->
<g id="node20" class="node">
<title>Node19</title>
<polygon fill="#ffffff" stroke="#bfbfbf" points="408,-56.9516 408,-75.9516 454,-75.9516 454,-56.9516 408,-56.9516"/>
<text text-anchor="middle" x="431" y="-63.9516" font-family="Helvetica,sans-Serif" font-size="10.00" fill="#000000">atomic</text>
</g>
<!-- Node18&#45;&gt;Node19 -->
<g id="edge21" class="edge">
<title>Node18&#45;&gt;Node19</title>
<path fill="none" stroke="#191970" d="M371.5414,-112.6972C382.2787,-104.346 397.9473,-92.1593 410.5047,-82.3925"/>
<polygon fill="#191970" stroke="#191970" points="412.8575,-84.9965 418.6023,-76.0943 408.5599,-79.471 412.8575,-84.9965"/>
</g>
<!-- Node20 -->
<g id="node21" class="node">
<title>Node20</title>
<polygon fill="#ffffff" stroke="#bfbfbf" points="653,-.9516 653,-19.9516 705,-19.9516 705,-.9516 653,-.9516"/>
<text text-anchor="middle" x="679" y="-7.9516" font-family="Helvetica,sans-Serif" font-size="10.00" fill="#000000">memory</text>
</g>
<!-- Node18&#45;&gt;Node20 -->
<g id="edge22" class="edge">
<title>Node18&#45;&gt;Node20</title>
<path fill="none" stroke="#191970" d="M415.5427,-115.7261C459.6203,-109.2073 521.7412,-97.182 573,-76.4516 604.8618,-63.5659 637.9136,-41.3277 658.4616,-26.2628"/>
<polygon fill="#191970" stroke="#191970" points="660.7982,-28.8863 666.7181,-20.0996 656.6108,-23.2768 660.7982,-28.8863"/>
</g>
<!-- Node21 -->
<g id="node22" class="node">
<title>Node21</title>
<polygon fill="#ffffff" stroke="#bfbfbf" points="328,-56.9516 328,-75.9516 390,-75.9516 390,-56.9516 328,-56.9516"/>
<text text-anchor="middle" x="359" y="-63.9516" font-family="Helvetica,sans-Serif" font-size="10.00" fill="#000000">type_traits</text>
</g>
<!-- Node18&#45;&gt;Node21 -->
<g id="edge23" class="edge">
<title>Node18&#45;&gt;Node21</title>
<path fill="none" stroke="#191970" d="M359,-112.6972C359,-105.3899 359,-95.146 359,-86.1562"/>
<polygon fill="#191970" stroke="#191970" points="362.5001,-86.0943 359,-76.0943 355.5001,-86.0943 362.5001,-86.0943"/>
</g>
<!-- Node22 -->
<g id="node23" class="node">
<title>Node22</title>
<g id="a_node23"><a xlink:href="../../dc/dcf/externalsstream_8h.xhtml" target="_top" xlink:title="externalsstream.h">
<polygon fill="#ffffff" stroke="#000000" points="214.5,-56.9516 214.5,-75.9516 309.5,-75.9516 309.5,-56.9516 214.5,-56.9516"/>
<text text-anchor="middle" x="262" y="-63.9516" font-family="Helvetica,sans-Serif" font-size="10.00" fill="#000000">externalsstream.h</text>
</a>
</g>
</g>
<!-- Node18&#45;&gt;Node22 -->
<g id="edge25" class="edge">
<title>Node18&#45;&gt;Node22</title>
<path fill="none" stroke="#191970" d="M342.1039,-112.6972C327.082,-104.0248 304.8957,-91.2161 287.679,-81.2766"/>
<polygon fill="#191970" stroke="#191970" points="289.1128,-78.063 278.7025,-76.0943 285.6129,-84.1253 289.1128,-78.063"/>
</g>
<!-- Node23 -->
<g id="node24" class="node">
<title>Node23</title>
<g id="a_node24"><a xlink:href="../../d6/d90/strings_8h.xhtml" target="_top" xlink:title="strings.h">
<polygon fill="#ffffff" stroke="#000000" points="510,-56.9516 510,-75.9516 564,-75.9516 564,-56.9516 510,-56.9516"/>
<text text-anchor="middle" x="537" y="-63.9516" font-family="Helvetica,sans-Serif" font-size="10.00" fill="#000000">strings.h</text>
</a>
</g>
</g>
<!-- Node18&#45;&gt;Node23 -->
<g id="edge28" class="edge">
<title>Node18&#45;&gt;Node23</title>
<path fill="none" stroke="#191970" d="M389.5993,-112.8249C420.317,-103.1609 467.6525,-88.2688 500.355,-77.9804"/>
<polygon fill="#191970" stroke="#191970" points="501.511,-81.2859 509.9996,-74.9461 499.4102,-74.6086 501.511,-81.2859"/>
</g>
<!-- Node22&#45;&gt;Node6 -->
<g id="edge26" class="edge">
<title>Node22&#45;&gt;Node6</title>
<path fill="none" stroke="#191970" d="M236.386,-56.8249C211.9313,-47.6339 174.8946,-33.714 147.7791,-23.523"/>
<polygon fill="#191970" stroke="#191970" points="148.8719,-20.1947 138.2798,-19.9528 146.4091,-26.7472 148.8719,-20.1947"/>
</g>
<!-- Node22&#45;&gt;Node10 -->
<g id="edge27" class="edge">
<title>Node22&#45;&gt;Node10</title>
<path fill="none" stroke="#191970" d="M262.5226,-56.6972C262.914,-49.3899 263.4628,-39.146 263.9444,-30.1562"/>
<polygon fill="#191970" stroke="#191970" points="267.4434,-30.2673 264.4834,-20.0943 260.4534,-29.8927 267.4434,-30.2673"/>
</g>
<!-- Node23&#45;&gt;Node10 -->
<g id="edge34" class="edge">
<title>Node23&#45;&gt;Node10</title>
<path fill="none" stroke="#191970" d="M509.7039,-59.5585C505.1384,-58.4733 500.4428,-57.3985 496,-56.4516 408.9497,-37.8985 385.5922,-41.0373 299,-20.4516 297.9225,-20.1955 296.8285,-19.9259 295.7255,-19.6461"/>
<polygon fill="#191970" stroke="#191970" points="296.3331,-16.1842 285.765,-16.9356 294.4951,-22.9386 296.3331,-16.1842"/>
</g>
<!-- Node23&#45;&gt;Node20 -->
<g id="edge32" class="edge">
<title>Node23&#45;&gt;Node20</title>
<path fill="none" stroke="#191970" d="M561.4107,-56.8249C584.6142,-47.6742 619.7038,-33.836 645.5142,-23.6573"/>
<polygon fill="#191970" stroke="#191970" points="646.8892,-26.8775 654.9079,-19.9528 644.3211,-20.3655 646.8892,-26.8775"/>
</g>
<!-- Node24 -->
<g id="node25" class="node">
<title>Node24</title>
<polygon fill="#ffffff" stroke="#bfbfbf" points="440.5,-.9516 440.5,-19.9516 489.5,-19.9516 489.5,-.9516 440.5,-.9516"/>
<text text-anchor="middle" x="465" y="-7.9516" font-family="Helvetica,sans-Serif" font-size="10.00" fill="#000000">cstdarg</text>
</g>
<!-- Node23&#45;&gt;Node24 -->
<g id="edge29" class="edge">
<title>Node23&#45;&gt;Node24</title>
<path fill="none" stroke="#191970" d="M524.4586,-56.6972C513.7213,-48.346 498.0527,-36.1593 485.4953,-26.3925"/>
<polygon fill="#191970" stroke="#191970" points="487.4401,-23.471 477.3977,-20.0943 483.1425,-28.9965 487.4401,-23.471"/>
</g>
<!-- Node25 -->
<g id="node26" class="node">
<title>Node25</title>
<polygon fill="#ffffff" stroke="#bfbfbf" points="507.5,-.9516 507.5,-19.9516 566.5,-19.9516 566.5,-.9516 507.5,-.9516"/>
<text text-anchor="middle" x="537" y="-7.9516" font-family="Helvetica,sans-Serif" font-size="10.00" fill="#000000">functional</text>
</g>
<!-- Node23&#45;&gt;Node25 -->
<g id="edge30" class="edge">
<title>Node23&#45;&gt;Node25</title>
<path fill="none" stroke="#191970" d="M537,-56.6972C537,-49.3899 537,-39.146 537,-30.1562"/>
<polygon fill="#191970" stroke="#191970" points="540.5001,-30.0943 537,-20.0943 533.5001,-30.0943 540.5001,-30.0943"/>
</g>
<!-- Node26 -->
<g id="node27" class="node">
<title>Node26</title>
<polygon fill="#ffffff" stroke="#bfbfbf" points="585,-.9516 585,-19.9516 635,-19.9516 635,-.9516 585,-.9516"/>
<text text-anchor="middle" x="610" y="-7.9516" font-family="Helvetica,sans-Serif" font-size="10.00" fill="#000000">iomanip</text>
</g>
<!-- Node23&#45;&gt;Node26 -->
<g id="edge31" class="edge">
<title>Node23&#45;&gt;Node26</title>
<path fill="none" stroke="#191970" d="M549.7156,-56.6972C560.602,-48.346 576.4883,-36.1593 589.22,-26.3925"/>
<polygon fill="#191970" stroke="#191970" points="591.6261,-28.958 597.4301,-20.0943 587.3654,-23.4039 591.6261,-28.958"/>
</g>
<!-- Node27 -->
<g id="node28" class="node">
<title>Node27</title>
<polygon fill="#ffffff" stroke="#bfbfbf" points="308,-.9516 308,-19.9516 360,-19.9516 360,-.9516 308,-.9516"/>
<text text-anchor="middle" x="334" y="-7.9516" font-family="Helvetica,sans-Serif" font-size="10.00" fill="#000000">sstream</text>
</g>
<!-- Node23&#45;&gt;Node27 -->
<g id="edge33" class="edge">
<title>Node23&#45;&gt;Node27</title>
<path fill="none" stroke="#191970" d="M509.9143,-59.1341C478.5697,-50.6444 425.1479,-36.1095 370.2621,-20.7856"/>
<polygon fill="#191970" stroke="#191970" points="370.9376,-17.3403 360.3645,-18.018 369.0525,-24.0817 370.9376,-17.3403"/>
</g>
<!-- Node28 -->
<g id="node29" class="node">
<title>Node28</title>
<polygon fill="#ffffff" stroke="#bfbfbf" points="378,-.9516 378,-19.9516 422,-19.9516 422,-.9516 378,-.9516"/>
<text text-anchor="middle" x="400" y="-7.9516" font-family="Helvetica,sans-Serif" font-size="10.00" fill="#000000">vector</text>
</g>
<!-- Node23&#45;&gt;Node28 -->
<g id="edge35" class="edge">
<title>Node23&#45;&gt;Node28</title>
<path fill="none" stroke="#191970" d="M513.4489,-56.8249C490.8908,-47.6041 456.6888,-33.6237 431.7358,-23.4239"/>
<polygon fill="#191970" stroke="#191970" points="432.9175,-20.1259 422.3366,-19.5819 430.2689,-26.6055 432.9175,-20.1259"/>
</g>
</g>
</svg>
