<?xml version="1.0" encoding="UTF-8" standalone="no"?>
<!DOCTYPE svg PUBLIC "-//W3C//DTD SVG 1.1//EN"
 "http://www.w3.org/Graphics/SVG/1.1/DTD/svg11.dtd">
<!-- Generated by graphviz version 2.40.1 (20161225.0304)
 -->
<!-- Title: openage::console::Buf::chrdataptr Pages: 1 -->
<svg width="1071pt" height="348pt"
 viewBox="0.00 0.00 1071.00 347.82" xmlns="http://www.w3.org/2000/svg" xmlns:xlink="http://www.w3.org/1999/xlink">
<g id="graph0" class="graph" transform="scale(1 1) rotate(0) translate(4 343.8204)">
<title>openage::console::Buf::chrdataptr</title>
<polygon fill="#ffffff" stroke="transparent" points="-4,4 -4,-343.8204 1067,-343.8204 1067,4 -4,4"/>
<!-- Node41 -->
<g id="node1" class="node">
<title>Node41</title>
<polygon fill="#bfbfbf" stroke="#000000" points="0,-171.5 0,-201.5 114,-201.5 114,-171.5 0,-171.5"/>
<text text-anchor="start" x="8" y="-189.5" font-family="Helvetica,sans-Serif" font-size="10.00" fill="#000000">openage::console::Buf</text>
<text text-anchor="middle" x="57" y="-178.5" font-family="Helvetica,sans-Serif" font-size="10.00" fill="#000000">::chrdataptr</text>
</g>
<!-- Node42 -->
<g id="node2" class="node">
<title>Node42</title>
<g id="a_node2"><a xlink:href="../../d9/db3/classopenage_1_1console_1_1_buf.xhtml#af6b49e0178333e01a08fd61ca2006219" target="_top" xlink:title="clears the screen character and line buffers. ">
<polygon fill="#ffffff" stroke="#000000" points="153,-245.5 153,-275.5 267,-275.5 267,-245.5 153,-245.5"/>
<text text-anchor="start" x="161" y="-263.5" font-family="Helvetica,sans-Serif" font-size="10.00" fill="#000000">openage::console::Buf</text>
<text text-anchor="middle" x="210" y="-252.5" font-family="Helvetica,sans-Serif" font-size="10.00" fill="#000000">::clear</text>
</a>
</g>
</g>
<!-- Node41&#45;&gt;Node42 -->
<g id="edge1" class="edge">
<title>Node41&#45;&gt;Node42</title>
<path fill="none" stroke="#191970" d="M92.1681,-206.6195C109.3699,-216.1469 130.5202,-227.4029 150,-236.5 156.5058,-239.5382 163.5086,-242.5573 170.3535,-245.377"/>
<polygon fill="#191970" stroke="#191970" points="93.4907,-203.3494 83.0535,-201.5291 90.0775,-209.4609 93.4907,-203.3494"/>
</g>
<!-- Node49 -->
<g id="node9" class="node">
<title>Node49</title>
<g id="a_node9"><a xlink:href="../../d9/db3/classopenage_1_1console_1_1_buf.xhtml#ab2dd3bbdbc82ae2a4276a433b40aac91" target="_top" xlink:title="prints one unicode codepoint interally called by process_codepoint(int cp) after sorting out escape s...">
<polygon fill="#ffffff" stroke="#000000" points="487.5,-291.5 487.5,-321.5 601.5,-321.5 601.5,-291.5 487.5,-291.5"/>
<text text-anchor="start" x="495.5" y="-309.5" font-family="Helvetica,sans-Serif" font-size="10.00" fill="#000000">openage::console::Buf</text>
<text text-anchor="middle" x="544.5" y="-298.5" font-family="Helvetica,sans-Serif" font-size="10.00" fill="#000000">::print_codepoint</text>
</a>
</g>
</g>
<!-- Node41&#45;&gt;Node49 -->
<g id="edge15" class="edge">
<title>Node41&#45;&gt;Node49</title>
<path fill="none" stroke="#191970" d="M73.1639,-210.0263C89.8714,-232.6003 117.971,-266.0486 150,-285.5 261.801,-353.3974 310.9776,-343.7728 441,-329.5 456.1866,-327.8329 472.4054,-324.8291 487.3906,-321.5306"/>
<polygon fill="#191970" stroke="#191970" points="75.8217,-207.7283 67.1301,-201.6696 70.1464,-211.826 75.8217,-207.7283"/>
</g>
<!-- Node51 -->
<g id="node11" class="node">
<title>Node51</title>
<g id="a_node11"><a xlink:href="../../d9/db3/classopenage_1_1console_1_1_buf.xhtml#a698e2cce3ee2d13637bc55da38232a95" target="_top" xlink:title="Pop the last char of the current line. ">
<polygon fill="#ffffff" stroke="#000000" points="153,-196.5 153,-226.5 267,-226.5 267,-196.5 153,-196.5"/>
<text text-anchor="start" x="161" y="-214.5" font-family="Helvetica,sans-Serif" font-size="10.00" fill="#000000">openage::console::Buf</text>
<text text-anchor="middle" x="210" y="-203.5" font-family="Helvetica,sans-Serif" font-size="10.00" fill="#000000">::pop_last_char</text>
</a>
</g>
</g>
<!-- Node41&#45;&gt;Node51 -->
<g id="edge13" class="edge">
<title>Node41&#45;&gt;Node51</title>
<path fill="none" stroke="#191970" d="M124.5346,-197.5351C133.9601,-199.0752 143.5696,-200.6454 152.7803,-202.1504"/>
<polygon fill="#191970" stroke="#191970" points="124.8404,-194.0387 114.4069,-195.8802 123.7115,-200.9471 124.8404,-194.0387"/>
</g>
<!-- Node53 -->
<g id="node13" class="node">
<title>Node53</title>
<g id="a_node13"><a xlink:href="../../d9/db3/classopenage_1_1console_1_1_buf.xhtml#a7060ca85ba5a820b0c8e55870a9919c8" target="_top" xlink:title="resizes the screen buffer ">
<polygon fill="#ffffff" stroke="#000000" points="153,-147.5 153,-177.5 267,-177.5 267,-147.5 153,-147.5"/>
<text text-anchor="start" x="161" y="-165.5" font-family="Helvetica,sans-Serif" font-size="10.00" fill="#000000">openage::console::Buf</text>
<text text-anchor="middle" x="210" y="-154.5" font-family="Helvetica,sans-Serif" font-size="10.00" fill="#000000">::resize</text>
</a>
</g>
</g>
<!-- Node41&#45;&gt;Node53 -->
<g id="edge16" class="edge">
<title>Node41&#45;&gt;Node53</title>
<path fill="none" stroke="#191970" d="M124.5346,-175.9063C133.9601,-174.4278 143.5696,-172.9205 152.7803,-171.4756"/>
<polygon fill="#191970" stroke="#191970" points="123.7436,-172.4875 114.4069,-177.495 124.8285,-179.403 123.7436,-172.4875"/>
</g>
<!-- Node54 -->
<g id="node14" class="node">
<title>Node54</title>
<g id="a_node14"><a xlink:href="../../dc/d43/namespaceopenage_1_1console_1_1draw.xhtml#ad603edf799bbe6017b89fd25a6ed4512" target="_top" xlink:title="experimental and totally inefficient opengl draw of a terminal buffer. ">
<polygon fill="#ffffff" stroke="#000000" points="150,-98.5 150,-128.5 270,-128.5 270,-98.5 150,-98.5"/>
<text text-anchor="start" x="158" y="-116.5" font-family="Helvetica,sans-Serif" font-size="10.00" fill="#000000">openage::console::draw</text>
<text text-anchor="middle" x="210" y="-105.5" font-family="Helvetica,sans-Serif" font-size="10.00" fill="#000000">::to_opengl</text>
</a>
</g>
</g>
<!-- Node41&#45;&gt;Node54 -->
<g id="edge17" class="edge">
<title>Node41&#45;&gt;Node54</title>
<path fill="none" stroke="#191970" d="M93.8069,-166.6241C110.7588,-157.6979 131.2367,-147.2334 150,-138.5 157.2639,-135.119 165.1137,-131.6904 172.6658,-128.5007"/>
<polygon fill="#191970" stroke="#191970" points="91.9829,-163.6295 84.7852,-171.404 95.2602,-169.8149 91.9829,-163.6295"/>
</g>
<!-- Node56 -->
<g id="node16" class="node">
<title>Node56</title>
<g id="a_node16"><a xlink:href="../../dc/d43/namespaceopenage_1_1console_1_1draw.xhtml#ab9e51a5e1f100773a19da09a4f9d1597" target="_top" xlink:title="very early and inefficient printing of the console to a pty. ">
<polygon fill="#ffffff" stroke="#000000" points="150,-49.5 150,-79.5 270,-79.5 270,-49.5 150,-49.5"/>
<text text-anchor="start" x="158" y="-67.5" font-family="Helvetica,sans-Serif" font-size="10.00" fill="#000000">openage::console::draw</text>
<text text-anchor="middle" x="210" y="-56.5" font-family="Helvetica,sans-Serif" font-size="10.00" fill="#000000">::to_terminal</text>
</a>
</g>
</g>
<!-- Node41&#45;&gt;Node56 -->
<g id="edge19" class="edge">
<title>Node41&#45;&gt;Node56</title>
<path fill="none" stroke="#191970" d="M74.6557,-163.1822C91.9161,-141.6932 119.9254,-110.1025 150,-89.5 155.3996,-85.801 161.4324,-82.4948 167.5342,-79.5934"/>
<polygon fill="#191970" stroke="#191970" points="71.8119,-161.1361 68.3706,-171.1565 77.3096,-165.4692 71.8119,-161.1361"/>
</g>
<!-- Node43 -->
<g id="node3" class="node">
<title>Node43</title>
<g id="a_node3"><a xlink:href="../../d9/db3/classopenage_1_1console_1_1_buf.xhtml#a23267e4cb18a2921f14406e6307cbb95" target="_top" xlink:title="resets the buffer to its constructor defaults ">
<polygon fill="#ffffff" stroke="#000000" points="316.5,-201.5 316.5,-231.5 430.5,-231.5 430.5,-201.5 316.5,-201.5"/>
<text text-anchor="start" x="324.5" y="-219.5" font-family="Helvetica,sans-Serif" font-size="10.00" fill="#000000">openage::console::Buf</text>
<text text-anchor="middle" x="373.5" y="-208.5" font-family="Helvetica,sans-Serif" font-size="10.00" fill="#000000">::reset</text>
</a>
</g>
</g>
<!-- Node42&#45;&gt;Node43 -->
<g id="edge2" class="edge">
<title>Node42&#45;&gt;Node43</title>
<path fill="none" stroke="#191970" d="M275.7824,-242.7971C289.666,-239.0608 304.1888,-235.1525 317.664,-231.5262"/>
<polygon fill="#191970" stroke="#191970" points="274.557,-239.5023 265.8101,-245.4808 276.3761,-246.2618 274.557,-239.5023"/>
</g>
<!-- Node48 -->
<g id="node8" class="node">
<title>Node48</title>
<g id="a_node8"><a xlink:href="../../d9/db3/classopenage_1_1console_1_1_buf.xhtml#a752e54412ebbb08b3d8ac0edc90891ee" target="_top" xlink:title="advances the buffer by the specified number of lines. ">
<polygon fill="#ffffff" stroke="#000000" points="316.5,-289.5 316.5,-319.5 430.5,-319.5 430.5,-289.5 316.5,-289.5"/>
<text text-anchor="start" x="324.5" y="-307.5" font-family="Helvetica,sans-Serif" font-size="10.00" fill="#000000">openage::console::Buf</text>
<text text-anchor="middle" x="373.5" y="-296.5" font-family="Helvetica,sans-Serif" font-size="10.00" fill="#000000">::advance</text>
</a>
</g>
</g>
<!-- Node42&#45;&gt;Node48 -->
<g id="edge7" class="edge">
<title>Node42&#45;&gt;Node48</title>
<path fill="none" stroke="#191970" d="M275.7824,-278.2029C289.666,-281.9392 304.1888,-285.8475 317.664,-289.4738"/>
<polygon fill="#191970" stroke="#191970" points="276.3761,-274.7382 265.8101,-275.5192 274.557,-281.4977 276.3761,-274.7382"/>
</g>
<!-- Node50 -->
<g id="node10" class="node">
<title>Node50</title>
<g id="a_node10"><a xlink:href="../../d9/db3/classopenage_1_1console_1_1_buf.xhtml#a83a7e7db654360cff1c6796b169efc22" target="_top" xlink:title="processes the CSI escape sequence currently stored in escape_sequence. ">
<polygon fill="#ffffff" stroke="#000000" points="648.5,-238 648.5,-279 762.5,-279 762.5,-238 648.5,-238"/>
<text text-anchor="start" x="656.5" y="-267" font-family="Helvetica,sans-Serif" font-size="10.00" fill="#000000">openage::console::Buf</text>
<text text-anchor="start" x="656.5" y="-256" font-family="Helvetica,sans-Serif" font-size="10.00" fill="#000000">::process_csi_escape</text>
<text text-anchor="middle" x="705.5" y="-245" font-family="Helvetica,sans-Serif" font-size="10.00" fill="#000000">_sequence</text>
</a>
</g>
</g>
<!-- Node42&#45;&gt;Node50 -->
<g id="edge12" class="edge">
<title>Node42&#45;&gt;Node50</title>
<path fill="none" stroke="#191970" d="M277.4316,-260.2278C375.623,-259.8315 556.2533,-259.1024 648.3097,-258.7308"/>
<polygon fill="#191970" stroke="#191970" points="277.31,-256.7282 267.3242,-260.2686 277.3383,-263.7281 277.31,-256.7282"/>
</g>
<!-- Node44 -->
<g id="node4" class="node">
<title>Node44</title>
<g id="a_node4"><a xlink:href="../../d9/db3/classopenage_1_1console_1_1_buf.xhtml#a51a780e9a4df80cdb56f8d94186d527e" target="_top" xlink:title="openage::console::Buf::Buf">
<polygon fill="#ffffff" stroke="#000000" points="477,-213 477,-232 612,-232 612,-213 477,-213"/>
<text text-anchor="middle" x="544.5" y="-220" font-family="Helvetica,sans-Serif" font-size="10.00" fill="#000000">openage::console::Buf::Buf</text>
</a>
</g>
</g>
<!-- Node43&#45;&gt;Node44 -->
<g id="edge3" class="edge">
<title>Node43&#45;&gt;Node44</title>
<path fill="none" stroke="#191970" d="M441.1096,-218.8723C452.8745,-219.2851 465.1126,-219.7145 476.8779,-220.1273"/>
<polygon fill="#191970" stroke="#191970" points="441.0328,-215.3675 430.9162,-218.5146 440.7873,-222.3632 441.0328,-215.3675"/>
</g>
<!-- Node45 -->
<g id="node5" class="node">
<title>Node45</title>
<g id="a_node5"><a xlink:href="../../d9/db3/classopenage_1_1console_1_1_buf.xhtml#a809f4a27cd3bf92c2458a5b3176fae43" target="_top" xlink:title="processes a single&#45;codepoint escape sequence. ">
<polygon fill="#ffffff" stroke="#000000" points="648,-179.5 648,-209.5 763,-209.5 763,-179.5 648,-179.5"/>
<text text-anchor="start" x="656" y="-197.5" font-family="Helvetica,sans-Serif" font-size="10.00" fill="#000000">openage::console::Buf</text>
<text text-anchor="middle" x="705.5" y="-186.5" font-family="Helvetica,sans-Serif" font-size="10.00" fill="#000000">::process_escaped_cp</text>
</a>
</g>
</g>
<!-- Node43&#45;&gt;Node45 -->
<g id="edge4" class="edge">
<title>Node43&#45;&gt;Node45</title>
<path fill="none" stroke="#191970" d="M440.649,-207.2173C452.7318,-205.7891 465.2259,-204.4695 477,-203.5 534.9656,-198.7269 601.4188,-196.4694 647.6622,-195.4114"/>
<polygon fill="#191970" stroke="#191970" points="440.1252,-203.7551 430.6211,-208.4373 440.9707,-210.7039 440.1252,-203.7551"/>
</g>
<!-- Node46 -->
<g id="node6" class="node">
<title>Node46</title>
<g id="a_node6"><a xlink:href="../../d9/db3/classopenage_1_1console_1_1_buf.xhtml#adcdc21533ab920bd72f92f27333716bf" target="_top" xlink:title="processes one unicode codepoint internally called by write(char) after feeding the char into streamde...">
<polygon fill="#ffffff" stroke="#000000" points="799,-243.5 799,-273.5 913,-273.5 913,-243.5 799,-243.5"/>
<text text-anchor="start" x="807" y="-261.5" font-family="Helvetica,sans-Serif" font-size="10.00" fill="#000000">openage::console::Buf</text>
<text text-anchor="middle" x="856" y="-250.5" font-family="Helvetica,sans-Serif" font-size="10.00" fill="#000000">::process_codepoint</text>
</a>
</g>
</g>
<!-- Node45&#45;&gt;Node46 -->
<g id="edge5" class="edge">
<title>Node45&#45;&gt;Node46</title>
<path fill="none" stroke="#191970" d="M750.1405,-213.4833C772.669,-223.0636 799.6099,-234.5201 820.6751,-243.4781"/>
<polygon fill="#191970" stroke="#191970" points="751.3577,-210.1977 740.7856,-209.5052 748.6184,-216.6394 751.3577,-210.1977"/>
</g>
<!-- Node47 -->
<g id="node7" class="node">
<title>Node47</title>
<g id="a_node7"><a xlink:href="../../d9/db3/classopenage_1_1console_1_1_buf.xhtml#a7f70c41ed91a5283fd2dd337b7493eaa" target="_top" xlink:title="write a single byte to the buffer. ">
<polygon fill="#ffffff" stroke="#000000" points="949,-243.5 949,-273.5 1063,-273.5 1063,-243.5 949,-243.5"/>
<text text-anchor="start" x="957" y="-261.5" font-family="Helvetica,sans-Serif" font-size="10.00" fill="#000000">openage::console::Buf</text>
<text text-anchor="middle" x="1006" y="-250.5" font-family="Helvetica,sans-Serif" font-size="10.00" fill="#000000">::write</text>
</a>
</g>
</g>
<!-- Node46&#45;&gt;Node47 -->
<g id="edge6" class="edge">
<title>Node46&#45;&gt;Node47</title>
<path fill="none" stroke="#191970" d="M923.3106,-258.5C931.7284,-258.5 940.2768,-258.5 948.5255,-258.5"/>
<polygon fill="#191970" stroke="#191970" points="923.1365,-255.0001 913.1365,-258.5 923.1364,-262.0001 923.1365,-255.0001"/>
</g>
<!-- Node48&#45;&gt;Node49 -->
<g id="edge8" class="edge">
<title>Node48&#45;&gt;Node49</title>
<path fill="none" stroke="#191970" d="M441.2972,-305.293C456.5087,-305.4709 472.502,-305.6579 487.2353,-305.8302"/>
<polygon fill="#191970" stroke="#191970" points="440.9565,-301.7888 430.9162,-305.1715 440.8746,-308.7883 440.9565,-301.7888"/>
</g>
<!-- Node49&#45;&gt;Node46 -->
<g id="edge9" class="edge">
<title>Node49&#45;&gt;Node46</title>
<path fill="none" stroke="#191970" d="M611.7645,-304.9486C655.2577,-302.9682 712.895,-298.5066 763,-288.5 780.8011,-284.9449 799.9685,-279.1207 816.2503,-273.5453"/>
<polygon fill="#191970" stroke="#191970" points="611.4313,-301.4595 601.588,-305.3787 611.7269,-308.4533 611.4313,-301.4595"/>
</g>
<!-- Node49&#45;&gt;Node50 -->
<g id="edge10" class="edge">
<title>Node49&#45;&gt;Node50</title>
<path fill="none" stroke="#191970" d="M604.7389,-288.5406C619.0527,-284.2731 634.2806,-279.7331 648.4471,-275.5096"/>
<polygon fill="#191970" stroke="#191970" points="603.5828,-285.2329 594.9997,-291.4442 605.5828,-291.9411 603.5828,-285.2329"/>
</g>
<!-- Node50&#45;&gt;Node46 -->
<g id="edge11" class="edge">
<title>Node50&#45;&gt;Node46</title>
<path fill="none" stroke="#191970" d="M772.8998,-258.5C781.5589,-258.5 790.3583,-258.5 798.8325,-258.5"/>
<polygon fill="#191970" stroke="#191970" points="772.827,-255.0001 762.8269,-258.5 772.8269,-262.0001 772.827,-255.0001"/>
</g>
<!-- Node52 -->
<g id="node12" class="node">
<title>Node52</title>
<g id="a_node12"><a xlink:href="../../d7/d6d/classopenage_1_1console_1_1_console.xhtml#ab5e30408417ac212bd3f35e50edd3a82" target="_top" xlink:title="register this console to the engine. ">
<polygon fill="#ffffff" stroke="#000000" points="306,-152.5 306,-182.5 441,-182.5 441,-152.5 306,-152.5"/>
<text text-anchor="start" x="314" y="-170.5" font-family="Helvetica,sans-Serif" font-size="10.00" fill="#000000">openage::console::Console</text>
<text text-anchor="middle" x="373.5" y="-159.5" font-family="Helvetica,sans-Serif" font-size="10.00" fill="#000000">::register_to_engine</text>
</a>
</g>
</g>
<!-- Node51&#45;&gt;Node52 -->
<g id="edge14" class="edge">
<title>Node51&#45;&gt;Node52</title>
<path fill="none" stroke="#191970" d="M275.7824,-193.7971C289.666,-190.0608 304.1888,-186.1525 317.664,-182.5262"/>
<polygon fill="#191970" stroke="#191970" points="274.557,-190.5023 265.8101,-196.4808 276.3761,-197.2618 274.557,-190.5023"/>
</g>
<!-- Node55 -->
<g id="node15" class="node">
<title>Node55</title>
<g id="a_node15"><a xlink:href="../../d7/d6d/classopenage_1_1console_1_1_console.xhtml#a1ce3c30cdc768559e11fc548cbcbddd8" target="_top" xlink:title="execute the drawing action. ">
<polygon fill="#ffffff" stroke="#000000" points="306,-98.5 306,-128.5 441,-128.5 441,-98.5 306,-98.5"/>
<text text-anchor="start" x="314" y="-116.5" font-family="Helvetica,sans-Serif" font-size="10.00" fill="#000000">openage::console::Console</text>
<text text-anchor="middle" x="373.5" y="-105.5" font-family="Helvetica,sans-Serif" font-size="10.00" fill="#000000">::on_drawhud</text>
</a>
</g>
</g>
<!-- Node54&#45;&gt;Node55 -->
<g id="edge18" class="edge">
<title>Node54&#45;&gt;Node55</title>
<path fill="none" stroke="#191970" d="M280.564,-113.5C288.9683,-113.5 297.5333,-113.5 305.8947,-113.5"/>
<polygon fill="#191970" stroke="#191970" points="280.4169,-110.0001 270.4168,-113.5 280.4168,-117.0001 280.4169,-110.0001"/>
</g>
<!-- Node57 -->
<g id="node17" class="node">
<title>Node57</title>
<g id="a_node17"><a xlink:href="../../de/d06/namespaceopenage_1_1console_1_1tests.xhtml#a15c3b269411a779e1ae9af60a3b6fedf" target="_top" xlink:title="openage::console::tests\l::render">
<polygon fill="#ffffff" stroke="#000000" points="313,-49.5 313,-79.5 434,-79.5 434,-49.5 313,-49.5"/>
<text text-anchor="start" x="321" y="-67.5" font-family="Helvetica,sans-Serif" font-size="10.00" fill="#000000">openage::console::tests</text>
<text text-anchor="middle" x="373.5" y="-56.5" font-family="Helvetica,sans-Serif" font-size="10.00" fill="#000000">::render</text>
</a>
</g>
</g>
<!-- Node56&#45;&gt;Node57 -->
<g id="edge20" class="edge">
<title>Node56&#45;&gt;Node57</title>
<path fill="none" stroke="#191970" d="M280.5923,-64.5C291.3147,-64.5 302.298,-64.5 312.7856,-64.5"/>
<polygon fill="#191970" stroke="#191970" points="280.4169,-61.0001 270.4168,-64.5 280.4168,-68.0001 280.4169,-61.0001"/>
</g>
<!-- Node58 -->
<g id="node18" class="node">
<title>Node58</title>
<g id="a_node18"><a xlink:href="../../de/d06/namespaceopenage_1_1console_1_1tests.xhtml#a4a108e620e3fead2c08ff14841552186" target="_top" xlink:title="openage::console::tests\l::interactive">
<polygon fill="#ffffff" stroke="#000000" points="313,-.5 313,-30.5 434,-30.5 434,-.5 313,-.5"/>
<text text-anchor="start" x="321" y="-18.5" font-family="Helvetica,sans-Serif" font-size="10.00" fill="#000000">openage::console::tests</text>
<text text-anchor="middle" x="373.5" y="-7.5" font-family="Helvetica,sans-Serif" font-size="10.00" fill="#000000">::interactive</text>
</a>
</g>
</g>
<!-- Node56&#45;&gt;Node58 -->
<g id="edge21" class="edge">
<title>Node56&#45;&gt;Node58</title>
<path fill="none" stroke="#191970" d="M270.438,-46.3871C287.82,-41.1778 306.584,-35.5543 323.2769,-30.5516"/>
<polygon fill="#191970" stroke="#191970" points="268.9638,-43.175 260.3895,-49.3986 270.9734,-49.8804 268.9638,-43.175"/>
</g>
</g>
</svg>
