<?xml version="1.0" encoding="UTF-8" standalone="no"?>
<!DOCTYPE svg PUBLIC "-//W3C//DTD SVG 1.1//EN"
 "http://www.w3.org/Graphics/SVG/1.1/DTD/svg11.dtd">
<!-- Generated by graphviz version 2.40.1 (20161225.0304)
 -->
<!-- Title: openage::console::Buf::process_sgr_code Pages: 1 -->
<svg width="572pt" height="50pt"
 viewBox="0.00 0.00 572.00 50.00" xmlns="http://www.w3.org/2000/svg" xmlns:xlink="http://www.w3.org/1999/xlink">
<g id="graph0" class="graph" transform="scale(1 1) rotate(0) translate(4 46)">
<title>openage::console::Buf::process_sgr_code</title>
<polygon fill="#ffffff" stroke="transparent" points="-4,4 -4,-46 568,-46 568,4 -4,4"/>
<!-- Node194 -->
<g id="node1" class="node">
<title>Node194</title>
<polygon fill="#bfbfbf" stroke="#000000" points="0,-6 0,-36 114,-36 114,-6 0,-6"/>
<text text-anchor="start" x="8" y="-24" font-family="Helvetica,sans-Serif" font-size="10.00" fill="#000000">openage::console::Buf</text>
<text text-anchor="middle" x="57" y="-13" font-family="Helvetica,sans-Serif" font-size="10.00" fill="#000000">::process_sgr_code</text>
</g>
<!-- Node195 -->
<g id="node2" class="node">
<title>Node195</title>
<g id="a_node2"><a xlink:href="../../d9/db3/classopenage_1_1console_1_1_buf.xhtml#a83a7e7db654360cff1c6796b169efc22" target="_top" xlink:title="processes the CSI escape sequence currently stored in escape_sequence. ">
<polygon fill="#ffffff" stroke="#000000" points="150,-.5 150,-41.5 264,-41.5 264,-.5 150,-.5"/>
<text text-anchor="start" x="158" y="-29.5" font-family="Helvetica,sans-Serif" font-size="10.00" fill="#000000">openage::console::Buf</text>
<text text-anchor="start" x="158" y="-18.5" font-family="Helvetica,sans-Serif" font-size="10.00" fill="#000000">::process_csi_escape</text>
<text text-anchor="middle" x="207" y="-7.5" font-family="Helvetica,sans-Serif" font-size="10.00" fill="#000000">_sequence</text>
</a>
</g>
</g>
<!-- Node194&#45;&gt;Node195 -->
<g id="edge1" class="edge">
<title>Node194&#45;&gt;Node195</title>
<path fill="none" stroke="#191970" d="M124.3106,-21C132.7284,-21 141.2768,-21 149.5255,-21"/>
<polygon fill="#191970" stroke="#191970" points="124.1365,-17.5001 114.1365,-21 124.1364,-24.5001 124.1365,-17.5001"/>
</g>
<!-- Node196 -->
<g id="node3" class="node">
<title>Node196</title>
<g id="a_node3"><a xlink:href="../../d9/db3/classopenage_1_1console_1_1_buf.xhtml#adcdc21533ab920bd72f92f27333716bf" target="_top" xlink:title="processes one unicode codepoint internally called by write(char) after feeding the char into streamde...">
<polygon fill="#ffffff" stroke="#000000" points="300,-6 300,-36 414,-36 414,-6 300,-6"/>
<text text-anchor="start" x="308" y="-24" font-family="Helvetica,sans-Serif" font-size="10.00" fill="#000000">openage::console::Buf</text>
<text text-anchor="middle" x="357" y="-13" font-family="Helvetica,sans-Serif" font-size="10.00" fill="#000000">::process_codepoint</text>
</a>
</g>
</g>
<!-- Node195&#45;&gt;Node196 -->
<g id="edge2" class="edge">
<title>Node195&#45;&gt;Node196</title>
<path fill="none" stroke="#191970" d="M274.3106,-21C282.7284,-21 291.2768,-21 299.5255,-21"/>
<polygon fill="#191970" stroke="#191970" points="274.1365,-17.5001 264.1365,-21 274.1364,-24.5001 274.1365,-17.5001"/>
</g>
<!-- Node197 -->
<g id="node4" class="node">
<title>Node197</title>
<g id="a_node4"><a xlink:href="../../d9/db3/classopenage_1_1console_1_1_buf.xhtml#a7f70c41ed91a5283fd2dd337b7493eaa" target="_top" xlink:title="write a single byte to the buffer. ">
<polygon fill="#ffffff" stroke="#000000" points="450,-6 450,-36 564,-36 564,-6 450,-6"/>
<text text-anchor="start" x="458" y="-24" font-family="Helvetica,sans-Serif" font-size="10.00" fill="#000000">openage::console::Buf</text>
<text text-anchor="middle" x="507" y="-13" font-family="Helvetica,sans-Serif" font-size="10.00" fill="#000000">::write</text>
</a>
</g>
</g>
<!-- Node196&#45;&gt;Node197 -->
<g id="edge3" class="edge">
<title>Node196&#45;&gt;Node197</title>
<path fill="none" stroke="#191970" d="M424.3106,-21C432.7284,-21 441.2768,-21 449.5255,-21"/>
<polygon fill="#191970" stroke="#191970" points="424.1365,-17.5001 414.1365,-21 424.1364,-24.5001 424.1365,-17.5001"/>
</g>
</g>
</svg>
