<?xml version="1.0" encoding="UTF-8" standalone="no"?>
<!DOCTYPE svg PUBLIC "-//W3C//DTD SVG 1.1//EN"
 "http://www.w3.org/Graphics/SVG/1.1/DTD/svg11.dtd">
<!-- Generated by graphviz version 2.40.1 (20161225.0304)
 -->
<!-- Title: openage::console::Buf::reset Pages: 1 -->
<svg width="593pt" height="78pt"
 viewBox="0.00 0.00 593.00 77.50" xmlns="http://www.w3.org/2000/svg" xmlns:xlink="http://www.w3.org/1999/xlink">
<g id="graph0" class="graph" transform="scale(1 1) rotate(0) translate(4 73.5)">
<title>openage::console::Buf::reset</title>
<polygon fill="#ffffff" stroke="transparent" points="-4,4 -4,-73.5 589,-73.5 589,4 -4,4"/>
<!-- Node213 -->
<g id="node1" class="node">
<title>Node213</title>
<polygon fill="#bfbfbf" stroke="#000000" points="0,-22.5 0,-52.5 114,-52.5 114,-22.5 0,-22.5"/>
<text text-anchor="start" x="8" y="-40.5" font-family="Helvetica,sans-Serif" font-size="10.00" fill="#000000">openage::console::Buf</text>
<text text-anchor="middle" x="57" y="-29.5" font-family="Helvetica,sans-Serif" font-size="10.00" fill="#000000">::reset</text>
</g>
<!-- Node214 -->
<g id="node2" class="node">
<title>Node214</title>
<g id="a_node2"><a xlink:href="../../d9/db3/classopenage_1_1console_1_1_buf.xhtml#a51a780e9a4df80cdb56f8d94186d527e" target="_top" xlink:title="openage::console::Buf::Buf">
<polygon fill="#ffffff" stroke="#000000" points="150,-50 150,-69 285,-69 285,-50 150,-50"/>
<text text-anchor="middle" x="217.5" y="-57" font-family="Helvetica,sans-Serif" font-size="10.00" fill="#000000">openage::console::Buf::Buf</text>
</a>
</g>
</g>
<!-- Node213&#45;&gt;Node214 -->
<g id="edge1" class="edge">
<title>Node213&#45;&gt;Node214</title>
<path fill="none" stroke="#191970" d="M123.9896,-46.6824C132.5688,-47.8583 141.356,-49.0628 149.9441,-50.24"/>
<polygon fill="#191970" stroke="#191970" points="124.4209,-43.2088 114.0382,-45.3183 123.4702,-50.144 124.4209,-43.2088"/>
</g>
<!-- Node215 -->
<g id="node3" class="node">
<title>Node215</title>
<g id="a_node3"><a xlink:href="../../d9/db3/classopenage_1_1console_1_1_buf.xhtml#a809f4a27cd3bf92c2458a5b3176fae43" target="_top" xlink:title="processes a single&#45;codepoint escape sequence. ">
<polygon fill="#ffffff" stroke="#000000" points="160,-.5 160,-30.5 275,-30.5 275,-.5 160,-.5"/>
<text text-anchor="start" x="168" y="-18.5" font-family="Helvetica,sans-Serif" font-size="10.00" fill="#000000">openage::console::Buf</text>
<text text-anchor="middle" x="217.5" y="-7.5" font-family="Helvetica,sans-Serif" font-size="10.00" fill="#000000">::process_escaped_cp</text>
</a>
</g>
</g>
<!-- Node213&#45;&gt;Node215 -->
<g id="edge2" class="edge">
<title>Node213&#45;&gt;Node215</title>
<path fill="none" stroke="#191970" d="M124.2954,-28.2757C136.1105,-26.6562 148.3104,-24.9839 159.8339,-23.4044"/>
<polygon fill="#191970" stroke="#191970" points="123.4702,-24.856 114.0382,-29.6817 124.4209,-31.7912 123.4702,-24.856"/>
</g>
<!-- Node216 -->
<g id="node4" class="node">
<title>Node216</title>
<g id="a_node4"><a xlink:href="../../d9/db3/classopenage_1_1console_1_1_buf.xhtml#adcdc21533ab920bd72f92f27333716bf" target="_top" xlink:title="processes one unicode codepoint internally called by write(char) after feeding the char into streamde...">
<polygon fill="#ffffff" stroke="#000000" points="321,-.5 321,-30.5 435,-30.5 435,-.5 321,-.5"/>
<text text-anchor="start" x="329" y="-18.5" font-family="Helvetica,sans-Serif" font-size="10.00" fill="#000000">openage::console::Buf</text>
<text text-anchor="middle" x="378" y="-7.5" font-family="Helvetica,sans-Serif" font-size="10.00" fill="#000000">::process_codepoint</text>
</a>
</g>
</g>
<!-- Node215&#45;&gt;Node216 -->
<g id="edge3" class="edge">
<title>Node215&#45;&gt;Node216</title>
<path fill="none" stroke="#191970" d="M285.6577,-15.5C297.4135,-15.5 309.5237,-15.5 320.9477,-15.5"/>
<polygon fill="#191970" stroke="#191970" points="285.4442,-12.0001 275.4442,-15.5 285.4441,-19.0001 285.4442,-12.0001"/>
</g>
<!-- Node217 -->
<g id="node5" class="node">
<title>Node217</title>
<g id="a_node5"><a xlink:href="../../d9/db3/classopenage_1_1console_1_1_buf.xhtml#a7f70c41ed91a5283fd2dd337b7493eaa" target="_top" xlink:title="write a single byte to the buffer. ">
<polygon fill="#ffffff" stroke="#000000" points="471,-.5 471,-30.5 585,-30.5 585,-.5 471,-.5"/>
<text text-anchor="start" x="479" y="-18.5" font-family="Helvetica,sans-Serif" font-size="10.00" fill="#000000">openage::console::Buf</text>
<text text-anchor="middle" x="528" y="-7.5" font-family="Helvetica,sans-Serif" font-size="10.00" fill="#000000">::write</text>
</a>
</g>
</g>
<!-- Node216&#45;&gt;Node217 -->
<g id="edge4" class="edge">
<title>Node216&#45;&gt;Node217</title>
<path fill="none" stroke="#191970" d="M445.3106,-15.5C453.7284,-15.5 462.2768,-15.5 470.5255,-15.5"/>
<polygon fill="#191970" stroke="#191970" points="445.1365,-12.0001 435.1365,-15.5 445.1364,-19.0001 445.1365,-12.0001"/>
</g>
</g>
</svg>
