<?xml version="1.0" encoding="UTF-8" standalone="no"?>
<!DOCTYPE svg PUBLIC "-//W3C//DTD SVG 1.1//EN"
 "http://www.w3.org/Graphics/SVG/1.1/DTD/svg11.dtd">
<!-- Generated by graphviz version 2.40.1 (20161225.0304)
 -->
<!-- Title: openage::console::Buf::write Pages: 1 -->
<svg width="1399pt" height="395pt"
 viewBox="0.00 0.00 1399.00 395.00" xmlns="http://www.w3.org/2000/svg" xmlns:xlink="http://www.w3.org/1999/xlink">
<g id="graph0" class="graph" transform="scale(1 1) rotate(0) translate(4 391)">
<title>openage::console::Buf::write</title>
<polygon fill="#ffffff" stroke="transparent" points="-4,4 -4,-391 1395,-391 1395,4 -4,4"/>
<!-- Node232 -->
<g id="node1" class="node">
<title>Node232</title>
<polygon fill="#bfbfbf" stroke="#000000" points="0,-221.5 0,-251.5 114,-251.5 114,-221.5 0,-221.5"/>
<text text-anchor="start" x="8" y="-239.5" font-family="Helvetica,sans-Serif" font-size="10.00" fill="#000000">openage::console::Buf</text>
<text text-anchor="middle" x="57" y="-228.5" font-family="Helvetica,sans-Serif" font-size="10.00" fill="#000000">::write</text>
</g>
<!-- Node233 -->
<g id="node2" class="node">
<title>Node233</title>
<g id="a_node2"><a xlink:href="../../d3/d0c/classopenage_1_1util_1_1utf8__decoder.xhtml#ad74a496758770d9f1be27e9b3fec4dd0" target="_top" xlink:title="feeds one char to the decoder state machine returns false on decoding error, true else ...">
<polygon fill="#ffffff" stroke="#000000" points="824.5,-356.5 824.5,-386.5 919.5,-386.5 919.5,-356.5 824.5,-356.5"/>
<text text-anchor="start" x="832.5" y="-374.5" font-family="Helvetica,sans-Serif" font-size="10.00" fill="#000000">openage::util::utf8</text>
<text text-anchor="middle" x="872" y="-363.5" font-family="Helvetica,sans-Serif" font-size="10.00" fill="#000000">_decoder::feed</text>
</a>
</g>
</g>
<!-- Node232&#45;&gt;Node233 -->
<g id="edge1" class="edge">
<title>Node232&#45;&gt;Node233</title>
<path fill="none" stroke="#191970" d="M76.1427,-251.6421C121.9648,-286.3142 242.7367,-368.5 358,-368.5 358,-368.5 358,-368.5 528,-368.5 628.6926,-368.5 745.958,-369.8012 814.2948,-370.6897"/>
<polygon fill="#191970" stroke="#191970" points="814.3781,-374.191 824.4233,-370.823 814.4703,-367.1916 814.3781,-374.191"/>
</g>
<!-- Node236 -->
<g id="node5" class="node">
<title>Node236</title>
<g id="a_node5"><a xlink:href="../../d9/db3/classopenage_1_1console_1_1_buf.xhtml#adcdc21533ab920bd72f92f27333716bf" target="_top" xlink:title="processes one unicode codepoint internally called by write(char) after feeding the char into streamde...">
<polygon fill="#ffffff" stroke="#000000" points="150,-123.5 150,-153.5 264,-153.5 264,-123.5 150,-123.5"/>
<text text-anchor="start" x="158" y="-141.5" font-family="Helvetica,sans-Serif" font-size="10.00" fill="#000000">openage::console::Buf</text>
<text text-anchor="middle" x="207" y="-130.5" font-family="Helvetica,sans-Serif" font-size="10.00" fill="#000000">::process_codepoint</text>
</a>
</g>
</g>
<!-- Node232&#45;&gt;Node236 -->
<g id="edge5" class="edge">
<title>Node232&#45;&gt;Node236</title>
<path fill="none" stroke="#191970" d="M80.1088,-221.4023C105.5795,-204.7614 146.7116,-177.8884 175.2103,-159.2693"/>
<polygon fill="#191970" stroke="#191970" points="177.1605,-162.176 183.6178,-153.7763 173.3318,-156.3158 177.1605,-162.176"/>
</g>
<!-- Node234 -->
<g id="node3" class="node">
<title>Node234</title>
<g id="a_node3"><a xlink:href="../../d5/d0e/namespaceopenage_1_1testing_1_1testing.xhtml#ac25bf81db406af62d08113ef7ae9fd6e" target="_top" xlink:title="openage.testing.testing.result">
<polygon fill="#ffffff" stroke="#000000" points="1115,-318 1115,-337 1260,-337 1260,-318 1115,-318"/>
<text text-anchor="middle" x="1187.5" y="-325" font-family="Helvetica,sans-Serif" font-size="10.00" fill="#000000">openage.testing.testing.result</text>
</a>
</g>
</g>
<!-- Node233&#45;&gt;Node234 -->
<g id="edge2" class="edge">
<title>Node233&#45;&gt;Node234</title>
<path fill="none" stroke="#191970" d="M919.5,-368.9671C961.6038,-366.2881 1024.6591,-361.2136 1079,-352.5 1099.8043,-349.164 1122.5624,-344.1366 1141.8389,-339.4629"/>
<polygon fill="#191970" stroke="#191970" points="1142.7023,-342.8549 1151.5731,-337.0619 1141.0259,-336.0586 1142.7023,-342.8549"/>
</g>
<!-- Node235 -->
<g id="node4" class="node">
<title>Node235</title>
<g id="a_node4"><a xlink:href="../../de/d60/namespaceopenage_1_1util.xhtml#a7bc4421a5f0f57f3a0aba3f96eb8d19c" target="_top" xlink:title="method that behaves similar to python&#39;s &quot;repr&quot;. ">
<polygon fill="#ffffff" stroke="#000000" points="1296,-318 1296,-337 1391,-337 1391,-318 1296,-318"/>
<text text-anchor="middle" x="1343.5" y="-325" font-family="Helvetica,sans-Serif" font-size="10.00" fill="#000000">openage::util::repr</text>
</a>
</g>
</g>
<!-- Node234&#45;&gt;Node235 -->
<g id="edge3" class="edge">
<title>Node234&#45;&gt;Node235</title>
<path fill="none" stroke="#191970" d="M1260.0196,-320.7648C1268.6179,-320.7182 1277.3054,-320.7815 1285.6614,-320.9545"/>
<polygon fill="#191970" stroke="#191970" points="1285.5718,-324.4533 1295.6613,-321.2201 1285.7578,-317.4558 1285.5718,-324.4533"/>
</g>
<!-- Node235&#45;&gt;Node234 -->
<g id="edge4" class="edge">
<title>Node235&#45;&gt;Node234</title>
<path fill="none" stroke="#191970" d="M1295.6613,-333.7799C1287.5562,-334.0451 1278.9375,-334.1982 1270.24,-334.2389"/>
<polygon fill="#191970" stroke="#191970" points="1270.021,-330.7389 1260.0196,-334.2352 1270.0183,-337.7389 1270.021,-330.7389"/>
</g>
<!-- Node237 -->
<g id="node6" class="node">
<title>Node237</title>
<g id="a_node6"><a xlink:href="../../d9/db3/classopenage_1_1console_1_1_buf.xhtml#ac59a20dcbdcb3aaffaedc8d9d21d0ec9" target="_top" xlink:title="aborts the current escape sequence (e.g. ">
<polygon fill="#ffffff" stroke="#000000" points="458.5,-44.5 458.5,-74.5 597.5,-74.5 597.5,-44.5 458.5,-44.5"/>
<text text-anchor="start" x="466.5" y="-62.5" font-family="Helvetica,sans-Serif" font-size="10.00" fill="#000000">openage::console::Buf</text>
<text text-anchor="middle" x="528" y="-51.5" font-family="Helvetica,sans-Serif" font-size="10.00" fill="#000000">::escape_sequence_aborted</text>
</a>
</g>
</g>
<!-- Node236&#45;&gt;Node237 -->
<g id="edge6" class="edge">
<title>Node236&#45;&gt;Node237</title>
<path fill="none" stroke="#191970" d="M224.4808,-123.4251C242.2073,-109.105 271.0783,-88.3436 300,-78.5 347.4435,-62.3525 403.5046,-57.5066 448.1642,-56.7445"/>
<polygon fill="#191970" stroke="#191970" points="448.4207,-60.2421 458.3835,-56.6373 448.3473,-53.2425 448.4207,-60.2421"/>
</g>
<!-- Node239 -->
<g id="node8" class="node">
<title>Node239</title>
<g id="a_node8"><a xlink:href="../../d9/db3/classopenage_1_1console_1_1_buf.xhtml#ab2dd3bbdbc82ae2a4276a433b40aac91" target="_top" xlink:title="prints one unicode codepoint interally called by process_codepoint(int cp) after sorting out escape s...">
<polygon fill="#ffffff" stroke="#000000" points="471,-230.5 471,-260.5 585,-260.5 585,-230.5 471,-230.5"/>
<text text-anchor="start" x="479" y="-248.5" font-family="Helvetica,sans-Serif" font-size="10.00" fill="#000000">openage::console::Buf</text>
<text text-anchor="middle" x="528" y="-237.5" font-family="Helvetica,sans-Serif" font-size="10.00" fill="#000000">::print_codepoint</text>
</a>
</g>
</g>
<!-- Node236&#45;&gt;Node239 -->
<g id="edge8" class="edge">
<title>Node236&#45;&gt;Node239</title>
<path fill="none" stroke="#191970" d="M225.7849,-153.6204C243.7898,-167.3572 272.255,-187.1559 300,-198.5 351.7554,-219.6612 414.1604,-231.6771 460.5888,-238.2521"/>
<polygon fill="#191970" stroke="#191970" points="460.1582,-241.7257 470.5403,-239.613 461.1067,-234.7903 460.1582,-241.7257"/>
</g>
<!-- Node246 -->
<g id="node15" class="node">
<title>Node246</title>
<g id="a_node15"><a xlink:href="../../d9/db3/classopenage_1_1console_1_1_buf.xhtml#a83a7e7db654360cff1c6796b169efc22" target="_top" xlink:title="processes the CSI escape sequence currently stored in escape_sequence. ">
<polygon fill="#ffffff" stroke="#000000" points="301,-148 301,-189 415,-189 415,-148 301,-148"/>
<text text-anchor="start" x="309" y="-177" font-family="Helvetica,sans-Serif" font-size="10.00" fill="#000000">openage::console::Buf</text>
<text text-anchor="start" x="309" y="-166" font-family="Helvetica,sans-Serif" font-size="10.00" fill="#000000">::process_csi_escape</text>
<text text-anchor="middle" x="358" y="-155" font-family="Helvetica,sans-Serif" font-size="10.00" fill="#000000">_sequence</text>
</a>
</g>
</g>
<!-- Node236&#45;&gt;Node246 -->
<g id="edge19" class="edge">
<title>Node236&#45;&gt;Node246</title>
<path fill="none" stroke="#191970" d="M264.0866,-149.8417C272.8246,-151.5777 281.9129,-153.3834 290.8437,-155.1577"/>
<polygon fill="#191970" stroke="#191970" points="290.3423,-158.6264 300.8327,-157.1422 291.7064,-151.7606 290.3423,-158.6264"/>
</g>
<!-- Node249 -->
<g id="node18" class="node">
<title>Node249</title>
<g id="a_node18"><a xlink:href="../../d9/db3/classopenage_1_1console_1_1_buf.xhtml#a809f4a27cd3bf92c2458a5b3176fae43" target="_top" xlink:title="processes a single&#45;codepoint escape sequence. ">
<polygon fill="#ffffff" stroke="#000000" points="300.5,-.5 300.5,-30.5 415.5,-30.5 415.5,-.5 300.5,-.5"/>
<text text-anchor="start" x="308.5" y="-18.5" font-family="Helvetica,sans-Serif" font-size="10.00" fill="#000000">openage::console::Buf</text>
<text text-anchor="middle" x="358" y="-7.5" font-family="Helvetica,sans-Serif" font-size="10.00" fill="#000000">::process_escaped_cp</text>
</a>
</g>
</g>
<!-- Node236&#45;&gt;Node249 -->
<g id="edge25" class="edge">
<title>Node236&#45;&gt;Node249</title>
<path fill="none" stroke="#191970" d="M219.6412,-123.2055C236.4907,-103.487 267.9288,-68.9511 300,-45.5 304.8072,-41.9849 310.0838,-38.6491 315.4346,-35.5672"/>
<polygon fill="#191970" stroke="#191970" points="317.3519,-38.5077 324.4401,-30.6332 313.9884,-32.3687 317.3519,-38.5077"/>
</g>
<!-- Node251 -->
<g id="node20" class="node">
<title>Node251</title>
<g id="a_node20"><a xlink:href="../../d9/db3/classopenage_1_1console_1_1_buf.xhtml#aa6ae8933e3c2bbaafa8d81cf1c405406" target="_top" xlink:title="processes a text escape sequence that is one of OSC, DCS, APC or PM ">
<polygon fill="#ffffff" stroke="#000000" points="300,-88 300,-129 416,-129 416,-88 300,-88"/>
<text text-anchor="start" x="308" y="-117" font-family="Helvetica,sans-Serif" font-size="10.00" fill="#000000">openage::console::Buf</text>
<text text-anchor="start" x="308" y="-106" font-family="Helvetica,sans-Serif" font-size="10.00" fill="#000000">::process_text_escape</text>
<text text-anchor="middle" x="358" y="-95" font-family="Helvetica,sans-Serif" font-size="10.00" fill="#000000">_sequence</text>
</a>
</g>
</g>
<!-- Node236&#45;&gt;Node251 -->
<g id="edge29" class="edge">
<title>Node236&#45;&gt;Node251</title>
<path fill="none" stroke="#191970" d="M264.0866,-127.1583C272.4905,-125.4886 281.2185,-123.7546 289.8187,-122.046"/>
<polygon fill="#191970" stroke="#191970" points="290.7025,-125.4389 299.8287,-120.0572 289.3383,-118.5731 290.7025,-125.4389"/>
</g>
<!-- Node238 -->
<g id="node7" class="node">
<title>Node238</title>
<g id="a_node7"><a xlink:href="../../dd/d31/namespaceopenage_1_1console.xhtml#ac6af4ff8acdecaf3ebf91c57e2c20953" target="_top" xlink:title="openage::console::print_cps">
<polygon fill="#ffffff" stroke="#000000" points="640,-50 640,-69 779,-69 779,-50 640,-50"/>
<text text-anchor="middle" x="709.5" y="-57" font-family="Helvetica,sans-Serif" font-size="10.00" fill="#000000">openage::console::print_cps</text>
</a>
</g>
</g>
<!-- Node237&#45;&gt;Node238 -->
<g id="edge7" class="edge">
<title>Node237&#45;&gt;Node238</title>
<path fill="none" stroke="#191970" d="M597.6536,-59.5C608.1081,-59.5 618.9581,-59.5 629.6058,-59.5"/>
<polygon fill="#191970" stroke="#191970" points="629.733,-63.0001 639.7329,-59.5 629.7329,-56.0001 629.733,-63.0001"/>
</g>
<!-- Node240 -->
<g id="node9" class="node">
<title>Node240</title>
<g id="a_node9"><a xlink:href="../../d9/db3/classopenage_1_1console_1_1_buf.xhtml#a752e54412ebbb08b3d8ac0edc90891ee" target="_top" xlink:title="advances the buffer by the specified number of lines. ">
<polygon fill="#ffffff" stroke="#000000" points="652.5,-230.5 652.5,-260.5 766.5,-260.5 766.5,-230.5 652.5,-230.5"/>
<text text-anchor="start" x="660.5" y="-248.5" font-family="Helvetica,sans-Serif" font-size="10.00" fill="#000000">openage::console::Buf</text>
<text text-anchor="middle" x="709.5" y="-237.5" font-family="Helvetica,sans-Serif" font-size="10.00" fill="#000000">::advance</text>
</a>
</g>
</g>
<!-- Node239&#45;&gt;Node240 -->
<g id="edge9" class="edge">
<title>Node239&#45;&gt;Node240</title>
<path fill="none" stroke="#191970" d="M585.4277,-245.5C603.4791,-245.5 623.573,-245.5 642.2425,-245.5"/>
<polygon fill="#191970" stroke="#191970" points="642.4459,-249.0001 652.4459,-245.5 642.4458,-242.0001 642.4459,-249.0001"/>
</g>
<!-- Node243 -->
<g id="node12" class="node">
<title>Node243</title>
<g id="a_node12"><a xlink:href="../../d9/db3/classopenage_1_1console_1_1_buf.xhtml#ad54e6fb8e82e15a085cae30d3646d7b7" target="_top" xlink:title="returns a valid pointer to the character info for the character designated by pos ...">
<polygon fill="#ffffff" stroke="#000000" points="965,-263.5 965,-293.5 1079,-293.5 1079,-263.5 965,-263.5"/>
<text text-anchor="start" x="973" y="-281.5" font-family="Helvetica,sans-Serif" font-size="10.00" fill="#000000">openage::console::Buf</text>
<text text-anchor="middle" x="1022" y="-270.5" font-family="Helvetica,sans-Serif" font-size="10.00" fill="#000000">::chrdataptr</text>
</a>
</g>
</g>
<!-- Node239&#45;&gt;Node243 -->
<g id="edge17" class="edge">
<title>Node239&#45;&gt;Node243</title>
<path fill="none" stroke="#191970" d="M585.1736,-260.5579C602.6462,-264.5369 622.0011,-268.3246 640,-270.5 749.4398,-283.7269 877.7684,-283.1524 954.3441,-281.1212"/>
<polygon fill="#191970" stroke="#191970" points="954.9012,-284.6069 964.7985,-280.8262 954.7037,-277.6097 954.9012,-284.6069"/>
</g>
<!-- Node245 -->
<g id="node14" class="node">
<title>Node245</title>
<g id="a_node14"><a xlink:href="../../d9/db3/classopenage_1_1console_1_1_buf.xhtml#a4c48f84f2a29ae7472c54bce03fcbd65" target="_top" xlink:title="returns a valid pointer to the line info for the line designated by lineno ">
<polygon fill="#ffffff" stroke="#000000" points="965,-312.5 965,-342.5 1079,-342.5 1079,-312.5 965,-312.5"/>
<text text-anchor="start" x="973" y="-330.5" font-family="Helvetica,sans-Serif" font-size="10.00" fill="#000000">openage::console::Buf</text>
<text text-anchor="middle" x="1022" y="-319.5" font-family="Helvetica,sans-Serif" font-size="10.00" fill="#000000">::linedataptr</text>
</a>
</g>
</g>
<!-- Node239&#45;&gt;Node245 -->
<g id="edge18" class="edge">
<title>Node239&#45;&gt;Node245</title>
<path fill="none" stroke="#191970" d="M560.5942,-260.6546C582.5593,-270.2026 612.4466,-281.9276 640,-288.5 748.2923,-314.3314 877.8601,-323.0574 954.8601,-326.0026"/>
<polygon fill="#191970" stroke="#191970" points="954.7872,-329.5022 964.907,-326.3654 955.0398,-322.5068 954.7872,-329.5022"/>
</g>
<!-- Node241 -->
<g id="node10" class="node">
<title>Node241</title>
<g id="a_node10"><a xlink:href="../../d9/db3/classopenage_1_1console_1_1_buf.xhtml#af6b49e0178333e01a08fd61ca2006219" target="_top" xlink:title="clears the screen character and line buffers. ">
<polygon fill="#ffffff" stroke="#000000" points="815,-214.5 815,-244.5 929,-244.5 929,-214.5 815,-214.5"/>
<text text-anchor="start" x="823" y="-232.5" font-family="Helvetica,sans-Serif" font-size="10.00" fill="#000000">openage::console::Buf</text>
<text text-anchor="middle" x="872" y="-221.5" font-family="Helvetica,sans-Serif" font-size="10.00" fill="#000000">::clear</text>
</a>
</g>
</g>
<!-- Node240&#45;&gt;Node241 -->
<g id="edge10" class="edge">
<title>Node240&#45;&gt;Node241</title>
<path fill="none" stroke="#191970" d="M766.7914,-239.859C779.1208,-238.645 792.2585,-237.3515 804.9223,-236.1046"/>
<polygon fill="#191970" stroke="#191970" points="805.3434,-239.5801 814.9522,-235.117 804.6574,-232.6138 805.3434,-239.5801"/>
</g>
<!-- Node242 -->
<g id="node11" class="node">
<title>Node242</title>
<g id="a_node11"><a xlink:href="../../d9/db3/classopenage_1_1console_1_1_buf.xhtml#a1108eb4031232054e271e3c7321b24ef" target="_top" xlink:title="clears a range of the data buffer. ">
<polygon fill="#ffffff" stroke="#000000" points="965,-214.5 965,-244.5 1079,-244.5 1079,-214.5 965,-214.5"/>
<text text-anchor="start" x="973" y="-232.5" font-family="Helvetica,sans-Serif" font-size="10.00" fill="#000000">openage::console::Buf</text>
<text text-anchor="middle" x="1022" y="-221.5" font-family="Helvetica,sans-Serif" font-size="10.00" fill="#000000">::chrdata_clear</text>
</a>
</g>
</g>
<!-- Node241&#45;&gt;Node242 -->
<g id="edge11" class="edge">
<title>Node241&#45;&gt;Node242</title>
<path fill="none" stroke="#191970" d="M929.1365,-229.5C937.3769,-229.5 945.9229,-229.5 954.3442,-229.5"/>
<polygon fill="#191970" stroke="#191970" points="954.5255,-233.0001 964.5255,-229.5 954.5255,-226.0001 954.5255,-233.0001"/>
</g>
<!-- Node241&#45;&gt;Node243 -->
<g id="edge12" class="edge">
<title>Node241&#45;&gt;Node243</title>
<path fill="none" stroke="#191970" d="M918.2289,-244.6014C933.4128,-249.5615 950.4511,-255.1274 966.2639,-260.2929"/>
<polygon fill="#191970" stroke="#191970" points="965.3312,-263.6702 975.9237,-263.4484 967.5049,-257.0162 965.3312,-263.6702"/>
</g>
<!-- Node244 -->
<g id="node13" class="node">
<title>Node244</title>
<g id="a_node13"><a xlink:href="../../d9/db3/classopenage_1_1console_1_1_buf.xhtml#a76d65b492fdef7853b939598235881e2" target="_top" xlink:title="clears a range of the linedata buffer. ">
<polygon fill="#ffffff" stroke="#000000" points="965,-165.5 965,-195.5 1079,-195.5 1079,-165.5 965,-165.5"/>
<text text-anchor="start" x="973" y="-183.5" font-family="Helvetica,sans-Serif" font-size="10.00" fill="#000000">openage::console::Buf</text>
<text text-anchor="middle" x="1022" y="-172.5" font-family="Helvetica,sans-Serif" font-size="10.00" fill="#000000">::linedata_clear</text>
</a>
</g>
</g>
<!-- Node241&#45;&gt;Node244 -->
<g id="edge14" class="edge">
<title>Node241&#45;&gt;Node244</title>
<path fill="none" stroke="#191970" d="M918.2289,-214.3986C933.4128,-209.4385 950.4511,-203.8726 966.2639,-198.7071"/>
<polygon fill="#191970" stroke="#191970" points="967.5049,-201.9838 975.9237,-195.5516 965.3312,-195.3298 967.5049,-201.9838"/>
</g>
<!-- Node241&#45;&gt;Node245 -->
<g id="edge15" class="edge">
<title>Node241&#45;&gt;Node245</title>
<path fill="none" stroke="#191970" d="M888.1233,-244.6141C905.9135,-260.7235 935.895,-286.2383 965,-303.5 967.6392,-305.0653 970.3996,-306.5802 973.221,-308.0364"/>
<polygon fill="#191970" stroke="#191970" points="971.8428,-311.258 982.3672,-312.4777 974.9005,-304.9611 971.8428,-311.258"/>
</g>
<!-- Node243&#45;&gt;Node234 -->
<g id="edge13" class="edge">
<title>Node243&#45;&gt;Node234</title>
<path fill="none" stroke="#191970" d="M1073.0059,-293.6014C1096.232,-300.4781 1123.3908,-308.519 1145.4269,-315.0433"/>
<polygon fill="#191970" stroke="#191970" points="1144.5764,-318.4416 1155.1586,-317.9246 1146.5637,-311.7296 1144.5764,-318.4416"/>
</g>
<!-- Node245&#45;&gt;Node234 -->
<g id="edge16" class="edge">
<title>Node245&#45;&gt;Node234</title>
<path fill="none" stroke="#191970" d="M1079.4194,-327.5C1087.6059,-327.5 1096.1585,-327.5 1104.7116,-327.5"/>
<polygon fill="#191970" stroke="#191970" points="1104.7306,-331.0001 1114.7305,-327.5 1104.7305,-324.0001 1104.7306,-331.0001"/>
</g>
<!-- Node246&#45;&gt;Node237 -->
<g id="edge21" class="edge">
<title>Node246&#45;&gt;Node237</title>
<path fill="none" stroke="#191970" d="M403.5066,-147.889C407.9417,-145.0355 412.1987,-141.9023 416,-138.5 437.4928,-119.263 429.0426,-101.963 452,-84.5 454.4632,-82.6263 457.0734,-80.8894 459.7862,-79.2796"/>
<polygon fill="#191970" stroke="#191970" points="461.5298,-82.3171 468.7457,-74.5595 458.267,-76.124 461.5298,-82.3171"/>
</g>
<!-- Node246&#45;&gt;Node239 -->
<g id="edge23" class="edge">
<title>Node246&#45;&gt;Node239</title>
<path fill="none" stroke="#191970" d="M397.4235,-189.1758C414.1021,-197.6703 433.8391,-207.3941 452,-215.5 460.4663,-219.2788 469.5635,-223.0836 478.4175,-226.6548"/>
<polygon fill="#191970" stroke="#191970" points="477.3029,-229.9782 487.8883,-230.4259 479.8925,-223.4748 477.3029,-229.9782"/>
</g>
<!-- Node246&#45;&gt;Node241 -->
<g id="edge20" class="edge">
<title>Node246&#45;&gt;Node241</title>
<path fill="none" stroke="#191970" d="M415.1192,-177.3469C427.281,-179.1354 440.0565,-180.9428 452,-182.5 576.3205,-198.7085 721.7983,-214.219 804.8023,-222.742"/>
<polygon fill="#191970" stroke="#191970" points="804.5516,-226.2346 814.8562,-223.7716 805.2648,-219.271 804.5516,-226.2346"/>
</g>
<!-- Node247 -->
<g id="node16" class="node">
<title>Node247</title>
<g id="a_node16"><a xlink:href="../../d9/db3/classopenage_1_1console_1_1_buf.xhtml#a3e924482fd0e3524e44b20acc316fb19" target="_top" xlink:title="called when a escape sequence has been successfully processed, clears the sequence. ">
<polygon fill="#ffffff" stroke="#000000" points="452,-93.5 452,-123.5 604,-123.5 604,-93.5 452,-93.5"/>
<text text-anchor="start" x="460" y="-111.5" font-family="Helvetica,sans-Serif" font-size="10.00" fill="#000000">openage::console::Buf</text>
<text text-anchor="middle" x="528" y="-100.5" font-family="Helvetica,sans-Serif" font-size="10.00" fill="#000000">::escape_sequence_processed</text>
</a>
</g>
</g>
<!-- Node246&#45;&gt;Node247 -->
<g id="edge22" class="edge">
<title>Node246&#45;&gt;Node247</title>
<path fill="none" stroke="#191970" d="M412.0511,-147.9679C425.0957,-143.1254 439.0173,-138.0504 452,-133.5 458.3411,-131.2775 464.9994,-129.0022 471.6288,-126.7735"/>
<polygon fill="#191970" stroke="#191970" points="472.9023,-130.0383 481.2804,-123.5531 470.6867,-123.3982 472.9023,-130.0383"/>
</g>
<!-- Node248 -->
<g id="node17" class="node">
<title>Node248</title>
<g id="a_node17"><a xlink:href="../../d9/db3/classopenage_1_1console_1_1_buf.xhtml#a9320618afe1ebdf770518ab69cc72271" target="_top" xlink:title="sets graphics rendition parameters; called by process_escape_sequence ">
<polygon fill="#ffffff" stroke="#000000" points="471,-142.5 471,-172.5 585,-172.5 585,-142.5 471,-142.5"/>
<text text-anchor="start" x="479" y="-160.5" font-family="Helvetica,sans-Serif" font-size="10.00" fill="#000000">openage::console::Buf</text>
<text text-anchor="middle" x="528" y="-149.5" font-family="Helvetica,sans-Serif" font-size="10.00" fill="#000000">::process_sgr_code</text>
</a>
</g>
</g>
<!-- Node246&#45;&gt;Node248 -->
<g id="edge24" class="edge">
<title>Node246&#45;&gt;Node248</title>
<path fill="none" stroke="#191970" d="M415.0805,-164.8066C429.6578,-163.8633 445.4675,-162.8403 460.5121,-161.8669"/>
<polygon fill="#191970" stroke="#191970" points="461.0277,-165.3409 470.7808,-161.2024 460.5757,-158.3555 461.0277,-165.3409"/>
</g>
<!-- Node249&#45;&gt;Node237 -->
<g id="edge26" class="edge">
<title>Node249&#45;&gt;Node237</title>
<path fill="none" stroke="#191970" d="M415.5542,-30.3964C429.7983,-34.0831 445.1942,-38.0679 459.8885,-41.8711"/>
<polygon fill="#191970" stroke="#191970" points="459.3686,-45.3518 469.9266,-44.4692 461.1226,-38.5751 459.3686,-45.3518"/>
</g>
<!-- Node250 -->
<g id="node19" class="node">
<title>Node250</title>
<g id="a_node19"><a xlink:href="../../d9/db3/classopenage_1_1console_1_1_buf.xhtml#a23267e4cb18a2921f14406e6307cbb95" target="_top" xlink:title="resets the buffer to its constructor defaults ">
<polygon fill="#ffffff" stroke="#000000" points="652.5,-.5 652.5,-30.5 766.5,-30.5 766.5,-.5 652.5,-.5"/>
<text text-anchor="start" x="660.5" y="-18.5" font-family="Helvetica,sans-Serif" font-size="10.00" fill="#000000">openage::console::Buf</text>
<text text-anchor="middle" x="709.5" y="-7.5" font-family="Helvetica,sans-Serif" font-size="10.00" fill="#000000">::reset</text>
</a>
</g>
</g>
<!-- Node249&#45;&gt;Node250 -->
<g id="edge27" class="edge">
<title>Node249&#45;&gt;Node250</title>
<path fill="none" stroke="#191970" d="M415.6495,-15.5C477.7673,-15.5 576.52,-15.5 642.1622,-15.5"/>
<polygon fill="#191970" stroke="#191970" points="642.4024,-19.0001 652.4024,-15.5 642.4023,-12.0001 642.4024,-19.0001"/>
</g>
<!-- Node250&#45;&gt;Node241 -->
<g id="edge28" class="edge">
<title>Node250&#45;&gt;Node241</title>
<path fill="none" stroke="#191970" d="M764.5447,-30.617C769.7607,-33.3885 774.6979,-36.6545 779,-40.5 829.5579,-85.6914 855.6676,-164.5763 866.2207,-204.6338"/>
<polygon fill="#191970" stroke="#191970" points="862.8424,-205.5514 868.6835,-214.3907 869.6295,-203.8382 862.8424,-205.5514"/>
</g>
<!-- Node251&#45;&gt;Node237 -->
<g id="edge30" class="edge">
<title>Node251&#45;&gt;Node237</title>
<path fill="none" stroke="#191970" d="M416.0289,-91.774C432.1191,-87.1362 449.6479,-82.0838 465.9576,-77.3828"/>
<polygon fill="#191970" stroke="#191970" points="467.292,-80.6408 475.9314,-74.508 465.3532,-73.9146 467.292,-80.6408"/>
</g>
<!-- Node251&#45;&gt;Node247 -->
<g id="edge31" class="edge">
<title>Node251&#45;&gt;Node247</title>
<path fill="none" stroke="#191970" d="M416.0289,-108.5C424.325,-108.5 433.0035,-108.5 441.7002,-108.5"/>
<polygon fill="#191970" stroke="#191970" points="441.8959,-112.0001 451.8959,-108.5 441.8958,-105.0001 441.8959,-112.0001"/>
</g>
</g>
</svg>
