<?xml version="1.0" encoding="UTF-8" standalone="no"?>
<!DOCTYPE svg PUBLIC "-//W3C//DTD SVG 1.1//EN"
 "http://www.w3.org/Graphics/SVG/1.1/DTD/svg11.dtd">
<!-- Generated by graphviz version 2.40.1 (20161225.0304)
 -->
<!-- Title: openage::console::Buf::escape_sequence_processed Pages: 1 -->
<svg width="612pt" height="110pt"
 viewBox="0.00 0.00 612.00 110.00" xmlns="http://www.w3.org/2000/svg" xmlns:xlink="http://www.w3.org/1999/xlink">
<g id="graph0" class="graph" transform="scale(1 1) rotate(0) translate(4 106)">
<title>openage::console::Buf::escape_sequence_processed</title>
<polygon fill="#ffffff" stroke="transparent" points="-4,4 -4,-106 608,-106 608,4 -4,4"/>
<!-- Node84 -->
<g id="node1" class="node">
<title>Node84</title>
<polygon fill="#bfbfbf" stroke="#000000" points="0,-36 0,-66 152,-66 152,-36 0,-36"/>
<text text-anchor="start" x="8" y="-54" font-family="Helvetica,sans-Serif" font-size="10.00" fill="#000000">openage::console::Buf</text>
<text text-anchor="middle" x="76" y="-43" font-family="Helvetica,sans-Serif" font-size="10.00" fill="#000000">::escape_sequence_processed</text>
</g>
<!-- Node85 -->
<g id="node2" class="node">
<title>Node85</title>
<g id="a_node2"><a xlink:href="../../d9/db3/classopenage_1_1console_1_1_buf.xhtml#a83a7e7db654360cff1c6796b169efc22" target="_top" xlink:title="processes the CSI escape sequence currently stored in escape_sequence. ">
<polygon fill="#ffffff" stroke="#000000" points="189,-60.5 189,-101.5 303,-101.5 303,-60.5 189,-60.5"/>
<text text-anchor="start" x="197" y="-89.5" font-family="Helvetica,sans-Serif" font-size="10.00" fill="#000000">openage::console::Buf</text>
<text text-anchor="start" x="197" y="-78.5" font-family="Helvetica,sans-Serif" font-size="10.00" fill="#000000">::process_csi_escape</text>
<text text-anchor="middle" x="246" y="-67.5" font-family="Helvetica,sans-Serif" font-size="10.00" fill="#000000">_sequence</text>
</a>
</g>
</g>
<!-- Node84&#45;&gt;Node85 -->
<g id="edge1" class="edge">
<title>Node84&#45;&gt;Node85</title>
<path fill="none" stroke="#191970" d="M161.9468,-66.1671C171.0806,-67.7789 180.1999,-69.3882 188.8826,-70.9205"/>
<polygon fill="#191970" stroke="#191970" points="162.506,-62.7118 152.0499,-64.4206 161.2895,-69.6053 162.506,-62.7118"/>
</g>
<!-- Node88 -->
<g id="node5" class="node">
<title>Node88</title>
<g id="a_node5"><a xlink:href="../../d9/db3/classopenage_1_1console_1_1_buf.xhtml#aa6ae8933e3c2bbaafa8d81cf1c405406" target="_top" xlink:title="processes a text escape sequence that is one of OSC, DCS, APC or PM ">
<polygon fill="#ffffff" stroke="#000000" points="188,-.5 188,-41.5 304,-41.5 304,-.5 188,-.5"/>
<text text-anchor="start" x="196" y="-29.5" font-family="Helvetica,sans-Serif" font-size="10.00" fill="#000000">openage::console::Buf</text>
<text text-anchor="start" x="196" y="-18.5" font-family="Helvetica,sans-Serif" font-size="10.00" fill="#000000">::process_text_escape</text>
<text text-anchor="middle" x="246" y="-7.5" font-family="Helvetica,sans-Serif" font-size="10.00" fill="#000000">_sequence</text>
</a>
</g>
</g>
<!-- Node84&#45;&gt;Node88 -->
<g id="edge4" class="edge">
<title>Node84&#45;&gt;Node88</title>
<path fill="none" stroke="#191970" d="M161.9468,-35.8329C170.7253,-34.2838 179.4903,-32.737 187.8672,-31.2587"/>
<polygon fill="#191970" stroke="#191970" points="161.2895,-32.3947 152.0499,-37.5794 162.506,-39.2882 161.2895,-32.3947"/>
</g>
<!-- Node86 -->
<g id="node3" class="node">
<title>Node86</title>
<g id="a_node3"><a xlink:href="../../d9/db3/classopenage_1_1console_1_1_buf.xhtml#adcdc21533ab920bd72f92f27333716bf" target="_top" xlink:title="processes one unicode codepoint internally called by write(char) after feeding the char into streamde...">
<polygon fill="#ffffff" stroke="#000000" points="340,-36 340,-66 454,-66 454,-36 340,-36"/>
<text text-anchor="start" x="348" y="-54" font-family="Helvetica,sans-Serif" font-size="10.00" fill="#000000">openage::console::Buf</text>
<text text-anchor="middle" x="397" y="-43" font-family="Helvetica,sans-Serif" font-size="10.00" fill="#000000">::process_codepoint</text>
</a>
</g>
</g>
<!-- Node85&#45;&gt;Node86 -->
<g id="edge2" class="edge">
<title>Node85&#45;&gt;Node86</title>
<path fill="none" stroke="#191970" d="M313.0739,-67.6741C322.0036,-65.8999 331.0926,-64.0942 339.8327,-62.3578"/>
<polygon fill="#191970" stroke="#191970" points="312.2129,-64.2766 303.0866,-69.6583 313.577,-71.1424 312.2129,-64.2766"/>
</g>
<!-- Node87 -->
<g id="node4" class="node">
<title>Node87</title>
<g id="a_node4"><a xlink:href="../../d9/db3/classopenage_1_1console_1_1_buf.xhtml#a7f70c41ed91a5283fd2dd337b7493eaa" target="_top" xlink:title="write a single byte to the buffer. ">
<polygon fill="#ffffff" stroke="#000000" points="490,-36 490,-66 604,-66 604,-36 490,-36"/>
<text text-anchor="start" x="498" y="-54" font-family="Helvetica,sans-Serif" font-size="10.00" fill="#000000">openage::console::Buf</text>
<text text-anchor="middle" x="547" y="-43" font-family="Helvetica,sans-Serif" font-size="10.00" fill="#000000">::write</text>
</a>
</g>
</g>
<!-- Node86&#45;&gt;Node87 -->
<g id="edge3" class="edge">
<title>Node86&#45;&gt;Node87</title>
<path fill="none" stroke="#191970" d="M464.3106,-51C472.7284,-51 481.2768,-51 489.5255,-51"/>
<polygon fill="#191970" stroke="#191970" points="464.1365,-47.5001 454.1365,-51 464.1364,-54.5001 464.1365,-47.5001"/>
</g>
<!-- Node88&#45;&gt;Node86 -->
<g id="edge5" class="edge">
<title>Node88&#45;&gt;Node86</title>
<path fill="none" stroke="#191970" d="M314.2931,-34.5682C322.8077,-36.2598 331.4458,-37.976 339.7687,-39.6295"/>
<polygon fill="#191970" stroke="#191970" points="314.8709,-31.1146 304.3805,-32.5988 313.5068,-37.9804 314.8709,-31.1146"/>
</g>
</g>
</svg>
