<?xml version="1.0" encoding="UTF-8" standalone="no"?>
<!DOCTYPE svg PUBLIC "-//W3C//DTD SVG 1.1//EN"
 "http://www.w3.org/Graphics/SVG/1.1/DTD/svg11.dtd">
<!-- Generated by graphviz version 2.40.1 (20161225.0304)
 -->
<!-- Title: openage::console::Buf::clear Pages: 1 -->
<!--zoomable 149 -->
<svg id="main" version="1.1" xmlns="http://www.w3.org/2000/svg" xmlns:xlink="http://www.w3.org/1999/xlink" xml:space="preserve" onload="init(evt)">
<style type="text/css"><![CDATA[
.edge:hover path { stroke: red; }
.edge:hover polygon { stroke: red; fill: red; }
]]></style>
<script type="text/javascript"><![CDATA[
var edges = document.getElementsByTagName('g');
if (edges && edges.length) {
  for (var i=0;i<edges.length;i++) {
    if (edges[i].id.substr(0,4)=='edge') {
      edges[i].setAttribute('class','edge');
    }
  }
}
]]></script>
        <defs>
                <circle id="rim" cx="0" cy="0" r="7"/>
                <circle id="rim2" cx="0" cy="0" r="3.5"/>
                <g id="zoomPlus">
                        <use xlink:href="#rim" fill="#404040">
                                <set attributeName="fill" to="#808080" begin="zoomplus.mouseover" end="zoomplus.mouseout"/>
                        </use>
                        <path d="M-4,0h8M0,-4v8" fill="none" stroke="white" stroke-width="1.5" pointer-events="none"/>
                </g>
                <g id="zoomMin">
                        <use xlink:href="#rim" fill="#404040">
                                <set attributeName="fill" to="#808080" begin="zoomminus.mouseover" end="zoomminus.mouseout"/>
                        </use>
                        <path d="M-4,0h8" fill="none" stroke="white" stroke-width="1.5" pointer-events="none"/>
                </g>
                <g id="dirArrow">
                        <path fill="none" stroke="white" stroke-width="1.5" d="M0,-3.0v7 M-2.5,-0.5L0,-3.0L2.5,-0.5"/>
                </g>
               <g id="resetDef">
                       <use xlink:href="#rim2" fill="#404040">
                               <set attributeName="fill" to="#808080" begin="reset.mouseover" end="reset.mouseout"/>
                       </use>
               </g>
        </defs>

<script type="text/javascript">
var viewWidth = 894;
var viewHeight = 149;
var sectionId = 'dynsection-8';
</script>
<script xlink:href="../../svgpan.js"/>
<svg id="graph" class="graph">
<g id="viewport">
<title>openage::console::Buf::clear</title>
<polygon fill="#ffffff" stroke="transparent" points="-4,4 -4,-145 890,-145 890,4 -4,4"/>
<!-- Node66 -->
<g id="node1" class="node">
<title>Node66</title>
<polygon fill="#bfbfbf" stroke="#000000" points="0,-66.5 0,-96.5 114,-96.5 114,-66.5 0,-66.5"/>
<text text-anchor="start" x="8" y="-84.5" font-family="Helvetica,sans-Serif" font-size="10.00" fill="#000000">openage::console::Buf</text>
<text text-anchor="middle" x="57" y="-73.5" font-family="Helvetica,sans-Serif" font-size="10.00" fill="#000000">::clear</text>
</g>
<!-- Node67 -->
<g id="node2" class="node">
<title>Node67</title>
<g id="a_node2"><a xlink:href="../../d9/db3/classopenage_1_1console_1_1_buf.xhtml#a752e54412ebbb08b3d8ac0edc90891ee" target="_top" xlink:title="advances the buffer by the specified number of lines. ">
<polygon fill="#ffffff" stroke="#000000" points="150,-110.5 150,-140.5 264,-140.5 264,-110.5 150,-110.5"/>
<text text-anchor="start" x="158" y="-128.5" font-family="Helvetica,sans-Serif" font-size="10.00" fill="#000000">openage::console::Buf</text>
<text text-anchor="middle" x="207" y="-117.5" font-family="Helvetica,sans-Serif" font-size="10.00" fill="#000000">::advance</text>
</a>
</g>
</g>
<!-- Node66&#45;&gt;Node67 -->
<g id="edge1" class="edge">
<title>Node66&#45;&gt;Node67</title>
<path fill="none" stroke="#191970" d="M118.0935,-99.4207C130.6051,-103.0908 143.6518,-106.9179 155.7743,-110.4738"/>
<polygon fill="#191970" stroke="#191970" points="118.7828,-95.9756 108.202,-96.5192 116.8125,-102.6925 118.7828,-95.9756"/>
</g>
<!-- Node71 -->
<g id="node6" class="node">
<title>Node71</title>
<g id="a_node6"><a xlink:href="../../d9/db3/classopenage_1_1console_1_1_buf.xhtml#a83a7e7db654360cff1c6796b169efc22" target="_top" xlink:title="processes the CSI escape sequence currently stored in escape_sequence. ">
<polygon fill="#ffffff" stroke="#000000" points="471.5,-58 471.5,-99 585.5,-99 585.5,-58 471.5,-58"/>
<text text-anchor="start" x="479.5" y="-87" font-family="Helvetica,sans-Serif" font-size="10.00" fill="#000000">openage::console::Buf</text>
<text text-anchor="start" x="479.5" y="-76" font-family="Helvetica,sans-Serif" font-size="10.00" fill="#000000">::process_csi_escape</text>
<text text-anchor="middle" x="528.5" y="-65" font-family="Helvetica,sans-Serif" font-size="10.00" fill="#000000">_sequence</text>
</a>
</g>
</g>
<!-- Node66&#45;&gt;Node71 -->
<g id="edge7" class="edge">
<title>Node66&#45;&gt;Node71</title>
<path fill="none" stroke="#191970" d="M124.4979,-81.0705C217.5984,-80.4782 383.7991,-79.4207 471.187,-78.8647"/>
<polygon fill="#191970" stroke="#191970" points="124.3213,-77.5715 114.3438,-81.1351 124.3659,-84.5713 124.3213,-77.5715"/>
</g>
<!-- Node72 -->
<g id="node7" class="node">
<title>Node72</title>
<g id="a_node7"><a xlink:href="../../d9/db3/classopenage_1_1console_1_1_buf.xhtml#a23267e4cb18a2921f14406e6307cbb95" target="_top" xlink:title="resets the buffer to its constructor defaults ">
<polygon fill="#ffffff" stroke="#000000" points="150,-22.5 150,-52.5 264,-52.5 264,-22.5 150,-22.5"/>
<text text-anchor="start" x="158" y="-40.5" font-family="Helvetica,sans-Serif" font-size="10.00" fill="#000000">openage::console::Buf</text>
<text text-anchor="middle" x="207" y="-29.5" font-family="Helvetica,sans-Serif" font-size="10.00" fill="#000000">::reset</text>
</a>
</g>
</g>
<!-- Node66&#45;&gt;Node72 -->
<g id="edge8" class="edge">
<title>Node66&#45;&gt;Node72</title>
<path fill="none" stroke="#191970" d="M118.0935,-63.5793C130.6051,-59.9092 143.6518,-56.0821 155.7743,-52.5262"/>
<polygon fill="#191970" stroke="#191970" points="116.8125,-60.3075 108.202,-66.4808 118.7828,-67.0244 116.8125,-60.3075"/>
</g>
<!-- Node68 -->
<g id="node3" class="node">
<title>Node68</title>
<g id="a_node3"><a xlink:href="../../d9/db3/classopenage_1_1console_1_1_buf.xhtml#ab2dd3bbdbc82ae2a4276a433b40aac91" target="_top" xlink:title="prints one unicode codepoint interally called by process_codepoint(int cp) after sorting out escape s...">
<polygon fill="#ffffff" stroke="#000000" points="310.5,-110.5 310.5,-140.5 424.5,-140.5 424.5,-110.5 310.5,-110.5"/>
<text text-anchor="start" x="318.5" y="-128.5" font-family="Helvetica,sans-Serif" font-size="10.00" fill="#000000">openage::console::Buf</text>
<text text-anchor="middle" x="367.5" y="-117.5" font-family="Helvetica,sans-Serif" font-size="10.00" fill="#000000">::print_codepoint</text>
</a>
</g>
</g>
<!-- Node67&#45;&gt;Node68 -->
<g id="edge2" class="edge">
<title>Node67&#45;&gt;Node68</title>
<path fill="none" stroke="#191970" d="M274.059,-125.5C286.1328,-125.5 298.6161,-125.5 310.3752,-125.5"/>
<polygon fill="#191970" stroke="#191970" points="274.0382,-122.0001 264.0382,-125.5 274.0382,-129.0001 274.0382,-122.0001"/>
</g>
<!-- Node69 -->
<g id="node4" class="node">
<title>Node69</title>
<g id="a_node4"><a xlink:href="../../d9/db3/classopenage_1_1console_1_1_buf.xhtml#adcdc21533ab920bd72f92f27333716bf" target="_top" xlink:title="processes one unicode codepoint internally called by write(char) after feeding the char into streamde...">
<polygon fill="#ffffff" stroke="#000000" points="622,-63.5 622,-93.5 736,-93.5 736,-63.5 622,-63.5"/>
<text text-anchor="start" x="630" y="-81.5" font-family="Helvetica,sans-Serif" font-size="10.00" fill="#000000">openage::console::Buf</text>
<text text-anchor="middle" x="679" y="-70.5" font-family="Helvetica,sans-Serif" font-size="10.00" fill="#000000">::process_codepoint</text>
</a>
</g>
</g>
<!-- Node68&#45;&gt;Node69 -->
<g id="edge3" class="edge">
<title>Node68&#45;&gt;Node69</title>
<path fill="none" stroke="#191970" d="M434.7615,-124.3323C478.2535,-122.5814 535.8906,-118.389 586,-108.5 603.8092,-104.9854 622.9779,-99.1678 639.2584,-93.5865"/>
<polygon fill="#191970" stroke="#191970" points="434.4494,-120.8414 424.5853,-124.708 434.7077,-127.8366 434.4494,-120.8414"/>
</g>
<!-- Node68&#45;&gt;Node71 -->
<g id="edge5" class="edge">
<title>Node68&#45;&gt;Node71</title>
<path fill="none" stroke="#191970" d="M428.4872,-107.6963C442.5879,-103.5799 457.5386,-99.2154 471.463,-95.1505"/>
<polygon fill="#191970" stroke="#191970" points="427.5026,-104.3376 418.8841,-110.4997 429.4642,-111.0571 427.5026,-104.3376"/>
</g>
<!-- Node70 -->
<g id="node5" class="node">
<title>Node70</title>
<g id="a_node5"><a xlink:href="../../d9/db3/classopenage_1_1console_1_1_buf.xhtml#a7f70c41ed91a5283fd2dd337b7493eaa" target="_top" xlink:title="write a single byte to the buffer. ">
<polygon fill="#ffffff" stroke="#000000" points="772,-63.5 772,-93.5 886,-93.5 886,-63.5 772,-63.5"/>
<text text-anchor="start" x="780" y="-81.5" font-family="Helvetica,sans-Serif" font-size="10.00" fill="#000000">openage::console::Buf</text>
<text text-anchor="middle" x="829" y="-70.5" font-family="Helvetica,sans-Serif" font-size="10.00" fill="#000000">::write</text>
</a>
</g>
</g>
<!-- Node69&#45;&gt;Node70 -->
<g id="edge4" class="edge">
<title>Node69&#45;&gt;Node70</title>
<path fill="none" stroke="#191970" d="M746.3106,-78.5C754.7284,-78.5 763.2768,-78.5 771.5255,-78.5"/>
<polygon fill="#191970" stroke="#191970" points="746.1365,-75.0001 736.1365,-78.5 746.1364,-82.0001 746.1365,-75.0001"/>
</g>
<!-- Node71&#45;&gt;Node69 -->
<g id="edge6" class="edge">
<title>Node71&#45;&gt;Node69</title>
<path fill="none" stroke="#191970" d="M595.8998,-78.5C604.5589,-78.5 613.3583,-78.5 621.8325,-78.5"/>
<polygon fill="#191970" stroke="#191970" points="595.827,-75.0001 585.8269,-78.5 595.8269,-82.0001 595.827,-75.0001"/>
</g>
<!-- Node73 -->
<g id="node8" class="node">
<title>Node73</title>
<g id="a_node8"><a xlink:href="../../d9/db3/classopenage_1_1console_1_1_buf.xhtml#a51a780e9a4df80cdb56f8d94186d527e" target="_top" xlink:title="openage::console::Buf::Buf">
<polygon fill="#ffffff" stroke="#000000" points="300,-34 300,-53 435,-53 435,-34 300,-34"/>
<text text-anchor="middle" x="367.5" y="-41" font-family="Helvetica,sans-Serif" font-size="10.00" fill="#000000">openage::console::Buf::Buf</text>
</a>
</g>
</g>
<!-- Node72&#45;&gt;Node73 -->
<g id="edge9" class="edge">
<title>Node72&#45;&gt;Node73</title>
<path fill="none" stroke="#191970" d="M274.2694,-40.0147C282.7598,-40.3321 291.4493,-40.657 299.9441,-40.9745"/>
<polygon fill="#191970" stroke="#191970" points="274.162,-36.5084 264.0382,-39.6323 273.9004,-43.5035 274.162,-36.5084"/>
</g>
<!-- Node74 -->
<g id="node9" class="node">
<title>Node74</title>
<g id="a_node9"><a xlink:href="../../d9/db3/classopenage_1_1console_1_1_buf.xhtml#a809f4a27cd3bf92c2458a5b3176fae43" target="_top" xlink:title="processes a single&#45;codepoint escape sequence. ">
<polygon fill="#ffffff" stroke="#000000" points="471,-.5 471,-30.5 586,-30.5 586,-.5 471,-.5"/>
<text text-anchor="start" x="479" y="-18.5" font-family="Helvetica,sans-Serif" font-size="10.00" fill="#000000">openage::console::Buf</text>
<text text-anchor="middle" x="528.5" y="-7.5" font-family="Helvetica,sans-Serif" font-size="10.00" fill="#000000">::process_escaped_cp</text>
</a>
</g>
</g>
<!-- Node72&#45;&gt;Node74 -->
<g id="edge10" class="edge">
<title>Node72&#45;&gt;Node74</title>
<path fill="none" stroke="#191970" d="M274.4505,-27.2679C283.0351,-26.2024 291.7135,-25.2405 300,-24.5 357.931,-19.3231 424.3891,-17.124 470.6431,-16.1898"/>
<polygon fill="#191970" stroke="#191970" points="273.9146,-23.8079 264.4449,-28.5593 274.8107,-30.7504 273.9146,-23.8079"/>
</g>
<!-- Node74&#45;&gt;Node69 -->
<g id="edge11" class="edge">
<title>Node74&#45;&gt;Node69</title>
<path fill="none" stroke="#191970" d="M574.0584,-34.571C596.1513,-43.8192 622.311,-54.7697 642.9851,-63.424"/>
<polygon fill="#191970" stroke="#191970" points="575.1244,-31.223 564.5485,-30.5901 572.4214,-37.6801 575.1244,-31.223"/>
</g>
</g>
</svg>
        <g id="navigator" transform="translate(0 0)" fill="#404254">
                <rect fill="#f2f5e9" fill-opacity="0.5" stroke="#606060" stroke-width=".5" x="0" y="0" width="60" height="60"/>
                <use id="zoomplus" xlink:href="#zoomPlus" x="17" y="9" onmousedown="handleZoom(evt,'in')"/>
                <use id="zoomminus" xlink:href="#zoomMin" x="42" y="9" onmousedown="handleZoom(evt,'out')"/>
                <use id="reset" xlink:href="#resetDef" x="30" y="36" onmousedown="handleReset()"/>
                <g id="arrowUp" xlink:href="#dirArrow" transform="translate(30 24)" onmousedown="handlePan(0,-1)">
                  <use xlink:href="#rim" fill="#404040">
                        <set attributeName="fill" to="#808080" begin="arrowUp.mouseover" end="arrowUp.mouseout"/>
                  </use>
                  <path fill="none" stroke="white" stroke-width="1.5" d="M0,-3.0v7 M-2.5,-0.5L0,-3.0L2.5,-0.5"/>
                </g>
                <g id="arrowRight" xlink:href="#dirArrow" transform="rotate(90) translate(36 -43)" onmousedown="handlePan(1,0)">
                  <use xlink:href="#rim" fill="#404040">
                        <set attributeName="fill" to="#808080" begin="arrowRight.mouseover" end="arrowRight.mouseout"/>
                  </use>
                  <path fill="none" stroke="white" stroke-width="1.5" d="M0,-3.0v7 M-2.5,-0.5L0,-3.0L2.5,-0.5"/>
                </g>
                <g id="arrowDown" xlink:href="#dirArrow" transform="rotate(180) translate(-30 -48)" onmousedown="handlePan(0,1)">
                  <use xlink:href="#rim" fill="#404040">
                        <set attributeName="fill" to="#808080" begin="arrowDown.mouseover" end="arrowDown.mouseout"/>
                  </use>
                  <path fill="none" stroke="white" stroke-width="1.5" d="M0,-3.0v7 M-2.5,-0.5L0,-3.0L2.5,-0.5"/>
                </g>
                <g id="arrowLeft" xlink:href="#dirArrow" transform="rotate(270) translate(-36 17)" onmousedown="handlePan(-1,0)">
                  <use xlink:href="#rim" fill="#404040">
                        <set attributeName="fill" to="#808080" begin="arrowLeft.mouseover" end="arrowLeft.mouseout"/>
                  </use>
                  <path fill="none" stroke="white" stroke-width="1.5" d="M0,-3.0v7 M-2.5,-0.5L0,-3.0L2.5,-0.5"/>
                </g>
        </g>
        <svg viewBox="0 0 15 15" width="100%" height="30px" preserveAspectRatio="xMaxYMin meet">
         <g id="arrow_out" transform="scale(0.3 0.3)">
          <a xlink:href="classopenage_1_1console_1_1_buf_af6b49e0178333e01a08fd61ca2006219_icgraph_org.svg" target="_base">
           <rect id="button" ry="5" rx="5" y="6" x="6" height="38" width="38"
                fill="#f2f5e9" fill-opacity="0.5" stroke="#606060" stroke-width="1.0"/>
           <path id="arrow"
             d="M 11.500037,31.436501 C 11.940474,20.09759 22.043105,11.32322 32.158766,21.979434 L 37.068811,17.246167 C 37.068811,17.246167 37.088388,32 37.088388,32 L 22.160133,31.978069 C 22.160133,31.978069 26.997745,27.140456 26.997745,27.140456 C 18.528582,18.264221 13.291696,25.230495 11.500037,31.436501 z"
             style="fill:#404040;"/>
          </a>
         </g>
        </svg>
</svg>
