<?xml version="1.0" encoding="UTF-8" standalone="no"?>
<!DOCTYPE svg PUBLIC "-//W3C//DTD SVG 1.1//EN"
 "http://www.w3.org/Graphics/SVG/1.1/DTD/svg11.dtd">
<!-- Generated by graphviz version 2.40.1 (20161225.0304)
 -->
<!-- Title: /mnt/c/Users/Jameson/Desktop/git/openage&#45;new&#45;doc&#45;system/libopenage/cvar/cvar.h Pages: 1 -->
<svg width="1348pt" height="733pt"
 viewBox="0.00 0.00 1348.00 733.45" xmlns="http://www.w3.org/2000/svg" xmlns:xlink="http://www.w3.org/1999/xlink">
<g id="graph0" class="graph" transform="scale(1 1) rotate(0) translate(4 729.4516)">
<title>/mnt/c/Users/Jameson/Desktop/git/openage&#45;new&#45;doc&#45;system/libopenage/cvar/cvar.h</title>
<polygon fill="#ffffff" stroke="transparent" points="-4,4 -4,-729.4516 1344,-729.4516 1344,4 -4,4"/>
<!-- Node0 -->
<g id="node1" class="node">
<title>Node0</title>
<polygon fill="#bfbfbf" stroke="#000000" points="346.5,-672.9516 346.5,-724.9516 487.5,-724.9516 487.5,-672.9516 346.5,-672.9516"/>
<text text-anchor="start" x="354.5" y="-712.9516" font-family="Helvetica,sans-Serif" font-size="10.00" fill="#000000">/mnt/c/Users/Jameson</text>
<text text-anchor="start" x="354.5" y="-701.9516" font-family="Helvetica,sans-Serif" font-size="10.00" fill="#000000">/Desktop/git/openage</text>
<text text-anchor="start" x="354.5" y="-690.9516" font-family="Helvetica,sans-Serif" font-size="10.00" fill="#000000">&#45;new&#45;doc&#45;system/libopenage</text>
<text text-anchor="middle" x="417" y="-679.9516" font-family="Helvetica,sans-Serif" font-size="10.00" fill="#000000">/cvar/cvar.h</text>
</g>
<!-- Node1 -->
<g id="node2" class="node">
<title>Node1</title>
<polygon fill="#ffffff" stroke="#bfbfbf" points="44.5,-112.9516 44.5,-131.9516 103.5,-131.9516 103.5,-112.9516 44.5,-112.9516"/>
<text text-anchor="middle" x="74" y="-119.9516" font-family="Helvetica,sans-Serif" font-size="10.00" fill="#000000">functional</text>
</g>
<!-- Node0&#45;&gt;Node1 -->
<g id="edge1" class="edge">
<title>Node0&#45;&gt;Node1</title>
<path fill="none" stroke="#191970" d="M346.2616,-691.8641C227.2897,-677.9639 0,-642.0403 0,-570.4516 0,-570.4516 0,-570.4516 0,-234.4516 0,-195.0147 32.3332,-158.7775 54.2544,-138.7413"/>
<polygon fill="#191970" stroke="#191970" points="56.5867,-141.3511 61.7804,-132.1166 51.9616,-136.0968 56.5867,-141.3511"/>
</g>
<!-- Node2 -->
<g id="node3" class="node">
<title>Node2</title>
<polygon fill="#ffffff" stroke="#bfbfbf" points="271,-616.9516 271,-635.9516 319,-635.9516 319,-616.9516 271,-616.9516"/>
<text text-anchor="middle" x="295" y="-623.9516" font-family="Helvetica,sans-Serif" font-size="10.00" fill="#000000">stdlib.h</text>
</g>
<!-- Node0&#45;&gt;Node2 -->
<g id="edge2" class="edge">
<title>Node0&#45;&gt;Node2</title>
<path fill="none" stroke="#191970" d="M372.9552,-672.7775C355.0943,-662.1634 335.1267,-650.2974 319.8718,-641.232"/>
<polygon fill="#191970" stroke="#191970" points="321.4281,-638.0855 311.0434,-635.9856 317.852,-644.1031 321.4281,-638.0855"/>
</g>
<!-- Node3 -->
<g id="node4" class="node">
<title>Node3</title>
<polygon fill="#ffffff" stroke="#bfbfbf" points="1032.5,-.9516 1032.5,-19.9516 1073.5,-19.9516 1073.5,-.9516 1032.5,-.9516"/>
<text text-anchor="middle" x="1053" y="-7.9516" font-family="Helvetica,sans-Serif" font-size="10.00" fill="#000000">string</text>
</g>
<!-- Node0&#45;&gt;Node3 -->
<g id="edge3" class="edge">
<title>Node0&#45;&gt;Node3</title>
<path fill="none" stroke="#191970" d="M487.5749,-696.1911C651.9512,-689.2842 1056.3416,-669.4065 1188,-636.4516 1259.445,-618.5685 1340,-644.1008 1340,-570.4516 1340,-570.4516 1340,-570.4516 1340,-122.4516 1340,-82.5085 1313.806,-76.0476 1279,-56.4516 1245.8809,-37.8054 1137.5969,-21.5173 1083.8425,-14.3441"/>
<polygon fill="#191970" stroke="#191970" points="1084.2277,-10.8648 1073.8571,-13.033 1083.3163,-17.8052 1084.2277,-10.8648"/>
</g>
<!-- Node4 -->
<g id="node5" class="node">
<title>Node4</title>
<polygon fill="#ffffff" stroke="#bfbfbf" points="375.5,-616.9516 375.5,-635.9516 458.5,-635.9516 458.5,-616.9516 375.5,-616.9516"/>
<text text-anchor="middle" x="417" y="-623.9516" font-family="Helvetica,sans-Serif" font-size="10.00" fill="#000000">unordered_map</text>
</g>
<!-- Node0&#45;&gt;Node4 -->
<g id="edge4" class="edge">
<title>Node0&#45;&gt;Node4</title>
<path fill="none" stroke="#191970" d="M417,-672.7775C417,-663.9658 417,-654.2913 417,-646.0727"/>
<polygon fill="#191970" stroke="#191970" points="420.5001,-645.9856 417,-635.9856 413.5001,-645.9857 420.5001,-645.9856"/>
</g>
<!-- Node5 -->
<g id="node6" class="node">
<title>Node5</title>
<polygon fill="#ffffff" stroke="#bfbfbf" points="477,-616.9516 477,-635.9516 517,-635.9516 517,-616.9516 477,-616.9516"/>
<text text-anchor="middle" x="497" y="-623.9516" font-family="Helvetica,sans-Serif" font-size="10.00" fill="#000000">utility</text>
</g>
<!-- Node0&#45;&gt;Node5 -->
<g id="edge5" class="edge">
<title>Node0&#45;&gt;Node5</title>
<path fill="none" stroke="#191970" d="M445.8818,-672.7775C456.931,-662.7642 469.2095,-651.6367 478.9631,-642.7976"/>
<polygon fill="#191970" stroke="#191970" points="481.4202,-645.2943 486.4797,-635.9856 476.7195,-640.1074 481.4202,-645.2943"/>
</g>
<!-- Node6 -->
<g id="node7" class="node">
<title>Node6</title>
<g id="a_node7"><a xlink:href="../../d8/dea/functional_8h.xhtml" target="_top" xlink:title="../pyinterface/functional.h">
<polygon fill="#ffffff" stroke="#000000" points="199.5,-448.9516 199.5,-467.9516 326.5,-467.9516 326.5,-448.9516 199.5,-448.9516"/>
<text text-anchor="middle" x="263" y="-455.9516" font-family="Helvetica,sans-Serif" font-size="10.00" fill="#000000">../pyinterface/functional.h</text>
</a>
</g>
</g>
<!-- Node0&#45;&gt;Node6 -->
<g id="edge6" class="edge">
<title>Node0&#45;&gt;Node6</title>
<path fill="none" stroke="#191970" d="M394.7066,-672.8414C385.7219,-661.8795 375.4955,-648.8228 367,-636.4516 328.6246,-580.5694 290.1046,-509.9401 272.6608,-476.9757"/>
<polygon fill="#191970" stroke="#191970" points="275.6996,-475.2343 267.9474,-468.0126 269.504,-478.4924 275.6996,-475.2343"/>
</g>
<!-- Node37 -->
<g id="node38" class="node">
<title>Node37</title>
<g id="a_node38"><a xlink:href="../../d1/d11/util_2path_8h.xhtml" target="_top" xlink:title="../util/path.h">
<polygon fill="#ffffff" stroke="#000000" points="1111,-616.9516 1111,-635.9516 1179,-635.9516 1179,-616.9516 1111,-616.9516"/>
<text text-anchor="middle" x="1145" y="-623.9516" font-family="Helvetica,sans-Serif" font-size="10.00" fill="#000000">../util/path.h</text>
</a>
</g>
</g>
<!-- Node0&#45;&gt;Node37 -->
<g id="edge56" class="edge">
<title>Node0&#45;&gt;Node37</title>
<path fill="none" stroke="#191970" d="M487.7969,-691.9011C636.7415,-677.068 978.789,-643.0042 1100.7763,-630.8558"/>
<polygon fill="#191970" stroke="#191970" points="1101.2676,-634.3243 1110.8715,-629.8504 1100.5739,-627.3587 1101.2676,-634.3243"/>
</g>
<!-- Node6&#45;&gt;Node1 -->
<g id="edge7" class="edge">
<title>Node6&#45;&gt;Node1</title>
<path fill="none" stroke="#191970" d="M199.4475,-451.4C146.7813,-444.3014 77.3806,-431.633 57,-412.4516 34.7718,-391.5313 38,-376.9763 38,-346.4516 38,-346.4516 38,-346.4516 38,-234.4516 38,-200.2458 53.4074,-162.861 64.0631,-141.0962"/>
<polygon fill="#191970" stroke="#191970" points="67.273,-142.5053 68.6881,-132.0054 61.0341,-139.3311 67.273,-142.5053"/>
</g>
<!-- Node7 -->
<g id="node8" class="node">
<title>Node7</title>
<polygon fill="#ffffff" stroke="#bfbfbf" points="288,-168.9516 288,-187.9516 332,-187.9516 332,-168.9516 288,-168.9516"/>
<text text-anchor="middle" x="310" y="-175.9516" font-family="Helvetica,sans-Serif" font-size="10.00" fill="#000000">mutex</text>
</g>
<!-- Node6&#45;&gt;Node7 -->
<g id="edge8" class="edge">
<title>Node6&#45;&gt;Node7</title>
<path fill="none" stroke="#191970" d="M269.6827,-448.7668C281.9915,-429.9545 307,-386.7715 307,-346.4516 307,-346.4516 307,-346.4516 307,-290.4516 307,-258.1516 308.2622,-220.6307 309.1492,-198.2521"/>
<polygon fill="#191970" stroke="#191970" points="312.6553,-198.1734 309.5702,-188.0377 305.6613,-197.8851 312.6553,-198.1734"/>
</g>
<!-- Node8 -->
<g id="node9" class="node">
<title>Node8</title>
<g id="a_node9"><a xlink:href="../../d4/dd1/compiler_8h.xhtml" target="_top" xlink:title="../util/compiler.h">
<polygon fill="#ffffff" stroke="#000000" points="281,-56.9516 281,-75.9516 367,-75.9516 367,-56.9516 281,-56.9516"/>
<text text-anchor="middle" x="324" y="-63.9516" font-family="Helvetica,sans-Serif" font-size="10.00" fill="#000000">../util/compiler.h</text>
</a>
</g>
</g>
<!-- Node6&#45;&gt;Node8 -->
<g id="edge9" class="edge">
<title>Node6&#45;&gt;Node8</title>
<path fill="none" stroke="#191970" d="M256.773,-448.702C245.3034,-429.779 222,-386.4149 222,-346.4516 222,-346.4516 222,-346.4516 222,-178.4516 222,-134.1203 266.2224,-99.6107 296.4309,-81.2087"/>
<polygon fill="#191970" stroke="#191970" points="298.4297,-84.0943 305.2916,-76.0218 294.8934,-78.0532 298.4297,-84.0943"/>
</g>
<!-- Node11 -->
<g id="node12" class="node">
<title>Node11</title>
<g id="a_node12"><a xlink:href="../../d8/dce/language_8h.xhtml" target="_top" xlink:title="../util/language.h">
<polygon fill="#ffffff" stroke="#000000" points="66.5,-392.9516 66.5,-411.9516 155.5,-411.9516 155.5,-392.9516 66.5,-392.9516"/>
<text text-anchor="middle" x="111" y="-399.9516" font-family="Helvetica,sans-Serif" font-size="10.00" fill="#000000">../util/language.h</text>
</a>
</g>
</g>
<!-- Node6&#45;&gt;Node11 -->
<g id="edge14" class="edge">
<title>Node6&#45;&gt;Node11</title>
<path fill="none" stroke="#191970" d="M236.8703,-448.8249C211.9232,-439.6339 174.1408,-425.714 146.4794,-415.523"/>
<polygon fill="#191970" stroke="#191970" points="147.3822,-412.1257 136.7888,-411.9528 144.9622,-418.6941 147.3822,-412.1257"/>
</g>
<!-- Node12 -->
<g id="node13" class="node">
<title>Node12</title>
<g id="a_node13"><a xlink:href="../../dd/d5f/exctranslate_8h.xhtml" target="_top" xlink:title="exctranslate.h">
<polygon fill="#ffffff" stroke="#000000" points="368,-392.9516 368,-411.9516 446,-411.9516 446,-392.9516 368,-392.9516"/>
<text text-anchor="middle" x="407" y="-399.9516" font-family="Helvetica,sans-Serif" font-size="10.00" fill="#000000">exctranslate.h</text>
</a>
</g>
</g>
<!-- Node6&#45;&gt;Node12 -->
<g id="edge15" class="edge">
<title>Node6&#45;&gt;Node12</title>
<path fill="none" stroke="#191970" d="M287.7545,-448.8249C311.2849,-439.6742 346.8687,-425.836 373.0426,-415.6573"/>
<polygon fill="#191970" stroke="#191970" points="374.5171,-418.8393 382.5685,-411.9528 371.9799,-412.3153 374.5171,-418.8393"/>
</g>
<!-- Node36 -->
<g id="node37" class="node">
<title>Node36</title>
<g id="a_node37"><a xlink:href="../../d7/df7/setup_8h.xhtml" target="_top" xlink:title="setup.h">
<polygon fill="#ffffff" stroke="#000000" points="144.5,-168.9516 144.5,-187.9516 193.5,-187.9516 193.5,-168.9516 144.5,-168.9516"/>
<text text-anchor="middle" x="169" y="-175.9516" font-family="Helvetica,sans-Serif" font-size="10.00" fill="#000000">setup.h</text>
</a>
</g>
</g>
<!-- Node6&#45;&gt;Node36 -->
<g id="edge53" class="edge">
<title>Node6&#45;&gt;Node36</title>
<path fill="none" stroke="#191970" d="M247.5403,-448.8525C235.3069,-440.5536 218.577,-427.536 208,-412.4516 190.0804,-386.8956 184,-377.6642 184,-346.4516 184,-346.4516 184,-346.4516 184,-290.4516 184,-257.7255 177.6307,-220.0927 173.193,-197.8439"/>
<polygon fill="#191970" stroke="#191970" points="176.6058,-197.0639 171.1491,-187.9823 169.7515,-198.4846 176.6058,-197.0639"/>
</g>
<!-- Node8&#45;&gt;Node3 -->
<g id="edge11" class="edge">
<title>Node8&#45;&gt;Node3</title>
<path fill="none" stroke="#191970" d="M367.0308,-57.8909C370.3966,-57.3565 373.7492,-56.8674 377,-56.4516 624.736,-24.7648 926.5288,-13.997 1022.3086,-11.2448"/>
<polygon fill="#191970" stroke="#191970" points="1022.5513,-14.7395 1032.4497,-10.9616 1022.3559,-7.7422 1022.5513,-14.7395"/>
</g>
<!-- Node9 -->
<g id="node10" class="node">
<title>Node9</title>
<polygon fill="#ffffff" stroke="#bfbfbf" points="265,-.9516 265,-19.9516 315,-19.9516 315,-.9516 265,-.9516"/>
<text text-anchor="middle" x="290" y="-7.9516" font-family="Helvetica,sans-Serif" font-size="10.00" fill="#000000">ciso646</text>
</g>
<!-- Node8&#45;&gt;Node9 -->
<g id="edge10" class="edge">
<title>Node8&#45;&gt;Node9</title>
<path fill="none" stroke="#191970" d="M318.0777,-56.6972C313.3973,-48.9884 306.7327,-38.0114 301.0711,-28.6864"/>
<polygon fill="#191970" stroke="#191970" points="304.0361,-26.8258 295.8545,-20.0943 298.0525,-30.4586 304.0361,-26.8258"/>
</g>
<!-- Node10 -->
<g id="node11" class="node">
<title>Node10</title>
<g id="a_node11"><a xlink:href="../../d8/d39/signal_8h.xhtml" target="_top" xlink:title="signal.h">
<polygon fill="#ffffff" stroke="#000000" points="333,-.9516 333,-19.9516 383,-19.9516 383,-.9516 333,-.9516"/>
<text text-anchor="middle" x="358" y="-7.9516" font-family="Helvetica,sans-Serif" font-size="10.00" fill="#000000">signal.h</text>
</a>
</g>
</g>
<!-- Node8&#45;&gt;Node10 -->
<g id="edge12" class="edge">
<title>Node8&#45;&gt;Node10</title>
<path fill="none" stroke="#191970" d="M329.9223,-56.6972C334.6027,-48.9884 341.2673,-38.0114 346.9289,-28.6864"/>
<polygon fill="#191970" stroke="#191970" points="349.9475,-30.4586 352.1455,-20.0943 343.9639,-26.8258 349.9475,-30.4586"/>
</g>
<!-- Node10&#45;&gt;Node10 -->
<g id="edge13" class="edge">
<title>Node10&#45;&gt;Node10</title>
<path fill="none" stroke="#191970" d="M376.5634,-20.0262C388.9465,-22.7213 401,-19.5298 401,-10.4516 401,-3.9267 394.7731,-.4429 386.6726,0"/>
<polygon fill="#191970" stroke="#191970" points="386.2234,3.4743 376.5634,-.877 386.8285,-3.4995 386.2234,3.4743"/>
</g>
<!-- Node13 -->
<g id="node14" class="node">
<title>Node13</title>
<g id="a_node14"><a xlink:href="../../d7/dce/error_2error_8h.xhtml" target="_top" xlink:title="../error/error.h">
<polygon fill="#ffffff" stroke="#000000" points="405,-336.9516 405,-355.9516 481,-355.9516 481,-336.9516 405,-336.9516"/>
<text text-anchor="middle" x="443" y="-343.9516" font-family="Helvetica,sans-Serif" font-size="10.00" fill="#000000">../error/error.h</text>
</a>
</g>
</g>
<!-- Node12&#45;&gt;Node13 -->
<g id="edge16" class="edge">
<title>Node12&#45;&gt;Node13</title>
<path fill="none" stroke="#191970" d="M413.2707,-392.6972C418.2264,-384.9884 425.283,-374.0114 431.2776,-364.6864"/>
<polygon fill="#191970" stroke="#191970" points="434.3376,-366.3988 436.8011,-356.0943 428.4494,-362.6134 434.3376,-366.3988"/>
</g>
<!-- Node13&#45;&gt;Node3 -->
<g id="edge20" class="edge">
<title>Node13&#45;&gt;Node3</title>
<path fill="none" stroke="#191970" d="M481.1047,-344.8464C577.2073,-340.4509 827.3863,-326.7573 906,-300.4516 951.3941,-285.2618 967.9673,-281.7262 998,-244.4516 1047.5595,-182.9418 1042.931,-154.3542 1056,-76.4516 1058.5539,-61.228 1057.5936,-43.7709 1056.1081,-30.6357"/>
<polygon fill="#191970" stroke="#191970" points="1059.5307,-29.8211 1054.7426,-20.3699 1052.5918,-30.7442 1059.5307,-29.8211"/>
</g>
<!-- Node13&#45;&gt;Node8 -->
<g id="edge21" class="edge">
<title>Node13&#45;&gt;Node8</title>
<path fill="none" stroke="#191970" d="M404.6372,-340.5166C350.9757,-329.7884 260,-301.6857 260,-234.4516 260,-234.4516 260,-234.4516 260,-178.4516 260,-140.6895 287.7654,-104.0828 306.7202,-83.492"/>
<polygon fill="#191970" stroke="#191970" points="309.3365,-85.8203 313.7173,-76.1735 304.2769,-80.9828 309.3365,-85.8203"/>
</g>
<!-- Node14 -->
<g id="node15" class="node">
<title>Node14</title>
<polygon fill="#ffffff" stroke="#bfbfbf" points="487,-56.9516 487,-75.9516 541,-75.9516 541,-56.9516 487,-56.9516"/>
<text text-anchor="middle" x="514" y="-63.9516" font-family="Helvetica,sans-Serif" font-size="10.00" fill="#000000">iostream</text>
</g>
<!-- Node13&#45;&gt;Node14 -->
<g id="edge17" class="edge">
<title>Node13&#45;&gt;Node14</title>
<path fill="none" stroke="#191970" d="M444.9156,-336.9472C446.7756,-327.6526 449.6541,-313.0931 452,-300.4516 467.4785,-217.0427 454.471,-191.601 485,-112.4516 488.8014,-102.5961 494.8198,-92.5683 500.391,-84.4014"/>
<polygon fill="#191970" stroke="#191970" points="503.3732,-86.2483 506.349,-76.08 497.6817,-82.1732 503.3732,-86.2483"/>
</g>
<!-- Node15 -->
<g id="node16" class="node">
<title>Node15</title>
<polygon fill="#ffffff" stroke="#bfbfbf" points="953,-112.9516 953,-131.9516 1005,-131.9516 1005,-112.9516 953,-112.9516"/>
<text text-anchor="middle" x="979" y="-119.9516" font-family="Helvetica,sans-Serif" font-size="10.00" fill="#000000">memory</text>
</g>
<!-- Node13&#45;&gt;Node15 -->
<g id="edge18" class="edge">
<title>Node13&#45;&gt;Node15</title>
<path fill="none" stroke="#191970" d="M481.0051,-345.2809C592.6585,-340.961 915.8048,-321.869 979,-244.4516 1002.7791,-215.321 993.576,-167.9183 985.7011,-141.5979"/>
<polygon fill="#191970" stroke="#191970" points="989.0131,-140.4645 982.6115,-132.0224 982.3513,-142.614 989.0131,-140.4645"/>
</g>
<!-- Node16 -->
<g id="node17" class="node">
<title>Node16</title>
<polygon fill="#ffffff" stroke="#bfbfbf" points="383.5,-280.9516 383.5,-299.9516 442.5,-299.9516 442.5,-280.9516 383.5,-280.9516"/>
<text text-anchor="middle" x="413" y="-287.9516" font-family="Helvetica,sans-Serif" font-size="10.00" fill="#000000">stdexcept</text>
</g>
<!-- Node13&#45;&gt;Node16 -->
<g id="edge19" class="edge">
<title>Node13&#45;&gt;Node16</title>
<path fill="none" stroke="#191970" d="M437.7744,-336.6972C433.6877,-329.0687 427.8865,-318.2398 422.925,-308.9784"/>
<polygon fill="#191970" stroke="#191970" points="425.9732,-307.2563 418.1657,-300.0943 419.8028,-310.5619 425.9732,-307.2563"/>
</g>
<!-- Node17 -->
<g id="node18" class="node">
<title>Node17</title>
<g id="a_node18"><a xlink:href="../../d2/d0d/message_8h.xhtml" target="_top" xlink:title="../log/message.h">
<polygon fill="#ffffff" stroke="#000000" points="606.5,-280.9516 606.5,-299.9516 695.5,-299.9516 695.5,-280.9516 606.5,-280.9516"/>
<text text-anchor="middle" x="651" y="-287.9516" font-family="Helvetica,sans-Serif" font-size="10.00" fill="#000000">../log/message.h</text>
</a>
</g>
</g>
<!-- Node13&#45;&gt;Node17 -->
<g id="edge22" class="edge">
<title>Node13&#45;&gt;Node17</title>
<path fill="none" stroke="#191970" d="M478.7565,-336.8249C513.9426,-327.3517 567.7881,-312.8548 605.8956,-302.5951"/>
<polygon fill="#191970" stroke="#191970" points="606.9639,-305.9322 615.7101,-299.9528 605.144,-299.1729 606.9639,-305.9322"/>
</g>
<!-- Node17&#45;&gt;Node3 -->
<g id="edge24" class="edge">
<title>Node17&#45;&gt;Node3</title>
<path fill="none" stroke="#191970" d="M695.8963,-287.6883C742.999,-283.3623 818.2166,-272.3461 877,-244.4516 912.5263,-227.5933 991.8797,-164.9634 1014,-132.4516 1035.7922,-100.4221 1045.9858,-55.4847 1050.2746,-30.0422"/>
<polygon fill="#191970" stroke="#191970" points="1053.7375,-30.5507 1051.8092,-20.1328 1046.8199,-29.4794 1053.7375,-30.5507"/>
</g>
<!-- Node18 -->
<g id="node19" class="node">
<title>Node18</title>
<polygon fill="#ffffff" stroke="#bfbfbf" points="924,-224.9516 924,-243.9516 970,-243.9516 970,-224.9516 924,-224.9516"/>
<text text-anchor="middle" x="947" y="-231.9516" font-family="Helvetica,sans-Serif" font-size="10.00" fill="#000000">cstdint</text>
</g>
<!-- Node17&#45;&gt;Node18 -->
<g id="edge23" class="edge">
<title>Node17&#45;&gt;Node18</title>
<path fill="none" stroke="#191970" d="M695.6927,-283.7418C747.5047,-275.6797 835.346,-261.1354 910,-244.4516 911.2785,-244.1659 912.5792,-243.865 913.891,-243.5529"/>
<polygon fill="#191970" stroke="#191970" points="915.1441,-246.8466 923.9853,-241.0086 913.4332,-240.0589 915.1441,-246.8466"/>
</g>
<!-- Node19 -->
<g id="node20" class="node">
<title>Node19</title>
<polygon fill="#ffffff" stroke="#bfbfbf" points="575.5,-224.9516 575.5,-243.9516 626.5,-243.9516 626.5,-224.9516 575.5,-224.9516"/>
<text text-anchor="middle" x="601" y="-231.9516" font-family="Helvetica,sans-Serif" font-size="10.00" fill="#000000">config.h</text>
</g>
<!-- Node17&#45;&gt;Node19 -->
<g id="edge25" class="edge">
<title>Node17&#45;&gt;Node19</title>
<path fill="none" stroke="#191970" d="M642.2907,-280.6972C635.1927,-272.7475 624.9916,-261.3222 616.505,-251.8172"/>
<polygon fill="#191970" stroke="#191970" points="618.8805,-249.2226 609.6095,-244.0943 613.6589,-253.8848 618.8805,-249.2226"/>
</g>
<!-- Node20 -->
<g id="node21" class="node">
<title>Node20</title>
<g id="a_node21"><a xlink:href="../../d1/d06/constexpr_8h.xhtml" target="_top" xlink:title="../util/constexpr.h">
<polygon fill="#ffffff" stroke="#000000" points="776,-224.9516 776,-243.9516 868,-243.9516 868,-224.9516 776,-224.9516"/>
<text text-anchor="middle" x="822" y="-231.9516" font-family="Helvetica,sans-Serif" font-size="10.00" fill="#000000">../util/constexpr.h</text>
</a>
</g>
</g>
<!-- Node17&#45;&gt;Node20 -->
<g id="edge26" class="edge">
<title>Node17&#45;&gt;Node20</title>
<path fill="none" stroke="#191970" d="M680.3959,-280.8249C708.8307,-271.5129 752.0877,-257.3469 783.3081,-247.1227"/>
<polygon fill="#191970" stroke="#191970" points="784.5736,-250.3912 792.9876,-243.9528 782.395,-243.7389 784.5736,-250.3912"/>
</g>
<!-- Node22 -->
<g id="node23" class="node">
<title>Node22</title>
<g id="a_node23"><a xlink:href="../../de/d65/stringformatter_8h.xhtml" target="_top" xlink:title="../util/stringformatter.h">
<polygon fill="#ffffff" stroke="#000000" points="644.5,-224.9516 644.5,-243.9516 757.5,-243.9516 757.5,-224.9516 644.5,-224.9516"/>
<text text-anchor="middle" x="701" y="-231.9516" font-family="Helvetica,sans-Serif" font-size="10.00" fill="#000000">../util/stringformatter.h</text>
</a>
</g>
</g>
<!-- Node17&#45;&gt;Node22 -->
<g id="edge28" class="edge">
<title>Node17&#45;&gt;Node22</title>
<path fill="none" stroke="#191970" d="M659.7093,-280.6972C666.8073,-272.7475 677.0084,-261.3222 685.495,-251.8172"/>
<polygon fill="#191970" stroke="#191970" points="688.3411,-253.8848 692.3905,-244.0943 683.1195,-249.2226 688.3411,-253.8848"/>
</g>
<!-- Node31 -->
<g id="node32" class="node">
<title>Node31</title>
<g id="a_node32"><a xlink:href="../../d3/d4e/logsink_8h.xhtml" target="_top" xlink:title="logsink.h">
<polygon fill="#ffffff" stroke="#000000" points="340,-224.9516 340,-243.9516 396,-243.9516 396,-224.9516 340,-224.9516"/>
<text text-anchor="middle" x="368" y="-231.9516" font-family="Helvetica,sans-Serif" font-size="10.00" fill="#000000">logsink.h</text>
</a>
</g>
</g>
<!-- Node17&#45;&gt;Node31 -->
<g id="edge44" class="edge">
<title>Node17&#45;&gt;Node31</title>
<path fill="none" stroke="#191970" d="M606.4699,-281.64C551.3088,-270.7247 458.2655,-252.3134 406.2048,-242.0116"/>
<polygon fill="#191970" stroke="#191970" points="406.8516,-238.5718 396.3624,-240.064 405.4928,-245.4386 406.8516,-238.5718"/>
</g>
<!-- Node33 -->
<g id="node34" class="node">
<title>Node33</title>
<g id="a_node34"><a xlink:href="../../de/d09/level_8h.xhtml" target="_top" xlink:title="level.h">
<polygon fill="#ffffff" stroke="#000000" points="397.5,-168.9516 397.5,-187.9516 442.5,-187.9516 442.5,-168.9516 397.5,-168.9516"/>
<text text-anchor="middle" x="420" y="-175.9516" font-family="Helvetica,sans-Serif" font-size="10.00" fill="#000000">level.h</text>
</a>
</g>
</g>
<!-- Node17&#45;&gt;Node33 -->
<g id="edge52" class="edge">
<title>Node17&#45;&gt;Node33</title>
<path fill="none" stroke="#191970" d="M631.3051,-280.9026C590.4756,-261.1065 496.4492,-215.5179 448.8003,-192.4154"/>
<polygon fill="#191970" stroke="#191970" points="450.1702,-189.19 439.6451,-187.9765 447.1163,-195.4887 450.1702,-189.19"/>
</g>
<!-- Node21 -->
<g id="node22" class="node">
<title>Node21</title>
<polygon fill="#ffffff" stroke="#bfbfbf" points="886.5,-168.9516 886.5,-187.9516 931.5,-187.9516 931.5,-168.9516 886.5,-168.9516"/>
<text text-anchor="middle" x="909" y="-175.9516" font-family="Helvetica,sans-Serif" font-size="10.00" fill="#000000">cstdlib</text>
</g>
<!-- Node20&#45;&gt;Node21 -->
<g id="edge27" class="edge">
<title>Node20&#45;&gt;Node21</title>
<path fill="none" stroke="#191970" d="M837.1542,-224.6972C850.5027,-216.1051 870.1586,-203.453 885.5383,-193.5534"/>
<polygon fill="#191970" stroke="#191970" points="887.5051,-196.4498 894.0194,-188.0943 883.7164,-190.5638 887.5051,-196.4498"/>
</g>
<!-- Node22&#45;&gt;Node8 -->
<g id="edge32" class="edge">
<title>Node22&#45;&gt;Node8</title>
<path fill="none" stroke="#191970" d="M665.6774,-224.921C579.7828,-201.631 366.105,-142.9626 354,-132.4516 340.2166,-120.4833 332.422,-100.8928 328.2543,-86.1577"/>
<polygon fill="#191970" stroke="#191970" points="331.5482,-84.9006 325.7351,-76.0429 324.7557,-86.5923 331.5482,-84.9006"/>
</g>
<!-- Node22&#45;&gt;Node15 -->
<g id="edge30" class="edge">
<title>Node22&#45;&gt;Node15</title>
<path fill="none" stroke="#191970" d="M734.4234,-224.8709C762.7005,-216.3972 804.0765,-203.1266 839,-188.4516 856.9586,-180.9054 860.4648,-176.9353 878,-168.4516 901.2524,-157.2019 927.8495,-145.1196 947.9115,-136.1618"/>
<polygon fill="#191970" stroke="#191970" points="949.4782,-139.2956 957.1919,-132.0327 946.6326,-132.9001 949.4782,-139.2956"/>
</g>
<!-- Node23 -->
<g id="node24" class="node">
<title>Node23</title>
<polygon fill="#ffffff" stroke="#bfbfbf" points="784,-168.9516 784,-187.9516 830,-187.9516 830,-168.9516 784,-168.9516"/>
<text text-anchor="middle" x="807" y="-175.9516" font-family="Helvetica,sans-Serif" font-size="10.00" fill="#000000">atomic</text>
</g>
<!-- Node22&#45;&gt;Node23 -->
<g id="edge29" class="edge">
<title>Node22&#45;&gt;Node23</title>
<path fill="none" stroke="#191970" d="M719.4638,-224.6972C736.1074,-215.9043 760.7993,-202.8596 779.7192,-192.8641"/>
<polygon fill="#191970" stroke="#191970" points="781.5408,-195.8602 788.7478,-188.0943 778.2709,-189.6709 781.5408,-195.8602"/>
</g>
<!-- Node24 -->
<g id="node25" class="node">
<title>Node24</title>
<polygon fill="#ffffff" stroke="#bfbfbf" points="666,-168.9516 666,-187.9516 728,-187.9516 728,-168.9516 666,-168.9516"/>
<text text-anchor="middle" x="697" y="-175.9516" font-family="Helvetica,sans-Serif" font-size="10.00" fill="#000000">type_traits</text>
</g>
<!-- Node22&#45;&gt;Node24 -->
<g id="edge31" class="edge">
<title>Node22&#45;&gt;Node24</title>
<path fill="none" stroke="#191970" d="M700.3033,-224.6972C699.7813,-217.3899 699.0496,-207.146 698.4075,-198.1562"/>
<polygon fill="#191970" stroke="#191970" points="701.8924,-197.8195 697.6888,-188.0943 694.9102,-198.3183 701.8924,-197.8195"/>
</g>
<!-- Node25 -->
<g id="node26" class="node">
<title>Node25</title>
<g id="a_node26"><a xlink:href="../../dc/dcf/externalsstream_8h.xhtml" target="_top" xlink:title="externalsstream.h">
<polygon fill="#ffffff" stroke="#000000" points="801.5,-112.9516 801.5,-131.9516 896.5,-131.9516 896.5,-112.9516 801.5,-112.9516"/>
<text text-anchor="middle" x="849" y="-119.9516" font-family="Helvetica,sans-Serif" font-size="10.00" fill="#000000">externalsstream.h</text>
</a>
</g>
</g>
<!-- Node22&#45;&gt;Node25 -->
<g id="edge33" class="edge">
<title>Node22&#45;&gt;Node25</title>
<path fill="none" stroke="#191970" d="M710.5894,-224.9158C724.2719,-211.5447 750.4632,-186.806 775,-168.4516 790.2029,-157.0794 808.2855,-145.8014 822.77,-137.2587"/>
<polygon fill="#191970" stroke="#191970" points="824.8159,-140.1179 831.7024,-132.0664 821.298,-134.066 824.8159,-140.1179"/>
</g>
<!-- Node26 -->
<g id="node27" class="node">
<title>Node26</title>
<g id="a_node27"><a xlink:href="../../d6/d90/strings_8h.xhtml" target="_top" xlink:title="strings.h">
<polygon fill="#ffffff" stroke="#000000" points="594,-168.9516 594,-187.9516 648,-187.9516 648,-168.9516 594,-168.9516"/>
<text text-anchor="middle" x="621" y="-175.9516" font-family="Helvetica,sans-Serif" font-size="10.00" fill="#000000">strings.h</text>
</a>
</g>
</g>
<!-- Node22&#45;&gt;Node26 -->
<g id="edge36" class="edge">
<title>Node22&#45;&gt;Node26</title>
<path fill="none" stroke="#191970" d="M687.0651,-224.6972C674.9053,-216.1854 657.0536,-203.6891 642.9715,-193.8317"/>
<polygon fill="#191970" stroke="#191970" points="644.9747,-190.9617 634.7752,-188.0943 640.9605,-196.6963 644.9747,-190.9617"/>
</g>
<!-- Node25&#45;&gt;Node3 -->
<g id="edge35" class="edge">
<title>Node25&#45;&gt;Node3</title>
<path fill="none" stroke="#191970" d="M855.4888,-112.9355C865.692,-98.6662 886.8335,-71.7702 911,-56.4516 945.8504,-34.3608 992.2822,-21.9546 1022.4064,-15.7317"/>
<polygon fill="#191970" stroke="#191970" points="1023.1973,-19.1434 1032.3359,-13.7828 1021.849,-12.2744 1023.1973,-19.1434"/>
</g>
<!-- Node25&#45;&gt;Node14 -->
<g id="edge34" class="edge">
<title>Node25&#45;&gt;Node14</title>
<path fill="none" stroke="#191970" d="M801.4202,-114.0688C798.2328,-113.5182 795.0703,-112.975 792,-112.4516 705.8738,-97.7715 604.6165,-81.1863 551.2567,-72.4987"/>
<polygon fill="#191970" stroke="#191970" points="551.6744,-69.0207 541.2421,-70.8694 550.5503,-75.9299 551.6744,-69.0207"/>
</g>
<!-- Node26&#45;&gt;Node1 -->
<g id="edge38" class="edge">
<title>Node26&#45;&gt;Node1</title>
<path fill="none" stroke="#191970" d="M593.8742,-175.6746C504.5683,-166.5318 219.4281,-137.3401 113.8301,-126.5293"/>
<polygon fill="#191970" stroke="#191970" points="113.9053,-123.0188 103.6008,-125.4821 113.1923,-129.9824 113.9053,-123.0188"/>
</g>
<!-- Node26&#45;&gt;Node3 -->
<g id="edge42" class="edge">
<title>Node26&#45;&gt;Node3</title>
<path fill="none" stroke="#191970" d="M648.036,-170.5438C651.047,-169.7819 654.08,-169.0657 657,-168.4516 766.4241,-145.4414 803.8169,-177.8579 906,-132.4516 962.0313,-107.5535 1013.799,-54.9904 1038.2393,-27.7049"/>
<polygon fill="#191970" stroke="#191970" points="1040.9455,-29.9276 1044.9214,-20.1071 1035.6891,-25.3047 1040.9455,-29.9276"/>
</g>
<!-- Node26&#45;&gt;Node15 -->
<g id="edge40" class="edge">
<title>Node26&#45;&gt;Node15</title>
<path fill="none" stroke="#191970" d="M648.0259,-170.4948C651.0388,-169.7421 654.075,-169.0414 657,-168.4516 780.8579,-143.4785 814.8283,-155.8145 939,-132.4516 940.2663,-132.2134 941.5522,-131.9592 942.8488,-131.6925"/>
<polygon fill="#191970" stroke="#191970" points="943.8507,-135.0551 952.8475,-129.4597 942.3251,-128.2233 943.8507,-135.0551"/>
</g>
<!-- Node27 -->
<g id="node28" class="node">
<title>Node27</title>
<polygon fill="#ffffff" stroke="#bfbfbf" points="665.5,-112.9516 665.5,-131.9516 714.5,-131.9516 714.5,-112.9516 665.5,-112.9516"/>
<text text-anchor="middle" x="690" y="-119.9516" font-family="Helvetica,sans-Serif" font-size="10.00" fill="#000000">cstdarg</text>
</g>
<!-- Node26&#45;&gt;Node27 -->
<g id="edge37" class="edge">
<title>Node26&#45;&gt;Node27</title>
<path fill="none" stroke="#191970" d="M633.0189,-168.6972C643.2098,-160.4263 658.0362,-148.3933 670.0107,-138.6749"/>
<polygon fill="#191970" stroke="#191970" points="672.5598,-141.1136 678.1188,-132.0943 668.1486,-135.6784 672.5598,-141.1136"/>
</g>
<!-- Node28 -->
<g id="node29" class="node">
<title>Node28</title>
<polygon fill="#ffffff" stroke="#bfbfbf" points="733,-112.9516 733,-131.9516 783,-131.9516 783,-112.9516 733,-112.9516"/>
<text text-anchor="middle" x="758" y="-119.9516" font-family="Helvetica,sans-Serif" font-size="10.00" fill="#000000">iomanip</text>
</g>
<!-- Node26&#45;&gt;Node28 -->
<g id="edge39" class="edge">
<title>Node26&#45;&gt;Node28</title>
<path fill="none" stroke="#191970" d="M644.5511,-168.8249C666.8391,-159.7145 700.4937,-145.9579 725.3637,-135.792"/>
<polygon fill="#191970" stroke="#191970" points="726.8239,-138.9763 734.7562,-131.9528 724.1753,-132.4967 726.8239,-138.9763"/>
</g>
<!-- Node29 -->
<g id="node30" class="node">
<title>Node29</title>
<polygon fill="#ffffff" stroke="#bfbfbf" points="595,-112.9516 595,-131.9516 647,-131.9516 647,-112.9516 595,-112.9516"/>
<text text-anchor="middle" x="621" y="-119.9516" font-family="Helvetica,sans-Serif" font-size="10.00" fill="#000000">sstream</text>
</g>
<!-- Node26&#45;&gt;Node29 -->
<g id="edge41" class="edge">
<title>Node26&#45;&gt;Node29</title>
<path fill="none" stroke="#191970" d="M621,-168.6972C621,-161.3899 621,-151.146 621,-142.1562"/>
<polygon fill="#191970" stroke="#191970" points="624.5001,-142.0943 621,-132.0943 617.5001,-142.0943 624.5001,-142.0943"/>
</g>
<!-- Node30 -->
<g id="node31" class="node">
<title>Node30</title>
<polygon fill="#ffffff" stroke="#bfbfbf" points="1153,-112.9516 1153,-131.9516 1197,-131.9516 1197,-112.9516 1153,-112.9516"/>
<text text-anchor="middle" x="1175" y="-119.9516" font-family="Helvetica,sans-Serif" font-size="10.00" fill="#000000">vector</text>
</g>
<!-- Node26&#45;&gt;Node30 -->
<g id="edge43" class="edge">
<title>Node26&#45;&gt;Node30</title>
<path fill="none" stroke="#191970" d="M648.0041,-170.3812C651.0211,-169.6498 654.0642,-168.9851 657,-168.4516 751.182,-151.3368 1044.7477,-131.0137 1142.7686,-124.5401"/>
<polygon fill="#191970" stroke="#191970" points="1143.198,-128.0195 1152.947,-123.8714 1142.739,-121.0346 1143.198,-128.0195"/>
</g>
<!-- Node31&#45;&gt;Node7 -->
<g id="edge46" class="edge">
<title>Node31&#45;&gt;Node7</title>
<path fill="none" stroke="#191970" d="M357.8972,-224.6972C349.4972,-216.5869 337.3506,-204.8591 327.3916,-195.2435"/>
<polygon fill="#191970" stroke="#191970" points="329.6122,-192.5224 319.9871,-188.0943 324.75,-197.5582 329.6122,-192.5224"/>
</g>
<!-- Node32 -->
<g id="node33" class="node">
<title>Node32</title>
<polygon fill="#ffffff" stroke="#bfbfbf" points="350.5,-168.9516 350.5,-187.9516 379.5,-187.9516 379.5,-168.9516 350.5,-168.9516"/>
<text text-anchor="middle" x="365" y="-175.9516" font-family="Helvetica,sans-Serif" font-size="10.00" fill="#000000">list</text>
</g>
<!-- Node31&#45;&gt;Node32 -->
<g id="edge45" class="edge">
<title>Node31&#45;&gt;Node32</title>
<path fill="none" stroke="#191970" d="M367.4774,-224.6972C367.086,-217.3899 366.5372,-207.146 366.0556,-198.1562"/>
<polygon fill="#191970" stroke="#191970" points="369.5466,-197.8927 365.5166,-188.0943 362.5566,-198.2673 369.5466,-197.8927"/>
</g>
<!-- Node31&#45;&gt;Node33 -->
<g id="edge47" class="edge">
<title>Node31&#45;&gt;Node33</title>
<path fill="none" stroke="#191970" d="M377.0577,-224.6972C384.5142,-216.6672 395.2634,-205.091 404.1417,-195.5298"/>
<polygon fill="#191970" stroke="#191970" points="406.8063,-197.8039 411.0461,-188.0943 401.6768,-193.0407 406.8063,-197.8039"/>
</g>
<!-- Node34 -->
<g id="node35" class="node">
<title>Node34</title>
<g id="a_node35"><a xlink:href="../../d0/d9b/enum_8h.xhtml" target="_top" xlink:title="../util/enum.h">
<polygon fill="#ffffff" stroke="#000000" points="363,-112.9516 363,-131.9516 437,-131.9516 437,-112.9516 363,-112.9516"/>
<text text-anchor="middle" x="400" y="-119.9516" font-family="Helvetica,sans-Serif" font-size="10.00" fill="#000000">../util/enum.h</text>
</a>
</g>
</g>
<!-- Node33&#45;&gt;Node34 -->
<g id="edge48" class="edge">
<title>Node33&#45;&gt;Node34</title>
<path fill="none" stroke="#191970" d="M416.5163,-168.6972C413.8492,-161.2293 410.0867,-150.6943 406.8263,-141.5653"/>
<polygon fill="#191970" stroke="#191970" points="410.1033,-140.3345 403.4438,-132.0943 403.5111,-142.6889 410.1033,-140.3345"/>
</g>
<!-- Node34&#45;&gt;Node8 -->
<g id="edge51" class="edge">
<title>Node34&#45;&gt;Node8</title>
<path fill="none" stroke="#191970" d="M386.7618,-112.6972C375.319,-104.2657 358.5704,-91.9245 345.2525,-82.1114"/>
<polygon fill="#191970" stroke="#191970" points="347.2133,-79.2086 337.0865,-76.0943 343.0609,-84.844 347.2133,-79.2086"/>
</g>
<!-- Node34&#45;&gt;Node14 -->
<g id="edge49" class="edge">
<title>Node34&#45;&gt;Node14</title>
<path fill="none" stroke="#191970" d="M419.5973,-112.8249C437.7331,-103.9161 464.9135,-90.5643 485.4587,-80.4719"/>
<polygon fill="#191970" stroke="#191970" points="487.2261,-83.5033 494.6584,-75.9528 484.1397,-77.2204 487.2261,-83.5033"/>
</g>
<!-- Node35 -->
<g id="node36" class="node">
<title>Node35</title>
<polygon fill="#ffffff" stroke="#bfbfbf" points="385.5,-56.9516 385.5,-75.9516 436.5,-75.9516 436.5,-56.9516 385.5,-56.9516"/>
<text text-anchor="middle" x="411" y="-63.9516" font-family="Helvetica,sans-Serif" font-size="10.00" fill="#000000">typeinfo</text>
</g>
<!-- Node34&#45;&gt;Node35 -->
<g id="edge50" class="edge">
<title>Node34&#45;&gt;Node35</title>
<path fill="none" stroke="#191970" d="M401.9161,-112.6972C403.3514,-105.3899 405.3636,-95.146 407.1295,-86.1562"/>
<polygon fill="#191970" stroke="#191970" points="410.6127,-86.5814 409.1059,-76.0943 403.744,-85.2322 410.6127,-86.5814"/>
</g>
<!-- Node36&#45;&gt;Node1 -->
<g id="edge54" class="edge">
<title>Node36&#45;&gt;Node1</title>
<path fill="none" stroke="#191970" d="M152.4523,-168.6972C137.7401,-160.0248 116.0112,-147.2161 99.1495,-137.2766"/>
<polygon fill="#191970" stroke="#191970" points="100.7502,-134.1573 90.3581,-132.0943 97.1954,-140.1876 100.7502,-134.1573"/>
</g>
<!-- Node36&#45;&gt;Node8 -->
<g id="edge55" class="edge">
<title>Node36&#45;&gt;Node8</title>
<path fill="none" stroke="#191970" d="M172.4561,-168.5707C177.9069,-154.3239 189.7902,-128.0185 208,-112.4516 226.2075,-96.8867 250.3258,-86.1861 271.8526,-79.0513"/>
<polygon fill="#191970" stroke="#191970" points="273.0341,-82.349 281.5305,-76.0195 270.9414,-75.6691 273.0341,-82.349"/>
</g>
<!-- Node37&#45;&gt;Node3 -->
<g id="edge57" class="edge">
<title>Node37&#45;&gt;Node3</title>
<path fill="none" stroke="#191970" d="M1150.5701,-616.6519C1158.2826,-603.3972 1172.9709,-579.252 1188,-560.4516 1223.3002,-516.2935 1264,-514.9852 1264,-458.4516 1264,-458.4516 1264,-458.4516 1264,-402.4516 1264,-325.8987 1302,-311.0045 1302,-234.4516 1302,-234.4516 1302,-234.4516 1302,-122.4516 1302,-85.3811 1282.1979,-76.4745 1251,-56.4516 1223.4688,-38.782 1131.9684,-22.5795 1083.5918,-14.9864"/>
<polygon fill="#191970" stroke="#191970" points="1084.0986,-11.5232 1073.6817,-13.4568 1083.0308,-18.4413 1084.0986,-11.5232"/>
</g>
<!-- Node37&#45;&gt;Node30 -->
<g id="edge58" class="edge">
<title>Node37&#45;&gt;Node30</title>
<path fill="none" stroke="#191970" d="M1179.121,-618.9237C1215.0949,-610.3391 1268.5323,-595.5318 1283,-580.4516 1304.1322,-558.4248 1302,-544.9763 1302,-514.4516 1302,-514.4516 1302,-514.4516 1302,-402.4516 1302,-294.8121 1223.1962,-183.0115 1189.7392,-140.3959"/>
<polygon fill="#191970" stroke="#191970" points="1192.3097,-138.006 1183.3328,-132.3787 1186.8412,-142.3758 1192.3097,-138.006"/>
</g>
<!-- Node38 -->
<g id="node39" class="node">
<title>Node38</title>
<g id="a_node39"><a xlink:href="../../d2/d4b/pyobject_8h.xhtml" target="_top" xlink:title="../pyinterface/pyobject.h">
<polygon fill="#ffffff" stroke="#000000" points="1000,-504.9516 1000,-523.9516 1122,-523.9516 1122,-504.9516 1000,-504.9516"/>
<text text-anchor="middle" x="1061" y="-511.9516" font-family="Helvetica,sans-Serif" font-size="10.00" fill="#000000">../pyinterface/pyobject.h</text>
</a>
</g>
</g>
<!-- Node37&#45;&gt;Node38 -->
<g id="edge59" class="edge">
<title>Node37&#45;&gt;Node38</title>
<path fill="none" stroke="#191970" d="M1131.2575,-616.7315C1119.9019,-608.1727 1103.9272,-594.8556 1093,-580.4516 1082.0832,-566.0614 1073.4398,-547.3557 1067.9021,-533.5345"/>
<polygon fill="#191970" stroke="#191970" points="1071.1247,-532.1624 1064.2865,-524.0699 1064.5856,-534.6605 1071.1247,-532.1624"/>
</g>
<!-- Node40 -->
<g id="node41" class="node">
<title>Node40</title>
<g id="a_node41"><a xlink:href="../../d2/d4d/file_8h.xhtml" target="_top" xlink:title="file.h">
<polygon fill="#ffffff" stroke="#000000" points="1102,-560.9516 1102,-579.9516 1140,-579.9516 1140,-560.9516 1102,-560.9516"/>
<text text-anchor="middle" x="1121" y="-567.9516" font-family="Helvetica,sans-Serif" font-size="10.00" fill="#000000">file.h</text>
</a>
</g>
</g>
<!-- Node37&#45;&gt;Node40 -->
<g id="edge65" class="edge">
<title>Node37&#45;&gt;Node40</title>
<path fill="none" stroke="#191970" d="M1140.8195,-616.6972C1137.619,-609.2293 1133.104,-598.6943 1129.1916,-589.5653"/>
<polygon fill="#191970" stroke="#191970" points="1132.2888,-587.907 1125.1326,-580.0943 1125.8548,-590.6645 1132.2888,-587.907"/>
</g>
<!-- Node42 -->
<g id="node43" class="node">
<title>Node42</title>
<g id="a_node43"><a xlink:href="../../d3/d0f/fslike_2native_8h.xhtml" target="_top" xlink:title="fslike/native.h">
<polygon fill="#ffffff" stroke="#000000" points="1196.5,-560.9516 1196.5,-579.9516 1273.5,-579.9516 1273.5,-560.9516 1196.5,-560.9516"/>
<text text-anchor="middle" x="1235" y="-567.9516" font-family="Helvetica,sans-Serif" font-size="10.00" fill="#000000">fslike/native.h</text>
</a>
</g>
</g>
<!-- Node37&#45;&gt;Node42 -->
<g id="edge74" class="edge">
<title>Node37&#45;&gt;Node42</title>
<path fill="none" stroke="#191970" d="M1160.6768,-616.6972C1174.4856,-608.1051 1194.8193,-595.453 1210.7292,-585.5534"/>
<polygon fill="#191970" stroke="#191970" points="1212.8613,-588.3491 1219.5028,-580.0943 1209.1632,-582.4057 1212.8613,-588.3491"/>
</g>
<!-- Node38&#45;&gt;Node3 -->
<g id="edge61" class="edge">
<title>Node38&#45;&gt;Node3</title>
<path fill="none" stroke="#191970" d="M1062.8626,-504.9066C1066.4572,-485.6267 1074,-440.6229 1074,-402.4516 1074,-402.4516 1074,-402.4516 1074,-290.4516 1074,-186.4364 1089.1889,-158.6815 1070,-56.4516 1068.2772,-47.2731 1064.9097,-37.5151 1061.6233,-29.3592"/>
<polygon fill="#191970" stroke="#191970" points="1064.7898,-27.8624 1057.6338,-20.0495 1058.3557,-30.6197 1064.7898,-27.8624"/>
</g>
<!-- Node38&#45;&gt;Node6 -->
<g id="edge64" class="edge">
<title>Node38&#45;&gt;Node6</title>
<path fill="none" stroke="#191970" d="M999.7073,-510.1504C855.0725,-500.0006 492.9707,-474.5899 336.702,-463.6237"/>
<polygon fill="#191970" stroke="#191970" points="336.9315,-460.1313 326.711,-462.9226 336.4414,-467.1141 336.9315,-460.1313"/>
</g>
<!-- Node38&#45;&gt;Node18 -->
<g id="edge60" class="edge">
<title>Node38&#45;&gt;Node18</title>
<path fill="none" stroke="#191970" d="M1038.5551,-504.9233C1023.3237,-497.2847 1004.0199,-485.0869 993,-468.4516 947.7596,-400.1582 944.9724,-297.6498 946.0398,-254.6106"/>
<polygon fill="#191970" stroke="#191970" points="949.5471,-254.4613 946.4009,-244.3445 942.5515,-254.2152 949.5471,-254.4613"/>
</g>
<!-- Node38&#45;&gt;Node30 -->
<g id="edge62" class="edge">
<title>Node38&#45;&gt;Node30</title>
<path fill="none" stroke="#191970" d="M1067.8702,-504.6485C1073.924,-495.6148 1082.5973,-481.6493 1088,-468.4516 1136.7443,-349.3794 1163.6656,-195.7337 1172.0856,-142.0204"/>
<polygon fill="#191970" stroke="#191970" points="1175.547,-142.5386 1173.6027,-132.1237 1168.6278,-141.4779 1175.547,-142.5386"/>
</g>
<!-- Node39 -->
<g id="node40" class="node">
<title>Node39</title>
<g id="a_node40"><a xlink:href="../../d5/d64/defs_8h.xhtml" target="_top" xlink:title="defs.h">
<polygon fill="#ffffff" stroke="#000000" points="1002,-448.9516 1002,-467.9516 1046,-467.9516 1046,-448.9516 1002,-448.9516"/>
<text text-anchor="middle" x="1024" y="-455.9516" font-family="Helvetica,sans-Serif" font-size="10.00" fill="#000000">defs.h</text>
</a>
</g>
</g>
<!-- Node38&#45;&gt;Node39 -->
<g id="edge63" class="edge">
<title>Node38&#45;&gt;Node39</title>
<path fill="none" stroke="#191970" d="M1054.5551,-504.6972C1049.4618,-496.9884 1042.2092,-486.0114 1036.048,-476.6864"/>
<polygon fill="#191970" stroke="#191970" points="1038.8038,-474.5083 1030.3711,-468.0943 1032.9635,-478.3671 1038.8038,-474.5083"/>
</g>
<!-- Node40&#45;&gt;Node3 -->
<g id="edge67" class="edge">
<title>Node40&#45;&gt;Node3</title>
<path fill="none" stroke="#191970" d="M1131.7647,-560.8269C1150.7041,-542.7737 1188,-501.7286 1188,-458.4516 1188,-458.4516 1188,-458.4516 1188,-346.4516 1188,-264.5001 1264,-260.4031 1264,-178.4516 1264,-178.4516 1264,-178.4516 1264,-122.4516 1264,-41.8285 1142.3263,-19.0669 1083.7712,-12.781"/>
<polygon fill="#191970" stroke="#191970" points="1083.9087,-9.2779 1073.6157,-11.7888 1083.228,-16.2447 1083.9087,-9.2779"/>
</g>
<!-- Node40&#45;&gt;Node15 -->
<g id="edge66" class="edge">
<title>Node40&#45;&gt;Node15</title>
<path fill="none" stroke="#191970" d="M1125.279,-560.7823C1133.3459,-541.6452 1150,-497.4179 1150,-458.4516 1150,-458.4516 1150,-458.4516 1150,-402.4516 1150,-286.8961 1042.6097,-178.6461 998.037,-138.6932"/>
<polygon fill="#191970" stroke="#191970" points="1000.3028,-136.0249 990.4853,-132.0415 995.676,-141.2777 1000.3028,-136.0249"/>
</g>
<!-- Node40&#45;&gt;Node30 -->
<g id="edge68" class="edge">
<title>Node40&#45;&gt;Node30</title>
<path fill="none" stroke="#191970" d="M1140.2724,-563.9702C1158.5196,-556.9171 1185.509,-543.9692 1202,-524.4516 1222.1445,-500.61 1226,-489.6642 1226,-458.4516 1226,-458.4516 1226,-458.4516 1226,-346.4516 1226,-305.9276 1193.8652,-188.5971 1180.6118,-141.9297"/>
<polygon fill="#191970" stroke="#191970" points="1183.9284,-140.7973 1177.8146,-132.1444 1177.1979,-142.7213 1183.9284,-140.7973"/>
</g>
<!-- Node40&#45;&gt;Node38 -->
<g id="edge73" class="edge">
<title>Node40&#45;&gt;Node38</title>
<path fill="none" stroke="#191970" d="M1110.5488,-560.6972C1101.7731,-552.5066 1089.0446,-540.6266 1078.686,-530.9586"/>
<polygon fill="#191970" stroke="#191970" points="1081.0301,-528.3588 1071.3314,-524.0943 1076.2539,-533.4762 1081.0301,-528.3588"/>
</g>
<!-- Node41 -->
<g id="node42" class="node">
<title>Node41</title>
<g id="a_node42"><a xlink:href="../../d7/db5/filelike_8h.xhtml" target="_top" xlink:title="filelike/filelike.h">
<polygon fill="#ffffff" stroke="#000000" points="493.5,-112.9516 493.5,-131.9516 576.5,-131.9516 576.5,-112.9516 493.5,-112.9516"/>
<text text-anchor="middle" x="535" y="-119.9516" font-family="Helvetica,sans-Serif" font-size="10.00" fill="#000000">filelike/filelike.h</text>
</a>
</g>
</g>
<!-- Node40&#45;&gt;Node41 -->
<g id="edge69" class="edge">
<title>Node40&#45;&gt;Node41</title>
<path fill="none" stroke="#191970" d="M1101.6733,-569.0144C997.6453,-561.0273 509,-520.2225 509,-458.4516 509,-458.4516 509,-458.4516 509,-234.4516 509,-201.1721 520.0271,-163.7373 527.7187,-141.6741"/>
<polygon fill="#191970" stroke="#191970" points="531.0487,-142.7576 531.1636,-132.1633 524.4671,-140.3736 531.0487,-142.7576"/>
</g>
<!-- Node41&#45;&gt;Node3 -->
<g id="edge71" class="edge">
<title>Node41&#45;&gt;Node3</title>
<path fill="none" stroke="#191970" d="M576.5145,-113.4755C677.4453,-91.6526 933.8844,-36.2063 1022.4016,-17.0675"/>
<polygon fill="#191970" stroke="#191970" points="1023.3077,-20.4525 1032.3422,-14.9182 1021.8283,-13.6106 1023.3077,-20.4525"/>
</g>
<!-- Node41&#45;&gt;Node8 -->
<g id="edge72" class="edge">
<title>Node41&#45;&gt;Node8</title>
<path fill="none" stroke="#191970" d="M498.7278,-112.8249C463.0342,-103.3517 408.4121,-88.8548 369.7549,-78.5951"/>
<polygon fill="#191970" stroke="#191970" points="370.3621,-75.1352 359.7989,-75.9528 368.5664,-81.9009 370.3621,-75.1352"/>
</g>
<!-- Node41&#45;&gt;Node14 -->
<g id="edge70" class="edge">
<title>Node41&#45;&gt;Node14</title>
<path fill="none" stroke="#191970" d="M531.3421,-112.6972C528.5416,-105.2293 524.591,-94.6943 521.1676,-85.5653"/>
<polygon fill="#191970" stroke="#191970" points="524.4045,-84.2286 517.616,-76.0943 517.8501,-86.6866 524.4045,-84.2286"/>
</g>
</g>
</svg>
