<?xml version="1.0" encoding="UTF-8" standalone="no"?>
<!DOCTYPE svg PUBLIC "-//W3C//DTD SVG 1.1//EN"
 "http://www.w3.org/Graphics/SVG/1.1/DTD/svg11.dtd">
<!-- Generated by graphviz version 2.40.1 (20161225.0304)
 -->
<!-- Title: openage::util::Matrix::equals Pages: 1 -->
<svg width="362pt" height="88pt"
 viewBox="0.00 0.00 362.00 88.00" xmlns="http://www.w3.org/2000/svg" xmlns:xlink="http://www.w3.org/1999/xlink">
<g id="graph0" class="graph" transform="scale(1 1) rotate(0) translate(4 84)">
<title>openage::util::Matrix::equals</title>
<polygon fill="#ffffff" stroke="transparent" points="-4,4 -4,-84 358,-84 358,4 -4,4"/>
<!-- Node10 -->
<g id="node1" class="node">
<title>Node10</title>
<polygon fill="#bfbfbf" stroke="#000000" points="0,-24.5 0,-54.5 105,-54.5 105,-24.5 0,-24.5"/>
<text text-anchor="start" x="8" y="-42.5" font-family="Helvetica,sans-Serif" font-size="10.00" fill="#000000">openage::util::Matrix</text>
<text text-anchor="middle" x="52.5" y="-31.5" font-family="Helvetica,sans-Serif" font-size="10.00" fill="#000000">::equals</text>
</g>
<!-- Node11 -->
<g id="node2" class="node">
<title>Node11</title>
<g id="a_node2"><a xlink:href="../../d8/dcc/namespacestd.xhtml#a6af851cc1249a970adde4dc422ff824a" target="_top" xlink:title="std::abs">
<polygon fill="#ffffff" stroke="#000000" points="141,-30 141,-49 193,-49 193,-30 141,-30"/>
<text text-anchor="middle" x="167" y="-37" font-family="Helvetica,sans-Serif" font-size="10.00" fill="#000000">std::abs</text>
</a>
</g>
</g>
<!-- Node10&#45;&gt;Node11 -->
<g id="edge1" class="edge">
<title>Node10&#45;&gt;Node11</title>
<path fill="none" stroke="#191970" d="M105.0584,-39.5C113.7243,-39.5 122.5346,-39.5 130.6877,-39.5"/>
<polygon fill="#191970" stroke="#191970" points="130.96,-43.0001 140.96,-39.5 130.96,-36.0001 130.96,-43.0001"/>
</g>
<!-- Node12 -->
<g id="node3" class="node">
<title>Node12</title>
<g id="a_node3"><a xlink:href="../../dc/d65/classopenage_1_1util_1_1_fixed_point.xhtml#aa01c403263c2142c0ce9ce40cde89066" target="_top" xlink:title="Factory function to construct a fixed&#45;point number with a given raw value. ">
<polygon fill="#ffffff" stroke="#000000" points="229,-49.5 229,-79.5 354,-79.5 354,-49.5 229,-49.5"/>
<text text-anchor="start" x="237" y="-67.5" font-family="Helvetica,sans-Serif" font-size="10.00" fill="#000000">openage::util::FixedPoint</text>
<text text-anchor="middle" x="291.5" y="-56.5" font-family="Helvetica,sans-Serif" font-size="10.00" fill="#000000">::from_raw_value</text>
</a>
</g>
</g>
<!-- Node11&#45;&gt;Node12 -->
<g id="edge2" class="edge">
<title>Node11&#45;&gt;Node12</title>
<path fill="none" stroke="#191970" d="M193.0993,-44.7408C200.7967,-46.2865 209.6227,-48.0588 218.7592,-49.8934"/>
<polygon fill="#191970" stroke="#191970" points="218.2629,-53.3636 228.7563,-51.9009 219.6411,-46.5006 218.2629,-53.3636"/>
</g>
<!-- Node13 -->
<g id="node4" class="node">
<title>Node13</title>
<g id="a_node4"><a xlink:href="../../dc/d65/classopenage_1_1util_1_1_fixed_point.xhtml#affe7a3ec44c6f7ac96312875af742f87" target="_top" xlink:title="Converter to retrieve the raw value of the fixed&#45;point number. ">
<polygon fill="#ffffff" stroke="#000000" points="229,-.5 229,-30.5 354,-30.5 354,-.5 229,-.5"/>
<text text-anchor="start" x="237" y="-18.5" font-family="Helvetica,sans-Serif" font-size="10.00" fill="#000000">openage::util::FixedPoint</text>
<text text-anchor="middle" x="291.5" y="-7.5" font-family="Helvetica,sans-Serif" font-size="10.00" fill="#000000">::get_raw_value</text>
</a>
</g>
</g>
<!-- Node11&#45;&gt;Node13 -->
<g id="edge3" class="edge">
<title>Node11&#45;&gt;Node13</title>
<path fill="none" stroke="#191970" d="M193.0993,-34.4688C200.7967,-32.985 209.6227,-31.2836 218.7592,-29.5223"/>
<polygon fill="#191970" stroke="#191970" points="219.5996,-32.9248 228.7563,-27.5952 218.2746,-26.0514 219.5996,-32.9248"/>
</g>
</g>
</svg>
