<?xml version="1.0" encoding="UTF-8" standalone="no"?>
<!DOCTYPE svg PUBLIC "-//W3C//DTD SVG 1.1//EN"
 "http://www.w3.org/Graphics/SVG/1.1/DTD/svg11.dtd">
<!-- Generated by graphviz version 2.40.1 (20161225.0304)
 -->
<!-- Title: openage::renderer::Window::should_close Pages: 1 -->
<svg width="423pt" height="39pt"
 viewBox="0.00 0.00 423.00 39.00" xmlns="http://www.w3.org/2000/svg" xmlns:xlink="http://www.w3.org/1999/xlink">
<g id="graph0" class="graph" transform="scale(1 1) rotate(0) translate(4 35)">
<title>openage::renderer::Window::should_close</title>
<polygon fill="#ffffff" stroke="transparent" points="-4,4 -4,-35 419,-35 419,4 -4,4"/>
<!-- Node34 -->
<g id="node1" class="node">
<title>Node34</title>
<polygon fill="#bfbfbf" stroke="#000000" points="0,-.5 0,-30.5 115,-30.5 115,-.5 0,-.5"/>
<text text-anchor="start" x="8" y="-18.5" font-family="Helvetica,sans-Serif" font-size="10.00" fill="#000000">openage::renderer::</text>
<text text-anchor="middle" x="57.5" y="-7.5" font-family="Helvetica,sans-Serif" font-size="10.00" fill="#000000">Window::should_close</text>
</g>
<!-- Node35 -->
<g id="node2" class="node">
<title>Node35</title>
<g id="a_node2"><a xlink:href="../../dc/dbb/namespaceopenage_1_1renderer_1_1tests.xhtml#a6f980e5dd40ec0b730e586e2484233d2" target="_top" xlink:title="openage::renderer::\ltests::renderer_demo_0">
<polygon fill="#ffffff" stroke="#000000" points="151,-.5 151,-30.5 270,-30.5 270,-.5 151,-.5"/>
<text text-anchor="start" x="159" y="-18.5" font-family="Helvetica,sans-Serif" font-size="10.00" fill="#000000">openage::renderer::</text>
<text text-anchor="middle" x="210.5" y="-7.5" font-family="Helvetica,sans-Serif" font-size="10.00" fill="#000000">tests::renderer_demo_0</text>
</a>
</g>
</g>
<!-- Node34&#45;&gt;Node35 -->
<g id="edge1" class="edge">
<title>Node34&#45;&gt;Node35</title>
<path fill="none" stroke="#191970" d="M125.521,-15.5C133.9447,-15.5 142.5073,-15.5 150.7934,-15.5"/>
<polygon fill="#191970" stroke="#191970" points="125.3428,-12.0001 115.3427,-15.5 125.3427,-19.0001 125.3428,-12.0001"/>
</g>
<!-- Node36 -->
<g id="node3" class="node">
<title>Node36</title>
<g id="a_node3"><a xlink:href="../../dc/dbb/namespaceopenage_1_1renderer_1_1tests.xhtml#ac2256044717a0f7f7aafbb1f2be3a1eb" target="_top" xlink:title="openage::renderer::\ltests::renderer_demo">
<polygon fill="#ffffff" stroke="#000000" points="306,-.5 306,-30.5 415,-30.5 415,-.5 306,-.5"/>
<text text-anchor="start" x="314" y="-18.5" font-family="Helvetica,sans-Serif" font-size="10.00" fill="#000000">openage::renderer::</text>
<text text-anchor="middle" x="360.5" y="-7.5" font-family="Helvetica,sans-Serif" font-size="10.00" fill="#000000">tests::renderer_demo</text>
</a>
</g>
</g>
<!-- Node35&#45;&gt;Node36 -->
<g id="edge2" class="edge">
<title>Node35&#45;&gt;Node36</title>
<path fill="none" stroke="#191970" d="M280.2386,-15.5C288.8367,-15.5 297.5274,-15.5 305.8559,-15.5"/>
<polygon fill="#191970" stroke="#191970" points="280.215,-12.0001 270.215,-15.5 280.2149,-19.0001 280.215,-12.0001"/>
</g>
</g>
</svg>
