<?xml version="1.0" encoding="UTF-8" standalone="no"?>
<!DOCTYPE svg PUBLIC "-//W3C//DTD SVG 1.1//EN"
 "http://www.w3.org/Graphics/SVG/1.1/DTD/svg11.dtd">
<!-- Generated by graphviz version 2.40.1 (20161225.0304)
 -->
<!-- Title: openage::console::draw::to_terminal Pages: 1 -->
<svg width="285pt" height="88pt"
 viewBox="0.00 0.00 285.00 88.00" xmlns="http://www.w3.org/2000/svg" xmlns:xlink="http://www.w3.org/1999/xlink">
<g id="graph0" class="graph" transform="scale(1 1) rotate(0) translate(4 84)">
<title>openage::console::draw::to_terminal</title>
<polygon fill="#ffffff" stroke="transparent" points="-4,4 -4,-84 281,-84 281,4 -4,4"/>
<!-- Node26 -->
<g id="node1" class="node">
<title>Node26</title>
<polygon fill="#bfbfbf" stroke="#000000" points="0,-24.5 0,-54.5 120,-54.5 120,-24.5 0,-24.5"/>
<text text-anchor="start" x="8" y="-42.5" font-family="Helvetica,sans-Serif" font-size="10.00" fill="#000000">openage::console::draw</text>
<text text-anchor="middle" x="60" y="-31.5" font-family="Helvetica,sans-Serif" font-size="10.00" fill="#000000">::to_terminal</text>
</g>
<!-- Node27 -->
<g id="node2" class="node">
<title>Node27</title>
<g id="a_node2"><a xlink:href="../../de/d06/namespaceopenage_1_1console_1_1tests.xhtml#a4a108e620e3fead2c08ff14841552186" target="_top" xlink:title="openage::console::tests\l::interactive">
<polygon fill="#ffffff" stroke="#000000" points="156,-49.5 156,-79.5 277,-79.5 277,-49.5 156,-49.5"/>
<text text-anchor="start" x="164" y="-67.5" font-family="Helvetica,sans-Serif" font-size="10.00" fill="#000000">openage::console::tests</text>
<text text-anchor="middle" x="216.5" y="-56.5" font-family="Helvetica,sans-Serif" font-size="10.00" fill="#000000">::interactive</text>
</a>
</g>
</g>
<!-- Node26&#45;&gt;Node27 -->
<g id="edge1" class="edge">
<title>Node26&#45;&gt;Node27</title>
<path fill="none" stroke="#191970" d="M130.0624,-50.6921C138.657,-52.065 147.3848,-53.4592 155.825,-54.8075"/>
<polygon fill="#191970" stroke="#191970" points="130.4863,-47.2155 120.0594,-49.0942 129.3821,-54.1279 130.4863,-47.2155"/>
</g>
<!-- Node28 -->
<g id="node3" class="node">
<title>Node28</title>
<g id="a_node3"><a xlink:href="../../de/d06/namespaceopenage_1_1console_1_1tests.xhtml#a15c3b269411a779e1ae9af60a3b6fedf" target="_top" xlink:title="openage::console::tests\l::render">
<polygon fill="#ffffff" stroke="#000000" points="156,-.5 156,-30.5 277,-30.5 277,-.5 156,-.5"/>
<text text-anchor="start" x="164" y="-18.5" font-family="Helvetica,sans-Serif" font-size="10.00" fill="#000000">openage::console::tests</text>
<text text-anchor="middle" x="216.5" y="-7.5" font-family="Helvetica,sans-Serif" font-size="10.00" fill="#000000">::render</text>
</a>
</g>
</g>
<!-- Node26&#45;&gt;Node28 -->
<g id="edge2" class="edge">
<title>Node26&#45;&gt;Node28</title>
<path fill="none" stroke="#191970" d="M130.0624,-28.7556C138.657,-27.4376 147.3848,-26.0991 155.825,-24.8048"/>
<polygon fill="#191970" stroke="#191970" points="129.4133,-25.3141 120.0594,-30.2896 130.4744,-32.2333 129.4133,-25.3141"/>
</g>
</g>
</svg>
