<?xml version="1.0" encoding="UTF-8" standalone="no"?>
<!DOCTYPE svg PUBLIC "-//W3C//DTD SVG 1.1//EN"
 "http://www.w3.org/Graphics/SVG/1.1/DTD/svg11.dtd">
<!-- Generated by graphviz version 2.40.1 (20161225.0304)
 -->
<!-- Title: openage.util.fslike.abstract.ReadOnlyFSLikeObject.mkdirs Pages: 1 -->
<svg width="772pt" height="50pt"
 viewBox="0.00 0.00 772.00 50.00" xmlns="http://www.w3.org/2000/svg" xmlns:xlink="http://www.w3.org/1999/xlink">
<g id="graph0" class="graph" transform="scale(1 1) rotate(0) translate(4 46)">
<title>openage.util.fslike.abstract.ReadOnlyFSLikeObject.mkdirs</title>
<polygon fill="#ffffff" stroke="transparent" points="-4,4 -4,-46 768,-46 768,4 -4,4"/>
<!-- Node0 -->
<g id="node1" class="node">
<title>Node0</title>
<polygon fill="#bfbfbf" stroke="#000000" points="0,-6 0,-36 152,-36 152,-6 0,-6"/>
<text text-anchor="start" x="8" y="-24" font-family="Helvetica,sans-Serif" font-size="10.00" fill="#000000">openage.util.fslike.abstract.</text>
<text text-anchor="middle" x="76" y="-13" font-family="Helvetica,sans-Serif" font-size="10.00" fill="#000000">ReadOnlyFSLikeObject.mkdirs</text>
</g>
<!-- Node1 -->
<g id="node2" class="node">
<title>Node1</title>
<g id="a_node2"><a xlink:href="../../d9/dc4/classopenage_1_1util_1_1fslike_1_1abstract_1_1_read_only_f_s_like_object.xhtml#a2e8e2035b251083880f7fe97d4090734" target="_top" xlink:title="Helper method to be called from all other methods. ">
<polygon fill="#ffffff" stroke="#000000" points="188,-.5 188,-41.5 329,-41.5 329,-.5 188,-.5"/>
<text text-anchor="start" x="196" y="-29.5" font-family="Helvetica,sans-Serif" font-size="10.00" fill="#000000">openage.util.fslike.abstract.</text>
<text text-anchor="start" x="196" y="-18.5" font-family="Helvetica,sans-Serif" font-size="10.00" fill="#000000">ReadOnlyFSLikeObject.read</text>
<text text-anchor="middle" x="258.5" y="-7.5" font-family="Helvetica,sans-Serif" font-size="10.00" fill="#000000">_only_error</text>
</a>
</g>
</g>
<!-- Node0&#45;&gt;Node1 -->
<g id="edge1" class="edge">
<title>Node0&#45;&gt;Node1</title>
<path fill="none" stroke="#191970" d="M152.0749,-21C160.4884,-21 169.079,-21 177.5496,-21"/>
<polygon fill="#191970" stroke="#191970" points="177.8025,-24.5001 187.8025,-21 177.8025,-17.5001 177.8025,-24.5001"/>
</g>
<!-- Node2 -->
<g id="node3" class="node">
<title>Node2</title>
<g id="a_node3"><a xlink:href="../../d4/dd4/namespaceopenage_1_1py.xhtml#a4d2bbe46a5d10404c658b54f3b199551" target="_top" xlink:title="str(value); ">
<polygon fill="#ffffff" stroke="#000000" points="365,-11.5 365,-30.5 452,-30.5 452,-11.5 365,-11.5"/>
<text text-anchor="middle" x="408.5" y="-18.5" font-family="Helvetica,sans-Serif" font-size="10.00" fill="#000000">openage::py::str</text>
</a>
</g>
</g>
<!-- Node1&#45;&gt;Node2 -->
<g id="edge2" class="edge">
<title>Node1&#45;&gt;Node2</title>
<path fill="none" stroke="#191970" d="M329.1077,-21C337.6563,-21 346.2812,-21 354.5361,-21"/>
<polygon fill="#191970" stroke="#191970" points="354.761,-24.5001 364.761,-21 354.761,-17.5001 354.761,-24.5001"/>
</g>
<!-- Node3 -->
<g id="node4" class="node">
<title>Node3</title>
<g id="a_node4"><a xlink:href="../../d5/d0e/namespaceopenage_1_1testing_1_1testing.xhtml#ac25bf81db406af62d08113ef7ae9fd6e" target="_top" xlink:title="openage.testing.testing.result">
<polygon fill="#ffffff" stroke="#000000" points="488,-11.5 488,-30.5 633,-30.5 633,-11.5 488,-11.5"/>
<text text-anchor="middle" x="560.5" y="-18.5" font-family="Helvetica,sans-Serif" font-size="10.00" fill="#000000">openage.testing.testing.result</text>
</a>
</g>
</g>
<!-- Node2&#45;&gt;Node3 -->
<g id="edge3" class="edge">
<title>Node2&#45;&gt;Node3</title>
<path fill="none" stroke="#191970" d="M452.0571,-21C460.2156,-21 468.9882,-21 477.8826,-21"/>
<polygon fill="#191970" stroke="#191970" points="477.9502,-24.5001 487.9501,-21 477.9501,-17.5001 477.9502,-24.5001"/>
</g>
<!-- Node4 -->
<g id="node5" class="node">
<title>Node4</title>
<g id="a_node5"><a xlink:href="../../de/d60/namespaceopenage_1_1util.xhtml#a7bc4421a5f0f57f3a0aba3f96eb8d19c" target="_top" xlink:title="method that behaves similar to python&#39;s &quot;repr&quot;. ">
<polygon fill="#ffffff" stroke="#000000" points="669,-11.5 669,-30.5 764,-30.5 764,-11.5 669,-11.5"/>
<text text-anchor="middle" x="716.5" y="-18.5" font-family="Helvetica,sans-Serif" font-size="10.00" fill="#000000">openage::util::repr</text>
</a>
</g>
</g>
<!-- Node3&#45;&gt;Node4 -->
<g id="edge4" class="edge">
<title>Node3&#45;&gt;Node4</title>
<path fill="none" stroke="#191970" d="M633.0196,-14.2648C641.6179,-14.2182 650.3054,-14.2815 658.6614,-14.4545"/>
<polygon fill="#191970" stroke="#191970" points="658.5718,-17.9533 668.6613,-14.7201 658.7578,-10.9558 658.5718,-17.9533"/>
</g>
<!-- Node4&#45;&gt;Node3 -->
<g id="edge5" class="edge">
<title>Node4&#45;&gt;Node3</title>
<path fill="none" stroke="#191970" d="M668.6613,-27.2799C660.5562,-27.5451 651.9375,-27.6982 643.24,-27.7389"/>
<polygon fill="#191970" stroke="#191970" points="643.021,-24.2389 633.0196,-27.7352 643.0183,-31.2389 643.021,-24.2389"/>
</g>
</g>
</svg>
