<?xml version="1.0" encoding="UTF-8" standalone="no"?>
<!DOCTYPE svg PUBLIC "-//W3C//DTD SVG 1.1//EN"
 "http://www.w3.org/Graphics/SVG/1.1/DTD/svg11.dtd">
<!-- Generated by graphviz version 2.40.1 (20161225.0304)
 -->
<!-- Title: openage.util.fslike.abstract.ReadOnlyFSLikeObject.unlink Pages: 1 -->
<svg width="312pt" height="39pt"
 viewBox="0.00 0.00 312.00 39.00" xmlns="http://www.w3.org/2000/svg" xmlns:xlink="http://www.w3.org/1999/xlink">
<g id="graph0" class="graph" transform="scale(1 1) rotate(0) translate(4 35)">
<title>openage.util.fslike.abstract.ReadOnlyFSLikeObject.unlink</title>
<polygon fill="#ffffff" stroke="transparent" points="-4,4 -4,-35 308,-35 308,4 -4,4"/>
<!-- Node48 -->
<g id="node1" class="node">
<title>Node48</title>
<polygon fill="#bfbfbf" stroke="#000000" points="0,-.5 0,-30.5 148,-30.5 148,-.5 0,-.5"/>
<text text-anchor="start" x="8" y="-18.5" font-family="Helvetica,sans-Serif" font-size="10.00" fill="#000000">openage.util.fslike.abstract.</text>
<text text-anchor="middle" x="74" y="-7.5" font-family="Helvetica,sans-Serif" font-size="10.00" fill="#000000">ReadOnlyFSLikeObject.unlink</text>
</g>
<!-- Node49 -->
<g id="node2" class="node">
<title>Node49</title>
<g id="a_node2"><a xlink:href="../../d6/d6b/classopenage_1_1util_1_1fslike_1_1path_1_1_path.xhtml#a54ddfaca7c17c046c0a7472bb6af3d76" target="_top" xlink:title="Recursively deletes this file or directory. ">
<polygon fill="#ffffff" stroke="#000000" points="184,-.5 184,-30.5 304,-30.5 304,-.5 184,-.5"/>
<text text-anchor="start" x="192" y="-18.5" font-family="Helvetica,sans-Serif" font-size="10.00" fill="#000000">openage.util.fslike.path.</text>
<text text-anchor="middle" x="244" y="-7.5" font-family="Helvetica,sans-Serif" font-size="10.00" fill="#000000">Path.removerecursive</text>
</a>
</g>
</g>
<!-- Node48&#45;&gt;Node49 -->
<g id="edge1" class="edge">
<title>Node48&#45;&gt;Node49</title>
<path fill="none" stroke="#191970" d="M158.2346,-15.5C166.916,-15.5 175.6081,-15.5 183.9485,-15.5"/>
<polygon fill="#191970" stroke="#191970" points="158.07,-12.0001 148.0699,-15.5 158.0699,-19.0001 158.07,-12.0001"/>
</g>
</g>
</svg>
