<?xml version="1.0" encoding="UTF-8" standalone="no"?>
<!DOCTYPE svg PUBLIC "-//W3C//DTD SVG 1.1//EN"
 "http://www.w3.org/Graphics/SVG/1.1/DTD/svg11.dtd">
<!-- Generated by graphviz version 2.40.1 (20161225.0304)
 -->
<!-- Title: /mnt/c/Users/Jameson/Desktop/git/openage&#45;new&#45;doc&#45;system/libopenage/gamestate/game_save.cpp Pages: 1 -->
<svg width="2834pt" height="475pt"
 viewBox="0.00 0.00 2834.00 475.00" xmlns="http://www.w3.org/2000/svg" xmlns:xlink="http://www.w3.org/1999/xlink">
<g id="graph0" class="graph" transform="scale(1 1) rotate(0) translate(4 471)">
<title>/mnt/c/Users/Jameson/Desktop/git/openage&#45;new&#45;doc&#45;system/libopenage/gamestate/game_save.cpp</title>
<polygon fill="#ffffff" stroke="transparent" points="-4,4 -4,-471 2830,-471 2830,4 -4,4"/>
<!-- Node0 -->
<g id="node1" class="node">
<title>Node0</title>
<polygon fill="#bfbfbf" stroke="#000000" points="1263.5,-414.5 1263.5,-466.5 1404.5,-466.5 1404.5,-414.5 1263.5,-414.5"/>
<text text-anchor="start" x="1271.5" y="-454.5" font-family="Helvetica,sans-Serif" font-size="10.00" fill="#000000">/mnt/c/Users/Jameson</text>
<text text-anchor="start" x="1271.5" y="-443.5" font-family="Helvetica,sans-Serif" font-size="10.00" fill="#000000">/Desktop/git/openage</text>
<text text-anchor="start" x="1271.5" y="-432.5" font-family="Helvetica,sans-Serif" font-size="10.00" fill="#000000">&#45;new&#45;doc&#45;system/libopenage</text>
<text text-anchor="middle" x="1334" y="-421.5" font-family="Helvetica,sans-Serif" font-size="10.00" fill="#000000">/gamestate/game_save.cpp</text>
</g>
<!-- Node1 -->
<g id="node2" class="node">
<title>Node1</title>
<g id="a_node2"><a xlink:href="../../da/dc9/game__save_8h.xhtml" target="_top" xlink:title="game_save.h">
<polygon fill="#ffffff" stroke="#000000" points="235.5,-358.5 235.5,-377.5 310.5,-377.5 310.5,-358.5 235.5,-358.5"/>
<text text-anchor="middle" x="273" y="-365.5" font-family="Helvetica,sans-Serif" font-size="10.00" fill="#000000">game_save.h</text>
</a>
</g>
</g>
<!-- Node0&#45;&gt;Node1 -->
<g id="edge1" class="edge">
<title>Node0&#45;&gt;Node1</title>
<path fill="none" stroke="#191970" d="M1263.3568,-435.8308C1108.8012,-425.5901 729.0307,-400.2903 411,-378 381.0667,-375.902 347.4874,-373.4704 320.9475,-371.5304"/>
<polygon fill="#191970" stroke="#191970" points="321.0046,-368.0253 310.7757,-370.7857 320.4934,-375.0066 321.0046,-368.0253"/>
</g>
<!-- Node3 -->
<g id="node4" class="node">
<title>Node3</title>
<polygon fill="#ffffff" stroke="#bfbfbf" points="2475,-56.5 2475,-75.5 2525,-75.5 2525,-56.5 2475,-56.5"/>
<text text-anchor="middle" x="2500" y="-63.5" font-family="Helvetica,sans-Serif" font-size="10.00" fill="#000000">fstream</text>
</g>
<!-- Node0&#45;&gt;Node3 -->
<g id="edge3" class="edge">
<title>Node0&#45;&gt;Node3</title>
<path fill="none" stroke="#191970" d="M1404.9585,-438.1547C1701.4664,-427.896 2826,-384.2276 2826,-312 2826,-312 2826,-312 2826,-194.5 2826,-132.4505 2619.0037,-87.6962 2534.898,-72.0729"/>
<polygon fill="#191970" stroke="#191970" points="2535.5057,-68.6261 2525.0394,-70.2709 2534.247,-75.512 2535.5057,-68.6261"/>
</g>
<!-- Node4 -->
<g id="node5" class="node">
<title>Node4</title>
<polygon fill="#ffffff" stroke="#bfbfbf" points="1126,-56.5 1126,-75.5 1170,-75.5 1170,-56.5 1126,-56.5"/>
<text text-anchor="middle" x="1148" y="-63.5" font-family="Helvetica,sans-Serif" font-size="10.00" fill="#000000">vector</text>
</g>
<!-- Node0&#45;&gt;Node4 -->
<g id="edge4" class="edge">
<title>Node0&#45;&gt;Node4</title>
<path fill="none" stroke="#191970" d="M1263.2652,-432.3018C1107.7832,-413.3242 750,-364.0045 750,-312 750,-312 750,-312 750,-256 750,-184.246 764.6471,-153.7562 823,-112 869.5046,-78.7222 1042.8422,-69.35 1115.563,-66.8537"/>
<polygon fill="#191970" stroke="#191970" points="1116.0533,-70.3398 1125.936,-66.5213 1115.829,-63.3434 1116.0533,-70.3398"/>
</g>
<!-- Node5 -->
<g id="node6" class="node">
<title>Node5</title>
<g id="a_node6"><a xlink:href="../../d7/d7f/log_8h.xhtml" target="_top" xlink:title="../log/log.h">
<polygon fill="#ffffff" stroke="#000000" points="67,-185 67,-204 129,-204 129,-185 67,-185"/>
<text text-anchor="middle" x="98" y="-192" font-family="Helvetica,sans-Serif" font-size="10.00" fill="#000000">../log/log.h</text>
</a>
</g>
</g>
<!-- Node0&#45;&gt;Node5 -->
<g id="edge5" class="edge">
<title>Node0&#45;&gt;Node5</title>
<path fill="none" stroke="#191970" d="M1263.3923,-438.7389C1034.7371,-432.7285 323.6649,-411.5209 226,-378 184.6045,-363.7921 171.8175,-356.5873 145,-322 119.4497,-289.047 106.7762,-240.8191 101.3781,-214.1172"/>
<polygon fill="#191970" stroke="#191970" points="104.782,-213.2795 99.4937,-204.0988 97.9026,-214.5735 104.782,-213.2795"/>
</g>
<!-- Node31 -->
<g id="node12" class="node">
<title>Node31</title>
<g id="a_node12"><a xlink:href="../../dd/deb/terrain__chunk_8h.xhtml" target="_top" xlink:title="../terrain/terrain\l_chunk.h">
<polygon fill="#ffffff" stroke="#000000" points="421.5,-179.5 421.5,-209.5 504.5,-209.5 504.5,-179.5 421.5,-179.5"/>
<text text-anchor="start" x="429.5" y="-197.5" font-family="Helvetica,sans-Serif" font-size="10.00" fill="#000000">../terrain/terrain</text>
<text text-anchor="middle" x="463" y="-186.5" font-family="Helvetica,sans-Serif" font-size="10.00" fill="#000000">_chunk.h</text>
</a>
</g>
</g>
<!-- Node0&#45;&gt;Node31 -->
<g id="edge13" class="edge">
<title>Node0&#45;&gt;Node31</title>
<path fill="none" stroke="#191970" d="M1263.3048,-437.3922C1126.6632,-430.6859 831.3691,-412.5929 736,-378 633.1922,-340.7089 531.4292,-256.5254 486.6777,-216.4732"/>
<polygon fill="#191970" stroke="#191970" points="489.0112,-213.8646 479.2455,-209.7558 484.3175,-219.0578 489.0112,-213.8646"/>
</g>
<!-- Node69 -->
<g id="node19" class="node">
<title>Node69</title>
<g id="a_node19"><a xlink:href="../../d9/d2c/producer_8h.xhtml" target="_top" xlink:title="../unit/producer.h">
<polygon fill="#ffffff" stroke="#000000" points="1519,-358.5 1519,-377.5 1609,-377.5 1609,-358.5 1519,-358.5"/>
<text text-anchor="middle" x="1564" y="-365.5" font-family="Helvetica,sans-Serif" font-size="10.00" fill="#000000">../unit/producer.h</text>
</a>
</g>
</g>
<!-- Node0&#45;&gt;Node69 -->
<g id="edge27" class="edge">
<title>Node0&#45;&gt;Node69</title>
<path fill="none" stroke="#191970" d="M1404.5706,-418.2549C1443.8225,-405.882 1491.2345,-390.9369 1524.1016,-380.5767"/>
<polygon fill="#191970" stroke="#191970" points="1525.3245,-383.861 1533.8097,-377.5165 1523.22,-377.1849 1525.3245,-383.861"/>
</g>
<!-- Node94 -->
<g id="node24" class="node">
<title>Node94</title>
<g id="a_node24"><a xlink:href="../../d1/da2/unit_8h.xhtml" target="_top" xlink:title="unit.h">
<polygon fill="#ffffff" stroke="#000000" points="1218.5,-302.5 1218.5,-321.5 1259.5,-321.5 1259.5,-302.5 1218.5,-302.5"/>
<text text-anchor="middle" x="1239" y="-309.5" font-family="Helvetica,sans-Serif" font-size="10.00" fill="#000000">unit.h</text>
</a>
</g>
</g>
<!-- Node0&#45;&gt;Node94 -->
<g id="edge87" class="edge">
<title>Node0&#45;&gt;Node94</title>
<path fill="none" stroke="#191970" d="M1314.7753,-414.4961C1296.0958,-389.2295 1268.2437,-351.5559 1252.022,-329.614"/>
<polygon fill="#191970" stroke="#191970" points="1254.793,-327.4746 1246.0338,-321.5142 1249.1643,-331.636 1254.793,-327.4746"/>
</g>
<!-- Node110 -->
<g id="node39" class="node">
<title>Node110</title>
<g id="a_node39"><a xlink:href="../../d7/dfc/unit__type_8h.xhtml" target="_top" xlink:title="unit_type.h">
<polygon fill="#ffffff" stroke="#000000" points="1797.5,-302.5 1797.5,-321.5 1862.5,-321.5 1862.5,-302.5 1797.5,-302.5"/>
<text text-anchor="middle" x="1830" y="-309.5" font-family="Helvetica,sans-Serif" font-size="10.00" fill="#000000">unit_type.h</text>
</a>
</g>
</g>
<!-- Node0&#45;&gt;Node110 -->
<g id="edge88" class="edge">
<title>Node0&#45;&gt;Node110</title>
<path fill="none" stroke="#191970" d="M1404.7203,-426.6812C1462.4242,-414.9882 1545.8998,-397.1195 1618,-378 1679.7455,-361.6263 1750.3863,-338.7949 1792.533,-324.7273"/>
<polygon fill="#191970" stroke="#191970" points="1793.7314,-328.0171 1802.1009,-321.5208 1791.507,-321.3799 1793.7314,-328.0171"/>
</g>
<!-- Node112 -->
<g id="node41" class="node">
<title>Node112</title>
<g id="a_node41"><a xlink:href="../../d9/db2/game__main_8h.xhtml" target="_top" xlink:title="game_main.h">
<polygon fill="#ffffff" stroke="#000000" points="1328.5,-246.5 1328.5,-265.5 1403.5,-265.5 1403.5,-246.5 1328.5,-246.5"/>
<text text-anchor="middle" x="1366" y="-253.5" font-family="Helvetica,sans-Serif" font-size="10.00" fill="#000000">game_main.h</text>
</a>
</g>
</g>
<!-- Node0&#45;&gt;Node112 -->
<g id="edge89" class="edge">
<title>Node0&#45;&gt;Node112</title>
<path fill="none" stroke="#191970" d="M1338.5169,-414.457C1344.9869,-377.1535 1356.7517,-309.3224 1362.563,-275.8167"/>
<polygon fill="#191970" stroke="#191970" points="1366.0288,-276.3145 1364.2893,-265.8635 1359.1318,-275.1182 1366.0288,-276.3145"/>
</g>
<!-- Node75 -->
<g id="node47" class="node">
<title>Node75</title>
<g id="a_node47"><a xlink:href="../../d4/d97/game__spec_8h.xhtml" target="_top" xlink:title="game_spec.h">
<polygon fill="#ffffff" stroke="#000000" points="2047.5,-246.5 2047.5,-265.5 2122.5,-265.5 2122.5,-246.5 2047.5,-246.5"/>
<text text-anchor="middle" x="2085" y="-253.5" font-family="Helvetica,sans-Serif" font-size="10.00" fill="#000000">game_spec.h</text>
</a>
</g>
</g>
<!-- Node0&#45;&gt;Node75 -->
<g id="edge118" class="edge">
<title>Node0&#45;&gt;Node75</title>
<path fill="none" stroke="#191970" d="M1404.8113,-428.6895C1471.855,-417.1299 1575.1886,-398.3348 1664,-378 1757.3213,-356.6326 1780.0382,-348.6169 1872,-322 1932.9365,-304.3629 2003.1328,-282.2632 2045.768,-268.6401"/>
<polygon fill="#191970" stroke="#191970" points="2047.0148,-271.916 2055.4716,-265.5337 2044.8806,-265.2492 2047.0148,-271.916"/>
</g>
<!-- Node2 -->
<g id="node3" class="node">
<title>Node2</title>
<polygon fill="#ffffff" stroke="#bfbfbf" points="391.5,-56.5 391.5,-75.5 432.5,-75.5 432.5,-56.5 391.5,-56.5"/>
<text text-anchor="middle" x="412" y="-63.5" font-family="Helvetica,sans-Serif" font-size="10.00" fill="#000000">string</text>
</g>
<!-- Node1&#45;&gt;Node2 -->
<g id="edge2" class="edge">
<title>Node1&#45;&gt;Node2</title>
<path fill="none" stroke="#191970" d="M250.749,-358.3895C217.5729,-342.3825 159,-306.9125 159,-256 159,-256 159,-256 159,-194.5 159,-95.8308 313.8596,-72.8981 381.2657,-67.5896"/>
<polygon fill="#191970" stroke="#191970" points="381.5679,-71.077 391.2959,-66.88 381.0739,-64.0945 381.5679,-71.077"/>
</g>
<!-- Node6 -->
<g id="node7" class="node">
<title>Node6</title>
<g id="a_node7"><a xlink:href="../../de/d09/level_8h.xhtml" target="_top" xlink:title="level.h">
<polygon fill="#ffffff" stroke="#000000" points="14.5,-56.5 14.5,-75.5 59.5,-75.5 59.5,-56.5 14.5,-56.5"/>
<text text-anchor="middle" x="37" y="-63.5" font-family="Helvetica,sans-Serif" font-size="10.00" fill="#000000">level.h</text>
</a>
</g>
</g>
<!-- Node5&#45;&gt;Node6 -->
<g id="edge6" class="edge">
<title>Node5&#45;&gt;Node6</title>
<path fill="none" stroke="#191970" d="M87.8272,-184.8072C78.2325,-175.1043 64.1422,-159.3095 56,-143 46.9435,-124.8591 42.0193,-102.1103 39.47,-86.0573"/>
<polygon fill="#191970" stroke="#191970" points="42.8731,-85.1252 38.0083,-75.7133 35.942,-86.1046 42.8731,-85.1252"/>
</g>
<!-- Node13 -->
<g id="node9" class="node">
<title>Node13</title>
<g id="a_node9"><a xlink:href="../../d2/d0d/message_8h.xhtml" target="_top" xlink:title="message.h">
<polygon fill="#ffffff" stroke="#ff0000" points="65.5,-118 65.5,-137 130.5,-137 130.5,-118 65.5,-118"/>
<text text-anchor="middle" x="98" y="-125" font-family="Helvetica,sans-Serif" font-size="10.00" fill="#000000">message.h</text>
</a>
</g>
</g>
<!-- Node5&#45;&gt;Node13 -->
<g id="edge8" class="edge">
<title>Node5&#45;&gt;Node13</title>
<path fill="none" stroke="#191970" d="M98,-184.9005C98,-175.149 98,-159.7597 98,-147.3695"/>
<polygon fill="#191970" stroke="#191970" points="101.5001,-147.0816 98,-137.0817 94.5001,-147.0817 101.5001,-147.0816"/>
</g>
<!-- Node7 -->
<g id="node8" class="node">
<title>Node7</title>
<g id="a_node8"><a xlink:href="../../d0/d9b/enum_8h.xhtml" target="_top" xlink:title="../util/enum.h">
<polygon fill="#ffffff" stroke="#ff0000" points="0,-.5 0,-19.5 74,-19.5 74,-.5 0,-.5"/>
<text text-anchor="middle" x="37" y="-7.5" font-family="Helvetica,sans-Serif" font-size="10.00" fill="#000000">../util/enum.h</text>
</a>
</g>
</g>
<!-- Node6&#45;&gt;Node7 -->
<g id="edge7" class="edge">
<title>Node6&#45;&gt;Node7</title>
<path fill="none" stroke="#191970" d="M37,-56.2455C37,-48.9382 37,-38.6944 37,-29.7046"/>
<polygon fill="#191970" stroke="#191970" points="40.5001,-29.6426 37,-19.6427 33.5001,-29.6427 40.5001,-29.6426"/>
</g>
<!-- Node13&#45;&gt;Node2 -->
<g id="edge10" class="edge">
<title>Node13&#45;&gt;Node2</title>
<path fill="none" stroke="#191970" d="M124.6426,-117.9551C131.2402,-115.8023 138.331,-113.6645 145,-112 229.3971,-90.9362 331.1912,-76.3001 381.2058,-69.7971"/>
<polygon fill="#191970" stroke="#191970" points="381.8773,-73.2398 391.3516,-68.4976 380.988,-66.2965 381.8773,-73.2398"/>
</g>
<!-- Node13&#45;&gt;Node6 -->
<g id="edge12" class="edge">
<title>Node13&#45;&gt;Node6</title>
<path fill="none" stroke="#191970" d="M88.4688,-117.8906C79.2121,-108.5581 64.961,-94.1902 53.7997,-82.9374"/>
<polygon fill="#191970" stroke="#191970" points="56.1928,-80.38 46.6656,-75.7449 51.2228,-85.3095 56.1928,-80.38"/>
</g>
<!-- Node14 -->
<g id="node10" class="node">
<title>Node14</title>
<polygon fill="#ffffff" stroke="#bfbfbf" points="212,-.5 212,-19.5 258,-19.5 258,-.5 212,-.5"/>
<text text-anchor="middle" x="235" y="-7.5" font-family="Helvetica,sans-Serif" font-size="10.00" fill="#000000">cstdint</text>
</g>
<!-- Node13&#45;&gt;Node14 -->
<g id="edge9" class="edge">
<title>Node13&#45;&gt;Node14</title>
<path fill="none" stroke="#191970" d="M109.2113,-117.8845C132.5932,-97.8306 186.7941,-51.3445 215.826,-26.4449"/>
<polygon fill="#191970" stroke="#191970" points="218.3218,-28.9153 223.6338,-19.7484 213.7646,-23.6019 218.3218,-28.9153"/>
</g>
<!-- Node15 -->
<g id="node11" class="node">
<title>Node15</title>
<polygon fill="#ffffff" stroke="#bfbfbf" points="77.5,-56.5 77.5,-75.5 128.5,-75.5 128.5,-56.5 77.5,-56.5"/>
<text text-anchor="middle" x="103" y="-63.5" font-family="Helvetica,sans-Serif" font-size="10.00" fill="#000000">config.h</text>
</g>
<!-- Node13&#45;&gt;Node15 -->
<g id="edge11" class="edge">
<title>Node13&#45;&gt;Node15</title>
<path fill="none" stroke="#191970" d="M98.7813,-117.8906C99.4743,-109.3657 100.509,-96.6392 101.3802,-85.9235"/>
<polygon fill="#191970" stroke="#191970" points="104.8858,-85.9956 102.2077,-75.7449 97.9088,-85.4283 104.8858,-85.9956"/>
</g>
<!-- Node31&#45;&gt;Node4 -->
<g id="edge15" class="edge">
<title>Node31&#45;&gt;Node4</title>
<path fill="none" stroke="#191970" d="M504.5793,-190.4604C552.465,-184.6582 632.6702,-171.3637 696,-143 717.5017,-133.37 717.0203,-120.4826 739,-112 807.8126,-85.4433 1031.6342,-71.8033 1115.6986,-67.5181"/>
<polygon fill="#191970" stroke="#191970" points="1116.1093,-71.002 1125.9225,-67.0082 1115.7606,-64.0107 1116.1093,-71.002"/>
</g>
<!-- Node32 -->
<g id="node13" class="node">
<title>Node32</title>
<polygon fill="#ffffff" stroke="#bfbfbf" points="873,-56.5 873,-75.5 925,-75.5 925,-56.5 873,-56.5"/>
<text text-anchor="middle" x="899" y="-63.5" font-family="Helvetica,sans-Serif" font-size="10.00" fill="#000000">stddef.h</text>
</g>
<!-- Node31&#45;&gt;Node32 -->
<g id="edge14" class="edge">
<title>Node31&#45;&gt;Node32</title>
<path fill="none" stroke="#191970" d="M475.3365,-179.3485C491.925,-160.1436 523.3661,-127.6576 558,-112 611.8727,-87.6447 786.3007,-73.4518 862.6492,-68.2668"/>
<polygon fill="#191970" stroke="#191970" points="863.0031,-71.7511 872.7486,-67.5948 862.5383,-64.7665 863.0031,-71.7511"/>
</g>
<!-- Node33 -->
<g id="node14" class="node">
<title>Node33</title>
<g id="a_node14"><a xlink:href="../../dd/dcd/pixel_8h.xhtml" target="_top" xlink:title="../coord/pixel.h">
<polygon fill="#ffffff" stroke="#ff0000" points="1158.5,-.5 1158.5,-19.5 1239.5,-19.5 1239.5,-.5 1158.5,-.5"/>
<text text-anchor="middle" x="1199" y="-7.5" font-family="Helvetica,sans-Serif" font-size="10.00" fill="#000000">../coord/pixel.h</text>
</a>
</g>
</g>
<!-- Node31&#45;&gt;Node33 -->
<g id="edge16" class="edge">
<title>Node31&#45;&gt;Node33</title>
<path fill="none" stroke="#191970" d="M442.3749,-179.2988C407.8718,-152.1233 345.6433,-94.4613 382,-56 408.3898,-28.0825 973.5947,-14.4995 1148.1274,-10.9603"/>
<polygon fill="#191970" stroke="#191970" points="1148.3988,-14.4556 1158.3266,-10.7559 1148.2585,-7.457 1148.3988,-14.4556"/>
</g>
<!-- Node47 -->
<g id="node15" class="node">
<title>Node47</title>
<g id="a_node15"><a xlink:href="../../da/dce/tile_8h.xhtml" target="_top" xlink:title="../coord/tile.h">
<polygon fill="#ffffff" stroke="#ff0000" points="502,-56.5 502,-75.5 576,-75.5 576,-56.5 502,-56.5"/>
<text text-anchor="middle" x="539" y="-63.5" font-family="Helvetica,sans-Serif" font-size="10.00" fill="#000000">../coord/tile.h</text>
</a>
</g>
</g>
<!-- Node31&#45;&gt;Node47 -->
<g id="edge17" class="edge">
<title>Node31&#45;&gt;Node47</title>
<path fill="none" stroke="#191970" d="M454.6585,-179.3363C446.271,-161.8421 436.2607,-132.818 449,-112 458.6472,-96.2349 475.5913,-85.6556 492.1947,-78.6636"/>
<polygon fill="#191970" stroke="#191970" points="493.7913,-81.7998 501.8734,-74.9492 491.2833,-75.2645 493.7913,-81.7998"/>
</g>
<!-- Node53 -->
<g id="node16" class="node">
<title>Node53</title>
<g id="a_node16"><a xlink:href="../../df/dba/texture_8h.xhtml" target="_top" xlink:title="../texture.h">
<polygon fill="#ffffff" stroke="#ff0000" points="623,-118 623,-137 687,-137 687,-118 623,-118"/>
<text text-anchor="middle" x="655" y="-125" font-family="Helvetica,sans-Serif" font-size="10.00" fill="#000000">../texture.h</text>
</a>
</g>
</g>
<!-- Node31&#45;&gt;Node53 -->
<g id="edge18" class="edge">
<title>Node31&#45;&gt;Node53</title>
<path fill="none" stroke="#191970" d="M504.7881,-180.6568C535.1731,-170.4917 577.2479,-156.2104 614,-143 616.0946,-142.2471 618.2459,-141.4639 620.4134,-140.6671"/>
<polygon fill="#191970" stroke="#191970" points="621.7441,-143.9065 629.8961,-137.1392 619.3032,-137.3458 621.7441,-143.9065"/>
</g>
<!-- Node66 -->
<g id="node18" class="node">
<title>Node66</title>
<g id="a_node18"><a xlink:href="../../d2/d4d/file_8h.xhtml" target="_top" xlink:title="file.h">
<polygon fill="#ffffff" stroke="#ff0000" points="567,-118 567,-137 605,-137 605,-118 567,-118"/>
<text text-anchor="middle" x="586" y="-125" font-family="Helvetica,sans-Serif" font-size="10.00" fill="#000000">file.h</text>
</a>
</g>
</g>
<!-- Node31&#45;&gt;Node66 -->
<g id="edge23" class="edge">
<title>Node31&#45;&gt;Node66</title>
<path fill="none" stroke="#191970" d="M490.6036,-179.4639C511.1485,-168.2728 539.0327,-153.0838 559.3465,-142.0186"/>
<polygon fill="#191970" stroke="#191970" points="561.2615,-144.9611 568.3689,-137.1039 557.913,-138.8139 561.2615,-144.9611"/>
</g>
<!-- Node53&#45;&gt;Node4 -->
<g id="edge19" class="edge">
<title>Node53&#45;&gt;Node4</title>
<path fill="none" stroke="#191970" d="M680.0239,-117.9451C686.7516,-115.6869 694.0822,-113.5018 701,-112 853.9587,-78.7935 1041.7196,-69.3822 1115.7819,-66.8646"/>
<polygon fill="#191970" stroke="#191970" points="1115.9838,-70.36 1125.8664,-66.5411 1115.7593,-63.3636 1115.9838,-70.36"/>
</g>
<!-- Node53&#45;&gt;Node33 -->
<g id="edge21" class="edge">
<title>Node53&#45;&gt;Node33</title>
<path fill="none" stroke="#191970" d="M678.0737,-117.9568C716.1404,-102.5902 794.785,-72.4285 864,-56 963.2189,-32.4499 1082.0302,-19.68 1148.1628,-13.9035"/>
<polygon fill="#191970" stroke="#191970" points="1148.6478,-17.3749 1158.3133,-13.0359 1148.0515,-10.4004 1148.6478,-17.3749"/>
</g>
<!-- Node53&#45;&gt;Node47 -->
<g id="edge22" class="edge">
<title>Node53&#45;&gt;Node47</title>
<path fill="none" stroke="#191970" d="M636.875,-117.8906C617.8917,-107.8262 587.8627,-91.9057 566.0693,-80.3514"/>
<polygon fill="#191970" stroke="#191970" points="567.4723,-77.1338 556.9977,-75.5419 564.1934,-83.3184 567.4723,-77.1338"/>
</g>
<!-- Node20 -->
<g id="node17" class="node">
<title>Node20</title>
<polygon fill="#ffffff" stroke="#bfbfbf" points="1568,-56.5 1568,-75.5 1620,-75.5 1620,-56.5 1568,-56.5"/>
<text text-anchor="middle" x="1594" y="-63.5" font-family="Helvetica,sans-Serif" font-size="10.00" fill="#000000">memory</text>
</g>
<!-- Node53&#45;&gt;Node20 -->
<g id="edge20" class="edge">
<title>Node53&#45;&gt;Node20</title>
<path fill="none" stroke="#191970" d="M687.0866,-124.7399C725.3739,-121.4888 791.3335,-116.0222 848,-112 1120.7602,-92.6394 1449.9636,-73.9827 1557.8583,-67.9902"/>
<polygon fill="#191970" stroke="#191970" points="1558.0995,-71.4823 1567.8904,-67.4341 1557.712,-64.493 1558.0995,-71.4823"/>
</g>
<!-- Node66&#45;&gt;Node2 -->
<g id="edge25" class="edge">
<title>Node66&#45;&gt;Node2</title>
<path fill="none" stroke="#191970" d="M566.7141,-120.6834C536.5464,-110.0207 477.951,-89.3103 442.1658,-76.6621"/>
<polygon fill="#191970" stroke="#191970" points="443.3148,-73.356 432.72,-73.3235 440.982,-79.9559 443.3148,-73.356"/>
</g>
<!-- Node66&#45;&gt;Node4 -->
<g id="edge26" class="edge">
<title>Node66&#45;&gt;Node4</title>
<path fill="none" stroke="#191970" d="M600.5963,-117.9149C604.7694,-115.5989 609.4291,-113.3927 614,-112 661.9709,-97.3837 1007.8069,-74.7652 1115.8419,-67.9858"/>
<polygon fill="#191970" stroke="#191970" points="1116.0614,-71.479 1125.8236,-67.3621 1115.6248,-64.4926 1116.0614,-71.479"/>
</g>
<!-- Node66&#45;&gt;Node20 -->
<g id="edge24" class="edge">
<title>Node66&#45;&gt;Node20</title>
<path fill="none" stroke="#191970" d="M600.2712,-117.9584C604.5173,-115.5819 609.2959,-113.3336 614,-112 705.9997,-85.9189 1390.7222,-70.1977 1557.4704,-66.7305"/>
<polygon fill="#191970" stroke="#191970" points="1557.7672,-70.2252 1567.6929,-66.5199 1557.6229,-63.2267 1557.7672,-70.2252"/>
</g>
<!-- Node69&#45;&gt;Node4 -->
<g id="edge30" class="edge">
<title>Node69&#45;&gt;Node4</title>
<path fill="none" stroke="#191970" d="M1518.7215,-365.96C1410.2318,-360.7489 1137.9193,-345.6656 1050,-322 956.0836,-296.7202 917.4193,-289.9253 862,-210 836.5072,-173.2345 809.7865,-145.8844 839,-112 856.9325,-91.2003 1039.9074,-74.5191 1115.5473,-68.4591"/>
<polygon fill="#191970" stroke="#191970" points="1116.2023,-71.9184 1125.8961,-67.6429 1115.6518,-64.9401 1116.2023,-71.9184"/>
</g>
<!-- Node69&#45;&gt;Node47 -->
<g id="edge31" class="edge">
<title>Node69&#45;&gt;Node47</title>
<path fill="none" stroke="#191970" d="M1518.8921,-365.3685C1314.7116,-352.9953 483.866,-297.5104 412,-210 390.7618,-184.1385 430.6609,-120.7498 439,-112 453.4829,-96.8037 473.9497,-86.179 492.5982,-79.0005"/>
<polygon fill="#191970" stroke="#191970" points="493.9256,-82.2425 502.143,-75.5549 491.5487,-75.6584 493.9256,-82.2425"/>
</g>
<!-- Node69&#45;&gt;Node20 -->
<g id="edge28" class="edge">
<title>Node69&#45;&gt;Node20</title>
<path fill="none" stroke="#191970" d="M1573.0343,-358.2825C1594.0361,-334.9447 1645.7435,-272.9826 1664,-210 1668.9411,-192.954 1669.6061,-125.8261 1662,-112 1654.4086,-98.2007 1640.7014,-87.7436 1627.5724,-80.3145"/>
<polygon fill="#191970" stroke="#191970" points="1629.141,-77.1851 1618.6578,-75.6512 1625.8963,-83.3877 1629.141,-77.1851"/>
</g>
<!-- Node70 -->
<g id="node20" class="node">
<title>Node70</title>
<polygon fill="#ffffff" stroke="#bfbfbf" points="2218.5,-56.5 2218.5,-75.5 2301.5,-75.5 2301.5,-56.5 2218.5,-56.5"/>
<text text-anchor="middle" x="2260" y="-63.5" font-family="Helvetica,sans-Serif" font-size="10.00" fill="#000000">unordered_map</text>
</g>
<!-- Node69&#45;&gt;Node70 -->
<g id="edge29" class="edge">
<title>Node69&#45;&gt;Node70</title>
<path fill="none" stroke="#191970" d="M1609.211,-366.9318C1789.0561,-362.5373 2448.3514,-344.997 2539,-322 2594.491,-307.9223 2617.0762,-308.8861 2655,-266 2700.4776,-214.5716 2715.3388,-160.7488 2667,-112 2660.7929,-105.7403 2419.8694,-81.5655 2311.6775,-70.9951"/>
<polygon fill="#191970" stroke="#191970" points="2311.9265,-67.5029 2301.634,-70.0157 2311.247,-74.4698 2311.9265,-67.5029"/>
</g>
<!-- Node71 -->
<g id="node21" class="node">
<title>Node71</title>
<polygon fill="#ffffff" stroke="#bfbfbf" points="2504.5,-185 2504.5,-204 2645.5,-204 2645.5,-185 2504.5,-185"/>
<text text-anchor="middle" x="2575" y="-192" font-family="Helvetica,sans-Serif" font-size="10.00" fill="#000000">../gamedata/gamedata.gen.h</text>
</g>
<!-- Node69&#45;&gt;Node71 -->
<g id="edge32" class="edge">
<title>Node69&#45;&gt;Node71</title>
<path fill="none" stroke="#191970" d="M1609.1973,-367.1175C1801.9112,-362.8965 2548.2518,-341.7293 2617,-266 2632.1348,-249.3283 2613.0985,-226.339 2595.9962,-210.9749"/>
<polygon fill="#191970" stroke="#191970" points="2597.8005,-207.9151 2587.914,-204.1061 2593.2673,-213.249 2597.8005,-207.9151"/>
</g>
<!-- Node72 -->
<g id="node22" class="node">
<title>Node72</title>
<polygon fill="#ffffff" stroke="#bfbfbf" points="2364,-118 2364,-137 2494,-137 2494,-118 2364,-118"/>
<text text-anchor="middle" x="2429" y="-125" font-family="Helvetica,sans-Serif" font-size="10.00" fill="#000000">../gamedata/graphic.gen.h</text>
</g>
<!-- Node69&#45;&gt;Node72 -->
<g id="edge33" class="edge">
<title>Node69&#45;&gt;Node72</title>
<path fill="none" stroke="#191970" d="M1609.0962,-367.4058C1768.3684,-365.0438 2303.9116,-354.7936 2472,-322 2546.3586,-307.4928 2578.3792,-318.4997 2633,-266 2661.7549,-238.3618 2679.8726,-210.1781 2655,-179 2636.2288,-155.4701 2562.2226,-141.854 2503.9453,-134.6002"/>
<polygon fill="#191970" stroke="#191970" points="2504.3491,-131.1236 2494.0027,-133.4045 2503.5132,-138.0736 2504.3491,-131.1236"/>
</g>
<!-- Node73 -->
<g id="node23" class="node">
<title>Node73</title>
<g id="a_node23"><a xlink:href="../../d3/d62/player_8h.xhtml" target="_top" xlink:title="../gamestate/player.h">
<polygon fill="#ffffff" stroke="#ff0000" points="958.5,-118 958.5,-137 1067.5,-137 1067.5,-118 958.5,-118"/>
<text text-anchor="middle" x="1013" y="-125" font-family="Helvetica,sans-Serif" font-size="10.00" fill="#000000">../gamestate/player.h</text>
</a>
</g>
</g>
<!-- Node69&#45;&gt;Node73 -->
<g id="edge34" class="edge">
<title>Node69&#45;&gt;Node73</title>
<path fill="none" stroke="#191970" d="M1518.8118,-367.2896C1395.9141,-364.278 1060.5449,-348.5099 997,-266 969.9165,-230.8334 989.844,-174.9811 1003.3294,-146.123"/>
<polygon fill="#191970" stroke="#191970" points="1006.484,-147.6393 1007.7431,-137.1195 1000.1986,-144.558 1006.484,-147.6393"/>
</g>
<!-- Node69&#45;&gt;Node94 -->
<g id="edge37" class="edge">
<title>Node69&#45;&gt;Node94</title>
<path fill="none" stroke="#191970" d="M1518.8101,-360.2134C1451.6538,-348.6419 1327.2606,-327.208 1269.6966,-317.2893"/>
<polygon fill="#191970" stroke="#191970" points="1270.2039,-313.8252 1259.7548,-315.5762 1269.0152,-320.7235 1270.2039,-313.8252"/>
</g>
<!-- Node69&#45;&gt;Node110 -->
<g id="edge79" class="edge">
<title>Node69&#45;&gt;Node110</title>
<path fill="none" stroke="#191970" d="M1609.3058,-358.5196C1653.5977,-349.2429 1722.9436,-334.6963 1783,-322 1784.4539,-321.6926 1785.9329,-321.3797 1787.4267,-321.0633"/>
<polygon fill="#191970" stroke="#191970" points="1788.3303,-324.4496 1797.3863,-318.9506 1786.8776,-317.6019 1788.3303,-324.4496"/>
</g>
<!-- Node73&#45;&gt;Node2 -->
<g id="edge35" class="edge">
<title>Node73&#45;&gt;Node2</title>
<path fill="none" stroke="#191970" d="M977.9926,-117.9601C968.6337,-115.7017 958.4832,-113.5129 949,-112 748.2414,-79.9727 695.2651,-96.4596 493,-76 476.4378,-74.3247 458.0177,-72.081 442.9332,-70.1434"/>
<polygon fill="#191970" stroke="#191970" points="442.9814,-66.6202 432.613,-68.7991 442.0772,-73.5615 442.9814,-66.6202"/>
</g>
<!-- Node73&#45;&gt;Node70 -->
<g id="edge36" class="edge">
<title>Node73&#45;&gt;Node70</title>
<path fill="none" stroke="#191970" d="M1067.646,-118.0144C1082.9273,-115.6841 1099.574,-113.4458 1115,-112 1556.4652,-70.6246 1669.1944,-98.9485 2112,-76 2143.9532,-74.344 2179.7507,-71.94 2208.1349,-69.9041"/>
<polygon fill="#191970" stroke="#191970" points="2208.5149,-73.3859 2218.236,-69.1728 2208.0093,-66.4042 2208.5149,-73.3859"/>
</g>
<!-- Node94&#45;&gt;Node4 -->
<g id="edge41" class="edge">
<title>Node94&#45;&gt;Node4</title>
<path fill="none" stroke="#191970" d="M1218.3894,-310.1139C1163.255,-304.8127 1013.6142,-288.674 970,-266 901.6838,-230.484 877.3201,-214.1957 848,-143 842.7535,-130.2603 839.0262,-122.4546 848,-112 865.2958,-91.8501 1041.3735,-74.9108 1115.4445,-68.6202"/>
<polygon fill="#191970" stroke="#191970" points="1115.9285,-72.092 1125.6018,-67.7702 1115.3447,-65.1164 1115.9285,-72.092"/>
</g>
<!-- Node94&#45;&gt;Node20 -->
<g id="edge38" class="edge">
<title>Node94&#45;&gt;Node20</title>
<path fill="none" stroke="#191970" d="M1259.6974,-307.5766C1341.1245,-290.0808 1635.5821,-225.8951 1648,-210 1656.7239,-198.8333 1656.734,-138.8161 1644,-112 1638.2288,-99.8466 1627.6744,-89.3913 1617.7448,-81.5336"/>
<polygon fill="#191970" stroke="#191970" points="1619.7915,-78.6941 1609.6696,-75.5638 1615.6302,-84.323 1619.7915,-78.6941"/>
</g>
<!-- Node94&#45;&gt;Node70 -->
<g id="edge40" class="edge">
<title>Node94&#45;&gt;Node70</title>
<path fill="none" stroke="#191970" d="M1259.6613,-311.9221C1398.7663,-311.1464 2199.88,-302.6618 2422,-210 2470.6944,-189.6861 2495.3761,-189.6633 2520,-143 2526.4301,-130.8147 2528.8531,-122.5569 2520,-112 2506.7524,-96.2028 2383.7235,-79.8913 2311.7518,-71.5898"/>
<polygon fill="#191970" stroke="#191970" points="2311.8547,-68.079 2301.5227,-70.4241 2311.0621,-75.034 2311.8547,-68.079"/>
</g>
<!-- Node30 -->
<g id="node25" class="node">
<title>Node30</title>
<polygon fill="#ffffff" stroke="#bfbfbf" points="1006,-246.5 1006,-265.5 1050,-265.5 1050,-246.5 1006,-246.5"/>
<text text-anchor="middle" x="1028" y="-253.5" font-family="Helvetica,sans-Serif" font-size="10.00" fill="#000000">mutex</text>
</g>
<!-- Node94&#45;&gt;Node30 -->
<g id="edge39" class="edge">
<title>Node94&#45;&gt;Node30</title>
<path fill="none" stroke="#191970" d="M1218.3723,-307.1679C1186.4402,-299.5941 1122.9317,-284.1599 1059.9856,-266.1663"/>
<polygon fill="#191970" stroke="#191970" points="1060.8785,-262.7812 1050.3004,-263.3757 1058.9404,-269.5076 1060.8785,-262.7812"/>
</g>
<!-- Node95 -->
<g id="node26" class="node">
<title>Node95</title>
<polygon fill="#ffffff" stroke="#bfbfbf" points="1068.5,-246.5 1068.5,-265.5 1111.5,-265.5 1111.5,-246.5 1068.5,-246.5"/>
<text text-anchor="middle" x="1090" y="-253.5" font-family="Helvetica,sans-Serif" font-size="10.00" fill="#000000">queue</text>
</g>
<!-- Node94&#45;&gt;Node95 -->
<g id="edge42" class="edge">
<title>Node94&#45;&gt;Node95</title>
<path fill="none" stroke="#191970" d="M1218.2822,-304.2134C1193.1038,-294.7504 1150.3763,-278.6918 1121.2076,-267.729"/>
<polygon fill="#191970" stroke="#191970" points="1122.0988,-264.325 1111.5068,-264.0831 1119.6361,-270.8775 1122.0988,-264.325"/>
</g>
<!-- Node87 -->
<g id="node27" class="node">
<title>Node87</title>
<g id="a_node27"><a xlink:href="../../d0/d8a/phys_8h.xhtml" target="_top" xlink:title="../coord/phys.h">
<polygon fill="#ffffff" stroke="#ff0000" points="2021,-56.5 2021,-75.5 2103,-75.5 2103,-56.5 2021,-56.5"/>
<text text-anchor="middle" x="2062" y="-63.5" font-family="Helvetica,sans-Serif" font-size="10.00" fill="#000000">../coord/phys.h</text>
</a>
</g>
</g>
<!-- Node94&#45;&gt;Node87 -->
<g id="edge43" class="edge">
<title>Node94&#45;&gt;Node87</title>
<path fill="none" stroke="#191970" d="M1259.8339,-311.0542C1382.4834,-305.2768 2006.8996,-272.8879 2061,-210 2090.9133,-175.2279 2078.464,-116.3347 2069.0084,-85.7541"/>
<polygon fill="#191970" stroke="#191970" points="2072.2025,-84.2645 2065.7442,-75.8657 2065.5553,-86.4588 2072.2025,-84.2645"/>
</g>
<!-- Node96 -->
<g id="node28" class="node">
<title>Node96</title>
<g id="a_node28"><a xlink:href="../../d0/dfb/handlers_8h.xhtml" target="_top" xlink:title="../handlers.h">
<polygon fill="#ffffff" stroke="#000000" points="2378.5,-56.5 2378.5,-75.5 2449.5,-75.5 2449.5,-56.5 2378.5,-56.5"/>
<text text-anchor="middle" x="2414" y="-63.5" font-family="Helvetica,sans-Serif" font-size="10.00" fill="#000000">../handlers.h</text>
</a>
</g>
</g>
<!-- Node94&#45;&gt;Node96 -->
<g id="edge44" class="edge">
<title>Node94&#45;&gt;Node96</title>
<path fill="none" stroke="#191970" d="M1259.6625,-311.6972C1363.8819,-310.0332 1842.2206,-300.7653 2232,-266 2279.2226,-261.7881 2623.7532,-245.6561 2655,-210 2664.0806,-199.638 2661.9533,-190.8945 2655,-179 2633.4161,-142.078 2517.0533,-99.4735 2454.2528,-78.706"/>
<polygon fill="#191970" stroke="#191970" points="2455.2489,-75.3494 2444.6563,-75.5646 2453.0712,-82.002 2455.2489,-75.3494"/>
</g>
<!-- Node98 -->
<g id="node30" class="node">
<title>Node98</title>
<g id="a_node30"><a xlink:href="../../d4/dda/logsource_8h.xhtml" target="_top" xlink:title="../log/logsource.h">
<polygon fill="#ffffff" stroke="#000000" points="225,-185 225,-204 317,-204 317,-185 225,-185"/>
<text text-anchor="middle" x="271" y="-192" font-family="Helvetica,sans-Serif" font-size="10.00" fill="#000000">../log/logsource.h</text>
</a>
</g>
</g>
<!-- Node94&#45;&gt;Node98 -->
<g id="edge47" class="edge">
<title>Node94&#45;&gt;Node98</title>
<path fill="none" stroke="#191970" d="M1218.4526,-311.2002C1163.7822,-308.6691 1010.5628,-298.9394 888,-266 865.6809,-260.0016 862.4882,-251.3296 840,-246 619.3252,-193.7015 554.8286,-246.5137 331,-210 325.218,-209.0568 319.1811,-207.8135 313.2593,-206.4405"/>
<polygon fill="#191970" stroke="#191970" points="314.0134,-203.0218 303.4674,-204.0375 312.345,-209.8201 314.0134,-203.0218"/>
</g>
<!-- Node99 -->
<g id="node31" class="node">
<title>Node99</title>
<g id="a_node31"><a xlink:href="../../d0/d94/terrain__object_8h.xhtml" target="_top" xlink:title="../terrain/terrain\l_object.h">
<polygon fill="#ffffff" stroke="#000000" points="857.5,-112.5 857.5,-142.5 940.5,-142.5 940.5,-112.5 857.5,-112.5"/>
<text text-anchor="start" x="865.5" y="-130.5" font-family="Helvetica,sans-Serif" font-size="10.00" fill="#000000">../terrain/terrain</text>
<text text-anchor="middle" x="899" y="-119.5" font-family="Helvetica,sans-Serif" font-size="10.00" fill="#000000">_object.h</text>
</a>
</g>
</g>
<!-- Node94&#45;&gt;Node99 -->
<g id="edge50" class="edge">
<title>Node94&#45;&gt;Node99</title>
<path fill="none" stroke="#191970" d="M1218.4033,-310.0732C1166.8736,-304.9434 1033.8713,-289.7074 997,-266 953.8516,-238.2567 924.0566,-184.1643 909.4152,-152.4117"/>
<polygon fill="#191970" stroke="#191970" points="912.4651,-150.6571 905.1962,-142.9491 906.0717,-153.5077 912.4651,-150.6571"/>
</g>
<!-- Node100 -->
<g id="node32" class="node">
<title>Node100</title>
<g id="a_node32"><a xlink:href="../../db/d41/timing_8h.xhtml" target="_top" xlink:title="../util/timing.h">
<polygon fill="#ffffff" stroke="#000000" points="197,-56.5 197,-75.5 273,-75.5 273,-56.5 197,-56.5"/>
<text text-anchor="middle" x="235" y="-63.5" font-family="Helvetica,sans-Serif" font-size="10.00" fill="#000000">../util/timing.h</text>
</a>
</g>
</g>
<!-- Node94&#45;&gt;Node100 -->
<g id="edge55" class="edge">
<title>Node94&#45;&gt;Node100</title>
<path fill="none" stroke="#191970" d="M1218.3022,-311.5648C1079.3695,-308.436 285.9236,-287.2422 216,-210 184.5267,-175.2326 208.8097,-114.9828 224.4487,-84.6238"/>
<polygon fill="#191970" stroke="#191970" points="227.6726,-86.0188 229.328,-75.5541 221.508,-82.7024 227.6726,-86.0188"/>
</g>
<!-- Node101 -->
<g id="node33" class="node">
<title>Node101</title>
<g id="a_node33"><a xlink:href="../../df/d23/ability_8h.xhtml" target="_top" xlink:title="ability.h">
<polygon fill="#ffffff" stroke="#ff0000" points="1984,-118 1984,-137 2034,-137 2034,-118 1984,-118"/>
<text text-anchor="middle" x="2009" y="-125" font-family="Helvetica,sans-Serif" font-size="10.00" fill="#000000">ability.h</text>
</a>
</g>
</g>
<!-- Node94&#45;&gt;Node101 -->
<g id="edge57" class="edge">
<title>Node94&#45;&gt;Node101</title>
<path fill="none" stroke="#191970" d="M1259.6242,-309.0726C1349.6298,-296.1885 1708.3568,-243.6781 1817,-210 1877.4405,-191.2641 1944.6461,-159.7634 1981.3435,-141.5881"/>
<polygon fill="#191970" stroke="#191970" points="1983.0413,-144.6524 1990.424,-137.0534 1979.9138,-138.3899 1983.0413,-144.6524"/>
</g>
<!-- Node103 -->
<g id="node34" class="node">
<title>Node103</title>
<g id="a_node34"><a xlink:href="../../d3/d7c/attribute_8h.xhtml" target="_top" xlink:title="attribute.h">
<polygon fill="#ffffff" stroke="#ff0000" points="1026,-185 1026,-204 1086,-204 1086,-185 1026,-185"/>
<text text-anchor="middle" x="1056" y="-192" font-family="Helvetica,sans-Serif" font-size="10.00" fill="#000000">attribute.h</text>
</a>
</g>
</g>
<!-- Node94&#45;&gt;Node103 -->
<g id="edge62" class="edge">
<title>Node94&#45;&gt;Node103</title>
<path fill="none" stroke="#191970" d="M1223.099,-302.4659C1207.8495,-293.271 1184.2226,-278.8902 1164,-266 1134.3006,-247.0691 1100.5159,-224.5389 1078.7618,-209.8997"/>
<polygon fill="#191970" stroke="#191970" points="1080.4704,-206.8305 1070.2222,-204.1424 1076.5573,-212.6347 1080.4704,-206.8305"/>
</g>
<!-- Node106 -->
<g id="node36" class="node">
<title>Node106</title>
<g id="a_node36"><a xlink:href="../../d5/ddb/unit__container_8h.xhtml" target="_top" xlink:title="unit_container.h">
<polygon fill="#ffffff" stroke="#000000" points="1190,-118 1190,-137 1276,-137 1276,-118 1190,-118"/>
<text text-anchor="middle" x="1233" y="-125" font-family="Helvetica,sans-Serif" font-size="10.00" fill="#000000">unit_container.h</text>
</a>
</g>
</g>
<!-- Node94&#45;&gt;Node106 -->
<g id="edge78" class="edge">
<title>Node94&#45;&gt;Node106</title>
<path fill="none" stroke="#191970" d="M1225.972,-302.3141C1215.9208,-293.9649 1202.7875,-280.922 1197,-266 1180.8377,-224.3283 1205.1711,-172.826 1221.0649,-145.8905"/>
<polygon fill="#191970" stroke="#191970" points="1224.1882,-147.4932 1226.448,-137.1421 1218.2264,-143.8247 1224.1882,-147.4932"/>
</g>
<!-- Node107 -->
<g id="node37" class="node">
<title>Node107</title>
<g id="a_node37"><a xlink:href="../../da/d6e/attributes_8h.xhtml" target="_top" xlink:title="attributes.h">
<polygon fill="#ffffff" stroke="#ff0000" points="1206.5,-246.5 1206.5,-265.5 1271.5,-265.5 1271.5,-246.5 1206.5,-246.5"/>
<text text-anchor="middle" x="1239" y="-253.5" font-family="Helvetica,sans-Serif" font-size="10.00" fill="#000000">attributes.h</text>
</a>
</g>
</g>
<!-- Node94&#45;&gt;Node107 -->
<g id="edge73" class="edge">
<title>Node94&#45;&gt;Node107</title>
<path fill="none" stroke="#191970" d="M1239,-302.2455C1239,-294.9382 1239,-284.6944 1239,-275.7046"/>
<polygon fill="#191970" stroke="#191970" points="1242.5001,-275.6426 1239,-265.6427 1235.5001,-275.6427 1242.5001,-275.6426"/>
</g>
<!-- Node108 -->
<g id="node38" class="node">
<title>Node108</title>
<g id="a_node38"><a xlink:href="../../d0/d09/command_8h.xhtml" target="_top" xlink:title="command.h">
<polygon fill="#ffffff" stroke="#ff0000" points="1984,-185 1984,-204 2052,-204 2052,-185 1984,-185"/>
<text text-anchor="middle" x="2018" y="-192" font-family="Helvetica,sans-Serif" font-size="10.00" fill="#000000">command.h</text>
</a>
</g>
</g>
<!-- Node94&#45;&gt;Node108 -->
<g id="edge75" class="edge">
<title>Node94&#45;&gt;Node108</title>
<path fill="none" stroke="#191970" d="M1259.6266,-310.5841C1334.2332,-305.3402 1589.813,-286.2772 1669,-266 1691.3887,-260.267 1694.8026,-252.434 1717,-246 1806.1072,-220.1719 1914.0393,-205.5902 1973.4236,-198.9481"/>
<polygon fill="#191970" stroke="#191970" points="1974.0206,-202.4037 1983.5806,-197.8368 1973.2592,-195.4453 1974.0206,-202.4037"/>
</g>
<!-- Node96&#45;&gt;Node33 -->
<g id="edge46" class="edge">
<title>Node96&#45;&gt;Node33</title>
<path fill="none" stroke="#191970" d="M2378.2125,-59.6645C2369.0426,-58.2459 2359.1779,-56.8974 2350,-56 2131.8392,-34.6682 1443.307,-16.1392 1249.9476,-11.2549"/>
<polygon fill="#191970" stroke="#191970" points="1249.8687,-7.7519 1239.7838,-10.9993 1249.6926,-14.7497 1249.8687,-7.7519"/>
</g>
<!-- Node97 -->
<g id="node29" class="node">
<title>Node97</title>
<polygon fill="#ffffff" stroke="#bfbfbf" points="2451,-.5 2451,-19.5 2523,-19.5 2523,-.5 2451,-.5"/>
<text text-anchor="middle" x="2487" y="-7.5" font-family="Helvetica,sans-Serif" font-size="10.00" fill="#000000">SDL2/SDL.h</text>
</g>
<!-- Node96&#45;&gt;Node97 -->
<g id="edge45" class="edge">
<title>Node96&#45;&gt;Node97</title>
<path fill="none" stroke="#191970" d="M2426.7156,-56.2455C2437.602,-47.8943 2453.4883,-35.7076 2466.22,-25.9408"/>
<polygon fill="#191970" stroke="#191970" points="2468.6261,-28.5063 2474.4301,-19.6427 2464.3654,-22.9523 2468.6261,-28.5063"/>
</g>
<!-- Node98&#45;&gt;Node2 -->
<g id="edge48" class="edge">
<title>Node98&#45;&gt;Node2</title>
<path fill="none" stroke="#191970" d="M276.7474,-184.9119C286.9301,-168.4954 309.4861,-134.5932 335,-112 349.1918,-99.4328 367.298,-88.4159 382.3868,-80.3167"/>
<polygon fill="#191970" stroke="#191970" points="384.0746,-83.384 391.3297,-75.663 380.8432,-77.1744 384.0746,-83.384"/>
</g>
<!-- Node98&#45;&gt;Node13 -->
<g id="edge49" class="edge">
<title>Node98&#45;&gt;Node13</title>
<path fill="none" stroke="#191970" d="M246.2133,-184.9005C216.2808,-173.3082 165.7761,-153.7486 132.1645,-140.7313"/>
<polygon fill="#191970" stroke="#191970" points="133.3298,-137.4294 122.7407,-137.0817 130.8018,-143.957 133.3298,-137.4294"/>
</g>
<!-- Node99&#45;&gt;Node32 -->
<g id="edge52" class="edge">
<title>Node99&#45;&gt;Node32</title>
<path fill="none" stroke="#191970" d="M899,-112.2977C899,-104.3834 899,-94.6043 899,-86.0759"/>
<polygon fill="#191970" stroke="#191970" points="902.5001,-85.8469 899,-75.8469 895.5001,-85.847 902.5001,-85.8469"/>
</g>
<!-- Node99&#45;&gt;Node47 -->
<g id="edge53" class="edge">
<title>Node99&#45;&gt;Node47</title>
<path fill="none" stroke="#191970" d="M857.3517,-120.3851C789.8755,-108.8579 657.0826,-86.1724 586.2022,-74.0637"/>
<polygon fill="#191970" stroke="#191970" points="586.6555,-70.5905 576.2089,-72.3565 585.4766,-77.4906 586.6555,-70.5905"/>
</g>
<!-- Node99&#45;&gt;Node20 -->
<g id="edge51" class="edge">
<title>Node99&#45;&gt;Node20</title>
<path fill="none" stroke="#191970" d="M940.5616,-113.8336C943.3998,-113.1426 946.2312,-112.5207 949,-112 1067.2231,-89.7654 1439.5315,-72.5206 1557.6594,-67.4935"/>
<polygon fill="#191970" stroke="#191970" points="1558.1206,-70.9773 1567.9641,-67.0586 1557.8253,-63.9835 1558.1206,-70.9773"/>
</g>
<!-- Node99&#45;&gt;Node87 -->
<g id="edge54" class="edge">
<title>Node99&#45;&gt;Node87</title>
<path fill="none" stroke="#191970" d="M940.5443,-113.7375C943.3867,-113.0698 946.2238,-112.4793 949,-112 1054.1908,-93.8397 1805.8029,-72.7886 2010.587,-67.3408"/>
<polygon fill="#191970" stroke="#191970" points="2010.8629,-70.8348 2020.7665,-67.0709 2010.6773,-63.8373 2010.8629,-70.8348"/>
</g>
<!-- Node100&#45;&gt;Node14 -->
<g id="edge56" class="edge">
<title>Node100&#45;&gt;Node14</title>
<path fill="none" stroke="#191970" d="M235,-56.2455C235,-48.9382 235,-38.6944 235,-29.7046"/>
<polygon fill="#191970" stroke="#191970" points="238.5001,-29.6426 235,-19.6427 231.5001,-29.6427 238.5001,-29.6426"/>
</g>
<!-- Node101&#45;&gt;Node4 -->
<g id="edge60" class="edge">
<title>Node101&#45;&gt;Node4</title>
<path fill="none" stroke="#191970" d="M1983.8439,-121.0906C1970.0941,-117.8395 1952.7105,-114.1361 1937,-112 1786.9041,-91.5919 1308.8107,-72.1691 1180.1477,-67.2128"/>
<polygon fill="#191970" stroke="#191970" points="1180.2668,-63.7149 1170.1401,-66.8294 1179.9987,-70.7098 1180.2668,-63.7149"/>
</g>
<!-- Node101&#45;&gt;Node20 -->
<g id="edge58" class="edge">
<title>Node101&#45;&gt;Node20</title>
<path fill="none" stroke="#191970" d="M1987.872,-117.962C1982.1673,-115.7036 1975.9299,-113.5143 1970,-112 1848.1247,-80.8782 1698.4755,-70.5831 1630.5872,-67.3665"/>
<polygon fill="#191970" stroke="#191970" points="1630.5574,-63.8617 1620.4103,-66.9089 1630.243,-70.8546 1630.5574,-63.8617"/>
</g>
<!-- Node101&#45;&gt;Node70 -->
<g id="edge59" class="edge">
<title>Node101&#45;&gt;Node70</title>
<path fill="none" stroke="#191970" d="M2034.4485,-121.2646C2075.7798,-111.1376 2158.1947,-90.9443 2211.1332,-77.9733"/>
<polygon fill="#191970" stroke="#191970" points="2212.1027,-81.3394 2220.9825,-75.5601 2210.4368,-74.5405 2212.1027,-81.3394"/>
</g>
<!-- Node101&#45;&gt;Node87 -->
<g id="edge61" class="edge">
<title>Node101&#45;&gt;Node87</title>
<path fill="none" stroke="#191970" d="M2017.2813,-117.8906C2025.1693,-108.7376 2037.2314,-94.7409 2046.8412,-83.59"/>
<polygon fill="#191970" stroke="#191970" points="2049.7251,-85.6049 2053.602,-75.7449 2044.4225,-81.0352 2049.7251,-85.6049"/>
</g>
<!-- Node103&#45;&gt;Node47 -->
<g id="edge64" class="edge">
<title>Node103&#45;&gt;Node47</title>
<path fill="none" stroke="#191970" d="M1025.8796,-193.8862C918.4761,-191.3909 558.849,-180.2907 525,-143 510.7246,-127.2731 519.1032,-102.0422 527.7923,-84.778"/>
<polygon fill="#191970" stroke="#191970" points="531.0481,-86.119 532.7753,-75.6658 524.9065,-82.7604 531.0481,-86.119"/>
</g>
<!-- Node103&#45;&gt;Node99 -->
<g id="edge65" class="edge">
<title>Node103&#45;&gt;Node99</title>
<path fill="none" stroke="#191970" d="M1033.5057,-184.9005C1010.0941,-174.9096 972.8148,-159.0006 943.4343,-146.4624"/>
<polygon fill="#191970" stroke="#191970" points="944.7715,-143.2277 934.2003,-142.5218 942.024,-149.666 944.7715,-143.2277"/>
</g>
<!-- Node25 -->
<g id="node35" class="node">
<title>Node25</title>
<polygon fill="#ffffff" stroke="#bfbfbf" points="1408.5,-118 1408.5,-137 1467.5,-137 1467.5,-118 1408.5,-118"/>
<text text-anchor="middle" x="1438" y="-125" font-family="Helvetica,sans-Serif" font-size="10.00" fill="#000000">functional</text>
</g>
<!-- Node103&#45;&gt;Node25 -->
<g id="edge63" class="edge">
<title>Node103&#45;&gt;Node25</title>
<path fill="none" stroke="#191970" d="M1086.2942,-189.1866C1154.8056,-177.1702 1321.6421,-147.9083 1398.2946,-134.464"/>
<polygon fill="#191970" stroke="#191970" points="1399.2474,-137.8504 1408.4924,-132.6754 1398.0381,-130.9557 1399.2474,-137.8504"/>
</g>
<!-- Node103&#45;&gt;Node106 -->
<g id="edge66" class="edge">
<title>Node103&#45;&gt;Node106</title>
<path fill="none" stroke="#191970" d="M1081.3598,-184.9005C1111.9844,-173.3082 1163.6568,-153.7486 1198.0456,-140.7313"/>
<polygon fill="#191970" stroke="#191970" points="1199.5739,-143.8952 1207.6873,-137.0817 1197.0958,-137.3486 1199.5739,-143.8952"/>
</g>
<!-- Node106&#45;&gt;Node4 -->
<g id="edge69" class="edge">
<title>Node106&#45;&gt;Node4</title>
<path fill="none" stroke="#191970" d="M1219.7188,-117.8906C1206.2452,-108.1421 1185.178,-92.8994 1169.3565,-81.4521"/>
<polygon fill="#191970" stroke="#191970" points="1171.3414,-78.5682 1161.188,-75.5419 1167.2381,-84.2394 1171.3414,-78.5682"/>
</g>
<!-- Node106&#45;&gt;Node47 -->
<g id="edge70" class="edge">
<title>Node106&#45;&gt;Node47</title>
<path fill="none" stroke="#191970" d="M1204.3839,-117.9238C1196.5571,-115.6372 1188.0199,-113.4435 1180,-112 1065.8533,-91.4552 714.3357,-73.941 586.2853,-68.0853"/>
<polygon fill="#191970" stroke="#191970" points="586.1745,-64.5767 576.0259,-67.6193 585.8568,-71.5695 586.1745,-64.5767"/>
</g>
<!-- Node106&#45;&gt;Node20 -->
<g id="edge67" class="edge">
<title>Node106&#45;&gt;Node20</title>
<path fill="none" stroke="#191970" d="M1276.1865,-120.1427C1347.9557,-107.9161 1490.506,-83.6313 1557.5464,-72.2102"/>
<polygon fill="#191970" stroke="#191970" points="1558.3651,-75.6213 1567.6353,-70.4915 1557.1895,-68.7207 1558.3651,-75.6213"/>
</g>
<!-- Node106&#45;&gt;Node70 -->
<g id="edge68" class="edge">
<title>Node106&#45;&gt;Node70</title>
<path fill="none" stroke="#191970" d="M1276.2111,-122.9868C1309.9042,-119.5895 1357.8874,-115.0176 1400,-112 1716.0384,-89.3539 1795.7025,-94.6807 2112,-76 2143.9405,-74.1136 2179.7376,-71.7028 2208.1248,-69.721"/>
<polygon fill="#191970" stroke="#191970" points="2208.4967,-73.2036 2218.2271,-69.012 2208.0066,-66.2208 2208.4967,-73.2036"/>
</g>
<!-- Node106&#45;&gt;Node96 -->
<g id="edge71" class="edge">
<title>Node106&#45;&gt;Node96</title>
<path fill="none" stroke="#191970" d="M1276.202,-122.8559C1309.8903,-119.3882 1357.8714,-114.7855 1400,-112 1804.3221,-85.2667 1906.7354,-103.5894 2311,-76 2329.7295,-74.7218 2350.3296,-72.821 2368.1528,-71.0188"/>
<polygon fill="#191970" stroke="#191970" points="2368.702,-74.4808 2378.2908,-69.9746 2367.9847,-67.5177 2368.702,-74.4808"/>
</g>
<!-- Node106&#45;&gt;Node100 -->
<g id="edge72" class="edge">
<title>Node106&#45;&gt;Node100</title>
<path fill="none" stroke="#191970" d="M1204.9598,-117.9427C1196.9841,-115.5967 1188.2275,-113.3683 1180,-112 829.7828,-53.7558 736.4608,-96.0492 382,-76 349.0188,-74.1345 311.9048,-71.6064 283.2205,-69.5589"/>
<polygon fill="#191970" stroke="#191970" points="283.2825,-66.0544 273.0573,-68.8284 282.7807,-73.0364 283.2825,-66.0544"/>
</g>
<!-- Node107&#45;&gt;Node103 -->
<g id="edge74" class="edge">
<title>Node107&#45;&gt;Node103</title>
<path fill="none" stroke="#191970" d="M1210.4063,-246.3906C1179.1155,-235.8749 1128.8014,-218.966 1094.16,-207.3243"/>
<polygon fill="#191970" stroke="#191970" points="1094.987,-203.9099 1084.393,-204.0419 1092.757,-210.5452 1094.987,-203.9099"/>
</g>
<!-- Node108&#45;&gt;Node87 -->
<g id="edge76" class="edge">
<title>Node108&#45;&gt;Node87</title>
<path fill="none" stroke="#191970" d="M2023.4224,-184.8929C2028.9685,-174.7428 2037.5256,-158.1416 2043,-143 2049.8563,-124.0362 2055.0862,-101.5697 2058.3066,-85.8146"/>
<polygon fill="#191970" stroke="#191970" points="2061.8052,-86.1607 2060.2909,-75.6746 2054.9355,-84.8163 2061.8052,-86.1607"/>
</g>
<!-- Node108&#45;&gt;Node101 -->
<g id="edge77" class="edge">
<title>Node108&#45;&gt;Node101</title>
<path fill="none" stroke="#191970" d="M2016.7105,-184.9005C2015.4006,-175.149 2013.3334,-159.7597 2011.669,-147.3695"/>
<polygon fill="#191970" stroke="#191970" points="2015.0873,-146.5266 2010.2871,-137.0817 2008.1497,-147.4586 2015.0873,-146.5266"/>
</g>
<!-- Node110&#45;&gt;Node4 -->
<g id="edge83" class="edge">
<title>Node110&#45;&gt;Node4</title>
<path fill="none" stroke="#191970" d="M1797.3071,-310.7025C1699.4791,-306.5606 1410.243,-292.356 1320,-266 1318.3781,-265.5263 1213.448,-210.8708 1212,-210 1167.098,-182.9982 1139.342,-189.3978 1115,-143 1104.624,-123.2224 1118.5703,-99.4657 1131.3929,-83.6201"/>
<polygon fill="#191970" stroke="#191970" points="1134.3435,-85.5589 1138.2393,-75.7063 1129.0497,-80.979 1134.3435,-85.5589"/>
</g>
<!-- Node110&#45;&gt;Node20 -->
<g id="edge81" class="edge">
<title>Node110&#45;&gt;Node20</title>
<path fill="none" stroke="#191970" d="M1832.8285,-302.1329C1841.3502,-270.1106 1863.2786,-167.931 1814,-112 1790.1904,-84.9763 1686.3213,-73.0068 1630.2358,-68.4323"/>
<polygon fill="#191970" stroke="#191970" points="1630.2628,-64.9239 1620.0215,-67.6379 1629.72,-71.9029 1630.2628,-64.9239"/>
</g>
<!-- Node110&#45;&gt;Node70 -->
<g id="edge82" class="edge">
<title>Node110&#45;&gt;Node70</title>
<path fill="none" stroke="#191970" d="M1862.5532,-311.7823C2002.7153,-310.6195 2550.6507,-303.6805 2617,-266 2643.1546,-251.1465 2646.1659,-238.7515 2655,-210 2661.3605,-189.299 2656.0931,-118.3604 2650,-112 2644.1947,-105.9401 2416.5082,-81.9799 2311.7645,-71.2473"/>
<polygon fill="#191970" stroke="#191970" points="2312.0266,-67.756 2301.7224,-70.2203 2311.3144,-74.7197 2312.0266,-67.756"/>
</g>
<!-- Node110&#45;&gt;Node87 -->
<g id="edge84" class="edge">
<title>Node110&#45;&gt;Node87</title>
<path fill="none" stroke="#191970" d="M1862.5721,-309.3161C1986.8611,-298.3055 2428.0657,-251.9277 2503,-143 2510.8088,-131.6488 2512.2232,-122.2353 2503,-112 2490.0857,-97.6685 2226.9113,-77.5708 2113.3892,-69.5289"/>
<polygon fill="#191970" stroke="#191970" points="2113.4282,-66.0231 2103.2069,-68.8115 2112.9362,-73.0058 2113.4282,-66.0231"/>
</g>
<!-- Node110&#45;&gt;Node25 -->
<g id="edge80" class="edge">
<title>Node110&#45;&gt;Node25</title>
<path fill="none" stroke="#191970" d="M1797.3999,-306.6007C1738.2709,-295.7057 1610.957,-267.1089 1519,-210 1491.0314,-192.6304 1465.6507,-163.6511 1451.0234,-145.0696"/>
<polygon fill="#191970" stroke="#191970" points="1453.7803,-142.9131 1444.9153,-137.1111 1448.2272,-147.175 1453.7803,-142.9131"/>
</g>
<!-- Node110&#45;&gt;Node107 -->
<g id="edge86" class="edge">
<title>Node110&#45;&gt;Node107</title>
<path fill="none" stroke="#191970" d="M1797.3378,-310.6666C1712.5605,-306.8971 1478.6753,-294.5289 1286,-266 1284.53,-265.7823 1283.0371,-265.5466 1281.5315,-265.2962"/>
<polygon fill="#191970" stroke="#191970" points="1281.9859,-261.8215 1271.5203,-263.4709 1280.7303,-268.7079 1281.9859,-261.8215"/>
</g>
<!-- Node111 -->
<g id="node40" class="node">
<title>Node111</title>
<g id="a_node40"><a xlink:href="../../d3/d8d/cost_8h.xhtml" target="_top" xlink:title="../gamestate/cost.h">
<polygon fill="#ffffff" stroke="#ff0000" points="2506.5,-246.5 2506.5,-265.5 2607.5,-265.5 2607.5,-246.5 2506.5,-246.5"/>
<text text-anchor="middle" x="2557" y="-253.5" font-family="Helvetica,sans-Serif" font-size="10.00" fill="#000000">../gamestate/cost.h</text>
</a>
</g>
</g>
<!-- Node110&#45;&gt;Node111 -->
<g id="edge85" class="edge">
<title>Node110&#45;&gt;Node111</title>
<path fill="none" stroke="#191970" d="M1862.8059,-310.6888C1959.4273,-306.619 2251.2669,-292.8346 2492,-266 2493.3085,-265.8541 2494.631,-265.7011 2495.9635,-265.5419"/>
<polygon fill="#191970" stroke="#191970" points="2496.8384,-268.9585 2506.3122,-264.2153 2495.9483,-262.0153 2496.8384,-268.9585"/>
</g>
<!-- Node112&#45;&gt;Node4 -->
<g id="edge91" class="edge">
<title>Node112&#45;&gt;Node4</title>
<path fill="none" stroke="#191970" d="M1355.1557,-246.2911C1345.8937,-237.5369 1332.7225,-223.9324 1324,-210 1299.1246,-170.2666 1319.0434,-144.2269 1285,-112 1256.2326,-84.7676 1210.839,-73.6289 1180.2694,-69.0909"/>
<polygon fill="#191970" stroke="#191970" points="1180.4997,-65.5909 1170.1263,-67.7455 1179.5793,-72.5301 1180.4997,-65.5909"/>
</g>
<!-- Node112&#45;&gt;Node20 -->
<g id="edge90" class="edge">
<title>Node112&#45;&gt;Node20</title>
<path fill="none" stroke="#191970" d="M1403.7252,-252.0549C1472.7662,-244.4535 1613.7078,-227.0201 1628,-210 1658.7055,-173.4338 1626.8944,-114.0485 1607.1651,-84.261"/>
<polygon fill="#191970" stroke="#191970" points="1609.8272,-81.955 1601.2786,-75.6962 1604.0583,-85.9199 1609.8272,-81.955"/>
</g>
<!-- Node112&#45;&gt;Node73 -->
<g id="edge95" class="edge">
<title>Node112&#45;&gt;Node73</title>
<path fill="none" stroke="#191970" d="M1330.1883,-246.4284C1298.7601,-237.7621 1251.962,-224.2096 1212,-210 1151.0897,-188.3417 1081.7094,-158.3193 1043.0658,-141.1017"/>
<polygon fill="#191970" stroke="#191970" points="1044.4847,-137.9022 1033.9272,-137.0131 1041.6259,-144.2919 1044.4847,-137.9022"/>
</g>
<!-- Node112&#45;&gt;Node97 -->
<g id="edge92" class="edge">
<title>Node112&#45;&gt;Node97</title>
<path fill="none" stroke="#191970" d="M1403.5127,-255.3451C1553.417,-252.5385 2109.6829,-240.2637 2283,-210 2383.6881,-192.4184 2425.9235,-210.1299 2503,-143 2533.9538,-116.0408 2549.912,-93.8384 2534,-56 2529.0022,-44.1153 2519.2686,-33.765 2509.9497,-25.908"/>
<polygon fill="#191970" stroke="#191970" points="2512.0248,-23.0874 2501.9965,-19.6692 2507.7043,-28.5951 2512.0248,-23.0874"/>
</g>
<!-- Node112&#45;&gt;Node100 -->
<g id="edge117" class="edge">
<title>Node112&#45;&gt;Node100</title>
<path fill="none" stroke="#191970" d="M1328.4013,-250.9561C1313.6467,-249.1395 1296.5527,-247.2352 1281,-246 1184.665,-238.3488 502.3692,-244.2402 412,-210 340.9285,-183.0716 276.9714,-115.6273 249.3826,-83.5196"/>
<polygon fill="#191970" stroke="#191970" points="252.0029,-81.1977 242.8786,-75.8127 246.6533,-85.7123 252.0029,-81.1977"/>
</g>
<!-- Node112&#45;&gt;Node106 -->
<g id="edge116" class="edge">
<title>Node112&#45;&gt;Node106</title>
<path fill="none" stroke="#191970" d="M1345.044,-246.369C1328.8092,-238.2263 1306.3953,-225.435 1290,-210 1269.8933,-191.0709 1252.8194,-163.9248 1242.7396,-146.0123"/>
<polygon fill="#191970" stroke="#191970" points="1245.7492,-144.2208 1237.8845,-137.1217 1239.6056,-147.5758 1245.7492,-144.2208"/>
</g>
<!-- Node90 -->
<g id="node42" class="node">
<title>Node90</title>
<polygon fill="#ffffff" stroke="#bfbfbf" points="1754.5,-185 1754.5,-204 1807.5,-204 1807.5,-185 1754.5,-185"/>
<text text-anchor="middle" x="1781" y="-192" font-family="Helvetica,sans-Serif" font-size="10.00" fill="#000000">QObject</text>
</g>
<!-- Node112&#45;&gt;Node90 -->
<g id="edge93" class="edge">
<title>Node112&#45;&gt;Node90</title>
<path fill="none" stroke="#191970" d="M1403.5604,-250.4338C1482.643,-238.7143 1665.4785,-211.6194 1744.0362,-199.9778"/>
<polygon fill="#191970" stroke="#191970" points="1745.0285,-203.369 1754.4073,-198.4408 1744.0023,-196.4447 1745.0285,-203.369"/>
</g>
<!-- Node113 -->
<g id="node43" class="node">
<title>Node113</title>
<g id="a_node43"><a xlink:href="../../d7/dbe/market_8h.xhtml" target="_top" xlink:title="market.h">
<polygon fill="#ffffff" stroke="#ff0000" points="1415.5,-185 1415.5,-204 1470.5,-204 1470.5,-185 1415.5,-185"/>
<text text-anchor="middle" x="1443" y="-192" font-family="Helvetica,sans-Serif" font-size="10.00" fill="#000000">market.h</text>
</a>
</g>
</g>
<!-- Node112&#45;&gt;Node113 -->
<g id="edge94" class="edge">
<title>Node112&#45;&gt;Node113</title>
<path fill="none" stroke="#191970" d="M1378.0313,-246.3906C1390.0107,-236.8227 1408.6166,-221.9621 1422.8525,-210.5919"/>
<polygon fill="#191970" stroke="#191970" points="1425.4239,-213.0175 1431.0532,-204.0419 1421.0553,-207.5479 1425.4239,-213.0175"/>
</g>
<!-- Node114 -->
<g id="node44" class="node">
<title>Node114</title>
<g id="a_node44"><a xlink:href="../../de/deb/team_8h.xhtml" target="_top" xlink:title="team.h">
<polygon fill="#ffffff" stroke="#ff0000" points="1124.5,-118 1124.5,-137 1171.5,-137 1171.5,-118 1124.5,-118"/>
<text text-anchor="middle" x="1148" y="-125" font-family="Helvetica,sans-Serif" font-size="10.00" fill="#000000">team.h</text>
</a>
</g>
</g>
<!-- Node112&#45;&gt;Node114 -->
<g id="edge96" class="edge">
<title>Node112&#45;&gt;Node114</title>
<path fill="none" stroke="#191970" d="M1339.7773,-246.3554C1318.06,-237.938 1286.7078,-224.7799 1261,-210 1226.0502,-189.9067 1188.922,-161.1912 1167.1299,-143.4788"/>
<polygon fill="#191970" stroke="#191970" points="1169.253,-140.6933 1159.3033,-137.0527 1164.811,-146.1034 1169.253,-140.6933"/>
</g>
<!-- Node115 -->
<g id="node45" class="node">
<title>Node115</title>
<g id="a_node45"><a xlink:href="../../d7/d5b/options_8h.xhtml" target="_top" xlink:title="../options.h">
<polygon fill="#ffffff" stroke="#ff0000" points="1332.5,-185 1332.5,-204 1397.5,-204 1397.5,-185 1332.5,-185"/>
<text text-anchor="middle" x="1365" y="-192" font-family="Helvetica,sans-Serif" font-size="10.00" fill="#000000">../options.h</text>
</a>
</g>
</g>
<!-- Node112&#45;&gt;Node115 -->
<g id="edge100" class="edge">
<title>Node112&#45;&gt;Node115</title>
<path fill="none" stroke="#191970" d="M1365.8438,-246.3906C1365.7051,-237.8657 1365.4982,-225.1392 1365.324,-214.4235"/>
<polygon fill="#191970" stroke="#191970" points="1368.8207,-214.1866 1365.1585,-204.2449 1361.8216,-214.3005 1368.8207,-214.1866"/>
</g>
<!-- Node83 -->
<g id="node46" class="node">
<title>Node83</title>
<g id="a_node46"><a xlink:href="../../d8/db6/terrain_8h.xhtml" target="_top" xlink:title="../terrain/terrain.h">
<polygon fill="#ffffff" stroke="#ff0000" points="1527.5,-185 1527.5,-204 1618.5,-204 1618.5,-185 1527.5,-185"/>
<text text-anchor="middle" x="1573" y="-192" font-family="Helvetica,sans-Serif" font-size="10.00" fill="#000000">../terrain/terrain.h</text>
</a>
</g>
</g>
<!-- Node112&#45;&gt;Node83 -->
<g id="edge106" class="edge">
<title>Node112&#45;&gt;Node83</title>
<path fill="none" stroke="#191970" d="M1398.3438,-246.3906C1434.118,-235.7621 1491.8747,-218.6025 1531.0905,-206.9514"/>
<polygon fill="#191970" stroke="#191970" points="1532.2943,-210.245 1540.8834,-204.0419 1530.3007,-203.5349 1532.2943,-210.245"/>
</g>
<!-- Node114&#45;&gt;Node2 -->
<g id="edge97" class="edge">
<title>Node114&#45;&gt;Node2</title>
<path fill="none" stroke="#191970" d="M1124.4863,-121.5023C1110.4949,-118.1685 1092.3402,-114.2503 1076,-112 818.8227,-76.5822 751.5007,-99.9154 493,-76 476.4241,-74.4665 458.0029,-72.2344 442.9211,-70.2679"/>
<polygon fill="#191970" stroke="#191970" points="442.9776,-66.7447 432.6036,-68.8967 442.0553,-73.6837 442.9776,-66.7447"/>
</g>
<!-- Node114&#45;&gt;Node4 -->
<g id="edge99" class="edge">
<title>Node114&#45;&gt;Node4</title>
<path fill="none" stroke="#191970" d="M1148,-117.8906C1148,-109.3657 1148,-96.6392 1148,-85.9235"/>
<polygon fill="#191970" stroke="#191970" points="1151.5001,-85.7448 1148,-75.7449 1144.5001,-85.7449 1151.5001,-85.7448"/>
</g>
<!-- Node114&#45;&gt;Node70 -->
<g id="edge98" class="edge">
<title>Node114&#45;&gt;Node70</title>
<path fill="none" stroke="#191970" d="M1164.9904,-117.9383C1169.9974,-115.5614 1175.5881,-113.318 1181,-112 1382.1642,-63.0103 1905.2478,-86.9799 2112,-76 2143.9511,-74.3032 2179.7485,-71.898 2208.1332,-69.8717"/>
<polygon fill="#191970" stroke="#191970" points="2208.5117,-73.3536 2218.2345,-69.1443 2208.0089,-66.3717 2208.5117,-73.3536"/>
</g>
<!-- Node115&#45;&gt;Node2 -->
<g id="edge103" class="edge">
<title>Node115&#45;&gt;Node2</title>
<path fill="none" stroke="#191970" d="M1332.4858,-192.6231C1179.0883,-183.7538 534.7415,-146.3333 525,-143 487.1266,-130.0406 450.1214,-100.7477 429.2715,-82.26"/>
<polygon fill="#191970" stroke="#191970" points="431.6155,-79.6608 421.8582,-75.5323 426.9113,-84.8445 431.6155,-79.6608"/>
</g>
<!-- Node115&#45;&gt;Node4 -->
<g id="edge105" class="edge">
<title>Node115&#45;&gt;Node4</title>
<path fill="none" stroke="#191970" d="M1362.2643,-184.9717C1356.8071,-167.7092 1342.8995,-131.2692 1318,-112 1296.5551,-95.4043 1223.2153,-79.7227 1180.1887,-71.6556"/>
<polygon fill="#191970" stroke="#191970" points="1180.6784,-68.1871 1170.21,-69.8192 1179.4114,-75.0714 1180.6784,-68.1871"/>
</g>
<!-- Node115&#45;&gt;Node20 -->
<g id="edge102" class="edge">
<title>Node115&#45;&gt;Node20</title>
<path fill="none" stroke="#191970" d="M1366.2319,-184.9527C1368.9867,-167.6595 1377.2941,-131.1712 1400,-112 1423.5806,-92.0903 1508.436,-77.5985 1557.7636,-70.6367"/>
<polygon fill="#191970" stroke="#191970" points="1558.2866,-74.0978 1567.7155,-69.2662 1557.3315,-67.1632 1558.2866,-74.0978"/>
</g>
<!-- Node115&#45;&gt;Node70 -->
<g id="edge104" class="edge">
<title>Node115&#45;&gt;Node70</title>
<path fill="none" stroke="#191970" d="M1386.8615,-184.9856C1393.2378,-182.6095 1400.2958,-180.3546 1407,-179 1493.7811,-161.4656 2124.8568,-184.6181 2203,-143 2226.534,-130.4661 2242.9457,-103.4344 2251.9265,-84.9778"/>
<polygon fill="#191970" stroke="#191970" points="2255.1694,-86.3023 2256.1494,-75.7529 2248.8046,-83.3887 2255.1694,-86.3023"/>
</g>
<!-- Node115&#45;&gt;Node25 -->
<g id="edge101" class="edge">
<title>Node115&#45;&gt;Node25</title>
<path fill="none" stroke="#191970" d="M1375.4591,-184.9005C1387.0597,-174.2535 1405.9829,-156.8856 1419.9805,-144.0385"/>
<polygon fill="#191970" stroke="#191970" points="1422.5596,-146.4221 1427.5603,-137.0817 1417.8263,-141.2649 1422.5596,-146.4221"/>
</g>
<!-- Node83&#45;&gt;Node4 -->
<g id="edge111" class="edge">
<title>Node83&#45;&gt;Node4</title>
<path fill="none" stroke="#191970" d="M1568.7783,-184.8471C1560.4297,-167.0403 1539.9844,-129.268 1510,-112 1454.1586,-79.841 1258.472,-69.7447 1180.4601,-66.9543"/>
<polygon fill="#191970" stroke="#191970" points="1180.3733,-63.4494 1170.2601,-66.6075 1180.1354,-70.4454 1180.3733,-63.4494"/>
</g>
<!-- Node83&#45;&gt;Node32 -->
<g id="edge109" class="edge">
<title>Node83&#45;&gt;Node32</title>
<path fill="none" stroke="#191970" d="M1560.7166,-184.8703C1547.8668,-174.7018 1527.2096,-158.0857 1510,-143 1494.8677,-129.7353 1495.4004,-120.1463 1477,-112 1427.5781,-90.1197 1054.274,-72.5762 935.3057,-67.4927"/>
<polygon fill="#191970" stroke="#191970" points="935.384,-63.993 925.2448,-67.0667 935.0878,-70.9867 935.384,-63.993"/>
</g>
<!-- Node83&#45;&gt;Node33 -->
<g id="edge113" class="edge">
<title>Node83&#45;&gt;Node33</title>
<path fill="none" stroke="#191970" d="M1583.0137,-184.9082C1607.2507,-160.5696 1664.5406,-95.5455 1629,-56 1604.0228,-28.2083 1357.8553,-15.823 1249.619,-11.6893"/>
<polygon fill="#191970" stroke="#191970" points="1249.7108,-8.1904 1239.5871,-11.3148 1249.4496,-15.1855 1249.7108,-8.1904"/>
</g>
<!-- Node83&#45;&gt;Node47 -->
<g id="edge114" class="edge">
<title>Node83&#45;&gt;Node47</title>
<path fill="none" stroke="#191970" d="M1527.2712,-185.6997C1512.2644,-183.1278 1495.4692,-180.5847 1480,-179 1429.0056,-173.776 597.7317,-175.3899 558,-143 541.3753,-129.4472 537.9477,-103.8769 537.812,-85.9328"/>
<polygon fill="#191970" stroke="#191970" points="541.3173,-85.7706 538.0783,-75.6831 534.3197,-85.5888 541.3173,-85.7706"/>
</g>
<!-- Node83&#45;&gt;Node53 -->
<g id="edge115" class="edge">
<title>Node83&#45;&gt;Node53</title>
<path fill="none" stroke="#191970" d="M1527.2537,-185.8637C1512.2458,-183.3016 1495.4544,-180.7229 1480,-179 1200.388,-147.828 1128.684,-162.2625 848,-143 796.0841,-139.4372 736.3808,-134.5153 697.2929,-131.1809"/>
<polygon fill="#191970" stroke="#191970" points="697.3457,-127.6727 687.0834,-130.3061 696.748,-134.6471 697.3457,-127.6727"/>
</g>
<!-- Node83&#45;&gt;Node20 -->
<g id="edge108" class="edge">
<title>Node83&#45;&gt;Node20</title>
<path fill="none" stroke="#191970" d="M1574.5784,-184.8416C1577.9989,-163.9114 1586.155,-114.004 1590.7354,-85.9762"/>
<polygon fill="#191970" stroke="#191970" points="1594.2445,-86.2041 1592.4033,-75.7705 1587.3362,-85.075 1594.2445,-86.2041"/>
</g>
<!-- Node83&#45;&gt;Node70 -->
<g id="edge110" class="edge">
<title>Node83&#45;&gt;Node70</title>
<path fill="none" stroke="#191970" d="M1618.5085,-190.1563C1653.384,-186.8921 1702.7112,-182.4146 1746,-179 1804.6208,-174.376 2233.8592,-185.9709 2274,-143 2288.4988,-127.4789 2280.0708,-102.2025 2271.3094,-84.8716"/>
<polygon fill="#191970" stroke="#191970" points="2274.1646,-82.7998 2266.283,-75.7195 2268.029,-86.1695 2274.1646,-82.7998"/>
</g>
<!-- Node83&#45;&gt;Node87 -->
<g id="edge112" class="edge">
<title>Node83&#45;&gt;Node87</title>
<path fill="none" stroke="#191970" d="M1603.5078,-184.9625C1655.3362,-168.912 1764.013,-135.9142 1857,-112 1909.2159,-98.5712 1969.477,-85.3142 2011.085,-76.5075"/>
<polygon fill="#191970" stroke="#191970" points="2011.9181,-79.9089 2020.9816,-74.4223 2010.4748,-73.0593 2011.9181,-79.9089"/>
</g>
<!-- Node83&#45;&gt;Node25 -->
<g id="edge107" class="edge">
<title>Node83&#45;&gt;Node25</title>
<path fill="none" stroke="#191970" d="M1553.6578,-184.9005C1530.8013,-173.5569 1492.573,-154.5844 1466.3666,-141.5783"/>
<polygon fill="#191970" stroke="#191970" points="1467.8198,-138.3922 1457.3063,-137.0817 1464.7079,-144.6624 1467.8198,-138.3922"/>
</g>
<!-- Node75&#45;&gt;Node20 -->
<g id="edge135" class="edge">
<title>Node75&#45;&gt;Node20</title>
<path fill="none" stroke="#191970" d="M2047.3142,-248.227C2023.8047,-241.6276 1994.4274,-229.9427 1975,-210 1942.4024,-176.5378 1973.7004,-140.9034 1937,-112 1913.1509,-93.2176 1713.1758,-75.4212 1630.0338,-68.7605"/>
<polygon fill="#191970" stroke="#191970" points="1630.2752,-65.2687 1620.03,-67.9677 1629.7222,-72.2468 1630.2752,-65.2687"/>
</g>
<!-- Node75&#45;&gt;Node70 -->
<g id="edge134" class="edge">
<title>Node75&#45;&gt;Node70</title>
<path fill="none" stroke="#191970" d="M2122.6138,-251.9318C2216.9669,-240.8388 2459.2751,-206.5603 2503,-143 2510.8088,-131.6488 2511.7898,-122.6098 2503,-112 2490.8846,-97.3759 2379.458,-80.9953 2311.7717,-72.2704"/>
<polygon fill="#191970" stroke="#191970" points="2312.0752,-68.7808 2301.7129,-70.9885 2311.1902,-75.7246 2312.0752,-68.7808"/>
</g>
<!-- Node75&#45;&gt;Node71 -->
<g id="edge121" class="edge">
<title>Node75&#45;&gt;Node71</title>
<path fill="none" stroke="#191970" d="M2122.6359,-251.2763C2201.7679,-241.3444 2386.9131,-218.1068 2494.2055,-204.6405"/>
<polygon fill="#191970" stroke="#191970" points="2494.8532,-208.0868 2504.3394,-203.3686 2493.9814,-201.1413 2494.8532,-208.0868"/>
</g>
<!-- Node75&#45;&gt;Node72 -->
<g id="edge122" class="edge">
<title>Node75&#45;&gt;Node72</title>
<path fill="none" stroke="#191970" d="M2122.8109,-250.5229C2163.3797,-243.8926 2229.2321,-230.9354 2283,-210 2329.3118,-191.9677 2378.778,-161.3013 2406.6,-142.8676"/>
<polygon fill="#191970" stroke="#191970" points="2408.8134,-145.5974 2415.1697,-137.1211 2404.9148,-139.7836 2408.8134,-145.5974"/>
</g>
<!-- Node75&#45;&gt;Node90 -->
<g id="edge136" class="edge">
<title>Node75&#45;&gt;Node90</title>
<path fill="none" stroke="#191970" d="M2047.4187,-248.3972C1988.6734,-236.5129 1875.8072,-213.6797 1817.6437,-201.9131"/>
<polygon fill="#191970" stroke="#191970" points="1818.2777,-198.4705 1807.7822,-199.9181 1816.8896,-205.3316 1818.2777,-198.4705"/>
</g>
<!-- Node75&#45;&gt;Node83 -->
<g id="edge123" class="edge">
<title>Node75&#45;&gt;Node83</title>
<path fill="none" stroke="#191970" d="M2047.3514,-251.4778C1958.1768,-240.7664 1733.7029,-213.8032 1628.7324,-201.1944"/>
<polygon fill="#191970" stroke="#191970" points="1628.9989,-197.7014 1618.6528,-199.9837 1628.164,-204.6514 1628.9989,-197.7014"/>
</g>
<!-- Node76 -->
<g id="node48" class="node">
<title>Node76</title>
<g id="a_node48"><a xlink:href="../../d3/d6a/job_8h.xhtml" target="_top" xlink:title="../job/job.h">
<polygon fill="#ffffff" stroke="#ff0000" points="1866,-118 1866,-137 1928,-137 1928,-118 1866,-118"/>
<text text-anchor="middle" x="1897" y="-125" font-family="Helvetica,sans-Serif" font-size="10.00" fill="#000000">../job/job.h</text>
</a>
</g>
</g>
<!-- Node75&#45;&gt;Node76 -->
<g id="edge119" class="edge">
<title>Node75&#45;&gt;Node76</title>
<path fill="none" stroke="#191970" d="M2047.2528,-251.6995C2016.0523,-246.4471 1972.137,-234.9409 1942,-210 1921.9436,-193.4016 1909.4065,-165.4418 1902.8074,-146.7331"/>
<polygon fill="#191970" stroke="#191970" points="1906.1159,-145.5898 1899.6689,-137.1823 1899.4657,-147.7752 1906.1159,-145.5898"/>
</g>
<!-- Node88 -->
<g id="node49" class="node">
<title>Node88</title>
<g id="a_node49"><a xlink:href="../../dd/dde/unit__texture_8h.xhtml" target="_top" xlink:title="../unit/unit_texture.h">
<polygon fill="#ffffff" stroke="#000000" points="2170,-185 2170,-204 2274,-204 2274,-185 2170,-185"/>
<text text-anchor="middle" x="2222" y="-192" font-family="Helvetica,sans-Serif" font-size="10.00" fill="#000000">../unit/unit_texture.h</text>
</a>
</g>
</g>
<!-- Node75&#45;&gt;Node88 -->
<g id="edge124" class="edge">
<title>Node75&#45;&gt;Node88</title>
<path fill="none" stroke="#191970" d="M2106.4063,-246.3906C2129.2283,-236.1457 2165.5679,-219.8326 2191.4057,-208.2339"/>
<polygon fill="#191970" stroke="#191970" points="2193.0545,-211.3303 2200.7441,-204.0419 2190.1877,-204.9443 2193.0545,-211.3303"/>
</g>
<!-- Node89 -->
<g id="node50" class="node">
<title>Node89</title>
<g id="a_node50"><a xlink:href="../../d3/d8e/csv_8h.xhtml" target="_top" xlink:title="../util/csv.h">
<polygon fill="#ffffff" stroke="#ff0000" points="2128.5,-118 2128.5,-137 2193.5,-137 2193.5,-118 2128.5,-118"/>
<text text-anchor="middle" x="2161" y="-125" font-family="Helvetica,sans-Serif" font-size="10.00" fill="#000000">../util/csv.h</text>
</a>
</g>
</g>
<!-- Node75&#45;&gt;Node89 -->
<g id="edge129" class="edge">
<title>Node75&#45;&gt;Node89</title>
<path fill="none" stroke="#191970" d="M2090.7124,-246.3416C2103.3114,-225.0393 2133.6635,-173.7203 2150.0569,-146.0025"/>
<polygon fill="#191970" stroke="#191970" points="2153.1432,-147.6595 2155.2214,-137.2705 2147.1181,-144.096 2153.1432,-147.6595"/>
</g>
<!-- Node76&#45;&gt;Node20 -->
<g id="edge120" class="edge">
<title>Node76&#45;&gt;Node20</title>
<path fill="none" stroke="#191970" d="M1871.5094,-117.951C1865.192,-115.7983 1858.3981,-113.6615 1852,-112 1774.0909,-91.7677 1680.6464,-77.5305 1630.3474,-70.665"/>
<polygon fill="#191970" stroke="#191970" points="1630.6674,-67.1766 1620.2901,-69.3123 1629.7343,-74.1141 1630.6674,-67.1766"/>
</g>
<!-- Node88&#45;&gt;Node4 -->
<g id="edge126" class="edge">
<title>Node88&#45;&gt;Node4</title>
<path fill="none" stroke="#191970" d="M2169.8155,-188.1229C2055.6416,-174.1848 1775.0799,-140.0114 1540,-112 1406.5821,-96.1023 1247.5677,-77.5709 1180.4424,-69.7673"/>
<polygon fill="#191970" stroke="#191970" points="1180.4437,-66.244 1170.1064,-68.5661 1179.6355,-73.1972 1180.4437,-66.244"/>
</g>
<!-- Node88&#45;&gt;Node14 -->
<g id="edge125" class="edge">
<title>Node88&#45;&gt;Node14</title>
<path fill="none" stroke="#191970" d="M2240.7768,-184.9537C2256.3891,-176.0955 2278.0723,-161.5025 2291,-143 2313.7238,-110.4769 2338.7421,-84.3637 2311,-56 2292.3528,-36.935 533.1323,-13.7964 268.2383,-10.4191"/>
<polygon fill="#191970" stroke="#191970" points="268.1366,-6.9176 258.0929,-10.2901 268.0476,-13.917 268.1366,-6.9176"/>
</g>
<!-- Node88&#45;&gt;Node72 -->
<g id="edge128" class="edge">
<title>Node88&#45;&gt;Node72</title>
<path fill="none" stroke="#191970" d="M2251.6581,-184.9005C2287.9345,-173.1589 2349.4639,-153.2436 2389.6644,-140.2318"/>
<polygon fill="#191970" stroke="#191970" points="2390.9607,-143.4911 2399.397,-137.0817 2388.8051,-136.8312 2390.9607,-143.4911"/>
</g>
<!-- Node88&#45;&gt;Node87 -->
<g id="edge127" class="edge">
<title>Node88&#45;&gt;Node87</title>
<path fill="none" stroke="#191970" d="M2222.621,-184.9856C2223.1848,-168.0692 2221.8486,-132.6055 2203,-112 2190.6225,-98.4689 2148.3672,-85.7543 2113.3143,-77.1368"/>
<polygon fill="#191970" stroke="#191970" points="2113.7204,-73.635 2103.18,-74.7077 2112.0888,-80.4422 2113.7204,-73.635"/>
</g>
<!-- Node89&#45;&gt;Node2 -->
<g id="edge131" class="edge">
<title>Node89&#45;&gt;Node2</title>
<path fill="none" stroke="#191970" d="M2128.2905,-122.2438C2104.6609,-118.6816 2071.9444,-114.2307 2043,-112 1355.9626,-59.0521 1180.238,-126.2773 493,-76 476.3977,-74.7854 457.9743,-72.5795 442.8979,-70.548"/>
<polygon fill="#191970" stroke="#191970" points="442.9718,-67.0247 432.5854,-69.1162 442.0091,-73.9582 442.9718,-67.0247"/>
</g>
<!-- Node89&#45;&gt;Node3 -->
<g id="edge130" class="edge">
<title>Node89&#45;&gt;Node3</title>
<path fill="none" stroke="#191970" d="M2193.7689,-122.5849C2248.7897,-114.1652 2363.1358,-95.9502 2459,-76 2460.9367,-75.597 2462.921,-75.1677 2464.9212,-74.7222"/>
<polygon fill="#191970" stroke="#191970" points="2465.9584,-78.0747 2474.9093,-72.4062 2464.3771,-71.2556 2465.9584,-78.0747"/>
</g>
<!-- Node89&#45;&gt;Node4 -->
<g id="edge133" class="edge">
<title>Node89&#45;&gt;Node4</title>
<path fill="none" stroke="#191970" d="M2128.2696,-122.4923C2104.63,-119.0487 2071.9102,-114.6375 2043,-112 1706.4335,-81.2945 1296.654,-69.5782 1180.2235,-66.7331"/>
<polygon fill="#191970" stroke="#191970" points="1180.2691,-63.2333 1170.188,-66.4923 1180.1011,-70.2313 1180.2691,-63.2333"/>
</g>
<!-- Node89&#45;&gt;Node70 -->
<g id="edge132" class="edge">
<title>Node89&#45;&gt;Node70</title>
<path fill="none" stroke="#191970" d="M2176.4688,-117.8906C2192.4521,-107.9616 2217.6103,-92.333 2236.1433,-80.8201"/>
<polygon fill="#191970" stroke="#191970" points="2237.9924,-83.7918 2244.6399,-75.5419 2234.2985,-77.8457 2237.9924,-83.7918"/>
</g>
</g>
</svg>
