<?xml version="1.0" encoding="UTF-8" standalone="no"?>
<!DOCTYPE svg PUBLIC "-//W3C//DTD SVG 1.1//EN"
 "http://www.w3.org/Graphics/SVG/1.1/DTD/svg11.dtd">
<!-- Generated by graphviz version 2.40.1 (20161225.0304)
 -->
<!-- Title: openage::Terrain::used_chunks Pages: 1 -->
<svg width="436pt" height="39pt"
 viewBox="0.00 0.00 436.00 39.00" xmlns="http://www.w3.org/2000/svg" xmlns:xlink="http://www.w3.org/1999/xlink">
<g id="graph0" class="graph" transform="scale(1 1) rotate(0) translate(4 35)">
<title>openage::Terrain::used_chunks</title>
<polygon fill="#ffffff" stroke="transparent" points="-4,4 -4,-35 432,-35 432,4 -4,4"/>
<!-- Node350 -->
<g id="node1" class="node">
<title>Node350</title>
<polygon fill="#bfbfbf" stroke="#000000" points="0,-.5 0,-30.5 116,-30.5 116,-.5 0,-.5"/>
<text text-anchor="start" x="8" y="-18.5" font-family="Helvetica,sans-Serif" font-size="10.00" fill="#000000">openage::Terrain::used</text>
<text text-anchor="middle" x="58" y="-7.5" font-family="Helvetica,sans-Serif" font-size="10.00" fill="#000000">_chunks</text>
</g>
<!-- Node351 -->
<g id="node2" class="node">
<title>Node351</title>
<g id="a_node2"><a xlink:href="../../d5/d0e/namespaceopenage_1_1testing_1_1testing.xhtml#ac25bf81db406af62d08113ef7ae9fd6e" target="_top" xlink:title="openage.testing.testing.result">
<polygon fill="#ffffff" stroke="#000000" points="152,-6 152,-25 297,-25 297,-6 152,-6"/>
<text text-anchor="middle" x="224.5" y="-13" font-family="Helvetica,sans-Serif" font-size="10.00" fill="#000000">openage.testing.testing.result</text>
</a>
</g>
</g>
<!-- Node350&#45;&gt;Node351 -->
<g id="edge1" class="edge">
<title>Node350&#45;&gt;Node351</title>
<path fill="none" stroke="#191970" d="M116.2336,-15.5C124.5241,-15.5 133.1794,-15.5 141.8265,-15.5"/>
<polygon fill="#191970" stroke="#191970" points="141.9513,-19.0001 151.9512,-15.5 141.9512,-12.0001 141.9513,-19.0001"/>
</g>
<!-- Node352 -->
<g id="node3" class="node">
<title>Node352</title>
<g id="a_node3"><a xlink:href="../../de/d60/namespaceopenage_1_1util.xhtml#a7bc4421a5f0f57f3a0aba3f96eb8d19c" target="_top" xlink:title="method that behaves similar to python&#39;s &quot;repr&quot;. ">
<polygon fill="#ffffff" stroke="#000000" points="333,-6 333,-25 428,-25 428,-6 333,-6"/>
<text text-anchor="middle" x="380.5" y="-13" font-family="Helvetica,sans-Serif" font-size="10.00" fill="#000000">openage::util::repr</text>
</a>
</g>
</g>
<!-- Node351&#45;&gt;Node352 -->
<g id="edge2" class="edge">
<title>Node351&#45;&gt;Node352</title>
<path fill="none" stroke="#191970" d="M297.0196,-8.7648C305.6179,-8.7182 314.3054,-8.7815 322.6614,-8.9545"/>
<polygon fill="#191970" stroke="#191970" points="322.5718,-12.4533 332.6613,-9.2201 322.7578,-5.4558 322.5718,-12.4533"/>
</g>
<!-- Node352&#45;&gt;Node351 -->
<g id="edge3" class="edge">
<title>Node352&#45;&gt;Node351</title>
<path fill="none" stroke="#191970" d="M332.6613,-21.7799C324.5562,-22.0451 315.9375,-22.1982 307.24,-22.2389"/>
<polygon fill="#191970" stroke="#191970" points="307.021,-18.7389 297.0196,-22.2352 307.0183,-25.7389 307.021,-18.7389"/>
</g>
</g>
</svg>
