<?xml version="1.0" encoding="UTF-8" standalone="no"?>
<!DOCTYPE svg PUBLIC "-//W3C//DTD SVG 1.1//EN"
 "http://www.w3.org/Graphics/SVG/1.1/DTD/svg11.dtd">
<!-- Generated by graphviz version 2.40.1 (20161225.0304)
 -->
<!-- Title: openage::Terrain::get_create_chunk Pages: 1 -->
<svg width="792pt" height="209pt"
 viewBox="0.00 0.00 792.00 208.50" xmlns="http://www.w3.org/2000/svg" xmlns:xlink="http://www.w3.org/1999/xlink">
<g id="graph0" class="graph" transform="scale(1 1) rotate(0) translate(4 204.5)">
<title>openage::Terrain::get_create_chunk</title>
<polygon fill="#ffffff" stroke="transparent" points="-4,4 -4,-204.5 788,-204.5 788,4 -4,4"/>
<!-- Node243 -->
<g id="node1" class="node">
<title>Node243</title>
<polygon fill="#bfbfbf" stroke="#000000" points="0,-149 0,-179 109,-179 109,-149 0,-149"/>
<text text-anchor="start" x="8" y="-167" font-family="Helvetica,sans-Serif" font-size="10.00" fill="#000000">openage::Terrain::get</text>
<text text-anchor="middle" x="54.5" y="-156" font-family="Helvetica,sans-Serif" font-size="10.00" fill="#000000">_create_chunk</text>
</g>
<!-- Node244 -->
<g id="node2" class="node">
<title>Node244</title>
<g id="a_node2"><a xlink:href="../../d4/d15/classopenage_1_1_terrain.xhtml#af40a0b5e61397331f4efc9543f7fdd44" target="_top" xlink:title="Attach a chunk to the terrain, to a given position. ">
<polygon fill="#ffffff" stroke="#000000" points="145,-108 145,-138 267,-138 267,-108 145,-108"/>
<text text-anchor="start" x="153" y="-126" font-family="Helvetica,sans-Serif" font-size="10.00" fill="#000000">openage::Terrain::attach</text>
<text text-anchor="middle" x="206" y="-115" font-family="Helvetica,sans-Serif" font-size="10.00" fill="#000000">_chunk</text>
</a>
</g>
</g>
<!-- Node243&#45;&gt;Node244 -->
<g id="edge1" class="edge">
<title>Node243&#45;&gt;Node244</title>
<path fill="none" stroke="#191970" d="M109.195,-149.1981C119.3432,-146.4517 130.0392,-143.5571 140.4717,-140.7337"/>
<polygon fill="#191970" stroke="#191970" points="141.6283,-144.0467 150.3667,-138.0559 139.7996,-137.2898 141.6283,-144.0467"/>
</g>
<!-- Node247 -->
<g id="node5" class="node">
<title>Node247</title>
<g id="a_node5"><a xlink:href="../../d4/d15/classopenage_1_1_terrain.xhtml#a6e0db07445c5dcc346c5e9d28458c516" target="_top" xlink:title="get a terrain chunk by a given chunk position. ">
<polygon fill="#ffffff" stroke="#000000" points="474,-170 474,-200 583,-200 583,-170 474,-170"/>
<text text-anchor="start" x="482" y="-188" font-family="Helvetica,sans-Serif" font-size="10.00" fill="#000000">openage::Terrain::get</text>
<text text-anchor="middle" x="528.5" y="-177" font-family="Helvetica,sans-Serif" font-size="10.00" fill="#000000">_chunk</text>
</a>
</g>
</g>
<!-- Node243&#45;&gt;Node247 -->
<g id="edge12" class="edge">
<title>Node243&#45;&gt;Node247</title>
<path fill="none" stroke="#191970" d="M109.1892,-170.24C159.4783,-175.645 236.1496,-183.0466 303,-186 355.3933,-188.3147 368.5561,-186.2439 421,-186 434.817,-185.9357 449.6327,-185.825 463.714,-185.7001"/>
<polygon fill="#191970" stroke="#191970" points="463.8454,-189.1991 473.8127,-185.607 463.7808,-182.1994 463.8454,-189.1991"/>
</g>
<!-- Node245 -->
<g id="node3" class="node">
<title>Node245</title>
<g id="a_node3"><a xlink:href="../../dd/d1a/namespaceopenage_1_1log.xhtml#a5cb08687f485da2549d7eebef26368a6" target="_top" xlink:title="debug message ">
<polygon fill="#ffffff" stroke="#000000" points="318,-157.5 318,-176.5 406,-176.5 406,-157.5 318,-157.5"/>
<text text-anchor="middle" x="362" y="-164.5" font-family="Helvetica,sans-Serif" font-size="10.00" fill="#000000">openage.log.dbg</text>
</a>
</g>
</g>
<!-- Node244&#45;&gt;Node245 -->
<g id="edge2" class="edge">
<title>Node244&#45;&gt;Node245</title>
<path fill="none" stroke="#191970" d="M259.25,-138.0192C278.4644,-143.4387 299.9141,-149.4886 318.225,-154.6532"/>
<polygon fill="#191970" stroke="#191970" points="317.466,-158.0756 328.0406,-157.4217 319.3663,-151.3385 317.466,-158.0756"/>
</g>
<!-- Node246 -->
<g id="node4" class="node">
<title>Node246</title>
<g id="a_node4"><a xlink:href="../../d4/d15/classopenage_1_1_terrain.xhtml#a9ce94c372f7e86310506844b352fb20c" target="_top" xlink:title="get the neighbor chunks of a given chunk. ">
<polygon fill="#ffffff" stroke="#000000" points="307.5,-108 307.5,-138 416.5,-138 416.5,-108 307.5,-108"/>
<text text-anchor="start" x="315.5" y="-126" font-family="Helvetica,sans-Serif" font-size="10.00" fill="#000000">openage::Terrain::get</text>
<text text-anchor="middle" x="362" y="-115" font-family="Helvetica,sans-Serif" font-size="10.00" fill="#000000">_chunk_neighbors</text>
</a>
</g>
</g>
<!-- Node244&#45;&gt;Node246 -->
<g id="edge3" class="edge">
<title>Node244&#45;&gt;Node246</title>
<path fill="none" stroke="#191970" d="M267.2076,-123C277.0273,-123 287.2198,-123 297.1218,-123"/>
<polygon fill="#191970" stroke="#191970" points="297.3078,-126.5001 307.3078,-123 297.3078,-119.5001 297.3078,-126.5001"/>
</g>
<!-- Node248 -->
<g id="node6" class="node">
<title>Node248</title>
<g id="a_node6"><a xlink:href="../../dd/d1a/namespaceopenage_1_1log.xhtml#a0eff614e7d6e818746700ed9d29e583f" target="_top" xlink:title="Convenience method that makes use of the &#39;general&#39; LogSource. ">
<polygon fill="#ffffff" stroke="#000000" points="316.5,-69.5 316.5,-88.5 407.5,-88.5 407.5,-69.5 316.5,-69.5"/>
<text text-anchor="middle" x="362" y="-76.5" font-family="Helvetica,sans-Serif" font-size="10.00" fill="#000000">openage::log::log</text>
</a>
</g>
</g>
<!-- Node244&#45;&gt;Node248 -->
<g id="edge5" class="edge">
<title>Node244&#45;&gt;Node248</title>
<path fill="none" stroke="#191970" d="M259.25,-107.9808C278.4644,-102.5613 299.9141,-96.5114 318.225,-91.3468"/>
<polygon fill="#191970" stroke="#191970" points="319.3663,-94.6615 328.0406,-88.5783 317.466,-87.9244 319.3663,-94.6615"/>
</g>
<!-- Node254 -->
<g id="node12" class="node">
<title>Node254</title>
<g id="a_node12"><a xlink:href="../../d9/dab/classopenage_1_1_terrain_chunk.xhtml#ae77efc0ad732593eddaeb1f34a1452ac" target="_top" xlink:title="openage::TerrainChunk\l::set_terrain">
<polygon fill="#ffffff" stroke="#000000" points="303,-20 303,-50 421,-50 421,-20 303,-20"/>
<text text-anchor="start" x="311" y="-38" font-family="Helvetica,sans-Serif" font-size="10.00" fill="#000000">openage::TerrainChunk</text>
<text text-anchor="middle" x="362" y="-27" font-family="Helvetica,sans-Serif" font-size="10.00" fill="#000000">::set_terrain</text>
</a>
</g>
</g>
<!-- Node244&#45;&gt;Node254 -->
<g id="edge11" class="edge">
<title>Node244&#45;&gt;Node254</title>
<path fill="none" stroke="#191970" d="M226.9201,-107.8761C246.1365,-94.3609 275.6916,-74.51 303,-60 306.7024,-58.0328 310.5934,-56.1029 314.5372,-54.2421"/>
<polygon fill="#191970" stroke="#191970" points="316.119,-57.3677 323.7714,-50.0404 313.2198,-50.9963 316.119,-57.3677"/>
</g>
<!-- Node246&#45;&gt;Node247 -->
<g id="edge4" class="edge">
<title>Node246&#45;&gt;Node247</title>
<path fill="none" stroke="#191970" d="M402.305,-138.0085C425.2453,-146.5508 454.1767,-157.324 478.549,-166.3996"/>
<polygon fill="#191970" stroke="#191970" points="477.3963,-169.7051 487.9891,-169.9149 479.8391,-163.1452 477.3963,-169.7051"/>
</g>
<!-- Node249 -->
<g id="node7" class="node">
<title>Node249</title>
<g id="a_node7"><a xlink:href="../../dd/d1a/namespaceopenage_1_1log.xhtml#a3fbb0c225d01e222648ec28a43507188" target="_top" xlink:title="Returns a reference to a general named log source, for use by log::log(). ">
<polygon fill="#ffffff" stroke="#000000" points="473.5,-83 473.5,-113 583.5,-113 583.5,-83 473.5,-83"/>
<text text-anchor="start" x="481.5" y="-101" font-family="Helvetica,sans-Serif" font-size="10.00" fill="#000000">openage::log::general</text>
<text text-anchor="middle" x="528.5" y="-90" font-family="Helvetica,sans-Serif" font-size="10.00" fill="#000000">_source</text>
</a>
</g>
</g>
<!-- Node248&#45;&gt;Node249 -->
<g id="edge6" class="edge">
<title>Node248&#45;&gt;Node249</title>
<path fill="none" stroke="#191970" d="M407.9376,-84.2421C424.9929,-86.1884 444.6827,-88.4353 463.1408,-90.5416"/>
<polygon fill="#191970" stroke="#191970" points="462.9117,-94.0381 473.244,-91.6945 463.7054,-87.0832 462.9117,-94.0381"/>
</g>
<!-- Node250 -->
<g id="node8" class="node">
<title>Node250</title>
<g id="a_node8"><a xlink:href="../../de/de3/classopenage_1_1log_1_1_log_source.xhtml#a5640099e20af4cd368c767dbcef3a1df" target="_top" xlink:title="Logs a message (get one via MSG(level)). ">
<polygon fill="#ffffff" stroke="#000000" points="457,-44.5 457,-63.5 600,-63.5 600,-44.5 457,-44.5"/>
<text text-anchor="middle" x="528.5" y="-51.5" font-family="Helvetica,sans-Serif" font-size="10.00" fill="#000000">openage::log::LogSource::log</text>
</a>
</g>
</g>
<!-- Node248&#45;&gt;Node250 -->
<g id="edge7" class="edge">
<title>Node248&#45;&gt;Node250</title>
<path fill="none" stroke="#191970" d="M407.9376,-72.1025C422.5249,-69.9122 439.0393,-67.4325 455.062,-65.0267"/>
<polygon fill="#191970" stroke="#191970" points="455.5838,-68.4877 464.9532,-63.5416 454.5443,-61.5653 455.5838,-68.4877"/>
</g>
<!-- Node251 -->
<g id="node9" class="node">
<title>Node251</title>
<g id="a_node9"><a xlink:href="../../dd/d1a/namespaceopenage_1_1log.xhtml#a3d2885be9c3a09b9ff7ee8764b2e5f39" target="_top" xlink:title="Returns a reference to the global stdout logsink object; Initializes the object if needed...">
<polygon fill="#ffffff" stroke="#000000" points="658,-88 658,-118 762,-118 762,-88 658,-88"/>
<text text-anchor="start" x="666" y="-106" font-family="Helvetica,sans-Serif" font-size="10.00" fill="#000000">openage::log::global</text>
<text text-anchor="middle" x="710" y="-95" font-family="Helvetica,sans-Serif" font-size="10.00" fill="#000000">_stdoutsink</text>
</a>
</g>
</g>
<!-- Node250&#45;&gt;Node251 -->
<g id="edge8" class="edge">
<title>Node250&#45;&gt;Node251</title>
<path fill="none" stroke="#191970" d="M563.9259,-63.564C587.8272,-70.0167 620.008,-78.7046 648.0812,-86.2836"/>
<polygon fill="#191970" stroke="#191970" points="647.2527,-89.6852 657.8194,-88.9127 649.0773,-82.9272 647.2527,-89.6852"/>
</g>
<!-- Node252 -->
<g id="node10" class="node">
<title>Node252</title>
<g id="a_node10"><a xlink:href="../../d0/d58/classopenage_1_1log_1_1_log_sink_list.xhtml#a2d47416fab12651553b4b58c86fd6f84" target="_top" xlink:title="openage::log::LogSinkList\l::instance">
<polygon fill="#ffffff" stroke="#000000" points="645.5,-39 645.5,-69 774.5,-69 774.5,-39 645.5,-39"/>
<text text-anchor="start" x="653.5" y="-57" font-family="Helvetica,sans-Serif" font-size="10.00" fill="#000000">openage::log::LogSinkList</text>
<text text-anchor="middle" x="710" y="-46" font-family="Helvetica,sans-Serif" font-size="10.00" fill="#000000">::instance</text>
</a>
</g>
</g>
<!-- Node250&#45;&gt;Node252 -->
<g id="edge9" class="edge">
<title>Node250&#45;&gt;Node252</title>
<path fill="none" stroke="#191970" d="M600.2336,-54C611.7292,-54 623.651,-54 635.2157,-54"/>
<polygon fill="#191970" stroke="#191970" points="635.267,-57.5001 645.267,-54 635.267,-50.5001 635.267,-57.5001"/>
</g>
<!-- Node253 -->
<g id="node11" class="node">
<title>Node253</title>
<g id="a_node11"><a xlink:href="../../d0/d58/classopenage_1_1log_1_1_log_sink_list.xhtml#a8456b84ab55e1fe151c51438c5bfebdd" target="_top" xlink:title="openage::log::LogSinkList::log">
<polygon fill="#ffffff" stroke="#000000" points="636,-.5 636,-19.5 784,-19.5 784,-.5 636,-.5"/>
<text text-anchor="middle" x="710" y="-7.5" font-family="Helvetica,sans-Serif" font-size="10.00" fill="#000000">openage::log::LogSinkList::log</text>
</a>
</g>
</g>
<!-- Node250&#45;&gt;Node253 -->
<g id="edge10" class="edge">
<title>Node250&#45;&gt;Node253</title>
<path fill="none" stroke="#191970" d="M567.8828,-44.4527C595.1156,-37.8508 631.5503,-29.0181 660.7102,-21.949"/>
<polygon fill="#191970" stroke="#191970" points="661.8002,-25.2863 670.6941,-19.5287 660.1509,-18.4833 661.8002,-25.2863"/>
</g>
</g>
</svg>
