<?xml version="1.0" encoding="UTF-8" standalone="no"?>
<!DOCTYPE svg PUBLIC "-//W3C//DTD SVG 1.1//EN"
 "http://www.w3.org/Graphics/SVG/1.1/DTD/svg11.dtd">
<!-- Generated by graphviz version 2.40.1 (20161225.0304)
 -->
<!-- Title: openage::Terrain::get_chunk Pages: 1 -->
<svg width="389pt" height="88pt"
 viewBox="0.00 0.00 389.00 88.00" xmlns="http://www.w3.org/2000/svg" xmlns:xlink="http://www.w3.org/1999/xlink">
<g id="graph0" class="graph" transform="scale(1 1) rotate(0) translate(4 84)">
<title>openage::Terrain::get_chunk</title>
<polygon fill="#ffffff" stroke="transparent" points="-4,4 -4,-84 385,-84 385,4 -4,4"/>
<!-- Node227 -->
<g id="node1" class="node">
<title>Node227</title>
<polygon fill="#bfbfbf" stroke="#000000" points="0,-24.5 0,-54.5 109,-54.5 109,-24.5 0,-24.5"/>
<text text-anchor="start" x="8" y="-42.5" font-family="Helvetica,sans-Serif" font-size="10.00" fill="#000000">openage::Terrain::get</text>
<text text-anchor="middle" x="54.5" y="-31.5" font-family="Helvetica,sans-Serif" font-size="10.00" fill="#000000">_chunk</text>
</g>
<!-- Node228 -->
<g id="node2" class="node">
<title>Node228</title>
<g id="a_node2"><a xlink:href="../../d4/d15/classopenage_1_1_terrain.xhtml#a6e0db07445c5dcc346c5e9d28458c516" target="_top" xlink:title="get a terrain chunk by a given chunk position. ">
<polygon fill="#ffffff" stroke="#000000" points="145,-49.5 145,-79.5 254,-79.5 254,-49.5 145,-49.5"/>
<text text-anchor="start" x="153" y="-67.5" font-family="Helvetica,sans-Serif" font-size="10.00" fill="#000000">openage::Terrain::get</text>
<text text-anchor="middle" x="199.5" y="-56.5" font-family="Helvetica,sans-Serif" font-size="10.00" fill="#000000">_chunk</text>
</a>
</g>
</g>
<!-- Node227&#45;&gt;Node228 -->
<g id="edge1" class="edge">
<title>Node227&#45;&gt;Node228</title>
<path fill="none" stroke="#191970" d="M109.3183,-48.9514C117.6188,-50.3826 126.2486,-51.8705 134.7354,-53.3337"/>
<polygon fill="#191970" stroke="#191970" points="134.1549,-56.7852 144.6042,-55.0352 135.3443,-49.8869 134.1549,-56.7852"/>
</g>
<!-- Node229 -->
<g id="node3" class="node">
<title>Node229</title>
<g id="a_node3"><a xlink:href="../../d5/d10/structopenage_1_1coord_1_1tile.xhtml#a47c3fa2d9edf30712ddbc3b8ae217eb0" target="_top" xlink:title="openage::coord::tile\l::to_chunk">
<polygon fill="#ffffff" stroke="#000000" points="148.5,-.5 148.5,-30.5 250.5,-30.5 250.5,-.5 148.5,-.5"/>
<text text-anchor="start" x="156.5" y="-18.5" font-family="Helvetica,sans-Serif" font-size="10.00" fill="#000000">openage::coord::tile</text>
<text text-anchor="middle" x="199.5" y="-7.5" font-family="Helvetica,sans-Serif" font-size="10.00" fill="#000000">::to_chunk</text>
</a>
</g>
</g>
<!-- Node227&#45;&gt;Node229 -->
<g id="edge2" class="edge">
<title>Node227&#45;&gt;Node229</title>
<path fill="none" stroke="#191970" d="M109.3183,-30.4266C118.8418,-28.8503 128.7989,-27.2023 138.476,-25.6005"/>
<polygon fill="#191970" stroke="#191970" points="139.1352,-29.0391 148.4294,-23.9531 137.9921,-22.1331 139.1352,-29.0391"/>
</g>
<!-- Node230 -->
<g id="node4" class="node">
<title>Node230</title>
<g id="a_node4"><a xlink:href="../../de/d60/namespaceopenage_1_1util.xhtml#a34ba6f7abd32acb48dfc6ad6efdc1bc8" target="_top" xlink:title="implements the &#39;correct&#39; version of the division operator, which always rounds to &#45;inf ...">
<polygon fill="#ffffff" stroke="#000000" points="290,-6 290,-25 381,-25 381,-6 290,-6"/>
<text text-anchor="middle" x="335.5" y="-13" font-family="Helvetica,sans-Serif" font-size="10.00" fill="#000000">openage::util::div</text>
</a>
</g>
</g>
<!-- Node229&#45;&gt;Node230 -->
<g id="edge3" class="edge">
<title>Node229&#45;&gt;Node230</title>
<path fill="none" stroke="#191970" d="M250.5283,-15.5C259.9381,-15.5 269.811,-15.5 279.3618,-15.5"/>
<polygon fill="#191970" stroke="#191970" points="279.5618,-19.0001 289.5618,-15.5 279.5618,-12.0001 279.5618,-19.0001"/>
</g>
</g>
</svg>
