<?xml version="1.0" encoding="UTF-8" standalone="no"?>
<!DOCTYPE svg PUBLIC "-//W3C//DTD SVG 1.1//EN"
 "http://www.w3.org/Graphics/SVG/1.1/DTD/svg11.dtd">
<!-- Generated by graphviz version 2.40.1 (20161225.0304)
 -->
<!-- Title: openage::Terrain::get_chunk_neighbors Pages: 1 -->
<svg width="738pt" height="176pt"
 viewBox="0.00 0.00 738.00 176.00" xmlns="http://www.w3.org/2000/svg" xmlns:xlink="http://www.w3.org/1999/xlink">
<g id="graph0" class="graph" transform="scale(1 1) rotate(0) translate(4 172)">
<title>openage::Terrain::get_chunk_neighbors</title>
<polygon fill="#ffffff" stroke="transparent" points="-4,4 -4,-172 734,-172 734,4 -4,4"/>
<!-- Node234 -->
<g id="node1" class="node">
<title>Node234</title>
<polygon fill="#bfbfbf" stroke="#000000" points="0,-66.5 0,-96.5 109,-96.5 109,-66.5 0,-66.5"/>
<text text-anchor="start" x="8" y="-84.5" font-family="Helvetica,sans-Serif" font-size="10.00" fill="#000000">openage::Terrain::get</text>
<text text-anchor="middle" x="54.5" y="-73.5" font-family="Helvetica,sans-Serif" font-size="10.00" fill="#000000">_chunk_neighbors</text>
</g>
<!-- Node235 -->
<g id="node2" class="node">
<title>Node235</title>
<g id="a_node2"><a xlink:href="../../d4/d15/classopenage_1_1_terrain.xhtml#af40a0b5e61397331f4efc9543f7fdd44" target="_top" xlink:title="Attach a chunk to the terrain, to a given position. ">
<polygon fill="#ffffff" stroke="#000000" points="145,-66.5 145,-96.5 267,-96.5 267,-66.5 145,-66.5"/>
<text text-anchor="start" x="153" y="-84.5" font-family="Helvetica,sans-Serif" font-size="10.00" fill="#000000">openage::Terrain::attach</text>
<text text-anchor="middle" x="206" y="-73.5" font-family="Helvetica,sans-Serif" font-size="10.00" fill="#000000">_chunk</text>
</a>
</g>
</g>
<!-- Node234&#45;&gt;Node235 -->
<g id="edge1" class="edge">
<title>Node234&#45;&gt;Node235</title>
<path fill="none" stroke="#191970" d="M119.4148,-81.5C127.8925,-81.5 136.5551,-81.5 144.9659,-81.5"/>
<polygon fill="#191970" stroke="#191970" points="119.195,-78.0001 109.195,-81.5 119.1949,-85.0001 119.195,-78.0001"/>
</g>
<!-- Node236 -->
<g id="node3" class="node">
<title>Node236</title>
<g id="a_node3"><a xlink:href="../../d4/d15/classopenage_1_1_terrain.xhtml#a7837ff925b6c466824b2388e55c198f4" target="_top" xlink:title="get or create a terrain chunk for a given chunk position. ">
<polygon fill="#ffffff" stroke="#000000" points="303,-66.5 303,-96.5 412,-96.5 412,-66.5 303,-66.5"/>
<text text-anchor="start" x="311" y="-84.5" font-family="Helvetica,sans-Serif" font-size="10.00" fill="#000000">openage::Terrain::get</text>
<text text-anchor="middle" x="357.5" y="-73.5" font-family="Helvetica,sans-Serif" font-size="10.00" fill="#000000">_create_chunk</text>
</a>
</g>
</g>
<!-- Node235&#45;&gt;Node236 -->
<g id="edge2" class="edge">
<title>Node235&#45;&gt;Node236</title>
<path fill="none" stroke="#191970" d="M277.2519,-81.5C285.8817,-81.5 294.5896,-81.5 302.9254,-81.5"/>
<polygon fill="#191970" stroke="#191970" points="277.1842,-78.0001 267.1842,-81.5 277.1841,-85.0001 277.1842,-78.0001"/>
</g>
<!-- Node237 -->
<g id="node4" class="node">
<title>Node237</title>
<g id="a_node4"><a xlink:href="../../db/d42/classopenage_1_1_editor_mode.xhtml#a1f47d053e9c09aaf9bc6ec3a85f4a49e" target="_top" xlink:title="openage::EditorMode\l::paint_terrain_at">
<polygon fill="#ffffff" stroke="#000000" points="448,-137.5 448,-167.5 557,-167.5 557,-137.5 448,-137.5"/>
<text text-anchor="start" x="456" y="-155.5" font-family="Helvetica,sans-Serif" font-size="10.00" fill="#000000">openage::EditorMode</text>
<text text-anchor="middle" x="502.5" y="-144.5" font-family="Helvetica,sans-Serif" font-size="10.00" fill="#000000">::paint_terrain_at</text>
</a>
</g>
</g>
<!-- Node236&#45;&gt;Node237 -->
<g id="edge3" class="edge">
<title>Node236&#45;&gt;Node237</title>
<path fill="none" stroke="#191970" d="M394.5765,-101.4384C410.8476,-110.0105 430.2496,-119.9932 448,-128.5 454.2466,-131.4936 460.9565,-134.5642 467.4594,-137.4664"/>
<polygon fill="#191970" stroke="#191970" points="395.8696,-98.1628 385.3943,-96.5761 392.5938,-104.349 395.8696,-98.1628"/>
</g>
<!-- Node239 -->
<g id="node6" class="node">
<title>Node239</title>
<g id="a_node6"><a xlink:href="../../db/d42/classopenage_1_1_editor_mode.xhtml#a1430647b024d4c9e7021756a6fa9700d" target="_top" xlink:title="openage::EditorMode\l::paint_entity_at">
<polygon fill="#ffffff" stroke="#000000" points="448,-88.5 448,-118.5 557,-118.5 557,-88.5 448,-88.5"/>
<text text-anchor="start" x="456" y="-106.5" font-family="Helvetica,sans-Serif" font-size="10.00" fill="#000000">openage::EditorMode</text>
<text text-anchor="middle" x="502.5" y="-95.5" font-family="Helvetica,sans-Serif" font-size="10.00" fill="#000000">::paint_entity_at</text>
</a>
</g>
</g>
<!-- Node236&#45;&gt;Node239 -->
<g id="edge5" class="edge">
<title>Node236&#45;&gt;Node239</title>
<path fill="none" stroke="#191970" d="M422.4621,-91.3563C430.8588,-92.6303 439.3919,-93.925 447.6042,-95.171"/>
<polygon fill="#191970" stroke="#191970" points="422.7302,-87.857 412.3183,-89.8173 421.6801,-94.7778 422.7302,-87.857"/>
</g>
<!-- Node240 -->
<g id="node7" class="node">
<title>Node240</title>
<g id="a_node7"><a xlink:href="../../d4/d15/classopenage_1_1_terrain.xhtml#ac5f73cac07115849392bb22598ae8fba" target="_top" xlink:title="fill the terrain with given terrain_id values. ">
<polygon fill="#ffffff" stroke="#000000" points="450,-50 450,-69 555,-69 555,-50 450,-50"/>
<text text-anchor="middle" x="502.5" y="-57" font-family="Helvetica,sans-Serif" font-size="10.00" fill="#000000">openage::Terrain::fill</text>
</a>
</g>
</g>
<!-- Node236&#45;&gt;Node240 -->
<g id="edge7" class="edge">
<title>Node236&#45;&gt;Node240</title>
<path fill="none" stroke="#191970" d="M422.4467,-71.646C431.5045,-70.2717 440.7214,-68.8733 449.5233,-67.5378"/>
<polygon fill="#191970" stroke="#191970" points="421.6801,-68.2222 412.3183,-73.1827 422.7302,-75.143 421.6801,-68.2222"/>
</g>
<!-- Node242 -->
<g id="node9" class="node">
<title>Node242</title>
<g id="a_node9"><a xlink:href="../../d4/d15/classopenage_1_1_terrain.xhtml#a9fc8a00464422b06cd5ea0dbda4c7d2f" target="_top" xlink:title="get or create a terrain chunk for a given tile position. ">
<polygon fill="#ffffff" stroke="#000000" points="448,-.5 448,-30.5 557,-30.5 557,-.5 448,-.5"/>
<text text-anchor="start" x="456" y="-18.5" font-family="Helvetica,sans-Serif" font-size="10.00" fill="#000000">openage::Terrain::get</text>
<text text-anchor="middle" x="502.5" y="-7.5" font-family="Helvetica,sans-Serif" font-size="10.00" fill="#000000">_create_chunk</text>
</a>
</g>
</g>
<!-- Node236&#45;&gt;Node242 -->
<g id="edge9" class="edge">
<title>Node236&#45;&gt;Node242</title>
<path fill="none" stroke="#191970" d="M399.9482,-62.1788C422.0952,-52.098 448.7882,-39.9481 469.3889,-30.5713"/>
<polygon fill="#191970" stroke="#191970" points="398.4175,-59.0299 390.7659,-66.3583 401.3174,-65.401 398.4175,-59.0299"/>
</g>
<!-- Node238 -->
<g id="node5" class="node">
<title>Node238</title>
<g id="a_node5"><a xlink:href="../../db/d42/classopenage_1_1_editor_mode.xhtml#a29b4d3a8c32153ccdc566f60fcdacf7f" target="_top" xlink:title="Called after GameControl has been set by QML from set_game_control. ">
<polygon fill="#ffffff" stroke="#000000" points="603.5,-115.5 603.5,-145.5 719.5,-145.5 719.5,-115.5 603.5,-115.5"/>
<text text-anchor="start" x="611.5" y="-133.5" font-family="Helvetica,sans-Serif" font-size="10.00" fill="#000000">openage::EditorMode</text>
<text text-anchor="middle" x="661.5" y="-122.5" font-family="Helvetica,sans-Serif" font-size="10.00" fill="#000000">::on_game_control_set</text>
</a>
</g>
</g>
<!-- Node237&#45;&gt;Node238 -->
<g id="edge4" class="edge">
<title>Node237&#45;&gt;Node238</title>
<path fill="none" stroke="#191970" d="M567.165,-143.5526C579.1667,-141.892 591.636,-140.1667 603.4259,-138.5354"/>
<polygon fill="#191970" stroke="#191970" points="566.6447,-140.0912 557.2188,-144.9288 567.6041,-147.0251 566.6447,-140.0912"/>
</g>
<!-- Node239&#45;&gt;Node238 -->
<g id="edge6" class="edge">
<title>Node239&#45;&gt;Node238</title>
<path fill="none" stroke="#191970" d="M567.165,-114.4809C579.1667,-116.5189 591.636,-118.6363 603.4259,-120.6384"/>
<polygon fill="#191970" stroke="#191970" points="567.6636,-111.0155 557.2188,-112.7919 566.4917,-117.9167 567.6636,-111.0155"/>
</g>
<!-- Node241 -->
<g id="node8" class="node">
<title>Node241</title>
<g id="a_node8"><a xlink:href="../../d6/d8c/classopenage_1_1convert_1_1colortable_1_1_color_table.xhtml#a5223d2c9c8019307e1c81e31b9b5124e" target="_top" xlink:title="openage.convert.colortable.\lColorTable.__init__">
<polygon fill="#ffffff" stroke="#000000" points="593,-44.5 593,-74.5 730,-74.5 730,-44.5 593,-44.5"/>
<text text-anchor="start" x="601" y="-62.5" font-family="Helvetica,sans-Serif" font-size="10.00" fill="#000000">openage.convert.colortable.</text>
<text text-anchor="middle" x="661.5" y="-51.5" font-family="Helvetica,sans-Serif" font-size="10.00" fill="#000000">ColorTable.__init__</text>
</a>
</g>
</g>
<!-- Node240&#45;&gt;Node241 -->
<g id="edge8" class="edge">
<title>Node240&#45;&gt;Node241</title>
<path fill="none" stroke="#191970" d="M565.1322,-59.5C574.2443,-59.5 583.6662,-59.5 592.889,-59.5"/>
<polygon fill="#191970" stroke="#191970" points="565.0032,-56.0001 555.0032,-59.5 565.0032,-63.0001 565.0032,-56.0001"/>
</g>
</g>
</svg>
