<?xml version="1.0" encoding="UTF-8" standalone="no"?>
<!DOCTYPE svg PUBLIC "-//W3C//DTD SVG 1.1//EN"
 "http://www.w3.org/Graphics/SVG/1.1/DTD/svg11.dtd">
<!-- Generated by graphviz version 2.40.1 (20161225.0304)
 -->
<!-- Title: /mnt/c/Users/Jameson/Desktop/git/openage&#45;new&#45;doc&#45;system/libopenage/gamestate/cost.h Pages: 1 -->
<!--zoomable 517 -->
<svg id="main" version="1.1" xmlns="http://www.w3.org/2000/svg" xmlns:xlink="http://www.w3.org/1999/xlink" xml:space="preserve" onload="init(evt)">
<style type="text/css"><![CDATA[
.edge:hover path { stroke: red; }
.edge:hover polygon { stroke: red; fill: red; }
]]></style>
<script type="text/javascript"><![CDATA[
var edges = document.getElementsByTagName('g');
if (edges && edges.length) {
  for (var i=0;i<edges.length;i++) {
    if (edges[i].id.substr(0,4)=='edge') {
      edges[i].setAttribute('class','edge');
    }
  }
}
]]></script>
        <defs>
                <circle id="rim" cx="0" cy="0" r="7"/>
                <circle id="rim2" cx="0" cy="0" r="3.5"/>
                <g id="zoomPlus">
                        <use xlink:href="#rim" fill="#404040">
                                <set attributeName="fill" to="#808080" begin="zoomplus.mouseover" end="zoomplus.mouseout"/>
                        </use>
                        <path d="M-4,0h8M0,-4v8" fill="none" stroke="white" stroke-width="1.5" pointer-events="none"/>
                </g>
                <g id="zoomMin">
                        <use xlink:href="#rim" fill="#404040">
                                <set attributeName="fill" to="#808080" begin="zoomminus.mouseover" end="zoomminus.mouseout"/>
                        </use>
                        <path d="M-4,0h8" fill="none" stroke="white" stroke-width="1.5" pointer-events="none"/>
                </g>
                <g id="dirArrow">
                        <path fill="none" stroke="white" stroke-width="1.5" d="M0,-3.0v7 M-2.5,-0.5L0,-3.0L2.5,-0.5"/>
                </g>
               <g id="resetDef">
                       <use xlink:href="#rim2" fill="#404040">
                               <set attributeName="fill" to="#808080" begin="reset.mouseover" end="reset.mouseout"/>
                       </use>
               </g>
        </defs>

<script type="text/javascript">
var viewWidth = 1975;
var viewHeight = 517;
var sectionId = 'dynsection-1';
</script>
<script xlink:href="../../svgpan.js"/>
<svg id="graph" class="graph">
<g id="viewport">
<title>/mnt/c/Users/Jameson/Desktop/git/openage&#45;new&#45;doc&#45;system/libopenage/gamestate/cost.h</title>
<polygon fill="#ffffff" stroke="transparent" points="-4,4 -4,-513 1971,-513 1971,4 -4,4"/>
<!-- Node4 -->
<g id="node1" class="node">
<title>Node4</title>
<polygon fill="#bfbfbf" stroke="#000000" points="1428,-456.5 1428,-508.5 1569,-508.5 1569,-456.5 1428,-456.5"/>
<text text-anchor="start" x="1436" y="-496.5" font-family="Helvetica,sans-Serif" font-size="10.00" fill="#000000">/mnt/c/Users/Jameson</text>
<text text-anchor="start" x="1436" y="-485.5" font-family="Helvetica,sans-Serif" font-size="10.00" fill="#000000">/Desktop/git/openage</text>
<text text-anchor="start" x="1436" y="-474.5" font-family="Helvetica,sans-Serif" font-size="10.00" fill="#000000">&#45;new&#45;doc&#45;system/libopenage</text>
<text text-anchor="middle" x="1498.5" y="-463.5" font-family="Helvetica,sans-Serif" font-size="10.00" fill="#000000">/gamestate/cost.h</text>
</g>
<!-- Node5 -->
<g id="node2" class="node">
<title>Node5</title>
<g id="a_node2"><a xlink:href="../../d7/dfc/unit__type_8h.xhtml" target="_top" xlink:title="/mnt/c/Users/Jameson\l/Desktop/git/openage\l&#45;new&#45;doc&#45;system/libopenage\l/unit/unit_type.h">
<polygon fill="#ffffff" stroke="#000000" points="1269,-367.5 1269,-419.5 1410,-419.5 1410,-367.5 1269,-367.5"/>
<text text-anchor="start" x="1277" y="-407.5" font-family="Helvetica,sans-Serif" font-size="10.00" fill="#000000">/mnt/c/Users/Jameson</text>
<text text-anchor="start" x="1277" y="-396.5" font-family="Helvetica,sans-Serif" font-size="10.00" fill="#000000">/Desktop/git/openage</text>
<text text-anchor="start" x="1277" y="-385.5" font-family="Helvetica,sans-Serif" font-size="10.00" fill="#000000">&#45;new&#45;doc&#45;system/libopenage</text>
<text text-anchor="middle" x="1339.5" y="-374.5" font-family="Helvetica,sans-Serif" font-size="10.00" fill="#000000">/unit/unit_type.h</text>
</a>
</g>
</g>
<!-- Node4&#45;&gt;Node5 -->
<g id="edge1" class="edge">
<title>Node4&#45;&gt;Node5</title>
<path fill="none" stroke="#191970" d="M1442.7288,-451.2821C1424.1955,-440.9082 1403.7682,-429.4741 1386.0104,-419.5341"/>
<polygon fill="#191970" stroke="#191970" points="1441.2192,-454.4481 1451.6547,-456.2784 1444.6383,-448.3399 1441.2192,-454.4481"/>
</g>
<!-- Node29 -->
<g id="node26" class="node">
<title>Node29</title>
<g id="a_node26"><a xlink:href="../../dc/dfc/cost_8cpp.xhtml" target="_top" xlink:title="/mnt/c/Users/Jameson\l/Desktop/git/openage\l&#45;new&#45;doc&#45;system/libopenage\l/gamestate/cost.cpp">
<polygon fill="#ffffff" stroke="#000000" points="1428,-367.5 1428,-419.5 1569,-419.5 1569,-367.5 1428,-367.5"/>
<text text-anchor="start" x="1436" y="-407.5" font-family="Helvetica,sans-Serif" font-size="10.00" fill="#000000">/mnt/c/Users/Jameson</text>
<text text-anchor="start" x="1436" y="-396.5" font-family="Helvetica,sans-Serif" font-size="10.00" fill="#000000">/Desktop/git/openage</text>
<text text-anchor="start" x="1436" y="-385.5" font-family="Helvetica,sans-Serif" font-size="10.00" fill="#000000">&#45;new&#45;doc&#45;system/libopenage</text>
<text text-anchor="middle" x="1498.5" y="-374.5" font-family="Helvetica,sans-Serif" font-size="10.00" fill="#000000">/gamestate/cost.cpp</text>
</a>
</g>
</g>
<!-- Node4&#45;&gt;Node29 -->
<g id="edge28" class="edge">
<title>Node4&#45;&gt;Node29</title>
<path fill="none" stroke="#191970" d="M1498.5,-446.1155C1498.5,-437.2061 1498.5,-427.8475 1498.5,-419.5341"/>
<polygon fill="#191970" stroke="#191970" points="1495.0001,-446.2784 1498.5,-456.2784 1502.0001,-446.2785 1495.0001,-446.2784"/>
</g>
<!-- Node30 -->
<g id="node27" class="node">
<title>Node30</title>
<g id="a_node27"><a xlink:href="../../de/dde/ability_8cpp.xhtml" target="_top" xlink:title="/mnt/c/Users/Jameson\l/Desktop/git/openage\l&#45;new&#45;doc&#45;system/libopenage\l/unit/ability.cpp">
<polygon fill="#ffffff" stroke="#000000" points="1587,-367.5 1587,-419.5 1728,-419.5 1728,-367.5 1587,-367.5"/>
<text text-anchor="start" x="1595" y="-407.5" font-family="Helvetica,sans-Serif" font-size="10.00" fill="#000000">/mnt/c/Users/Jameson</text>
<text text-anchor="start" x="1595" y="-396.5" font-family="Helvetica,sans-Serif" font-size="10.00" fill="#000000">/Desktop/git/openage</text>
<text text-anchor="start" x="1595" y="-385.5" font-family="Helvetica,sans-Serif" font-size="10.00" fill="#000000">&#45;new&#45;doc&#45;system/libopenage</text>
<text text-anchor="middle" x="1657.5" y="-374.5" font-family="Helvetica,sans-Serif" font-size="10.00" fill="#000000">/unit/ability.cpp</text>
</a>
</g>
</g>
<!-- Node4&#45;&gt;Node30 -->
<g id="edge29" class="edge">
<title>Node4&#45;&gt;Node30</title>
<path fill="none" stroke="#191970" d="M1554.2712,-451.2821C1572.8045,-440.9082 1593.2318,-429.4741 1610.9896,-419.5341"/>
<polygon fill="#191970" stroke="#191970" points="1552.3617,-448.3399 1545.3453,-456.2784 1555.7808,-454.4481 1552.3617,-448.3399"/>
</g>
<!-- Node6 -->
<g id="node3" class="node">
<title>Node6</title>
<g id="a_node3"><a xlink:href="../../d5/d9d/game__control_8h.xhtml" target="_top" xlink:title="/mnt/c/Users/Jameson\l/Desktop/git/openage\l&#45;new&#45;doc&#45;system/libopenage\l/game_control.h">
<polygon fill="#ffffff" stroke="#000000" points="376,-278.5 376,-330.5 517,-330.5 517,-278.5 376,-278.5"/>
<text text-anchor="start" x="384" y="-318.5" font-family="Helvetica,sans-Serif" font-size="10.00" fill="#000000">/mnt/c/Users/Jameson</text>
<text text-anchor="start" x="384" y="-307.5" font-family="Helvetica,sans-Serif" font-size="10.00" fill="#000000">/Desktop/git/openage</text>
<text text-anchor="start" x="384" y="-296.5" font-family="Helvetica,sans-Serif" font-size="10.00" fill="#000000">&#45;new&#45;doc&#45;system/libopenage</text>
<text text-anchor="middle" x="446.5" y="-285.5" font-family="Helvetica,sans-Serif" font-size="10.00" fill="#000000">/game_control.h</text>
</a>
</g>
</g>
<!-- Node5&#45;&gt;Node6 -->
<g id="edge2" class="edge">
<title>Node5&#45;&gt;Node6</title>
<path fill="none" stroke="#191970" d="M1258.603,-385.4375C1085.2877,-368.1642 680.632,-327.8345 517.0168,-311.528"/>
<polygon fill="#191970" stroke="#191970" points="1258.3835,-388.9329 1268.6814,-386.4419 1259.0778,-381.9674 1258.3835,-388.9329"/>
</g>
<!-- Node15 -->
<g id="node12" class="node">
<title>Node15</title>
<g id="a_node12"><a xlink:href="../../d9/d2c/producer_8h.xhtml" target="_top" xlink:title="/mnt/c/Users/Jameson\l/Desktop/git/openage\l&#45;new&#45;doc&#45;system/libopenage\l/unit/producer.h">
<polygon fill="#ffffff" stroke="#000000" points="1031,-278.5 1031,-330.5 1172,-330.5 1172,-278.5 1031,-278.5"/>
<text text-anchor="start" x="1039" y="-318.5" font-family="Helvetica,sans-Serif" font-size="10.00" fill="#000000">/mnt/c/Users/Jameson</text>
<text text-anchor="start" x="1039" y="-307.5" font-family="Helvetica,sans-Serif" font-size="10.00" fill="#000000">/Desktop/git/openage</text>
<text text-anchor="start" x="1039" y="-296.5" font-family="Helvetica,sans-Serif" font-size="10.00" fill="#000000">&#45;new&#45;doc&#45;system/libopenage</text>
<text text-anchor="middle" x="1101.5" y="-285.5" font-family="Helvetica,sans-Serif" font-size="10.00" fill="#000000">/unit/producer.h</text>
</a>
</g>
</g>
<!-- Node5&#45;&gt;Node15 -->
<g id="edge13" class="edge">
<title>Node5&#45;&gt;Node15</title>
<path fill="none" stroke="#191970" d="M1260.0994,-363.8082C1231.3627,-353.0621 1199.1487,-341.0157 1171.2985,-330.6011"/>
<polygon fill="#191970" stroke="#191970" points="1259.1078,-367.174 1269.7003,-367.3984 1261.5597,-360.6175 1259.1078,-367.174"/>
</g>
<!-- Node17 -->
<g id="node14" class="node">
<title>Node17</title>
<g id="a_node14"><a xlink:href="../../da/d49/game__save_8cpp.xhtml" target="_top" xlink:title="/mnt/c/Users/Jameson\l/Desktop/git/openage\l&#45;new&#45;doc&#45;system/libopenage\l/gamestate/game_save.cpp">
<polygon fill="#ffffff" stroke="#000000" points="634,-189.5 634,-241.5 775,-241.5 775,-189.5 634,-189.5"/>
<text text-anchor="start" x="642" y="-229.5" font-family="Helvetica,sans-Serif" font-size="10.00" fill="#000000">/mnt/c/Users/Jameson</text>
<text text-anchor="start" x="642" y="-218.5" font-family="Helvetica,sans-Serif" font-size="10.00" fill="#000000">/Desktop/git/openage</text>
<text text-anchor="start" x="642" y="-207.5" font-family="Helvetica,sans-Serif" font-size="10.00" fill="#000000">&#45;new&#45;doc&#45;system/libopenage</text>
<text text-anchor="middle" x="704.5" y="-196.5" font-family="Helvetica,sans-Serif" font-size="10.00" fill="#000000">/gamestate/game_save.cpp</text>
</a>
</g>
</g>
<!-- Node5&#45;&gt;Node17 -->
<g id="edge24" class="edge">
<title>Node5&#45;&gt;Node17</title>
<path fill="none" stroke="#191970" d="M1258.7793,-381.109C1194.2333,-370.3593 1101.7505,-353.0637 1022.5,-331 932.1053,-305.8338 830.6966,-267.0999 767.22,-241.5312"/>
<polygon fill="#191970" stroke="#191970" points="1258.456,-384.6029 1268.8924,-382.7778 1259.5957,-377.6963 1258.456,-384.6029"/>
</g>
<!-- Node24 -->
<g id="node21" class="node">
<title>Node24</title>
<g id="a_node21"><a xlink:href="../../db/d4c/civilisation_8cpp.xhtml" target="_top" xlink:title="/mnt/c/Users/Jameson\l/Desktop/git/openage\l&#45;new&#45;doc&#45;system/libopenage\l/gamestate/civilisation.cpp">
<polygon fill="#ffffff" stroke="#000000" points="1190,-278.5 1190,-330.5 1331,-330.5 1331,-278.5 1190,-278.5"/>
<text text-anchor="start" x="1198" y="-318.5" font-family="Helvetica,sans-Serif" font-size="10.00" fill="#000000">/mnt/c/Users/Jameson</text>
<text text-anchor="start" x="1198" y="-307.5" font-family="Helvetica,sans-Serif" font-size="10.00" fill="#000000">/Desktop/git/openage</text>
<text text-anchor="start" x="1198" y="-296.5" font-family="Helvetica,sans-Serif" font-size="10.00" fill="#000000">&#45;new&#45;doc&#45;system/libopenage</text>
<text text-anchor="middle" x="1260.5" y="-285.5" font-family="Helvetica,sans-Serif" font-size="10.00" fill="#000000">/gamestate/civilisation.cpp</text>
</a>
</g>
</g>
<!-- Node5&#45;&gt;Node24 -->
<g id="edge22" class="edge">
<title>Node5&#45;&gt;Node24</title>
<path fill="none" stroke="#191970" d="M1309.5119,-359.7159C1300.9295,-350.0472 1291.7101,-339.6608 1283.609,-330.5341"/>
<polygon fill="#191970" stroke="#191970" points="1306.9687,-362.1231 1316.2247,-367.2784 1312.2038,-357.4762 1306.9687,-362.1231"/>
</g>
<!-- Node25 -->
<g id="node22" class="node">
<title>Node25</title>
<g id="a_node22"><a xlink:href="../../d9/d96/game__main_8cpp.xhtml" target="_top" xlink:title="/mnt/c/Users/Jameson\l/Desktop/git/openage\l&#45;new&#45;doc&#45;system/libopenage\l/gamestate/game_main.cpp">
<polygon fill="#ffffff" stroke="#000000" points="1349,-278.5 1349,-330.5 1490,-330.5 1490,-278.5 1349,-278.5"/>
<text text-anchor="start" x="1357" y="-318.5" font-family="Helvetica,sans-Serif" font-size="10.00" fill="#000000">/mnt/c/Users/Jameson</text>
<text text-anchor="start" x="1357" y="-307.5" font-family="Helvetica,sans-Serif" font-size="10.00" fill="#000000">/Desktop/git/openage</text>
<text text-anchor="start" x="1357" y="-296.5" font-family="Helvetica,sans-Serif" font-size="10.00" fill="#000000">&#45;new&#45;doc&#45;system/libopenage</text>
<text text-anchor="middle" x="1419.5" y="-285.5" font-family="Helvetica,sans-Serif" font-size="10.00" fill="#000000">/gamestate/game_main.cpp</text>
</a>
</g>
</g>
<!-- Node5&#45;&gt;Node25 -->
<g id="edge23" class="edge">
<title>Node5&#45;&gt;Node25</title>
<path fill="none" stroke="#191970" d="M1369.8677,-359.7159C1378.5587,-350.0472 1387.8948,-339.6608 1396.0985,-330.5341"/>
<polygon fill="#191970" stroke="#191970" points="1367.152,-357.5015 1363.0699,-367.2784 1372.358,-362.1811 1367.152,-357.5015"/>
</g>
<!-- Node26 -->
<g id="node23" class="node">
<title>Node26</title>
<g id="a_node23"><a xlink:href="../../db/d80/player_8cpp.xhtml" target="_top" xlink:title="/mnt/c/Users/Jameson\l/Desktop/git/openage\l&#45;new&#45;doc&#45;system/libopenage\l/gamestate/player.cpp">
<polygon fill="#ffffff" stroke="#000000" points="1508,-278.5 1508,-330.5 1649,-330.5 1649,-278.5 1508,-278.5"/>
<text text-anchor="start" x="1516" y="-318.5" font-family="Helvetica,sans-Serif" font-size="10.00" fill="#000000">/mnt/c/Users/Jameson</text>
<text text-anchor="start" x="1516" y="-307.5" font-family="Helvetica,sans-Serif" font-size="10.00" fill="#000000">/Desktop/git/openage</text>
<text text-anchor="start" x="1516" y="-296.5" font-family="Helvetica,sans-Serif" font-size="10.00" fill="#000000">&#45;new&#45;doc&#45;system/libopenage</text>
<text text-anchor="middle" x="1578.5" y="-285.5" font-family="Helvetica,sans-Serif" font-size="10.00" fill="#000000">/gamestate/player.cpp</text>
</a>
</g>
</g>
<!-- Node5&#45;&gt;Node26 -->
<g id="edge25" class="edge">
<title>Node5&#45;&gt;Node26</title>
<path fill="none" stroke="#191970" d="M1419.2342,-363.8082C1448.0916,-353.0621 1480.441,-341.0157 1508.4083,-330.6011"/>
<polygon fill="#191970" stroke="#191970" points="1417.7429,-360.6287 1409.593,-367.3984 1420.1858,-367.1886 1417.7429,-360.6287"/>
</g>
<!-- Node27 -->
<g id="node24" class="node">
<title>Node27</title>
<g id="a_node24"><a xlink:href="../../de/d66/attribute_8cpp.xhtml" target="_top" xlink:title="/mnt/c/Users/Jameson\l/Desktop/git/openage\l&#45;new&#45;doc&#45;system/libopenage\l/unit/attribute.cpp">
<polygon fill="#ffffff" stroke="#000000" points="1667,-278.5 1667,-330.5 1808,-330.5 1808,-278.5 1667,-278.5"/>
<text text-anchor="start" x="1675" y="-318.5" font-family="Helvetica,sans-Serif" font-size="10.00" fill="#000000">/mnt/c/Users/Jameson</text>
<text text-anchor="start" x="1675" y="-307.5" font-family="Helvetica,sans-Serif" font-size="10.00" fill="#000000">/Desktop/git/openage</text>
<text text-anchor="start" x="1675" y="-296.5" font-family="Helvetica,sans-Serif" font-size="10.00" fill="#000000">&#45;new&#45;doc&#45;system/libopenage</text>
<text text-anchor="middle" x="1737.5" y="-285.5" font-family="Helvetica,sans-Serif" font-size="10.00" fill="#000000">/unit/attribute.cpp</text>
</a>
</g>
</g>
<!-- Node5&#45;&gt;Node27 -->
<g id="edge26" class="edge">
<title>Node5&#45;&gt;Node27</title>
<path fill="none" stroke="#191970" d="M1420.1886,-367.018C1525.803,-342.8161 1557.131,-355.4391 1658.5,-331 1661.172,-330.3558 1663.8826,-329.6612 1666.6113,-328.9274"/>
<polygon fill="#191970" stroke="#191970" points="1419.3541,-363.6186 1410.4189,-369.3119 1420.9542,-370.4333 1419.3541,-363.6186"/>
</g>
<!-- Node28 -->
<g id="node25" class="node">
<title>Node28</title>
<g id="a_node25"><a xlink:href="../../dc/d8d/unit__type_8cpp.xhtml" target="_top" xlink:title="/mnt/c/Users/Jameson\l/Desktop/git/openage\l&#45;new&#45;doc&#45;system/libopenage\l/unit/unit_type.cpp">
<polygon fill="#ffffff" stroke="#000000" points="1826,-278.5 1826,-330.5 1967,-330.5 1967,-278.5 1826,-278.5"/>
<text text-anchor="start" x="1834" y="-318.5" font-family="Helvetica,sans-Serif" font-size="10.00" fill="#000000">/mnt/c/Users/Jameson</text>
<text text-anchor="start" x="1834" y="-307.5" font-family="Helvetica,sans-Serif" font-size="10.00" fill="#000000">/Desktop/git/openage</text>
<text text-anchor="start" x="1834" y="-296.5" font-family="Helvetica,sans-Serif" font-size="10.00" fill="#000000">&#45;new&#45;doc&#45;system/libopenage</text>
<text text-anchor="middle" x="1896.5" y="-285.5" font-family="Helvetica,sans-Serif" font-size="10.00" fill="#000000">/unit/unit_type.cpp</text>
</a>
</g>
</g>
<!-- Node5&#45;&gt;Node28 -->
<g id="edge27" class="edge">
<title>Node5&#45;&gt;Node28</title>
<path fill="none" stroke="#191970" d="M1420.421,-367.0345C1595.2992,-332.1722 1646.9032,-366.8138 1817.5,-331 1820.19,-330.4353 1822.9158,-329.8084 1825.6574,-329.1318"/>
<polygon fill="#191970" stroke="#191970" points="1419.4662,-363.6571 1410.3687,-369.0872 1420.8668,-370.5156 1419.4662,-363.6571"/>
</g>
<!-- Node7 -->
<g id="node4" class="node">
<title>Node7</title>
<g id="a_node4"><a xlink:href="../../d0/d03/game__control_8cpp.xhtml" target="_top" xlink:title="/mnt/c/Users/Jameson\l/Desktop/git/openage\l&#45;new&#45;doc&#45;system/libopenage\l/game_control.cpp">
<polygon fill="#ffffff" stroke="#000000" points="118,-189.5 118,-241.5 259,-241.5 259,-189.5 118,-189.5"/>
<text text-anchor="start" x="126" y="-229.5" font-family="Helvetica,sans-Serif" font-size="10.00" fill="#000000">/mnt/c/Users/Jameson</text>
<text text-anchor="start" x="126" y="-218.5" font-family="Helvetica,sans-Serif" font-size="10.00" fill="#000000">/Desktop/git/openage</text>
<text text-anchor="start" x="126" y="-207.5" font-family="Helvetica,sans-Serif" font-size="10.00" fill="#000000">&#45;new&#45;doc&#45;system/libopenage</text>
<text text-anchor="middle" x="188.5" y="-196.5" font-family="Helvetica,sans-Serif" font-size="10.00" fill="#000000">/game_control.cpp</text>
</a>
</g>
</g>
<!-- Node6&#45;&gt;Node7 -->
<g id="edge3" class="edge">
<title>Node6&#45;&gt;Node7</title>
<path fill="none" stroke="#191970" d="M366.1516,-276.7829C331.9043,-264.9689 292.2968,-251.3059 259.1829,-239.8828"/>
<polygon fill="#191970" stroke="#191970" points="365.0644,-280.1102 375.6591,-280.0626 367.3472,-273.4929 365.0644,-280.1102"/>
</g>
<!-- Node8 -->
<g id="node5" class="node">
<title>Node8</title>
<g id="a_node5"><a xlink:href="../../da/dfb/game__control__link_8h.xhtml" target="_top" xlink:title="/mnt/c/Users/Jameson\l/Desktop/git/openage\l&#45;new&#45;doc&#45;system/libopenage\l/gui/game_control_link.h">
<polygon fill="#ffffff" stroke="#000000" points="277,-189.5 277,-241.5 418,-241.5 418,-189.5 277,-189.5"/>
<text text-anchor="start" x="285" y="-229.5" font-family="Helvetica,sans-Serif" font-size="10.00" fill="#000000">/mnt/c/Users/Jameson</text>
<text text-anchor="start" x="285" y="-218.5" font-family="Helvetica,sans-Serif" font-size="10.00" fill="#000000">/Desktop/git/openage</text>
<text text-anchor="start" x="285" y="-207.5" font-family="Helvetica,sans-Serif" font-size="10.00" fill="#000000">&#45;new&#45;doc&#45;system/libopenage</text>
<text text-anchor="middle" x="347.5" y="-196.5" font-family="Helvetica,sans-Serif" font-size="10.00" fill="#000000">/gui/game_control_link.h</text>
</a>
</g>
</g>
<!-- Node6&#45;&gt;Node8 -->
<g id="edge4" class="edge">
<title>Node6&#45;&gt;Node8</title>
<path fill="none" stroke="#191970" d="M409.8762,-271.5755C398.8524,-261.6653 386.913,-250.9319 376.4593,-241.5341"/>
<polygon fill="#191970" stroke="#191970" points="407.5556,-274.1958 417.3322,-278.2784 412.2354,-268.9901 407.5556,-274.1958"/>
</g>
<!-- Node13 -->
<g id="node10" class="node">
<title>Node13</title>
<g id="a_node10"><a xlink:href="../../de/d32/resources__list__model_8cpp.xhtml" target="_top" xlink:title="/mnt/c/Users/Jameson\l/Desktop/git/openage\l&#45;new&#45;doc&#45;system/libopenage\l/gui/resources_list_model.cpp">
<polygon fill="#ffffff" stroke="#000000" points="516.5,-95 516.5,-147 662.5,-147 662.5,-95 516.5,-95"/>
<text text-anchor="start" x="524.5" y="-135" font-family="Helvetica,sans-Serif" font-size="10.00" fill="#000000">/mnt/c/Users/Jameson</text>
<text text-anchor="start" x="524.5" y="-124" font-family="Helvetica,sans-Serif" font-size="10.00" fill="#000000">/Desktop/git/openage</text>
<text text-anchor="start" x="524.5" y="-113" font-family="Helvetica,sans-Serif" font-size="10.00" fill="#000000">&#45;new&#45;doc&#45;system/libopenage</text>
<text text-anchor="middle" x="589.5" y="-102" font-family="Helvetica,sans-Serif" font-size="10.00" fill="#000000">/gui/resources_list_model.cpp</text>
</a>
</g>
</g>
<!-- Node6&#45;&gt;Node13 -->
<g id="edge11" class="edge">
<title>Node6&#45;&gt;Node13</title>
<path fill="none" stroke="#191970" d="M444.5636,-267.8968C445.0619,-243.4932 449.3374,-211.8264 465.5,-189 474.2257,-176.6767 503.1919,-160.4975 530.9345,-147.0125"/>
<polygon fill="#191970" stroke="#191970" points="441.0635,-268.2016 444.5642,-278.2014 448.0635,-268.2011 441.0635,-268.2016"/>
</g>
<!-- Node14 -->
<g id="node11" class="node">
<title>Node14</title>
<g id="a_node11"><a xlink:href="../../df/d0a/main_8cpp.xhtml" target="_top" xlink:title="/mnt/c/Users/Jameson\l/Desktop/git/openage\l&#45;new&#45;doc&#45;system/libopenage\l/main.cpp">
<polygon fill="#ffffff" stroke="#000000" points="475,-189.5 475,-241.5 616,-241.5 616,-189.5 475,-189.5"/>
<text text-anchor="start" x="483" y="-229.5" font-family="Helvetica,sans-Serif" font-size="10.00" fill="#000000">/mnt/c/Users/Jameson</text>
<text text-anchor="start" x="483" y="-218.5" font-family="Helvetica,sans-Serif" font-size="10.00" fill="#000000">/Desktop/git/openage</text>
<text text-anchor="start" x="483" y="-207.5" font-family="Helvetica,sans-Serif" font-size="10.00" fill="#000000">&#45;new&#45;doc&#45;system/libopenage</text>
<text text-anchor="middle" x="545.5" y="-196.5" font-family="Helvetica,sans-Serif" font-size="10.00" fill="#000000">/main.cpp</text>
</a>
</g>
</g>
<!-- Node6&#45;&gt;Node14 -->
<g id="edge12" class="edge">
<title>Node6&#45;&gt;Node14</title>
<path fill="none" stroke="#191970" d="M483.1238,-271.5755C494.1476,-261.6653 506.087,-250.9319 516.5407,-241.5341"/>
<polygon fill="#191970" stroke="#191970" points="480.7646,-268.9901 475.6678,-278.2784 485.4444,-274.1958 480.7646,-268.9901"/>
</g>
<!-- Node9 -->
<g id="node6" class="node">
<title>Node9</title>
<g id="a_node6"><a xlink:href="../../d7/d15/actions__list__model_8h.xhtml" target="_top" xlink:title="/mnt/c/Users/Jameson\l/Desktop/git/openage\l&#45;new&#45;doc&#45;system/libopenage\l/gui/actions_list_model.h">
<polygon fill="#ffffff" stroke="#000000" points="0,-95 0,-147 141,-147 141,-95 0,-95"/>
<text text-anchor="start" x="8" y="-135" font-family="Helvetica,sans-Serif" font-size="10.00" fill="#000000">/mnt/c/Users/Jameson</text>
<text text-anchor="start" x="8" y="-124" font-family="Helvetica,sans-Serif" font-size="10.00" fill="#000000">/Desktop/git/openage</text>
<text text-anchor="start" x="8" y="-113" font-family="Helvetica,sans-Serif" font-size="10.00" fill="#000000">&#45;new&#45;doc&#45;system/libopenage</text>
<text text-anchor="middle" x="70.5" y="-102" font-family="Helvetica,sans-Serif" font-size="10.00" fill="#000000">/gui/actions_list_model.h</text>
</a>
</g>
</g>
<!-- Node8&#45;&gt;Node9 -->
<g id="edge5" class="edge">
<title>Node8&#45;&gt;Node9</title>
<path fill="none" stroke="#191970" d="M267.2364,-188.936C216.2128,-172.4419 202.074,-169.241 155.5,-153 150.14,-151.1309 144.6067,-149.1547 139.0546,-147.1384"/>
<polygon fill="#191970" stroke="#191970" points="266.2488,-192.2952 276.8409,-192.0565 268.4118,-185.6377 266.2488,-192.2952"/>
</g>
<!-- Node10 -->
<g id="node7" class="node">
<title>Node10</title>
<g id="a_node7"><a xlink:href="../../df/dfa/actions__list__model_8cpp.xhtml" target="_top" xlink:title="/mnt/c/Users/Jameson\l/Desktop/git/openage\l&#45;new&#45;doc&#45;system/libopenage\l/gui/actions_list_model.cpp">
<polygon fill="#ffffff" stroke="#000000" points="49,-.5 49,-52.5 190,-52.5 190,-.5 49,-.5"/>
<text text-anchor="start" x="57" y="-40.5" font-family="Helvetica,sans-Serif" font-size="10.00" fill="#000000">/mnt/c/Users/Jameson</text>
<text text-anchor="start" x="57" y="-29.5" font-family="Helvetica,sans-Serif" font-size="10.00" fill="#000000">/Desktop/git/openage</text>
<text text-anchor="start" x="57" y="-18.5" font-family="Helvetica,sans-Serif" font-size="10.00" fill="#000000">&#45;new&#45;doc&#45;system/libopenage</text>
<text text-anchor="middle" x="119.5" y="-7.5" font-family="Helvetica,sans-Serif" font-size="10.00" fill="#000000">/gui/actions_list_model.cpp</text>
</a>
</g>
</g>
<!-- Node8&#45;&gt;Node10 -->
<g id="edge7" class="edge">
<title>Node8&#45;&gt;Node10</title>
<path fill="none" stroke="#191970" d="M267.251,-186.6987C231.2188,-173.2643 195.2372,-158.9447 188.5,-153 180.1526,-145.6345 150.0546,-87.3541 132.4886,-52.5231"/>
<polygon fill="#191970" stroke="#191970" points="266.2981,-190.0782 276.8911,-190.2725 268.7313,-183.5147 266.2981,-190.0782"/>
</g>
<!-- Node11 -->
<g id="node8" class="node">
<title>Node11</title>
<g id="a_node8"><a xlink:href="../../df/d6a/category__contents__list__model_8cpp.xhtml" target="_top" xlink:title="/mnt/c/Users/Jameson\l/Desktop/git/openage\l&#45;new&#45;doc&#45;system/libopenage\l/gui/category_contents_list\l_model.cpp">
<polygon fill="#ffffff" stroke="#000000" points="198,-89.5 198,-152.5 339,-152.5 339,-89.5 198,-89.5"/>
<text text-anchor="start" x="206" y="-140.5" font-family="Helvetica,sans-Serif" font-size="10.00" fill="#000000">/mnt/c/Users/Jameson</text>
<text text-anchor="start" x="206" y="-129.5" font-family="Helvetica,sans-Serif" font-size="10.00" fill="#000000">/Desktop/git/openage</text>
<text text-anchor="start" x="206" y="-118.5" font-family="Helvetica,sans-Serif" font-size="10.00" fill="#000000">&#45;new&#45;doc&#45;system/libopenage</text>
<text text-anchor="start" x="206" y="-107.5" font-family="Helvetica,sans-Serif" font-size="10.00" fill="#000000">/gui/category_contents_list</text>
<text text-anchor="middle" x="268.5" y="-96.5" font-family="Helvetica,sans-Serif" font-size="10.00" fill="#000000">_model.cpp</text>
</a>
</g>
</g>
<!-- Node8&#45;&gt;Node11 -->
<g id="edge8" class="edge">
<title>Node8&#45;&gt;Node11</title>
<path fill="none" stroke="#191970" d="M319.2535,-181.7114C311.3542,-172.2622 302.7997,-162.0294 295.005,-152.7054"/>
<polygon fill="#191970" stroke="#191970" points="316.6046,-183.9999 325.7038,-189.4273 321.9752,-179.5102 316.6046,-183.9999"/>
</g>
<!-- Node12 -->
<g id="node9" class="node">
<title>Node12</title>
<g id="a_node9"><a xlink:href="../../d1/de8/game__control__link_8cpp.xhtml" target="_top" xlink:title="/mnt/c/Users/Jameson\l/Desktop/git/openage\l&#45;new&#45;doc&#45;system/libopenage\l/gui/game_control_link.cpp">
<polygon fill="#ffffff" stroke="#000000" points="357,-95 357,-147 498,-147 498,-95 357,-95"/>
<text text-anchor="start" x="365" y="-135" font-family="Helvetica,sans-Serif" font-size="10.00" fill="#000000">/mnt/c/Users/Jameson</text>
<text text-anchor="start" x="365" y="-124" font-family="Helvetica,sans-Serif" font-size="10.00" fill="#000000">/Desktop/git/openage</text>
<text text-anchor="start" x="365" y="-113" font-family="Helvetica,sans-Serif" font-size="10.00" fill="#000000">&#45;new&#45;doc&#45;system/libopenage</text>
<text text-anchor="middle" x="427.5" y="-102" font-family="Helvetica,sans-Serif" font-size="10.00" fill="#000000">/gui/game_control_link.cpp</text>
</a>
</g>
</g>
<!-- Node8&#45;&gt;Node12 -->
<g id="edge9" class="edge">
<title>Node8&#45;&gt;Node12</title>
<path fill="none" stroke="#191970" d="M376.3073,-181.4714C385.8274,-170.2258 396.2674,-157.8935 405.2222,-147.3157"/>
<polygon fill="#191970" stroke="#191970" points="373.3621,-179.5335 369.5721,-189.4273 378.7047,-184.0564 373.3621,-179.5335"/>
</g>
<!-- Node8&#45;&gt;Node13 -->
<g id="edge10" class="edge">
<title>Node8&#45;&gt;Node13</title>
<path fill="none" stroke="#191970" d="M423.9261,-185.6559C455.5729,-173.298 491.9487,-159.0934 522.53,-147.1515"/>
<polygon fill="#191970" stroke="#191970" points="422.31,-182.5295 414.2682,-189.4273 424.8563,-189.05 422.31,-182.5295"/>
</g>
<!-- Node9&#45;&gt;Node10 -->
<g id="edge6" class="edge">
<title>Node9&#45;&gt;Node10</title>
<path fill="none" stroke="#191970" d="M88.6554,-85.9861C94.3472,-75.0089 100.5298,-63.0854 105.8548,-52.8157"/>
<polygon fill="#191970" stroke="#191970" points="85.5153,-84.4386 84.0192,-94.9273 91.7295,-87.6609 85.5153,-84.4386"/>
</g>
<!-- Node16 -->
<g id="node13" class="node">
<title>Node16</title>
<g id="a_node13"><a xlink:href="../../d3/da1/game__renderer_8cpp.xhtml" target="_top" xlink:title="/mnt/c/Users/Jameson\l/Desktop/git/openage\l&#45;new&#45;doc&#45;system/libopenage\l/game_renderer.cpp">
<polygon fill="#ffffff" stroke="#000000" points="793,-189.5 793,-241.5 934,-241.5 934,-189.5 793,-189.5"/>
<text text-anchor="start" x="801" y="-229.5" font-family="Helvetica,sans-Serif" font-size="10.00" fill="#000000">/mnt/c/Users/Jameson</text>
<text text-anchor="start" x="801" y="-218.5" font-family="Helvetica,sans-Serif" font-size="10.00" fill="#000000">/Desktop/git/openage</text>
<text text-anchor="start" x="801" y="-207.5" font-family="Helvetica,sans-Serif" font-size="10.00" fill="#000000">&#45;new&#45;doc&#45;system/libopenage</text>
<text text-anchor="middle" x="863.5" y="-196.5" font-family="Helvetica,sans-Serif" font-size="10.00" fill="#000000">/game_renderer.cpp</text>
</a>
</g>
</g>
<!-- Node15&#45;&gt;Node16 -->
<g id="edge14" class="edge">
<title>Node15&#45;&gt;Node16</title>
<path fill="none" stroke="#191970" d="M1022.0994,-274.8082C993.3627,-264.0621 961.1487,-252.0157 933.2985,-241.6011"/>
<polygon fill="#191970" stroke="#191970" points="1021.1078,-278.174 1031.7003,-278.3984 1023.5597,-271.6175 1021.1078,-278.174"/>
</g>
<!-- Node15&#45;&gt;Node17 -->
<g id="edge15" class="edge">
<title>Node15&#45;&gt;Node17</title>
<path fill="none" stroke="#191970" d="M1020.6696,-291.5935C956.0012,-280.5547 863.2652,-263.1217 783.5,-242 780.843,-241.2964 778.1452,-240.5513 775.4273,-239.7747"/>
<polygon fill="#191970" stroke="#191970" points="1020.357,-295.0903 1030.8012,-293.3098 1021.5263,-288.1887 1020.357,-295.0903"/>
</g>
<!-- Node18 -->
<g id="node15" class="node">
<title>Node18</title>
<g id="a_node15"><a xlink:href="../../dd/d4a/game__spec_8cpp.xhtml" target="_top" xlink:title="/mnt/c/Users/Jameson\l/Desktop/git/openage\l&#45;new&#45;doc&#45;system/libopenage\l/gamestate/game_spec.cpp">
<polygon fill="#ffffff" stroke="#000000" points="952,-189.5 952,-241.5 1093,-241.5 1093,-189.5 952,-189.5"/>
<text text-anchor="start" x="960" y="-229.5" font-family="Helvetica,sans-Serif" font-size="10.00" fill="#000000">/mnt/c/Users/Jameson</text>
<text text-anchor="start" x="960" y="-218.5" font-family="Helvetica,sans-Serif" font-size="10.00" fill="#000000">/Desktop/git/openage</text>
<text text-anchor="start" x="960" y="-207.5" font-family="Helvetica,sans-Serif" font-size="10.00" fill="#000000">&#45;new&#45;doc&#45;system/libopenage</text>
<text text-anchor="middle" x="1022.5" y="-196.5" font-family="Helvetica,sans-Serif" font-size="10.00" fill="#000000">/gamestate/game_spec.cpp</text>
</a>
</g>
</g>
<!-- Node15&#45;&gt;Node18 -->
<g id="edge16" class="edge">
<title>Node15&#45;&gt;Node18</title>
<path fill="none" stroke="#191970" d="M1071.5119,-270.7159C1062.9295,-261.0472 1053.7101,-250.6608 1045.609,-241.5341"/>
<polygon fill="#191970" stroke="#191970" points="1068.9687,-273.1231 1078.2247,-278.2784 1074.2038,-268.4762 1068.9687,-273.1231"/>
</g>
<!-- Node19 -->
<g id="node16" class="node">
<title>Node19</title>
<g id="a_node16"><a xlink:href="../../de/d96/unit_2action_8cpp.xhtml" target="_top" xlink:title="/mnt/c/Users/Jameson\l/Desktop/git/openage\l&#45;new&#45;doc&#45;system/libopenage\l/unit/action.cpp">
<polygon fill="#ffffff" stroke="#000000" points="1111,-189.5 1111,-241.5 1252,-241.5 1252,-189.5 1111,-189.5"/>
<text text-anchor="start" x="1119" y="-229.5" font-family="Helvetica,sans-Serif" font-size="10.00" fill="#000000">/mnt/c/Users/Jameson</text>
<text text-anchor="start" x="1119" y="-218.5" font-family="Helvetica,sans-Serif" font-size="10.00" fill="#000000">/Desktop/git/openage</text>
<text text-anchor="start" x="1119" y="-207.5" font-family="Helvetica,sans-Serif" font-size="10.00" fill="#000000">&#45;new&#45;doc&#45;system/libopenage</text>
<text text-anchor="middle" x="1181.5" y="-196.5" font-family="Helvetica,sans-Serif" font-size="10.00" fill="#000000">/unit/action.cpp</text>
</a>
</g>
</g>
<!-- Node15&#45;&gt;Node19 -->
<g id="edge17" class="edge">
<title>Node15&#45;&gt;Node19</title>
<path fill="none" stroke="#191970" d="M1131.8677,-270.7159C1140.5587,-261.0472 1149.8948,-250.6608 1158.0985,-241.5341"/>
<polygon fill="#191970" stroke="#191970" points="1129.152,-268.5015 1125.0699,-278.2784 1134.358,-273.1811 1129.152,-268.5015"/>
</g>
<!-- Node20 -->
<g id="node17" class="node">
<title>Node20</title>
<g id="a_node17"><a xlink:href="../../db/d66/producer_8cpp.xhtml" target="_top" xlink:title="Many values in this file are hardcoded, due to limited understanding of how the original game files w...">
<polygon fill="#ffffff" stroke="#000000" points="1270,-189.5 1270,-241.5 1411,-241.5 1411,-189.5 1270,-189.5"/>
<text text-anchor="start" x="1278" y="-229.5" font-family="Helvetica,sans-Serif" font-size="10.00" fill="#000000">/mnt/c/Users/Jameson</text>
<text text-anchor="start" x="1278" y="-218.5" font-family="Helvetica,sans-Serif" font-size="10.00" fill="#000000">/Desktop/git/openage</text>
<text text-anchor="start" x="1278" y="-207.5" font-family="Helvetica,sans-Serif" font-size="10.00" fill="#000000">&#45;new&#45;doc&#45;system/libopenage</text>
<text text-anchor="middle" x="1340.5" y="-196.5" font-family="Helvetica,sans-Serif" font-size="10.00" fill="#000000">/unit/producer.cpp</text>
</a>
</g>
</g>
<!-- Node15&#45;&gt;Node20 -->
<g id="edge18" class="edge">
<title>Node15&#45;&gt;Node20</title>
<path fill="none" stroke="#191970" d="M1181.2342,-274.8082C1210.0916,-264.0621 1242.441,-252.0157 1270.4083,-241.6011"/>
<polygon fill="#191970" stroke="#191970" points="1179.7429,-271.6287 1171.593,-278.3984 1182.1858,-278.1886 1179.7429,-271.6287"/>
</g>
<!-- Node21 -->
<g id="node18" class="node">
<title>Node21</title>
<g id="a_node18"><a xlink:href="../../df/dbb/selection_8cpp.xhtml" target="_top" xlink:title="/mnt/c/Users/Jameson\l/Desktop/git/openage\l&#45;new&#45;doc&#45;system/libopenage\l/unit/selection.cpp">
<polygon fill="#ffffff" stroke="#000000" points="1429,-189.5 1429,-241.5 1570,-241.5 1570,-189.5 1429,-189.5"/>
<text text-anchor="start" x="1437" y="-229.5" font-family="Helvetica,sans-Serif" font-size="10.00" fill="#000000">/mnt/c/Users/Jameson</text>
<text text-anchor="start" x="1437" y="-218.5" font-family="Helvetica,sans-Serif" font-size="10.00" fill="#000000">/Desktop/git/openage</text>
<text text-anchor="start" x="1437" y="-207.5" font-family="Helvetica,sans-Serif" font-size="10.00" fill="#000000">&#45;new&#45;doc&#45;system/libopenage</text>
<text text-anchor="middle" x="1499.5" y="-196.5" font-family="Helvetica,sans-Serif" font-size="10.00" fill="#000000">/unit/selection.cpp</text>
</a>
</g>
</g>
<!-- Node15&#45;&gt;Node21 -->
<g id="edge19" class="edge">
<title>Node15&#45;&gt;Node21</title>
<path fill="none" stroke="#191970" d="M1182.1886,-278.018C1287.803,-253.8161 1319.131,-266.4391 1420.5,-242 1423.172,-241.3558 1425.8826,-240.6612 1428.6113,-239.9274"/>
<polygon fill="#191970" stroke="#191970" points="1181.3541,-274.6186 1172.4189,-280.3119 1182.9542,-281.4333 1181.3541,-274.6186"/>
</g>
<!-- Node22 -->
<g id="node19" class="node">
<title>Node22</title>
<g id="a_node19"><a xlink:href="../../d7/d49/unit_8cpp.xhtml" target="_top" xlink:title="/mnt/c/Users/Jameson\l/Desktop/git/openage\l&#45;new&#45;doc&#45;system/libopenage\l/unit/unit.cpp">
<polygon fill="#ffffff" stroke="#000000" points="1588,-189.5 1588,-241.5 1729,-241.5 1729,-189.5 1588,-189.5"/>
<text text-anchor="start" x="1596" y="-229.5" font-family="Helvetica,sans-Serif" font-size="10.00" fill="#000000">/mnt/c/Users/Jameson</text>
<text text-anchor="start" x="1596" y="-218.5" font-family="Helvetica,sans-Serif" font-size="10.00" fill="#000000">/Desktop/git/openage</text>
<text text-anchor="start" x="1596" y="-207.5" font-family="Helvetica,sans-Serif" font-size="10.00" fill="#000000">&#45;new&#45;doc&#45;system/libopenage</text>
<text text-anchor="middle" x="1658.5" y="-196.5" font-family="Helvetica,sans-Serif" font-size="10.00" fill="#000000">/unit/unit.cpp</text>
</a>
</g>
</g>
<!-- Node15&#45;&gt;Node22 -->
<g id="edge20" class="edge">
<title>Node15&#45;&gt;Node22</title>
<path fill="none" stroke="#191970" d="M1182.421,-278.0345C1357.2992,-243.1722 1408.9032,-277.8138 1579.5,-242 1582.19,-241.4353 1584.9158,-240.8084 1587.6574,-240.1318"/>
<polygon fill="#191970" stroke="#191970" points="1181.4662,-274.6571 1172.3687,-280.0872 1182.8668,-281.5156 1181.4662,-274.6571"/>
</g>
<!-- Node23 -->
<g id="node20" class="node">
<title>Node23</title>
<g id="a_node20"><a xlink:href="../../d6/dd5/unit__container_8cpp.xhtml" target="_top" xlink:title="/mnt/c/Users/Jameson\l/Desktop/git/openage\l&#45;new&#45;doc&#45;system/libopenage\l/unit/unit_container.cpp">
<polygon fill="#ffffff" stroke="#000000" points="1747,-189.5 1747,-241.5 1888,-241.5 1888,-189.5 1747,-189.5"/>
<text text-anchor="start" x="1755" y="-229.5" font-family="Helvetica,sans-Serif" font-size="10.00" fill="#000000">/mnt/c/Users/Jameson</text>
<text text-anchor="start" x="1755" y="-218.5" font-family="Helvetica,sans-Serif" font-size="10.00" fill="#000000">/Desktop/git/openage</text>
<text text-anchor="start" x="1755" y="-207.5" font-family="Helvetica,sans-Serif" font-size="10.00" fill="#000000">&#45;new&#45;doc&#45;system/libopenage</text>
<text text-anchor="middle" x="1817.5" y="-196.5" font-family="Helvetica,sans-Serif" font-size="10.00" fill="#000000">/unit/unit_container.cpp</text>
</a>
</g>
</g>
<!-- Node15&#45;&gt;Node23 -->
<g id="edge21" class="edge">
<title>Node15&#45;&gt;Node23</title>
<path fill="none" stroke="#191970" d="M1182.2473,-278.0927C1426.8818,-232.1548 1498.2951,-289.217 1738.5,-242 1741.197,-241.4699 1743.9288,-240.8724 1746.6754,-240.2206"/>
<polygon fill="#191970" stroke="#191970" points="1181.5116,-274.6699 1172.349,-279.9895 1182.8291,-281.5448 1181.5116,-274.6699"/>
</g>
</g>
</svg>
        <g id="navigator" transform="translate(0 0)" fill="#404254">
                <rect fill="#f2f5e9" fill-opacity="0.5" stroke="#606060" stroke-width=".5" x="0" y="0" width="60" height="60"/>
                <use id="zoomplus" xlink:href="#zoomPlus" x="17" y="9" onmousedown="handleZoom(evt,'in')"/>
                <use id="zoomminus" xlink:href="#zoomMin" x="42" y="9" onmousedown="handleZoom(evt,'out')"/>
                <use id="reset" xlink:href="#resetDef" x="30" y="36" onmousedown="handleReset()"/>
                <g id="arrowUp" xlink:href="#dirArrow" transform="translate(30 24)" onmousedown="handlePan(0,-1)">
                  <use xlink:href="#rim" fill="#404040">
                        <set attributeName="fill" to="#808080" begin="arrowUp.mouseover" end="arrowUp.mouseout"/>
                  </use>
                  <path fill="none" stroke="white" stroke-width="1.5" d="M0,-3.0v7 M-2.5,-0.5L0,-3.0L2.5,-0.5"/>
                </g>
                <g id="arrowRight" xlink:href="#dirArrow" transform="rotate(90) translate(36 -43)" onmousedown="handlePan(1,0)">
                  <use xlink:href="#rim" fill="#404040">
                        <set attributeName="fill" to="#808080" begin="arrowRight.mouseover" end="arrowRight.mouseout"/>
                  </use>
                  <path fill="none" stroke="white" stroke-width="1.5" d="M0,-3.0v7 M-2.5,-0.5L0,-3.0L2.5,-0.5"/>
                </g>
                <g id="arrowDown" xlink:href="#dirArrow" transform="rotate(180) translate(-30 -48)" onmousedown="handlePan(0,1)">
                  <use xlink:href="#rim" fill="#404040">
                        <set attributeName="fill" to="#808080" begin="arrowDown.mouseover" end="arrowDown.mouseout"/>
                  </use>
                  <path fill="none" stroke="white" stroke-width="1.5" d="M0,-3.0v7 M-2.5,-0.5L0,-3.0L2.5,-0.5"/>
                </g>
                <g id="arrowLeft" xlink:href="#dirArrow" transform="rotate(270) translate(-36 17)" onmousedown="handlePan(-1,0)">
                  <use xlink:href="#rim" fill="#404040">
                        <set attributeName="fill" to="#808080" begin="arrowLeft.mouseover" end="arrowLeft.mouseout"/>
                  </use>
                  <path fill="none" stroke="white" stroke-width="1.5" d="M0,-3.0v7 M-2.5,-0.5L0,-3.0L2.5,-0.5"/>
                </g>
        </g>
        <svg viewBox="0 0 15 15" width="100%" height="30px" preserveAspectRatio="xMaxYMin meet">
         <g id="arrow_out" transform="scale(0.3 0.3)">
          <a xlink:href="cost_8h__dep__incl_org.svg" target="_base">
           <rect id="button" ry="5" rx="5" y="6" x="6" height="38" width="38"
                fill="#f2f5e9" fill-opacity="0.5" stroke="#606060" stroke-width="1.0"/>
           <path id="arrow"
             d="M 11.500037,31.436501 C 11.940474,20.09759 22.043105,11.32322 32.158766,21.979434 L 37.068811,17.246167 C 37.068811,17.246167 37.088388,32 37.088388,32 L 22.160133,31.978069 C 22.160133,31.978069 26.997745,27.140456 26.997745,27.140456 C 18.528582,18.264221 13.291696,25.230495 11.500037,31.436501 z"
             style="fill:#404040;"/>
          </a>
         </g>
        </svg>
</svg>
