<?xml version="1.0" encoding="UTF-8" standalone="no"?>
<!DOCTYPE svg PUBLIC "-//W3C//DTD SVG 1.1//EN"
 "http://www.w3.org/Graphics/SVG/1.1/DTD/svg11.dtd">
<!-- Generated by graphviz version 2.40.1 (20161225.0304)
 -->
<!-- Title: openage.util.filelike.stream.StreamSeekBuffer.read Pages: 1 -->
<svg width="323pt" height="39pt"
 viewBox="0.00 0.00 323.00 39.00" xmlns="http://www.w3.org/2000/svg" xmlns:xlink="http://www.w3.org/1999/xlink">
<g id="graph0" class="graph" transform="scale(1 1) rotate(0) translate(4 35)">
<title>openage.util.filelike.stream.StreamSeekBuffer.read</title>
<polygon fill="#ffffff" stroke="transparent" points="-4,4 -4,-35 319,-35 319,4 -4,4"/>
<!-- Node12 -->
<g id="node1" class="node">
<title>Node12</title>
<polygon fill="#bfbfbf" stroke="#000000" points="0,-.5 0,-30.5 136,-30.5 136,-.5 0,-.5"/>
<text text-anchor="start" x="8" y="-18.5" font-family="Helvetica,sans-Serif" font-size="10.00" fill="#000000">openage.util.filelike.stream.</text>
<text text-anchor="middle" x="68" y="-7.5" font-family="Helvetica,sans-Serif" font-size="10.00" fill="#000000">StreamSeekBuffer.read</text>
</g>
<!-- Node13 -->
<g id="node2" class="node">
<title>Node13</title>
<g id="a_node2"><a xlink:href="../../df/da3/classopenage_1_1convert_1_1peresource_1_1_string_literal.xhtml#afe54133fe4a7d4cb75352a250a11a024" target="_top" xlink:title="In addition to the static data, reads the string. ">
<polygon fill="#ffffff" stroke="#000000" points="172,-.5 172,-30.5 315,-30.5 315,-.5 172,-.5"/>
<text text-anchor="start" x="180" y="-18.5" font-family="Helvetica,sans-Serif" font-size="10.00" fill="#000000">openage.convert.peresource.</text>
<text text-anchor="middle" x="243.5" y="-7.5" font-family="Helvetica,sans-Serif" font-size="10.00" fill="#000000">StringLiteral.readall</text>
</a>
</g>
</g>
<!-- Node12&#45;&gt;Node13 -->
<g id="edge1" class="edge">
<title>Node12&#45;&gt;Node13</title>
<path fill="none" stroke="#191970" d="M146.1198,-15.5C154.7176,-15.5 163.4403,-15.5 171.9523,-15.5"/>
<polygon fill="#191970" stroke="#191970" points="146.1041,-12.0001 136.1041,-15.5 146.104,-19.0001 146.1041,-12.0001"/>
</g>
</g>
</svg>
