<?xml version="1.0" encoding="UTF-8" standalone="no"?>
<!DOCTYPE svg PUBLIC "-//W3C//DTD SVG 1.1//EN"
 "http://www.w3.org/Graphics/SVG/1.1/DTD/svg11.dtd">
<!-- Generated by graphviz version 2.40.1 (20161225.0304)
 -->
<!-- Title: openage::Texture::load Pages: 1 -->
<svg width="291pt" height="66pt"
 viewBox="0.00 0.00 291.00 66.00" xmlns="http://www.w3.org/2000/svg" xmlns:xlink="http://www.w3.org/1999/xlink">
<g id="graph0" class="graph" transform="scale(1 1) rotate(0) translate(4 62)">
<title>openage::Texture::load</title>
<polygon fill="#ffffff" stroke="transparent" points="-4,4 -4,-62 287,-62 287,4 -4,4"/>
<!-- Node150 -->
<g id="node1" class="node">
<title>Node150</title>
<polygon fill="#bfbfbf" stroke="#000000" points="0,-19.5 0,-38.5 116,-38.5 116,-19.5 0,-19.5"/>
<text text-anchor="middle" x="58" y="-26.5" font-family="Helvetica,sans-Serif" font-size="10.00" fill="#000000">openage::Texture::load</text>
</g>
<!-- Node151 -->
<g id="node2" class="node">
<title>Node151</title>
<g id="a_node2"><a xlink:href="../../d4/d5b/classopenage_1_1_texture.xhtml#ac02524c602d22cecd5a06199e113cc43" target="_top" xlink:title="Reload the image file. ">
<polygon fill="#ffffff" stroke="#000000" points="155,-38.5 155,-57.5 280,-57.5 280,-38.5 155,-38.5"/>
<text text-anchor="middle" x="217.5" y="-45.5" font-family="Helvetica,sans-Serif" font-size="10.00" fill="#000000">openage::Texture::reload</text>
</a>
</g>
</g>
<!-- Node150&#45;&gt;Node151 -->
<g id="edge1" class="edge">
<title>Node150&#45;&gt;Node151</title>
<path fill="none" stroke="#191970" d="M126.254,-37.1306C135.7772,-38.265 145.5239,-39.426 154.9352,-40.5471"/>
<polygon fill="#191970" stroke="#191970" points="126.3782,-33.6207 116.0344,-35.9132 125.5501,-40.5716 126.3782,-33.6207"/>
</g>
<!-- Node152 -->
<g id="node3" class="node">
<title>Node152</title>
<g id="a_node3"><a xlink:href="../../d4/d5b/classopenage_1_1_texture.xhtml#a245b2f41a0307ea3553fadfbc777bb54" target="_top" xlink:title="Create a texture from a existing image file. ">
<polygon fill="#ffffff" stroke="#000000" points="152,-.5 152,-19.5 283,-19.5 283,-.5 152,-.5"/>
<text text-anchor="middle" x="217.5" y="-7.5" font-family="Helvetica,sans-Serif" font-size="10.00" fill="#000000">openage::Texture::Texture</text>
</a>
</g>
</g>
<!-- Node150&#45;&gt;Node152 -->
<g id="edge2" class="edge">
<title>Node150&#45;&gt;Node152</title>
<path fill="none" stroke="#191970" d="M126.0143,-20.898C134.6095,-19.8741 143.3906,-18.8281 151.9465,-17.8089"/>
<polygon fill="#191970" stroke="#191970" points="125.5501,-17.4284 116.0344,-22.0868 126.3782,-24.3793 125.5501,-17.4284"/>
</g>
</g>
</svg>
