<?xml version="1.0" encoding="UTF-8" standalone="no"?>
<!DOCTYPE svg PUBLIC "-//W3C//DTD SVG 1.1//EN"
 "http://www.w3.org/Graphics/SVG/1.1/DTD/svg11.dtd">
<!-- Generated by graphviz version 2.40.1 (20161225.0304)
 -->
<!-- Title: openage::Texture::get_subtexture Pages: 1 -->
<!--zoomable 252 -->
<svg id="main" version="1.1" xmlns="http://www.w3.org/2000/svg" xmlns:xlink="http://www.w3.org/1999/xlink" xml:space="preserve" onload="init(evt)">
<style type="text/css"><![CDATA[
.edge:hover path { stroke: red; }
.edge:hover polygon { stroke: red; fill: red; }
]]></style>
<script type="text/javascript"><![CDATA[
var edges = document.getElementsByTagName('g');
if (edges && edges.length) {
  for (var i=0;i<edges.length;i++) {
    if (edges[i].id.substr(0,4)=='edge') {
      edges[i].setAttribute('class','edge');
    }
  }
}
]]></script>
        <defs>
                <circle id="rim" cx="0" cy="0" r="7"/>
                <circle id="rim2" cx="0" cy="0" r="3.5"/>
                <g id="zoomPlus">
                        <use xlink:href="#rim" fill="#404040">
                                <set attributeName="fill" to="#808080" begin="zoomplus.mouseover" end="zoomplus.mouseout"/>
                        </use>
                        <path d="M-4,0h8M0,-4v8" fill="none" stroke="white" stroke-width="1.5" pointer-events="none"/>
                </g>
                <g id="zoomMin">
                        <use xlink:href="#rim" fill="#404040">
                                <set attributeName="fill" to="#808080" begin="zoomminus.mouseover" end="zoomminus.mouseout"/>
                        </use>
                        <path d="M-4,0h8" fill="none" stroke="white" stroke-width="1.5" pointer-events="none"/>
                </g>
                <g id="dirArrow">
                        <path fill="none" stroke="white" stroke-width="1.5" d="M0,-3.0v7 M-2.5,-0.5L0,-3.0L2.5,-0.5"/>
                </g>
               <g id="resetDef">
                       <use xlink:href="#rim2" fill="#404040">
                               <set attributeName="fill" to="#808080" begin="reset.mouseover" end="reset.mouseout"/>
                       </use>
               </g>
        </defs>

<script type="text/javascript">
var viewWidth = 1374;
var viewHeight = 252;
var sectionId = 'dynsection-9';
</script>
<script xlink:href="../../svgpan.js"/>
<svg id="graph" class="graph">
<g id="viewport">
<title>openage::Texture::get_subtexture</title>
<polygon fill="#ffffff" stroke="transparent" points="-4,4 -4,-248.3282 1370,-248.3282 1370,4 -4,4"/>
<!-- Node76 -->
<g id="node1" class="node">
<title>Node76</title>
<polygon fill="#bfbfbf" stroke="#000000" points="0,-115.5 0,-145.5 112,-145.5 112,-115.5 0,-115.5"/>
<text text-anchor="start" x="8" y="-133.5" font-family="Helvetica,sans-Serif" font-size="10.00" fill="#000000">openage::Texture::get</text>
<text text-anchor="middle" x="56" y="-122.5" font-family="Helvetica,sans-Serif" font-size="10.00" fill="#000000">_subtexture</text>
</g>
<!-- Node77 -->
<g id="node2" class="node">
<title>Node77</title>
<g id="a_node2"><a xlink:href="../../d4/d5b/classopenage_1_1_texture.xhtml#a6b4128fc6fd1856fbfc6ece4165fd505" target="_top" xlink:title="Draws the texture at window coordinates. ">
<polygon fill="#ffffff" stroke="#000000" points="325,-214 325,-233 444,-233 444,-214 325,-214"/>
<text text-anchor="middle" x="384.5" y="-221" font-family="Helvetica,sans-Serif" font-size="10.00" fill="#000000">openage::Texture::draw</text>
</a>
</g>
</g>
<!-- Node76&#45;&gt;Node77 -->
<g id="edge1" class="edge">
<title>Node76&#45;&gt;Node77</title>
<path fill="none" stroke="#191970" d="M70.5792,-154.4654C86.3537,-177.8427 113.8861,-211.9425 148,-226.5 213.3375,-254.3815 298.3722,-243.2094 346.6437,-233.0341"/>
<polygon fill="#191970" stroke="#191970" points="73.3215,-152.2627 64.9311,-145.7935 67.456,-156.0831 73.3215,-152.2627"/>
</g>
<!-- Node78 -->
<g id="node3" class="node">
<title>Node78</title>
<g id="a_node3"><a xlink:href="../../d4/d5b/classopenage_1_1_texture.xhtml#a092c7e4cb300b5fda314d0c951d866d3" target="_top" xlink:title="get atlas subtexture coordinates. ">
<polygon fill="#ffffff" stroke="#000000" points="157,-186.5 157,-216.5 280,-216.5 280,-186.5 157,-186.5"/>
<text text-anchor="start" x="165" y="-204.5" font-family="Helvetica,sans-Serif" font-size="10.00" fill="#000000">openage::Texture::get</text>
<text text-anchor="middle" x="218.5" y="-193.5" font-family="Helvetica,sans-Serif" font-size="10.00" fill="#000000">_subtexture_coordinates</text>
</a>
</g>
</g>
<!-- Node76&#45;&gt;Node78 -->
<g id="edge2" class="edge">
<title>Node76&#45;&gt;Node78</title>
<path fill="none" stroke="#191970" d="M91.8053,-150.3123C108.5982,-159.2079 129.045,-169.4812 148,-177.5 155.3828,-180.6232 163.3246,-183.6414 171.1218,-186.4221"/>
<polygon fill="#191970" stroke="#191970" points="93.3524,-147.1705 82.8846,-145.5351 90.0478,-153.3414 93.3524,-147.1705"/>
</g>
<!-- Node79 -->
<g id="node4" class="node">
<title>Node79</title>
<g id="a_node4"><a xlink:href="../../d4/d5b/classopenage_1_1_texture.xhtml#a0b306cf19280092e3fe22340e04f1abd" target="_top" xlink:title="Fetch the size of the given subtexture. ">
<polygon fill="#ffffff" stroke="#000000" points="162.5,-137.5 162.5,-167.5 274.5,-167.5 274.5,-137.5 162.5,-137.5"/>
<text text-anchor="start" x="170.5" y="-155.5" font-family="Helvetica,sans-Serif" font-size="10.00" fill="#000000">openage::Texture::get</text>
<text text-anchor="middle" x="218.5" y="-144.5" font-family="Helvetica,sans-Serif" font-size="10.00" fill="#000000">_subtexture_size</text>
</a>
</g>
</g>
<!-- Node76&#45;&gt;Node79 -->
<g id="edge4" class="edge">
<title>Node76&#45;&gt;Node79</title>
<path fill="none" stroke="#191970" d="M122.4223,-139.4926C135.7288,-141.2941 149.5845,-143.1699 162.4959,-144.9179"/>
<polygon fill="#191970" stroke="#191970" points="122.7578,-136.0061 112.3786,-138.1328 121.8186,-142.9428 122.7578,-136.0061"/>
</g>
<!-- Node80 -->
<g id="node5" class="node">
<title>Node80</title>
<g id="a_node5"><a xlink:href="../../d3/d8f/namespaceopenage_1_1gui.xhtml#a4f415900a4d4e55b09b0be3c2ba60d54" target="_top" xlink:title="openage::gui::native_size">
<polygon fill="#ffffff" stroke="#000000" points="154.5,-99 154.5,-118 282.5,-118 282.5,-99 154.5,-99"/>
<text text-anchor="middle" x="218.5" y="-106" font-family="Helvetica,sans-Serif" font-size="10.00" fill="#000000">openage::gui::native_size</text>
</a>
</g>
</g>
<!-- Node76&#45;&gt;Node80 -->
<g id="edge5" class="edge">
<title>Node76&#45;&gt;Node80</title>
<path fill="none" stroke="#191970" d="M122.3914,-121.5116C132.9716,-120.0792 143.8998,-118.5997 154.4251,-117.1747"/>
<polygon fill="#191970" stroke="#191970" points="121.8186,-118.0572 112.3786,-122.8672 122.7578,-124.9939 121.8186,-118.0572"/>
</g>
<!-- Node89 -->
<g id="node14" class="node">
<title>Node89</title>
<g id="a_node14"><a xlink:href="../../d9/d93/classopenage_1_1gui_1_1_gui_texture.xhtml#afee0e8d811d508b6e16ae7ab4cf2c4a3" target="_top" xlink:title="openage::gui::GuiTexture\l::normalizedTextureSubRect">
<polygon fill="#ffffff" stroke="#000000" points="148,-49.5 148,-79.5 289,-79.5 289,-49.5 148,-49.5"/>
<text text-anchor="start" x="156" y="-67.5" font-family="Helvetica,sans-Serif" font-size="10.00" fill="#000000">openage::gui::GuiTexture</text>
<text text-anchor="middle" x="218.5" y="-56.5" font-family="Helvetica,sans-Serif" font-size="10.00" fill="#000000">::normalizedTextureSubRect</text>
</a>
</g>
</g>
<!-- Node76&#45;&gt;Node89 -->
<g id="edge15" class="edge">
<title>Node76&#45;&gt;Node89</title>
<path fill="none" stroke="#191970" d="M97.5249,-111.1648C113.2241,-104.0745 131.3245,-96.1605 148,-89.5 156.442,-86.1281 165.5384,-82.7311 174.3001,-79.5747"/>
<polygon fill="#191970" stroke="#191970" points="95.7479,-108.128 88.0945,-115.4544 98.6463,-114.4997 95.7479,-108.128"/>
</g>
<!-- Node90 -->
<g id="node15" class="node">
<title>Node90</title>
<g id="a_node15"><a xlink:href="../../d9/d93/classopenage_1_1gui_1_1_gui_texture.xhtml#acabd4037e0b47cda554ae353c2c3be3e" target="_top" xlink:title="openage::gui::GuiTexture\l::removedFromAtlas">
<polygon fill="#ffffff" stroke="#000000" points="155.5,-.5 155.5,-30.5 281.5,-30.5 281.5,-.5 155.5,-.5"/>
<text text-anchor="start" x="163.5" y="-18.5" font-family="Helvetica,sans-Serif" font-size="10.00" fill="#000000">openage::gui::GuiTexture</text>
<text text-anchor="middle" x="218.5" y="-7.5" font-family="Helvetica,sans-Serif" font-size="10.00" fill="#000000">::removedFromAtlas</text>
</a>
</g>
</g>
<!-- Node76&#45;&gt;Node90 -->
<g id="edge16" class="edge">
<title>Node76&#45;&gt;Node90</title>
<path fill="none" stroke="#191970" d="M73.9364,-107.6143C91.0178,-87.1969 118.4468,-57.7834 148,-39.5 153.4976,-36.0988 159.5371,-33.1107 165.6971,-30.504"/>
<polygon fill="#191970" stroke="#191970" points="71.1157,-105.5345 67.4868,-115.4885 76.531,-109.9701 71.1157,-105.5345"/>
</g>
<!-- Node78&#45;&gt;Node77 -->
<g id="edge3" class="edge">
<title>Node78&#45;&gt;Node77</title>
<path fill="none" stroke="#191970" d="M290.3324,-211.02C301.846,-212.5459 313.6517,-214.1105 324.8413,-215.5934"/>
<polygon fill="#191970" stroke="#191970" points="290.6855,-207.5362 280.3123,-209.692 289.7657,-214.4755 290.6855,-207.5362"/>
</g>
<!-- Node81 -->
<g id="node6" class="node">
<title>Node81</title>
<g id="a_node6"><a xlink:href="../../d3/d8f/namespaceopenage_1_1gui.xhtml#a1ed7c99cf0d2a47548927d8d688b0c42" target="_top" xlink:title="The sourceSize property of the Image QML element ends up here for checking. ">
<polygon fill="#ffffff" stroke="#000000" points="331,-93.5 331,-123.5 438,-123.5 438,-93.5 331,-93.5"/>
<text text-anchor="start" x="339" y="-111.5" font-family="Helvetica,sans-Serif" font-size="10.00" fill="#000000">openage::gui::aspect</text>
<text text-anchor="middle" x="384.5" y="-100.5" font-family="Helvetica,sans-Serif" font-size="10.00" fill="#000000">_fit_size</text>
</a>
</g>
</g>
<!-- Node80&#45;&gt;Node81 -->
<g id="edge6" class="edge">
<title>Node80&#45;&gt;Node81</title>
<path fill="none" stroke="#191970" d="M292.8906,-108.5C305.7264,-108.5 318.8398,-108.5 330.985,-108.5"/>
<polygon fill="#191970" stroke="#191970" points="292.68,-105.0001 282.6799,-108.5 292.6799,-112.0001 292.68,-105.0001"/>
</g>
<!-- Node82 -->
<g id="node7" class="node">
<title>Node82</title>
<g id="a_node7"><a xlink:href="../../d3/d9a/classopenage_1_1gui_1_1_gui_game_spec_image_provider_impl.xhtml#ac4c74475a47396d2e1824d2625e9d666" target="_top" xlink:title="openage::gui::GuiGameSpec\lImageProviderImpl::overwrite\l_texture_handle">
<polygon fill="#ffffff" stroke="#000000" points="480,-88 480,-129 624,-129 624,-88 480,-88"/>
<text text-anchor="start" x="488" y="-117" font-family="Helvetica,sans-Serif" font-size="10.00" fill="#000000">openage::gui::GuiGameSpec</text>
<text text-anchor="start" x="488" y="-106" font-family="Helvetica,sans-Serif" font-size="10.00" fill="#000000">ImageProviderImpl::overwrite</text>
<text text-anchor="middle" x="552" y="-95" font-family="Helvetica,sans-Serif" font-size="10.00" fill="#000000">_texture_handle</text>
</a>
</g>
</g>
<!-- Node81&#45;&gt;Node82 -->
<g id="edge7" class="edge">
<title>Node81&#45;&gt;Node82</title>
<path fill="none" stroke="#191970" d="M448.507,-108.5C458.7579,-108.5 469.4274,-108.5 479.8522,-108.5"/>
<polygon fill="#191970" stroke="#191970" points="448.4201,-105.0001 438.42,-108.5 448.42,-112.0001 448.4201,-105.0001"/>
</g>
<!-- Node83 -->
<g id="node8" class="node">
<title>Node83</title>
<g id="a_node8"><a xlink:href="../../d3/d9a/classopenage_1_1gui_1_1_gui_game_spec_image_provider_impl.xhtml#ab296b31a83e17fbd14f7106ce4c2a54a" target="_top" xlink:title="Change the already produced texture handles to use new source. ">
<polygon fill="#ffffff" stroke="#000000" points="660,-118 660,-159 802,-159 802,-118 660,-118"/>
<text text-anchor="start" x="668" y="-147" font-family="Helvetica,sans-Serif" font-size="10.00" fill="#000000">openage::gui::GuiGameSpec</text>
<text text-anchor="start" x="668" y="-136" font-family="Helvetica,sans-Serif" font-size="10.00" fill="#000000">ImageProviderImpl::migrate</text>
<text text-anchor="middle" x="731" y="-125" font-family="Helvetica,sans-Serif" font-size="10.00" fill="#000000">_to_new_game_spec</text>
</a>
</g>
</g>
<!-- Node82&#45;&gt;Node83 -->
<g id="edge8" class="edge">
<title>Node82&#45;&gt;Node83</title>
<path fill="none" stroke="#191970" d="M634.1139,-122.2621C642.7546,-123.7103 651.4878,-125.1739 659.9883,-126.5986"/>
<polygon fill="#191970" stroke="#191970" points="634.4734,-118.7736 624.0324,-120.5725 633.3163,-125.6773 634.4734,-118.7736"/>
</g>
<!-- Node87 -->
<g id="node12" class="node">
<title>Node87</title>
<g id="a_node12"><a xlink:href="../../d3/d9a/classopenage_1_1gui_1_1_gui_game_spec_image_provider_impl.xhtml#a183dbf9c55bb6ce603654585a92db3b1" target="_top" xlink:title="Fills in the provided handle object. ">
<polygon fill="#ffffff" stroke="#000000" points="660,-58 660,-99 802,-99 802,-58 660,-58"/>
<text text-anchor="start" x="668" y="-87" font-family="Helvetica,sans-Serif" font-size="10.00" fill="#000000">openage::gui::GuiGameSpec</text>
<text text-anchor="start" x="668" y="-76" font-family="Helvetica,sans-Serif" font-size="10.00" fill="#000000">ImageProviderImpl::fill</text>
<text text-anchor="middle" x="731" y="-65" font-family="Helvetica,sans-Serif" font-size="10.00" fill="#000000">_texture_handle</text>
</a>
</g>
</g>
<!-- Node82&#45;&gt;Node87 -->
<g id="edge13" class="edge">
<title>Node82&#45;&gt;Node87</title>
<path fill="none" stroke="#191970" d="M634.1139,-94.7379C642.7546,-93.2897 651.4878,-91.8261 659.9883,-90.4014"/>
<polygon fill="#191970" stroke="#191970" points="633.3163,-91.3227 624.0324,-96.4275 634.4734,-98.2264 633.3163,-91.3227"/>
</g>
<!-- Node84 -->
<g id="node9" class="node">
<title>Node84</title>
<g id="a_node9"><a xlink:href="../../d3/d9a/classopenage_1_1gui_1_1_gui_game_spec_image_provider_impl.xhtml#a96f49e5b70c5848778479d8ae36431b9" target="_top" xlink:title="Unblocks the provider. ">
<polygon fill="#ffffff" stroke="#000000" points="838,-118 838,-159 982,-159 982,-118 838,-118"/>
<text text-anchor="start" x="846" y="-147" font-family="Helvetica,sans-Serif" font-size="10.00" fill="#000000">openage::gui::GuiGameSpec</text>
<text text-anchor="start" x="846" y="-136" font-family="Helvetica,sans-Serif" font-size="10.00" fill="#000000">ImageProviderImpl::on_game</text>
<text text-anchor="middle" x="910" y="-125" font-family="Helvetica,sans-Serif" font-size="10.00" fill="#000000">_spec_loaded</text>
</a>
</g>
</g>
<!-- Node83&#45;&gt;Node84 -->
<g id="edge9" class="edge">
<title>Node83&#45;&gt;Node84</title>
<path fill="none" stroke="#191970" d="M812.0551,-138.5C820.6761,-138.5 829.4026,-138.5 837.9107,-138.5"/>
<polygon fill="#191970" stroke="#191970" points="812.0027,-135.0001 802.0026,-138.5 812.0026,-142.0001 812.0027,-135.0001"/>
</g>
<!-- Node85 -->
<g id="node10" class="node">
<title>Node85</title>
<g id="a_node10"><a xlink:href="../../db/d8b/classopenage_1_1gui_1_1_gui_image_provider_link.xhtml#a545162ca0fa8e596f4a2afafda0e2b0f" target="_top" xlink:title="Sets the game spec to load textures from. ">
<polygon fill="#ffffff" stroke="#000000" points="1210,-123.5 1210,-153.5 1366,-153.5 1366,-123.5 1210,-123.5"/>
<text text-anchor="start" x="1218" y="-141.5" font-family="Helvetica,sans-Serif" font-size="10.00" fill="#000000">openage::gui::GuiImageProvider</text>
<text text-anchor="middle" x="1288" y="-130.5" font-family="Helvetica,sans-Serif" font-size="10.00" fill="#000000">Link::set_game_spec</text>
</a>
</g>
</g>
<!-- Node84&#45;&gt;Node85 -->
<g id="edge10" class="edge">
<title>Node84&#45;&gt;Node85</title>
<path fill="none" stroke="#191970" d="M992.2176,-141.0214C1000.9215,-141.2174 1009.6421,-141.3839 1018,-141.5 1087.3266,-142.4627 1104.6727,-142.412 1174,-141.5 1185.5811,-141.3476 1197.8223,-141.1083 1209.8172,-140.8296"/>
<polygon fill="#191970" stroke="#191970" points="992.1108,-137.518 982.0304,-140.7791 991.9443,-144.516 992.1108,-137.518"/>
</g>
<!-- Node86 -->
<g id="node11" class="node">
<title>Node86</title>
<g id="a_node11"><a xlink:href="../../db/d8b/classopenage_1_1gui_1_1_gui_image_provider_link.xhtml#a4448d1bf9cbb8e7f8842989fd414c66b" target="_top" xlink:title="Pass loaded assets to the image provider. ">
<polygon fill="#ffffff" stroke="#000000" points="1018,-101.5 1018,-131.5 1174,-131.5 1174,-101.5 1018,-101.5"/>
<text text-anchor="start" x="1026" y="-119.5" font-family="Helvetica,sans-Serif" font-size="10.00" fill="#000000">openage::gui::GuiImageProvider</text>
<text text-anchor="middle" x="1096" y="-108.5" font-family="Helvetica,sans-Serif" font-size="10.00" fill="#000000">Link::on_game_spec_loaded</text>
</a>
</g>
</g>
<!-- Node84&#45;&gt;Node86 -->
<g id="edge11" class="edge">
<title>Node84&#45;&gt;Node86</title>
<path fill="none" stroke="#191970" d="M992.3699,-128.7573C1000.7882,-127.7616 1009.3243,-126.752 1017.6973,-125.7616"/>
<polygon fill="#191970" stroke="#191970" points="991.6983,-125.3123 982.1787,-129.9627 992.5206,-132.2638 991.6983,-125.3123"/>
</g>
<!-- Node86&#45;&gt;Node85 -->
<g id="edge12" class="edge">
<title>Node86&#45;&gt;Node85</title>
<path fill="none" stroke="#191970" d="M1184.1526,-126.6008C1192.7687,-127.5881 1201.4697,-128.5851 1209.9755,-129.5597"/>
<polygon fill="#191970" stroke="#191970" points="1184.4272,-123.1095 1174.0938,-125.4482 1183.6303,-130.064 1184.4272,-123.1095"/>
</g>
<!-- Node88 -->
<g id="node13" class="node">
<title>Node88</title>
<g id="a_node13"><a xlink:href="../../d8/d79/classopenage_1_1gui_1_1_gui_texture_factory.xhtml#af51021a1b0298e9c467ae7b50f2a8180" target="_top" xlink:title="openage::gui::GuiTexture\lFactory::GuiTextureFactory">
<polygon fill="#ffffff" stroke="#000000" points="841.5,-63.5 841.5,-93.5 978.5,-93.5 978.5,-63.5 841.5,-63.5"/>
<text text-anchor="start" x="849.5" y="-81.5" font-family="Helvetica,sans-Serif" font-size="10.00" fill="#000000">openage::gui::GuiTexture</text>
<text text-anchor="middle" x="910" y="-70.5" font-family="Helvetica,sans-Serif" font-size="10.00" fill="#000000">Factory::GuiTextureFactory</text>
</a>
</g>
</g>
<!-- Node87&#45;&gt;Node88 -->
<g id="edge14" class="edge">
<title>Node87&#45;&gt;Node88</title>
<path fill="none" stroke="#191970" d="M812.1318,-78.5C821.9175,-78.5 831.8378,-78.5 841.4193,-78.5"/>
<polygon fill="#191970" stroke="#191970" points="812.0027,-75.0001 802.0026,-78.5 812.0026,-82.0001 812.0027,-75.0001"/>
</g>
</g>
</svg>
        <g id="navigator" transform="translate(0 0)" fill="#404254">
                <rect fill="#f2f5e9" fill-opacity="0.5" stroke="#606060" stroke-width=".5" x="0" y="0" width="60" height="60"/>
                <use id="zoomplus" xlink:href="#zoomPlus" x="17" y="9" onmousedown="handleZoom(evt,'in')"/>
                <use id="zoomminus" xlink:href="#zoomMin" x="42" y="9" onmousedown="handleZoom(evt,'out')"/>
                <use id="reset" xlink:href="#resetDef" x="30" y="36" onmousedown="handleReset()"/>
                <g id="arrowUp" xlink:href="#dirArrow" transform="translate(30 24)" onmousedown="handlePan(0,-1)">
                  <use xlink:href="#rim" fill="#404040">
                        <set attributeName="fill" to="#808080" begin="arrowUp.mouseover" end="arrowUp.mouseout"/>
                  </use>
                  <path fill="none" stroke="white" stroke-width="1.5" d="M0,-3.0v7 M-2.5,-0.5L0,-3.0L2.5,-0.5"/>
                </g>
                <g id="arrowRight" xlink:href="#dirArrow" transform="rotate(90) translate(36 -43)" onmousedown="handlePan(1,0)">
                  <use xlink:href="#rim" fill="#404040">
                        <set attributeName="fill" to="#808080" begin="arrowRight.mouseover" end="arrowRight.mouseout"/>
                  </use>
                  <path fill="none" stroke="white" stroke-width="1.5" d="M0,-3.0v7 M-2.5,-0.5L0,-3.0L2.5,-0.5"/>
                </g>
                <g id="arrowDown" xlink:href="#dirArrow" transform="rotate(180) translate(-30 -48)" onmousedown="handlePan(0,1)">
                  <use xlink:href="#rim" fill="#404040">
                        <set attributeName="fill" to="#808080" begin="arrowDown.mouseover" end="arrowDown.mouseout"/>
                  </use>
                  <path fill="none" stroke="white" stroke-width="1.5" d="M0,-3.0v7 M-2.5,-0.5L0,-3.0L2.5,-0.5"/>
                </g>
                <g id="arrowLeft" xlink:href="#dirArrow" transform="rotate(270) translate(-36 17)" onmousedown="handlePan(-1,0)">
                  <use xlink:href="#rim" fill="#404040">
                        <set attributeName="fill" to="#808080" begin="arrowLeft.mouseover" end="arrowLeft.mouseout"/>
                  </use>
                  <path fill="none" stroke="white" stroke-width="1.5" d="M0,-3.0v7 M-2.5,-0.5L0,-3.0L2.5,-0.5"/>
                </g>
        </g>
        <svg viewBox="0 0 15 15" width="100%" height="30px" preserveAspectRatio="xMaxYMin meet">
         <g id="arrow_out" transform="scale(0.3 0.3)">
          <a xlink:href="classopenage_1_1_texture_aa2ba756d0a2a61a5dada563790e3ceec_icgraph_org.svg" target="_base">
           <rect id="button" ry="5" rx="5" y="6" x="6" height="38" width="38"
                fill="#f2f5e9" fill-opacity="0.5" stroke="#606060" stroke-width="1.0"/>
           <path id="arrow"
             d="M 11.500037,31.436501 C 11.940474,20.09759 22.043105,11.32322 32.158766,21.979434 L 37.068811,17.246167 C 37.068811,17.246167 37.088388,32 37.088388,32 L 22.160133,31.978069 C 22.160133,31.978069 26.997745,27.140456 26.997745,27.140456 C 18.528582,18.264221 13.291696,25.230495 11.500037,31.436501 z"
             style="fill:#404040;"/>
          </a>
         </g>
        </svg>
</svg>
