<?xml version="1.0" encoding="UTF-8" standalone="no"?>
<!DOCTYPE svg PUBLIC "-//W3C//DTD SVG 1.1//EN"
 "http://www.w3.org/Graphics/SVG/1.1/DTD/svg11.dtd">
<!-- Generated by graphviz version 2.40.1 (20161225.0304)
 -->
<!-- Title: openage::Texture::get_subtexture_coordinates Pages: 1 -->
<svg width="279pt" height="39pt"
 viewBox="0.00 0.00 279.00 39.00" xmlns="http://www.w3.org/2000/svg" xmlns:xlink="http://www.w3.org/1999/xlink">
<g id="graph0" class="graph" transform="scale(1 1) rotate(0) translate(4 35)">
<title>openage::Texture::get_subtexture_coordinates</title>
<polygon fill="#ffffff" stroke="transparent" points="-4,4 -4,-35 275,-35 275,4 -4,4"/>
<!-- Node91 -->
<g id="node1" class="node">
<title>Node91</title>
<polygon fill="#bfbfbf" stroke="#000000" points="0,-.5 0,-30.5 123,-30.5 123,-.5 0,-.5"/>
<text text-anchor="start" x="8" y="-18.5" font-family="Helvetica,sans-Serif" font-size="10.00" fill="#000000">openage::Texture::get</text>
<text text-anchor="middle" x="61.5" y="-7.5" font-family="Helvetica,sans-Serif" font-size="10.00" fill="#000000">_subtexture_coordinates</text>
</g>
<!-- Node92 -->
<g id="node2" class="node">
<title>Node92</title>
<g id="a_node2"><a xlink:href="../../d4/d5b/classopenage_1_1_texture.xhtml#aa2ba756d0a2a61a5dada563790e3ceec" target="_top" xlink:title="Get the subtexture coordinates by its id. ">
<polygon fill="#ffffff" stroke="#000000" points="159,-.5 159,-30.5 271,-30.5 271,-.5 159,-.5"/>
<text text-anchor="start" x="167" y="-18.5" font-family="Helvetica,sans-Serif" font-size="10.00" fill="#000000">openage::Texture::get</text>
<text text-anchor="middle" x="215" y="-7.5" font-family="Helvetica,sans-Serif" font-size="10.00" fill="#000000">_subtexture</text>
</a>
</g>
</g>
<!-- Node91&#45;&gt;Node92 -->
<g id="edge1" class="edge">
<title>Node91&#45;&gt;Node92</title>
<path fill="none" stroke="#191970" d="M123.0499,-15.5C131.4702,-15.5 140.1447,-15.5 148.6459,-15.5"/>
<polygon fill="#191970" stroke="#191970" points="148.9009,-19.0001 158.9008,-15.5 148.9008,-12.0001 148.9009,-19.0001"/>
</g>
</g>
</svg>
