<?xml version="1.0" encoding="UTF-8" standalone="no"?>
<!DOCTYPE svg PUBLIC "-//W3C//DTD SVG 1.1//EN"
 "http://www.w3.org/Graphics/SVG/1.1/DTD/svg11.dtd">
<!-- Generated by graphviz version 2.40.1 (20161225.0304)
 -->
<!-- Title: /mnt/c/Users/Jameson/Desktop/git/openage&#45;new&#45;doc&#45;system/libopenage/util/filelike/python.cpp Pages: 1 -->
<svg width="1145pt" height="677pt"
 viewBox="0.00 0.00 1145.00 677.45" xmlns="http://www.w3.org/2000/svg" xmlns:xlink="http://www.w3.org/1999/xlink">
<g id="graph0" class="graph" transform="scale(1 1) rotate(0) translate(4 673.4516)">
<title>/mnt/c/Users/Jameson/Desktop/git/openage&#45;new&#45;doc&#45;system/libopenage/util/filelike/python.cpp</title>
<polygon fill="#ffffff" stroke="transparent" points="-4,4 -4,-673.4516 1141,-673.4516 1141,4 -4,4"/>
<!-- Node0 -->
<g id="node1" class="node">
<title>Node0</title>
<polygon fill="#bfbfbf" stroke="#000000" points="745.5,-616.9516 745.5,-668.9516 886.5,-668.9516 886.5,-616.9516 745.5,-616.9516"/>
<text text-anchor="start" x="753.5" y="-656.9516" font-family="Helvetica,sans-Serif" font-size="10.00" fill="#000000">/mnt/c/Users/Jameson</text>
<text text-anchor="start" x="753.5" y="-645.9516" font-family="Helvetica,sans-Serif" font-size="10.00" fill="#000000">/Desktop/git/openage</text>
<text text-anchor="start" x="753.5" y="-634.9516" font-family="Helvetica,sans-Serif" font-size="10.00" fill="#000000">&#45;new&#45;doc&#45;system/libopenage</text>
<text text-anchor="middle" x="816" y="-623.9516" font-family="Helvetica,sans-Serif" font-size="10.00" fill="#000000">/util/filelike/python.cpp</text>
</g>
<!-- Node1 -->
<g id="node2" class="node">
<title>Node1</title>
<g id="a_node2"><a xlink:href="../../d1/d54/filelike_2python_8h.xhtml" target="_top" xlink:title="python.h">
<polygon fill="#ffffff" stroke="#000000" points="870,-560.9516 870,-579.9516 924,-579.9516 924,-560.9516 870,-560.9516"/>
<text text-anchor="middle" x="897" y="-567.9516" font-family="Helvetica,sans-Serif" font-size="10.00" fill="#000000">python.h</text>
</a>
</g>
</g>
<!-- Node0&#45;&gt;Node1 -->
<g id="edge1" class="edge">
<title>Node0&#45;&gt;Node1</title>
<path fill="none" stroke="#191970" d="M845.2429,-616.7775C856.4301,-606.7642 868.8622,-595.6367 878.7376,-586.7976"/>
<polygon fill="#191970" stroke="#191970" points="881.2312,-589.2629 886.3482,-579.9856 876.5627,-584.047 881.2312,-589.2629"/>
</g>
<!-- Node23 -->
<g id="node24" class="node">
<title>Node23</title>
<polygon fill="#ffffff" stroke="#bfbfbf" points="694,-168.9516 694,-187.9516 756,-187.9516 756,-168.9516 694,-168.9516"/>
<text text-anchor="middle" x="725" y="-175.9516" font-family="Helvetica,sans-Serif" font-size="10.00" fill="#000000">type_traits</text>
</g>
<!-- Node0&#45;&gt;Node23 -->
<g id="edge65" class="edge">
<title>Node0&#45;&gt;Node23</title>
<path fill="none" stroke="#191970" d="M787.2144,-616.8802C763.9326,-592.8186 735,-554.7998 735,-514.4516 735,-514.4516 735,-514.4516 735,-290.4516 735,-258.0348 730.7925,-220.5486 727.8359,-198.2088"/>
<polygon fill="#191970" stroke="#191970" points="731.2637,-197.4436 726.4328,-188.0143 724.3291,-198.3982 731.2637,-197.4436"/>
</g>
<!-- Node2 -->
<g id="node3" class="node">
<title>Node2</title>
<polygon fill="#ffffff" stroke="#bfbfbf" points="922,-56.9516 922,-75.9516 976,-75.9516 976,-56.9516 922,-56.9516"/>
<text text-anchor="middle" x="949" y="-63.9516" font-family="Helvetica,sans-Serif" font-size="10.00" fill="#000000">iostream</text>
</g>
<!-- Node1&#45;&gt;Node2 -->
<g id="edge2" class="edge">
<title>Node1&#45;&gt;Node2</title>
<path fill="none" stroke="#191970" d="M924.0813,-565.0197C970.6619,-553.9239 1061,-523.9604 1061,-458.4516 1061,-458.4516 1061,-458.4516 1061,-178.4516 1061,-147.5316 1059.1553,-135.8997 1039,-112.4516 1025.0379,-96.2086 1003.9293,-84.9973 985.6633,-77.7121"/>
<polygon fill="#191970" stroke="#191970" points="986.7408,-74.3785 976.1483,-74.1582 984.2915,-80.936 986.7408,-74.3785"/>
</g>
<!-- Node3 -->
<g id="node4" class="node">
<title>Node3</title>
<polygon fill="#ffffff" stroke="#bfbfbf" points="540,-112.9516 540,-131.9516 592,-131.9516 592,-112.9516 540,-112.9516"/>
<text text-anchor="middle" x="566" y="-119.9516" font-family="Helvetica,sans-Serif" font-size="10.00" fill="#000000">memory</text>
</g>
<!-- Node1&#45;&gt;Node3 -->
<g id="edge3" class="edge">
<title>Node1&#45;&gt;Node3</title>
<path fill="none" stroke="#191970" d="M877.5191,-560.8919C818.812,-531.0686 642.1144,-433.7033 552,-300.4516 532.5543,-271.6974 516.3769,-254.3576 534,-224.4516 550.7659,-196.0004 582.2341,-216.9029 599,-188.4516 608.5689,-172.2134 596.2397,-152.8406 584.0218,-139.2995"/>
<polygon fill="#191970" stroke="#191970" points="586.4824,-136.8092 577.0074,-132.0683 581.4579,-141.6831 586.4824,-136.8092"/>
</g>
<!-- Node4 -->
<g id="node5" class="node">
<title>Node4</title>
<polygon fill="#ffffff" stroke="#bfbfbf" points="309.5,-.9516 309.5,-19.9516 350.5,-19.9516 350.5,-.9516 309.5,-.9516"/>
<text text-anchor="middle" x="330" y="-7.9516" font-family="Helvetica,sans-Serif" font-size="10.00" fill="#000000">string</text>
</g>
<!-- Node1&#45;&gt;Node4 -->
<g id="edge4" class="edge">
<title>Node1&#45;&gt;Node4</title>
<path fill="none" stroke="#191970" d="M924.0645,-563.9213C986.8306,-547.9893 1137,-505.0068 1137,-458.4516 1137,-458.4516 1137,-458.4516 1137,-122.4516 1137,-74.6227 1096.7304,-73.3868 1052,-56.4516 986.7274,-31.7391 490.5164,-15.2625 360.8967,-11.3498"/>
<polygon fill="#191970" stroke="#191970" points="360.6172,-7.84 350.5171,-11.0398 360.4081,-14.8368 360.6172,-7.84"/>
</g>
<!-- Node5 -->
<g id="node6" class="node">
<title>Node5</title>
<g id="a_node6"><a xlink:href="../../d7/db5/filelike_8h.xhtml" target="_top" xlink:title="filelike.h">
<polygon fill="#ffffff" stroke="#000000" points="977.5,-112.9516 977.5,-131.9516 1030.5,-131.9516 1030.5,-112.9516 977.5,-112.9516"/>
<text text-anchor="middle" x="1004" y="-119.9516" font-family="Helvetica,sans-Serif" font-size="10.00" fill="#000000">filelike.h</text>
</a>
</g>
</g>
<!-- Node1&#45;&gt;Node5 -->
<g id="edge5" class="edge">
<title>Node1&#45;&gt;Node5</title>
<path fill="none" stroke="#191970" d="M923.1073,-560.8857C960.0135,-545.4795 1023,-511.4263 1023,-458.4516 1023,-458.4516 1023,-458.4516 1023,-234.4516 1023,-201.7204 1015.0148,-164.3569 1009.3978,-142.1232"/>
<polygon fill="#191970" stroke="#191970" points="1012.7289,-141.028 1006.8035,-132.245 1005.9585,-142.8061 1012.7289,-141.028"/>
</g>
<!-- Node9 -->
<g id="node10" class="node">
<title>Node9</title>
<g id="a_node10"><a xlink:href="../../d8/dea/functional_8h.xhtml" target="_top" xlink:title="../../pyinterface/functional.h">
<polygon fill="#ffffff" stroke="#000000" points="269,-448.9516 269,-467.9516 405,-467.9516 405,-448.9516 269,-448.9516"/>
<text text-anchor="middle" x="337" y="-455.9516" font-family="Helvetica,sans-Serif" font-size="10.00" fill="#000000">../../pyinterface/functional.h</text>
</a>
</g>
</g>
<!-- Node1&#45;&gt;Node9 -->
<g id="edge13" class="edge">
<title>Node1&#45;&gt;Node9</title>
<path fill="none" stroke="#191970" d="M869.99,-565.0496C783.799,-547.8114 514.0005,-493.8517 394.7085,-469.9933"/>
<polygon fill="#191970" stroke="#191970" points="395.162,-466.5148 384.6697,-467.9856 393.7891,-473.3789 395.162,-466.5148"/>
</g>
<!-- Node36 -->
<g id="node37" class="node">
<title>Node36</title>
<g id="a_node37"><a xlink:href="../../d2/d4b/pyobject_8h.xhtml" target="_top" xlink:title="../../pyinterface/pyobject.h">
<polygon fill="#ffffff" stroke="#000000" points="831.5,-504.9516 831.5,-523.9516 962.5,-523.9516 962.5,-504.9516 831.5,-504.9516"/>
<text text-anchor="middle" x="897" y="-511.9516" font-family="Helvetica,sans-Serif" font-size="10.00" fill="#000000">../../pyinterface/pyobject.h</text>
</a>
</g>
</g>
<!-- Node1&#45;&gt;Node36 -->
<g id="edge59" class="edge">
<title>Node1&#45;&gt;Node36</title>
<path fill="none" stroke="#191970" d="M897,-560.6972C897,-553.3899 897,-543.146 897,-534.1562"/>
<polygon fill="#191970" stroke="#191970" points="900.5001,-534.0943 897,-524.0943 893.5001,-534.0943 900.5001,-534.0943"/>
</g>
<!-- Node5&#45;&gt;Node2 -->
<g id="edge6" class="edge">
<title>Node5&#45;&gt;Node2</title>
<path fill="none" stroke="#191970" d="M994.4197,-112.6972C986.4542,-104.5869 974.9359,-92.8591 965.4921,-83.2435"/>
<polygon fill="#191970" stroke="#191970" points="967.9747,-80.7763 958.4705,-76.0943 962.9805,-85.6813 967.9747,-80.7763"/>
</g>
<!-- Node5&#45;&gt;Node4 -->
<g id="edge7" class="edge">
<title>Node5&#45;&gt;Node4</title>
<path fill="none" stroke="#191970" d="M1004.3839,-112.5174C1004.3562,-97.7019 1001.87,-70.1023 985,-56.4516 936.0752,-16.8634 484.1461,-11.3451 360.9122,-10.5761"/>
<polygon fill="#191970" stroke="#191970" points="360.6921,-7.0749 350.6726,-10.5187 360.6527,-14.0748 360.6921,-7.0749"/>
</g>
<!-- Node6 -->
<g id="node7" class="node">
<title>Node6</title>
<g id="a_node7"><a xlink:href="../../d4/dd1/compiler_8h.xhtml" target="_top" xlink:title="../compiler.h">
<polygon fill="#ffffff" stroke="#000000" points="130.5,-56.9516 130.5,-75.9516 201.5,-75.9516 201.5,-56.9516 130.5,-56.9516"/>
<text text-anchor="middle" x="166" y="-63.9516" font-family="Helvetica,sans-Serif" font-size="10.00" fill="#000000">../compiler.h</text>
</a>
</g>
</g>
<!-- Node5&#45;&gt;Node6 -->
<g id="edge8" class="edge">
<title>Node5&#45;&gt;Node6</title>
<path fill="none" stroke="#191970" d="M977.2636,-119.6652C956.056,-117.5131 925.652,-114.5565 899,-112.4516 639.5306,-91.9597 327.805,-74.9002 212.1301,-68.8282"/>
<polygon fill="#191970" stroke="#191970" points="212.0464,-65.3191 201.8772,-68.2918 211.6807,-72.3095 212.0464,-65.3191"/>
</g>
<!-- Node6&#45;&gt;Node4 -->
<g id="edge10" class="edge">
<title>Node6&#45;&gt;Node4</title>
<path fill="none" stroke="#191970" d="M194.1926,-56.8249C223.6491,-46.7666 269.6913,-31.0448 299.8561,-20.7447"/>
<polygon fill="#191970" stroke="#191970" points="301.0978,-24.0192 309.4303,-17.4754 298.8358,-17.3947 301.0978,-24.0192"/>
</g>
<!-- Node7 -->
<g id="node8" class="node">
<title>Node7</title>
<polygon fill="#ffffff" stroke="#bfbfbf" points="203,-.9516 203,-19.9516 253,-19.9516 253,-.9516 203,-.9516"/>
<text text-anchor="middle" x="228" y="-7.9516" font-family="Helvetica,sans-Serif" font-size="10.00" fill="#000000">ciso646</text>
</g>
<!-- Node6&#45;&gt;Node7 -->
<g id="edge9" class="edge">
<title>Node6&#45;&gt;Node7</title>
<path fill="none" stroke="#191970" d="M176.7996,-56.6972C185.8678,-48.5066 199.0206,-36.6266 209.7245,-26.9586"/>
<polygon fill="#191970" stroke="#191970" points="212.2491,-29.3946 217.3242,-20.0943 207.5571,-24.1998 212.2491,-29.3946"/>
</g>
<!-- Node8 -->
<g id="node9" class="node">
<title>Node8</title>
<g id="a_node9"><a xlink:href="../../d8/d39/signal_8h.xhtml" target="_top" xlink:title="signal.h">
<polygon fill="#ffffff" stroke="#000000" points="117,-.9516 117,-19.9516 167,-19.9516 167,-.9516 117,-.9516"/>
<text text-anchor="middle" x="142" y="-7.9516" font-family="Helvetica,sans-Serif" font-size="10.00" fill="#000000">signal.h</text>
</a>
</g>
</g>
<!-- Node6&#45;&gt;Node8 -->
<g id="edge11" class="edge">
<title>Node6&#45;&gt;Node8</title>
<path fill="none" stroke="#191970" d="M161.8195,-56.6972C158.619,-49.2293 154.104,-38.6943 150.1916,-29.5653"/>
<polygon fill="#191970" stroke="#191970" points="153.2888,-27.907 146.1326,-20.0943 146.8548,-30.6645 153.2888,-27.907"/>
</g>
<!-- Node8&#45;&gt;Node8 -->
<g id="edge12" class="edge">
<title>Node8&#45;&gt;Node8</title>
<path fill="none" stroke="#191970" d="M160.5634,-20.0262C172.9465,-22.7213 185,-19.5298 185,-10.4516 185,-3.9267 178.7731,-.4429 170.6726,0"/>
<polygon fill="#191970" stroke="#191970" points="170.2234,3.4743 160.5634,-.877 170.8285,-3.4995 170.2234,3.4743"/>
</g>
<!-- Node9&#45;&gt;Node6 -->
<g id="edge16" class="edge">
<title>Node9&#45;&gt;Node6</title>
<path fill="none" stroke="#191970" d="M268.9811,-450.3453C204.2348,-441.9102 111.9385,-427.8063 79,-412.4516 37.5324,-393.1211 0,-392.2035 0,-346.4516 0,-346.4516 0,-346.4516 0,-178.4516 0,-120.0695 71.4312,-90.0877 120.5789,-76.3686"/>
<polygon fill="#191970" stroke="#191970" points="121.6237,-79.7124 130.3888,-73.7607 119.8253,-72.9474 121.6237,-79.7124"/>
</g>
<!-- Node10 -->
<g id="node11" class="node">
<title>Node10</title>
<polygon fill="#ffffff" stroke="#bfbfbf" points="66.5,-112.9516 66.5,-131.9516 125.5,-131.9516 125.5,-112.9516 66.5,-112.9516"/>
<text text-anchor="middle" x="96" y="-119.9516" font-family="Helvetica,sans-Serif" font-size="10.00" fill="#000000">functional</text>
</g>
<!-- Node9&#45;&gt;Node10 -->
<g id="edge14" class="edge">
<title>Node9&#45;&gt;Node10</title>
<path fill="none" stroke="#191970" d="M268.8894,-452.3319C203.9544,-442.3123 116,-415.9191 116,-346.4516 116,-346.4516 116,-346.4516 116,-234.4516 116,-201.671 107.5945,-164.3221 101.6819,-142.1049"/>
<polygon fill="#191970" stroke="#191970" points="104.991,-140.9394 98.9511,-132.2348 98.2445,-142.8061 104.991,-140.9394"/>
</g>
<!-- Node11 -->
<g id="node12" class="node">
<title>Node11</title>
<polygon fill="#ffffff" stroke="#bfbfbf" points="546,-168.9516 546,-187.9516 590,-187.9516 590,-168.9516 546,-168.9516"/>
<text text-anchor="middle" x="568" y="-175.9516" font-family="Helvetica,sans-Serif" font-size="10.00" fill="#000000">mutex</text>
</g>
<!-- Node9&#45;&gt;Node11 -->
<g id="edge15" class="edge">
<title>Node9&#45;&gt;Node11</title>
<path fill="none" stroke="#191970" d="M373.0665,-448.9512C394.7734,-441.7782 421.8245,-430.0997 441,-412.4516 465.5856,-389.8243 477,-379.8649 477,-346.4516 477,-346.4516 477,-346.4516 477,-290.4516 477,-259.2391 481.8888,-249.1292 501,-224.4516 511.0377,-211.4904 525.7651,-200.8189 538.8577,-193.0285"/>
<polygon fill="#191970" stroke="#191970" points="540.5954,-196.0668 547.5829,-188.1027 537.1541,-189.9711 540.5954,-196.0668"/>
</g>
<!-- Node12 -->
<g id="node13" class="node">
<title>Node12</title>
<g id="a_node13"><a xlink:href="../../d8/dce/language_8h.xhtml" target="_top" xlink:title="../util/language.h">
<polygon fill="#ffffff" stroke="#000000" points="343.5,-392.9516 343.5,-411.9516 432.5,-411.9516 432.5,-392.9516 343.5,-392.9516"/>
<text text-anchor="middle" x="388" y="-399.9516" font-family="Helvetica,sans-Serif" font-size="10.00" fill="#000000">../util/language.h</text>
</a>
</g>
</g>
<!-- Node9&#45;&gt;Node12 -->
<g id="edge17" class="edge">
<title>Node9&#45;&gt;Node12</title>
<path fill="none" stroke="#191970" d="M345.8835,-448.6972C353.1966,-440.6672 363.7391,-429.091 372.4467,-419.5298"/>
<polygon fill="#191970" stroke="#191970" points="375.0727,-421.8444 379.2183,-412.0943 369.8972,-417.1311 375.0727,-421.8444"/>
</g>
<!-- Node13 -->
<g id="node14" class="node">
<title>Node13</title>
<g id="a_node14"><a xlink:href="../../dd/d5f/exctranslate_8h.xhtml" target="_top" xlink:title="exctranslate.h">
<polygon fill="#ffffff" stroke="#000000" points="247,-392.9516 247,-411.9516 325,-411.9516 325,-392.9516 247,-392.9516"/>
<text text-anchor="middle" x="286" y="-399.9516" font-family="Helvetica,sans-Serif" font-size="10.00" fill="#000000">exctranslate.h</text>
</a>
</g>
</g>
<!-- Node9&#45;&gt;Node13 -->
<g id="edge18" class="edge">
<title>Node9&#45;&gt;Node13</title>
<path fill="none" stroke="#191970" d="M328.1165,-448.6972C320.8034,-440.6672 310.2609,-429.091 301.5533,-419.5298"/>
<polygon fill="#191970" stroke="#191970" points="304.1028,-417.1311 294.7817,-412.0943 298.9273,-421.8444 304.1028,-417.1311"/>
</g>
<!-- Node35 -->
<g id="node36" class="node">
<title>Node35</title>
<g id="a_node36"><a xlink:href="../../d7/df7/setup_8h.xhtml" target="_top" xlink:title="setup.h">
<polygon fill="#ffffff" stroke="#000000" points="38.5,-168.9516 38.5,-187.9516 87.5,-187.9516 87.5,-168.9516 38.5,-168.9516"/>
<text text-anchor="middle" x="63" y="-175.9516" font-family="Helvetica,sans-Serif" font-size="10.00" fill="#000000">setup.h</text>
</a>
</g>
</g>
<!-- Node9&#45;&gt;Node35 -->
<g id="edge56" class="edge">
<title>Node9&#45;&gt;Node35</title>
<path fill="none" stroke="#191970" d="M268.8553,-451.9751C208.9773,-445.0746 127.5264,-432.3649 102,-412.4516 76.4476,-392.5181 71,-378.8595 71,-346.4516 71,-346.4516 71,-346.4516 71,-290.4516 71,-258.081 67.634,-220.581 65.2687,-198.2259"/>
<polygon fill="#191970" stroke="#191970" points="68.719,-197.5808 64.1462,-188.0236 61.761,-198.3464 68.719,-197.5808"/>
</g>
<!-- Node14 -->
<g id="node15" class="node">
<title>Node14</title>
<g id="a_node15"><a xlink:href="../../d7/dce/error_2error_8h.xhtml" target="_top" xlink:title="../error/error.h">
<polygon fill="#ffffff" stroke="#000000" points="248,-336.9516 248,-355.9516 324,-355.9516 324,-336.9516 248,-336.9516"/>
<text text-anchor="middle" x="286" y="-343.9516" font-family="Helvetica,sans-Serif" font-size="10.00" fill="#000000">../error/error.h</text>
</a>
</g>
</g>
<!-- Node13&#45;&gt;Node14 -->
<g id="edge19" class="edge">
<title>Node13&#45;&gt;Node14</title>
<path fill="none" stroke="#191970" d="M286,-392.6972C286,-385.3899 286,-375.146 286,-366.1562"/>
<polygon fill="#191970" stroke="#191970" points="289.5001,-366.0943 286,-356.0943 282.5001,-366.0943 289.5001,-366.0943"/>
</g>
<!-- Node14&#45;&gt;Node2 -->
<g id="edge20" class="edge">
<title>Node14&#45;&gt;Node2</title>
<path fill="none" stroke="#191970" d="M324.1901,-343.1333C456.1017,-331.3046 886.7449,-289.4984 928,-244.4516 968.3773,-200.3634 959.9771,-122.1952 953.2715,-85.9321"/>
<polygon fill="#191970" stroke="#191970" points="956.6992,-85.2238 951.3007,-76.1076 949.8359,-86.6007 956.6992,-85.2238"/>
</g>
<!-- Node14&#45;&gt;Node3 -->
<g id="edge21" class="edge">
<title>Node14&#45;&gt;Node3</title>
<path fill="none" stroke="#191970" d="M284.6424,-336.7673C283.1689,-323.6433 281.7828,-299.6458 288,-280.4516 297.2685,-251.8372 304.4205,-245.4044 326,-224.4516 359.26,-192.1576 371.8672,-187.7899 414,-168.4516 424.6774,-163.5509 488.5179,-144.7843 529.9956,-132.7884"/>
<polygon fill="#191970" stroke="#191970" points="531.1199,-136.1068 539.7569,-129.9707 529.1785,-129.3814 531.1199,-136.1068"/>
</g>
<!-- Node14&#45;&gt;Node4 -->
<g id="edge23" class="edge">
<title>Node14&#45;&gt;Node4</title>
<path fill="none" stroke="#191970" d="M284.5802,-336.5862C280.1677,-304.264 267.651,-198.6844 279,-112.4516 282.3621,-86.9056 282.4947,-79.5065 294,-56.4516 299.1084,-46.2151 306.7055,-36.0677 313.6059,-27.9186"/>
<polygon fill="#191970" stroke="#191970" points="316.4042,-30.0378 320.411,-20.2299 311.1624,-25.3984 316.4042,-30.0378"/>
</g>
<!-- Node14&#45;&gt;Node6 -->
<g id="edge24" class="edge">
<title>Node14&#45;&gt;Node6</title>
<path fill="none" stroke="#191970" d="M247.814,-338.3498C224.8518,-331.687 196.573,-320.0533 178,-300.4516 156.532,-277.7945 154,-265.6642 154,-234.4516 154,-234.4516 154,-234.4516 154,-178.4516 154,-145.8295 159.0954,-108.1651 162.6456,-85.8818"/>
<polygon fill="#191970" stroke="#191970" points="166.1007,-86.4404 164.2807,-76.003 159.1947,-85.2973 166.1007,-86.4404"/>
</g>
<!-- Node15 -->
<g id="node16" class="node">
<title>Node15</title>
<polygon fill="#ffffff" stroke="#bfbfbf" points="297.5,-280.9516 297.5,-299.9516 356.5,-299.9516 356.5,-280.9516 297.5,-280.9516"/>
<text text-anchor="middle" x="327" y="-287.9516" font-family="Helvetica,sans-Serif" font-size="10.00" fill="#000000">stdexcept</text>
</g>
<!-- Node14&#45;&gt;Node15 -->
<g id="edge22" class="edge">
<title>Node14&#45;&gt;Node15</title>
<path fill="none" stroke="#191970" d="M293.1417,-336.6972C298.8444,-328.9081 306.99,-317.7824 313.8625,-308.3956"/>
<polygon fill="#191970" stroke="#191970" points="316.8568,-310.2306 319.9402,-300.0943 311.2087,-306.0954 316.8568,-310.2306"/>
</g>
<!-- Node16 -->
<g id="node17" class="node">
<title>Node16</title>
<g id="a_node17"><a xlink:href="../../d2/d0d/message_8h.xhtml" target="_top" xlink:title="../log/message.h">
<polygon fill="#ffffff" stroke="#000000" points="561.5,-280.9516 561.5,-299.9516 650.5,-299.9516 650.5,-280.9516 561.5,-280.9516"/>
<text text-anchor="middle" x="606" y="-287.9516" font-family="Helvetica,sans-Serif" font-size="10.00" fill="#000000">../log/message.h</text>
</a>
</g>
</g>
<!-- Node14&#45;&gt;Node16 -->
<g id="edge25" class="edge">
<title>Node14&#45;&gt;Node16</title>
<path fill="none" stroke="#191970" d="M324.2816,-339.7523C380.7349,-329.873 486.5936,-311.3477 551.2464,-300.0335"/>
<polygon fill="#191970" stroke="#191970" points="552.0081,-303.4535 561.2551,-298.282 550.8014,-296.5583 552.0081,-303.4535"/>
</g>
<!-- Node16&#45;&gt;Node4 -->
<g id="edge27" class="edge">
<title>Node16&#45;&gt;Node4</title>
<path fill="none" stroke="#191970" d="M561.3908,-287.3418C492.5596,-281.8501 364.3872,-268.6605 326,-244.4516 300.3457,-228.2727 296.0836,-217.3893 287,-188.4516 269.0521,-131.2751 300.849,-61.792 318.8647,-29.1257"/>
<polygon fill="#191970" stroke="#191970" points="322.0277,-30.6445 323.943,-20.2242 315.9475,-27.1757 322.0277,-30.6445"/>
</g>
<!-- Node17 -->
<g id="node18" class="node">
<title>Node17</title>
<polygon fill="#ffffff" stroke="#bfbfbf" points="873,-224.9516 873,-243.9516 919,-243.9516 919,-224.9516 873,-224.9516"/>
<text text-anchor="middle" x="896" y="-231.9516" font-family="Helvetica,sans-Serif" font-size="10.00" fill="#000000">cstdint</text>
</g>
<!-- Node16&#45;&gt;Node17 -->
<g id="edge26" class="edge">
<title>Node16&#45;&gt;Node17</title>
<path fill="none" stroke="#191970" d="M650.6401,-284.2461C700.2421,-276.9636 782.843,-263.6883 862.4782,-244.5959"/>
<polygon fill="#191970" stroke="#191970" points="863.7881,-247.8794 872.677,-242.1143 862.133,-241.0778 863.7881,-247.8794"/>
</g>
<!-- Node18 -->
<g id="node19" class="node">
<title>Node18</title>
<polygon fill="#ffffff" stroke="#bfbfbf" points="543.5,-224.9516 543.5,-243.9516 594.5,-243.9516 594.5,-224.9516 543.5,-224.9516"/>
<text text-anchor="middle" x="569" y="-231.9516" font-family="Helvetica,sans-Serif" font-size="10.00" fill="#000000">config.h</text>
</g>
<!-- Node16&#45;&gt;Node18 -->
<g id="edge28" class="edge">
<title>Node16&#45;&gt;Node18</title>
<path fill="none" stroke="#191970" d="M599.5551,-280.6972C594.4618,-272.9884 587.2092,-262.0114 581.048,-252.6864"/>
<polygon fill="#191970" stroke="#191970" points="583.8038,-250.5083 575.3711,-244.0943 577.9635,-254.3671 583.8038,-250.5083"/>
</g>
<!-- Node19 -->
<g id="node20" class="node">
<title>Node19</title>
<g id="a_node20"><a xlink:href="../../d1/d06/constexpr_8h.xhtml" target="_top" xlink:title="../util/constexpr.h">
<polygon fill="#ffffff" stroke="#000000" points="763,-224.9516 763,-243.9516 855,-243.9516 855,-224.9516 763,-224.9516"/>
<text text-anchor="middle" x="809" y="-231.9516" font-family="Helvetica,sans-Serif" font-size="10.00" fill="#000000">../util/constexpr.h</text>
</a>
</g>
</g>
<!-- Node16&#45;&gt;Node19 -->
<g id="edge29" class="edge">
<title>Node16&#45;&gt;Node19</title>
<path fill="none" stroke="#191970" d="M640.8969,-280.8249C675.0911,-271.392 727.3415,-256.9781 764.5042,-246.7263"/>
<polygon fill="#191970" stroke="#191970" points="765.8493,-249.9861 774.5584,-243.9528 763.9877,-243.2381 765.8493,-249.9861"/>
</g>
<!-- Node21 -->
<g id="node22" class="node">
<title>Node21</title>
<g id="a_node22"><a xlink:href="../../de/d65/stringformatter_8h.xhtml" target="_top" xlink:title="../util/stringformatter.h">
<polygon fill="#ffffff" stroke="#000000" points="335.5,-224.9516 335.5,-243.9516 448.5,-243.9516 448.5,-224.9516 335.5,-224.9516"/>
<text text-anchor="middle" x="392" y="-231.9516" font-family="Helvetica,sans-Serif" font-size="10.00" fill="#000000">../util/stringformatter.h</text>
</a>
</g>
</g>
<!-- Node16&#45;&gt;Node21 -->
<g id="edge31" class="edge">
<title>Node16&#45;&gt;Node21</title>
<path fill="none" stroke="#191970" d="M569.2121,-280.8249C532.9339,-271.3315 477.3764,-256.7931 438.1554,-246.5297"/>
<polygon fill="#191970" stroke="#191970" points="438.8682,-243.0984 428.3079,-243.9528 437.096,-249.8704 438.8682,-243.0984"/>
</g>
<!-- Node30 -->
<g id="node31" class="node">
<title>Node30</title>
<g id="a_node31"><a xlink:href="../../d3/d4e/logsink_8h.xhtml" target="_top" xlink:title="logsink.h">
<polygon fill="#ffffff" stroke="#000000" points="613,-224.9516 613,-243.9516 669,-243.9516 669,-224.9516 613,-224.9516"/>
<text text-anchor="middle" x="641" y="-231.9516" font-family="Helvetica,sans-Serif" font-size="10.00" fill="#000000">logsink.h</text>
</a>
</g>
</g>
<!-- Node16&#45;&gt;Node30 -->
<g id="edge47" class="edge">
<title>Node16&#45;&gt;Node30</title>
<path fill="none" stroke="#191970" d="M612.0965,-280.6972C616.9145,-272.9884 623.7751,-262.0114 629.6032,-252.6864"/>
<polygon fill="#191970" stroke="#191970" points="632.6413,-254.4293 634.9733,-244.0943 626.7053,-250.7193 632.6413,-254.4293"/>
</g>
<!-- Node32 -->
<g id="node33" class="node">
<title>Node32</title>
<g id="a_node33"><a xlink:href="../../de/d09/level_8h.xhtml" target="_top" xlink:title="level.h">
<polygon fill="#ffffff" stroke="#000000" points="774.5,-168.9516 774.5,-187.9516 819.5,-187.9516 819.5,-168.9516 774.5,-168.9516"/>
<text text-anchor="middle" x="797" y="-175.9516" font-family="Helvetica,sans-Serif" font-size="10.00" fill="#000000">level.h</text>
</a>
</g>
</g>
<!-- Node16&#45;&gt;Node32 -->
<g id="edge55" class="edge">
<title>Node16&#45;&gt;Node32</title>
<path fill="none" stroke="#191970" d="M622.2846,-280.9026C655.6916,-261.3131 732.1705,-216.4669 771.9406,-193.1462"/>
<polygon fill="#191970" stroke="#191970" points="773.9008,-196.0541 780.7567,-187.9765 770.3599,-190.0157 773.9008,-196.0541"/>
</g>
<!-- Node20 -->
<g id="node21" class="node">
<title>Node20</title>
<polygon fill="#ffffff" stroke="#bfbfbf" points="837.5,-168.9516 837.5,-187.9516 882.5,-187.9516 882.5,-168.9516 837.5,-168.9516"/>
<text text-anchor="middle" x="860" y="-175.9516" font-family="Helvetica,sans-Serif" font-size="10.00" fill="#000000">cstdlib</text>
</g>
<!-- Node19&#45;&gt;Node20 -->
<g id="edge30" class="edge">
<title>Node19&#45;&gt;Node20</title>
<path fill="none" stroke="#191970" d="M817.8835,-224.6972C825.1966,-216.6672 835.7391,-205.091 844.4467,-195.5298"/>
<polygon fill="#191970" stroke="#191970" points="847.0727,-197.8444 851.2183,-188.0943 841.8972,-193.1311 847.0727,-197.8444"/>
</g>
<!-- Node21&#45;&gt;Node3 -->
<g id="edge33" class="edge">
<title>Node21&#45;&gt;Node3</title>
<path fill="none" stroke="#191970" d="M395.794,-224.948C401.9479,-210.6952 415.4219,-183.8203 435,-168.4516 442.7556,-162.3635 494.1093,-145.2672 530.1633,-133.7209"/>
<polygon fill="#191970" stroke="#191970" points="531.4126,-136.9963 539.8778,-130.6252 529.2872,-130.3268 531.4126,-136.9963"/>
</g>
<!-- Node21&#45;&gt;Node6 -->
<g id="edge35" class="edge">
<title>Node21&#45;&gt;Node6</title>
<path fill="none" stroke="#191970" d="M362.4044,-224.8856C340.4817,-217.0163 310.4692,-204.5495 287,-188.4516 242.7682,-158.1123 200.9803,-110.2089 180.0226,-84.3797"/>
<polygon fill="#191970" stroke="#191970" points="182.4858,-81.8557 173.5084,-76.2292 177.0176,-86.226 182.4858,-81.8557"/>
</g>
<!-- Node22 -->
<g id="node23" class="node">
<title>Node22</title>
<polygon fill="#ffffff" stroke="#bfbfbf" points="444,-168.9516 444,-187.9516 490,-187.9516 490,-168.9516 444,-168.9516"/>
<text text-anchor="middle" x="467" y="-175.9516" font-family="Helvetica,sans-Serif" font-size="10.00" fill="#000000">atomic</text>
</g>
<!-- Node21&#45;&gt;Node22 -->
<g id="edge32" class="edge">
<title>Node21&#45;&gt;Node22</title>
<path fill="none" stroke="#191970" d="M405.064,-224.6972C416.3562,-216.2657 432.8845,-203.9245 446.0271,-194.1114"/>
<polygon fill="#191970" stroke="#191970" points="448.1669,-196.8817 454.0857,-188.0943 443.9789,-191.2728 448.1669,-196.8817"/>
</g>
<!-- Node21&#45;&gt;Node23 -->
<g id="edge34" class="edge">
<title>Node21&#45;&gt;Node23</title>
<path fill="none" stroke="#191970" d="M448.7711,-226.9309C505.659,-219.0744 595.9197,-205.7414 683.844,-188.3382"/>
<polygon fill="#191970" stroke="#191970" points="684.6005,-191.7563 693.7204,-186.364 683.2283,-184.8921 684.6005,-191.7563"/>
</g>
<!-- Node24 -->
<g id="node25" class="node">
<title>Node24</title>
<g id="a_node25"><a xlink:href="../../dc/dcf/externalsstream_8h.xhtml" target="_top" xlink:title="externalsstream.h">
<polygon fill="#ffffff" stroke="#000000" points="795.5,-112.9516 795.5,-131.9516 890.5,-131.9516 890.5,-112.9516 795.5,-112.9516"/>
<text text-anchor="middle" x="843" y="-119.9516" font-family="Helvetica,sans-Serif" font-size="10.00" fill="#000000">externalsstream.h</text>
</a>
</g>
</g>
<!-- Node21&#45;&gt;Node24 -->
<g id="edge36" class="edge">
<title>Node21&#45;&gt;Node24</title>
<path fill="none" stroke="#191970" d="M415.6149,-224.9242C437.4554,-215.9658 470.7142,-201.9498 499,-188.4516 516.2245,-180.232 518.8481,-174.347 537,-168.4516 640.3372,-134.89 673.7012,-149.2376 785.4571,-132.4557"/>
<polygon fill="#191970" stroke="#191970" points="786.0876,-135.8999 795.4322,-130.9071 785.0136,-128.9827 786.0876,-135.8999"/>
</g>
<!-- Node25 -->
<g id="node26" class="node">
<title>Node25</title>
<g id="a_node26"><a xlink:href="../../d6/d90/strings_8h.xhtml" target="_top" xlink:title="strings.h">
<polygon fill="#ffffff" stroke="#000000" points="296,-168.9516 296,-187.9516 350,-187.9516 350,-168.9516 296,-168.9516"/>
<text text-anchor="middle" x="323" y="-175.9516" font-family="Helvetica,sans-Serif" font-size="10.00" fill="#000000">strings.h</text>
</a>
</g>
</g>
<!-- Node21&#45;&gt;Node25 -->
<g id="edge39" class="edge">
<title>Node21&#45;&gt;Node25</title>
<path fill="none" stroke="#191970" d="M379.9811,-224.6972C369.7902,-216.4263 354.9638,-204.3933 342.9893,-194.6749"/>
<polygon fill="#191970" stroke="#191970" points="344.8514,-191.6784 334.8812,-188.0943 340.4402,-197.1136 344.8514,-191.6784"/>
</g>
<!-- Node24&#45;&gt;Node2 -->
<g id="edge37" class="edge">
<title>Node24&#45;&gt;Node2</title>
<path fill="none" stroke="#191970" d="M861.4638,-112.6972C878.1074,-103.9043 902.7993,-90.8596 921.7192,-80.8641"/>
<polygon fill="#191970" stroke="#191970" points="923.5408,-83.8602 930.7478,-76.0943 920.2709,-77.6709 923.5408,-83.8602"/>
</g>
<!-- Node24&#45;&gt;Node4 -->
<g id="edge38" class="edge">
<title>Node24&#45;&gt;Node4</title>
<path fill="none" stroke="#191970" d="M828.3868,-112.9407C804.9072,-98.1669 756.8576,-69.9976 712,-56.4516 646.3455,-36.6255 440.2409,-19.0091 361.2423,-12.8135"/>
<polygon fill="#191970" stroke="#191970" points="361.2075,-9.3004 350.9667,-12.016 360.6658,-16.2794 361.2075,-9.3004"/>
</g>
<!-- Node25&#45;&gt;Node3 -->
<g id="edge43" class="edge">
<title>Node25&#45;&gt;Node3</title>
<path fill="none" stroke="#191970" d="M350.3228,-171.6791C354.8851,-170.5794 359.5727,-169.4685 364,-168.4516 434.9651,-152.1515 455.667,-150.9649 529.856,-132.6238"/>
<polygon fill="#191970" stroke="#191970" points="530.8214,-135.9904 539.6768,-130.1738 529.127,-129.1985 530.8214,-135.9904"/>
</g>
<!-- Node25&#45;&gt;Node4 -->
<g id="edge45" class="edge">
<title>Node25&#45;&gt;Node4</title>
<path fill="none" stroke="#191970" d="M323.2409,-168.6096C323.5697,-155.7103 324.2096,-132.3826 325,-112.4516 326.1382,-83.7522 327.8381,-50.5295 328.933,-30.0009"/>
<polygon fill="#191970" stroke="#191970" points="332.4281,-30.1855 329.4717,-20.0115 325.4382,-29.8085 332.4281,-30.1855"/>
</g>
<!-- Node25&#45;&gt;Node10 -->
<g id="edge41" class="edge">
<title>Node25&#45;&gt;Node10</title>
<path fill="none" stroke="#191970" d="M295.6185,-171.6967C255.7136,-161.8523 181.3547,-143.5083 135.5192,-132.2009"/>
<polygon fill="#191970" stroke="#191970" points="136.1835,-128.7599 125.6362,-129.7628 134.5068,-135.5561 136.1835,-128.7599"/>
</g>
<!-- Node26 -->
<g id="node27" class="node">
<title>Node26</title>
<polygon fill="#ffffff" stroke="#bfbfbf" points="334.5,-112.9516 334.5,-131.9516 383.5,-131.9516 383.5,-112.9516 334.5,-112.9516"/>
<text text-anchor="middle" x="359" y="-119.9516" font-family="Helvetica,sans-Serif" font-size="10.00" fill="#000000">cstdarg</text>
</g>
<!-- Node25&#45;&gt;Node26 -->
<g id="edge40" class="edge">
<title>Node25&#45;&gt;Node26</title>
<path fill="none" stroke="#191970" d="M329.2707,-168.6972C334.2264,-160.9884 341.283,-150.0114 347.2776,-140.6864"/>
<polygon fill="#191970" stroke="#191970" points="350.3376,-142.3988 352.8011,-132.0943 344.4494,-138.6134 350.3376,-142.3988"/>
</g>
<!-- Node27 -->
<g id="node28" class="node">
<title>Node27</title>
<polygon fill="#ffffff" stroke="#bfbfbf" points="402,-112.9516 402,-131.9516 452,-131.9516 452,-112.9516 402,-112.9516"/>
<text text-anchor="middle" x="427" y="-119.9516" font-family="Helvetica,sans-Serif" font-size="10.00" fill="#000000">iomanip</text>
</g>
<!-- Node25&#45;&gt;Node27 -->
<g id="edge42" class="edge">
<title>Node25&#45;&gt;Node27</title>
<path fill="none" stroke="#191970" d="M341.1154,-168.6972C357.445,-159.9043 381.671,-146.8596 400.2339,-136.8641"/>
<polygon fill="#191970" stroke="#191970" points="401.9468,-139.917 409.0922,-132.0943 398.6281,-133.7537 401.9468,-139.917"/>
</g>
<!-- Node28 -->
<g id="node29" class="node">
<title>Node28</title>
<polygon fill="#ffffff" stroke="#bfbfbf" points="470,-112.9516 470,-131.9516 522,-131.9516 522,-112.9516 470,-112.9516"/>
<text text-anchor="middle" x="496" y="-119.9516" font-family="Helvetica,sans-Serif" font-size="10.00" fill="#000000">sstream</text>
</g>
<!-- Node25&#45;&gt;Node28 -->
<g id="edge44" class="edge">
<title>Node25&#45;&gt;Node28</title>
<path fill="none" stroke="#191970" d="M350.0313,-169.7016C379.6574,-160.1117 427.3225,-144.6825 460.0755,-134.0804"/>
<polygon fill="#191970" stroke="#191970" points="461.289,-137.3665 469.725,-130.9568 459.1331,-130.7067 461.289,-137.3665"/>
</g>
<!-- Node29 -->
<g id="node30" class="node">
<title>Node29</title>
<polygon fill="#ffffff" stroke="#bfbfbf" points="733,-112.9516 733,-131.9516 777,-131.9516 777,-112.9516 733,-112.9516"/>
<text text-anchor="middle" x="755" y="-119.9516" font-family="Helvetica,sans-Serif" font-size="10.00" fill="#000000">vector</text>
</g>
<!-- Node25&#45;&gt;Node29 -->
<g id="edge46" class="edge">
<title>Node25&#45;&gt;Node29</title>
<path fill="none" stroke="#191970" d="M350.2233,-176.0372C425.3438,-169.2667 635.2529,-149.5929 722.9648,-132.2452"/>
<polygon fill="#191970" stroke="#191970" points="723.7175,-135.6637 732.7928,-130.1965 722.2889,-128.811 723.7175,-135.6637"/>
</g>
<!-- Node30&#45;&gt;Node11 -->
<g id="edge49" class="edge">
<title>Node30&#45;&gt;Node11</title>
<path fill="none" stroke="#191970" d="M628.2844,-224.6972C617.398,-216.346 601.5117,-204.1593 588.78,-194.3925"/>
<polygon fill="#191970" stroke="#191970" points="590.6346,-191.4039 580.5699,-188.0943 586.3739,-196.958 590.6346,-191.4039"/>
</g>
<!-- Node31 -->
<g id="node32" class="node">
<title>Node31</title>
<polygon fill="#ffffff" stroke="#bfbfbf" points="646.5,-168.9516 646.5,-187.9516 675.5,-187.9516 675.5,-168.9516 646.5,-168.9516"/>
<text text-anchor="middle" x="661" y="-175.9516" font-family="Helvetica,sans-Serif" font-size="10.00" fill="#000000">list</text>
</g>
<!-- Node30&#45;&gt;Node31 -->
<g id="edge48" class="edge">
<title>Node30&#45;&gt;Node31</title>
<path fill="none" stroke="#191970" d="M644.4837,-224.6972C647.1508,-217.2293 650.9133,-206.6943 654.1737,-197.5653"/>
<polygon fill="#191970" stroke="#191970" points="657.4889,-198.6889 657.5562,-188.0943 650.8967,-196.3345 657.4889,-198.6889"/>
</g>
<!-- Node30&#45;&gt;Node32 -->
<g id="edge50" class="edge">
<title>Node30&#45;&gt;Node32</title>
<path fill="none" stroke="#191970" d="M667.8174,-224.8249C694.6242,-215.2019 735.8714,-200.3952 764.5183,-190.1117"/>
<polygon fill="#191970" stroke="#191970" points="765.8518,-193.3518 774.0812,-186.6789 763.4867,-186.7634 765.8518,-193.3518"/>
</g>
<!-- Node33 -->
<g id="node34" class="node">
<title>Node33</title>
<g id="a_node34"><a xlink:href="../../d0/d9b/enum_8h.xhtml" target="_top" xlink:title="../util/enum.h">
<polygon fill="#ffffff" stroke="#000000" points="641,-112.9516 641,-131.9516 715,-131.9516 715,-112.9516 641,-112.9516"/>
<text text-anchor="middle" x="678" y="-119.9516" font-family="Helvetica,sans-Serif" font-size="10.00" fill="#000000">../util/enum.h</text>
</a>
</g>
</g>
<!-- Node32&#45;&gt;Node33 -->
<g id="edge51" class="edge">
<title>Node32&#45;&gt;Node33</title>
<path fill="none" stroke="#191970" d="M776.5432,-168.8249C757.5262,-159.8757 728.9825,-146.4434 707.5024,-136.3351"/>
<polygon fill="#191970" stroke="#191970" points="708.7284,-133.0439 698.1899,-131.9528 705.7478,-139.3776 708.7284,-133.0439"/>
</g>
<!-- Node33&#45;&gt;Node2 -->
<g id="edge52" class="edge">
<title>Node33&#45;&gt;Node2</title>
<path fill="none" stroke="#191970" d="M715.1486,-114.3345C718.1424,-113.693 721.1212,-113.0588 724,-112.4516 790.0938,-98.5118 867.2493,-82.8761 911.8788,-73.8942"/>
<polygon fill="#191970" stroke="#191970" points="912.849,-77.2693 921.9629,-71.8666 911.4691,-70.4066 912.849,-77.2693"/>
</g>
<!-- Node33&#45;&gt;Node6 -->
<g id="edge54" class="edge">
<title>Node33&#45;&gt;Node6</title>
<path fill="none" stroke="#191970" d="M640.8156,-117.441C628.1861,-115.7875 613.9861,-113.9813 601,-112.4516 459.1668,-95.7448 290.9741,-78.7605 211.6868,-70.9219"/>
<polygon fill="#191970" stroke="#191970" points="211.8507,-67.4211 201.5553,-69.9222 211.1633,-74.3873 211.8507,-67.4211"/>
</g>
<!-- Node34 -->
<g id="node35" class="node">
<title>Node34</title>
<polygon fill="#ffffff" stroke="#bfbfbf" points="652.5,-56.9516 652.5,-75.9516 703.5,-75.9516 703.5,-56.9516 652.5,-56.9516"/>
<text text-anchor="middle" x="678" y="-63.9516" font-family="Helvetica,sans-Serif" font-size="10.00" fill="#000000">typeinfo</text>
</g>
<!-- Node33&#45;&gt;Node34 -->
<g id="edge53" class="edge">
<title>Node33&#45;&gt;Node34</title>
<path fill="none" stroke="#191970" d="M678,-112.6972C678,-105.3899 678,-95.146 678,-86.1562"/>
<polygon fill="#191970" stroke="#191970" points="681.5001,-86.0943 678,-76.0943 674.5001,-86.0943 681.5001,-86.0943"/>
</g>
<!-- Node35&#45;&gt;Node6 -->
<g id="edge58" class="edge">
<title>Node35&#45;&gt;Node6</title>
<path fill="none" stroke="#191970" d="M58.5154,-168.5571C53.0018,-154.7596 45.6786,-129.5178 57,-112.4516 71.0944,-91.2054 97.1479,-79.7479 120.2492,-73.5816"/>
<polygon fill="#191970" stroke="#191970" points="121.3562,-76.9154 130.2626,-71.1771 119.7218,-70.1088 121.3562,-76.9154"/>
</g>
<!-- Node35&#45;&gt;Node10 -->
<g id="edge57" class="edge">
<title>Node35&#45;&gt;Node10</title>
<path fill="none" stroke="#191970" d="M68.7482,-168.6972C73.2435,-161.0687 79.6248,-150.2398 85.0825,-140.9784"/>
<polygon fill="#191970" stroke="#191970" points="88.2561,-142.4866 90.3177,-132.0943 82.2253,-138.9328 88.2561,-142.4866"/>
</g>
<!-- Node36&#45;&gt;Node4 -->
<g id="edge61" class="edge">
<title>Node36&#45;&gt;Node4</title>
<path fill="none" stroke="#191970" d="M927.6795,-504.9305C984.1883,-485.2675 1099,-434.485 1099,-346.4516 1099,-346.4516 1099,-346.4516 1099,-122.4516 1099,-71.7674 1053.7392,-73.4768 1006,-56.4516 944.7629,-34.6128 485.1465,-16.1875 360.8885,-11.5669"/>
<polygon fill="#191970" stroke="#191970" points="360.6966,-8.0576 350.5744,-11.1866 360.4386,-15.0528 360.6966,-8.0576"/>
</g>
<!-- Node36&#45;&gt;Node9 -->
<g id="edge64" class="edge">
<title>Node36&#45;&gt;Node9</title>
<path fill="none" stroke="#191970" d="M831.3898,-507.8906C727.7607,-497.5277 526.5833,-477.41 415.4686,-466.2985"/>
<polygon fill="#191970" stroke="#191970" points="415.6297,-462.7972 405.3311,-465.2847 414.9332,-469.7625 415.6297,-462.7972"/>
</g>
<!-- Node36&#45;&gt;Node17 -->
<g id="edge60" class="edge">
<title>Node36&#45;&gt;Node17</title>
<path fill="none" stroke="#191970" d="M889.1448,-504.7636C882.2162,-495.8073 872.272,-481.8908 866,-468.4516 853.0909,-440.791 847,-432.9763 847,-402.4516 847,-402.4516 847,-402.4516 847,-346.4516 847,-310.7698 868.133,-273.6502 882.6419,-252.3703"/>
<polygon fill="#191970" stroke="#191970" points="885.6329,-254.2028 888.558,-244.0198 879.9211,-250.1562 885.6329,-254.2028"/>
</g>
<!-- Node36&#45;&gt;Node29 -->
<g id="edge62" class="edge">
<title>Node36&#45;&gt;Node29</title>
<path fill="none" stroke="#191970" d="M906.0741,-504.7759C913.5963,-496.0429 923.7231,-482.451 928,-468.4516 959.6849,-364.7392 959.211,-328.3077 928,-224.4516 919.4145,-195.883 914.6292,-186.6598 891,-168.4516 888.8443,-166.7905 826.299,-145.9755 786.7881,-132.9215"/>
<polygon fill="#191970" stroke="#191970" points="787.8831,-129.5972 777.29,-129.7862 785.6889,-136.2445 787.8831,-129.5972"/>
</g>
<!-- Node37 -->
<g id="node38" class="node">
<title>Node37</title>
<g id="a_node38"><a xlink:href="../../d5/d64/defs_8h.xhtml" target="_top" xlink:title="defs.h">
<polygon fill="#ffffff" stroke="#000000" points="875,-448.9516 875,-467.9516 919,-467.9516 919,-448.9516 875,-448.9516"/>
<text text-anchor="middle" x="897" y="-455.9516" font-family="Helvetica,sans-Serif" font-size="10.00" fill="#000000">defs.h</text>
</a>
</g>
</g>
<!-- Node36&#45;&gt;Node37 -->
<g id="edge63" class="edge">
<title>Node36&#45;&gt;Node37</title>
<path fill="none" stroke="#191970" d="M897,-504.6972C897,-497.3899 897,-487.146 897,-478.1562"/>
<polygon fill="#191970" stroke="#191970" points="900.5001,-478.0943 897,-468.0943 893.5001,-478.0943 900.5001,-478.0943"/>
</g>
</g>
</svg>
