<?xml version="1.0" encoding="UTF-8" standalone="no"?>
<!DOCTYPE svg PUBLIC "-//W3C//DTD SVG 1.1//EN"
 "http://www.w3.org/Graphics/SVG/1.1/DTD/svg11.dtd">
<!-- Generated by graphviz version 2.40.1 (20161225.0304)
 -->
<!-- Title: openage::event::demo::ResetGame Pages: 1 -->
<svg width="148pt" height="375pt"
 viewBox="0.00 0.00 148.00 375.00" xmlns="http://www.w3.org/2000/svg" xmlns:xlink="http://www.w3.org/1999/xlink">
<g id="graph0" class="graph" transform="scale(1 1) rotate(0) translate(4 371)">
<title>openage::event::demo::ResetGame</title>
<polygon fill="#ffffff" stroke="transparent" points="-4,4 -4,-371 144,-371 144,4 -4,4"/>
<!-- Node0 -->
<g id="node1" class="node">
<title>Node0</title>
<polygon fill="#bfbfbf" stroke="#000000" points="10.5,-.5 10.5,-101.5 129.5,-101.5 129.5,-.5 10.5,-.5"/>
<text text-anchor="start" x="18.5" y="-89.5" font-family="Helvetica,sans-Serif" font-size="10.00" fill="#000000">openage::event::demo</text>
<text text-anchor="middle" x="70" y="-78.5" font-family="Helvetica,sans-Serif" font-size="10.00" fill="#000000">::ResetGame</text>
<polyline fill="none" stroke="#000000" points="10.5,-71.5 129.5,-71.5 "/>
<text text-anchor="middle" x="70" y="-59.5" font-family="Helvetica,sans-Serif" font-size="10.00" fill="#000000"> </text>
<polyline fill="none" stroke="#000000" points="10.5,-52.5 129.5,-52.5 "/>
<text text-anchor="start" x="18.5" y="-40.5" font-family="Helvetica,sans-Serif" font-size="10.00" fill="#000000">+ ResetGame()</text>
<text text-anchor="start" x="18.5" y="-29.5" font-family="Helvetica,sans-Serif" font-size="10.00" fill="#000000">+ setup_event()</text>
<text text-anchor="start" x="18.5" y="-18.5" font-family="Helvetica,sans-Serif" font-size="10.00" fill="#000000">+ invoke()</text>
<text text-anchor="start" x="18.5" y="-7.5" font-family="Helvetica,sans-Serif" font-size="10.00" fill="#000000">+ predict_invoke_time()</text>
</g>
<!-- Node1 -->
<g id="node2" class="node">
<title>Node1</title>
<g id="a_node2"><a xlink:href="../../d1/d6c/classopenage_1_1event_1_1_once_event_class.xhtml" target="_top" xlink:title="{openage::event::OnceEvent\lClass\n||+ OnceEventClass()\l}">
<polygon fill="#ffffff" stroke="#000000" points="1,-138.5 1,-206.5 139,-206.5 139,-138.5 1,-138.5"/>
<text text-anchor="start" x="9" y="-194.5" font-family="Helvetica,sans-Serif" font-size="10.00" fill="#000000">openage::event::OnceEvent</text>
<text text-anchor="middle" x="70" y="-183.5" font-family="Helvetica,sans-Serif" font-size="10.00" fill="#000000">Class</text>
<polyline fill="none" stroke="#000000" points="1,-176.5 139,-176.5 "/>
<text text-anchor="middle" x="70" y="-164.5" font-family="Helvetica,sans-Serif" font-size="10.00" fill="#000000"> </text>
<polyline fill="none" stroke="#000000" points="1,-157.5 139,-157.5 "/>
<text text-anchor="start" x="9" y="-145.5" font-family="Helvetica,sans-Serif" font-size="10.00" fill="#000000">+ OnceEventClass()</text>
</a>
</g>
</g>
<!-- Node1&#45;&gt;Node0 -->
<g id="edge1" class="edge">
<title>Node1&#45;&gt;Node0</title>
<path fill="none" stroke="#191970" d="M70,-128.1349C70,-119.5408 70,-110.474 70,-101.6952"/>
<polygon fill="none" stroke="#191970" points="66.5001,-128.3321 70,-138.3321 73.5001,-128.3322 66.5001,-128.3321"/>
</g>
<!-- Node2 -->
<g id="node3" class="node">
<title>Node2</title>
<g id="a_node3"><a xlink:href="../../de/de9/classopenage_1_1event_1_1_event_class.xhtml" target="_top" xlink:title="A eventclass has to be implemented for every type of event that exists. ">
<polygon fill="#ffffff" stroke="#000000" points="0,-243.5 0,-366.5 140,-366.5 140,-243.5 0,-243.5"/>
<text text-anchor="middle" x="70" y="-354.5" font-family="Helvetica,sans-Serif" font-size="10.00" fill="#000000">openage::event::EventClass</text>
<polyline fill="none" stroke="#000000" points="0,-347.5 140,-347.5 "/>
<text text-anchor="start" x="8" y="-335.5" font-family="Helvetica,sans-Serif" font-size="10.00" fill="#000000">+ type</text>
<text text-anchor="start" x="8" y="-324.5" font-family="Helvetica,sans-Serif" font-size="10.00" fill="#000000">&#45; _id</text>
<polyline fill="none" stroke="#000000" points="0,-317.5 140,-317.5 "/>
<text text-anchor="start" x="8" y="-305.5" font-family="Helvetica,sans-Serif" font-size="10.00" fill="#000000">+ EventClass()</text>
<text text-anchor="start" x="8" y="-294.5" font-family="Helvetica,sans-Serif" font-size="10.00" fill="#000000">+ ~EventClass()</text>
<text text-anchor="start" x="8" y="-283.5" font-family="Helvetica,sans-Serif" font-size="10.00" fill="#000000">+ id()</text>
<text text-anchor="start" x="8" y="-272.5" font-family="Helvetica,sans-Serif" font-size="10.00" fill="#000000">+ setup_event()</text>
<text text-anchor="start" x="8" y="-261.5" font-family="Helvetica,sans-Serif" font-size="10.00" fill="#000000">+ invoke()</text>
<text text-anchor="start" x="8" y="-250.5" font-family="Helvetica,sans-Serif" font-size="10.00" fill="#000000">+ predict_invoke_time()</text>
</a>
</g>
</g>
<!-- Node2&#45;&gt;Node1 -->
<g id="edge2" class="edge">
<title>Node2&#45;&gt;Node1</title>
<path fill="none" stroke="#191970" d="M70,-233.3746C70,-224.1502 70,-215.0658 70,-206.8429"/>
<polygon fill="none" stroke="#191970" points="66.5001,-233.4048 70,-243.4048 73.5001,-233.4048 66.5001,-233.4048"/>
</g>
</g>
</svg>
