<?xml version="1.0" encoding="UTF-8" standalone="no"?>
<!DOCTYPE svg PUBLIC "-//W3C//DTD SVG 1.1//EN"
 "http://www.w3.org/Graphics/SVG/1.1/DTD/svg11.dtd">
<!-- Generated by graphviz version 2.40.1 (20161225.0304)
 -->
<!-- Title: /mnt/c/Users/Jameson/Desktop/git/openage&#45;new&#45;doc&#45;system/libopenage/renderer/shader_program.h Pages: 1 -->
<svg width="617pt" height="328pt"
 viewBox="0.00 0.00 617.00 328.00" xmlns="http://www.w3.org/2000/svg" xmlns:xlink="http://www.w3.org/1999/xlink">
<g id="graph0" class="graph" transform="scale(1 1) rotate(0) translate(4 324)">
<title>/mnt/c/Users/Jameson/Desktop/git/openage&#45;new&#45;doc&#45;system/libopenage/renderer/shader_program.h</title>
<polygon fill="#ffffff" stroke="transparent" points="-4,4 -4,-324 613,-324 613,4 -4,4"/>
<!-- Node45 -->
<g id="node1" class="node">
<title>Node45</title>
<polygon fill="#bfbfbf" stroke="#000000" points="281,-267.5 281,-319.5 422,-319.5 422,-267.5 281,-267.5"/>
<text text-anchor="start" x="289" y="-307.5" font-family="Helvetica,sans-Serif" font-size="10.00" fill="#000000">/mnt/c/Users/Jameson</text>
<text text-anchor="start" x="289" y="-296.5" font-family="Helvetica,sans-Serif" font-size="10.00" fill="#000000">/Desktop/git/openage</text>
<text text-anchor="start" x="289" y="-285.5" font-family="Helvetica,sans-Serif" font-size="10.00" fill="#000000">&#45;new&#45;doc&#45;system/libopenage</text>
<text text-anchor="middle" x="351.5" y="-274.5" font-family="Helvetica,sans-Serif" font-size="10.00" fill="#000000">/renderer/shader_program.h</text>
</g>
<!-- Node46 -->
<g id="node2" class="node">
<title>Node46</title>
<g id="a_node2"><a xlink:href="../../d5/dc1/opengl_2shader__program_8h.xhtml" target="_top" xlink:title="/mnt/c/Users/Jameson\l/Desktop/git/openage\l&#45;new&#45;doc&#45;system/libopenage\l/renderer/opengl/shader_program.h">
<polygon fill="#ffffff" stroke="#000000" points="93,-178.5 93,-230.5 260,-230.5 260,-178.5 93,-178.5"/>
<text text-anchor="start" x="101" y="-218.5" font-family="Helvetica,sans-Serif" font-size="10.00" fill="#000000">/mnt/c/Users/Jameson</text>
<text text-anchor="start" x="101" y="-207.5" font-family="Helvetica,sans-Serif" font-size="10.00" fill="#000000">/Desktop/git/openage</text>
<text text-anchor="start" x="101" y="-196.5" font-family="Helvetica,sans-Serif" font-size="10.00" fill="#000000">&#45;new&#45;doc&#45;system/libopenage</text>
<text text-anchor="middle" x="176.5" y="-185.5" font-family="Helvetica,sans-Serif" font-size="10.00" fill="#000000">/renderer/opengl/shader_program.h</text>
</a>
</g>
</g>
<!-- Node45&#45;&gt;Node46 -->
<g id="edge1" class="edge">
<title>Node45&#45;&gt;Node46</title>
<path fill="none" stroke="#191970" d="M290.9498,-262.7059C270.3321,-252.2203 247.502,-240.6096 227.6907,-230.5341"/>
<polygon fill="#191970" stroke="#191970" points="289.4406,-265.865 299.9407,-267.2784 292.6139,-259.6255 289.4406,-265.865"/>
</g>
<!-- Node51 -->
<g id="node7" class="node">
<title>Node51</title>
<g id="a_node7"><a xlink:href="../../dc/d6c/renderer_2tests_8cpp.xhtml" target="_top" xlink:title="/mnt/c/Users/Jameson\l/Desktop/git/openage\l&#45;new&#45;doc&#45;system/libopenage\l/renderer/tests.cpp">
<polygon fill="#ffffff" stroke="#000000" points="281,-178.5 281,-230.5 422,-230.5 422,-178.5 281,-178.5"/>
<text text-anchor="start" x="289" y="-218.5" font-family="Helvetica,sans-Serif" font-size="10.00" fill="#000000">/mnt/c/Users/Jameson</text>
<text text-anchor="start" x="289" y="-207.5" font-family="Helvetica,sans-Serif" font-size="10.00" fill="#000000">/Desktop/git/openage</text>
<text text-anchor="start" x="289" y="-196.5" font-family="Helvetica,sans-Serif" font-size="10.00" fill="#000000">&#45;new&#45;doc&#45;system/libopenage</text>
<text text-anchor="middle" x="351.5" y="-185.5" font-family="Helvetica,sans-Serif" font-size="10.00" fill="#000000">/renderer/tests.cpp</text>
</a>
</g>
</g>
<!-- Node45&#45;&gt;Node51 -->
<g id="edge7" class="edge">
<title>Node45&#45;&gt;Node51</title>
<path fill="none" stroke="#191970" d="M351.5,-257.1155C351.5,-248.2061 351.5,-238.8475 351.5,-230.5341"/>
<polygon fill="#191970" stroke="#191970" points="348.0001,-257.2784 351.5,-267.2784 355.0001,-257.2785 348.0001,-257.2784"/>
</g>
<!-- Node52 -->
<g id="node8" class="node">
<title>Node52</title>
<g id="a_node8"><a xlink:href="../../dd/dd6/vulkan_2shader__program_8h.xhtml" target="_top" xlink:title="/mnt/c/Users/Jameson\l/Desktop/git/openage\l&#45;new&#45;doc&#45;system/libopenage\l/renderer/vulkan/shader_program.h">
<polygon fill="#ffffff" stroke="#000000" points="442,-178.5 442,-230.5 609,-230.5 609,-178.5 442,-178.5"/>
<text text-anchor="start" x="450" y="-218.5" font-family="Helvetica,sans-Serif" font-size="10.00" fill="#000000">/mnt/c/Users/Jameson</text>
<text text-anchor="start" x="450" y="-207.5" font-family="Helvetica,sans-Serif" font-size="10.00" fill="#000000">/Desktop/git/openage</text>
<text text-anchor="start" x="450" y="-196.5" font-family="Helvetica,sans-Serif" font-size="10.00" fill="#000000">&#45;new&#45;doc&#45;system/libopenage</text>
<text text-anchor="middle" x="525.5" y="-185.5" font-family="Helvetica,sans-Serif" font-size="10.00" fill="#000000">/renderer/vulkan/shader_program.h</text>
</a>
</g>
</g>
<!-- Node45&#45;&gt;Node52 -->
<g id="edge8" class="edge">
<title>Node45&#45;&gt;Node52</title>
<path fill="none" stroke="#191970" d="M411.7042,-262.7059C432.2041,-252.2203 454.9037,-240.6096 474.6018,-230.5341"/>
<polygon fill="#191970" stroke="#191970" points="410.0738,-259.6085 402.7646,-267.2784 413.2615,-265.8406 410.0738,-259.6085"/>
</g>
<!-- Node47 -->
<g id="node3" class="node">
<title>Node47</title>
<g id="a_node3"><a xlink:href="../../d5/d49/opengl_2renderer_8h.xhtml" target="_top" xlink:title="/mnt/c/Users/Jameson\l/Desktop/git/openage\l&#45;new&#45;doc&#45;system/libopenage\l/renderer/opengl/renderer.h">
<polygon fill="#ffffff" stroke="#000000" points="100,-89.5 100,-141.5 241,-141.5 241,-89.5 100,-89.5"/>
<text text-anchor="start" x="108" y="-129.5" font-family="Helvetica,sans-Serif" font-size="10.00" fill="#000000">/mnt/c/Users/Jameson</text>
<text text-anchor="start" x="108" y="-118.5" font-family="Helvetica,sans-Serif" font-size="10.00" fill="#000000">/Desktop/git/openage</text>
<text text-anchor="start" x="108" y="-107.5" font-family="Helvetica,sans-Serif" font-size="10.00" fill="#000000">&#45;new&#45;doc&#45;system/libopenage</text>
<text text-anchor="middle" x="170.5" y="-96.5" font-family="Helvetica,sans-Serif" font-size="10.00" fill="#000000">/renderer/opengl/renderer.h</text>
</a>
</g>
</g>
<!-- Node46&#45;&gt;Node47 -->
<g id="edge2" class="edge">
<title>Node46&#45;&gt;Node47</title>
<path fill="none" stroke="#191970" d="M174.0471,-168.1155C173.4465,-159.2061 172.8156,-149.8475 172.2551,-141.5341"/>
<polygon fill="#191970" stroke="#191970" points="170.5675,-168.5365 174.7323,-178.2784 177.5516,-168.0656 170.5675,-168.5365"/>
</g>
<!-- Node48 -->
<g id="node4" class="node">
<title>Node48</title>
<g id="a_node4"><a xlink:href="../../dd/d3d/opengl_2renderer_8cpp.xhtml" target="_top" xlink:title="/mnt/c/Users/Jameson\l/Desktop/git/openage\l&#45;new&#45;doc&#45;system/libopenage\l/renderer/opengl/renderer.cpp">
<polygon fill="#ffffff" stroke="#000000" points="0,-.5 0,-52.5 143,-52.5 143,-.5 0,-.5"/>
<text text-anchor="start" x="8" y="-40.5" font-family="Helvetica,sans-Serif" font-size="10.00" fill="#000000">/mnt/c/Users/Jameson</text>
<text text-anchor="start" x="8" y="-29.5" font-family="Helvetica,sans-Serif" font-size="10.00" fill="#000000">/Desktop/git/openage</text>
<text text-anchor="start" x="8" y="-18.5" font-family="Helvetica,sans-Serif" font-size="10.00" fill="#000000">&#45;new&#45;doc&#45;system/libopenage</text>
<text text-anchor="middle" x="71.5" y="-7.5" font-family="Helvetica,sans-Serif" font-size="10.00" fill="#000000">/renderer/opengl/renderer.cpp</text>
</a>
</g>
</g>
<!-- Node46&#45;&gt;Node48 -->
<g id="edge5" class="edge">
<title>Node46&#45;&gt;Node48</title>
<path fill="none" stroke="#191970" d="M118.4722,-172.0362C107.6917,-163.5628 97.6037,-153.5166 90.5,-142 73.7505,-114.8453 70.3992,-77.5564 70.312,-52.7768"/>
<polygon fill="#191970" stroke="#191970" points="116.6925,-175.0733 126.8131,-178.2076 120.856,-169.4461 116.6925,-175.0733"/>
</g>
<!-- Node50 -->
<g id="node6" class="node">
<title>Node50</title>
<g id="a_node6"><a xlink:href="../../de/d88/shader__program_8cpp.xhtml" target="_top" xlink:title="/mnt/c/Users/Jameson\l/Desktop/git/openage\l&#45;new&#45;doc&#45;system/libopenage\l/renderer/opengl/shader_program.cpp">
<polygon fill="#ffffff" stroke="#000000" points="259.5,-89.5 259.5,-141.5 437.5,-141.5 437.5,-89.5 259.5,-89.5"/>
<text text-anchor="start" x="267.5" y="-129.5" font-family="Helvetica,sans-Serif" font-size="10.00" fill="#000000">/mnt/c/Users/Jameson</text>
<text text-anchor="start" x="267.5" y="-118.5" font-family="Helvetica,sans-Serif" font-size="10.00" fill="#000000">/Desktop/git/openage</text>
<text text-anchor="start" x="267.5" y="-107.5" font-family="Helvetica,sans-Serif" font-size="10.00" fill="#000000">&#45;new&#45;doc&#45;system/libopenage</text>
<text text-anchor="middle" x="348.5" y="-96.5" font-family="Helvetica,sans-Serif" font-size="10.00" fill="#000000">/renderer/opengl/shader_program.cpp</text>
</a>
</g>
</g>
<!-- Node46&#45;&gt;Node50 -->
<g id="edge6" class="edge">
<title>Node46&#45;&gt;Node50</title>
<path fill="none" stroke="#191970" d="M236.2849,-173.5648C256.4777,-163.1162 278.8025,-151.5644 298.1868,-141.5341"/>
<polygon fill="#191970" stroke="#191970" points="234.4484,-170.5742 227.1754,-178.2784 237.6653,-176.7913 234.4484,-170.5742"/>
</g>
<!-- Node47&#45;&gt;Node48 -->
<g id="edge3" class="edge">
<title>Node47&#45;&gt;Node48</title>
<path fill="none" stroke="#191970" d="M133.8762,-82.5755C122.8524,-72.6653 110.913,-61.9319 100.4593,-52.5341"/>
<polygon fill="#191970" stroke="#191970" points="131.5556,-85.1958 141.3322,-89.2784 136.2354,-79.9901 131.5556,-85.1958"/>
</g>
<!-- Node49 -->
<g id="node5" class="node">
<title>Node49</title>
<g id="a_node5"><a xlink:href="../../da/d22/opengl_2window_8cpp.xhtml" target="_top" xlink:title="/mnt/c/Users/Jameson\l/Desktop/git/openage\l&#45;new&#45;doc&#45;system/libopenage\l/renderer/opengl/window.cpp">
<polygon fill="#ffffff" stroke="#000000" points="161,-.5 161,-52.5 302,-52.5 302,-.5 161,-.5"/>
<text text-anchor="start" x="169" y="-40.5" font-family="Helvetica,sans-Serif" font-size="10.00" fill="#000000">/mnt/c/Users/Jameson</text>
<text text-anchor="start" x="169" y="-29.5" font-family="Helvetica,sans-Serif" font-size="10.00" fill="#000000">/Desktop/git/openage</text>
<text text-anchor="start" x="169" y="-18.5" font-family="Helvetica,sans-Serif" font-size="10.00" fill="#000000">&#45;new&#45;doc&#45;system/libopenage</text>
<text text-anchor="middle" x="231.5" y="-7.5" font-family="Helvetica,sans-Serif" font-size="10.00" fill="#000000">/renderer/opengl/window.cpp</text>
</a>
</g>
</g>
<!-- Node47&#45;&gt;Node49 -->
<g id="edge4" class="edge">
<title>Node47&#45;&gt;Node49</title>
<path fill="none" stroke="#191970" d="M194.2472,-80.8525C200.7044,-71.4313 207.5868,-61.3897 213.6564,-52.5341"/>
<polygon fill="#191970" stroke="#191970" points="191.2386,-79.0512 188.4721,-89.2784 197.0126,-83.0086 191.2386,-79.0512"/>
</g>
<!-- Node53 -->
<g id="node9" class="node">
<title>Node53</title>
<g id="a_node9"><a xlink:href="../../d2/dfa/vulkan_2renderer_8cpp.xhtml" target="_top" xlink:title="/mnt/c/Users/Jameson\l/Desktop/git/openage\l&#45;new&#45;doc&#45;system/libopenage\l/renderer/vulkan/renderer.cpp">
<polygon fill="#ffffff" stroke="#000000" points="456,-89.5 456,-141.5 599,-141.5 599,-89.5 456,-89.5"/>
<text text-anchor="start" x="464" y="-129.5" font-family="Helvetica,sans-Serif" font-size="10.00" fill="#000000">/mnt/c/Users/Jameson</text>
<text text-anchor="start" x="464" y="-118.5" font-family="Helvetica,sans-Serif" font-size="10.00" fill="#000000">/Desktop/git/openage</text>
<text text-anchor="start" x="464" y="-107.5" font-family="Helvetica,sans-Serif" font-size="10.00" fill="#000000">&#45;new&#45;doc&#45;system/libopenage</text>
<text text-anchor="middle" x="527.5" y="-96.5" font-family="Helvetica,sans-Serif" font-size="10.00" fill="#000000">/renderer/vulkan/renderer.cpp</text>
</a>
</g>
</g>
<!-- Node52&#45;&gt;Node53 -->
<g id="edge9" class="edge">
<title>Node52&#45;&gt;Node53</title>
<path fill="none" stroke="#191970" d="M526.3176,-168.1155C526.5178,-159.2061 526.7281,-149.8475 526.915,-141.5341"/>
<polygon fill="#191970" stroke="#191970" points="522.8149,-168.2023 526.0892,-178.2784 529.8131,-168.3596 522.8149,-168.2023"/>
</g>
</g>
</svg>
