<?xml version="1.0" encoding="UTF-8" standalone="no"?>
<!DOCTYPE svg PUBLIC "-//W3C//DTD SVG 1.1//EN"
 "http://www.w3.org/Graphics/SVG/1.1/DTD/svg11.dtd">
<!-- Generated by graphviz version 2.40.1 (20161225.0304)
 -->
<!-- Title: qtsdl::GuiLiveReloaderAttachedProperty Pages: 1 -->
<svg width="187pt" height="215pt"
 viewBox="0.00 0.00 187.00 215.00" xmlns="http://www.w3.org/2000/svg" xmlns:xlink="http://www.w3.org/1999/xlink">
<g id="graph0" class="graph" transform="scale(1 1) rotate(0) translate(4 211)">
<title>qtsdl::GuiLiveReloaderAttachedProperty</title>
<polygon fill="#ffffff" stroke="transparent" points="-4,4 -4,-211 183,-211 183,4 -4,4"/>
<!-- Node0 -->
<g id="node1" class="node">
<title>Node0</title>
<polygon fill="#bfbfbf" stroke="#000000" points="0,-.5 0,-112.5 179,-112.5 179,-.5 0,-.5"/>
<text text-anchor="start" x="8" y="-100.5" font-family="Helvetica,sans-Serif" font-size="10.00" fill="#000000">qtsdl::GuiLiveReloaderAttached</text>
<text text-anchor="middle" x="89.5" y="-89.5" font-family="Helvetica,sans-Serif" font-size="10.00" fill="#000000">Property</text>
<polyline fill="none" stroke="#000000" points="0,-82.5 179,-82.5 "/>
<text text-anchor="start" x="8" y="-70.5" font-family="Helvetica,sans-Serif" font-size="10.00" fill="#000000">+ tag</text>
<polyline fill="none" stroke="#000000" points="0,-63.5 179,-63.5 "/>
<text text-anchor="start" x="8" y="-51.5" font-family="Helvetica,sans-Serif" font-size="10.00" fill="#000000">+ GuiLiveReloaderAttachedProperty()</text>
<text text-anchor="start" x="8" y="-40.5" font-family="Helvetica,sans-Serif" font-size="10.00" fill="#000000">+ get_attachee()</text>
<text text-anchor="start" x="8" y="-29.5" font-family="Helvetica,sans-Serif" font-size="10.00" fill="#000000">+ get_tag()</text>
<text text-anchor="start" x="8" y="-18.5" font-family="Helvetica,sans-Serif" font-size="10.00" fill="#000000">+ set_tag()</text>
<text text-anchor="start" x="8" y="-7.5" font-family="Helvetica,sans-Serif" font-size="10.00" fill="#000000">+ get_tag_for_init()</text>
</g>
<!-- Node1 -->
<g id="node2" class="node">
<title>Node1</title>
<polygon fill="#ffffff" stroke="#bfbfbf" points="63,-149.5 63,-206.5 116,-206.5 116,-149.5 63,-149.5"/>
<text text-anchor="middle" x="89.5" y="-194.5" font-family="Helvetica,sans-Serif" font-size="10.00" fill="#000000">QObject</text>
<polyline fill="none" stroke="#bfbfbf" points="63,-187.5 116,-187.5 "/>
<text text-anchor="middle" x="89.5" y="-175.5" font-family="Helvetica,sans-Serif" font-size="10.00" fill="#000000"> </text>
<polyline fill="none" stroke="#bfbfbf" points="63,-168.5 116,-168.5 "/>
<text text-anchor="middle" x="89.5" y="-156.5" font-family="Helvetica,sans-Serif" font-size="10.00" fill="#000000"> </text>
</g>
<!-- Node1&#45;&gt;Node0 -->
<g id="edge1" class="edge">
<title>Node1&#45;&gt;Node0</title>
<path fill="none" stroke="#191970" d="M89.5,-139.0021C89.5,-130.6329 89.5,-121.6292 89.5,-112.7541"/>
<polygon fill="none" stroke="#191970" points="86.0001,-139.2062 89.5,-149.2062 93.0001,-139.2062 86.0001,-139.2062"/>
</g>
</g>
</svg>
