<?xml version="1.0" encoding="UTF-8" standalone="no"?>
<!DOCTYPE svg PUBLIC "-//W3C//DTD SVG 1.1//EN"
 "http://www.w3.org/Graphics/SVG/1.1/DTD/svg11.dtd">
<!-- Generated by graphviz version 2.40.1 (20161225.0304)
 -->
<!-- Title: openage::curve::ValueContainer::set_last Pages: 1 -->
<svg width="833pt" height="127pt"
 viewBox="0.00 0.00 833.00 126.50" xmlns="http://www.w3.org/2000/svg" xmlns:xlink="http://www.w3.org/1999/xlink">
<g id="graph0" class="graph" transform="scale(1 1) rotate(0) translate(4 122.5)">
<title>openage::curve::ValueContainer::set_last</title>
<polygon fill="#ffffff" stroke="transparent" points="-4,4 -4,-122.5 829,-122.5 829,4 -4,4"/>
<!-- Node39 -->
<g id="node1" class="node">
<title>Node39</title>
<polygon fill="#bfbfbf" stroke="#000000" points="0,-61 0,-91 156,-91 156,-61 0,-61"/>
<text text-anchor="start" x="8" y="-79" font-family="Helvetica,sans-Serif" font-size="10.00" fill="#000000">openage::curve::ValueContainer</text>
<text text-anchor="middle" x="78" y="-68" font-family="Helvetica,sans-Serif" font-size="10.00" fill="#000000">::set_last</text>
</g>
<!-- Node40 -->
<g id="node2" class="node">
<title>Node40</title>
<g id="a_node2"><a xlink:href="../../d6/d15/classopenage_1_1event_1_1_event_target.xhtml#a6da66e1f05d92d87ce931d06204b6d9b" target="_top" xlink:title="Call this whenever some data in the target changes. ">
<polygon fill="#ffffff" stroke="#000000" points="192,-61 192,-91 335,-91 335,-61 192,-61"/>
<text text-anchor="start" x="200" y="-79" font-family="Helvetica,sans-Serif" font-size="10.00" fill="#000000">openage::event::EventTarget</text>
<text text-anchor="middle" x="263.5" y="-68" font-family="Helvetica,sans-Serif" font-size="10.00" fill="#000000">::changes</text>
</a>
</g>
</g>
<!-- Node39&#45;&gt;Node40 -->
<g id="edge1" class="edge">
<title>Node39&#45;&gt;Node40</title>
<path fill="none" stroke="#191970" d="M156.1311,-76C164.5783,-76 173.1915,-76 181.6808,-76"/>
<polygon fill="#191970" stroke="#191970" points="181.955,-79.5001 191.955,-76 181.955,-72.5001 181.955,-79.5001"/>
</g>
<!-- Node41 -->
<g id="node3" class="node">
<title>Node41</title>
<g id="a_node3"><a xlink:href="../../dd/d1a/namespaceopenage_1_1log.xhtml#a0eff614e7d6e818746700ed9d29e583f" target="_top" xlink:title="Convenience method that makes use of the &#39;general&#39; LogSource. ">
<polygon fill="#ffffff" stroke="#000000" points="371,-66.5 371,-85.5 462,-85.5 462,-66.5 371,-66.5"/>
<text text-anchor="middle" x="416.5" y="-73.5" font-family="Helvetica,sans-Serif" font-size="10.00" fill="#000000">openage::log::log</text>
</a>
</g>
</g>
<!-- Node40&#45;&gt;Node41 -->
<g id="edge2" class="edge">
<title>Node40&#45;&gt;Node41</title>
<path fill="none" stroke="#191970" d="M335.0724,-76C343.6031,-76 352.2159,-76 360.4841,-76"/>
<polygon fill="#191970" stroke="#191970" points="360.7407,-79.5001 370.7407,-76 360.7407,-72.5001 360.7407,-79.5001"/>
</g>
<!-- Node42 -->
<g id="node4" class="node">
<title>Node42</title>
<g id="a_node4"><a xlink:href="../../dd/d1a/namespaceopenage_1_1log.xhtml#a3fbb0c225d01e222648ec28a43507188" target="_top" xlink:title="Returns a reference to a general named log source, for use by log::log(). ">
<polygon fill="#ffffff" stroke="#000000" points="514.5,-83 514.5,-113 624.5,-113 624.5,-83 514.5,-83"/>
<text text-anchor="start" x="522.5" y="-101" font-family="Helvetica,sans-Serif" font-size="10.00" fill="#000000">openage::log::general</text>
<text text-anchor="middle" x="569.5" y="-90" font-family="Helvetica,sans-Serif" font-size="10.00" fill="#000000">_source</text>
</a>
</g>
</g>
<!-- Node41&#45;&gt;Node42 -->
<g id="edge3" class="edge">
<title>Node41&#45;&gt;Node42</title>
<path fill="none" stroke="#191970" d="M462.405,-82.6007C475.5794,-84.4951 490.2032,-86.5978 504.3031,-88.6253"/>
<polygon fill="#191970" stroke="#191970" points="504.0529,-92.1252 514.4493,-90.0842 505.0492,-85.1965 504.0529,-92.1252"/>
</g>
<!-- Node43 -->
<g id="node5" class="node">
<title>Node43</title>
<g id="a_node5"><a xlink:href="../../de/de3/classopenage_1_1log_1_1_log_source.xhtml#a5640099e20af4cd368c767dbcef3a1df" target="_top" xlink:title="Logs a message (get one via MSG(level)). ">
<polygon fill="#ffffff" stroke="#000000" points="498,-44.5 498,-63.5 641,-63.5 641,-44.5 498,-44.5"/>
<text text-anchor="middle" x="569.5" y="-51.5" font-family="Helvetica,sans-Serif" font-size="10.00" fill="#000000">openage::log::LogSource::log</text>
</a>
</g>
</g>
<!-- Node41&#45;&gt;Node43 -->
<g id="edge4" class="edge">
<title>Node41&#45;&gt;Node43</title>
<path fill="none" stroke="#191970" d="M462.405,-69.3993C472.1438,-67.9989 482.6746,-66.4847 493.2003,-64.9712"/>
<polygon fill="#191970" stroke="#191970" points="493.8644,-68.4118 503.2645,-63.5241 492.8681,-61.483 493.8644,-68.4118"/>
</g>
<!-- Node44 -->
<g id="node6" class="node">
<title>Node44</title>
<g id="a_node6"><a xlink:href="../../dd/d1a/namespaceopenage_1_1log.xhtml#a3d2885be9c3a09b9ff7ee8764b2e5f39" target="_top" xlink:title="Returns a reference to the global stdout logsink object; Initializes the object if needed...">
<polygon fill="#ffffff" stroke="#000000" points="699,-88 699,-118 803,-118 803,-88 699,-88"/>
<text text-anchor="start" x="707" y="-106" font-family="Helvetica,sans-Serif" font-size="10.00" fill="#000000">openage::log::global</text>
<text text-anchor="middle" x="751" y="-95" font-family="Helvetica,sans-Serif" font-size="10.00" fill="#000000">_stdoutsink</text>
</a>
</g>
</g>
<!-- Node43&#45;&gt;Node44 -->
<g id="edge5" class="edge">
<title>Node43&#45;&gt;Node44</title>
<path fill="none" stroke="#191970" d="M604.9259,-63.564C628.8272,-70.0167 661.008,-78.7046 689.0812,-86.2836"/>
<polygon fill="#191970" stroke="#191970" points="688.2527,-89.6852 698.8194,-88.9127 690.0773,-82.9272 688.2527,-89.6852"/>
</g>
<!-- Node45 -->
<g id="node7" class="node">
<title>Node45</title>
<g id="a_node7"><a xlink:href="../../d0/d58/classopenage_1_1log_1_1_log_sink_list.xhtml#a2d47416fab12651553b4b58c86fd6f84" target="_top" xlink:title="openage::log::LogSinkList\l::instance">
<polygon fill="#ffffff" stroke="#000000" points="686.5,-39 686.5,-69 815.5,-69 815.5,-39 686.5,-39"/>
<text text-anchor="start" x="694.5" y="-57" font-family="Helvetica,sans-Serif" font-size="10.00" fill="#000000">openage::log::LogSinkList</text>
<text text-anchor="middle" x="751" y="-46" font-family="Helvetica,sans-Serif" font-size="10.00" fill="#000000">::instance</text>
</a>
</g>
</g>
<!-- Node43&#45;&gt;Node45 -->
<g id="edge6" class="edge">
<title>Node43&#45;&gt;Node45</title>
<path fill="none" stroke="#191970" d="M641.2336,-54C652.7292,-54 664.651,-54 676.2157,-54"/>
<polygon fill="#191970" stroke="#191970" points="676.267,-57.5001 686.267,-54 676.267,-50.5001 676.267,-57.5001"/>
</g>
<!-- Node46 -->
<g id="node8" class="node">
<title>Node46</title>
<g id="a_node8"><a xlink:href="../../d0/d58/classopenage_1_1log_1_1_log_sink_list.xhtml#a8456b84ab55e1fe151c51438c5bfebdd" target="_top" xlink:title="openage::log::LogSinkList::log">
<polygon fill="#ffffff" stroke="#000000" points="677,-.5 677,-19.5 825,-19.5 825,-.5 677,-.5"/>
<text text-anchor="middle" x="751" y="-7.5" font-family="Helvetica,sans-Serif" font-size="10.00" fill="#000000">openage::log::LogSinkList::log</text>
</a>
</g>
</g>
<!-- Node43&#45;&gt;Node46 -->
<g id="edge7" class="edge">
<title>Node43&#45;&gt;Node46</title>
<path fill="none" stroke="#191970" d="M608.8828,-44.4527C636.1156,-37.8508 672.5503,-29.0181 701.7102,-21.949"/>
<polygon fill="#191970" stroke="#191970" points="702.8002,-25.2863 711.6941,-19.5287 701.1509,-18.4833 702.8002,-25.2863"/>
</g>
</g>
</svg>
