<?xml version="1.0" encoding="UTF-8" standalone="no"?>
<!DOCTYPE svg PUBLIC "-//W3C//DTD SVG 1.1//EN"
 "http://www.w3.org/Graphics/SVG/1.1/DTD/svg11.dtd">
<!-- Generated by graphviz version 2.40.1 (20161225.0304)
 -->
<!-- Title: openage::log::message::init_with_metadata_copy Pages: 1 -->
<svg width="434pt" height="88pt"
 viewBox="0.00 0.00 434.00 88.00" xmlns="http://www.w3.org/2000/svg" xmlns:xlink="http://www.w3.org/1999/xlink">
<g id="graph0" class="graph" transform="scale(1 1) rotate(0) translate(4 84)">
<title>openage::log::message::init_with_metadata_copy</title>
<polygon fill="#ffffff" stroke="transparent" points="-4,4 -4,-84 430,-84 430,4 -4,4"/>
<!-- Node5 -->
<g id="node1" class="node">
<title>Node5</title>
<polygon fill="#bfbfbf" stroke="#000000" points="0,-24.5 0,-54.5 131,-54.5 131,-24.5 0,-24.5"/>
<text text-anchor="start" x="8" y="-42.5" font-family="Helvetica,sans-Serif" font-size="10.00" fill="#000000">openage::log::message</text>
<text text-anchor="middle" x="65.5" y="-31.5" font-family="Helvetica,sans-Serif" font-size="10.00" fill="#000000">::init_with_metadata_copy</text>
</g>
<!-- Node6 -->
<g id="node2" class="node">
<title>Node6</title>
<g id="a_node2"><a xlink:href="../../dc/d8c/structopenage_1_1log_1_1message.xhtml#a45dd1bfdd4fc1c55af0c093dac14b624" target="_top" xlink:title="Sets all members except for filename, lineno, functionname and level. ">
<polygon fill="#ffffff" stroke="#000000" points="167,-24.5 167,-54.5 285,-54.5 285,-24.5 167,-24.5"/>
<text text-anchor="start" x="175" y="-42.5" font-family="Helvetica,sans-Serif" font-size="10.00" fill="#000000">openage::log::message</text>
<text text-anchor="middle" x="226" y="-31.5" font-family="Helvetica,sans-Serif" font-size="10.00" fill="#000000">::init</text>
</a>
</g>
</g>
<!-- Node5&#45;&gt;Node6 -->
<g id="edge1" class="edge">
<title>Node5&#45;&gt;Node6</title>
<path fill="none" stroke="#191970" d="M131.2446,-39.5C139.6149,-39.5 148.203,-39.5 156.6281,-39.5"/>
<polygon fill="#191970" stroke="#191970" points="156.7985,-43.0001 166.7985,-39.5 156.7985,-36.0001 156.7985,-43.0001"/>
</g>
<!-- Node7 -->
<g id="node3" class="node">
<title>Node7</title>
<g id="a_node3"><a xlink:href="../../de/d60/namespaceopenage_1_1util.xhtml#ac99f61e1d0c06d9b83650a71cff2f02f" target="_top" xlink:title="Returns the unique identifier of the current thread. ">
<polygon fill="#ffffff" stroke="#000000" points="325,-49.5 325,-79.5 422,-79.5 422,-49.5 325,-49.5"/>
<text text-anchor="start" x="333" y="-67.5" font-family="Helvetica,sans-Serif" font-size="10.00" fill="#000000">openage::util::get</text>
<text text-anchor="middle" x="373.5" y="-56.5" font-family="Helvetica,sans-Serif" font-size="10.00" fill="#000000">_current_thread_id</text>
</a>
</g>
</g>
<!-- Node6&#45;&gt;Node7 -->
<g id="edge2" class="edge">
<title>Node6&#45;&gt;Node7</title>
<path fill="none" stroke="#191970" d="M285.144,-49.5244C294.8995,-51.1779 305.0102,-52.8916 314.7558,-54.5434"/>
<polygon fill="#191970" stroke="#191970" points="314.3051,-58.0168 324.7494,-56.2372 315.475,-51.1152 314.3051,-58.0168"/>
</g>
<!-- Node8 -->
<g id="node4" class="node">
<title>Node8</title>
<g id="a_node4"><a xlink:href="../../dc/dc5/namespaceopenage_1_1timing.xhtml#aea51f4c8e71a8c326e3dd9dcc05c00eb" target="_top" xlink:title="returns the number of nanoseconds since the UNIX epoch. ">
<polygon fill="#ffffff" stroke="#000000" points="321,-.5 321,-30.5 426,-30.5 426,-.5 321,-.5"/>
<text text-anchor="start" x="329" y="-18.5" font-family="Helvetica,sans-Serif" font-size="10.00" fill="#000000">openage::timing::get</text>
<text text-anchor="middle" x="373.5" y="-7.5" font-family="Helvetica,sans-Serif" font-size="10.00" fill="#000000">_real_time</text>
</a>
</g>
</g>
<!-- Node6&#45;&gt;Node8 -->
<g id="edge3" class="edge">
<title>Node6&#45;&gt;Node8</title>
<path fill="none" stroke="#191970" d="M285.144,-29.8766C293.4631,-28.523 302.0405,-27.1273 310.4295,-25.7623"/>
<polygon fill="#191970" stroke="#191970" points="311.2308,-29.1781 320.5389,-24.1174 310.1065,-22.2689 311.2308,-29.1781"/>
</g>
</g>
</svg>
