<?xml version="1.0" encoding="UTF-8" standalone="no"?>
<!DOCTYPE svg PUBLIC "-//W3C//DTD SVG 1.1//EN"
 "http://www.w3.org/Graphics/SVG/1.1/DTD/svg11.dtd">
<!-- Generated by graphviz version 2.40.1 (20161225.0304)
 -->
<!-- Title: openage::Civilisation::initialise_unit_types Pages: 1 -->
<svg width="629pt" height="367pt"
 viewBox="0.00 0.00 629.00 366.50" xmlns="http://www.w3.org/2000/svg" xmlns:xlink="http://www.w3.org/1999/xlink">
<g id="graph0" class="graph" transform="scale(1 1) rotate(0) translate(4 362.5)">
<title>openage::Civilisation::initialise_unit_types</title>
<polygon fill="#ffffff" stroke="transparent" points="-4,4 -4,-362.5 625,-362.5 625,4 -4,4"/>
<!-- Node35 -->
<g id="node1" class="node">
<title>Node35</title>
<polygon fill="#bfbfbf" stroke="#000000" points="0,-183 0,-213 108,-213 108,-183 0,-183"/>
<text text-anchor="start" x="8" y="-201" font-family="Helvetica,sans-Serif" font-size="10.00" fill="#000000">openage::Civilisation</text>
<text text-anchor="middle" x="54" y="-190" font-family="Helvetica,sans-Serif" font-size="10.00" fill="#000000">::initialise_unit_types</text>
</g>
<!-- Node36 -->
<g id="node2" class="node">
<title>Node36</title>
<g id="a_node2"><a xlink:href="../../de/d7a/classopenage_1_1_civilisation.xhtml#a7ea9f34ae76ff29cbcce2ce4cb7da55f" target="_top" xlink:title="creates and adds items to categories ">
<polygon fill="#ffffff" stroke="#000000" points="147.5,-254 147.5,-284 254.5,-284 254.5,-254 147.5,-254"/>
<text text-anchor="start" x="155.5" y="-272" font-family="Helvetica,sans-Serif" font-size="10.00" fill="#000000">openage::Civilisation</text>
<text text-anchor="middle" x="201" y="-261" font-family="Helvetica,sans-Serif" font-size="10.00" fill="#000000">::add_to_category</text>
</a>
</g>
</g>
<!-- Node35&#45;&gt;Node36 -->
<g id="edge1" class="edge">
<title>Node35&#45;&gt;Node36</title>
<path fill="none" stroke="#191970" d="M81.674,-213.2096C99.3241,-222.7205 122.7877,-235.0164 144,-245 147.5065,-246.6503 151.1573,-248.3124 154.8421,-249.9501"/>
<polygon fill="#191970" stroke="#191970" points="153.443,-253.1583 164.0083,-253.9501 156.2428,-246.7425 153.443,-253.1583"/>
</g>
<!-- Node37 -->
<g id="node3" class="node">
<title>Node37</title>
<g id="a_node3"><a xlink:href="../../de/d6a/classopenage_1_1_game_spec.xhtml#ab009229f56624608b53820adf2895cbc" target="_top" xlink:title="makes initial unit types for a particular civ id ">
<polygon fill="#ffffff" stroke="#000000" points="144,-205 144,-235 258,-235 258,-205 144,-205"/>
<text text-anchor="start" x="152" y="-223" font-family="Helvetica,sans-Serif" font-size="10.00" fill="#000000">openage::GameSpec::</text>
<text text-anchor="middle" x="201" y="-212" font-family="Helvetica,sans-Serif" font-size="10.00" fill="#000000">create_unit_types</text>
</a>
</g>
</g>
<!-- Node35&#45;&gt;Node37 -->
<g id="edge2" class="edge">
<title>Node35&#45;&gt;Node37</title>
<path fill="none" stroke="#191970" d="M108.3197,-206.1295C116.6671,-207.3787 125.3693,-208.6811 133.9532,-209.9658"/>
<polygon fill="#191970" stroke="#191970" points="133.5394,-213.4428 143.9473,-211.4615 134.5756,-206.5199 133.5394,-213.4428"/>
</g>
<!-- Node44 -->
<g id="node10" class="node">
<title>Node44</title>
<g id="a_node10"><a xlink:href="../../dd/d1a/namespaceopenage_1_1log.xhtml#a5cb08687f485da2549d7eebef26368a6" target="_top" xlink:title="debug message ">
<polygon fill="#ffffff" stroke="#000000" points="157,-166.5 157,-185.5 245,-185.5 245,-166.5 157,-166.5"/>
<text text-anchor="middle" x="201" y="-173.5" font-family="Helvetica,sans-Serif" font-size="10.00" fill="#000000">openage.log.dbg</text>
</a>
</g>
</g>
<!-- Node35&#45;&gt;Node44 -->
<g id="edge12" class="edge">
<title>Node35&#45;&gt;Node44</title>
<path fill="none" stroke="#191970" d="M108.3197,-189.8705C120.9686,-187.9775 134.4322,-185.9625 147.0644,-184.072"/>
<polygon fill="#191970" stroke="#191970" points="147.6136,-187.5289 156.9854,-182.5872 146.5775,-180.606 147.6136,-187.5289"/>
</g>
<!-- Node45 -->
<g id="node11" class="node">
<title>Node45</title>
<g id="a_node11"><a xlink:href="../../dd/d1a/namespaceopenage_1_1log.xhtml#a0eff614e7d6e818746700ed9d29e583f" target="_top" xlink:title="Convenience method that makes use of the &#39;general&#39; LogSource. ">
<polygon fill="#ffffff" stroke="#000000" points="155.5,-88.5 155.5,-107.5 246.5,-107.5 246.5,-88.5 155.5,-88.5"/>
<text text-anchor="middle" x="201" y="-95.5" font-family="Helvetica,sans-Serif" font-size="10.00" fill="#000000">openage::log::log</text>
</a>
</g>
</g>
<!-- Node35&#45;&gt;Node45 -->
<g id="edge13" class="edge">
<title>Node35&#45;&gt;Node45</title>
<path fill="none" stroke="#191970" d="M76.3261,-182.8122C104.0114,-163.9787 150.9269,-132.0633 178.6316,-113.2166"/>
<polygon fill="#191970" stroke="#191970" points="180.6033,-116.1084 186.9029,-107.5898 176.6661,-110.3206 180.6033,-116.1084"/>
</g>
<!-- Node38 -->
<g id="node4" class="node">
<title>Node38</title>
<g id="a_node4"><a xlink:href="../../de/d6a/classopenage_1_1_game_spec.xhtml#a19adf3ebe5c03a18675ef8dcd0a3c0d5" target="_top" xlink:title="Check if loading has been completed, a load percent would be nice. ">
<polygon fill="#ffffff" stroke="#000000" points="308.5,-328 308.5,-358 422.5,-358 422.5,-328 308.5,-328"/>
<text text-anchor="start" x="316.5" y="-346" font-family="Helvetica,sans-Serif" font-size="10.00" fill="#000000">openage::GameSpec::</text>
<text text-anchor="middle" x="365.5" y="-335" font-family="Helvetica,sans-Serif" font-size="10.00" fill="#000000">load_complete</text>
</a>
</g>
</g>
<!-- Node37&#45;&gt;Node38 -->
<g id="edge3" class="edge">
<title>Node37&#45;&gt;Node38</title>
<path fill="none" stroke="#191970" d="M244.4717,-235.0715C249.3749,-237.8911 254.0271,-241.1808 258,-245 284.367,-270.3468 266.5257,-294.8578 294,-319 295.7182,-320.5098 297.5349,-321.9254 299.4285,-323.2524"/>
<polygon fill="#191970" stroke="#191970" points="297.7882,-326.3505 308.158,-328.5225 301.406,-320.3578 297.7882,-326.3505"/>
</g>
<!-- Node39 -->
<g id="node5" class="node">
<title>Node39</title>
<g id="a_node5"><a xlink:href="../../de/d6a/classopenage_1_1_game_spec.xhtml#a67579e89ee667f00dc301433a23458af" target="_top" xlink:title="load missile assets. ">
<polygon fill="#ffffff" stroke="#000000" points="308.5,-279 308.5,-309 422.5,-309 422.5,-279 308.5,-279"/>
<text text-anchor="start" x="316.5" y="-297" font-family="Helvetica,sans-Serif" font-size="10.00" fill="#000000">openage::GameSpec::</text>
<text text-anchor="middle" x="365.5" y="-286" font-family="Helvetica,sans-Serif" font-size="10.00" fill="#000000">load_missile</text>
</a>
</g>
</g>
<!-- Node37&#45;&gt;Node39 -->
<g id="edge4" class="edge">
<title>Node37&#45;&gt;Node39</title>
<path fill="none" stroke="#191970" d="M238.3028,-235.1167C244.973,-238.1688 251.7763,-241.5174 258,-245 274.9992,-254.5122 276.5923,-261.2576 294,-270 297.5835,-271.7997 301.3328,-273.5122 305.157,-275.1327"/>
<polygon fill="#191970" stroke="#191970" points="304.1805,-278.5114 314.7655,-278.9685 306.7759,-272.0103 304.1805,-278.5114"/>
</g>
<!-- Node41 -->
<g id="node7" class="node">
<title>Node41</title>
<g id="a_node7"><a xlink:href="../../de/d6a/classopenage_1_1_game_spec.xhtml#af210d4508dea9f8f87aa98c3fc0e3359" target="_top" xlink:title="load assets for other game objects (not building and living). ">
<polygon fill="#ffffff" stroke="#000000" points="308.5,-230 308.5,-260 422.5,-260 422.5,-230 308.5,-230"/>
<text text-anchor="start" x="316.5" y="-248" font-family="Helvetica,sans-Serif" font-size="10.00" fill="#000000">openage::GameSpec::</text>
<text text-anchor="middle" x="365.5" y="-237" font-family="Helvetica,sans-Serif" font-size="10.00" fill="#000000">load_object</text>
</a>
</g>
</g>
<!-- Node37&#45;&gt;Node41 -->
<g id="edge6" class="edge">
<title>Node37&#45;&gt;Node41</title>
<path fill="none" stroke="#191970" d="M258.0725,-228.6736C271.0131,-230.6403 284.8741,-232.7468 298.1939,-234.7711"/>
<polygon fill="#191970" stroke="#191970" points="297.8376,-238.2571 308.25,-236.2994 298.8894,-231.3365 297.8376,-238.2571"/>
</g>
<!-- Node42 -->
<g id="node8" class="node">
<title>Node42</title>
<g id="a_node8"><a xlink:href="../../de/d6a/classopenage_1_1_game_spec.xhtml#a51a1664688173a588e6ead16703f8e82" target="_top" xlink:title="loads assets for living things. ">
<polygon fill="#ffffff" stroke="#000000" points="308.5,-181 308.5,-211 422.5,-211 422.5,-181 308.5,-181"/>
<text text-anchor="start" x="316.5" y="-199" font-family="Helvetica,sans-Serif" font-size="10.00" fill="#000000">openage::GameSpec::</text>
<text text-anchor="middle" x="365.5" y="-188" font-family="Helvetica,sans-Serif" font-size="10.00" fill="#000000">load_living</text>
</a>
</g>
</g>
<!-- Node37&#45;&gt;Node42 -->
<g id="edge8" class="edge">
<title>Node37&#45;&gt;Node42</title>
<path fill="none" stroke="#191970" d="M258.0725,-211.6733C271.0131,-209.7853 284.8741,-207.7631 298.1939,-205.8197"/>
<polygon fill="#191970" stroke="#191970" points="298.8601,-209.2597 308.25,-204.3526 297.8494,-202.333 298.8601,-209.2597"/>
</g>
<!-- Node43 -->
<g id="node9" class="node">
<title>Node43</title>
<g id="a_node9"><a xlink:href="../../de/d6a/classopenage_1_1_game_spec.xhtml#acbe30bd72e3a9ef46c461e497d726711" target="_top" xlink:title="loads required assets to construct a buildings. ">
<polygon fill="#ffffff" stroke="#000000" points="308.5,-132 308.5,-162 422.5,-162 422.5,-132 308.5,-132"/>
<text text-anchor="start" x="316.5" y="-150" font-family="Helvetica,sans-Serif" font-size="10.00" fill="#000000">openage::GameSpec::</text>
<text text-anchor="middle" x="365.5" y="-139" font-family="Helvetica,sans-Serif" font-size="10.00" fill="#000000">load_building</text>
</a>
</g>
</g>
<!-- Node37&#45;&gt;Node43 -->
<g id="edge10" class="edge">
<title>Node37&#45;&gt;Node43</title>
<path fill="none" stroke="#191970" d="M237.587,-204.9594C244.4606,-201.8519 251.5199,-198.4641 258,-195 274.7443,-186.0488 276.9237,-180.3003 294,-172 298.5404,-169.793 303.3271,-167.6857 308.1839,-165.6979"/>
<polygon fill="#191970" stroke="#191970" points="309.527,-168.9308 317.5642,-162.0276 306.9763,-162.4121 309.527,-168.9308"/>
</g>
<!-- Node40 -->
<g id="node6" class="node">
<title>Node40</title>
<g id="a_node6"><a xlink:href="../../de/d6a/classopenage_1_1_game_spec.xhtml#a4183e5b82dd51fd66629d287026b5daa" target="_top" xlink:title="check graphic id is valid ">
<polygon fill="#ffffff" stroke="#000000" points="490,-205 490,-235 604,-235 604,-205 490,-205"/>
<text text-anchor="start" x="498" y="-223" font-family="Helvetica,sans-Serif" font-size="10.00" fill="#000000">openage::GameSpec::</text>
<text text-anchor="middle" x="547" y="-212" font-family="Helvetica,sans-Serif" font-size="10.00" fill="#000000">valid_graphic_id</text>
</a>
</g>
</g>
<!-- Node39&#45;&gt;Node40 -->
<g id="edge5" class="edge">
<title>Node39&#45;&gt;Node40</title>
<path fill="none" stroke="#191970" d="M412.6707,-278.9327C420.8358,-276.1069 429.203,-273.0712 437,-270 460.5267,-260.7328 486.2856,-249.1074 506.9586,-239.3991"/>
<polygon fill="#191970" stroke="#191970" points="508.5292,-242.5281 516.0729,-235.0888 505.5365,-236.2 508.5292,-242.5281"/>
</g>
<!-- Node41&#45;&gt;Node40 -->
<g id="edge7" class="edge">
<title>Node41&#45;&gt;Node40</title>
<path fill="none" stroke="#191970" d="M422.9277,-237.0898C441.0626,-234.5919 461.2591,-231.81 480.0017,-229.2284"/>
<polygon fill="#191970" stroke="#191970" points="480.517,-232.6906 489.9459,-227.8587 479.5618,-225.756 480.517,-232.6906"/>
</g>
<!-- Node42&#45;&gt;Node40 -->
<g id="edge9" class="edge">
<title>Node42&#45;&gt;Node40</title>
<path fill="none" stroke="#191970" d="M422.9277,-203.5938C441.0626,-205.9918 461.2591,-208.6624 480.0017,-211.1407"/>
<polygon fill="#191970" stroke="#191970" points="479.5733,-214.6145 489.9459,-212.4556 480.491,-207.6749 479.5733,-214.6145"/>
</g>
<!-- Node43&#45;&gt;Node40 -->
<g id="edge11" class="edge">
<title>Node43&#45;&gt;Node40</title>
<path fill="none" stroke="#191970" d="M410.3151,-162.0899C419.2022,-165.2451 428.4309,-168.6378 437,-172 459.6053,-180.8696 484.4261,-191.6115 504.7602,-200.6827"/>
<polygon fill="#191970" stroke="#191970" points="503.5004,-203.9535 514.057,-204.8527 506.3652,-197.5666 503.5004,-203.9535"/>
</g>
<!-- Node46 -->
<g id="node12" class="node">
<title>Node46</title>
<g id="a_node12"><a xlink:href="../../dd/d1a/namespaceopenage_1_1log.xhtml#a3fbb0c225d01e222648ec28a43507188" target="_top" xlink:title="Returns a reference to a general named log source, for use by log::log(). ">
<polygon fill="#ffffff" stroke="#000000" points="310.5,-83 310.5,-113 420.5,-113 420.5,-83 310.5,-83"/>
<text text-anchor="start" x="318.5" y="-101" font-family="Helvetica,sans-Serif" font-size="10.00" fill="#000000">openage::log::general</text>
<text text-anchor="middle" x="365.5" y="-90" font-family="Helvetica,sans-Serif" font-size="10.00" fill="#000000">_source</text>
</a>
</g>
</g>
<!-- Node45&#45;&gt;Node46 -->
<g id="edge14" class="edge">
<title>Node45&#45;&gt;Node46</title>
<path fill="none" stroke="#191970" d="M246.8224,-98C263.2727,-98 282.1592,-98 299.9563,-98"/>
<polygon fill="#191970" stroke="#191970" points="300.2824,-101.5001 310.2824,-98 300.2823,-94.5001 300.2824,-101.5001"/>
</g>
<!-- Node47 -->
<g id="node13" class="node">
<title>Node47</title>
<g id="a_node13"><a xlink:href="../../de/de3/classopenage_1_1log_1_1_log_source.xhtml#a5640099e20af4cd368c767dbcef3a1df" target="_top" xlink:title="Logs a message (get one via MSG(level)). ">
<polygon fill="#ffffff" stroke="#000000" points="294,-44.5 294,-63.5 437,-63.5 437,-44.5 294,-44.5"/>
<text text-anchor="middle" x="365.5" y="-51.5" font-family="Helvetica,sans-Serif" font-size="10.00" fill="#000000">openage::log::LogSource::log</text>
</a>
</g>
</g>
<!-- Node45&#45;&gt;Node47 -->
<g id="edge15" class="edge">
<title>Node45&#45;&gt;Node47</title>
<path fill="none" stroke="#191970" d="M236.3228,-88.479C253.6925,-83.8037 274.9406,-78.0941 294,-73 302.2943,-70.7831 311.1318,-68.4286 319.6635,-66.1594"/>
<polygon fill="#191970" stroke="#191970" points="320.7222,-69.4996 329.4875,-63.5481 318.9239,-62.7345 320.7222,-69.4996"/>
</g>
<!-- Node48 -->
<g id="node14" class="node">
<title>Node48</title>
<g id="a_node14"><a xlink:href="../../dd/d1a/namespaceopenage_1_1log.xhtml#a3d2885be9c3a09b9ff7ee8764b2e5f39" target="_top" xlink:title="Returns a reference to the global stdout logsink object; Initializes the object if needed...">
<polygon fill="#ffffff" stroke="#000000" points="495,-88 495,-118 599,-118 599,-88 495,-88"/>
<text text-anchor="start" x="503" y="-106" font-family="Helvetica,sans-Serif" font-size="10.00" fill="#000000">openage::log::global</text>
<text text-anchor="middle" x="547" y="-95" font-family="Helvetica,sans-Serif" font-size="10.00" fill="#000000">_stdoutsink</text>
</a>
</g>
</g>
<!-- Node47&#45;&gt;Node48 -->
<g id="edge16" class="edge">
<title>Node47&#45;&gt;Node48</title>
<path fill="none" stroke="#191970" d="M401.5194,-63.5226C412.8758,-66.5381 425.4658,-69.8947 437,-73 452.5227,-77.1792 469.2668,-81.7258 484.8951,-85.9863"/>
<polygon fill="#191970" stroke="#191970" points="484.4113,-89.4822 494.98,-88.738 486.254,-82.7291 484.4113,-89.4822"/>
</g>
<!-- Node49 -->
<g id="node15" class="node">
<title>Node49</title>
<g id="a_node15"><a xlink:href="../../d0/d58/classopenage_1_1log_1_1_log_sink_list.xhtml#a2d47416fab12651553b4b58c86fd6f84" target="_top" xlink:title="openage::log::LogSinkList\l::instance">
<polygon fill="#ffffff" stroke="#000000" points="482.5,-39 482.5,-69 611.5,-69 611.5,-39 482.5,-39"/>
<text text-anchor="start" x="490.5" y="-57" font-family="Helvetica,sans-Serif" font-size="10.00" fill="#000000">openage::log::LogSinkList</text>
<text text-anchor="middle" x="547" y="-46" font-family="Helvetica,sans-Serif" font-size="10.00" fill="#000000">::instance</text>
</a>
</g>
</g>
<!-- Node47&#45;&gt;Node49 -->
<g id="edge17" class="edge">
<title>Node47&#45;&gt;Node49</title>
<path fill="none" stroke="#191970" d="M437.2336,-54C448.7292,-54 460.651,-54 472.2157,-54"/>
<polygon fill="#191970" stroke="#191970" points="472.267,-57.5001 482.267,-54 472.267,-50.5001 472.267,-57.5001"/>
</g>
<!-- Node50 -->
<g id="node16" class="node">
<title>Node50</title>
<g id="a_node16"><a xlink:href="../../d0/d58/classopenage_1_1log_1_1_log_sink_list.xhtml#a8456b84ab55e1fe151c51438c5bfebdd" target="_top" xlink:title="openage::log::LogSinkList::log">
<polygon fill="#ffffff" stroke="#000000" points="473,-.5 473,-19.5 621,-19.5 621,-.5 473,-.5"/>
<text text-anchor="middle" x="547" y="-7.5" font-family="Helvetica,sans-Serif" font-size="10.00" fill="#000000">openage::log::LogSinkList::log</text>
</a>
</g>
</g>
<!-- Node47&#45;&gt;Node50 -->
<g id="edge18" class="edge">
<title>Node47&#45;&gt;Node50</title>
<path fill="none" stroke="#191970" d="M404.8828,-44.4527C432.1156,-37.8508 468.5503,-29.0181 497.7102,-21.949"/>
<polygon fill="#191970" stroke="#191970" points="498.8002,-25.2863 507.6941,-19.5287 497.1509,-18.4833 498.8002,-25.2863"/>
</g>
</g>
</svg>
