<?xml version="1.0" encoding="UTF-8" standalone="no"?>
<!DOCTYPE svg PUBLIC "-//W3C//DTD SVG 1.1//EN"
 "http://www.w3.org/Graphics/SVG/1.1/DTD/svg11.dtd">
<!-- Generated by graphviz version 2.40.1 (20161225.0304)
 -->
<!-- Title: /mnt/c/Users/Jameson/Desktop/git/openage&#45;new&#45;doc&#45;system/libopenage/util/vector.h Pages: 1 -->
<svg width="1226pt" height="328pt"
 viewBox="0.00 0.00 1226.00 328.00" xmlns="http://www.w3.org/2000/svg" xmlns:xlink="http://www.w3.org/1999/xlink">
<g id="graph0" class="graph" transform="scale(1 1) rotate(0) translate(4 324)">
<title>/mnt/c/Users/Jameson/Desktop/git/openage&#45;new&#45;doc&#45;system/libopenage/util/vector.h</title>
<polygon fill="#ffffff" stroke="transparent" points="-4,4 -4,-324 1222,-324 1222,4 -4,4"/>
<!-- Node34 -->
<g id="node1" class="node">
<title>Node34</title>
<polygon fill="#bfbfbf" stroke="#000000" points="769,-267.5 769,-319.5 910,-319.5 910,-267.5 769,-267.5"/>
<text text-anchor="start" x="777" y="-307.5" font-family="Helvetica,sans-Serif" font-size="10.00" fill="#000000">/mnt/c/Users/Jameson</text>
<text text-anchor="start" x="777" y="-296.5" font-family="Helvetica,sans-Serif" font-size="10.00" fill="#000000">/Desktop/git/openage</text>
<text text-anchor="start" x="777" y="-285.5" font-family="Helvetica,sans-Serif" font-size="10.00" fill="#000000">&#45;new&#45;doc&#45;system/libopenage</text>
<text text-anchor="middle" x="839.5" y="-274.5" font-family="Helvetica,sans-Serif" font-size="10.00" fill="#000000">/util/vector.h</text>
</g>
<!-- Node35 -->
<g id="node2" class="node">
<title>Node35</title>
<g id="a_node2"><a xlink:href="../../d0/d1b/gamestate_8h.xhtml" target="_top" xlink:title="/mnt/c/Users/Jameson\l/Desktop/git/openage\l&#45;new&#45;doc&#45;system/libopenage\l/event/demo/gamestate.h">
<polygon fill="#ffffff" stroke="#000000" points="258,-178.5 258,-230.5 399,-230.5 399,-178.5 258,-178.5"/>
<text text-anchor="start" x="266" y="-218.5" font-family="Helvetica,sans-Serif" font-size="10.00" fill="#000000">/mnt/c/Users/Jameson</text>
<text text-anchor="start" x="266" y="-207.5" font-family="Helvetica,sans-Serif" font-size="10.00" fill="#000000">/Desktop/git/openage</text>
<text text-anchor="start" x="266" y="-196.5" font-family="Helvetica,sans-Serif" font-size="10.00" fill="#000000">&#45;new&#45;doc&#45;system/libopenage</text>
<text text-anchor="middle" x="328.5" y="-185.5" font-family="Helvetica,sans-Serif" font-size="10.00" fill="#000000">/event/demo/gamestate.h</text>
</a>
</g>
</g>
<!-- Node34&#45;&gt;Node35 -->
<g id="edge1" class="edge">
<title>Node34&#45;&gt;Node35</title>
<path fill="none" stroke="#191970" d="M759.0249,-279.4838C659.9868,-262.2345 493.3945,-233.2194 399.1121,-216.7984"/>
<polygon fill="#191970" stroke="#191970" points="758.5319,-282.9505 768.9841,-281.2184 759.733,-276.0543 758.5319,-282.9505"/>
</g>
<!-- Node42 -->
<g id="node9" class="node">
<title>Node42</title>
<g id="a_node9"><a xlink:href="../../dd/df4/matrix_8h.xhtml" target="_top" xlink:title="/mnt/c/Users/Jameson\l/Desktop/git/openage\l&#45;new&#45;doc&#45;system/libopenage\l/util/matrix.h">
<polygon fill="#ffffff" stroke="#000000" points="720,-178.5 720,-230.5 861,-230.5 861,-178.5 720,-178.5"/>
<text text-anchor="start" x="728" y="-218.5" font-family="Helvetica,sans-Serif" font-size="10.00" fill="#000000">/mnt/c/Users/Jameson</text>
<text text-anchor="start" x="728" y="-207.5" font-family="Helvetica,sans-Serif" font-size="10.00" fill="#000000">/Desktop/git/openage</text>
<text text-anchor="start" x="728" y="-196.5" font-family="Helvetica,sans-Serif" font-size="10.00" fill="#000000">&#45;new&#45;doc&#45;system/libopenage</text>
<text text-anchor="middle" x="790.5" y="-185.5" font-family="Helvetica,sans-Serif" font-size="10.00" fill="#000000">/util/matrix.h</text>
</a>
</g>
</g>
<!-- Node34&#45;&gt;Node42 -->
<g id="edge10" class="edge">
<title>Node34&#45;&gt;Node42</title>
<path fill="none" stroke="#191970" d="M820.1064,-258.2749C815.0121,-249.0219 809.6094,-239.209 804.8334,-230.5341"/>
<polygon fill="#191970" stroke="#191970" points="817.1744,-260.2064 825.0634,-267.2784 823.3064,-256.8303 817.1744,-260.2064"/>
</g>
<!-- Node44 -->
<g id="node11" class="node">
<title>Node44</title>
<g id="a_node11"><a xlink:href="../../dc/df0/matrix__test_8cpp.xhtml" target="_top" xlink:title="/mnt/c/Users/Jameson\l/Desktop/git/openage\l&#45;new&#45;doc&#45;system/libopenage\l/util/matrix_test.cpp">
<polygon fill="#ffffff" stroke="#000000" points="576,-89.5 576,-141.5 717,-141.5 717,-89.5 576,-89.5"/>
<text text-anchor="start" x="584" y="-129.5" font-family="Helvetica,sans-Serif" font-size="10.00" fill="#000000">/mnt/c/Users/Jameson</text>
<text text-anchor="start" x="584" y="-118.5" font-family="Helvetica,sans-Serif" font-size="10.00" fill="#000000">/Desktop/git/openage</text>
<text text-anchor="start" x="584" y="-107.5" font-family="Helvetica,sans-Serif" font-size="10.00" fill="#000000">&#45;new&#45;doc&#45;system/libopenage</text>
<text text-anchor="middle" x="646.5" y="-96.5" font-family="Helvetica,sans-Serif" font-size="10.00" fill="#000000">/util/matrix_test.cpp</text>
</a>
</g>
</g>
<!-- Node34&#45;&gt;Node44 -->
<g id="edge16" class="edge">
<title>Node34&#45;&gt;Node44</title>
<path fill="none" stroke="#191970" d="M759.8062,-264.3422C742.2331,-255.4561 724.6589,-244.4031 710.5,-231 684.0289,-205.9419 665.7514,-167.4557 655.7009,-141.8879"/>
<polygon fill="#191970" stroke="#191970" points="758.4529,-267.5757 768.9776,-268.7924 761.5088,-261.278 758.4529,-267.5757"/>
</g>
<!-- Node45 -->
<g id="node12" class="node">
<title>Node45</title>
<g id="a_node12"><a xlink:href="../../da/d07/quaternion_8h.xhtml" target="_top" xlink:title="/mnt/c/Users/Jameson\l/Desktop/git/openage\l&#45;new&#45;doc&#45;system/libopenage\l/util/quaternion.h">
<polygon fill="#ffffff" stroke="#000000" points="894,-89.5 894,-141.5 1035,-141.5 1035,-89.5 894,-89.5"/>
<text text-anchor="start" x="902" y="-129.5" font-family="Helvetica,sans-Serif" font-size="10.00" fill="#000000">/mnt/c/Users/Jameson</text>
<text text-anchor="start" x="902" y="-118.5" font-family="Helvetica,sans-Serif" font-size="10.00" fill="#000000">/Desktop/git/openage</text>
<text text-anchor="start" x="902" y="-107.5" font-family="Helvetica,sans-Serif" font-size="10.00" fill="#000000">&#45;new&#45;doc&#45;system/libopenage</text>
<text text-anchor="middle" x="964.5" y="-96.5" font-family="Helvetica,sans-Serif" font-size="10.00" fill="#000000">/util/quaternion.h</text>
</a>
</g>
</g>
<!-- Node34&#45;&gt;Node45 -->
<g id="edge17" class="edge">
<title>Node34&#45;&gt;Node45</title>
<path fill="none" stroke="#191970" d="M858.1169,-258.452C871.1466,-234.9623 889.5524,-203.74 908.5,-178 917.7414,-165.4457 929.0407,-152.4673 939.0631,-141.6127"/>
<polygon fill="#191970" stroke="#191970" points="854.9673,-256.9163 853.2235,-267.3667 861.1036,-260.2846 854.9673,-256.9163"/>
</g>
<!-- Node48 -->
<g id="node15" class="node">
<title>Node48</title>
<g id="a_node15"><a xlink:href="../../d4/d1b/vector_8cpp.xhtml" target="_top" xlink:title="/mnt/c/Users/Jameson\l/Desktop/git/openage\l&#45;new&#45;doc&#45;system/libopenage\l/util/vector.cpp">
<polygon fill="#ffffff" stroke="#000000" points="918,-178.5 918,-230.5 1059,-230.5 1059,-178.5 918,-178.5"/>
<text text-anchor="start" x="926" y="-218.5" font-family="Helvetica,sans-Serif" font-size="10.00" fill="#000000">/mnt/c/Users/Jameson</text>
<text text-anchor="start" x="926" y="-207.5" font-family="Helvetica,sans-Serif" font-size="10.00" fill="#000000">/Desktop/git/openage</text>
<text text-anchor="start" x="926" y="-196.5" font-family="Helvetica,sans-Serif" font-size="10.00" fill="#000000">&#45;new&#45;doc&#45;system/libopenage</text>
<text text-anchor="middle" x="988.5" y="-185.5" font-family="Helvetica,sans-Serif" font-size="10.00" fill="#000000">/util/vector.cpp</text>
</a>
</g>
</g>
<!-- Node34&#45;&gt;Node48 -->
<g id="edge18" class="edge">
<title>Node34&#45;&gt;Node48</title>
<path fill="none" stroke="#191970" d="M892.2377,-261.9989C909.4791,-251.7004 928.4251,-240.3837 944.9147,-230.5341"/>
<polygon fill="#191970" stroke="#191970" points="890.1893,-259.1456 883.399,-267.2784 893.7789,-265.1552 890.1893,-259.1456"/>
</g>
<!-- Node49 -->
<g id="node16" class="node">
<title>Node49</title>
<g id="a_node16"><a xlink:href="../../df/d44/vector__test_8cpp.xhtml" target="_top" xlink:title="/mnt/c/Users/Jameson\l/Desktop/git/openage\l&#45;new&#45;doc&#45;system/libopenage\l/util/vector_test.cpp">
<polygon fill="#ffffff" stroke="#000000" points="1077,-178.5 1077,-230.5 1218,-230.5 1218,-178.5 1077,-178.5"/>
<text text-anchor="start" x="1085" y="-218.5" font-family="Helvetica,sans-Serif" font-size="10.00" fill="#000000">/mnt/c/Users/Jameson</text>
<text text-anchor="start" x="1085" y="-207.5" font-family="Helvetica,sans-Serif" font-size="10.00" fill="#000000">/Desktop/git/openage</text>
<text text-anchor="start" x="1085" y="-196.5" font-family="Helvetica,sans-Serif" font-size="10.00" fill="#000000">&#45;new&#45;doc&#45;system/libopenage</text>
<text text-anchor="middle" x="1147.5" y="-185.5" font-family="Helvetica,sans-Serif" font-size="10.00" fill="#000000">/util/vector_test.cpp</text>
</a>
</g>
</g>
<!-- Node34&#45;&gt;Node49 -->
<g id="edge19" class="edge">
<title>Node34&#45;&gt;Node49</title>
<path fill="none" stroke="#191970" d="M919.8669,-272.5698C963.6694,-260.886 1018.7409,-245.7477 1067.5,-231 1070.581,-230.0681 1073.7232,-229.1007 1076.8935,-228.1107"/>
<polygon fill="#191970" stroke="#191970" points="918.8938,-269.2068 910.1295,-275.1598 920.6932,-275.9716 918.8938,-269.2068"/>
</g>
<!-- Node36 -->
<g id="node3" class="node">
<title>Node36</title>
<g id="a_node3"><a xlink:href="../../dd/dd9/aicontroller_8h.xhtml" target="_top" xlink:title="/mnt/c/Users/Jameson\l/Desktop/git/openage\l&#45;new&#45;doc&#45;system/libopenage\l/event/demo/aicontroller.h">
<polygon fill="#ffffff" stroke="#000000" points="258,-89.5 258,-141.5 399,-141.5 399,-89.5 258,-89.5"/>
<text text-anchor="start" x="266" y="-129.5" font-family="Helvetica,sans-Serif" font-size="10.00" fill="#000000">/mnt/c/Users/Jameson</text>
<text text-anchor="start" x="266" y="-118.5" font-family="Helvetica,sans-Serif" font-size="10.00" fill="#000000">/Desktop/git/openage</text>
<text text-anchor="start" x="266" y="-107.5" font-family="Helvetica,sans-Serif" font-size="10.00" fill="#000000">&#45;new&#45;doc&#45;system/libopenage</text>
<text text-anchor="middle" x="328.5" y="-96.5" font-family="Helvetica,sans-Serif" font-size="10.00" fill="#000000">/event/demo/aicontroller.h</text>
</a>
</g>
</g>
<!-- Node35&#45;&gt;Node36 -->
<g id="edge2" class="edge">
<title>Node35&#45;&gt;Node36</title>
<path fill="none" stroke="#191970" d="M328.5,-168.1155C328.5,-159.2061 328.5,-149.8475 328.5,-141.5341"/>
<polygon fill="#191970" stroke="#191970" points="325.0001,-168.2784 328.5,-178.2784 332.0001,-168.2785 325.0001,-168.2784"/>
</g>
<!-- Node38 -->
<g id="node5" class="node">
<title>Node38</title>
<g id="a_node5"><a xlink:href="../../db/d5e/event_2demo_2main_8cpp.xhtml" target="_top" xlink:title="/mnt/c/Users/Jameson\l/Desktop/git/openage\l&#45;new&#45;doc&#45;system/libopenage\l/event/demo/main.cpp">
<polygon fill="#ffffff" stroke="#000000" points="159,-.5 159,-52.5 300,-52.5 300,-.5 159,-.5"/>
<text text-anchor="start" x="167" y="-40.5" font-family="Helvetica,sans-Serif" font-size="10.00" fill="#000000">/mnt/c/Users/Jameson</text>
<text text-anchor="start" x="167" y="-29.5" font-family="Helvetica,sans-Serif" font-size="10.00" fill="#000000">/Desktop/git/openage</text>
<text text-anchor="start" x="167" y="-18.5" font-family="Helvetica,sans-Serif" font-size="10.00" fill="#000000">&#45;new&#45;doc&#45;system/libopenage</text>
<text text-anchor="middle" x="229.5" y="-7.5" font-family="Helvetica,sans-Serif" font-size="10.00" fill="#000000">/event/demo/main.cpp</text>
</a>
</g>
</g>
<!-- Node35&#45;&gt;Node38 -->
<g id="edge6" class="edge">
<title>Node35&#45;&gt;Node38</title>
<path fill="none" stroke="#191970" d="M275.1499,-171.9685C264.8774,-163.4164 255.2346,-153.3553 248.5,-142 232.2249,-114.5584 228.766,-77.3345 228.5248,-52.648"/>
<polygon fill="#191970" stroke="#191970" points="273.0656,-174.782 283.0903,-178.2107 277.3918,-169.2789 273.0656,-174.782"/>
</g>
<!-- Node39 -->
<g id="node6" class="node">
<title>Node39</title>
<g id="a_node6"><a xlink:href="../../d5/da3/gamestate_8cpp.xhtml" target="_top" xlink:title="/mnt/c/Users/Jameson\l/Desktop/git/openage\l&#45;new&#45;doc&#45;system/libopenage\l/event/demo/gamestate.cpp">
<polygon fill="#ffffff" stroke="#000000" points="417,-89.5 417,-141.5 558,-141.5 558,-89.5 417,-89.5"/>
<text text-anchor="start" x="425" y="-129.5" font-family="Helvetica,sans-Serif" font-size="10.00" fill="#000000">/mnt/c/Users/Jameson</text>
<text text-anchor="start" x="425" y="-118.5" font-family="Helvetica,sans-Serif" font-size="10.00" fill="#000000">/Desktop/git/openage</text>
<text text-anchor="start" x="425" y="-107.5" font-family="Helvetica,sans-Serif" font-size="10.00" fill="#000000">&#45;new&#45;doc&#45;system/libopenage</text>
<text text-anchor="middle" x="487.5" y="-96.5" font-family="Helvetica,sans-Serif" font-size="10.00" fill="#000000">/event/demo/gamestate.cpp</text>
</a>
</g>
</g>
<!-- Node35&#45;&gt;Node39 -->
<g id="edge5" class="edge">
<title>Node35&#45;&gt;Node39</title>
<path fill="none" stroke="#191970" d="M384.2712,-173.2821C402.8045,-162.9082 423.2318,-151.4741 440.9896,-141.5341"/>
<polygon fill="#191970" stroke="#191970" points="382.3617,-170.3399 375.3453,-178.2784 385.7808,-176.4481 382.3617,-170.3399"/>
</g>
<!-- Node40 -->
<g id="node7" class="node">
<title>Node40</title>
<g id="a_node7"><a xlink:href="../../da/d77/physics_8h.xhtml" target="_top" xlink:title="/mnt/c/Users/Jameson\l/Desktop/git/openage\l&#45;new&#45;doc&#45;system/libopenage\l/event/demo/physics.h">
<polygon fill="#ffffff" stroke="#000000" points="60,-89.5 60,-141.5 201,-141.5 201,-89.5 60,-89.5"/>
<text text-anchor="start" x="68" y="-129.5" font-family="Helvetica,sans-Serif" font-size="10.00" fill="#000000">/mnt/c/Users/Jameson</text>
<text text-anchor="start" x="68" y="-118.5" font-family="Helvetica,sans-Serif" font-size="10.00" fill="#000000">/Desktop/git/openage</text>
<text text-anchor="start" x="68" y="-107.5" font-family="Helvetica,sans-Serif" font-size="10.00" fill="#000000">&#45;new&#45;doc&#45;system/libopenage</text>
<text text-anchor="middle" x="130.5" y="-96.5" font-family="Helvetica,sans-Serif" font-size="10.00" fill="#000000">/event/demo/physics.h</text>
</a>
</g>
</g>
<!-- Node35&#45;&gt;Node40 -->
<g id="edge7" class="edge">
<title>Node35&#45;&gt;Node40</title>
<path fill="none" stroke="#191970" d="M261.1941,-174.2464C237.606,-163.6436 211.3342,-151.8346 188.5676,-141.6011"/>
<polygon fill="#191970" stroke="#191970" points="259.8754,-177.4909 270.4313,-178.3984 262.7453,-171.1062 259.8754,-177.4909"/>
</g>
<!-- Node37 -->
<g id="node4" class="node">
<title>Node37</title>
<g id="a_node4"><a xlink:href="../../dd/d36/aicontroller_8cpp.xhtml" target="_top" xlink:title="/mnt/c/Users/Jameson\l/Desktop/git/openage\l&#45;new&#45;doc&#45;system/libopenage\l/event/demo/aicontroller.cpp">
<polygon fill="#ffffff" stroke="#000000" points="318,-.5 318,-52.5 459,-52.5 459,-.5 318,-.5"/>
<text text-anchor="start" x="326" y="-40.5" font-family="Helvetica,sans-Serif" font-size="10.00" fill="#000000">/mnt/c/Users/Jameson</text>
<text text-anchor="start" x="326" y="-29.5" font-family="Helvetica,sans-Serif" font-size="10.00" fill="#000000">/Desktop/git/openage</text>
<text text-anchor="start" x="326" y="-18.5" font-family="Helvetica,sans-Serif" font-size="10.00" fill="#000000">&#45;new&#45;doc&#45;system/libopenage</text>
<text text-anchor="middle" x="388.5" y="-7.5" font-family="Helvetica,sans-Serif" font-size="10.00" fill="#000000">/event/demo/aicontroller.cpp</text>
</a>
</g>
</g>
<!-- Node36&#45;&gt;Node37 -->
<g id="edge3" class="edge">
<title>Node36&#45;&gt;Node37</title>
<path fill="none" stroke="#191970" d="M351.8579,-80.8525C358.2093,-71.4313 364.9789,-61.3897 370.9489,-52.5341"/>
<polygon fill="#191970" stroke="#191970" points="348.8653,-79.0302 346.1775,-89.2784 354.6695,-82.9432 348.8653,-79.0302"/>
</g>
<!-- Node36&#45;&gt;Node38 -->
<g id="edge4" class="edge">
<title>Node36&#45;&gt;Node38</title>
<path fill="none" stroke="#191970" d="M291.8762,-82.5755C280.8524,-72.6653 268.913,-61.9319 258.4593,-52.5341"/>
<polygon fill="#191970" stroke="#191970" points="289.5556,-85.1958 299.3322,-89.2784 294.2354,-79.9901 289.5556,-85.1958"/>
</g>
<!-- Node40&#45;&gt;Node38 -->
<g id="edge8" class="edge">
<title>Node40&#45;&gt;Node38</title>
<path fill="none" stroke="#191970" d="M167.1238,-82.5755C178.1476,-72.6653 190.087,-61.9319 200.5407,-52.5341"/>
<polygon fill="#191970" stroke="#191970" points="164.7646,-79.9901 159.6678,-89.2784 169.4444,-85.1958 164.7646,-79.9901"/>
</g>
<!-- Node41 -->
<g id="node8" class="node">
<title>Node41</title>
<g id="a_node8"><a xlink:href="../../d0/d2b/physics_8cpp.xhtml" target="_top" xlink:title="/mnt/c/Users/Jameson\l/Desktop/git/openage\l&#45;new&#45;doc&#45;system/libopenage\l/event/demo/physics.cpp">
<polygon fill="#ffffff" stroke="#000000" points="0,-.5 0,-52.5 141,-52.5 141,-.5 0,-.5"/>
<text text-anchor="start" x="8" y="-40.5" font-family="Helvetica,sans-Serif" font-size="10.00" fill="#000000">/mnt/c/Users/Jameson</text>
<text text-anchor="start" x="8" y="-29.5" font-family="Helvetica,sans-Serif" font-size="10.00" fill="#000000">/Desktop/git/openage</text>
<text text-anchor="start" x="8" y="-18.5" font-family="Helvetica,sans-Serif" font-size="10.00" fill="#000000">&#45;new&#45;doc&#45;system/libopenage</text>
<text text-anchor="middle" x="70.5" y="-7.5" font-family="Helvetica,sans-Serif" font-size="10.00" fill="#000000">/event/demo/physics.cpp</text>
</a>
</g>
</g>
<!-- Node40&#45;&gt;Node41 -->
<g id="edge9" class="edge">
<title>Node40&#45;&gt;Node41</title>
<path fill="none" stroke="#191970" d="M107.1421,-80.8525C100.7907,-71.4313 94.0211,-61.3897 88.0511,-52.5341"/>
<polygon fill="#191970" stroke="#191970" points="104.3305,-82.9432 112.8225,-89.2784 110.1347,-79.0302 104.3305,-82.9432"/>
</g>
<!-- Node43 -->
<g id="node10" class="node">
<title>Node43</title>
<g id="a_node10"><a xlink:href="../../d5/d84/matrix_8cpp.xhtml" target="_top" xlink:title="/mnt/c/Users/Jameson\l/Desktop/git/openage\l&#45;new&#45;doc&#45;system/libopenage\l/util/matrix.cpp">
<polygon fill="#ffffff" stroke="#000000" points="735,-89.5 735,-141.5 876,-141.5 876,-89.5 735,-89.5"/>
<text text-anchor="start" x="743" y="-129.5" font-family="Helvetica,sans-Serif" font-size="10.00" fill="#000000">/mnt/c/Users/Jameson</text>
<text text-anchor="start" x="743" y="-118.5" font-family="Helvetica,sans-Serif" font-size="10.00" fill="#000000">/Desktop/git/openage</text>
<text text-anchor="start" x="743" y="-107.5" font-family="Helvetica,sans-Serif" font-size="10.00" fill="#000000">&#45;new&#45;doc&#45;system/libopenage</text>
<text text-anchor="middle" x="805.5" y="-96.5" font-family="Helvetica,sans-Serif" font-size="10.00" fill="#000000">/util/matrix.cpp</text>
</a>
</g>
</g>
<!-- Node42&#45;&gt;Node43 -->
<g id="edge11" class="edge">
<title>Node42&#45;&gt;Node43</title>
<path fill="none" stroke="#191970" d="M796.5833,-168.4059C798.0995,-159.4097 799.6959,-149.9379 801.1122,-141.5341"/>
<polygon fill="#191970" stroke="#191970" points="793.1301,-167.8358 794.9194,-178.2784 800.0327,-168.9992 793.1301,-167.8358"/>
</g>
<!-- Node42&#45;&gt;Node44 -->
<g id="edge12" class="edge">
<title>Node42&#45;&gt;Node44</title>
<path fill="none" stroke="#191970" d="M739.532,-172.9989C722.8692,-162.7004 704.559,-151.3837 688.6227,-141.5341"/>
<polygon fill="#191970" stroke="#191970" points="737.7275,-175.9982 748.0741,-178.2784 741.4078,-170.0437 737.7275,-175.9982"/>
</g>
<!-- Node42&#45;&gt;Node45 -->
<g id="edge13" class="edge">
<title>Node42&#45;&gt;Node45</title>
<path fill="none" stroke="#191970" d="M850.7042,-173.7059C871.2041,-163.2203 893.9037,-151.6096 913.6018,-141.5341"/>
<polygon fill="#191970" stroke="#191970" points="849.0738,-170.6085 841.7646,-178.2784 852.2615,-176.8406 849.0738,-170.6085"/>
</g>
<!-- Node46 -->
<g id="node13" class="node">
<title>Node46</title>
<g id="a_node13"><a xlink:href="../../da/d59/quaternion_8cpp.xhtml" target="_top" xlink:title="/mnt/c/Users/Jameson\l/Desktop/git/openage\l&#45;new&#45;doc&#45;system/libopenage\l/util/quaternion.cpp">
<polygon fill="#ffffff" stroke="#000000" points="973,-.5 973,-52.5 1114,-52.5 1114,-.5 973,-.5"/>
<text text-anchor="start" x="981" y="-40.5" font-family="Helvetica,sans-Serif" font-size="10.00" fill="#000000">/mnt/c/Users/Jameson</text>
<text text-anchor="start" x="981" y="-29.5" font-family="Helvetica,sans-Serif" font-size="10.00" fill="#000000">/Desktop/git/openage</text>
<text text-anchor="start" x="981" y="-18.5" font-family="Helvetica,sans-Serif" font-size="10.00" fill="#000000">&#45;new&#45;doc&#45;system/libopenage</text>
<text text-anchor="middle" x="1043.5" y="-7.5" font-family="Helvetica,sans-Serif" font-size="10.00" fill="#000000">/util/quaternion.cpp</text>
</a>
</g>
</g>
<!-- Node45&#45;&gt;Node46 -->
<g id="edge14" class="edge">
<title>Node45&#45;&gt;Node46</title>
<path fill="none" stroke="#191970" d="M994.4881,-81.7159C1003.0705,-72.0472 1012.2899,-61.6608 1020.391,-52.5341"/>
<polygon fill="#191970" stroke="#191970" points="991.7962,-79.4762 987.7753,-89.2784 997.0313,-84.1231 991.7962,-79.4762"/>
</g>
<!-- Node47 -->
<g id="node14" class="node">
<title>Node47</title>
<g id="a_node14"><a xlink:href="../../d8/dce/quaternion__test_8cpp.xhtml" target="_top" xlink:title="/mnt/c/Users/Jameson\l/Desktop/git/openage\l&#45;new&#45;doc&#45;system/libopenage\l/util/quaternion_test.cpp">
<polygon fill="#ffffff" stroke="#000000" points="814,-.5 814,-52.5 955,-52.5 955,-.5 814,-.5"/>
<text text-anchor="start" x="822" y="-40.5" font-family="Helvetica,sans-Serif" font-size="10.00" fill="#000000">/mnt/c/Users/Jameson</text>
<text text-anchor="start" x="822" y="-29.5" font-family="Helvetica,sans-Serif" font-size="10.00" fill="#000000">/Desktop/git/openage</text>
<text text-anchor="start" x="822" y="-18.5" font-family="Helvetica,sans-Serif" font-size="10.00" fill="#000000">&#45;new&#45;doc&#45;system/libopenage</text>
<text text-anchor="middle" x="884.5" y="-7.5" font-family="Helvetica,sans-Serif" font-size="10.00" fill="#000000">/util/quaternion_test.cpp</text>
</a>
</g>
</g>
<!-- Node45&#45;&gt;Node47 -->
<g id="edge15" class="edge">
<title>Node45&#45;&gt;Node47</title>
<path fill="none" stroke="#191970" d="M934.1323,-81.7159C925.4413,-72.0472 916.1052,-61.6608 907.9015,-52.5341"/>
<polygon fill="#191970" stroke="#191970" points="931.642,-84.1811 940.9301,-89.2784 936.848,-79.5015 931.642,-84.1811"/>
</g>
</g>
</svg>
