<?xml version="1.0" encoding="UTF-8" standalone="no"?>
<!DOCTYPE svg PUBLIC "-//W3C//DTD SVG 1.1//EN"
 "http://www.w3.org/Graphics/SVG/1.1/DTD/svg11.dtd">
<!-- Generated by graphviz version 2.40.1 (20161225.0304)
 -->
<!-- Title: openage::coord::tile::to_phys3 Pages: 1 -->
<svg width="253pt" height="88pt"
 viewBox="0.00 0.00 253.00 88.00" xmlns="http://www.w3.org/2000/svg" xmlns:xlink="http://www.w3.org/1999/xlink">
<g id="graph0" class="graph" transform="scale(1 1) rotate(0) translate(4 84)">
<title>openage::coord::tile::to_phys3</title>
<polygon fill="#ffffff" stroke="transparent" points="-4,4 -4,-84 249,-84 249,4 -4,4"/>
<!-- Node68 -->
<g id="node1" class="node">
<title>Node68</title>
<polygon fill="#bfbfbf" stroke="#000000" points="0,-24.5 0,-54.5 102,-54.5 102,-24.5 0,-24.5"/>
<text text-anchor="start" x="8" y="-42.5" font-family="Helvetica,sans-Serif" font-size="10.00" fill="#000000">openage::coord::tile</text>
<text text-anchor="middle" x="51" y="-31.5" font-family="Helvetica,sans-Serif" font-size="10.00" fill="#000000">::to_phys3</text>
</g>
<!-- Node69 -->
<g id="node2" class="node">
<title>Node69</title>
<g id="a_node2"><a xlink:href="../../db/dd1/structopenage_1_1coord_1_1tile3.xhtml#a4c8cdcd73dd2d7d1e6109c8b4a82ba65" target="_top" xlink:title="openage::coord::tile3\l::to_phys3">
<polygon fill="#ffffff" stroke="#000000" points="138,-49.5 138,-79.5 245,-79.5 245,-49.5 138,-49.5"/>
<text text-anchor="start" x="146" y="-67.5" font-family="Helvetica,sans-Serif" font-size="10.00" fill="#000000">openage::coord::tile3</text>
<text text-anchor="middle" x="191.5" y="-56.5" font-family="Helvetica,sans-Serif" font-size="10.00" fill="#000000">::to_phys3</text>
</a>
</g>
</g>
<!-- Node68&#45;&gt;Node69 -->
<g id="edge1" class="edge">
<title>Node68&#45;&gt;Node69</title>
<path fill="none" stroke="#191970" d="M102.1212,-48.5963C110.4675,-50.0814 119.2039,-51.6359 127.8078,-53.1669"/>
<polygon fill="#191970" stroke="#191970" points="127.3575,-56.6416 137.8161,-54.9477 128.5839,-49.7499 127.3575,-56.6416"/>
</g>
<!-- Node70 -->
<g id="node3" class="node">
<title>Node70</title>
<g id="a_node3"><a xlink:href="../../d5/d10/structopenage_1_1coord_1_1tile.xhtml#a3b1cc7af8687d57f014cf86e57476b2b" target="_top" xlink:title="adds an UP component to the coordinate. ">
<polygon fill="#ffffff" stroke="#000000" points="140.5,-.5 140.5,-30.5 242.5,-30.5 242.5,-.5 140.5,-.5"/>
<text text-anchor="start" x="148.5" y="-18.5" font-family="Helvetica,sans-Serif" font-size="10.00" fill="#000000">openage::coord::tile</text>
<text text-anchor="middle" x="191.5" y="-7.5" font-family="Helvetica,sans-Serif" font-size="10.00" fill="#000000">::to_tile3</text>
</a>
</g>
</g>
<!-- Node68&#45;&gt;Node70 -->
<g id="edge2" class="edge">
<title>Node68&#45;&gt;Node70</title>
<path fill="none" stroke="#191970" d="M102.1212,-30.7676C111.2252,-29.2124 120.7932,-27.578 130.1473,-25.9802"/>
<polygon fill="#191970" stroke="#191970" points="130.9136,-29.4001 140.1814,-24.2662 129.7349,-22.5 130.9136,-29.4001"/>
</g>
</g>
</svg>
