<?xml version="1.0" encoding="UTF-8" standalone="no"?>
<!DOCTYPE svg PUBLIC "-//W3C//DTD SVG 1.1//EN"
 "http://www.w3.org/Graphics/SVG/1.1/DTD/svg11.dtd">
<!-- Generated by graphviz version 2.40.1 (20161225.0304)
 -->
<!-- Title: openage::coord::tile::to_viewport Pages: 1 -->
<svg width="589pt" height="137pt"
 viewBox="0.00 0.00 589.00 137.00" xmlns="http://www.w3.org/2000/svg" xmlns:xlink="http://www.w3.org/1999/xlink">
<g id="graph0" class="graph" transform="scale(1 1) rotate(0) translate(4 133)">
<title>openage::coord::tile::to_viewport</title>
<polygon fill="#ffffff" stroke="transparent" points="-4,4 -4,-133 585,-133 585,4 -4,4"/>
<!-- Node90 -->
<g id="node1" class="node">
<title>Node90</title>
<polygon fill="#bfbfbf" stroke="#000000" points="0,-24.5 0,-54.5 102,-54.5 102,-24.5 0,-24.5"/>
<text text-anchor="start" x="8" y="-42.5" font-family="Helvetica,sans-Serif" font-size="10.00" fill="#000000">openage::coord::tile</text>
<text text-anchor="middle" x="51" y="-31.5" font-family="Helvetica,sans-Serif" font-size="10.00" fill="#000000">::to_viewport</text>
</g>
<!-- Node91 -->
<g id="node2" class="node">
<title>Node91</title>
<g id="a_node2"><a xlink:href="../../d5/d10/structopenage_1_1coord_1_1tile.xhtml#a81cb5eb0d3404e8433ffbc3a484160dc" target="_top" xlink:title="openage::coord::tile\l::to_camgame">
<polygon fill="#ffffff" stroke="#000000" points="153,-49.5 153,-79.5 255,-79.5 255,-49.5 153,-49.5"/>
<text text-anchor="start" x="161" y="-67.5" font-family="Helvetica,sans-Serif" font-size="10.00" fill="#000000">openage::coord::tile</text>
<text text-anchor="middle" x="204" y="-56.5" font-family="Helvetica,sans-Serif" font-size="10.00" fill="#000000">::to_camgame</text>
</a>
</g>
</g>
<!-- Node90&#45;&gt;Node91 -->
<g id="edge1" class="edge">
<title>Node90&#45;&gt;Node91</title>
<path fill="none" stroke="#191970" d="M102.3724,-47.8942C115.3089,-50.008 129.3238,-52.298 142.6935,-54.4826"/>
<polygon fill="#191970" stroke="#191970" points="142.3296,-57.9695 152.7632,-56.128 143.4585,-51.0611 142.3296,-57.9695"/>
</g>
<!-- Node96 -->
<g id="node7" class="node">
<title>Node96</title>
<g id="a_node7"><a xlink:href="../../d6/d80/structopenage_1_1coord_1_1camgame.xhtml#a3fc238716b4f13031e53b8cb1d8c3a44" target="_top" xlink:title="See the comments for camgame_delta::to_phys3. ">
<polygon fill="#ffffff" stroke="#000000" points="138,-.5 138,-30.5 270,-30.5 270,-.5 138,-.5"/>
<text text-anchor="start" x="146" y="-18.5" font-family="Helvetica,sans-Serif" font-size="10.00" fill="#000000">openage::coord::camgame</text>
<text text-anchor="middle" x="204" y="-7.5" font-family="Helvetica,sans-Serif" font-size="10.00" fill="#000000">::to_viewport</text>
</a>
</g>
</g>
<!-- Node90&#45;&gt;Node96 -->
<g id="edge6" class="edge">
<title>Node90&#45;&gt;Node96</title>
<path fill="none" stroke="#191970" d="M102.3724,-31.4416C110.5464,-30.1594 119.1509,-28.8097 127.7512,-27.4606"/>
<polygon fill="#191970" stroke="#191970" points="128.4824,-30.8888 137.8192,-25.8813 127.3976,-23.9733 128.4824,-30.8888"/>
</g>
<!-- Node92 -->
<g id="node3" class="node">
<title>Node92</title>
<g id="a_node3"><a xlink:href="../../d2/da4/structopenage_1_1coord_1_1phys3.xhtml#a03daba2a3e79650c251e3c08e0838a5e" target="_top" xlink:title="openage::coord::phys3\l::to_camgame">
<polygon fill="#ffffff" stroke="#000000" points="314,-98.5 314,-128.5 430,-128.5 430,-98.5 314,-98.5"/>
<text text-anchor="start" x="322" y="-116.5" font-family="Helvetica,sans-Serif" font-size="10.00" fill="#000000">openage::coord::phys3</text>
<text text-anchor="middle" x="372" y="-105.5" font-family="Helvetica,sans-Serif" font-size="10.00" fill="#000000">::to_camgame</text>
</a>
</g>
</g>
<!-- Node91&#45;&gt;Node92 -->
<g id="edge2" class="edge">
<title>Node91&#45;&gt;Node92</title>
<path fill="none" stroke="#191970" d="M255.3184,-79.4679C272.8225,-84.5732 292.5698,-90.3329 310.7736,-95.6423"/>
<polygon fill="#191970" stroke="#191970" points="309.8369,-99.0149 320.417,-98.4549 311.797,-92.2949 309.8369,-99.0149"/>
</g>
<!-- Node93 -->
<g id="node4" class="node">
<title>Node93</title>
<g id="a_node4"><a xlink:href="../../d5/d10/structopenage_1_1coord_1_1tile.xhtml#ac306cc74c14e094567447277327b389a" target="_top" xlink:title="openage::coord::tile\l::to_phys3">
<polygon fill="#ffffff" stroke="#000000" points="321,-49.5 321,-79.5 423,-79.5 423,-49.5 321,-49.5"/>
<text text-anchor="start" x="329" y="-67.5" font-family="Helvetica,sans-Serif" font-size="10.00" fill="#000000">openage::coord::tile</text>
<text text-anchor="middle" x="372" y="-56.5" font-family="Helvetica,sans-Serif" font-size="10.00" fill="#000000">::to_phys3</text>
</a>
</g>
</g>
<!-- Node91&#45;&gt;Node93 -->
<g id="edge3" class="edge">
<title>Node91&#45;&gt;Node93</title>
<path fill="none" stroke="#191970" d="M255.3184,-64.5C272.8233,-64.5 292.5715,-64.5 310.7759,-64.5"/>
<polygon fill="#191970" stroke="#191970" points="310.9959,-68.0001 320.9959,-64.5 310.9958,-61.0001 310.9959,-68.0001"/>
</g>
<!-- Node94 -->
<g id="node5" class="node">
<title>Node94</title>
<g id="a_node5"><a xlink:href="../../db/dd1/structopenage_1_1coord_1_1tile3.xhtml#a4c8cdcd73dd2d7d1e6109c8b4a82ba65" target="_top" xlink:title="openage::coord::tile3\l::to_phys3">
<polygon fill="#ffffff" stroke="#000000" points="474,-73.5 474,-103.5 581,-103.5 581,-73.5 474,-73.5"/>
<text text-anchor="start" x="482" y="-91.5" font-family="Helvetica,sans-Serif" font-size="10.00" fill="#000000">openage::coord::tile3</text>
<text text-anchor="middle" x="527.5" y="-80.5" font-family="Helvetica,sans-Serif" font-size="10.00" fill="#000000">::to_phys3</text>
</a>
</g>
</g>
<!-- Node93&#45;&gt;Node94 -->
<g id="edge4" class="edge">
<title>Node93&#45;&gt;Node94</title>
<path fill="none" stroke="#191970" d="M423.3475,-72.425C436.2481,-74.4161 450.2491,-76.577 463.6771,-78.6495"/>
<polygon fill="#191970" stroke="#191970" points="463.3894,-82.1465 473.8063,-80.2129 464.4572,-75.2284 463.3894,-82.1465"/>
</g>
<!-- Node95 -->
<g id="node6" class="node">
<title>Node95</title>
<g id="a_node6"><a xlink:href="../../d5/d10/structopenage_1_1coord_1_1tile.xhtml#a3b1cc7af8687d57f014cf86e57476b2b" target="_top" xlink:title="adds an UP component to the coordinate. ">
<polygon fill="#ffffff" stroke="#000000" points="476.5,-24.5 476.5,-54.5 578.5,-54.5 578.5,-24.5 476.5,-24.5"/>
<text text-anchor="start" x="484.5" y="-42.5" font-family="Helvetica,sans-Serif" font-size="10.00" fill="#000000">openage::coord::tile</text>
<text text-anchor="middle" x="527.5" y="-31.5" font-family="Helvetica,sans-Serif" font-size="10.00" fill="#000000">::to_tile3</text>
</a>
</g>
</g>
<!-- Node93&#45;&gt;Node95 -->
<g id="edge5" class="edge">
<title>Node93&#45;&gt;Node95</title>
<path fill="none" stroke="#191970" d="M423.3475,-56.2448C437.0864,-54.036 452.0734,-51.6265 466.2873,-49.3413"/>
<polygon fill="#191970" stroke="#191970" points="467.154,-52.747 476.4716,-47.7039 466.0428,-45.8357 467.154,-52.747"/>
</g>
<!-- Node97 -->
<g id="node8" class="node">
<title>Node97</title>
<g id="a_node8"><a xlink:href="../../d5/d40/structopenage_1_1coord_1_1camgame__delta.xhtml#a9ab7f49a99385626a0d6a11df1a6e211" target="_top" xlink:title="openage::coord::camgame\l_delta::to_viewport">
<polygon fill="#ffffff" stroke="#000000" points="306,-.5 306,-30.5 438,-30.5 438,-.5 306,-.5"/>
<text text-anchor="start" x="314" y="-18.5" font-family="Helvetica,sans-Serif" font-size="10.00" fill="#000000">openage::coord::camgame</text>
<text text-anchor="middle" x="372" y="-7.5" font-family="Helvetica,sans-Serif" font-size="10.00" fill="#000000">_delta::to_viewport</text>
</a>
</g>
</g>
<!-- Node96&#45;&gt;Node97 -->
<g id="edge7" class="edge">
<title>Node96&#45;&gt;Node97</title>
<path fill="none" stroke="#191970" d="M270.398,-15.5C278.6791,-15.5 287.199,-15.5 295.6161,-15.5"/>
<polygon fill="#191970" stroke="#191970" points="295.8092,-19.0001 305.8092,-15.5 295.8092,-12.0001 295.8092,-19.0001"/>
</g>
</g>
</svg>
