<?xml version="1.0" encoding="UTF-8" standalone="no"?>
<!DOCTYPE svg PUBLIC "-//W3C//DTD SVG 1.1//EN"
 "http://www.w3.org/Graphics/SVG/1.1/DTD/svg11.dtd">
<!-- Generated by graphviz version 2.40.1 (20161225.0304)
 -->
<!-- Title: openage::Unit::push_action Pages: 1 -->
<!--zoomable 78 -->
<svg id="main" version="1.1" xmlns="http://www.w3.org/2000/svg" xmlns:xlink="http://www.w3.org/1999/xlink" xml:space="preserve" onload="init(evt)">
<style type="text/css"><![CDATA[
.edge:hover path { stroke: red; }
.edge:hover polygon { stroke: red; fill: red; }
]]></style>
<script type="text/javascript"><![CDATA[
var edges = document.getElementsByTagName('g');
if (edges && edges.length) {
  for (var i=0;i<edges.length;i++) {
    if (edges[i].id.substr(0,4)=='edge') {
      edges[i].setAttribute('class','edge');
    }
  }
}
]]></script>
        <defs>
                <circle id="rim" cx="0" cy="0" r="7"/>
                <circle id="rim2" cx="0" cy="0" r="3.5"/>
                <g id="zoomPlus">
                        <use xlink:href="#rim" fill="#404040">
                                <set attributeName="fill" to="#808080" begin="zoomplus.mouseover" end="zoomplus.mouseout"/>
                        </use>
                        <path d="M-4,0h8M0,-4v8" fill="none" stroke="white" stroke-width="1.5" pointer-events="none"/>
                </g>
                <g id="zoomMin">
                        <use xlink:href="#rim" fill="#404040">
                                <set attributeName="fill" to="#808080" begin="zoomminus.mouseover" end="zoomminus.mouseout"/>
                        </use>
                        <path d="M-4,0h8" fill="none" stroke="white" stroke-width="1.5" pointer-events="none"/>
                </g>
                <g id="dirArrow">
                        <path fill="none" stroke="white" stroke-width="1.5" d="M0,-3.0v7 M-2.5,-0.5L0,-3.0L2.5,-0.5"/>
                </g>
               <g id="resetDef">
                       <use xlink:href="#rim2" fill="#404040">
                               <set attributeName="fill" to="#808080" begin="reset.mouseover" end="reset.mouseout"/>
                       </use>
               </g>
        </defs>

<script type="text/javascript">
var viewWidth = 515;
var viewHeight = 78;
var sectionId = 'dynsection-34';
</script>
<script xlink:href="../../svgpan.js"/>
<svg id="graph" class="graph">
<g id="viewport">
<title>openage::Unit::push_action</title>
<polygon fill="#ffffff" stroke="transparent" points="-4,4 -4,-73.5 511,-73.5 511,4 -4,4"/>
<!-- Node979 -->
<g id="node1" class="node">
<title>Node979</title>
<polygon fill="#bfbfbf" stroke="#000000" points="0,-17 0,-47 104,-47 104,-17 0,-17"/>
<text text-anchor="start" x="8" y="-35" font-family="Helvetica,sans-Serif" font-size="10.00" fill="#000000">openage::Unit::push</text>
<text text-anchor="middle" x="52" y="-24" font-family="Helvetica,sans-Serif" font-size="10.00" fill="#000000">_action</text>
</g>
<!-- Node980 -->
<g id="node2" class="node">
<title>Node980</title>
<g id="a_node2"><a xlink:href="../../df/dea/classopenage_1_1_unit.xhtml#a21542f7813db482fd36799cf12971979" target="_top" xlink:title="true when the unit is alive and able to add new actions ">
<polygon fill="#ffffff" stroke="#000000" points="140,-17 140,-47 253,-47 253,-17 140,-17"/>
<text text-anchor="start" x="148" y="-35" font-family="Helvetica,sans-Serif" font-size="10.00" fill="#000000">openage::Unit::accept</text>
<text text-anchor="middle" x="196.5" y="-24" font-family="Helvetica,sans-Serif" font-size="10.00" fill="#000000">_commands</text>
</a>
</g>
</g>
<!-- Node979&#45;&gt;Node980 -->
<g id="edge1" class="edge">
<title>Node979&#45;&gt;Node980</title>
<path fill="none" stroke="#191970" d="M104.1678,-32C112.3289,-32 120.8613,-32 129.3014,-32"/>
<polygon fill="#191970" stroke="#191970" points="129.5195,-35.5001 139.5194,-32 129.5194,-28.5001 129.5195,-35.5001"/>
</g>
<!-- Node981 -->
<g id="node3" class="node">
<title>Node981</title>
<g id="a_node3"><a xlink:href="../../df/dea/classopenage_1_1_unit.xhtml#a257ef8a7aeceb306d372ef745b40ef90" target="_top" xlink:title="checks the entity has an action, if it has no action it should be removed from the game ...">
<polygon fill="#ffffff" stroke="#000000" points="289,-39 289,-69 388,-69 388,-39 289,-39"/>
<text text-anchor="start" x="297" y="-57" font-family="Helvetica,sans-Serif" font-size="10.00" fill="#000000">openage::Unit::has</text>
<text text-anchor="middle" x="338.5" y="-46" font-family="Helvetica,sans-Serif" font-size="10.00" fill="#000000">_action</text>
</a>
</g>
</g>
<!-- Node980&#45;&gt;Node981 -->
<g id="edge2" class="edge">
<title>Node980&#45;&gt;Node981</title>
<path fill="none" stroke="#191970" d="M253.0302,-40.7582C261.388,-42.0531 270.0251,-43.3912 278.4514,-44.6967"/>
<polygon fill="#191970" stroke="#191970" points="278.1741,-48.1954 288.5921,-46.2678 279.2459,-41.2779 278.1741,-48.1954"/>
</g>
<!-- Node982 -->
<g id="node4" class="node">
<title>Node982</title>
<g id="a_node4"><a xlink:href="../../df/dea/classopenage_1_1_unit.xhtml#a86a49987e082055274e98a142baffad8" target="_top" xlink:title="returns the current action on top of the stack ">
<polygon fill="#ffffff" stroke="#000000" points="290,-.5 290,-19.5 387,-19.5 387,-.5 290,-.5"/>
<text text-anchor="middle" x="338.5" y="-7.5" font-family="Helvetica,sans-Serif" font-size="10.00" fill="#000000">openage::Unit::top</text>
</a>
</g>
</g>
<!-- Node980&#45;&gt;Node982 -->
<g id="edge3" class="edge">
<title>Node980&#45;&gt;Node982</title>
<path fill="none" stroke="#191970" d="M253.0302,-23.2418C261.9088,-21.8662 271.1027,-20.4418 280.0242,-19.0596"/>
<polygon fill="#191970" stroke="#191970" points="280.6035,-22.5117 289.9497,-17.5219 279.5318,-15.5942 280.6035,-22.5117"/>
</g>
<!-- Node983 -->
<g id="node5" class="node">
<title>Node983</title>
<g id="a_node5"><a xlink:href="../../dd/d1a/namespaceopenage_1_1log.xhtml#ab6b4b10be67af93ab6c4d5a36139736e" target="_top" xlink:title="error message ">
<polygon fill="#ffffff" stroke="#000000" points="424,-.5 424,-19.5 507,-19.5 507,-.5 424,-.5"/>
<text text-anchor="middle" x="465.5" y="-7.5" font-family="Helvetica,sans-Serif" font-size="10.00" fill="#000000">openage.log.err</text>
</a>
</g>
</g>
<!-- Node982&#45;&gt;Node983 -->
<g id="edge4" class="edge">
<title>Node982&#45;&gt;Node983</title>
<path fill="none" stroke="#191970" d="M387.2383,-10C395.8859,-10 404.9202,-10 413.6503,-10"/>
<polygon fill="#191970" stroke="#191970" points="413.7176,-13.5001 423.7175,-10 413.7175,-6.5001 413.7176,-13.5001"/>
</g>
</g>
</svg>
        <g id="navigator" transform="translate(0 0)" fill="#404254">
                <rect fill="#f2f5e9" fill-opacity="0.5" stroke="#606060" stroke-width=".5" x="0" y="0" width="60" height="60"/>
                <use id="zoomplus" xlink:href="#zoomPlus" x="17" y="9" onmousedown="handleZoom(evt,'in')"/>
                <use id="zoomminus" xlink:href="#zoomMin" x="42" y="9" onmousedown="handleZoom(evt,'out')"/>
                <use id="reset" xlink:href="#resetDef" x="30" y="36" onmousedown="handleReset()"/>
                <g id="arrowUp" xlink:href="#dirArrow" transform="translate(30 24)" onmousedown="handlePan(0,-1)">
                  <use xlink:href="#rim" fill="#404040">
                        <set attributeName="fill" to="#808080" begin="arrowUp.mouseover" end="arrowUp.mouseout"/>
                  </use>
                  <path fill="none" stroke="white" stroke-width="1.5" d="M0,-3.0v7 M-2.5,-0.5L0,-3.0L2.5,-0.5"/>
                </g>
                <g id="arrowRight" xlink:href="#dirArrow" transform="rotate(90) translate(36 -43)" onmousedown="handlePan(1,0)">
                  <use xlink:href="#rim" fill="#404040">
                        <set attributeName="fill" to="#808080" begin="arrowRight.mouseover" end="arrowRight.mouseout"/>
                  </use>
                  <path fill="none" stroke="white" stroke-width="1.5" d="M0,-3.0v7 M-2.5,-0.5L0,-3.0L2.5,-0.5"/>
                </g>
                <g id="arrowDown" xlink:href="#dirArrow" transform="rotate(180) translate(-30 -48)" onmousedown="handlePan(0,1)">
                  <use xlink:href="#rim" fill="#404040">
                        <set attributeName="fill" to="#808080" begin="arrowDown.mouseover" end="arrowDown.mouseout"/>
                  </use>
                  <path fill="none" stroke="white" stroke-width="1.5" d="M0,-3.0v7 M-2.5,-0.5L0,-3.0L2.5,-0.5"/>
                </g>
                <g id="arrowLeft" xlink:href="#dirArrow" transform="rotate(270) translate(-36 17)" onmousedown="handlePan(-1,0)">
                  <use xlink:href="#rim" fill="#404040">
                        <set attributeName="fill" to="#808080" begin="arrowLeft.mouseover" end="arrowLeft.mouseout"/>
                  </use>
                  <path fill="none" stroke="white" stroke-width="1.5" d="M0,-3.0v7 M-2.5,-0.5L0,-3.0L2.5,-0.5"/>
                </g>
        </g>
        <svg viewBox="0 0 15 15" width="100%" height="30px" preserveAspectRatio="xMaxYMin meet">
         <g id="arrow_out" transform="scale(0.3 0.3)">
          <a xlink:href="classopenage_1_1_unit_aecd686fafc67487f4df4d3637f2621f4_cgraph_org.svg" target="_base">
           <rect id="button" ry="5" rx="5" y="6" x="6" height="38" width="38"
                fill="#f2f5e9" fill-opacity="0.5" stroke="#606060" stroke-width="1.0"/>
           <path id="arrow"
             d="M 11.500037,31.436501 C 11.940474,20.09759 22.043105,11.32322 32.158766,21.979434 L 37.068811,17.246167 C 37.068811,17.246167 37.088388,32 37.088388,32 L 22.160133,31.978069 C 22.160133,31.978069 26.997745,27.140456 26.997745,27.140456 C 18.528582,18.264221 13.291696,25.230495 11.500037,31.436501 z"
             style="fill:#404040;"/>
          </a>
         </g>
        </svg>
</svg>
