<?xml version="1.0" encoding="UTF-8" standalone="no"?>
<!DOCTYPE svg PUBLIC "-//W3C//DTD SVG 1.1//EN"
 "http://www.w3.org/Graphics/SVG/1.1/DTD/svg11.dtd">
<!-- Generated by graphviz version 2.40.1 (20161225.0304)
 -->
<!-- Title: openage::Unit::add_attributes Pages: 1 -->
<svg width="756pt" height="235pt"
 viewBox="0.00 0.00 756.00 235.00" xmlns="http://www.w3.org/2000/svg" xmlns:xlink="http://www.w3.org/1999/xlink">
<g id="graph0" class="graph" transform="scale(1 1) rotate(0) translate(4 231)">
<title>openage::Unit::add_attributes</title>
<polygon fill="#ffffff" stroke="transparent" points="-4,4 -4,-231 752,-231 752,4 -4,4"/>
<!-- Node51 -->
<g id="node1" class="node">
<title>Node51</title>
<polygon fill="#bfbfbf" stroke="#000000" points="0,-122.5 0,-152.5 99,-152.5 99,-122.5 0,-122.5"/>
<text text-anchor="start" x="8" y="-140.5" font-family="Helvetica,sans-Serif" font-size="10.00" fill="#000000">openage::Unit::add</text>
<text text-anchor="middle" x="49.5" y="-129.5" font-family="Helvetica,sans-Serif" font-size="10.00" fill="#000000">_attributes</text>
</g>
<!-- Node52 -->
<g id="node2" class="node">
<title>Node52</title>
<g id="a_node2"><a xlink:href="../../dd/d39/classopenage_1_1_unit_type.xhtml#acf200f0f7321ae1e074bae39bc437b53" target="_top" xlink:title="copy attributes of this unit type to a new unit instance ">
<polygon fill="#ffffff" stroke="#000000" points="136,-171.5 136,-201.5 241,-201.5 241,-171.5 136,-171.5"/>
<text text-anchor="start" x="144" y="-189.5" font-family="Helvetica,sans-Serif" font-size="10.00" fill="#000000">openage::UnitType::</text>
<text text-anchor="middle" x="188.5" y="-178.5" font-family="Helvetica,sans-Serif" font-size="10.00" fill="#000000">copy_attributes</text>
</a>
</g>
</g>
<!-- Node51&#45;&gt;Node52 -->
<g id="edge1" class="edge">
<title>Node51&#45;&gt;Node52</title>
<path fill="none" stroke="#191970" d="M102.0803,-156.0355C116.4352,-161.0959 131.8155,-166.5177 145.5634,-171.3641"/>
<polygon fill="#191970" stroke="#191970" points="102.9336,-152.6253 92.3388,-152.6014 100.6063,-159.2271 102.9336,-152.6253"/>
</g>
<!-- Node54 -->
<g id="node4" class="node">
<title>Node54</title>
<g id="a_node4"><a xlink:href="../../df/dea/classopenage_1_1_unit.xhtml#a76a10b9ab26e62d7b712a6c796052ee3" target="_top" xlink:title="constructs a new location for this unit replacing any existing locatio ">
<polygon fill="#ffffff" stroke="#000000" points="135,-98.5 135,-128.5 242,-128.5 242,-98.5 135,-98.5"/>
<text text-anchor="start" x="143" y="-116.5" font-family="Helvetica,sans-Serif" font-size="10.00" fill="#000000">openage::Unit::make</text>
<text text-anchor="middle" x="188.5" y="-105.5" font-family="Helvetica,sans-Serif" font-size="10.00" fill="#000000">_location</text>
</a>
</g>
</g>
<!-- Node51&#45;&gt;Node54 -->
<g id="edge3" class="edge">
<title>Node51&#45;&gt;Node54</title>
<path fill="none" stroke="#191970" d="M109.1729,-127.1968C117.6977,-125.7249 126.4238,-124.2182 134.8242,-122.7678"/>
<polygon fill="#191970" stroke="#191970" points="108.5482,-123.7527 99.2896,-128.9032 109.7393,-130.6507 108.5482,-123.7527"/>
</g>
<!-- Node53 -->
<g id="node3" class="node">
<title>Node53</title>
<g id="a_node3"><a xlink:href="../../dc/dfe/classopenage_1_1_nyan_type.xhtml#ad058ecef5e52cd4da37dc7d2f10e4255" target="_top" xlink:title="Initialize units attributes to this type spec. ">
<polygon fill="#ffffff" stroke="#000000" points="292.5,-196.5 292.5,-226.5 402.5,-226.5 402.5,-196.5 292.5,-196.5"/>
<text text-anchor="start" x="300.5" y="-214.5" font-family="Helvetica,sans-Serif" font-size="10.00" fill="#000000">openage::NyanType::</text>
<text text-anchor="middle" x="347.5" y="-203.5" font-family="Helvetica,sans-Serif" font-size="10.00" fill="#000000">initialise</text>
</a>
</g>
</g>
<!-- Node52&#45;&gt;Node53 -->
<g id="edge2" class="edge">
<title>Node52&#45;&gt;Node53</title>
<path fill="none" stroke="#191970" d="M251.2243,-196.3623C264.8012,-198.497 279.062,-200.7393 292.3236,-202.8245"/>
<polygon fill="#191970" stroke="#191970" points="251.4255,-192.851 241.0032,-194.7552 250.3382,-199.7661 251.4255,-192.851"/>
</g>
<!-- Node55 -->
<g id="node5" class="node">
<title>Node55</title>
<g id="a_node5"><a xlink:href="../../d2/d60/classopenage_1_1_object_producer.xhtml#a6063c50f0e551a3a5a1a4c08f555bf0e" target="_top" xlink:title="set unit in place – return if placement was successful ">
<polygon fill="#ffffff" stroke="#000000" points="284,-147.5 284,-177.5 411,-177.5 411,-147.5 284,-147.5"/>
<text text-anchor="start" x="292" y="-165.5" font-family="Helvetica,sans-Serif" font-size="10.00" fill="#000000">openage::ObjectProducer</text>
<text text-anchor="middle" x="347.5" y="-154.5" font-family="Helvetica,sans-Serif" font-size="10.00" fill="#000000">::place</text>
</a>
</g>
</g>
<!-- Node54&#45;&gt;Node55 -->
<g id="edge4" class="edge">
<title>Node54&#45;&gt;Node55</title>
<path fill="none" stroke="#191970" d="M247.2746,-131.6129C264.1782,-136.8222 282.4257,-142.4457 298.6592,-147.4484"/>
<polygon fill="#191970" stroke="#191970" points="248.0899,-128.2018 237.5026,-128.6014 246.0283,-134.8914 248.0899,-128.2018"/>
</g>
<!-- Node58 -->
<g id="node8" class="node">
<title>Node58</title>
<g id="a_node8"><a xlink:href="../../d4/d85/classopenage_1_1_building_producer.xhtml#a4ed90b69cb9398ae0cc40625a1fa36d3" target="_top" xlink:title="set unit in place – return if placement was successful ">
<polygon fill="#ffffff" stroke="#000000" points="281,-98.5 281,-128.5 414,-128.5 414,-98.5 281,-98.5"/>
<text text-anchor="start" x="289" y="-116.5" font-family="Helvetica,sans-Serif" font-size="10.00" fill="#000000">openage::BuildingProducer</text>
<text text-anchor="middle" x="347.5" y="-105.5" font-family="Helvetica,sans-Serif" font-size="10.00" fill="#000000">::place</text>
</a>
</g>
</g>
<!-- Node54&#45;&gt;Node58 -->
<g id="edge7" class="edge">
<title>Node54&#45;&gt;Node58</title>
<path fill="none" stroke="#191970" d="M252.3356,-113.5C261.689,-113.5 271.3437,-113.5 280.7536,-113.5"/>
<polygon fill="#191970" stroke="#191970" points="252.3302,-110.0001 242.3301,-113.5 252.3301,-117.0001 252.3302,-110.0001"/>
</g>
<!-- Node59 -->
<g id="node9" class="node">
<title>Node59</title>
<g id="a_node9"><a xlink:href="../../df/d00/classopenage_1_1_projectile_producer.xhtml#a02c2dedff8bebf9d036393d8e35b37b3" target="_top" xlink:title="set unit in place – return if placement was successful ">
<polygon fill="#ffffff" stroke="#000000" points="278,-49.5 278,-79.5 417,-79.5 417,-49.5 278,-49.5"/>
<text text-anchor="start" x="286" y="-67.5" font-family="Helvetica,sans-Serif" font-size="10.00" fill="#000000">openage::ProjectileProducer</text>
<text text-anchor="middle" x="347.5" y="-56.5" font-family="Helvetica,sans-Serif" font-size="10.00" fill="#000000">::place</text>
</a>
</g>
</g>
<!-- Node54&#45;&gt;Node59 -->
<g id="edge8" class="edge">
<title>Node54&#45;&gt;Node59</title>
<path fill="none" stroke="#191970" d="M247.2746,-95.3871C264.1782,-90.1778 282.4257,-84.5543 298.6592,-79.5516"/>
<polygon fill="#191970" stroke="#191970" points="246.0283,-92.1086 237.5026,-98.3986 248.0899,-98.7982 246.0283,-92.1086"/>
</g>
<!-- Node60 -->
<g id="node10" class="node">
<title>Node60</title>
<g id="a_node10"><a xlink:href="../../dc/dfe/classopenage_1_1_nyan_type.xhtml#ae2f61064a00875267824a0bdfba63085" target="_top" xlink:title="set unit in place – return if placement was successful ">
<polygon fill="#ffffff" stroke="#000000" points="292.5,-.5 292.5,-30.5 402.5,-30.5 402.5,-.5 292.5,-.5"/>
<text text-anchor="start" x="300.5" y="-18.5" font-family="Helvetica,sans-Serif" font-size="10.00" fill="#000000">openage::NyanType::</text>
<text text-anchor="middle" x="347.5" y="-7.5" font-family="Helvetica,sans-Serif" font-size="10.00" fill="#000000">place</text>
</a>
</g>
</g>
<!-- Node54&#45;&gt;Node60 -->
<g id="edge9" class="edge">
<title>Node54&#45;&gt;Node60</title>
<path fill="none" stroke="#191970" d="M211.1143,-91.377C228.3138,-75.5096 253.1786,-54.5394 278,-40.5 284.5851,-36.7754 291.8264,-33.4396 299.0717,-30.5114"/>
<polygon fill="#191970" stroke="#191970" points="208.6729,-88.8683 203.7789,-98.2651 213.4646,-93.9712 208.6729,-88.8683"/>
</g>
<!-- Node56 -->
<g id="node6" class="node">
<title>Node56</title>
<g id="a_node6"><a xlink:href="../../de/d30/classopenage_1_1_movable_producer.xhtml#ace952d53d7717d9db843391f49fbf76b" target="_top" xlink:title="set unit in place – return if placement was successful ">
<polygon fill="#ffffff" stroke="#000000" points="453,-147.5 453,-177.5 588,-177.5 588,-147.5 453,-147.5"/>
<text text-anchor="start" x="461" y="-165.5" font-family="Helvetica,sans-Serif" font-size="10.00" fill="#000000">openage::MovableProducer</text>
<text text-anchor="middle" x="520.5" y="-154.5" font-family="Helvetica,sans-Serif" font-size="10.00" fill="#000000">::place</text>
</a>
</g>
</g>
<!-- Node55&#45;&gt;Node56 -->
<g id="edge5" class="edge">
<title>Node55&#45;&gt;Node56</title>
<path fill="none" stroke="#191970" d="M421.6587,-162.5C431.9925,-162.5 442.5662,-162.5 452.7735,-162.5"/>
<polygon fill="#191970" stroke="#191970" points="421.4273,-159.0001 411.4273,-162.5 421.4273,-166.0001 421.4273,-159.0001"/>
</g>
<!-- Node57 -->
<g id="node7" class="node">
<title>Node57</title>
<g id="a_node7"><a xlink:href="../../db/db1/classopenage_1_1_living_producer.xhtml#af454fa0fd996b30d44590a2e00a4380b" target="_top" xlink:title="set unit in place – return if placement was successful ">
<polygon fill="#ffffff" stroke="#000000" points="624,-147.5 624,-177.5 748,-177.5 748,-147.5 624,-147.5"/>
<text text-anchor="start" x="632" y="-165.5" font-family="Helvetica,sans-Serif" font-size="10.00" fill="#000000">openage::LivingProducer</text>
<text text-anchor="middle" x="686" y="-154.5" font-family="Helvetica,sans-Serif" font-size="10.00" fill="#000000">::place</text>
</a>
</g>
</g>
<!-- Node56&#45;&gt;Node57 -->
<g id="edge6" class="edge">
<title>Node56&#45;&gt;Node57</title>
<path fill="none" stroke="#191970" d="M598.312,-162.5C606.8937,-162.5 615.5465,-162.5 623.8994,-162.5"/>
<polygon fill="#191970" stroke="#191970" points="598.2927,-159.0001 588.2927,-162.5 598.2927,-166.0001 598.2927,-159.0001"/>
</g>
</g>
</svg>
