<?xml version="1.0" encoding="UTF-8" standalone="no"?>
<!DOCTYPE svg PUBLIC "-//W3C//DTD SVG 1.1//EN"
 "http://www.w3.org/Graphics/SVG/1.1/DTD/svg11.dtd">
<!-- Generated by graphviz version 2.40.1 (20161225.0304)
 -->
<!-- Title: openage::Unit::get_ability Pages: 1 -->
<!--zoomable 186 -->
<svg id="main" version="1.1" xmlns="http://www.w3.org/2000/svg" xmlns:xlink="http://www.w3.org/1999/xlink" xml:space="preserve" onload="init(evt)">
<style type="text/css"><![CDATA[
.edge:hover path { stroke: red; }
.edge:hover polygon { stroke: red; fill: red; }
]]></style>
<script type="text/javascript"><![CDATA[
var edges = document.getElementsByTagName('g');
if (edges && edges.length) {
  for (var i=0;i<edges.length;i++) {
    if (edges[i].id.substr(0,4)=='edge') {
      edges[i].setAttribute('class','edge');
    }
  }
}
]]></script>
        <defs>
                <circle id="rim" cx="0" cy="0" r="7"/>
                <circle id="rim2" cx="0" cy="0" r="3.5"/>
                <g id="zoomPlus">
                        <use xlink:href="#rim" fill="#404040">
                                <set attributeName="fill" to="#808080" begin="zoomplus.mouseover" end="zoomplus.mouseout"/>
                        </use>
                        <path d="M-4,0h8M0,-4v8" fill="none" stroke="white" stroke-width="1.5" pointer-events="none"/>
                </g>
                <g id="zoomMin">
                        <use xlink:href="#rim" fill="#404040">
                                <set attributeName="fill" to="#808080" begin="zoomminus.mouseover" end="zoomminus.mouseout"/>
                        </use>
                        <path d="M-4,0h8" fill="none" stroke="white" stroke-width="1.5" pointer-events="none"/>
                </g>
                <g id="dirArrow">
                        <path fill="none" stroke="white" stroke-width="1.5" d="M0,-3.0v7 M-2.5,-0.5L0,-3.0L2.5,-0.5"/>
                </g>
               <g id="resetDef">
                       <use xlink:href="#rim2" fill="#404040">
                               <set attributeName="fill" to="#808080" begin="reset.mouseover" end="reset.mouseout"/>
                       </use>
               </g>
        </defs>

<script type="text/javascript">
var viewWidth = 754;
var viewHeight = 186;
var sectionId = 'dynsection-20';
</script>
<script xlink:href="../../svgpan.js"/>
<svg id="graph" class="graph">
<g id="viewport">
<title>openage::Unit::get_ability</title>
<polygon fill="#ffffff" stroke="transparent" points="-4,4 -4,-182 750,-182 750,4 -4,4"/>
<!-- Node336 -->
<g id="node1" class="node">
<title>Node336</title>
<polygon fill="#bfbfbf" stroke="#000000" points="0,-73.5 0,-103.5 97,-103.5 97,-73.5 0,-73.5"/>
<text text-anchor="start" x="8" y="-91.5" font-family="Helvetica,sans-Serif" font-size="10.00" fill="#000000">openage::Unit::get</text>
<text text-anchor="middle" x="48.5" y="-80.5" font-family="Helvetica,sans-Serif" font-size="10.00" fill="#000000">_ability</text>
</g>
<!-- Node337 -->
<g id="node2" class="node">
<title>Node337</title>
<g id="a_node2"><a xlink:href="../../df/dea/classopenage_1_1_unit.xhtml#a76a10b9ab26e62d7b712a6c796052ee3" target="_top" xlink:title="constructs a new location for this unit replacing any existing locatio ">
<polygon fill="#ffffff" stroke="#000000" points="133,-73.5 133,-103.5 240,-103.5 240,-73.5 133,-73.5"/>
<text text-anchor="start" x="141" y="-91.5" font-family="Helvetica,sans-Serif" font-size="10.00" fill="#000000">openage::Unit::make</text>
<text text-anchor="middle" x="186.5" y="-80.5" font-family="Helvetica,sans-Serif" font-size="10.00" fill="#000000">_location</text>
</a>
</g>
</g>
<!-- Node336&#45;&gt;Node337 -->
<g id="edge1" class="edge">
<title>Node336&#45;&gt;Node337</title>
<path fill="none" stroke="#191970" d="M107.2854,-88.5C115.7044,-88.5 124.3309,-88.5 132.6485,-88.5"/>
<polygon fill="#191970" stroke="#191970" points="107.1537,-85.0001 97.1536,-88.5 107.1536,-92.0001 107.1537,-85.0001"/>
</g>
<!-- Node338 -->
<g id="node3" class="node">
<title>Node338</title>
<g id="a_node3"><a xlink:href="../../d2/d60/classopenage_1_1_object_producer.xhtml#a6063c50f0e551a3a5a1a4c08f555bf0e" target="_top" xlink:title="set unit in place – return if placement was successful ">
<polygon fill="#ffffff" stroke="#000000" points="282,-147.5 282,-177.5 409,-177.5 409,-147.5 282,-147.5"/>
<text text-anchor="start" x="290" y="-165.5" font-family="Helvetica,sans-Serif" font-size="10.00" fill="#000000">openage::ObjectProducer</text>
<text text-anchor="middle" x="345.5" y="-154.5" font-family="Helvetica,sans-Serif" font-size="10.00" fill="#000000">::place</text>
</a>
</g>
</g>
<!-- Node337&#45;&gt;Node338 -->
<g id="edge2" class="edge">
<title>Node337&#45;&gt;Node338</title>
<path fill="none" stroke="#191970" d="M219.7205,-108.9108C236.275,-118.5996 256.8112,-129.9081 276,-138.5 283.1069,-141.6821 290.7729,-144.7104 298.3282,-147.4776"/>
<polygon fill="#191970" stroke="#191970" points="221.354,-105.8104 210.967,-103.7223 217.7847,-111.8321 221.354,-105.8104"/>
</g>
<!-- Node341 -->
<g id="node6" class="node">
<title>Node341</title>
<g id="a_node6"><a xlink:href="../../d4/d85/classopenage_1_1_building_producer.xhtml#a4ed90b69cb9398ae0cc40625a1fa36d3" target="_top" xlink:title="set unit in place – return if placement was successful ">
<polygon fill="#ffffff" stroke="#000000" points="279,-98.5 279,-128.5 412,-128.5 412,-98.5 279,-98.5"/>
<text text-anchor="start" x="287" y="-116.5" font-family="Helvetica,sans-Serif" font-size="10.00" fill="#000000">openage::BuildingProducer</text>
<text text-anchor="middle" x="345.5" y="-105.5" font-family="Helvetica,sans-Serif" font-size="10.00" fill="#000000">::place</text>
</a>
</g>
</g>
<!-- Node337&#45;&gt;Node341 -->
<g id="edge5" class="edge">
<title>Node337&#45;&gt;Node341</title>
<path fill="none" stroke="#191970" d="M250.3356,-98.537C259.689,-100.0077 269.3437,-101.5257 278.7536,-103.0053"/>
<polygon fill="#191970" stroke="#191970" points="250.7524,-95.0597 240.3301,-96.9639 249.6651,-101.9747 250.7524,-95.0597"/>
</g>
<!-- Node342 -->
<g id="node7" class="node">
<title>Node342</title>
<g id="a_node7"><a xlink:href="../../df/d00/classopenage_1_1_projectile_producer.xhtml#a02c2dedff8bebf9d036393d8e35b37b3" target="_top" xlink:title="set unit in place – return if placement was successful ">
<polygon fill="#ffffff" stroke="#000000" points="276,-49.5 276,-79.5 415,-79.5 415,-49.5 276,-49.5"/>
<text text-anchor="start" x="284" y="-67.5" font-family="Helvetica,sans-Serif" font-size="10.00" fill="#000000">openage::ProjectileProducer</text>
<text text-anchor="middle" x="345.5" y="-56.5" font-family="Helvetica,sans-Serif" font-size="10.00" fill="#000000">::place</text>
</a>
</g>
</g>
<!-- Node337&#45;&gt;Node342 -->
<g id="edge6" class="edge">
<title>Node337&#45;&gt;Node342</title>
<path fill="none" stroke="#191970" d="M250.4249,-78.851C258.8206,-77.5837 267.4575,-76.28 275.941,-74.9995"/>
<polygon fill="#191970" stroke="#191970" points="249.6957,-75.4213 240.3301,-80.3747 250.7406,-82.3429 249.6957,-75.4213"/>
</g>
<!-- Node343 -->
<g id="node8" class="node">
<title>Node343</title>
<g id="a_node8"><a xlink:href="../../dc/dfe/classopenage_1_1_nyan_type.xhtml#ae2f61064a00875267824a0bdfba63085" target="_top" xlink:title="set unit in place – return if placement was successful ">
<polygon fill="#ffffff" stroke="#000000" points="290.5,-.5 290.5,-30.5 400.5,-30.5 400.5,-.5 290.5,-.5"/>
<text text-anchor="start" x="298.5" y="-18.5" font-family="Helvetica,sans-Serif" font-size="10.00" fill="#000000">openage::NyanType::</text>
<text text-anchor="middle" x="345.5" y="-7.5" font-family="Helvetica,sans-Serif" font-size="10.00" fill="#000000">place</text>
</a>
</g>
</g>
<!-- Node337&#45;&gt;Node343 -->
<g id="edge7" class="edge">
<title>Node337&#45;&gt;Node343</title>
<path fill="none" stroke="#191970" d="M221.3888,-68.2473C237.6987,-59.1821 257.5525,-48.7114 276,-40.5 283.8489,-37.0063 292.3499,-33.6289 300.624,-30.5463"/>
<polygon fill="#191970" stroke="#191970" points="219.2344,-65.4432 212.2327,-73.3947 222.6648,-71.5451 219.2344,-65.4432"/>
</g>
<!-- Node339 -->
<g id="node4" class="node">
<title>Node339</title>
<g id="a_node4"><a xlink:href="../../de/d30/classopenage_1_1_movable_producer.xhtml#ace952d53d7717d9db843391f49fbf76b" target="_top" xlink:title="set unit in place – return if placement was successful ">
<polygon fill="#ffffff" stroke="#000000" points="451,-147.5 451,-177.5 586,-177.5 586,-147.5 451,-147.5"/>
<text text-anchor="start" x="459" y="-165.5" font-family="Helvetica,sans-Serif" font-size="10.00" fill="#000000">openage::MovableProducer</text>
<text text-anchor="middle" x="518.5" y="-154.5" font-family="Helvetica,sans-Serif" font-size="10.00" fill="#000000">::place</text>
</a>
</g>
</g>
<!-- Node338&#45;&gt;Node339 -->
<g id="edge3" class="edge">
<title>Node338&#45;&gt;Node339</title>
<path fill="none" stroke="#191970" d="M419.6587,-162.5C429.9925,-162.5 440.5662,-162.5 450.7735,-162.5"/>
<polygon fill="#191970" stroke="#191970" points="419.4273,-159.0001 409.4273,-162.5 419.4273,-166.0001 419.4273,-159.0001"/>
</g>
<!-- Node340 -->
<g id="node5" class="node">
<title>Node340</title>
<g id="a_node5"><a xlink:href="../../db/db1/classopenage_1_1_living_producer.xhtml#af454fa0fd996b30d44590a2e00a4380b" target="_top" xlink:title="set unit in place – return if placement was successful ">
<polygon fill="#ffffff" stroke="#000000" points="622,-147.5 622,-177.5 746,-177.5 746,-147.5 622,-147.5"/>
<text text-anchor="start" x="630" y="-165.5" font-family="Helvetica,sans-Serif" font-size="10.00" fill="#000000">openage::LivingProducer</text>
<text text-anchor="middle" x="684" y="-154.5" font-family="Helvetica,sans-Serif" font-size="10.00" fill="#000000">::place</text>
</a>
</g>
</g>
<!-- Node339&#45;&gt;Node340 -->
<g id="edge4" class="edge">
<title>Node339&#45;&gt;Node340</title>
<path fill="none" stroke="#191970" d="M596.312,-162.5C604.8937,-162.5 613.5465,-162.5 621.8994,-162.5"/>
<polygon fill="#191970" stroke="#191970" points="596.2927,-159.0001 586.2927,-162.5 596.2927,-166.0001 596.2927,-159.0001"/>
</g>
</g>
</svg>
        <g id="navigator" transform="translate(0 0)" fill="#404254">
                <rect fill="#f2f5e9" fill-opacity="0.5" stroke="#606060" stroke-width=".5" x="0" y="0" width="60" height="60"/>
                <use id="zoomplus" xlink:href="#zoomPlus" x="17" y="9" onmousedown="handleZoom(evt,'in')"/>
                <use id="zoomminus" xlink:href="#zoomMin" x="42" y="9" onmousedown="handleZoom(evt,'out')"/>
                <use id="reset" xlink:href="#resetDef" x="30" y="36" onmousedown="handleReset()"/>
                <g id="arrowUp" xlink:href="#dirArrow" transform="translate(30 24)" onmousedown="handlePan(0,-1)">
                  <use xlink:href="#rim" fill="#404040">
                        <set attributeName="fill" to="#808080" begin="arrowUp.mouseover" end="arrowUp.mouseout"/>
                  </use>
                  <path fill="none" stroke="white" stroke-width="1.5" d="M0,-3.0v7 M-2.5,-0.5L0,-3.0L2.5,-0.5"/>
                </g>
                <g id="arrowRight" xlink:href="#dirArrow" transform="rotate(90) translate(36 -43)" onmousedown="handlePan(1,0)">
                  <use xlink:href="#rim" fill="#404040">
                        <set attributeName="fill" to="#808080" begin="arrowRight.mouseover" end="arrowRight.mouseout"/>
                  </use>
                  <path fill="none" stroke="white" stroke-width="1.5" d="M0,-3.0v7 M-2.5,-0.5L0,-3.0L2.5,-0.5"/>
                </g>
                <g id="arrowDown" xlink:href="#dirArrow" transform="rotate(180) translate(-30 -48)" onmousedown="handlePan(0,1)">
                  <use xlink:href="#rim" fill="#404040">
                        <set attributeName="fill" to="#808080" begin="arrowDown.mouseover" end="arrowDown.mouseout"/>
                  </use>
                  <path fill="none" stroke="white" stroke-width="1.5" d="M0,-3.0v7 M-2.5,-0.5L0,-3.0L2.5,-0.5"/>
                </g>
                <g id="arrowLeft" xlink:href="#dirArrow" transform="rotate(270) translate(-36 17)" onmousedown="handlePan(-1,0)">
                  <use xlink:href="#rim" fill="#404040">
                        <set attributeName="fill" to="#808080" begin="arrowLeft.mouseover" end="arrowLeft.mouseout"/>
                  </use>
                  <path fill="none" stroke="white" stroke-width="1.5" d="M0,-3.0v7 M-2.5,-0.5L0,-3.0L2.5,-0.5"/>
                </g>
        </g>
        <svg viewBox="0 0 15 15" width="100%" height="30px" preserveAspectRatio="xMaxYMin meet">
         <g id="arrow_out" transform="scale(0.3 0.3)">
          <a xlink:href="classopenage_1_1_unit_a2f0e740b8fd1b0f948916c854b9910ec_icgraph_org.svg" target="_base">
           <rect id="button" ry="5" rx="5" y="6" x="6" height="38" width="38"
                fill="#f2f5e9" fill-opacity="0.5" stroke="#606060" stroke-width="1.0"/>
           <path id="arrow"
             d="M 11.500037,31.436501 C 11.940474,20.09759 22.043105,11.32322 32.158766,21.979434 L 37.068811,17.246167 C 37.068811,17.246167 37.088388,32 37.088388,32 L 22.160133,31.978069 C 22.160133,31.978069 26.997745,27.140456 26.997745,27.140456 C 18.528582,18.264221 13.291696,25.230495 11.500037,31.436501 z"
             style="fill:#404040;"/>
          </a>
         </g>
        </svg>
</svg>
