<?xml version="1.0" encoding="UTF-8" standalone="no"?>
<!DOCTYPE svg PUBLIC "-//W3C//DTD SVG 1.1//EN"
 "http://www.w3.org/Graphics/SVG/1.1/DTD/svg11.dtd">
<!-- Generated by graphviz version 2.40.1 (20161225.0304)
 -->
<!-- Title: openage::Unit::draw Pages: 1 -->
<svg width="594pt" height="215pt"
 viewBox="0.00 0.00 594.00 214.50" xmlns="http://www.w3.org/2000/svg" xmlns:xlink="http://www.w3.org/1999/xlink">
<g id="graph0" class="graph" transform="scale(1 1) rotate(0) translate(4 210.5)">
<title>openage::Unit::draw</title>
<polygon fill="#ffffff" stroke="transparent" points="-4,4 -4,-210.5 590,-210.5 590,4 -4,4"/>
<!-- Node217 -->
<g id="node1" class="node">
<title>Node217</title>
<polygon fill="#bfbfbf" stroke="#000000" points="0,-96.5 0,-115.5 104,-115.5 104,-96.5 0,-96.5"/>
<text text-anchor="middle" x="52" y="-103.5" font-family="Helvetica,sans-Serif" font-size="10.00" fill="#000000">openage::Unit::draw</text>
</g>
<!-- Node218 -->
<g id="node2" class="node">
<title>Node218</title>
<g id="a_node2"><a xlink:href="../../df/dea/classopenage_1_1_unit.xhtml#ae422123ecc6a2e930ba86e45bf8a5a37" target="_top" xlink:title="draws this action by taking the graphic type of the top action the graphic is found from the current ...">
<polygon fill="#ffffff" stroke="#000000" points="159.5,-153.5 159.5,-172.5 263.5,-172.5 263.5,-153.5 159.5,-153.5"/>
<text text-anchor="middle" x="211.5" y="-160.5" font-family="Helvetica,sans-Serif" font-size="10.00" fill="#000000">openage::Unit::draw</text>
</a>
</g>
</g>
<!-- Node217&#45;&gt;Node218 -->
<g id="edge1" class="edge">
<title>Node217&#45;&gt;Node218</title>
<path fill="none" stroke="#191970" d="M76.9497,-115.6212C94.521,-122.332 118.6281,-131.4085 140,-139 150.4723,-142.7199 161.86,-146.6113 172.4048,-150.1515"/>
<polygon fill="#191970" stroke="#191970" points="171.6055,-153.5745 182.1992,-153.4212 173.8221,-146.9347 171.6055,-153.5745"/>
</g>
<!-- Node220 -->
<g id="node4" class="node">
<title>Node220</title>
<g id="a_node4"><a xlink:href="../../df/dea/classopenage_1_1_unit.xhtml#a86a49987e082055274e98a142baffad8" target="_top" xlink:title="returns the current action on top of the stack ">
<polygon fill="#ffffff" stroke="#000000" points="344.5,-137.5 344.5,-156.5 441.5,-156.5 441.5,-137.5 344.5,-137.5"/>
<text text-anchor="middle" x="393" y="-144.5" font-family="Helvetica,sans-Serif" font-size="10.00" fill="#000000">openage::Unit::top</text>
</a>
</g>
</g>
<!-- Node217&#45;&gt;Node220 -->
<g id="edge9" class="edge">
<title>Node217&#45;&gt;Node220</title>
<path fill="none" stroke="#191970" d="M104.1618,-112.2716C166.2341,-119.7349 269.5981,-132.1628 334.3805,-139.9519"/>
<polygon fill="#191970" stroke="#191970" points="334.0878,-143.4418 344.4342,-141.1607 334.9235,-136.4919 334.0878,-143.4418"/>
</g>
<!-- Node222 -->
<g id="node6" class="node">
<title>Node222</title>
<g id="a_node6"><a xlink:href="../../de/de3/classopenage_1_1log_1_1_log_source.xhtml#a5640099e20af4cd368c767dbcef3a1df" target="_top" xlink:title="Logs a message (get one via MSG(level)). ">
<polygon fill="#ffffff" stroke="#000000" points="140,-77.5 140,-96.5 283,-96.5 283,-77.5 140,-77.5"/>
<text text-anchor="middle" x="211.5" y="-84.5" font-family="Helvetica,sans-Serif" font-size="10.00" fill="#000000">openage::log::LogSource::log</text>
</a>
</g>
</g>
<!-- Node217&#45;&gt;Node222 -->
<g id="edge5" class="edge">
<title>Node217&#45;&gt;Node222</title>
<path fill="none" stroke="#191970" d="M104.2263,-99.7787C112.3889,-98.8063 120.99,-97.7818 129.6243,-96.7532"/>
<polygon fill="#191970" stroke="#191970" points="130.2355,-100.2053 139.7512,-95.5469 129.4074,-93.2544 130.2355,-100.2053"/>
</g>
<!-- Node226 -->
<g id="node10" class="node">
<title>Node226</title>
<g id="a_node10"><a xlink:href="../../dd/d1a/namespaceopenage_1_1log.xhtml#a2a1b7ecac013c794375d21d5efd89f87" target="_top" xlink:title="warning message ">
<polygon fill="#ffffff" stroke="#000000" points="165,-39.5 165,-58.5 258,-58.5 258,-39.5 165,-39.5"/>
<text text-anchor="middle" x="211.5" y="-46.5" font-family="Helvetica,sans-Serif" font-size="10.00" fill="#000000">openage.log.warn</text>
</a>
</g>
</g>
<!-- Node217&#45;&gt;Node226 -->
<g id="edge10" class="edge">
<title>Node217&#45;&gt;Node226</title>
<path fill="none" stroke="#191970" d="M71.9369,-96.383C89.5581,-88.1278 116.1004,-76.2847 140,-68 146.9249,-65.5995 154.315,-63.3252 161.6191,-61.24"/>
<polygon fill="#191970" stroke="#191970" points="162.7657,-64.5545 171.4739,-58.5198 160.9031,-57.8068 162.7657,-64.5545"/>
</g>
<!-- Node219 -->
<g id="node3" class="node">
<title>Node219</title>
<g id="a_node3"><a xlink:href="../../dc/d74/classopenage_1_1_unit_action.xhtml#a6cd7405af72dd0cf3994cee74608cf8b" target="_top" xlink:title="determines which graphic should be used for drawing this unit finds the default graphic using the uni...">
<polygon fill="#ffffff" stroke="#000000" points="340.5,-176 340.5,-206 445.5,-206 445.5,-176 340.5,-176"/>
<text text-anchor="start" x="348.5" y="-194" font-family="Helvetica,sans-Serif" font-size="10.00" fill="#000000">openage::UnitAction</text>
<text text-anchor="middle" x="393" y="-183" font-family="Helvetica,sans-Serif" font-size="10.00" fill="#000000">::current_graphics</text>
</a>
</g>
</g>
<!-- Node218&#45;&gt;Node219 -->
<g id="edge2" class="edge">
<title>Node218&#45;&gt;Node219</title>
<path fill="none" stroke="#191970" d="M263.5106,-171.0237C284.3096,-174.2323 308.4507,-177.9566 330.2139,-181.314"/>
<polygon fill="#191970" stroke="#191970" points="329.9355,-184.8124 340.3522,-182.878 331.0028,-177.8942 329.9355,-184.8124"/>
</g>
<!-- Node218&#45;&gt;Node220 -->
<g id="edge3" class="edge">
<title>Node218&#45;&gt;Node220</title>
<path fill="none" stroke="#191970" d="M263.5106,-158.415C285.5846,-156.4691 311.4231,-154.1914 334.1882,-152.1845"/>
<polygon fill="#191970" stroke="#191970" points="334.753,-155.6484 344.407,-151.2837 334.1382,-148.6754 334.753,-155.6484"/>
</g>
<!-- Node221 -->
<g id="node5" class="node">
<title>Node221</title>
<g id="a_node5"><a xlink:href="../../dd/d1a/namespaceopenage_1_1log.xhtml#ab6b4b10be67af93ab6c4d5a36139736e" target="_top" xlink:title="error message ">
<polygon fill="#ffffff" stroke="#000000" points="503,-137.5 503,-156.5 586,-156.5 586,-137.5 503,-137.5"/>
<text text-anchor="middle" x="544.5" y="-144.5" font-family="Helvetica,sans-Serif" font-size="10.00" fill="#000000">openage.log.err</text>
</a>
</g>
</g>
<!-- Node220&#45;&gt;Node221 -->
<g id="edge4" class="edge">
<title>Node220&#45;&gt;Node221</title>
<path fill="none" stroke="#191970" d="M441.7695,-147C458.1019,-147 476.3591,-147 492.9004,-147"/>
<polygon fill="#191970" stroke="#191970" points="492.9455,-150.5001 502.9454,-147 492.9454,-143.5001 492.9455,-150.5001"/>
</g>
<!-- Node223 -->
<g id="node7" class="node">
<title>Node223</title>
<g id="a_node7"><a xlink:href="../../dd/d1a/namespaceopenage_1_1log.xhtml#a3d2885be9c3a09b9ff7ee8764b2e5f39" target="_top" xlink:title="Returns a reference to the global stdout logsink object; Initializes the object if needed...">
<polygon fill="#ffffff" stroke="#000000" points="341,-88 341,-118 445,-118 445,-88 341,-88"/>
<text text-anchor="start" x="349" y="-106" font-family="Helvetica,sans-Serif" font-size="10.00" fill="#000000">openage::log::global</text>
<text text-anchor="middle" x="393" y="-95" font-family="Helvetica,sans-Serif" font-size="10.00" fill="#000000">_stdoutsink</text>
</a>
</g>
</g>
<!-- Node222&#45;&gt;Node223 -->
<g id="edge6" class="edge">
<title>Node222&#45;&gt;Node223</title>
<path fill="none" stroke="#191970" d="M283.2336,-93.3236C298.8521,-94.7005 315.2575,-96.1467 330.4849,-97.489"/>
<polygon fill="#191970" stroke="#191970" points="330.5459,-101.0079 340.8146,-98.3996 331.1606,-94.0349 330.5459,-101.0079"/>
</g>
<!-- Node224 -->
<g id="node8" class="node">
<title>Node224</title>
<g id="a_node8"><a xlink:href="../../d0/d58/classopenage_1_1log_1_1_log_sink_list.xhtml#a2d47416fab12651553b4b58c86fd6f84" target="_top" xlink:title="openage::log::LogSinkList\l::instance">
<polygon fill="#ffffff" stroke="#000000" points="328.5,-39 328.5,-69 457.5,-69 457.5,-39 328.5,-39"/>
<text text-anchor="start" x="336.5" y="-57" font-family="Helvetica,sans-Serif" font-size="10.00" fill="#000000">openage::log::LogSinkList</text>
<text text-anchor="middle" x="393" y="-46" font-family="Helvetica,sans-Serif" font-size="10.00" fill="#000000">::instance</text>
</a>
</g>
</g>
<!-- Node222&#45;&gt;Node224 -->
<g id="edge7" class="edge">
<title>Node222&#45;&gt;Node224</title>
<path fill="none" stroke="#191970" d="M263.9973,-77.455C280.9579,-74.3713 300.1005,-70.8908 318.3462,-67.5734"/>
<polygon fill="#191970" stroke="#191970" points="319.1584,-70.9832 328.371,-65.7507 317.9061,-64.0961 319.1584,-70.9832"/>
</g>
<!-- Node225 -->
<g id="node9" class="node">
<title>Node225</title>
<g id="a_node9"><a xlink:href="../../d0/d58/classopenage_1_1log_1_1_log_sink_list.xhtml#a8456b84ab55e1fe151c51438c5bfebdd" target="_top" xlink:title="openage::log::LogSinkList::log">
<polygon fill="#ffffff" stroke="#000000" points="319,-.5 319,-19.5 467,-19.5 467,-.5 319,-.5"/>
<text text-anchor="middle" x="393" y="-7.5" font-family="Helvetica,sans-Serif" font-size="10.00" fill="#000000">openage::log::LogSinkList::log</text>
</a>
</g>
</g>
<!-- Node222&#45;&gt;Node225 -->
<g id="edge8" class="edge">
<title>Node222&#45;&gt;Node225</title>
<path fill="none" stroke="#191970" d="M261.7832,-77.4386C269.1753,-74.9662 276.4851,-71.8706 283,-68 303.0009,-56.1173 299.0243,-41.925 319,-30 323.4565,-27.3396 328.2726,-25.0256 333.2353,-23.0142"/>
<polygon fill="#191970" stroke="#191970" points="334.6961,-26.2076 342.9035,-19.5077 332.3094,-19.627 334.6961,-26.2076"/>
</g>
</g>
</svg>
