<?xml version="1.0" encoding="UTF-8" standalone="no"?>
<!DOCTYPE svg PUBLIC "-//W3C//DTD SVG 1.1//EN"
 "http://www.w3.org/Graphics/SVG/1.1/DTD/svg11.dtd">
<!-- Generated by graphviz version 2.40.1 (20161225.0304)
 -->
<!-- Title: openage::Unit::secondary_action Pages: 1 -->
<!--zoomable 186 -->
<svg id="main" version="1.1" xmlns="http://www.w3.org/2000/svg" xmlns:xlink="http://www.w3.org/1999/xlink" xml:space="preserve" onload="init(evt)">
<style type="text/css"><![CDATA[
.edge:hover path { stroke: red; }
.edge:hover polygon { stroke: red; fill: red; }
]]></style>
<script type="text/javascript"><![CDATA[
var edges = document.getElementsByTagName('g');
if (edges && edges.length) {
  for (var i=0;i<edges.length;i++) {
    if (edges[i].id.substr(0,4)=='edge') {
      edges[i].setAttribute('class','edge');
    }
  }
}
]]></script>
        <defs>
                <circle id="rim" cx="0" cy="0" r="7"/>
                <circle id="rim2" cx="0" cy="0" r="3.5"/>
                <g id="zoomPlus">
                        <use xlink:href="#rim" fill="#404040">
                                <set attributeName="fill" to="#808080" begin="zoomplus.mouseover" end="zoomplus.mouseout"/>
                        </use>
                        <path d="M-4,0h8M0,-4v8" fill="none" stroke="white" stroke-width="1.5" pointer-events="none"/>
                </g>
                <g id="zoomMin">
                        <use xlink:href="#rim" fill="#404040">
                                <set attributeName="fill" to="#808080" begin="zoomminus.mouseover" end="zoomminus.mouseout"/>
                        </use>
                        <path d="M-4,0h8" fill="none" stroke="white" stroke-width="1.5" pointer-events="none"/>
                </g>
                <g id="dirArrow">
                        <path fill="none" stroke="white" stroke-width="1.5" d="M0,-3.0v7 M-2.5,-0.5L0,-3.0L2.5,-0.5"/>
                </g>
               <g id="resetDef">
                       <use xlink:href="#rim2" fill="#404040">
                               <set attributeName="fill" to="#808080" begin="reset.mouseover" end="reset.mouseout"/>
                       </use>
               </g>
        </defs>

<script type="text/javascript">
var viewWidth = 812;
var viewHeight = 186;
var sectionId = 'dynsection-39';
</script>
<script xlink:href="../../svgpan.js"/>
<svg id="graph" class="graph">
<g id="viewport">
<title>openage::Unit::secondary_action</title>
<polygon fill="#ffffff" stroke="transparent" points="-4,4 -4,-182 808,-182 808,4 -4,4"/>
<!-- Node1121 -->
<g id="node1" class="node">
<title>Node1121</title>
<polygon fill="#bfbfbf" stroke="#000000" points="0,-97.5 0,-127.5 128,-127.5 128,-97.5 0,-97.5"/>
<text text-anchor="start" x="8" y="-115.5" font-family="Helvetica,sans-Serif" font-size="10.00" fill="#000000">openage::Unit::secondary</text>
<text text-anchor="middle" x="64" y="-104.5" font-family="Helvetica,sans-Serif" font-size="10.00" fill="#000000">_action</text>
</g>
<!-- Node1122 -->
<g id="node2" class="node">
<title>Node1122</title>
<g id="a_node2"><a xlink:href="../../df/d01/classopenage_1_1_ungarrison_ability.xhtml#a6ed7fdb59dc12befd1e0be6fbdd2b387" target="_top" xlink:title="applies command to a given unit ">
<polygon fill="#ffffff" stroke="#000000" points="164,-122.5 164,-152.5 298,-152.5 298,-122.5 164,-122.5"/>
<text text-anchor="start" x="172" y="-140.5" font-family="Helvetica,sans-Serif" font-size="10.00" fill="#000000">openage::UngarrisonAbility</text>
<text text-anchor="middle" x="231" y="-129.5" font-family="Helvetica,sans-Serif" font-size="10.00" fill="#000000">::invoke</text>
</a>
</g>
</g>
<!-- Node1121&#45;&gt;Node1122 -->
<g id="edge1" class="edge">
<title>Node1121&#45;&gt;Node1122</title>
<path fill="none" stroke="#191970" d="M138.0508,-123.5855C146.608,-124.8665 155.2993,-126.1676 163.759,-127.434"/>
<polygon fill="#191970" stroke="#191970" points="138.497,-120.1133 128.089,-122.0942 137.4605,-127.0362 138.497,-120.1133"/>
</g>
<!-- Node1123 -->
<g id="node3" class="node">
<title>Node1123</title>
<g id="a_node3"><a xlink:href="../../df/dea/classopenage_1_1_unit.xhtml#a76a10b9ab26e62d7b712a6c796052ee3" target="_top" xlink:title="constructs a new location for this unit replacing any existing locatio ">
<polygon fill="#ffffff" stroke="#000000" points="177.5,-73.5 177.5,-103.5 284.5,-103.5 284.5,-73.5 177.5,-73.5"/>
<text text-anchor="start" x="185.5" y="-91.5" font-family="Helvetica,sans-Serif" font-size="10.00" fill="#000000">openage::Unit::make</text>
<text text-anchor="middle" x="231" y="-80.5" font-family="Helvetica,sans-Serif" font-size="10.00" fill="#000000">_location</text>
</a>
</g>
</g>
<!-- Node1121&#45;&gt;Node1123 -->
<g id="edge2" class="edge">
<title>Node1121&#45;&gt;Node1123</title>
<path fill="none" stroke="#191970" d="M138.1168,-101.8485C151.3403,-99.9481 164.8818,-98.002 177.392,-96.2041"/>
<polygon fill="#191970" stroke="#191970" points="137.4893,-98.4026 128.089,-103.2896 138.4852,-105.3314 137.4893,-98.4026"/>
</g>
<!-- Node1124 -->
<g id="node4" class="node">
<title>Node1124</title>
<g id="a_node4"><a xlink:href="../../d2/d60/classopenage_1_1_object_producer.xhtml#a6063c50f0e551a3a5a1a4c08f555bf0e" target="_top" xlink:title="set unit in place – return if placement was successful ">
<polygon fill="#ffffff" stroke="#000000" points="340,-147.5 340,-177.5 467,-177.5 467,-147.5 340,-147.5"/>
<text text-anchor="start" x="348" y="-165.5" font-family="Helvetica,sans-Serif" font-size="10.00" fill="#000000">openage::ObjectProducer</text>
<text text-anchor="middle" x="403.5" y="-154.5" font-family="Helvetica,sans-Serif" font-size="10.00" fill="#000000">::place</text>
</a>
</g>
</g>
<!-- Node1123&#45;&gt;Node1124 -->
<g id="edge3" class="edge">
<title>Node1123&#45;&gt;Node1124</title>
<path fill="none" stroke="#191970" d="M285.4745,-107.499C289.7707,-109.3977 293.9934,-111.4036 298,-113.5 315.2598,-122.5309 316.6303,-129.6824 334,-138.5 340.3742,-141.7358 347.2853,-144.7044 354.1935,-147.3678"/>
<polygon fill="#191970" stroke="#191970" points="286.5821,-104.168 276.0071,-103.52 283.8699,-110.6212 286.5821,-104.168"/>
</g>
<!-- Node1127 -->
<g id="node7" class="node">
<title>Node1127</title>
<g id="a_node7"><a xlink:href="../../d4/d85/classopenage_1_1_building_producer.xhtml#a4ed90b69cb9398ae0cc40625a1fa36d3" target="_top" xlink:title="set unit in place – return if placement was successful ">
<polygon fill="#ffffff" stroke="#000000" points="337,-98.5 337,-128.5 470,-128.5 470,-98.5 337,-98.5"/>
<text text-anchor="start" x="345" y="-116.5" font-family="Helvetica,sans-Serif" font-size="10.00" fill="#000000">openage::BuildingProducer</text>
<text text-anchor="middle" x="403.5" y="-105.5" font-family="Helvetica,sans-Serif" font-size="10.00" fill="#000000">::place</text>
</a>
</g>
</g>
<!-- Node1123&#45;&gt;Node1127 -->
<g id="edge6" class="edge">
<title>Node1123&#45;&gt;Node1127</title>
<path fill="none" stroke="#191970" d="M294.906,-97.7617C308.5756,-99.7428 323.0494,-101.8405 336.8205,-103.8363"/>
<polygon fill="#191970" stroke="#191970" points="295.0331,-94.2437 284.6345,-96.2731 294.0291,-101.1713 295.0331,-94.2437"/>
</g>
<!-- Node1128 -->
<g id="node8" class="node">
<title>Node1128</title>
<g id="a_node8"><a xlink:href="../../df/d00/classopenage_1_1_projectile_producer.xhtml#a02c2dedff8bebf9d036393d8e35b37b3" target="_top" xlink:title="set unit in place – return if placement was successful ">
<polygon fill="#ffffff" stroke="#000000" points="334,-49.5 334,-79.5 473,-79.5 473,-49.5 334,-49.5"/>
<text text-anchor="start" x="342" y="-67.5" font-family="Helvetica,sans-Serif" font-size="10.00" fill="#000000">openage::ProjectileProducer</text>
<text text-anchor="middle" x="403.5" y="-56.5" font-family="Helvetica,sans-Serif" font-size="10.00" fill="#000000">::place</text>
</a>
</g>
</g>
<!-- Node1123&#45;&gt;Node1128 -->
<g id="edge7" class="edge">
<title>Node1123&#45;&gt;Node1128</title>
<path fill="none" stroke="#191970" d="M294.6581,-79.6432C307.3741,-77.874 320.7948,-76.0068 333.7048,-74.2106"/>
<polygon fill="#191970" stroke="#191970" points="294.0568,-76.1931 284.6345,-81.0378 295.0214,-83.1263 294.0568,-76.1931"/>
</g>
<!-- Node1129 -->
<g id="node9" class="node">
<title>Node1129</title>
<g id="a_node9"><a xlink:href="../../dc/dfe/classopenage_1_1_nyan_type.xhtml#ae2f61064a00875267824a0bdfba63085" target="_top" xlink:title="set unit in place – return if placement was successful ">
<polygon fill="#ffffff" stroke="#000000" points="348.5,-.5 348.5,-30.5 458.5,-30.5 458.5,-.5 348.5,-.5"/>
<text text-anchor="start" x="356.5" y="-18.5" font-family="Helvetica,sans-Serif" font-size="10.00" fill="#000000">openage::NyanType::</text>
<text text-anchor="middle" x="403.5" y="-7.5" font-family="Helvetica,sans-Serif" font-size="10.00" fill="#000000">place</text>
</a>
</g>
</g>
<!-- Node1123&#45;&gt;Node1129 -->
<g id="edge8" class="edge">
<title>Node1123&#45;&gt;Node1129</title>
<path fill="none" stroke="#191970" d="M270.567,-69.035C289.5705,-59.9512 312.7769,-49.2412 334,-40.5 342.2996,-37.0816 351.2567,-33.6635 359.8913,-30.501"/>
<polygon fill="#191970" stroke="#191970" points="268.818,-65.9924 261.3248,-73.4826 271.8534,-72.3001 268.818,-65.9924"/>
</g>
<!-- Node1125 -->
<g id="node5" class="node">
<title>Node1125</title>
<g id="a_node5"><a xlink:href="../../de/d30/classopenage_1_1_movable_producer.xhtml#ace952d53d7717d9db843391f49fbf76b" target="_top" xlink:title="set unit in place – return if placement was successful ">
<polygon fill="#ffffff" stroke="#000000" points="509,-147.5 509,-177.5 644,-177.5 644,-147.5 509,-147.5"/>
<text text-anchor="start" x="517" y="-165.5" font-family="Helvetica,sans-Serif" font-size="10.00" fill="#000000">openage::MovableProducer</text>
<text text-anchor="middle" x="576.5" y="-154.5" font-family="Helvetica,sans-Serif" font-size="10.00" fill="#000000">::place</text>
</a>
</g>
</g>
<!-- Node1124&#45;&gt;Node1125 -->
<g id="edge4" class="edge">
<title>Node1124&#45;&gt;Node1125</title>
<path fill="none" stroke="#191970" d="M477.6587,-162.5C487.9925,-162.5 498.5662,-162.5 508.7735,-162.5"/>
<polygon fill="#191970" stroke="#191970" points="477.4273,-159.0001 467.4273,-162.5 477.4273,-166.0001 477.4273,-159.0001"/>
</g>
<!-- Node1126 -->
<g id="node6" class="node">
<title>Node1126</title>
<g id="a_node6"><a xlink:href="../../db/db1/classopenage_1_1_living_producer.xhtml#af454fa0fd996b30d44590a2e00a4380b" target="_top" xlink:title="set unit in place – return if placement was successful ">
<polygon fill="#ffffff" stroke="#000000" points="680,-147.5 680,-177.5 804,-177.5 804,-147.5 680,-147.5"/>
<text text-anchor="start" x="688" y="-165.5" font-family="Helvetica,sans-Serif" font-size="10.00" fill="#000000">openage::LivingProducer</text>
<text text-anchor="middle" x="742" y="-154.5" font-family="Helvetica,sans-Serif" font-size="10.00" fill="#000000">::place</text>
</a>
</g>
</g>
<!-- Node1125&#45;&gt;Node1126 -->
<g id="edge5" class="edge">
<title>Node1125&#45;&gt;Node1126</title>
<path fill="none" stroke="#191970" d="M654.312,-162.5C662.8937,-162.5 671.5465,-162.5 679.8994,-162.5"/>
<polygon fill="#191970" stroke="#191970" points="654.2927,-159.0001 644.2927,-162.5 654.2927,-166.0001 654.2927,-159.0001"/>
</g>
</g>
</svg>
        <g id="navigator" transform="translate(0 0)" fill="#404254">
                <rect fill="#f2f5e9" fill-opacity="0.5" stroke="#606060" stroke-width=".5" x="0" y="0" width="60" height="60"/>
                <use id="zoomplus" xlink:href="#zoomPlus" x="17" y="9" onmousedown="handleZoom(evt,'in')"/>
                <use id="zoomminus" xlink:href="#zoomMin" x="42" y="9" onmousedown="handleZoom(evt,'out')"/>
                <use id="reset" xlink:href="#resetDef" x="30" y="36" onmousedown="handleReset()"/>
                <g id="arrowUp" xlink:href="#dirArrow" transform="translate(30 24)" onmousedown="handlePan(0,-1)">
                  <use xlink:href="#rim" fill="#404040">
                        <set attributeName="fill" to="#808080" begin="arrowUp.mouseover" end="arrowUp.mouseout"/>
                  </use>
                  <path fill="none" stroke="white" stroke-width="1.5" d="M0,-3.0v7 M-2.5,-0.5L0,-3.0L2.5,-0.5"/>
                </g>
                <g id="arrowRight" xlink:href="#dirArrow" transform="rotate(90) translate(36 -43)" onmousedown="handlePan(1,0)">
                  <use xlink:href="#rim" fill="#404040">
                        <set attributeName="fill" to="#808080" begin="arrowRight.mouseover" end="arrowRight.mouseout"/>
                  </use>
                  <path fill="none" stroke="white" stroke-width="1.5" d="M0,-3.0v7 M-2.5,-0.5L0,-3.0L2.5,-0.5"/>
                </g>
                <g id="arrowDown" xlink:href="#dirArrow" transform="rotate(180) translate(-30 -48)" onmousedown="handlePan(0,1)">
                  <use xlink:href="#rim" fill="#404040">
                        <set attributeName="fill" to="#808080" begin="arrowDown.mouseover" end="arrowDown.mouseout"/>
                  </use>
                  <path fill="none" stroke="white" stroke-width="1.5" d="M0,-3.0v7 M-2.5,-0.5L0,-3.0L2.5,-0.5"/>
                </g>
                <g id="arrowLeft" xlink:href="#dirArrow" transform="rotate(270) translate(-36 17)" onmousedown="handlePan(-1,0)">
                  <use xlink:href="#rim" fill="#404040">
                        <set attributeName="fill" to="#808080" begin="arrowLeft.mouseover" end="arrowLeft.mouseout"/>
                  </use>
                  <path fill="none" stroke="white" stroke-width="1.5" d="M0,-3.0v7 M-2.5,-0.5L0,-3.0L2.5,-0.5"/>
                </g>
        </g>
        <svg viewBox="0 0 15 15" width="100%" height="30px" preserveAspectRatio="xMaxYMin meet">
         <g id="arrow_out" transform="scale(0.3 0.3)">
          <a xlink:href="classopenage_1_1_unit_a8b29886dcd48b1db9381dcc7fd252ebc_icgraph_org.svg" target="_base">
           <rect id="button" ry="5" rx="5" y="6" x="6" height="38" width="38"
                fill="#f2f5e9" fill-opacity="0.5" stroke="#606060" stroke-width="1.0"/>
           <path id="arrow"
             d="M 11.500037,31.436501 C 11.940474,20.09759 22.043105,11.32322 32.158766,21.979434 L 37.068811,17.246167 C 37.068811,17.246167 37.088388,32 37.088388,32 L 22.160133,31.978069 C 22.160133,31.978069 26.997745,27.140456 26.997745,27.140456 C 18.528582,18.264221 13.291696,25.230495 11.500037,31.436501 z"
             style="fill:#404040;"/>
          </a>
         </g>
        </svg>
</svg>
