<?xml version="1.0" encoding="UTF-8" standalone="no"?>
<!DOCTYPE svg PUBLIC "-//W3C//DTD SVG 1.1//EN"
 "http://www.w3.org/Graphics/SVG/1.1/DTD/svg11.dtd">
<!-- Generated by graphviz version 2.40.1 (20161225.0304)
 -->
<!-- Title: openage::Unit::make_location Pages: 1 -->
<svg width="1134pt" height="965pt"
 viewBox="0.00 0.00 1134.00 965.49" xmlns="http://www.w3.org/2000/svg" xmlns:xlink="http://www.w3.org/1999/xlink">
<g id="graph0" class="graph" transform="scale(1 1) rotate(0) translate(4 961.4927)">
<title>openage::Unit::make_location</title>
<polygon fill="#ffffff" stroke="transparent" points="-4,4 -4,-961.4927 1130,-961.4927 1130,4 -4,4"/>
<!-- Node933 -->
<g id="node1" class="node">
<title>Node933</title>
<polygon fill="#bfbfbf" stroke="#000000" points="0,-651 0,-681 107,-681 107,-651 0,-651"/>
<text text-anchor="start" x="8" y="-669" font-family="Helvetica,sans-Serif" font-size="10.00" fill="#000000">openage::Unit::make</text>
<text text-anchor="middle" x="53.5" y="-658" font-family="Helvetica,sans-Serif" font-size="10.00" fill="#000000">_location</text>
</g>
<!-- Node934 -->
<g id="node2" class="node">
<title>Node934</title>
<g id="a_node2"><a xlink:href="../../df/dea/classopenage_1_1_unit.xhtml#a21542f7813db482fd36799cf12971979" target="_top" xlink:title="true when the unit is alive and able to add new actions ">
<polygon fill="#ffffff" stroke="#000000" points="319,-771 319,-801 432,-801 432,-771 319,-771"/>
<text text-anchor="start" x="327" y="-789" font-family="Helvetica,sans-Serif" font-size="10.00" fill="#000000">openage::Unit::accept</text>
<text text-anchor="middle" x="375.5" y="-778" font-family="Helvetica,sans-Serif" font-size="10.00" fill="#000000">_commands</text>
</a>
</g>
</g>
<!-- Node933&#45;&gt;Node934 -->
<g id="edge1" class="edge">
<title>Node933&#45;&gt;Node934</title>
<path fill="none" stroke="#191970" d="M61.8275,-681.2773C75.3946,-704.4543 104.6513,-747.8272 143,-767 194.4043,-792.7001 260.2603,-795.7461 308.7512,-793.3565"/>
<polygon fill="#191970" stroke="#191970" points="309.0439,-796.8454 318.8236,-792.7702 308.6371,-789.8573 309.0439,-796.8454"/>
</g>
<!-- Node935 -->
<g id="node3" class="node">
<title>Node935</title>
<g id="a_node3"><a xlink:href="../../df/dea/classopenage_1_1_unit.xhtml#a257ef8a7aeceb306d372ef745b40ef90" target="_top" xlink:title="checks the entity has an action, if it has no action it should be removed from the game ...">
<polygon fill="#ffffff" stroke="#000000" points="489,-771 489,-801 588,-801 588,-771 489,-771"/>
<text text-anchor="start" x="497" y="-789" font-family="Helvetica,sans-Serif" font-size="10.00" fill="#000000">openage::Unit::has</text>
<text text-anchor="middle" x="538.5" y="-778" font-family="Helvetica,sans-Serif" font-size="10.00" fill="#000000">_action</text>
</a>
</g>
</g>
<!-- Node933&#45;&gt;Node935 -->
<g id="edge15" class="edge">
<title>Node933&#45;&gt;Node935</title>
<path fill="none" stroke="#191970" d="M55.8616,-681.2389C64.6437,-735.7164 97.2791,-919.3655 143,-953 158.4118,-964.3377 431.6229,-950.1002 437,-947 489.3306,-916.8281 518.6819,-847.6456 531.1872,-810.5547"/>
<polygon fill="#191970" stroke="#191970" points="534.5292,-811.595 534.2727,-801.0032 527.8681,-809.4431 534.5292,-811.595"/>
</g>
<!-- Node936 -->
<g id="node4" class="node">
<title>Node936</title>
<g id="a_node4"><a xlink:href="../../df/dea/classopenage_1_1_unit.xhtml#a86a49987e082055274e98a142baffad8" target="_top" xlink:title="returns the current action on top of the stack ">
<polygon fill="#ffffff" stroke="#000000" points="490,-664.5 490,-683.5 587,-683.5 587,-664.5 490,-664.5"/>
<text text-anchor="middle" x="538.5" y="-671.5" font-family="Helvetica,sans-Serif" font-size="10.00" fill="#000000">openage::Unit::top</text>
</a>
</g>
</g>
<!-- Node933&#45;&gt;Node936 -->
<g id="edge40" class="edge">
<title>Node933&#45;&gt;Node936</title>
<path fill="none" stroke="#191970" d="M65.8196,-650.8042C81.5248,-632.7698 110.5604,-603.674 143,-592 199.4556,-571.6834 218.6962,-582.8866 278,-592 363.055,-605.0706 458.4443,-640.8242 506.7626,-660.5279"/>
<polygon fill="#191970" stroke="#191970" points="505.4808,-663.7851 516.0601,-664.359 508.1478,-657.3131 505.4808,-663.7851"/>
</g>
<!-- Node938 -->
<g id="node6" class="node">
<title>Node938</title>
<g id="a_node6"><a xlink:href="../../df/dea/classopenage_1_1_unit.xhtml#ab74b08bb7725863fc63839d798f6aedb" target="_top" xlink:title="give a new attribute this this unit this is used to set things like color, hitpoints and speed ...">
<polygon fill="#ffffff" stroke="#000000" points="161,-913 161,-943 260,-943 260,-913 161,-913"/>
<text text-anchor="start" x="169" y="-931" font-family="Helvetica,sans-Serif" font-size="10.00" fill="#000000">openage::Unit::add</text>
<text text-anchor="middle" x="210.5" y="-920" font-family="Helvetica,sans-Serif" font-size="10.00" fill="#000000">_attribute</text>
</a>
</g>
</g>
<!-- Node933&#45;&gt;Node938 -->
<g id="edge5" class="edge">
<title>Node933&#45;&gt;Node938</title>
<path fill="none" stroke="#191970" d="M54.9153,-681.0708C59.5808,-722.3624 78.1062,-838.5186 143,-903 145.6843,-905.6673 148.678,-908.0533 151.8704,-910.1874"/>
<polygon fill="#191970" stroke="#191970" points="150.2946,-913.3186 160.7086,-915.2678 153.7832,-907.2498 150.2946,-913.3186"/>
</g>
<!-- Node940 -->
<g id="node8" class="node">
<title>Node940</title>
<g id="a_node8"><a xlink:href="../../df/dea/classopenage_1_1_unit.xhtml#af46fb7ca65071c68a85f492a8235302e" target="_top" xlink:title="Give new attributes to this unit. ">
<polygon fill="#ffffff" stroke="#000000" points="161,-864 161,-894 260,-894 260,-864 161,-864"/>
<text text-anchor="start" x="169" y="-882" font-family="Helvetica,sans-Serif" font-size="10.00" fill="#000000">openage::Unit::add</text>
<text text-anchor="middle" x="210.5" y="-871" font-family="Helvetica,sans-Serif" font-size="10.00" fill="#000000">_attributes</text>
</a>
</g>
</g>
<!-- Node933&#45;&gt;Node940 -->
<g id="edge7" class="edge">
<title>Node933&#45;&gt;Node940</title>
<path fill="none" stroke="#191970" d="M56.6323,-681.2516C64.6608,-716.6005 89.2393,-804.8532 143,-854 145.744,-856.5085 148.7618,-858.7715 151.9527,-860.8124"/>
<polygon fill="#191970" stroke="#191970" points="150.2963,-863.8961 160.7344,-865.7114 153.7066,-857.783 150.2963,-863.8961"/>
</g>
<!-- Node942 -->
<g id="node10" class="node">
<title>Node942</title>
<g id="a_node10"><a xlink:href="../../df/dea/classopenage_1_1_unit.xhtml#a4923193cf464188a2e5f8563dd85ff43" target="_top" xlink:title="returns action under the passed action in the stack returns null if stack size is less than 2 ...">
<polygon fill="#ffffff" stroke="#000000" points="155.5,-738.5 155.5,-757.5 265.5,-757.5 265.5,-738.5 155.5,-738.5"/>
<text text-anchor="middle" x="210.5" y="-745.5" font-family="Helvetica,sans-Serif" font-size="10.00" fill="#000000">openage::Unit::before</text>
</a>
</g>
</g>
<!-- Node933&#45;&gt;Node942 -->
<g id="edge9" class="edge">
<title>Node933&#45;&gt;Node942</title>
<path fill="none" stroke="#191970" d="M71.2146,-681.2303C88.5,-695.3962 116.0581,-716.1889 143,-729 147.9475,-731.3526 153.2413,-733.4652 158.6069,-735.3494"/>
<polygon fill="#191970" stroke="#191970" points="157.6907,-738.7319 168.283,-738.4971 159.8562,-732.0752 157.6907,-738.7319"/>
</g>
<!-- Node943 -->
<g id="node11" class="node">
<title>Node943</title>
<g id="a_node11"><a xlink:href="../../df/dea/classopenage_1_1_unit.xhtml#ae422123ecc6a2e930ba86e45bf8a5a37" target="_top" xlink:title="draws this action by taking the graphic type of the top action the graphic is found from the current ...">
<polygon fill="#ffffff" stroke="#000000" points="158.5,-700.5 158.5,-719.5 262.5,-719.5 262.5,-700.5 158.5,-700.5"/>
<text text-anchor="middle" x="210.5" y="-707.5" font-family="Helvetica,sans-Serif" font-size="10.00" fill="#000000">openage::Unit::draw</text>
</a>
</g>
</g>
<!-- Node933&#45;&gt;Node943 -->
<g id="edge10" class="edge">
<title>Node933&#45;&gt;Node943</title>
<path fill="none" stroke="#191970" d="M107.0914,-681.0192C126.4289,-686.4387 148.0161,-692.4886 166.4444,-697.6532"/>
<polygon fill="#191970" stroke="#191970" points="165.7494,-701.0932 176.3229,-700.4217 167.6385,-694.3529 165.7494,-701.0932"/>
</g>
<!-- Node945 -->
<g id="node13" class="node">
<title>Node945</title>
<g id="a_node13"><a xlink:href="../../df/dea/classopenage_1_1_unit.xhtml#a2f0e740b8fd1b0f948916c854b9910ec" target="_top" xlink:title="get ability with specified type, null if not available ">
<polygon fill="#ffffff" stroke="#000000" points="162,-651 162,-681 259,-681 259,-651 162,-651"/>
<text text-anchor="start" x="170" y="-669" font-family="Helvetica,sans-Serif" font-size="10.00" fill="#000000">openage::Unit::get</text>
<text text-anchor="middle" x="210.5" y="-658" font-family="Helvetica,sans-Serif" font-size="10.00" fill="#000000">_ability</text>
</a>
</g>
</g>
<!-- Node933&#45;&gt;Node945 -->
<g id="edge13" class="edge">
<title>Node933&#45;&gt;Node945</title>
<path fill="none" stroke="#191970" d="M107.0914,-666C121.3877,-666 136.9136,-666 151.4837,-666"/>
<polygon fill="#191970" stroke="#191970" points="151.8927,-669.5001 161.8927,-666 151.8927,-662.5001 151.8927,-669.5001"/>
</g>
<!-- Node946 -->
<g id="node14" class="node">
<title>Node946</title>
<g id="a_node14"><a xlink:href="../../df/dea/classopenage_1_1_unit.xhtml#a37f35cd78b09fea32514ed2b2dd87b64" target="_top" xlink:title="adds an available ability to this unit this turns targeted objects into actions which are pushed onto...">
<polygon fill="#ffffff" stroke="#000000" points="160,-602 160,-632 261,-632 261,-602 160,-602"/>
<text text-anchor="start" x="168" y="-620" font-family="Helvetica,sans-Serif" font-size="10.00" fill="#000000">openage::Unit::give</text>
<text text-anchor="middle" x="210.5" y="-609" font-family="Helvetica,sans-Serif" font-size="10.00" fill="#000000">_ability</text>
</a>
</g>
</g>
<!-- Node933&#45;&gt;Node946 -->
<g id="edge14" class="edge">
<title>Node933&#45;&gt;Node946</title>
<path fill="none" stroke="#191970" d="M101.8862,-650.8986C117.9287,-645.8917 135.9488,-640.2676 152.631,-635.061"/>
<polygon fill="#191970" stroke="#191970" points="153.7704,-638.372 162.2735,-632.0516 151.6849,-631.6899 153.7704,-638.372"/>
</g>
<!-- Node947 -->
<g id="node15" class="node">
<title>Node947</title>
<g id="a_node15"><a xlink:href="../../df/dea/classopenage_1_1_unit.xhtml#a6c56a8b7e9856a8e0535cacbe831bae7" target="_top" xlink:title="returns whether attribute is available ">
<polygon fill="#ffffff" stroke="#000000" points="849.5,-23 849.5,-53 948.5,-53 948.5,-23 849.5,-23"/>
<text text-anchor="start" x="857.5" y="-41" font-family="Helvetica,sans-Serif" font-size="10.00" fill="#000000">openage::Unit::has</text>
<text text-anchor="middle" x="899" y="-30" font-family="Helvetica,sans-Serif" font-size="10.00" fill="#000000">_attribute</text>
</a>
</g>
</g>
<!-- Node933&#45;&gt;Node947 -->
<g id="edge16" class="edge">
<title>Node933&#45;&gt;Node947</title>
<path fill="none" stroke="#191970" d="M57.2072,-650.8383C81.8752,-551.704 225.8791,0 375.5,0 375.5,0 375.5,0 538.5,0 644.8208,0 767.8128,-16.5492 839.1693,-27.805"/>
<polygon fill="#191970" stroke="#191970" points="838.8878,-31.3043 849.3146,-29.4247 839.9914,-24.3918 838.8878,-31.3043"/>
</g>
<!-- Node949 -->
<g id="node17" class="node">
<title>Node949</title>
<g id="a_node17"><a xlink:href="../../df/dea/classopenage_1_1_unit.xhtml#aba4a16068cf5a6b218a4c78f499874b0" target="_top" xlink:title="checks whether the current player is the owner of this unit ">
<polygon fill="#ffffff" stroke="#000000" points="143,-487.5 143,-506.5 278,-506.5 278,-487.5 143,-487.5"/>
<text text-anchor="middle" x="210.5" y="-494.5" font-family="Helvetica,sans-Serif" font-size="10.00" fill="#000000">openage::Unit::is_own_unit</text>
</a>
</g>
</g>
<!-- Node933&#45;&gt;Node949 -->
<g id="edge18" class="edge">
<title>Node933&#45;&gt;Node949</title>
<path fill="none" stroke="#191970" d="M58.3267,-650.6333C68.698,-620.1678 96.054,-551.9565 143,-516 145.4344,-514.1355 148.0431,-512.4539 150.7684,-510.9374"/>
<polygon fill="#191970" stroke="#191970" points="152.2769,-514.0957 159.798,-506.6336 149.265,-507.7768 152.2769,-514.0957"/>
</g>
<!-- Node963 -->
<g id="node31" class="node">
<title>Node963</title>
<g id="a_node31"><a xlink:href="../../df/dea/classopenage_1_1_unit.xhtml#aecd686fafc67487f4df4d3637f2621f4" target="_top" xlink:title="adds a new action on top of the action stack will be performed immediately ">
<polygon fill="#ffffff" stroke="#000000" points="158.5,-815 158.5,-845 262.5,-845 262.5,-815 158.5,-815"/>
<text text-anchor="start" x="166.5" y="-833" font-family="Helvetica,sans-Serif" font-size="10.00" fill="#000000">openage::Unit::push</text>
<text text-anchor="middle" x="210.5" y="-822" font-family="Helvetica,sans-Serif" font-size="10.00" fill="#000000">_action</text>
</a>
</g>
</g>
<!-- Node933&#45;&gt;Node963 -->
<g id="edge36" class="edge">
<title>Node933&#45;&gt;Node963</title>
<path fill="none" stroke="#191970" d="M60.1731,-681.2987C72.7386,-708.5291 102.3483,-765.7541 143,-800 147.461,-803.758 152.4676,-807.1277 157.6851,-810.1284"/>
<polygon fill="#191970" stroke="#191970" points="156.1279,-813.264 166.6059,-814.8333 159.3935,-807.0724 156.1279,-813.264"/>
</g>
<!-- Node964 -->
<g id="node32" class="node">
<title>Node964</title>
<g id="a_node32"><a xlink:href="../../df/dea/classopenage_1_1_unit.xhtml#a24ad46b827d50be1c5af4eccc5111929" target="_top" xlink:title="removes all actions and abilities current attributes are kept ">
<polygon fill="#ffffff" stroke="#000000" points="158,-449.5 158,-468.5 263,-468.5 263,-449.5 158,-449.5"/>
<text text-anchor="middle" x="210.5" y="-456.5" font-family="Helvetica,sans-Serif" font-size="10.00" fill="#000000">openage::Unit::reset</text>
</a>
</g>
</g>
<!-- Node933&#45;&gt;Node964 -->
<g id="edge38" class="edge">
<title>Node933&#45;&gt;Node964</title>
<path fill="none" stroke="#191970" d="M56.2598,-650.9814C63.6069,-615.3531 87.0329,-525.1817 143,-478 144.9954,-476.3178 147.1299,-474.7842 149.3663,-473.3859"/>
<polygon fill="#191970" stroke="#191970" points="151.1893,-476.382 158.4182,-468.6365 147.9369,-470.1834 151.1893,-476.382"/>
</g>
<!-- Node965 -->
<g id="node33" class="node">
<title>Node965</title>
<g id="a_node33"><a xlink:href="../../df/dea/classopenage_1_1_unit.xhtml#a8b29886dcd48b1db9381dcc7fd252ebc" target="_top" xlink:title="adds a secondary action which is always updated ">
<polygon fill="#ffffff" stroke="#000000" points="146.5,-400 146.5,-430 274.5,-430 274.5,-400 146.5,-400"/>
<text text-anchor="start" x="154.5" y="-418" font-family="Helvetica,sans-Serif" font-size="10.00" fill="#000000">openage::Unit::secondary</text>
<text text-anchor="middle" x="210.5" y="-407" font-family="Helvetica,sans-Serif" font-size="10.00" fill="#000000">_action</text>
</a>
</g>
</g>
<!-- Node933&#45;&gt;Node965 -->
<g id="edge39" class="edge">
<title>Node933&#45;&gt;Node965</title>
<path fill="none" stroke="#191970" d="M55.2562,-650.7525C60.6703,-610.6131 80.6943,-500.9277 143,-440 144.4742,-438.5584 146.0388,-437.1987 147.676,-435.9165"/>
<polygon fill="#191970" stroke="#191970" points="149.9933,-438.5789 156.3847,-430.1291 146.1189,-432.7489 149.9933,-438.5789"/>
</g>
<!-- Node966 -->
<g id="node34" class="node">
<title>Node966</title>
<g id="a_node34"><a xlink:href="../../df/dea/classopenage_1_1_unit.xhtml#a6090576402dce0bcc8f3f584ae0c1db5" target="_top" xlink:title="update this object using the action currently on top of the stack ">
<polygon fill="#ffffff" stroke="#000000" points="154,-525.5 154,-544.5 267,-544.5 267,-525.5 154,-525.5"/>
<text text-anchor="middle" x="210.5" y="-532.5" font-family="Helvetica,sans-Serif" font-size="10.00" fill="#000000">openage::Unit::update</text>
</a>
</g>
</g>
<!-- Node933&#45;&gt;Node966 -->
<g id="edge41" class="edge">
<title>Node933&#45;&gt;Node966</title>
<path fill="none" stroke="#191970" d="M62.5423,-650.6576C76.8472,-627.6356 106.8199,-584.175 143,-559 149.0362,-554.7999 155.8846,-551.2597 162.8483,-548.2986"/>
<polygon fill="#191970" stroke="#191970" points="164.2931,-551.4923 172.35,-544.6121 161.7611,-544.9663 164.2931,-551.4923"/>
</g>
<!-- Node934&#45;&gt;Node935 -->
<g id="edge2" class="edge">
<title>Node934&#45;&gt;Node935</title>
<path fill="none" stroke="#191970" d="M432.052,-786C447.0686,-786 463.3357,-786 478.5277,-786"/>
<polygon fill="#191970" stroke="#191970" points="478.845,-789.5001 488.845,-786 478.845,-782.5001 478.845,-789.5001"/>
</g>
<!-- Node934&#45;&gt;Node936 -->
<g id="edge3" class="edge">
<title>Node934&#45;&gt;Node936</title>
<path fill="none" stroke="#191970" d="M417.7387,-770.9509C424.3623,-767.9937 430.9966,-764.659 437,-761 470.121,-740.8133 503.2553,-709.9052 522.2698,-690.8775"/>
<polygon fill="#191970" stroke="#191970" points="524.9943,-693.0989 529.5131,-683.5161 520.0046,-688.1893 524.9943,-693.0989"/>
</g>
<!-- Node937 -->
<g id="node5" class="node">
<title>Node937</title>
<g id="a_node5"><a xlink:href="../../dd/d1a/namespaceopenage_1_1log.xhtml#ab6b4b10be67af93ab6c4d5a36139736e" target="_top" xlink:title="error message ">
<polygon fill="#ffffff" stroke="#000000" points="676,-664.5 676,-683.5 759,-683.5 759,-664.5 676,-664.5"/>
<text text-anchor="middle" x="717.5" y="-671.5" font-family="Helvetica,sans-Serif" font-size="10.00" fill="#000000">openage.log.err</text>
</a>
</g>
</g>
<!-- Node936&#45;&gt;Node937 -->
<g id="edge4" class="edge">
<title>Node936&#45;&gt;Node937</title>
<path fill="none" stroke="#191970" d="M587.4125,-674C611.6863,-674 641.0135,-674 665.6732,-674"/>
<polygon fill="#191970" stroke="#191970" points="665.9276,-677.5001 675.9275,-674 665.9275,-670.5001 665.9276,-677.5001"/>
</g>
<!-- Node939 -->
<g id="node7" class="node">
<title>Node939</title>
<g id="a_node7"><a xlink:href="../../de/d8a/classopenage_1_1_attributes.xhtml#a9ffc8cfe4d75fbea84e7846cc6a8196f" target="_top" xlink:title="Add an attribute or replace any attribute of the same type. ">
<polygon fill="#ffffff" stroke="#000000" points="314,-918.5 314,-937.5 437,-937.5 437,-918.5 314,-918.5"/>
<text text-anchor="middle" x="375.5" y="-925.5" font-family="Helvetica,sans-Serif" font-size="10.00" fill="#000000">openage::Attributes::add</text>
</a>
</g>
</g>
<!-- Node938&#45;&gt;Node939 -->
<g id="edge6" class="edge">
<title>Node938&#45;&gt;Node939</title>
<path fill="none" stroke="#191970" d="M260.0054,-928C273.734,-928 288.922,-928 303.6496,-928"/>
<polygon fill="#191970" stroke="#191970" points="303.7485,-931.5001 313.7484,-928 303.7484,-924.5001 303.7485,-931.5001"/>
</g>
<!-- Node941 -->
<g id="node9" class="node">
<title>Node941</title>
<g id="a_node9"><a xlink:href="../../de/d8a/classopenage_1_1_attributes.xhtml#ae8924d1ae2fafd0c13418ab238848afb" target="_top" xlink:title="Add copies of all the attributes from the given Attributes. ">
<polygon fill="#ffffff" stroke="#000000" points="325,-864 325,-894 426,-894 426,-864 325,-864"/>
<text text-anchor="start" x="333" y="-882" font-family="Helvetica,sans-Serif" font-size="10.00" fill="#000000">openage::Attributes</text>
<text text-anchor="middle" x="375.5" y="-871" font-family="Helvetica,sans-Serif" font-size="10.00" fill="#000000">::add_copies</text>
</a>
</g>
</g>
<!-- Node940&#45;&gt;Node941 -->
<g id="edge8" class="edge">
<title>Node940&#45;&gt;Node941</title>
<path fill="none" stroke="#191970" d="M260.0054,-879C277.2255,-879 296.7417,-879 314.7653,-879"/>
<polygon fill="#191970" stroke="#191970" points="314.8873,-882.5001 324.8873,-879 314.8873,-875.5001 314.8873,-882.5001"/>
</g>
<!-- Node943&#45;&gt;Node936 -->
<g id="edge12" class="edge">
<title>Node943&#45;&gt;Node936</title>
<path fill="none" stroke="#191970" d="M262.8353,-704.2559C322.0291,-697.759 418.1842,-687.2054 479.8612,-680.436"/>
<polygon fill="#191970" stroke="#191970" points="480.2706,-683.9121 489.829,-679.3419 479.5068,-676.9539 480.2706,-683.9121"/>
</g>
<!-- Node944 -->
<g id="node12" class="node">
<title>Node944</title>
<g id="a_node12"><a xlink:href="../../dc/d74/classopenage_1_1_unit_action.xhtml#a6cd7405af72dd0cf3994cee74608cf8b" target="_top" xlink:title="determines which graphic should be used for drawing this unit finds the default graphic using the uni...">
<polygon fill="#ffffff" stroke="#000000" points="323,-722 323,-752 428,-752 428,-722 323,-722"/>
<text text-anchor="start" x="331" y="-740" font-family="Helvetica,sans-Serif" font-size="10.00" fill="#000000">openage::UnitAction</text>
<text text-anchor="middle" x="375.5" y="-729" font-family="Helvetica,sans-Serif" font-size="10.00" fill="#000000">::current_graphics</text>
</a>
</g>
</g>
<!-- Node943&#45;&gt;Node944 -->
<g id="edge11" class="edge">
<title>Node943&#45;&gt;Node944</title>
<path fill="none" stroke="#191970" d="M262.707,-718.543C278.5789,-721.1402 296.1878,-724.0216 312.6821,-726.7207"/>
<polygon fill="#191970" stroke="#191970" points="312.3486,-730.2126 322.7825,-728.3735 313.479,-723.3045 312.3486,-730.2126"/>
</g>
<!-- Node948 -->
<g id="node16" class="node">
<title>Node948</title>
<g id="a_node16"><a xlink:href="../../de/d8a/classopenage_1_1_attributes.xhtml#aee38f453ac85b68821958ad74cdd8df5" target="_top" xlink:title="Check if the attribute of the given type exists. ">
<polygon fill="#ffffff" stroke="#000000" points="1003,-28.5 1003,-47.5 1126,-47.5 1126,-28.5 1003,-28.5"/>
<text text-anchor="middle" x="1064.5" y="-35.5" font-family="Helvetica,sans-Serif" font-size="10.00" fill="#000000">openage::Attributes::has</text>
</a>
</g>
</g>
<!-- Node947&#45;&gt;Node948 -->
<g id="edge17" class="edge">
<title>Node947&#45;&gt;Node948</title>
<path fill="none" stroke="#191970" d="M948.6555,-38C962.503,-38 977.8309,-38 992.6808,-38"/>
<polygon fill="#191970" stroke="#191970" points="992.8611,-41.5001 1002.861,-38 992.861,-34.5001 992.8611,-41.5001"/>
</g>
<!-- Node950 -->
<g id="node18" class="node">
<title>Node950</title>
<g id="a_node18"><a xlink:href="../../d8/d47/classopenage_1_1_player.xhtml#aefd20341c814fc53919cac8761bad38b" target="_top" xlink:title="this player owns the specified unit ">
<polygon fill="#ffffff" stroke="#000000" points="317.5,-208.5 317.5,-227.5 433.5,-227.5 433.5,-208.5 317.5,-208.5"/>
<text text-anchor="middle" x="375.5" y="-215.5" font-family="Helvetica,sans-Serif" font-size="10.00" fill="#000000">openage::Player::owns</text>
</a>
</g>
</g>
<!-- Node949&#45;&gt;Node950 -->
<g id="edge19" class="edge">
<title>Node949&#45;&gt;Node950</title>
<path fill="none" stroke="#191970" d="M264.0307,-487.3873C269.1448,-484.926 273.931,-481.8476 278,-478 313.8454,-444.1048 296.898,-419.2742 314,-373 332.2342,-323.6622 355.5636,-266.2829 367.5714,-237.1279"/>
<polygon fill="#191970" stroke="#191970" points="370.87,-238.3095 371.4526,-227.7307 364.4002,-235.6373 370.87,-238.3095"/>
</g>
<!-- Node950&#45;&gt;Node947 -->
<g id="edge35" class="edge">
<title>Node950&#45;&gt;Node947</title>
<path fill="none" stroke="#191970" d="M388.1223,-208.435C424.7358,-181.2554 535.0527,-103.3214 640,-69 705.775,-47.4893 785.311,-40.6133 838.7427,-38.5649"/>
<polygon fill="#191970" stroke="#191970" points="839.1928,-42.0519 849.0692,-38.2167 838.9569,-35.0558 839.1928,-42.0519"/>
</g>
<!-- Node951 -->
<g id="node19" class="node">
<title>Node951</title>
<g id="a_node19"><a xlink:href="../../df/dea/classopenage_1_1_unit.xhtml#a3e12324401051119f44e212dae1a87ce" target="_top" xlink:title="returns attribute based on templated value ">
<polygon fill="#ffffff" stroke="#000000" points="490,-203 490,-233 587,-233 587,-203 490,-203"/>
<text text-anchor="start" x="498" y="-221" font-family="Helvetica,sans-Serif" font-size="10.00" fill="#000000">openage::Unit::get</text>
<text text-anchor="middle" x="538.5" y="-210" font-family="Helvetica,sans-Serif" font-size="10.00" fill="#000000">_attribute</text>
</a>
</g>
</g>
<!-- Node950&#45;&gt;Node951 -->
<g id="edge20" class="edge">
<title>Node950&#45;&gt;Node951</title>
<path fill="none" stroke="#191970" d="M433.8863,-218C448.8049,-218 464.8499,-218 479.7849,-218"/>
<polygon fill="#191970" stroke="#191970" points="479.9197,-221.5001 489.9197,-218 479.9196,-214.5001 479.9197,-221.5001"/>
</g>
<!-- Node952 -->
<g id="node20" class="node">
<title>Node952</title>
<g id="a_node20"><a xlink:href="../../df/dea/classopenage_1_1_unit.xhtml#ad7f76de394d832d927a9e6d46bd3c93f" target="_top" xlink:title="begins unit removal by popping some actions ">
<polygon fill="#ffffff" stroke="#000000" points="652,-104.5 652,-123.5 783,-123.5 783,-104.5 652,-104.5"/>
<text text-anchor="middle" x="717.5" y="-111.5" font-family="Helvetica,sans-Serif" font-size="10.00" fill="#000000">openage::Unit::delete_unit</text>
</a>
</g>
</g>
<!-- Node951&#45;&gt;Node952 -->
<g id="edge21" class="edge">
<title>Node951&#45;&gt;Node952</title>
<path fill="none" stroke="#191970" d="M552.0885,-202.9855C570.2531,-183.8434 604.3216,-151.069 640,-133 644.6693,-130.6353 649.6484,-128.5547 654.7441,-126.7259"/>
<polygon fill="#191970" stroke="#191970" points="656.208,-129.9304 664.6365,-123.5109 654.0444,-123.2732 656.208,-129.9304"/>
</g>
<!-- Node953 -->
<g id="node21" class="node">
<title>Node953</title>
<g id="a_node21"><a xlink:href="../../de/d8a/classopenage_1_1_attributes.xhtml#a08f927be3be6911e7cf77604f9ead10f" target="_top" xlink:title="Get the attribute based on the type. ">
<polygon fill="#ffffff" stroke="#000000" points="657,-230.5 657,-249.5 778,-249.5 778,-230.5 657,-230.5"/>
<text text-anchor="middle" x="717.5" y="-237.5" font-family="Helvetica,sans-Serif" font-size="10.00" fill="#000000">openage::Attributes::get</text>
</a>
</g>
</g>
<!-- Node951&#45;&gt;Node953 -->
<g id="edge22" class="edge">
<title>Node951&#45;&gt;Node953</title>
<path fill="none" stroke="#191970" d="M587.4125,-224.0116C605.7428,-226.2645 626.9548,-228.8715 646.8624,-231.3183"/>
<polygon fill="#191970" stroke="#191970" points="646.4684,-234.7961 656.8207,-232.5422 647.3224,-227.8484 646.4684,-234.7961"/>
</g>
<!-- Node954 -->
<g id="node22" class="node">
<title>Node954</title>
<g id="a_node22"><a xlink:href="../../df/dea/classopenage_1_1_unit.xhtml#a2e9937d84fe91d95cbe273f6fe986068" target="_top" xlink:title="the container used when constructing this unit ">
<polygon fill="#ffffff" stroke="#000000" points="669,-181 669,-211 766,-211 766,-181 669,-181"/>
<text text-anchor="start" x="677" y="-199" font-family="Helvetica,sans-Serif" font-size="10.00" fill="#000000">openage::Unit::get</text>
<text text-anchor="middle" x="717.5" y="-188" font-family="Helvetica,sans-Serif" font-size="10.00" fill="#000000">_container</text>
</a>
</g>
</g>
<!-- Node951&#45;&gt;Node954 -->
<g id="edge23" class="edge">
<title>Node951&#45;&gt;Node954</title>
<path fill="none" stroke="#191970" d="M587.4125,-211.9884C609.504,-209.2732 635.7812,-206.0436 658.9162,-203.2002"/>
<polygon fill="#191970" stroke="#191970" points="659.4584,-206.66 668.9568,-201.9662 658.6045,-199.7123 659.4584,-206.66"/>
</g>
<!-- Node955 -->
<g id="node23" class="node">
<title>Node955</title>
<g id="a_node23"><a xlink:href="../../df/dea/classopenage_1_1_unit.xhtml#adfea298b04684ab09dd8f499dabb8715" target="_top" xlink:title="get a reference which can check against the container to ensure this object still exists ...">
<polygon fill="#ffffff" stroke="#000000" points="661,-142.5 661,-161.5 774,-161.5 774,-142.5 661,-142.5"/>
<text text-anchor="middle" x="717.5" y="-149.5" font-family="Helvetica,sans-Serif" font-size="10.00" fill="#000000">openage::Unit::get_ref</text>
</a>
</g>
</g>
<!-- Node951&#45;&gt;Node955 -->
<g id="edge24" class="edge">
<title>Node951&#45;&gt;Node955</title>
<path fill="none" stroke="#191970" d="M567.1949,-202.8969C587.1905,-192.8273 614.7094,-179.862 640,-171 647.0905,-168.5154 654.6551,-166.2308 662.1746,-164.173"/>
<polygon fill="#191970" stroke="#191970" points="663.2042,-167.5214 671.9902,-161.6006 661.4296,-160.7501 663.2042,-167.5214"/>
</g>
<!-- Node956 -->
<g id="node24" class="node">
<title>Node956</title>
<g id="a_node24"><a xlink:href="../../df/dea/classopenage_1_1_unit.xhtml#ae769f520dfdb148ec831c151a954a881" target="_top" xlink:title="Returns the unit&#39;s name as the LogSource name. ">
<polygon fill="#ffffff" stroke="#000000" points="640,-356.5 640,-375.5 795,-375.5 795,-356.5 640,-356.5"/>
<text text-anchor="middle" x="717.5" y="-363.5" font-family="Helvetica,sans-Serif" font-size="10.00" fill="#000000">openage::Unit::logsource_name</text>
</a>
</g>
</g>
<!-- Node951&#45;&gt;Node956 -->
<g id="edge25" class="edge">
<title>Node951&#45;&gt;Node956</title>
<path fill="none" stroke="#191970" d="M545.958,-233.0252C560.2633,-260.2229 594.2427,-317.5235 640,-347 643.3118,-349.1335 646.8442,-351.0274 650.5073,-352.7087"/>
<polygon fill="#191970" stroke="#191970" points="649.2471,-355.9743 659.8306,-356.4652 651.8632,-349.4815 649.2471,-355.9743"/>
</g>
<!-- Node958 -->
<g id="node26" class="node">
<title>Node958</title>
<g id="a_node26"><a xlink:href="../../df/dea/classopenage_1_1_unit.xhtml#ac5dcdf3180dcd4bdce67b765d8ef2134" target="_top" xlink:title="queues a command to be applied to this unit on the next update ">
<polygon fill="#ffffff" stroke="#000000" points="650.5,-318.5 650.5,-337.5 784.5,-337.5 784.5,-318.5 650.5,-318.5"/>
<text text-anchor="middle" x="717.5" y="-325.5" font-family="Helvetica,sans-Serif" font-size="10.00" fill="#000000">openage::Unit::queue_cmd</text>
</a>
</g>
</g>
<!-- Node951&#45;&gt;Node958 -->
<g id="edge27" class="edge">
<title>Node951&#45;&gt;Node958</title>
<path fill="none" stroke="#191970" d="M551.3208,-233.1698C569.155,-253.2919 603.4074,-288.5296 640,-308 645.1867,-310.7598 650.7742,-313.1535 656.4886,-315.2268"/>
<polygon fill="#191970" stroke="#191970" points="655.5839,-318.6138 666.177,-318.4216 657.7761,-311.9659 655.5839,-318.6138"/>
</g>
<!-- Node960 -->
<g id="node28" class="node">
<title>Node960</title>
<g id="a_node28"><a xlink:href="../../df/dea/classopenage_1_1_unit.xhtml#a9f53ef015fca7c42ff3bf9d0779145a3" target="_top" xlink:title="removes all actions above and including the first interuptable action this will stop any of the units...">
<polygon fill="#ffffff" stroke="#000000" points="666.5,-269 666.5,-299 768.5,-299 768.5,-269 666.5,-269"/>
<text text-anchor="start" x="674.5" y="-287" font-family="Helvetica,sans-Serif" font-size="10.00" fill="#000000">openage::Unit::stop</text>
<text text-anchor="middle" x="717.5" y="-276" font-family="Helvetica,sans-Serif" font-size="10.00" fill="#000000">_actions</text>
</a>
</g>
</g>
<!-- Node951&#45;&gt;Node960 -->
<g id="edge29" class="edge">
<title>Node951&#45;&gt;Node960</title>
<path fill="none" stroke="#191970" d="M573.9582,-233.0512C593.3402,-241.0937 617.8464,-250.9642 640,-259 646.2506,-261.2673 652.8202,-263.5453 659.3808,-265.7535"/>
<polygon fill="#191970" stroke="#191970" points="658.3545,-269.1006 668.948,-268.9296 660.56,-262.4571 658.3545,-269.1006"/>
</g>
<!-- Node961 -->
<g id="node29" class="node">
<title>Node961</title>
<g id="a_node29"><a xlink:href="../../df/dea/classopenage_1_1_unit.xhtml#a238fb029bd4cc32e393506533facd976" target="_top" xlink:title="removes all gather actions without calling their on_complete actions this cancels the gathering actio...">
<polygon fill="#ffffff" stroke="#000000" points="848,-228 848,-258 950,-258 950,-228 848,-228"/>
<text text-anchor="start" x="856" y="-246" font-family="Helvetica,sans-Serif" font-size="10.00" fill="#000000">openage::Unit::stop</text>
<text text-anchor="middle" x="899" y="-235" font-family="Helvetica,sans-Serif" font-size="10.00" fill="#000000">_gather</text>
</a>
</g>
</g>
<!-- Node951&#45;&gt;Node961 -->
<g id="edge34" class="edge">
<title>Node951&#45;&gt;Node961</title>
<path fill="none" stroke="#191970" d="M545.5564,-202.5982C559.2088,-174.9172 592.1662,-117.5448 640,-95 702.3145,-65.6302 733.8682,-63.2418 795,-95 844.9671,-120.9581 875.9583,-183.156 890.0433,-218.0957"/>
<polygon fill="#191970" stroke="#191970" points="886.844,-219.5262 893.7222,-227.5847 893.3706,-216.9957 886.844,-219.5262"/>
</g>
<!-- Node957 -->
<g id="node25" class="node">
<title>Node957</title>
<g id="a_node25"><a xlink:href="../../d8/dcc/namespacestd.xhtml#a26aa0f4be3a77ac5cc3ce0cabb545042" target="_top" xlink:title="std::to_string">
<polygon fill="#ffffff" stroke="#000000" points="862,-356.5 862,-375.5 936,-375.5 936,-356.5 862,-356.5"/>
<text text-anchor="middle" x="899" y="-363.5" font-family="Helvetica,sans-Serif" font-size="10.00" fill="#000000">std::to_string</text>
</a>
</g>
</g>
<!-- Node956&#45;&gt;Node957 -->
<g id="edge26" class="edge">
<title>Node956&#45;&gt;Node957</title>
<path fill="none" stroke="#191970" d="M795.2622,-366C814.3849,-366 834.2933,-366 851.4958,-366"/>
<polygon fill="#191970" stroke="#191970" points="851.826,-369.5001 861.8259,-366 851.8259,-362.5001 851.826,-369.5001"/>
</g>
<!-- Node959 -->
<g id="node27" class="node">
<title>Node959</title>
<g id="a_node27"><a xlink:href="../../d8/dda/classopenage_1_1_command.xhtml#afbc0a60d82b9608e375c38c5e3fdf758" target="_top" xlink:title="the ability types allowed to use this command ">
<polygon fill="#ffffff" stroke="#000000" points="831,-318.5 831,-337.5 967,-337.5 967,-318.5 831,-318.5"/>
<text text-anchor="middle" x="899" y="-325.5" font-family="Helvetica,sans-Serif" font-size="10.00" fill="#000000">openage::Command::ability</text>
</a>
</g>
</g>
<!-- Node958&#45;&gt;Node959 -->
<g id="edge28" class="edge">
<title>Node958&#45;&gt;Node959</title>
<path fill="none" stroke="#191970" d="M784.5682,-328C796.402,-328 808.8134,-328 820.9182,-328"/>
<polygon fill="#191970" stroke="#191970" points="820.9946,-331.5001 830.9946,-328 820.9945,-324.5001 820.9946,-331.5001"/>
</g>
<!-- Node960&#45;&gt;Node947 -->
<g id="edge30" class="edge">
<title>Node960&#45;&gt;Node947</title>
<path fill="none" stroke="#191970" d="M768.6155,-274.0895C778.1462,-270.5054 787.4635,-265.63 795,-259 855.8655,-205.4553 883.8232,-108.6371 894.0796,-63.0366"/>
<polygon fill="#191970" stroke="#191970" points="897.5346,-63.6176 896.2129,-53.1056 890.6907,-62.1475 897.5346,-63.6176"/>
</g>
<!-- Node960&#45;&gt;Node961 -->
<g id="edge31" class="edge">
<title>Node960&#45;&gt;Node961</title>
<path fill="none" stroke="#191970" d="M768.5409,-272.4701C790.0957,-267.601 815.3736,-261.8908 837.9096,-256.8"/>
<polygon fill="#191970" stroke="#191970" points="838.7304,-260.2029 847.7134,-254.5854 837.1879,-253.3749 838.7304,-260.2029"/>
</g>
<!-- Node962 -->
<g id="node30" class="node">
<title>Node962</title>
<g id="a_node30"><a xlink:href="../../df/dea/classopenage_1_1_unit.xhtml#aae0b3f53cb1d75823391322876d199ef" target="_top" xlink:title="erase from action specified by func to the end of the stack all actions erased will have the on_compl...">
<polygon fill="#ffffff" stroke="#000000" points="1011,-272 1011,-302 1118,-302 1118,-272 1011,-272"/>
<text text-anchor="start" x="1019" y="-290" font-family="Helvetica,sans-Serif" font-size="10.00" fill="#000000">openage::Unit::erase</text>
<text text-anchor="middle" x="1064.5" y="-279" font-family="Helvetica,sans-Serif" font-size="10.00" fill="#000000">_after</text>
</a>
</g>
</g>
<!-- Node960&#45;&gt;Node962 -->
<g id="edge33" class="edge">
<title>Node960&#45;&gt;Node962</title>
<path fill="none" stroke="#191970" d="M768.701,-284.4427C830.2598,-284.9749 933.6108,-285.8684 1000.4095,-286.4459"/>
<polygon fill="#191970" stroke="#191970" points="1000.7746,-289.9491 1010.8045,-286.5358 1000.8352,-282.9494 1000.7746,-289.9491"/>
</g>
<!-- Node961&#45;&gt;Node962 -->
<g id="edge32" class="edge">
<title>Node961&#45;&gt;Node962</title>
<path fill="none" stroke="#191970" d="M950.0059,-256.5605C966.1229,-260.8454 984.1336,-265.6337 1001.0122,-270.1211"/>
<polygon fill="#191970" stroke="#191970" points="1000.2328,-273.5354 1010.7964,-272.7223 1002.0314,-266.7704 1000.2328,-273.5354"/>
</g>
<!-- Node963&#45;&gt;Node934 -->
<g id="edge37" class="edge">
<title>Node963&#45;&gt;Node934</title>
<path fill="none" stroke="#191970" d="M262.707,-816.0781C277.4223,-812.1541 293.6307,-807.8318 309.0597,-803.7174"/>
<polygon fill="#191970" stroke="#191970" points="310.302,-807.0085 319.0626,-801.05 308.4984,-800.2449 310.302,-807.0085"/>
</g>
<!-- Node966&#45;&gt;Node935 -->
<g id="edge43" class="edge">
<title>Node966&#45;&gt;Node935</title>
<path fill="none" stroke="#191970" d="M222.9575,-544.533C270.6502,-581.0296 442.3619,-712.4309 510.4252,-764.5159"/>
<polygon fill="#191970" stroke="#191970" points="508.5031,-767.4523 518.5717,-770.75 512.7572,-761.8932 508.5031,-767.4523"/>
</g>
<!-- Node966&#45;&gt;Node936 -->
<g id="edge44" class="edge">
<title>Node966&#45;&gt;Node936</title>
<path fill="none" stroke="#191970" d="M247.453,-544.559C302.5283,-559.0643 403.2821,-586.6697 437,-603 468.0214,-618.0244 499.9858,-642.0672 519.5521,-657.9461"/>
<polygon fill="#191970" stroke="#191970" points="517.4392,-660.7403 527.3807,-664.4034 521.8934,-655.3403 517.4392,-660.7403"/>
</g>
<!-- Node966&#45;&gt;Node962 -->
<g id="edge42" class="edge">
<title>Node966&#45;&gt;Node962</title>
<path fill="none" stroke="#191970" d="M260.3552,-525.4417C266.6308,-522.9811 272.6989,-519.888 278,-516 301.5583,-498.7218 288.9093,-475.9662 314,-461 399.9976,-409.7036 438.3655,-442 538.5,-442 538.5,-442 538.5,-442 717.5,-442 831.2459,-442 867.523,-440.1584 967,-385 1000.5009,-366.4243 1030.1281,-332.917 1047.6894,-310.3177"/>
<polygon fill="#191970" stroke="#191970" points="1050.5582,-312.3271 1053.8121,-302.2443 1044.9807,-308.0973 1050.5582,-312.3271"/>
</g>
<!-- Node967 -->
<g id="node35" class="node">
<title>Node967</title>
<g id="a_node35"><a xlink:href="../../dc/d74/classopenage_1_1_unit_action.xhtml#a0196263da38bfa208d50c2241809cd62" target="_top" xlink:title="each action has its own update functionality which gets called when this is the active action ...">
<polygon fill="#ffffff" stroke="#000000" points="323,-520 323,-550 428,-550 428,-520 323,-520"/>
<text text-anchor="start" x="331" y="-538" font-family="Helvetica,sans-Serif" font-size="10.00" fill="#000000">openage::UnitAction</text>
<text text-anchor="middle" x="375.5" y="-527" font-family="Helvetica,sans-Serif" font-size="10.00" fill="#000000">::update</text>
</a>
</g>
</g>
<!-- Node966&#45;&gt;Node967 -->
<g id="edge45" class="edge">
<title>Node966&#45;&gt;Node967</title>
<path fill="none" stroke="#191970" d="M267.2836,-535C281.9017,-535 297.7166,-535 312.624,-535"/>
<polygon fill="#191970" stroke="#191970" points="312.7737,-538.5001 322.7737,-535 312.7736,-531.5001 312.7737,-538.5001"/>
</g>
<!-- Node968 -->
<g id="node36" class="node">
<title>Node968</title>
<g id="a_node36"><a xlink:href="../../df/dea/classopenage_1_1_unit.xhtml#aaf08f7acc4fd00636671fb21ba4cbaf0" target="_top" xlink:title="update all secondary actions ">
<polygon fill="#ffffff" stroke="#000000" points="319,-471 319,-501 432,-501 432,-471 319,-471"/>
<text text-anchor="start" x="327" y="-489" font-family="Helvetica,sans-Serif" font-size="10.00" fill="#000000">openage::Unit::update</text>
<text text-anchor="middle" x="375.5" y="-478" font-family="Helvetica,sans-Serif" font-size="10.00" fill="#000000">_secondary</text>
</a>
</g>
</g>
<!-- Node966&#45;&gt;Node968 -->
<g id="edge46" class="edge">
<title>Node966&#45;&gt;Node968</title>
<path fill="none" stroke="#191970" d="M244.885,-525.494C255.5168,-522.5084 267.2561,-519.1645 278,-516 290.8609,-512.2119 304.6417,-508.0408 317.6735,-504.0445"/>
<polygon fill="#191970" stroke="#191970" points="318.9369,-507.3177 327.4655,-501.0317 316.8783,-500.6273 318.9369,-507.3177"/>
</g>
<!-- Node969 -->
<g id="node37" class="node">
<title>Node969</title>
<g id="a_node37"><a xlink:href="../../df/dea/classopenage_1_1_unit.xhtml#a627bc25cc4e546ff34b06cfa809f8946" target="_top" xlink:title="applies new commands as part of the units update process ">
<polygon fill="#ffffff" stroke="#000000" points="322,-383 322,-413 429,-413 429,-383 322,-383"/>
<text text-anchor="start" x="330" y="-401" font-family="Helvetica,sans-Serif" font-size="10.00" fill="#000000">openage::Unit::apply</text>
<text text-anchor="middle" x="375.5" y="-390" font-family="Helvetica,sans-Serif" font-size="10.00" fill="#000000">_all_cmds</text>
</a>
</g>
</g>
<!-- Node966&#45;&gt;Node969 -->
<g id="edge47" class="edge">
<title>Node966&#45;&gt;Node969</title>
<path fill="none" stroke="#191970" d="M263.1347,-525.4576C268.541,-522.9893 273.6394,-519.8901 278,-516 309.5333,-487.8694 285.1144,-458.8432 314,-428 317.3269,-424.4477 321.164,-421.264 325.2629,-418.4219"/>
<polygon fill="#191970" stroke="#191970" points="327.2873,-421.2856 333.9643,-413.0595 323.6148,-415.3264 327.2873,-421.2856"/>
</g>
<!-- Node970 -->
<g id="node38" class="node">
<title>Node970</title>
<g id="a_node38"><a xlink:href="../../df/dea/classopenage_1_1_unit.xhtml#aef7363eab8f805124114c4967470379d" target="_top" xlink:title="applies one command using a chosen ability locks the command queue mutex while operating ...">
<polygon fill="#ffffff" stroke="#000000" points="473,-388.5 473,-407.5 604,-407.5 604,-388.5 473,-388.5"/>
<text text-anchor="middle" x="538.5" y="-395.5" font-family="Helvetica,sans-Serif" font-size="10.00" fill="#000000">openage::Unit::apply_cmd</text>
</a>
</g>
</g>
<!-- Node969&#45;&gt;Node970 -->
<g id="edge48" class="edge">
<title>Node969&#45;&gt;Node970</title>
<path fill="none" stroke="#191970" d="M429.324,-398C439.9736,-398 451.3386,-398 462.5623,-398"/>
<polygon fill="#191970" stroke="#191970" points="462.8054,-401.5001 472.8054,-398 462.8054,-394.5001 462.8054,-401.5001"/>
</g>
<!-- Node970&#45;&gt;Node960 -->
<g id="edge50" class="edge">
<title>Node970&#45;&gt;Node960</title>
<path fill="none" stroke="#191970" d="M547.0206,-388.2564C563.3362,-370.1628 600.86,-331.2005 640,-309 645.1994,-306.0509 650.7954,-303.3939 656.5151,-301.0131"/>
<polygon fill="#191970" stroke="#191970" points="658.1451,-304.1355 666.2097,-297.2643 655.6204,-297.6066 658.1451,-304.1355"/>
</g>
<!-- Node971 -->
<g id="node39" class="node">
<title>Node971</title>
<g id="a_node39"><a xlink:href="../../d8/dda/classopenage_1_1_command.xhtml#acbb97472983c470bf9ba48fa9297c970" target="_top" xlink:title="read the range setting ">
<polygon fill="#ffffff" stroke="#000000" points="644,-394.5 644,-413.5 791,-413.5 791,-394.5 644,-394.5"/>
<text text-anchor="middle" x="717.5" y="-401.5" font-family="Helvetica,sans-Serif" font-size="10.00" fill="#000000">openage::Command::has_flag</text>
</a>
</g>
</g>
<!-- Node970&#45;&gt;Node971 -->
<g id="edge49" class="edge">
<title>Node970&#45;&gt;Node971</title>
<path fill="none" stroke="#191970" d="M604.1366,-400.2001C613.6896,-400.5203 623.6339,-400.8536 633.4891,-401.184"/>
<polygon fill="#191970" stroke="#191970" points="633.5952,-404.6894 643.7069,-401.5265 633.8298,-397.6933 633.5952,-404.6894"/>
</g>
</g>
</svg>
