<?xml version="1.0" encoding="UTF-8" standalone="no"?>
<!DOCTYPE svg PUBLIC "-//W3C//DTD SVG 1.1//EN"
 "http://www.w3.org/Graphics/SVG/1.1/DTD/svg11.dtd">
<!-- Generated by graphviz version 2.40.1 (20161225.0304)
 -->
<!-- Title: openage::gui::GameControlLink Pages: 1 -->
<!--zoomable 1147 -->
<svg id="main" version="1.1" xmlns="http://www.w3.org/2000/svg" xmlns:xlink="http://www.w3.org/1999/xlink" xml:space="preserve" onload="init(evt)">
<style type="text/css"><![CDATA[
.edge:hover path { stroke: red; }
.edge:hover polygon { stroke: red; fill: red; }
]]></style>
<script type="text/javascript"><![CDATA[
var edges = document.getElementsByTagName('g');
if (edges && edges.length) {
  for (var i=0;i<edges.length;i++) {
    if (edges[i].id.substr(0,4)=='edge') {
      edges[i].setAttribute('class','edge');
    }
  }
}
]]></script>
        <defs>
                <circle id="rim" cx="0" cy="0" r="7"/>
                <circle id="rim2" cx="0" cy="0" r="3.5"/>
                <g id="zoomPlus">
                        <use xlink:href="#rim" fill="#404040">
                                <set attributeName="fill" to="#808080" begin="zoomplus.mouseover" end="zoomplus.mouseout"/>
                        </use>
                        <path d="M-4,0h8M0,-4v8" fill="none" stroke="white" stroke-width="1.5" pointer-events="none"/>
                </g>
                <g id="zoomMin">
                        <use xlink:href="#rim" fill="#404040">
                                <set attributeName="fill" to="#808080" begin="zoomminus.mouseover" end="zoomminus.mouseout"/>
                        </use>
                        <path d="M-4,0h8" fill="none" stroke="white" stroke-width="1.5" pointer-events="none"/>
                </g>
                <g id="dirArrow">
                        <path fill="none" stroke="white" stroke-width="1.5" d="M0,-3.0v7 M-2.5,-0.5L0,-3.0L2.5,-0.5"/>
                </g>
               <g id="resetDef">
                       <use xlink:href="#rim2" fill="#404040">
                               <set attributeName="fill" to="#808080" begin="reset.mouseover" end="reset.mouseout"/>
                       </use>
               </g>
        </defs>

<script type="text/javascript">
var viewWidth = 811;
var viewHeight = 1147;
var sectionId = 'dynsection-0';
</script>
<script xlink:href="../../svgpan.js"/>
<svg id="graph" class="graph">
<g id="viewport">
<title>openage::gui::GameControlLink</title>
<polygon fill="#ffffff" stroke="transparent" points="-4,4 -4,-1143 806.5,-1143 806.5,4 -4,4"/>
<!-- Node0 -->
<g id="node1" class="node">
<title>Node0</title>
<polygon fill="#bfbfbf" stroke="#000000" points="245.5,-.5 245.5,-464.5 399.5,-464.5 399.5,-.5 245.5,-.5"/>
<text text-anchor="middle" x="322.5" y="-452.5" font-family="Helvetica,sans-Serif" font-size="10.00" fill="#000000">openage::gui::GameControlLink</text>
<polyline fill="none" stroke="#000000" points="245.5,-445.5 399.5,-445.5 "/>
<text text-anchor="start" x="253.5" y="-433.5" font-family="Helvetica,sans-Serif" font-size="10.00" fill="#000000">+ mode</text>
<text text-anchor="start" x="253.5" y="-422.5" font-family="Helvetica,sans-Serif" font-size="10.00" fill="#000000">+ effectiveModeIndex</text>
<text text-anchor="start" x="253.5" y="-411.5" font-family="Helvetica,sans-Serif" font-size="10.00" fill="#000000">+ modeIndex</text>
<text text-anchor="start" x="253.5" y="-400.5" font-family="Helvetica,sans-Serif" font-size="10.00" fill="#000000">+ modes</text>
<text text-anchor="start" x="253.5" y="-389.5" font-family="Helvetica,sans-Serif" font-size="10.00" fill="#000000">+ engine</text>
<text text-anchor="start" x="253.5" y="-378.5" font-family="Helvetica,sans-Serif" font-size="10.00" fill="#000000">+ game</text>
<text text-anchor="start" x="253.5" y="-367.5" font-family="Helvetica,sans-Serif" font-size="10.00" fill="#000000">+ currentPlayerName</text>
<text text-anchor="start" x="253.5" y="-356.5" font-family="Helvetica,sans-Serif" font-size="10.00" fill="#000000">+ currentCivIndex</text>
<text text-anchor="start" x="253.5" y="-345.5" font-family="Helvetica,sans-Serif" font-size="10.00" fill="#000000">&#45; mode</text>
<text text-anchor="start" x="253.5" y="-334.5" font-family="Helvetica,sans-Serif" font-size="10.00" fill="#000000">&#45; effective_mode_index</text>
<text text-anchor="start" x="253.5" y="-323.5" font-family="Helvetica,sans-Serif" font-size="10.00" fill="#000000">&#45; mode_index</text>
<text text-anchor="start" x="253.5" y="-312.5" font-family="Helvetica,sans-Serif" font-size="10.00" fill="#000000">&#45; engine</text>
<text text-anchor="start" x="253.5" y="-301.5" font-family="Helvetica,sans-Serif" font-size="10.00" fill="#000000">&#45; game</text>
<text text-anchor="start" x="253.5" y="-290.5" font-family="Helvetica,sans-Serif" font-size="10.00" fill="#000000">&#45; current_player_name</text>
<text text-anchor="start" x="253.5" y="-279.5" font-family="Helvetica,sans-Serif" font-size="10.00" fill="#000000">&#45; current_civ_index</text>
<polyline fill="none" stroke="#000000" points="245.5,-272.5 399.5,-272.5 "/>
<text text-anchor="start" x="253.5" y="-260.5" font-family="Helvetica,sans-Serif" font-size="10.00" fill="#000000">+ GameControlLink()</text>
<text text-anchor="start" x="253.5" y="-249.5" font-family="Helvetica,sans-Serif" font-size="10.00" fill="#000000">+ ~GameControlLink()</text>
<text text-anchor="start" x="253.5" y="-238.5" font-family="Helvetica,sans-Serif" font-size="10.00" fill="#000000">+ get_mode()</text>
<text text-anchor="start" x="253.5" y="-227.5" font-family="Helvetica,sans-Serif" font-size="10.00" fill="#000000">+ get_effective_mode</text>
<text text-anchor="start" x="253.5" y="-216.5" font-family="Helvetica,sans-Serif" font-size="10.00" fill="#000000">_index()</text>
<text text-anchor="start" x="253.5" y="-205.5" font-family="Helvetica,sans-Serif" font-size="10.00" fill="#000000">+ get_mode_index()</text>
<text text-anchor="start" x="253.5" y="-194.5" font-family="Helvetica,sans-Serif" font-size="10.00" fill="#000000">+ set_mode_index()</text>
<text text-anchor="start" x="253.5" y="-183.5" font-family="Helvetica,sans-Serif" font-size="10.00" fill="#000000">+ get_modes()</text>
<text text-anchor="start" x="253.5" y="-172.5" font-family="Helvetica,sans-Serif" font-size="10.00" fill="#000000">+ set_modes()</text>
<text text-anchor="start" x="253.5" y="-161.5" font-family="Helvetica,sans-Serif" font-size="10.00" fill="#000000">+ get_engine()</text>
<text text-anchor="start" x="253.5" y="-150.5" font-family="Helvetica,sans-Serif" font-size="10.00" fill="#000000">+ set_engine()</text>
<text text-anchor="start" x="253.5" y="-139.5" font-family="Helvetica,sans-Serif" font-size="10.00" fill="#000000">+ get_game()</text>
<text text-anchor="start" x="253.5" y="-128.5" font-family="Helvetica,sans-Serif" font-size="10.00" fill="#000000">+ set_game()</text>
<text text-anchor="start" x="253.5" y="-117.5" font-family="Helvetica,sans-Serif" font-size="10.00" fill="#000000">+ get_current_player_name()</text>
<text text-anchor="start" x="253.5" y="-106.5" font-family="Helvetica,sans-Serif" font-size="10.00" fill="#000000">+ get_current_civ_index()</text>
<text text-anchor="start" x="253.5" y="-95.5" font-family="Helvetica,sans-Serif" font-size="10.00" fill="#000000">&#45; classBegin()</text>
<text text-anchor="start" x="253.5" y="-84.5" font-family="Helvetica,sans-Serif" font-size="10.00" fill="#000000">&#45; on_core_adopted()</text>
<text text-anchor="start" x="253.5" y="-73.5" font-family="Helvetica,sans-Serif" font-size="10.00" fill="#000000">&#45; componentComplete()</text>
<text text-anchor="start" x="253.5" y="-62.5" font-family="Helvetica,sans-Serif" font-size="10.00" fill="#000000">&#45; on_mode_changed()</text>
<text text-anchor="start" x="253.5" y="-51.5" font-family="Helvetica,sans-Serif" font-size="10.00" fill="#000000">&#45; on_modes_changed()</text>
<text text-anchor="start" x="253.5" y="-40.5" font-family="Helvetica,sans-Serif" font-size="10.00" fill="#000000">&#45; on_current_player_name</text>
<text text-anchor="start" x="253.5" y="-29.5" font-family="Helvetica,sans-Serif" font-size="10.00" fill="#000000">_changed()</text>
<text text-anchor="start" x="253.5" y="-18.5" font-family="Helvetica,sans-Serif" font-size="10.00" fill="#000000">&#45; on_current_civ_index</text>
<text text-anchor="start" x="253.5" y="-7.5" font-family="Helvetica,sans-Serif" font-size="10.00" fill="#000000">_changed()</text>
</g>
<!-- Node1 -->
<g id="node2" class="node">
<title>Node1</title>
<g id="a_node2"><a xlink:href="../../de/dbd/classqtsdl_1_1_gui_item_q_object.xhtml" target="_top" xlink:title="{qtsdl::GuiItemQObject\n||+ GuiItemQObject()\l}">
<polygon fill="#ffffff" stroke="#000000" points="106.5,-508 106.5,-565 220.5,-565 220.5,-508 106.5,-508"/>
<text text-anchor="middle" x="163.5" y="-553" font-family="Helvetica,sans-Serif" font-size="10.00" fill="#000000">qtsdl::GuiItemQObject</text>
<polyline fill="none" stroke="#000000" points="106.5,-546 220.5,-546 "/>
<text text-anchor="middle" x="163.5" y="-534" font-family="Helvetica,sans-Serif" font-size="10.00" fill="#000000"> </text>
<polyline fill="none" stroke="#000000" points="106.5,-527 220.5,-527 "/>
<text text-anchor="start" x="114.5" y="-515" font-family="Helvetica,sans-Serif" font-size="10.00" fill="#000000">+ GuiItemQObject()</text>
</a>
</g>
</g>
<!-- Node1&#45;&gt;Node0 -->
<g id="edge1" class="edge">
<title>Node1&#45;&gt;Node0</title>
<path fill="none" stroke="#191970" d="M183.1201,-498.9873C198.9481,-468.7249 222.3047,-424.0684 245.392,-379.9266"/>
<polygon fill="none" stroke="#191970" points="179.9916,-497.4171 178.4583,-507.9004 186.1944,-500.6614 179.9916,-497.4171"/>
</g>
<!-- Node2 -->
<g id="node3" class="node">
<title>Node2</title>
<polygon fill="#ffffff" stroke="#bfbfbf" points="0,-662.5 0,-719.5 53,-719.5 53,-662.5 0,-662.5"/>
<text text-anchor="middle" x="26.5" y="-707.5" font-family="Helvetica,sans-Serif" font-size="10.00" fill="#000000">QObject</text>
<polyline fill="none" stroke="#bfbfbf" points="0,-700.5 53,-700.5 "/>
<text text-anchor="middle" x="26.5" y="-688.5" font-family="Helvetica,sans-Serif" font-size="10.00" fill="#000000"> </text>
<polyline fill="none" stroke="#bfbfbf" points="0,-681.5 53,-681.5 "/>
<text text-anchor="middle" x="26.5" y="-669.5" font-family="Helvetica,sans-Serif" font-size="10.00" fill="#000000"> </text>
</g>
<!-- Node2&#45;&gt;Node1 -->
<g id="edge2" class="edge">
<title>Node2&#45;&gt;Node1</title>
<path fill="none" stroke="#191970" d="M41.4085,-653.0159C47.0377,-641.1515 54.1388,-628.446 62.5,-618 78.6918,-597.7709 100.7179,-579.2699 120.069,-565.0265"/>
<polygon fill="none" stroke="#191970" points="38.1453,-651.7376 37.2135,-662.2914 44.5234,-654.6222 38.1453,-651.7376"/>
</g>
<!-- Node3 -->
<g id="node4" class="node">
<title>Node3</title>
<g id="a_node4"><a xlink:href="../../d3/d71/classqtsdl_1_1_gui_item_base.xhtml" target="_top" xlink:title="{qtsdl::GuiItemBase\n|# game_logic_caller\l# instantiate_core_func\l# do_adopt_core_func\l# on_core_adopted_func\l|+ ~GuiItemBase()\l&#45; instantiate_core()\l&#45; adopt_core()\l&#45; do_adopt_core()\l&#45; on_core_adopted()\l&#45; set_game_logic_callback()\l}">
<polygon fill="#ffffff" stroke="#000000" points="71.5,-618.5 71.5,-763.5 209.5,-763.5 209.5,-618.5 71.5,-618.5"/>
<text text-anchor="middle" x="140.5" y="-751.5" font-family="Helvetica,sans-Serif" font-size="10.00" fill="#000000">qtsdl::GuiItemBase</text>
<polyline fill="none" stroke="#000000" points="71.5,-744.5 209.5,-744.5 "/>
<text text-anchor="start" x="79.5" y="-732.5" font-family="Helvetica,sans-Serif" font-size="10.00" fill="#000000"># game_logic_caller</text>
<text text-anchor="start" x="79.5" y="-721.5" font-family="Helvetica,sans-Serif" font-size="10.00" fill="#000000"># instantiate_core_func</text>
<text text-anchor="start" x="79.5" y="-710.5" font-family="Helvetica,sans-Serif" font-size="10.00" fill="#000000"># do_adopt_core_func</text>
<text text-anchor="start" x="79.5" y="-699.5" font-family="Helvetica,sans-Serif" font-size="10.00" fill="#000000"># on_core_adopted_func</text>
<polyline fill="none" stroke="#000000" points="71.5,-692.5 209.5,-692.5 "/>
<text text-anchor="start" x="79.5" y="-680.5" font-family="Helvetica,sans-Serif" font-size="10.00" fill="#000000">+ ~GuiItemBase()</text>
<text text-anchor="start" x="79.5" y="-669.5" font-family="Helvetica,sans-Serif" font-size="10.00" fill="#000000">&#45; instantiate_core()</text>
<text text-anchor="start" x="79.5" y="-658.5" font-family="Helvetica,sans-Serif" font-size="10.00" fill="#000000">&#45; adopt_core()</text>
<text text-anchor="start" x="79.5" y="-647.5" font-family="Helvetica,sans-Serif" font-size="10.00" fill="#000000">&#45; do_adopt_core()</text>
<text text-anchor="start" x="79.5" y="-636.5" font-family="Helvetica,sans-Serif" font-size="10.00" fill="#000000">&#45; on_core_adopted()</text>
<text text-anchor="start" x="79.5" y="-625.5" font-family="Helvetica,sans-Serif" font-size="10.00" fill="#000000">&#45; set_game_logic_callback()</text>
</a>
</g>
</g>
<!-- Node3&#45;&gt;Node1 -->
<g id="edge3" class="edge">
<title>Node3&#45;&gt;Node1</title>
<path fill="none" stroke="#191970" d="M152.8352,-608.1395C155.1272,-592.7435 157.3747,-577.6462 159.211,-565.3112"/>
<polygon fill="none" stroke="#191970" points="149.3372,-607.8677 151.3265,-618.2741 156.2609,-608.8984 149.3372,-607.8677"/>
</g>
<!-- Node4 -->
<g id="node5" class="node">
<title>Node4</title>
<g id="a_node5"><a xlink:href="../../df/dc7/classqtsdl_1_1_deferred_initial_constant_property_values.xhtml" target="_top" xlink:title="Stores static properties during initialization to be able to assign them after all &#39;liveReloadTag&#39; pr...">
<polygon fill="#ffffff" stroke="#000000" points="59,-811.5 59,-956.5 222,-956.5 222,-811.5 59,-811.5"/>
<text text-anchor="start" x="67" y="-944.5" font-family="Helvetica,sans-Serif" font-size="10.00" fill="#000000">qtsdl::DeferredInitialConstant</text>
<text text-anchor="middle" x="140.5" y="-933.5" font-family="Helvetica,sans-Serif" font-size="10.00" fill="#000000">PropertyValues</text>
<polyline fill="none" stroke="#000000" points="59,-926.5 222,-926.5 "/>
<text text-anchor="start" x="67" y="-914.5" font-family="Helvetica,sans-Serif" font-size="10.00" fill="#000000"># init_over</text>
<text text-anchor="start" x="67" y="-903.5" font-family="Helvetica,sans-Serif" font-size="10.00" fill="#000000"># static_properties_assignments</text>
<polyline fill="none" stroke="#000000" points="59,-896.5 222,-896.5 "/>
<text text-anchor="start" x="67" y="-884.5" font-family="Helvetica,sans-Serif" font-size="10.00" fill="#000000">+ DeferredInitialConstantProperty</text>
<text text-anchor="start" x="67" y="-873.5" font-family="Helvetica,sans-Serif" font-size="10.00" fill="#000000">Values()</text>
<text text-anchor="start" x="67" y="-862.5" font-family="Helvetica,sans-Serif" font-size="10.00" fill="#000000">+ ~DeferredInitialConstant</text>
<text text-anchor="start" x="67" y="-851.5" font-family="Helvetica,sans-Serif" font-size="10.00" fill="#000000">PropertyValues()</text>
<text text-anchor="start" x="67" y="-840.5" font-family="Helvetica,sans-Serif" font-size="10.00" fill="#000000">+ apply_static_properties()</text>
<text text-anchor="start" x="67" y="-829.5" font-family="Helvetica,sans-Serif" font-size="10.00" fill="#000000">+ clear_static_properties()</text>
<text text-anchor="start" x="67" y="-818.5" font-family="Helvetica,sans-Serif" font-size="10.00" fill="#000000">+ is_init_over()</text>
</a>
</g>
</g>
<!-- Node4&#45;&gt;Node3 -->
<g id="edge4" class="edge">
<title>Node4&#45;&gt;Node3</title>
<path fill="none" stroke="#191970" d="M140.5,-800.9634C140.5,-788.5389 140.5,-775.8107 140.5,-763.6245"/>
<polygon fill="none" stroke="#191970" points="137.0001,-801.31 140.5,-811.31 144.0001,-801.31 137.0001,-801.31"/>
</g>
<!-- Node5 -->
<g id="node6" class="node">
<title>Node5</title>
<g id="a_node6"><a xlink:href="../../da/dff/classqtsdl_1_1_gui_item_link.xhtml" target="_top" xlink:title="Base for QObject wrapper of the domain&#45;specific classes. ">
<polygon fill="#ffffff" stroke="#000000" points="227.5,-662.5 227.5,-719.5 323.5,-719.5 323.5,-662.5 227.5,-662.5"/>
<text text-anchor="middle" x="275.5" y="-707.5" font-family="Helvetica,sans-Serif" font-size="10.00" fill="#000000">qtsdl::GuiItemLink</text>
<polyline fill="none" stroke="#000000" points="227.5,-700.5 323.5,-700.5 "/>
<text text-anchor="middle" x="275.5" y="-688.5" font-family="Helvetica,sans-Serif" font-size="10.00" fill="#000000"> </text>
<polyline fill="none" stroke="#000000" points="227.5,-681.5 323.5,-681.5 "/>
<text text-anchor="start" x="235.5" y="-669.5" font-family="Helvetica,sans-Serif" font-size="10.00" fill="#000000">+ ~GuiItemLink()</text>
</a>
</g>
</g>
<!-- Node5&#45;&gt;Node1 -->
<g id="edge5" class="edge">
<title>Node5&#45;&gt;Node1</title>
<path fill="none" stroke="#191970" d="M248.7864,-654.1495C228.9864,-626.8362 202.3892,-590.1463 184.1924,-565.0445"/>
<polygon fill="none" stroke="#191970" points="245.9931,-656.2596 254.6961,-662.3018 251.6606,-652.1511 245.9931,-656.2596"/>
</g>
<!-- Node6 -->
<g id="node7" class="node">
<title>Node6</title>
<polygon fill="#ffffff" stroke="#bfbfbf" points="273,-508 273,-565 372,-565 372,-508 273,-508"/>
<text text-anchor="middle" x="322.5" y="-553" font-family="Helvetica,sans-Serif" font-size="10.00" fill="#000000">QQmlParserStatus</text>
<polyline fill="none" stroke="#bfbfbf" points="273,-546 372,-546 "/>
<text text-anchor="middle" x="322.5" y="-534" font-family="Helvetica,sans-Serif" font-size="10.00" fill="#000000"> </text>
<polyline fill="none" stroke="#bfbfbf" points="273,-527 372,-527 "/>
<text text-anchor="middle" x="322.5" y="-515" font-family="Helvetica,sans-Serif" font-size="10.00" fill="#000000"> </text>
</g>
<!-- Node6&#45;&gt;Node0 -->
<g id="edge6" class="edge">
<title>Node6&#45;&gt;Node0</title>
<path fill="none" stroke="#191970" d="M322.5,-497.8599C322.5,-488.0588 322.5,-476.8013 322.5,-464.5766"/>
<polygon fill="none" stroke="#191970" points="319.0001,-497.9004 322.5,-507.9004 326.0001,-497.9005 319.0001,-497.9004"/>
</g>
<!-- Node7 -->
<g id="node8" class="node">
<title>Node7</title>
<g id="a_node8"><a xlink:href="../../dd/d7b/classqtsdl_1_1_gui_item.xhtml" target="_top" xlink:title="{qtsdl::GuiItem\&lt; GameControl\lLink \&gt;\n||+ GuiItem()\l}">
<polygon fill="#ffffff" stroke="#000000" points="407,-502.5 407,-570.5 552,-570.5 552,-502.5 407,-502.5"/>
<text text-anchor="start" x="415" y="-558.5" font-family="Helvetica,sans-Serif" font-size="10.00" fill="#000000">qtsdl::GuiItem&lt; GameControl</text>
<text text-anchor="middle" x="479.5" y="-547.5" font-family="Helvetica,sans-Serif" font-size="10.00" fill="#000000">Link &gt;</text>
<polyline fill="none" stroke="#000000" points="407,-540.5 552,-540.5 "/>
<text text-anchor="middle" x="479.5" y="-528.5" font-family="Helvetica,sans-Serif" font-size="10.00" fill="#000000"> </text>
<polyline fill="none" stroke="#000000" points="407,-521.5 552,-521.5 "/>
<text text-anchor="start" x="415" y="-509.5" font-family="Helvetica,sans-Serif" font-size="10.00" fill="#000000">+ GuiItem()</text>
</a>
</g>
</g>
<!-- Node7&#45;&gt;Node0 -->
<g id="edge7" class="edge">
<title>Node7&#45;&gt;Node0</title>
<path fill="none" stroke="#191970" d="M457.062,-493.0531C441.8218,-463.5434 420.6866,-422.6192 399.6777,-381.9396"/>
<polygon fill="none" stroke="#191970" points="454.0968,-494.9393 461.7953,-502.2183 460.3163,-491.7272 454.0968,-494.9393"/>
</g>
<!-- Node8 -->
<g id="node9" class="node">
<title>Node8</title>
<g id="a_node9"><a xlink:href="../../d9/db0/classqtsdl_1_1_gui_item_origin.xhtml" target="_top" xlink:title="{qtsdl::GuiItemOrigin\l\&lt; GameControlLink \&gt;\n|&#45; holder\l|}">
<polygon fill="#ffffff" stroke="#000000" points="341.5,-657 341.5,-725 451.5,-725 451.5,-657 341.5,-657"/>
<text text-anchor="start" x="349.5" y="-713" font-family="Helvetica,sans-Serif" font-size="10.00" fill="#000000">qtsdl::GuiItemOrigin</text>
<text text-anchor="middle" x="396.5" y="-702" font-family="Helvetica,sans-Serif" font-size="10.00" fill="#000000">&lt; GameControlLink &gt;</text>
<polyline fill="none" stroke="#000000" points="341.5,-695 451.5,-695 "/>
<text text-anchor="start" x="349.5" y="-683" font-family="Helvetica,sans-Serif" font-size="10.00" fill="#000000">&#45; holder</text>
<polyline fill="none" stroke="#000000" points="341.5,-676 451.5,-676 "/>
<text text-anchor="middle" x="396.5" y="-664" font-family="Helvetica,sans-Serif" font-size="10.00" fill="#000000"> </text>
</a>
</g>
</g>
<!-- Node8&#45;&gt;Node7 -->
<g id="edge8" class="edge">
<title>Node8&#45;&gt;Node7</title>
<path fill="none" stroke="#191970" d="M419.7713,-647.6818C432.851,-623.3346 448.9457,-593.3752 461.1311,-570.6927"/>
<polygon fill="none" stroke="#191970" points="416.5697,-646.2458 414.9204,-656.7114 422.7362,-649.5585 416.5697,-646.2458"/>
</g>
<!-- Node9 -->
<g id="node10" class="node">
<title>Node9</title>
<g id="a_node10"><a xlink:href="../../d9/db0/classqtsdl_1_1_gui_item_origin.xhtml" target="_top" xlink:title="{qtsdl::GuiItemOrigin\&lt; T \&gt;\n|&#45; holder\l|}">
<polygon fill="#ffffff" stroke="#000000" points="332.5,-855.5 332.5,-912.5 460.5,-912.5 460.5,-855.5 332.5,-855.5"/>
<text text-anchor="middle" x="396.5" y="-900.5" font-family="Helvetica,sans-Serif" font-size="10.00" fill="#000000">qtsdl::GuiItemOrigin&lt; T &gt;</text>
<polyline fill="none" stroke="#000000" points="332.5,-893.5 460.5,-893.5 "/>
<text text-anchor="start" x="340.5" y="-881.5" font-family="Helvetica,sans-Serif" font-size="10.00" fill="#000000">&#45; holder</text>
<polyline fill="none" stroke="#000000" points="332.5,-874.5 460.5,-874.5 "/>
<text text-anchor="middle" x="396.5" y="-862.5" font-family="Helvetica,sans-Serif" font-size="10.00" fill="#000000"> </text>
</a>
</g>
</g>
<!-- Node9&#45;&gt;Node8 -->
<g id="edge9" class="edge">
<title>Node9&#45;&gt;Node8</title>
<path fill="none" stroke="#ffa500" d="M396.5,-844.7648C396.5,-809.6887 396.5,-758.798 396.5,-725.3116"/>
<polygon fill="#ffa500" stroke="#ffa500" points="393.0001,-845.1059 396.5,-855.1059 400.0001,-845.106 393.0001,-845.1059"/>
<text text-anchor="middle" x="445" y="-785" font-family="Helvetica,sans-Serif" font-size="10.00" fill="#000000"> &lt; GameControlLink &gt;</text>
</g>
<!-- Node14 -->
<g id="node15" class="node">
<title>Node14</title>
<g id="a_node15"><a xlink:href="../../dd/d7b/classqtsdl_1_1_gui_item.xhtml" target="_top" xlink:title="Base for shell QObjects that need corresponding cores to be kept alive across GUI reloads...">
<polygon fill="#ffffff" stroke="#000000" points="469.5,-662.5 469.5,-719.5 571.5,-719.5 571.5,-662.5 469.5,-662.5"/>
<text text-anchor="middle" x="520.5" y="-707.5" font-family="Helvetica,sans-Serif" font-size="10.00" fill="#000000">qtsdl::GuiItem&lt; T &gt;</text>
<polyline fill="none" stroke="#000000" points="469.5,-700.5 571.5,-700.5 "/>
<text text-anchor="middle" x="520.5" y="-688.5" font-family="Helvetica,sans-Serif" font-size="10.00" fill="#000000"> </text>
<polyline fill="none" stroke="#000000" points="469.5,-681.5 571.5,-681.5 "/>
<text text-anchor="start" x="477.5" y="-669.5" font-family="Helvetica,sans-Serif" font-size="10.00" fill="#000000">+ GuiItem()</text>
</a>
</g>
</g>
<!-- Node9&#45;&gt;Node14 -->
<g id="edge16" class="edge">
<title>Node9&#45;&gt;Node14</title>
<path fill="none" stroke="#191970" d="M429.7689,-847.7028C441.7659,-835.4517 455.7478,-822.0838 469.5,-811 481.0186,-801.7164 489.0174,-805.1207 497.5,-793 512.5923,-771.4348 517.9666,-741.5757 519.7897,-719.7366"/>
<polygon fill="none" stroke="#191970" points="427.0016,-845.5301 422.5754,-855.1561 432.0384,-850.3913 427.0016,-845.5301"/>
</g>
<!-- Node10 -->
<g id="node11" class="node">
<title>Node10</title>
<g id="a_node11"><a xlink:href="../../df/df5/classqtsdl_1_1_gui_item_core_instantiator.xhtml" target="_top" xlink:title="{qtsdl::GuiItemCoreInstantiator\l\&lt; GameControlLink \&gt;\n|+ instantiate_core_func\l+ do_adopt_core_func\l|+ GuiItemCoreInstantiator()\l&#45; GuiItemCoreInstantiator()\l&#45; instantiate_core()\l&#45; do_adopt_core()\l&#45; operator=()\l}">
<polygon fill="#ffffff" stroke="#000000" points="589.5,-629.5 589.5,-752.5 737.5,-752.5 737.5,-629.5 589.5,-629.5"/>
<text text-anchor="start" x="597.5" y="-740.5" font-family="Helvetica,sans-Serif" font-size="10.00" fill="#000000">qtsdl::GuiItemCoreInstantiator</text>
<text text-anchor="middle" x="663.5" y="-729.5" font-family="Helvetica,sans-Serif" font-size="10.00" fill="#000000">&lt; GameControlLink &gt;</text>
<polyline fill="none" stroke="#000000" points="589.5,-722.5 737.5,-722.5 "/>
<text text-anchor="start" x="597.5" y="-710.5" font-family="Helvetica,sans-Serif" font-size="10.00" fill="#000000">+ instantiate_core_func</text>
<text text-anchor="start" x="597.5" y="-699.5" font-family="Helvetica,sans-Serif" font-size="10.00" fill="#000000">+ do_adopt_core_func</text>
<polyline fill="none" stroke="#000000" points="589.5,-692.5 737.5,-692.5 "/>
<text text-anchor="start" x="597.5" y="-680.5" font-family="Helvetica,sans-Serif" font-size="10.00" fill="#000000">+ GuiItemCoreInstantiator()</text>
<text text-anchor="start" x="597.5" y="-669.5" font-family="Helvetica,sans-Serif" font-size="10.00" fill="#000000">&#45; GuiItemCoreInstantiator()</text>
<text text-anchor="start" x="597.5" y="-658.5" font-family="Helvetica,sans-Serif" font-size="10.00" fill="#000000">&#45; instantiate_core()</text>
<text text-anchor="start" x="597.5" y="-647.5" font-family="Helvetica,sans-Serif" font-size="10.00" fill="#000000">&#45; do_adopt_core()</text>
<text text-anchor="start" x="597.5" y="-636.5" font-family="Helvetica,sans-Serif" font-size="10.00" fill="#000000">&#45; operator=()</text>
</a>
</g>
</g>
<!-- Node10&#45;&gt;Node7 -->
<g id="edge10" class="edge">
<title>Node10&#45;&gt;Node7</title>
<path fill="none" stroke="#191970" d="M625.875,-620.7874C617.5858,-609.2053 608.0767,-598.0461 597.5,-589 584.2089,-577.6323 568.0626,-568.318 552.0349,-560.8611"/>
<polygon fill="none" stroke="#191970" points="623.151,-623.0039 631.6931,-629.2715 628.924,-619.045 623.151,-623.0039"/>
</g>
<!-- Node11 -->
<g id="node12" class="node">
<title>Node11</title>
<g id="a_node12"><a xlink:href="../../d5/db2/classqtsdl_1_1_gui_item_methods.xhtml" target="_top" xlink:title="{qtsdl::GuiItemMethods\l\&lt; GameControlLink \&gt;\n||+ ~GuiItemMethods()\l+ get()\l+ get()\l+ i()\l# s()\l# sf()\l&#45; assign_while_catching\l_constant_properies_inits()\l}">
<polygon fill="#ffffff" stroke="#000000" points="668.5,-811.5 668.5,-956.5 802.5,-956.5 802.5,-811.5 668.5,-811.5"/>
<text text-anchor="start" x="676.5" y="-944.5" font-family="Helvetica,sans-Serif" font-size="10.00" fill="#000000">qtsdl::GuiItemMethods</text>
<text text-anchor="middle" x="735.5" y="-933.5" font-family="Helvetica,sans-Serif" font-size="10.00" fill="#000000">&lt; GameControlLink &gt;</text>
<polyline fill="none" stroke="#000000" points="668.5,-926.5 802.5,-926.5 "/>
<text text-anchor="middle" x="735.5" y="-914.5" font-family="Helvetica,sans-Serif" font-size="10.00" fill="#000000"> </text>
<polyline fill="none" stroke="#000000" points="668.5,-907.5 802.5,-907.5 "/>
<text text-anchor="start" x="676.5" y="-895.5" font-family="Helvetica,sans-Serif" font-size="10.00" fill="#000000">+ ~GuiItemMethods()</text>
<text text-anchor="start" x="676.5" y="-884.5" font-family="Helvetica,sans-Serif" font-size="10.00" fill="#000000">+ get()</text>
<text text-anchor="start" x="676.5" y="-873.5" font-family="Helvetica,sans-Serif" font-size="10.00" fill="#000000">+ get()</text>
<text text-anchor="start" x="676.5" y="-862.5" font-family="Helvetica,sans-Serif" font-size="10.00" fill="#000000">+ i()</text>
<text text-anchor="start" x="676.5" y="-851.5" font-family="Helvetica,sans-Serif" font-size="10.00" fill="#000000"># s()</text>
<text text-anchor="start" x="676.5" y="-840.5" font-family="Helvetica,sans-Serif" font-size="10.00" fill="#000000"># sf()</text>
<text text-anchor="start" x="676.5" y="-829.5" font-family="Helvetica,sans-Serif" font-size="10.00" fill="#000000">&#45; assign_while_catching</text>
<text text-anchor="start" x="676.5" y="-818.5" font-family="Helvetica,sans-Serif" font-size="10.00" fill="#000000">_constant_properies_inits()</text>
</a>
</g>
</g>
<!-- Node11&#45;&gt;Node10 -->
<g id="edge11" class="edge">
<title>Node11&#45;&gt;Node10</title>
<path fill="none" stroke="#191970" d="M711.4697,-801.6419C709.2172,-794.9612 706.8822,-788.3447 704.5,-782 700.9063,-772.4288 696.7914,-762.4358 692.5863,-752.7238"/>
<polygon fill="none" stroke="#191970" points="708.2494,-803.0522 714.7068,-811.4517 714.8968,-800.8586 708.2494,-803.0522"/>
</g>
<!-- Node12 -->
<g id="node13" class="node">
<title>Node12</title>
<g id="a_node13"><a xlink:href="../../d5/db2/classqtsdl_1_1_gui_item_methods.xhtml" target="_top" xlink:title="Member function of the GuiPersistentItem. ">
<polygon fill="#ffffff" stroke="#000000" points="579.5,-1004.5 579.5,-1138.5 719.5,-1138.5 719.5,-1004.5 579.5,-1004.5"/>
<text text-anchor="middle" x="649.5" y="-1126.5" font-family="Helvetica,sans-Serif" font-size="10.00" fill="#000000">qtsdl::GuiItemMethods&lt; T &gt;</text>
<polyline fill="none" stroke="#000000" points="579.5,-1119.5 719.5,-1119.5 "/>
<text text-anchor="middle" x="649.5" y="-1107.5" font-family="Helvetica,sans-Serif" font-size="10.00" fill="#000000"> </text>
<polyline fill="none" stroke="#000000" points="579.5,-1100.5 719.5,-1100.5 "/>
<text text-anchor="start" x="587.5" y="-1088.5" font-family="Helvetica,sans-Serif" font-size="10.00" fill="#000000">+ ~GuiItemMethods()</text>
<text text-anchor="start" x="587.5" y="-1077.5" font-family="Helvetica,sans-Serif" font-size="10.00" fill="#000000">+ get()</text>
<text text-anchor="start" x="587.5" y="-1066.5" font-family="Helvetica,sans-Serif" font-size="10.00" fill="#000000">+ get()</text>
<text text-anchor="start" x="587.5" y="-1055.5" font-family="Helvetica,sans-Serif" font-size="10.00" fill="#000000">+ i()</text>
<text text-anchor="start" x="587.5" y="-1044.5" font-family="Helvetica,sans-Serif" font-size="10.00" fill="#000000"># s()</text>
<text text-anchor="start" x="587.5" y="-1033.5" font-family="Helvetica,sans-Serif" font-size="10.00" fill="#000000"># sf()</text>
<text text-anchor="start" x="587.5" y="-1022.5" font-family="Helvetica,sans-Serif" font-size="10.00" fill="#000000">&#45; assign_while_catching</text>
<text text-anchor="start" x="587.5" y="-1011.5" font-family="Helvetica,sans-Serif" font-size="10.00" fill="#000000">_constant_properies_inits()</text>
</a>
</g>
</g>
<!-- Node12&#45;&gt;Node11 -->
<g id="edge12" class="edge">
<title>Node12&#45;&gt;Node11</title>
<path fill="none" stroke="#ffa500" d="M684.5051,-995.1808C690.3312,-982.4785 696.3602,-969.3338 702.1439,-956.7241"/>
<polygon fill="#ffa500" stroke="#ffa500" points="681.2928,-993.7891 680.3051,-1004.3378 687.6555,-996.7075 681.2928,-993.7891"/>
<text text-anchor="middle" x="741" y="-978" font-family="Helvetica,sans-Serif" font-size="10.00" fill="#000000"> &lt; GameControlLink &gt;</text>
</g>
<!-- Node13 -->
<g id="node14" class="node">
<title>Node13</title>
<g id="a_node14"><a xlink:href="../../df/df5/classqtsdl_1_1_gui_item_core_instantiator.xhtml" target="_top" xlink:title="{qtsdl::GuiItemCoreInstantiator\&lt; T \&gt;\n|+ instantiate_core_func\l+ do_adopt_core_func\l|+ GuiItemCoreInstantiator()\l&#45; instantiate_core()\l&#45; do_adopt_core()\l&#45; GuiItemCoreInstantiator()\l&#45; operator=()\l}">
<polygon fill="#ffffff" stroke="#000000" points="478.5,-828 478.5,-940 650.5,-940 650.5,-828 478.5,-828"/>
<text text-anchor="middle" x="564.5" y="-928" font-family="Helvetica,sans-Serif" font-size="10.00" fill="#000000">qtsdl::GuiItemCoreInstantiator&lt; T &gt;</text>
<polyline fill="none" stroke="#000000" points="478.5,-921 650.5,-921 "/>
<text text-anchor="start" x="486.5" y="-909" font-family="Helvetica,sans-Serif" font-size="10.00" fill="#000000">+ instantiate_core_func</text>
<text text-anchor="start" x="486.5" y="-898" font-family="Helvetica,sans-Serif" font-size="10.00" fill="#000000">+ do_adopt_core_func</text>
<polyline fill="none" stroke="#000000" points="478.5,-891 650.5,-891 "/>
<text text-anchor="start" x="486.5" y="-879" font-family="Helvetica,sans-Serif" font-size="10.00" fill="#000000">+ GuiItemCoreInstantiator()</text>
<text text-anchor="start" x="486.5" y="-868" font-family="Helvetica,sans-Serif" font-size="10.00" fill="#000000">&#45; instantiate_core()</text>
<text text-anchor="start" x="486.5" y="-857" font-family="Helvetica,sans-Serif" font-size="10.00" fill="#000000">&#45; do_adopt_core()</text>
<text text-anchor="start" x="486.5" y="-846" font-family="Helvetica,sans-Serif" font-size="10.00" fill="#000000">&#45; GuiItemCoreInstantiator()</text>
<text text-anchor="start" x="486.5" y="-835" font-family="Helvetica,sans-Serif" font-size="10.00" fill="#000000">&#45; operator=()</text>
</a>
</g>
</g>
<!-- Node12&#45;&gt;Node13 -->
<g id="edge14" class="edge">
<title>Node12&#45;&gt;Node13</title>
<path fill="none" stroke="#191970" d="M614.8734,-995.1178C606.5436,-976.7431 597.7956,-957.4461 589.9704,-940.1847"/>
<polygon fill="none" stroke="#191970" points="611.7365,-996.6751 619.0531,-1004.3378 618.1119,-993.7848 611.7365,-996.6751"/>
</g>
<!-- Node13&#45;&gt;Node10 -->
<g id="edge13" class="edge">
<title>Node13&#45;&gt;Node10</title>
<path fill="none" stroke="#ffa500" d="M587.0698,-818.6127C592.0184,-806.2401 597.5689,-793.5598 603.5,-782 608.5104,-772.2347 614.3303,-762.2232 620.3357,-752.5783"/>
<polygon fill="#ffa500" stroke="#ffa500" points="583.7852,-817.4023 583.4066,-827.9904 590.3053,-819.9493 583.7852,-817.4023"/>
<text text-anchor="middle" x="652" y="-785" font-family="Helvetica,sans-Serif" font-size="10.00" fill="#000000"> &lt; GameControlLink &gt;</text>
</g>
<!-- Node13&#45;&gt;Node14 -->
<g id="edge17" class="edge">
<title>Node13&#45;&gt;Node14</title>
<path fill="none" stroke="#191970" d="M549.4876,-818.1501C541.8302,-784.5622 532.9126,-745.4463 527.0119,-719.5634"/>
<polygon fill="none" stroke="#191970" points="546.079,-818.9453 551.7143,-827.9172 552.9039,-817.3893 546.079,-818.9453"/>
</g>
<!-- Node14&#45;&gt;Node7 -->
<g id="edge15" class="edge">
<title>Node14&#45;&gt;Node7</title>
<path fill="none" stroke="#ffa500" d="M510.2533,-652.3876C503.5941,-627.2937 494.9909,-594.8741 488.578,-570.7084"/>
<polygon fill="#ffa500" stroke="#ffa500" points="506.9364,-653.5341 512.8843,-662.3018 513.7022,-651.7386 506.9364,-653.5341"/>
<text text-anchor="middle" x="545" y="-592" font-family="Helvetica,sans-Serif" font-size="10.00" fill="#000000"> &lt; GameControlLink &gt;</text>
</g>
</g>
</svg>
        <g id="navigator" transform="translate(0 0)" fill="#404254">
                <rect fill="#f2f5e9" fill-opacity="0.5" stroke="#606060" stroke-width=".5" x="0" y="0" width="60" height="60"/>
                <use id="zoomplus" xlink:href="#zoomPlus" x="17" y="9" onmousedown="handleZoom(evt,'in')"/>
                <use id="zoomminus" xlink:href="#zoomMin" x="42" y="9" onmousedown="handleZoom(evt,'out')"/>
                <use id="reset" xlink:href="#resetDef" x="30" y="36" onmousedown="handleReset()"/>
                <g id="arrowUp" xlink:href="#dirArrow" transform="translate(30 24)" onmousedown="handlePan(0,-1)">
                  <use xlink:href="#rim" fill="#404040">
                        <set attributeName="fill" to="#808080" begin="arrowUp.mouseover" end="arrowUp.mouseout"/>
                  </use>
                  <path fill="none" stroke="white" stroke-width="1.5" d="M0,-3.0v7 M-2.5,-0.5L0,-3.0L2.5,-0.5"/>
                </g>
                <g id="arrowRight" xlink:href="#dirArrow" transform="rotate(90) translate(36 -43)" onmousedown="handlePan(1,0)">
                  <use xlink:href="#rim" fill="#404040">
                        <set attributeName="fill" to="#808080" begin="arrowRight.mouseover" end="arrowRight.mouseout"/>
                  </use>
                  <path fill="none" stroke="white" stroke-width="1.5" d="M0,-3.0v7 M-2.5,-0.5L0,-3.0L2.5,-0.5"/>
                </g>
                <g id="arrowDown" xlink:href="#dirArrow" transform="rotate(180) translate(-30 -48)" onmousedown="handlePan(0,1)">
                  <use xlink:href="#rim" fill="#404040">
                        <set attributeName="fill" to="#808080" begin="arrowDown.mouseover" end="arrowDown.mouseout"/>
                  </use>
                  <path fill="none" stroke="white" stroke-width="1.5" d="M0,-3.0v7 M-2.5,-0.5L0,-3.0L2.5,-0.5"/>
                </g>
                <g id="arrowLeft" xlink:href="#dirArrow" transform="rotate(270) translate(-36 17)" onmousedown="handlePan(-1,0)">
                  <use xlink:href="#rim" fill="#404040">
                        <set attributeName="fill" to="#808080" begin="arrowLeft.mouseover" end="arrowLeft.mouseout"/>
                  </use>
                  <path fill="none" stroke="white" stroke-width="1.5" d="M0,-3.0v7 M-2.5,-0.5L0,-3.0L2.5,-0.5"/>
                </g>
        </g>
        <svg viewBox="0 0 15 15" width="100%" height="30px" preserveAspectRatio="xMaxYMin meet">
         <g id="arrow_out" transform="scale(0.3 0.3)">
          <a xlink:href="classopenage_1_1gui_1_1_game_control_link__inherit__graph_org.svg" target="_base">
           <rect id="button" ry="5" rx="5" y="6" x="6" height="38" width="38"
                fill="#f2f5e9" fill-opacity="0.5" stroke="#606060" stroke-width="1.0"/>
           <path id="arrow"
             d="M 11.500037,31.436501 C 11.940474,20.09759 22.043105,11.32322 32.158766,21.979434 L 37.068811,17.246167 C 37.068811,17.246167 37.088388,32 37.088388,32 L 22.160133,31.978069 C 22.160133,31.978069 26.997745,27.140456 26.997745,27.140456 C 18.528582,18.264221 13.291696,25.230495 11.500037,31.436501 z"
             style="fill:#404040;"/>
          </a>
         </g>
        </svg>
</svg>
