<?xml version="1.0" encoding="UTF-8" standalone="no"?>
<!DOCTYPE svg PUBLIC "-//W3C//DTD SVG 1.1//EN"
 "http://www.w3.org/Graphics/SVG/1.1/DTD/svg11.dtd">
<!-- Generated by graphviz version 2.40.1 (20161225.0304)
 -->
<!-- Title: openage::py::list Pages: 1 -->
<svg width="409pt" height="28pt"
 viewBox="0.00 0.00 409.00 28.00" xmlns="http://www.w3.org/2000/svg" xmlns:xlink="http://www.w3.org/1999/xlink">
<g id="graph0" class="graph" transform="scale(1 1) rotate(0) translate(4 24)">
<title>openage::py::list</title>
<polygon fill="#ffffff" stroke="transparent" points="-4,4 -4,-24 405,-24 405,4 -4,4"/>
<!-- Node45 -->
<g id="node1" class="node">
<title>Node45</title>
<polygon fill="#bfbfbf" stroke="#000000" points="0,-.5 0,-19.5 89,-19.5 89,-.5 0,-.5"/>
<text text-anchor="middle" x="44.5" y="-7.5" font-family="Helvetica,sans-Serif" font-size="10.00" fill="#000000">openage::py::list</text>
</g>
<!-- Node46 -->
<g id="node2" class="node">
<title>Node46</title>
<g id="a_node2"><a xlink:href="../../d5/d0e/namespaceopenage_1_1testing_1_1testing.xhtml#ac25bf81db406af62d08113ef7ae9fd6e" target="_top" xlink:title="openage.testing.testing.result">
<polygon fill="#ffffff" stroke="#000000" points="125,-.5 125,-19.5 270,-19.5 270,-.5 125,-.5"/>
<text text-anchor="middle" x="197.5" y="-7.5" font-family="Helvetica,sans-Serif" font-size="10.00" fill="#000000">openage.testing.testing.result</text>
</a>
</g>
</g>
<!-- Node45&#45;&gt;Node46 -->
<g id="edge1" class="edge">
<title>Node45&#45;&gt;Node46</title>
<path fill="none" stroke="#191970" d="M89.1652,-10C97.2165,-10 105.8404,-10 114.5768,-10"/>
<polygon fill="#191970" stroke="#191970" points="114.8568,-13.5001 124.8568,-10 114.8567,-6.5001 114.8568,-13.5001"/>
</g>
<!-- Node47 -->
<g id="node3" class="node">
<title>Node47</title>
<g id="a_node3"><a xlink:href="../../de/d60/namespaceopenage_1_1util.xhtml#a7bc4421a5f0f57f3a0aba3f96eb8d19c" target="_top" xlink:title="method that behaves similar to python&#39;s &quot;repr&quot;. ">
<polygon fill="#ffffff" stroke="#000000" points="306,-.5 306,-19.5 401,-19.5 401,-.5 306,-.5"/>
<text text-anchor="middle" x="353.5" y="-7.5" font-family="Helvetica,sans-Serif" font-size="10.00" fill="#000000">openage::util::repr</text>
</a>
</g>
</g>
<!-- Node46&#45;&gt;Node47 -->
<g id="edge2" class="edge">
<title>Node46&#45;&gt;Node47</title>
<path fill="none" stroke="#191970" d="M270.0196,-3.2648C278.6179,-3.2182 287.3054,-3.2815 295.6614,-3.4545"/>
<polygon fill="#191970" stroke="#191970" points="295.5718,-6.9533 305.6613,-3.7201 295.7578,.0442 295.5718,-6.9533"/>
</g>
<!-- Node47&#45;&gt;Node46 -->
<g id="edge3" class="edge">
<title>Node47&#45;&gt;Node46</title>
<path fill="none" stroke="#191970" d="M305.6613,-16.2799C297.5562,-16.5451 288.9375,-16.6982 280.24,-16.7389"/>
<polygon fill="#191970" stroke="#191970" points="280.021,-13.2389 270.0196,-16.7352 280.0183,-20.2389 280.021,-13.2389"/>
</g>
</g>
</svg>
