<?xml version="1.0" encoding="UTF-8" standalone="no"?>
<!DOCTYPE svg PUBLIC "-//W3C//DTD SVG 1.1//EN"
 "http://www.w3.org/Graphics/SVG/1.1/DTD/svg11.dtd">
<!-- Generated by graphviz version 2.40.1 (20161225.0304)
 -->
<!-- Title: openage::py::str Pages: 1 -->
<svg width="407pt" height="28pt"
 viewBox="0.00 0.00 407.00 28.00" xmlns="http://www.w3.org/2000/svg" xmlns:xlink="http://www.w3.org/1999/xlink">
<g id="graph0" class="graph" transform="scale(1 1) rotate(0) translate(4 24)">
<title>openage::py::str</title>
<polygon fill="#ffffff" stroke="transparent" points="-4,4 -4,-24 403,-24 403,4 -4,4"/>
<!-- Node88 -->
<g id="node1" class="node">
<title>Node88</title>
<polygon fill="#bfbfbf" stroke="#000000" points="0,-.5 0,-19.5 87,-19.5 87,-.5 0,-.5"/>
<text text-anchor="middle" x="43.5" y="-7.5" font-family="Helvetica,sans-Serif" font-size="10.00" fill="#000000">openage::py::str</text>
</g>
<!-- Node89 -->
<g id="node2" class="node">
<title>Node89</title>
<g id="a_node2"><a xlink:href="../../d5/d0e/namespaceopenage_1_1testing_1_1testing.xhtml#ac25bf81db406af62d08113ef7ae9fd6e" target="_top" xlink:title="openage.testing.testing.result">
<polygon fill="#ffffff" stroke="#000000" points="123,-.5 123,-19.5 268,-19.5 268,-.5 123,-.5"/>
<text text-anchor="middle" x="195.5" y="-7.5" font-family="Helvetica,sans-Serif" font-size="10.00" fill="#000000">openage.testing.testing.result</text>
</a>
</g>
</g>
<!-- Node88&#45;&gt;Node89 -->
<g id="edge1" class="edge">
<title>Node88&#45;&gt;Node89</title>
<path fill="none" stroke="#191970" d="M87.0571,-10C95.2156,-10 103.9882,-10 112.8826,-10"/>
<polygon fill="#191970" stroke="#191970" points="112.9502,-13.5001 122.9501,-10 112.9501,-6.5001 112.9502,-13.5001"/>
</g>
<!-- Node90 -->
<g id="node3" class="node">
<title>Node90</title>
<g id="a_node3"><a xlink:href="../../de/d60/namespaceopenage_1_1util.xhtml#a7bc4421a5f0f57f3a0aba3f96eb8d19c" target="_top" xlink:title="method that behaves similar to python&#39;s &quot;repr&quot;. ">
<polygon fill="#ffffff" stroke="#000000" points="304,-.5 304,-19.5 399,-19.5 399,-.5 304,-.5"/>
<text text-anchor="middle" x="351.5" y="-7.5" font-family="Helvetica,sans-Serif" font-size="10.00" fill="#000000">openage::util::repr</text>
</a>
</g>
</g>
<!-- Node89&#45;&gt;Node90 -->
<g id="edge2" class="edge">
<title>Node89&#45;&gt;Node90</title>
<path fill="none" stroke="#191970" d="M268.0196,-3.2648C276.6179,-3.2182 285.3054,-3.2815 293.6614,-3.4545"/>
<polygon fill="#191970" stroke="#191970" points="293.5718,-6.9533 303.6613,-3.7201 293.7578,.0442 293.5718,-6.9533"/>
</g>
<!-- Node90&#45;&gt;Node89 -->
<g id="edge3" class="edge">
<title>Node90&#45;&gt;Node89</title>
<path fill="none" stroke="#191970" d="M303.6613,-16.2799C295.5562,-16.5451 286.9375,-16.6982 278.24,-16.7389"/>
<polygon fill="#191970" stroke="#191970" points="278.021,-13.2389 268.0196,-16.7352 278.0183,-20.2389 278.021,-13.2389"/>
</g>
</g>
</svg>
