<?xml version="1.0" encoding="UTF-8" standalone="no"?>
<!DOCTYPE svg PUBLIC "-//W3C//DTD SVG 1.1//EN"
 "http://www.w3.org/Graphics/SVG/1.1/DTD/svg11.dtd">
<!-- Generated by graphviz version 2.40.1 (20161225.0304)
 -->
<!-- Title: /mnt/c/Users/Jameson/Desktop/git/openage&#45;new&#45;doc&#45;system/libopenage/curve/queue_filter_iterator.cpp Pages: 1 -->
<!--zoomable 733 -->
<svg id="main" version="1.1" xmlns="http://www.w3.org/2000/svg" xmlns:xlink="http://www.w3.org/1999/xlink" xml:space="preserve" onload="init(evt)">
<style type="text/css"><![CDATA[
.edge:hover path { stroke: red; }
.edge:hover polygon { stroke: red; fill: red; }
]]></style>
<script type="text/javascript"><![CDATA[
var edges = document.getElementsByTagName('g');
if (edges && edges.length) {
  for (var i=0;i<edges.length;i++) {
    if (edges[i].id.substr(0,4)=='edge') {
      edges[i].setAttribute('class','edge');
    }
  }
}
]]></script>
        <defs>
                <circle id="rim" cx="0" cy="0" r="7"/>
                <circle id="rim2" cx="0" cy="0" r="3.5"/>
                <g id="zoomPlus">
                        <use xlink:href="#rim" fill="#404040">
                                <set attributeName="fill" to="#808080" begin="zoomplus.mouseover" end="zoomplus.mouseout"/>
                        </use>
                        <path d="M-4,0h8M0,-4v8" fill="none" stroke="white" stroke-width="1.5" pointer-events="none"/>
                </g>
                <g id="zoomMin">
                        <use xlink:href="#rim" fill="#404040">
                                <set attributeName="fill" to="#808080" begin="zoomminus.mouseover" end="zoomminus.mouseout"/>
                        </use>
                        <path d="M-4,0h8" fill="none" stroke="white" stroke-width="1.5" pointer-events="none"/>
                </g>
                <g id="dirArrow">
                        <path fill="none" stroke="white" stroke-width="1.5" d="M0,-3.0v7 M-2.5,-0.5L0,-3.0L2.5,-0.5"/>
                </g>
               <g id="resetDef">
                       <use xlink:href="#rim2" fill="#404040">
                               <set attributeName="fill" to="#808080" begin="reset.mouseover" end="reset.mouseout"/>
                       </use>
               </g>
        </defs>

<script type="text/javascript">
var viewWidth = 1048;
var viewHeight = 733;
var sectionId = 'dynsection-0';
</script>
<script xlink:href="../../svgpan.js"/>
<svg id="graph" class="graph">
<g id="viewport">
<title>/mnt/c/Users/Jameson/Desktop/git/openage&#45;new&#45;doc&#45;system/libopenage/curve/queue_filter_iterator.cpp</title>
<polygon fill="#ffffff" stroke="transparent" points="-4,4 -4,-729.4516 1044.2943,-729.4516 1044.2943,4 -4,4"/>
<!-- Node0 -->
<g id="node1" class="node">
<title>Node0</title>
<polygon fill="#bfbfbf" stroke="#000000" points="766.7943,-672.9516 766.7943,-724.9516 917.7943,-724.9516 917.7943,-672.9516 766.7943,-672.9516"/>
<text text-anchor="start" x="774.7943" y="-712.9516" font-family="Helvetica,sans-Serif" font-size="10.00" fill="#000000">/mnt/c/Users/Jameson</text>
<text text-anchor="start" x="774.7943" y="-701.9516" font-family="Helvetica,sans-Serif" font-size="10.00" fill="#000000">/Desktop/git/openage</text>
<text text-anchor="start" x="774.7943" y="-690.9516" font-family="Helvetica,sans-Serif" font-size="10.00" fill="#000000">&#45;new&#45;doc&#45;system/libopenage</text>
<text text-anchor="middle" x="842.2943" y="-679.9516" font-family="Helvetica,sans-Serif" font-size="10.00" fill="#000000">/curve/queue_filter_iterator.cpp</text>
</g>
<!-- Node1 -->
<g id="node2" class="node">
<title>Node1</title>
<g id="a_node2"><a xlink:href="../../d4/d59/queue__filter__iterator_8h.xhtml" target="_top" xlink:title="queue_filter_iterator.h">
<polygon fill="#ffffff" stroke="#000000" points="787.2943,-616.9516 787.2943,-635.9516 897.2943,-635.9516 897.2943,-616.9516 787.2943,-616.9516"/>
<text text-anchor="middle" x="842.2943" y="-623.9516" font-family="Helvetica,sans-Serif" font-size="10.00" fill="#000000">queue_filter_iterator.h</text>
</a>
</g>
</g>
<!-- Node0&#45;&gt;Node1 -->
<g id="edge1" class="edge">
<title>Node0&#45;&gt;Node1</title>
<path fill="none" stroke="#191970" d="M842.2943,-672.7775C842.2943,-663.9658 842.2943,-654.2913 842.2943,-646.0727"/>
<polygon fill="#191970" stroke="#191970" points="845.7944,-645.9856 842.2943,-635.9856 838.7944,-645.9857 845.7944,-645.9856"/>
</g>
<!-- Node2 -->
<g id="node3" class="node">
<title>Node2</title>
<g id="a_node3"><a xlink:href="../../df/de9/curve_8h.xhtml" target="_top" xlink:title="curve.h">
<polygon fill="#ffffff" stroke="#000000" points="733.7943,-504.9516 733.7943,-523.9516 782.7943,-523.9516 782.7943,-504.9516 733.7943,-504.9516"/>
<text text-anchor="middle" x="758.2943" y="-511.9516" font-family="Helvetica,sans-Serif" font-size="10.00" fill="#000000">curve.h</text>
</a>
</g>
</g>
<!-- Node1&#45;&gt;Node2 -->
<g id="edge2" class="edge">
<title>Node1&#45;&gt;Node2</title>
<path fill="none" stroke="#191970" d="M822.1728,-616.8969C807.6827,-609.0334 788.7426,-596.5689 777.2943,-580.4516 767.5962,-566.7983 762.8205,-548.2599 760.4852,-534.3065"/>
<polygon fill="#191970" stroke="#191970" points="763.9348,-533.7014 759.088,-524.2802 757.0017,-534.6675 763.9348,-533.7014"/>
</g>
<!-- Node9 -->
<g id="node10" class="node">
<title>Node9</title>
<polygon fill="#ffffff" stroke="#bfbfbf" points="1000.2943,-392.9516 1000.2943,-411.9516 1040.2943,-411.9516 1040.2943,-392.9516 1000.2943,-392.9516"/>
<text text-anchor="middle" x="1020.2943" y="-399.9516" font-family="Helvetica,sans-Serif" font-size="10.00" fill="#000000">limits</text>
</g>
<!-- Node1&#45;&gt;Node9 -->
<g id="edge65" class="edge">
<title>Node1&#45;&gt;Node9</title>
<path fill="none" stroke="#191970" d="M848.7738,-616.8938C857.6472,-603.9132 874.2027,-580.0776 889.2943,-560.4516 929.6239,-508.0051 980.3631,-448.5224 1005.1976,-419.7985"/>
<polygon fill="#191970" stroke="#191970" points="1007.8547,-422.0767 1011.7598,-412.2278 1002.5651,-417.4918 1007.8547,-422.0767"/>
</g>
<!-- Node41 -->
<g id="node42" class="node">
<title>Node41</title>
<g id="a_node42"><a xlink:href="../../df/d22/iterator_8h.xhtml" target="_top" xlink:title="iterator.h">
<polygon fill="#ffffff" stroke="#000000" points="786.7943,-560.9516 786.7943,-579.9516 841.7943,-579.9516 841.7943,-560.9516 786.7943,-560.9516"/>
<text text-anchor="middle" x="814.2943" y="-567.9516" font-family="Helvetica,sans-Serif" font-size="10.00" fill="#000000">iterator.h</text>
</a>
</g>
</g>
<!-- Node1&#45;&gt;Node41 -->
<g id="edge62" class="edge">
<title>Node1&#45;&gt;Node41</title>
<path fill="none" stroke="#191970" d="M837.4171,-616.6972C833.643,-609.149 828.3022,-598.4674 823.7042,-589.2714"/>
<polygon fill="#191970" stroke="#191970" points="826.7184,-587.4733 819.1157,-580.0943 820.4574,-590.6039 826.7184,-587.4733"/>
</g>
<!-- Node42 -->
<g id="node43" class="node">
<title>Node42</title>
<polygon fill="#ffffff" stroke="#bfbfbf" points="898.7943,-560.9516 898.7943,-579.9516 945.7943,-579.9516 945.7943,-560.9516 898.7943,-560.9516"/>
<text text-anchor="middle" x="922.2943" y="-567.9516" font-family="Helvetica,sans-Serif" font-size="10.00" fill="#000000">iterator</text>
</g>
<!-- Node1&#45;&gt;Node42 -->
<g id="edge64" class="edge">
<title>Node1&#45;&gt;Node42</title>
<path fill="none" stroke="#191970" d="M856.2293,-616.6972C868.389,-608.1854 886.2408,-595.6891 900.3228,-585.8317"/>
<polygon fill="#191970" stroke="#191970" points="902.3339,-588.6963 908.5191,-580.0943 898.3196,-582.9617 902.3339,-588.6963"/>
</g>
<!-- Node3 -->
<g id="node4" class="node">
<title>Node3</title>
<polygon fill="#ffffff" stroke="#bfbfbf" points="28.2943,-224.9516 28.2943,-243.9516 74.2943,-243.9516 74.2943,-224.9516 28.2943,-224.9516"/>
<text text-anchor="middle" x="51.2943" y="-231.9516" font-family="Helvetica,sans-Serif" font-size="10.00" fill="#000000">cstdint</text>
</g>
<!-- Node2&#45;&gt;Node3 -->
<g id="edge3" class="edge">
<title>Node2&#45;&gt;Node3</title>
<path fill="none" stroke="#191970" d="M733.5464,-513.2026C608.4124,-506.5661 51.2943,-473.0546 51.2943,-402.4516 51.2943,-402.4516 51.2943,-402.4516 51.2943,-346.4516 51.2943,-314.1632 51.2943,-276.6388 51.2943,-254.2564"/>
<polygon fill="#191970" stroke="#191970" points="54.7944,-254.04 51.2943,-244.04 47.7944,-254.04 54.7944,-254.04"/>
</g>
<!-- Node4 -->
<g id="node5" class="node">
<title>Node4</title>
<g id="a_node5"><a xlink:href="../../de/d62/fixed__point_8h.xhtml" target="_top" xlink:title="../util/fixed_point.h">
<polygon fill="#ffffff" stroke="#000000" points="709.7943,-448.9516 709.7943,-467.9516 806.7943,-467.9516 806.7943,-448.9516 709.7943,-448.9516"/>
<text text-anchor="middle" x="758.2943" y="-455.9516" font-family="Helvetica,sans-Serif" font-size="10.00" fill="#000000">../util/fixed_point.h</text>
</a>
</g>
</g>
<!-- Node2&#45;&gt;Node4 -->
<g id="edge4" class="edge">
<title>Node2&#45;&gt;Node4</title>
<path fill="none" stroke="#191970" d="M758.2943,-504.6972C758.2943,-497.3899 758.2943,-487.146 758.2943,-478.1562"/>
<polygon fill="#191970" stroke="#191970" points="761.7944,-478.0943 758.2943,-468.0943 754.7944,-478.0943 761.7944,-478.0943"/>
</g>
<!-- Node5 -->
<g id="node6" class="node">
<title>Node5</title>
<polygon fill="#ffffff" stroke="#bfbfbf" points="888.2943,-336.9516 888.2943,-355.9516 944.2943,-355.9516 944.2943,-336.9516 888.2943,-336.9516"/>
<text text-anchor="middle" x="916.2943" y="-343.9516" font-family="Helvetica,sans-Serif" font-size="10.00" fill="#000000">algorithm</text>
</g>
<!-- Node4&#45;&gt;Node5 -->
<g id="edge5" class="edge">
<title>Node4&#45;&gt;Node5</title>
<path fill="none" stroke="#191970" d="M762.7033,-448.6023C769.5173,-434.3949 783.8758,-408.1381 803.2943,-392.4516 825.2085,-374.7491 854.8526,-363.0246 878.2799,-355.8448"/>
<polygon fill="#191970" stroke="#191970" points="879.2774,-359.1997 887.8988,-353.0417 877.3189,-352.4793 879.2774,-359.1997"/>
</g>
<!-- Node6 -->
<g id="node7" class="node">
<title>Node6</title>
<polygon fill="#ffffff" stroke="#bfbfbf" points="608.7943,-392.9516 608.7943,-411.9516 653.7943,-411.9516 653.7943,-392.9516 608.7943,-392.9516"/>
<text text-anchor="middle" x="631.2943" y="-399.9516" font-family="Helvetica,sans-Serif" font-size="10.00" fill="#000000">climits</text>
</g>
<!-- Node4&#45;&gt;Node6 -->
<g id="edge6" class="edge">
<title>Node4&#45;&gt;Node6</title>
<path fill="none" stroke="#191970" d="M736.4623,-448.8249C715.984,-439.7951 685.1545,-426.201 662.1624,-416.0627"/>
<polygon fill="#191970" stroke="#191970" points="663.4036,-412.785 652.8415,-411.9528 660.5793,-419.1899 663.4036,-412.785"/>
</g>
<!-- Node7 -->
<g id="node8" class="node">
<title>Node7</title>
<polygon fill="#ffffff" stroke="#bfbfbf" points="79.2943,-336.9516 79.2943,-355.9516 123.2943,-355.9516 123.2943,-336.9516 79.2943,-336.9516"/>
<text text-anchor="middle" x="101.2943" y="-343.9516" font-family="Helvetica,sans-Serif" font-size="10.00" fill="#000000">cmath</text>
</g>
<!-- Node4&#45;&gt;Node7 -->
<g id="edge7" class="edge">
<title>Node4&#45;&gt;Node7</title>
<path fill="none" stroke="#191970" d="M709.642,-452.2851C604.5079,-438.5611 348.556,-403.0005 137.2943,-356.4516 136.0472,-356.1768 134.779,-355.8852 133.5002,-355.5808"/>
<polygon fill="#191970" stroke="#191970" points="134.224,-352.1534 123.6689,-353.0702 132.4919,-358.9357 134.224,-352.1534"/>
</g>
<!-- Node8 -->
<g id="node9" class="node">
<title>Node8</title>
<polygon fill="#ffffff" stroke="#bfbfbf" points="809.2943,-112.9516 809.2943,-131.9516 859.2943,-131.9516 859.2943,-112.9516 809.2943,-112.9516"/>
<text text-anchor="middle" x="834.2943" y="-119.9516" font-family="Helvetica,sans-Serif" font-size="10.00" fill="#000000">iomanip</text>
</g>
<!-- Node4&#45;&gt;Node8 -->
<g id="edge8" class="edge">
<title>Node4&#45;&gt;Node8</title>
<path fill="none" stroke="#191970" d="M807.189,-449.2775C855.0843,-437.2883 924.8877,-411.011 953.2943,-356.4516 995.7081,-274.9894 897.6144,-176.7837 853.9363,-138.6697"/>
<polygon fill="#191970" stroke="#191970" points="856.0956,-135.9109 846.2215,-132.0698 851.5451,-141.2301 856.0956,-135.9109"/>
</g>
<!-- Node4&#45;&gt;Node9 -->
<g id="edge9" class="edge">
<title>Node4&#45;&gt;Node9</title>
<path fill="none" stroke="#191970" d="M807.0474,-449.8856C853.3987,-441.4425 924.9483,-427.631 986.2943,-412.4516 987.571,-412.1357 988.8715,-411.8029 990.183,-411.4581"/>
<polygon fill="#191970" stroke="#191970" points="991.5389,-414.714 1000.2372,-408.665 989.6653,-407.9694 991.5389,-414.714"/>
</g>
<!-- Node10 -->
<g id="node11" class="node">
<title>Node10</title>
<polygon fill="#ffffff" stroke="#bfbfbf" points="812.2943,-392.9516 812.2943,-411.9516 864.2943,-411.9516 864.2943,-392.9516 812.2943,-392.9516"/>
<text text-anchor="middle" x="838.2943" y="-399.9516" font-family="Helvetica,sans-Serif" font-size="10.00" fill="#000000">ostream</text>
</g>
<!-- Node4&#45;&gt;Node10 -->
<g id="edge10" class="edge">
<title>Node4&#45;&gt;Node10</title>
<path fill="none" stroke="#191970" d="M772.2293,-448.6972C784.389,-440.1854 802.2408,-427.6891 816.3228,-417.8317"/>
<polygon fill="#191970" stroke="#191970" points="818.3339,-420.6963 824.5191,-412.0943 814.3196,-414.9617 818.3339,-420.6963"/>
</g>
<!-- Node11 -->
<g id="node12" class="node">
<title>Node11</title>
<polygon fill="#ffffff" stroke="#bfbfbf" points="656.2943,-168.9516 656.2943,-187.9516 718.2943,-187.9516 718.2943,-168.9516 656.2943,-168.9516"/>
<text text-anchor="middle" x="687.2943" y="-175.9516" font-family="Helvetica,sans-Serif" font-size="10.00" fill="#000000">type_traits</text>
</g>
<!-- Node4&#45;&gt;Node11 -->
<g id="edge11" class="edge">
<title>Node4&#45;&gt;Node11</title>
<path fill="none" stroke="#191970" d="M739.6496,-448.9247C726.4328,-441.0754 709.6233,-428.6164 701.2943,-412.4516 691.6126,-393.6613 688.4247,-251.2553 687.567,-198.2487"/>
<polygon fill="#191970" stroke="#191970" points="691.0646,-198.0548 687.4142,-188.1087 684.0654,-198.1604 691.0646,-198.0548"/>
</g>
<!-- Node12 -->
<g id="node13" class="node">
<title>Node12</title>
<g id="a_node13"><a xlink:href="../../d4/d08/misc_8h.xhtml" target="_top" xlink:title="misc.h">
<polygon fill="#ffffff" stroke="#000000" points="710.2943,-392.9516 710.2943,-411.9516 756.2943,-411.9516 756.2943,-392.9516 710.2943,-392.9516"/>
<text text-anchor="middle" x="733.2943" y="-399.9516" font-family="Helvetica,sans-Serif" font-size="10.00" fill="#000000">misc.h</text>
</a>
</g>
</g>
<!-- Node4&#45;&gt;Node12 -->
<g id="edge12" class="edge">
<title>Node4&#45;&gt;Node12</title>
<path fill="none" stroke="#191970" d="M753.9397,-448.6972C750.5699,-441.149 745.8014,-430.4674 741.696,-421.2714"/>
<polygon fill="#191970" stroke="#191970" points="744.8716,-419.7989 737.5991,-412.0943 738.4797,-422.6525 744.8716,-419.7989"/>
</g>
<!-- Node12&#45;&gt;Node5 -->
<g id="edge13" class="edge">
<title>Node12&#45;&gt;Node5</title>
<path fill="none" stroke="#191970" d="M756.4714,-395.3592C787.1527,-385.9704 841.6456,-369.295 878.3672,-358.0578"/>
<polygon fill="#191970" stroke="#191970" points="879.6806,-361.3161 888.2187,-355.0431 877.6322,-354.6225 879.6806,-361.3161"/>
</g>
<!-- Node12&#45;&gt;Node7 -->
<g id="edge15" class="edge">
<title>Node12&#45;&gt;Node7</title>
<path fill="none" stroke="#191970" d="M710.0021,-398.7433C696.1689,-396.6479 678.2652,-394.1218 662.2943,-392.4516 429.6815,-368.1266 367.8158,-395.9523 137.2943,-356.4516 136.0356,-356.2359 134.7576,-355.9943 133.4707,-355.7319"/>
<polygon fill="#191970" stroke="#191970" points="134.1404,-352.2939 123.6037,-353.403 132.5322,-359.1067 134.1404,-352.2939"/>
</g>
<!-- Node13 -->
<g id="node14" class="node">
<title>Node13</title>
<polygon fill="#ffffff" stroke="#bfbfbf" points="500.2943,-336.9516 500.2943,-355.9516 548.2943,-355.9516 548.2943,-336.9516 500.2943,-336.9516"/>
<text text-anchor="middle" x="524.2943" y="-343.9516" font-family="Helvetica,sans-Serif" font-size="10.00" fill="#000000">limits.h</text>
</g>
<!-- Node12&#45;&gt;Node13 -->
<g id="edge14" class="edge">
<title>Node12&#45;&gt;Node13</title>
<path fill="none" stroke="#191970" d="M710.1544,-396.7065C678.1442,-388.6941 618.3338,-373.4896 558.0829,-356.6017"/>
<polygon fill="#191970" stroke="#191970" points="558.9878,-353.2204 548.4134,-353.8777 557.0896,-359.9582 558.9878,-353.2204"/>
</g>
<!-- Node14 -->
<g id="node15" class="node">
<title>Node14</title>
<polygon fill="#ffffff" stroke="#bfbfbf" points="748.2943,-336.9516 748.2943,-355.9516 794.2943,-355.9516 794.2943,-336.9516 748.2943,-336.9516"/>
<text text-anchor="middle" x="771.2943" y="-343.9516" font-family="Helvetica,sans-Serif" font-size="10.00" fill="#000000">cstring</text>
</g>
<!-- Node12&#45;&gt;Node14 -->
<g id="edge16" class="edge">
<title>Node12&#45;&gt;Node14</title>
<path fill="none" stroke="#191970" d="M739.9134,-392.6972C745.1989,-384.9081 752.7485,-373.7824 759.1181,-364.3956"/>
<polygon fill="#191970" stroke="#191970" points="762.0322,-366.3344 764.7511,-356.0943 756.2399,-362.4038 762.0322,-366.3344"/>
</g>
<!-- Node15 -->
<g id="node16" class="node">
<title>Node15</title>
<polygon fill="#ffffff" stroke="#bfbfbf" points="110.7943,-.9516 110.7943,-19.9516 151.7943,-19.9516 151.7943,-.9516 110.7943,-.9516"/>
<text text-anchor="middle" x="131.2943" y="-7.9516" font-family="Helvetica,sans-Serif" font-size="10.00" fill="#000000">string</text>
</g>
<!-- Node12&#45;&gt;Node15 -->
<g id="edge17" class="edge">
<title>Node12&#45;&gt;Node15</title>
<path fill="none" stroke="#191970" d="M710.2853,-399.1684C615.9365,-385.5924 258.5282,-333.0282 149.2943,-300.4516 89.0077,-282.4725 60.8793,-291.6578 19.2943,-244.4516 -.883,-221.5469 .2943,-208.9763 .2943,-178.4516 .2943,-178.4516 .2943,-178.4516 .2943,-122.4516 .2943,-69.8512 62.0653,-36.6787 100.7731,-21.0552"/>
<polygon fill="#191970" stroke="#191970" points="102.4685,-24.1525 110.537,-17.2859 99.9475,-17.6223 102.4685,-24.1525"/>
</g>
<!-- Node16 -->
<g id="node17" class="node">
<title>Node16</title>
<polygon fill="#ffffff" stroke="#bfbfbf" points="698.2943,-112.9516 698.2943,-131.9516 742.2943,-131.9516 742.2943,-112.9516 698.2943,-112.9516"/>
<text text-anchor="middle" x="720.2943" y="-119.9516" font-family="Helvetica,sans-Serif" font-size="10.00" fill="#000000">vector</text>
</g>
<!-- Node12&#45;&gt;Node16 -->
<g id="edge18" class="edge">
<title>Node12&#45;&gt;Node16</title>
<path fill="none" stroke="#191970" d="M755.6189,-392.9379C771.1339,-385.2385 791.1341,-372.9607 803.2943,-356.4516 821.3974,-331.8745 822.2943,-320.9763 822.2943,-290.4516 822.2943,-290.4516 822.2943,-290.4516 822.2943,-234.4516 822.2943,-203.2391 818.2431,-192.4572 798.2943,-168.4516 786.0627,-153.7325 767.8263,-142.6103 752.0618,-134.9925"/>
<polygon fill="#191970" stroke="#191970" points="753.1927,-131.6617 742.6414,-130.7014 750.2909,-138.0319 753.1927,-131.6617"/>
</g>
<!-- Node17 -->
<g id="node18" class="node">
<title>Node17</title>
<polygon fill="#ffffff" stroke="#bfbfbf" points="628.2943,-112.9516 628.2943,-131.9516 680.2943,-131.9516 680.2943,-112.9516 628.2943,-112.9516"/>
<text text-anchor="middle" x="654.2943" y="-119.9516" font-family="Helvetica,sans-Serif" font-size="10.00" fill="#000000">memory</text>
</g>
<!-- Node12&#45;&gt;Node17 -->
<g id="edge19" class="edge">
<title>Node12&#45;&gt;Node17</title>
<path fill="none" stroke="#191970" d="M734.0016,-392.8528C737.1182,-350.0391 749.215,-178.1765 743.2943,-168.4516 736.9629,-158.0521 710.9391,-145.2698 688.6549,-135.821"/>
<polygon fill="#191970" stroke="#191970" points="689.9803,-132.5816 679.4018,-131.9923 687.3039,-139.0498 689.9803,-132.5816"/>
</g>
<!-- Node18 -->
<g id="node19" class="node">
<title>Node18</title>
<g id="a_node19"><a xlink:href="../../d7/dce/error_2error_8h.xhtml" target="_top" xlink:title="../error/error.h">
<polygon fill="#ffffff" stroke="#000000" points="566.2943,-336.9516 566.2943,-355.9516 642.2943,-355.9516 642.2943,-336.9516 566.2943,-336.9516"/>
<text text-anchor="middle" x="604.2943" y="-343.9516" font-family="Helvetica,sans-Serif" font-size="10.00" fill="#000000">../error/error.h</text>
</a>
</g>
</g>
<!-- Node12&#45;&gt;Node18 -->
<g id="edge20" class="edge">
<title>Node12&#45;&gt;Node18</title>
<path fill="none" stroke="#191970" d="M711.1184,-392.8249C690.3177,-383.7951 659.0027,-370.201 635.6485,-360.0627"/>
<polygon fill="#191970" stroke="#191970" points="636.7476,-356.7243 626.1808,-355.9528 633.9601,-363.1454 636.7476,-356.7243"/>
</g>
<!-- Node21 -->
<g id="node22" class="node">
<title>Node21</title>
<g id="a_node22"><a xlink:href="../../d4/dd1/compiler_8h.xhtml" target="_top" xlink:title="../util/compiler.h">
<polygon fill="#ffffff" stroke="#000000" points="727.2943,-56.9516 727.2943,-75.9516 813.2943,-75.9516 813.2943,-56.9516 727.2943,-56.9516"/>
<text text-anchor="middle" x="770.2943" y="-63.9516" font-family="Helvetica,sans-Serif" font-size="10.00" fill="#000000">../util/compiler.h</text>
</a>
</g>
</g>
<!-- Node12&#45;&gt;Node21 -->
<g id="edge61" class="edge">
<title>Node12&#45;&gt;Node21</title>
<path fill="none" stroke="#191970" d="M756.5324,-396.5659C777.2829,-390.1195 806.9934,-377.7485 824.2943,-356.4516 889.2802,-276.4563 870.846,-234.6356 884.2943,-132.4516 885.4542,-123.6387 889.2666,-119.8197 884.2943,-112.4516 870.5671,-92.11 846.1726,-80.7614 823.4628,-74.431"/>
<polygon fill="#191970" stroke="#191970" points="824.0828,-70.9781 813.5315,-71.9375 822.3781,-77.7674 824.0828,-70.9781"/>
</g>
<!-- Node18&#45;&gt;Node15 -->
<g id="edge24" class="edge">
<title>Node18&#45;&gt;Node15</title>
<path fill="none" stroke="#191970" d="M566.1423,-337.9508C563.1559,-337.4027 560.1804,-336.8942 557.2943,-336.4516 473.6706,-323.6274 252.0884,-341.8258 178.2943,-300.4516 84.6595,-247.9533 113.219,-85.7605 126.3399,-29.7271"/>
<polygon fill="#191970" stroke="#191970" points="129.743,-30.5449 128.7174,-19.9998 122.9431,-28.8828 129.743,-30.5449"/>
</g>
<!-- Node18&#45;&gt;Node17 -->
<g id="edge22" class="edge">
<title>Node18&#45;&gt;Node17</title>
<path fill="none" stroke="#191970" d="M602.9788,-336.7435C601.6326,-323.1675 600.9927,-298.1871 611.2943,-280.4516 625.0479,-256.7732 639.7263,-261.3231 661.2943,-244.4516 691.5946,-220.7495 711.1321,-223.3613 727.2943,-188.4516 737.687,-166.0041 712.9755,-147.837 689.5422,-136.2886"/>
<polygon fill="#191970" stroke="#191970" points="690.9087,-133.0645 680.3631,-132.045 687.9713,-139.4183 690.9087,-133.0645"/>
</g>
<!-- Node19 -->
<g id="node20" class="node">
<title>Node19</title>
<polygon fill="#ffffff" stroke="#bfbfbf" points="189.2943,-56.9516 189.2943,-75.9516 243.2943,-75.9516 243.2943,-56.9516 189.2943,-56.9516"/>
<text text-anchor="middle" x="216.2943" y="-63.9516" font-family="Helvetica,sans-Serif" font-size="10.00" fill="#000000">iostream</text>
</g>
<!-- Node18&#45;&gt;Node19 -->
<g id="edge21" class="edge">
<title>Node18&#45;&gt;Node19</title>
<path fill="none" stroke="#191970" d="M566.1248,-338.0592C563.1423,-337.4864 560.1726,-336.9427 557.2943,-336.4516 463.2546,-320.4076 140.2943,-329.8502 140.2943,-234.4516 140.2943,-234.4516 140.2943,-234.4516 140.2943,-178.4516 140.2943,-147.927 142.4121,-137.8828 159.2943,-112.4516 167.3966,-100.2465 179.7498,-89.7108 190.8871,-81.8137"/>
<polygon fill="#191970" stroke="#191970" points="193.1008,-84.5432 199.4539,-76.0645 189.2001,-78.7307 193.1008,-84.5432"/>
</g>
<!-- Node20 -->
<g id="node21" class="node">
<title>Node20</title>
<polygon fill="#ffffff" stroke="#bfbfbf" points="620.7943,-280.9516 620.7943,-299.9516 679.7943,-299.9516 679.7943,-280.9516 620.7943,-280.9516"/>
<text text-anchor="middle" x="650.2943" y="-287.9516" font-family="Helvetica,sans-Serif" font-size="10.00" fill="#000000">stdexcept</text>
</g>
<!-- Node18&#45;&gt;Node20 -->
<g id="edge23" class="edge">
<title>Node18&#45;&gt;Node20</title>
<path fill="none" stroke="#191970" d="M612.3069,-336.6972C618.7711,-328.8278 628.0328,-317.5526 635.7927,-308.1058"/>
<polygon fill="#191970" stroke="#191970" points="638.7307,-310.0432 642.3736,-300.0943 633.3216,-305.6 638.7307,-310.0432"/>
</g>
<!-- Node18&#45;&gt;Node21 -->
<g id="edge25" class="edge">
<title>Node18&#45;&gt;Node21</title>
<path fill="none" stroke="#191970" d="M627.4177,-336.857C682.5263,-312.4983 820.56,-242.2987 868.2943,-132.4516 879.4954,-106.6755 850.6356,-89.5852 821.3877,-79.2666"/>
<polygon fill="#191970" stroke="#191970" points="822.1042,-75.8181 811.5113,-76.0241 819.9206,-82.4688 822.1042,-75.8181"/>
</g>
<!-- Node24 -->
<g id="node25" class="node">
<title>Node24</title>
<g id="a_node25"><a xlink:href="../../d2/d0d/message_8h.xhtml" target="_top" xlink:title="../log/message.h">
<polygon fill="#ffffff" stroke="#000000" points="287.7943,-280.9516 287.7943,-299.9516 376.7943,-299.9516 376.7943,-280.9516 287.7943,-280.9516"/>
<text text-anchor="middle" x="332.2943" y="-287.9516" font-family="Helvetica,sans-Serif" font-size="10.00" fill="#000000">../log/message.h</text>
</a>
</g>
</g>
<!-- Node18&#45;&gt;Node24 -->
<g id="edge30" class="edge">
<title>Node18&#45;&gt;Node24</title>
<path fill="none" stroke="#191970" d="M566.0802,-338.2943C563.1079,-337.668 560.1526,-337.0479 557.2943,-336.4516 499.2367,-324.3407 432.6829,-310.7733 387.108,-301.5309"/>
<polygon fill="#191970" stroke="#191970" points="387.6363,-298.0669 377.1403,-299.5106 386.2457,-304.9274 387.6363,-298.0669"/>
</g>
<!-- Node21&#45;&gt;Node15 -->
<g id="edge27" class="edge">
<title>Node21&#45;&gt;Node15</title>
<path fill="none" stroke="#191970" d="M726.8756,-62.6466C605.7398,-52.0306 266.1507,-22.27 162.0333,-13.1455"/>
<polygon fill="#191970" stroke="#191970" points="162.1517,-9.6425 151.8842,-12.2561 161.5405,-16.6158 162.1517,-9.6425"/>
</g>
<!-- Node22 -->
<g id="node23" class="node">
<title>Node22</title>
<polygon fill="#ffffff" stroke="#bfbfbf" points="711.2943,-.9516 711.2943,-19.9516 761.2943,-19.9516 761.2943,-.9516 711.2943,-.9516"/>
<text text-anchor="middle" x="736.2943" y="-7.9516" font-family="Helvetica,sans-Serif" font-size="10.00" fill="#000000">ciso646</text>
</g>
<!-- Node21&#45;&gt;Node22 -->
<g id="edge26" class="edge">
<title>Node21&#45;&gt;Node22</title>
<path fill="none" stroke="#191970" d="M764.372,-56.6972C759.6916,-48.9884 753.0271,-38.0114 747.3655,-28.6864"/>
<polygon fill="#191970" stroke="#191970" points="750.3304,-26.8258 742.1488,-20.0943 744.3469,-30.4586 750.3304,-26.8258"/>
</g>
<!-- Node23 -->
<g id="node24" class="node">
<title>Node23</title>
<g id="a_node24"><a xlink:href="../../d8/d39/signal_8h.xhtml" target="_top" xlink:title="signal.h">
<polygon fill="#ffffff" stroke="#000000" points="779.2943,-.9516 779.2943,-19.9516 829.2943,-19.9516 829.2943,-.9516 779.2943,-.9516"/>
<text text-anchor="middle" x="804.2943" y="-7.9516" font-family="Helvetica,sans-Serif" font-size="10.00" fill="#000000">signal.h</text>
</a>
</g>
</g>
<!-- Node21&#45;&gt;Node23 -->
<g id="edge28" class="edge">
<title>Node21&#45;&gt;Node23</title>
<path fill="none" stroke="#191970" d="M776.2167,-56.6972C780.897,-48.9884 787.5616,-38.0114 793.2232,-28.6864"/>
<polygon fill="#191970" stroke="#191970" points="796.2418,-30.4586 798.4399,-20.0943 790.2583,-26.8258 796.2418,-30.4586"/>
</g>
<!-- Node23&#45;&gt;Node23 -->
<g id="edge29" class="edge">
<title>Node23&#45;&gt;Node23</title>
<path fill="none" stroke="#191970" d="M822.8577,-20.0262C835.2408,-22.7213 847.2943,-19.5298 847.2943,-10.4516 847.2943,-3.9267 841.0675,-.4429 832.9669,0"/>
<polygon fill="#191970" stroke="#191970" points="832.5178,3.4743 822.8577,-.877 833.1229,-3.4995 832.5178,3.4743"/>
</g>
<!-- Node24&#45;&gt;Node3 -->
<g id="edge31" class="edge">
<title>Node24&#45;&gt;Node3</title>
<path fill="none" stroke="#191970" d="M287.769,-281.5783C231.2782,-270.3203 135.136,-251.1603 84.597,-241.0885"/>
<polygon fill="#191970" stroke="#191970" points="85.0266,-237.6053 74.5354,-239.0833 83.6584,-244.4703 85.0266,-237.6053"/>
</g>
<!-- Node24&#45;&gt;Node15 -->
<g id="edge32" class="edge">
<title>Node24&#45;&gt;Node15</title>
<path fill="none" stroke="#191970" d="M287.5129,-282.7756C259.4293,-276.2312 223.6778,-264.5709 197.2943,-244.4516 129.3875,-192.6677 127.5925,-76.5815 129.8257,-30.1734"/>
<polygon fill="#191970" stroke="#191970" points="133.3194,-30.3821 130.4254,-20.1902 126.332,-29.9623 133.3194,-30.3821"/>
</g>
<!-- Node25 -->
<g id="node26" class="node">
<title>Node25</title>
<polygon fill="#ffffff" stroke="#bfbfbf" points="206.7943,-224.9516 206.7943,-243.9516 257.7943,-243.9516 257.7943,-224.9516 206.7943,-224.9516"/>
<text text-anchor="middle" x="232.2943" y="-231.9516" font-family="Helvetica,sans-Serif" font-size="10.00" fill="#000000">config.h</text>
</g>
<!-- Node24&#45;&gt;Node25 -->
<g id="edge33" class="edge">
<title>Node24&#45;&gt;Node25</title>
<path fill="none" stroke="#191970" d="M314.8757,-280.6972C299.2458,-271.9445 276.0925,-258.9786 258.2758,-249.0013"/>
<polygon fill="#191970" stroke="#191970" points="259.9486,-245.9266 249.5134,-244.0943 256.5283,-252.0342 259.9486,-245.9266"/>
</g>
<!-- Node26 -->
<g id="node27" class="node">
<title>Node26</title>
<g id="a_node27"><a xlink:href="../../d1/d06/constexpr_8h.xhtml" target="_top" xlink:title="../util/constexpr.h">
<polygon fill="#ffffff" stroke="#000000" points="560.2943,-224.9516 560.2943,-243.9516 652.2943,-243.9516 652.2943,-224.9516 560.2943,-224.9516"/>
<text text-anchor="middle" x="606.2943" y="-231.9516" font-family="Helvetica,sans-Serif" font-size="10.00" fill="#000000">../util/constexpr.h</text>
</a>
</g>
</g>
<!-- Node24&#45;&gt;Node26 -->
<g id="edge34" class="edge">
<title>Node24&#45;&gt;Node26</title>
<path fill="none" stroke="#191970" d="M376.927,-281.3296C424.1258,-271.6832 498.7032,-256.4411 549.9291,-245.9715"/>
<polygon fill="#191970" stroke="#191970" points="550.7513,-249.3759 559.8479,-243.9443 549.3496,-242.5177 550.7513,-249.3759"/>
</g>
<!-- Node28 -->
<g id="node29" class="node">
<title>Node28</title>
<g id="a_node29"><a xlink:href="../../de/d65/stringformatter_8h.xhtml" target="_top" xlink:title="../util/stringformatter.h">
<polygon fill="#ffffff" stroke="#000000" points="418.7943,-224.9516 418.7943,-243.9516 531.7943,-243.9516 531.7943,-224.9516 418.7943,-224.9516"/>
<text text-anchor="middle" x="475.2943" y="-231.9516" font-family="Helvetica,sans-Serif" font-size="10.00" fill="#000000">../util/stringformatter.h</text>
</a>
</g>
</g>
<!-- Node24&#45;&gt;Node28 -->
<g id="edge36" class="edge">
<title>Node24&#45;&gt;Node28</title>
<path fill="none" stroke="#191970" d="M356.8769,-280.8249C380.2439,-271.6742 415.5806,-257.836 441.5728,-247.6573"/>
<polygon fill="#191970" stroke="#191970" points="442.9973,-250.8583 451.0325,-243.9528 440.4448,-244.3402 442.9973,-250.8583"/>
</g>
<!-- Node35 -->
<g id="node36" class="node">
<title>Node35</title>
<g id="a_node36"><a xlink:href="../../d3/d4e/logsink_8h.xhtml" target="_top" xlink:title="logsink.h">
<polygon fill="#ffffff" stroke="#000000" points="276.2943,-224.9516 276.2943,-243.9516 332.2943,-243.9516 332.2943,-224.9516 276.2943,-224.9516"/>
<text text-anchor="middle" x="304.2943" y="-231.9516" font-family="Helvetica,sans-Serif" font-size="10.00" fill="#000000">logsink.h</text>
</a>
</g>
</g>
<!-- Node24&#45;&gt;Node35 -->
<g id="edge52" class="edge">
<title>Node24&#45;&gt;Node35</title>
<path fill="none" stroke="#191970" d="M327.4171,-280.6972C323.643,-273.149 318.3022,-262.4674 313.7042,-253.2714"/>
<polygon fill="#191970" stroke="#191970" points="316.7184,-251.4733 309.1157,-244.0943 310.4574,-254.6039 316.7184,-251.4733"/>
</g>
<!-- Node38 -->
<g id="node39" class="node">
<title>Node38</title>
<g id="a_node39"><a xlink:href="../../de/d09/level_8h.xhtml" target="_top" xlink:title="level.h">
<polygon fill="#ffffff" stroke="#000000" points="278.7943,-168.9516 278.7943,-187.9516 323.7943,-187.9516 323.7943,-168.9516 278.7943,-168.9516"/>
<text text-anchor="middle" x="301.2943" y="-175.9516" font-family="Helvetica,sans-Serif" font-size="10.00" fill="#000000">level.h</text>
</a>
</g>
</g>
<!-- Node24&#45;&gt;Node38 -->
<g id="edge60" class="edge">
<title>Node24&#45;&gt;Node38</title>
<path fill="none" stroke="#191970" d="M336.4704,-280.7291C341.4963,-267.5618 348.4237,-243.5154 341.2943,-224.4516 337.1795,-213.4486 329.1128,-203.3391 321.2949,-195.4169"/>
<polygon fill="#191970" stroke="#191970" points="323.3928,-192.5845 313.7155,-188.2716 318.5911,-197.678 323.3928,-192.5845"/>
</g>
<!-- Node27 -->
<g id="node28" class="node">
<title>Node27</title>
<polygon fill="#ffffff" stroke="#bfbfbf" points="592.7943,-168.9516 592.7943,-187.9516 637.7943,-187.9516 637.7943,-168.9516 592.7943,-168.9516"/>
<text text-anchor="middle" x="615.2943" y="-175.9516" font-family="Helvetica,sans-Serif" font-size="10.00" fill="#000000">cstdlib</text>
</g>
<!-- Node26&#45;&gt;Node27 -->
<g id="edge35" class="edge">
<title>Node26&#45;&gt;Node27</title>
<path fill="none" stroke="#191970" d="M607.862,-224.6972C609.0364,-217.3899 610.6827,-207.146 612.1275,-198.1562"/>
<polygon fill="#191970" stroke="#191970" points="615.6134,-198.523 613.7446,-188.0943 608.7021,-197.4122 615.6134,-198.523"/>
</g>
<!-- Node28&#45;&gt;Node11 -->
<g id="edge39" class="edge">
<title>Node28&#45;&gt;Node11</title>
<path fill="none" stroke="#191970" d="M511.7384,-224.8249C549.1227,-214.9498 607.173,-199.6158 646.1766,-189.3129"/>
<polygon fill="#191970" stroke="#191970" points="647.3738,-192.6168 656.1483,-186.6789 645.586,-185.8489 647.3738,-192.6168"/>
</g>
<!-- Node28&#45;&gt;Node17 -->
<g id="edge38" class="edge">
<title>Node28&#45;&gt;Node17</title>
<path fill="none" stroke="#191970" d="M484.246,-224.9026C497.5996,-211.0693 523.9939,-185.274 550.2943,-168.4516 571.6875,-154.768 597.8385,-143.222 618.5652,-135.12"/>
<polygon fill="#191970" stroke="#191970" points="619.868,-138.3691 627.9641,-131.535 617.3733,-131.8287 619.868,-138.3691"/>
</g>
<!-- Node28&#45;&gt;Node21 -->
<g id="edge40" class="edge">
<title>Node28&#45;&gt;Node21</title>
<path fill="none" stroke="#191970" d="M491.0124,-224.8C520.6728,-206.5933 582.0571,-168.9455 583.2943,-168.4516 654.2138,-140.1402 695.4627,-184.5471 751.2943,-132.4516 763.9381,-120.654 768.3539,-101.0407 769.8064,-86.2539"/>
<polygon fill="#191970" stroke="#191970" points="773.3106,-86.2913 770.4267,-76.0965 766.3236,-85.8646 773.3106,-86.2913"/>
</g>
<!-- Node29 -->
<g id="node30" class="node">
<title>Node29</title>
<polygon fill="#ffffff" stroke="#bfbfbf" points="452.2943,-168.9516 452.2943,-187.9516 498.2943,-187.9516 498.2943,-168.9516 452.2943,-168.9516"/>
<text text-anchor="middle" x="475.2943" y="-175.9516" font-family="Helvetica,sans-Serif" font-size="10.00" fill="#000000">atomic</text>
</g>
<!-- Node28&#45;&gt;Node29 -->
<g id="edge37" class="edge">
<title>Node28&#45;&gt;Node29</title>
<path fill="none" stroke="#191970" d="M475.2943,-224.6972C475.2943,-217.3899 475.2943,-207.146 475.2943,-198.1562"/>
<polygon fill="#191970" stroke="#191970" points="478.7944,-198.0943 475.2943,-188.0943 471.7944,-198.0943 478.7944,-198.0943"/>
</g>
<!-- Node30 -->
<g id="node31" class="node">
<title>Node30</title>
<g id="a_node31"><a xlink:href="../../dc/dcf/externalsstream_8h.xhtml" target="_top" xlink:title="externalsstream.h">
<polygon fill="#ffffff" stroke="#000000" points="168.7943,-112.9516 168.7943,-131.9516 263.7943,-131.9516 263.7943,-112.9516 168.7943,-112.9516"/>
<text text-anchor="middle" x="216.2943" y="-119.9516" font-family="Helvetica,sans-Serif" font-size="10.00" fill="#000000">externalsstream.h</text>
</a>
</g>
</g>
<!-- Node28&#45;&gt;Node30 -->
<g id="edge41" class="edge">
<title>Node28&#45;&gt;Node30</title>
<path fill="none" stroke="#191970" d="M452.8094,-224.9488C431.6303,-215.8938 399.0918,-201.7133 371.2943,-188.4516 353.713,-180.0639 350.0355,-176.4958 332.2943,-168.4516 305.7067,-156.3964 274.9696,-144.2872 251.8176,-135.521"/>
<polygon fill="#191970" stroke="#191970" points="252.9861,-132.2212 242.394,-131.9786 250.523,-138.7735 252.9861,-132.2212"/>
</g>
<!-- Node31 -->
<g id="node32" class="node">
<title>Node31</title>
<g id="a_node32"><a xlink:href="../../d6/d90/strings_8h.xhtml" target="_top" xlink:title="strings.h">
<polygon fill="#ffffff" stroke="#000000" points="380.2943,-168.9516 380.2943,-187.9516 434.2943,-187.9516 434.2943,-168.9516 380.2943,-168.9516"/>
<text text-anchor="middle" x="407.2943" y="-175.9516" font-family="Helvetica,sans-Serif" font-size="10.00" fill="#000000">strings.h</text>
</a>
</g>
</g>
<!-- Node28&#45;&gt;Node31 -->
<g id="edge44" class="edge">
<title>Node28&#45;&gt;Node31</title>
<path fill="none" stroke="#191970" d="M463.4496,-224.6972C453.4064,-216.4263 438.7949,-204.3933 426.994,-194.6749"/>
<polygon fill="#191970" stroke="#191970" points="428.9476,-191.7497 419.0033,-188.0943 424.4976,-197.1532 428.9476,-191.7497"/>
</g>
<!-- Node30&#45;&gt;Node15 -->
<g id="edge43" class="edge">
<title>Node30&#45;&gt;Node15</title>
<path fill="none" stroke="#191970" d="M208.4968,-112.6373C201.1554,-103.3622 189.8853,-89.0328 180.2943,-76.4516 168.0628,-60.4065 154.3971,-41.9547 144.6116,-28.6478"/>
<polygon fill="#191970" stroke="#191970" points="147.2603,-26.3413 138.5222,-20.35 141.6169,-30.4828 147.2603,-26.3413"/>
</g>
<!-- Node30&#45;&gt;Node19 -->
<g id="edge42" class="edge">
<title>Node30&#45;&gt;Node19</title>
<path fill="none" stroke="#191970" d="M216.2943,-112.6972C216.2943,-105.3899 216.2943,-95.146 216.2943,-86.1562"/>
<polygon fill="#191970" stroke="#191970" points="219.7944,-86.0943 216.2943,-76.0943 212.7944,-86.0943 219.7944,-86.0943"/>
</g>
<!-- Node31&#45;&gt;Node8 -->
<g id="edge47" class="edge">
<title>Node31&#45;&gt;Node8</title>
<path fill="none" stroke="#191970" d="M434.314,-170.4634C437.3281,-169.7166 440.3662,-169.0259 443.2943,-168.4516 578.539,-141.929 614.434,-148.6945 751.2943,-132.4516 766.9513,-130.5934 784.2662,-128.5116 799.0125,-126.7305"/>
<polygon fill="#191970" stroke="#191970" points="799.7282,-130.1695 809.2357,-125.4942 798.8878,-123.2201 799.7282,-130.1695"/>
</g>
<!-- Node31&#45;&gt;Node15 -->
<g id="edge50" class="edge">
<title>Node31&#45;&gt;Node15</title>
<path fill="none" stroke="#191970" d="M434.41,-170.8758C437.4061,-170.0517 440.4138,-169.2301 443.2943,-168.4516 506.7954,-151.2897 620.8563,-164.2362 580.2943,-112.4516 528.0784,-45.7888 254.7705,-19.6048 162.0775,-12.5575"/>
<polygon fill="#191970" stroke="#191970" points="162.1723,-9.055 151.9417,-11.809 161.6567,-16.036 162.1723,-9.055"/>
</g>
<!-- Node31&#45;&gt;Node16 -->
<g id="edge51" class="edge">
<title>Node31&#45;&gt;Node16</title>
<path fill="none" stroke="#191970" d="M434.3314,-170.5489C437.3422,-169.786 440.3749,-169.0682 443.2943,-168.4516 548.2402,-146.2885 579.8328,-156.8339 688.0556,-132.4195"/>
<polygon fill="#191970" stroke="#191970" points="689.1097,-135.7684 698.068,-130.1116 687.5373,-128.9473 689.1097,-135.7684"/>
</g>
<!-- Node31&#45;&gt;Node17 -->
<g id="edge48" class="edge">
<title>Node31&#45;&gt;Node17</title>
<path fill="none" stroke="#191970" d="M434.3729,-170.7315C437.376,-169.9345 440.3954,-169.1586 443.2943,-168.4516 518.7486,-150.049 538.6075,-149.8731 614.2943,-132.4516 615.55,-132.1626 616.8268,-131.8648 618.1156,-131.5609"/>
<polygon fill="#191970" stroke="#191970" points="619.1792,-134.9047 628.0782,-129.155 617.536,-128.1003 619.1792,-134.9047"/>
</g>
<!-- Node32 -->
<g id="node33" class="node">
<title>Node32</title>
<polygon fill="#ffffff" stroke="#bfbfbf" points="522.7943,-112.9516 522.7943,-131.9516 571.7943,-131.9516 571.7943,-112.9516 522.7943,-112.9516"/>
<text text-anchor="middle" x="547.2943" y="-119.9516" font-family="Helvetica,sans-Serif" font-size="10.00" fill="#000000">cstdarg</text>
</g>
<!-- Node31&#45;&gt;Node32 -->
<g id="edge45" class="edge">
<title>Node31&#45;&gt;Node32</title>
<path fill="none" stroke="#191970" d="M431.3612,-168.8249C454.1372,-159.7145 488.5287,-145.9579 513.9434,-135.792"/>
<polygon fill="#191970" stroke="#191970" points="515.5566,-138.9164 523.5415,-131.9528 512.9569,-132.4171 515.5566,-138.9164"/>
</g>
<!-- Node33 -->
<g id="node34" class="node">
<title>Node33</title>
<polygon fill="#ffffff" stroke="#bfbfbf" points="374.7943,-112.9516 374.7943,-131.9516 433.7943,-131.9516 433.7943,-112.9516 374.7943,-112.9516"/>
<text text-anchor="middle" x="404.2943" y="-119.9516" font-family="Helvetica,sans-Serif" font-size="10.00" fill="#000000">functional</text>
</g>
<!-- Node31&#45;&gt;Node33 -->
<g id="edge46" class="edge">
<title>Node31&#45;&gt;Node33</title>
<path fill="none" stroke="#191970" d="M406.7718,-168.6972C406.3803,-161.3899 405.8315,-151.146 405.3499,-142.1562"/>
<polygon fill="#191970" stroke="#191970" points="408.8409,-141.8927 404.8109,-132.0943 401.851,-142.2673 408.8409,-141.8927"/>
</g>
<!-- Node34 -->
<g id="node35" class="node">
<title>Node34</title>
<polygon fill="#ffffff" stroke="#bfbfbf" points="452.2943,-112.9516 452.2943,-131.9516 504.2943,-131.9516 504.2943,-112.9516 452.2943,-112.9516"/>
<text text-anchor="middle" x="478.2943" y="-119.9516" font-family="Helvetica,sans-Serif" font-size="10.00" fill="#000000">sstream</text>
</g>
<!-- Node31&#45;&gt;Node34 -->
<g id="edge49" class="edge">
<title>Node31&#45;&gt;Node34</title>
<path fill="none" stroke="#191970" d="M419.6616,-168.6972C430.2497,-160.346 445.7007,-148.1593 458.0836,-138.3925"/>
<polygon fill="#191970" stroke="#191970" points="460.3846,-141.0353 466.0688,-132.0943 456.0496,-135.5391 460.3846,-141.0353"/>
</g>
<!-- Node36 -->
<g id="node37" class="node">
<title>Node36</title>
<polygon fill="#ffffff" stroke="#bfbfbf" points="168.7943,-168.9516 168.7943,-187.9516 197.7943,-187.9516 197.7943,-168.9516 168.7943,-168.9516"/>
<text text-anchor="middle" x="183.2943" y="-175.9516" font-family="Helvetica,sans-Serif" font-size="10.00" fill="#000000">list</text>
</g>
<!-- Node35&#45;&gt;Node36 -->
<g id="edge53" class="edge">
<title>Node35&#45;&gt;Node36</title>
<path fill="none" stroke="#191970" d="M283.4937,-224.8249C262.3043,-215.0182 229.4824,-199.8279 207.2267,-189.5278"/>
<polygon fill="#191970" stroke="#191970" points="208.6576,-186.3334 198.1124,-185.3096 205.7175,-192.686 208.6576,-186.3334"/>
</g>
<!-- Node37 -->
<g id="node38" class="node">
<title>Node37</title>
<polygon fill="#ffffff" stroke="#bfbfbf" points="216.2943,-168.9516 216.2943,-187.9516 260.2943,-187.9516 260.2943,-168.9516 216.2943,-168.9516"/>
<text text-anchor="middle" x="238.2943" y="-175.9516" font-family="Helvetica,sans-Serif" font-size="10.00" fill="#000000">mutex</text>
</g>
<!-- Node35&#45;&gt;Node37 -->
<g id="edge54" class="edge">
<title>Node35&#45;&gt;Node37</title>
<path fill="none" stroke="#191970" d="M292.798,-224.6972C283.0501,-216.4263 268.8684,-204.3933 257.4146,-194.6749"/>
<polygon fill="#191970" stroke="#191970" points="259.5485,-191.8953 249.6589,-188.0943 255.0196,-197.2329 259.5485,-191.8953"/>
</g>
<!-- Node35&#45;&gt;Node38 -->
<g id="edge55" class="edge">
<title>Node35&#45;&gt;Node38</title>
<path fill="none" stroke="#191970" d="M303.7718,-224.6972C303.3803,-217.3899 302.8315,-207.146 302.3499,-198.1562"/>
<polygon fill="#191970" stroke="#191970" points="305.8409,-197.8927 301.8109,-188.0943 298.851,-198.2673 305.8409,-197.8927"/>
</g>
<!-- Node39 -->
<g id="node40" class="node">
<title>Node39</title>
<g id="a_node40"><a xlink:href="../../d0/d9b/enum_8h.xhtml" target="_top" xlink:title="../util/enum.h">
<polygon fill="#ffffff" stroke="#000000" points="282.2943,-112.9516 282.2943,-131.9516 356.2943,-131.9516 356.2943,-112.9516 282.2943,-112.9516"/>
<text text-anchor="middle" x="319.2943" y="-119.9516" font-family="Helvetica,sans-Serif" font-size="10.00" fill="#000000">../util/enum.h</text>
</a>
</g>
</g>
<!-- Node38&#45;&gt;Node39 -->
<g id="edge56" class="edge">
<title>Node38&#45;&gt;Node39</title>
<path fill="none" stroke="#191970" d="M304.4297,-168.6972C306.8043,-161.3096 310.1436,-150.9205 313.0558,-141.8603"/>
<polygon fill="#191970" stroke="#191970" points="316.4668,-142.6857 316.1949,-132.0943 309.8026,-140.5435 316.4668,-142.6857"/>
</g>
<!-- Node39&#45;&gt;Node19 -->
<g id="edge57" class="edge">
<title>Node39&#45;&gt;Node19</title>
<path fill="none" stroke="#191970" d="M301.3531,-112.6972C285.2543,-103.9445 261.4064,-90.9786 243.0552,-81.0013"/>
<polygon fill="#191970" stroke="#191970" points="244.4873,-77.796 234.03,-76.0943 241.1436,-83.9458 244.4873,-77.796"/>
</g>
<!-- Node39&#45;&gt;Node21 -->
<g id="edge59" class="edge">
<title>Node39&#45;&gt;Node21</title>
<path fill="none" stroke="#191970" d="M356.3896,-114.0508C359.3953,-113.4729 362.3915,-112.9308 365.2943,-112.4516 490.7486,-91.745 639.6142,-77.4442 717.2229,-70.7578"/>
<polygon fill="#191970" stroke="#191970" points="717.5706,-74.241 727.2368,-69.9034 716.9754,-67.2663 717.5706,-74.241"/>
</g>
<!-- Node40 -->
<g id="node41" class="node">
<title>Node40</title>
<polygon fill="#ffffff" stroke="#bfbfbf" points="293.7943,-56.9516 293.7943,-75.9516 344.7943,-75.9516 344.7943,-56.9516 293.7943,-56.9516"/>
<text text-anchor="middle" x="319.2943" y="-63.9516" font-family="Helvetica,sans-Serif" font-size="10.00" fill="#000000">typeinfo</text>
</g>
<!-- Node39&#45;&gt;Node40 -->
<g id="edge58" class="edge">
<title>Node39&#45;&gt;Node40</title>
<path fill="none" stroke="#191970" d="M319.2943,-112.6972C319.2943,-105.3899 319.2943,-95.146 319.2943,-86.1562"/>
<polygon fill="#191970" stroke="#191970" points="322.7944,-86.0943 319.2943,-76.0943 315.7944,-86.0943 322.7944,-86.0943"/>
</g>
<!-- Node41&#45;&gt;Node2 -->
<g id="edge63" class="edge">
<title>Node41&#45;&gt;Node2</title>
<path fill="none" stroke="#191970" d="M804.5399,-560.6972C796.4296,-552.5869 784.7018,-540.8591 775.0862,-531.2435"/>
<polygon fill="#191970" stroke="#191970" points="777.483,-528.6905 767.937,-524.0943 772.5332,-533.6403 777.483,-528.6905"/>
</g>
</g>
</svg>
        <g id="navigator" transform="translate(0 0)" fill="#404254">
                <rect fill="#f2f5e9" fill-opacity="0.5" stroke="#606060" stroke-width=".5" x="0" y="0" width="60" height="60"/>
                <use id="zoomplus" xlink:href="#zoomPlus" x="17" y="9" onmousedown="handleZoom(evt,'in')"/>
                <use id="zoomminus" xlink:href="#zoomMin" x="42" y="9" onmousedown="handleZoom(evt,'out')"/>
                <use id="reset" xlink:href="#resetDef" x="30" y="36" onmousedown="handleReset()"/>
                <g id="arrowUp" xlink:href="#dirArrow" transform="translate(30 24)" onmousedown="handlePan(0,-1)">
                  <use xlink:href="#rim" fill="#404040">
                        <set attributeName="fill" to="#808080" begin="arrowUp.mouseover" end="arrowUp.mouseout"/>
                  </use>
                  <path fill="none" stroke="white" stroke-width="1.5" d="M0,-3.0v7 M-2.5,-0.5L0,-3.0L2.5,-0.5"/>
                </g>
                <g id="arrowRight" xlink:href="#dirArrow" transform="rotate(90) translate(36 -43)" onmousedown="handlePan(1,0)">
                  <use xlink:href="#rim" fill="#404040">
                        <set attributeName="fill" to="#808080" begin="arrowRight.mouseover" end="arrowRight.mouseout"/>
                  </use>
                  <path fill="none" stroke="white" stroke-width="1.5" d="M0,-3.0v7 M-2.5,-0.5L0,-3.0L2.5,-0.5"/>
                </g>
                <g id="arrowDown" xlink:href="#dirArrow" transform="rotate(180) translate(-30 -48)" onmousedown="handlePan(0,1)">
                  <use xlink:href="#rim" fill="#404040">
                        <set attributeName="fill" to="#808080" begin="arrowDown.mouseover" end="arrowDown.mouseout"/>
                  </use>
                  <path fill="none" stroke="white" stroke-width="1.5" d="M0,-3.0v7 M-2.5,-0.5L0,-3.0L2.5,-0.5"/>
                </g>
                <g id="arrowLeft" xlink:href="#dirArrow" transform="rotate(270) translate(-36 17)" onmousedown="handlePan(-1,0)">
                  <use xlink:href="#rim" fill="#404040">
                        <set attributeName="fill" to="#808080" begin="arrowLeft.mouseover" end="arrowLeft.mouseout"/>
                  </use>
                  <path fill="none" stroke="white" stroke-width="1.5" d="M0,-3.0v7 M-2.5,-0.5L0,-3.0L2.5,-0.5"/>
                </g>
        </g>
        <svg viewBox="0 0 15 15" width="100%" height="30px" preserveAspectRatio="xMaxYMin meet">
         <g id="arrow_out" transform="scale(0.3 0.3)">
          <a xlink:href="queue__filter__iterator_8cpp__incl_org.svg" target="_base">
           <rect id="button" ry="5" rx="5" y="6" x="6" height="38" width="38"
                fill="#f2f5e9" fill-opacity="0.5" stroke="#606060" stroke-width="1.0"/>
           <path id="arrow"
             d="M 11.500037,31.436501 C 11.940474,20.09759 22.043105,11.32322 32.158766,21.979434 L 37.068811,17.246167 C 37.068811,17.246167 37.088388,32 37.088388,32 L 22.160133,31.978069 C 22.160133,31.978069 26.997745,27.140456 26.997745,27.140456 C 18.528582,18.264221 13.291696,25.230495 11.500037,31.436501 z"
             style="fill:#404040;"/>
          </a>
         </g>
        </svg>
</svg>
