<?xml version="1.0" encoding="UTF-8" standalone="no"?>
<!DOCTYPE svg PUBLIC "-//W3C//DTD SVG 1.1//EN"
 "http://www.w3.org/Graphics/SVG/1.1/DTD/svg11.dtd">
<!-- Generated by graphviz version 2.40.1 (20161225.0304)
 -->
<!-- Title: qtsdl::GuiEngineImplConnection::disconnect Pages: 1 -->
<svg width="358pt" height="88pt"
 viewBox="0.00 0.00 358.00 88.00" xmlns="http://www.w3.org/2000/svg" xmlns:xlink="http://www.w3.org/1999/xlink">
<g id="graph0" class="graph" transform="scale(1 1) rotate(0) translate(4 84)">
<title>qtsdl::GuiEngineImplConnection::disconnect</title>
<polygon fill="#ffffff" stroke="transparent" points="-4,4 -4,-84 354,-84 354,4 -4,4"/>
<!-- Node104 -->
<g id="node1" class="node">
<title>Node104</title>
<polygon fill="#bfbfbf" stroke="#000000" points="0,-24.5 0,-54.5 157,-54.5 157,-24.5 0,-24.5"/>
<text text-anchor="start" x="8" y="-42.5" font-family="Helvetica,sans-Serif" font-size="10.00" fill="#000000">qtsdl::GuiEngineImplConnection</text>
<text text-anchor="middle" x="78.5" y="-31.5" font-family="Helvetica,sans-Serif" font-size="10.00" fill="#000000">::disconnect</text>
</g>
<!-- Node105 -->
<g id="node2" class="node">
<title>Node105</title>
<g id="a_node2"><a xlink:href="../../dd/d89/classqtsdl_1_1_gui_engine_impl_connection.xhtml#a3de39e1c4b2cc6b97f38d9c1217d5de5" target="_top" xlink:title="qtsdl::GuiEngineImplConnection\l::operator=">
<polygon fill="#ffffff" stroke="#000000" points="193,-49.5 193,-79.5 350,-79.5 350,-49.5 193,-49.5"/>
<text text-anchor="start" x="201" y="-67.5" font-family="Helvetica,sans-Serif" font-size="10.00" fill="#000000">qtsdl::GuiEngineImplConnection</text>
<text text-anchor="middle" x="271.5" y="-56.5" font-family="Helvetica,sans-Serif" font-size="10.00" fill="#000000">::operator=</text>
</a>
</g>
</g>
<!-- Node104&#45;&gt;Node105 -->
<g id="edge1" class="edge">
<title>Node104&#45;&gt;Node105</title>
<path fill="none" stroke="#191970" d="M167.0225,-50.9666C175.607,-52.0786 184.2762,-53.2016 192.7559,-54.3"/>
<polygon fill="#191970" stroke="#191970" points="167.3673,-47.4821 157.0005,-49.6685 166.468,-54.4241 167.3673,-47.4821"/>
</g>
<!-- Node106 -->
<g id="node3" class="node">
<title>Node106</title>
<g id="a_node3"><a xlink:href="../../dd/d89/classqtsdl_1_1_gui_engine_impl_connection.xhtml#a838d04049e7a234096ddc630de0fee59" target="_top" xlink:title="qtsdl::GuiEngineImplConnection\l::~GuiEngineImplConnection">
<polygon fill="#ffffff" stroke="#000000" points="193,-.5 193,-30.5 350,-30.5 350,-.5 193,-.5"/>
<text text-anchor="start" x="201" y="-18.5" font-family="Helvetica,sans-Serif" font-size="10.00" fill="#000000">qtsdl::GuiEngineImplConnection</text>
<text text-anchor="middle" x="271.5" y="-7.5" font-family="Helvetica,sans-Serif" font-size="10.00" fill="#000000">::~GuiEngineImplConnection</text>
</a>
</g>
</g>
<!-- Node104&#45;&gt;Node106 -->
<g id="edge2" class="edge">
<title>Node104&#45;&gt;Node106</title>
<path fill="none" stroke="#191970" d="M167.0225,-28.492C175.607,-27.4245 184.2762,-26.3465 192.7559,-25.292"/>
<polygon fill="#191970" stroke="#191970" points="166.4921,-25.0309 157.0005,-29.7383 167.356,-31.9774 166.4921,-25.0309"/>
</g>
</g>
</svg>
