<?xml version="1.0" encoding="UTF-8" standalone="no"?>
<!DOCTYPE svg PUBLIC "-//W3C//DTD SVG 1.1//EN"
 "http://www.w3.org/Graphics/SVG/1.1/DTD/svg11.dtd">
<!-- Generated by graphviz version 2.40.1 (20161225.0304)
 -->
<!-- Title: openage::GameRenderer::on_draw Pages: 1 -->
<svg width="636pt" height="100pt"
 viewBox="0.00 0.00 636.00 99.50" xmlns="http://www.w3.org/2000/svg" xmlns:xlink="http://www.w3.org/1999/xlink">
<g id="graph0" class="graph" transform="scale(1 1) rotate(0) translate(4 95.5)">
<title>openage::GameRenderer::on_draw</title>
<polygon fill="#ffffff" stroke="transparent" points="-4,4 -4,-95.5 632,-95.5 632,4 -4,4"/>
<!-- Node47 -->
<g id="node1" class="node">
<title>Node47</title>
<polygon fill="#bfbfbf" stroke="#000000" points="0,-17 0,-47 125,-47 125,-17 0,-17"/>
<text text-anchor="start" x="8" y="-35" font-family="Helvetica,sans-Serif" font-size="10.00" fill="#000000">openage::GameRenderer</text>
<text text-anchor="middle" x="62.5" y="-24" font-family="Helvetica,sans-Serif" font-size="10.00" fill="#000000">::on_draw</text>
</g>
<!-- Node48 -->
<g id="node2" class="node">
<title>Node48</title>
<g id="a_node2"><a xlink:href="../../d4/d5b/classopenage_1_1_texture.xhtml#a0bb8ecfa34c39de191c45b95139da3ed" target="_top" xlink:title="Draws the texture at hud coordinates. ">
<polygon fill="#ffffff" stroke="#000000" points="164,-66.5 164,-85.5 283,-85.5 283,-66.5 164,-66.5"/>
<text text-anchor="middle" x="223.5" y="-73.5" font-family="Helvetica,sans-Serif" font-size="10.00" fill="#000000">openage::Texture::draw</text>
</a>
</g>
</g>
<!-- Node47&#45;&gt;Node48 -->
<g id="edge1" class="edge">
<title>Node47&#45;&gt;Node48</title>
<path fill="none" stroke="#191970" d="M117.4568,-47.0192C137.3787,-52.4638 159.6292,-58.5446 178.5842,-63.7249"/>
<polygon fill="#191970" stroke="#191970" points="177.8832,-67.1616 188.4522,-66.4217 179.7286,-60.4092 177.8832,-67.1616"/>
</g>
<!-- Node51 -->
<g id="node5" class="node">
<title>Node51</title>
<g id="a_node5"><a xlink:href="../../d3/d7e/classopenage_1_1_game_renderer.xhtml#a1824b69c5f78ed1db93b6fa6417fdf83" target="_top" xlink:title="the game this renderer is using ">
<polygon fill="#ffffff" stroke="#000000" points="161,-17 161,-47 286,-47 286,-17 161,-17"/>
<text text-anchor="start" x="169" y="-35" font-family="Helvetica,sans-Serif" font-size="10.00" fill="#000000">openage::GameRenderer</text>
<text text-anchor="middle" x="223.5" y="-24" font-family="Helvetica,sans-Serif" font-size="10.00" fill="#000000">::game</text>
</a>
</g>
</g>
<!-- Node47&#45;&gt;Node51 -->
<g id="edge4" class="edge">
<title>Node47&#45;&gt;Node51</title>
<path fill="none" stroke="#191970" d="M125.2078,-32C133.6481,-32 142.3631,-32 150.9559,-32"/>
<polygon fill="#191970" stroke="#191970" points="150.9634,-35.5001 160.9633,-32 150.9633,-28.5001 150.9634,-35.5001"/>
</g>
<!-- Node52 -->
<g id="node6" class="node">
<title>Node52</title>
<g id="a_node6"><a xlink:href="../../d6/d40/classopenage_1_1_engine.xhtml#a3e79c3919abbc3cab0716e4807f7c93e" target="_top" xlink:title="return currently running game or null if a game is not currently running ">
<polygon fill="#ffffff" stroke="#000000" points="322,-.5 322,-19.5 460,-19.5 460,-.5 322,-.5"/>
<text text-anchor="middle" x="391" y="-7.5" font-family="Helvetica,sans-Serif" font-size="10.00" fill="#000000">openage::Engine::get_game</text>
</a>
</g>
</g>
<!-- Node47&#45;&gt;Node52 -->
<g id="edge6" class="edge">
<title>Node47&#45;&gt;Node52</title>
<path fill="none" stroke="#191970" d="M111.6449,-16.9745C127.2674,-12.8894 144.7187,-9.0339 161,-7 210.813,-.7772 267.1642,-1.3892 311.6212,-3.624"/>
<polygon fill="#191970" stroke="#191970" points="311.6105,-7.1284 321.7849,-4.1733 311.9884,-.1386 311.6105,-7.1284"/>
</g>
<!-- Node49 -->
<g id="node3" class="node">
<title>Node49</title>
<g id="a_node3"><a xlink:href="../../d2/d89/structopenage_1_1coord_1_1camhud.xhtml#abbbebb0d15c032c20f0db6dd6f9c4911" target="_top" xlink:title="openage::coord::camhud\l::to_viewport">
<polygon fill="#ffffff" stroke="#000000" points="329,-61 329,-91 453,-91 453,-61 329,-61"/>
<text text-anchor="start" x="337" y="-79" font-family="Helvetica,sans-Serif" font-size="10.00" fill="#000000">openage::coord::camhud</text>
<text text-anchor="middle" x="391" y="-68" font-family="Helvetica,sans-Serif" font-size="10.00" fill="#000000">::to_viewport</text>
</a>
</g>
</g>
<!-- Node48&#45;&gt;Node49 -->
<g id="edge2" class="edge">
<title>Node48&#45;&gt;Node49</title>
<path fill="none" stroke="#191970" d="M283.0259,-76C294.5168,-76 306.6735,-76 318.5235,-76"/>
<polygon fill="#191970" stroke="#191970" points="318.8338,-79.5001 328.8337,-76 318.8337,-72.5001 318.8338,-79.5001"/>
</g>
<!-- Node50 -->
<g id="node4" class="node">
<title>Node50</title>
<g id="a_node4"><a xlink:href="../../d5/d40/structopenage_1_1coord_1_1camgame__delta.xhtml#a9ab7f49a99385626a0d6a11df1a6e211" target="_top" xlink:title="openage::coord::camgame\l_delta::to_viewport">
<polygon fill="#ffffff" stroke="#000000" points="496,-61 496,-91 628,-91 628,-61 496,-61"/>
<text text-anchor="start" x="504" y="-79" font-family="Helvetica,sans-Serif" font-size="10.00" fill="#000000">openage::coord::camgame</text>
<text text-anchor="middle" x="562" y="-68" font-family="Helvetica,sans-Serif" font-size="10.00" fill="#000000">_delta::to_viewport</text>
</a>
</g>
</g>
<!-- Node49&#45;&gt;Node50 -->
<g id="edge3" class="edge">
<title>Node49&#45;&gt;Node50</title>
<path fill="none" stroke="#191970" d="M453.2187,-76C463.7118,-76 474.7115,-76 485.5168,-76"/>
<polygon fill="#191970" stroke="#191970" points="485.7942,-79.5001 495.7942,-76 485.7942,-72.5001 485.7942,-79.5001"/>
</g>
<!-- Node51&#45;&gt;Node52 -->
<g id="edge5" class="edge">
<title>Node51&#45;&gt;Node52</title>
<path fill="none" stroke="#191970" d="M286.3474,-23.7454C294.6875,-22.65 303.3232,-21.5158 311.8937,-20.3901"/>
<polygon fill="#191970" stroke="#191970" points="312.4443,-23.8479 321.9033,-19.0754 311.5327,-16.9075 312.4443,-23.8479"/>
</g>
</g>
</svg>
