<?xml version="1.0" encoding="UTF-8" standalone="no"?>
<!DOCTYPE svg PUBLIC "-//W3C//DTD SVG 1.1//EN"
 "http://www.w3.org/Graphics/SVG/1.1/DTD/svg11.dtd">
<!-- Generated by graphviz version 2.40.1 (20161225.0304)
 -->
<!-- Title: /mnt/c/Users/Jameson/Desktop/git/openage&#45;new&#45;doc&#45;system/libopenage/gui/guisys/private/gui_rendering_setup_routines.cpp Pages: 1 -->
<svg width="566pt" height="195pt"
 viewBox="0.00 0.00 565.50 195.00" xmlns="http://www.w3.org/2000/svg" xmlns:xlink="http://www.w3.org/1999/xlink">
<g id="graph0" class="graph" transform="scale(1 1) rotate(0) translate(4 191)">
<title>/mnt/c/Users/Jameson/Desktop/git/openage&#45;new&#45;doc&#45;system/libopenage/gui/guisys/private/gui_rendering_setup_routines.cpp</title>
<polygon fill="#ffffff" stroke="transparent" points="-4,4 -4,-191 561.5,-191 561.5,4 -4,4"/>
<!-- Node0 -->
<g id="node1" class="node">
<title>Node0</title>
<polygon fill="#bfbfbf" stroke="#000000" points="102.5,-123.5 102.5,-186.5 259.5,-186.5 259.5,-123.5 102.5,-123.5"/>
<text text-anchor="start" x="110.5" y="-174.5" font-family="Helvetica,sans-Serif" font-size="10.00" fill="#000000">/mnt/c/Users/Jameson</text>
<text text-anchor="start" x="110.5" y="-163.5" font-family="Helvetica,sans-Serif" font-size="10.00" fill="#000000">/Desktop/git/openage</text>
<text text-anchor="start" x="110.5" y="-152.5" font-family="Helvetica,sans-Serif" font-size="10.00" fill="#000000">&#45;new&#45;doc&#45;system/libopenage</text>
<text text-anchor="start" x="110.5" y="-141.5" font-family="Helvetica,sans-Serif" font-size="10.00" fill="#000000">/gui/guisys/private/gui_rendering</text>
<text text-anchor="middle" x="181" y="-130.5" font-family="Helvetica,sans-Serif" font-size="10.00" fill="#000000">_setup_routines.cpp</text>
</g>
<!-- Node1 -->
<g id="node2" class="node">
<title>Node1</title>
<g id="a_node2"><a xlink:href="../../de/d03/gui__rendering__setup__routines_8h.xhtml" target="_top" xlink:title="gui_rendering_setup\l_routines.h">
<polygon fill="#ffffff" stroke="#000000" points="0,-56.5 0,-86.5 104,-86.5 104,-56.5 0,-56.5"/>
<text text-anchor="start" x="8" y="-74.5" font-family="Helvetica,sans-Serif" font-size="10.00" fill="#000000">gui_rendering_setup</text>
<text text-anchor="middle" x="52" y="-63.5" font-family="Helvetica,sans-Serif" font-size="10.00" fill="#000000">_routines.h</text>
</a>
</g>
</g>
<!-- Node0&#45;&gt;Node1 -->
<g id="edge1" class="edge">
<title>Node0&#45;&gt;Node1</title>
<path fill="none" stroke="#191970" d="M132.2306,-123.4322C116.0412,-112.953 98.4436,-101.5623 83.8656,-92.1262"/>
<polygon fill="#191970" stroke="#191970" points="85.5153,-89.0248 75.2186,-86.5291 81.7116,-94.9012 85.5153,-89.0248"/>
</g>
<!-- Node4 -->
<g id="node5" class="node">
<title>Node4</title>
<polygon fill="#ffffff" stroke="#bfbfbf" points="122.5,-62 122.5,-81 171.5,-81 171.5,-62 122.5,-62"/>
<text text-anchor="middle" x="147" y="-69" font-family="Helvetica,sans-Serif" font-size="10.00" fill="#000000">cassert</text>
</g>
<!-- Node0&#45;&gt;Node4 -->
<g id="edge4" class="edge">
<title>Node0&#45;&gt;Node4</title>
<path fill="none" stroke="#191970" d="M168.1461,-123.4322C163.6716,-112.4435 158.7891,-100.4526 154.8441,-90.7641"/>
<polygon fill="#191970" stroke="#191970" points="158.0078,-89.2529 150.995,-81.3112 151.5247,-91.8928 158.0078,-89.2529"/>
</g>
<!-- Node5 -->
<g id="node6" class="node">
<title>Node5</title>
<polygon fill="#ffffff" stroke="#bfbfbf" points="189.5,-62 189.5,-81 242.5,-81 242.5,-62 189.5,-62"/>
<text text-anchor="middle" x="216" y="-69" font-family="Helvetica,sans-Serif" font-size="10.00" fill="#000000">QDebug</text>
</g>
<!-- Node0&#45;&gt;Node5 -->
<g id="edge5" class="edge">
<title>Node0&#45;&gt;Node5</title>
<path fill="none" stroke="#191970" d="M194.232,-123.4322C198.838,-112.4435 203.8642,-100.4526 207.9252,-90.7641"/>
<polygon fill="#191970" stroke="#191970" points="211.2496,-91.8868 211.8875,-81.3112 204.7938,-89.1808 211.2496,-91.8868"/>
</g>
<!-- Node6 -->
<g id="node7" class="node">
<title>Node6</title>
<g id="a_node7"><a xlink:href="../../d7/df9/gui__ctx__setup_8h.xhtml" target="_top" xlink:title="gui_ctx_setup.h">
<polygon fill="#ffffff" stroke="#000000" points="261,-62 261,-81 347,-81 347,-62 261,-62"/>
<text text-anchor="middle" x="304" y="-69" font-family="Helvetica,sans-Serif" font-size="10.00" fill="#000000">gui_ctx_setup.h</text>
</a>
</g>
</g>
<!-- Node0&#45;&gt;Node6 -->
<g id="edge6" class="edge">
<title>Node0&#45;&gt;Node6</title>
<path fill="none" stroke="#191970" d="M227.501,-123.4322C245.867,-110.9642 266.1337,-97.206 281.1904,-86.9846"/>
<polygon fill="#191970" stroke="#191970" points="283.5206,-89.633 289.8284,-81.1205 279.5889,-83.8415 283.5206,-89.633"/>
</g>
<!-- Node2 -->
<g id="node3" class="node">
<title>Node2</title>
<polygon fill="#ffffff" stroke="#bfbfbf" points="112,-.5 112,-19.5 164,-19.5 164,-.5 112,-.5"/>
<text text-anchor="middle" x="138" y="-7.5" font-family="Helvetica,sans-Serif" font-size="10.00" fill="#000000">memory</text>
</g>
<!-- Node1&#45;&gt;Node2 -->
<g id="edge2" class="edge">
<title>Node1&#45;&gt;Node2</title>
<path fill="none" stroke="#191970" d="M73.2584,-56.2977C86.2718,-46.9917 102.8903,-35.1075 116.0317,-25.7099"/>
<polygon fill="#191970" stroke="#191970" points="118.3889,-28.3271 124.4871,-19.6633 114.3171,-22.6332 118.3889,-28.3271"/>
</g>
<!-- Node3 -->
<g id="node4" class="node">
<title>Node3</title>
<polygon fill="#ffffff" stroke="#bfbfbf" points="24.5,-.5 24.5,-19.5 79.5,-19.5 79.5,-.5 24.5,-.5"/>
<text text-anchor="middle" x="52" y="-7.5" font-family="Helvetica,sans-Serif" font-size="10.00" fill="#000000">QtGlobal</text>
</g>
<!-- Node1&#45;&gt;Node3 -->
<g id="edge3" class="edge">
<title>Node1&#45;&gt;Node3</title>
<path fill="none" stroke="#191970" d="M52,-56.2977C52,-48.3834 52,-38.6043 52,-30.0759"/>
<polygon fill="#191970" stroke="#191970" points="55.5001,-29.8469 52,-19.8469 48.5001,-29.847 55.5001,-29.8469"/>
</g>
<!-- Node6&#45;&gt;Node2 -->
<g id="edge8" class="edge">
<title>Node6&#45;&gt;Node2</title>
<path fill="none" stroke="#191970" d="M278.0625,-61.8906C249.9222,-51.4652 204.8207,-34.7559 173.4274,-23.1252"/>
<polygon fill="#191970" stroke="#191970" points="174.3485,-19.734 163.7554,-19.5419 171.9166,-26.298 174.3485,-19.734"/>
</g>
<!-- Node7 -->
<g id="node8" class="node">
<title>Node7</title>
<polygon fill="#ffffff" stroke="#bfbfbf" points="189.5,-.5 189.5,-19.5 248.5,-19.5 248.5,-.5 189.5,-.5"/>
<text text-anchor="middle" x="219" y="-7.5" font-family="Helvetica,sans-Serif" font-size="10.00" fill="#000000">stdexcept</text>
</g>
<!-- Node6&#45;&gt;Node7 -->
<g id="edge7" class="edge">
<title>Node6&#45;&gt;Node7</title>
<path fill="none" stroke="#191970" d="M290.7188,-61.8906C277.2452,-52.1421 256.178,-36.8994 240.3565,-25.4521"/>
<polygon fill="#191970" stroke="#191970" points="242.3414,-22.5682 232.188,-19.5419 238.2381,-28.2394 242.3414,-22.5682"/>
</g>
<!-- Node8 -->
<g id="node9" class="node">
<title>Node8</title>
<polygon fill="#ffffff" stroke="#bfbfbf" points="266.5,-.5 266.5,-19.5 325.5,-19.5 325.5,-.5 266.5,-.5"/>
<text text-anchor="middle" x="296" y="-7.5" font-family="Helvetica,sans-Serif" font-size="10.00" fill="#000000">functional</text>
</g>
<!-- Node6&#45;&gt;Node8 -->
<g id="edge9" class="edge">
<title>Node6&#45;&gt;Node8</title>
<path fill="none" stroke="#191970" d="M302.75,-61.8906C301.6411,-53.3657 299.9856,-40.6392 298.5917,-29.9235"/>
<polygon fill="#191970" stroke="#191970" points="302.0284,-29.2098 297.2676,-19.7449 295.0869,-30.1128 302.0284,-29.2098"/>
</g>
<!-- Node9 -->
<g id="node10" class="node">
<title>Node9</title>
<polygon fill="#ffffff" stroke="#bfbfbf" points="343.5,-.5 343.5,-19.5 438.5,-19.5 438.5,-.5 343.5,-.5"/>
<text text-anchor="middle" x="391" y="-7.5" font-family="Helvetica,sans-Serif" font-size="10.00" fill="#000000">QOpenGLContext</text>
</g>
<!-- Node6&#45;&gt;Node9 -->
<g id="edge10" class="edge">
<title>Node6&#45;&gt;Node9</title>
<path fill="none" stroke="#191970" d="M317.5938,-61.8906C331.3843,-52.1421 352.9472,-36.8994 369.141,-25.4521"/>
<polygon fill="#191970" stroke="#191970" points="371.3563,-28.1723 377.5017,-19.5419 367.3156,-22.4563 371.3563,-28.1723"/>
</g>
<!-- Node10 -->
<g id="node11" class="node">
<title>Node10</title>
<polygon fill="#ffffff" stroke="#bfbfbf" points="456.5,-.5 456.5,-19.5 557.5,-19.5 557.5,-.5 456.5,-.5"/>
<text text-anchor="middle" x="507" y="-7.5" font-family="Helvetica,sans-Serif" font-size="10.00" fill="#000000">QOffscreenSurface</text>
</g>
<!-- Node6&#45;&gt;Node10 -->
<g id="edge11" class="edge">
<title>Node6&#45;&gt;Node10</title>
<path fill="none" stroke="#191970" d="M335.7188,-61.8906C370.7272,-51.2846 427.2019,-34.1753 465.6551,-22.5257"/>
<polygon fill="#191970" stroke="#191970" points="466.9484,-25.791 475.504,-19.5419 464.9187,-19.0917 466.9484,-25.791"/>
</g>
</g>
</svg>
