<?xml version="1.0" encoding="UTF-8" standalone="no"?>
<!DOCTYPE svg PUBLIC "-//W3C//DTD SVG 1.1//EN"
 "http://www.w3.org/Graphics/SVG/1.1/DTD/svg11.dtd">
<!-- Generated by graphviz version 2.40.1 (20161225.0304)
 -->
<!-- Title: openage::ActionMode::place_selection Pages: 1 -->
<!--zoomable 592 -->
<svg id="main" version="1.1" xmlns="http://www.w3.org/2000/svg" xmlns:xlink="http://www.w3.org/1999/xlink" xml:space="preserve" onload="init(evt)">
<style type="text/css"><![CDATA[
.edge:hover path { stroke: red; }
.edge:hover polygon { stroke: red; fill: red; }
]]></style>
<script type="text/javascript"><![CDATA[
var edges = document.getElementsByTagName('g');
if (edges && edges.length) {
  for (var i=0;i<edges.length;i++) {
    if (edges[i].id.substr(0,4)=='edge') {
      edges[i].setAttribute('class','edge');
    }
  }
}
]]></script>
        <defs>
                <circle id="rim" cx="0" cy="0" r="7"/>
                <circle id="rim2" cx="0" cy="0" r="3.5"/>
                <g id="zoomPlus">
                        <use xlink:href="#rim" fill="#404040">
                                <set attributeName="fill" to="#808080" begin="zoomplus.mouseover" end="zoomplus.mouseout"/>
                        </use>
                        <path d="M-4,0h8M0,-4v8" fill="none" stroke="white" stroke-width="1.5" pointer-events="none"/>
                </g>
                <g id="zoomMin">
                        <use xlink:href="#rim" fill="#404040">
                                <set attributeName="fill" to="#808080" begin="zoomminus.mouseover" end="zoomminus.mouseout"/>
                        </use>
                        <path d="M-4,0h8" fill="none" stroke="white" stroke-width="1.5" pointer-events="none"/>
                </g>
                <g id="dirArrow">
                        <path fill="none" stroke="white" stroke-width="1.5" d="M0,-3.0v7 M-2.5,-0.5L0,-3.0L2.5,-0.5"/>
                </g>
               <g id="resetDef">
                       <use xlink:href="#rim2" fill="#404040">
                               <set attributeName="fill" to="#808080" begin="reset.mouseover" end="reset.mouseout"/>
                       </use>
               </g>
        </defs>

<script type="text/javascript">
var viewWidth = 1153;
var viewHeight = 592;
var sectionId = 'dynsection-16';
</script>
<script xlink:href="../../svgpan.js"/>
<svg id="graph" class="graph">
<g id="viewport">
<title>openage::ActionMode::place_selection</title>
<polygon fill="#ffffff" stroke="transparent" points="-4,4 -4,-587.5033 1149,-587.5033 1149,4 -4,4"/>
<!-- Node238 -->
<g id="node1" class="node">
<title>Node238</title>
<polygon fill="#bfbfbf" stroke="#000000" points="0,-208.5 0,-238.5 111,-238.5 111,-208.5 0,-208.5"/>
<text text-anchor="start" x="8" y="-226.5" font-family="Helvetica,sans-Serif" font-size="10.00" fill="#000000">openage::ActionMode</text>
<text text-anchor="middle" x="55.5" y="-215.5" font-family="Helvetica,sans-Serif" font-size="10.00" fill="#000000">::place_selection</text>
</g>
<!-- Node239 -->
<g id="node2" class="node">
<title>Node239</title>
<g id="a_node2"><a xlink:href="../../d9/de2/classopenage_1_1_unit_selection.xhtml#a0ad857ab54207bdaa9719fc01410f101" target="_top" xlink:title="uses command on every selected unit ">
<polygon fill="#ffffff" stroke="#000000" points="159,-421.5 159,-451.5 277,-451.5 277,-421.5 159,-421.5"/>
<text text-anchor="start" x="167" y="-439.5" font-family="Helvetica,sans-Serif" font-size="10.00" fill="#000000">openage::UnitSelection</text>
<text text-anchor="middle" x="218" y="-428.5" font-family="Helvetica,sans-Serif" font-size="10.00" fill="#000000">::all_invoke</text>
</a>
</g>
</g>
<!-- Node238&#45;&gt;Node239 -->
<g id="edge1" class="edge">
<title>Node238&#45;&gt;Node239</title>
<path fill="none" stroke="#191970" d="M58.6253,-238.6773C66.7345,-274.271 91.7803,-363.7797 147,-412.5 148.3416,-413.6837 149.7438,-414.8094 151.1964,-415.88"/>
<polygon fill="#191970" stroke="#191970" points="149.6684,-419.0543 159.9937,-421.4289 153.4029,-413.1336 149.6684,-419.0543"/>
</g>
<!-- Node240 -->
<g id="node3" class="node">
<title>Node240</title>
<g id="a_node3"><a xlink:href="../../d5/d9d/namespaceopenage_1_1curve_1_1tests.xhtml#afc4e799a037edab37e1e35a74da593b7" target="_top" xlink:title="openage::curve::tests\l::container">
<polygon fill="#ffffff" stroke="#000000" points="162.5,-372.5 162.5,-402.5 273.5,-402.5 273.5,-372.5 162.5,-372.5"/>
<text text-anchor="start" x="170.5" y="-390.5" font-family="Helvetica,sans-Serif" font-size="10.00" fill="#000000">openage::curve::tests</text>
<text text-anchor="middle" x="218" y="-379.5" font-family="Helvetica,sans-Serif" font-size="10.00" fill="#000000">::container</text>
</a>
</g>
</g>
<!-- Node238&#45;&gt;Node240 -->
<g id="edge2" class="edge">
<title>Node238&#45;&gt;Node240</title>
<path fill="none" stroke="#191970" d="M65.1227,-238.8032C80.477,-262.4486 112.3412,-308.4751 147,-340.5 157.5552,-350.2531 170.333,-359.3767 182.123,-366.9425"/>
<polygon fill="#191970" stroke="#191970" points="180.5554,-370.0895 190.8932,-372.409 184.2581,-364.149 180.5554,-370.0895"/>
</g>
<!-- Node256 -->
<g id="node19" class="node">
<title>Node256</title>
<g id="a_node19"><a xlink:href="../../d8/d5b/classopenage_1_1_resource_cost.xhtml#a916923be9959f675aadb992258068e32" target="_top" xlink:title="Returns the cost. ">
<polygon fill="#ffffff" stroke="#000000" points="147,-312 147,-331 289,-331 289,-312 147,-312"/>
<text text-anchor="middle" x="218" y="-319" font-family="Helvetica,sans-Serif" font-size="10.00" fill="#000000">openage::ResourceCost::get</text>
</a>
</g>
</g>
<!-- Node238&#45;&gt;Node256 -->
<g id="edge27" class="edge">
<title>Node238&#45;&gt;Node256</title>
<path fill="none" stroke="#191970" d="M70.7698,-238.7438C87.9918,-255.2059 117.4655,-281.2496 147,-297.5 154.7858,-301.7839 163.4707,-305.4902 172.0208,-308.6222"/>
<polygon fill="#191970" stroke="#191970" points="170.967,-311.961 181.5617,-311.9145 173.2504,-305.3439 170.967,-311.961"/>
</g>
<!-- Node260 -->
<g id="node23" class="node">
<title>Node260</title>
<g id="a_node23"><a xlink:href="../../d3/d37/classopenage_1_1_unit_reference.xhtml#a6303ff3facc18acf10aa335ee9d318d8" target="_top" xlink:title="openage::UnitReference::get">
<polygon fill="#ffffff" stroke="#000000" points="147,-236 147,-255 289,-255 289,-236 147,-236"/>
<text text-anchor="middle" x="218" y="-243" font-family="Helvetica,sans-Serif" font-size="10.00" fill="#000000">openage::UnitReference::get</text>
</a>
</g>
</g>
<!-- Node238&#45;&gt;Node260 -->
<g id="edge31" class="edge">
<title>Node238&#45;&gt;Node260</title>
<path fill="none" stroke="#191970" d="M111.4233,-231.0712C119.8947,-232.218 128.7742,-233.4202 137.6396,-234.6204"/>
<polygon fill="#191970" stroke="#191970" points="137.2412,-238.0984 147.6204,-235.9717 138.1804,-231.1616 137.2412,-238.0984"/>
</g>
<!-- Node261 -->
<g id="node24" class="node">
<title>Node261</title>
<g id="a_node24"><a xlink:href="../../d3/d37/classopenage_1_1_unit_reference.xhtml#a55afff48cc1901715f3c29383969d2ac" target="_top" xlink:title="openage::UnitReference\l::is_valid">
<polygon fill="#ffffff" stroke="#000000" points="333,-230.5 333,-260.5 455,-260.5 455,-230.5 333,-230.5"/>
<text text-anchor="start" x="341" y="-248.5" font-family="Helvetica,sans-Serif" font-size="10.00" fill="#000000">openage::UnitReference</text>
<text text-anchor="middle" x="394" y="-237.5" font-family="Helvetica,sans-Serif" font-size="10.00" fill="#000000">::is_valid</text>
</a>
</g>
</g>
<!-- Node238&#45;&gt;Node261 -->
<g id="edge39" class="edge">
<title>Node238&#45;&gt;Node261</title>
<path fill="none" stroke="#191970" d="M81.3152,-238.6093C99.114,-248.1224 123.6791,-259.5139 147,-264.5 205.4308,-276.9926 273.1866,-270.3303 322.9376,-261.6241"/>
<polygon fill="#191970" stroke="#191970" points="323.7431,-265.0351 332.9548,-259.8012 322.4898,-258.1482 323.7431,-265.0351"/>
</g>
<!-- Node263 -->
<g id="node26" class="node">
<title>Node263</title>
<g id="a_node26"><a xlink:href="../../d8/db5/classopenage_1_1_game_control.xhtml#aa7c61c3caafc810355005e83c8f234e2" target="_top" xlink:title="openage::GameControl\l::get_current_player">
<polygon fill="#ffffff" stroke="#000000" points="159.5,-137.5 159.5,-167.5 276.5,-167.5 276.5,-137.5 159.5,-137.5"/>
<text text-anchor="start" x="167.5" y="-155.5" font-family="Helvetica,sans-Serif" font-size="10.00" fill="#000000">openage::GameControl</text>
<text text-anchor="middle" x="218" y="-144.5" font-family="Helvetica,sans-Serif" font-size="10.00" fill="#000000">::get_current_player</text>
</a>
</g>
</g>
<!-- Node238&#45;&gt;Node263 -->
<g id="edge34" class="edge">
<title>Node238&#45;&gt;Node263</title>
<path fill="none" stroke="#191970" d="M83.098,-208.4702C101.034,-198.9923 125.0761,-186.826 147,-177.5 152.1108,-175.326 157.4815,-173.1847 162.8849,-171.1254"/>
<polygon fill="#191970" stroke="#191970" points="164.4421,-174.2807 172.5974,-167.5175 162.0045,-167.7188 164.4421,-174.2807"/>
</g>
<!-- Node264 -->
<g id="node27" class="node">
<title>Node264</title>
<g id="a_node27"><a xlink:href="../../d6/d40/classopenage_1_1_engine.xhtml#a3e79c3919abbc3cab0716e4807f7c93e" target="_top" xlink:title="return currently running game or null if a game is not currently running ">
<polygon fill="#ffffff" stroke="#000000" points="325,-121 325,-140 463,-140 463,-121 325,-121"/>
<text text-anchor="middle" x="394" y="-128" font-family="Helvetica,sans-Serif" font-size="10.00" fill="#000000">openage::Engine::get_game</text>
</a>
</g>
</g>
<!-- Node238&#45;&gt;Node264 -->
<g id="edge38" class="edge">
<title>Node238&#45;&gt;Node264</title>
<path fill="none" stroke="#191970" d="M64.3607,-208.2089C78.4839,-185.5602 108.4805,-143.9995 147,-127.5 211.675,-99.7971 294.8997,-108.8342 346.3354,-118.8982"/>
<polygon fill="#191970" stroke="#191970" points="345.685,-122.3376 356.1838,-120.9141 347.0888,-115.4798 345.685,-122.3376"/>
</g>
<!-- Node265 -->
<g id="node28" class="node">
<title>Node265</title>
<g id="a_node28"><a xlink:href="../../d8/db5/classopenage_1_1_game_control.xhtml#aed1e983dee9b075a3343b72aed5678bd" target="_top" xlink:title="openage::GameControl\l::get_engine">
<polygon fill="#ffffff" stroke="#000000" points="159.5,-186.5 159.5,-216.5 276.5,-216.5 276.5,-186.5 159.5,-186.5"/>
<text text-anchor="start" x="167.5" y="-204.5" font-family="Helvetica,sans-Serif" font-size="10.00" fill="#000000">openage::GameControl</text>
<text text-anchor="middle" x="218" y="-193.5" font-family="Helvetica,sans-Serif" font-size="10.00" fill="#000000">::get_engine</text>
</a>
</g>
</g>
<!-- Node238&#45;&gt;Node265 -->
<g id="edge36" class="edge">
<title>Node238&#45;&gt;Node265</title>
<path fill="none" stroke="#191970" d="M111.4233,-215.9288C123.666,-214.2714 136.761,-212.4985 149.434,-210.7828"/>
<polygon fill="#191970" stroke="#191970" points="150.0427,-214.2324 159.4827,-209.4223 149.1035,-207.2957 150.0427,-214.2324"/>
</g>
<!-- Node266 -->
<g id="node29" class="node">
<title>Node266</title>
<g id="a_node29"><a xlink:href="../../d2/d82/classopenage_1_1_unit_container.xhtml#a39947500d16e9d67eb72458f3df7c796" target="_top" xlink:title="creates a new unit without initialising ">
<polygon fill="#ffffff" stroke="#000000" points="158.5,-49.5 158.5,-79.5 277.5,-79.5 277.5,-49.5 158.5,-49.5"/>
<text text-anchor="start" x="166.5" y="-67.5" font-family="Helvetica,sans-Serif" font-size="10.00" fill="#000000">openage::UnitContainer</text>
<text text-anchor="middle" x="218" y="-56.5" font-family="Helvetica,sans-Serif" font-size="10.00" fill="#000000">::new_unit</text>
</a>
</g>
</g>
<!-- Node238&#45;&gt;Node266 -->
<g id="edge40" class="edge">
<title>Node238&#45;&gt;Node266</title>
<path fill="none" stroke="#191970" d="M62.7085,-208.2959C75.9511,-181.8257 106.5443,-127.0026 147,-94.5 151.8606,-90.5949 157.3039,-87.1176 162.9567,-84.0416"/>
<polygon fill="#191970" stroke="#191970" points="164.5837,-87.1412 171.9585,-79.5345 161.4497,-80.882 164.5837,-87.1412"/>
</g>
<!-- Node267 -->
<g id="node30" class="node">
<title>Node267</title>
<g id="a_node30"><a xlink:href="../../d8/dda/classopenage_1_1_command.xhtml#a5783c26abcea9f286be58aa29de1e548" target="_top" xlink:title="sets invoked ability type, no other type may be used if this gets set ">
<polygon fill="#ffffff" stroke="#000000" points="156,-.5 156,-30.5 280,-30.5 280,-.5 156,-.5"/>
<text text-anchor="start" x="164" y="-18.5" font-family="Helvetica,sans-Serif" font-size="10.00" fill="#000000">openage::Command::set</text>
<text text-anchor="middle" x="218" y="-7.5" font-family="Helvetica,sans-Serif" font-size="10.00" fill="#000000">_ability</text>
</a>
</g>
</g>
<!-- Node238&#45;&gt;Node267 -->
<g id="edge41" class="edge">
<title>Node238&#45;&gt;Node267</title>
<path fill="none" stroke="#191970" d="M58.8117,-208.4605C67.253,-173.6241 92.8431,-86.7743 147,-39.5 148.3478,-38.3235 149.7557,-37.2041 151.2132,-36.1391"/>
<polygon fill="#191970" stroke="#191970" points="153.4154,-38.8897 160.0326,-30.6154 149.6998,-32.9572 153.4154,-38.8897"/>
</g>
<!-- Node241 -->
<g id="node4" class="node">
<title>Node241</title>
<g id="a_node4"><a xlink:href="../../d5/d9d/namespaceopenage_1_1curve_1_1tests.xhtml#aafe8d47259322a390c43cae62d308296" target="_top" xlink:title="openage::curve::tests\l::test_map">
<polygon fill="#ffffff" stroke="#000000" points="671,-287.5 671,-317.5 782,-317.5 782,-287.5 671,-287.5"/>
<text text-anchor="start" x="679" y="-305.5" font-family="Helvetica,sans-Serif" font-size="10.00" fill="#000000">openage::curve::tests</text>
<text text-anchor="middle" x="726.5" y="-294.5" font-family="Helvetica,sans-Serif" font-size="10.00" fill="#000000">::test_map</text>
</a>
</g>
</g>
<!-- Node240&#45;&gt;Node241 -->
<g id="edge3" class="edge">
<title>Node240&#45;&gt;Node241</title>
<path fill="none" stroke="#191970" d="M273.6321,-398.0769C356.0395,-410.9411 513.3574,-424.5807 630,-368.5 651.8549,-357.9923 646.2784,-341.6106 666,-327.5 668.6342,-325.6153 671.4317,-323.8403 674.3235,-322.1741"/>
<polygon fill="#191970" stroke="#191970" points="675.9903,-325.2521 683.2128,-317.5005 672.7328,-319.0562 675.9903,-325.2521"/>
</g>
<!-- Node248 -->
<g id="node11" class="node">
<title>Node248</title>
<g id="a_node11"><a xlink:href="../../d5/d9d/namespaceopenage_1_1curve_1_1tests.xhtml#a994d019a14acd704605a0ccff85558c8" target="_top" xlink:title="openage::curve::tests\l::test_list">
<polygon fill="#ffffff" stroke="#000000" points="338.5,-487.5 338.5,-517.5 449.5,-517.5 449.5,-487.5 338.5,-487.5"/>
<text text-anchor="start" x="346.5" y="-505.5" font-family="Helvetica,sans-Serif" font-size="10.00" fill="#000000">openage::curve::tests</text>
<text text-anchor="middle" x="394" y="-494.5" font-family="Helvetica,sans-Serif" font-size="10.00" fill="#000000">::test_list</text>
</a>
</g>
</g>
<!-- Node240&#45;&gt;Node248 -->
<g id="edge13" class="edge">
<title>Node240&#45;&gt;Node248</title>
<path fill="none" stroke="#191970" d="M273.7042,-402.5043C279.1963,-405.3016 284.4217,-408.6044 289,-412.5 314.4479,-434.153 299.5109,-456.8957 325,-478.5 326.5239,-479.7916 328.1214,-481.0151 329.7777,-482.174"/>
<polygon fill="#191970" stroke="#191970" points="328.1147,-485.2587 338.4812,-487.4465 331.7416,-479.2716 328.1147,-485.2587"/>
</g>
<!-- Node249 -->
<g id="node12" class="node">
<title>Node249</title>
<g id="a_node12"><a xlink:href="../../d5/d9d/namespaceopenage_1_1curve_1_1tests.xhtml#ae4b27fadf76c2a10960f6b7e7ff7c724" target="_top" xlink:title="openage::curve::tests\l::test_queue">
<polygon fill="#ffffff" stroke="#000000" points="338.5,-438.5 338.5,-468.5 449.5,-468.5 449.5,-438.5 338.5,-438.5"/>
<text text-anchor="start" x="346.5" y="-456.5" font-family="Helvetica,sans-Serif" font-size="10.00" fill="#000000">openage::curve::tests</text>
<text text-anchor="middle" x="394" y="-445.5" font-family="Helvetica,sans-Serif" font-size="10.00" fill="#000000">::test_queue</text>
</a>
</g>
</g>
<!-- Node240&#45;&gt;Node249 -->
<g id="edge14" class="edge">
<title>Node240&#45;&gt;Node249</title>
<path fill="none" stroke="#191970" d="M261.6396,-402.6055C270.7035,-405.8159 280.1789,-409.2258 289,-412.5 307.8855,-419.5098 328.5601,-427.5114 346.5316,-434.5738"/>
<polygon fill="#191970" stroke="#191970" points="345.6222,-437.9774 356.2091,-438.3884 348.1893,-431.465 345.6222,-437.9774"/>
</g>
<!-- Node242 -->
<g id="node5" class="node">
<title>Node242</title>
<g id="a_node5"><a xlink:href="../../dd/dcf/classopenage_1_1curve_1_1_unordered_map.xhtml#af1b1051f0bf23fc91b3f153b8a9ba2df" target="_top" xlink:title="openage::curve::Unordered\lMap::insert">
<polygon fill="#ffffff" stroke="#000000" points="826,-397.5 826,-427.5 960,-427.5 960,-397.5 826,-397.5"/>
<text text-anchor="start" x="834" y="-415.5" font-family="Helvetica,sans-Serif" font-size="10.00" fill="#000000">openage::curve::Unordered</text>
<text text-anchor="middle" x="893" y="-404.5" font-family="Helvetica,sans-Serif" font-size="10.00" fill="#000000">Map::insert</text>
</a>
</g>
</g>
<!-- Node241&#45;&gt;Node242 -->
<g id="edge4" class="edge">
<title>Node241&#45;&gt;Node242</title>
<path fill="none" stroke="#191970" d="M772.332,-317.6106C777.5879,-320.4236 782.6224,-323.7011 787,-327.5 810.7758,-348.1331 798.6005,-368.6084 823,-388.5 824.5683,-389.7786 826.2086,-390.9906 827.9061,-392.1396"/>
<polygon fill="#191970" stroke="#191970" points="826.4079,-395.3189 836.8016,-397.3736 829.9577,-389.2858 826.4079,-395.3189"/>
</g>
<!-- Node244 -->
<g id="node7" class="node">
<title>Node244</title>
<g id="a_node7"><a xlink:href="../../dd/dcf/classopenage_1_1curve_1_1_unordered_map.xhtml#ab7e91da88c63f0bc632cf38572706fc5" target="_top" xlink:title="openage::curve::Unordered\lMap::at">
<polygon fill="#ffffff" stroke="#000000" points="826,-348.5 826,-378.5 960,-378.5 960,-348.5 826,-348.5"/>
<text text-anchor="start" x="834" y="-366.5" font-family="Helvetica,sans-Serif" font-size="10.00" fill="#000000">openage::curve::Unordered</text>
<text text-anchor="middle" x="893" y="-355.5" font-family="Helvetica,sans-Serif" font-size="10.00" fill="#000000">Map::at</text>
</a>
</g>
</g>
<!-- Node241&#45;&gt;Node244 -->
<g id="edge6" class="edge">
<title>Node241&#45;&gt;Node244</title>
<path fill="none" stroke="#191970" d="M764.8872,-317.5807C782.5337,-324.4198 803.7729,-332.5204 823,-339.5 828.0569,-341.3357 833.3324,-343.213 838.6197,-345.0692"/>
<polygon fill="#191970" stroke="#191970" points="837.51,-348.3888 848.1048,-348.374 839.8132,-341.7786 837.51,-348.3888"/>
</g>
<!-- Node245 -->
<g id="node8" class="node">
<title>Node245</title>
<g id="a_node8"><a xlink:href="../../dd/dcf/classopenage_1_1curve_1_1_unordered_map.xhtml#a3d59e255c6113d5e517ba2f69e6927ea" target="_top" xlink:title="openage::curve::Unordered\lMap::begin">
<polygon fill="#ffffff" stroke="#000000" points="826,-299.5 826,-329.5 960,-329.5 960,-299.5 826,-299.5"/>
<text text-anchor="start" x="834" y="-317.5" font-family="Helvetica,sans-Serif" font-size="10.00" fill="#000000">openage::curve::Unordered</text>
<text text-anchor="middle" x="893" y="-306.5" font-family="Helvetica,sans-Serif" font-size="10.00" fill="#000000">Map::begin</text>
</a>
</g>
</g>
<!-- Node241&#45;&gt;Node245 -->
<g id="edge8" class="edge">
<title>Node241&#45;&gt;Node245</title>
<path fill="none" stroke="#191970" d="M782.4053,-306.5292C793.1102,-307.3007 804.4937,-308.1212 815.7312,-308.9311"/>
<polygon fill="#191970" stroke="#191970" points="815.7608,-312.4422 825.9866,-309.6702 816.2641,-305.4603 815.7608,-312.4422"/>
</g>
<!-- Node246 -->
<g id="node9" class="node">
<title>Node246</title>
<g id="a_node9"><a xlink:href="../../dd/dcf/classopenage_1_1curve_1_1_unordered_map.xhtml#af9481e8e9e7cba29a319bd1bea5be0c8" target="_top" xlink:title="openage::curve::Unordered\lMap::end">
<polygon fill="#ffffff" stroke="#000000" points="826,-250.5 826,-280.5 960,-280.5 960,-250.5 826,-250.5"/>
<text text-anchor="start" x="834" y="-268.5" font-family="Helvetica,sans-Serif" font-size="10.00" fill="#000000">openage::curve::Unordered</text>
<text text-anchor="middle" x="893" y="-257.5" font-family="Helvetica,sans-Serif" font-size="10.00" fill="#000000">Map::end</text>
</a>
</g>
</g>
<!-- Node241&#45;&gt;Node246 -->
<g id="edge10" class="edge">
<title>Node241&#45;&gt;Node246</title>
<path fill="none" stroke="#191970" d="M782.4053,-290.0766C793.2194,-287.6735 804.7261,-285.1164 816.0751,-282.5944"/>
<polygon fill="#191970" stroke="#191970" points="816.984,-285.9779 825.9866,-280.3919 815.4654,-279.1446 816.984,-285.9779"/>
</g>
<!-- Node247 -->
<g id="node10" class="node">
<title>Node247</title>
<g id="a_node10"><a xlink:href="../../dd/dcf/classopenage_1_1curve_1_1_unordered_map.xhtml#a74e9ff15f6b3176742a166d7e7c7b5f2" target="_top" xlink:title="openage::curve::Unordered\lMap::between">
<polygon fill="#ffffff" stroke="#000000" points="826,-201.5 826,-231.5 960,-231.5 960,-201.5 826,-201.5"/>
<text text-anchor="start" x="834" y="-219.5" font-family="Helvetica,sans-Serif" font-size="10.00" fill="#000000">openage::curve::Unordered</text>
<text text-anchor="middle" x="893" y="-208.5" font-family="Helvetica,sans-Serif" font-size="10.00" fill="#000000">Map::between</text>
</a>
</g>
</g>
<!-- Node241&#45;&gt;Node247 -->
<g id="edge12" class="edge">
<title>Node241&#45;&gt;Node247</title>
<path fill="none" stroke="#191970" d="M747.5548,-287.2722C766.5942,-273.9766 795.7388,-254.782 823,-241.5 827.3395,-239.3858 831.9053,-237.3556 836.5388,-235.4301"/>
<polygon fill="#191970" stroke="#191970" points="838.0941,-238.5783 846.0935,-231.6314 835.5079,-232.0735 838.0941,-238.5783"/>
</g>
<!-- Node243 -->
<g id="node6" class="node">
<title>Node243</title>
<g id="a_node6"><a xlink:href="../../de/d06/namespaceopenage_1_1console_1_1tests.xhtml#a46ebd3333dc9196558ac9aced828d117" target="_top" xlink:title="openage::console::tests::max">
<polygon fill="#ffffff" stroke="#000000" points="999,-403 999,-422 1145,-422 1145,-403 999,-403"/>
<text text-anchor="middle" x="1072" y="-410" font-family="Helvetica,sans-Serif" font-size="10.00" fill="#000000">openage::console::tests::max</text>
</a>
</g>
</g>
<!-- Node242&#45;&gt;Node243 -->
<g id="edge5" class="edge">
<title>Node242&#45;&gt;Node243</title>
<path fill="none" stroke="#191970" d="M960.1623,-412.5C969.4145,-412.5 979.007,-412.5 988.5087,-412.5"/>
<polygon fill="#191970" stroke="#191970" points="988.7632,-416.0001 998.7632,-412.5 988.7631,-409.0001 988.7632,-416.0001"/>
</g>
<!-- Node244&#45;&gt;Node243 -->
<g id="edge7" class="edge">
<title>Node244&#45;&gt;Node243</title>
<path fill="none" stroke="#191970" d="M948.1665,-378.6014C973.6034,-385.5646 1003.4015,-393.7216 1027.3923,-400.2889"/>
<polygon fill="#191970" stroke="#191970" points="1026.7196,-403.7335 1037.2889,-402.9981 1028.5678,-396.9819 1026.7196,-403.7335"/>
</g>
<!-- Node245&#45;&gt;Node243 -->
<g id="edge9" class="edge">
<title>Node245&#45;&gt;Node243</title>
<path fill="none" stroke="#191970" d="M940.3604,-329.6107C948.064,-332.5789 955.8543,-335.901 963,-339.5 995.7493,-355.9945 1030.4181,-380.6152 1051.639,-396.6169"/>
<polygon fill="#191970" stroke="#191970" points="1049.7934,-399.6113 1059.8655,-402.8983 1054.0415,-394.0477 1049.7934,-399.6113"/>
</g>
<!-- Node246&#45;&gt;Node243 -->
<g id="edge11" class="edge">
<title>Node246&#45;&gt;Node243</title>
<path fill="none" stroke="#191970" d="M944.5373,-280.5261C951.0006,-283.3728 957.3257,-286.6816 963,-290.5 1005.3937,-319.0276 1042.0341,-367.7113 1060.0706,-394.1324"/>
<polygon fill="#191970" stroke="#191970" points="1057.3838,-396.4111 1065.8501,-402.7807 1063.2038,-392.5216 1057.3838,-396.4111"/>
</g>
<!-- Node250 -->
<g id="node13" class="node">
<title>Node250</title>
<g id="a_node13"><a xlink:href="../../df/d88/classopenage_1_1curve_1_1_queue.xhtml#ae7d94b0875221550e5af663a64ea2aec" target="_top" xlink:title="openage::curve::Queue\l::insert">
<polygon fill="#ffffff" stroke="#000000" points="505.5,-416.5 505.5,-446.5 623.5,-446.5 623.5,-416.5 505.5,-416.5"/>
<text text-anchor="start" x="513.5" y="-434.5" font-family="Helvetica,sans-Serif" font-size="10.00" fill="#000000">openage::curve::Queue</text>
<text text-anchor="middle" x="564.5" y="-423.5" font-family="Helvetica,sans-Serif" font-size="10.00" fill="#000000">::insert</text>
</a>
</g>
</g>
<!-- Node249&#45;&gt;Node250 -->
<g id="edge15" class="edge">
<title>Node249&#45;&gt;Node250</title>
<path fill="none" stroke="#191970" d="M449.8281,-446.2964C464.2685,-444.4331 479.9926,-442.4042 495.0371,-440.463"/>
<polygon fill="#191970" stroke="#191970" points="495.8499,-443.8872 505.3197,-439.1362 494.954,-436.9447 495.8499,-443.8872"/>
</g>
<!-- Node253 -->
<g id="node16" class="node">
<title>Node253</title>
<g id="a_node16"><a xlink:href="../../df/d88/classopenage_1_1curve_1_1_queue.xhtml#acbff846f0aad39b82c1dbffe83f80fba" target="_top" xlink:title="openage::curve::Queue\l::begin">
<polygon fill="#ffffff" stroke="#000000" points="667.5,-485.5 667.5,-515.5 785.5,-515.5 785.5,-485.5 667.5,-485.5"/>
<text text-anchor="start" x="675.5" y="-503.5" font-family="Helvetica,sans-Serif" font-size="10.00" fill="#000000">openage::curve::Queue</text>
<text text-anchor="middle" x="726.5" y="-492.5" font-family="Helvetica,sans-Serif" font-size="10.00" fill="#000000">::begin</text>
</a>
</g>
</g>
<!-- Node249&#45;&gt;Node253 -->
<g id="edge19" class="edge">
<title>Node249&#45;&gt;Node253</title>
<path fill="none" stroke="#191970" d="M449.653,-461.3667C506.7432,-469.4366 595.6778,-482.0078 657.2752,-490.7148"/>
<polygon fill="#191970" stroke="#191970" points="656.9068,-494.1975 667.2982,-492.1316 657.8865,-487.2664 656.9068,-494.1975"/>
</g>
<!-- Node254 -->
<g id="node17" class="node">
<title>Node254</title>
<g id="a_node17"><a xlink:href="../../df/d88/classopenage_1_1curve_1_1_queue.xhtml#a3a60297cec80ae6d759ea3567922db8e" target="_top" xlink:title="openage::curve::Queue::end">
<polygon fill="#ffffff" stroke="#000000" points="823,-531 823,-550 963,-550 963,-531 823,-531"/>
<text text-anchor="middle" x="893" y="-538" font-family="Helvetica,sans-Serif" font-size="10.00" fill="#000000">openage::curve::Queue::end</text>
</a>
</g>
</g>
<!-- Node249&#45;&gt;Node254 -->
<g id="edge26" class="edge">
<title>Node249&#45;&gt;Node254</title>
<path fill="none" stroke="#191970" d="M448.1407,-468.6604C453.4771,-471.4285 458.5535,-474.6817 463,-478.5 488.3496,-500.2679 470.268,-527.4437 499,-544.5 613.0456,-612.2012 780.3354,-575.0615 854.807,-553.0511"/>
<polygon fill="#191970" stroke="#191970" points="856.1288,-556.3078 864.6841,-550.0582 854.0988,-549.6086 856.1288,-556.3078"/>
</g>
<!-- Node255 -->
<g id="node18" class="node">
<title>Node255</title>
<g id="a_node18"><a xlink:href="../../df/d88/classopenage_1_1curve_1_1_queue.xhtml#a3ba35a56fa550d939d0d16c71c63e56c" target="_top" xlink:title="openage::curve::Queue\l::between">
<polygon fill="#ffffff" stroke="#000000" points="505.5,-504.5 505.5,-534.5 623.5,-534.5 623.5,-504.5 505.5,-504.5"/>
<text text-anchor="start" x="513.5" y="-522.5" font-family="Helvetica,sans-Serif" font-size="10.00" fill="#000000">openage::curve::Queue</text>
<text text-anchor="middle" x="564.5" y="-511.5" font-family="Helvetica,sans-Serif" font-size="10.00" fill="#000000">::between</text>
</a>
</g>
</g>
<!-- Node249&#45;&gt;Node255 -->
<g id="edge23" class="edge">
<title>Node249&#45;&gt;Node255</title>
<path fill="none" stroke="#191970" d="M436.4191,-468.5949C445.2271,-471.806 454.4331,-475.219 463,-478.5 481.2691,-485.4968 501.2572,-493.4958 518.628,-500.5598"/>
<polygon fill="#191970" stroke="#191970" points="517.4003,-503.839 527.9816,-504.3758 520.0446,-497.3576 517.4003,-503.839"/>
</g>
<!-- Node250&#45;&gt;Node243 -->
<g id="edge18" class="edge">
<title>Node250&#45;&gt;Node243</title>
<path fill="none" stroke="#191970" d="M623.8073,-437.094C701.8596,-443.3823 843.1984,-451.0626 963,-437.5 985.1147,-434.9964 1009.2798,-429.7222 1029.2249,-424.6606"/>
<polygon fill="#191970" stroke="#191970" points="1030.1485,-428.0369 1038.9424,-422.1278 1028.3829,-421.2632 1030.1485,-428.0369"/>
</g>
<!-- Node251 -->
<g id="node14" class="node">
<title>Node251</title>
<g id="a_node14"><a xlink:href="../../d4/d69/structopenage_1_1curve_1_1_queue_1_1queue__wrapper.xhtml#ac9a915e29db89fbd0731899d845db899" target="_top" xlink:title="openage::curve::Queue\l::queue_wrapper::time">
<polygon fill="#ffffff" stroke="#000000" points="667.5,-397.5 667.5,-427.5 785.5,-427.5 785.5,-397.5 667.5,-397.5"/>
<text text-anchor="start" x="675.5" y="-415.5" font-family="Helvetica,sans-Serif" font-size="10.00" fill="#000000">openage::curve::Queue</text>
<text text-anchor="middle" x="726.5" y="-404.5" font-family="Helvetica,sans-Serif" font-size="10.00" fill="#000000">::queue_wrapper::time</text>
</a>
</g>
</g>
<!-- Node250&#45;&gt;Node251 -->
<g id="edge16" class="edge">
<title>Node250&#45;&gt;Node251</title>
<path fill="none" stroke="#191970" d="M623.9029,-424.533C634.7575,-423.2599 646.1704,-421.9214 657.281,-420.6183"/>
<polygon fill="#191970" stroke="#191970" points="657.8508,-424.0755 667.375,-419.4344 657.0354,-417.1232 657.8508,-424.0755"/>
</g>
<!-- Node252 -->
<g id="node15" class="node">
<title>Node252</title>
<g id="a_node15"><a xlink:href="../../d4/d69/structopenage_1_1curve_1_1_queue_1_1queue__wrapper.xhtml#a9f13d26ca7d8cc64b9b4d003c7d18873" target="_top" xlink:title="openage::curve::Queue\l::queue_wrapper::queue\l_wrapper">
<polygon fill="#ffffff" stroke="#000000" points="666,-337 666,-378 787,-378 787,-337 666,-337"/>
<text text-anchor="start" x="674" y="-366" font-family="Helvetica,sans-Serif" font-size="10.00" fill="#000000">openage::curve::Queue</text>
<text text-anchor="start" x="674" y="-355" font-family="Helvetica,sans-Serif" font-size="10.00" fill="#000000">::queue_wrapper::queue</text>
<text text-anchor="middle" x="726.5" y="-344" font-family="Helvetica,sans-Serif" font-size="10.00" fill="#000000">_wrapper</text>
</a>
</g>
</g>
<!-- Node250&#45;&gt;Node252 -->
<g id="edge17" class="edge">
<title>Node250&#45;&gt;Node252</title>
<path fill="none" stroke="#191970" d="M597.674,-416.3464C619.0976,-406.5604 647.4753,-393.5977 672.143,-382.3297"/>
<polygon fill="#191970" stroke="#191970" points="673.7516,-385.4429 681.3933,-378.1043 670.8431,-379.0757 673.7516,-385.4429"/>
</g>
<!-- Node253&#45;&gt;Node243 -->
<g id="edge20" class="edge">
<title>Node253&#45;&gt;Node243</title>
<path fill="none" stroke="#191970" d="M785.598,-498.9165C834.2248,-496.2227 904.4234,-489.1082 963,-470.5 994.6774,-460.437 1027.9687,-441.2866 1049.298,-427.7486"/>
<polygon fill="#191970" stroke="#191970" points="1051.4454,-430.5278 1057.9372,-422.1548 1047.6408,-424.6519 1051.4454,-430.5278"/>
</g>
<!-- Node253&#45;&gt;Node254 -->
<g id="edge21" class="edge">
<title>Node253&#45;&gt;Node254</title>
<path fill="none" stroke="#191970" d="M785.6705,-514.7151C804.5983,-519.2623 825.343,-524.2461 843.5067,-528.6097"/>
<polygon fill="#191970" stroke="#191970" points="842.7633,-532.0306 853.3042,-530.9635 844.3985,-525.2243 842.7633,-532.0306"/>
</g>
<!-- Node254&#45;&gt;Node243 -->
<g id="edge22" class="edge">
<title>Node254&#45;&gt;Node243</title>
<path fill="none" stroke="#191970" d="M922.3727,-530.9135C935.3362,-526.0425 950.4461,-519.4594 963,-511.5 1000.3316,-487.831 1036.9599,-450.9711 1056.804,-429.5373"/>
<polygon fill="#191970" stroke="#191970" points="1059.4006,-431.8843 1063.5542,-422.1376 1054.229,-427.1668 1059.4006,-431.8843"/>
</g>
<!-- Node255&#45;&gt;Node253 -->
<g id="edge24" class="edge">
<title>Node255&#45;&gt;Node253</title>
<path fill="none" stroke="#191970" d="M623.9029,-512.533C634.7575,-511.2599 646.1704,-509.9214 657.281,-508.6183"/>
<polygon fill="#191970" stroke="#191970" points="657.8508,-512.0755 667.375,-507.4344 657.0354,-505.1232 657.8508,-512.0755"/>
</g>
<!-- Node255&#45;&gt;Node254 -->
<g id="edge25" class="edge">
<title>Node255&#45;&gt;Node254</title>
<path fill="none" stroke="#191970" d="M623.6086,-523.2786C676.4089,-526.654 754.2169,-531.628 812.6537,-535.3637"/>
<polygon fill="#191970" stroke="#191970" points="812.7576,-538.8774 822.9605,-536.0226 813.2042,-531.8917 812.7576,-538.8774"/>
</g>
<!-- Node257 -->
<g id="node20" class="node">
<title>Node257</title>
<g id="a_node20"><a xlink:href="../../d2/de9/classopenage_1_1_resource_bundle.xhtml#aec4c3c3cae1b78ff42a0bc533929e51c" target="_top" xlink:title="openage::ResourceBundle\l::clone">
<polygon fill="#ffffff" stroke="#000000" points="328.5,-328.5 328.5,-358.5 459.5,-358.5 459.5,-328.5 328.5,-328.5"/>
<text text-anchor="start" x="336.5" y="-346.5" font-family="Helvetica,sans-Serif" font-size="10.00" fill="#000000">openage::ResourceBundle</text>
<text text-anchor="middle" x="394" y="-335.5" font-family="Helvetica,sans-Serif" font-size="10.00" fill="#000000">::clone</text>
</a>
</g>
</g>
<!-- Node256&#45;&gt;Node257 -->
<g id="edge28" class="edge">
<title>Node256&#45;&gt;Node257</title>
<path fill="none" stroke="#191970" d="M289.0786,-330.3848C298.7084,-331.5885 308.6191,-332.8274 318.3257,-334.0407"/>
<polygon fill="#191970" stroke="#191970" points="317.9899,-337.5259 328.3468,-335.2933 318.8582,-330.5799 317.9899,-337.5259"/>
</g>
<!-- Node259 -->
<g id="node22" class="node">
<title>Node259</title>
<g id="a_node22"><a xlink:href="../../d8/d47/classopenage_1_1_player.xhtml#af95cd6a1823c78ef20a347369901830d" target="_top" xlink:title="The number of units considered part of the workforce. ">
<polygon fill="#ffffff" stroke="#000000" points="340.5,-279.5 340.5,-309.5 447.5,-309.5 447.5,-279.5 340.5,-279.5"/>
<text text-anchor="start" x="348.5" y="-297.5" font-family="Helvetica,sans-Serif" font-size="10.00" fill="#000000">openage::Player::get</text>
<text text-anchor="middle" x="394" y="-286.5" font-family="Helvetica,sans-Serif" font-size="10.00" fill="#000000">_workforce_count</text>
</a>
</g>
</g>
<!-- Node256&#45;&gt;Node259 -->
<g id="edge30" class="edge">
<title>Node256&#45;&gt;Node259</title>
<path fill="none" stroke="#191970" d="M280.051,-311.9808C296.3606,-309.4788 313.9761,-306.7764 330.3673,-304.2618"/>
<polygon fill="#191970" stroke="#191970" points="331.0386,-307.6999 340.3923,-302.7239 329.9771,-300.7808 331.0386,-307.6999"/>
</g>
<!-- Node258 -->
<g id="node21" class="node">
<title>Node258</title>
<g id="a_node21"><a xlink:href="../../d2/de9/classopenage_1_1_resource_bundle.xhtml#acc8ae3310aa9478c9b4fee2cabc8134e" target="_top" xlink:title="openage::ResourceBundle\l::ResourceBundle">
<polygon fill="#ffffff" stroke="#000000" points="499,-328.5 499,-358.5 630,-358.5 630,-328.5 499,-328.5"/>
<text text-anchor="start" x="507" y="-346.5" font-family="Helvetica,sans-Serif" font-size="10.00" fill="#000000">openage::ResourceBundle</text>
<text text-anchor="middle" x="564.5" y="-335.5" font-family="Helvetica,sans-Serif" font-size="10.00" fill="#000000">::ResourceBundle</text>
</a>
</g>
</g>
<!-- Node257&#45;&gt;Node258 -->
<g id="edge29" class="edge">
<title>Node257&#45;&gt;Node258</title>
<path fill="none" stroke="#191970" d="M459.9198,-343.5C469.2789,-343.5 478.9661,-343.5 488.4973,-343.5"/>
<polygon fill="#191970" stroke="#191970" points="488.7556,-347.0001 498.7556,-343.5 488.7555,-340.0001 488.7556,-347.0001"/>
</g>
<!-- Node260&#45;&gt;Node261 -->
<g id="edge32" class="edge">
<title>Node260&#45;&gt;Node261</title>
<path fill="none" stroke="#191970" d="M289.0786,-245.5C300.1812,-245.5 311.6572,-245.5 322.7633,-245.5"/>
<polygon fill="#191970" stroke="#191970" points="322.8374,-249.0001 332.8374,-245.5 322.8374,-242.0001 322.8374,-249.0001"/>
</g>
<!-- Node262 -->
<g id="node25" class="node">
<title>Node262</title>
<g id="a_node25"><a xlink:href="../../dd/d1a/namespaceopenage_1_1log.xhtml#ab6b4b10be67af93ab6c4d5a36139736e" target="_top" xlink:title="error message ">
<polygon fill="#ffffff" stroke="#000000" points="352.5,-192 352.5,-211 435.5,-211 435.5,-192 352.5,-192"/>
<text text-anchor="middle" x="394" y="-199" font-family="Helvetica,sans-Serif" font-size="10.00" fill="#000000">openage.log.err</text>
</a>
</g>
</g>
<!-- Node260&#45;&gt;Node262 -->
<g id="edge33" class="edge">
<title>Node260&#45;&gt;Node262</title>
<path fill="none" stroke="#191970" d="M256.1894,-235.9527C282.4816,-229.3796 317.6192,-220.5952 345.833,-213.5417"/>
<polygon fill="#191970" stroke="#191970" points="347.0326,-216.8496 355.8852,-211.0287 345.3348,-210.0586 347.0326,-216.8496"/>
</g>
<!-- Node263&#45;&gt;Node264 -->
<g id="edge35" class="edge">
<title>Node263&#45;&gt;Node264</title>
<path fill="none" stroke="#191970" d="M276.6055,-145.1743C288.8356,-143.6456 301.9215,-142.0098 314.7564,-140.4054"/>
<polygon fill="#191970" stroke="#191970" points="315.4862,-143.8415 324.9749,-139.1281 314.6179,-136.8956 315.4862,-143.8415"/>
</g>
<!-- Node265&#45;&gt;Node262 -->
<g id="edge37" class="edge">
<title>Node265&#45;&gt;Node262</title>
<path fill="none" stroke="#191970" d="M276.6055,-201.5C297.8205,-201.5 321.6105,-201.5 342.199,-201.5"/>
<polygon fill="#191970" stroke="#191970" points="342.3323,-205.0001 352.3323,-201.5 342.3322,-198.0001 342.3323,-205.0001"/>
</g>
</g>
</svg>
        <g id="navigator" transform="translate(0 0)" fill="#404254">
                <rect fill="#f2f5e9" fill-opacity="0.5" stroke="#606060" stroke-width=".5" x="0" y="0" width="60" height="60"/>
                <use id="zoomplus" xlink:href="#zoomPlus" x="17" y="9" onmousedown="handleZoom(evt,'in')"/>
                <use id="zoomminus" xlink:href="#zoomMin" x="42" y="9" onmousedown="handleZoom(evt,'out')"/>
                <use id="reset" xlink:href="#resetDef" x="30" y="36" onmousedown="handleReset()"/>
                <g id="arrowUp" xlink:href="#dirArrow" transform="translate(30 24)" onmousedown="handlePan(0,-1)">
                  <use xlink:href="#rim" fill="#404040">
                        <set attributeName="fill" to="#808080" begin="arrowUp.mouseover" end="arrowUp.mouseout"/>
                  </use>
                  <path fill="none" stroke="white" stroke-width="1.5" d="M0,-3.0v7 M-2.5,-0.5L0,-3.0L2.5,-0.5"/>
                </g>
                <g id="arrowRight" xlink:href="#dirArrow" transform="rotate(90) translate(36 -43)" onmousedown="handlePan(1,0)">
                  <use xlink:href="#rim" fill="#404040">
                        <set attributeName="fill" to="#808080" begin="arrowRight.mouseover" end="arrowRight.mouseout"/>
                  </use>
                  <path fill="none" stroke="white" stroke-width="1.5" d="M0,-3.0v7 M-2.5,-0.5L0,-3.0L2.5,-0.5"/>
                </g>
                <g id="arrowDown" xlink:href="#dirArrow" transform="rotate(180) translate(-30 -48)" onmousedown="handlePan(0,1)">
                  <use xlink:href="#rim" fill="#404040">
                        <set attributeName="fill" to="#808080" begin="arrowDown.mouseover" end="arrowDown.mouseout"/>
                  </use>
                  <path fill="none" stroke="white" stroke-width="1.5" d="M0,-3.0v7 M-2.5,-0.5L0,-3.0L2.5,-0.5"/>
                </g>
                <g id="arrowLeft" xlink:href="#dirArrow" transform="rotate(270) translate(-36 17)" onmousedown="handlePan(-1,0)">
                  <use xlink:href="#rim" fill="#404040">
                        <set attributeName="fill" to="#808080" begin="arrowLeft.mouseover" end="arrowLeft.mouseout"/>
                  </use>
                  <path fill="none" stroke="white" stroke-width="1.5" d="M0,-3.0v7 M-2.5,-0.5L0,-3.0L2.5,-0.5"/>
                </g>
        </g>
        <svg viewBox="0 0 15 15" width="100%" height="30px" preserveAspectRatio="xMaxYMin meet">
         <g id="arrow_out" transform="scale(0.3 0.3)">
          <a xlink:href="classopenage_1_1_action_mode_a3865e557756044d8183a3d24cd5b8ab4_cgraph_org.svg" target="_base">
           <rect id="button" ry="5" rx="5" y="6" x="6" height="38" width="38"
                fill="#f2f5e9" fill-opacity="0.5" stroke="#606060" stroke-width="1.0"/>
           <path id="arrow"
             d="M 11.500037,31.436501 C 11.940474,20.09759 22.043105,11.32322 32.158766,21.979434 L 37.068811,17.246167 C 37.068811,17.246167 37.088388,32 37.088388,32 L 22.160133,31.978069 C 22.160133,31.978069 26.997745,27.140456 26.997745,27.140456 C 18.528582,18.264221 13.291696,25.230495 11.500037,31.436501 z"
             style="fill:#404040;"/>
          </a>
         </g>
        </svg>
</svg>
