<?xml version="1.0" encoding="UTF-8" standalone="no"?>
<!DOCTYPE svg PUBLIC "-//W3C//DTD SVG 1.1//EN"
 "http://www.w3.org/Graphics/SVG/1.1/DTD/svg11.dtd">
<!-- Generated by graphviz version 2.40.1 (20161225.0304)
 -->
<!-- Title: openage::ActionMode::render Pages: 1 -->
<!--zoomable 943 -->
<svg id="main" version="1.1" xmlns="http://www.w3.org/2000/svg" xmlns:xlink="http://www.w3.org/1999/xlink" xml:space="preserve" onload="init(evt)">
<style type="text/css"><![CDATA[
.edge:hover path { stroke: red; }
.edge:hover polygon { stroke: red; fill: red; }
]]></style>
<script type="text/javascript"><![CDATA[
var edges = document.getElementsByTagName('g');
if (edges && edges.length) {
  for (var i=0;i<edges.length;i++) {
    if (edges[i].id.substr(0,4)=='edge') {
      edges[i].setAttribute('class','edge');
    }
  }
}
]]></script>
        <defs>
                <circle id="rim" cx="0" cy="0" r="7"/>
                <circle id="rim2" cx="0" cy="0" r="3.5"/>
                <g id="zoomPlus">
                        <use xlink:href="#rim" fill="#404040">
                                <set attributeName="fill" to="#808080" begin="zoomplus.mouseover" end="zoomplus.mouseout"/>
                        </use>
                        <path d="M-4,0h8M0,-4v8" fill="none" stroke="white" stroke-width="1.5" pointer-events="none"/>
                </g>
                <g id="zoomMin">
                        <use xlink:href="#rim" fill="#404040">
                                <set attributeName="fill" to="#808080" begin="zoomminus.mouseover" end="zoomminus.mouseout"/>
                        </use>
                        <path d="M-4,0h8" fill="none" stroke="white" stroke-width="1.5" pointer-events="none"/>
                </g>
                <g id="dirArrow">
                        <path fill="none" stroke="white" stroke-width="1.5" d="M0,-3.0v7 M-2.5,-0.5L0,-3.0L2.5,-0.5"/>
                </g>
               <g id="resetDef">
                       <use xlink:href="#rim2" fill="#404040">
                               <set attributeName="fill" to="#808080" begin="reset.mouseover" end="reset.mouseout"/>
                       </use>
               </g>
        </defs>

<script type="text/javascript">
var viewWidth = 1002;
var viewHeight = 943;
var sectionId = 'dynsection-18';
</script>
<script xlink:href="../../svgpan.js"/>
<svg id="graph" class="graph">
<g id="viewport">
<title>openage::ActionMode::render</title>
<polygon fill="#ffffff" stroke="transparent" points="-4,4 -4,-938.5 998,-938.5 998,4 -4,4"/>
<!-- Node270 -->
<g id="node1" class="node">
<title>Node270</title>
<polygon fill="#bfbfbf" stroke="#000000" points="0,-657 0,-687 111,-687 111,-657 0,-657"/>
<text text-anchor="start" x="8" y="-675" font-family="Helvetica,sans-Serif" font-size="10.00" fill="#000000">openage::ActionMode</text>
<text text-anchor="middle" x="55.5" y="-664" font-family="Helvetica,sans-Serif" font-size="10.00" fill="#000000">::render</text>
</g>
<!-- Node271 -->
<g id="node2" class="node">
<title>Node271</title>
<g id="a_node2"><a xlink:href="../../d8/d06/classopenage_1_1_action_mode.xhtml#aaf498f85b87295e38e0c6ae81e7378c5" target="_top" xlink:title="openage::ActionMode\l::announce_current_selection">
<polygon fill="#ffffff" stroke="#000000" points="147,-904 147,-934 291,-934 291,-904 147,-904"/>
<text text-anchor="start" x="155" y="-922" font-family="Helvetica,sans-Serif" font-size="10.00" fill="#000000">openage::ActionMode</text>
<text text-anchor="middle" x="219" y="-911" font-family="Helvetica,sans-Serif" font-size="10.00" fill="#000000">::announce_current_selection</text>
</a>
</g>
</g>
<!-- Node270&#45;&gt;Node271 -->
<g id="edge1" class="edge">
<title>Node270&#45;&gt;Node271</title>
<path fill="none" stroke="#191970" d="M57.8266,-687.0803C64.5497,-725.7792 87.4627,-829.715 147,-889 150.6839,-892.6682 154.882,-895.911 159.3574,-898.7733"/>
<polygon fill="#191970" stroke="#191970" points="157.8194,-901.9248 168.2432,-903.8207 161.2768,-895.8382 157.8194,-901.9248"/>
</g>
<!-- Node272 -->
<g id="node3" class="node">
<title>Node272</title>
<g id="a_node3"><a xlink:href="../../d8/d06/classopenage_1_1_action_mode.xhtml#a0c428b739f584f369deaa02914537814" target="_top" xlink:title="sends to gui the amounts of resources ">
<polygon fill="#ffffff" stroke="#000000" points="162.5,-752 162.5,-782 275.5,-782 275.5,-752 162.5,-752"/>
<text text-anchor="start" x="170.5" y="-770" font-family="Helvetica,sans-Serif" font-size="10.00" fill="#000000">openage::ActionMode</text>
<text text-anchor="middle" x="219" y="-759" font-family="Helvetica,sans-Serif" font-size="10.00" fill="#000000">::announce_resources</text>
</a>
</g>
</g>
<!-- Node270&#45;&gt;Node272 -->
<g id="edge2" class="edge">
<title>Node270&#45;&gt;Node272</title>
<path fill="none" stroke="#191970" d="M75.161,-687.1214C93.2388,-700.6349 121.087,-720.4848 147,-735 154.9754,-739.4674 163.6934,-743.7831 172.2228,-747.7218"/>
<polygon fill="#191970" stroke="#191970" points="170.8047,-750.9217 181.36,-751.8371 173.6794,-744.5392 170.8047,-750.9217"/>
</g>
<!-- Node273 -->
<g id="node4" class="node">
<title>Node273</title>
<g id="a_node4"><a xlink:href="../../d8/db5/classopenage_1_1_game_control.xhtml#aa7c61c3caafc810355005e83c8f234e2" target="_top" xlink:title="openage::GameControl\l::get_current_player">
<polygon fill="#ffffff" stroke="#000000" points="341,-816 341,-846 458,-846 458,-816 341,-816"/>
<text text-anchor="start" x="349" y="-834" font-family="Helvetica,sans-Serif" font-size="10.00" fill="#000000">openage::GameControl</text>
<text text-anchor="middle" x="399.5" y="-823" font-family="Helvetica,sans-Serif" font-size="10.00" fill="#000000">::get_current_player</text>
</a>
</g>
</g>
<!-- Node270&#45;&gt;Node273 -->
<g id="edge15" class="edge">
<title>Node270&#45;&gt;Node273</title>
<path fill="none" stroke="#191970" d="M62.2752,-687.1574C74.8475,-713.3498 104.436,-766.6998 147,-792 202.7908,-825.1622 277.2932,-833.1565 330.8917,-833.9195"/>
<polygon fill="#191970" stroke="#191970" points="330.9623,-837.4199 340.9837,-833.9817 331.0055,-830.42 330.9623,-837.4199"/>
</g>
<!-- Node274 -->
<g id="node5" class="node">
<title>Node274</title>
<g id="a_node5"><a xlink:href="../../d6/d40/classopenage_1_1_engine.xhtml#a3e79c3919abbc3cab0716e4807f7c93e" target="_top" xlink:title="return currently running game or null if a game is not currently running ">
<polygon fill="#ffffff" stroke="#000000" points="516.5,-843.5 516.5,-862.5 654.5,-862.5 654.5,-843.5 516.5,-843.5"/>
<text text-anchor="middle" x="585.5" y="-850.5" font-family="Helvetica,sans-Serif" font-size="10.00" fill="#000000">openage::Engine::get_game</text>
</a>
</g>
</g>
<!-- Node270&#45;&gt;Node274 -->
<g id="edge18" class="edge">
<title>Node270&#45;&gt;Node274</title>
<path fill="none" stroke="#191970" d="M59.8279,-687.1389C69.6391,-718.5004 96.7186,-790.5131 147,-825 266.6635,-907.0744 450.5974,-882.6386 537.2233,-864.6614"/>
<polygon fill="#191970" stroke="#191970" points="537.9969,-868.0752 547.0452,-862.5634 536.5346,-861.2296 537.9969,-868.0752"/>
</g>
<!-- Node275 -->
<g id="node6" class="node">
<title>Node275</title>
<g id="a_node6"><a xlink:href="../../da/d23/namespaceopenage.xhtml#a231617a72c3e699877ee6eacb76850de" target="_top" xlink:title="given the west most point of a building foundation and the tile_delta size of the foundation...">
<polygon fill="#ffffff" stroke="#000000" points="156.5,-706.5 156.5,-725.5 281.5,-725.5 281.5,-706.5 156.5,-706.5"/>
<text text-anchor="middle" x="219" y="-713.5" font-family="Helvetica,sans-Serif" font-size="10.00" fill="#000000">openage::building_center</text>
</a>
</g>
</g>
<!-- Node270&#45;&gt;Node275 -->
<g id="edge5" class="edge">
<title>Node270&#45;&gt;Node275</title>
<path fill="none" stroke="#191970" d="M110.1528,-687.016C122.2794,-690.3246 135.0719,-693.7967 147,-697 155.3458,-699.2413 164.2421,-701.6075 172.8323,-703.8806"/>
<polygon fill="#191970" stroke="#191970" points="172.1625,-707.3236 182.7247,-706.4932 173.9499,-700.5557 172.1625,-707.3236"/>
</g>
<!-- Node283 -->
<g id="node14" class="node">
<title>Node283</title>
<g id="a_node14"><a xlink:href="../../dd/d39/classopenage_1_1_unit_type.xhtml#aa0d238ca5c0cb6b4b328e77dc12abc11" target="_top" xlink:title="Get a default texture for HUD drawing. ">
<polygon fill="#ffffff" stroke="#000000" points="166.5,-657 166.5,-687 271.5,-687 271.5,-657 166.5,-657"/>
<text text-anchor="start" x="174.5" y="-675" font-family="Helvetica,sans-Serif" font-size="10.00" fill="#000000">openage::UnitType::</text>
<text text-anchor="middle" x="219" y="-664" font-family="Helvetica,sans-Serif" font-size="10.00" fill="#000000">default_texture</text>
</a>
</g>
</g>
<!-- Node270&#45;&gt;Node283 -->
<g id="edge14" class="edge">
<title>Node270&#45;&gt;Node283</title>
<path fill="none" stroke="#191970" d="M111.3101,-672C125.8167,-672 141.5391,-672 156.3717,-672"/>
<polygon fill="#191970" stroke="#191970" points="156.4724,-675.5001 166.4724,-672 156.4723,-668.5001 156.4724,-675.5001"/>
</g>
<!-- Node284 -->
<g id="node15" class="node">
<title>Node284</title>
<g id="a_node15"><a xlink:href="../../d8/db5/classopenage_1_1_game_control.xhtml#aed1e983dee9b075a3343b72aed5678bd" target="_top" xlink:title="openage::GameControl\l::get_engine">
<polygon fill="#ffffff" stroke="#000000" points="160.5,-608 160.5,-638 277.5,-638 277.5,-608 160.5,-608"/>
<text text-anchor="start" x="168.5" y="-626" font-family="Helvetica,sans-Serif" font-size="10.00" fill="#000000">openage::GameControl</text>
<text text-anchor="middle" x="219" y="-615" font-family="Helvetica,sans-Serif" font-size="10.00" fill="#000000">::get_engine</text>
</a>
</g>
</g>
<!-- Node270&#45;&gt;Node284 -->
<g id="edge16" class="edge">
<title>Node270&#45;&gt;Node284</title>
<path fill="none" stroke="#191970" d="M105.8895,-656.8986C122.5961,-651.8917 141.3623,-646.2676 158.7351,-641.061"/>
<polygon fill="#191970" stroke="#191970" points="160.2026,-644.2751 168.7769,-638.0516 158.193,-637.5698 160.2026,-644.2751"/>
</g>
<!-- Node286 -->
<g id="node17" class="node">
<title>Node286</title>
<g id="a_node17"><a xlink:href="../../d9/de2/classopenage_1_1_unit_selection.xhtml#ac2e376479c41e349e5bc05d1db739107" target="_top" xlink:title="openage::UnitSelection\l::get_units_count">
<polygon fill="#ffffff" stroke="#000000" points="160,-520 160,-550 278,-550 278,-520 160,-520"/>
<text text-anchor="start" x="168" y="-538" font-family="Helvetica,sans-Serif" font-size="10.00" fill="#000000">openage::UnitSelection</text>
<text text-anchor="middle" x="219" y="-527" font-family="Helvetica,sans-Serif" font-size="10.00" fill="#000000">::get_units_count</text>
</a>
</g>
</g>
<!-- Node270&#45;&gt;Node286 -->
<g id="edge19" class="edge">
<title>Node270&#45;&gt;Node286</title>
<path fill="none" stroke="#191970" d="M64.156,-656.6858C78.4305,-632.7465 109.1326,-586.4661 147,-560 149.7114,-558.1049 152.5799,-556.3416 155.5489,-554.7023"/>
<polygon fill="#191970" stroke="#191970" points="157.307,-557.737 164.7011,-550.149 154.1889,-551.4698 157.307,-557.737"/>
</g>
<!-- Node287 -->
<g id="node18" class="node">
<title>Node287</title>
<g id="a_node18"><a xlink:href="../../d9/de2/classopenage_1_1_unit_selection.xhtml#a0a21b9382975a037b94a1331628b320c" target="_top" xlink:title="execute the drawing action. ">
<polygon fill="#ffffff" stroke="#000000" points="160,-361 160,-391 278,-391 278,-361 160,-361"/>
<text text-anchor="start" x="168" y="-379" font-family="Helvetica,sans-Serif" font-size="10.00" fill="#000000">openage::UnitSelection</text>
<text text-anchor="middle" x="219" y="-368" font-family="Helvetica,sans-Serif" font-size="10.00" fill="#000000">::on_drawhud</text>
</a>
</g>
</g>
<!-- Node270&#45;&gt;Node287 -->
<g id="edge20" class="edge">
<title>Node270&#45;&gt;Node287</title>
<path fill="none" stroke="#191970" d="M59.2066,-656.8734C69.0178,-618.8094 98.3013,-516.965 147,-445 159.1167,-427.0944 176.5443,-410.2393 191.2186,-397.6703"/>
<polygon fill="#191970" stroke="#191970" points="193.5992,-400.2423 199.0364,-391.149 189.1153,-394.8669 193.5992,-400.2423"/>
</g>
<!-- Node306 -->
<g id="node37" class="node">
<title>Node306</title>
<g id="a_node37"><a xlink:href="../../d6/d40/classopenage_1_1_engine.xhtml#af5031e47328635f60a34ea0bbccdcfef" target="_top" xlink:title="render text with the at a position with specified font size ">
<polygon fill="#ffffff" stroke="#000000" points="147,-569.5 147,-588.5 291,-588.5 291,-569.5 147,-569.5"/>
<text text-anchor="middle" x="219" y="-576.5" font-family="Helvetica,sans-Serif" font-size="10.00" fill="#000000">openage::Engine::render_text</text>
</a>
</g>
</g>
<!-- Node270&#45;&gt;Node306 -->
<g id="edge43" class="edge">
<title>Node270&#45;&gt;Node306</title>
<path fill="none" stroke="#191970" d="M70.336,-656.9654C87.4031,-640.4825 116.9573,-614.343 147,-599 152.3292,-596.2784 158.0753,-593.8882 163.9152,-591.7984"/>
<polygon fill="#191970" stroke="#191970" points="165.3665,-595.0057 173.7747,-588.5596 163.1818,-588.3554 165.3665,-595.0057"/>
</g>
<!-- Node310 -->
<g id="node41" class="node">
<title>Node310</title>
<g id="a_node41"><a xlink:href="../../d2/da4/structopenage_1_1coord_1_1phys3.xhtml#a851739e9304a9ed9f55f51ef99c814e7" target="_top" xlink:title="openage::coord::phys3\l::to_camhud">
<polygon fill="#ffffff" stroke="#000000" points="161,-454 161,-484 277,-484 277,-454 161,-454"/>
<text text-anchor="start" x="169" y="-472" font-family="Helvetica,sans-Serif" font-size="10.00" fill="#000000">openage::coord::phys3</text>
<text text-anchor="middle" x="219" y="-461" font-family="Helvetica,sans-Serif" font-size="10.00" fill="#000000">::to_camhud</text>
</a>
</g>
</g>
<!-- Node270&#45;&gt;Node310 -->
<g id="edge48" class="edge">
<title>Node270&#45;&gt;Node310</title>
<path fill="none" stroke="#191970" d="M60.9213,-656.9978C72.596,-626.3791 102.6941,-555.8081 147,-511 155.3418,-502.5636 165.7251,-495.2232 175.9867,-489.142"/>
<polygon fill="#191970" stroke="#191970" points="177.9132,-492.0743 184.9188,-484.1262 174.4857,-485.9708 177.9132,-492.0743"/>
</g>
<!-- Node272&#45;&gt;Node273 -->
<g id="edge3" class="edge">
<title>Node272&#45;&gt;Node273</title>
<path fill="none" stroke="#191970" d="M258.6311,-782.0564C279.0023,-789.6994 304.2632,-799.0289 327,-807 332.2394,-808.8368 337.7045,-810.7149 343.1814,-812.5716"/>
<polygon fill="#191970" stroke="#191970" points="342.4122,-816.0055 353.0063,-815.8769 344.6444,-809.3709 342.4122,-816.0055"/>
</g>
<!-- Node273&#45;&gt;Node274 -->
<g id="edge4" class="edge">
<title>Node273&#45;&gt;Node274</title>
<path fill="none" stroke="#191970" d="M458.0963,-837.9307C473.4401,-839.7456 490.2383,-841.7325 506.4571,-843.6508"/>
<polygon fill="#191970" stroke="#191970" points="506.1205,-847.1353 516.4625,-844.8343 506.9428,-840.1838 506.1205,-847.1353"/>
</g>
<!-- Node276 -->
<g id="node7" class="node">
<title>Node276</title>
<g id="a_node7"><a xlink:href="../../d5/d0e/namespaceopenage_1_1testing_1_1testing.xhtml#ac25bf81db406af62d08113ef7ae9fd6e" target="_top" xlink:title="openage.testing.testing.result">
<polygon fill="#ffffff" stroke="#000000" points="327,-679.5 327,-698.5 472,-698.5 472,-679.5 327,-679.5"/>
<text text-anchor="middle" x="399.5" y="-686.5" font-family="Helvetica,sans-Serif" font-size="10.00" fill="#000000">openage.testing.testing.result</text>
</a>
</g>
</g>
<!-- Node275&#45;&gt;Node276 -->
<g id="edge6" class="edge">
<title>Node275&#45;&gt;Node276</title>
<path fill="none" stroke="#191970" d="M281.6236,-706.6325C295.8532,-704.504 311.0968,-702.2238 325.7407,-700.0332"/>
<polygon fill="#191970" stroke="#191970" points="326.3911,-703.475 335.7633,-698.534 325.3555,-696.552 326.3911,-703.475"/>
</g>
<!-- Node278 -->
<g id="node9" class="node">
<title>Node278</title>
<g id="a_node9"><a xlink:href="../../d5/d10/structopenage_1_1coord_1_1tile.xhtml#a26e7ddc05f99069e9df2f35f3338d037" target="_top" xlink:title="openage::coord::tile\l::to_phys2">
<polygon fill="#ffffff" stroke="#000000" points="348.5,-630 348.5,-660 450.5,-660 450.5,-630 348.5,-630"/>
<text text-anchor="start" x="356.5" y="-648" font-family="Helvetica,sans-Serif" font-size="10.00" fill="#000000">openage::coord::tile</text>
<text text-anchor="middle" x="399.5" y="-637" font-family="Helvetica,sans-Serif" font-size="10.00" fill="#000000">::to_phys2</text>
</a>
</g>
</g>
<!-- Node275&#45;&gt;Node278 -->
<g id="edge9" class="edge">
<title>Node275&#45;&gt;Node278</title>
<path fill="none" stroke="#191970" d="M266.0374,-706.3933C274.5561,-703.8731 283.2034,-700.7734 291,-697 309.0024,-688.2871 309.3325,-679.3733 327,-670 331.0117,-667.8716 335.2415,-665.8666 339.56,-663.9898"/>
<polygon fill="#191970" stroke="#191970" points="341.1732,-667.1116 349.1054,-660.088 338.5245,-660.632 341.1732,-667.1116"/>
</g>
<!-- Node279 -->
<g id="node10" class="node">
<title>Node279</title>
<g id="a_node10"><a xlink:href="../../dd/d57/structopenage_1_1coord_1_1phys2.xhtml#a2cbf9e4669fb9702e6b086de22ac5eac" target="_top" xlink:title="openage::coord::phys2\l::to_phys3">
<polygon fill="#ffffff" stroke="#000000" points="341.5,-767 341.5,-797 457.5,-797 457.5,-767 341.5,-767"/>
<text text-anchor="start" x="349.5" y="-785" font-family="Helvetica,sans-Serif" font-size="10.00" fill="#000000">openage::coord::phys2</text>
<text text-anchor="middle" x="399.5" y="-774" font-family="Helvetica,sans-Serif" font-size="10.00" fill="#000000">::to_phys3</text>
</a>
</g>
</g>
<!-- Node275&#45;&gt;Node279 -->
<g id="edge10" class="edge">
<title>Node275&#45;&gt;Node279</title>
<path fill="none" stroke="#191970" d="M245.0812,-725.523C258.7935,-730.5946 275.8555,-737.0075 291,-743 307.1175,-749.3774 310.761,-751.9388 327,-758 332.0462,-759.8835 337.3166,-761.7736 342.613,-763.6208"/>
<polygon fill="#191970" stroke="#191970" points="341.537,-766.9518 352.1316,-766.8886 343.81,-760.3311 341.537,-766.9518"/>
</g>
<!-- Node280 -->
<g id="node11" class="node">
<title>Node280</title>
<g id="a_node11"><a xlink:href="../../d2/da4/structopenage_1_1coord_1_1phys3.xhtml#aa8aa4b7a7a76ddb625b8770ba12484d6" target="_top" xlink:title="openage::coord::phys3\l::to_tile">
<polygon fill="#ffffff" stroke="#000000" points="341.5,-718 341.5,-748 457.5,-748 457.5,-718 341.5,-718"/>
<text text-anchor="start" x="349.5" y="-736" font-family="Helvetica,sans-Serif" font-size="10.00" fill="#000000">openage::coord::phys3</text>
<text text-anchor="middle" x="399.5" y="-725" font-family="Helvetica,sans-Serif" font-size="10.00" fill="#000000">::to_tile</text>
</a>
</g>
</g>
<!-- Node275&#45;&gt;Node280 -->
<g id="edge11" class="edge">
<title>Node275&#45;&gt;Node280</title>
<path fill="none" stroke="#191970" d="M281.6236,-721.8981C297.6446,-723.407 314.951,-725.0369 331.2398,-726.5711"/>
<polygon fill="#191970" stroke="#191970" points="330.9456,-730.0588 341.2298,-727.5119 331.6021,-723.0896 330.9456,-730.0588"/>
</g>
<!-- Node277 -->
<g id="node8" class="node">
<title>Node277</title>
<g id="a_node8"><a xlink:href="../../de/d60/namespaceopenage_1_1util.xhtml#a7bc4421a5f0f57f3a0aba3f96eb8d19c" target="_top" xlink:title="method that behaves similar to python&#39;s &quot;repr&quot;. ">
<polygon fill="#ffffff" stroke="#000000" points="538,-679.5 538,-698.5 633,-698.5 633,-679.5 538,-679.5"/>
<text text-anchor="middle" x="585.5" y="-686.5" font-family="Helvetica,sans-Serif" font-size="10.00" fill="#000000">openage::util::repr</text>
</a>
</g>
</g>
<!-- Node276&#45;&gt;Node277 -->
<g id="edge7" class="edge">
<title>Node276&#45;&gt;Node277</title>
<path fill="none" stroke="#191970" d="M472.2116,-682.3948C490.6091,-682.1283 510.1201,-682.2296 527.6711,-682.6987"/>
<polygon fill="#191970" stroke="#191970" points="527.6495,-686.1997 537.7552,-683.0174 527.8707,-679.2032 527.6495,-686.1997"/>
</g>
<!-- Node277&#45;&gt;Node276 -->
<g id="edge8" class="edge">
<title>Node277&#45;&gt;Node276</title>
<path fill="none" stroke="#191970" d="M537.7552,-694.9826C520.8582,-695.6046 501.3258,-695.8485 482.3624,-695.7142"/>
<polygon fill="#191970" stroke="#191970" points="482.2486,-692.2129 472.2116,-695.6052 482.1734,-699.2125 482.2486,-692.2129"/>
</g>
<!-- Node281 -->
<g id="node12" class="node">
<title>Node281</title>
<g id="a_node12"><a xlink:href="../../d2/da4/structopenage_1_1coord_1_1phys3.xhtml#a8ed61fb85a083922af8fbbabd087ae31" target="_top" xlink:title="openage::coord::phys3\l::to_tile3">
<polygon fill="#ffffff" stroke="#000000" points="527.5,-767 527.5,-797 643.5,-797 643.5,-767 527.5,-767"/>
<text text-anchor="start" x="535.5" y="-785" font-family="Helvetica,sans-Serif" font-size="10.00" fill="#000000">openage::coord::phys3</text>
<text text-anchor="middle" x="585.5" y="-774" font-family="Helvetica,sans-Serif" font-size="10.00" fill="#000000">::to_tile3</text>
</a>
</g>
</g>
<!-- Node280&#45;&gt;Node281 -->
<g id="edge12" class="edge">
<title>Node280&#45;&gt;Node281</title>
<path fill="none" stroke="#191970" d="M456.5702,-748.0346C476.2092,-753.2083 498.3742,-759.0475 518.7168,-764.4066"/>
<polygon fill="#191970" stroke="#191970" points="517.976,-767.8308 528.5377,-766.9938 519.7593,-761.0617 517.976,-767.8308"/>
</g>
<!-- Node282 -->
<g id="node13" class="node">
<title>Node282</title>
<g id="a_node13"><a xlink:href="../../db/dd1/structopenage_1_1coord_1_1tile3.xhtml#af828e2ee284deb35ce13d30b57b14ad0" target="_top" xlink:title="openage::coord::tile3\l::to_tile">
<polygon fill="#ffffff" stroke="#000000" points="532,-718 532,-748 639,-748 639,-718 532,-718"/>
<text text-anchor="start" x="540" y="-736" font-family="Helvetica,sans-Serif" font-size="10.00" fill="#000000">openage::coord::tile3</text>
<text text-anchor="middle" x="585.5" y="-725" font-family="Helvetica,sans-Serif" font-size="10.00" fill="#000000">::to_tile</text>
</a>
</g>
</g>
<!-- Node280&#45;&gt;Node282 -->
<g id="edge13" class="edge">
<title>Node280&#45;&gt;Node282</title>
<path fill="none" stroke="#191970" d="M457.5865,-733C478.0136,-733 501.0696,-733 521.9248,-733"/>
<polygon fill="#191970" stroke="#191970" points="521.9648,-736.5001 531.9648,-733 521.9647,-729.5001 521.9648,-736.5001"/>
</g>
<!-- Node285 -->
<g id="node16" class="node">
<title>Node285</title>
<g id="a_node16"><a xlink:href="../../dd/d1a/namespaceopenage_1_1log.xhtml#ab6b4b10be67af93ab6c4d5a36139736e" target="_top" xlink:title="error message ">
<polygon fill="#ffffff" stroke="#000000" points="358,-591.5 358,-610.5 441,-610.5 441,-591.5 358,-591.5"/>
<text text-anchor="middle" x="399.5" y="-598.5" font-family="Helvetica,sans-Serif" font-size="10.00" fill="#000000">openage.log.err</text>
</a>
</g>
</g>
<!-- Node284&#45;&gt;Node285 -->
<g id="edge17" class="edge">
<title>Node284&#45;&gt;Node285</title>
<path fill="none" stroke="#191970" d="M277.6032,-615.8572C300.175,-613.1061 325.7708,-609.9864 347.6604,-607.3184"/>
<polygon fill="#191970" stroke="#191970" points="348.2518,-610.7723 357.7549,-606.088 347.4048,-603.8237 348.2518,-610.7723"/>
</g>
<!-- Node288 -->
<g id="node19" class="node">
<title>Node288</title>
<g id="a_node19"><a xlink:href="../../d6/d80/structopenage_1_1coord_1_1camgame.xhtml#a3fc238716b4f13031e53b8cb1d8c3a44" target="_top" xlink:title="See the comments for camgame_delta::to_phys3. ">
<polygon fill="#ffffff" stroke="#000000" points="519.5,-370 519.5,-400 651.5,-400 651.5,-370 519.5,-370"/>
<text text-anchor="start" x="527.5" y="-388" font-family="Helvetica,sans-Serif" font-size="10.00" fill="#000000">openage::coord::camgame</text>
<text text-anchor="middle" x="585.5" y="-377" font-family="Helvetica,sans-Serif" font-size="10.00" fill="#000000">::to_viewport</text>
</a>
</g>
</g>
<!-- Node287&#45;&gt;Node288 -->
<g id="edge21" class="edge">
<title>Node287&#45;&gt;Node288</title>
<path fill="none" stroke="#191970" d="M278.2919,-377.456C341.1122,-378.9987 440.5207,-381.4398 509.158,-383.1253"/>
<polygon fill="#191970" stroke="#191970" points="509.3931,-386.632 519.476,-383.3787 509.565,-379.6341 509.3931,-386.632"/>
</g>
<!-- Node290 -->
<g id="node21" class="node">
<title>Node290</title>
<g id="a_node21"><a xlink:href="../../df/dea/classopenage_1_1_unit.xhtml#a6c56a8b7e9856a8e0535cacbe831bae7" target="_top" xlink:title="returns whether attribute is available ">
<polygon fill="#ffffff" stroke="#000000" points="717.5,-323 717.5,-353 816.5,-353 816.5,-323 717.5,-323"/>
<text text-anchor="start" x="725.5" y="-341" font-family="Helvetica,sans-Serif" font-size="10.00" fill="#000000">openage::Unit::has</text>
<text text-anchor="middle" x="767" y="-330" font-family="Helvetica,sans-Serif" font-size="10.00" fill="#000000">_attribute</text>
</a>
</g>
</g>
<!-- Node287&#45;&gt;Node290 -->
<g id="edge23" class="edge">
<title>Node287&#45;&gt;Node290</title>
<path fill="none" stroke="#191970" d="M278.1663,-371.8972C383.2936,-364.6074 601.493,-349.4768 707.1257,-342.1519"/>
<polygon fill="#191970" stroke="#191970" points="707.5616,-345.6301 717.2955,-341.4467 707.0773,-338.6469 707.5616,-345.6301"/>
</g>
<!-- Node292 -->
<g id="node23" class="node">
<title>Node292</title>
<g id="a_node23"><a xlink:href="../../df/dea/classopenage_1_1_unit.xhtml#a3e12324401051119f44e212dae1a87ce" target="_top" xlink:title="returns attribute based on templated value ">
<polygon fill="#ffffff" stroke="#000000" points="351,-159 351,-189 448,-189 448,-159 351,-159"/>
<text text-anchor="start" x="359" y="-177" font-family="Helvetica,sans-Serif" font-size="10.00" fill="#000000">openage::Unit::get</text>
<text text-anchor="middle" x="399.5" y="-166" font-family="Helvetica,sans-Serif" font-size="10.00" fill="#000000">_attribute</text>
</a>
</g>
</g>
<!-- Node287&#45;&gt;Node292 -->
<g id="edge25" class="edge">
<title>Node287&#45;&gt;Node292</title>
<path fill="none" stroke="#191970" d="M232.5668,-360.8172C264.0037,-325.6357 341.9794,-238.3721 379.1564,-196.7668"/>
<polygon fill="#191970" stroke="#191970" points="381.9687,-198.8723 386.022,-189.0835 376.749,-194.2082 381.9687,-198.8723"/>
</g>
<!-- Node304 -->
<g id="node35" class="node">
<title>Node304</title>
<g id="a_node35"><a xlink:href="../../d2/da4/structopenage_1_1coord_1_1phys3.xhtml#afb7742fe4e2f67064992aed454d75ef2" target="_top" xlink:title="openage::coord::phys3\l::to_viewport">
<polygon fill="#ffffff" stroke="#000000" points="341.5,-405 341.5,-435 457.5,-435 457.5,-405 341.5,-405"/>
<text text-anchor="start" x="349.5" y="-423" font-family="Helvetica,sans-Serif" font-size="10.00" fill="#000000">openage::coord::phys3</text>
<text text-anchor="middle" x="399.5" y="-412" font-family="Helvetica,sans-Serif" font-size="10.00" fill="#000000">::to_viewport</text>
</a>
</g>
</g>
<!-- Node287&#45;&gt;Node304 -->
<g id="edge40" class="edge">
<title>Node287&#45;&gt;Node304</title>
<path fill="none" stroke="#191970" d="M278.1025,-390.4072C295.12,-394.5556 313.8216,-399.1144 331.34,-403.3848"/>
<polygon fill="#191970" stroke="#191970" points="330.9518,-406.8926 341.4962,-405.8606 332.6096,-400.0917 330.9518,-406.8926"/>
</g>
<!-- Node289 -->
<g id="node20" class="node">
<title>Node289</title>
<g id="a_node20"><a xlink:href="../../d5/d40/structopenage_1_1coord_1_1camgame__delta.xhtml#a9ab7f49a99385626a0d6a11df1a6e211" target="_top" xlink:title="openage::coord::camgame\l_delta::to_viewport">
<polygon fill="#ffffff" stroke="#000000" points="701,-372 701,-402 833,-402 833,-372 701,-372"/>
<text text-anchor="start" x="709" y="-390" font-family="Helvetica,sans-Serif" font-size="10.00" fill="#000000">openage::coord::camgame</text>
<text text-anchor="middle" x="767" y="-379" font-family="Helvetica,sans-Serif" font-size="10.00" fill="#000000">_delta::to_viewport</text>
</a>
</g>
</g>
<!-- Node288&#45;&gt;Node289 -->
<g id="edge22" class="edge">
<title>Node288&#45;&gt;Node289</title>
<path fill="none" stroke="#191970" d="M651.5391,-385.7277C664.1756,-385.8669 677.5041,-386.0138 690.4382,-386.1563"/>
<polygon fill="#191970" stroke="#191970" points="690.6679,-389.659 700.7059,-386.2695 690.7451,-382.6594 690.6679,-389.659"/>
</g>
<!-- Node291 -->
<g id="node22" class="node">
<title>Node291</title>
<g id="a_node22"><a xlink:href="../../de/d8a/classopenage_1_1_attributes.xhtml#aee38f453ac85b68821958ad74cdd8df5" target="_top" xlink:title="Check if the attribute of the given type exists. ">
<polygon fill="#ffffff" stroke="#000000" points="871,-328.5 871,-347.5 994,-347.5 994,-328.5 871,-328.5"/>
<text text-anchor="middle" x="932.5" y="-335.5" font-family="Helvetica,sans-Serif" font-size="10.00" fill="#000000">openage::Attributes::has</text>
</a>
</g>
</g>
<!-- Node290&#45;&gt;Node291 -->
<g id="edge24" class="edge">
<title>Node290&#45;&gt;Node291</title>
<path fill="none" stroke="#191970" d="M816.6555,-338C830.503,-338 845.8309,-338 860.6808,-338"/>
<polygon fill="#191970" stroke="#191970" points="860.8611,-341.5001 870.861,-338 860.861,-334.5001 860.8611,-341.5001"/>
</g>
<!-- Node293 -->
<g id="node24" class="node">
<title>Node293</title>
<g id="a_node24"><a xlink:href="../../de/d8a/classopenage_1_1_attributes.xhtml#a08f927be3be6911e7cf77604f9ead10f" target="_top" xlink:title="Get the attribute based on the type. ">
<polygon fill="#ffffff" stroke="#000000" points="525,-202.5 525,-221.5 646,-221.5 646,-202.5 525,-202.5"/>
<text text-anchor="middle" x="585.5" y="-209.5" font-family="Helvetica,sans-Serif" font-size="10.00" fill="#000000">openage::Attributes::get</text>
</a>
</g>
</g>
<!-- Node292&#45;&gt;Node293 -->
<g id="edge26" class="edge">
<title>Node292&#45;&gt;Node293</title>
<path fill="none" stroke="#191970" d="M448.3693,-183.9841C473.0747,-189.0314 503.189,-195.1838 528.8974,-200.436"/>
<polygon fill="#191970" stroke="#191970" points="528.3811,-203.9028 538.8794,-202.4754 529.7824,-197.0444 528.3811,-203.9028"/>
</g>
<!-- Node294 -->
<g id="node25" class="node">
<title>Node294</title>
<g id="a_node25"><a xlink:href="../../df/dea/classopenage_1_1_unit.xhtml#ac5dcdf3180dcd4bdce67b765d8ef2134" target="_top" xlink:title="queues a command to be applied to this unit on the next update ">
<polygon fill="#ffffff" stroke="#000000" points="518.5,-164.5 518.5,-183.5 652.5,-183.5 652.5,-164.5 518.5,-164.5"/>
<text text-anchor="middle" x="585.5" y="-171.5" font-family="Helvetica,sans-Serif" font-size="10.00" fill="#000000">openage::Unit::queue_cmd</text>
</a>
</g>
</g>
<!-- Node292&#45;&gt;Node294 -->
<g id="edge27" class="edge">
<title>Node292&#45;&gt;Node294</title>
<path fill="none" stroke="#191970" d="M448.3693,-174C466.6927,-174 487.9916,-174 508.2614,-174"/>
<polygon fill="#191970" stroke="#191970" points="508.4278,-177.5001 518.4278,-174 508.4277,-170.5001 508.4278,-177.5001"/>
</g>
<!-- Node296 -->
<g id="node27" class="node">
<title>Node296</title>
<g id="a_node27"><a xlink:href="../../df/dea/classopenage_1_1_unit.xhtml#a238fb029bd4cc32e393506533facd976" target="_top" xlink:title="removes all gather actions without calling their on_complete actions this cancels the gathering actio...">
<polygon fill="#ffffff" stroke="#000000" points="716,-235 716,-265 818,-265 818,-235 716,-235"/>
<text text-anchor="start" x="724" y="-253" font-family="Helvetica,sans-Serif" font-size="10.00" fill="#000000">openage::Unit::stop</text>
<text text-anchor="middle" x="767" y="-242" font-family="Helvetica,sans-Serif" font-size="10.00" fill="#000000">_gather</text>
</a>
</g>
</g>
<!-- Node292&#45;&gt;Node296 -->
<g id="edge29" class="edge">
<title>Node292&#45;&gt;Node296</title>
<path fill="none" stroke="#191970" d="M421.6237,-189.1207C442.7763,-202.7052 476.0851,-221.8755 508,-231 573.6334,-249.7647 652.2273,-252.9794 705.4932,-252.4738"/>
<polygon fill="#191970" stroke="#191970" points="705.8484,-255.9692 715.7974,-252.3266 705.7484,-248.9699 705.8484,-255.9692"/>
</g>
<!-- Node298 -->
<g id="node29" class="node">
<title>Node298</title>
<g id="a_node29"><a xlink:href="../../df/dea/classopenage_1_1_unit.xhtml#a9f53ef015fca7c42ff3bf9d0779145a3" target="_top" xlink:title="removes all actions above and including the first interuptable action this will stop any of the units...">
<polygon fill="#ffffff" stroke="#000000" points="534.5,-279 534.5,-309 636.5,-309 636.5,-279 534.5,-279"/>
<text text-anchor="start" x="542.5" y="-297" font-family="Helvetica,sans-Serif" font-size="10.00" fill="#000000">openage::Unit::stop</text>
<text text-anchor="middle" x="585.5" y="-286" font-family="Helvetica,sans-Serif" font-size="10.00" fill="#000000">_actions</text>
</a>
</g>
</g>
<!-- Node292&#45;&gt;Node298 -->
<g id="edge31" class="edge">
<title>Node292&#45;&gt;Node298</title>
<path fill="none" stroke="#191970" d="M414.4616,-189.15C434.3502,-208.6098 471.2773,-242.4391 508,-264 514.8994,-268.0508 522.4461,-271.7543 530.0362,-275.071"/>
<polygon fill="#191970" stroke="#191970" points="528.6982,-278.3051 539.2751,-278.922 531.3915,-271.8439 528.6982,-278.3051"/>
</g>
<!-- Node299 -->
<g id="node30" class="node">
<title>Node299</title>
<g id="a_node30"><a xlink:href="../../df/dea/classopenage_1_1_unit.xhtml#ad7f76de394d832d927a9e6d46bd3c93f" target="_top" xlink:title="begins unit removal by popping some actions ">
<polygon fill="#ffffff" stroke="#000000" points="520,-126.5 520,-145.5 651,-145.5 651,-126.5 520,-126.5"/>
<text text-anchor="middle" x="585.5" y="-133.5" font-family="Helvetica,sans-Serif" font-size="10.00" fill="#000000">openage::Unit::delete_unit</text>
</a>
</g>
</g>
<!-- Node292&#45;&gt;Node299 -->
<g id="edge35" class="edge">
<title>Node292&#45;&gt;Node299</title>
<path fill="none" stroke="#191970" d="M448.3693,-164.0159C473.0747,-158.9686 503.189,-152.8162 528.8974,-147.564"/>
<polygon fill="#191970" stroke="#191970" points="529.7824,-150.9556 538.8794,-145.5246 528.3811,-144.0972 529.7824,-150.9556"/>
</g>
<!-- Node300 -->
<g id="node31" class="node">
<title>Node300</title>
<g id="a_node31"><a xlink:href="../../df/dea/classopenage_1_1_unit.xhtml#adfea298b04684ab09dd8f499dabb8715" target="_top" xlink:title="get a reference which can check against the container to ensure this object still exists ...">
<polygon fill="#ffffff" stroke="#000000" points="529,-88.5 529,-107.5 642,-107.5 642,-88.5 529,-88.5"/>
<text text-anchor="middle" x="585.5" y="-95.5" font-family="Helvetica,sans-Serif" font-size="10.00" fill="#000000">openage::Unit::get_ref</text>
</a>
</g>
</g>
<!-- Node292&#45;&gt;Node300 -->
<g id="edge36" class="edge">
<title>Node292&#45;&gt;Node300</title>
<path fill="none" stroke="#191970" d="M424.1212,-158.8426C445.6035,-146.1669 477.9533,-128.3807 508,-117 514.68,-114.4698 521.8131,-112.1881 528.9459,-110.1574"/>
<polygon fill="#191970" stroke="#191970" points="529.8868,-113.5287 538.6295,-107.544 528.0629,-106.7705 529.8868,-113.5287"/>
</g>
<!-- Node301 -->
<g id="node32" class="node">
<title>Node301</title>
<g id="a_node32"><a xlink:href="../../df/dea/classopenage_1_1_unit.xhtml#a2e9937d84fe91d95cbe273f6fe986068" target="_top" xlink:title="the container used when constructing this unit ">
<polygon fill="#ffffff" stroke="#000000" points="537,-39 537,-69 634,-69 634,-39 537,-39"/>
<text text-anchor="start" x="545" y="-57" font-family="Helvetica,sans-Serif" font-size="10.00" fill="#000000">openage::Unit::get</text>
<text text-anchor="middle" x="585.5" y="-46" font-family="Helvetica,sans-Serif" font-size="10.00" fill="#000000">_container</text>
</a>
</g>
</g>
<!-- Node292&#45;&gt;Node301 -->
<g id="edge37" class="edge">
<title>Node292&#45;&gt;Node301</title>
<path fill="none" stroke="#191970" d="M413.1058,-158.6853C432.3372,-137.8996 469.4458,-100.8499 508,-79 513.95,-75.628 520.4186,-72.6376 526.9974,-70.0051"/>
<polygon fill="#191970" stroke="#191970" points="528.5192,-73.1732 536.6675,-66.4015 526.0748,-66.6139 528.5192,-73.1732"/>
</g>
<!-- Node302 -->
<g id="node33" class="node">
<title>Node302</title>
<g id="a_node33"><a xlink:href="../../df/dea/classopenage_1_1_unit.xhtml#ae769f520dfdb148ec831c151a954a881" target="_top" xlink:title="Returns the unit&#39;s name as the LogSource name. ">
<polygon fill="#ffffff" stroke="#000000" points="508,-.5 508,-19.5 663,-19.5 663,-.5 508,-.5"/>
<text text-anchor="middle" x="585.5" y="-7.5" font-family="Helvetica,sans-Serif" font-size="10.00" fill="#000000">openage::Unit::logsource_name</text>
</a>
</g>
</g>
<!-- Node292&#45;&gt;Node302 -->
<g id="edge38" class="edge">
<title>Node292&#45;&gt;Node302</title>
<path fill="none" stroke="#191970" d="M406.3354,-158.9866C420.6777,-129.251 456.8652,-62.8251 508,-29 511.1305,-26.9292 514.4664,-25.084 517.9292,-23.4397"/>
<polygon fill="#191970" stroke="#191970" points="519.4403,-26.6021 527.3379,-19.5396 516.7599,-20.1356 519.4403,-26.6021"/>
</g>
<!-- Node295 -->
<g id="node26" class="node">
<title>Node295</title>
<g id="a_node26"><a xlink:href="../../d8/dda/classopenage_1_1_command.xhtml#afbc0a60d82b9608e375c38c5e3fdf758" target="_top" xlink:title="the ability types allowed to use this command ">
<polygon fill="#ffffff" stroke="#000000" points="699,-164.5 699,-183.5 835,-183.5 835,-164.5 699,-164.5"/>
<text text-anchor="middle" x="767" y="-171.5" font-family="Helvetica,sans-Serif" font-size="10.00" fill="#000000">openage::Command::ability</text>
</a>
</g>
</g>
<!-- Node294&#45;&gt;Node295 -->
<g id="edge28" class="edge">
<title>Node294&#45;&gt;Node295</title>
<path fill="none" stroke="#191970" d="M652.5682,-174C664.402,-174 676.8134,-174 688.9182,-174"/>
<polygon fill="#191970" stroke="#191970" points="688.9946,-177.5001 698.9946,-174 688.9945,-170.5001 688.9946,-177.5001"/>
</g>
<!-- Node297 -->
<g id="node28" class="node">
<title>Node297</title>
<g id="a_node28"><a xlink:href="../../df/dea/classopenage_1_1_unit.xhtml#aae0b3f53cb1d75823391322876d199ef" target="_top" xlink:title="erase from action specified by func to the end of the stack all actions erased will have the on_compl...">
<polygon fill="#ffffff" stroke="#000000" points="879,-257 879,-287 986,-287 986,-257 879,-257"/>
<text text-anchor="start" x="887" y="-275" font-family="Helvetica,sans-Serif" font-size="10.00" fill="#000000">openage::Unit::erase</text>
<text text-anchor="middle" x="932.5" y="-264" font-family="Helvetica,sans-Serif" font-size="10.00" fill="#000000">_after</text>
</a>
</g>
</g>
<!-- Node296&#45;&gt;Node297 -->
<g id="edge30" class="edge">
<title>Node296&#45;&gt;Node297</title>
<path fill="none" stroke="#191970" d="M818.0059,-256.7802C833.9723,-258.9027 851.7971,-261.2721 868.5387,-263.4976"/>
<polygon fill="#191970" stroke="#191970" points="868.4223,-267.0128 878.7964,-264.8611 869.3448,-260.0739 868.4223,-267.0128"/>
</g>
<!-- Node298&#45;&gt;Node290 -->
<g id="edge32" class="edge">
<title>Node298&#45;&gt;Node290</title>
<path fill="none" stroke="#191970" d="M636.5409,-306.3735C658.5524,-311.7097 684.4463,-317.987 707.3383,-323.5365"/>
<polygon fill="#191970" stroke="#191970" points="706.7384,-326.9924 717.2815,-325.947 708.3876,-320.1895 706.7384,-326.9924"/>
</g>
<!-- Node298&#45;&gt;Node296 -->
<g id="edge33" class="edge">
<title>Node298&#45;&gt;Node296</title>
<path fill="none" stroke="#191970" d="M636.5409,-281.6265C658.0957,-276.401 683.3736,-270.2731 705.9096,-264.8098"/>
<polygon fill="#191970" stroke="#191970" points="706.8195,-268.1907 715.7134,-262.4331 705.1702,-261.3877 706.8195,-268.1907"/>
</g>
<!-- Node298&#45;&gt;Node297 -->
<g id="edge34" class="edge">
<title>Node298&#45;&gt;Node297</title>
<path fill="none" stroke="#191970" d="M636.701,-290.7538C698.3864,-286.8429 802.0363,-280.2715 868.8214,-276.0373"/>
<polygon fill="#191970" stroke="#191970" points="869.046,-279.5301 878.8045,-275.4043 868.603,-272.5442 869.046,-279.5301"/>
</g>
<!-- Node303 -->
<g id="node34" class="node">
<title>Node303</title>
<g id="a_node34"><a xlink:href="../../d8/dcc/namespacestd.xhtml#a26aa0f4be3a77ac5cc3ce0cabb545042" target="_top" xlink:title="std::to_string">
<polygon fill="#ffffff" stroke="#000000" points="730,-.5 730,-19.5 804,-19.5 804,-.5 730,-.5"/>
<text text-anchor="middle" x="767" y="-7.5" font-family="Helvetica,sans-Serif" font-size="10.00" fill="#000000">std::to_string</text>
</a>
</g>
</g>
<!-- Node302&#45;&gt;Node303 -->
<g id="edge39" class="edge">
<title>Node302&#45;&gt;Node303</title>
<path fill="none" stroke="#191970" d="M663.2622,-10C682.3849,-10 702.2933,-10 719.4958,-10"/>
<polygon fill="#191970" stroke="#191970" points="719.826,-13.5001 729.8259,-10 719.8259,-6.5001 719.826,-13.5001"/>
</g>
<!-- Node304&#45;&gt;Node288 -->
<g id="edge42" class="edge">
<title>Node304&#45;&gt;Node288</title>
<path fill="none" stroke="#191970" d="M457.5865,-409.0697C473.9815,-405.9847 492.07,-402.5809 509.3548,-399.3284"/>
<polygon fill="#191970" stroke="#191970" points="510.2399,-402.7234 519.4201,-397.4344 508.9453,-395.8441 510.2399,-402.7234"/>
</g>
<!-- Node305 -->
<g id="node36" class="node">
<title>Node305</title>
<g id="a_node36"><a xlink:href="../../d2/da4/structopenage_1_1coord_1_1phys3.xhtml#a03daba2a3e79650c251e3c08e0838a5e" target="_top" xlink:title="openage::coord::phys3\l::to_camgame">
<polygon fill="#ffffff" stroke="#000000" points="527.5,-419 527.5,-449 643.5,-449 643.5,-419 527.5,-419"/>
<text text-anchor="start" x="535.5" y="-437" font-family="Helvetica,sans-Serif" font-size="10.00" fill="#000000">openage::coord::phys3</text>
<text text-anchor="middle" x="585.5" y="-426" font-family="Helvetica,sans-Serif" font-size="10.00" fill="#000000">::to_camgame</text>
</a>
</g>
</g>
<!-- Node304&#45;&gt;Node305 -->
<g id="edge41" class="edge">
<title>Node304&#45;&gt;Node305</title>
<path fill="none" stroke="#191970" d="M457.5865,-424.3721C476.4664,-425.7932 497.592,-427.3833 517.15,-428.8554"/>
<polygon fill="#191970" stroke="#191970" points="516.98,-432.3524 527.2145,-429.6129 517.5055,-425.3721 516.98,-432.3524"/>
</g>
<!-- Node306&#45;&gt;Node285 -->
<g id="edge44" class="edge">
<title>Node306&#45;&gt;Node285</title>
<path fill="none" stroke="#191970" d="M291.1166,-587.7898C310.0783,-590.101 330.154,-592.5479 347.8062,-594.6994"/>
<polygon fill="#191970" stroke="#191970" points="347.5427,-598.1931 357.8927,-595.9287 348.3896,-591.2445 347.5427,-598.1931"/>
</g>
<!-- Node307 -->
<g id="node38" class="node">
<title>Node307</title>
<g id="a_node38"><a xlink:href="../../dc/dbb/namespaceopenage_1_1renderer_1_1tests.xhtml#aa4bbd5ddb9f2591224c8b05fff9d945c" target="_top" xlink:title="openage::renderer::\ltests::font">
<polygon fill="#ffffff" stroke="#000000" points="349,-542 349,-572 450,-572 450,-542 349,-542"/>
<text text-anchor="start" x="357" y="-560" font-family="Helvetica,sans-Serif" font-size="10.00" fill="#000000">openage::renderer::</text>
<text text-anchor="middle" x="399.5" y="-549" font-family="Helvetica,sans-Serif" font-size="10.00" fill="#000000">tests::font</text>
</a>
</g>
</g>
<!-- Node306&#45;&gt;Node307 -->
<g id="edge45" class="edge">
<title>Node306&#45;&gt;Node307</title>
<path fill="none" stroke="#191970" d="M291.1166,-570.2102C306.834,-568.2945 323.3168,-566.2855 338.5504,-564.4288"/>
<polygon fill="#191970" stroke="#191970" points="339.3692,-567.8549 348.8723,-563.1707 338.5223,-560.9064 339.3692,-567.8549"/>
</g>
<!-- Node309 -->
<g id="node40" class="node">
<title>Node309</title>
<g id="a_node40"><a xlink:href="../../de/d60/namespaceopenage_1_1util.xhtml#a042594ac67e652c429fba1eeb1bec6fa" target="_top" xlink:title="printf&#45;style valist&#45;to&#45;string formatting; the result is appended to output. ">
<polygon fill="#ffffff" stroke="#000000" points="341.5,-503.5 341.5,-522.5 457.5,-522.5 457.5,-503.5 341.5,-503.5"/>
<text text-anchor="middle" x="399.5" y="-510.5" font-family="Helvetica,sans-Serif" font-size="10.00" fill="#000000">openage::util::vsformat</text>
</a>
</g>
</g>
<!-- Node306&#45;&gt;Node309 -->
<g id="edge47" class="edge">
<title>Node306&#45;&gt;Node309</title>
<path fill="none" stroke="#191970" d="M266.0374,-569.3933C274.5561,-566.8731 283.2034,-563.7734 291,-560 309.0024,-551.2871 309.0465,-541.8132 327,-533 332.615,-530.2436 338.6674,-527.8185 344.7969,-525.6972"/>
<polygon fill="#191970" stroke="#191970" points="345.9838,-528.9922 354.4404,-522.6097 343.8494,-522.3255 345.9838,-528.9922"/>
</g>
<!-- Node308 -->
<g id="node39" class="node">
<title>Node308</title>
<g id="a_node39"><a xlink:href="../../dc/dbb/namespaceopenage_1_1renderer_1_1tests.xhtml#a4d5611a559a9c63bcb0865c8a0829d4a" target="_top" xlink:title="openage::renderer::\ltests::font_test_font\l_description">
<polygon fill="#ffffff" stroke="#000000" points="533.5,-536.5 533.5,-577.5 637.5,-577.5 637.5,-536.5 533.5,-536.5"/>
<text text-anchor="start" x="541.5" y="-565.5" font-family="Helvetica,sans-Serif" font-size="10.00" fill="#000000">openage::renderer::</text>
<text text-anchor="start" x="541.5" y="-554.5" font-family="Helvetica,sans-Serif" font-size="10.00" fill="#000000">tests::font_test_font</text>
<text text-anchor="middle" x="585.5" y="-543.5" font-family="Helvetica,sans-Serif" font-size="10.00" fill="#000000">_description</text>
</a>
</g>
</g>
<!-- Node307&#45;&gt;Node308 -->
<g id="edge46" class="edge">
<title>Node307&#45;&gt;Node308</title>
<path fill="none" stroke="#191970" d="M450.3253,-557C472.8123,-557 499.4728,-557 523.1494,-557"/>
<polygon fill="#191970" stroke="#191970" points="523.4413,-560.5001 533.4413,-557 523.4413,-553.5001 523.4413,-560.5001"/>
</g>
<!-- Node310&#45;&gt;Node304 -->
<g id="edge49" class="edge">
<title>Node310&#45;&gt;Node304</title>
<path fill="none" stroke="#191970" d="M274.6288,-453.8986C293.5034,-448.7747 314.7592,-443.0044 334.3108,-437.6968"/>
<polygon fill="#191970" stroke="#191970" points="335.3212,-441.0493 344.0549,-435.0516 333.4872,-434.2938 335.3212,-441.0493"/>
</g>
<!-- Node311 -->
<g id="node42" class="node">
<title>Node311</title>
<g id="a_node42"><a xlink:href="../../d2/dcd/structopenage_1_1coord_1_1viewport.xhtml#a1eca9ee705a35cf6176e9c9f708c5339" target="_top" xlink:title="openage::coord::viewport\l::to_camhud">
<polygon fill="#ffffff" stroke="#000000" points="336.5,-454 336.5,-484 462.5,-484 462.5,-454 336.5,-454"/>
<text text-anchor="start" x="344.5" y="-472" font-family="Helvetica,sans-Serif" font-size="10.00" fill="#000000">openage::coord::viewport</text>
<text text-anchor="middle" x="399.5" y="-461" font-family="Helvetica,sans-Serif" font-size="10.00" fill="#000000">::to_camhud</text>
</a>
</g>
</g>
<!-- Node310&#45;&gt;Node311 -->
<g id="edge50" class="edge">
<title>Node310&#45;&gt;Node311</title>
<path fill="none" stroke="#191970" d="M277.1049,-469C292.7231,-469 309.8186,-469 326.1487,-469"/>
<polygon fill="#191970" stroke="#191970" points="326.1975,-472.5001 336.1975,-469 326.1975,-465.5001 326.1975,-472.5001"/>
</g>
</g>
</svg>
        <g id="navigator" transform="translate(0 0)" fill="#404254">
                <rect fill="#f2f5e9" fill-opacity="0.5" stroke="#606060" stroke-width=".5" x="0" y="0" width="60" height="60"/>
                <use id="zoomplus" xlink:href="#zoomPlus" x="17" y="9" onmousedown="handleZoom(evt,'in')"/>
                <use id="zoomminus" xlink:href="#zoomMin" x="42" y="9" onmousedown="handleZoom(evt,'out')"/>
                <use id="reset" xlink:href="#resetDef" x="30" y="36" onmousedown="handleReset()"/>
                <g id="arrowUp" xlink:href="#dirArrow" transform="translate(30 24)" onmousedown="handlePan(0,-1)">
                  <use xlink:href="#rim" fill="#404040">
                        <set attributeName="fill" to="#808080" begin="arrowUp.mouseover" end="arrowUp.mouseout"/>
                  </use>
                  <path fill="none" stroke="white" stroke-width="1.5" d="M0,-3.0v7 M-2.5,-0.5L0,-3.0L2.5,-0.5"/>
                </g>
                <g id="arrowRight" xlink:href="#dirArrow" transform="rotate(90) translate(36 -43)" onmousedown="handlePan(1,0)">
                  <use xlink:href="#rim" fill="#404040">
                        <set attributeName="fill" to="#808080" begin="arrowRight.mouseover" end="arrowRight.mouseout"/>
                  </use>
                  <path fill="none" stroke="white" stroke-width="1.5" d="M0,-3.0v7 M-2.5,-0.5L0,-3.0L2.5,-0.5"/>
                </g>
                <g id="arrowDown" xlink:href="#dirArrow" transform="rotate(180) translate(-30 -48)" onmousedown="handlePan(0,1)">
                  <use xlink:href="#rim" fill="#404040">
                        <set attributeName="fill" to="#808080" begin="arrowDown.mouseover" end="arrowDown.mouseout"/>
                  </use>
                  <path fill="none" stroke="white" stroke-width="1.5" d="M0,-3.0v7 M-2.5,-0.5L0,-3.0L2.5,-0.5"/>
                </g>
                <g id="arrowLeft" xlink:href="#dirArrow" transform="rotate(270) translate(-36 17)" onmousedown="handlePan(-1,0)">
                  <use xlink:href="#rim" fill="#404040">
                        <set attributeName="fill" to="#808080" begin="arrowLeft.mouseover" end="arrowLeft.mouseout"/>
                  </use>
                  <path fill="none" stroke="white" stroke-width="1.5" d="M0,-3.0v7 M-2.5,-0.5L0,-3.0L2.5,-0.5"/>
                </g>
        </g>
        <svg viewBox="0 0 15 15" width="100%" height="30px" preserveAspectRatio="xMaxYMin meet">
         <g id="arrow_out" transform="scale(0.3 0.3)">
          <a xlink:href="classopenage_1_1_action_mode_aab55848d4a5495b982df54fe1d41865b_cgraph_org.svg" target="_base">
           <rect id="button" ry="5" rx="5" y="6" x="6" height="38" width="38"
                fill="#f2f5e9" fill-opacity="0.5" stroke="#606060" stroke-width="1.0"/>
           <path id="arrow"
             d="M 11.500037,31.436501 C 11.940474,20.09759 22.043105,11.32322 32.158766,21.979434 L 37.068811,17.246167 C 37.068811,17.246167 37.088388,32 37.088388,32 L 22.160133,31.978069 C 22.160133,31.978069 26.997745,27.140456 26.997745,27.140456 C 18.528582,18.264221 13.291696,25.230495 11.500037,31.436501 z"
             style="fill:#404040;"/>
          </a>
         </g>
        </svg>
</svg>
