<?xml version="1.0" encoding="UTF-8" standalone="no"?>
<!DOCTYPE svg PUBLIC "-//W3C//DTD SVG 1.1//EN"
 "http://www.w3.org/Graphics/SVG/1.1/DTD/svg11.dtd">
<!-- Generated by graphviz version 2.40.1 (20161225.0304)
 -->
<!-- Title: openage::ObjectProducer::place Pages: 1 -->
<svg width="466pt" height="39pt"
 viewBox="0.00 0.00 466.00 39.00" xmlns="http://www.w3.org/2000/svg" xmlns:xlink="http://www.w3.org/1999/xlink">
<g id="graph0" class="graph" transform="scale(1 1) rotate(0) translate(4 35)">
<title>openage::ObjectProducer::place</title>
<polygon fill="#ffffff" stroke="transparent" points="-4,4 -4,-35 462,-35 462,4 -4,4"/>
<!-- Node115 -->
<g id="node1" class="node">
<title>Node115</title>
<polygon fill="#bfbfbf" stroke="#000000" points="0,-.5 0,-30.5 127,-30.5 127,-.5 0,-.5"/>
<text text-anchor="start" x="8" y="-18.5" font-family="Helvetica,sans-Serif" font-size="10.00" fill="#000000">openage::ObjectProducer</text>
<text text-anchor="middle" x="63.5" y="-7.5" font-family="Helvetica,sans-Serif" font-size="10.00" fill="#000000">::place</text>
</g>
<!-- Node116 -->
<g id="node2" class="node">
<title>Node116</title>
<g id="a_node2"><a xlink:href="../../de/d30/classopenage_1_1_movable_producer.xhtml#ace952d53d7717d9db843391f49fbf76b" target="_top" xlink:title="set unit in place – return if placement was successful ">
<polygon fill="#ffffff" stroke="#000000" points="163,-.5 163,-30.5 298,-30.5 298,-.5 163,-.5"/>
<text text-anchor="start" x="171" y="-18.5" font-family="Helvetica,sans-Serif" font-size="10.00" fill="#000000">openage::MovableProducer</text>
<text text-anchor="middle" x="230.5" y="-7.5" font-family="Helvetica,sans-Serif" font-size="10.00" fill="#000000">::place</text>
</a>
</g>
</g>
<!-- Node115&#45;&gt;Node116 -->
<g id="edge1" class="edge">
<title>Node115&#45;&gt;Node116</title>
<path fill="none" stroke="#191970" d="M137.3783,-15.5C145.8693,-15.5 154.4948,-15.5 162.8972,-15.5"/>
<polygon fill="#191970" stroke="#191970" points="137.112,-12.0001 127.1119,-15.5 137.1119,-19.0001 137.112,-12.0001"/>
</g>
<!-- Node117 -->
<g id="node3" class="node">
<title>Node117</title>
<g id="a_node3"><a xlink:href="../../db/db1/classopenage_1_1_living_producer.xhtml#af454fa0fd996b30d44590a2e00a4380b" target="_top" xlink:title="set unit in place – return if placement was successful ">
<polygon fill="#ffffff" stroke="#000000" points="334,-.5 334,-30.5 458,-30.5 458,-.5 334,-.5"/>
<text text-anchor="start" x="342" y="-18.5" font-family="Helvetica,sans-Serif" font-size="10.00" fill="#000000">openage::LivingProducer</text>
<text text-anchor="middle" x="396" y="-7.5" font-family="Helvetica,sans-Serif" font-size="10.00" fill="#000000">::place</text>
</a>
</g>
</g>
<!-- Node116&#45;&gt;Node117 -->
<g id="edge2" class="edge">
<title>Node116&#45;&gt;Node117</title>
<path fill="none" stroke="#191970" d="M308.312,-15.5C316.8937,-15.5 325.5465,-15.5 333.8994,-15.5"/>
<polygon fill="#191970" stroke="#191970" points="308.2927,-12.0001 298.2927,-15.5 308.2927,-19.0001 308.2927,-12.0001"/>
</g>
</g>
</svg>
