<?xml version="1.0" encoding="UTF-8" standalone="no"?>
<!DOCTYPE svg PUBLIC "-//W3C//DTD SVG 1.1//EN"
 "http://www.w3.org/Graphics/SVG/1.1/DTD/svg11.dtd">
<!-- Generated by graphviz version 2.40.1 (20161225.0304)
 -->
<!-- Title: /mnt/c/Users/Jameson/Desktop/git/openage&#45;new&#45;doc&#45;system/libopenage/pyinterface/pyexception.cpp Pages: 1 -->
<svg width="1290pt" height="677pt"
 viewBox="0.00 0.00 1289.85 677.45" xmlns="http://www.w3.org/2000/svg" xmlns:xlink="http://www.w3.org/1999/xlink">
<g id="graph0" class="graph" transform="scale(1 1) rotate(0) translate(4 673.4516)">
<title>/mnt/c/Users/Jameson/Desktop/git/openage&#45;new&#45;doc&#45;system/libopenage/pyinterface/pyexception.cpp</title>
<polygon fill="#ffffff" stroke="transparent" points="-4,4 -4,-673.4516 1285.8512,-673.4516 1285.8512,4 -4,4"/>
<!-- Node0 -->
<g id="node1" class="node">
<title>Node0</title>
<polygon fill="#bfbfbf" stroke="#000000" points="789,-616.9516 789,-668.9516 931,-668.9516 931,-616.9516 789,-616.9516"/>
<text text-anchor="start" x="797" y="-656.9516" font-family="Helvetica,sans-Serif" font-size="10.00" fill="#000000">/mnt/c/Users/Jameson</text>
<text text-anchor="start" x="797" y="-645.9516" font-family="Helvetica,sans-Serif" font-size="10.00" fill="#000000">/Desktop/git/openage</text>
<text text-anchor="start" x="797" y="-634.9516" font-family="Helvetica,sans-Serif" font-size="10.00" fill="#000000">&#45;new&#45;doc&#45;system/libopenage</text>
<text text-anchor="middle" x="860" y="-623.9516" font-family="Helvetica,sans-Serif" font-size="10.00" fill="#000000">/pyinterface/pyexception.cpp</text>
</g>
<!-- Node1 -->
<g id="node2" class="node">
<title>Node1</title>
<g id="a_node2"><a xlink:href="../../d9/db0/pyexception_8h.xhtml" target="_top" xlink:title="pyexception.h">
<polygon fill="#ffffff" stroke="#000000" points="507.5,-560.9516 507.5,-579.9516 584.5,-579.9516 584.5,-560.9516 507.5,-560.9516"/>
<text text-anchor="middle" x="546" y="-567.9516" font-family="Helvetica,sans-Serif" font-size="10.00" fill="#000000">pyexception.h</text>
</a>
</g>
</g>
<!-- Node0&#45;&gt;Node1 -->
<g id="edge1" class="edge">
<title>Node0&#45;&gt;Node1</title>
<path fill="none" stroke="#191970" d="M788.7485,-626.5003C729.3764,-612.7917 646.4038,-593.634 594.4652,-581.6418"/>
<polygon fill="#191970" stroke="#191970" points="595.0386,-578.1822 584.5075,-579.3427 593.4637,-585.0028 595.0386,-578.1822"/>
</g>
<!-- Node38 -->
<g id="node39" class="node">
<title>Node38</title>
<g id="a_node39"><a xlink:href="../../d7/d7f/log_8h.xhtml" target="_top" xlink:title="../log/log.h">
<polygon fill="#ffffff" stroke="#000000" points="774,-336.9516 774,-355.9516 836,-355.9516 836,-336.9516 774,-336.9516"/>
<text text-anchor="middle" x="805" y="-343.9516" font-family="Helvetica,sans-Serif" font-size="10.00" fill="#000000">../log/log.h</text>
</a>
</g>
</g>
<!-- Node0&#45;&gt;Node38 -->
<g id="edge67" class="edge">
<title>Node0&#45;&gt;Node38</title>
<path fill="none" stroke="#191970" d="M855.1673,-616.8991C844.3244,-558.4458 818.2567,-417.9174 808.642,-366.0852"/>
<polygon fill="#191970" stroke="#191970" points="812.069,-365.3696 806.8038,-356.1757 805.1864,-366.6464 812.069,-365.3696"/>
</g>
<!-- Node2 -->
<g id="node3" class="node">
<title>Node2</title>
<polygon fill="#ffffff" stroke="#bfbfbf" points="940,-112.9516 940,-131.9516 992,-131.9516 992,-112.9516 940,-112.9516"/>
<text text-anchor="middle" x="966" y="-119.9516" font-family="Helvetica,sans-Serif" font-size="10.00" fill="#000000">memory</text>
</g>
<!-- Node1&#45;&gt;Node2 -->
<g id="edge2" class="edge">
<title>Node1&#45;&gt;Node2</title>
<path fill="none" stroke="#191970" d="M584.621,-567.4752C718.7114,-556.6317 1156,-516.797 1156,-458.4516 1156,-458.4516 1156,-458.4516 1156,-234.4516 1156,-163.7662 1057.2018,-136.7849 1002.0929,-127.233"/>
<polygon fill="#191970" stroke="#191970" points="1002.4522,-123.7456 992.0203,-125.5964 1001.3295,-130.655 1002.4522,-123.7456"/>
</g>
<!-- Node3 -->
<g id="node4" class="node">
<title>Node3</title>
<polygon fill="#ffffff" stroke="#bfbfbf" points="656.5,-.9516 656.5,-19.9516 697.5,-19.9516 697.5,-.9516 656.5,-.9516"/>
<text text-anchor="middle" x="677" y="-7.9516" font-family="Helvetica,sans-Serif" font-size="10.00" fill="#000000">string</text>
</g>
<!-- Node1&#45;&gt;Node3 -->
<g id="edge3" class="edge">
<title>Node1&#45;&gt;Node3</title>
<path fill="none" stroke="#191970" d="M584.7085,-568.1853C683.6579,-562.1635 943.9566,-544.825 1028,-524.4516 1130.6696,-499.563 1232,-508.0949 1232,-402.4516 1232,-402.4516 1232,-402.4516 1232,-122.4516 1232,-111.9332 1418.1722,-145.2728 1067,-56.4516 936.1436,-23.3544 774.4342,-13.9374 707.8544,-11.3689"/>
<polygon fill="#191970" stroke="#191970" points="707.7607,-7.8634 697.6411,-11.0007 707.5084,-14.8588 707.7607,-7.8634"/>
</g>
<!-- Node4 -->
<g id="node5" class="node">
<title>Node4</title>
<polygon fill="#ffffff" stroke="#bfbfbf" points="428,-112.9516 428,-131.9516 472,-131.9516 472,-112.9516 428,-112.9516"/>
<text text-anchor="middle" x="450" y="-119.9516" font-family="Helvetica,sans-Serif" font-size="10.00" fill="#000000">vector</text>
</g>
<!-- Node1&#45;&gt;Node4 -->
<g id="edge4" class="edge">
<title>Node1&#45;&gt;Node4</title>
<path fill="none" stroke="#191970" d="M541.5734,-560.7974C533.2284,-541.6868 516,-497.5037 516,-458.4516 516,-458.4516 516,-458.4516 516,-346.4516 516,-267.5186 477.8254,-179.0848 459.5419,-141.2566"/>
<polygon fill="#191970" stroke="#191970" points="462.5266,-139.3958 454.9607,-131.979 456.25,-142.4951 462.5266,-139.3958"/>
</g>
<!-- Node5 -->
<g id="node6" class="node">
<title>Node5</title>
<g id="a_node6"><a xlink:href="../../d7/dce/error_2error_8h.xhtml" target="_top" xlink:title="../error/error.h">
<polygon fill="#ffffff" stroke="#000000" points="154,-336.9516 154,-355.9516 230,-355.9516 230,-336.9516 154,-336.9516"/>
<text text-anchor="middle" x="192" y="-343.9516" font-family="Helvetica,sans-Serif" font-size="10.00" fill="#000000">../error/error.h</text>
</a>
</g>
</g>
<!-- Node1&#45;&gt;Node5 -->
<g id="edge5" class="edge">
<title>Node1&#45;&gt;Node5</title>
<path fill="none" stroke="#191970" d="M507.4745,-561.559C414.5664,-539.2113 182.8926,-477.7963 143,-412.4516 131.9445,-394.3426 150.2562,-375.0074 167.5538,-361.9778"/>
<polygon fill="#191970" stroke="#191970" points="169.6894,-364.7543 175.8308,-356.121 165.646,-359.0402 169.6894,-364.7543"/>
</g>
<!-- Node31 -->
<g id="node32" class="node">
<title>Node31</title>
<g id="a_node32"><a xlink:href="../../d3/dda/backtrace_8h.xhtml" target="_top" xlink:title="../error/backtrace.h">
<polygon fill="#ffffff" stroke="#000000" points="350.5,-168.9516 350.5,-187.9516 449.5,-187.9516 449.5,-168.9516 350.5,-168.9516"/>
<text text-anchor="middle" x="400" y="-175.9516" font-family="Helvetica,sans-Serif" font-size="10.00" fill="#000000">../error/backtrace.h</text>
</a>
</g>
</g>
<!-- Node1&#45;&gt;Node31 -->
<g id="edge46" class="edge">
<title>Node1&#45;&gt;Node31</title>
<path fill="none" stroke="#191970" d="M533.8889,-560.7012C523.9859,-552.1239 510.3075,-538.7966 502,-524.4516 436.6597,-411.6257 410.1352,-253.476 402.507,-198.3413"/>
<polygon fill="#191970" stroke="#191970" points="405.9453,-197.6451 401.1588,-188.1931 399.0063,-198.567 405.9453,-197.6451"/>
</g>
<!-- Node32 -->
<g id="node33" class="node">
<title>Node32</title>
<g id="a_node33"><a xlink:href="../../d8/dea/functional_8h.xhtml" target="_top" xlink:title="functional.h">
<polygon fill="#ffffff" stroke="#000000" points="260.5,-448.9516 260.5,-467.9516 327.5,-467.9516 327.5,-448.9516 260.5,-448.9516"/>
<text text-anchor="middle" x="294" y="-455.9516" font-family="Helvetica,sans-Serif" font-size="10.00" fill="#000000">functional.h</text>
</a>
</g>
</g>
<!-- Node1&#45;&gt;Node32 -->
<g id="edge51" class="edge">
<title>Node1&#45;&gt;Node32</title>
<path fill="none" stroke="#191970" d="M519.4891,-560.8605C495.3976,-551.9695 458.9911,-538.0943 428,-524.4516 390.5845,-507.9809 348.4373,-486.7685 321.5734,-472.8996"/>
<polygon fill="#191970" stroke="#191970" points="322.8933,-469.6415 312.4047,-468.1446 319.6706,-475.8555 322.8933,-469.6415"/>
</g>
<!-- Node36 -->
<g id="node37" class="node">
<title>Node36</title>
<g id="a_node37"><a xlink:href="../../d2/d4b/pyobject_8h.xhtml" target="_top" xlink:title="pyobject.h">
<polygon fill="#ffffff" stroke="#000000" points="559,-504.9516 559,-523.9516 621,-523.9516 621,-504.9516 559,-504.9516"/>
<text text-anchor="middle" x="590" y="-511.9516" font-family="Helvetica,sans-Serif" font-size="10.00" fill="#000000">pyobject.h</text>
</a>
</g>
</g>
<!-- Node1&#45;&gt;Node36 -->
<g id="edge61" class="edge">
<title>Node1&#45;&gt;Node36</title>
<path fill="none" stroke="#191970" d="M553.6642,-560.6972C559.8473,-552.8278 568.7063,-541.5526 576.1289,-532.1058"/>
<polygon fill="#191970" stroke="#191970" points="578.9975,-534.1199 582.4236,-524.0943 573.4932,-529.7951 578.9975,-534.1199"/>
</g>
<!-- Node5&#45;&gt;Node2 -->
<g id="edge7" class="edge">
<title>Node5&#45;&gt;Node2</title>
<path fill="none" stroke="#191970" d="M230.3131,-344.3521C329.5877,-338.0331 602.3826,-315.0529 817,-244.4516 835.5041,-238.3644 838.4072,-232.8152 856,-224.4516 891.9467,-207.3627 910.0316,-216.7707 938,-188.4516 950.5454,-175.7489 957.8226,-156.561 961.7968,-142.143"/>
<polygon fill="#191970" stroke="#191970" points="965.2443,-142.7794 964.2245,-132.2338 958.4454,-141.1136 965.2443,-142.7794"/>
</g>
<!-- Node5&#45;&gt;Node3 -->
<g id="edge9" class="edge">
<title>Node5&#45;&gt;Node3</title>
<path fill="none" stroke="#191970" d="M183.5023,-336.6703C176.4597,-327.8696 166.9829,-314.2377 163,-300.4516 160.5328,-291.912 161.1692,-289.1499 163,-280.4516 179.8048,-200.6119 177.7944,-168.5897 237,-112.4516 296.9421,-55.6152 556.2385,-23.2445 646.1562,-13.5655"/>
<polygon fill="#191970" stroke="#191970" points="646.6808,-17.0296 656.2574,-12.4975 645.9448,-10.0684 646.6808,-17.0296"/>
</g>
<!-- Node6 -->
<g id="node7" class="node">
<title>Node6</title>
<polygon fill="#ffffff" stroke="#bfbfbf" points="410,-56.9516 410,-75.9516 464,-75.9516 464,-56.9516 410,-56.9516"/>
<text text-anchor="middle" x="437" y="-63.9516" font-family="Helvetica,sans-Serif" font-size="10.00" fill="#000000">iostream</text>
</g>
<!-- Node5&#45;&gt;Node6 -->
<g id="edge6" class="edge">
<title>Node5&#45;&gt;Node6</title>
<path fill="none" stroke="#191970" d="M207.3214,-336.7962C218.787,-328.6401 233.6976,-315.8427 241,-300.4516 276.902,-224.7815 200.2497,-176.6842 254,-112.4516 272.46,-90.3916 351.7105,-76.9506 399.6607,-70.6847"/>
<polygon fill="#191970" stroke="#191970" points="400.191,-74.1456 409.6739,-69.4207 399.3142,-67.2007 400.191,-74.1456"/>
</g>
<!-- Node7 -->
<g id="node8" class="node">
<title>Node7</title>
<polygon fill="#ffffff" stroke="#bfbfbf" points="172.5,-280.9516 172.5,-299.9516 231.5,-299.9516 231.5,-280.9516 172.5,-280.9516"/>
<text text-anchor="middle" x="202" y="-287.9516" font-family="Helvetica,sans-Serif" font-size="10.00" fill="#000000">stdexcept</text>
</g>
<!-- Node5&#45;&gt;Node7 -->
<g id="edge8" class="edge">
<title>Node5&#45;&gt;Node7</title>
<path fill="none" stroke="#191970" d="M193.7419,-336.6972C195.0467,-329.3899 196.876,-319.146 198.4813,-310.1562"/>
<polygon fill="#191970" stroke="#191970" points="201.9656,-310.5539 200.2781,-300.0943 195.0746,-309.3233 201.9656,-310.5539"/>
</g>
<!-- Node8 -->
<g id="node9" class="node">
<title>Node8</title>
<g id="a_node9"><a xlink:href="../../d4/dd1/compiler_8h.xhtml" target="_top" xlink:title="../util/compiler.h">
<polygon fill="#ffffff" stroke="#000000" points="66,-56.9516 66,-75.9516 152,-75.9516 152,-56.9516 66,-56.9516"/>
<text text-anchor="middle" x="109" y="-63.9516" font-family="Helvetica,sans-Serif" font-size="10.00" fill="#000000">../util/compiler.h</text>
</a>
</g>
</g>
<!-- Node5&#45;&gt;Node8 -->
<g id="edge10" class="edge">
<title>Node5&#45;&gt;Node8</title>
<path fill="none" stroke="#191970" d="M173.6909,-336.7945C159.9637,-328.7207 141.6158,-316.0325 130,-300.4516 111.3444,-275.4278 106,-265.6642 106,-234.4516 106,-234.4516 106,-234.4516 106,-178.4516 106,-146.1516 107.2622,-108.6307 108.1492,-86.2521"/>
<polygon fill="#191970" stroke="#191970" points="111.6553,-86.1734 108.5702,-76.0377 104.6613,-85.8851 111.6553,-86.1734"/>
</g>
<!-- Node11 -->
<g id="node12" class="node">
<title>Node11</title>
<g id="a_node12"><a xlink:href="../../d2/d0d/message_8h.xhtml" target="_top" xlink:title="../log/message.h">
<polygon fill="#ffffff" stroke="#000000" points="760.5,-280.9516 760.5,-299.9516 849.5,-299.9516 849.5,-280.9516 760.5,-280.9516"/>
<text text-anchor="middle" x="805" y="-287.9516" font-family="Helvetica,sans-Serif" font-size="10.00" fill="#000000">../log/message.h</text>
</a>
</g>
</g>
<!-- Node5&#45;&gt;Node11 -->
<g id="edge15" class="edge">
<title>Node5&#45;&gt;Node11</title>
<path fill="none" stroke="#191970" d="M230.3459,-342.9486C335.2772,-333.3627 627.4408,-306.6724 749.892,-295.486"/>
<polygon fill="#191970" stroke="#191970" points="750.5174,-298.9435 760.1575,-294.5482 749.8805,-291.9725 750.5174,-298.9435"/>
</g>
<!-- Node8&#45;&gt;Node3 -->
<g id="edge12" class="edge">
<title>Node8&#45;&gt;Node3</title>
<path fill="none" stroke="#191970" d="M152.2029,-58.8544C157.8438,-57.979 163.5533,-57.1511 169,-56.4516 348.9403,-33.3426 566.2098,-17.7612 645.829,-12.4584"/>
<polygon fill="#191970" stroke="#191970" points="646.384,-15.9295 656.1319,-11.7787 645.9231,-8.9447 646.384,-15.9295"/>
</g>
<!-- Node9 -->
<g id="node10" class="node">
<title>Node9</title>
<polygon fill="#ffffff" stroke="#bfbfbf" points="50,-.9516 50,-19.9516 100,-19.9516 100,-.9516 50,-.9516"/>
<text text-anchor="middle" x="75" y="-7.9516" font-family="Helvetica,sans-Serif" font-size="10.00" fill="#000000">ciso646</text>
</g>
<!-- Node8&#45;&gt;Node9 -->
<g id="edge11" class="edge">
<title>Node8&#45;&gt;Node9</title>
<path fill="none" stroke="#191970" d="M103.0777,-56.6972C98.3973,-48.9884 91.7327,-38.0114 86.0711,-28.6864"/>
<polygon fill="#191970" stroke="#191970" points="89.0361,-26.8258 80.8545,-20.0943 83.0525,-30.4586 89.0361,-26.8258"/>
</g>
<!-- Node10 -->
<g id="node11" class="node">
<title>Node10</title>
<g id="a_node11"><a xlink:href="../../d8/d39/signal_8h.xhtml" target="_top" xlink:title="signal.h">
<polygon fill="#ffffff" stroke="#000000" points="118,-.9516 118,-19.9516 168,-19.9516 168,-.9516 118,-.9516"/>
<text text-anchor="middle" x="143" y="-7.9516" font-family="Helvetica,sans-Serif" font-size="10.00" fill="#000000">signal.h</text>
</a>
</g>
</g>
<!-- Node8&#45;&gt;Node10 -->
<g id="edge13" class="edge">
<title>Node8&#45;&gt;Node10</title>
<path fill="none" stroke="#191970" d="M114.9223,-56.6972C119.6027,-48.9884 126.2673,-38.0114 131.9289,-28.6864"/>
<polygon fill="#191970" stroke="#191970" points="134.9475,-30.4586 137.1455,-20.0943 128.9639,-26.8258 134.9475,-30.4586"/>
</g>
<!-- Node10&#45;&gt;Node10 -->
<g id="edge14" class="edge">
<title>Node10&#45;&gt;Node10</title>
<path fill="none" stroke="#191970" d="M161.5634,-20.0262C173.9465,-22.7213 186,-19.5298 186,-10.4516 186,-3.9267 179.7731,-.4429 171.6726,0"/>
<polygon fill="#191970" stroke="#191970" points="171.2234,3.4743 161.5634,-.877 171.8285,-3.4995 171.2234,3.4743"/>
</g>
<!-- Node11&#45;&gt;Node3 -->
<g id="edge17" class="edge">
<title>Node11&#45;&gt;Node3</title>
<path fill="none" stroke="#191970" d="M849.5562,-287.7364C909.342,-283.097 1010.8322,-271.3907 1035,-244.4516 1057.605,-219.2546 1050.1381,-200.7486 1040,-168.4516 1030.9164,-139.514 1025.4405,-130.4117 1001,-112.4516 908.428,-44.4254 769.1301,-20.8657 707.8223,-13.4892"/>
<polygon fill="#191970" stroke="#191970" points="707.9819,-9.9848 697.6498,-12.3294 707.1889,-16.9397 707.9819,-9.9848"/>
</g>
<!-- Node12 -->
<g id="node13" class="node">
<title>Node12</title>
<polygon fill="#ffffff" stroke="#bfbfbf" points="1082,-224.9516 1082,-243.9516 1128,-243.9516 1128,-224.9516 1082,-224.9516"/>
<text text-anchor="middle" x="1105" y="-231.9516" font-family="Helvetica,sans-Serif" font-size="10.00" fill="#000000">cstdint</text>
</g>
<!-- Node11&#45;&gt;Node12 -->
<g id="edge16" class="edge">
<title>Node11&#45;&gt;Node12</title>
<path fill="none" stroke="#191970" d="M849.9173,-283.8674C902.4714,-275.8703 991.9797,-261.3362 1068,-244.4516 1069.2789,-244.1676 1070.5798,-243.8681 1071.892,-243.5572"/>
<polygon fill="#191970" stroke="#191970" points="1073.1432,-246.8516 1081.9874,-241.0181 1071.4357,-240.063 1073.1432,-246.8516"/>
</g>
<!-- Node13 -->
<g id="node14" class="node">
<title>Node13</title>
<polygon fill="#ffffff" stroke="#bfbfbf" points="864.5,-224.9516 864.5,-243.9516 915.5,-243.9516 915.5,-224.9516 864.5,-224.9516"/>
<text text-anchor="middle" x="890" y="-231.9516" font-family="Helvetica,sans-Serif" font-size="10.00" fill="#000000">config.h</text>
</g>
<!-- Node11&#45;&gt;Node13 -->
<g id="edge18" class="edge">
<title>Node11&#45;&gt;Node13</title>
<path fill="none" stroke="#191970" d="M819.8059,-280.6972C832.7256,-272.1854 851.6931,-259.6891 866.6552,-249.8317"/>
<polygon fill="#191970" stroke="#191970" points="868.9387,-252.5186 875.3638,-244.0943 865.0876,-246.6732 868.9387,-252.5186"/>
</g>
<!-- Node14 -->
<g id="node15" class="node">
<title>Node14</title>
<g id="a_node15"><a xlink:href="../../d1/d06/constexpr_8h.xhtml" target="_top" xlink:title="../util/constexpr.h">
<polygon fill="#ffffff" stroke="#000000" points="934,-224.9516 934,-243.9516 1026,-243.9516 1026,-224.9516 934,-224.9516"/>
<text text-anchor="middle" x="980" y="-231.9516" font-family="Helvetica,sans-Serif" font-size="10.00" fill="#000000">../util/constexpr.h</text>
</a>
</g>
</g>
<!-- Node11&#45;&gt;Node14 -->
<g id="edge19" class="edge">
<title>Node11&#45;&gt;Node14</title>
<path fill="none" stroke="#191970" d="M835.0836,-280.8249C864.1834,-271.5129 908.4523,-257.3469 940.403,-247.1227"/>
<polygon fill="#191970" stroke="#191970" points="941.8515,-250.3341 950.309,-243.9528 939.718,-243.6671 941.8515,-250.3341"/>
</g>
<!-- Node16 -->
<g id="node17" class="node">
<title>Node16</title>
<g id="a_node17"><a xlink:href="../../de/d65/stringformatter_8h.xhtml" target="_top" xlink:title="../util/stringformatter.h">
<polygon fill="#ffffff" stroke="#000000" points="694.5,-224.9516 694.5,-243.9516 807.5,-243.9516 807.5,-224.9516 694.5,-224.9516"/>
<text text-anchor="middle" x="751" y="-231.9516" font-family="Helvetica,sans-Serif" font-size="10.00" fill="#000000">../util/stringformatter.h</text>
</a>
</g>
</g>
<!-- Node11&#45;&gt;Node16 -->
<g id="edge21" class="edge">
<title>Node11&#45;&gt;Node16</title>
<path fill="none" stroke="#191970" d="M795.5939,-280.6972C787.8507,-272.6672 776.688,-261.091 767.4682,-251.5298"/>
<polygon fill="#191970" stroke="#191970" points="769.7591,-248.8633 760.2983,-244.0943 764.7202,-253.7223 769.7591,-248.8633"/>
</g>
<!-- Node25 -->
<g id="node26" class="node">
<title>Node25</title>
<g id="a_node26"><a xlink:href="../../d3/d4e/logsink_8h.xhtml" target="_top" xlink:title="logsink.h">
<polygon fill="#ffffff" stroke="#000000" points="544,-224.9516 544,-243.9516 600,-243.9516 600,-224.9516 544,-224.9516"/>
<text text-anchor="middle" x="572" y="-231.9516" font-family="Helvetica,sans-Serif" font-size="10.00" fill="#000000">logsink.h</text>
</a>
</g>
</g>
<!-- Node11&#45;&gt;Node25 -->
<g id="edge37" class="edge">
<title>Node11&#45;&gt;Node25</title>
<path fill="none" stroke="#191970" d="M765.2106,-280.8885C721.7718,-270.4483 652.719,-253.8519 609.9996,-243.5846"/>
<polygon fill="#191970" stroke="#191970" points="610.8009,-240.1776 600.2598,-241.2437 609.165,-246.9837 610.8009,-240.1776"/>
</g>
<!-- Node28 -->
<g id="node29" class="node">
<title>Node28</title>
<g id="a_node29"><a xlink:href="../../de/d09/level_8h.xhtml" target="_top" xlink:title="level.h">
<polygon fill="#ffffff" stroke="#000000" points="591.5,-168.9516 591.5,-187.9516 636.5,-187.9516 636.5,-168.9516 591.5,-168.9516"/>
<text text-anchor="middle" x="614" y="-175.9516" font-family="Helvetica,sans-Serif" font-size="10.00" fill="#000000">level.h</text>
</a>
</g>
</g>
<!-- Node11&#45;&gt;Node28 -->
<g id="edge45" class="edge">
<title>Node11&#45;&gt;Node28</title>
<path fill="none" stroke="#191970" d="M770.5983,-280.9129C745.9412,-273.2013 712.5365,-260.9193 686,-244.4516 664.1175,-230.8721 642.858,-210.1757 629.1841,-195.5862"/>
<polygon fill="#191970" stroke="#191970" points="631.7476,-193.203 622.4121,-188.1931 626.5858,-197.9313 631.7476,-193.203"/>
</g>
<!-- Node15 -->
<g id="node16" class="node">
<title>Node15</title>
<polygon fill="#ffffff" stroke="#bfbfbf" points="985.5,-168.9516 985.5,-187.9516 1030.5,-187.9516 1030.5,-168.9516 985.5,-168.9516"/>
<text text-anchor="middle" x="1008" y="-175.9516" font-family="Helvetica,sans-Serif" font-size="10.00" fill="#000000">cstdlib</text>
</g>
<!-- Node14&#45;&gt;Node15 -->
<g id="edge20" class="edge">
<title>Node14&#45;&gt;Node15</title>
<path fill="none" stroke="#191970" d="M984.8772,-224.6972C988.6513,-217.149 993.9921,-206.4674 998.5901,-197.2714"/>
<polygon fill="#191970" stroke="#191970" points="1001.837,-198.6039 1003.1787,-188.0943 995.576,-195.4733 1001.837,-198.6039"/>
</g>
<!-- Node16&#45;&gt;Node2 -->
<g id="edge23" class="edge">
<title>Node16&#45;&gt;Node2</title>
<path fill="none" stroke="#191970" d="M768.6053,-224.9241C797.5239,-209.2877 853.8815,-178.8762 874,-168.4516 895.1007,-157.5182 919.1255,-145.521 937.3319,-136.5207"/>
<polygon fill="#191970" stroke="#191970" points="939.1136,-139.5446 946.5337,-131.982 936.017,-133.2667 939.1136,-139.5446"/>
</g>
<!-- Node16&#45;&gt;Node8 -->
<g id="edge25" class="edge">
<title>Node16&#45;&gt;Node8</title>
<path fill="none" stroke="#191970" d="M694.2827,-230.5855C577.3182,-222.372 317.0486,-202.765 279,-188.4516 215.5984,-164.6008 154.3647,-110.7676 125.7789,-83.2841"/>
<polygon fill="#191970" stroke="#191970" points="128.2063,-80.7625 118.6073,-76.278 123.3146,-85.7697 128.2063,-80.7625"/>
</g>
<!-- Node17 -->
<g id="node18" class="node">
<title>Node17</title>
<polygon fill="#ffffff" stroke="#bfbfbf" points="883,-168.9516 883,-187.9516 929,-187.9516 929,-168.9516 883,-168.9516"/>
<text text-anchor="middle" x="906" y="-175.9516" font-family="Helvetica,sans-Serif" font-size="10.00" fill="#000000">atomic</text>
</g>
<!-- Node16&#45;&gt;Node17 -->
<g id="edge22" class="edge">
<title>Node16&#45;&gt;Node17</title>
<path fill="none" stroke="#191970" d="M777.6454,-224.8249C804.1256,-215.2579 844.7872,-200.5672 873.2288,-190.2916"/>
<polygon fill="#191970" stroke="#191970" points="874.5203,-193.5464 882.736,-186.8567 872.1417,-186.9629 874.5203,-193.5464"/>
</g>
<!-- Node18 -->
<g id="node19" class="node">
<title>Node18</title>
<polygon fill="#ffffff" stroke="#bfbfbf" points="765,-168.9516 765,-187.9516 827,-187.9516 827,-168.9516 765,-168.9516"/>
<text text-anchor="middle" x="796" y="-175.9516" font-family="Helvetica,sans-Serif" font-size="10.00" fill="#000000">type_traits</text>
</g>
<!-- Node16&#45;&gt;Node18 -->
<g id="edge24" class="edge">
<title>Node16&#45;&gt;Node18</title>
<path fill="none" stroke="#191970" d="M758.8384,-224.6972C765.162,-216.8278 774.2224,-205.5526 781.8136,-196.1058"/>
<polygon fill="#191970" stroke="#191970" points="784.7158,-198.0818 788.2514,-188.0943 779.2592,-193.697 784.7158,-198.0818"/>
</g>
<!-- Node19 -->
<g id="node20" class="node">
<title>Node19</title>
<g id="a_node20"><a xlink:href="../../dc/dcf/externalsstream_8h.xhtml" target="_top" xlink:title="externalsstream.h">
<polygon fill="#ffffff" stroke="#000000" points="582.5,-112.9516 582.5,-131.9516 677.5,-131.9516 677.5,-112.9516 582.5,-112.9516"/>
<text text-anchor="middle" x="630" y="-119.9516" font-family="Helvetica,sans-Serif" font-size="10.00" fill="#000000">externalsstream.h</text>
</a>
</g>
</g>
<!-- Node16&#45;&gt;Node19 -->
<g id="edge26" class="edge">
<title>Node16&#45;&gt;Node19</title>
<path fill="none" stroke="#191970" d="M734.3481,-224.8611C720.177,-216.2837 699.685,-202.8704 684,-188.4516 668.0853,-173.8217 652.7576,-154.4093 642.5248,-140.4295"/>
<polygon fill="#191970" stroke="#191970" points="645.2499,-138.2235 636.5812,-132.1322 639.5593,-142.2999 645.2499,-138.2235"/>
</g>
<!-- Node20 -->
<g id="node21" class="node">
<title>Node20</title>
<g id="a_node21"><a xlink:href="../../d6/d90/strings_8h.xhtml" target="_top" xlink:title="strings.h">
<polygon fill="#ffffff" stroke="#000000" points="693,-168.9516 693,-187.9516 747,-187.9516 747,-168.9516 693,-168.9516"/>
<text text-anchor="middle" x="720" y="-175.9516" font-family="Helvetica,sans-Serif" font-size="10.00" fill="#000000">strings.h</text>
</a>
</g>
</g>
<!-- Node16&#45;&gt;Node20 -->
<g id="edge29" class="edge">
<title>Node16&#45;&gt;Node20</title>
<path fill="none" stroke="#191970" d="M745.6002,-224.6972C741.3773,-217.0687 735.3827,-206.2398 730.2559,-196.9784"/>
<polygon fill="#191970" stroke="#191970" points="733.2432,-195.1481 725.3379,-188.0943 727.119,-198.5384 733.2432,-195.1481"/>
</g>
<!-- Node19&#45;&gt;Node3 -->
<g id="edge28" class="edge">
<title>Node19&#45;&gt;Node3</title>
<path fill="none" stroke="#191970" d="M634.0072,-112.9026C641.7422,-94.4703 658.8608,-53.677 669.0087,-29.4946"/>
<polygon fill="#191970" stroke="#191970" points="672.3607,-30.5519 673.0029,-19.9765 665.906,-27.8432 672.3607,-30.5519"/>
</g>
<!-- Node19&#45;&gt;Node6 -->
<g id="edge27" class="edge">
<title>Node19&#45;&gt;Node6</title>
<path fill="none" stroke="#191970" d="M596.8221,-112.8249C562.6856,-102.92 509.6215,-87.5231 474.1116,-77.2198"/>
<polygon fill="#191970" stroke="#191970" points="474.7233,-73.753 464.1441,-74.3276 472.7726,-80.4757 474.7233,-73.753"/>
</g>
<!-- Node20&#45;&gt;Node2 -->
<g id="edge33" class="edge">
<title>Node20&#45;&gt;Node2</title>
<path fill="none" stroke="#191970" d="M747.0753,-170.718C750.079,-169.9235 753.0995,-169.152 756,-168.4516 830.1732,-150.5425 852.1779,-151.2815 929.9193,-132.5803"/>
<polygon fill="#191970" stroke="#191970" points="930.7966,-135.969 939.6835,-130.2007 929.1391,-129.168 930.7966,-135.969"/>
</g>
<!-- Node20&#45;&gt;Node3 -->
<g id="edge35" class="edge">
<title>Node20&#45;&gt;Node3</title>
<path fill="none" stroke="#191970" d="M717.5649,-168.9379C710.7382,-142.266 691.3107,-66.3634 682.041,-30.1466"/>
<polygon fill="#191970" stroke="#191970" points="685.3858,-29.0993 679.5155,-20.2795 678.6044,-30.8351 685.3858,-29.0993"/>
</g>
<!-- Node20&#45;&gt;Node4 -->
<g id="edge36" class="edge">
<title>Node20&#45;&gt;Node4</title>
<path fill="none" stroke="#191970" d="M692.8804,-174.3382C650.0479,-167.6046 563.9922,-153.1173 482.2058,-132.5303"/>
<polygon fill="#191970" stroke="#191970" points="482.8112,-129.0727 472.2562,-129.9896 481.0792,-135.855 482.8112,-129.0727"/>
</g>
<!-- Node21 -->
<g id="node22" class="node">
<title>Node21</title>
<polygon fill="#ffffff" stroke="#bfbfbf" points="734.5,-112.9516 734.5,-131.9516 783.5,-131.9516 783.5,-112.9516 734.5,-112.9516"/>
<text text-anchor="middle" x="759" y="-119.9516" font-family="Helvetica,sans-Serif" font-size="10.00" fill="#000000">cstdarg</text>
</g>
<!-- Node20&#45;&gt;Node21 -->
<g id="edge30" class="edge">
<title>Node20&#45;&gt;Node21</title>
<path fill="none" stroke="#191970" d="M726.7933,-168.6972C732.2178,-160.9081 739.9661,-149.7824 746.5033,-140.3956"/>
<polygon fill="#191970" stroke="#191970" points="749.4417,-142.3006 752.2846,-132.0943 743.6975,-138.3001 749.4417,-142.3006"/>
</g>
<!-- Node22 -->
<g id="node23" class="node">
<title>Node22</title>
<polygon fill="#ffffff" stroke="#bfbfbf" points="262.5,-112.9516 262.5,-131.9516 321.5,-131.9516 321.5,-112.9516 262.5,-112.9516"/>
<text text-anchor="middle" x="292" y="-119.9516" font-family="Helvetica,sans-Serif" font-size="10.00" fill="#000000">functional</text>
</g>
<!-- Node20&#45;&gt;Node22 -->
<g id="edge31" class="edge">
<title>Node20&#45;&gt;Node22</title>
<path fill="none" stroke="#191970" d="M692.9412,-174.7614C678.9328,-172.8594 661.5504,-170.5127 646,-168.4516 532.2231,-153.3718 397.8077,-136.0373 332.1539,-127.6016"/>
<polygon fill="#191970" stroke="#191970" points="332.2082,-124.0799 321.8438,-126.2774 331.3165,-131.0229 332.2082,-124.0799"/>
</g>
<!-- Node23 -->
<g id="node24" class="node">
<title>Node23</title>
<polygon fill="#ffffff" stroke="#bfbfbf" points="802,-112.9516 802,-131.9516 852,-131.9516 852,-112.9516 802,-112.9516"/>
<text text-anchor="middle" x="827" y="-119.9516" font-family="Helvetica,sans-Serif" font-size="10.00" fill="#000000">iomanip</text>
</g>
<!-- Node20&#45;&gt;Node23 -->
<g id="edge32" class="edge">
<title>Node20&#45;&gt;Node23</title>
<path fill="none" stroke="#191970" d="M738.638,-168.6972C755.4386,-159.9043 780.3634,-146.8596 799.4618,-136.8641"/>
<polygon fill="#191970" stroke="#191970" points="801.3386,-139.8323 808.5756,-132.0943 798.0927,-133.6304 801.3386,-139.8323"/>
</g>
<!-- Node24 -->
<g id="node25" class="node">
<title>Node24</title>
<polygon fill="#ffffff" stroke="#bfbfbf" points="870,-112.9516 870,-131.9516 922,-131.9516 922,-112.9516 870,-112.9516"/>
<text text-anchor="middle" x="896" y="-119.9516" font-family="Helvetica,sans-Serif" font-size="10.00" fill="#000000">sstream</text>
</g>
<!-- Node20&#45;&gt;Node24 -->
<g id="edge34" class="edge">
<title>Node20&#45;&gt;Node24</title>
<path fill="none" stroke="#191970" d="M747.1143,-169.8244C777.3494,-160.2041 826.393,-144.5993 859.8672,-133.9484"/>
<polygon fill="#191970" stroke="#191970" points="861.2499,-137.1815 869.7179,-130.8141 859.1274,-130.511 861.2499,-137.1815"/>
</g>
<!-- Node26 -->
<g id="node27" class="node">
<title>Node26</title>
<polygon fill="#ffffff" stroke="#bfbfbf" points="544.5,-168.9516 544.5,-187.9516 573.5,-187.9516 573.5,-168.9516 544.5,-168.9516"/>
<text text-anchor="middle" x="559" y="-175.9516" font-family="Helvetica,sans-Serif" font-size="10.00" fill="#000000">list</text>
</g>
<!-- Node25&#45;&gt;Node26 -->
<g id="edge38" class="edge">
<title>Node25&#45;&gt;Node26</title>
<path fill="none" stroke="#191970" d="M569.7356,-224.6972C568.0206,-217.3096 565.6088,-206.9205 563.5056,-197.8603"/>
<polygon fill="#191970" stroke="#191970" points="566.9092,-197.0438 561.2385,-188.0943 560.0905,-198.6268 566.9092,-197.0438"/>
</g>
<!-- Node27 -->
<g id="node28" class="node">
<title>Node27</title>
<polygon fill="#ffffff" stroke="#bfbfbf" points="288,-168.9516 288,-187.9516 332,-187.9516 332,-168.9516 288,-168.9516"/>
<text text-anchor="middle" x="310" y="-175.9516" font-family="Helvetica,sans-Serif" font-size="10.00" fill="#000000">mutex</text>
</g>
<!-- Node25&#45;&gt;Node27 -->
<g id="edge39" class="edge">
<title>Node25&#45;&gt;Node27</title>
<path fill="none" stroke="#191970" d="M543.815,-229.8027C500.2348,-222.3929 414.0035,-206.8479 342,-188.4516 341.9013,-188.4264 341.8025,-188.4011 341.7035,-188.3756"/>
<polygon fill="#191970" stroke="#191970" points="342.8665,-185.0666 332.2936,-185.748 340.9838,-191.8086 342.8665,-185.0666"/>
</g>
<!-- Node25&#45;&gt;Node28 -->
<g id="edge40" class="edge">
<title>Node25&#45;&gt;Node28</title>
<path fill="none" stroke="#191970" d="M579.3158,-224.6972C585.2179,-216.8278 593.6742,-205.5526 600.7594,-196.1058"/>
<polygon fill="#191970" stroke="#191970" points="603.568,-198.1943 606.768,-188.0943 597.9679,-193.9943 603.568,-198.1943"/>
</g>
<!-- Node29 -->
<g id="node30" class="node">
<title>Node29</title>
<g id="a_node30"><a xlink:href="../../d0/d9b/enum_8h.xhtml" target="_top" xlink:title="../util/enum.h">
<polygon fill="#ffffff" stroke="#000000" points="490,-112.9516 490,-131.9516 564,-131.9516 564,-112.9516 490,-112.9516"/>
<text text-anchor="middle" x="527" y="-119.9516" font-family="Helvetica,sans-Serif" font-size="10.00" fill="#000000">../util/enum.h</text>
</a>
</g>
</g>
<!-- Node28&#45;&gt;Node29 -->
<g id="edge41" class="edge">
<title>Node28&#45;&gt;Node29</title>
<path fill="none" stroke="#191970" d="M598.8458,-168.6972C585.4973,-160.1051 565.8414,-147.453 550.4617,-137.5534"/>
<polygon fill="#191970" stroke="#191970" points="552.2836,-134.5638 541.9806,-132.0943 548.4949,-140.4498 552.2836,-134.5638"/>
</g>
<!-- Node29&#45;&gt;Node6 -->
<g id="edge42" class="edge">
<title>Node29&#45;&gt;Node6</title>
<path fill="none" stroke="#191970" d="M511.3232,-112.6972C497.5144,-104.1051 477.1807,-91.453 461.2708,-81.5534"/>
<polygon fill="#191970" stroke="#191970" points="462.8368,-78.4057 452.4972,-76.0943 459.1387,-84.3491 462.8368,-78.4057"/>
</g>
<!-- Node29&#45;&gt;Node8 -->
<g id="edge44" class="edge">
<title>Node29&#45;&gt;Node8</title>
<path fill="none" stroke="#191970" d="M489.8993,-114.0828C486.8948,-113.4977 483.9005,-112.9452 481,-112.4516 368.1858,-93.2551 234.8286,-78.726 162.3837,-71.5101"/>
<polygon fill="#191970" stroke="#191970" points="162.4424,-67.999 152.1468,-70.4988 161.7542,-74.9651 162.4424,-67.999"/>
</g>
<!-- Node30 -->
<g id="node31" class="node">
<title>Node30</title>
<polygon fill="#ffffff" stroke="#bfbfbf" points="501.5,-56.9516 501.5,-75.9516 552.5,-75.9516 552.5,-56.9516 501.5,-56.9516"/>
<text text-anchor="middle" x="527" y="-63.9516" font-family="Helvetica,sans-Serif" font-size="10.00" fill="#000000">typeinfo</text>
</g>
<!-- Node29&#45;&gt;Node30 -->
<g id="edge43" class="edge">
<title>Node29&#45;&gt;Node30</title>
<path fill="none" stroke="#191970" d="M527,-112.6972C527,-105.3899 527,-95.146 527,-86.1562"/>
<polygon fill="#191970" stroke="#191970" points="530.5001,-86.0943 527,-76.0943 523.5001,-86.0943 530.5001,-86.0943"/>
</g>
<!-- Node31&#45;&gt;Node3 -->
<g id="edge48" class="edge">
<title>Node31&#45;&gt;Node3</title>
<path fill="none" stroke="#191970" d="M396.4053,-168.7993C388.6537,-146.1361 373.2105,-88.9847 401,-56.4516 416.8354,-37.9131 577.5733,-20.1612 646.2048,-13.3633"/>
<polygon fill="#191970" stroke="#191970" points="646.7803,-16.8238 656.3926,-12.3679 646.0996,-9.857 646.7803,-16.8238"/>
</g>
<!-- Node31&#45;&gt;Node4 -->
<g id="edge47" class="edge">
<title>Node31&#45;&gt;Node4</title>
<path fill="none" stroke="#191970" d="M408.7093,-168.6972C415.8073,-160.7475 426.0084,-149.3222 434.495,-139.8172"/>
<polygon fill="#191970" stroke="#191970" points="437.3411,-141.8848 441.3905,-132.0943 432.1195,-137.2226 437.3411,-141.8848"/>
</g>
<!-- Node31&#45;&gt;Node6 -->
<g id="edge49" class="edge">
<title>Node31&#45;&gt;Node6</title>
<path fill="none" stroke="#191970" d="M402.5503,-168.5232C405.9578,-155.5304 412.3429,-132.1018 419,-112.4516 422.0182,-103.5425 425.7546,-93.823 429.0395,-85.6232"/>
<polygon fill="#191970" stroke="#191970" points="432.3368,-86.8063 432.871,-76.2249 425.8548,-84.1636 432.3368,-86.8063"/>
</g>
<!-- Node31&#45;&gt;Node22 -->
<g id="edge50" class="edge">
<title>Node31&#45;&gt;Node22</title>
<path fill="none" stroke="#191970" d="M381.1878,-168.6972C364.1527,-159.8642 338.8425,-146.7403 319.5319,-136.7274"/>
<polygon fill="#191970" stroke="#191970" points="321.0853,-133.5904 310.5966,-132.0943 317.863,-139.8047 321.0853,-133.5904"/>
</g>
<!-- Node32&#45;&gt;Node8 -->
<g id="edge54" class="edge">
<title>Node32&#45;&gt;Node8</title>
<path fill="none" stroke="#191970" d="M260.1521,-455.114C218.542,-450.0598 146.502,-438.1778 90,-412.4516 44.8563,-391.897 0,-396.0545 0,-346.4516 0,-346.4516 0,-346.4516 0,-178.4516 0,-132.8892 46.8998,-98.9097 79.1714,-80.9217"/>
<polygon fill="#191970" stroke="#191970" points="81.0768,-83.8717 88.2414,-76.0665 77.7732,-77.7003 81.0768,-83.8717"/>
</g>
<!-- Node32&#45;&gt;Node22 -->
<g id="edge52" class="edge">
<title>Node32&#45;&gt;Node22</title>
<path fill="none" stroke="#191970" d="M289.589,-448.8319C285.6581,-439.6942 280.1974,-425.4578 278,-412.4516 276.5192,-403.687 277.9802,-401.3405 278,-392.4516 278.2222,-292.8953 265.113,-267.0349 279,-168.4516 280.2556,-159.5379 282.7811,-149.9196 285.2749,-141.7939"/>
<polygon fill="#191970" stroke="#191970" points="288.6448,-142.7493 288.4255,-132.1567 281.9913,-140.5741 288.6448,-142.7493"/>
</g>
<!-- Node32&#45;&gt;Node27 -->
<g id="edge53" class="edge">
<title>Node32&#45;&gt;Node27</title>
<path fill="none" stroke="#191970" d="M327.8364,-450.8345C348.223,-444.3136 372.5733,-432.6574 385,-412.4516 429.9727,-339.3262 357.8987,-236.5738 325.0032,-195.9571"/>
<polygon fill="#191970" stroke="#191970" points="327.5319,-193.5232 318.4565,-188.0562 322.1418,-197.9894 327.5319,-193.5232"/>
</g>
<!-- Node33 -->
<g id="node34" class="node">
<title>Node33</title>
<g id="a_node34"><a xlink:href="../../d8/dce/language_8h.xhtml" target="_top" xlink:title="../util/language.h">
<polygon fill="#ffffff" stroke="#000000" points="286.5,-392.9516 286.5,-411.9516 375.5,-411.9516 375.5,-392.9516 286.5,-392.9516"/>
<text text-anchor="middle" x="331" y="-399.9516" font-family="Helvetica,sans-Serif" font-size="10.00" fill="#000000">../util/language.h</text>
</a>
</g>
</g>
<!-- Node32&#45;&gt;Node33 -->
<g id="edge55" class="edge">
<title>Node32&#45;&gt;Node33</title>
<path fill="none" stroke="#191970" d="M300.4449,-448.6972C305.5382,-440.9884 312.7908,-430.0114 318.952,-420.6864"/>
<polygon fill="#191970" stroke="#191970" points="322.0365,-422.3671 324.6289,-412.0943 316.1962,-418.5083 322.0365,-422.3671"/>
</g>
<!-- Node34 -->
<g id="node35" class="node">
<title>Node34</title>
<g id="a_node35"><a xlink:href="../../dd/d5f/exctranslate_8h.xhtml" target="_top" xlink:title="exctranslate.h">
<polygon fill="#ffffff" stroke="#000000" points="152,-392.9516 152,-411.9516 230,-411.9516 230,-392.9516 152,-392.9516"/>
<text text-anchor="middle" x="191" y="-399.9516" font-family="Helvetica,sans-Serif" font-size="10.00" fill="#000000">exctranslate.h</text>
</a>
</g>
</g>
<!-- Node32&#45;&gt;Node34 -->
<g id="edge56" class="edge">
<title>Node32&#45;&gt;Node34</title>
<path fill="none" stroke="#191970" d="M276.0588,-448.6972C259.96,-439.9445 236.1121,-426.9786 217.7609,-417.0013"/>
<polygon fill="#191970" stroke="#191970" points="219.1929,-413.796 208.7356,-412.0943 215.8493,-419.9458 219.1929,-413.796"/>
</g>
<!-- Node35 -->
<g id="node36" class="node">
<title>Node35</title>
<g id="a_node36"><a xlink:href="../../d7/df7/setup_8h.xhtml" target="_top" xlink:title="setup.h">
<polygon fill="#ffffff" stroke="#000000" points="28.5,-168.9516 28.5,-187.9516 77.5,-187.9516 77.5,-168.9516 28.5,-168.9516"/>
<text text-anchor="middle" x="53" y="-175.9516" font-family="Helvetica,sans-Serif" font-size="10.00" fill="#000000">setup.h</text>
</a>
</g>
</g>
<!-- Node32&#45;&gt;Node35 -->
<g id="edge58" class="edge">
<title>Node32&#45;&gt;Node35</title>
<path fill="none" stroke="#191970" d="M260.2028,-451.9802C228.6392,-445.0674 180.8459,-432.3354 143,-412.4516 101.2779,-390.5314 60,-393.5816 60,-346.4516 60,-346.4516 60,-346.4516 60,-290.4516 60,-258.1002 57.0548,-220.5946 54.9851,-198.2331"/>
<polygon fill="#191970" stroke="#191970" points="58.4449,-197.6461 54.0029,-188.0274 51.4771,-198.3167 58.4449,-197.6461"/>
</g>
<!-- Node34&#45;&gt;Node5 -->
<g id="edge57" class="edge">
<title>Node34&#45;&gt;Node5</title>
<path fill="none" stroke="#191970" d="M191.1742,-392.6972C191.3047,-385.3899 191.4876,-375.146 191.6481,-366.1562"/>
<polygon fill="#191970" stroke="#191970" points="195.1486,-366.1552 191.8278,-356.0943 188.1497,-366.0302 195.1486,-366.1552"/>
</g>
<!-- Node35&#45;&gt;Node8 -->
<g id="edge60" class="edge">
<title>Node35&#45;&gt;Node8</title>
<path fill="none" stroke="#191970" d="M57.7745,-168.9026C67.032,-150.3876 87.5705,-109.3107 99.6407,-85.1703"/>
<polygon fill="#191970" stroke="#191970" points="102.8959,-86.4861 104.2376,-75.9765 96.6349,-83.3555 102.8959,-86.4861"/>
</g>
<!-- Node35&#45;&gt;Node22 -->
<g id="edge59" class="edge">
<title>Node35&#45;&gt;Node22</title>
<path fill="none" stroke="#191970" d="M77.677,-172.6696C119.0727,-162.9702 202.8372,-143.3433 252.5026,-131.7062"/>
<polygon fill="#191970" stroke="#191970" points="253.3192,-135.1098 262.257,-129.4207 251.7222,-128.2944 253.3192,-135.1098"/>
</g>
<!-- Node36&#45;&gt;Node3 -->
<g id="edge63" class="edge">
<title>Node36&#45;&gt;Node3</title>
<path fill="none" stroke="#191970" d="M621.249,-512.6538C695.5833,-508.0052 880.9134,-494.1211 937,-468.4516 1043.6089,-419.6592 1194,-254.5662 1194,-178.4516 1194,-178.4516 1194,-178.4516 1194,-122.4516 1194,-72.4015 819.124,-26.3784 707.8063,-13.8154"/>
<polygon fill="#191970" stroke="#191970" points="707.913,-10.3056 697.5861,-12.6727 707.1352,-17.2623 707.913,-10.3056"/>
</g>
<!-- Node36&#45;&gt;Node4 -->
<g id="edge64" class="edge">
<title>Node36&#45;&gt;Node4</title>
<path fill="none" stroke="#191970" d="M584.6881,-504.8979C574.6741,-485.9634 554,-442.0746 554,-402.4516 554,-402.4516 554,-402.4516 554,-346.4516 554,-304.5652 513.4481,-204.4301 492,-168.4516 485.6216,-157.752 476.4799,-147.368 468.3531,-139.1818"/>
<polygon fill="#191970" stroke="#191970" points="470.6176,-136.5029 460.9956,-132.0681 465.7519,-141.5353 470.6176,-136.5029"/>
</g>
<!-- Node36&#45;&gt;Node12 -->
<g id="edge62" class="edge">
<title>Node36&#45;&gt;Node12</title>
<path fill="none" stroke="#191970" d="M621.1519,-512.3906C714.741,-505.3545 987,-478.3624 987,-402.4516 987,-402.4516 987,-402.4516 987,-346.4516 987,-299.0765 1037.6554,-265.7018 1072.5877,-248.3187"/>
<polygon fill="#191970" stroke="#191970" points="1074.4511,-251.3076 1081.9683,-243.8415 1071.4359,-244.9903 1074.4511,-251.3076"/>
</g>
<!-- Node36&#45;&gt;Node32 -->
<g id="edge66" class="edge">
<title>Node36&#45;&gt;Node32</title>
<path fill="none" stroke="#191970" d="M558.8823,-508.5645C505.9839,-498.5567 398.391,-478.2013 337.8742,-466.7522"/>
<polygon fill="#191970" stroke="#191970" points="338.34,-463.2783 327.8637,-464.8583 337.0387,-470.1563 338.34,-463.2783"/>
</g>
<!-- Node37 -->
<g id="node38" class="node">
<title>Node37</title>
<g id="a_node38"><a xlink:href="../../d5/d64/defs_8h.xhtml" target="_top" xlink:title="defs.h">
<polygon fill="#ffffff" stroke="#000000" points="582,-448.9516 582,-467.9516 626,-467.9516 626,-448.9516 582,-448.9516"/>
<text text-anchor="middle" x="604" y="-455.9516" font-family="Helvetica,sans-Serif" font-size="10.00" fill="#000000">defs.h</text>
</a>
</g>
</g>
<!-- Node36&#45;&gt;Node37 -->
<g id="edge65" class="edge">
<title>Node36&#45;&gt;Node37</title>
<path fill="none" stroke="#191970" d="M592.4386,-504.6972C594.2855,-497.3096 596.8828,-486.9205 599.1478,-477.8603"/>
<polygon fill="#191970" stroke="#191970" points="602.5594,-478.6446 601.5893,-468.0943 595.7684,-476.9468 602.5594,-478.6446"/>
</g>
<!-- Node38&#45;&gt;Node11 -->
<g id="edge69" class="edge">
<title>Node38&#45;&gt;Node11</title>
<path fill="none" stroke="#191970" d="M805,-336.6972C805,-329.3899 805,-319.146 805,-310.1562"/>
<polygon fill="#191970" stroke="#191970" points="808.5001,-310.0943 805,-300.0943 801.5001,-310.0943 808.5001,-310.0943"/>
</g>
<!-- Node38&#45;&gt;Node28 -->
<g id="edge68" class="edge">
<title>Node38&#45;&gt;Node28</title>
<path fill="none" stroke="#191970" d="M786.2772,-336.8868C756.1747,-320.8448 696.3148,-286.1427 656,-244.4516 642.477,-230.467 630.9383,-211.4701 623.3969,-197.4476"/>
<polygon fill="#191970" stroke="#191970" points="626.346,-195.531 618.6408,-188.2591 620.1294,-198.7488 626.346,-195.531"/>
</g>
</g>
</svg>
