<?xml version="1.0" encoding="UTF-8" standalone="no"?>
<!DOCTYPE svg PUBLIC "-//W3C//DTD SVG 1.1//EN"
 "http://www.w3.org/Graphics/SVG/1.1/DTD/svg11.dtd">
<!-- Generated by graphviz version 2.40.1 (20161225.0304)
 -->
<!-- Title: openage::Market::sell Pages: 1 -->
<svg width="827pt" height="314pt"
 viewBox="0.00 0.00 827.00 313.70" xmlns="http://www.w3.org/2000/svg" xmlns:xlink="http://www.w3.org/1999/xlink">
<g id="graph0" class="graph" transform="scale(1 1) rotate(0) translate(4 309.6957)">
<title>openage::Market::sell</title>
<polygon fill="#ffffff" stroke="transparent" points="-4,4 -4,-309.6957 823,-309.6957 823,4 -4,4"/>
<!-- Node44 -->
<g id="node1" class="node">
<title>Node44</title>
<polygon fill="#bfbfbf" stroke="#000000" points="0,-78.1957 0,-97.1957 110,-97.1957 110,-78.1957 0,-78.1957"/>
<text text-anchor="middle" x="55" y="-85.1957" font-family="Helvetica,sans-Serif" font-size="10.00" fill="#000000">openage::Market::sell</text>
</g>
<!-- Node45 -->
<g id="node2" class="node">
<title>Node45</title>
<g id="a_node2"><a xlink:href="../../d8/d47/classopenage_1_1_player.xhtml#a3ff378e505d9036c74204730b53d9fba" target="_top" xlink:title="remove from stockpile if available ">
<polygon fill="#ffffff" stroke="#000000" points="147.5,-144.1957 147.5,-163.1957 269.5,-163.1957 269.5,-144.1957 147.5,-144.1957"/>
<text text-anchor="middle" x="208.5" y="-151.1957" font-family="Helvetica,sans-Serif" font-size="10.00" fill="#000000">openage::Player::deduct</text>
</a>
</g>
</g>
<!-- Node44&#45;&gt;Node45 -->
<g id="edge1" class="edge">
<title>Node44&#45;&gt;Node45</title>
<path fill="none" stroke="#191970" d="M75.4901,-97.2297C93.8615,-105.7055 121.6006,-118.3249 146,-128.6957 155.1798,-132.5975 165.1859,-136.6766 174.4468,-140.3809"/>
<polygon fill="#191970" stroke="#191970" points="173.1764,-143.6422 183.7621,-144.0824 175.7614,-137.137 173.1764,-143.6422"/>
</g>
<!-- Node51 -->
<g id="node8" class="node">
<title>Node51</title>
<g id="a_node8"><a xlink:href="../../d2/de9/classopenage_1_1_resource_bundle.xhtml#a85c59861409e505a3c5fb020a73ef1c2" target="_top" xlink:title="openage::ResourceBundle::get">
<polygon fill="#ffffff" stroke="#000000" points="665.5,-100.1957 665.5,-119.1957 816.5,-119.1957 816.5,-100.1957 665.5,-100.1957"/>
<text text-anchor="middle" x="741" y="-107.1957" font-family="Helvetica,sans-Serif" font-size="10.00" fill="#000000">openage::ResourceBundle::get</text>
</a>
</g>
</g>
<!-- Node44&#45;&gt;Node51 -->
<g id="edge12" class="edge">
<title>Node44&#45;&gt;Node51</title>
<path fill="none" stroke="#191970" d="M68.3639,-78.1682C85.418,-66.6514 116.2809,-47.9173 146,-40.6957 353.7328,9.7821 421.0897,16.7664 627,-40.6957 663.8195,-50.9707 700.6015,-76.7273 722.0554,-93.6998"/>
<polygon fill="#191970" stroke="#191970" points="720.0387,-96.5706 730.0101,-100.1514 724.4481,-91.1339 720.0387,-96.5706"/>
</g>
<!-- Node56 -->
<g id="node13" class="node">
<title>Node56</title>
<g id="a_node13"><a xlink:href="../../d1/dae/classopenage_1_1_market.xhtml#a5c916fe21925f6276f58bc9f6dd95765" target="_top" xlink:title="Get the buying prices for a given player. ">
<polygon fill="#ffffff" stroke="#000000" points="154,-50.6957 154,-80.6957 263,-80.6957 263,-50.6957 154,-50.6957"/>
<text text-anchor="start" x="162" y="-68.6957" font-family="Helvetica,sans-Serif" font-size="10.00" fill="#000000">openage::Market::get</text>
<text text-anchor="middle" x="208.5" y="-57.6957" font-family="Helvetica,sans-Serif" font-size="10.00" fill="#000000">_sell_prices</text>
</a>
</g>
</g>
<!-- Node44&#45;&gt;Node56 -->
<g id="edge13" class="edge">
<title>Node44&#45;&gt;Node56</title>
<path fill="none" stroke="#191970" d="M110.417,-79.7532C121.2655,-78.1984 132.7317,-76.555 143.8503,-74.9615"/>
<polygon fill="#191970" stroke="#191970" points="144.5337,-78.3994 153.9359,-73.516 143.5405,-71.4702 144.5337,-78.3994"/>
</g>
<!-- Node59 -->
<g id="node16" class="node">
<title>Node59</title>
<g id="a_node16"><a xlink:href="../../d8/d47/classopenage_1_1_player.xhtml#a728983ff63d9e16ecc874a942c61fa22" target="_top" xlink:title="add to stockpile ">
<polygon fill="#ffffff" stroke="#000000" points="146,-100.1957 146,-119.1957 271,-119.1957 271,-100.1957 146,-100.1957"/>
<text text-anchor="middle" x="208.5" y="-107.1957" font-family="Helvetica,sans-Serif" font-size="10.00" fill="#000000">openage::Player::receive</text>
</a>
</g>
</g>
<!-- Node44&#45;&gt;Node59 -->
<g id="edge16" class="edge">
<title>Node44&#45;&gt;Node59</title>
<path fill="none" stroke="#191970" d="M110.417,-95.6382C118.6879,-96.8236 127.3178,-98.0605 135.879,-99.2875"/>
<polygon fill="#191970" stroke="#191970" points="135.4765,-102.7655 145.872,-100.7197 136.4697,-95.8363 135.4765,-102.7655"/>
</g>
<!-- Node46 -->
<g id="node3" class="node">
<title>Node46</title>
<g id="a_node3"><a xlink:href="../../d2/de9/classopenage_1_1_resource_bundle.xhtml#ae324ee7f007981e5f9629f6ed30b8641" target="_top" xlink:title="If amount can&#39;t be deducted return false, else deduct the given amount and return true...">
<polygon fill="#ffffff" stroke="#000000" points="307,-209.6957 307,-239.6957 438,-239.6957 438,-209.6957 307,-209.6957"/>
<text text-anchor="start" x="315" y="-227.6957" font-family="Helvetica,sans-Serif" font-size="10.00" fill="#000000">openage::ResourceBundle</text>
<text text-anchor="middle" x="372.5" y="-216.6957" font-family="Helvetica,sans-Serif" font-size="10.00" fill="#000000">::deduct</text>
</a>
</g>
</g>
<!-- Node45&#45;&gt;Node46 -->
<g id="edge2" class="edge">
<title>Node45&#45;&gt;Node46</title>
<path fill="none" stroke="#191970" d="M230.6178,-163.2711C255.4975,-174.0422 296.5488,-191.8144 328.1105,-205.4783"/>
<polygon fill="#191970" stroke="#191970" points="327.0049,-208.8135 337.5724,-209.5746 329.786,-202.3897 327.0049,-208.8135"/>
</g>
<!-- Node48 -->
<g id="node5" class="node">
<title>Node48</title>
<g id="a_node5"><a xlink:href="../../d8/d47/classopenage_1_1_player.xhtml#a2a7b7334922d4cdf68236f8684cbfe38" target="_top" xlink:title="Called when the resources amounts change. ">
<polygon fill="#ffffff" stroke="#000000" points="320.5,-138.6957 320.5,-168.6957 424.5,-168.6957 424.5,-138.6957 320.5,-138.6957"/>
<text text-anchor="start" x="328.5" y="-156.6957" font-family="Helvetica,sans-Serif" font-size="10.00" fill="#000000">openage::Player::on</text>
<text text-anchor="middle" x="372.5" y="-145.6957" font-family="Helvetica,sans-Serif" font-size="10.00" fill="#000000">_resources_change</text>
</a>
</g>
</g>
<!-- Node45&#45;&gt;Node48 -->
<g id="edge4" class="edge">
<title>Node45&#45;&gt;Node48</title>
<path fill="none" stroke="#191970" d="M269.5675,-153.6957C282.848,-153.6957 296.9136,-153.6957 310.2396,-153.6957"/>
<polygon fill="#191970" stroke="#191970" points="310.2607,-157.1958 320.2607,-153.6957 310.2607,-150.1958 310.2607,-157.1958"/>
</g>
<!-- Node47 -->
<g id="node4" class="node">
<title>Node47</title>
<g id="a_node4"><a xlink:href="../../d2/de9/classopenage_1_1_resource_bundle.xhtml#a386ff157dd71560a8c9b1578fe5386e6" target="_top" xlink:title="openage::ResourceBundle::has">
<polygon fill="#ffffff" stroke="#000000" points="474,-237.1957 474,-256.1957 627,-256.1957 627,-237.1957 474,-237.1957"/>
<text text-anchor="middle" x="550.5" y="-244.1957" font-family="Helvetica,sans-Serif" font-size="10.00" fill="#000000">openage::ResourceBundle::has</text>
</a>
</g>
</g>
<!-- Node46&#45;&gt;Node47 -->
<g id="edge3" class="edge">
<title>Node46&#45;&gt;Node47</title>
<path fill="none" stroke="#191970" d="M438.0223,-232.794C446.4296,-233.8331 455.1379,-234.9094 463.8169,-235.9821"/>
<polygon fill="#191970" stroke="#191970" points="463.6181,-239.484 473.9719,-237.2372 464.4768,-232.5369 463.6181,-239.484"/>
</g>
<!-- Node49 -->
<g id="node6" class="node">
<title>Node49</title>
<g id="a_node6"><a xlink:href="../../d2/de9/classopenage_1_1_resource_bundle.xhtml#aa3e1dfb21fe065f769a21a13f667984b" target="_top" xlink:title="openage::ResourceBundle\l::limit">
<polygon fill="#ffffff" stroke="#000000" points="485,-138.6957 485,-168.6957 616,-168.6957 616,-138.6957 485,-138.6957"/>
<text text-anchor="start" x="493" y="-156.6957" font-family="Helvetica,sans-Serif" font-size="10.00" fill="#000000">openage::ResourceBundle</text>
<text text-anchor="middle" x="550.5" y="-145.6957" font-family="Helvetica,sans-Serif" font-size="10.00" fill="#000000">::limit</text>
</a>
</g>
</g>
<!-- Node48&#45;&gt;Node49 -->
<g id="edge5" class="edge">
<title>Node48&#45;&gt;Node49</title>
<path fill="none" stroke="#191970" d="M424.9431,-153.6957C440.4843,-153.6957 457.8254,-153.6957 474.5394,-153.6957"/>
<polygon fill="#191970" stroke="#191970" points="474.8436,-157.1958 484.8435,-153.6957 474.8435,-150.1958 474.8436,-157.1958"/>
</g>
<!-- Node52 -->
<g id="node9" class="node">
<title>Node52</title>
<g id="a_node9"><a xlink:href="../../d8/dd7/classopenage_1_1_score.xhtml#a692b0ccf6ec945e3cb5e8540b6b9abc6" target="_top" xlink:title="Updates resource based sub&#45;scores. ">
<polygon fill="#ffffff" stroke="#000000" points="490.5,-187.6957 490.5,-217.6957 610.5,-217.6957 610.5,-187.6957 490.5,-187.6957"/>
<text text-anchor="start" x="498.5" y="-205.6957" font-family="Helvetica,sans-Serif" font-size="10.00" fill="#000000">openage::Score::update</text>
<text text-anchor="middle" x="550.5" y="-194.6957" font-family="Helvetica,sans-Serif" font-size="10.00" fill="#000000">_resources</text>
</a>
</g>
</g>
<!-- Node48&#45;&gt;Node52 -->
<g id="edge8" class="edge">
<title>Node48&#45;&gt;Node52</title>
<path fill="none" stroke="#191970" d="M424.9431,-168.1323C444.1552,-173.421 466.1181,-179.467 486.2465,-185.0079"/>
<polygon fill="#191970" stroke="#191970" points="485.3899,-188.4023 495.9603,-187.682 487.2478,-181.6533 485.3899,-188.4023"/>
</g>
<!-- Node50 -->
<g id="node7" class="node">
<title>Node50</title>
<g id="a_node7"><a xlink:href="../../d2/de9/classopenage_1_1_resource_bundle.xhtml#a7c6e69b4cd066ccceb01e89687057090" target="_top" xlink:title="openage::ResourceBundle\l::min_count">
<polygon fill="#ffffff" stroke="#000000" points="675.5,-138.6957 675.5,-168.6957 806.5,-168.6957 806.5,-138.6957 675.5,-138.6957"/>
<text text-anchor="start" x="683.5" y="-156.6957" font-family="Helvetica,sans-Serif" font-size="10.00" fill="#000000">openage::ResourceBundle</text>
<text text-anchor="middle" x="741" y="-145.6957" font-family="Helvetica,sans-Serif" font-size="10.00" fill="#000000">::min_count</text>
</a>
</g>
</g>
<!-- Node49&#45;&gt;Node50 -->
<g id="edge6" class="edge">
<title>Node49&#45;&gt;Node50</title>
<path fill="none" stroke="#191970" d="M616.0593,-153.6957C631.9241,-153.6957 649.01,-153.6957 665.2988,-153.6957"/>
<polygon fill="#191970" stroke="#191970" points="665.3199,-157.1958 675.3199,-153.6957 665.3198,-150.1958 665.3199,-157.1958"/>
</g>
<!-- Node49&#45;&gt;Node51 -->
<g id="edge7" class="edge">
<title>Node49&#45;&gt;Node51</title>
<path fill="none" stroke="#191970" d="M615.5265,-138.6765C639.8444,-133.0597 667.0945,-126.7657 689.9708,-121.482"/>
<polygon fill="#191970" stroke="#191970" points="690.8598,-124.8689 699.8156,-119.2081 689.2844,-118.0484 690.8598,-124.8689"/>
</g>
<!-- Node53 -->
<g id="node10" class="node">
<title>Node53</title>
<g id="a_node10"><a xlink:href="../../d8/dd7/classopenage_1_1_score.xhtml#a7867975c457c1de476f8d5ecd1ae452f" target="_top" xlink:title="openage::Score::remove\l_score">
<polygon fill="#ffffff" stroke="#000000" points="679.5,-187.6957 679.5,-217.6957 802.5,-217.6957 802.5,-187.6957 679.5,-187.6957"/>
<text text-anchor="start" x="687.5" y="-205.6957" font-family="Helvetica,sans-Serif" font-size="10.00" fill="#000000">openage::Score::remove</text>
<text text-anchor="middle" x="741" y="-194.6957" font-family="Helvetica,sans-Serif" font-size="10.00" fill="#000000">_score</text>
</a>
</g>
</g>
<!-- Node52&#45;&gt;Node53 -->
<g id="edge9" class="edge">
<title>Node52&#45;&gt;Node53</title>
<path fill="none" stroke="#191970" d="M610.5139,-202.6957C629.0956,-202.6957 649.76,-202.6957 669.0633,-202.6957"/>
<polygon fill="#191970" stroke="#191970" points="669.3192,-206.1958 679.3192,-202.6957 669.3192,-199.1958 669.3192,-206.1958"/>
</g>
<!-- Node54 -->
<g id="node11" class="node">
<title>Node54</title>
<g id="a_node11"><a xlink:href="../../d2/de9/classopenage_1_1_resource_bundle.xhtml#a76ff3bbdb074f255cd4b2a80d82e2a00" target="_top" xlink:title="Returns the sum of all the resources. ">
<polygon fill="#ffffff" stroke="#000000" points="663,-286.1957 663,-305.1957 819,-305.1957 819,-286.1957 663,-286.1957"/>
<text text-anchor="middle" x="741" y="-293.1957" font-family="Helvetica,sans-Serif" font-size="10.00" fill="#000000">openage::ResourceBundle::sum</text>
</a>
</g>
</g>
<!-- Node52&#45;&gt;Node54 -->
<g id="edge10" class="edge">
<title>Node52&#45;&gt;Node54</title>
<path fill="none" stroke="#191970" d="M609.5738,-217.778C615.7352,-220.566 621.6802,-223.8453 627,-227.6957 648.8912,-243.5402 640.5158,-261.7047 663,-276.6957 666.0803,-278.7494 669.3611,-280.5816 672.7677,-282.2159"/>
<polygon fill="#191970" stroke="#191970" points="671.4519,-285.4593 682.0275,-286.0967 674.1576,-279.0034 671.4519,-285.4593"/>
</g>
<!-- Node55 -->
<g id="node12" class="node">
<title>Node55</title>
<g id="a_node12"><a xlink:href="../../d8/dd7/classopenage_1_1_score.xhtml#ab03c4138b0129edb062c498f4393b8ba" target="_top" xlink:title="openage::Score::add\l_score">
<polygon fill="#ffffff" stroke="#000000" points="687.5,-236.6957 687.5,-266.6957 794.5,-266.6957 794.5,-236.6957 687.5,-236.6957"/>
<text text-anchor="start" x="695.5" y="-254.6957" font-family="Helvetica,sans-Serif" font-size="10.00" fill="#000000">openage::Score::add</text>
<text text-anchor="middle" x="741" y="-243.6957" font-family="Helvetica,sans-Serif" font-size="10.00" fill="#000000">_score</text>
</a>
</g>
</g>
<!-- Node52&#45;&gt;Node55 -->
<g id="edge11" class="edge">
<title>Node52&#45;&gt;Node55</title>
<path fill="none" stroke="#191970" d="M608.9509,-217.7303C630.5757,-223.2926 655.1909,-229.6241 677.2621,-235.3012"/>
<polygon fill="#191970" stroke="#191970" points="676.6473,-238.7569 687.204,-237.8584 678.3911,-231.9776 676.6473,-238.7569"/>
</g>
<!-- Node57 -->
<g id="node14" class="node">
<title>Node57</title>
<g id="a_node14"><a xlink:href="../../d1/dae/classopenage_1_1_market.xhtml#aefa96adaadd93ab08349621e01a1b65f" target="_top" xlink:title="The getBuyPrices and getSellPrices are redirected here. ">
<polygon fill="#ffffff" stroke="#000000" points="318,-50.6957 318,-80.6957 427,-80.6957 427,-50.6957 318,-50.6957"/>
<text text-anchor="start" x="326" y="-68.6957" font-family="Helvetica,sans-Serif" font-size="10.00" fill="#000000">openage::Market::get</text>
<text text-anchor="middle" x="372.5" y="-57.6957" font-family="Helvetica,sans-Serif" font-size="10.00" fill="#000000">_prices</text>
</a>
</g>
</g>
<!-- Node56&#45;&gt;Node57 -->
<g id="edge14" class="edge">
<title>Node56&#45;&gt;Node57</title>
<path fill="none" stroke="#191970" d="M263.1096,-65.6957C277.4184,-65.6957 292.9844,-65.6957 307.7662,-65.6957"/>
<polygon fill="#191970" stroke="#191970" points="307.8495,-69.1958 317.8494,-65.6957 307.8494,-62.1958 307.8495,-69.1958"/>
</g>
<!-- Node58 -->
<g id="node15" class="node">
<title>Node58</title>
<g id="a_node15"><a xlink:href="../../d1/dae/classopenage_1_1_market.xhtml#adb430db2e1ce5828a1bc6b273994b9dc" target="_top" xlink:title="Get the multiplier for the base prices. ">
<polygon fill="#ffffff" stroke="#000000" points="496,-50.6957 496,-80.6957 605,-80.6957 605,-50.6957 496,-50.6957"/>
<text text-anchor="start" x="504" y="-68.6957" font-family="Helvetica,sans-Serif" font-size="10.00" fill="#000000">openage::Market::get</text>
<text text-anchor="middle" x="550.5" y="-57.6957" font-family="Helvetica,sans-Serif" font-size="10.00" fill="#000000">_multiplier</text>
</a>
</g>
</g>
<!-- Node57&#45;&gt;Node58 -->
<g id="edge15" class="edge">
<title>Node57&#45;&gt;Node58</title>
<path fill="none" stroke="#191970" d="M427.3583,-65.6957C445.8015,-65.6957 466.5503,-65.6957 485.6851,-65.6957"/>
<polygon fill="#191970" stroke="#191970" points="485.8229,-69.1958 495.8228,-65.6957 485.8228,-62.1958 485.8229,-69.1958"/>
</g>
<!-- Node59&#45;&gt;Node48 -->
<g id="edge19" class="edge">
<title>Node59&#45;&gt;Node48</title>
<path fill="none" stroke="#191970" d="M244.0856,-119.243C263.5344,-124.461 288.1774,-131.0726 310.6637,-137.1055"/>
<polygon fill="#191970" stroke="#191970" points="309.9155,-140.5284 320.4809,-139.7394 311.7294,-133.7675 309.9155,-140.5284"/>
</g>
<!-- Node60 -->
<g id="node17" class="node">
<title>Node60</title>
<g id="a_node17"><a xlink:href="../../d8/d47/classopenage_1_1_player.xhtml#ac7283a82ddfcc4a556ca4aa4f9277bbc" target="_top" xlink:title="current stockpile amount ">
<polygon fill="#ffffff" stroke="#000000" points="310,-100.1957 310,-119.1957 435,-119.1957 435,-100.1957 310,-100.1957"/>
<text text-anchor="middle" x="372.5" y="-107.1957" font-family="Helvetica,sans-Serif" font-size="10.00" fill="#000000">openage::Player::amount</text>
</a>
</g>
</g>
<!-- Node59&#45;&gt;Node60 -->
<g id="edge17" class="edge">
<title>Node59&#45;&gt;Node60</title>
<path fill="none" stroke="#191970" d="M271.4377,-109.6957C280.6584,-109.6957 290.2195,-109.6957 299.6188,-109.6957"/>
<polygon fill="#191970" stroke="#191970" points="299.7308,-113.1958 309.7308,-109.6957 299.7307,-106.1958 299.7308,-113.1958"/>
</g>
<!-- Node60&#45;&gt;Node51 -->
<g id="edge18" class="edge">
<title>Node60&#45;&gt;Node51</title>
<path fill="none" stroke="#191970" d="M435.011,-109.6957C495.5586,-109.6957 587.8531,-109.6957 655.2466,-109.6957"/>
<polygon fill="#191970" stroke="#191970" points="655.421,-113.1958 665.4209,-109.6957 655.4209,-106.1958 655.421,-113.1958"/>
</g>
</g>
</svg>
