<?xml version="1.0" encoding="UTF-8" standalone="no"?>
<!DOCTYPE svg PUBLIC "-//W3C//DTD SVG 1.1//EN"
 "http://www.w3.org/Graphics/SVG/1.1/DTD/svg11.dtd">
<!-- Generated by graphviz version 2.40.1 (20161225.0304)
 -->
<!-- Title: /mnt/c/Users/Jameson/Desktop/git/openage&#45;new&#45;doc&#45;system/libopenage/job/typed_job_state_base.h Pages: 1 -->
<!--zoomable 453 -->
<svg id="main" version="1.1" xmlns="http://www.w3.org/2000/svg" xmlns:xlink="http://www.w3.org/1999/xlink" xml:space="preserve" onload="init(evt)">
<style type="text/css"><![CDATA[
.edge:hover path { stroke: red; }
.edge:hover polygon { stroke: red; fill: red; }
]]></style>
<script type="text/javascript"><![CDATA[
var edges = document.getElementsByTagName('g');
if (edges && edges.length) {
  for (var i=0;i<edges.length;i++) {
    if (edges[i].id.substr(0,4)=='edge') {
      edges[i].setAttribute('class','edge');
    }
  }
}
]]></script>
        <defs>
                <circle id="rim" cx="0" cy="0" r="7"/>
                <circle id="rim2" cx="0" cy="0" r="3.5"/>
                <g id="zoomPlus">
                        <use xlink:href="#rim" fill="#404040">
                                <set attributeName="fill" to="#808080" begin="zoomplus.mouseover" end="zoomplus.mouseout"/>
                        </use>
                        <path d="M-4,0h8M0,-4v8" fill="none" stroke="white" stroke-width="1.5" pointer-events="none"/>
                </g>
                <g id="zoomMin">
                        <use xlink:href="#rim" fill="#404040">
                                <set attributeName="fill" to="#808080" begin="zoomminus.mouseover" end="zoomminus.mouseout"/>
                        </use>
                        <path d="M-4,0h8" fill="none" stroke="white" stroke-width="1.5" pointer-events="none"/>
                </g>
                <g id="dirArrow">
                        <path fill="none" stroke="white" stroke-width="1.5" d="M0,-3.0v7 M-2.5,-0.5L0,-3.0L2.5,-0.5"/>
                </g>
               <g id="resetDef">
                       <use xlink:href="#rim2" fill="#404040">
                               <set attributeName="fill" to="#808080" begin="reset.mouseover" end="reset.mouseout"/>
                       </use>
               </g>
        </defs>

<script type="text/javascript">
var viewWidth = 976;
var viewHeight = 453;
var sectionId = 'dynsection-0';
</script>
<script xlink:href="../../svgpan.js"/>
<svg id="graph" class="graph">
<g id="viewport">
<title>/mnt/c/Users/Jameson/Desktop/git/openage&#45;new&#45;doc&#45;system/libopenage/job/typed_job_state_base.h</title>
<polygon fill="#ffffff" stroke="transparent" points="-4,4 -4,-449.4516 971.8165,-449.4516 971.8165,4 -4,4"/>
<!-- Node0 -->
<g id="node1" class="node">
<title>Node0</title>
<polygon fill="#bfbfbf" stroke="#000000" points="274.1965,-392.9516 274.1965,-444.9516 415.1965,-444.9516 415.1965,-392.9516 274.1965,-392.9516"/>
<text text-anchor="start" x="282.1965" y="-432.9516" font-family="Helvetica,sans-Serif" font-size="10.00" fill="#000000">/mnt/c/Users/Jameson</text>
<text text-anchor="start" x="282.1965" y="-421.9516" font-family="Helvetica,sans-Serif" font-size="10.00" fill="#000000">/Desktop/git/openage</text>
<text text-anchor="start" x="282.1965" y="-410.9516" font-family="Helvetica,sans-Serif" font-size="10.00" fill="#000000">&#45;new&#45;doc&#45;system/libopenage</text>
<text text-anchor="middle" x="344.6965" y="-399.9516" font-family="Helvetica,sans-Serif" font-size="10.00" fill="#000000">/job/typed_job_state_base.h</text>
</g>
<!-- Node1 -->
<g id="node2" class="node">
<title>Node1</title>
<polygon fill="#ffffff" stroke="#bfbfbf" points="99.6965,-168.9516 99.6965,-187.9516 145.6965,-187.9516 145.6965,-168.9516 99.6965,-168.9516"/>
<text text-anchor="middle" x="122.6965" y="-175.9516" font-family="Helvetica,sans-Serif" font-size="10.00" fill="#000000">atomic</text>
</g>
<!-- Node0&#45;&gt;Node1 -->
<g id="edge1" class="edge">
<title>Node0&#45;&gt;Node1</title>
<path fill="none" stroke="#191970" d="M273.8513,-412.3671C193.3393,-403.6054 68.3356,-385.7186 31.6965,-356.4516 3.9137,-334.259 -7.9574,-312.8501 6.6965,-280.4516 24.6682,-240.7176 66.6148,-210.3057 94.8257,-193.4056"/>
<polygon fill="#191970" stroke="#191970" points="96.9144,-196.2405 103.8119,-188.1983 93.4047,-190.1839 96.9144,-196.2405"/>
</g>
<!-- Node2 -->
<g id="node3" class="node">
<title>Node2</title>
<polygon fill="#ffffff" stroke="#bfbfbf" points="41.1965,-336.9516 41.1965,-355.9516 100.1965,-355.9516 100.1965,-336.9516 41.1965,-336.9516"/>
<text text-anchor="middle" x="70.6965" y="-343.9516" font-family="Helvetica,sans-Serif" font-size="10.00" fill="#000000">exception</text>
</g>
<!-- Node0&#45;&gt;Node2 -->
<g id="edge2" class="edge">
<title>Node0&#45;&gt;Node2</title>
<path fill="none" stroke="#191970" d="M274.1347,-400.2811C222.0226,-386.4923 152.9883,-368.2259 110.2286,-356.9118"/>
<polygon fill="#191970" stroke="#191970" points="111.036,-353.505 100.4734,-354.3306 109.2454,-360.2722 111.036,-353.505"/>
</g>
<!-- Node3 -->
<g id="node4" class="node">
<title>Node3</title>
<polygon fill="#ffffff" stroke="#bfbfbf" points="854.1965,-112.9516 854.1965,-131.9516 913.1965,-131.9516 913.1965,-112.9516 854.1965,-112.9516"/>
<text text-anchor="middle" x="883.6965" y="-119.9516" font-family="Helvetica,sans-Serif" font-size="10.00" fill="#000000">functional</text>
</g>
<!-- Node0&#45;&gt;Node3 -->
<g id="edge3" class="edge">
<title>Node0&#45;&gt;Node3</title>
<path fill="none" stroke="#191970" d="M415.3922,-401.2476C486.7471,-381.8698 598.9239,-347.2191 688.6965,-300.4516 726.225,-280.901 733.7561,-272.2083 765.6965,-244.4516 805.2897,-210.0445 846.8757,-164.4981 868.5389,-139.9407"/>
<polygon fill="#191970" stroke="#191970" points="871.3783,-142.0109 875.3346,-132.1824 866.1127,-137.3985 871.3783,-142.0109"/>
</g>
<!-- Node4 -->
<g id="node5" class="node">
<title>Node4</title>
<g id="a_node5"><a xlink:href="../../d2/d4c/thread__id_8h.xhtml" target="_top" xlink:title="../util/thread_id.h">
<polygon fill="#ffffff" stroke="#000000" points="118.1965,-336.9516 118.1965,-355.9516 207.1965,-355.9516 207.1965,-336.9516 118.1965,-336.9516"/>
<text text-anchor="middle" x="162.6965" y="-343.9516" font-family="Helvetica,sans-Serif" font-size="10.00" fill="#000000">../util/thread_id.h</text>
</a>
</g>
</g>
<!-- Node0&#45;&gt;Node4 -->
<g id="edge4" class="edge">
<title>Node0&#45;&gt;Node4</title>
<path fill="none" stroke="#191970" d="M279.2474,-392.8799C251.0695,-381.6552 219.3347,-369.0136 196.1027,-359.7591"/>
<polygon fill="#191970" stroke="#191970" points="197.2872,-356.4635 186.7018,-356.0142 194.6966,-362.9665 197.2872,-356.4635"/>
</g>
<!-- Node6 -->
<g id="node7" class="node">
<title>Node6</title>
<g id="a_node7"><a xlink:href="../../d7/dce/error_2error_8h.xhtml" target="_top" xlink:title="../error/error.h">
<polygon fill="#ffffff" stroke="#000000" points="365.6965,-336.9516 365.6965,-355.9516 441.6965,-355.9516 441.6965,-336.9516 365.6965,-336.9516"/>
<text text-anchor="middle" x="403.6965" y="-343.9516" font-family="Helvetica,sans-Serif" font-size="10.00" fill="#000000">../error/error.h</text>
</a>
</g>
</g>
<!-- Node0&#45;&gt;Node6 -->
<g id="edge6" class="edge">
<title>Node0&#45;&gt;Node6</title>
<path fill="none" stroke="#191970" d="M365.9968,-392.7775C373.8196,-383.1647 382.478,-372.5252 389.5223,-363.8691"/>
<polygon fill="#191970" stroke="#191970" points="392.3404,-365.9511 395.9378,-355.9856 386.9111,-361.5327 392.3404,-365.9511"/>
</g>
<!-- Node33 -->
<g id="node34" class="node">
<title>Node33</title>
<g id="a_node34"><a xlink:href="../../df/d29/job__aborted__exception_8h.xhtml" target="_top" xlink:title="job_aborted_exception.h">
<polygon fill="#ffffff" stroke="#000000" points="225.6965,-336.9516 225.6965,-355.9516 347.6965,-355.9516 347.6965,-336.9516 225.6965,-336.9516"/>
<text text-anchor="middle" x="286.6965" y="-343.9516" font-family="Helvetica,sans-Serif" font-size="10.00" fill="#000000">job_aborted_exception.h</text>
</a>
</g>
</g>
<!-- Node0&#45;&gt;Node33 -->
<g id="edge47" class="edge">
<title>Node0&#45;&gt;Node33</title>
<path fill="none" stroke="#191970" d="M323.7571,-392.7775C316.0669,-383.1647 307.5553,-372.5252 300.6304,-363.8691"/>
<polygon fill="#191970" stroke="#191970" points="303.3037,-361.6079 294.3237,-355.9856 297.8376,-365.9808 303.3037,-361.6079"/>
</g>
<!-- Node34 -->
<g id="node35" class="node">
<title>Node34</title>
<g id="a_node35"><a xlink:href="../../d3/d8b/job__state__base_8h.xhtml" target="_top" xlink:title="job_state_base.h">
<polygon fill="#ffffff" stroke="#000000" points="861.1965,-336.9516 861.1965,-355.9516 952.1965,-355.9516 952.1965,-336.9516 861.1965,-336.9516"/>
<text text-anchor="middle" x="906.6965" y="-343.9516" font-family="Helvetica,sans-Serif" font-size="10.00" fill="#000000">job_state_base.h</text>
</a>
</g>
</g>
<!-- Node0&#45;&gt;Node34 -->
<g id="edge49" class="edge">
<title>Node0&#45;&gt;Node34</title>
<path fill="none" stroke="#191970" d="M415.485,-411.0712C512.7993,-400.0251 693.2999,-378.7741 846.6965,-356.4516 848.166,-356.2378 849.6552,-356.0172 851.1574,-355.7914"/>
<polygon fill="#191970" stroke="#191970" points="851.8435,-359.227 861.1905,-354.2386 850.7728,-352.3093 851.8435,-359.227"/>
</g>
<!-- Node35 -->
<g id="node36" class="node">
<title>Node35</title>
<g id="a_node36"><a xlink:href="../../da/d65/job_2types_8h.xhtml" target="_top" xlink:title="types.h">
<polygon fill="#ffffff" stroke="#000000" points="917.1965,-280.9516 917.1965,-299.9516 966.1965,-299.9516 966.1965,-280.9516 917.1965,-280.9516"/>
<text text-anchor="middle" x="941.6965" y="-287.9516" font-family="Helvetica,sans-Serif" font-size="10.00" fill="#000000">types.h</text>
</a>
</g>
</g>
<!-- Node0&#45;&gt;Node35 -->
<g id="edge53" class="edge">
<title>Node0&#45;&gt;Node35</title>
<path fill="none" stroke="#191970" d="M415.4602,-417.0119C569.7625,-412.0518 925.6224,-396.3645 961.6965,-356.4516 973.6635,-343.2112 964.9134,-323.013 955.515,-308.4488"/>
<polygon fill="#191970" stroke="#191970" points="958.3592,-306.4085 949.7588,-300.2211 952.6235,-310.4213 958.3592,-306.4085"/>
</g>
<!-- Node5 -->
<g id="node6" class="node">
<title>Node5</title>
<polygon fill="#ffffff" stroke="#bfbfbf" points="15.6965,-280.9516 15.6965,-299.9516 67.6965,-299.9516 67.6965,-280.9516 15.6965,-280.9516"/>
<text text-anchor="middle" x="41.6965" y="-287.9516" font-family="Helvetica,sans-Serif" font-size="10.00" fill="#000000">stddef.h</text>
</g>
<!-- Node4&#45;&gt;Node5 -->
<g id="edge5" class="edge">
<title>Node4&#45;&gt;Node5</title>
<path fill="none" stroke="#191970" d="M141.8958,-336.8249C122.4722,-327.8354 93.2741,-314.3223 71.4,-304.1987"/>
<polygon fill="#191970" stroke="#191970" points="72.7709,-300.9766 62.2257,-299.9528 69.8308,-307.3292 72.7709,-300.9766"/>
</g>
<!-- Node7 -->
<g id="node8" class="node">
<title>Node7</title>
<polygon fill="#ffffff" stroke="#bfbfbf" points="608.6965,-56.9516 608.6965,-75.9516 662.6965,-75.9516 662.6965,-56.9516 608.6965,-56.9516"/>
<text text-anchor="middle" x="635.6965" y="-63.9516" font-family="Helvetica,sans-Serif" font-size="10.00" fill="#000000">iostream</text>
</g>
<!-- Node6&#45;&gt;Node7 -->
<g id="edge7" class="edge">
<title>Node6&#45;&gt;Node7</title>
<path fill="none" stroke="#191970" d="M441.8704,-342.3266C505.1767,-333.8161 633.3541,-309.3347 718.6965,-244.4516 748.6029,-221.7148 776.3773,-199.815 755.6965,-168.4516 733.3369,-134.5425 701.7412,-159.7846 671.6965,-132.4516 657.7124,-119.7297 648.0281,-100.2756 642.2546,-85.7799"/>
<polygon fill="#191970" stroke="#191970" points="645.4882,-84.433 638.7362,-76.2684 638.923,-86.8616 645.4882,-84.433"/>
</g>
<!-- Node8 -->
<g id="node9" class="node">
<title>Node8</title>
<polygon fill="#ffffff" stroke="#bfbfbf" points="152.6965,-112.9516 152.6965,-131.9516 204.6965,-131.9516 204.6965,-112.9516 152.6965,-112.9516"/>
<text text-anchor="middle" x="178.6965" y="-119.9516" font-family="Helvetica,sans-Serif" font-size="10.00" fill="#000000">memory</text>
</g>
<!-- Node6&#45;&gt;Node8 -->
<g id="edge8" class="edge">
<title>Node6&#45;&gt;Node8</title>
<path fill="none" stroke="#191970" d="M377.2193,-336.8467C340.1353,-322.184 272.6829,-290.9315 231.6965,-244.4516 204.8342,-213.9891 189.8661,-167.8006 183.1279,-141.8719"/>
<polygon fill="#191970" stroke="#191970" points="186.5139,-140.9838 180.7333,-132.1049 179.7153,-142.6507 186.5139,-140.9838"/>
</g>
<!-- Node9 -->
<g id="node10" class="node">
<title>Node9</title>
<polygon fill="#ffffff" stroke="#bfbfbf" points="86.1965,-280.9516 86.1965,-299.9516 145.1965,-299.9516 145.1965,-280.9516 86.1965,-280.9516"/>
<text text-anchor="middle" x="115.6965" y="-287.9516" font-family="Helvetica,sans-Serif" font-size="10.00" fill="#000000">stdexcept</text>
</g>
<!-- Node6&#45;&gt;Node9 -->
<g id="edge9" class="edge">
<title>Node6&#45;&gt;Node9</title>
<path fill="none" stroke="#191970" d="M365.4959,-338.2274C362.5205,-337.6163 359.5609,-337.018 356.6965,-336.4516 269.3812,-319.1885 246.8902,-318.3185 159.6965,-300.4516 158.2576,-300.1568 156.7934,-299.8515 155.3154,-299.5388"/>
<polygon fill="#191970" stroke="#191970" points="155.9963,-296.1052 145.4812,-297.402 154.5099,-302.9456 155.9963,-296.1052"/>
</g>
<!-- Node10 -->
<g id="node11" class="node">
<title>Node10</title>
<polygon fill="#ffffff" stroke="#bfbfbf" points="480.1965,-.9516 480.1965,-19.9516 521.1965,-19.9516 521.1965,-.9516 480.1965,-.9516"/>
<text text-anchor="middle" x="500.6965" y="-7.9516" font-family="Helvetica,sans-Serif" font-size="10.00" fill="#000000">string</text>
</g>
<!-- Node6&#45;&gt;Node10 -->
<g id="edge10" class="edge">
<title>Node6&#45;&gt;Node10</title>
<path fill="none" stroke="#191970" d="M368.1378,-336.9507C340.1567,-328.8798 300.5406,-316.1216 267.6965,-300.4516 179.1267,-258.195 58.1129,-261.018 90.6965,-168.4516 113.6568,-103.2239 136.0998,-85.8368 198.6965,-56.4516 246.4472,-34.0357 402.3396,-18.6812 469.4773,-12.9489"/>
<polygon fill="#191970" stroke="#191970" points="470.158,-16.4042 479.8309,-12.0814 469.5735,-9.4286 470.158,-16.4042"/>
</g>
<!-- Node11 -->
<g id="node12" class="node">
<title>Node11</title>
<g id="a_node12"><a xlink:href="../../d4/dd1/compiler_8h.xhtml" target="_top" xlink:title="../util/compiler.h">
<polygon fill="#ffffff" stroke="#000000" points="750.6965,-56.9516 750.6965,-75.9516 836.6965,-75.9516 836.6965,-56.9516 750.6965,-56.9516"/>
<text text-anchor="middle" x="793.6965" y="-63.9516" font-family="Helvetica,sans-Serif" font-size="10.00" fill="#000000">../util/compiler.h</text>
</a>
</g>
</g>
<!-- Node6&#45;&gt;Node11 -->
<g id="edge11" class="edge">
<title>Node6&#45;&gt;Node11</title>
<path fill="none" stroke="#191970" d="M442.0577,-343.5206C491.6047,-338.7959 579.8872,-327.1615 650.6965,-300.4516 696.1967,-283.2886 711.5992,-280.0804 744.6965,-244.4516 786.4274,-199.5288 793.1522,-122.3504 793.8857,-86.207"/>
<polygon fill="#191970" stroke="#191970" points="797.3868,-86.0289 793.9501,-76.0069 790.3869,-85.9846 797.3868,-86.0289"/>
</g>
<!-- Node14 -->
<g id="node15" class="node">
<title>Node14</title>
<g id="a_node15"><a xlink:href="../../d2/d0d/message_8h.xhtml" target="_top" xlink:title="../log/message.h">
<polygon fill="#ffffff" stroke="#000000" points="383.1965,-280.9516 383.1965,-299.9516 472.1965,-299.9516 472.1965,-280.9516 383.1965,-280.9516"/>
<text text-anchor="middle" x="427.6965" y="-287.9516" font-family="Helvetica,sans-Serif" font-size="10.00" fill="#000000">../log/message.h</text>
</a>
</g>
</g>
<!-- Node6&#45;&gt;Node14 -->
<g id="edge16" class="edge">
<title>Node6&#45;&gt;Node14</title>
<path fill="none" stroke="#191970" d="M407.877,-336.6972C411.0775,-329.2293 415.5925,-318.6943 419.5049,-309.5653"/>
<polygon fill="#191970" stroke="#191970" points="422.8417,-310.6645 423.5639,-300.0943 416.4076,-307.907 422.8417,-310.6645"/>
</g>
<!-- Node11&#45;&gt;Node10 -->
<g id="edge13" class="edge">
<title>Node11&#45;&gt;Node10</title>
<path fill="none" stroke="#191970" d="M750.5671,-58.1528C747.5652,-57.5766 744.5857,-57.0052 741.6965,-56.4516 666.014,-41.9517 576.9449,-24.9734 531.2039,-16.2606"/>
<polygon fill="#191970" stroke="#191970" points="531.8087,-12.813 521.3304,-14.3801 530.499,-19.6893 531.8087,-12.813"/>
</g>
<!-- Node12 -->
<g id="node13" class="node">
<title>Node12</title>
<polygon fill="#ffffff" stroke="#bfbfbf" points="734.6965,-.9516 734.6965,-19.9516 784.6965,-19.9516 784.6965,-.9516 734.6965,-.9516"/>
<text text-anchor="middle" x="759.6965" y="-7.9516" font-family="Helvetica,sans-Serif" font-size="10.00" fill="#000000">ciso646</text>
</g>
<!-- Node11&#45;&gt;Node12 -->
<g id="edge12" class="edge">
<title>Node11&#45;&gt;Node12</title>
<path fill="none" stroke="#191970" d="M787.7741,-56.6972C783.0938,-48.9884 776.4292,-38.0114 770.7676,-28.6864"/>
<polygon fill="#191970" stroke="#191970" points="773.7325,-26.8258 765.5509,-20.0943 767.749,-30.4586 773.7325,-26.8258"/>
</g>
<!-- Node13 -->
<g id="node14" class="node">
<title>Node13</title>
<g id="a_node14"><a xlink:href="../../d8/d39/signal_8h.xhtml" target="_top" xlink:title="signal.h">
<polygon fill="#ffffff" stroke="#000000" points="802.6965,-.9516 802.6965,-19.9516 852.6965,-19.9516 852.6965,-.9516 802.6965,-.9516"/>
<text text-anchor="middle" x="827.6965" y="-7.9516" font-family="Helvetica,sans-Serif" font-size="10.00" fill="#000000">signal.h</text>
</a>
</g>
</g>
<!-- Node11&#45;&gt;Node13 -->
<g id="edge14" class="edge">
<title>Node11&#45;&gt;Node13</title>
<path fill="none" stroke="#191970" d="M799.6188,-56.6972C804.2992,-48.9884 810.9637,-38.0114 816.6253,-28.6864"/>
<polygon fill="#191970" stroke="#191970" points="819.6439,-30.4586 821.842,-20.0943 813.6604,-26.8258 819.6439,-30.4586"/>
</g>
<!-- Node13&#45;&gt;Node13 -->
<g id="edge15" class="edge">
<title>Node13&#45;&gt;Node13</title>
<path fill="none" stroke="#191970" d="M846.2599,-20.0262C858.643,-22.7213 870.6965,-19.5298 870.6965,-10.4516 870.6965,-3.9267 864.4696,-.4429 856.3691,0"/>
<polygon fill="#191970" stroke="#191970" points="855.9199,3.4743 846.2599,-.877 856.525,-3.4995 855.9199,3.4743"/>
</g>
<!-- Node14&#45;&gt;Node10 -->
<g id="edge18" class="edge">
<title>Node14&#45;&gt;Node10</title>
<path fill="none" stroke="#191970" d="M382.9141,-283.478C333.1257,-275.1151 256.4514,-260.2377 231.6965,-244.4516 201.9717,-225.4964 122.4665,-140.5968 143.6965,-112.4516 183.643,-59.4933 390.117,-25.7586 469.5275,-14.5682"/>
<polygon fill="#191970" stroke="#191970" points="470.4327,-17.9764 479.8588,-13.1391 469.4735,-11.0424 470.4327,-17.9764"/>
</g>
<!-- Node15 -->
<g id="node16" class="node">
<title>Node15</title>
<polygon fill="#ffffff" stroke="#bfbfbf" points="371.6965,-224.9516 371.6965,-243.9516 417.6965,-243.9516 417.6965,-224.9516 371.6965,-224.9516"/>
<text text-anchor="middle" x="394.6965" y="-231.9516" font-family="Helvetica,sans-Serif" font-size="10.00" fill="#000000">cstdint</text>
</g>
<!-- Node14&#45;&gt;Node15 -->
<g id="edge17" class="edge">
<title>Node14&#45;&gt;Node15</title>
<path fill="none" stroke="#191970" d="M421.9483,-280.6972C417.4529,-273.0687 411.0716,-262.2398 405.614,-252.9784"/>
<polygon fill="#191970" stroke="#191970" points="408.4711,-250.9328 400.3788,-244.0943 402.4403,-254.4866 408.4711,-250.9328"/>
</g>
<!-- Node16 -->
<g id="node17" class="node">
<title>Node16</title>
<polygon fill="#ffffff" stroke="#bfbfbf" points="436.1965,-224.9516 436.1965,-243.9516 487.1965,-243.9516 487.1965,-224.9516 436.1965,-224.9516"/>
<text text-anchor="middle" x="461.6965" y="-231.9516" font-family="Helvetica,sans-Serif" font-size="10.00" fill="#000000">config.h</text>
</g>
<!-- Node14&#45;&gt;Node16 -->
<g id="edge19" class="edge">
<title>Node14&#45;&gt;Node16</title>
<path fill="none" stroke="#191970" d="M433.6188,-280.6972C438.2992,-272.9884 444.9637,-262.0114 450.6253,-252.6864"/>
<polygon fill="#191970" stroke="#191970" points="453.6439,-254.4586 455.842,-244.0943 447.6604,-250.8258 453.6439,-254.4586"/>
</g>
<!-- Node17 -->
<g id="node18" class="node">
<title>Node17</title>
<g id="a_node18"><a xlink:href="../../d1/d06/constexpr_8h.xhtml" target="_top" xlink:title="../util/constexpr.h">
<polygon fill="#ffffff" stroke="#000000" points="505.6965,-224.9516 505.6965,-243.9516 597.6965,-243.9516 597.6965,-224.9516 505.6965,-224.9516"/>
<text text-anchor="middle" x="551.6965" y="-231.9516" font-family="Helvetica,sans-Serif" font-size="10.00" fill="#000000">../util/constexpr.h</text>
</a>
</g>
</g>
<!-- Node14&#45;&gt;Node17 -->
<g id="edge20" class="edge">
<title>Node14&#45;&gt;Node17</title>
<path fill="none" stroke="#191970" d="M449.0128,-280.8249C468.9181,-271.8354 498.8401,-258.3223 521.2565,-248.1987"/>
<polygon fill="#191970" stroke="#191970" points="522.9851,-251.2585 530.6583,-243.9528 520.104,-244.8789 522.9851,-251.2585"/>
</g>
<!-- Node19 -->
<g id="node20" class="node">
<title>Node19</title>
<g id="a_node20"><a xlink:href="../../de/d65/stringformatter_8h.xhtml" target="_top" xlink:title="../util/stringformatter.h">
<polygon fill="#ffffff" stroke="#000000" points="240.1965,-224.9516 240.1965,-243.9516 353.1965,-243.9516 353.1965,-224.9516 240.1965,-224.9516"/>
<text text-anchor="middle" x="296.6965" y="-231.9516" font-family="Helvetica,sans-Serif" font-size="10.00" fill="#000000">../util/stringformatter.h</text>
</a>
</g>
</g>
<!-- Node14&#45;&gt;Node19 -->
<g id="edge22" class="edge">
<title>Node14&#45;&gt;Node19</title>
<path fill="none" stroke="#191970" d="M405.1768,-280.8249C383.9593,-271.7548 351.9688,-258.0795 328.2196,-247.9272"/>
<polygon fill="#191970" stroke="#191970" points="329.4932,-244.6653 318.9223,-243.9528 326.7416,-251.1018 329.4932,-244.6653"/>
</g>
<!-- Node27 -->
<g id="node28" class="node">
<title>Node27</title>
<g id="a_node28"><a xlink:href="../../d3/d4e/logsink_8h.xhtml" target="_top" xlink:title="logsink.h">
<polygon fill="#ffffff" stroke="#000000" points="653.6965,-224.9516 653.6965,-243.9516 709.6965,-243.9516 709.6965,-224.9516 653.6965,-224.9516"/>
<text text-anchor="middle" x="681.6965" y="-231.9516" font-family="Helvetica,sans-Serif" font-size="10.00" fill="#000000">logsink.h</text>
</a>
</g>
</g>
<!-- Node14&#45;&gt;Node27 -->
<g id="edge38" class="edge">
<title>Node14&#45;&gt;Node27</title>
<path fill="none" stroke="#191970" d="M472.4218,-281.0195C515.367,-271.8985 582.0405,-257.5692 639.6965,-244.4516 640.9298,-244.171 642.1831,-243.884 643.4482,-243.5925"/>
<polygon fill="#191970" stroke="#191970" points="644.3045,-246.9868 653.248,-241.3067 642.7144,-240.1698 644.3045,-246.9868"/>
</g>
<!-- Node30 -->
<g id="node31" class="node">
<title>Node30</title>
<g id="a_node31"><a xlink:href="../../de/d09/level_8h.xhtml" target="_top" xlink:title="level.h">
<polygon fill="#ffffff" stroke="#000000" points="592.1965,-168.9516 592.1965,-187.9516 637.1965,-187.9516 637.1965,-168.9516 592.1965,-168.9516"/>
<text text-anchor="middle" x="614.6965" y="-175.9516" font-family="Helvetica,sans-Serif" font-size="10.00" fill="#000000">level.h</text>
</a>
</g>
</g>
<!-- Node14&#45;&gt;Node30 -->
<g id="edge46" class="edge">
<title>Node14&#45;&gt;Node30</title>
<path fill="none" stroke="#191970" d="M472.4272,-284.7542C519.5073,-277.791 589.1902,-264.4141 606.6965,-244.4516 617.6124,-232.0042 618.8074,-212.7854 617.7478,-198.2911"/>
<polygon fill="#191970" stroke="#191970" points="621.2218,-197.8626 616.6218,-188.3185 614.266,-198.648 621.2218,-197.8626"/>
</g>
<!-- Node18 -->
<g id="node19" class="node">
<title>Node18</title>
<polygon fill="#ffffff" stroke="#bfbfbf" points="529.1965,-168.9516 529.1965,-187.9516 574.1965,-187.9516 574.1965,-168.9516 529.1965,-168.9516"/>
<text text-anchor="middle" x="551.6965" y="-175.9516" font-family="Helvetica,sans-Serif" font-size="10.00" fill="#000000">cstdlib</text>
</g>
<!-- Node17&#45;&gt;Node18 -->
<g id="edge21" class="edge">
<title>Node17&#45;&gt;Node18</title>
<path fill="none" stroke="#191970" d="M551.6965,-224.6972C551.6965,-217.3899 551.6965,-207.146 551.6965,-198.1562"/>
<polygon fill="#191970" stroke="#191970" points="555.1966,-198.0943 551.6965,-188.0943 548.1966,-198.0943 555.1966,-198.0943"/>
</g>
<!-- Node19&#45;&gt;Node1 -->
<g id="edge23" class="edge">
<title>Node19&#45;&gt;Node1</title>
<path fill="none" stroke="#191970" d="M266.7848,-224.8249C235.8347,-214.8639 187.6265,-199.3487 155.6125,-189.0453"/>
<polygon fill="#191970" stroke="#191970" points="156.4212,-185.6288 145.8297,-185.8968 154.2766,-192.2922 156.4212,-185.6288"/>
</g>
<!-- Node19&#45;&gt;Node8 -->
<g id="edge24" class="edge">
<title>Node19&#45;&gt;Node8</title>
<path fill="none" stroke="#191970" d="M303.1667,-224.5377C311.2868,-210.7172 322.7724,-185.4481 310.6965,-168.4516 304.8988,-160.2916 251.7464,-143.543 214.6863,-132.6656"/>
<polygon fill="#191970" stroke="#191970" points="215.2925,-129.1969 204.7129,-129.7653 213.3378,-135.9185 215.2925,-129.1969"/>
</g>
<!-- Node19&#45;&gt;Node11 -->
<g id="edge26" class="edge">
<title>Node19&#45;&gt;Node11</title>
<path fill="none" stroke="#191970" d="M331.3284,-224.8709C363.9905,-215.7608 414.2782,-201.543 457.6965,-188.4516 485.8228,-179.971 492.0746,-175.0699 520.6965,-168.4516 627.0685,-143.855 676.4927,-198.1441 763.6965,-132.4516 778.4196,-121.3604 786.1154,-101.359 790.0057,-86.272"/>
<polygon fill="#191970" stroke="#191970" points="793.4573,-86.874 792.212,-76.3526 786.6243,-85.3542 793.4573,-86.874"/>
</g>
<!-- Node20 -->
<g id="node21" class="node">
<title>Node20</title>
<polygon fill="#ffffff" stroke="#bfbfbf" points="239.6965,-168.9516 239.6965,-187.9516 301.6965,-187.9516 301.6965,-168.9516 239.6965,-168.9516"/>
<text text-anchor="middle" x="270.6965" y="-175.9516" font-family="Helvetica,sans-Serif" font-size="10.00" fill="#000000">type_traits</text>
</g>
<!-- Node19&#45;&gt;Node20 -->
<g id="edge25" class="edge">
<title>Node19&#45;&gt;Node20</title>
<path fill="none" stroke="#191970" d="M292.1676,-224.6972C288.6631,-217.149 283.7038,-206.4674 279.4342,-197.2714"/>
<polygon fill="#191970" stroke="#191970" points="282.5591,-195.6905 275.1734,-188.0943 276.2101,-198.6383 282.5591,-195.6905"/>
</g>
<!-- Node21 -->
<g id="node22" class="node">
<title>Node21</title>
<g id="a_node22"><a xlink:href="../../dc/dcf/externalsstream_8h.xhtml" target="_top" xlink:title="externalsstream.h">
<polygon fill="#ffffff" stroke="#000000" points="529.1965,-112.9516 529.1965,-131.9516 624.1965,-131.9516 624.1965,-112.9516 529.1965,-112.9516"/>
<text text-anchor="middle" x="576.6965" y="-119.9516" font-family="Helvetica,sans-Serif" font-size="10.00" fill="#000000">externalsstream.h</text>
</a>
</g>
</g>
<!-- Node19&#45;&gt;Node21 -->
<g id="edge27" class="edge">
<title>Node19&#45;&gt;Node21</title>
<path fill="none" stroke="#191970" d="M323.4362,-224.9256C348.6393,-215.8542 387.402,-201.6625 420.6965,-188.4516 464.2301,-171.1779 513.975,-149.8525 545.3537,-136.2022"/>
<polygon fill="#191970" stroke="#191970" points="547.0976,-139.2602 554.8651,-132.0549 544.2996,-132.8436 547.0976,-139.2602"/>
</g>
<!-- Node22 -->
<g id="node23" class="node">
<title>Node22</title>
<g id="a_node23"><a xlink:href="../../d6/d90/strings_8h.xhtml" target="_top" xlink:title="strings.h">
<polygon fill="#ffffff" stroke="#000000" points="357.6965,-168.9516 357.6965,-187.9516 411.6965,-187.9516 411.6965,-168.9516 357.6965,-168.9516"/>
<text text-anchor="middle" x="384.6965" y="-175.9516" font-family="Helvetica,sans-Serif" font-size="10.00" fill="#000000">strings.h</text>
</a>
</g>
</g>
<!-- Node19&#45;&gt;Node22 -->
<g id="edge30" class="edge">
<title>Node19&#45;&gt;Node22</title>
<path fill="none" stroke="#191970" d="M312.0249,-224.6972C325.5268,-216.1051 345.4086,-203.453 360.9651,-193.5534"/>
<polygon fill="#191970" stroke="#191970" points="362.9861,-196.4159 369.5437,-188.0943 359.228,-190.5103 362.9861,-196.4159"/>
</g>
<!-- Node21&#45;&gt;Node7 -->
<g id="edge28" class="edge">
<title>Node21&#45;&gt;Node7</title>
<path fill="none" stroke="#191970" d="M586.9735,-112.6972C595.5183,-104.5869 607.8743,-92.8591 618.005,-83.2435"/>
<polygon fill="#191970" stroke="#191970" points="620.6936,-85.5172 625.5372,-76.0943 615.8746,-80.44 620.6936,-85.5172"/>
</g>
<!-- Node21&#45;&gt;Node10 -->
<g id="edge29" class="edge">
<title>Node21&#45;&gt;Node10</title>
<path fill="none" stroke="#191970" d="M570.2168,-112.9026C557.5409,-94.2223 529.2805,-52.5754 512.9624,-28.5278"/>
<polygon fill="#191970" stroke="#191970" points="515.671,-26.286 507.1598,-19.9765 509.8787,-30.2166 515.671,-26.286"/>
</g>
<!-- Node22&#45;&gt;Node3 -->
<g id="edge32" class="edge">
<title>Node22&#45;&gt;Node3</title>
<path fill="none" stroke="#191970" d="M411.8792,-175.4011C494.9823,-166.0749 745.9485,-137.9103 843.9155,-126.916"/>
<polygon fill="#191970" stroke="#191970" points="844.4523,-130.3778 853.9996,-125.7843 843.6716,-123.4215 844.4523,-130.3778"/>
</g>
<!-- Node22&#45;&gt;Node8 -->
<g id="edge34" class="edge">
<title>Node22&#45;&gt;Node8</title>
<path fill="none" stroke="#191970" d="M357.5938,-171.1779C324.0313,-162.1566 265.1193,-146.2765 214.6965,-132.4516 214.5987,-132.4248 214.5008,-132.398 214.4028,-132.3711"/>
<polygon fill="#191970" stroke="#191970" points="215.6074,-129.0727 205.0369,-129.7903 213.7478,-135.8211 215.6074,-129.0727"/>
</g>
<!-- Node22&#45;&gt;Node10 -->
<g id="edge36" class="edge">
<title>Node22&#45;&gt;Node10</title>
<path fill="none" stroke="#191970" d="M411.6251,-168.9377C437.1164,-159.3818 472.7773,-144.4001 481.6965,-132.4516 504.1477,-102.3751 504.7759,-56.3707 502.9304,-30.2953"/>
<polygon fill="#191970" stroke="#191970" points="506.3989,-29.7882 502.0113,-20.1446 499.4274,-30.4195 506.3989,-29.7882"/>
</g>
<!-- Node23 -->
<g id="node24" class="node">
<title>Node23</title>
<polygon fill="#ffffff" stroke="#bfbfbf" points="223.1965,-112.9516 223.1965,-131.9516 272.1965,-131.9516 272.1965,-112.9516 223.1965,-112.9516"/>
<text text-anchor="middle" x="247.6965" y="-119.9516" font-family="Helvetica,sans-Serif" font-size="10.00" fill="#000000">cstdarg</text>
</g>
<!-- Node22&#45;&gt;Node23 -->
<g id="edge31" class="edge">
<title>Node22&#45;&gt;Node23</title>
<path fill="none" stroke="#191970" d="M361.1453,-168.8249C338.8574,-159.7145 305.2028,-145.9579 280.3328,-135.792"/>
<polygon fill="#191970" stroke="#191970" points="281.5212,-132.4967 270.9403,-131.9528 278.8725,-138.9763 281.5212,-132.4967"/>
</g>
<!-- Node24 -->
<g id="node25" class="node">
<title>Node24</title>
<polygon fill="#ffffff" stroke="#bfbfbf" points="290.6965,-112.9516 290.6965,-131.9516 340.6965,-131.9516 340.6965,-112.9516 290.6965,-112.9516"/>
<text text-anchor="middle" x="315.6965" y="-119.9516" font-family="Helvetica,sans-Serif" font-size="10.00" fill="#000000">iomanip</text>
</g>
<!-- Node22&#45;&gt;Node24 -->
<g id="edge33" class="edge">
<title>Node22&#45;&gt;Node24</title>
<path fill="none" stroke="#191970" d="M372.6776,-168.6972C362.4866,-160.4263 347.6603,-148.3933 335.6858,-138.6749"/>
<polygon fill="#191970" stroke="#191970" points="337.5478,-135.6784 327.5776,-132.0943 333.1366,-141.1136 337.5478,-135.6784"/>
</g>
<!-- Node25 -->
<g id="node26" class="node">
<title>Node25</title>
<polygon fill="#ffffff" stroke="#bfbfbf" points="358.6965,-112.9516 358.6965,-131.9516 410.6965,-131.9516 410.6965,-112.9516 358.6965,-112.9516"/>
<text text-anchor="middle" x="384.6965" y="-119.9516" font-family="Helvetica,sans-Serif" font-size="10.00" fill="#000000">sstream</text>
</g>
<!-- Node22&#45;&gt;Node25 -->
<g id="edge35" class="edge">
<title>Node22&#45;&gt;Node25</title>
<path fill="none" stroke="#191970" d="M384.6965,-168.6972C384.6965,-161.3899 384.6965,-151.146 384.6965,-142.1562"/>
<polygon fill="#191970" stroke="#191970" points="388.1966,-142.0943 384.6965,-132.0943 381.1966,-142.0943 388.1966,-142.0943"/>
</g>
<!-- Node26 -->
<g id="node27" class="node">
<title>Node26</title>
<polygon fill="#ffffff" stroke="#bfbfbf" points="428.6965,-112.9516 428.6965,-131.9516 472.6965,-131.9516 472.6965,-112.9516 428.6965,-112.9516"/>
<text text-anchor="middle" x="450.6965" y="-119.9516" font-family="Helvetica,sans-Serif" font-size="10.00" fill="#000000">vector</text>
</g>
<!-- Node22&#45;&gt;Node26 -->
<g id="edge37" class="edge">
<title>Node22&#45;&gt;Node26</title>
<path fill="none" stroke="#191970" d="M396.1928,-168.6972C405.9407,-160.4263 420.1224,-148.3933 431.5762,-138.6749"/>
<polygon fill="#191970" stroke="#191970" points="433.9712,-141.2329 439.3319,-132.0943 429.4423,-135.8953 433.9712,-141.2329"/>
</g>
<!-- Node28 -->
<g id="node29" class="node">
<title>Node28</title>
<polygon fill="#ffffff" stroke="#bfbfbf" points="655.1965,-168.9516 655.1965,-187.9516 684.1965,-187.9516 684.1965,-168.9516 655.1965,-168.9516"/>
<text text-anchor="middle" x="669.6965" y="-175.9516" font-family="Helvetica,sans-Serif" font-size="10.00" fill="#000000">list</text>
</g>
<!-- Node27&#45;&gt;Node28 -->
<g id="edge39" class="edge">
<title>Node27&#45;&gt;Node28</title>
<path fill="none" stroke="#191970" d="M679.6062,-224.6972C678.0404,-217.3899 675.8453,-207.146 673.9189,-198.1562"/>
<polygon fill="#191970" stroke="#191970" points="677.2804,-197.139 671.7628,-188.0943 670.4358,-198.6057 677.2804,-197.139"/>
</g>
<!-- Node29 -->
<g id="node30" class="node">
<title>Node29</title>
<polygon fill="#ffffff" stroke="#bfbfbf" points="702.6965,-168.9516 702.6965,-187.9516 746.6965,-187.9516 746.6965,-168.9516 702.6965,-168.9516"/>
<text text-anchor="middle" x="724.6965" y="-175.9516" font-family="Helvetica,sans-Serif" font-size="10.00" fill="#000000">mutex</text>
</g>
<!-- Node27&#45;&gt;Node29 -->
<g id="edge40" class="edge">
<title>Node27&#45;&gt;Node29</title>
<path fill="none" stroke="#191970" d="M689.1865,-224.6972C695.2291,-216.8278 703.8868,-205.5526 711.1406,-196.1058"/>
<polygon fill="#191970" stroke="#191970" points="713.978,-198.1574 717.2923,-188.0943 708.4259,-193.8942 713.978,-198.1574"/>
</g>
<!-- Node27&#45;&gt;Node30 -->
<g id="edge41" class="edge">
<title>Node27&#45;&gt;Node30</title>
<path fill="none" stroke="#191970" d="M670.026,-224.6972C660.1304,-216.4263 645.7338,-204.3933 634.1064,-194.6749"/>
<polygon fill="#191970" stroke="#191970" points="636.1507,-191.8219 626.2332,-188.0943 631.6615,-197.1929 636.1507,-191.8219"/>
</g>
<!-- Node31 -->
<g id="node32" class="node">
<title>Node31</title>
<g id="a_node32"><a xlink:href="../../d0/d9b/enum_8h.xhtml" target="_top" xlink:title="../util/enum.h">
<polygon fill="#ffffff" stroke="#000000" points="680.6965,-112.9516 680.6965,-131.9516 754.6965,-131.9516 754.6965,-112.9516 680.6965,-112.9516"/>
<text text-anchor="middle" x="717.6965" y="-119.9516" font-family="Helvetica,sans-Serif" font-size="10.00" fill="#000000">../util/enum.h</text>
</a>
</g>
</g>
<!-- Node30&#45;&gt;Node31 -->
<g id="edge42" class="edge">
<title>Node30&#45;&gt;Node31</title>
<path fill="none" stroke="#191970" d="M632.6377,-168.6972C648.7365,-159.9445 672.5844,-146.9786 690.9356,-137.0013"/>
<polygon fill="#191970" stroke="#191970" points="692.8472,-139.9458 699.9608,-132.0943 689.5035,-133.796 692.8472,-139.9458"/>
</g>
<!-- Node31&#45;&gt;Node7 -->
<g id="edge43" class="edge">
<title>Node31&#45;&gt;Node7</title>
<path fill="none" stroke="#191970" d="M703.4132,-112.6972C690.9494,-104.1854 672.6514,-91.6891 658.2173,-81.8317"/>
<polygon fill="#191970" stroke="#191970" points="660.048,-78.8437 649.8161,-76.0943 656.1002,-84.6243 660.048,-78.8437"/>
</g>
<!-- Node31&#45;&gt;Node11 -->
<g id="edge45" class="edge">
<title>Node31&#45;&gt;Node11</title>
<path fill="none" stroke="#191970" d="M730.9347,-112.6972C742.3774,-104.2657 759.1261,-91.9245 772.4439,-82.1114"/>
<polygon fill="#191970" stroke="#191970" points="774.6356,-84.844 780.61,-76.0943 770.4832,-79.2086 774.6356,-84.844"/>
</g>
<!-- Node32 -->
<g id="node33" class="node">
<title>Node32</title>
<polygon fill="#ffffff" stroke="#bfbfbf" points="681.1965,-56.9516 681.1965,-75.9516 732.1965,-75.9516 732.1965,-56.9516 681.1965,-56.9516"/>
<text text-anchor="middle" x="706.6965" y="-63.9516" font-family="Helvetica,sans-Serif" font-size="10.00" fill="#000000">typeinfo</text>
</g>
<!-- Node31&#45;&gt;Node32 -->
<g id="edge44" class="edge">
<title>Node31&#45;&gt;Node32</title>
<path fill="none" stroke="#191970" d="M715.7804,-112.6972C714.345,-105.3899 712.3329,-95.146 710.567,-86.1562"/>
<polygon fill="#191970" stroke="#191970" points="713.9525,-85.2322 708.5906,-76.0943 707.0837,-86.5814 713.9525,-85.2322"/>
</g>
<!-- Node33&#45;&gt;Node9 -->
<g id="edge48" class="edge">
<title>Node33&#45;&gt;Node9</title>
<path fill="none" stroke="#191970" d="M257.3005,-336.8249C228.8658,-327.5129 185.6088,-313.3469 154.3883,-303.1227"/>
<polygon fill="#191970" stroke="#191970" points="155.3015,-299.7389 144.7088,-299.9528 153.1229,-306.3912 155.3015,-299.7389"/>
</g>
<!-- Node34&#45;&gt;Node3 -->
<g id="edge50" class="edge">
<title>Node34&#45;&gt;Node3</title>
<path fill="none" stroke="#191970" d="M905.7082,-336.8266C902.221,-302.8649 890.4473,-188.1988 885.7027,-141.9908"/>
<polygon fill="#191970" stroke="#191970" points="889.1843,-141.6309 884.6811,-132.0408 882.2209,-142.346 889.1843,-141.6309"/>
</g>
<!-- Node34&#45;&gt;Node35 -->
<g id="edge51" class="edge">
<title>Node34&#45;&gt;Node35</title>
<path fill="none" stroke="#191970" d="M912.793,-336.6972C917.611,-328.9884 924.4716,-318.0114 930.2997,-308.6864"/>
<polygon fill="#191970" stroke="#191970" points="933.3378,-310.4293 935.6698,-300.0943 927.4018,-306.7193 933.3378,-310.4293"/>
</g>
<!-- Node35&#45;&gt;Node3 -->
<g id="edge52" class="edge">
<title>Node35&#45;&gt;Node3</title>
<path fill="none" stroke="#191970" d="M938.9263,-280.8699C932.8777,-260.1697 917.8165,-209.8022 902.6965,-168.4516 899.4417,-159.5504 895.488,-149.8321 892.0317,-141.631"/>
<polygon fill="#191970" stroke="#191970" points="895.1612,-140.0475 888.01,-132.2301 888.7254,-142.8008 895.1612,-140.0475"/>
</g>
</g>
</svg>
        <g id="navigator" transform="translate(0 0)" fill="#404254">
                <rect fill="#f2f5e9" fill-opacity="0.5" stroke="#606060" stroke-width=".5" x="0" y="0" width="60" height="60"/>
                <use id="zoomplus" xlink:href="#zoomPlus" x="17" y="9" onmousedown="handleZoom(evt,'in')"/>
                <use id="zoomminus" xlink:href="#zoomMin" x="42" y="9" onmousedown="handleZoom(evt,'out')"/>
                <use id="reset" xlink:href="#resetDef" x="30" y="36" onmousedown="handleReset()"/>
                <g id="arrowUp" xlink:href="#dirArrow" transform="translate(30 24)" onmousedown="handlePan(0,-1)">
                  <use xlink:href="#rim" fill="#404040">
                        <set attributeName="fill" to="#808080" begin="arrowUp.mouseover" end="arrowUp.mouseout"/>
                  </use>
                  <path fill="none" stroke="white" stroke-width="1.5" d="M0,-3.0v7 M-2.5,-0.5L0,-3.0L2.5,-0.5"/>
                </g>
                <g id="arrowRight" xlink:href="#dirArrow" transform="rotate(90) translate(36 -43)" onmousedown="handlePan(1,0)">
                  <use xlink:href="#rim" fill="#404040">
                        <set attributeName="fill" to="#808080" begin="arrowRight.mouseover" end="arrowRight.mouseout"/>
                  </use>
                  <path fill="none" stroke="white" stroke-width="1.5" d="M0,-3.0v7 M-2.5,-0.5L0,-3.0L2.5,-0.5"/>
                </g>
                <g id="arrowDown" xlink:href="#dirArrow" transform="rotate(180) translate(-30 -48)" onmousedown="handlePan(0,1)">
                  <use xlink:href="#rim" fill="#404040">
                        <set attributeName="fill" to="#808080" begin="arrowDown.mouseover" end="arrowDown.mouseout"/>
                  </use>
                  <path fill="none" stroke="white" stroke-width="1.5" d="M0,-3.0v7 M-2.5,-0.5L0,-3.0L2.5,-0.5"/>
                </g>
                <g id="arrowLeft" xlink:href="#dirArrow" transform="rotate(270) translate(-36 17)" onmousedown="handlePan(-1,0)">
                  <use xlink:href="#rim" fill="#404040">
                        <set attributeName="fill" to="#808080" begin="arrowLeft.mouseover" end="arrowLeft.mouseout"/>
                  </use>
                  <path fill="none" stroke="white" stroke-width="1.5" d="M0,-3.0v7 M-2.5,-0.5L0,-3.0L2.5,-0.5"/>
                </g>
        </g>
        <svg viewBox="0 0 15 15" width="100%" height="30px" preserveAspectRatio="xMaxYMin meet">
         <g id="arrow_out" transform="scale(0.3 0.3)">
          <a xlink:href="typed__job__state__base_8h__incl_org.svg" target="_base">
           <rect id="button" ry="5" rx="5" y="6" x="6" height="38" width="38"
                fill="#f2f5e9" fill-opacity="0.5" stroke="#606060" stroke-width="1.0"/>
           <path id="arrow"
             d="M 11.500037,31.436501 C 11.940474,20.09759 22.043105,11.32322 32.158766,21.979434 L 37.068811,17.246167 C 37.068811,17.246167 37.088388,32 37.088388,32 L 22.160133,31.978069 C 22.160133,31.978069 26.997745,27.140456 26.997745,27.140456 C 18.528582,18.264221 13.291696,25.230495 11.500037,31.436501 z"
             style="fill:#404040;"/>
          </a>
         </g>
        </svg>
</svg>
