<?xml version="1.0" encoding="UTF-8" standalone="no"?>
<!DOCTYPE svg PUBLIC "-//W3C//DTD SVG 1.1//EN"
 "http://www.w3.org/Graphics/SVG/1.1/DTD/svg11.dtd">
<!-- Generated by graphviz version 2.40.1 (20161225.0304)
 -->
<!-- Title: openage::util::compress::LZXDStream::init_next_block Pages: 1 -->
<svg width="534pt" height="50pt"
 viewBox="0.00 0.00 534.00 50.00" xmlns="http://www.w3.org/2000/svg" xmlns:xlink="http://www.w3.org/1999/xlink">
<g id="graph0" class="graph" transform="scale(1 1) rotate(0) translate(4 46)">
<title>openage::util::compress::LZXDStream::init_next_block</title>
<polygon fill="#ffffff" stroke="transparent" points="-4,4 -4,-46 530,-46 530,4 -4,4"/>
<!-- Node54 -->
<g id="node1" class="node">
<title>Node54</title>
<polygon fill="#bfbfbf" stroke="#000000" points="0,-6 0,-36 151,-36 151,-6 0,-6"/>
<text text-anchor="start" x="8" y="-24" font-family="Helvetica,sans-Serif" font-size="10.00" fill="#000000">openage::util::compress</text>
<text text-anchor="middle" x="75.5" y="-13" font-family="Helvetica,sans-Serif" font-size="10.00" fill="#000000">::LZXDStream::init_next_block</text>
</g>
<!-- Node55 -->
<g id="node2" class="node">
<title>Node55</title>
<g id="a_node2"><a xlink:href="../../d7/da4/classopenage_1_1util_1_1compress_1_1_l_z_x_d_stream.xhtml#a12047565515e79d8fa7ae56c1459a724" target="_top" xlink:title="See the doc for LZXDecompressor::decompress_next_frame in lzxd.h. ">
<polygon fill="#ffffff" stroke="#000000" points="187,-.5 187,-41.5 326,-41.5 326,-.5 187,-.5"/>
<text text-anchor="start" x="195" y="-29.5" font-family="Helvetica,sans-Serif" font-size="10.00" fill="#000000">openage::util::compress</text>
<text text-anchor="start" x="195" y="-18.5" font-family="Helvetica,sans-Serif" font-size="10.00" fill="#000000">::LZXDStream::decompress</text>
<text text-anchor="middle" x="256.5" y="-7.5" font-family="Helvetica,sans-Serif" font-size="10.00" fill="#000000">_next_frame</text>
</a>
</g>
</g>
<!-- Node54&#45;&gt;Node55 -->
<g id="edge1" class="edge">
<title>Node54&#45;&gt;Node55</title>
<path fill="none" stroke="#191970" d="M161.2468,-21C169.8336,-21 178.4777,-21 186.8685,-21"/>
<polygon fill="#191970" stroke="#191970" points="161.2116,-17.5001 151.2116,-21 161.2115,-24.5001 161.2116,-17.5001"/>
</g>
<!-- Node56 -->
<g id="node3" class="node">
<title>Node56</title>
<g id="a_node3"><a xlink:href="../../d2/dce/classopenage_1_1util_1_1compress_1_1_l_z_x_decompressor.xhtml#ad03ce7fd20c3abe824f61dd382bab43c" target="_top" xlink:title="Decompresses a single 32&#45;KiB frame. ">
<polygon fill="#ffffff" stroke="#000000" points="362,-.5 362,-41.5 526,-41.5 526,-.5 362,-.5"/>
<text text-anchor="start" x="370" y="-29.5" font-family="Helvetica,sans-Serif" font-size="10.00" fill="#000000">openage::util::compress</text>
<text text-anchor="start" x="370" y="-18.5" font-family="Helvetica,sans-Serif" font-size="10.00" fill="#000000">::LZXDecompressor::decompress</text>
<text text-anchor="middle" x="444" y="-7.5" font-family="Helvetica,sans-Serif" font-size="10.00" fill="#000000">_next_frame</text>
</a>
</g>
</g>
<!-- Node55&#45;&gt;Node56 -->
<g id="edge2" class="edge">
<title>Node55&#45;&gt;Node56</title>
<path fill="none" stroke="#191970" d="M336.2895,-21C344.7617,-21 353.3894,-21 361.8876,-21"/>
<polygon fill="#191970" stroke="#191970" points="336.0517,-17.5001 326.0516,-21 336.0516,-24.5001 336.0517,-17.5001"/>
</g>
</g>
</svg>
