<?xml version="1.0" encoding="UTF-8" standalone="no"?>
<!DOCTYPE svg PUBLIC "-//W3C//DTD SVG 1.1//EN"
 "http://www.w3.org/Graphics/SVG/1.1/DTD/svg11.dtd">
<!-- Generated by graphviz version 2.40.1 (20161225.0304)
 -->
<!-- Title: openage.convert.dataformat.members.MultisubtypeMember.get_snippets Pages: 1 -->
<svg width="796pt" height="149pt"
 viewBox="0.00 0.00 796.00 148.50" xmlns="http://www.w3.org/2000/svg" xmlns:xlink="http://www.w3.org/1999/xlink">
<g id="graph0" class="graph" transform="scale(1 1) rotate(0) translate(4 144.5)">
<title>openage.convert.dataformat.members.MultisubtypeMember.get_snippets</title>
<polygon fill="#ffffff" stroke="transparent" points="-4,4 -4,-144.5 792,-144.5 792,4 -4,4"/>
<!-- Node24 -->
<g id="node1" class="node">
<title>Node24</title>
<polygon fill="#bfbfbf" stroke="#000000" points="0,-63 0,-93 185,-93 185,-63 0,-63"/>
<text text-anchor="start" x="8" y="-81" font-family="Helvetica,sans-Serif" font-size="10.00" fill="#000000">openage.convert.dataformat.members.</text>
<text text-anchor="middle" x="92.5" y="-70" font-family="Helvetica,sans-Serif" font-size="10.00" fill="#000000">MultisubtypeMember.get_snippets</text>
</g>
<!-- Node25 -->
<g id="node2" class="node">
<title>Node25</title>
<g id="a_node2"><a xlink:href="../../d3/dae/namespaceopenage_1_1convert_1_1dataformat_1_1util.xhtml#abe9d9997e55017fa14737a7603afadba" target="_top" xlink:title="returns the includable headers for using the given C type. ">
<polygon fill="#ffffff" stroke="#000000" points="457,-110 457,-140 657,-140 657,-110 457,-110"/>
<text text-anchor="start" x="465" y="-128" font-family="Helvetica,sans-Serif" font-size="10.00" fill="#000000">openage.convert.dataformat.util.determine</text>
<text text-anchor="middle" x="557" y="-117" font-family="Helvetica,sans-Serif" font-size="10.00" fill="#000000">_header</text>
</a>
</g>
</g>
<!-- Node24&#45;&gt;Node25 -->
<g id="edge1" class="edge">
<title>Node24&#45;&gt;Node25</title>
<path fill="none" stroke="#191970" d="M121.9427,-93.0898C147.4038,-105.2413 185.5911,-121.3538 221,-128 295.4401,-141.9723 380.7986,-141.0003 446.8532,-136.6487"/>
<polygon fill="#191970" stroke="#191970" points="447.1356,-140.1376 456.8692,-135.9533 446.6507,-133.1544 447.1356,-140.1376"/>
</g>
<!-- Node26 -->
<g id="node3" class="node">
<title>Node26</title>
<g id="a_node3"><a xlink:href="../../d3/dae/namespaceopenage_1_1convert_1_1dataformat_1_1util.xhtml#a5e3a7c5e8aeddbd762f9a158f9bc5aab" target="_top" xlink:title="openage.convert.dataformat.util.determine\l_headers">
<polygon fill="#ffffff" stroke="#000000" points="221,-88 221,-118 421,-118 421,-88 221,-88"/>
<text text-anchor="start" x="229" y="-106" font-family="Helvetica,sans-Serif" font-size="10.00" fill="#000000">openage.convert.dataformat.util.determine</text>
<text text-anchor="middle" x="321" y="-95" font-family="Helvetica,sans-Serif" font-size="10.00" fill="#000000">_headers</text>
</a>
</g>
</g>
<!-- Node24&#45;&gt;Node26 -->
<g id="edge2" class="edge">
<title>Node24&#45;&gt;Node26</title>
<path fill="none" stroke="#191970" d="M185.1103,-88.1324C193.5574,-89.0566 202.1683,-89.9987 210.7491,-90.9375"/>
<polygon fill="#191970" stroke="#191970" points="210.4753,-94.4284 220.7967,-92.0368 211.2367,-87.4699 210.4753,-94.4284"/>
</g>
<!-- Node27 -->
<g id="node4" class="node">
<title>Node27</title>
<g id="a_node4"><a xlink:href="../../d7/da4/classopenage_1_1convert_1_1dataformat_1_1members_1_1_multisubtype_member.xhtml#a6a80ec8145d2bf776c98f7cdc4c0da8e" target="_top" xlink:title="openage.convert.dataformat.members.\lMultisubtypeMember.get_contained_types">
<polygon fill="#ffffff" stroke="#000000" points="221,-39 221,-69 421,-69 421,-39 221,-39"/>
<text text-anchor="start" x="229" y="-57" font-family="Helvetica,sans-Serif" font-size="10.00" fill="#000000">openage.convert.dataformat.members.</text>
<text text-anchor="middle" x="321" y="-46" font-family="Helvetica,sans-Serif" font-size="10.00" fill="#000000">MultisubtypeMember.get_contained_types</text>
</a>
</g>
</g>
<!-- Node24&#45;&gt;Node27 -->
<g id="edge4" class="edge">
<title>Node24&#45;&gt;Node27</title>
<path fill="none" stroke="#191970" d="M185.1103,-68.2729C193.5574,-67.3857 202.1683,-66.4812 210.7491,-65.58"/>
<polygon fill="#191970" stroke="#191970" points="211.217,-69.0502 220.7967,-64.5246 210.4858,-62.0885 211.217,-69.0502"/>
</g>
<!-- Node28 -->
<g id="node5" class="node">
<title>Node28</title>
<g id="a_node5"><a xlink:href="../../d4/dd4/namespaceopenage_1_1py.xhtml#a58cbca251b8e2118e0a6b9b0b78a7b32" target="_top" xlink:title="list() ">
<polygon fill="#ffffff" stroke="#000000" points="276.5,-.5 276.5,-19.5 365.5,-19.5 365.5,-.5 276.5,-.5"/>
<text text-anchor="middle" x="321" y="-7.5" font-family="Helvetica,sans-Serif" font-size="10.00" fill="#000000">openage::py::list</text>
</a>
</g>
</g>
<!-- Node24&#45;&gt;Node28 -->
<g id="edge5" class="edge">
<title>Node24&#45;&gt;Node28</title>
<path fill="none" stroke="#191970" d="M127.1153,-62.8875C152.6641,-52.2068 188.4945,-38.2076 221,-29 235.5055,-24.8911 251.4487,-21.4108 266.2604,-18.5963"/>
<polygon fill="#191970" stroke="#191970" points="267.0978,-22.0012 276.3024,-16.7547 265.835,-15.116 267.0978,-22.0012"/>
</g>
<!-- Node26&#45;&gt;Node25 -->
<g id="edge3" class="edge">
<title>Node26&#45;&gt;Node25</title>
<path fill="none" stroke="#191970" d="M421.0852,-112.33C429.573,-113.1212 438.1874,-113.9243 446.7472,-114.7222"/>
<polygon fill="#191970" stroke="#191970" points="446.478,-118.2122 456.7597,-115.6556 447.1278,-111.2424 446.478,-118.2122"/>
</g>
<!-- Node29 -->
<g id="node6" class="node">
<title>Node29</title>
<g id="a_node6"><a xlink:href="../../d5/d0e/namespaceopenage_1_1testing_1_1testing.xhtml#ac25bf81db406af62d08113ef7ae9fd6e" target="_top" xlink:title="openage.testing.testing.result">
<polygon fill="#ffffff" stroke="#000000" points="484.5,-.5 484.5,-19.5 629.5,-19.5 629.5,-.5 484.5,-.5"/>
<text text-anchor="middle" x="557" y="-7.5" font-family="Helvetica,sans-Serif" font-size="10.00" fill="#000000">openage.testing.testing.result</text>
</a>
</g>
</g>
<!-- Node28&#45;&gt;Node29 -->
<g id="edge6" class="edge">
<title>Node28&#45;&gt;Node29</title>
<path fill="none" stroke="#191970" d="M365.6672,-10C396.2039,-10 437.5961,-10 474.0707,-10"/>
<polygon fill="#191970" stroke="#191970" points="474.215,-13.5001 484.215,-10 474.2149,-6.5001 474.215,-13.5001"/>
</g>
<!-- Node30 -->
<g id="node7" class="node">
<title>Node30</title>
<g id="a_node7"><a xlink:href="../../de/d60/namespaceopenage_1_1util.xhtml#a7bc4421a5f0f57f3a0aba3f96eb8d19c" target="_top" xlink:title="method that behaves similar to python&#39;s &quot;repr&quot;. ">
<polygon fill="#ffffff" stroke="#000000" points="693,-.5 693,-19.5 788,-19.5 788,-.5 693,-.5"/>
<text text-anchor="middle" x="740.5" y="-7.5" font-family="Helvetica,sans-Serif" font-size="10.00" fill="#000000">openage::util::repr</text>
</a>
</g>
</g>
<!-- Node29&#45;&gt;Node30 -->
<g id="edge7" class="edge">
<title>Node29&#45;&gt;Node30</title>
<path fill="none" stroke="#191970" d="M629.5241,-3.3835C647.1946,-3.1348 665.8613,-3.2336 682.7405,-3.6798"/>
<polygon fill="#191970" stroke="#191970" points="682.8892,-7.1861 692.9944,-4.0025 683.1094,-.1896 682.8892,-7.1861"/>
</g>
<!-- Node30&#45;&gt;Node29 -->
<g id="edge8" class="edge">
<title>Node30&#45;&gt;Node29</title>
<path fill="none" stroke="#191970" d="M692.9944,-15.9975C676.6748,-16.599 657.8999,-16.8399 639.614,-16.7202"/>
<polygon fill="#191970" stroke="#191970" points="639.5595,-13.2195 629.5241,-16.6165 639.4875,-20.2192 639.5595,-13.2195"/>
</g>
</g>
</svg>
