<?xml version="1.0" encoding="UTF-8" standalone="no"?>
<!DOCTYPE svg PUBLIC "-//W3C//DTD SVG 1.1//EN"
 "http://www.w3.org/Graphics/SVG/1.1/DTD/svg11.dtd">
<!-- Generated by graphviz version 2.40.1 (20161225.0304)
 -->
<!-- Title: openage::ResourceCost::get Pages: 1 -->
<svg width="479pt" height="263pt"
 viewBox="0.00 0.00 479.00 263.00" xmlns="http://www.w3.org/2000/svg" xmlns:xlink="http://www.w3.org/1999/xlink">
<g id="graph0" class="graph" transform="scale(1 1) rotate(0) translate(4 259)">
<title>openage::ResourceCost::get</title>
<polygon fill="#ffffff" stroke="transparent" points="-4,4 -4,-259 475,-259 475,4 -4,4"/>
<!-- Node18 -->
<g id="node1" class="node">
<title>Node18</title>
<polygon fill="#bfbfbf" stroke="#000000" points="0,-118 0,-137 142,-137 142,-118 0,-118"/>
<text text-anchor="middle" x="71" y="-125" font-family="Helvetica,sans-Serif" font-size="10.00" fill="#000000">openage::ResourceCost::get</text>
</g>
<!-- Node19 -->
<g id="node2" class="node">
<title>Node19</title>
<g id="a_node2"><a xlink:href="../../d8/d47/classopenage_1_1_player.xhtml#a69c98ddc434aed6aceec5dbb4931f064" target="_top" xlink:title="Called when a unit is created and active. ">
<polygon fill="#ffffff" stroke="#000000" points="187.5,-224.5 187.5,-254.5 306.5,-254.5 306.5,-224.5 187.5,-224.5"/>
<text text-anchor="start" x="195.5" y="-242.5" font-family="Helvetica,sans-Serif" font-size="10.00" fill="#000000">openage::Player::active</text>
<text text-anchor="middle" x="247" y="-231.5" font-family="Helvetica,sans-Serif" font-size="10.00" fill="#000000">_unit_added</text>
</a>
</g>
</g>
<!-- Node18&#45;&gt;Node19 -->
<g id="edge1" class="edge">
<title>Node18&#45;&gt;Node19</title>
<path fill="none" stroke="#191970" d="M87.4813,-144.2749C107.3815,-163.7202 142.6073,-195.6329 178,-215.5 183.8617,-218.7904 190.2538,-221.747 196.7053,-224.3671"/>
<polygon fill="#191970" stroke="#191970" points="89.7299,-141.5753 80.1683,-137.0117 84.7971,-146.5419 89.7299,-141.5753"/>
</g>
<!-- Node21 -->
<g id="node4" class="node">
<title>Node21</title>
<g id="a_node4"><a xlink:href="../../d8/d47/classopenage_1_1_player.xhtml#ad3f9e5b486a9d6b07402596e3eabca82" target="_top" xlink:title="Called when a unit is destroyed. ">
<polygon fill="#ffffff" stroke="#000000" points="187.5,-175.5 187.5,-205.5 306.5,-205.5 306.5,-175.5 187.5,-175.5"/>
<text text-anchor="start" x="195.5" y="-193.5" font-family="Helvetica,sans-Serif" font-size="10.00" fill="#000000">openage::Player::active</text>
<text text-anchor="middle" x="247" y="-182.5" font-family="Helvetica,sans-Serif" font-size="10.00" fill="#000000">_unit_removed</text>
</a>
</g>
</g>
<!-- Node18&#45;&gt;Node21 -->
<g id="edge3" class="edge">
<title>Node18&#45;&gt;Node21</title>
<path fill="none" stroke="#191970" d="M107.2693,-140.4827C135.6451,-150.64 175.147,-164.7799 204.9135,-175.435"/>
<polygon fill="#191970" stroke="#191970" points="108.3252,-137.1433 97.7306,-137.0683 105.966,-143.7338 108.3252,-137.1433"/>
</g>
<!-- Node22 -->
<g id="node5" class="node">
<title>Node22</title>
<g id="a_node5"><a xlink:href="../../d8/d47/classopenage_1_1_player.xhtml#a4909a76cf5b65e544b1a62dc21147d77" target="_top" xlink:title="Check if the player can make a new unit of the given type. ">
<polygon fill="#ffffff" stroke="#000000" points="178,-137 178,-156 316,-156 316,-137 178,-137"/>
<text text-anchor="middle" x="247" y="-144" font-family="Helvetica,sans-Serif" font-size="10.00" fill="#000000">openage::Player::can_make</text>
</a>
</g>
</g>
<!-- Node18&#45;&gt;Node22 -->
<g id="edge4" class="edge">
<title>Node18&#45;&gt;Node22</title>
<path fill="none" stroke="#191970" d="M152.1408,-136.2595C160.7639,-137.1904 169.4754,-138.1309 177.9413,-139.0448"/>
<polygon fill="#191970" stroke="#191970" points="152.3965,-132.7669 142.0786,-135.1733 151.6452,-139.7264 152.3965,-132.7669"/>
</g>
<!-- Node23 -->
<g id="node6" class="node">
<title>Node23</title>
<g id="a_node6"><a xlink:href="../../d8/d47/classopenage_1_1_player.xhtml#a2d3f269dc4b0acd1972e4d0a32f97c2f" target="_top" xlink:title="Called when a unit is killed by this player. ">
<polygon fill="#ffffff" stroke="#000000" points="178.5,-99 178.5,-118 315.5,-118 315.5,-99 178.5,-99"/>
<text text-anchor="middle" x="247" y="-106" font-family="Helvetica,sans-Serif" font-size="10.00" fill="#000000">openage::Player::killed_unit</text>
</a>
</g>
</g>
<!-- Node18&#45;&gt;Node23 -->
<g id="edge5" class="edge">
<title>Node18&#45;&gt;Node23</title>
<path fill="none" stroke="#191970" d="M152.2224,-118.7317C160.9156,-117.7932 169.6976,-116.8451 178.2262,-115.9244"/>
<polygon fill="#191970" stroke="#191970" points="151.6452,-115.2736 142.0786,-119.8267 152.3965,-122.2331 151.6452,-115.2736"/>
</g>
<!-- Node24 -->
<g id="node7" class="node">
<title>Node24</title>
<g id="a_node7"><a xlink:href="../../d8/d06/classopenage_1_1_action_mode.xhtml#a3865e557756044d8183a3d24cd5b8ab4" target="_top" xlink:title="places hovering building ">
<polygon fill="#ffffff" stroke="#000000" points="191.5,-49.5 191.5,-79.5 302.5,-79.5 302.5,-49.5 191.5,-49.5"/>
<text text-anchor="start" x="199.5" y="-67.5" font-family="Helvetica,sans-Serif" font-size="10.00" fill="#000000">openage::ActionMode</text>
<text text-anchor="middle" x="247" y="-56.5" font-family="Helvetica,sans-Serif" font-size="10.00" fill="#000000">::place_selection</text>
</a>
</g>
</g>
<!-- Node18&#45;&gt;Node24 -->
<g id="edge6" class="edge">
<title>Node18&#45;&gt;Node24</title>
<path fill="none" stroke="#191970" d="M107.2693,-114.5173C135.6451,-104.36 175.147,-90.2201 204.9135,-79.565"/>
<polygon fill="#191970" stroke="#191970" points="105.966,-111.2662 97.7306,-117.9317 108.3252,-117.8567 105.966,-111.2662"/>
</g>
<!-- Node26 -->
<g id="node9" class="node">
<title>Node26</title>
<g id="a_node9"><a xlink:href="../../db/da0/classopenage_1_1_repair_action.xhtml#a30a410ac792adbc34048d4af46a770e2" target="_top" xlink:title="openage::RepairAction\l::RepairAction">
<polygon fill="#ffffff" stroke="#000000" points="189,-.5 189,-30.5 305,-30.5 305,-.5 189,-.5"/>
<text text-anchor="start" x="197" y="-18.5" font-family="Helvetica,sans-Serif" font-size="10.00" fill="#000000">openage::RepairAction</text>
<text text-anchor="middle" x="247" y="-7.5" font-family="Helvetica,sans-Serif" font-size="10.00" fill="#000000">::RepairAction</text>
</a>
</g>
</g>
<!-- Node18&#45;&gt;Node26 -->
<g id="edge8" class="edge">
<title>Node18&#45;&gt;Node26</title>
<path fill="none" stroke="#191970" d="M87.4813,-110.7251C107.3815,-91.2798 142.6073,-59.3671 178,-39.5 183.8617,-36.2096 190.2538,-33.253 196.7053,-30.6329"/>
<polygon fill="#191970" stroke="#191970" points="84.7971,-108.4581 80.1683,-117.9883 89.7299,-113.4247 84.7971,-108.4581"/>
</g>
<!-- Node20 -->
<g id="node3" class="node">
<title>Node20</title>
<g id="a_node3"><a xlink:href="../../d2/d82/classopenage_1_1_unit_container.xhtml#a9ef13f975890f222c360b8a5e3242939" target="_top" xlink:title="adds a new unit to the container and initialises using a unit type ">
<polygon fill="#ffffff" stroke="#000000" points="352,-224.5 352,-254.5 471,-254.5 471,-224.5 352,-224.5"/>
<text text-anchor="start" x="360" y="-242.5" font-family="Helvetica,sans-Serif" font-size="10.00" fill="#000000">openage::UnitContainer</text>
<text text-anchor="middle" x="411.5" y="-231.5" font-family="Helvetica,sans-Serif" font-size="10.00" fill="#000000">::new_unit</text>
</a>
</g>
</g>
<!-- Node19&#45;&gt;Node20 -->
<g id="edge2" class="edge">
<title>Node19&#45;&gt;Node20</title>
<path fill="none" stroke="#191970" d="M316.9787,-239.5C328.6264,-239.5 340.6098,-239.5 351.9664,-239.5"/>
<polygon fill="#191970" stroke="#191970" points="316.8537,-236.0001 306.8536,-239.5 316.8536,-243.0001 316.8537,-236.0001"/>
</g>
<!-- Node25 -->
<g id="node8" class="node">
<title>Node25</title>
<g id="a_node8"><a xlink:href="../../d8/d06/classopenage_1_1_action_mode.xhtml#a43f98279255b857ee8fa9943117271e8" target="_top" xlink:title="Called after GameControl has been set by QML from set_game_control. ">
<polygon fill="#ffffff" stroke="#000000" points="353.5,-49.5 353.5,-79.5 469.5,-79.5 469.5,-49.5 353.5,-49.5"/>
<text text-anchor="start" x="361.5" y="-67.5" font-family="Helvetica,sans-Serif" font-size="10.00" fill="#000000">openage::ActionMode</text>
<text text-anchor="middle" x="411.5" y="-56.5" font-family="Helvetica,sans-Serif" font-size="10.00" fill="#000000">::on_game_control_set</text>
</a>
</g>
</g>
<!-- Node24&#45;&gt;Node25 -->
<g id="edge7" class="edge">
<title>Node24&#45;&gt;Node25</title>
<path fill="none" stroke="#191970" d="M312.8003,-64.5C326.2061,-64.5 340.2198,-64.5 353.3371,-64.5"/>
<polygon fill="#191970" stroke="#191970" points="312.6922,-61.0001 302.6922,-64.5 312.6922,-68.0001 312.6922,-61.0001"/>
</g>
</g>
</svg>
