<?xml version="1.0" encoding="UTF-8" standalone="no"?>
<!DOCTYPE svg PUBLIC "-//W3C//DTD SVG 1.1//EN"
 "http://www.w3.org/Graphics/SVG/1.1/DTD/svg11.dtd">
<!-- Generated by graphviz version 2.40.1 (20161225.0304)
 -->
<!-- Title: /mnt/c/Users/Jameson/Desktop/git/openage&#45;new&#45;doc&#45;system/libopenage/curve/value_container.h Pages: 1 -->
<!--zoomable 417 -->
<svg id="main" version="1.1" xmlns="http://www.w3.org/2000/svg" xmlns:xlink="http://www.w3.org/1999/xlink" xml:space="preserve" onload="init(evt)">
<style type="text/css"><![CDATA[
.edge:hover path { stroke: red; }
.edge:hover polygon { stroke: red; fill: red; }
]]></style>
<script type="text/javascript"><![CDATA[
var edges = document.getElementsByTagName('g');
if (edges && edges.length) {
  for (var i=0;i<edges.length;i++) {
    if (edges[i].id.substr(0,4)=='edge') {
      edges[i].setAttribute('class','edge');
    }
  }
}
]]></script>
        <defs>
                <circle id="rim" cx="0" cy="0" r="7"/>
                <circle id="rim2" cx="0" cy="0" r="3.5"/>
                <g id="zoomPlus">
                        <use xlink:href="#rim" fill="#404040">
                                <set attributeName="fill" to="#808080" begin="zoomplus.mouseover" end="zoomplus.mouseout"/>
                        </use>
                        <path d="M-4,0h8M0,-4v8" fill="none" stroke="white" stroke-width="1.5" pointer-events="none"/>
                </g>
                <g id="zoomMin">
                        <use xlink:href="#rim" fill="#404040">
                                <set attributeName="fill" to="#808080" begin="zoomminus.mouseover" end="zoomminus.mouseout"/>
                        </use>
                        <path d="M-4,0h8" fill="none" stroke="white" stroke-width="1.5" pointer-events="none"/>
                </g>
                <g id="dirArrow">
                        <path fill="none" stroke="white" stroke-width="1.5" d="M0,-3.0v7 M-2.5,-0.5L0,-3.0L2.5,-0.5"/>
                </g>
               <g id="resetDef">
                       <use xlink:href="#rim2" fill="#404040">
                               <set attributeName="fill" to="#808080" begin="reset.mouseover" end="reset.mouseout"/>
                       </use>
               </g>
        </defs>

<script type="text/javascript">
var viewWidth = 837;
var viewHeight = 417;
var sectionId = 'dynsection-1';
</script>
<script xlink:href="../../svgpan.js"/>
<svg id="graph" class="graph">
<g id="viewport">
<title>/mnt/c/Users/Jameson/Desktop/git/openage&#45;new&#45;doc&#45;system/libopenage/curve/value_container.h</title>
<polygon fill="#ffffff" stroke="transparent" points="-4,4 -4,-413 833,-413 833,4 -4,4"/>
<!-- Node53 -->
<g id="node1" class="node">
<title>Node53</title>
<polygon fill="#bfbfbf" stroke="#000000" points="398,-356.5 398,-408.5 539,-408.5 539,-356.5 398,-356.5"/>
<text text-anchor="start" x="406" y="-396.5" font-family="Helvetica,sans-Serif" font-size="10.00" fill="#000000">/mnt/c/Users/Jameson</text>
<text text-anchor="start" x="406" y="-385.5" font-family="Helvetica,sans-Serif" font-size="10.00" fill="#000000">/Desktop/git/openage</text>
<text text-anchor="start" x="406" y="-374.5" font-family="Helvetica,sans-Serif" font-size="10.00" fill="#000000">&#45;new&#45;doc&#45;system/libopenage</text>
<text text-anchor="middle" x="468.5" y="-363.5" font-family="Helvetica,sans-Serif" font-size="10.00" fill="#000000">/curve/value_container.h</text>
</g>
<!-- Node54 -->
<g id="node2" class="node">
<title>Node54</title>
<g id="a_node2"><a xlink:href="../../d8/db7/continuous_8h.xhtml" target="_top" xlink:title="/mnt/c/Users/Jameson\l/Desktop/git/openage\l&#45;new&#45;doc&#45;system/libopenage\l/curve/continuous.h">
<polygon fill="#ffffff" stroke="#000000" points="239,-267.5 239,-319.5 380,-319.5 380,-267.5 239,-267.5"/>
<text text-anchor="start" x="247" y="-307.5" font-family="Helvetica,sans-Serif" font-size="10.00" fill="#000000">/mnt/c/Users/Jameson</text>
<text text-anchor="start" x="247" y="-296.5" font-family="Helvetica,sans-Serif" font-size="10.00" fill="#000000">/Desktop/git/openage</text>
<text text-anchor="start" x="247" y="-285.5" font-family="Helvetica,sans-Serif" font-size="10.00" fill="#000000">&#45;new&#45;doc&#45;system/libopenage</text>
<text text-anchor="middle" x="309.5" y="-274.5" font-family="Helvetica,sans-Serif" font-size="10.00" fill="#000000">/curve/continuous.h</text>
</a>
</g>
</g>
<!-- Node53&#45;&gt;Node54 -->
<g id="edge1" class="edge">
<title>Node53&#45;&gt;Node54</title>
<path fill="none" stroke="#191970" d="M412.7288,-351.2821C394.1955,-340.9082 373.7682,-329.4741 356.0104,-319.5341"/>
<polygon fill="#191970" stroke="#191970" points="411.2192,-354.4481 421.6547,-356.2784 414.6383,-348.3399 411.2192,-354.4481"/>
</g>
<!-- Node65 -->
<g id="node13" class="node">
<title>Node65</title>
<g id="a_node13"><a xlink:href="../../da/d78/discrete_8h.xhtml" target="_top" xlink:title="/mnt/c/Users/Jameson\l/Desktop/git/openage\l&#45;new&#45;doc&#45;system/libopenage\l/curve/discrete.h">
<polygon fill="#ffffff" stroke="#000000" points="398,-267.5 398,-319.5 539,-319.5 539,-267.5 398,-267.5"/>
<text text-anchor="start" x="406" y="-307.5" font-family="Helvetica,sans-Serif" font-size="10.00" fill="#000000">/mnt/c/Users/Jameson</text>
<text text-anchor="start" x="406" y="-296.5" font-family="Helvetica,sans-Serif" font-size="10.00" fill="#000000">/Desktop/git/openage</text>
<text text-anchor="start" x="406" y="-285.5" font-family="Helvetica,sans-Serif" font-size="10.00" fill="#000000">&#45;new&#45;doc&#45;system/libopenage</text>
<text text-anchor="middle" x="468.5" y="-274.5" font-family="Helvetica,sans-Serif" font-size="10.00" fill="#000000">/curve/discrete.h</text>
</a>
</g>
</g>
<!-- Node53&#45;&gt;Node65 -->
<g id="edge14" class="edge">
<title>Node53&#45;&gt;Node65</title>
<path fill="none" stroke="#191970" d="M468.5,-346.1155C468.5,-337.2061 468.5,-327.8475 468.5,-319.5341"/>
<polygon fill="#191970" stroke="#191970" points="465.0001,-346.2784 468.5,-356.2784 472.0001,-346.2785 465.0001,-346.2784"/>
</g>
<!-- Node67 -->
<g id="node15" class="node">
<title>Node67</title>
<g id="a_node15"><a xlink:href="../../d5/df4/value__container_8cpp.xhtml" target="_top" xlink:title="/mnt/c/Users/Jameson\l/Desktop/git/openage\l&#45;new&#45;doc&#45;system/libopenage\l/curve/value_container.cpp">
<polygon fill="#ffffff" stroke="#000000" points="557,-267.5 557,-319.5 698,-319.5 698,-267.5 557,-267.5"/>
<text text-anchor="start" x="565" y="-307.5" font-family="Helvetica,sans-Serif" font-size="10.00" fill="#000000">/mnt/c/Users/Jameson</text>
<text text-anchor="start" x="565" y="-296.5" font-family="Helvetica,sans-Serif" font-size="10.00" fill="#000000">/Desktop/git/openage</text>
<text text-anchor="start" x="565" y="-285.5" font-family="Helvetica,sans-Serif" font-size="10.00" fill="#000000">&#45;new&#45;doc&#45;system/libopenage</text>
<text text-anchor="middle" x="627.5" y="-274.5" font-family="Helvetica,sans-Serif" font-size="10.00" fill="#000000">/curve/value_container.cpp</text>
</a>
</g>
</g>
<!-- Node53&#45;&gt;Node67 -->
<g id="edge19" class="edge">
<title>Node53&#45;&gt;Node67</title>
<path fill="none" stroke="#191970" d="M524.2712,-351.2821C542.8045,-340.9082 563.2318,-329.4741 580.9896,-319.5341"/>
<polygon fill="#191970" stroke="#191970" points="522.3617,-348.3399 515.3453,-356.2784 525.7808,-354.4481 522.3617,-348.3399"/>
</g>
<!-- Node55 -->
<g id="node3" class="node">
<title>Node55</title>
<g id="a_node3"><a xlink:href="../../d4/d98/continuous_8cpp.xhtml" target="_top" xlink:title="/mnt/c/Users/Jameson\l/Desktop/git/openage\l&#45;new&#45;doc&#45;system/libopenage\l/curve/continuous.cpp">
<polygon fill="#ffffff" stroke="#000000" points="0,-178.5 0,-230.5 141,-230.5 141,-178.5 0,-178.5"/>
<text text-anchor="start" x="8" y="-218.5" font-family="Helvetica,sans-Serif" font-size="10.00" fill="#000000">/mnt/c/Users/Jameson</text>
<text text-anchor="start" x="8" y="-207.5" font-family="Helvetica,sans-Serif" font-size="10.00" fill="#000000">/Desktop/git/openage</text>
<text text-anchor="start" x="8" y="-196.5" font-family="Helvetica,sans-Serif" font-size="10.00" fill="#000000">&#45;new&#45;doc&#45;system/libopenage</text>
<text text-anchor="middle" x="70.5" y="-185.5" font-family="Helvetica,sans-Serif" font-size="10.00" fill="#000000">/curve/continuous.cpp</text>
</a>
</g>
</g>
<!-- Node54&#45;&gt;Node55 -->
<g id="edge2" class="edge">
<title>Node54&#45;&gt;Node55</title>
<path fill="none" stroke="#191970" d="M229.7658,-263.8082C200.9084,-253.0621 168.559,-241.0157 140.5917,-230.6011"/>
<polygon fill="#191970" stroke="#191970" points="228.8142,-267.1886 239.407,-267.3984 231.2571,-260.6287 228.8142,-267.1886"/>
</g>
<!-- Node56 -->
<g id="node4" class="node">
<title>Node56</title>
<g id="a_node4"><a xlink:href="../../d3/dda/container_8cpp.xhtml" target="_top" xlink:title="/mnt/c/Users/Jameson\l/Desktop/git/openage\l&#45;new&#45;doc&#45;system/libopenage\l/curve/tests/container.cpp">
<polygon fill="#ffffff" stroke="#000000" points="159,-178.5 159,-230.5 300,-230.5 300,-178.5 159,-178.5"/>
<text text-anchor="start" x="167" y="-218.5" font-family="Helvetica,sans-Serif" font-size="10.00" fill="#000000">/mnt/c/Users/Jameson</text>
<text text-anchor="start" x="167" y="-207.5" font-family="Helvetica,sans-Serif" font-size="10.00" fill="#000000">/Desktop/git/openage</text>
<text text-anchor="start" x="167" y="-196.5" font-family="Helvetica,sans-Serif" font-size="10.00" fill="#000000">&#45;new&#45;doc&#45;system/libopenage</text>
<text text-anchor="middle" x="229.5" y="-185.5" font-family="Helvetica,sans-Serif" font-size="10.00" fill="#000000">/curve/tests/container.cpp</text>
</a>
</g>
</g>
<!-- Node54&#45;&gt;Node56 -->
<g id="edge3" class="edge">
<title>Node54&#45;&gt;Node56</title>
<path fill="none" stroke="#191970" d="M279.1323,-259.7159C270.4413,-250.0472 261.1052,-239.6608 252.9015,-230.5341"/>
<polygon fill="#191970" stroke="#191970" points="276.642,-262.1811 285.9301,-267.2784 281.848,-257.5015 276.642,-262.1811"/>
</g>
<!-- Node57 -->
<g id="node5" class="node">
<title>Node57</title>
<g id="a_node5"><a xlink:href="../../d2/d61/curve__types_8cpp.xhtml" target="_top" xlink:title="/mnt/c/Users/Jameson\l/Desktop/git/openage\l&#45;new&#45;doc&#45;system/libopenage\l/curve/tests/curve_types.cpp">
<polygon fill="#ffffff" stroke="#000000" points="318,-178.5 318,-230.5 461,-230.5 461,-178.5 318,-178.5"/>
<text text-anchor="start" x="326" y="-218.5" font-family="Helvetica,sans-Serif" font-size="10.00" fill="#000000">/mnt/c/Users/Jameson</text>
<text text-anchor="start" x="326" y="-207.5" font-family="Helvetica,sans-Serif" font-size="10.00" fill="#000000">/Desktop/git/openage</text>
<text text-anchor="start" x="326" y="-196.5" font-family="Helvetica,sans-Serif" font-size="10.00" fill="#000000">&#45;new&#45;doc&#45;system/libopenage</text>
<text text-anchor="middle" x="389.5" y="-185.5" font-family="Helvetica,sans-Serif" font-size="10.00" fill="#000000">/curve/tests/curve_types.cpp</text>
</a>
</g>
</g>
<!-- Node54&#45;&gt;Node57 -->
<g id="edge4" class="edge">
<title>Node54&#45;&gt;Node57</title>
<path fill="none" stroke="#191970" d="M339.8677,-259.7159C348.5587,-250.0472 357.8948,-239.6608 366.0985,-230.5341"/>
<polygon fill="#191970" stroke="#191970" points="337.152,-257.5015 333.0699,-267.2784 342.358,-262.1811 337.152,-257.5015"/>
</g>
<!-- Node58 -->
<g id="node6" class="node">
<title>Node58</title>
<g id="a_node6"><a xlink:href="../../d0/d1b/gamestate_8h.xhtml" target="_top" xlink:title="/mnt/c/Users/Jameson\l/Desktop/git/openage\l&#45;new&#45;doc&#45;system/libopenage\l/event/demo/gamestate.h">
<polygon fill="#ffffff" stroke="#000000" points="479,-178.5 479,-230.5 620,-230.5 620,-178.5 479,-178.5"/>
<text text-anchor="start" x="487" y="-218.5" font-family="Helvetica,sans-Serif" font-size="10.00" fill="#000000">/mnt/c/Users/Jameson</text>
<text text-anchor="start" x="487" y="-207.5" font-family="Helvetica,sans-Serif" font-size="10.00" fill="#000000">/Desktop/git/openage</text>
<text text-anchor="start" x="487" y="-196.5" font-family="Helvetica,sans-Serif" font-size="10.00" fill="#000000">&#45;new&#45;doc&#45;system/libopenage</text>
<text text-anchor="middle" x="549.5" y="-185.5" font-family="Helvetica,sans-Serif" font-size="10.00" fill="#000000">/event/demo/gamestate.h</text>
</a>
</g>
</g>
<!-- Node54&#45;&gt;Node58 -->
<g id="edge5" class="edge">
<title>Node54&#45;&gt;Node58</title>
<path fill="none" stroke="#191970" d="M389.5678,-263.8082C418.546,-253.0621 451.0308,-241.0157 479.115,-230.6011"/>
<polygon fill="#191970" stroke="#191970" points="388.0454,-260.6398 379.8863,-267.3984 390.4793,-267.203 388.0454,-260.6398"/>
</g>
<!-- Node59 -->
<g id="node7" class="node">
<title>Node59</title>
<g id="a_node7"><a xlink:href="../../dd/dd9/aicontroller_8h.xhtml" target="_top" xlink:title="/mnt/c/Users/Jameson\l/Desktop/git/openage\l&#45;new&#45;doc&#45;system/libopenage\l/event/demo/aicontroller.h">
<polygon fill="#ffffff" stroke="#000000" points="331,-89.5 331,-141.5 472,-141.5 472,-89.5 331,-89.5"/>
<text text-anchor="start" x="339" y="-129.5" font-family="Helvetica,sans-Serif" font-size="10.00" fill="#000000">/mnt/c/Users/Jameson</text>
<text text-anchor="start" x="339" y="-118.5" font-family="Helvetica,sans-Serif" font-size="10.00" fill="#000000">/Desktop/git/openage</text>
<text text-anchor="start" x="339" y="-107.5" font-family="Helvetica,sans-Serif" font-size="10.00" fill="#000000">&#45;new&#45;doc&#45;system/libopenage</text>
<text text-anchor="middle" x="401.5" y="-96.5" font-family="Helvetica,sans-Serif" font-size="10.00" fill="#000000">/event/demo/aicontroller.h</text>
</a>
</g>
</g>
<!-- Node58&#45;&gt;Node59 -->
<g id="edge6" class="edge">
<title>Node58&#45;&gt;Node59</title>
<path fill="none" stroke="#191970" d="M497.1162,-172.9989C479.9906,-162.7004 461.1718,-151.3837 444.7927,-141.5341"/>
<polygon fill="#191970" stroke="#191970" points="495.522,-176.1244 505.8956,-178.2784 499.1295,-170.1255 495.522,-176.1244"/>
</g>
<!-- Node61 -->
<g id="node9" class="node">
<title>Node61</title>
<g id="a_node9"><a xlink:href="../../db/d5e/event_2demo_2main_8cpp.xhtml" target="_top" xlink:title="/mnt/c/Users/Jameson\l/Desktop/git/openage\l&#45;new&#45;doc&#45;system/libopenage\l/event/demo/main.cpp">
<polygon fill="#ffffff" stroke="#000000" points="430,-.5 430,-52.5 571,-52.5 571,-.5 430,-.5"/>
<text text-anchor="start" x="438" y="-40.5" font-family="Helvetica,sans-Serif" font-size="10.00" fill="#000000">/mnt/c/Users/Jameson</text>
<text text-anchor="start" x="438" y="-29.5" font-family="Helvetica,sans-Serif" font-size="10.00" fill="#000000">/Desktop/git/openage</text>
<text text-anchor="start" x="438" y="-18.5" font-family="Helvetica,sans-Serif" font-size="10.00" fill="#000000">&#45;new&#45;doc&#45;system/libopenage</text>
<text text-anchor="middle" x="500.5" y="-7.5" font-family="Helvetica,sans-Serif" font-size="10.00" fill="#000000">/event/demo/main.cpp</text>
</a>
</g>
</g>
<!-- Node58&#45;&gt;Node61 -->
<g id="edge10" class="edge">
<title>Node58&#45;&gt;Node61</title>
<path fill="none" stroke="#191970" d="M530.4546,-169.2911C526.3401,-160.5668 522.3692,-151.1046 519.5,-142 510.0939,-112.1518 505.1288,-76.4178 502.6655,-52.6809"/>
<polygon fill="#191970" stroke="#191970" points="527.3844,-170.9796 534.9304,-178.4165 533.6691,-167.897 527.3844,-170.9796"/>
</g>
<!-- Node62 -->
<g id="node10" class="node">
<title>Node62</title>
<g id="a_node10"><a xlink:href="../../d5/da3/gamestate_8cpp.xhtml" target="_top" xlink:title="/mnt/c/Users/Jameson\l/Desktop/git/openage\l&#45;new&#45;doc&#45;system/libopenage\l/event/demo/gamestate.cpp">
<polygon fill="#ffffff" stroke="#000000" points="688,-89.5 688,-141.5 829,-141.5 829,-89.5 688,-89.5"/>
<text text-anchor="start" x="696" y="-129.5" font-family="Helvetica,sans-Serif" font-size="10.00" fill="#000000">/mnt/c/Users/Jameson</text>
<text text-anchor="start" x="696" y="-118.5" font-family="Helvetica,sans-Serif" font-size="10.00" fill="#000000">/Desktop/git/openage</text>
<text text-anchor="start" x="696" y="-107.5" font-family="Helvetica,sans-Serif" font-size="10.00" fill="#000000">&#45;new&#45;doc&#45;system/libopenage</text>
<text text-anchor="middle" x="758.5" y="-96.5" font-family="Helvetica,sans-Serif" font-size="10.00" fill="#000000">/event/demo/gamestate.cpp</text>
</a>
</g>
</g>
<!-- Node58&#45;&gt;Node62 -->
<g id="edge9" class="edge">
<title>Node58&#45;&gt;Node62</title>
<path fill="none" stroke="#191970" d="M620.2147,-174.387C645.1982,-163.7481 673.0687,-151.8798 697.2064,-141.6011"/>
<polygon fill="#191970" stroke="#191970" points="618.624,-171.2602 610.7947,-178.3984 621.3666,-177.7006 618.624,-171.2602"/>
</g>
<!-- Node63 -->
<g id="node11" class="node">
<title>Node63</title>
<g id="a_node11"><a xlink:href="../../da/d77/physics_8h.xhtml" target="_top" xlink:title="/mnt/c/Users/Jameson\l/Desktop/git/openage\l&#45;new&#45;doc&#45;system/libopenage\l/event/demo/physics.h">
<polygon fill="#ffffff" stroke="#000000" points="529,-89.5 529,-141.5 670,-141.5 670,-89.5 529,-89.5"/>
<text text-anchor="start" x="537" y="-129.5" font-family="Helvetica,sans-Serif" font-size="10.00" fill="#000000">/mnt/c/Users/Jameson</text>
<text text-anchor="start" x="537" y="-118.5" font-family="Helvetica,sans-Serif" font-size="10.00" fill="#000000">/Desktop/git/openage</text>
<text text-anchor="start" x="537" y="-107.5" font-family="Helvetica,sans-Serif" font-size="10.00" fill="#000000">&#45;new&#45;doc&#45;system/libopenage</text>
<text text-anchor="middle" x="599.5" y="-96.5" font-family="Helvetica,sans-Serif" font-size="10.00" fill="#000000">/event/demo/physics.h</text>
</a>
</g>
</g>
<!-- Node58&#45;&gt;Node63 -->
<g id="edge11" class="edge">
<title>Node58&#45;&gt;Node63</title>
<path fill="none" stroke="#191970" d="M569.2894,-169.2749C574.4877,-160.0219 580.0006,-150.209 584.8741,-141.5341"/>
<polygon fill="#191970" stroke="#191970" points="566.0778,-167.8457 564.2312,-178.2784 572.1807,-171.2744 566.0778,-167.8457"/>
</g>
<!-- Node60 -->
<g id="node8" class="node">
<title>Node60</title>
<g id="a_node8"><a xlink:href="../../dd/d36/aicontroller_8cpp.xhtml" target="_top" xlink:title="/mnt/c/Users/Jameson\l/Desktop/git/openage\l&#45;new&#45;doc&#45;system/libopenage\l/event/demo/aicontroller.cpp">
<polygon fill="#ffffff" stroke="#000000" points="271,-.5 271,-52.5 412,-52.5 412,-.5 271,-.5"/>
<text text-anchor="start" x="279" y="-40.5" font-family="Helvetica,sans-Serif" font-size="10.00" fill="#000000">/mnt/c/Users/Jameson</text>
<text text-anchor="start" x="279" y="-29.5" font-family="Helvetica,sans-Serif" font-size="10.00" fill="#000000">/Desktop/git/openage</text>
<text text-anchor="start" x="279" y="-18.5" font-family="Helvetica,sans-Serif" font-size="10.00" fill="#000000">&#45;new&#45;doc&#45;system/libopenage</text>
<text text-anchor="middle" x="341.5" y="-7.5" font-family="Helvetica,sans-Serif" font-size="10.00" fill="#000000">/event/demo/aicontroller.cpp</text>
</a>
</g>
</g>
<!-- Node59&#45;&gt;Node60 -->
<g id="edge7" class="edge">
<title>Node59&#45;&gt;Node60</title>
<path fill="none" stroke="#191970" d="M378.1421,-80.8525C371.7907,-71.4313 365.0211,-61.3897 359.0511,-52.5341"/>
<polygon fill="#191970" stroke="#191970" points="375.3305,-82.9432 383.8225,-89.2784 381.1347,-79.0302 375.3305,-82.9432"/>
</g>
<!-- Node59&#45;&gt;Node61 -->
<g id="edge8" class="edge">
<title>Node59&#45;&gt;Node61</title>
<path fill="none" stroke="#191970" d="M438.1238,-82.5755C449.1476,-72.6653 461.087,-61.9319 471.5407,-52.5341"/>
<polygon fill="#191970" stroke="#191970" points="435.7646,-79.9901 430.6678,-89.2784 440.4444,-85.1958 435.7646,-79.9901"/>
</g>
<!-- Node63&#45;&gt;Node61 -->
<g id="edge12" class="edge">
<title>Node63&#45;&gt;Node61</title>
<path fill="none" stroke="#191970" d="M562.8762,-82.5755C551.8524,-72.6653 539.913,-61.9319 529.4593,-52.5341"/>
<polygon fill="#191970" stroke="#191970" points="560.5556,-85.1958 570.3322,-89.2784 565.2354,-79.9901 560.5556,-85.1958"/>
</g>
<!-- Node64 -->
<g id="node12" class="node">
<title>Node64</title>
<g id="a_node12"><a xlink:href="../../d0/d2b/physics_8cpp.xhtml" target="_top" xlink:title="/mnt/c/Users/Jameson\l/Desktop/git/openage\l&#45;new&#45;doc&#45;system/libopenage\l/event/demo/physics.cpp">
<polygon fill="#ffffff" stroke="#000000" points="589,-.5 589,-52.5 730,-52.5 730,-.5 589,-.5"/>
<text text-anchor="start" x="597" y="-40.5" font-family="Helvetica,sans-Serif" font-size="10.00" fill="#000000">/mnt/c/Users/Jameson</text>
<text text-anchor="start" x="597" y="-29.5" font-family="Helvetica,sans-Serif" font-size="10.00" fill="#000000">/Desktop/git/openage</text>
<text text-anchor="start" x="597" y="-18.5" font-family="Helvetica,sans-Serif" font-size="10.00" fill="#000000">&#45;new&#45;doc&#45;system/libopenage</text>
<text text-anchor="middle" x="659.5" y="-7.5" font-family="Helvetica,sans-Serif" font-size="10.00" fill="#000000">/event/demo/physics.cpp</text>
</a>
</g>
</g>
<!-- Node63&#45;&gt;Node64 -->
<g id="edge13" class="edge">
<title>Node63&#45;&gt;Node64</title>
<path fill="none" stroke="#191970" d="M622.8579,-80.8525C629.2093,-71.4313 635.9789,-61.3897 641.9489,-52.5341"/>
<polygon fill="#191970" stroke="#191970" points="619.8653,-79.0302 617.1775,-89.2784 625.6695,-82.9432 619.8653,-79.0302"/>
</g>
<!-- Node65&#45;&gt;Node56 -->
<g id="edge16" class="edge">
<title>Node65&#45;&gt;Node56</title>
<path fill="none" stroke="#191970" d="M388.7658,-263.8082C359.9084,-253.0621 327.559,-241.0157 299.5917,-230.6011"/>
<polygon fill="#191970" stroke="#191970" points="387.8142,-267.1886 398.407,-267.3984 390.2571,-260.6287 387.8142,-267.1886"/>
</g>
<!-- Node65&#45;&gt;Node57 -->
<g id="edge17" class="edge">
<title>Node65&#45;&gt;Node57</title>
<path fill="none" stroke="#191970" d="M438.5119,-259.7159C429.9295,-250.0472 420.7101,-239.6608 412.609,-230.5341"/>
<polygon fill="#191970" stroke="#191970" points="435.9687,-262.1231 445.2247,-267.2784 441.2038,-257.4762 435.9687,-262.1231"/>
</g>
<!-- Node65&#45;&gt;Node58 -->
<g id="edge18" class="edge">
<title>Node65&#45;&gt;Node58</title>
<path fill="none" stroke="#191970" d="M499.2473,-259.7159C508.047,-250.0472 517.4997,-239.6608 525.806,-230.5341"/>
<polygon fill="#191970" stroke="#191970" points="496.507,-257.527 492.3646,-267.2784 501.6839,-262.2386 496.507,-257.527"/>
</g>
<!-- Node66 -->
<g id="node14" class="node">
<title>Node66</title>
<g id="a_node14"><a xlink:href="../../d3/db6/discrete_8cpp.xhtml" target="_top" xlink:title="/mnt/c/Users/Jameson\l/Desktop/git/openage\l&#45;new&#45;doc&#45;system/libopenage\l/curve/discrete.cpp">
<polygon fill="#ffffff" stroke="#000000" points="638,-178.5 638,-230.5 779,-230.5 779,-178.5 638,-178.5"/>
<text text-anchor="start" x="646" y="-218.5" font-family="Helvetica,sans-Serif" font-size="10.00" fill="#000000">/mnt/c/Users/Jameson</text>
<text text-anchor="start" x="646" y="-207.5" font-family="Helvetica,sans-Serif" font-size="10.00" fill="#000000">/Desktop/git/openage</text>
<text text-anchor="start" x="646" y="-196.5" font-family="Helvetica,sans-Serif" font-size="10.00" fill="#000000">&#45;new&#45;doc&#45;system/libopenage</text>
<text text-anchor="middle" x="708.5" y="-185.5" font-family="Helvetica,sans-Serif" font-size="10.00" fill="#000000">/curve/discrete.cpp</text>
</a>
</g>
</g>
<!-- Node65&#45;&gt;Node66 -->
<g id="edge15" class="edge">
<title>Node65&#45;&gt;Node66</title>
<path fill="none" stroke="#191970" d="M548.5678,-263.8082C577.546,-253.0621 610.0308,-241.0157 638.115,-230.6011"/>
<polygon fill="#191970" stroke="#191970" points="547.0454,-260.6398 538.8863,-267.3984 549.4793,-267.203 547.0454,-260.6398"/>
</g>
</g>
</svg>
        <g id="navigator" transform="translate(0 0)" fill="#404254">
                <rect fill="#f2f5e9" fill-opacity="0.5" stroke="#606060" stroke-width=".5" x="0" y="0" width="60" height="60"/>
                <use id="zoomplus" xlink:href="#zoomPlus" x="17" y="9" onmousedown="handleZoom(evt,'in')"/>
                <use id="zoomminus" xlink:href="#zoomMin" x="42" y="9" onmousedown="handleZoom(evt,'out')"/>
                <use id="reset" xlink:href="#resetDef" x="30" y="36" onmousedown="handleReset()"/>
                <g id="arrowUp" xlink:href="#dirArrow" transform="translate(30 24)" onmousedown="handlePan(0,-1)">
                  <use xlink:href="#rim" fill="#404040">
                        <set attributeName="fill" to="#808080" begin="arrowUp.mouseover" end="arrowUp.mouseout"/>
                  </use>
                  <path fill="none" stroke="white" stroke-width="1.5" d="M0,-3.0v7 M-2.5,-0.5L0,-3.0L2.5,-0.5"/>
                </g>
                <g id="arrowRight" xlink:href="#dirArrow" transform="rotate(90) translate(36 -43)" onmousedown="handlePan(1,0)">
                  <use xlink:href="#rim" fill="#404040">
                        <set attributeName="fill" to="#808080" begin="arrowRight.mouseover" end="arrowRight.mouseout"/>
                  </use>
                  <path fill="none" stroke="white" stroke-width="1.5" d="M0,-3.0v7 M-2.5,-0.5L0,-3.0L2.5,-0.5"/>
                </g>
                <g id="arrowDown" xlink:href="#dirArrow" transform="rotate(180) translate(-30 -48)" onmousedown="handlePan(0,1)">
                  <use xlink:href="#rim" fill="#404040">
                        <set attributeName="fill" to="#808080" begin="arrowDown.mouseover" end="arrowDown.mouseout"/>
                  </use>
                  <path fill="none" stroke="white" stroke-width="1.5" d="M0,-3.0v7 M-2.5,-0.5L0,-3.0L2.5,-0.5"/>
                </g>
                <g id="arrowLeft" xlink:href="#dirArrow" transform="rotate(270) translate(-36 17)" onmousedown="handlePan(-1,0)">
                  <use xlink:href="#rim" fill="#404040">
                        <set attributeName="fill" to="#808080" begin="arrowLeft.mouseover" end="arrowLeft.mouseout"/>
                  </use>
                  <path fill="none" stroke="white" stroke-width="1.5" d="M0,-3.0v7 M-2.5,-0.5L0,-3.0L2.5,-0.5"/>
                </g>
        </g>
        <svg viewBox="0 0 15 15" width="100%" height="30px" preserveAspectRatio="xMaxYMin meet">
         <g id="arrow_out" transform="scale(0.3 0.3)">
          <a xlink:href="value__container_8h__dep__incl_org.svg" target="_base">
           <rect id="button" ry="5" rx="5" y="6" x="6" height="38" width="38"
                fill="#f2f5e9" fill-opacity="0.5" stroke="#606060" stroke-width="1.0"/>
           <path id="arrow"
             d="M 11.500037,31.436501 C 11.940474,20.09759 22.043105,11.32322 32.158766,21.979434 L 37.068811,17.246167 C 37.068811,17.246167 37.088388,32 37.088388,32 L 22.160133,31.978069 C 22.160133,31.978069 26.997745,27.140456 26.997745,27.140456 C 18.528582,18.264221 13.291696,25.230495 11.500037,31.436501 z"
             style="fill:#404040;"/>
          </a>
         </g>
        </svg>
</svg>
