<?xml version="1.0" encoding="UTF-8" standalone="no"?>
<!DOCTYPE svg PUBLIC "-//W3C//DTD SVG 1.1//EN"
 "http://www.w3.org/Graphics/SVG/1.1/DTD/svg11.dtd">
<!-- Generated by graphviz version 2.40.1 (20161225.0304)
 -->
<!-- Title: openage.util.fslike.directory.Directory.unlink Pages: 1 -->
<svg width="303pt" height="39pt"
 viewBox="0.00 0.00 303.00 39.00" xmlns="http://www.w3.org/2000/svg" xmlns:xlink="http://www.w3.org/1999/xlink">
<g id="graph0" class="graph" transform="scale(1 1) rotate(0) translate(4 35)">
<title>openage.util.fslike.directory.Directory.unlink</title>
<polygon fill="#ffffff" stroke="transparent" points="-4,4 -4,-35 299,-35 299,4 -4,4"/>
<!-- Node95 -->
<g id="node1" class="node">
<title>Node95</title>
<polygon fill="#bfbfbf" stroke="#000000" points="0,-.5 0,-30.5 139,-30.5 139,-.5 0,-.5"/>
<text text-anchor="start" x="8" y="-18.5" font-family="Helvetica,sans-Serif" font-size="10.00" fill="#000000">openage.util.fslike.directory.</text>
<text text-anchor="middle" x="69.5" y="-7.5" font-family="Helvetica,sans-Serif" font-size="10.00" fill="#000000">Directory.unlink</text>
</g>
<!-- Node96 -->
<g id="node2" class="node">
<title>Node96</title>
<g id="a_node2"><a xlink:href="../../d6/d6b/classopenage_1_1util_1_1fslike_1_1path_1_1_path.xhtml#a54ddfaca7c17c046c0a7472bb6af3d76" target="_top" xlink:title="Recursively deletes this file or directory. ">
<polygon fill="#ffffff" stroke="#000000" points="175,-.5 175,-30.5 295,-30.5 295,-.5 175,-.5"/>
<text text-anchor="start" x="183" y="-18.5" font-family="Helvetica,sans-Serif" font-size="10.00" fill="#000000">openage.util.fslike.path.</text>
<text text-anchor="middle" x="235" y="-7.5" font-family="Helvetica,sans-Serif" font-size="10.00" fill="#000000">Path.removerecursive</text>
</a>
</g>
</g>
<!-- Node95&#45;&gt;Node96 -->
<g id="edge1" class="edge">
<title>Node95&#45;&gt;Node96</title>
<path fill="none" stroke="#191970" d="M149.2595,-15.5C157.8585,-15.5 166.5005,-15.5 174.8136,-15.5"/>
<polygon fill="#191970" stroke="#191970" points="149.2073,-12.0001 139.2072,-15.5 149.2072,-19.0001 149.2073,-12.0001"/>
</g>
</g>
</svg>
