<?xml version="1.0" encoding="UTF-8" standalone="no"?>
<!DOCTYPE svg PUBLIC "-//W3C//DTD SVG 1.1//EN"
 "http://www.w3.org/Graphics/SVG/1.1/DTD/svg11.dtd">
<!-- Generated by graphviz version 2.40.1 (20161225.0304)
 -->
<!-- Title: openage.util.struct.NamedStruct.as_dict Pages: 1 -->
<svg width="504pt" height="181pt"
 viewBox="0.00 0.00 504.00 181.00" xmlns="http://www.w3.org/2000/svg" xmlns:xlink="http://www.w3.org/1999/xlink">
<g id="graph0" class="graph" transform="scale(1 1) rotate(0) translate(4 177)">
<title>openage.util.struct.NamedStruct.as_dict</title>
<polygon fill="#ffffff" stroke="transparent" points="-4,4 -4,-177 500,-177 500,4 -4,4"/>
<!-- Node22 -->
<g id="node1" class="node">
<title>Node22</title>
<polygon fill="#bfbfbf" stroke="#000000" points="0,-68.5 0,-98.5 131,-98.5 131,-68.5 0,-68.5"/>
<text text-anchor="start" x="8" y="-86.5" font-family="Helvetica,sans-Serif" font-size="10.00" fill="#000000">openage.util.struct.Named</text>
<text text-anchor="middle" x="65.5" y="-75.5" font-family="Helvetica,sans-Serif" font-size="10.00" fill="#000000">Struct.as_dict</text>
</g>
<!-- Node23 -->
<g id="node2" class="node">
<title>Node23</title>
<g id="a_node2"><a xlink:href="../../db/db2/classopenage_1_1util_1_1struct_1_1_named_struct.xhtml#a9cdd6f3d9b9ba4ab07beb41d5021b83e" target="_top" xlink:title="openage.util.struct.Named\lStruct.__repr__">
<polygon fill="#ffffff" stroke="#000000" points="184.5,-142.5 184.5,-172.5 315.5,-172.5 315.5,-142.5 184.5,-142.5"/>
<text text-anchor="start" x="192.5" y="-160.5" font-family="Helvetica,sans-Serif" font-size="10.00" fill="#000000">openage.util.struct.Named</text>
<text text-anchor="middle" x="250" y="-149.5" font-family="Helvetica,sans-Serif" font-size="10.00" fill="#000000">Struct.__repr__</text>
</a>
</g>
</g>
<!-- Node22&#45;&gt;Node23 -->
<g id="edge1" class="edge">
<title>Node22&#45;&gt;Node23</title>
<path fill="none" stroke="#191970" d="M101.8373,-103.3433C120.8809,-113.2409 144.8048,-124.9015 167,-133.5 175.2524,-136.697 184.1096,-139.6952 192.8544,-142.4163"/>
<polygon fill="#191970" stroke="#191970" points="103.3893,-100.2051 92.9096,-98.6473 100.1305,-106.4003 103.3893,-100.2051"/>
</g>
<!-- Node24 -->
<g id="node3" class="node">
<title>Node24</title>
<g id="a_node3"><a xlink:href="../../d8/d87/classopenage_1_1util_1_1struct_1_1_flags.xhtml#a9f6a718342072c143f8d66ebf9f5ff53" target="_top" xlink:title="openage.util.struct.Flags.\l__repr__">
<polygon fill="#ffffff" stroke="#000000" points="186.5,-93.5 186.5,-123.5 313.5,-123.5 313.5,-93.5 186.5,-93.5"/>
<text text-anchor="start" x="194.5" y="-111.5" font-family="Helvetica,sans-Serif" font-size="10.00" fill="#000000">openage.util.struct.Flags.</text>
<text text-anchor="middle" x="250" y="-100.5" font-family="Helvetica,sans-Serif" font-size="10.00" fill="#000000">__repr__</text>
</a>
</g>
</g>
<!-- Node22&#45;&gt;Node24 -->
<g id="edge2" class="edge">
<title>Node22&#45;&gt;Node24</title>
<path fill="none" stroke="#191970" d="M141.2814,-93.7685C156.2012,-95.7901 171.7149,-97.8923 186.1927,-99.854"/>
<polygon fill="#191970" stroke="#191970" points="141.4467,-90.259 131.0673,-92.3845 140.5067,-97.1956 141.4467,-90.259"/>
</g>
<!-- Node25 -->
<g id="node4" class="node">
<title>Node25</title>
<g id="a_node4"><a xlink:href="../../db/db2/classopenage_1_1util_1_1struct_1_1_named_struct.xhtml#ad7a89792617e8271fe2b025116d10794" target="_top" xlink:title="openage.util.struct.Named\lStruct.__str__">
<polygon fill="#ffffff" stroke="#000000" points="184.5,-44.5 184.5,-74.5 315.5,-74.5 315.5,-44.5 184.5,-44.5"/>
<text text-anchor="start" x="192.5" y="-62.5" font-family="Helvetica,sans-Serif" font-size="10.00" fill="#000000">openage.util.struct.Named</text>
<text text-anchor="middle" x="250" y="-51.5" font-family="Helvetica,sans-Serif" font-size="10.00" fill="#000000">Struct.__str__</text>
</a>
</g>
</g>
<!-- Node22&#45;&gt;Node25 -->
<g id="edge3" class="edge">
<title>Node22&#45;&gt;Node25</title>
<path fill="none" stroke="#191970" d="M141.3387,-73.6348C155.6039,-71.7792 170.4102,-69.8531 184.3332,-68.042"/>
<polygon fill="#191970" stroke="#191970" points="140.5322,-70.2101 131.0673,-74.9709 141.4353,-77.1517 140.5322,-70.2101"/>
</g>
<!-- Node26 -->
<g id="node5" class="node">
<title>Node26</title>
<g id="a_node5"><a xlink:href="../../d8/d87/classopenage_1_1util_1_1struct_1_1_flags.xhtml#aff72d5cb5a508e186cc5ff6fe122b165" target="_top" xlink:title="Default handler for any unknown bits. ">
<polygon fill="#ffffff" stroke="#000000" points="167,-6 167,-25 333,-25 333,-6 167,-6"/>
<text text-anchor="middle" x="250" y="-13" font-family="Helvetica,sans-Serif" font-size="10.00" fill="#000000">openage.util.struct.Flags.unknown</text>
</a>
</g>
</g>
<!-- Node22&#45;&gt;Node26 -->
<g id="edge4" class="edge">
<title>Node22&#45;&gt;Node26</title>
<path fill="none" stroke="#191970" d="M102.4356,-63.7849C121.3524,-54.2708 144.9839,-43.2655 167,-35.5 178.4621,-31.4571 191.097,-27.9522 202.9775,-25.0554"/>
<polygon fill="#191970" stroke="#191970" points="100.5979,-60.7932 93.2819,-68.4566 103.78,-67.0282 100.5979,-60.7932"/>
</g>
<!-- Node27 -->
<g id="node6" class="node">
<title>Node27</title>
<g id="a_node6"><a xlink:href="../../d8/d87/classopenage_1_1util_1_1struct_1_1_flags.xhtml#a3407f22b41e48ab3863a9f593435933e" target="_top" xlink:title="openage.util.struct.Flags.\l__init__">
<polygon fill="#ffffff" stroke="#000000" points="369,-.5 369,-30.5 496,-30.5 496,-.5 369,-.5"/>
<text text-anchor="start" x="377" y="-18.5" font-family="Helvetica,sans-Serif" font-size="10.00" fill="#000000">openage.util.struct.Flags.</text>
<text text-anchor="middle" x="432.5" y="-7.5" font-family="Helvetica,sans-Serif" font-size="10.00" fill="#000000">__init__</text>
</a>
</g>
</g>
<!-- Node26&#45;&gt;Node27 -->
<g id="edge5" class="edge">
<title>Node26&#45;&gt;Node27</title>
<path fill="none" stroke="#191970" d="M343.3382,-15.5C351.947,-15.5 360.531,-15.5 368.7835,-15.5"/>
<polygon fill="#191970" stroke="#191970" points="343.2392,-12.0001 333.2392,-15.5 343.2391,-19.0001 343.2392,-12.0001"/>
</g>
</g>
</svg>
