<?xml version="1.0" encoding="UTF-8" standalone="no"?>
<!DOCTYPE svg PUBLIC "-//W3C//DTD SVG 1.1//EN"
 "http://www.w3.org/Graphics/SVG/1.1/DTD/svg11.dtd">
<!-- Generated by graphviz version 2.40.1 (20161225.0304)
 -->
<!-- Title: openage.util.struct.NamedStruct.from_nullbytes Pages: 1 -->
<svg width="306pt" height="39pt"
 viewBox="0.00 0.00 306.00 39.00" xmlns="http://www.w3.org/2000/svg" xmlns:xlink="http://www.w3.org/1999/xlink">
<g id="graph0" class="graph" transform="scale(1 1) rotate(0) translate(4 35)">
<title>openage.util.struct.NamedStruct.from_nullbytes</title>
<polygon fill="#ffffff" stroke="transparent" points="-4,4 -4,-35 302,-35 302,4 -4,4"/>
<!-- Node28 -->
<g id="node1" class="node">
<title>Node28</title>
<polygon fill="#bfbfbf" stroke="#000000" points="0,-.5 0,-30.5 131,-30.5 131,-.5 0,-.5"/>
<text text-anchor="start" x="8" y="-18.5" font-family="Helvetica,sans-Serif" font-size="10.00" fill="#000000">openage.util.struct.Named</text>
<text text-anchor="middle" x="65.5" y="-7.5" font-family="Helvetica,sans-Serif" font-size="10.00" fill="#000000">Struct.from_nullbytes</text>
</g>
<!-- Node29 -->
<g id="node2" class="node">
<title>Node29</title>
<g id="a_node2"><a xlink:href="../../db/db2/classopenage_1_1util_1_1struct_1_1_named_struct.xhtml#a7704f79ea7d43f2aeb5b28dcce79fdc8" target="_top" xlink:title="Unpacks data and returns a NamedStruct object that holds the fields. ">
<polygon fill="#ffffff" stroke="#000000" points="167,-.5 167,-30.5 298,-30.5 298,-.5 167,-.5"/>
<text text-anchor="start" x="175" y="-18.5" font-family="Helvetica,sans-Serif" font-size="10.00" fill="#000000">openage.util.struct.Named</text>
<text text-anchor="middle" x="232.5" y="-7.5" font-family="Helvetica,sans-Serif" font-size="10.00" fill="#000000">Struct.unpack</text>
</a>
</g>
</g>
<!-- Node28&#45;&gt;Node29 -->
<g id="edge1" class="edge">
<title>Node28&#45;&gt;Node29</title>
<path fill="none" stroke="#191970" d="M131.0235,-15.5C139.496,-15.5 148.2278,-15.5 156.8471,-15.5"/>
<polygon fill="#191970" stroke="#191970" points="156.8914,-19.0001 166.8913,-15.5 156.8913,-12.0001 156.8914,-19.0001"/>
</g>
</g>
</svg>
