<?xml version="1.0" encoding="UTF-8" standalone="no"?>
<!DOCTYPE svg PUBLIC "-//W3C//DTD SVG 1.1//EN"
 "http://www.w3.org/Graphics/SVG/1.1/DTD/svg11.dtd">
<!-- Generated by graphviz version 2.40.1 (20161225.0304)
 -->
<!-- Title: openage::CreateMode::name Pages: 1 -->
<svg width="433pt" height="137pt"
 viewBox="0.00 0.00 433.00 137.00" xmlns="http://www.w3.org/2000/svg" xmlns:xlink="http://www.w3.org/1999/xlink">
<g id="graph0" class="graph" transform="scale(1 1) rotate(0) translate(4 133)">
<title>openage::CreateMode::name</title>
<polygon fill="#ffffff" stroke="transparent" points="-4,4 -4,-133 429,-133 429,4 -4,4"/>
<!-- Node5 -->
<g id="node1" class="node">
<title>Node5</title>
<polygon fill="#bfbfbf" stroke="#000000" points="0,-49.5 0,-79.5 113,-79.5 113,-49.5 0,-49.5"/>
<text text-anchor="start" x="8" y="-67.5" font-family="Helvetica,sans-Serif" font-size="10.00" fill="#000000">openage::CreateMode</text>
<text text-anchor="middle" x="56.5" y="-56.5" font-family="Helvetica,sans-Serif" font-size="10.00" fill="#000000">::name</text>
</g>
<!-- Node6 -->
<g id="node2" class="node">
<title>Node6</title>
<g id="a_node2"><a xlink:href="../../d6/d6b/classopenage_1_1util_1_1fslike_1_1path_1_1_path.xhtml#aab5ade46752aa652e414b1c3bac704c1" target="_top" xlink:title="Name without suffix (such that stem + suffix == name). ">
<polygon fill="#ffffff" stroke="#000000" points="149,-98.5 149,-128.5 269,-128.5 269,-98.5 149,-98.5"/>
<text text-anchor="start" x="157" y="-116.5" font-family="Helvetica,sans-Serif" font-size="10.00" fill="#000000">openage.util.fslike.path.</text>
<text text-anchor="middle" x="209" y="-105.5" font-family="Helvetica,sans-Serif" font-size="10.00" fill="#000000">Path.stem</text>
</a>
</g>
</g>
<!-- Node5&#45;&gt;Node6 -->
<g id="edge1" class="edge">
<title>Node5&#45;&gt;Node6</title>
<path fill="none" stroke="#191970" d="M113.3267,-82.7591C129.4114,-87.9273 146.7315,-93.4924 162.1558,-98.4484"/>
<polygon fill="#191970" stroke="#191970" points="114.0907,-79.3284 103.4994,-79.6014 111.9493,-85.9928 114.0907,-79.3284"/>
</g>
<!-- Node8 -->
<g id="node4" class="node">
<title>Node8</title>
<g id="a_node4"><a xlink:href="../../d6/d6b/classopenage_1_1util_1_1fslike_1_1path_1_1_path.xhtml#a7b11153f6ef9787c4c583bcf0126ba6a" target="_top" xlink:title="The last suffix of the name of the topmost component (str). ">
<polygon fill="#ffffff" stroke="#000000" points="149,-49.5 149,-79.5 269,-79.5 269,-49.5 149,-49.5"/>
<text text-anchor="start" x="157" y="-67.5" font-family="Helvetica,sans-Serif" font-size="10.00" fill="#000000">openage.util.fslike.path.</text>
<text text-anchor="middle" x="209" y="-56.5" font-family="Helvetica,sans-Serif" font-size="10.00" fill="#000000">Path.suffix</text>
</a>
</g>
</g>
<!-- Node5&#45;&gt;Node8 -->
<g id="edge3" class="edge">
<title>Node5&#45;&gt;Node8</title>
<path fill="none" stroke="#191970" d="M123.4793,-64.5C131.9223,-64.5 140.5192,-64.5 148.8477,-64.5"/>
<polygon fill="#191970" stroke="#191970" points="123.2854,-61.0001 113.2854,-64.5 123.2853,-68.0001 123.2854,-61.0001"/>
</g>
<!-- Node9 -->
<g id="node5" class="node">
<title>Node9</title>
<g id="a_node5"><a xlink:href="../../d6/d6b/classopenage_1_1util_1_1fslike_1_1path_1_1_path.xhtml#a912043b2fbd330e3493588f6c6af92b8" target="_top" xlink:title="The suffixes of the name of the topmost component (str list). ">
<polygon fill="#ffffff" stroke="#000000" points="149,-.5 149,-30.5 269,-30.5 269,-.5 149,-.5"/>
<text text-anchor="start" x="157" y="-18.5" font-family="Helvetica,sans-Serif" font-size="10.00" fill="#000000">openage.util.fslike.path.</text>
<text text-anchor="middle" x="209" y="-7.5" font-family="Helvetica,sans-Serif" font-size="10.00" fill="#000000">Path.suffixes</text>
</a>
</g>
</g>
<!-- Node5&#45;&gt;Node9 -->
<g id="edge4" class="edge">
<title>Node5&#45;&gt;Node9</title>
<path fill="none" stroke="#191970" d="M113.3267,-46.2409C129.4114,-41.0727 146.7315,-35.5076 162.1558,-30.5516"/>
<polygon fill="#191970" stroke="#191970" points="111.9493,-43.0072 103.4994,-49.3986 114.0907,-49.6716 111.9493,-43.0072"/>
</g>
<!-- Node7 -->
<g id="node3" class="node">
<title>Node7</title>
<g id="a_node3"><a xlink:href="../../d6/d6b/classopenage_1_1util_1_1fslike_1_1path_1_1_path.xhtml#a3ab02f8ab30da2c239dc08a5bb463b58" target="_top" xlink:title="Returns path for different suffix (same parent and stem). ">
<polygon fill="#ffffff" stroke="#000000" points="305,-98.5 305,-128.5 425,-128.5 425,-98.5 305,-98.5"/>
<text text-anchor="start" x="313" y="-116.5" font-family="Helvetica,sans-Serif" font-size="10.00" fill="#000000">openage.util.fslike.path.</text>
<text text-anchor="middle" x="365" y="-105.5" font-family="Helvetica,sans-Serif" font-size="10.00" fill="#000000">Path.with_suffix</text>
</a>
</g>
</g>
<!-- Node6&#45;&gt;Node7 -->
<g id="edge2" class="edge">
<title>Node6&#45;&gt;Node7</title>
<path fill="none" stroke="#191970" d="M279.538,-113.5C287.9903,-113.5 296.5605,-113.5 304.8467,-113.5"/>
<polygon fill="#191970" stroke="#191970" points="279.3137,-110.0001 269.3137,-113.5 279.3136,-117.0001 279.3137,-110.0001"/>
</g>
</g>
</svg>
