<?xml version="1.0" encoding="UTF-8" standalone="no"?>
<!DOCTYPE svg PUBLIC "-//W3C//DTD SVG 1.1//EN"
 "http://www.w3.org/Graphics/SVG/1.1/DTD/svg11.dtd">
<!-- Generated by graphviz version 2.40.1 (20161225.0304)
 -->
<!-- Title: openage::util::fslike::Directory::writable Pages: 1 -->
<svg width="283pt" height="88pt"
 viewBox="0.00 0.00 283.00 88.00" xmlns="http://www.w3.org/2000/svg" xmlns:xlink="http://www.w3.org/1999/xlink">
<g id="graph0" class="graph" transform="scale(1 1) rotate(0) translate(4 84)">
<title>openage::util::fslike::Directory::writable</title>
<polygon fill="#ffffff" stroke="transparent" points="-4,4 -4,-84 279,-84 279,4 -4,4"/>
<!-- Node152 -->
<g id="node1" class="node">
<title>Node152</title>
<polygon fill="#bfbfbf" stroke="#000000" points="0,-24.5 0,-54.5 102,-54.5 102,-24.5 0,-24.5"/>
<text text-anchor="start" x="8" y="-42.5" font-family="Helvetica,sans-Serif" font-size="10.00" fill="#000000">openage::util::fslike</text>
<text text-anchor="middle" x="51" y="-31.5" font-family="Helvetica,sans-Serif" font-size="10.00" fill="#000000">::Directory::writable</text>
</g>
<!-- Node153 -->
<g id="node2" class="node">
<title>Node153</title>
<g id="a_node2"><a xlink:href="../../db/d90/classopenage_1_1util_1_1fslike_1_1wrapper_1_1_wrapper.xhtml#a9477182385b8db4a3b2874a9360b690f" target="_top" xlink:title="openage.util.fslike.wrapper.\lWrapper.resolve_w">
<polygon fill="#ffffff" stroke="#000000" points="138.5,-49.5 138.5,-79.5 274.5,-79.5 274.5,-49.5 138.5,-49.5"/>
<text text-anchor="start" x="146.5" y="-67.5" font-family="Helvetica,sans-Serif" font-size="10.00" fill="#000000">openage.util.fslike.wrapper.</text>
<text text-anchor="middle" x="206.5" y="-56.5" font-family="Helvetica,sans-Serif" font-size="10.00" fill="#000000">Wrapper.resolve_w</text>
</a>
</g>
</g>
<!-- Node152&#45;&gt;Node153 -->
<g id="edge1" class="edge">
<title>Node152&#45;&gt;Node153</title>
<path fill="none" stroke="#191970" d="M112.232,-49.3444C120.7841,-50.7193 129.6157,-52.1392 138.2866,-53.5332"/>
<polygon fill="#191970" stroke="#191970" points="112.7763,-45.887 102.3475,-47.7552 111.6651,-52.7983 112.7763,-45.887"/>
</g>
<!-- Node154 -->
<g id="node3" class="node">
<title>Node154</title>
<g id="a_node3"><a xlink:href="../../d3/d76/classopenage_1_1util_1_1fslike_1_1abstract_1_1_f_s_like_object.xhtml#a255427aef3f55eea705114af7d7c107f" target="_top" xlink:title="Returns a new flattened path. ">
<polygon fill="#ffffff" stroke="#000000" points="138,-.5 138,-30.5 275,-30.5 275,-.5 138,-.5"/>
<text text-anchor="start" x="146" y="-18.5" font-family="Helvetica,sans-Serif" font-size="10.00" fill="#000000">openage.util.fslike.abstract.</text>
<text text-anchor="middle" x="206.5" y="-7.5" font-family="Helvetica,sans-Serif" font-size="10.00" fill="#000000">FSLikeObject.resolve_w</text>
</a>
</g>
</g>
<!-- Node152&#45;&gt;Node154 -->
<g id="edge2" class="edge">
<title>Node152&#45;&gt;Node154</title>
<path fill="none" stroke="#191970" d="M112.3522,-30.0309C120.6837,-28.745 129.2784,-27.4185 137.7296,-26.1141"/>
<polygon fill="#191970" stroke="#191970" points="111.6966,-26.5905 102.3475,-31.575 112.7644,-33.5086 111.6966,-26.5905"/>
</g>
</g>
</svg>
