<?xml version="1.0" encoding="UTF-8" standalone="no"?>
<!DOCTYPE svg PUBLIC "-//W3C//DTD SVG 1.1//EN"
 "http://www.w3.org/Graphics/SVG/1.1/DTD/svg11.dtd">
<!-- Generated by graphviz version 2.40.1 (20161225.0304)
 -->
<!-- Title: openage::util::fslike::Directory::Directory Pages: 1 -->
<svg width="394pt" height="78pt"
 viewBox="0.00 0.00 394.00 77.50" xmlns="http://www.w3.org/2000/svg" xmlns:xlink="http://www.w3.org/1999/xlink">
<g id="graph0" class="graph" transform="scale(1 1) rotate(0) translate(4 73.5)">
<title>openage::util::fslike::Directory::Directory</title>
<polygon fill="#ffffff" stroke="transparent" points="-4,4 -4,-73.5 390,-73.5 390,4 -4,4"/>
<!-- Node0 -->
<g id="node1" class="node">
<title>Node0</title>
<polygon fill="#bfbfbf" stroke="#000000" points="0,-22.5 0,-52.5 108,-52.5 108,-22.5 0,-22.5"/>
<text text-anchor="start" x="8" y="-40.5" font-family="Helvetica,sans-Serif" font-size="10.00" fill="#000000">openage::util::fslike</text>
<text text-anchor="middle" x="54" y="-29.5" font-family="Helvetica,sans-Serif" font-size="10.00" fill="#000000">::Directory::Directory</text>
</g>
<!-- Node1 -->
<g id="node2" class="node">
<title>Node1</title>
<g id="a_node2"><a xlink:href="../../dd/d4e/classopenage_1_1util_1_1fslike_1_1_directory.xhtml#a441128dffdf9ebc274a4c1c5461ed05a" target="_top" xlink:title="openage::util::fslike\l::Directory::mkdirs">
<polygon fill="#ffffff" stroke="#000000" points="144,-22.5 144,-52.5 245,-52.5 245,-22.5 144,-22.5"/>
<text text-anchor="start" x="152" y="-40.5" font-family="Helvetica,sans-Serif" font-size="10.00" fill="#000000">openage::util::fslike</text>
<text text-anchor="middle" x="194.5" y="-29.5" font-family="Helvetica,sans-Serif" font-size="10.00" fill="#000000">::Directory::mkdirs</text>
</a>
</g>
</g>
<!-- Node0&#45;&gt;Node1 -->
<g id="edge1" class="edge">
<title>Node0&#45;&gt;Node1</title>
<path fill="none" stroke="#191970" d="M108.321,-37.5C116.5558,-37.5 125.0988,-37.5 133.4645,-37.5"/>
<polygon fill="#191970" stroke="#191970" points="133.5482,-41.0001 143.5481,-37.5 133.5481,-34.0001 133.5482,-41.0001"/>
</g>
<!-- Node2 -->
<g id="node3" class="node">
<title>Node2</title>
<g id="a_node3"><a xlink:href="../../de/d60/namespaceopenage_1_1util.xhtml#a9556b8562574e2c6ad102d8fd87569c6" target="_top" xlink:title="Split a string at a delimiter into a vector. ">
<polygon fill="#ffffff" stroke="#000000" points="285.5,-50 285.5,-69 381.5,-69 381.5,-50 285.5,-50"/>
<text text-anchor="middle" x="333.5" y="-57" font-family="Helvetica,sans-Serif" font-size="10.00" fill="#000000">openage::util::split</text>
</a>
</g>
</g>
<!-- Node1&#45;&gt;Node2 -->
<g id="edge2" class="edge">
<title>Node1&#45;&gt;Node2</title>
<path fill="none" stroke="#191970" d="M245.0754,-45.5047C254.7541,-47.0366 264.963,-48.6524 274.8696,-50.2204"/>
<polygon fill="#191970" stroke="#191970" points="274.625,-53.7251 285.0492,-51.8315 275.7193,-46.8112 274.625,-53.7251"/>
</g>
<!-- Node3 -->
<g id="node4" class="node">
<title>Node3</title>
<g id="a_node4"><a xlink:href="../../de/d60/namespaceopenage_1_1util.xhtml#af88424f642ef1ba4e6b2eb1c05ad8e3c" target="_top" xlink:title="Extend a vector with elements, without destroying source one. ">
<polygon fill="#ffffff" stroke="#000000" points="281,-.5 281,-30.5 386,-30.5 386,-.5 281,-.5"/>
<text text-anchor="start" x="289" y="-18.5" font-family="Helvetica,sans-Serif" font-size="10.00" fill="#000000">openage::util::vector</text>
<text text-anchor="middle" x="333.5" y="-7.5" font-family="Helvetica,sans-Serif" font-size="10.00" fill="#000000">_extend</text>
</a>
</g>
</g>
<!-- Node1&#45;&gt;Node3 -->
<g id="edge3" class="edge">
<title>Node1&#45;&gt;Node3</title>
<path fill="none" stroke="#191970" d="M245.0754,-29.4953C253.4442,-28.1707 262.2094,-26.7834 270.8328,-25.4185"/>
<polygon fill="#191970" stroke="#191970" points="271.5288,-28.852 280.8587,-23.8317 270.4345,-21.9381 271.5288,-28.852"/>
</g>
</g>
</svg>
