<?xml version="1.0" encoding="UTF-8" standalone="no"?>
<!DOCTYPE svg PUBLIC "-//W3C//DTD SVG 1.1//EN"
 "http://www.w3.org/Graphics/SVG/1.1/DTD/svg11.dtd">
<!-- Generated by graphviz version 2.40.1 (20161225.0304)
 -->
<!-- Title: /mnt/c/Users/Jameson/Desktop/git/openage&#45;new&#45;doc&#45;system/libopenage/gui/generator_link.h Pages: 1 -->
<svg width="467pt" height="150pt"
 viewBox="0.00 0.00 467.00 150.00" xmlns="http://www.w3.org/2000/svg" xmlns:xlink="http://www.w3.org/1999/xlink">
<g id="graph0" class="graph" transform="scale(1 1) rotate(0) translate(4 146)">
<title>/mnt/c/Users/Jameson/Desktop/git/openage&#45;new&#45;doc&#45;system/libopenage/gui/generator_link.h</title>
<polygon fill="#ffffff" stroke="transparent" points="-4,4 -4,-146 463,-146 463,4 -4,4"/>
<!-- Node65 -->
<g id="node1" class="node">
<title>Node65</title>
<polygon fill="#bfbfbf" stroke="#000000" points="159,-89.5 159,-141.5 300,-141.5 300,-89.5 159,-89.5"/>
<text text-anchor="start" x="167" y="-129.5" font-family="Helvetica,sans-Serif" font-size="10.00" fill="#000000">/mnt/c/Users/Jameson</text>
<text text-anchor="start" x="167" y="-118.5" font-family="Helvetica,sans-Serif" font-size="10.00" fill="#000000">/Desktop/git/openage</text>
<text text-anchor="start" x="167" y="-107.5" font-family="Helvetica,sans-Serif" font-size="10.00" fill="#000000">&#45;new&#45;doc&#45;system/libopenage</text>
<text text-anchor="middle" x="229.5" y="-96.5" font-family="Helvetica,sans-Serif" font-size="10.00" fill="#000000">/gui/generator_link.h</text>
</g>
<!-- Node66 -->
<g id="node2" class="node">
<title>Node66</title>
<g id="a_node2"><a xlink:href="../../d6/db8/game__creator_8cpp.xhtml" target="_top" xlink:title="/mnt/c/Users/Jameson\l/Desktop/git/openage\l&#45;new&#45;doc&#45;system/libopenage\l/gui/game_creator.cpp">
<polygon fill="#ffffff" stroke="#000000" points="0,-.5 0,-52.5 141,-52.5 141,-.5 0,-.5"/>
<text text-anchor="start" x="8" y="-40.5" font-family="Helvetica,sans-Serif" font-size="10.00" fill="#000000">/mnt/c/Users/Jameson</text>
<text text-anchor="start" x="8" y="-29.5" font-family="Helvetica,sans-Serif" font-size="10.00" fill="#000000">/Desktop/git/openage</text>
<text text-anchor="start" x="8" y="-18.5" font-family="Helvetica,sans-Serif" font-size="10.00" fill="#000000">&#45;new&#45;doc&#45;system/libopenage</text>
<text text-anchor="middle" x="70.5" y="-7.5" font-family="Helvetica,sans-Serif" font-size="10.00" fill="#000000">/gui/game_creator.cpp</text>
</a>
</g>
</g>
<!-- Node65&#45;&gt;Node66 -->
<g id="edge1" class="edge">
<title>Node65&#45;&gt;Node66</title>
<path fill="none" stroke="#191970" d="M173.7288,-84.2821C155.1955,-73.9082 134.7682,-62.4741 117.0104,-52.5341"/>
<polygon fill="#191970" stroke="#191970" points="172.2192,-87.4481 182.6547,-89.2784 175.6383,-81.3399 172.2192,-87.4481"/>
</g>
<!-- Node67 -->
<g id="node3" class="node">
<title>Node67</title>
<g id="a_node3"><a xlink:href="../../d8/d5c/game__saver_8cpp.xhtml" target="_top" xlink:title="/mnt/c/Users/Jameson\l/Desktop/git/openage\l&#45;new&#45;doc&#45;system/libopenage\l/gui/game_saver.cpp">
<polygon fill="#ffffff" stroke="#000000" points="159,-.5 159,-52.5 300,-52.5 300,-.5 159,-.5"/>
<text text-anchor="start" x="167" y="-40.5" font-family="Helvetica,sans-Serif" font-size="10.00" fill="#000000">/mnt/c/Users/Jameson</text>
<text text-anchor="start" x="167" y="-29.5" font-family="Helvetica,sans-Serif" font-size="10.00" fill="#000000">/Desktop/git/openage</text>
<text text-anchor="start" x="167" y="-18.5" font-family="Helvetica,sans-Serif" font-size="10.00" fill="#000000">&#45;new&#45;doc&#45;system/libopenage</text>
<text text-anchor="middle" x="229.5" y="-7.5" font-family="Helvetica,sans-Serif" font-size="10.00" fill="#000000">/gui/game_saver.cpp</text>
</a>
</g>
</g>
<!-- Node65&#45;&gt;Node67 -->
<g id="edge2" class="edge">
<title>Node65&#45;&gt;Node67</title>
<path fill="none" stroke="#191970" d="M229.5,-79.1155C229.5,-70.2061 229.5,-60.8475 229.5,-52.5341"/>
<polygon fill="#191970" stroke="#191970" points="226.0001,-79.2784 229.5,-89.2784 233.0001,-79.2785 226.0001,-79.2784"/>
</g>
<!-- Node68 -->
<g id="node4" class="node">
<title>Node68</title>
<g id="a_node4"><a xlink:href="../../d5/da2/generator__link_8cpp.xhtml" target="_top" xlink:title="/mnt/c/Users/Jameson\l/Desktop/git/openage\l&#45;new&#45;doc&#45;system/libopenage\l/gui/generator_link.cpp">
<polygon fill="#ffffff" stroke="#000000" points="318,-.5 318,-52.5 459,-52.5 459,-.5 318,-.5"/>
<text text-anchor="start" x="326" y="-40.5" font-family="Helvetica,sans-Serif" font-size="10.00" fill="#000000">/mnt/c/Users/Jameson</text>
<text text-anchor="start" x="326" y="-29.5" font-family="Helvetica,sans-Serif" font-size="10.00" fill="#000000">/Desktop/git/openage</text>
<text text-anchor="start" x="326" y="-18.5" font-family="Helvetica,sans-Serif" font-size="10.00" fill="#000000">&#45;new&#45;doc&#45;system/libopenage</text>
<text text-anchor="middle" x="388.5" y="-7.5" font-family="Helvetica,sans-Serif" font-size="10.00" fill="#000000">/gui/generator_link.cpp</text>
</a>
</g>
</g>
<!-- Node65&#45;&gt;Node68 -->
<g id="edge3" class="edge">
<title>Node65&#45;&gt;Node68</title>
<path fill="none" stroke="#191970" d="M285.2712,-84.2821C303.8045,-73.9082 324.2318,-62.4741 341.9896,-52.5341"/>
<polygon fill="#191970" stroke="#191970" points="283.3617,-81.3399 276.3453,-89.2784 286.7808,-87.4481 283.3617,-81.3399"/>
</g>
</g>
</svg>
