<?xml version="1.0" encoding="UTF-8" standalone="no"?>
<!DOCTYPE svg PUBLIC "-//W3C//DTD SVG 1.1//EN"
 "http://www.w3.org/Graphics/SVG/1.1/DTD/svg11.dtd">
<!-- Generated by graphviz version 2.40.1 (20161225.0304)
 -->
<!-- Title: openage::input::InputContext::unregister Pages: 1 -->
<svg width="846pt" height="188pt"
 viewBox="0.00 0.00 846.00 188.00" xmlns="http://www.w3.org/2000/svg" xmlns:xlink="http://www.w3.org/1999/xlink">
<g id="graph0" class="graph" transform="scale(1 1) rotate(0) translate(4 184)">
<title>openage::input::InputContext::unregister</title>
<polygon fill="#ffffff" stroke="transparent" points="-4,4 -4,-184 842,-184 842,4 -4,4"/>
<!-- Node61 -->
<g id="node1" class="node">
<title>Node61</title>
<polygon fill="#bfbfbf" stroke="#000000" points="0,-68.5 0,-98.5 143,-98.5 143,-68.5 0,-68.5"/>
<text text-anchor="start" x="8" y="-86.5" font-family="Helvetica,sans-Serif" font-size="10.00" fill="#000000">openage::input::InputContext</text>
<text text-anchor="middle" x="71.5" y="-75.5" font-family="Helvetica,sans-Serif" font-size="10.00" fill="#000000">::unregister</text>
</g>
<!-- Node62 -->
<g id="node2" class="node">
<title>Node62</title>
<g id="a_node2"><a xlink:href="../../d7/df3/classopenage_1_1input_1_1_input_manager.xhtml#a469024c2b2ac7769e0fa578c73fde160" target="_top" xlink:title="removes any matching registered context from the stack. ">
<polygon fill="#ffffff" stroke="#000000" points="179,-68.5 179,-98.5 325,-98.5 325,-68.5 179,-68.5"/>
<text text-anchor="start" x="187" y="-86.5" font-family="Helvetica,sans-Serif" font-size="10.00" fill="#000000">openage::input::InputManager</text>
<text text-anchor="middle" x="252" y="-75.5" font-family="Helvetica,sans-Serif" font-size="10.00" fill="#000000">::remove_context</text>
</a>
</g>
</g>
<!-- Node61&#45;&gt;Node62 -->
<g id="edge1" class="edge">
<title>Node61&#45;&gt;Node62</title>
<path fill="none" stroke="#191970" d="M153.3445,-83.5C161.802,-83.5 170.3588,-83.5 178.7144,-83.5"/>
<polygon fill="#191970" stroke="#191970" points="153.0977,-80.0001 143.0976,-83.5 153.0976,-87.0001 153.0977,-80.0001"/>
</g>
<!-- Node63 -->
<g id="node3" class="node">
<title>Node63</title>
<g id="a_node3"><a xlink:href="../../d7/d6d/classopenage_1_1console_1_1_console.xhtml#a8a86e7fece57c47da16e37633c624ece" target="_top" xlink:title="openage::console::Console\l::set_visible">
<polygon fill="#ffffff" stroke="#000000" points="361,-117.5 361,-147.5 496,-147.5 496,-117.5 361,-117.5"/>
<text text-anchor="start" x="369" y="-135.5" font-family="Helvetica,sans-Serif" font-size="10.00" fill="#000000">openage::console::Console</text>
<text text-anchor="middle" x="428.5" y="-124.5" font-family="Helvetica,sans-Serif" font-size="10.00" fill="#000000">::set_visible</text>
</a>
</g>
</g>
<!-- Node62&#45;&gt;Node63 -->
<g id="edge2" class="edge">
<title>Node62&#45;&gt;Node63</title>
<path fill="none" stroke="#191970" d="M316.1929,-101.3212C335.2496,-106.6118 355.9266,-112.3522 374.2836,-117.4484"/>
<polygon fill="#191970" stroke="#191970" points="316.9679,-97.9041 306.396,-98.6014 315.0953,-104.649 316.9679,-97.9041"/>
</g>
<!-- Node66 -->
<g id="node6" class="node">
<title>Node66</title>
<g id="a_node6"><a xlink:href="../../d8/d06/classopenage_1_1_action_mode.xhtml#a9c7d1f16c862692b1172079402ac0f18" target="_top" xlink:title="Called when the mode is left. ">
<polygon fill="#ffffff" stroke="#000000" points="373,-68.5 373,-98.5 484,-98.5 484,-68.5 373,-68.5"/>
<text text-anchor="start" x="381" y="-86.5" font-family="Helvetica,sans-Serif" font-size="10.00" fill="#000000">openage::ActionMode</text>
<text text-anchor="middle" x="428.5" y="-75.5" font-family="Helvetica,sans-Serif" font-size="10.00" fill="#000000">::on_exit</text>
</a>
</g>
</g>
<!-- Node62&#45;&gt;Node66 -->
<g id="edge6" class="edge">
<title>Node62&#45;&gt;Node66</title>
<path fill="none" stroke="#191970" d="M335.2163,-83.5C347.9388,-83.5 360.8012,-83.5 372.7414,-83.5"/>
<polygon fill="#191970" stroke="#191970" points="335.0634,-80.0001 325.0634,-83.5 335.0633,-87.0001 335.0634,-80.0001"/>
</g>
<!-- Node67 -->
<g id="node7" class="node">
<title>Node67</title>
<g id="a_node7"><a xlink:href="../../d8/db5/classopenage_1_1_game_control.xhtml#a1d0f073f844955000861e4c0d08b20e0" target="_top" xlink:title="openage::GameControl\l::set_mode">
<polygon fill="#ffffff" stroke="#000000" points="370,-19.5 370,-49.5 487,-49.5 487,-19.5 370,-19.5"/>
<text text-anchor="start" x="378" y="-37.5" font-family="Helvetica,sans-Serif" font-size="10.00" fill="#000000">openage::GameControl</text>
<text text-anchor="middle" x="428.5" y="-26.5" font-family="Helvetica,sans-Serif" font-size="10.00" fill="#000000">::set_mode</text>
</a>
</g>
</g>
<!-- Node62&#45;&gt;Node67 -->
<g id="edge7" class="edge">
<title>Node62&#45;&gt;Node67</title>
<path fill="none" stroke="#191970" d="M316.1929,-65.6788C335.2496,-60.3882 355.9266,-54.6478 374.2836,-49.5516"/>
<polygon fill="#191970" stroke="#191970" points="315.0953,-62.351 306.396,-68.3986 316.9679,-69.0959 315.0953,-62.351"/>
</g>
<!-- Node64 -->
<g id="node4" class="node">
<title>Node64</title>
<g id="a_node4"><a xlink:href="../../d7/d6d/classopenage_1_1console_1_1_console.xhtml#a4e0359f0f3cbbf66da045ba1a33ffa57" target="_top" xlink:title="a temporary console command interpreter ">
<polygon fill="#ffffff" stroke="#000000" points="532,-149.5 532,-179.5 667,-179.5 667,-149.5 532,-149.5"/>
<text text-anchor="start" x="540" y="-167.5" font-family="Helvetica,sans-Serif" font-size="10.00" fill="#000000">openage::console::Console</text>
<text text-anchor="middle" x="599.5" y="-156.5" font-family="Helvetica,sans-Serif" font-size="10.00" fill="#000000">::interpret</text>
</a>
</g>
</g>
<!-- Node63&#45;&gt;Node64 -->
<g id="edge3" class="edge">
<title>Node63&#45;&gt;Node64</title>
<path fill="none" stroke="#191970" d="M506.0998,-147.0216C514.692,-148.6295 523.3915,-150.2575 531.8472,-151.8398"/>
<polygon fill="#191970" stroke="#191970" points="506.5569,-143.5465 496.0837,-145.1472 505.2693,-150.427 506.5569,-143.5465"/>
</g>
<!-- Node65 -->
<g id="node5" class="node">
<title>Node65</title>
<g id="a_node5"><a xlink:href="../../d7/d6d/classopenage_1_1console_1_1_console.xhtml#ab5e30408417ac212bd3f35e50edd3a82" target="_top" xlink:title="register this console to the engine. ">
<polygon fill="#ffffff" stroke="#000000" points="703,-127.5 703,-157.5 838,-157.5 838,-127.5 703,-127.5"/>
<text text-anchor="start" x="711" y="-145.5" font-family="Helvetica,sans-Serif" font-size="10.00" fill="#000000">openage::console::Console</text>
<text text-anchor="middle" x="770.5" y="-134.5" font-family="Helvetica,sans-Serif" font-size="10.00" fill="#000000">::register_to_engine</text>
</a>
</g>
</g>
<!-- Node63&#45;&gt;Node65 -->
<g id="edge5" class="edge">
<title>Node63&#45;&gt;Node65</title>
<path fill="none" stroke="#191970" d="M506.1231,-134.7697C565.357,-136.5017 646.1506,-138.8641 702.7802,-140.5199"/>
<polygon fill="#191970" stroke="#191970" points="506.1663,-131.2695 496.0682,-134.4757 505.9616,-138.2666 506.1663,-131.2695"/>
</g>
<!-- Node64&#45;&gt;Node65 -->
<g id="edge4" class="edge">
<title>Node64&#45;&gt;Node65</title>
<path fill="none" stroke="#191970" d="M677.0998,-154.5164C685.692,-153.411 694.3915,-152.2917 702.8472,-151.2039"/>
<polygon fill="#191970" stroke="#191970" points="676.5553,-151.0575 667.0837,-155.805 677.4486,-158.0003 676.5553,-151.0575"/>
</g>
<!-- Node68 -->
<g id="node8" class="node">
<title>Node68</title>
<g id="a_node8"><a xlink:href="../../d8/db5/classopenage_1_1_game_control.xhtml#ad7c9d48df33f8f56ab5686c36648bfa5" target="_top" xlink:title="openage::GameControl\l::set_engine">
<polygon fill="#ffffff" stroke="#000000" points="541,-49.5 541,-79.5 658,-79.5 658,-49.5 541,-49.5"/>
<text text-anchor="start" x="549" y="-67.5" font-family="Helvetica,sans-Serif" font-size="10.00" fill="#000000">openage::GameControl</text>
<text text-anchor="middle" x="599.5" y="-56.5" font-family="Helvetica,sans-Serif" font-size="10.00" fill="#000000">::set_engine</text>
</a>
</g>
</g>
<!-- Node67&#45;&gt;Node68 -->
<g id="edge8" class="edge">
<title>Node67&#45;&gt;Node68</title>
<path fill="none" stroke="#191970" d="M497.225,-46.557C511.6754,-49.0922 526.7913,-51.7441 540.8328,-54.2075"/>
<polygon fill="#191970" stroke="#191970" points="497.8029,-43.105 487.3485,-44.8243 496.5932,-49.9997 497.8029,-43.105"/>
</g>
<!-- Node69 -->
<g id="node9" class="node">
<title>Node69</title>
<g id="a_node9"><a xlink:href="../../d8/db5/classopenage_1_1_game_control.xhtml#af8fcfaca1f2135c0508cb706955d18d0" target="_top" xlink:title="openage::GameControl\l::set_modes">
<polygon fill="#ffffff" stroke="#000000" points="541,-.5 541,-30.5 658,-30.5 658,-.5 541,-.5"/>
<text text-anchor="start" x="549" y="-18.5" font-family="Helvetica,sans-Serif" font-size="10.00" fill="#000000">openage::GameControl</text>
<text text-anchor="middle" x="599.5" y="-7.5" font-family="Helvetica,sans-Serif" font-size="10.00" fill="#000000">::set_modes</text>
</a>
</g>
</g>
<!-- Node67&#45;&gt;Node69 -->
<g id="edge9" class="edge">
<title>Node67&#45;&gt;Node69</title>
<path fill="none" stroke="#191970" d="M497.642,-26.8176C511.966,-25.226 526.9264,-23.5637 540.8328,-22.0186"/>
<polygon fill="#191970" stroke="#191970" points="496.9008,-23.3783 487.3485,-27.9613 497.6739,-30.3355 496.9008,-23.3783"/>
</g>
</g>
</svg>
