<?xml version="1.0" encoding="UTF-8" standalone="no"?>
<!DOCTYPE svg PUBLIC "-//W3C//DTD SVG 1.1//EN"
 "http://www.w3.org/Graphics/SVG/1.1/DTD/svg11.dtd">
<!-- Generated by graphviz version 2.40.1 (20161225.0304)
 -->
<!-- Title: openage::os::execute_file Pages: 1 -->
<!--zoomable 215 -->
<svg id="main" version="1.1" xmlns="http://www.w3.org/2000/svg" xmlns:xlink="http://www.w3.org/1999/xlink" xml:space="preserve" onload="init(evt)">
<style type="text/css"><![CDATA[
.edge:hover path { stroke: red; }
.edge:hover polygon { stroke: red; fill: red; }
]]></style>
<script type="text/javascript"><![CDATA[
var edges = document.getElementsByTagName('g');
if (edges && edges.length) {
  for (var i=0;i<edges.length;i++) {
    if (edges[i].id.substr(0,4)=='edge') {
      edges[i].setAttribute('class','edge');
    }
  }
}
]]></script>
        <defs>
                <circle id="rim" cx="0" cy="0" r="7"/>
                <circle id="rim2" cx="0" cy="0" r="3.5"/>
                <g id="zoomPlus">
                        <use xlink:href="#rim" fill="#404040">
                                <set attributeName="fill" to="#808080" begin="zoomplus.mouseover" end="zoomplus.mouseout"/>
                        </use>
                        <path d="M-4,0h8M0,-4v8" fill="none" stroke="white" stroke-width="1.5" pointer-events="none"/>
                </g>
                <g id="zoomMin">
                        <use xlink:href="#rim" fill="#404040">
                                <set attributeName="fill" to="#808080" begin="zoomminus.mouseover" end="zoomminus.mouseout"/>
                        </use>
                        <path d="M-4,0h8" fill="none" stroke="white" stroke-width="1.5" pointer-events="none"/>
                </g>
                <g id="dirArrow">
                        <path fill="none" stroke="white" stroke-width="1.5" d="M0,-3.0v7 M-2.5,-0.5L0,-3.0L2.5,-0.5"/>
                </g>
               <g id="resetDef">
                       <use xlink:href="#rim2" fill="#404040">
                               <set attributeName="fill" to="#808080" begin="reset.mouseover" end="reset.mouseout"/>
                       </use>
               </g>
        </defs>

<script type="text/javascript">
var viewWidth = 796;
var viewHeight = 215;
var sectionId = 'dynsection-0';
</script>
<script xlink:href="../../svgpan.js"/>
<svg id="graph" class="graph">
<g id="viewport">
<title>openage::os::execute_file</title>
<polygon fill="#ffffff" stroke="transparent" points="-4,4 -4,-210.5 792,-210.5 792,4 -4,4"/>
<!-- Node0 -->
<g id="node1" class="node">
<title>Node0</title>
<polygon fill="#bfbfbf" stroke="#000000" points="0,-52 0,-71 128,-71 128,-52 0,-52"/>
<text text-anchor="middle" x="64" y="-59" font-family="Helvetica,sans-Serif" font-size="10.00" fill="#000000">openage::os::execute_file</text>
</g>
<!-- Node1 -->
<g id="node2" class="node">
<title>Node1</title>
<g id="a_node2"><a xlink:href="../../dc/d1d/namespaceopenage_1_1subprocess.xhtml#a9433d1215dbd3b40cd1c0981b84a8541" target="_top" xlink:title="starts the process at argv[0] passes argv as argv ">
<polygon fill="#ffffff" stroke="#000000" points="164,-24.5 164,-54.5 274,-54.5 274,-24.5 164,-24.5"/>
<text text-anchor="start" x="172" y="-42.5" font-family="Helvetica,sans-Serif" font-size="10.00" fill="#000000">openage::subprocess</text>
<text text-anchor="middle" x="219" y="-31.5" font-family="Helvetica,sans-Serif" font-size="10.00" fill="#000000">::call</text>
</a>
</g>
</g>
<!-- Node0&#45;&gt;Node1 -->
<g id="edge1" class="edge">
<title>Node0&#45;&gt;Node1</title>
<path fill="none" stroke="#191970" d="M128.3874,-52.3611C136.7843,-51.1693 145.3926,-49.9475 153.8027,-48.7538"/>
<polygon fill="#191970" stroke="#191970" points="154.5262,-52.1863 163.9351,-47.3157 153.5425,-45.2557 154.5262,-52.1863"/>
</g>
<!-- Node2 -->
<g id="node3" class="node">
<title>Node2</title>
<g id="a_node3"><a xlink:href="../../dd/d1a/namespaceopenage_1_1log.xhtml#a0eff614e7d6e818746700ed9d29e583f" target="_top" xlink:title="Convenience method that makes use of the &#39;general&#39; LogSource. ">
<polygon fill="#ffffff" stroke="#000000" points="322,-50 322,-69 413,-69 413,-50 322,-50"/>
<text text-anchor="middle" x="367.5" y="-57" font-family="Helvetica,sans-Serif" font-size="10.00" fill="#000000">openage::log::log</text>
</a>
</g>
</g>
<!-- Node0&#45;&gt;Node2 -->
<g id="edge10" class="edge">
<title>Node0&#45;&gt;Node2</title>
<path fill="none" stroke="#191970" d="M128.3426,-63.1413C169.9072,-63.9474 225.1548,-64.5443 274,-63.5 286.1828,-63.2395 299.2525,-62.7883 311.6436,-62.2806"/>
<polygon fill="#191970" stroke="#191970" points="312.017,-65.7679 321.8582,-61.8437 311.7178,-58.7743 312.017,-65.7679"/>
</g>
<!-- Node8 -->
<g id="node9" class="node">
<title>Node8</title>
<g id="a_node9"><a xlink:href="../../dd/d1a/namespaceopenage_1_1log.xhtml#ab6b4b10be67af93ab6c4d5a36139736e" target="_top" xlink:title="error message ">
<polygon fill="#ffffff" stroke="#000000" points="326,-9 326,-28 409,-28 409,-9 326,-9"/>
<text text-anchor="middle" x="367.5" y="-16" font-family="Helvetica,sans-Serif" font-size="10.00" fill="#000000">openage.log.err</text>
</a>
</g>
</g>
<!-- Node0&#45;&gt;Node8 -->
<g id="edge9" class="edge">
<title>Node0&#45;&gt;Node8</title>
<path fill="none" stroke="#191970" d="M78.8331,-51.9623C97.7259,-40.4351 131.7981,-21.6902 164,-14.5 214.551,-3.2128 273.9289,-6.1624 315.4531,-10.746"/>
<polygon fill="#191970" stroke="#191970" points="315.2691,-14.2483 325.6092,-11.9388 316.0857,-7.2961 315.2691,-14.2483"/>
</g>
<!-- Node9 -->
<g id="node10" class="node">
<title>Node9</title>
<g id="a_node10"><a xlink:href="../../dc/d1d/namespaceopenage_1_1subprocess.xhtml#aea6af6d7d8e5290e58dfafd50a96a069" target="_top" xlink:title="finds the path to an executable by evaluating env[PATH] ">
<polygon fill="#ffffff" stroke="#000000" points="164,-112.5 164,-142.5 274,-142.5 274,-112.5 164,-112.5"/>
<text text-anchor="start" x="172" y="-130.5" font-family="Helvetica,sans-Serif" font-size="10.00" fill="#000000">openage::subprocess</text>
<text text-anchor="middle" x="219" y="-119.5" font-family="Helvetica,sans-Serif" font-size="10.00" fill="#000000">::which</text>
</a>
</g>
</g>
<!-- Node0&#45;&gt;Node9 -->
<g id="edge11" class="edge">
<title>Node0&#45;&gt;Node9</title>
<path fill="none" stroke="#191970" d="M86.5383,-71.097C109.3952,-80.8296 145.3929,-96.1576 174.0961,-108.3796"/>
<polygon fill="#191970" stroke="#191970" points="172.9493,-111.6953 183.5211,-112.3929 175.6917,-105.2549 172.9493,-111.6953"/>
</g>
<!-- Node1&#45;&gt;Node2 -->
<g id="edge2" class="edge">
<title>Node1&#45;&gt;Node2</title>
<path fill="none" stroke="#191970" d="M274.2959,-46.9473C286.5364,-48.5958 299.5134,-50.3436 311.7711,-51.9944"/>
<polygon fill="#191970" stroke="#191970" points="311.4886,-55.4879 321.8663,-53.354 312.423,-48.5505 311.4886,-55.4879"/>
</g>
<!-- Node1&#45;&gt;Node8 -->
<g id="edge8" class="edge">
<title>Node1&#45;&gt;Node8</title>
<path fill="none" stroke="#191970" d="M274.2959,-31.6804C287.8326,-29.7661 302.2701,-27.7244 315.6392,-25.8339"/>
<polygon fill="#191970" stroke="#191970" points="316.2104,-29.288 325.6218,-24.4222 315.2302,-22.3569 316.2104,-29.288"/>
</g>
<!-- Node3 -->
<g id="node4" class="node">
<title>Node3</title>
<g id="a_node4"><a xlink:href="../../dd/d1a/namespaceopenage_1_1log.xhtml#a3fbb0c225d01e222648ec28a43507188" target="_top" xlink:title="Returns a reference to a general named log source, for use by log::log(). ">
<polygon fill="#ffffff" stroke="#000000" points="477.5,-.5 477.5,-30.5 587.5,-30.5 587.5,-.5 477.5,-.5"/>
<text text-anchor="start" x="485.5" y="-18.5" font-family="Helvetica,sans-Serif" font-size="10.00" fill="#000000">openage::log::general</text>
<text text-anchor="middle" x="532.5" y="-7.5" font-family="Helvetica,sans-Serif" font-size="10.00" fill="#000000">_source</text>
</a>
</g>
</g>
<!-- Node2&#45;&gt;Node3 -->
<g id="edge3" class="edge">
<title>Node2&#45;&gt;Node3</title>
<path fill="none" stroke="#191970" d="M403.3025,-49.9527C422.0425,-44.9553 445.5757,-38.6798 467.4054,-32.8585"/>
<polygon fill="#191970" stroke="#191970" points="468.5316,-36.1806 477.2921,-30.2221 466.7279,-29.417 468.5316,-36.1806"/>
</g>
<!-- Node4 -->
<g id="node5" class="node">
<title>Node4</title>
<g id="a_node5"><a xlink:href="../../de/de3/classopenage_1_1log_1_1_log_source.xhtml#a5640099e20af4cd368c767dbcef3a1df" target="_top" xlink:title="Logs a message (get one via MSG(level)). ">
<polygon fill="#ffffff" stroke="#000000" points="461,-50 461,-69 604,-69 604,-50 461,-50"/>
<text text-anchor="middle" x="532.5" y="-57" font-family="Helvetica,sans-Serif" font-size="10.00" fill="#000000">openage::log::LogSource::log</text>
</a>
</g>
</g>
<!-- Node2&#45;&gt;Node4 -->
<g id="edge4" class="edge">
<title>Node2&#45;&gt;Node4</title>
<path fill="none" stroke="#191970" d="M413.0238,-59.5C424.6902,-59.5 437.6006,-59.5 450.4948,-59.5"/>
<polygon fill="#191970" stroke="#191970" points="450.8082,-63.0001 460.8082,-59.5 450.8081,-56.0001 450.8082,-63.0001"/>
</g>
<!-- Node5 -->
<g id="node6" class="node">
<title>Node5</title>
<g id="a_node6"><a xlink:href="../../dd/d1a/namespaceopenage_1_1log.xhtml#a3d2885be9c3a09b9ff7ee8764b2e5f39" target="_top" xlink:title="Returns a reference to the global stdout logsink object; Initializes the object if needed...">
<polygon fill="#ffffff" stroke="#000000" points="662,-93.5 662,-123.5 766,-123.5 766,-93.5 662,-93.5"/>
<text text-anchor="start" x="670" y="-111.5" font-family="Helvetica,sans-Serif" font-size="10.00" fill="#000000">openage::log::global</text>
<text text-anchor="middle" x="714" y="-100.5" font-family="Helvetica,sans-Serif" font-size="10.00" fill="#000000">_stdoutsink</text>
</a>
</g>
</g>
<!-- Node4&#45;&gt;Node5 -->
<g id="edge5" class="edge">
<title>Node4&#45;&gt;Node5</title>
<path fill="none" stroke="#191970" d="M567.9259,-69.064C591.8272,-75.5167 624.008,-84.2046 652.0812,-91.7836"/>
<polygon fill="#191970" stroke="#191970" points="651.2527,-95.1852 661.8194,-94.4127 653.0773,-88.4272 651.2527,-95.1852"/>
</g>
<!-- Node6 -->
<g id="node7" class="node">
<title>Node6</title>
<g id="a_node7"><a xlink:href="../../d0/d58/classopenage_1_1log_1_1_log_sink_list.xhtml#a2d47416fab12651553b4b58c86fd6f84" target="_top" xlink:title="openage::log::LogSinkList\l::instance">
<polygon fill="#ffffff" stroke="#000000" points="649.5,-44.5 649.5,-74.5 778.5,-74.5 778.5,-44.5 649.5,-44.5"/>
<text text-anchor="start" x="657.5" y="-62.5" font-family="Helvetica,sans-Serif" font-size="10.00" fill="#000000">openage::log::LogSinkList</text>
<text text-anchor="middle" x="714" y="-51.5" font-family="Helvetica,sans-Serif" font-size="10.00" fill="#000000">::instance</text>
</a>
</g>
</g>
<!-- Node4&#45;&gt;Node6 -->
<g id="edge6" class="edge">
<title>Node4&#45;&gt;Node6</title>
<path fill="none" stroke="#191970" d="M604.2336,-59.5C615.7292,-59.5 627.651,-59.5 639.2157,-59.5"/>
<polygon fill="#191970" stroke="#191970" points="639.267,-63.0001 649.267,-59.5 639.267,-56.0001 639.267,-63.0001"/>
</g>
<!-- Node7 -->
<g id="node8" class="node">
<title>Node7</title>
<g id="a_node8"><a xlink:href="../../d0/d58/classopenage_1_1log_1_1_log_sink_list.xhtml#a8456b84ab55e1fe151c51438c5bfebdd" target="_top" xlink:title="openage::log::LogSinkList::log">
<polygon fill="#ffffff" stroke="#000000" points="640,-6 640,-25 788,-25 788,-6 640,-6"/>
<text text-anchor="middle" x="714" y="-13" font-family="Helvetica,sans-Serif" font-size="10.00" fill="#000000">openage::log::LogSinkList::log</text>
</a>
</g>
</g>
<!-- Node4&#45;&gt;Node7 -->
<g id="edge7" class="edge">
<title>Node4&#45;&gt;Node7</title>
<path fill="none" stroke="#191970" d="M571.8828,-49.9527C599.1156,-43.3508 635.5503,-34.5181 664.7102,-27.449"/>
<polygon fill="#191970" stroke="#191970" points="665.8002,-30.7863 674.6941,-25.0287 664.1509,-23.9833 665.8002,-30.7863"/>
</g>
<!-- Node9&#45;&gt;Node2 -->
<g id="edge13" class="edge">
<title>Node9&#45;&gt;Node2</title>
<path fill="none" stroke="#191970" d="M246.566,-112.3735C268.5835,-100.4022 297.7143,-84.8406 310,-79.5 315.5886,-77.0706 321.5766,-74.721 327.5004,-72.5385"/>
<polygon fill="#191970" stroke="#191970" points="329.0815,-75.6909 337.3276,-69.0387 326.7329,-69.0966 329.0815,-75.6909"/>
</g>
<!-- Node10 -->
<g id="node11" class="node">
<title>Node10</title>
<g id="a_node11"><a xlink:href="../../dc/d1d/namespaceopenage_1_1subprocess.xhtml#af8b5d87acaf3d044fdd924ef68a1cec8" target="_top" xlink:title="returns true IFF the file is executable ">
<polygon fill="#ffffff" stroke="#000000" points="312.5,-137.5 312.5,-167.5 422.5,-167.5 422.5,-137.5 312.5,-137.5"/>
<text text-anchor="start" x="320.5" y="-155.5" font-family="Helvetica,sans-Serif" font-size="10.00" fill="#000000">openage::subprocess</text>
<text text-anchor="middle" x="367.5" y="-144.5" font-family="Helvetica,sans-Serif" font-size="10.00" fill="#000000">::is_executable</text>
</a>
</g>
</g>
<!-- Node9&#45;&gt;Node10 -->
<g id="edge12" class="edge">
<title>Node9&#45;&gt;Node10</title>
<path fill="none" stroke="#191970" d="M274.2959,-136.8091C283.3796,-138.3383 292.869,-139.9359 302.1689,-141.5015"/>
<polygon fill="#191970" stroke="#191970" points="301.7156,-144.9744 312.1579,-143.1831 302.8777,-138.0715 301.7156,-144.9744"/>
</g>
<!-- Node11 -->
<g id="node12" class="node">
<title>Node11</title>
<g id="a_node12"><a xlink:href="../../de/d60/namespaceopenage_1_1util.xhtml#a854794aef09b81dbec641eca208a66d7" target="_top" xlink:title="Copies the given string to the returned unique_ptr, including 0 byte. ">
<polygon fill="#ffffff" stroke="#000000" points="318,-88.5 318,-118.5 417,-118.5 417,-88.5 318,-88.5"/>
<text text-anchor="start" x="326" y="-106.5" font-family="Helvetica,sans-Serif" font-size="10.00" fill="#000000">openage::util::copy</text>
<text text-anchor="middle" x="367.5" y="-95.5" font-family="Helvetica,sans-Serif" font-size="10.00" fill="#000000">_string</text>
</a>
</g>
</g>
<!-- Node9&#45;&gt;Node11 -->
<g id="edge14" class="edge">
<title>Node9&#45;&gt;Node11</title>
<path fill="none" stroke="#191970" d="M274.2959,-118.5633C285.1552,-116.8083 296.5941,-114.9595 307.5961,-113.1814"/>
<polygon fill="#191970" stroke="#191970" points="308.2346,-116.6237 317.5481,-111.573 307.1177,-109.7134 308.2346,-116.6237"/>
</g>
<!-- Node13 -->
<g id="node14" class="node">
<title>Node13</title>
<g id="a_node14"><a xlink:href="../../de/d60/namespaceopenage_1_1util.xhtml#a664e0be1f5d2f4d1e1a624f6f4a5f0c1" target="_top" xlink:title="get the filename (last part) of a given path ">
<polygon fill="#ffffff" stroke="#000000" points="310,-187 310,-206 425,-206 425,-187 310,-187"/>
<text text-anchor="middle" x="367.5" y="-194" font-family="Helvetica,sans-Serif" font-size="10.00" fill="#000000">openage::util::filename</text>
</a>
</g>
</g>
<!-- Node9&#45;&gt;Node13 -->
<g id="edge16" class="edge">
<title>Node9&#45;&gt;Node13</title>
<path fill="none" stroke="#191970" d="M243.4849,-142.56C261.4583,-153.2131 286.6974,-167.3503 310,-177.5 315.0002,-179.6779 320.335,-181.7533 325.6634,-183.6783"/>
<polygon fill="#191970" stroke="#191970" points="324.5794,-187.0068 335.1742,-186.9707 326.8693,-180.3919 324.5794,-187.0068"/>
</g>
<!-- Node12 -->
<g id="node13" class="node">
<title>Node12</title>
<g id="a_node13"><a xlink:href="../../d8/d88/namespaceopenage_1_1util_1_1constexpr__.xhtml#a72a87a05e383ec62bf0b60359f314df7" target="_top" xlink:title="Returns the length of the string literal, excluding the terminating NULL byte. ">
<polygon fill="#ffffff" stroke="#000000" points="472,-88.5 472,-118.5 593,-118.5 593,-88.5 472,-88.5"/>
<text text-anchor="start" x="480" y="-106.5" font-family="Helvetica,sans-Serif" font-size="10.00" fill="#000000">openage::util::constexpr</text>
<text text-anchor="middle" x="532.5" y="-95.5" font-family="Helvetica,sans-Serif" font-size="10.00" fill="#000000">_::strlen</text>
</a>
</g>
</g>
<!-- Node11&#45;&gt;Node12 -->
<g id="edge15" class="edge">
<title>Node11&#45;&gt;Node12</title>
<path fill="none" stroke="#191970" d="M417.0054,-103.5C431.0425,-103.5 446.6054,-103.5 461.6417,-103.5"/>
<polygon fill="#191970" stroke="#191970" points="461.9422,-107.0001 471.9422,-103.5 461.9422,-100.0001 461.9422,-107.0001"/>
</g>
</g>
</svg>
        <g id="navigator" transform="translate(0 0)" fill="#404254">
                <rect fill="#f2f5e9" fill-opacity="0.5" stroke="#606060" stroke-width=".5" x="0" y="0" width="60" height="60"/>
                <use id="zoomplus" xlink:href="#zoomPlus" x="17" y="9" onmousedown="handleZoom(evt,'in')"/>
                <use id="zoomminus" xlink:href="#zoomMin" x="42" y="9" onmousedown="handleZoom(evt,'out')"/>
                <use id="reset" xlink:href="#resetDef" x="30" y="36" onmousedown="handleReset()"/>
                <g id="arrowUp" xlink:href="#dirArrow" transform="translate(30 24)" onmousedown="handlePan(0,-1)">
                  <use xlink:href="#rim" fill="#404040">
                        <set attributeName="fill" to="#808080" begin="arrowUp.mouseover" end="arrowUp.mouseout"/>
                  </use>
                  <path fill="none" stroke="white" stroke-width="1.5" d="M0,-3.0v7 M-2.5,-0.5L0,-3.0L2.5,-0.5"/>
                </g>
                <g id="arrowRight" xlink:href="#dirArrow" transform="rotate(90) translate(36 -43)" onmousedown="handlePan(1,0)">
                  <use xlink:href="#rim" fill="#404040">
                        <set attributeName="fill" to="#808080" begin="arrowRight.mouseover" end="arrowRight.mouseout"/>
                  </use>
                  <path fill="none" stroke="white" stroke-width="1.5" d="M0,-3.0v7 M-2.5,-0.5L0,-3.0L2.5,-0.5"/>
                </g>
                <g id="arrowDown" xlink:href="#dirArrow" transform="rotate(180) translate(-30 -48)" onmousedown="handlePan(0,1)">
                  <use xlink:href="#rim" fill="#404040">
                        <set attributeName="fill" to="#808080" begin="arrowDown.mouseover" end="arrowDown.mouseout"/>
                  </use>
                  <path fill="none" stroke="white" stroke-width="1.5" d="M0,-3.0v7 M-2.5,-0.5L0,-3.0L2.5,-0.5"/>
                </g>
                <g id="arrowLeft" xlink:href="#dirArrow" transform="rotate(270) translate(-36 17)" onmousedown="handlePan(-1,0)">
                  <use xlink:href="#rim" fill="#404040">
                        <set attributeName="fill" to="#808080" begin="arrowLeft.mouseover" end="arrowLeft.mouseout"/>
                  </use>
                  <path fill="none" stroke="white" stroke-width="1.5" d="M0,-3.0v7 M-2.5,-0.5L0,-3.0L2.5,-0.5"/>
                </g>
        </g>
        <svg viewBox="0 0 15 15" width="100%" height="30px" preserveAspectRatio="xMaxYMin meet">
         <g id="arrow_out" transform="scale(0.3 0.3)">
          <a xlink:href="namespaceopenage_1_1os_a0c239b26dbfdae2443aa511e31619917_cgraph_org.svg" target="_base">
           <rect id="button" ry="5" rx="5" y="6" x="6" height="38" width="38"
                fill="#f2f5e9" fill-opacity="0.5" stroke="#606060" stroke-width="1.0"/>
           <path id="arrow"
             d="M 11.500037,31.436501 C 11.940474,20.09759 22.043105,11.32322 32.158766,21.979434 L 37.068811,17.246167 C 37.068811,17.246167 37.088388,32 37.088388,32 L 22.160133,31.978069 C 22.160133,31.978069 26.997745,27.140456 26.997745,27.140456 C 18.528582,18.264221 13.291696,25.230495 11.500037,31.436501 z"
             style="fill:#404040;"/>
          </a>
         </g>
        </svg>
</svg>
