<?xml version="1.0" encoding="UTF-8" standalone="no"?>
<!DOCTYPE svg PUBLIC "-//W3C//DTD SVG 1.1//EN"
 "http://www.w3.org/Graphics/SVG/1.1/DTD/svg11.dtd">
<!-- Generated by graphviz version 2.40.1 (20161225.0304)
 -->
<!-- Title: openage::gui::GameSaver::activate Pages: 1 -->
<svg width="1189pt" height="631pt"
 viewBox="0.00 0.00 1189.00 630.65" xmlns="http://www.w3.org/2000/svg" xmlns:xlink="http://www.w3.org/1999/xlink">
<g id="graph0" class="graph" transform="scale(1 1) rotate(0) translate(4 626.6485)">
<title>openage::gui::GameSaver::activate</title>
<polygon fill="#ffffff" stroke="transparent" points="-4,4 -4,-626.6485 1185,-626.6485 1185,4 -4,4"/>
<!-- Node4 -->
<g id="node1" class="node">
<title>Node4</title>
<polygon fill="#bfbfbf" stroke="#000000" points="0,-504.6485 0,-534.6485 130,-534.6485 130,-504.6485 0,-504.6485"/>
<text text-anchor="start" x="8" y="-522.6485" font-family="Helvetica,sans-Serif" font-size="10.00" fill="#000000">openage::gui::GameSaver</text>
<text text-anchor="middle" x="65" y="-511.6485" font-family="Helvetica,sans-Serif" font-size="10.00" fill="#000000">::activate</text>
</g>
<!-- Node5 -->
<g id="node2" class="node">
<title>Node5</title>
<g id="a_node2"><a xlink:href="../../de/d60/namespaceopenage_1_1util.xhtml#a664e0be1f5d2f4d1e1a624f6f4a5f0c1" target="_top" xlink:title="get the filename (last part) of a given path ">
<polygon fill="#ffffff" stroke="#000000" points="177,-603.1485 177,-622.1485 292,-622.1485 292,-603.1485 177,-603.1485"/>
<text text-anchor="middle" x="234.5" y="-610.1485" font-family="Helvetica,sans-Serif" font-size="10.00" fill="#000000">openage::util::filename</text>
</a>
</g>
</g>
<!-- Node4&#45;&gt;Node5 -->
<g id="edge1" class="edge">
<title>Node4&#45;&gt;Node5</title>
<path fill="none" stroke="#191970" d="M81.6332,-534.8189C100.7025,-551.4648 133.5308,-577.9062 166,-593.6485 170.8584,-596.004 176.0569,-598.1094 181.3373,-599.9812"/>
<polygon fill="#191970" stroke="#191970" points="180.282,-603.3185 190.8747,-603.1021 182.459,-596.6656 180.282,-603.3185"/>
</g>
<!-- Node6 -->
<g id="node3" class="node">
<title>Node6</title>
<g id="a_node3"><a xlink:href="../../d0/dd5/classopenage_1_1_game_main_handle.xhtml#a8d01ae4e890d5a889f45c06182f9bdc3" target="_top" xlink:title="Return the game. ">
<polygon fill="#ffffff" stroke="#000000" points="166,-553.6485 166,-583.6485 303,-583.6485 303,-553.6485 166,-553.6485"/>
<text text-anchor="start" x="174" y="-571.6485" font-family="Helvetica,sans-Serif" font-size="10.00" fill="#000000">openage::GameMainHandle</text>
<text text-anchor="middle" x="234.5" y="-560.6485" font-family="Helvetica,sans-Serif" font-size="10.00" fill="#000000">::get_game</text>
</a>
</g>
</g>
<!-- Node4&#45;&gt;Node6 -->
<g id="edge2" class="edge">
<title>Node4&#45;&gt;Node6</title>
<path fill="none" stroke="#191970" d="M117.2387,-534.7499C134.8011,-539.827 154.5591,-545.5387 172.7802,-550.8062"/>
<polygon fill="#191970" stroke="#191970" points="171.8552,-554.182 182.4338,-553.5969 173.7992,-547.4574 171.8552,-554.182"/>
</g>
<!-- Node7 -->
<g id="node4" class="node">
<title>Node7</title>
<g id="a_node4"><a xlink:href="../../d0/dd5/classopenage_1_1_game_main_handle.xhtml#a9886438b51e49242ef4a378f1ee5febd" target="_top" xlink:title="Test if there is a game running. ">
<polygon fill="#ffffff" stroke="#000000" points="166,-504.6485 166,-534.6485 303,-534.6485 303,-504.6485 166,-504.6485"/>
<text text-anchor="start" x="174" y="-522.6485" font-family="Helvetica,sans-Serif" font-size="10.00" fill="#000000">openage::GameMainHandle</text>
<text text-anchor="middle" x="234.5" y="-511.6485" font-family="Helvetica,sans-Serif" font-size="10.00" fill="#000000">::is_game_running</text>
</a>
</g>
</g>
<!-- Node4&#45;&gt;Node7 -->
<g id="edge3" class="edge">
<title>Node4&#45;&gt;Node7</title>
<path fill="none" stroke="#191970" d="M130.0484,-519.6485C138.5032,-519.6485 147.235,-519.6485 155.8812,-519.6485"/>
<polygon fill="#191970" stroke="#191970" points="155.9702,-523.1486 165.9701,-519.6485 155.9701,-516.1486 155.9702,-523.1486"/>
</g>
<!-- Node8 -->
<g id="node5" class="node">
<title>Node8</title>
<g id="a_node5"><a xlink:href="../../d5/d54/classopenage_1_1gui_1_1_game_saver.xhtml#a363f735228bdac37f9bb2d9a4c99ea9f" target="_top" xlink:title="openage::gui::GameSaver\l::on_processed">
<polygon fill="#ffffff" stroke="#000000" points="169.5,-455.6485 169.5,-485.6485 299.5,-485.6485 299.5,-455.6485 169.5,-455.6485"/>
<text text-anchor="start" x="177.5" y="-473.6485" font-family="Helvetica,sans-Serif" font-size="10.00" fill="#000000">openage::gui::GameSaver</text>
<text text-anchor="middle" x="234.5" y="-462.6485" font-family="Helvetica,sans-Serif" font-size="10.00" fill="#000000">::on_processed</text>
</a>
</g>
</g>
<!-- Node4&#45;&gt;Node8 -->
<g id="edge4" class="edge">
<title>Node4&#45;&gt;Node8</title>
<path fill="none" stroke="#191970" d="M117.2387,-504.547C134.8011,-499.47 154.5591,-493.7582 172.7802,-488.4908"/>
<polygon fill="#191970" stroke="#191970" points="173.7992,-491.8396 182.4338,-485.7 171.8552,-485.1149 173.7992,-491.8396"/>
</g>
<!-- Node9 -->
<g id="node6" class="node">
<title>Node9</title>
<g id="a_node6"><a xlink:href="../../d4/d0d/namespaceopenage_1_1gameio.xhtml#afc1134c3c633c8bddb614ecb3da48eb2" target="_top" xlink:title="a game save function that sometimes works ">
<polygon fill="#ffffff" stroke="#000000" points="175.5,-417.1485 175.5,-436.1485 293.5,-436.1485 293.5,-417.1485 175.5,-417.1485"/>
<text text-anchor="middle" x="234.5" y="-424.1485" font-family="Helvetica,sans-Serif" font-size="10.00" fill="#000000">openage::gameio::save</text>
</a>
</g>
</g>
<!-- Node4&#45;&gt;Node9 -->
<g id="edge5" class="edge">
<title>Node4&#45;&gt;Node9</title>
<path fill="none" stroke="#191970" d="M82.0576,-504.4803C101.2449,-488.1265 133.933,-462.3352 166,-446.6485 171.6235,-443.8975 177.6958,-441.4534 183.8207,-439.3021"/>
<polygon fill="#191970" stroke="#191970" points="185.0143,-442.5942 193.4319,-436.1604 182.8394,-435.9407 185.0143,-442.5942"/>
</g>
<!-- Node10 -->
<g id="node7" class="node">
<title>Node10</title>
<g id="a_node7"><a xlink:href="../../d2/d82/classopenage_1_1_unit_container.xhtml#a38b39ded603419425f1b5a38f188cc17" target="_top" xlink:title="gets a list of all units in the container ">
<polygon fill="#ffffff" stroke="#000000" points="349,-521.6485 349,-551.6485 468,-551.6485 468,-521.6485 349,-521.6485"/>
<text text-anchor="start" x="357" y="-539.6485" font-family="Helvetica,sans-Serif" font-size="10.00" fill="#000000">openage::UnitContainer</text>
<text text-anchor="middle" x="408.5" y="-528.6485" font-family="Helvetica,sans-Serif" font-size="10.00" fill="#000000">::all_units</text>
</a>
</g>
</g>
<!-- Node9&#45;&gt;Node10 -->
<g id="edge6" class="edge">
<title>Node9&#45;&gt;Node10</title>
<path fill="none" stroke="#191970" d="M284.6792,-436.2623C291.256,-438.9213 297.5816,-442.3156 303,-446.6485 328.7914,-467.273 313.852,-490.2441 339,-511.6485 340.9652,-513.3211 343.0509,-514.8852 345.226,-516.3476"/>
<polygon fill="#191970" stroke="#191970" points="343.5981,-519.4505 353.9933,-521.4978 347.1437,-513.4149 343.5981,-519.4505"/>
</g>
<!-- Node13 -->
<g id="node10" class="node">
<title>Node13</title>
<g id="a_node10"><a xlink:href="../../dd/d1a/namespaceopenage_1_1log.xhtml#a5cb08687f485da2549d7eebef26368a6" target="_top" xlink:title="debug message ">
<polygon fill="#ffffff" stroke="#000000" points="364.5,-483.1485 364.5,-502.1485 452.5,-502.1485 452.5,-483.1485 364.5,-483.1485"/>
<text text-anchor="middle" x="408.5" y="-490.1485" font-family="Helvetica,sans-Serif" font-size="10.00" fill="#000000">openage.log.dbg</text>
</a>
</g>
</g>
<!-- Node9&#45;&gt;Node13 -->
<g id="edge10" class="edge">
<title>Node9&#45;&gt;Node13</title>
<path fill="none" stroke="#191970" d="M275.9834,-436.16C285.1208,-438.9627 294.5791,-442.4365 303,-446.6485 320.8873,-455.5952 321.0364,-464.856 339,-473.6485 343.9154,-476.0543 349.1805,-478.1928 354.5323,-480.085"/>
<polygon fill="#191970" stroke="#191970" points="353.6101,-483.4655 364.2023,-483.2296 355.7749,-476.8086 353.6101,-483.4655"/>
</g>
<!-- Node14 -->
<g id="node11" class="node">
<title>Node14</title>
<g id="a_node11"><a xlink:href="../../d9/dab/classopenage_1_1_terrain_chunk.xhtml#af163db3fba4ae99206de76666f8424df" target="_top" xlink:title="get tile data by absolute coordinates. ">
<polygon fill="#ffffff" stroke="#000000" points="349.5,-433.6485 349.5,-463.6485 467.5,-463.6485 467.5,-433.6485 349.5,-433.6485"/>
<text text-anchor="start" x="357.5" y="-451.6485" font-family="Helvetica,sans-Serif" font-size="10.00" fill="#000000">openage::TerrainChunk</text>
<text text-anchor="middle" x="408.5" y="-440.6485" font-family="Helvetica,sans-Serif" font-size="10.00" fill="#000000">::get_data</text>
</a>
</g>
</g>
<!-- Node9&#45;&gt;Node14 -->
<g id="edge11" class="edge">
<title>Node9&#45;&gt;Node14</title>
<path fill="none" stroke="#191970" d="M293.8943,-434.1581C308.4526,-435.9988 324.1614,-437.985 339.1418,-439.879"/>
<polygon fill="#191970" stroke="#191970" points="339.0133,-443.3906 349.3734,-441.1727 339.8915,-436.4459 339.0133,-443.3906"/>
</g>
<!-- Node17 -->
<g id="node14" class="node">
<title>Node17</title>
<g id="a_node14"><a xlink:href="../../dd/d1a/namespaceopenage_1_1log.xhtml#a0eff614e7d6e818746700ed9d29e583f" target="_top" xlink:title="Convenience method that makes use of the &#39;general&#39; LogSource. ">
<polygon fill="#ffffff" stroke="#000000" points="363,-395.1485 363,-414.1485 454,-414.1485 454,-395.1485 363,-395.1485"/>
<text text-anchor="middle" x="408.5" y="-402.1485" font-family="Helvetica,sans-Serif" font-size="10.00" fill="#000000">openage::log::log</text>
</a>
</g>
</g>
<!-- Node9&#45;&gt;Node17 -->
<g id="edge14" class="edge">
<title>Node9&#45;&gt;Node17</title>
<path fill="none" stroke="#191970" d="M293.8943,-419.1388C312.9167,-416.7337 333.9034,-414.0802 352.6628,-411.7083"/>
<polygon fill="#191970" stroke="#191970" points="353.3469,-415.1498 362.8289,-410.423 352.4688,-408.2051 353.3469,-415.1498"/>
</g>
<!-- Node23 -->
<g id="node20" class="node">
<title>Node23</title>
<g id="a_node20"><a xlink:href="../../d4/d0d/namespaceopenage_1_1gameio.xhtml#a3dbc6f4b94629a296a514691fb34a470" target="_top" xlink:title="openage::gameio::save\l_tile_content">
<polygon fill="#ffffff" stroke="#000000" points="349.5,-345.6485 349.5,-375.6485 467.5,-375.6485 467.5,-345.6485 349.5,-345.6485"/>
<text text-anchor="start" x="357.5" y="-363.6485" font-family="Helvetica,sans-Serif" font-size="10.00" fill="#000000">openage::gameio::save</text>
<text text-anchor="middle" x="408.5" y="-352.6485" font-family="Helvetica,sans-Serif" font-size="10.00" fill="#000000">_tile_content</text>
</a>
</g>
</g>
<!-- Node9&#45;&gt;Node23 -->
<g id="edge20" class="edge">
<title>Node9&#45;&gt;Node23</title>
<path fill="none" stroke="#191970" d="M258.4982,-417.0077C279.6305,-408.5722 311.2718,-396.0726 339,-385.6485 344.6131,-383.5383 350.4948,-381.3647 356.3595,-379.2215"/>
<polygon fill="#191970" stroke="#191970" points="357.9595,-382.3641 366.1631,-375.6596 355.569,-375.7849 357.9595,-382.3641"/>
</g>
<!-- Node24 -->
<g id="node21" class="node">
<title>Node24</title>
<g id="a_node21"><a xlink:href="../../d4/d0d/namespaceopenage_1_1gameio.xhtml#a644610ec4e114bf5109a4a46847f3762" target="_top" xlink:title="openage::gameio::save_unit">
<polygon fill="#ffffff" stroke="#000000" points="339,-188.1485 339,-207.1485 478,-207.1485 478,-188.1485 339,-188.1485"/>
<text text-anchor="middle" x="408.5" y="-195.1485" font-family="Helvetica,sans-Serif" font-size="10.00" fill="#000000">openage::gameio::save_unit</text>
</a>
</g>
</g>
<!-- Node9&#45;&gt;Node24 -->
<g id="edge21" class="edge">
<title>Node9&#45;&gt;Node24</title>
<path fill="none" stroke="#191970" d="M241.755,-417.1002C268.2862,-382.1827 360.3002,-261.0838 395.0615,-215.3348"/>
<polygon fill="#191970" stroke="#191970" points="397.9508,-217.3173 401.214,-207.2375 392.3772,-213.0823 397.9508,-217.3173"/>
</g>
<!-- Node11 -->
<g id="node8" class="node">
<title>Node11</title>
<g id="a_node8"><a xlink:href="../../d5/d0e/namespaceopenage_1_1testing_1_1testing.xhtml#ac25bf81db406af62d08113ef7ae9fd6e" target="_top" xlink:title="openage.testing.testing.result">
<polygon fill="#ffffff" stroke="#000000" points="514,-527.1485 514,-546.1485 659,-546.1485 659,-527.1485 514,-527.1485"/>
<text text-anchor="middle" x="586.5" y="-534.1485" font-family="Helvetica,sans-Serif" font-size="10.00" fill="#000000">openage.testing.testing.result</text>
</a>
</g>
</g>
<!-- Node10&#45;&gt;Node11 -->
<g id="edge7" class="edge">
<title>Node10&#45;&gt;Node11</title>
<path fill="none" stroke="#191970" d="M468.2666,-536.6485C479.7078,-536.6485 491.874,-536.6485 503.8844,-536.6485"/>
<polygon fill="#191970" stroke="#191970" points="503.9171,-540.1486 513.9171,-536.6485 503.917,-533.1486 503.9171,-540.1486"/>
</g>
<!-- Node12 -->
<g id="node9" class="node">
<title>Node12</title>
<g id="a_node9"><a xlink:href="../../de/d60/namespaceopenage_1_1util.xhtml#a7bc4421a5f0f57f3a0aba3f96eb8d19c" target="_top" xlink:title="method that behaves similar to python&#39;s &quot;repr&quot;. ">
<polygon fill="#ffffff" stroke="#000000" points="725,-527.1485 725,-546.1485 820,-546.1485 820,-527.1485 725,-527.1485"/>
<text text-anchor="middle" x="772.5" y="-534.1485" font-family="Helvetica,sans-Serif" font-size="10.00" fill="#000000">openage::util::repr</text>
</a>
</g>
</g>
<!-- Node11&#45;&gt;Node12 -->
<g id="edge8" class="edge">
<title>Node11&#45;&gt;Node12</title>
<path fill="none" stroke="#191970" d="M659.2116,-530.0433C677.6091,-529.7768 697.1201,-529.8781 714.6711,-530.3472"/>
<polygon fill="#191970" stroke="#191970" points="714.6495,-533.8482 724.7552,-530.6659 714.8707,-526.8517 714.6495,-533.8482"/>
</g>
<!-- Node12&#45;&gt;Node11 -->
<g id="edge9" class="edge">
<title>Node12&#45;&gt;Node11</title>
<path fill="none" stroke="#191970" d="M724.7552,-542.631C707.8582,-543.2531 688.3258,-543.497 669.3624,-543.3627"/>
<polygon fill="#191970" stroke="#191970" points="669.2486,-539.8614 659.2116,-543.2536 669.1734,-546.861 669.2486,-539.8614"/>
</g>
<!-- Node15 -->
<g id="node12" class="node">
<title>Node15</title>
<g id="a_node12"><a xlink:href="../../d5/d10/structopenage_1_1coord_1_1tile.xhtml#ab4811e492cabe885d33e85df51ceff83" target="_top" xlink:title="openage::coord::tile\l::get_pos_on_chunk">
<polygon fill="#ffffff" stroke="#000000" points="534.5,-458.6485 534.5,-488.6485 638.5,-488.6485 638.5,-458.6485 534.5,-458.6485"/>
<text text-anchor="start" x="542.5" y="-476.6485" font-family="Helvetica,sans-Serif" font-size="10.00" fill="#000000">openage::coord::tile</text>
<text text-anchor="middle" x="586.5" y="-465.6485" font-family="Helvetica,sans-Serif" font-size="10.00" fill="#000000">::get_pos_on_chunk</text>
</a>
</g>
</g>
<!-- Node14&#45;&gt;Node15 -->
<g id="edge12" class="edge">
<title>Node14&#45;&gt;Node15</title>
<path fill="none" stroke="#191970" d="M467.7714,-456.9731C485.947,-459.5259 505.9914,-462.3411 524.3533,-464.92"/>
<polygon fill="#191970" stroke="#191970" points="523.969,-468.4003 534.3587,-466.3252 524.9427,-461.4683 523.969,-468.4003"/>
</g>
<!-- Node16 -->
<g id="node13" class="node">
<title>Node16</title>
<g id="a_node13"><a xlink:href="../../de/d60/namespaceopenage_1_1util.xhtml#a7e483e123bf554b630319eb3dd012c02" target="_top" xlink:title="modulo operation that guarantees to return positive values. ">
<polygon fill="#ffffff" stroke="#000000" points="724,-486.1485 724,-505.1485 821,-505.1485 821,-486.1485 724,-486.1485"/>
<text text-anchor="middle" x="772.5" y="-493.1485" font-family="Helvetica,sans-Serif" font-size="10.00" fill="#000000">openage::util::mod</text>
</a>
</g>
</g>
<!-- Node15&#45;&gt;Node16 -->
<g id="edge13" class="edge">
<title>Node15&#45;&gt;Node16</title>
<path fill="none" stroke="#191970" d="M638.8063,-479.8352C662.1229,-482.5931 689.6905,-485.8538 713.7173,-488.6957"/>
<polygon fill="#191970" stroke="#191970" points="713.4331,-492.1864 723.775,-489.8853 714.2554,-485.2348 713.4331,-492.1864"/>
</g>
<!-- Node18 -->
<g id="node15" class="node">
<title>Node18</title>
<g id="a_node15"><a xlink:href="../../dd/d1a/namespaceopenage_1_1log.xhtml#a3fbb0c225d01e222648ec28a43507188" target="_top" xlink:title="Returns a reference to a general named log source, for use by log::log(). ">
<polygon fill="#ffffff" stroke="#000000" points="531.5,-348.6485 531.5,-378.6485 641.5,-378.6485 641.5,-348.6485 531.5,-348.6485"/>
<text text-anchor="start" x="539.5" y="-366.6485" font-family="Helvetica,sans-Serif" font-size="10.00" fill="#000000">openage::log::general</text>
<text text-anchor="middle" x="586.5" y="-355.6485" font-family="Helvetica,sans-Serif" font-size="10.00" fill="#000000">_source</text>
</a>
</g>
</g>
<!-- Node17&#45;&gt;Node18 -->
<g id="edge15" class="edge">
<title>Node17&#45;&gt;Node18</title>
<path fill="none" stroke="#191970" d="M449.7842,-395.1392C470.992,-390.2542 497.3319,-384.1872 521.2143,-378.6862"/>
<polygon fill="#191970" stroke="#191970" points="522.3179,-382.0237 531.2771,-376.3684 520.7466,-375.2023 522.3179,-382.0237"/>
</g>
<!-- Node19 -->
<g id="node16" class="node">
<title>Node19</title>
<g id="a_node16"><a xlink:href="../../de/de3/classopenage_1_1log_1_1_log_source.xhtml#a5640099e20af4cd368c767dbcef3a1df" target="_top" xlink:title="Logs a message (get one via MSG(level)). ">
<polygon fill="#ffffff" stroke="#000000" points="515,-398.1485 515,-417.1485 658,-417.1485 658,-398.1485 515,-398.1485"/>
<text text-anchor="middle" x="586.5" y="-405.1485" font-family="Helvetica,sans-Serif" font-size="10.00" fill="#000000">openage::log::LogSource::log</text>
</a>
</g>
</g>
<!-- Node17&#45;&gt;Node19 -->
<g id="edge16" class="edge">
<title>Node17&#45;&gt;Node19</title>
<path fill="none" stroke="#191970" d="M454.3394,-405.421C469.7528,-405.6808 487.445,-405.979 504.7675,-406.271"/>
<polygon fill="#191970" stroke="#191970" points="504.8464,-409.7727 514.904,-406.4418 504.9645,-402.7737 504.8464,-409.7727"/>
</g>
<!-- Node20 -->
<g id="node17" class="node">
<title>Node20</title>
<g id="a_node17"><a xlink:href="../../dd/d1a/namespaceopenage_1_1log.xhtml#a3d2885be9c3a09b9ff7ee8764b2e5f39" target="_top" xlink:title="Returns a reference to the global stdout logsink object; Initializes the object if needed...">
<polygon fill="#ffffff" stroke="#000000" points="720.5,-348.6485 720.5,-378.6485 824.5,-378.6485 824.5,-348.6485 720.5,-348.6485"/>
<text text-anchor="start" x="728.5" y="-366.6485" font-family="Helvetica,sans-Serif" font-size="10.00" fill="#000000">openage::log::global</text>
<text text-anchor="middle" x="772.5" y="-355.6485" font-family="Helvetica,sans-Serif" font-size="10.00" fill="#000000">_stdoutsink</text>
</a>
</g>
</g>
<!-- Node19&#45;&gt;Node20 -->
<g id="edge17" class="edge">
<title>Node19&#45;&gt;Node20</title>
<path fill="none" stroke="#191970" d="M626.8592,-398.1011C651.2196,-392.3384 682.7651,-384.8761 710.2657,-378.3706"/>
<polygon fill="#191970" stroke="#191970" points="711.268,-381.7301 720.1937,-376.022 709.6565,-374.9181 711.268,-381.7301"/>
</g>
<!-- Node21 -->
<g id="node18" class="node">
<title>Node21</title>
<g id="a_node18"><a xlink:href="../../d0/d58/classopenage_1_1log_1_1_log_sink_list.xhtml#a2d47416fab12651553b4b58c86fd6f84" target="_top" xlink:title="openage::log::LogSinkList\l::instance">
<polygon fill="#ffffff" stroke="#000000" points="708,-436.6485 708,-466.6485 837,-466.6485 837,-436.6485 708,-436.6485"/>
<text text-anchor="start" x="716" y="-454.6485" font-family="Helvetica,sans-Serif" font-size="10.00" fill="#000000">openage::log::LogSinkList</text>
<text text-anchor="middle" x="772.5" y="-443.6485" font-family="Helvetica,sans-Serif" font-size="10.00" fill="#000000">::instance</text>
</a>
</g>
</g>
<!-- Node19&#45;&gt;Node21 -->
<g id="edge18" class="edge">
<title>Node19&#45;&gt;Node21</title>
<path fill="none" stroke="#191970" d="M626.8592,-417.1958C647.8941,-422.1718 674.2863,-428.4151 698.8055,-434.2154"/>
<polygon fill="#191970" stroke="#191970" points="698.2774,-437.687 708.8146,-436.5831 699.8889,-430.875 698.2774,-437.687"/>
</g>
<!-- Node22 -->
<g id="node19" class="node">
<title>Node22</title>
<g id="a_node19"><a xlink:href="../../d0/d58/classopenage_1_1log_1_1_log_sink_list.xhtml#a8456b84ab55e1fe151c51438c5bfebdd" target="_top" xlink:title="openage::log::LogSinkList::log">
<polygon fill="#ffffff" stroke="#000000" points="698.5,-398.1485 698.5,-417.1485 846.5,-417.1485 846.5,-398.1485 698.5,-398.1485"/>
<text text-anchor="middle" x="772.5" y="-405.1485" font-family="Helvetica,sans-Serif" font-size="10.00" fill="#000000">openage::log::LogSinkList::log</text>
</a>
</g>
</g>
<!-- Node19&#45;&gt;Node22 -->
<g id="edge19" class="edge">
<title>Node19&#45;&gt;Node22</title>
<path fill="none" stroke="#191970" d="M658.1464,-407.6485C668.0476,-407.6485 678.2901,-407.6485 688.3914,-407.6485"/>
<polygon fill="#191970" stroke="#191970" points="688.4279,-411.1486 698.4278,-407.6485 688.4278,-404.1486 688.4279,-411.1486"/>
</g>
<!-- Node25 -->
<g id="node22" class="node">
<title>Node25</title>
<g id="a_node22"><a xlink:href="../../df/dea/classopenage_1_1_unit.xhtml#a3e12324401051119f44e212dae1a87ce" target="_top" xlink:title="returns attribute based on templated value ">
<polygon fill="#ffffff" stroke="#000000" points="538,-160.6485 538,-190.6485 635,-190.6485 635,-160.6485 538,-160.6485"/>
<text text-anchor="start" x="546" y="-178.6485" font-family="Helvetica,sans-Serif" font-size="10.00" fill="#000000">openage::Unit::get</text>
<text text-anchor="middle" x="586.5" y="-167.6485" font-family="Helvetica,sans-Serif" font-size="10.00" fill="#000000">_attribute</text>
</a>
</g>
</g>
<!-- Node24&#45;&gt;Node25 -->
<g id="edge22" class="edge">
<title>Node24&#45;&gt;Node25</title>
<path fill="none" stroke="#191970" d="M478.0842,-189.0482C494.4815,-187.0215 511.803,-184.8807 527.6728,-182.9192"/>
<polygon fill="#191970" stroke="#191970" points="528.3725,-186.3595 537.8676,-181.6592 527.5138,-179.4124 528.3725,-186.3595"/>
</g>
<!-- Node36 -->
<g id="node33" class="node">
<title>Node36</title>
<g id="a_node33"><a xlink:href="../../df/dea/classopenage_1_1_unit.xhtml#a6c56a8b7e9856a8e0535cacbe831bae7" target="_top" xlink:title="returns whether attribute is available ">
<polygon fill="#ffffff" stroke="#000000" points="904.5,-12.6485 904.5,-42.6485 1003.5,-42.6485 1003.5,-12.6485 904.5,-12.6485"/>
<text text-anchor="start" x="912.5" y="-30.6485" font-family="Helvetica,sans-Serif" font-size="10.00" fill="#000000">openage::Unit::has</text>
<text text-anchor="middle" x="954" y="-19.6485" font-family="Helvetica,sans-Serif" font-size="10.00" fill="#000000">_attribute</text>
</a>
</g>
</g>
<!-- Node24&#45;&gt;Node36 -->
<g id="edge38" class="edge">
<title>Node24&#45;&gt;Node36</title>
<path fill="none" stroke="#191970" d="M418.3024,-188.1085C452.6551,-155.4308 572.1792,-48.0206 695,-11.6485 761.1474,7.9404 840.8317,-1.6304 894.1904,-12.4852"/>
<polygon fill="#191970" stroke="#191970" points="893.661,-15.9505 904.1684,-14.5925 895.1074,-9.1016 893.661,-15.9505"/>
</g>
<!-- Node39 -->
<g id="node36" class="node">
<title>Node39</title>
<g id="a_node36"><a xlink:href="../../dd/d39/classopenage_1_1_unit_type.xhtml#ad295b572c0aa0399a04133dc61fb8a4b" target="_top" xlink:title="gets the unique id of this unit type ">
<polygon fill="#ffffff" stroke="#000000" points="530,-210.1485 530,-229.1485 643,-229.1485 643,-210.1485 530,-210.1485"/>
<text text-anchor="middle" x="586.5" y="-217.1485" font-family="Helvetica,sans-Serif" font-size="10.00" fill="#000000">openage::UnitType::id</text>
</a>
</g>
</g>
<!-- Node24&#45;&gt;Node39 -->
<g id="edge39" class="edge">
<title>Node24&#45;&gt;Node39</title>
<path fill="none" stroke="#191970" d="M478.0842,-206.2488C491.7596,-207.939 506.078,-209.7087 519.6609,-211.3875"/>
<polygon fill="#191970" stroke="#191970" points="519.5277,-214.8975 529.8816,-212.6507 520.3864,-207.9504 519.5277,-214.8975"/>
</g>
<!-- Node26 -->
<g id="node23" class="node">
<title>Node26</title>
<g id="a_node23"><a xlink:href="../../df/dea/classopenage_1_1_unit.xhtml#ad7f76de394d832d927a9e6d46bd3c93f" target="_top" xlink:title="begins unit removal by popping some actions ">
<polygon fill="#ffffff" stroke="#000000" points="707,-59.1485 707,-78.1485 838,-78.1485 838,-59.1485 707,-59.1485"/>
<text text-anchor="middle" x="772.5" y="-66.1485" font-family="Helvetica,sans-Serif" font-size="10.00" fill="#000000">openage::Unit::delete_unit</text>
</a>
</g>
</g>
<!-- Node25&#45;&gt;Node26 -->
<g id="edge23" class="edge">
<title>Node25&#45;&gt;Node26</title>
<path fill="none" stroke="#191970" d="M601.2021,-160.3777C620.8101,-140.89 657.4343,-107.4577 695,-88.6485 700.6263,-85.8314 706.6869,-83.3851 712.8522,-81.2667"/>
<polygon fill="#191970" stroke="#191970" points="714.0937,-84.5452 722.5793,-78.2013 711.9897,-77.8689 714.0937,-84.5452"/>
</g>
<!-- Node27 -->
<g id="node24" class="node">
<title>Node27</title>
<g id="a_node24"><a xlink:href="../../de/d8a/classopenage_1_1_attributes.xhtml#a08f927be3be6911e7cf77604f9ead10f" target="_top" xlink:title="Get the attribute based on the type. ">
<polygon fill="#ffffff" stroke="#000000" points="712,-21.1485 712,-40.1485 833,-40.1485 833,-21.1485 712,-21.1485"/>
<text text-anchor="middle" x="772.5" y="-28.1485" font-family="Helvetica,sans-Serif" font-size="10.00" fill="#000000">openage::Attributes::get</text>
</a>
</g>
</g>
<!-- Node25&#45;&gt;Node27 -->
<g id="edge24" class="edge">
<title>Node25&#45;&gt;Node27</title>
<path fill="none" stroke="#191970" d="M595.0935,-160.5601C611.1254,-133.8405 648.2447,-78.3243 695,-49.6485 698.587,-47.4485 702.4139,-45.5031 706.3733,-43.7828"/>
<polygon fill="#191970" stroke="#191970" points="707.72,-47.0149 715.8015,-40.1636 705.2114,-40.4798 707.72,-47.0149"/>
</g>
<!-- Node28 -->
<g id="node25" class="node">
<title>Node28</title>
<g id="a_node25"><a xlink:href="../../df/dea/classopenage_1_1_unit.xhtml#a2e9937d84fe91d95cbe273f6fe986068" target="_top" xlink:title="the container used when constructing this unit ">
<polygon fill="#ffffff" stroke="#000000" points="724,-299.6485 724,-329.6485 821,-329.6485 821,-299.6485 724,-299.6485"/>
<text text-anchor="start" x="732" y="-317.6485" font-family="Helvetica,sans-Serif" font-size="10.00" fill="#000000">openage::Unit::get</text>
<text text-anchor="middle" x="772.5" y="-306.6485" font-family="Helvetica,sans-Serif" font-size="10.00" fill="#000000">_container</text>
</a>
</g>
</g>
<!-- Node25&#45;&gt;Node28 -->
<g id="edge25" class="edge">
<title>Node25&#45;&gt;Node28</title>
<path fill="none" stroke="#191970" d="M635.3715,-186.056C643.9979,-189.5935 652.3363,-194.3246 659,-200.6485 689.9503,-230.0205 663.7572,-260.5876 695,-289.6485 700.5511,-294.8119 707.1772,-298.9091 714.1844,-302.1602"/>
<polygon fill="#191970" stroke="#191970" points="713.3276,-305.5889 723.9106,-306.0898 715.9498,-299.0986 713.3276,-305.5889"/>
</g>
<!-- Node29 -->
<g id="node26" class="node">
<title>Node29</title>
<g id="a_node26"><a xlink:href="../../df/dea/classopenage_1_1_unit.xhtml#adfea298b04684ab09dd8f499dabb8715" target="_top" xlink:title="get a reference which can check against the container to ensure this object still exists ...">
<polygon fill="#ffffff" stroke="#000000" points="716,-261.1485 716,-280.1485 829,-280.1485 829,-261.1485 716,-261.1485"/>
<text text-anchor="middle" x="772.5" y="-268.1485" font-family="Helvetica,sans-Serif" font-size="10.00" fill="#000000">openage::Unit::get_ref</text>
</a>
</g>
</g>
<!-- Node25&#45;&gt;Node29 -->
<g id="edge26" class="edge">
<title>Node25&#45;&gt;Node29</title>
<path fill="none" stroke="#191970" d="M635.0373,-187.6487C643.5014,-191.0268 651.8668,-195.2919 659,-200.6485 681.186,-217.3086 672.0742,-236.022 695,-251.6485 698.5414,-254.0624 702.3588,-256.1703 706.3336,-258.011"/>
<polygon fill="#191970" stroke="#191970" points="705.2548,-261.3496 715.8383,-261.8391 707.87,-254.8565 705.2548,-261.3496"/>
</g>
<!-- Node30 -->
<g id="node27" class="node">
<title>Node30</title>
<g id="a_node27"><a xlink:href="../../df/dea/classopenage_1_1_unit.xhtml#ae769f520dfdb148ec831c151a954a881" target="_top" xlink:title="Returns the unit&#39;s name as the LogSource name. ">
<polygon fill="#ffffff" stroke="#000000" points="695,-223.1485 695,-242.1485 850,-242.1485 850,-223.1485 695,-223.1485"/>
<text text-anchor="middle" x="772.5" y="-230.1485" font-family="Helvetica,sans-Serif" font-size="10.00" fill="#000000">openage::Unit::logsource_name</text>
</a>
</g>
</g>
<!-- Node25&#45;&gt;Node30 -->
<g id="edge27" class="edge">
<title>Node25&#45;&gt;Node30</title>
<path fill="none" stroke="#191970" d="M630.6261,-190.7502C640.0014,-193.9908 649.8348,-197.4136 659,-200.6485 675.0414,-206.3103 678.7161,-208.7274 695,-213.6485 703.1016,-216.0968 711.7502,-218.4587 720.2233,-220.6359"/>
<polygon fill="#191970" stroke="#191970" points="719.4949,-224.0616 730.0461,-223.1011 721.1988,-217.2721 719.4949,-224.0616"/>
</g>
<!-- Node32 -->
<g id="node29" class="node">
<title>Node32</title>
<g id="a_node29"><a xlink:href="../../df/dea/classopenage_1_1_unit.xhtml#ac5dcdf3180dcd4bdce67b765d8ef2134" target="_top" xlink:title="queues a command to be applied to this unit on the next update ">
<polygon fill="#ffffff" stroke="#000000" points="705.5,-185.1485 705.5,-204.1485 839.5,-204.1485 839.5,-185.1485 705.5,-185.1485"/>
<text text-anchor="middle" x="772.5" y="-192.1485" font-family="Helvetica,sans-Serif" font-size="10.00" fill="#000000">openage::Unit::queue_cmd</text>
</a>
</g>
</g>
<!-- Node25&#45;&gt;Node32 -->
<g id="edge29" class="edge">
<title>Node25&#45;&gt;Node32</title>
<path fill="none" stroke="#191970" d="M635.3693,-180.6405C653.6927,-182.5122 674.9916,-184.6879 695.2614,-186.7585"/>
<polygon fill="#191970" stroke="#191970" points="695.1238,-190.2626 705.4278,-187.797 695.8352,-183.2988 695.1238,-190.2626"/>
</g>
<!-- Node34 -->
<g id="node31" class="node">
<title>Node34</title>
<g id="a_node31"><a xlink:href="../../df/dea/classopenage_1_1_unit.xhtml#a9f53ef015fca7c42ff3bf9d0779145a3" target="_top" xlink:title="removes all actions above and including the first interuptable action this will stop any of the units...">
<polygon fill="#ffffff" stroke="#000000" points="721.5,-97.6485 721.5,-127.6485 823.5,-127.6485 823.5,-97.6485 721.5,-97.6485"/>
<text text-anchor="start" x="729.5" y="-115.6485" font-family="Helvetica,sans-Serif" font-size="10.00" fill="#000000">openage::Unit::stop</text>
<text text-anchor="middle" x="772.5" y="-104.6485" font-family="Helvetica,sans-Serif" font-size="10.00" fill="#000000">_actions</text>
</a>
</g>
</g>
<!-- Node25&#45;&gt;Node34 -->
<g id="edge31" class="edge">
<title>Node25&#45;&gt;Node34</title>
<path fill="none" stroke="#191970" d="M631.0516,-160.5584C657.2974,-151.6687 690.6856,-140.3598 718.432,-130.9618"/>
<polygon fill="#191970" stroke="#191970" points="719.6413,-134.2476 727.9899,-127.7245 717.3956,-127.6176 719.6413,-134.2476"/>
</g>
<!-- Node38 -->
<g id="node35" class="node">
<title>Node38</title>
<g id="a_node35"><a xlink:href="../../df/dea/classopenage_1_1_unit.xhtml#a238fb029bd4cc32e393506533facd976" target="_top" xlink:title="removes all gather actions without calling their on_complete actions this cancels the gathering actio...">
<polygon fill="#ffffff" stroke="#000000" points="903,-135.6485 903,-165.6485 1005,-165.6485 1005,-135.6485 903,-135.6485"/>
<text text-anchor="start" x="911" y="-153.6485" font-family="Helvetica,sans-Serif" font-size="10.00" fill="#000000">openage::Unit::stop</text>
<text text-anchor="middle" x="954" y="-142.6485" font-family="Helvetica,sans-Serif" font-size="10.00" fill="#000000">_gather</text>
</a>
</g>
</g>
<!-- Node25&#45;&gt;Node38 -->
<g id="edge37" class="edge">
<title>Node25&#45;&gt;Node38</title>
<path fill="none" stroke="#191970" d="M635.3012,-172.3287C701.6444,-167.8155 820.2954,-159.744 892.6063,-154.8249"/>
<polygon fill="#191970" stroke="#191970" points="893.1877,-158.2935 902.9271,-154.1228 892.7126,-151.3097 893.1877,-158.2935"/>
</g>
<!-- Node31 -->
<g id="node28" class="node">
<title>Node31</title>
<g id="a_node28"><a xlink:href="../../d8/dcc/namespacestd.xhtml#a26aa0f4be3a77ac5cc3ce0cabb545042" target="_top" xlink:title="std::to_string">
<polygon fill="#ffffff" stroke="#000000" points="917,-223.1485 917,-242.1485 991,-242.1485 991,-223.1485 917,-223.1485"/>
<text text-anchor="middle" x="954" y="-230.1485" font-family="Helvetica,sans-Serif" font-size="10.00" fill="#000000">std::to_string</text>
</a>
</g>
</g>
<!-- Node30&#45;&gt;Node31 -->
<g id="edge28" class="edge">
<title>Node30&#45;&gt;Node31</title>
<path fill="none" stroke="#191970" d="M850.2622,-232.6485C869.3849,-232.6485 889.2933,-232.6485 906.4958,-232.6485"/>
<polygon fill="#191970" stroke="#191970" points="906.826,-236.1486 916.8259,-232.6485 906.8259,-229.1486 906.826,-236.1486"/>
</g>
<!-- Node33 -->
<g id="node30" class="node">
<title>Node33</title>
<g id="a_node30"><a xlink:href="../../d8/dda/classopenage_1_1_command.xhtml#afbc0a60d82b9608e375c38c5e3fdf758" target="_top" xlink:title="the ability types allowed to use this command ">
<polygon fill="#ffffff" stroke="#000000" points="886,-185.1485 886,-204.1485 1022,-204.1485 1022,-185.1485 886,-185.1485"/>
<text text-anchor="middle" x="954" y="-192.1485" font-family="Helvetica,sans-Serif" font-size="10.00" fill="#000000">openage::Command::ability</text>
</a>
</g>
</g>
<!-- Node32&#45;&gt;Node33 -->
<g id="edge30" class="edge">
<title>Node32&#45;&gt;Node33</title>
<path fill="none" stroke="#191970" d="M839.5682,-194.6485C851.402,-194.6485 863.8134,-194.6485 875.9182,-194.6485"/>
<polygon fill="#191970" stroke="#191970" points="875.9946,-198.1486 885.9946,-194.6485 875.9945,-191.1486 875.9946,-198.1486"/>
</g>
<!-- Node35 -->
<g id="node32" class="node">
<title>Node35</title>
<g id="a_node32"><a xlink:href="../../df/dea/classopenage_1_1_unit.xhtml#aae0b3f53cb1d75823391322876d199ef" target="_top" xlink:title="erase from action specified by func to the end of the stack all actions erased will have the on_compl...">
<polygon fill="#ffffff" stroke="#000000" points="1066,-113.6485 1066,-143.6485 1173,-143.6485 1173,-113.6485 1066,-113.6485"/>
<text text-anchor="start" x="1074" y="-131.6485" font-family="Helvetica,sans-Serif" font-size="10.00" fill="#000000">openage::Unit::erase</text>
<text text-anchor="middle" x="1119.5" y="-120.6485" font-family="Helvetica,sans-Serif" font-size="10.00" fill="#000000">_after</text>
</a>
</g>
</g>
<!-- Node34&#45;&gt;Node35 -->
<g id="edge32" class="edge">
<title>Node34&#45;&gt;Node35</title>
<path fill="none" stroke="#191970" d="M823.701,-115.0093C885.2598,-117.8478 988.6108,-122.6132 1055.4095,-125.6933"/>
<polygon fill="#191970" stroke="#191970" points="1055.6539,-129.2082 1065.8045,-126.1726 1055.9764,-122.2156 1055.6539,-129.2082"/>
</g>
<!-- Node34&#45;&gt;Node36 -->
<g id="edge33" class="edge">
<title>Node34&#45;&gt;Node36</title>
<path fill="none" stroke="#191970" d="M823.5214,-97.8899C832.4701,-94.8222 841.6005,-91.3759 850,-87.6485 875.3934,-76.3796 902.5346,-60.5819 922.7211,-48.0251"/>
<polygon fill="#191970" stroke="#191970" points="924.5997,-50.9783 931.1977,-42.6887 920.8704,-45.0544 924.5997,-50.9783"/>
</g>
<!-- Node34&#45;&gt;Node38 -->
<g id="edge35" class="edge">
<title>Node34&#45;&gt;Node38</title>
<path fill="none" stroke="#191970" d="M823.5409,-123.3347C845.0957,-127.8476 870.3736,-133.1399 892.9096,-137.8582"/>
<polygon fill="#191970" stroke="#191970" points="892.2083,-141.2872 902.7134,-139.9108 893.6428,-134.4357 892.2083,-141.2872"/>
</g>
<!-- Node37 -->
<g id="node34" class="node">
<title>Node37</title>
<g id="a_node34"><a xlink:href="../../de/d8a/classopenage_1_1_attributes.xhtml#aee38f453ac85b68821958ad74cdd8df5" target="_top" xlink:title="Check if the attribute of the given type exists. ">
<polygon fill="#ffffff" stroke="#000000" points="1058,-18.1485 1058,-37.1485 1181,-37.1485 1181,-18.1485 1058,-18.1485"/>
<text text-anchor="middle" x="1119.5" y="-25.1485" font-family="Helvetica,sans-Serif" font-size="10.00" fill="#000000">openage::Attributes::has</text>
</a>
</g>
</g>
<!-- Node36&#45;&gt;Node37 -->
<g id="edge34" class="edge">
<title>Node36&#45;&gt;Node37</title>
<path fill="none" stroke="#191970" d="M1003.6555,-27.6485C1017.503,-27.6485 1032.8309,-27.6485 1047.6808,-27.6485"/>
<polygon fill="#191970" stroke="#191970" points="1047.8611,-31.1486 1057.861,-27.6485 1047.861,-24.1486 1047.8611,-31.1486"/>
</g>
<!-- Node38&#45;&gt;Node35 -->
<g id="edge36" class="edge">
<title>Node38&#45;&gt;Node35</title>
<path fill="none" stroke="#191970" d="M1005.0059,-143.8682C1020.9723,-141.7458 1038.7971,-139.3763 1055.5387,-137.1509"/>
<polygon fill="#191970" stroke="#191970" points="1056.3448,-140.5746 1065.7964,-135.7873 1055.4223,-133.6356 1056.3448,-140.5746"/>
</g>
</g>
</svg>
