<?xml version="1.0" encoding="UTF-8" standalone="no"?>
<!DOCTYPE svg PUBLIC "-//W3C//DTD SVG 1.1//EN"
 "http://www.w3.org/Graphics/SVG/1.1/DTD/svg11.dtd">
<!-- Generated by graphviz version 2.40.1 (20161225.0304)
 -->
<!-- Title: /mnt/c/Users/Jameson/Desktop/git/openage&#45;new&#45;doc&#45;system/libopenage/gui/guisys/private/platforms/context_extraction_x11.cpp Pages: 1 -->
<svg width="560pt" height="195pt"
 viewBox="0.00 0.00 559.50 195.00" xmlns="http://www.w3.org/2000/svg" xmlns:xlink="http://www.w3.org/1999/xlink">
<g id="graph0" class="graph" transform="scale(1 1) rotate(0) translate(4 191)">
<title>/mnt/c/Users/Jameson/Desktop/git/openage&#45;new&#45;doc&#45;system/libopenage/gui/guisys/private/platforms/context_extraction_x11.cpp</title>
<polygon fill="#ffffff" stroke="transparent" points="-4,4 -4,-191 555.5,-191 555.5,4 -4,4"/>
<!-- Node0 -->
<g id="node1" class="node">
<title>Node0</title>
<polygon fill="#bfbfbf" stroke="#000000" points="203.5,-123.5 203.5,-186.5 344.5,-186.5 344.5,-123.5 203.5,-123.5"/>
<text text-anchor="start" x="211.5" y="-174.5" font-family="Helvetica,sans-Serif" font-size="10.00" fill="#000000">/mnt/c/Users/Jameson</text>
<text text-anchor="start" x="211.5" y="-163.5" font-family="Helvetica,sans-Serif" font-size="10.00" fill="#000000">/Desktop/git/openage</text>
<text text-anchor="start" x="211.5" y="-152.5" font-family="Helvetica,sans-Serif" font-size="10.00" fill="#000000">&#45;new&#45;doc&#45;system/libopenage</text>
<text text-anchor="start" x="211.5" y="-141.5" font-family="Helvetica,sans-Serif" font-size="10.00" fill="#000000">/gui/guisys/private/platforms</text>
<text text-anchor="middle" x="274" y="-130.5" font-family="Helvetica,sans-Serif" font-size="10.00" fill="#000000">/context_extraction_x11.cpp</text>
</g>
<!-- Node1 -->
<g id="node2" class="node">
<title>Node1</title>
<polygon fill="#ffffff" stroke="#bfbfbf" points="4.5,-62 4.5,-81 53.5,-81 53.5,-62 4.5,-62"/>
<text text-anchor="middle" x="29" y="-69" font-family="Helvetica,sans-Serif" font-size="10.00" fill="#000000">cassert</text>
</g>
<!-- Node0&#45;&gt;Node1 -->
<g id="edge1" class="edge">
<title>Node0&#45;&gt;Node1</title>
<path fill="none" stroke="#191970" d="M203.0169,-134.7284C161.4558,-122.2427 108.2215,-105.1807 62,-87 60.601,-86.4497 59.1776,-85.8682 57.7463,-85.2658"/>
<polygon fill="#191970" stroke="#191970" points="58.922,-81.9585 48.3619,-81.1012 56.0826,-88.3567 58.922,-81.9585"/>
</g>
<!-- Node2 -->
<g id="node3" class="node">
<title>Node2</title>
<g id="a_node3"><a xlink:href="../../d8/d05/context__extraction_8h.xhtml" target="_top" xlink:title="context_extraction.h">
<polygon fill="#ffffff" stroke="#000000" points="71.5,-62 71.5,-81 176.5,-81 176.5,-62 71.5,-62"/>
<text text-anchor="middle" x="124" y="-69" font-family="Helvetica,sans-Serif" font-size="10.00" fill="#000000">context_extraction.h</text>
</a>
</g>
</g>
<!-- Node0&#45;&gt;Node2 -->
<g id="edge2" class="edge">
<title>Node0&#45;&gt;Node2</title>
<path fill="none" stroke="#191970" d="M217.2914,-123.4322C194.26,-110.6114 168.7776,-96.4262 150.2731,-86.1253"/>
<polygon fill="#191970" stroke="#191970" points="151.7222,-82.9263 141.2824,-81.1205 148.3175,-89.0425 151.7222,-82.9263"/>
</g>
<!-- Node7 -->
<g id="node8" class="node">
<title>Node7</title>
<polygon fill="#ffffff" stroke="#bfbfbf" points="194.5,-56.5 194.5,-86.5 353.5,-86.5 353.5,-56.5 194.5,-56.5"/>
<text text-anchor="start" x="202.5" y="-74.5" font-family="Helvetica,sans-Serif" font-size="10.00" fill="#000000">QtPlatformHeaders/QGLXNative</text>
<text text-anchor="middle" x="274" y="-63.5" font-family="Helvetica,sans-Serif" font-size="10.00" fill="#000000">Context</text>
</g>
<!-- Node0&#45;&gt;Node7 -->
<g id="edge7" class="edge">
<title>Node0&#45;&gt;Node7</title>
<path fill="none" stroke="#191970" d="M274,-123.4322C274,-114.6979 274,-105.3303 274,-96.989"/>
<polygon fill="#191970" stroke="#191970" points="277.5001,-96.7544 274,-86.7545 270.5001,-96.7545 277.5001,-96.7544"/>
</g>
<!-- Node8 -->
<g id="node9" class="node">
<title>Node8</title>
<polygon fill="#ffffff" stroke="#bfbfbf" points="371.5,-62 371.5,-81 480.5,-81 480.5,-62 371.5,-62"/>
<text text-anchor="middle" x="426" y="-69" font-family="Helvetica,sans-Serif" font-size="10.00" fill="#000000">SDL2/SDL_syswm.h</text>
</g>
<!-- Node0&#45;&gt;Node8 -->
<g id="edge8" class="edge">
<title>Node0&#45;&gt;Node8</title>
<path fill="none" stroke="#191970" d="M331.4647,-123.4322C354.9103,-110.5526 380.8623,-96.296 399.6342,-85.9838"/>
<polygon fill="#191970" stroke="#191970" points="401.4077,-89.003 408.4872,-81.1205 398.0374,-82.8677 401.4077,-89.003"/>
</g>
<!-- Node9 -->
<g id="node10" class="node">
<title>Node9</title>
<polygon fill="#ffffff" stroke="#bfbfbf" points="498.5,-62 498.5,-81 551.5,-81 551.5,-62 498.5,-62"/>
<text text-anchor="middle" x="525" y="-69" font-family="Helvetica,sans-Serif" font-size="10.00" fill="#000000">GL/glx.h</text>
</g>
<!-- Node0&#45;&gt;Node9 -->
<g id="edge9" class="edge">
<title>Node0&#45;&gt;Node9</title>
<path fill="none" stroke="#191970" d="M344.7193,-134.9142C387.231,-122.3029 442.1846,-105.0495 490,-87 491.6243,-86.3869 493.2816,-85.7374 494.9482,-85.0655"/>
<polygon fill="#191970" stroke="#191970" points="496.5761,-88.1776 504.4308,-81.0674 493.8565,-81.7275 496.5761,-88.1776"/>
</g>
<!-- Node3 -->
<g id="node4" class="node">
<title>Node3</title>
<polygon fill="#ffffff" stroke="#bfbfbf" points="0,-.5 0,-19.5 38,-19.5 38,-.5 0,-.5"/>
<text text-anchor="middle" x="19" y="-7.5" font-family="Helvetica,sans-Serif" font-size="10.00" fill="#000000">tuple</text>
</g>
<!-- Node2&#45;&gt;Node3 -->
<g id="edge3" class="edge">
<title>Node2&#45;&gt;Node3</title>
<path fill="none" stroke="#191970" d="M107.5938,-61.8906C90.5647,-51.9165 63.7159,-36.1908 44.0349,-24.6633"/>
<polygon fill="#191970" stroke="#191970" points="45.6888,-21.5759 35.291,-19.5419 42.151,-27.6161 45.6888,-21.5759"/>
</g>
<!-- Node4 -->
<g id="node5" class="node">
<title>Node4</title>
<polygon fill="#ffffff" stroke="#bfbfbf" points="56.5,-.5 56.5,-19.5 115.5,-19.5 115.5,-.5 56.5,-.5"/>
<text text-anchor="middle" x="86" y="-7.5" font-family="Helvetica,sans-Serif" font-size="10.00" fill="#000000">functional</text>
</g>
<!-- Node2&#45;&gt;Node4 -->
<g id="edge4" class="edge">
<title>Node2&#45;&gt;Node4</title>
<path fill="none" stroke="#191970" d="M118.0625,-61.8906C112.5733,-53.0068 104.2647,-39.5601 97.481,-28.5811"/>
<polygon fill="#191970" stroke="#191970" points="100.2551,-26.4122 92.0212,-19.7449 94.3002,-30.0917 100.2551,-26.4122"/>
</g>
<!-- Node5 -->
<g id="node6" class="node">
<title>Node5</title>
<polygon fill="#ffffff" stroke="#bfbfbf" points="133.5,-.5 133.5,-19.5 192.5,-19.5 192.5,-.5 133.5,-.5"/>
<text text-anchor="middle" x="163" y="-7.5" font-family="Helvetica,sans-Serif" font-size="10.00" fill="#000000">QWindow</text>
</g>
<!-- Node2&#45;&gt;Node5 -->
<g id="edge5" class="edge">
<title>Node2&#45;&gt;Node5</title>
<path fill="none" stroke="#191970" d="M130.0938,-61.8906C135.7843,-52.917 144.4272,-39.2879 151.4274,-28.2491"/>
<polygon fill="#191970" stroke="#191970" points="154.4207,-30.0644 156.8203,-19.7449 148.5091,-26.3155 154.4207,-30.0644"/>
</g>
<!-- Node6 -->
<g id="node7" class="node">
<title>Node6</title>
<polygon fill="#ffffff" stroke="#bfbfbf" points="210.5,-.5 210.5,-19.5 265.5,-19.5 265.5,-.5 210.5,-.5"/>
<text text-anchor="middle" x="238" y="-7.5" font-family="Helvetica,sans-Serif" font-size="10.00" fill="#000000">QVariant</text>
</g>
<!-- Node2&#45;&gt;Node6 -->
<g id="edge6" class="edge">
<title>Node2&#45;&gt;Node6</title>
<path fill="none" stroke="#191970" d="M141.8125,-61.8906C160.4685,-51.8262 189.9797,-35.9057 211.3974,-24.3514"/>
<polygon fill="#191970" stroke="#191970" points="213.1734,-27.3702 220.3126,-19.5419 209.8498,-21.2095 213.1734,-27.3702"/>
</g>
</g>
</svg>
