<?xml version="1.0" encoding="UTF-8" standalone="no"?>
<!DOCTYPE svg PUBLIC "-//W3C//DTD SVG 1.1//EN"
 "http://www.w3.org/Graphics/SVG/1.1/DTD/svg11.dtd">
<!-- Generated by graphviz version 2.40.1 (20161225.0304)
 -->
<!-- Title: openage::gui::MainArgsLink Pages: 1 -->
<svg width="178pt" height="325pt"
 viewBox="0.00 0.00 177.50 325.00" xmlns="http://www.w3.org/2000/svg" xmlns:xlink="http://www.w3.org/1999/xlink">
<g id="graph0" class="graph" transform="scale(1 1) rotate(0) translate(4 321)">
<title>openage::gui::MainArgsLink</title>
<polygon fill="#ffffff" stroke="transparent" points="-4,4 -4,-321 173.5,-321 173.5,4 -4,4"/>
<!-- Node2 -->
<g id="node1" class="node">
<title>Node2</title>
<polygon fill="#bfbfbf" stroke="#000000" points="5,-.5 5,-79.5 142,-79.5 142,-.5 5,-.5"/>
<text text-anchor="middle" x="73.5" y="-67.5" font-family="Helvetica,sans-Serif" font-size="10.00" fill="#000000">openage::gui::MainArgsLink</text>
<polyline fill="none" stroke="#000000" points="5,-60.5 142,-60.5 "/>
<text text-anchor="start" x="13" y="-48.5" font-family="Helvetica,sans-Serif" font-size="10.00" fill="#000000">+ assetDir</text>
<polyline fill="none" stroke="#000000" points="5,-41.5 142,-41.5 "/>
<text text-anchor="start" x="13" y="-29.5" font-family="Helvetica,sans-Serif" font-size="10.00" fill="#000000">+ MainArgsLink()</text>
<text text-anchor="start" x="13" y="-18.5" font-family="Helvetica,sans-Serif" font-size="10.00" fill="#000000">+ ~MainArgsLink()</text>
<text text-anchor="start" x="13" y="-7.5" font-family="Helvetica,sans-Serif" font-size="10.00" fill="#000000">+ provider()</text>
</g>
<!-- Node3 -->
<g id="node2" class="node">
<title>Node3</title>
<polygon fill="#ffffff" stroke="#bfbfbf" points="0,-193.5 0,-250.5 53,-250.5 53,-193.5 0,-193.5"/>
<text text-anchor="middle" x="26.5" y="-238.5" font-family="Helvetica,sans-Serif" font-size="10.00" fill="#000000">QObject</text>
<polyline fill="none" stroke="#bfbfbf" points="0,-231.5 53,-231.5 "/>
<text text-anchor="middle" x="26.5" y="-219.5" font-family="Helvetica,sans-Serif" font-size="10.00" fill="#000000"> </text>
<polyline fill="none" stroke="#bfbfbf" points="0,-212.5 53,-212.5 "/>
<text text-anchor="middle" x="26.5" y="-200.5" font-family="Helvetica,sans-Serif" font-size="10.00" fill="#000000"> </text>
</g>
<!-- Node3&#45;&gt;Node2 -->
<g id="edge1" class="edge">
<title>Node3&#45;&gt;Node2</title>
<path fill="none" stroke="#191970" d="M36.496,-183.2921C44.3848,-152.744 55.3468,-110.2954 63.2904,-79.5351"/>
<polygon fill="none" stroke="#191970" points="33.0589,-182.604 33.9473,-193.1616 39.8366,-184.3544 33.0589,-182.604"/>
</g>
<!-- Node4 -->
<g id="node3" class="node">
<title>Node4</title>
<g id="a_node3"><a xlink:href="../../dd/dc1/classopenage_1_1util_1_1_path.xhtml" target="_top" xlink:title="C++ pendant to the python util.fslike.path.Path. ">
<polygon fill="#ffffff" stroke="#000000" points="71.5,-127.5 71.5,-316.5 169.5,-316.5 169.5,-127.5 71.5,-127.5"/>
<text text-anchor="middle" x="120.5" y="-304.5" font-family="Helvetica,sans-Serif" font-size="10.00" fill="#000000">openage::util::Path</text>
<polyline fill="none" stroke="#000000" points="71.5,-297.5 169.5,-297.5 "/>
<text text-anchor="start" x="79.5" y="-285.5" font-family="Helvetica,sans-Serif" font-size="10.00" fill="#000000"># fsobj</text>
<text text-anchor="start" x="79.5" y="-274.5" font-family="Helvetica,sans-Serif" font-size="10.00" fill="#000000"># parts</text>
<polyline fill="none" stroke="#000000" points="71.5,-267.5 169.5,-267.5 "/>
<text text-anchor="start" x="79.5" y="-255.5" font-family="Helvetica,sans-Serif" font-size="10.00" fill="#000000">+ Path()</text>
<text text-anchor="start" x="79.5" y="-244.5" font-family="Helvetica,sans-Serif" font-size="10.00" fill="#000000">+ Path()</text>
<text text-anchor="start" x="79.5" y="-233.5" font-family="Helvetica,sans-Serif" font-size="10.00" fill="#000000">+ Path()</text>
<text text-anchor="start" x="79.5" y="-222.5" font-family="Helvetica,sans-Serif" font-size="10.00" fill="#000000">+ ~Path()</text>
<text text-anchor="start" x="79.5" y="-211.5" font-family="Helvetica,sans-Serif" font-size="10.00" fill="#000000">+ exists()</text>
<text text-anchor="start" x="79.5" y="-200.5" font-family="Helvetica,sans-Serif" font-size="10.00" fill="#000000">+ is_file()</text>
<text text-anchor="start" x="79.5" y="-189.5" font-family="Helvetica,sans-Serif" font-size="10.00" fill="#000000">+ is_dir()</text>
<text text-anchor="start" x="79.5" y="-178.5" font-family="Helvetica,sans-Serif" font-size="10.00" fill="#000000">+ writable()</text>
<text text-anchor="start" x="79.5" y="-167.5" font-family="Helvetica,sans-Serif" font-size="10.00" fill="#000000">+ list()</text>
<text text-anchor="start" x="79.5" y="-156.5" font-family="Helvetica,sans-Serif" font-size="10.00" fill="#000000">+ iterdir()</text>
<text text-anchor="start" x="79.5" y="-145.5" font-family="Helvetica,sans-Serif" font-size="10.00" fill="#000000">and 33 more...</text>
<text text-anchor="start" x="79.5" y="-134.5" font-family="Helvetica,sans-Serif" font-size="10.00" fill="#000000">&#45; get_native_path()</text>
</a>
</g>
</g>
<!-- Node4&#45;&gt;Node2 -->
<g id="edge2" class="edge">
<title>Node4&#45;&gt;Node2</title>
<path fill="none" stroke="#404040" d="M96.0364,-127.2685C92.8586,-114.9631 89.7044,-102.7489 86.8066,-91.5278"/>
<polygon fill="none" stroke="#404040" points="86.7745,-91.4031 81.4013,-86.5939 83.774,-79.7843 89.1472,-84.5935 86.7745,-91.4031"/>
<text text-anchor="middle" x="112.5" y="-101" font-family="Helvetica,sans-Serif" font-size="10.00" fill="#000000"> &#45;asset_dir</text>
</g>
</g>
</svg>
