<?xml version="1.0" encoding="UTF-8" standalone="no"?>
<!DOCTYPE svg PUBLIC "-//W3C//DTD SVG 1.1//EN"
 "http://www.w3.org/Graphics/SVG/1.1/DTD/svg11.dtd">
<!-- Generated by graphviz version 2.40.1 (20161225.0304)
 -->
<!-- Title: openage.util.fslike.path.Path.resolve_native_path_w Pages: 1 -->
<svg width="304pt" height="39pt"
 viewBox="0.00 0.00 304.00 39.00" xmlns="http://www.w3.org/2000/svg" xmlns:xlink="http://www.w3.org/1999/xlink">
<g id="graph0" class="graph" transform="scale(1 1) rotate(0) translate(4 35)">
<title>openage.util.fslike.path.Path.resolve_native_path_w</title>
<polygon fill="#ffffff" stroke="transparent" points="-4,4 -4,-35 300,-35 300,4 -4,4"/>
<!-- Node133 -->
<g id="node1" class="node">
<title>Node133</title>
<polygon fill="#bfbfbf" stroke="#000000" points="0,-.5 0,-30.5 140,-30.5 140,-.5 0,-.5"/>
<text text-anchor="start" x="8" y="-18.5" font-family="Helvetica,sans-Serif" font-size="10.00" fill="#000000">openage.util.fslike.path.</text>
<text text-anchor="middle" x="70" y="-7.5" font-family="Helvetica,sans-Serif" font-size="10.00" fill="#000000">Path.resolve_native_path_w</text>
</g>
<!-- Node134 -->
<g id="node2" class="node">
<title>Node134</title>
<g id="a_node2"><a xlink:href="../../d6/d6b/classopenage_1_1util_1_1fslike_1_1path_1_1_path.xhtml#a93d75129a9dd661125017028957b8ce5" target="_top" xlink:title="openage.util.fslike.path.\lPath._resolve_w">
<polygon fill="#ffffff" stroke="#000000" points="176,-.5 176,-30.5 296,-30.5 296,-.5 176,-.5"/>
<text text-anchor="start" x="184" y="-18.5" font-family="Helvetica,sans-Serif" font-size="10.00" fill="#000000">openage.util.fslike.path.</text>
<text text-anchor="middle" x="236" y="-7.5" font-family="Helvetica,sans-Serif" font-size="10.00" fill="#000000">Path._resolve_w</text>
</a>
</g>
</g>
<!-- Node133&#45;&gt;Node134 -->
<g id="edge1" class="edge">
<title>Node133&#45;&gt;Node134</title>
<path fill="none" stroke="#191970" d="M140.3989,-15.5C148.8172,-15.5 157.4125,-15.5 165.8275,-15.5"/>
<polygon fill="#191970" stroke="#191970" points="165.9786,-19.0001 175.9785,-15.5 165.9785,-12.0001 165.9786,-19.0001"/>
</g>
</g>
</svg>
