<?xml version="1.0" encoding="UTF-8" standalone="no"?>
<!DOCTYPE svg PUBLIC "-//W3C//DTD SVG 1.1//EN"
 "http://www.w3.org/Graphics/SVG/1.1/DTD/svg11.dtd">
<!-- Generated by graphviz version 2.40.1 (20161225.0304)
 -->
<!-- Title: openage::gui::GuiTexture::bind Pages: 1 -->
<svg width="754pt" height="39pt"
 viewBox="0.00 0.00 754.00 39.00" xmlns="http://www.w3.org/2000/svg" xmlns:xlink="http://www.w3.org/1999/xlink">
<g id="graph0" class="graph" transform="scale(1 1) rotate(0) translate(4 35)">
<title>openage::gui::GuiTexture::bind</title>
<polygon fill="#ffffff" stroke="transparent" points="-4,4 -4,-35 750,-35 750,4 -4,4"/>
<!-- Node4 -->
<g id="node1" class="node">
<title>Node4</title>
<polygon fill="#bfbfbf" stroke="#000000" points="0,-.5 0,-30.5 126,-30.5 126,-.5 0,-.5"/>
<text text-anchor="start" x="8" y="-18.5" font-family="Helvetica,sans-Serif" font-size="10.00" fill="#000000">openage::gui::GuiTexture</text>
<text text-anchor="middle" x="63" y="-7.5" font-family="Helvetica,sans-Serif" font-size="10.00" fill="#000000">::bind</text>
</g>
<!-- Node5 -->
<g id="node2" class="node">
<title>Node5</title>
<g id="a_node2"><a xlink:href="../../d9/d93/classopenage_1_1gui_1_1_gui_texture.xhtml#aae0bd80c66326d89472b98043e40ce4f" target="_top" xlink:title="openage::gui::GuiTexture\l::textureId">
<polygon fill="#ffffff" stroke="#000000" points="162,-.5 162,-30.5 288,-30.5 288,-.5 162,-.5"/>
<text text-anchor="start" x="170" y="-18.5" font-family="Helvetica,sans-Serif" font-size="10.00" fill="#000000">openage::gui::GuiTexture</text>
<text text-anchor="middle" x="225" y="-7.5" font-family="Helvetica,sans-Serif" font-size="10.00" fill="#000000">::textureId</text>
</a>
</g>
</g>
<!-- Node4&#45;&gt;Node5 -->
<g id="edge1" class="edge">
<title>Node4&#45;&gt;Node5</title>
<path fill="none" stroke="#191970" d="M126.0973,-15.5C134.4345,-15.5 143.0381,-15.5 151.5304,-15.5"/>
<polygon fill="#191970" stroke="#191970" points="151.8084,-19.0001 161.8084,-15.5 151.8084,-12.0001 151.8084,-19.0001"/>
</g>
<!-- Node6 -->
<g id="node3" class="node">
<title>Node6</title>
<g id="a_node3"><a xlink:href="../../d4/d5b/classopenage_1_1_texture.xhtml#a4a39cc1e433e023254dabef12fe20490" target="_top" xlink:title="returns the opengl texture id of this texture. ">
<polygon fill="#ffffff" stroke="#000000" points="324,-.5 324,-30.5 436,-30.5 436,-.5 324,-.5"/>
<text text-anchor="start" x="332" y="-18.5" font-family="Helvetica,sans-Serif" font-size="10.00" fill="#000000">openage::Texture::get</text>
<text text-anchor="middle" x="380" y="-7.5" font-family="Helvetica,sans-Serif" font-size="10.00" fill="#000000">_texture_id</text>
</a>
</g>
</g>
<!-- Node5&#45;&gt;Node6 -->
<g id="edge2" class="edge">
<title>Node5&#45;&gt;Node6</title>
<path fill="none" stroke="#191970" d="M288.0444,-15.5C296.5057,-15.5 305.2053,-15.5 313.7203,-15.5"/>
<polygon fill="#191970" stroke="#191970" points="313.9867,-19.0001 323.9867,-15.5 313.9866,-12.0001 313.9867,-19.0001"/>
</g>
<!-- Node7 -->
<g id="node4" class="node">
<title>Node7</title>
<g id="a_node4"><a xlink:href="../../d4/d5b/classopenage_1_1_texture.xhtml#a3360ead41cd7e078088ae3a5cdf4606b" target="_top" xlink:title="The texture loadin must occur on the thread that manages the gl context. ">
<polygon fill="#ffffff" stroke="#000000" points="472,-.5 472,-30.5 588,-30.5 588,-.5 472,-.5"/>
<text text-anchor="start" x="480" y="-18.5" font-family="Helvetica,sans-Serif" font-size="10.00" fill="#000000">openage::Texture::load</text>
<text text-anchor="middle" x="530" y="-7.5" font-family="Helvetica,sans-Serif" font-size="10.00" fill="#000000">_in_glthread</text>
</a>
</g>
</g>
<!-- Node6&#45;&gt;Node7 -->
<g id="edge3" class="edge">
<title>Node6&#45;&gt;Node7</title>
<path fill="none" stroke="#191970" d="M436.2812,-15.5C444.5554,-15.5 453.1542,-15.5 461.6389,-15.5"/>
<polygon fill="#191970" stroke="#191970" points="461.9021,-19.0001 471.9021,-15.5 461.9021,-12.0001 461.9021,-19.0001"/>
</g>
<!-- Node8 -->
<g id="node5" class="node">
<title>Node8</title>
<g id="a_node5"><a xlink:href="../../d4/d5b/classopenage_1_1_texture.xhtml#a210c36d673ca296a040fdb72da5ee89f" target="_top" xlink:title="openage::Texture::make\l_gl_texture">
<polygon fill="#ffffff" stroke="#000000" points="624,-.5 624,-30.5 746,-30.5 746,-.5 624,-.5"/>
<text text-anchor="start" x="632" y="-18.5" font-family="Helvetica,sans-Serif" font-size="10.00" fill="#000000">openage::Texture::make</text>
<text text-anchor="middle" x="685" y="-7.5" font-family="Helvetica,sans-Serif" font-size="10.00" fill="#000000">_gl_texture</text>
</a>
</g>
</g>
<!-- Node7&#45;&gt;Node8 -->
<g id="edge4" class="edge">
<title>Node7&#45;&gt;Node8</title>
<path fill="none" stroke="#191970" d="M588.1573,-15.5C596.5542,-15.5 605.2748,-15.5 613.8893,-15.5"/>
<polygon fill="#191970" stroke="#191970" points="613.9277,-19.0001 623.9276,-15.5 613.9276,-12.0001 613.9277,-19.0001"/>
</g>
</g>
</svg>
