<?xml version="1.0" encoding="UTF-8" standalone="no"?>
<!DOCTYPE svg PUBLIC "-//W3C//DTD SVG 1.1//EN"
 "http://www.w3.org/Graphics/SVG/1.1/DTD/svg11.dtd">
<!-- Generated by graphviz version 2.40.1 (20161225.0304)
 -->
<!-- Title: openage::event::demo::Physics::process_input Pages: 1 -->
<svg width="282pt" height="39pt"
 viewBox="0.00 0.00 282.00 39.00" xmlns="http://www.w3.org/2000/svg" xmlns:xlink="http://www.w3.org/1999/xlink">
<g id="graph0" class="graph" transform="scale(1 1) rotate(0) translate(4 35)">
<title>openage::event::demo::Physics::process_input</title>
<polygon fill="#ffffff" stroke="transparent" points="-4,4 -4,-35 278,-35 278,4 -4,4"/>
<!-- Node27 -->
<g id="node1" class="node">
<title>Node27</title>
<polygon fill="#bfbfbf" stroke="#000000" points="0,-.5 0,-30.5 125,-30.5 125,-.5 0,-.5"/>
<text text-anchor="start" x="8" y="-18.5" font-family="Helvetica,sans-Serif" font-size="10.00" fill="#000000">openage::event::demo</text>
<text text-anchor="middle" x="62.5" y="-7.5" font-family="Helvetica,sans-Serif" font-size="10.00" fill="#000000">::Physics::process_input</text>
</g>
<!-- Node28 -->
<g id="node2" class="node">
<title>Node28</title>
<g id="a_node2"><a xlink:href="../../df/d0a/namespaceopenage_1_1event_1_1demo.xhtml#a941b2bcbd6e44b20cc352eb1c2b64068" target="_top" xlink:title="openage::event::demo\l::curvepong">
<polygon fill="#ffffff" stroke="#000000" points="161,-.5 161,-30.5 274,-30.5 274,-.5 161,-.5"/>
<text text-anchor="start" x="169" y="-18.5" font-family="Helvetica,sans-Serif" font-size="10.00" fill="#000000">openage::event::demo</text>
<text text-anchor="middle" x="217.5" y="-7.5" font-family="Helvetica,sans-Serif" font-size="10.00" fill="#000000">::curvepong</text>
</a>
</g>
</g>
<!-- Node27&#45;&gt;Node28 -->
<g id="edge1" class="edge">
<title>Node27&#45;&gt;Node28</title>
<path fill="none" stroke="#191970" d="M135.1101,-15.5C143.6922,-15.5 152.3547,-15.5 160.6742,-15.5"/>
<polygon fill="#191970" stroke="#191970" points="135.0977,-12.0001 125.0977,-15.5 135.0976,-19.0001 135.0977,-12.0001"/>
</g>
</g>
</svg>
