<?xml version="1.0" encoding="UTF-8" standalone="no"?>
<!DOCTYPE svg PUBLIC "-//W3C//DTD SVG 1.1//EN"
 "http://www.w3.org/Graphics/SVG/1.1/DTD/svg11.dtd">
<!-- Generated by graphviz version 2.40.1 (20161225.0304)
 -->
<!-- Title: openage::gui::EngineLink Pages: 1 -->
<svg width="176pt" height="353pt"
 viewBox="0.00 0.00 175.50 353.00" xmlns="http://www.w3.org/2000/svg" xmlns:xlink="http://www.w3.org/1999/xlink">
<g id="graph0" class="graph" transform="scale(1 1) rotate(0) translate(4 349)">
<title>openage::gui::EngineLink</title>
<polygon fill="#ffffff" stroke="transparent" points="-4,4 -4,-349 171.5,-349 171.5,4 -4,4"/>
<!-- Node0 -->
<g id="node1" class="node">
<title>Node0</title>
<polygon fill="#bfbfbf" stroke="#000000" points="2.5,-.5 2.5,-145.5 142.5,-145.5 142.5,-.5 2.5,-.5"/>
<text text-anchor="middle" x="72.5" y="-133.5" font-family="Helvetica,sans-Serif" font-size="10.00" fill="#000000">openage::gui::EngineLink</text>
<polyline fill="none" stroke="#000000" points="2.5,-126.5 142.5,-126.5 "/>
<text text-anchor="start" x="10.5" y="-114.5" font-family="Helvetica,sans-Serif" font-size="10.00" fill="#000000">+ globalBinds</text>
<text text-anchor="start" x="10.5" y="-103.5" font-family="Helvetica,sans-Serif" font-size="10.00" fill="#000000">&#45; core</text>
<text text-anchor="start" x="10.5" y="-92.5" font-family="Helvetica,sans-Serif" font-size="10.00" fill="#000000">&#45; global_binds</text>
<polyline fill="none" stroke="#000000" points="2.5,-85.5 142.5,-85.5 "/>
<text text-anchor="start" x="10.5" y="-73.5" font-family="Helvetica,sans-Serif" font-size="10.00" fill="#000000">+ EngineLink()</text>
<text text-anchor="start" x="10.5" y="-62.5" font-family="Helvetica,sans-Serif" font-size="10.00" fill="#000000">+ ~EngineLink()</text>
<text text-anchor="start" x="10.5" y="-51.5" font-family="Helvetica,sans-Serif" font-size="10.00" fill="#000000">+ get()</text>
<text text-anchor="start" x="10.5" y="-40.5" font-family="Helvetica,sans-Serif" font-size="10.00" fill="#000000">+ get_global_binds()</text>
<text text-anchor="start" x="10.5" y="-29.5" font-family="Helvetica,sans-Serif" font-size="10.00" fill="#000000">+ stop()</text>
<text text-anchor="start" x="10.5" y="-18.5" font-family="Helvetica,sans-Serif" font-size="10.00" fill="#000000">+ provider()</text>
<text text-anchor="start" x="10.5" y="-7.5" font-family="Helvetica,sans-Serif" font-size="10.00" fill="#000000">&#45; on_global_binds_changed()</text>
</g>
<!-- Node1 -->
<g id="node2" class="node">
<title>Node1</title>
<g id="a_node2"><a xlink:href="../../da/de2/classqtsdl_1_1_gui_singleton_item.xhtml" target="_top" xlink:title="{qtsdl::GuiSingletonItem\n||+ GuiSingletonItem()\l+ ~GuiSingletonItem()\l}">
<polygon fill="#ffffff" stroke="#000000" points="13,-182.5 13,-250.5 132,-250.5 132,-182.5 13,-182.5"/>
<text text-anchor="middle" x="72.5" y="-238.5" font-family="Helvetica,sans-Serif" font-size="10.00" fill="#000000">qtsdl::GuiSingletonItem</text>
<polyline fill="none" stroke="#000000" points="13,-231.5 132,-231.5 "/>
<text text-anchor="middle" x="72.5" y="-219.5" font-family="Helvetica,sans-Serif" font-size="10.00" fill="#000000"> </text>
<polyline fill="none" stroke="#000000" points="13,-212.5 132,-212.5 "/>
<text text-anchor="start" x="21" y="-200.5" font-family="Helvetica,sans-Serif" font-size="10.00" fill="#000000">+ GuiSingletonItem()</text>
<text text-anchor="start" x="21" y="-189.5" font-family="Helvetica,sans-Serif" font-size="10.00" fill="#000000">+ ~GuiSingletonItem()</text>
</a>
</g>
</g>
<!-- Node1&#45;&gt;Node0 -->
<g id="edge1" class="edge">
<title>Node1&#45;&gt;Node0</title>
<path fill="none" stroke="#191970" d="M72.5,-172.4784C72.5,-163.9872 72.5,-154.8836 72.5,-145.7583"/>
<polygon fill="none" stroke="#191970" points="69.0001,-172.4925 72.5,-182.4925 76.0001,-172.4925 69.0001,-172.4925"/>
</g>
<!-- Node2 -->
<g id="node3" class="node">
<title>Node2</title>
<polygon fill="#ffffff" stroke="#bfbfbf" points="0,-287.5 0,-344.5 53,-344.5 53,-287.5 0,-287.5"/>
<text text-anchor="middle" x="26.5" y="-332.5" font-family="Helvetica,sans-Serif" font-size="10.00" fill="#000000">QObject</text>
<polyline fill="none" stroke="#bfbfbf" points="0,-325.5 53,-325.5 "/>
<text text-anchor="middle" x="26.5" y="-313.5" font-family="Helvetica,sans-Serif" font-size="10.00" fill="#000000"> </text>
<polyline fill="none" stroke="#bfbfbf" points="0,-306.5 53,-306.5 "/>
<text text-anchor="middle" x="26.5" y="-294.5" font-family="Helvetica,sans-Serif" font-size="10.00" fill="#000000"> </text>
</g>
<!-- Node2&#45;&gt;Node1 -->
<g id="edge2" class="edge">
<title>Node2&#45;&gt;Node1</title>
<path fill="none" stroke="#191970" d="M43.9345,-278.2885C48.1311,-269.211 52.5907,-259.5646 56.7076,-250.6596"/>
<polygon fill="none" stroke="#191970" points="40.7013,-276.9416 39.6818,-287.4873 47.0551,-279.8791 40.7013,-276.9416"/>
</g>
<!-- Node3 -->
<g id="node4" class="node">
<title>Node3</title>
<g id="a_node4"><a xlink:href="../../da/dff/classqtsdl_1_1_gui_item_link.xhtml" target="_top" xlink:title="Base for QObject wrapper of the domain&#45;specific classes. ">
<polygon fill="#ffffff" stroke="#000000" points="71.5,-287.5 71.5,-344.5 167.5,-344.5 167.5,-287.5 71.5,-287.5"/>
<text text-anchor="middle" x="119.5" y="-332.5" font-family="Helvetica,sans-Serif" font-size="10.00" fill="#000000">qtsdl::GuiItemLink</text>
<polyline fill="none" stroke="#000000" points="71.5,-325.5 167.5,-325.5 "/>
<text text-anchor="middle" x="119.5" y="-313.5" font-family="Helvetica,sans-Serif" font-size="10.00" fill="#000000"> </text>
<polyline fill="none" stroke="#000000" points="71.5,-306.5 167.5,-306.5 "/>
<text text-anchor="start" x="79.5" y="-294.5" font-family="Helvetica,sans-Serif" font-size="10.00" fill="#000000">+ ~GuiItemLink()</text>
</a>
</g>
</g>
<!-- Node3&#45;&gt;Node1 -->
<g id="edge3" class="edge">
<title>Node3&#45;&gt;Node1</title>
<path fill="none" stroke="#191970" d="M101.6865,-278.2885C97.3987,-269.211 92.8421,-259.5646 88.6357,-250.6596"/>
<polygon fill="none" stroke="#191970" points="98.5958,-279.9402 106.0317,-287.4873 104.9252,-276.9504 98.5958,-279.9402"/>
</g>
</g>
</svg>
