<?xml version="1.0" encoding="UTF-8" standalone="no"?>
<!DOCTYPE svg PUBLIC "-//W3C//DTD SVG 1.1//EN"
 "http://www.w3.org/Graphics/SVG/1.1/DTD/svg11.dtd">
<!-- Generated by graphviz version 2.40.1 (20161225.0304)
 -->
<!-- Title: openage::renderer::FontManager::get_font_filename Pages: 1 -->
<svg width="691pt" height="105pt"
 viewBox="0.00 0.00 691.00 105.00" xmlns="http://www.w3.org/2000/svg" xmlns:xlink="http://www.w3.org/1999/xlink">
<g id="graph0" class="graph" transform="scale(1 1) rotate(0) translate(4 101)">
<title>openage::renderer::FontManager::get_font_filename</title>
<polygon fill="#ffffff" stroke="transparent" points="-4,4 -4,-101 687,-101 687,4 -4,4"/>
<!-- Node27 -->
<g id="node1" class="node">
<title>Node27</title>
<polygon fill="#bfbfbf" stroke="#000000" points="0,-27.5 0,-68.5 115,-68.5 115,-27.5 0,-27.5"/>
<text text-anchor="start" x="8" y="-56.5" font-family="Helvetica,sans-Serif" font-size="10.00" fill="#000000">openage::renderer::</text>
<text text-anchor="start" x="8" y="-45.5" font-family="Helvetica,sans-Serif" font-size="10.00" fill="#000000">FontManager::get_font</text>
<text text-anchor="middle" x="57.5" y="-34.5" font-family="Helvetica,sans-Serif" font-size="10.00" fill="#000000">_filename</text>
</g>
<!-- Node28 -->
<g id="node2" class="node">
<title>Node28</title>
<g id="a_node2"><a xlink:href="../../d4/d2e/structopenage_1_1renderer_1_1font__description.xhtml#a9b6afa901b4a5a7b433aa014ce4b6929" target="_top" xlink:title="Constructs a font_description instance. ">
<polygon fill="#ffffff" stroke="#000000" points="154.5,-55.5 154.5,-96.5 262.5,-96.5 262.5,-55.5 154.5,-55.5"/>
<text text-anchor="start" x="162.5" y="-84.5" font-family="Helvetica,sans-Serif" font-size="10.00" fill="#000000">openage::renderer::</text>
<text text-anchor="start" x="162.5" y="-73.5" font-family="Helvetica,sans-Serif" font-size="10.00" fill="#000000">font_description::font</text>
<text text-anchor="middle" x="208.5" y="-62.5" font-family="Helvetica,sans-Serif" font-size="10.00" fill="#000000">_description</text>
</a>
</g>
</g>
<!-- Node27&#45;&gt;Node28 -->
<g id="edge1" class="edge">
<title>Node27&#45;&gt;Node28</title>
<path fill="none" stroke="#191970" d="M125.0638,-60.5284C134.7925,-62.3324 144.6989,-64.1693 154.1272,-65.9176"/>
<polygon fill="#191970" stroke="#191970" points="125.4879,-57.0474 115.0174,-58.6655 124.2116,-63.9301 125.4879,-57.0474"/>
</g>
<!-- Node29 -->
<g id="node3" class="node">
<title>Node29</title>
<g id="a_node3"><a xlink:href="../../d9/d2e/classopenage_1_1renderer_1_1_font_manager.xhtml#a099c7a53ec483208d26f1d33c52dcbef" target="_top" xlink:title="Retrieves a font. ">
<polygon fill="#ffffff" stroke="#000000" points="151,-6 151,-36 266,-36 266,-6 151,-6"/>
<text text-anchor="start" x="159" y="-24" font-family="Helvetica,sans-Serif" font-size="10.00" fill="#000000">openage::renderer::</text>
<text text-anchor="middle" x="208.5" y="-13" font-family="Helvetica,sans-Serif" font-size="10.00" fill="#000000">FontManager::get_font</text>
</a>
</g>
</g>
<!-- Node27&#45;&gt;Node29 -->
<g id="edge2" class="edge">
<title>Node27&#45;&gt;Node29</title>
<path fill="none" stroke="#191970" d="M125.0519,-35.9212C133.6779,-34.3788 142.4438,-32.8114 150.8925,-31.3007"/>
<polygon fill="#191970" stroke="#191970" points="124.2452,-32.5098 115.0174,-37.7154 125.4773,-39.4005 124.2452,-32.5098"/>
</g>
<!-- Node30 -->
<g id="node4" class="node">
<title>Node30</title>
<g id="a_node4"><a xlink:href="../../dc/dbb/namespaceopenage_1_1renderer_1_1tests.xhtml#a4039c91caacfac63dd3f6c5a9b1c44c2" target="_top" xlink:title="openage::renderer::\ltests::font_manager\l_test_get_font">
<polygon fill="#ffffff" stroke="#000000" points="302,-.5 302,-41.5 406,-41.5 406,-.5 302,-.5"/>
<text text-anchor="start" x="310" y="-29.5" font-family="Helvetica,sans-Serif" font-size="10.00" fill="#000000">openage::renderer::</text>
<text text-anchor="start" x="310" y="-18.5" font-family="Helvetica,sans-Serif" font-size="10.00" fill="#000000">tests::font_manager</text>
<text text-anchor="middle" x="354" y="-7.5" font-family="Helvetica,sans-Serif" font-size="10.00" fill="#000000">_test_get_font</text>
</a>
</g>
</g>
<!-- Node29&#45;&gt;Node30 -->
<g id="edge3" class="edge">
<title>Node29&#45;&gt;Node30</title>
<path fill="none" stroke="#191970" d="M276.0276,-21C284.628,-21 293.3262,-21 301.6382,-21"/>
<polygon fill="#191970" stroke="#191970" points="276.0055,-17.5001 266.0055,-21 276.0054,-24.5001 276.0055,-17.5001"/>
</g>
<!-- Node31 -->
<g id="node5" class="node">
<title>Node31</title>
<g id="a_node5"><a xlink:href="../../dc/dbb/namespaceopenage_1_1renderer_1_1tests.xhtml#a108b5241d922a4e8936bb243998e9055" target="_top" xlink:title="openage::renderer::\ltests::font_manager">
<polygon fill="#ffffff" stroke="#000000" points="442,-6 442,-36 546,-36 546,-6 442,-6"/>
<text text-anchor="start" x="450" y="-24" font-family="Helvetica,sans-Serif" font-size="10.00" fill="#000000">openage::renderer::</text>
<text text-anchor="middle" x="494" y="-13" font-family="Helvetica,sans-Serif" font-size="10.00" fill="#000000">tests::font_manager</text>
</a>
</g>
</g>
<!-- Node30&#45;&gt;Node31 -->
<g id="edge4" class="edge">
<title>Node30&#45;&gt;Node31</title>
<path fill="none" stroke="#191970" d="M416.3869,-14.2856C424.8847,-14.2058 433.5339,-14.2601 441.8256,-14.4484"/>
<polygon fill="#191970" stroke="#191970" points="416.0736,-10.7901 406.1308,-14.4494 416.1855,-17.7892 416.0736,-10.7901"/>
</g>
<!-- Node31&#45;&gt;Node30 -->
<g id="edge5" class="edge">
<title>Node31&#45;&gt;Node30</title>
<path fill="none" stroke="#191970" d="M431.5685,-27.7148C423.0702,-27.7941 414.4213,-27.7394 406.1308,-27.5506"/>
<polygon fill="#191970" stroke="#191970" points="431.8826,-31.2103 441.8256,-27.5516 431.7712,-24.2112 431.8826,-31.2103"/>
</g>
<!-- Node32 -->
<g id="node6" class="node">
<title>Node32</title>
<g id="a_node6"><a xlink:href="../../df/db8/classopenage_1_1renderer_1_1_font.xhtml#af575cb844edc48fdb5543a760732d383" target="_top" xlink:title="This constructor is used by the font manager to create a new font instance from the description...">
<polygon fill="#ffffff" stroke="#000000" points="582,-6 582,-36 683,-36 683,-6 582,-6"/>
<text text-anchor="start" x="590" y="-24" font-family="Helvetica,sans-Serif" font-size="10.00" fill="#000000">openage::renderer::</text>
<text text-anchor="middle" x="632.5" y="-13" font-family="Helvetica,sans-Serif" font-size="10.00" fill="#000000">Font::Font</text>
</a>
</g>
</g>
<!-- Node31&#45;&gt;Node32 -->
<g id="edge6" class="edge">
<title>Node31&#45;&gt;Node32</title>
<path fill="none" stroke="#191970" d="M556.5937,-21C565.0656,-21 573.6716,-21 581.8982,-21"/>
<polygon fill="#191970" stroke="#191970" points="556.3609,-17.5001 546.3609,-21 556.3609,-24.5001 556.3609,-17.5001"/>
</g>
</g>
</svg>
