<?xml version="1.0" encoding="UTF-8" standalone="no"?>
<!DOCTYPE svg PUBLIC "-//W3C//DTD SVG 1.1//EN"
 "http://www.w3.org/Graphics/SVG/1.1/DTD/svg11.dtd">
<!-- Generated by graphviz version 2.40.1 (20161225.0304)
 -->
<!-- Title: openage::ProjectileProducer::ProjectileProducer Pages: 1 -->
<svg width="556pt" height="39pt"
 viewBox="0.00 0.00 556.00 39.00" xmlns="http://www.w3.org/2000/svg" xmlns:xlink="http://www.w3.org/1999/xlink">
<g id="graph0" class="graph" transform="scale(1 1) rotate(0) translate(4 35)">
<title>openage::ProjectileProducer::ProjectileProducer</title>
<polygon fill="#ffffff" stroke="transparent" points="-4,4 -4,-35 552,-35 552,4 -4,4"/>
<!-- Node0 -->
<g id="node1" class="node">
<title>Node0</title>
<polygon fill="#bfbfbf" stroke="#000000" points="0,-.5 0,-30.5 139,-30.5 139,-.5 0,-.5"/>
<text text-anchor="start" x="8" y="-18.5" font-family="Helvetica,sans-Serif" font-size="10.00" fill="#000000">openage::ProjectileProducer</text>
<text text-anchor="middle" x="69.5" y="-7.5" font-family="Helvetica,sans-Serif" font-size="10.00" fill="#000000">::ProjectileProducer</text>
</g>
<!-- Node1 -->
<g id="node2" class="node">
<title>Node1</title>
<g id="a_node2"><a xlink:href="../../da/d23/namespaceopenage.xhtml#ae2e68c0049a3b6c5671c8006c6a74f84" target="_top" xlink:title="Generate a isometric circle outline texture. ">
<polygon fill="#ffffff" stroke="#000000" points="175,-6 175,-25 291,-25 291,-6 175,-6"/>
<text text-anchor="middle" x="233" y="-13" font-family="Helvetica,sans-Serif" font-size="10.00" fill="#000000">openage::radial_outline</text>
</a>
</g>
</g>
<!-- Node0&#45;&gt;Node1 -->
<g id="edge1" class="edge">
<title>Node0&#45;&gt;Node1</title>
<path fill="none" stroke="#191970" d="M139.313,-15.5C147.7666,-15.5 156.3943,-15.5 164.8239,-15.5"/>
<polygon fill="#191970" stroke="#191970" points="164.983,-19.0001 174.9829,-15.5 164.9829,-12.0001 164.983,-19.0001"/>
</g>
<!-- Node2 -->
<g id="node3" class="node">
<title>Node2</title>
<g id="a_node3"><a xlink:href="../../d8/dcc/namespacestd.xhtml#a8058d6b15a78f7a977945ee4d62de903" target="_top" xlink:title="std::hypot">
<polygon fill="#ffffff" stroke="#000000" points="327,-6 327,-25 387,-25 387,-6 327,-6"/>
<text text-anchor="middle" x="357" y="-13" font-family="Helvetica,sans-Serif" font-size="10.00" fill="#000000">std::hypot</text>
</a>
</g>
</g>
<!-- Node1&#45;&gt;Node2 -->
<g id="edge2" class="edge">
<title>Node1&#45;&gt;Node2</title>
<path fill="none" stroke="#191970" d="M291.0064,-15.5C299.693,-15.5 308.4845,-15.5 316.6952,-15.5"/>
<polygon fill="#191970" stroke="#191970" points="316.7331,-19.0001 326.7331,-15.5 316.7331,-12.0001 316.7331,-19.0001"/>
</g>
<!-- Node3 -->
<g id="node4" class="node">
<title>Node3</title>
<g id="a_node4"><a xlink:href="../../dc/d65/classopenage_1_1util_1_1_fixed_point.xhtml#aa0eb736578910b123ea19652c670daab" target="_top" xlink:title="openage::util::FixedPoint\l::hypot">
<polygon fill="#ffffff" stroke="#000000" points="423,-.5 423,-30.5 548,-30.5 548,-.5 423,-.5"/>
<text text-anchor="start" x="431" y="-18.5" font-family="Helvetica,sans-Serif" font-size="10.00" fill="#000000">openage::util::FixedPoint</text>
<text text-anchor="middle" x="485.5" y="-7.5" font-family="Helvetica,sans-Serif" font-size="10.00" fill="#000000">::hypot</text>
</a>
</g>
</g>
<!-- Node2&#45;&gt;Node3 -->
<g id="edge3" class="edge">
<title>Node2&#45;&gt;Node3</title>
<path fill="none" stroke="#191970" d="M387.1275,-15.5C394.9426,-15.5 403.7066,-15.5 412.698,-15.5"/>
<polygon fill="#191970" stroke="#191970" points="412.9079,-19.0001 422.9079,-15.5 412.9079,-12.0001 412.9079,-19.0001"/>
</g>
</g>
</svg>
