<?xml version="1.0" encoding="UTF-8" standalone="no"?>
<!DOCTYPE svg PUBLIC "-//W3C//DTD SVG 1.1//EN"
 "http://www.w3.org/Graphics/SVG/1.1/DTD/svg11.dtd">
<!-- Generated by graphviz version 2.40.1 (20161225.0304)
 -->
<!-- Title: openage::ProjectileProducer::place Pages: 1 -->
<svg width="1309pt" height="1007pt"
 viewBox="0.00 0.00 1309.00 1006.50" xmlns="http://www.w3.org/2000/svg" xmlns:xlink="http://www.w3.org/1999/xlink">
<g id="graph0" class="graph" transform="scale(1 1) rotate(0) translate(4 1002.5)">
<title>openage::ProjectileProducer::place</title>
<polygon fill="#ffffff" stroke="transparent" points="-4,4 -4,-1002.5 1305,-1002.5 1305,4 -4,4"/>
<!-- Node26 -->
<g id="node1" class="node">
<title>Node26</title>
<polygon fill="#bfbfbf" stroke="#000000" points="0,-325.5 0,-355.5 139,-355.5 139,-325.5 0,-325.5"/>
<text text-anchor="start" x="8" y="-343.5" font-family="Helvetica,sans-Serif" font-size="10.00" fill="#000000">openage::ProjectileProducer</text>
<text text-anchor="middle" x="69.5" y="-332.5" font-family="Helvetica,sans-Serif" font-size="10.00" fill="#000000">::place</text>
</g>
<!-- Node27 -->
<g id="node2" class="node">
<title>Node27</title>
<g id="a_node2"><a xlink:href="../../df/dea/classopenage_1_1_unit.xhtml#a3e12324401051119f44e212dae1a87ce" target="_top" xlink:title="returns attribute based on templated value ">
<polygon fill="#ffffff" stroke="#000000" points="665,-802.5 665,-832.5 762,-832.5 762,-802.5 665,-802.5"/>
<text text-anchor="start" x="673" y="-820.5" font-family="Helvetica,sans-Serif" font-size="10.00" fill="#000000">openage::Unit::get</text>
<text text-anchor="middle" x="713.5" y="-809.5" font-family="Helvetica,sans-Serif" font-size="10.00" fill="#000000">_attribute</text>
</a>
</g>
</g>
<!-- Node26&#45;&gt;Node27 -->
<g id="edge1" class="edge">
<title>Node26&#45;&gt;Node27</title>
<path fill="none" stroke="#191970" d="M72.7743,-355.5908C87.5993,-419.8806 154.9148,-672.4633 318,-778.5 421.1439,-845.5633 572.482,-838.1241 654.8352,-827.433"/>
<polygon fill="#191970" stroke="#191970" points="655.3334,-830.8976 664.7713,-826.0835 654.3912,-823.9613 655.3334,-830.8976"/>
</g>
<!-- Node41 -->
<g id="node16" class="node">
<title>Node41</title>
<g id="a_node16"><a xlink:href="../../df/dea/classopenage_1_1_unit.xhtml#a76a10b9ab26e62d7b712a6c796052ee3" target="_top" xlink:title="constructs a new location for this unit replacing any existing locatio ">
<polygon fill="#ffffff" stroke="#000000" points="175,-325.5 175,-355.5 282,-355.5 282,-325.5 175,-325.5"/>
<text text-anchor="start" x="183" y="-343.5" font-family="Helvetica,sans-Serif" font-size="10.00" fill="#000000">openage::Unit::make</text>
<text text-anchor="middle" x="228.5" y="-332.5" font-family="Helvetica,sans-Serif" font-size="10.00" fill="#000000">_location</text>
</a>
</g>
</g>
<!-- Node26&#45;&gt;Node41 -->
<g id="edge17" class="edge">
<title>Node26&#45;&gt;Node41</title>
<path fill="none" stroke="#191970" d="M139.2397,-340.5C147.6633,-340.5 156.2352,-340.5 164.5696,-340.5"/>
<polygon fill="#191970" stroke="#191970" points="164.5919,-344.0001 174.5919,-340.5 164.5918,-337.0001 164.5919,-344.0001"/>
</g>
<!-- Node66 -->
<g id="node41" class="node">
<title>Node66</title>
<g id="a_node41"><a xlink:href="../../da/d23/namespaceopenage.xhtml#a3a0d4d7c2bc234c442c13758d306f60c" target="_top" xlink:title="get all tiles in the tile range – useful for iterating returns a flat list of tiles between the rect...">
<polygon fill="#ffffff" stroke="#000000" points="183.5,-287 183.5,-306 273.5,-306 273.5,-287 183.5,-287"/>
<text text-anchor="middle" x="228.5" y="-294" font-family="Helvetica,sans-Serif" font-size="10.00" fill="#000000">openage::tile_list</text>
</a>
</g>
</g>
<!-- Node26&#45;&gt;Node66 -->
<g id="edge53" class="edge">
<title>Node26&#45;&gt;Node66</title>
<path fill="none" stroke="#191970" d="M123.7741,-325.4808C143.4486,-320.0362 165.4226,-313.9554 184.1421,-308.7751"/>
<polygon fill="#191970" stroke="#191970" points="185.1833,-312.1186 193.8876,-306.0783 183.3163,-305.3722 185.1833,-312.1186"/>
</g>
<!-- Node28 -->
<g id="node3" class="node">
<title>Node28</title>
<g id="a_node3"><a xlink:href="../../de/d8a/classopenage_1_1_attributes.xhtml#a08f927be3be6911e7cf77604f9ead10f" target="_top" xlink:title="Get the attribute based on the type. ">
<polygon fill="#ffffff" stroke="#000000" points="832,-815 832,-834 953,-834 953,-815 832,-815"/>
<text text-anchor="middle" x="892.5" y="-822" font-family="Helvetica,sans-Serif" font-size="10.00" fill="#000000">openage::Attributes::get</text>
</a>
</g>
</g>
<!-- Node27&#45;&gt;Node28 -->
<g id="edge2" class="edge">
<title>Node27&#45;&gt;Node28</title>
<path fill="none" stroke="#191970" d="M762.4125,-819.4128C780.6591,-820.1263 801.7611,-820.9516 821.5897,-821.727"/>
<polygon fill="#191970" stroke="#191970" points="821.6916,-825.2335 831.8207,-822.1271 821.9652,-818.2389 821.6916,-825.2335"/>
</g>
<!-- Node29 -->
<g id="node4" class="node">
<title>Node29</title>
<g id="a_node4"><a xlink:href="../../df/dea/classopenage_1_1_unit.xhtml#ac5dcdf3180dcd4bdce67b765d8ef2134" target="_top" xlink:title="queues a command to be applied to this unit on the next update ">
<polygon fill="#ffffff" stroke="#000000" points="825.5,-979 825.5,-998 959.5,-998 959.5,-979 825.5,-979"/>
<text text-anchor="middle" x="892.5" y="-986" font-family="Helvetica,sans-Serif" font-size="10.00" fill="#000000">openage::Unit::queue_cmd</text>
</a>
</g>
</g>
<!-- Node27&#45;&gt;Node29 -->
<g id="edge3" class="edge">
<title>Node27&#45;&gt;Node29</title>
<path fill="none" stroke="#191970" d="M719.2196,-832.7532C731.6276,-863.6701 764.0667,-933.8086 815,-969.5 817.8664,-971.5086 820.9219,-973.3058 824.1013,-974.9138"/>
<polygon fill="#191970" stroke="#191970" points="822.7712,-978.1523 833.335,-978.9627 825.5823,-971.7415 822.7712,-978.1523"/>
</g>
<!-- Node31 -->
<g id="node6" class="node">
<title>Node31</title>
<g id="a_node6"><a xlink:href="../../df/dea/classopenage_1_1_unit.xhtml#a238fb029bd4cc32e393506533facd976" target="_top" xlink:title="removes all gather actions without calling their on_complete actions this cancels the gathering actio...">
<polygon fill="#ffffff" stroke="#000000" points="1023,-730.5 1023,-760.5 1125,-760.5 1125,-730.5 1023,-730.5"/>
<text text-anchor="start" x="1031" y="-748.5" font-family="Helvetica,sans-Serif" font-size="10.00" fill="#000000">openage::Unit::stop</text>
<text text-anchor="middle" x="1074" y="-737.5" font-family="Helvetica,sans-Serif" font-size="10.00" fill="#000000">_gather</text>
</a>
</g>
</g>
<!-- Node27&#45;&gt;Node31 -->
<g id="edge5" class="edge">
<title>Node27&#45;&gt;Node31</title>
<path fill="none" stroke="#191970" d="M737.4969,-802.4705C757.4426,-790.7834 786.9903,-775.289 815,-767.5 880.8276,-749.1946 959.3859,-744.8465 1012.5905,-744.3493"/>
<polygon fill="#191970" stroke="#191970" points="1012.8996,-747.8479 1022.8821,-744.2982 1012.8648,-740.848 1012.8996,-747.8479"/>
</g>
<!-- Node33 -->
<g id="node8" class="node">
<title>Node33</title>
<g id="a_node8"><a xlink:href="../../df/dea/classopenage_1_1_unit.xhtml#a9f53ef015fca7c42ff3bf9d0779145a3" target="_top" xlink:title="removes all actions above and including the first interuptable action this will stop any of the units...">
<polygon fill="#ffffff" stroke="#000000" points="841.5,-689.5 841.5,-719.5 943.5,-719.5 943.5,-689.5 841.5,-689.5"/>
<text text-anchor="start" x="849.5" y="-707.5" font-family="Helvetica,sans-Serif" font-size="10.00" fill="#000000">openage::Unit::stop</text>
<text text-anchor="middle" x="892.5" y="-696.5" font-family="Helvetica,sans-Serif" font-size="10.00" fill="#000000">_actions</text>
</a>
</g>
</g>
<!-- Node27&#45;&gt;Node33 -->
<g id="edge7" class="edge">
<title>Node27&#45;&gt;Node33</title>
<path fill="none" stroke="#191970" d="M728.8467,-802.2865C747.7738,-784.1866 781.5609,-753.9758 815,-734.5 821.9135,-730.4734 829.4683,-726.7836 837.0622,-723.4736"/>
<polygon fill="#191970" stroke="#191970" points="838.4164,-726.7011 846.304,-719.6274 835.7268,-720.2384 838.4164,-726.7011"/>
</g>
<!-- Node36 -->
<g id="node11" class="node">
<title>Node36</title>
<g id="a_node11"><a xlink:href="../../df/dea/classopenage_1_1_unit.xhtml#ad7f76de394d832d927a9e6d46bd3c93f" target="_top" xlink:title="begins unit removal by popping some actions ">
<polygon fill="#ffffff" stroke="#000000" points="827,-941 827,-960 958,-960 958,-941 827,-941"/>
<text text-anchor="middle" x="892.5" y="-948" font-family="Helvetica,sans-Serif" font-size="10.00" fill="#000000">openage::Unit::delete_unit</text>
</a>
</g>
</g>
<!-- Node27&#45;&gt;Node36 -->
<g id="edge12" class="edge">
<title>Node27&#45;&gt;Node36</title>
<path fill="none" stroke="#191970" d="M722.6447,-832.7074C738.3253,-857.4182 772.7719,-906.0793 815,-931.5 818.6051,-933.6702 822.4458,-935.5929 826.4154,-937.2963"/>
<polygon fill="#191970" stroke="#191970" points="825.2704,-940.6054 835.8615,-940.8861 827.7571,-934.0619 825.2704,-940.6054"/>
</g>
<!-- Node37 -->
<g id="node12" class="node">
<title>Node37</title>
<g id="a_node12"><a xlink:href="../../df/dea/classopenage_1_1_unit.xhtml#adfea298b04684ab09dd8f499dabb8715" target="_top" xlink:title="get a reference which can check against the container to ensure this object still exists ...">
<polygon fill="#ffffff" stroke="#000000" points="836,-903 836,-922 949,-922 949,-903 836,-903"/>
<text text-anchor="middle" x="892.5" y="-910" font-family="Helvetica,sans-Serif" font-size="10.00" fill="#000000">openage::Unit::get_ref</text>
</a>
</g>
</g>
<!-- Node27&#45;&gt;Node37 -->
<g id="edge13" class="edge">
<title>Node27&#45;&gt;Node37</title>
<path fill="none" stroke="#191970" d="M729.795,-832.6871C748.8367,-849.6444 781.9649,-876.7672 815,-892.5 820.9846,-895.3501 827.4299,-897.8325 833.9564,-899.9853"/>
<polygon fill="#191970" stroke="#191970" points="832.9461,-903.3363 843.5323,-902.9079 834.9895,-896.6412 832.9461,-903.3363"/>
</g>
<!-- Node38 -->
<g id="node13" class="node">
<title>Node38</title>
<g id="a_node13"><a xlink:href="../../df/dea/classopenage_1_1_unit.xhtml#a2e9937d84fe91d95cbe273f6fe986068" target="_top" xlink:title="the container used when constructing this unit ">
<polygon fill="#ffffff" stroke="#000000" points="844,-853.5 844,-883.5 941,-883.5 941,-853.5 844,-853.5"/>
<text text-anchor="start" x="852" y="-871.5" font-family="Helvetica,sans-Serif" font-size="10.00" fill="#000000">openage::Unit::get</text>
<text text-anchor="middle" x="892.5" y="-860.5" font-family="Helvetica,sans-Serif" font-size="10.00" fill="#000000">_container</text>
</a>
</g>
</g>
<!-- Node27&#45;&gt;Node38 -->
<g id="edge14" class="edge">
<title>Node27&#45;&gt;Node38</title>
<path fill="none" stroke="#191970" d="M762.4125,-831.436C784.6031,-837.7584 811.017,-845.2842 834.2273,-851.8972"/>
<polygon fill="#191970" stroke="#191970" points="833.3804,-855.2951 843.9568,-854.6692 835.2986,-848.563 833.3804,-855.2951"/>
</g>
<!-- Node39 -->
<g id="node14" class="node">
<title>Node39</title>
<g id="a_node14"><a xlink:href="../../df/dea/classopenage_1_1_unit.xhtml#ae769f520dfdb148ec831c151a954a881" target="_top" xlink:title="Returns the unit&#39;s name as the LogSource name. ">
<polygon fill="#ffffff" stroke="#000000" points="815,-777 815,-796 970,-796 970,-777 815,-777"/>
<text text-anchor="middle" x="892.5" y="-784" font-family="Helvetica,sans-Serif" font-size="10.00" fill="#000000">openage::Unit::logsource_name</text>
</a>
</g>
</g>
<!-- Node27&#45;&gt;Node39 -->
<g id="edge15" class="edge">
<title>Node27&#45;&gt;Node39</title>
<path fill="none" stroke="#191970" d="M762.4125,-809.0291C782.4293,-805.5625 805.8825,-801.5008 827.321,-797.788"/>
<polygon fill="#191970" stroke="#191970" points="828.0775,-801.2092 837.3335,-796.054 826.8829,-794.3118 828.0775,-801.2092"/>
</g>
<!-- Node30 -->
<g id="node5" class="node">
<title>Node30</title>
<g id="a_node5"><a xlink:href="../../d8/dda/classopenage_1_1_command.xhtml#afbc0a60d82b9608e375c38c5e3fdf758" target="_top" xlink:title="the ability types allowed to use this command ">
<polygon fill="#ffffff" stroke="#000000" points="1006,-979 1006,-998 1142,-998 1142,-979 1006,-979"/>
<text text-anchor="middle" x="1074" y="-986" font-family="Helvetica,sans-Serif" font-size="10.00" fill="#000000">openage::Command::ability</text>
</a>
</g>
</g>
<!-- Node29&#45;&gt;Node30 -->
<g id="edge4" class="edge">
<title>Node29&#45;&gt;Node30</title>
<path fill="none" stroke="#191970" d="M959.5682,-988.5C971.402,-988.5 983.8134,-988.5 995.9182,-988.5"/>
<polygon fill="#191970" stroke="#191970" points="995.9946,-992.0001 1005.9946,-988.5 995.9945,-985.0001 995.9946,-992.0001"/>
</g>
<!-- Node32 -->
<g id="node7" class="node">
<title>Node32</title>
<g id="a_node7"><a xlink:href="../../df/dea/classopenage_1_1_unit.xhtml#aae0b3f53cb1d75823391322876d199ef" target="_top" xlink:title="erase from action specified by func to the end of the stack all actions erased will have the on_compl...">
<polygon fill="#ffffff" stroke="#000000" points="1186,-686.5 1186,-716.5 1293,-716.5 1293,-686.5 1186,-686.5"/>
<text text-anchor="start" x="1194" y="-704.5" font-family="Helvetica,sans-Serif" font-size="10.00" fill="#000000">openage::Unit::erase</text>
<text text-anchor="middle" x="1239.5" y="-693.5" font-family="Helvetica,sans-Serif" font-size="10.00" fill="#000000">_after</text>
</a>
</g>
</g>
<!-- Node31&#45;&gt;Node32 -->
<g id="edge6" class="edge">
<title>Node31&#45;&gt;Node32</title>
<path fill="none" stroke="#191970" d="M1125.0059,-731.9395C1141.1229,-727.6546 1159.1336,-722.8663 1176.0122,-718.3789"/>
<polygon fill="#191970" stroke="#191970" points="1177.0314,-721.7296 1185.7964,-715.7777 1175.2328,-714.9646 1177.0314,-721.7296"/>
</g>
<!-- Node33&#45;&gt;Node31 -->
<g id="edge10" class="edge">
<title>Node33&#45;&gt;Node31</title>
<path fill="none" stroke="#191970" d="M943.5409,-716.0299C965.0957,-720.899 990.3736,-726.6092 1012.9096,-731.7"/>
<polygon fill="#191970" stroke="#191970" points="1012.1879,-735.1251 1022.7134,-733.9146 1013.7304,-728.2971 1012.1879,-735.1251"/>
</g>
<!-- Node33&#45;&gt;Node32 -->
<g id="edge11" class="edge">
<title>Node33&#45;&gt;Node32</title>
<path fill="none" stroke="#191970" d="M943.701,-704.0573C1005.2598,-703.5251 1108.6108,-702.6316 1175.4095,-702.0541"/>
<polygon fill="#191970" stroke="#191970" points="1175.8352,-705.5506 1185.8045,-701.9642 1175.7746,-698.5509 1175.8352,-705.5506"/>
</g>
<!-- Node34 -->
<g id="node9" class="node">
<title>Node34</title>
<g id="a_node9"><a xlink:href="../../df/dea/classopenage_1_1_unit.xhtml#a6c56a8b7e9856a8e0535cacbe831bae7" target="_top" xlink:title="returns whether attribute is available ">
<polygon fill="#ffffff" stroke="#000000" points="1024.5,-642.5 1024.5,-672.5 1123.5,-672.5 1123.5,-642.5 1024.5,-642.5"/>
<text text-anchor="start" x="1032.5" y="-660.5" font-family="Helvetica,sans-Serif" font-size="10.00" fill="#000000">openage::Unit::has</text>
<text text-anchor="middle" x="1074" y="-649.5" font-family="Helvetica,sans-Serif" font-size="10.00" fill="#000000">_attribute</text>
</a>
</g>
</g>
<!-- Node33&#45;&gt;Node34 -->
<g id="edge8" class="edge">
<title>Node33&#45;&gt;Node34</title>
<path fill="none" stroke="#191970" d="M943.5409,-691.2828C965.5524,-685.5828 991.4463,-678.8775 1014.3383,-672.9496"/>
<polygon fill="#191970" stroke="#191970" points="1015.4783,-676.2699 1024.2815,-670.3748 1013.7234,-669.4934 1015.4783,-676.2699"/>
</g>
<!-- Node35 -->
<g id="node10" class="node">
<title>Node35</title>
<g id="a_node10"><a xlink:href="../../de/d8a/classopenage_1_1_attributes.xhtml#aee38f453ac85b68821958ad74cdd8df5" target="_top" xlink:title="Check if the attribute of the given type exists. ">
<polygon fill="#ffffff" stroke="#000000" points="1178,-648 1178,-667 1301,-667 1301,-648 1178,-648"/>
<text text-anchor="middle" x="1239.5" y="-655" font-family="Helvetica,sans-Serif" font-size="10.00" fill="#000000">openage::Attributes::has</text>
</a>
</g>
</g>
<!-- Node34&#45;&gt;Node35 -->
<g id="edge9" class="edge">
<title>Node34&#45;&gt;Node35</title>
<path fill="none" stroke="#191970" d="M1123.6555,-657.5C1137.503,-657.5 1152.8309,-657.5 1167.6808,-657.5"/>
<polygon fill="#191970" stroke="#191970" points="1167.8611,-661.0001 1177.861,-657.5 1167.861,-654.0001 1167.8611,-661.0001"/>
</g>
<!-- Node40 -->
<g id="node15" class="node">
<title>Node40</title>
<g id="a_node15"><a xlink:href="../../d8/dcc/namespacestd.xhtml#a26aa0f4be3a77ac5cc3ce0cabb545042" target="_top" xlink:title="std::to_string">
<polygon fill="#ffffff" stroke="#000000" points="1037,-780 1037,-799 1111,-799 1111,-780 1037,-780"/>
<text text-anchor="middle" x="1074" y="-787" font-family="Helvetica,sans-Serif" font-size="10.00" fill="#000000">std::to_string</text>
</a>
</g>
</g>
<!-- Node39&#45;&gt;Node40 -->
<g id="edge16" class="edge">
<title>Node39&#45;&gt;Node40</title>
<path fill="none" stroke="#191970" d="M970.2622,-787.7853C989.3849,-788.1014 1009.2933,-788.4305 1026.4958,-788.7148"/>
<polygon fill="#191970" stroke="#191970" points="1026.7694,-792.2197 1036.8259,-788.8856 1026.8852,-785.2207 1026.7694,-792.2197"/>
</g>
<!-- Node41&#45;&gt;Node34 -->
<g id="edge52" class="edge">
<title>Node41&#45;&gt;Node34</title>
<path fill="none" stroke="#191970" d="M236.1133,-355.6615C266.7152,-414.2358 387.0171,-622.5 550.5,-622.5 550.5,-622.5 550.5,-622.5 713.5,-622.5 819.7322,-622.5 942.7526,-637.7426 1014.1386,-648.1099"/>
<polygon fill="#191970" stroke="#191970" points="1013.8855,-651.6102 1024.2882,-649.6017 1014.9035,-644.6846 1013.8855,-651.6102"/>
</g>
<!-- Node42 -->
<g id="node17" class="node">
<title>Node42</title>
<g id="a_node17"><a xlink:href="../../df/dea/classopenage_1_1_unit.xhtml#a24ad46b827d50be1c5af4eccc5111929" target="_top" xlink:title="removes all actions and abilities current attributes are kept ">
<polygon fill="#ffffff" stroke="#000000" points="333,-388 333,-407 438,-407 438,-388 333,-388"/>
<text text-anchor="middle" x="385.5" y="-395" font-family="Helvetica,sans-Serif" font-size="10.00" fill="#000000">openage::Unit::reset</text>
</a>
</g>
</g>
<!-- Node41&#45;&gt;Node42 -->
<g id="edge18" class="edge">
<title>Node41&#45;&gt;Node42</title>
<path fill="none" stroke="#191970" d="M269.0072,-355.549C284.3408,-361.2158 301.9616,-367.6922 318,-373.5 327.9986,-377.1207 338.8478,-381 348.8641,-384.5613"/>
<polygon fill="#191970" stroke="#191970" points="347.9457,-387.9491 358.5404,-387.9952 350.2868,-381.3522 347.9457,-387.9491"/>
</g>
<!-- Node43 -->
<g id="node18" class="node">
<title>Node43</title>
<g id="a_node18"><a xlink:href="../../df/dea/classopenage_1_1_unit.xhtml#a257ef8a7aeceb306d372ef745b40ef90" target="_top" xlink:title="checks the entity has an action, if it has no action it should be removed from the game ...">
<polygon fill="#ffffff" stroke="#000000" points="664,-306.5 664,-336.5 763,-336.5 763,-306.5 664,-306.5"/>
<text text-anchor="start" x="672" y="-324.5" font-family="Helvetica,sans-Serif" font-size="10.00" fill="#000000">openage::Unit::has</text>
<text text-anchor="middle" x="713.5" y="-313.5" font-family="Helvetica,sans-Serif" font-size="10.00" fill="#000000">_action</text>
</a>
</g>
</g>
<!-- Node41&#45;&gt;Node43 -->
<g id="edge19" class="edge">
<title>Node41&#45;&gt;Node43</title>
<path fill="none" stroke="#191970" d="M282.2566,-338.3941C373.6338,-334.8143 558.5821,-327.5689 653.8302,-323.8376"/>
<polygon fill="#191970" stroke="#191970" points="654.0204,-327.3329 663.8757,-323.444 653.7464,-320.3383 654.0204,-327.3329"/>
</g>
<!-- Node44 -->
<g id="node19" class="node">
<title>Node44</title>
<g id="a_node19"><a xlink:href="../../df/dea/classopenage_1_1_unit.xhtml#a21542f7813db482fd36799cf12971979" target="_top" xlink:title="true when the unit is alive and able to add new actions ">
<polygon fill="#ffffff" stroke="#000000" points="494,-262.5 494,-292.5 607,-292.5 607,-262.5 494,-262.5"/>
<text text-anchor="start" x="502" y="-280.5" font-family="Helvetica,sans-Serif" font-size="10.00" fill="#000000">openage::Unit::accept</text>
<text text-anchor="middle" x="550.5" y="-269.5" font-family="Helvetica,sans-Serif" font-size="10.00" fill="#000000">_commands</text>
</a>
</g>
</g>
<!-- Node41&#45;&gt;Node44 -->
<g id="edge20" class="edge">
<title>Node41&#45;&gt;Node44</title>
<path fill="none" stroke="#191970" d="M282.2244,-332.241C327.8296,-324.9737 394.9237,-313.677 453,-301.5 463.0849,-299.3855 473.7106,-296.9679 484.0899,-294.5"/>
<polygon fill="#191970" stroke="#191970" points="485.038,-297.8718 493.9398,-292.1266 483.3982,-291.0665 485.038,-297.8718"/>
</g>
<!-- Node45 -->
<g id="node20" class="node">
<title>Node45</title>
<g id="a_node20"><a xlink:href="../../df/dea/classopenage_1_1_unit.xhtml#a86a49987e082055274e98a142baffad8" target="_top" xlink:title="returns the current action on top of the stack ">
<polygon fill="#ffffff" stroke="#000000" points="665,-246 665,-265 762,-265 762,-246 665,-246"/>
<text text-anchor="middle" x="713.5" y="-253" font-family="Helvetica,sans-Serif" font-size="10.00" fill="#000000">openage::Unit::top</text>
</a>
</g>
</g>
<!-- Node41&#45;&gt;Node45 -->
<g id="edge28" class="edge">
<title>Node41&#45;&gt;Node45</title>
<path fill="none" stroke="#191970" d="M268.2572,-325.374C273.1936,-322.5318 277.9281,-319.2509 282,-315.5 305.7191,-293.6504 290.1075,-268.6867 318,-252.5 432.7189,-185.926 599.4914,-221.5268 674.4489,-243.014"/>
<polygon fill="#191970" stroke="#191970" points="673.8202,-246.4773 684.4014,-245.9402 675.7948,-239.7615 673.8202,-246.4773"/>
</g>
<!-- Node47 -->
<g id="node22" class="node">
<title>Node47</title>
<g id="a_node22"><a xlink:href="../../df/dea/classopenage_1_1_unit.xhtml#aba4a16068cf5a6b218a4c78f499874b0" target="_top" xlink:title="checks whether the current player is the owner of this unit ">
<polygon fill="#ffffff" stroke="#000000" points="318,-701 318,-720 453,-720 453,-701 318,-701"/>
<text text-anchor="middle" x="385.5" y="-708" font-family="Helvetica,sans-Serif" font-size="10.00" fill="#000000">openage::Unit::is_own_unit</text>
</a>
</g>
</g>
<!-- Node41&#45;&gt;Node47 -->
<g id="edge24" class="edge">
<title>Node41&#45;&gt;Node47</title>
<path fill="none" stroke="#191970" d="M230.3656,-355.5384C238.1547,-416.0107 269.9268,-640.5791 318,-690.5 319.8175,-692.3873 321.8039,-694.0988 323.9182,-695.6507"/>
<polygon fill="#191970" stroke="#191970" points="322.2462,-698.7292 332.6206,-700.8793 325.8513,-692.7289 322.2462,-698.7292"/>
</g>
<!-- Node49 -->
<g id="node24" class="node">
<title>Node49</title>
<g id="a_node24"><a xlink:href="../../df/dea/classopenage_1_1_unit.xhtml#a4923193cf464188a2e5f8563dd85ff43" target="_top" xlink:title="returns action under the passed action in the stack returns null if stack size is less than 2 ...">
<polygon fill="#ffffff" stroke="#000000" points="330.5,-148 330.5,-167 440.5,-167 440.5,-148 330.5,-148"/>
<text text-anchor="middle" x="385.5" y="-155" font-family="Helvetica,sans-Serif" font-size="10.00" fill="#000000">openage::Unit::before</text>
</a>
</g>
</g>
<!-- Node41&#45;&gt;Node49 -->
<g id="edge29" class="edge">
<title>Node41&#45;&gt;Node49</title>
<path fill="none" stroke="#191970" d="M270.5711,-325.4744C274.8465,-322.6632 278.7886,-319.3631 282,-315.5 322.7953,-266.4262 273.3505,-222.0952 318,-176.5 319.4054,-175.0648 320.9101,-173.7357 322.4954,-172.5049"/>
<polygon fill="#191970" stroke="#191970" points="324.4171,-175.4309 331.0073,-167.1351 320.6821,-169.5106 324.4171,-175.4309"/>
</g>
<!-- Node50 -->
<g id="node25" class="node">
<title>Node50</title>
<g id="a_node25"><a xlink:href="../../df/dea/classopenage_1_1_unit.xhtml#a6090576402dce0bcc8f3f584ae0c1db5" target="_top" xlink:title="update this object using the action currently on top of the stack ">
<polygon fill="#ffffff" stroke="#000000" points="329,-438 329,-457 442,-457 442,-438 329,-438"/>
<text text-anchor="middle" x="385.5" y="-445" font-family="Helvetica,sans-Serif" font-size="10.00" fill="#000000">openage::Unit::update</text>
</a>
</g>
</g>
<!-- Node41&#45;&gt;Node50 -->
<g id="edge30" class="edge">
<title>Node41&#45;&gt;Node50</title>
<path fill="none" stroke="#191970" d="M243.6341,-355.6314C260.6531,-372.0794 289.6336,-398.4272 318,-416.5 328.3464,-423.0919 340.3245,-429.0655 351.2929,-433.97"/>
<polygon fill="#191970" stroke="#191970" points="350.0374,-437.2402 360.6055,-437.9935 352.8138,-430.8143 350.0374,-437.2402"/>
</g>
<!-- Node56 -->
<g id="node31" class="node">
<title>Node56</title>
<g id="a_node31"><a xlink:href="../../df/dea/classopenage_1_1_unit.xhtml#ae422123ecc6a2e930ba86e45bf8a5a37" target="_top" xlink:title="draws this action by taking the graphic type of the top action the graphic is found from the current ...">
<polygon fill="#ffffff" stroke="#000000" points="333.5,-186 333.5,-205 437.5,-205 437.5,-186 333.5,-186"/>
<text text-anchor="middle" x="385.5" y="-193" font-family="Helvetica,sans-Serif" font-size="10.00" fill="#000000">openage::Unit::draw</text>
</a>
</g>
</g>
<!-- Node41&#45;&gt;Node56 -->
<g id="edge40" class="edge">
<title>Node41&#45;&gt;Node56</title>
<path fill="none" stroke="#191970" d="M269.6476,-325.467C274.1919,-322.6409 278.4505,-319.3392 282,-315.5 312.9345,-282.041 285.5034,-251.4439 318,-219.5 322.0468,-215.522 326.7952,-212.1997 331.8665,-209.4256"/>
<polygon fill="#191970" stroke="#191970" points="333.706,-212.4281 341.2619,-205.0012 330.7237,-206.0951 333.706,-212.4281"/>
</g>
<!-- Node58 -->
<g id="node33" class="node">
<title>Node58</title>
<g id="a_node33"><a xlink:href="../../df/dea/classopenage_1_1_unit.xhtml#a37f35cd78b09fea32514ed2b2dd87b64" target="_top" xlink:title="adds an available ability to this unit this turns targeted objects into actions which are pushed onto...">
<polygon fill="#ffffff" stroke="#000000" points="335,-98.5 335,-128.5 436,-128.5 436,-98.5 335,-98.5"/>
<text text-anchor="start" x="343" y="-116.5" font-family="Helvetica,sans-Serif" font-size="10.00" fill="#000000">openage::Unit::give</text>
<text text-anchor="middle" x="385.5" y="-105.5" font-family="Helvetica,sans-Serif" font-size="10.00" fill="#000000">_ability</text>
</a>
</g>
</g>
<!-- Node41&#45;&gt;Node58 -->
<g id="edge43" class="edge">
<title>Node41&#45;&gt;Node58</title>
<path fill="none" stroke="#191970" d="M271.0323,-325.4635C275.1711,-322.661 278.9551,-319.3659 282,-315.5 331.6719,-252.4354 265.7717,-199.4644 318,-138.5 320.462,-135.6262 323.2859,-133.0825 326.3518,-130.831"/>
<polygon fill="#191970" stroke="#191970" points="328.2762,-133.7563 334.9499,-125.5275 324.6013,-127.7985 328.2762,-133.7563"/>
</g>
<!-- Node59 -->
<g id="node34" class="node">
<title>Node59</title>
<g id="a_node34"><a xlink:href="../../df/dea/classopenage_1_1_unit.xhtml#a2f0e740b8fd1b0f948916c854b9910ec" target="_top" xlink:title="get ability with specified type, null if not available ">
<polygon fill="#ffffff" stroke="#000000" points="337,-49.5 337,-79.5 434,-79.5 434,-49.5 337,-49.5"/>
<text text-anchor="start" x="345" y="-67.5" font-family="Helvetica,sans-Serif" font-size="10.00" fill="#000000">openage::Unit::get</text>
<text text-anchor="middle" x="385.5" y="-56.5" font-family="Helvetica,sans-Serif" font-size="10.00" fill="#000000">_ability</text>
</a>
</g>
</g>
<!-- Node41&#45;&gt;Node59 -->
<g id="edge44" class="edge">
<title>Node41&#45;&gt;Node59</title>
<path fill="none" stroke="#191970" d="M271.4561,-325.4152C275.4636,-322.6276 279.1013,-319.3491 282,-315.5 343.4505,-233.901 252.7237,-167.0721 318,-88.5 320.8165,-85.1098 324.1467,-82.1983 327.7944,-79.6979"/>
<polygon fill="#191970" stroke="#191970" points="329.8301,-82.5666 336.7896,-74.5781 326.3674,-76.483 329.8301,-82.5666"/>
</g>
<!-- Node60 -->
<g id="node35" class="node">
<title>Node60</title>
<g id="a_node35"><a xlink:href="../../df/dea/classopenage_1_1_unit.xhtml#aecd686fafc67487f4df4d3637f2621f4" target="_top" xlink:title="adds a new action on top of the action stack will be performed immediately ">
<polygon fill="#ffffff" stroke="#000000" points="333.5,-262.5 333.5,-292.5 437.5,-292.5 437.5,-262.5 333.5,-262.5"/>
<text text-anchor="start" x="341.5" y="-280.5" font-family="Helvetica,sans-Serif" font-size="10.00" fill="#000000">openage::Unit::push</text>
<text text-anchor="middle" x="385.5" y="-269.5" font-family="Helvetica,sans-Serif" font-size="10.00" fill="#000000">_action</text>
</a>
</g>
</g>
<!-- Node41&#45;&gt;Node60 -->
<g id="edge45" class="edge">
<title>Node41&#45;&gt;Node60</title>
<path fill="none" stroke="#191970" d="M266.1054,-325.4099C287.8722,-316.6755 315.4589,-305.6057 338.6304,-296.3076"/>
<polygon fill="#191970" stroke="#191970" points="339.9524,-299.5484 347.9297,-292.576 337.3455,-293.0519 339.9524,-299.5484"/>
</g>
<!-- Node61 -->
<g id="node36" class="node">
<title>Node61</title>
<g id="a_node36"><a xlink:href="../../df/dea/classopenage_1_1_unit.xhtml#a8b29886dcd48b1db9381dcc7fd252ebc" target="_top" xlink:title="adds a secondary action which is always updated ">
<polygon fill="#ffffff" stroke="#000000" points="321.5,-.5 321.5,-30.5 449.5,-30.5 449.5,-.5 321.5,-.5"/>
<text text-anchor="start" x="329.5" y="-18.5" font-family="Helvetica,sans-Serif" font-size="10.00" fill="#000000">openage::Unit::secondary</text>
<text text-anchor="middle" x="385.5" y="-7.5" font-family="Helvetica,sans-Serif" font-size="10.00" fill="#000000">_action</text>
</a>
</g>
</g>
<!-- Node41&#45;&gt;Node61 -->
<g id="edge47" class="edge">
<title>Node41&#45;&gt;Node61</title>
<path fill="none" stroke="#191970" d="M271.5628,-325.4944C275.5507,-322.6923 279.1546,-319.3888 282,-315.5 355.0484,-215.6649 240.2684,-135.7336 318,-39.5 318.5983,-38.7592 319.2213,-38.0413 319.8668,-37.3455"/>
<polygon fill="#191970" stroke="#191970" points="322.2747,-39.8906 327.5556,-30.7057 317.6996,-34.5926 322.2747,-39.8906"/>
</g>
<!-- Node62 -->
<g id="node37" class="node">
<title>Node62</title>
<g id="a_node37"><a xlink:href="../../df/dea/classopenage_1_1_unit.xhtml#ab74b08bb7725863fc63839d798f6aedb" target="_top" xlink:title="give a new attribute this this unit this is used to set things like color, hitpoints and speed ...">
<polygon fill="#ffffff" stroke="#000000" points="336,-739.5 336,-769.5 435,-769.5 435,-739.5 336,-739.5"/>
<text text-anchor="start" x="344" y="-757.5" font-family="Helvetica,sans-Serif" font-size="10.00" fill="#000000">openage::Unit::add</text>
<text text-anchor="middle" x="385.5" y="-746.5" font-family="Helvetica,sans-Serif" font-size="10.00" fill="#000000">_attribute</text>
</a>
</g>
</g>
<!-- Node41&#45;&gt;Node62 -->
<g id="edge48" class="edge">
<title>Node41&#45;&gt;Node62</title>
<path fill="none" stroke="#191970" d="M230.0819,-355.7659C237.0697,-420.4927 267.0999,-671.5961 318,-729.5 320.6621,-732.5284 323.7254,-735.1906 327.0466,-737.5307"/>
<polygon fill="#191970" stroke="#191970" points="325.3676,-740.6044 335.7513,-742.7095 328.9467,-734.5886 325.3676,-740.6044"/>
</g>
<!-- Node64 -->
<g id="node39" class="node">
<title>Node64</title>
<g id="a_node39"><a xlink:href="../../df/dea/classopenage_1_1_unit.xhtml#af46fb7ca65071c68a85f492a8235302e" target="_top" xlink:title="Give new attributes to this unit. ">
<polygon fill="#ffffff" stroke="#000000" points="336,-651.5 336,-681.5 435,-681.5 435,-651.5 336,-651.5"/>
<text text-anchor="start" x="344" y="-669.5" font-family="Helvetica,sans-Serif" font-size="10.00" fill="#000000">openage::Unit::add</text>
<text text-anchor="middle" x="385.5" y="-658.5" font-family="Helvetica,sans-Serif" font-size="10.00" fill="#000000">_attributes</text>
</a>
</g>
</g>
<!-- Node41&#45;&gt;Node64 -->
<g id="edge50" class="edge">
<title>Node41&#45;&gt;Node64</title>
<path fill="none" stroke="#191970" d="M231.3425,-355.6004C241.7754,-409.6701 279.3665,-592.7259 318,-636.5 321.1742,-640.0966 324.862,-643.2826 328.8454,-646.1013"/>
<polygon fill="#191970" stroke="#191970" points="327.0241,-649.0902 337.3675,-651.385 330.7127,-643.1409 327.0241,-649.0902"/>
</g>
<!-- Node44&#45;&gt;Node43 -->
<g id="edge21" class="edge">
<title>Node44&#45;&gt;Node43</title>
<path fill="none" stroke="#191970" d="M606.1395,-292.5192C621.4973,-296.6649 638.2219,-301.1795 653.7997,-305.3846"/>
<polygon fill="#191970" stroke="#191970" points="653.2784,-308.8691 663.845,-308.0962 655.1027,-302.111 653.2784,-308.8691"/>
</g>
<!-- Node44&#45;&gt;Node45 -->
<g id="edge22" class="edge">
<title>Node44&#45;&gt;Node45</title>
<path fill="none" stroke="#191970" d="M607.052,-269.8672C622.5147,-267.7802 639.3033,-265.5143 654.8788,-263.4121"/>
<polygon fill="#191970" stroke="#191970" points="655.4708,-266.864 664.9128,-262.0578 654.5345,-259.9269 655.4708,-266.864"/>
</g>
<!-- Node46 -->
<g id="node21" class="node">
<title>Node46</title>
<g id="a_node21"><a xlink:href="../../dd/d1a/namespaceopenage_1_1log.xhtml#ab6b4b10be67af93ab6c4d5a36139736e" target="_top" xlink:title="error message ">
<polygon fill="#ffffff" stroke="#000000" points="851,-246 851,-265 934,-265 934,-246 851,-246"/>
<text text-anchor="middle" x="892.5" y="-253" font-family="Helvetica,sans-Serif" font-size="10.00" fill="#000000">openage.log.err</text>
</a>
</g>
</g>
<!-- Node45&#45;&gt;Node46 -->
<g id="edge23" class="edge">
<title>Node45&#45;&gt;Node46</title>
<path fill="none" stroke="#191970" d="M762.4125,-255.5C786.6863,-255.5 816.0135,-255.5 840.6732,-255.5"/>
<polygon fill="#191970" stroke="#191970" points="840.9276,-259.0001 850.9275,-255.5 840.9275,-252.0001 840.9276,-259.0001"/>
</g>
<!-- Node48 -->
<g id="node23" class="node">
<title>Node48</title>
<g id="a_node23"><a xlink:href="../../d8/d47/classopenage_1_1_player.xhtml#aefd20341c814fc53919cac8761bad38b" target="_top" xlink:title="this player owns the specified unit ">
<polygon fill="#ffffff" stroke="#000000" points="492.5,-701 492.5,-720 608.5,-720 608.5,-701 492.5,-701"/>
<text text-anchor="middle" x="550.5" y="-708" font-family="Helvetica,sans-Serif" font-size="10.00" fill="#000000">openage::Player::owns</text>
</a>
</g>
</g>
<!-- Node47&#45;&gt;Node48 -->
<g id="edge25" class="edge">
<title>Node47&#45;&gt;Node48</title>
<path fill="none" stroke="#191970" d="M453.0879,-710.5C462.6302,-710.5 472.4477,-710.5 482.0068,-710.5"/>
<polygon fill="#191970" stroke="#191970" points="482.2529,-714.0001 492.2528,-710.5 482.2528,-707.0001 482.2529,-714.0001"/>
</g>
<!-- Node48&#45;&gt;Node27 -->
<g id="edge26" class="edge">
<title>Node48&#45;&gt;Node27</title>
<path fill="none" stroke="#191970" d="M578.8772,-720.0349C589.5892,-724.1437 601.675,-729.4113 612,-735.5 640.9842,-752.5921 670.5042,-777.4553 690.1807,-795.3177"/>
<polygon fill="#191970" stroke="#191970" points="687.9982,-798.0658 697.726,-802.2635 692.7392,-792.9157 687.9982,-798.0658"/>
</g>
<!-- Node48&#45;&gt;Node34 -->
<g id="edge27" class="edge">
<title>Node48&#45;&gt;Node34</title>
<path fill="none" stroke="#191970" d="M608.7502,-703.1314C662.3043,-696.4858 743.9297,-686.6814 815,-679.5 883.1897,-672.6097 961.6282,-666.1518 1014.1551,-662.0383"/>
<polygon fill="#191970" stroke="#191970" points="1014.6064,-665.5139 1024.3043,-661.2475 1014.0625,-658.535 1014.6064,-665.5139"/>
</g>
<!-- Node50&#45;&gt;Node32 -->
<g id="edge31" class="edge">
<title>Node50&#45;&gt;Node32</title>
<path fill="none" stroke="#191970" d="M436.1407,-457.04C500.3977,-468.2963 614.7571,-485.5 713.5,-485.5 713.5,-485.5 713.5,-485.5 892.5,-485.5 1021.2043,-485.5 1044.2904,-548.7287 1142,-632.5 1161.1822,-648.9458 1157.667,-661.5003 1178,-676.5 1180.4709,-678.3228 1183.0935,-680.0369 1185.8096,-681.6453"/>
<polygon fill="#191970" stroke="#191970" points="1184.2631,-684.7874 1194.7306,-686.4256 1187.5694,-678.6174 1184.2631,-684.7874"/>
</g>
<!-- Node50&#45;&gt;Node43 -->
<g id="edge32" class="edge">
<title>Node50&#45;&gt;Node43</title>
<path fill="none" stroke="#191970" d="M442.384,-453.2337C490.0311,-455.5886 558.6188,-453.1267 612,-427.5 649.8455,-409.3315 681.0206,-370.6405 698.4344,-345.3704"/>
<polygon fill="#191970" stroke="#191970" points="701.5631,-346.9882 704.2143,-336.7304 695.7449,-343.096 701.5631,-346.9882"/>
</g>
<!-- Node50&#45;&gt;Node45 -->
<g id="edge33" class="edge">
<title>Node50&#45;&gt;Node45</title>
<path fill="none" stroke="#191970" d="M412.412,-437.9108C425.3207,-432.6382 440.6285,-425.3597 453,-416.5 471.9145,-402.9547 470.576,-392.7053 489,-378.5 551.792,-330.0862 636.0994,-289.4134 681.4364,-269.2058"/>
<polygon fill="#191970" stroke="#191970" points="683.0252,-272.3305 690.7629,-265.0932 680.2008,-265.9256 683.0252,-272.3305"/>
</g>
<!-- Node51 -->
<g id="node26" class="node">
<title>Node51</title>
<g id="a_node26"><a xlink:href="../../dc/d74/classopenage_1_1_unit_action.xhtml#a0196263da38bfa208d50c2241809cd62" target="_top" xlink:title="each action has its own update functionality which gets called when this is the active action ...">
<polygon fill="#ffffff" stroke="#000000" points="498,-388.5 498,-418.5 603,-418.5 603,-388.5 498,-388.5"/>
<text text-anchor="start" x="506" y="-406.5" font-family="Helvetica,sans-Serif" font-size="10.00" fill="#000000">openage::UnitAction</text>
<text text-anchor="middle" x="550.5" y="-395.5" font-family="Helvetica,sans-Serif" font-size="10.00" fill="#000000">::update</text>
</a>
</g>
</g>
<!-- Node50&#45;&gt;Node51 -->
<g id="edge34" class="edge">
<title>Node50&#45;&gt;Node51</title>
<path fill="none" stroke="#191970" d="M421.3025,-437.9527C440.7874,-432.7567 465.4541,-426.1789 488.0002,-420.1666"/>
<polygon fill="#191970" stroke="#191970" points="489.0859,-423.4995 497.8464,-417.541 487.2822,-416.7358 489.0859,-423.4995"/>
</g>
<!-- Node52 -->
<g id="node27" class="node">
<title>Node52</title>
<g id="a_node27"><a xlink:href="../../df/dea/classopenage_1_1_unit.xhtml#aaf08f7acc4fd00636671fb21ba4cbaf0" target="_top" xlink:title="update all secondary actions ">
<polygon fill="#ffffff" stroke="#000000" points="494,-514.5 494,-544.5 607,-544.5 607,-514.5 494,-514.5"/>
<text text-anchor="start" x="502" y="-532.5" font-family="Helvetica,sans-Serif" font-size="10.00" fill="#000000">openage::Unit::update</text>
<text text-anchor="middle" x="550.5" y="-521.5" font-family="Helvetica,sans-Serif" font-size="10.00" fill="#000000">_secondary</text>
</a>
</g>
</g>
<!-- Node50&#45;&gt;Node52 -->
<g id="edge35" class="edge">
<title>Node50&#45;&gt;Node52</title>
<path fill="none" stroke="#191970" d="M404.5425,-457.1511C425.2808,-467.6421 459.4449,-484.8676 489,-499.5 495.807,-502.8701 503.0501,-506.4281 510.0868,-509.87"/>
<polygon fill="#191970" stroke="#191970" points="508.9723,-513.2207 519.4941,-514.4629 512.0435,-506.9303 508.9723,-513.2207"/>
</g>
<!-- Node53 -->
<g id="node28" class="node">
<title>Node53</title>
<g id="a_node28"><a xlink:href="../../df/dea/classopenage_1_1_unit.xhtml#a627bc25cc4e546ff34b06cfa809f8946" target="_top" xlink:title="applies new commands as part of the units update process ">
<polygon fill="#ffffff" stroke="#000000" points="497,-563.5 497,-593.5 604,-593.5 604,-563.5 497,-563.5"/>
<text text-anchor="start" x="505" y="-581.5" font-family="Helvetica,sans-Serif" font-size="10.00" fill="#000000">openage::Unit::apply</text>
<text text-anchor="middle" x="550.5" y="-570.5" font-family="Helvetica,sans-Serif" font-size="10.00" fill="#000000">_all_cmds</text>
</a>
</g>
</g>
<!-- Node50&#45;&gt;Node53 -->
<g id="edge36" class="edge">
<title>Node50&#45;&gt;Node53</title>
<path fill="none" stroke="#191970" d="M392.7572,-457.2921C408.325,-477.7018 446.9454,-525.2375 489,-553.5 491.8608,-555.4226 494.8926,-557.2372 498.0162,-558.9428"/>
<polygon fill="#191970" stroke="#191970" points="496.4908,-562.0933 506.9971,-563.4599 499.6362,-555.8397 496.4908,-562.0933"/>
</g>
<!-- Node54 -->
<g id="node29" class="node">
<title>Node54</title>
<g id="a_node29"><a xlink:href="../../df/dea/classopenage_1_1_unit.xhtml#aef7363eab8f805124114c4967470379d" target="_top" xlink:title="applies one command using a chosen ability locks the command queue mutex while operating ...">
<polygon fill="#ffffff" stroke="#000000" points="648,-572 648,-591 779,-591 779,-572 648,-572"/>
<text text-anchor="middle" x="713.5" y="-579" font-family="Helvetica,sans-Serif" font-size="10.00" fill="#000000">openage::Unit::apply_cmd</text>
</a>
</g>
</g>
<!-- Node53&#45;&gt;Node54 -->
<g id="edge37" class="edge">
<title>Node53&#45;&gt;Node54</title>
<path fill="none" stroke="#191970" d="M604.324,-579.4906C614.9736,-579.6866 626.3386,-579.8958 637.5623,-580.1024"/>
<polygon fill="#191970" stroke="#191970" points="637.7426,-583.6062 647.8054,-580.2909 637.8715,-576.6074 637.7426,-583.6062"/>
</g>
<!-- Node54&#45;&gt;Node33 -->
<g id="edge39" class="edge">
<title>Node54&#45;&gt;Node33</title>
<path fill="none" stroke="#191970" d="M727.5458,-591.1516C756.4324,-611.001 823.0702,-656.7912 862.2369,-683.7047"/>
<polygon fill="#191970" stroke="#191970" points="860.3999,-686.689 870.6239,-689.4678 864.3643,-680.9198 860.3999,-686.689"/>
</g>
<!-- Node55 -->
<g id="node30" class="node">
<title>Node55</title>
<g id="a_node30"><a xlink:href="../../d8/dda/classopenage_1_1_command.xhtml#acbb97472983c470bf9ba48fa9297c970" target="_top" xlink:title="read the range setting ">
<polygon fill="#ffffff" stroke="#000000" points="819,-572 819,-591 966,-591 966,-572 819,-572"/>
<text text-anchor="middle" x="892.5" y="-579" font-family="Helvetica,sans-Serif" font-size="10.00" fill="#000000">openage::Command::has_flag</text>
</a>
</g>
</g>
<!-- Node54&#45;&gt;Node55 -->
<g id="edge38" class="edge">
<title>Node54&#45;&gt;Node55</title>
<path fill="none" stroke="#191970" d="M779.1366,-581.5C788.6896,-581.5 798.6339,-581.5 808.4891,-581.5"/>
<polygon fill="#191970" stroke="#191970" points="808.7069,-585.0001 818.7069,-581.5 808.7068,-578.0001 808.7069,-585.0001"/>
</g>
<!-- Node56&#45;&gt;Node45 -->
<g id="edge41" class="edge">
<title>Node56&#45;&gt;Node45</title>
<path fill="none" stroke="#191970" d="M420.6262,-185.9527C431.0743,-183.0213 442.5264,-179.7177 453,-176.5 469.1218,-171.5471 472.3523,-167.2016 489,-164.5 542.9608,-155.7434 560.9434,-144.9636 612,-164.5 650.2716,-179.1443 683.204,-215.6068 700.5125,-237.6752"/>
<polygon fill="#191970" stroke="#191970" points="697.9125,-240.0386 706.75,-245.8824 703.4857,-235.8029 697.9125,-240.0386"/>
</g>
<!-- Node57 -->
<g id="node32" class="node">
<title>Node57</title>
<g id="a_node32"><a xlink:href="../../dc/d74/classopenage_1_1_unit_action.xhtml#a6cd7405af72dd0cf3994cee74608cf8b" target="_top" xlink:title="determines which graphic should be used for drawing this unit finds the default graphic using the uni...">
<polygon fill="#ffffff" stroke="#000000" points="498,-174.5 498,-204.5 603,-204.5 603,-174.5 498,-174.5"/>
<text text-anchor="start" x="506" y="-192.5" font-family="Helvetica,sans-Serif" font-size="10.00" fill="#000000">openage::UnitAction</text>
<text text-anchor="middle" x="550.5" y="-181.5" font-family="Helvetica,sans-Serif" font-size="10.00" fill="#000000">::current_graphics</text>
</a>
</g>
</g>
<!-- Node56&#45;&gt;Node57 -->
<g id="edge42" class="edge">
<title>Node56&#45;&gt;Node57</title>
<path fill="none" stroke="#191970" d="M437.707,-193.6016C453.5789,-193.0244 471.1878,-192.3841 487.6821,-191.7843"/>
<polygon fill="#191970" stroke="#191970" points="487.9164,-195.2782 497.7825,-191.417 487.6619,-188.2828 487.9164,-195.2782"/>
</g>
<!-- Node60&#45;&gt;Node44 -->
<g id="edge46" class="edge">
<title>Node60&#45;&gt;Node44</title>
<path fill="none" stroke="#191970" d="M437.707,-277.5C452.2054,-277.5 468.1533,-277.5 483.377,-277.5"/>
<polygon fill="#191970" stroke="#191970" points="483.7741,-281.0001 493.7741,-277.5 483.7741,-274.0001 483.7741,-281.0001"/>
</g>
<!-- Node63 -->
<g id="node38" class="node">
<title>Node63</title>
<g id="a_node38"><a xlink:href="../../de/d8a/classopenage_1_1_attributes.xhtml#a9ffc8cfe4d75fbea84e7846cc6a8196f" target="_top" xlink:title="Add an attribute or replace any attribute of the same type. ">
<polygon fill="#ffffff" stroke="#000000" points="489,-745 489,-764 612,-764 612,-745 489,-745"/>
<text text-anchor="middle" x="550.5" y="-752" font-family="Helvetica,sans-Serif" font-size="10.00" fill="#000000">openage::Attributes::add</text>
</a>
</g>
</g>
<!-- Node62&#45;&gt;Node63 -->
<g id="edge49" class="edge">
<title>Node62&#45;&gt;Node63</title>
<path fill="none" stroke="#191970" d="M435.0054,-754.5C448.734,-754.5 463.922,-754.5 478.6496,-754.5"/>
<polygon fill="#191970" stroke="#191970" points="478.7485,-758.0001 488.7484,-754.5 478.7484,-751.0001 478.7485,-758.0001"/>
</g>
<!-- Node65 -->
<g id="node40" class="node">
<title>Node65</title>
<g id="a_node40"><a xlink:href="../../de/d8a/classopenage_1_1_attributes.xhtml#ae8924d1ae2fafd0c13418ab238848afb" target="_top" xlink:title="Add copies of all the attributes from the given Attributes. ">
<polygon fill="#ffffff" stroke="#000000" points="500,-651.5 500,-681.5 601,-681.5 601,-651.5 500,-651.5"/>
<text text-anchor="start" x="508" y="-669.5" font-family="Helvetica,sans-Serif" font-size="10.00" fill="#000000">openage::Attributes</text>
<text text-anchor="middle" x="550.5" y="-658.5" font-family="Helvetica,sans-Serif" font-size="10.00" fill="#000000">::add_copies</text>
</a>
</g>
</g>
<!-- Node64&#45;&gt;Node65 -->
<g id="edge51" class="edge">
<title>Node64&#45;&gt;Node65</title>
<path fill="none" stroke="#191970" d="M435.0054,-666.5C452.2255,-666.5 471.7417,-666.5 489.7653,-666.5"/>
<polygon fill="#191970" stroke="#191970" points="489.8873,-670.0001 499.8873,-666.5 489.8873,-663.0001 489.8873,-670.0001"/>
</g>
</g>
</svg>
