<?xml version="1.0" encoding="UTF-8" standalone="no"?>
<!DOCTYPE svg PUBLIC "-//W3C//DTD SVG 1.1//EN"
 "http://www.w3.org/Graphics/SVG/1.1/DTD/svg11.dtd">
<!-- Generated by graphviz version 2.40.1 (20161225.0304)
 -->
<!-- Title: openage.util.filelike.readonly.PosSavingReadOnlyFileLikeObject.seek Pages: 1 -->
<svg width="587pt" height="786pt"
 viewBox="0.00 0.00 587.00 786.00" xmlns="http://www.w3.org/2000/svg" xmlns:xlink="http://www.w3.org/1999/xlink">
<g id="graph0" class="graph" transform="scale(1 1) rotate(0) translate(4 782)">
<title>openage.util.filelike.readonly.PosSavingReadOnlyFileLikeObject.seek</title>
<polygon fill="#ffffff" stroke="transparent" points="-4,4 -4,-782 583,-782 583,4 -4,4"/>
<!-- Node2 -->
<g id="node1" class="node">
<title>Node2</title>
<polygon fill="#bfbfbf" stroke="#000000" points="0,-367.5 0,-397.5 194,-397.5 194,-367.5 0,-367.5"/>
<text text-anchor="start" x="8" y="-385.5" font-family="Helvetica,sans-Serif" font-size="10.00" fill="#000000">openage.util.filelike.readonly.</text>
<text text-anchor="middle" x="97" y="-374.5" font-family="Helvetica,sans-Serif" font-size="10.00" fill="#000000">PosSavingReadOnlyFileLikeObject.seek</text>
</g>
<!-- Node3 -->
<g id="node2" class="node">
<title>Node3</title>
<g id="a_node2"><a xlink:href="../../dd/df9/classopenage_1_1util_1_1filelike_1_1abstract_1_1_file_like_object.xhtml#a248471b44bfea2faad6d97d9dd07eb00" target="_top" xlink:title="Helper function for use by implementations of seek(). ">
<polygon fill="#ffffff" stroke="#000000" points="230,-367.5 230,-397.5 371,-397.5 371,-367.5 230,-367.5"/>
<text text-anchor="start" x="238" y="-385.5" font-family="Helvetica,sans-Serif" font-size="10.00" fill="#000000">openage.util.filelike.abstract.</text>
<text text-anchor="middle" x="300.5" y="-374.5" font-family="Helvetica,sans-Serif" font-size="10.00" fill="#000000">FileLikeObject.seek_helper</text>
</a>
</g>
</g>
<!-- Node2&#45;&gt;Node3 -->
<g id="edge1" class="edge">
<title>Node2&#45;&gt;Node3</title>
<path fill="none" stroke="#191970" d="M194.2798,-382.5C202.7799,-382.5 211.3215,-382.5 219.667,-382.5"/>
<polygon fill="#191970" stroke="#191970" points="219.7334,-386.0001 229.7334,-382.5 219.7333,-379.0001 219.7334,-386.0001"/>
</g>
<!-- Node4 -->
<g id="node3" class="node">
<title>Node4</title>
<g id="a_node3"><a xlink:href="../../d0/de5/classopenage_1_1renderer_1_1_window.xhtml#a1bf53e4db756c04ed522a975573b36a6" target="_top" xlink:title="Returns the dimensions of this window. ">
<polygon fill="#ffffff" stroke="#000000" points="442.5,-747.5 442.5,-777.5 543.5,-777.5 543.5,-747.5 442.5,-747.5"/>
<text text-anchor="start" x="450.5" y="-765.5" font-family="Helvetica,sans-Serif" font-size="10.00" fill="#000000">openage::renderer::</text>
<text text-anchor="middle" x="493" y="-754.5" font-family="Helvetica,sans-Serif" font-size="10.00" fill="#000000">Window::get_size</text>
</a>
</g>
</g>
<!-- Node3&#45;&gt;Node4 -->
<g id="edge2" class="edge">
<title>Node3&#45;&gt;Node4</title>
<path fill="none" stroke="#191970" d="M303.0751,-397.8432C313.7202,-459.5347 356.1284,-688.5628 407,-738.5 414.135,-745.5039 423.1339,-750.5021 432.6046,-754.0606"/>
<polygon fill="#191970" stroke="#191970" points="431.5892,-757.4106 442.181,-757.1601 433.7448,-750.7507 431.5892,-757.4106"/>
</g>
<!-- Node5 -->
<g id="node4" class="node">
<title>Node5</title>
<g id="a_node4"><a xlink:href="../../d6/d9c/classopenage_1_1renderer_1_1opengl_1_1_gl_buffer.xhtml#a6b6867a9bcc96e5d36923ce98bd7a635" target="_top" xlink:title="The size in bytes of this buffer. ">
<polygon fill="#ffffff" stroke="#000000" points="428,-698.5 428,-728.5 558,-728.5 558,-698.5 428,-698.5"/>
<text text-anchor="start" x="436" y="-716.5" font-family="Helvetica,sans-Serif" font-size="10.00" fill="#000000">openage::renderer::</text>
<text text-anchor="middle" x="493" y="-705.5" font-family="Helvetica,sans-Serif" font-size="10.00" fill="#000000">opengl::GlBuffer::get_size</text>
</a>
</g>
</g>
<!-- Node3&#45;&gt;Node5 -->
<g id="edge3" class="edge">
<title>Node3&#45;&gt;Node5</title>
<path fill="none" stroke="#191970" d="M301.0379,-397.5533C303.6448,-447.095 318.832,-606.6166 407,-689.5 410.5541,-692.8411 414.534,-695.7234 418.7812,-698.2093"/>
<polygon fill="#191970" stroke="#191970" points="417.3197,-701.3922 427.8239,-702.7751 420.4747,-695.1435 417.3197,-701.3922"/>
</g>
<!-- Node6 -->
<g id="node5" class="node">
<title>Node6</title>
<g id="a_node5"><a xlink:href="../../d5/d1e/classopenage_1_1util_1_1filelike_1_1_native.xhtml#ac4dd2bd1f87b66cc3de59abd1672d606" target="_top" xlink:title="openage::util::filelike\l::Native::get_size">
<polygon fill="#ffffff" stroke="#000000" points="440,-649.5 440,-679.5 546,-679.5 546,-649.5 440,-649.5"/>
<text text-anchor="start" x="448" y="-667.5" font-family="Helvetica,sans-Serif" font-size="10.00" fill="#000000">openage::util::filelike</text>
<text text-anchor="middle" x="493" y="-656.5" font-family="Helvetica,sans-Serif" font-size="10.00" fill="#000000">::Native::get_size</text>
</a>
</g>
</g>
<!-- Node3&#45;&gt;Node6 -->
<g id="edge4" class="edge">
<title>Node3&#45;&gt;Node6</title>
<path fill="none" stroke="#191970" d="M302.1661,-397.6375C307.8708,-441.9964 330.6997,-572.8021 407,-640.5 413.6554,-646.405 421.6496,-650.8686 430.0478,-654.2402"/>
<polygon fill="#191970" stroke="#191970" points="429.0566,-657.6014 439.6514,-657.6016 431.3692,-650.9944 429.0566,-657.6014"/>
</g>
<!-- Node7 -->
<g id="node6" class="node">
<title>Node7</title>
<g id="a_node6"><a xlink:href="../../d1/d0b/classopenage_1_1util_1_1filelike_1_1_python.xhtml#aa2723a9836cd17708e0341691d5ca5dd" target="_top" xlink:title="openage::util::filelike\l::Python::get_size">
<polygon fill="#ffffff" stroke="#000000" points="440,-600.5 440,-630.5 546,-630.5 546,-600.5 440,-600.5"/>
<text text-anchor="start" x="448" y="-618.5" font-family="Helvetica,sans-Serif" font-size="10.00" fill="#000000">openage::util::filelike</text>
<text text-anchor="middle" x="493" y="-607.5" font-family="Helvetica,sans-Serif" font-size="10.00" fill="#000000">::Python::get_size</text>
</a>
</g>
</g>
<!-- Node3&#45;&gt;Node7 -->
<g id="edge5" class="edge">
<title>Node3&#45;&gt;Node7</title>
<path fill="none" stroke="#191970" d="M303.8607,-397.6712C313.1551,-436.0208 342.8703,-537.5455 407,-590.5 413.7946,-596.1106 421.7955,-600.4623 430.1356,-603.8375"/>
<polygon fill="#191970" stroke="#191970" points="429.0552,-607.1682 439.6498,-607.2483 431.4176,-600.5789 429.0552,-607.1682"/>
</g>
<!-- Node8 -->
<g id="node7" class="node">
<title>Node8</title>
<g id="a_node7"><a xlink:href="../../d0/dd8/classopenage_1_1renderer_1_1resources_1_1_texture2d_info.xhtml#a3bd462432c63a67c1b199c3f717bce50" target="_top" xlink:title="Returns the dimensions of the whole texture bitmap. ">
<polygon fill="#ffffff" stroke="#000000" points="430.5,-540 430.5,-581 555.5,-581 555.5,-540 430.5,-540"/>
<text text-anchor="start" x="438.5" y="-569" font-family="Helvetica,sans-Serif" font-size="10.00" fill="#000000">openage::renderer::</text>
<text text-anchor="start" x="438.5" y="-558" font-family="Helvetica,sans-Serif" font-size="10.00" fill="#000000">resources::Texture2dInfo</text>
<text text-anchor="middle" x="493" y="-547" font-family="Helvetica,sans-Serif" font-size="10.00" fill="#000000">::get_size</text>
</a>
</g>
</g>
<!-- Node3&#45;&gt;Node8 -->
<g id="edge6" class="edge">
<title>Node3&#45;&gt;Node8</title>
<path fill="none" stroke="#191970" d="M307.5554,-397.8729C322.0037,-427.7103 357.7912,-493.7593 407,-530.5 411.3556,-533.752 416.0921,-536.6716 421.0286,-539.2894"/>
<polygon fill="#191970" stroke="#191970" points="419.5662,-542.47 430.0915,-543.6821 422.6194,-536.1709 419.5662,-542.47"/>
</g>
<!-- Node9 -->
<g id="node8" class="node">
<title>Node9</title>
<g id="a_node8"><a xlink:href="../../df/d79/classopenage_1_1cabextract_1_1lzxdstream_1_1_l_z_x_d_stream.xhtml#ab3cbec4d52b33409ea1569d92496b50b" target="_top" xlink:title="openage.cabextract.lzxdstream.\lLZXDStream.get_size">
<polygon fill="#ffffff" stroke="#000000" points="415,-490.5 415,-520.5 571,-520.5 571,-490.5 415,-490.5"/>
<text text-anchor="start" x="423" y="-508.5" font-family="Helvetica,sans-Serif" font-size="10.00" fill="#000000">openage.cabextract.lzxdstream.</text>
<text text-anchor="middle" x="493" y="-497.5" font-family="Helvetica,sans-Serif" font-size="10.00" fill="#000000">LZXDStream.get_size</text>
</a>
</g>
</g>
<!-- Node3&#45;&gt;Node9 -->
<g id="edge7" class="edge">
<title>Node3&#45;&gt;Node9</title>
<path fill="none" stroke="#191970" d="M312.6035,-397.6246C330.8085,-419.3724 367.3545,-459.2963 407,-481.5 410.2332,-483.3108 413.6125,-484.9926 417.0824,-486.5539"/>
<polygon fill="#191970" stroke="#191970" points="415.8618,-489.8364 426.4411,-490.4106 418.5289,-483.3644 415.8618,-489.8364"/>
</g>
<!-- Node10 -->
<g id="node9" class="node">
<title>Node10</title>
<g id="a_node9"><a xlink:href="../../db/da6/classopenage_1_1util_1_1filelike_1_1_file_like.xhtml#a212820ce88cf538a4099f14f622e569b" target="_top" xlink:title="openage::util::filelike\l::FileLike::get_size">
<polygon fill="#ffffff" stroke="#000000" points="440,-441.5 440,-471.5 546,-471.5 546,-441.5 440,-441.5"/>
<text text-anchor="start" x="448" y="-459.5" font-family="Helvetica,sans-Serif" font-size="10.00" fill="#000000">openage::util::filelike</text>
<text text-anchor="middle" x="493" y="-448.5" font-family="Helvetica,sans-Serif" font-size="10.00" fill="#000000">::FileLike::get_size</text>
</a>
</g>
</g>
<!-- Node3&#45;&gt;Node10 -->
<g id="edge8" class="edge">
<title>Node3&#45;&gt;Node10</title>
<path fill="none" stroke="#191970" d="M329.3204,-397.6352C350.435,-408.3248 380.0007,-422.4746 407,-432.5 414.3566,-435.2317 422.1668,-437.8215 429.9635,-440.2188"/>
<polygon fill="#191970" stroke="#191970" points="429.2138,-443.6474 439.7969,-443.1485 431.2126,-436.9388 429.2138,-443.6474"/>
</g>
<!-- Node11 -->
<g id="node10" class="node">
<title>Node11</title>
<g id="a_node10"><a xlink:href="../../dd/df9/classopenage_1_1util_1_1filelike_1_1abstract_1_1_file_like_object.xhtml#a402459217e8204b8242829b019ad85a7" target="_top" xlink:title="openage.util.filelike.abstract.\lFileLikeObject.get_size">
<polygon fill="#ffffff" stroke="#000000" points="422.5,-392.5 422.5,-422.5 563.5,-422.5 563.5,-392.5 422.5,-392.5"/>
<text text-anchor="start" x="430.5" y="-410.5" font-family="Helvetica,sans-Serif" font-size="10.00" fill="#000000">openage.util.filelike.abstract.</text>
<text text-anchor="middle" x="493" y="-399.5" font-family="Helvetica,sans-Serif" font-size="10.00" fill="#000000">FileLikeObject.get_size</text>
</a>
</g>
</g>
<!-- Node3&#45;&gt;Node11 -->
<g id="edge9" class="edge">
<title>Node3&#45;&gt;Node11</title>
<path fill="none" stroke="#191970" d="M371.0868,-391.6671C384.5568,-393.4165 398.7501,-395.2598 412.5025,-397.0458"/>
<polygon fill="#191970" stroke="#191970" points="412.0542,-400.5169 422.4217,-398.334 412.9558,-393.5752 412.0542,-400.5169"/>
</g>
<!-- Node12 -->
<g id="node11" class="node">
<title>Node12</title>
<g id="a_node11"><a xlink:href="../../d9/dab/classopenage_1_1_terrain_chunk.xhtml#afd204c75d8f3ef28ad07f8ce1ba79894" target="_top" xlink:title="openage::TerrainChunk\l::get_size">
<polygon fill="#ffffff" stroke="#000000" points="434,-343.5 434,-373.5 552,-373.5 552,-343.5 434,-343.5"/>
<text text-anchor="start" x="442" y="-361.5" font-family="Helvetica,sans-Serif" font-size="10.00" fill="#000000">openage::TerrainChunk</text>
<text text-anchor="middle" x="493" y="-350.5" font-family="Helvetica,sans-Serif" font-size="10.00" fill="#000000">::get_size</text>
</a>
</g>
</g>
<!-- Node3&#45;&gt;Node12 -->
<g id="edge10" class="edge">
<title>Node3&#45;&gt;Node12</title>
<path fill="none" stroke="#191970" d="M371.0868,-373.6996C388.309,-371.5524 406.7138,-369.2578 423.8674,-367.1191"/>
<polygon fill="#191970" stroke="#191970" points="424.3141,-370.5906 433.8042,-365.8803 423.448,-363.6444 424.3141,-370.5906"/>
</g>
<!-- Node13 -->
<g id="node12" class="node">
<title>Node13</title>
<g id="a_node12"><a xlink:href="../../de/dbb/classopenage_1_1cabextract_1_1cab_1_1_c_a_b_folder_stream.xhtml#a22d3c8597d3b8ef507a98145bd623990" target="_top" xlink:title="openage.cabextract.cab.CABFolder\lStream.get_size">
<polygon fill="#ffffff" stroke="#000000" points="407,-294.5 407,-324.5 579,-324.5 579,-294.5 407,-294.5"/>
<text text-anchor="start" x="415" y="-312.5" font-family="Helvetica,sans-Serif" font-size="10.00" fill="#000000">openage.cabextract.cab.CABFolder</text>
<text text-anchor="middle" x="493" y="-301.5" font-family="Helvetica,sans-Serif" font-size="10.00" fill="#000000">Stream.get_size</text>
</a>
</g>
</g>
<!-- Node3&#45;&gt;Node13 -->
<g id="edge11" class="edge">
<title>Node3&#45;&gt;Node13</title>
<path fill="none" stroke="#191970" d="M330.7845,-367.4768C351.8438,-357.3721 380.7399,-344.1801 407,-334.5 413.4693,-332.1153 420.2778,-329.8066 427.1138,-327.6191"/>
<polygon fill="#191970" stroke="#191970" points="428.6052,-330.8206 437.1129,-324.5063 426.5245,-324.137 428.6052,-330.8206"/>
</g>
<!-- Node14 -->
<g id="node13" class="node">
<title>Node14</title>
<g id="a_node13"><a xlink:href="../../d5/d1e/classopenage_1_1util_1_1filelike_1_1_native.xhtml#a3cd357c014b8193cfdaaf48eec32ec1b" target="_top" xlink:title="openage::util::filelike\l::Native::tell">
<polygon fill="#ffffff" stroke="#000000" points="440,-245.5 440,-275.5 546,-275.5 546,-245.5 440,-245.5"/>
<text text-anchor="start" x="448" y="-263.5" font-family="Helvetica,sans-Serif" font-size="10.00" fill="#000000">openage::util::filelike</text>
<text text-anchor="middle" x="493" y="-252.5" font-family="Helvetica,sans-Serif" font-size="10.00" fill="#000000">::Native::tell</text>
</a>
</g>
</g>
<!-- Node3&#45;&gt;Node14 -->
<g id="edge12" class="edge">
<title>Node3&#45;&gt;Node14</title>
<path fill="none" stroke="#191970" d="M313.01,-367.3925C331.4394,-346.0899 367.9484,-307.3862 407,-285.5 414.1358,-281.5008 421.9707,-278.0895 429.916,-275.1934"/>
<polygon fill="#191970" stroke="#191970" points="431.2706,-278.4301 439.6227,-271.9113 429.0284,-271.7989 431.2706,-278.4301"/>
</g>
<!-- Node15 -->
<g id="node14" class="node">
<title>Node15</title>
<g id="a_node14"><a xlink:href="../../d1/d0b/classopenage_1_1util_1_1filelike_1_1_python.xhtml#a116cc148489f31270f4f85c8d8ecf1f1" target="_top" xlink:title="openage::util::filelike\l::Python::tell">
<polygon fill="#ffffff" stroke="#000000" points="440,-196.5 440,-226.5 546,-226.5 546,-196.5 440,-196.5"/>
<text text-anchor="start" x="448" y="-214.5" font-family="Helvetica,sans-Serif" font-size="10.00" fill="#000000">openage::util::filelike</text>
<text text-anchor="middle" x="493" y="-203.5" font-family="Helvetica,sans-Serif" font-size="10.00" fill="#000000">::Python::tell</text>
</a>
</g>
</g>
<!-- Node3&#45;&gt;Node15 -->
<g id="edge13" class="edge">
<title>Node3&#45;&gt;Node15</title>
<path fill="none" stroke="#191970" d="M307.4465,-367.108C321.7037,-337.2761 357.1719,-271.4549 407,-236.5 413.9532,-231.6223 421.8546,-227.6879 429.9831,-224.5164"/>
<polygon fill="#191970" stroke="#191970" points="431.3177,-227.7571 439.5864,-221.1329 428.9915,-221.1549 431.3177,-227.7571"/>
</g>
<!-- Node16 -->
<g id="node15" class="node">
<title>Node16</title>
<g id="a_node15"><a xlink:href="../../dd/df9/classopenage_1_1util_1_1filelike_1_1abstract_1_1_file_like_object.xhtml#a0ad9d642b58e227e95d4c03b49b57d0b" target="_top" xlink:title="Returns the current position in the file. ">
<polygon fill="#ffffff" stroke="#000000" points="422.5,-147.5 422.5,-177.5 563.5,-177.5 563.5,-147.5 422.5,-147.5"/>
<text text-anchor="start" x="430.5" y="-165.5" font-family="Helvetica,sans-Serif" font-size="10.00" fill="#000000">openage.util.filelike.abstract.</text>
<text text-anchor="middle" x="493" y="-154.5" font-family="Helvetica,sans-Serif" font-size="10.00" fill="#000000">FileLikeObject.tell</text>
</a>
</g>
</g>
<!-- Node3&#45;&gt;Node16 -->
<g id="edge14" class="edge">
<title>Node3&#45;&gt;Node16</title>
<path fill="none" stroke="#191970" d="M304.3796,-367.4642C314.6048,-330.8881 345.8093,-236.6702 407,-187.5 409.2726,-185.6739 411.6736,-183.9811 414.172,-182.412"/>
<polygon fill="#191970" stroke="#191970" points="415.9346,-185.4369 422.9971,-177.5393 412.5511,-179.309 415.9346,-185.4369"/>
</g>
<!-- Node17 -->
<g id="node16" class="node">
<title>Node17</title>
<g id="a_node16"><a xlink:href="../../db/da6/classopenage_1_1util_1_1filelike_1_1_file_like.xhtml#a30eeb9b647177a0aaf06ca241e347196" target="_top" xlink:title="openage::util::filelike\l::FileLike::tell">
<polygon fill="#ffffff" stroke="#000000" points="440,-98.5 440,-128.5 546,-128.5 546,-98.5 440,-98.5"/>
<text text-anchor="start" x="448" y="-116.5" font-family="Helvetica,sans-Serif" font-size="10.00" fill="#000000">openage::util::filelike</text>
<text text-anchor="middle" x="493" y="-105.5" font-family="Helvetica,sans-Serif" font-size="10.00" fill="#000000">::FileLike::tell</text>
</a>
</g>
</g>
<!-- Node3&#45;&gt;Node17 -->
<g id="edge15" class="edge">
<title>Node3&#45;&gt;Node17</title>
<path fill="none" stroke="#191970" d="M302.6142,-367.2956C309.3739,-324.548 334.4435,-202.275 407,-138.5 413.7033,-132.608 421.724,-128.1014 430.1344,-124.655"/>
<polygon fill="#191970" stroke="#191970" points="431.5212,-127.8758 439.746,-121.1972 429.1516,-121.289 431.5212,-127.8758"/>
</g>
<!-- Node18 -->
<g id="node17" class="node">
<title>Node18</title>
<g id="a_node17"><a xlink:href="../../df/d79/classopenage_1_1cabextract_1_1lzxdstream_1_1_l_z_x_d_stream.xhtml#ad60178631fe4c59543351deb02216676" target="_top" xlink:title="openage.cabextract.lzxdstream.\lLZXDStream.tell">
<polygon fill="#ffffff" stroke="#000000" points="415,-49.5 415,-79.5 571,-79.5 571,-49.5 415,-49.5"/>
<text text-anchor="start" x="423" y="-67.5" font-family="Helvetica,sans-Serif" font-size="10.00" fill="#000000">openage.cabextract.lzxdstream.</text>
<text text-anchor="middle" x="493" y="-56.5" font-family="Helvetica,sans-Serif" font-size="10.00" fill="#000000">LZXDStream.tell</text>
</a>
</g>
</g>
<!-- Node3&#45;&gt;Node18 -->
<g id="edge16" class="edge">
<title>Node3&#45;&gt;Node18</title>
<path fill="none" stroke="#191970" d="M301.3568,-367.4854C304.919,-319.5143 322.6493,-168.4806 407,-89.5 408.6599,-87.9458 410.4109,-86.4875 412.237,-85.1193"/>
<polygon fill="#191970" stroke="#191970" points="414.1675,-88.0391 420.6765,-79.6795 410.375,-82.1555 414.1675,-88.0391"/>
</g>
<!-- Node19 -->
<g id="node18" class="node">
<title>Node19</title>
<g id="a_node18"><a xlink:href="../../dc/d27/classopenage_1_1util_1_1_file.xhtml#a27557ca3420295dbe0a09030ea19bd77" target="_top" xlink:title="openage::util::File\l::tell">
<polygon fill="#ffffff" stroke="#000000" points="446,-.5 446,-30.5 540,-30.5 540,-.5 446,-.5"/>
<text text-anchor="start" x="454" y="-18.5" font-family="Helvetica,sans-Serif" font-size="10.00" fill="#000000">openage::util::File</text>
<text text-anchor="middle" x="493" y="-7.5" font-family="Helvetica,sans-Serif" font-size="10.00" fill="#000000">::tell</text>
</a>
</g>
</g>
<!-- Node3&#45;&gt;Node19 -->
<g id="edge17" class="edge">
<title>Node3&#45;&gt;Node19</title>
<path fill="none" stroke="#191970" d="M303.2527,-367.3643C314.4164,-307.5425 358.0617,-88.5179 407,-40.5 414.9874,-32.6628 425.2806,-27.2563 435.952,-23.5333"/>
<polygon fill="#191970" stroke="#191970" points="437.2377,-26.8014 445.8033,-20.5659 435.2187,-20.0989 437.2377,-26.8014"/>
</g>
</g>
</svg>
