<?xml version="1.0" encoding="UTF-8" standalone="no"?>
<!DOCTYPE svg PUBLIC "-//W3C//DTD SVG 1.1//EN"
 "http://www.w3.org/Graphics/SVG/1.1/DTD/svg11.dtd">
<!-- Generated by graphviz version 2.40.1 (20161225.0304)
 -->
<!-- Title: openage.__main__.PrintVersion Pages: 1 -->
<svg width="163pt" height="160pt"
 viewBox="0.00 0.00 163.00 160.00" xmlns="http://www.w3.org/2000/svg" xmlns:xlink="http://www.w3.org/1999/xlink">
<g id="graph0" class="graph" transform="scale(1 1) rotate(0) translate(4 156)">
<title>openage.__main__.PrintVersion</title>
<polygon fill="#ffffff" stroke="transparent" points="-4,4 -4,-156 159,-156 159,4 -4,4"/>
<!-- Node0 -->
<g id="node1" class="node">
<title>Node0</title>
<polygon fill="#bfbfbf" stroke="#000000" points="0,-.5 0,-57.5 155,-57.5 155,-.5 0,-.5"/>
<text text-anchor="middle" x="77.5" y="-45.5" font-family="Helvetica,sans-Serif" font-size="10.00" fill="#000000">openage.__main__.PrintVersion</text>
<polyline fill="none" stroke="#000000" points="0,-38.5 155,-38.5 "/>
<text text-anchor="middle" x="77.5" y="-26.5" font-family="Helvetica,sans-Serif" font-size="10.00" fill="#000000"> </text>
<polyline fill="none" stroke="#000000" points="0,-19.5 155,-19.5 "/>
<text text-anchor="start" x="8" y="-7.5" font-family="Helvetica,sans-Serif" font-size="10.00" fill="#000000">+ __call__()</text>
</g>
<!-- Node1 -->
<g id="node2" class="node">
<title>Node1</title>
<polygon fill="#ffffff" stroke="#bfbfbf" points="33.5,-94.5 33.5,-151.5 121.5,-151.5 121.5,-94.5 33.5,-94.5"/>
<text text-anchor="middle" x="77.5" y="-139.5" font-family="Helvetica,sans-Serif" font-size="10.00" fill="#000000">argparse::Action</text>
<polyline fill="none" stroke="#bfbfbf" points="33.5,-132.5 121.5,-132.5 "/>
<text text-anchor="middle" x="77.5" y="-120.5" font-family="Helvetica,sans-Serif" font-size="10.00" fill="#000000"> </text>
<polyline fill="none" stroke="#bfbfbf" points="33.5,-113.5 121.5,-113.5 "/>
<text text-anchor="middle" x="77.5" y="-101.5" font-family="Helvetica,sans-Serif" font-size="10.00" fill="#000000"> </text>
</g>
<!-- Node1&#45;&gt;Node0 -->
<g id="edge1" class="edge">
<title>Node1&#45;&gt;Node0</title>
<path fill="none" stroke="#191970" d="M77.5,-84.1035C77.5,-75.2052 77.5,-65.9073 77.5,-57.538"/>
<polygon fill="none" stroke="#191970" points="74.0001,-84.2861 77.5,-94.2861 81.0001,-84.2862 74.0001,-84.2861"/>
</g>
</g>
</svg>
