<?xml version="1.0" encoding="UTF-8" standalone="no"?>
<!DOCTYPE svg PUBLIC "-//W3C//DTD SVG 1.1//EN"
 "http://www.w3.org/Graphics/SVG/1.1/DTD/svg11.dtd">
<!-- Generated by graphviz version 2.40.1 (20161225.0304)
 -->
<!-- Title: openage.convert.drs.DRSFileInfo Pages: 1 -->
<!--zoomable 546 -->
<svg id="main" version="1.1" xmlns="http://www.w3.org/2000/svg" xmlns:xlink="http://www.w3.org/1999/xlink" xml:space="preserve" onload="init(evt)">
<style type="text/css"><![CDATA[
.edge:hover path { stroke: red; }
.edge:hover polygon { stroke: red; fill: red; }
]]></style>
<script type="text/javascript"><![CDATA[
var edges = document.getElementsByTagName('g');
if (edges && edges.length) {
  for (var i=0;i<edges.length;i++) {
    if (edges[i].id.substr(0,4)=='edge') {
      edges[i].setAttribute('class','edge');
    }
  }
}
]]></script>
        <defs>
                <circle id="rim" cx="0" cy="0" r="7"/>
                <circle id="rim2" cx="0" cy="0" r="3.5"/>
                <g id="zoomPlus">
                        <use xlink:href="#rim" fill="#404040">
                                <set attributeName="fill" to="#808080" begin="zoomplus.mouseover" end="zoomplus.mouseout"/>
                        </use>
                        <path d="M-4,0h8M0,-4v8" fill="none" stroke="white" stroke-width="1.5" pointer-events="none"/>
                </g>
                <g id="zoomMin">
                        <use xlink:href="#rim" fill="#404040">
                                <set attributeName="fill" to="#808080" begin="zoomminus.mouseover" end="zoomminus.mouseout"/>
                        </use>
                        <path d="M-4,0h8" fill="none" stroke="white" stroke-width="1.5" pointer-events="none"/>
                </g>
                <g id="dirArrow">
                        <path fill="none" stroke="white" stroke-width="1.5" d="M0,-3.0v7 M-2.5,-0.5L0,-3.0L2.5,-0.5"/>
                </g>
               <g id="resetDef">
                       <use xlink:href="#rim2" fill="#404040">
                               <set attributeName="fill" to="#808080" begin="reset.mouseover" end="reset.mouseout"/>
                       </use>
               </g>
        </defs>

<script type="text/javascript">
var viewWidth = 220;
var viewHeight = 546;
var sectionId = 'dynsection-1';
</script>
<script xlink:href="../../svgpan.js"/>
<svg id="graph" class="graph">
<g id="viewport">
<title>openage.convert.drs.DRSFileInfo</title>
<polygon fill="#ffffff" stroke="transparent" points="-4,4 -4,-542 215.5,-542 215.5,4 -4,4"/>
<!-- Node5 -->
<g id="node1" class="node">
<title>Node5</title>
<polygon fill="#bfbfbf" stroke="#000000" points="7,-.5 7,-90.5 169,-90.5 169,-.5 7,-.5"/>
<text text-anchor="middle" x="88" y="-78.5" font-family="Helvetica,sans-Serif" font-size="10.00" fill="#000000">openage.convert.drs.DRSFileInfo</text>
<polyline fill="none" stroke="#000000" points="7,-71.5 169,-71.5 "/>
<text text-anchor="start" x="15" y="-59.5" font-family="Helvetica,sans-Serif" font-size="10.00" fill="#000000">+ endianness</text>
<text text-anchor="start" x="15" y="-48.5" font-family="Helvetica,sans-Serif" font-size="10.00" fill="#000000">+ file_id</text>
<text text-anchor="start" x="15" y="-37.5" font-family="Helvetica,sans-Serif" font-size="10.00" fill="#000000">+ file_data_offset</text>
<text text-anchor="start" x="15" y="-26.5" font-family="Helvetica,sans-Serif" font-size="10.00" fill="#000000">+ file_size</text>
<polyline fill="none" stroke="#000000" points="7,-19.5 169,-19.5 "/>
<text text-anchor="middle" x="88" y="-7.5" font-family="Helvetica,sans-Serif" font-size="10.00" fill="#000000"> </text>
</g>
<!-- Node6 -->
<g id="node2" class="node">
<title>Node6</title>
<g id="a_node2"><a xlink:href="../../db/db2/classopenage_1_1util_1_1struct_1_1_named_struct.xhtml" target="_top" xlink:title="Designed to be inherited from, similar to Enum. ">
<polygon fill="#ffffff" stroke="#000000" points="22.5,-127.5 22.5,-327.5 153.5,-327.5 153.5,-127.5 22.5,-127.5"/>
<text text-anchor="start" x="30.5" y="-315.5" font-family="Helvetica,sans-Serif" font-size="10.00" fill="#000000">openage.util.struct.Named</text>
<text text-anchor="middle" x="88" y="-304.5" font-family="Helvetica,sans-Serif" font-size="10.00" fill="#000000">Struct</text>
<polyline fill="none" stroke="#000000" points="22.5,-297.5 153.5,-297.5 "/>
<text text-anchor="start" x="30.5" y="-285.5" font-family="Helvetica,sans-Serif" font-size="10.00" fill="#000000">&#45; _postprocessors</text>
<text text-anchor="start" x="30.5" y="-274.5" font-family="Helvetica,sans-Serif" font-size="10.00" fill="#000000">&#45; _struct</text>
<text text-anchor="start" x="30.5" y="-263.5" font-family="Helvetica,sans-Serif" font-size="10.00" fill="#000000">&#45; _attributes</text>
<polyline fill="none" stroke="#000000" points="22.5,-256.5 153.5,-256.5 "/>
<text text-anchor="start" x="30.5" y="-244.5" font-family="Helvetica,sans-Serif" font-size="10.00" fill="#000000">+ __init__()</text>
<text text-anchor="start" x="30.5" y="-233.5" font-family="Helvetica,sans-Serif" font-size="10.00" fill="#000000">+ unpack()</text>
<text text-anchor="start" x="30.5" y="-222.5" font-family="Helvetica,sans-Serif" font-size="10.00" fill="#000000">+ size()</text>
<text text-anchor="start" x="30.5" y="-211.5" font-family="Helvetica,sans-Serif" font-size="10.00" fill="#000000">+ read()</text>
<text text-anchor="start" x="30.5" y="-200.5" font-family="Helvetica,sans-Serif" font-size="10.00" fill="#000000">+ from_nullbytes()</text>
<text text-anchor="start" x="30.5" y="-189.5" font-family="Helvetica,sans-Serif" font-size="10.00" fill="#000000">+ __len__()</text>
<text text-anchor="start" x="30.5" y="-178.5" font-family="Helvetica,sans-Serif" font-size="10.00" fill="#000000">+ __getitem__()</text>
<text text-anchor="start" x="30.5" y="-167.5" font-family="Helvetica,sans-Serif" font-size="10.00" fill="#000000">+ as_dict()</text>
<text text-anchor="start" x="30.5" y="-156.5" font-family="Helvetica,sans-Serif" font-size="10.00" fill="#000000">+ __iter__()</text>
<text text-anchor="start" x="30.5" y="-145.5" font-family="Helvetica,sans-Serif" font-size="10.00" fill="#000000">+ __repr__()</text>
<text text-anchor="start" x="30.5" y="-134.5" font-family="Helvetica,sans-Serif" font-size="10.00" fill="#000000">+ __str__()</text>
</a>
</g>
</g>
<!-- Node6&#45;&gt;Node5 -->
<g id="edge1" class="edge">
<title>Node6&#45;&gt;Node5</title>
<path fill="none" stroke="#191970" d="M88,-117.252C88,-107.9388 88,-98.9075 88,-90.5728"/>
<polygon fill="none" stroke="#191970" points="84.5001,-117.4488 88,-127.4489 91.5001,-117.4489 84.5001,-117.4488"/>
</g>
<!-- Node7 -->
<g id="node3" class="node">
<title>Node7</title>
<polygon fill="#ffffff" stroke="#bfbfbf" points="0,-375.5 0,-432.5 62,-432.5 62,-375.5 0,-375.5"/>
<text text-anchor="middle" x="31" y="-420.5" font-family="Helvetica,sans-Serif" font-size="10.00" fill="#000000">metaclass</text>
<polyline fill="none" stroke="#bfbfbf" points="0,-413.5 62,-413.5 "/>
<text text-anchor="middle" x="31" y="-401.5" font-family="Helvetica,sans-Serif" font-size="10.00" fill="#000000"> </text>
<polyline fill="none" stroke="#bfbfbf" points="0,-394.5 62,-394.5 "/>
<text text-anchor="middle" x="31" y="-382.5" font-family="Helvetica,sans-Serif" font-size="10.00" fill="#000000"> </text>
</g>
<!-- Node7&#45;&gt;Node6 -->
<g id="edge2" class="edge">
<title>Node7&#45;&gt;Node6</title>
<path fill="none" stroke="#191970" d="M43.3818,-365.6597C47.0755,-354.2224 51.3073,-341.1187 55.6608,-327.6381"/>
<polygon fill="none" stroke="#191970" points="40.0275,-364.6577 40.2849,-375.2494 46.6888,-366.809 40.0275,-364.6577"/>
</g>
<!-- Node8 -->
<g id="node4" class="node">
<title>Node8</title>
<g id="a_node4"><a xlink:href="../../dd/d33/classopenage_1_1util_1_1struct_1_1_named_struct_meta.xhtml" target="_top" xlink:title="Metaclass for NamedStruct. ">
<polygon fill="#ffffff" stroke="#000000" points="80.5,-364.5 80.5,-443.5 211.5,-443.5 211.5,-364.5 80.5,-364.5"/>
<text text-anchor="start" x="88.5" y="-431.5" font-family="Helvetica,sans-Serif" font-size="10.00" fill="#000000">openage.util.struct.Named</text>
<text text-anchor="middle" x="146" y="-420.5" font-family="Helvetica,sans-Serif" font-size="10.00" fill="#000000">StructMeta</text>
<polyline fill="none" stroke="#000000" points="80.5,-413.5 211.5,-413.5 "/>
<text text-anchor="middle" x="146" y="-401.5" font-family="Helvetica,sans-Serif" font-size="10.00" fill="#000000"> </text>
<polyline fill="none" stroke="#000000" points="80.5,-394.5 211.5,-394.5 "/>
<text text-anchor="start" x="88.5" y="-382.5" font-family="Helvetica,sans-Serif" font-size="10.00" fill="#000000">+ __prepare__()</text>
<text text-anchor="start" x="88.5" y="-371.5" font-family="Helvetica,sans-Serif" font-size="10.00" fill="#000000">+ __new__()</text>
</a>
</g>
</g>
<!-- Node8&#45;&gt;Node6 -->
<g id="edge3" class="edge">
<title>Node8&#45;&gt;Node6</title>
<path fill="none" stroke="#191970" d="M129.8043,-354.7149C127.0113,-346.2155 124.0201,-337.1129 120.9691,-327.8284"/>
<polygon fill="none" stroke="#191970" points="126.5366,-355.9824 132.9837,-364.39 133.1868,-353.7971 126.5366,-355.9824"/>
</g>
<!-- Node9 -->
<g id="node5" class="node">
<title>Node9</title>
<polygon fill="#ffffff" stroke="#bfbfbf" points="128.5,-480.5 128.5,-537.5 163.5,-537.5 163.5,-480.5 128.5,-480.5"/>
<text text-anchor="middle" x="146" y="-525.5" font-family="Helvetica,sans-Serif" font-size="10.00" fill="#000000">type</text>
<polyline fill="none" stroke="#bfbfbf" points="128.5,-518.5 163.5,-518.5 "/>
<text text-anchor="middle" x="146" y="-506.5" font-family="Helvetica,sans-Serif" font-size="10.00" fill="#000000"> </text>
<polyline fill="none" stroke="#bfbfbf" points="128.5,-499.5 163.5,-499.5 "/>
<text text-anchor="middle" x="146" y="-487.5" font-family="Helvetica,sans-Serif" font-size="10.00" fill="#000000"> </text>
</g>
<!-- Node9&#45;&gt;Node8 -->
<g id="edge4" class="edge">
<title>Node9&#45;&gt;Node8</title>
<path fill="none" stroke="#191970" d="M146,-470.1156C146,-461.4889 146,-452.3353 146,-443.6773"/>
<polygon fill="none" stroke="#191970" points="142.5001,-470.3083 146,-480.3083 149.5001,-470.3083 142.5001,-470.3083"/>
</g>
</g>
</svg>
        <g id="navigator" transform="translate(0 0)" fill="#404254">
                <rect fill="#f2f5e9" fill-opacity="0.5" stroke="#606060" stroke-width=".5" x="0" y="0" width="60" height="60"/>
                <use id="zoomplus" xlink:href="#zoomPlus" x="17" y="9" onmousedown="handleZoom(evt,'in')"/>
                <use id="zoomminus" xlink:href="#zoomMin" x="42" y="9" onmousedown="handleZoom(evt,'out')"/>
                <use id="reset" xlink:href="#resetDef" x="30" y="36" onmousedown="handleReset()"/>
                <g id="arrowUp" xlink:href="#dirArrow" transform="translate(30 24)" onmousedown="handlePan(0,-1)">
                  <use xlink:href="#rim" fill="#404040">
                        <set attributeName="fill" to="#808080" begin="arrowUp.mouseover" end="arrowUp.mouseout"/>
                  </use>
                  <path fill="none" stroke="white" stroke-width="1.5" d="M0,-3.0v7 M-2.5,-0.5L0,-3.0L2.5,-0.5"/>
                </g>
                <g id="arrowRight" xlink:href="#dirArrow" transform="rotate(90) translate(36 -43)" onmousedown="handlePan(1,0)">
                  <use xlink:href="#rim" fill="#404040">
                        <set attributeName="fill" to="#808080" begin="arrowRight.mouseover" end="arrowRight.mouseout"/>
                  </use>
                  <path fill="none" stroke="white" stroke-width="1.5" d="M0,-3.0v7 M-2.5,-0.5L0,-3.0L2.5,-0.5"/>
                </g>
                <g id="arrowDown" xlink:href="#dirArrow" transform="rotate(180) translate(-30 -48)" onmousedown="handlePan(0,1)">
                  <use xlink:href="#rim" fill="#404040">
                        <set attributeName="fill" to="#808080" begin="arrowDown.mouseover" end="arrowDown.mouseout"/>
                  </use>
                  <path fill="none" stroke="white" stroke-width="1.5" d="M0,-3.0v7 M-2.5,-0.5L0,-3.0L2.5,-0.5"/>
                </g>
                <g id="arrowLeft" xlink:href="#dirArrow" transform="rotate(270) translate(-36 17)" onmousedown="handlePan(-1,0)">
                  <use xlink:href="#rim" fill="#404040">
                        <set attributeName="fill" to="#808080" begin="arrowLeft.mouseover" end="arrowLeft.mouseout"/>
                  </use>
                  <path fill="none" stroke="white" stroke-width="1.5" d="M0,-3.0v7 M-2.5,-0.5L0,-3.0L2.5,-0.5"/>
                </g>
        </g>
        <svg viewBox="0 0 15 15" width="100%" height="30px" preserveAspectRatio="xMaxYMin meet">
         <g id="arrow_out" transform="scale(0.3 0.3)">
          <a xlink:href="classopenage_1_1convert_1_1drs_1_1_d_r_s_file_info__coll__graph_org.svg" target="_base">
           <rect id="button" ry="5" rx="5" y="6" x="6" height="38" width="38"
                fill="#f2f5e9" fill-opacity="0.5" stroke="#606060" stroke-width="1.0"/>
           <path id="arrow"
             d="M 11.500037,31.436501 C 11.940474,20.09759 22.043105,11.32322 32.158766,21.979434 L 37.068811,17.246167 C 37.068811,17.246167 37.088388,32 37.088388,32 L 22.160133,31.978069 C 22.160133,31.978069 26.997745,27.140456 26.997745,27.140456 C 18.528582,18.264221 13.291696,25.230495 11.500037,31.436501 z"
             style="fill:#404040;"/>
          </a>
         </g>
        </svg>
</svg>
