<?xml version="1.0" encoding="UTF-8" standalone="no"?>
<!DOCTYPE svg PUBLIC "-//W3C//DTD SVG 1.1//EN"
 "http://www.w3.org/Graphics/SVG/1.1/DTD/svg11.dtd">
<!-- Generated by graphviz version 2.40.1 (20161225.0304)
 -->
<!-- Title: openage::ProjectileAction::update Pages: 1 -->
<svg width="943pt" height="362pt"
 viewBox="0.00 0.00 943.00 361.50" xmlns="http://www.w3.org/2000/svg" xmlns:xlink="http://www.w3.org/1999/xlink">
<g id="graph0" class="graph" transform="scale(1 1) rotate(0) translate(4 357.5)">
<title>openage::ProjectileAction::update</title>
<polygon fill="#ffffff" stroke="transparent" points="-4,4 -4,-357.5 939,-357.5 939,4 -4,4"/>
<!-- Node36 -->
<g id="node1" class="node">
<title>Node36</title>
<polygon fill="#bfbfbf" stroke="#000000" points="0,-137 0,-167 128,-167 128,-137 0,-137"/>
<text text-anchor="start" x="8" y="-155" font-family="Helvetica,sans-Serif" font-size="10.00" fill="#000000">openage::ProjectileAction</text>
<text text-anchor="middle" x="64" y="-144" font-family="Helvetica,sans-Serif" font-size="10.00" fill="#000000">::update</text>
</g>
<!-- Node37 -->
<g id="node2" class="node">
<title>Node37</title>
<g id="a_node2"><a xlink:href="../../dc/d74/classopenage_1_1_unit_action.xhtml#a7beffb7ad454cf467d7a6b843df939c7" target="_top" xlink:title="Damage a unit, returns true if the unit was killed in the process. ">
<polygon fill="#ffffff" stroke="#000000" points="169.5,-203 169.5,-233 274.5,-233 274.5,-203 169.5,-203"/>
<text text-anchor="start" x="177.5" y="-221" font-family="Helvetica,sans-Serif" font-size="10.00" fill="#000000">openage::UnitAction</text>
<text text-anchor="middle" x="222" y="-210" font-family="Helvetica,sans-Serif" font-size="10.00" fill="#000000">::damage_unit</text>
</a>
</g>
</g>
<!-- Node36&#45;&gt;Node37 -->
<g id="edge1" class="edge">
<title>Node36&#45;&gt;Node37</title>
<path fill="none" stroke="#191970" d="M100.2484,-167.1417C122.9299,-176.6163 152.3395,-188.9013 176.5718,-199.0237"/>
<polygon fill="#191970" stroke="#191970" points="175.3439,-202.3038 185.9203,-202.9287 178.042,-195.8447 175.3439,-202.3038"/>
</g>
<!-- Node40 -->
<g id="node5" class="node">
<title>Node40</title>
<g id="a_node5"><a xlink:href="../../df/dea/classopenage_1_1_unit.xhtml#a3e12324401051119f44e212dae1a87ce" target="_top" xlink:title="returns attribute based on templated value ">
<polygon fill="#ffffff" stroke="#000000" points="316,-159 316,-189 413,-189 413,-159 316,-159"/>
<text text-anchor="start" x="324" y="-177" font-family="Helvetica,sans-Serif" font-size="10.00" fill="#000000">openage::Unit::get</text>
<text text-anchor="middle" x="364.5" y="-166" font-family="Helvetica,sans-Serif" font-size="10.00" fill="#000000">_attribute</text>
</a>
</g>
</g>
<!-- Node36&#45;&gt;Node40 -->
<g id="edge19" class="edge">
<title>Node36&#45;&gt;Node40</title>
<path fill="none" stroke="#191970" d="M128.0962,-156.6926C180.6671,-160.5414 254.4914,-165.9461 305.5947,-169.6875"/>
<polygon fill="#191970" stroke="#191970" points="305.59,-173.1964 315.8189,-170.436 306.1011,-166.2151 305.59,-173.1964"/>
</g>
<!-- Node52 -->
<g id="node17" class="node">
<title>Node52</title>
<g id="a_node17"><a xlink:href="../../db/dd1/structopenage_1_1coord_1_1tile3.xhtml#af828e2ee284deb35ce13d30b57b14ad0" target="_top" xlink:title="openage::coord::tile3\l::to_tile">
<polygon fill="#ffffff" stroke="#000000" points="168.5,-115 168.5,-145 275.5,-145 275.5,-115 168.5,-115"/>
<text text-anchor="start" x="176.5" y="-133" font-family="Helvetica,sans-Serif" font-size="10.00" fill="#000000">openage::coord::tile3</text>
<text text-anchor="middle" x="222" y="-122" font-family="Helvetica,sans-Serif" font-size="10.00" fill="#000000">::to_tile</text>
</a>
</g>
</g>
<!-- Node36&#45;&gt;Node52 -->
<g id="edge20" class="edge">
<title>Node36&#45;&gt;Node52</title>
<path fill="none" stroke="#191970" d="M128.2646,-143.0518C138.1565,-141.6744 148.3679,-140.2526 158.2486,-138.8768"/>
<polygon fill="#191970" stroke="#191970" points="158.9765,-142.3093 168.3982,-137.4635 158.011,-135.3762 158.9765,-142.3093"/>
</g>
<!-- Node53 -->
<g id="node18" class="node">
<title>Node53</title>
<g id="a_node18"><a xlink:href="../../d2/da4/structopenage_1_1coord_1_1phys3.xhtml#a8ed61fb85a083922af8fbbabd087ae31" target="_top" xlink:title="openage::coord::phys3\l::to_tile3">
<polygon fill="#ffffff" stroke="#000000" points="164,-66 164,-96 280,-96 280,-66 164,-66"/>
<text text-anchor="start" x="172" y="-84" font-family="Helvetica,sans-Serif" font-size="10.00" fill="#000000">openage::coord::phys3</text>
<text text-anchor="middle" x="222" y="-73" font-family="Helvetica,sans-Serif" font-size="10.00" fill="#000000">::to_tile3</text>
</a>
</g>
</g>
<!-- Node36&#45;&gt;Node53 -->
<g id="edge21" class="edge">
<title>Node36&#45;&gt;Node53</title>
<path fill="none" stroke="#191970" d="M95.3532,-136.8011C114.9734,-127.4053 140.8365,-115.2291 164,-105 167.6526,-103.387 171.4478,-101.7441 175.2699,-100.1128"/>
<polygon fill="#191970" stroke="#191970" points="176.9092,-103.2199 184.7603,-96.1058 174.1864,-96.7712 176.9092,-103.2199"/>
</g>
<!-- Node38 -->
<g id="node3" class="node">
<title>Node38</title>
<g id="a_node3"><a xlink:href="../../df/dea/classopenage_1_1_unit.xhtml#a6c56a8b7e9856a8e0535cacbe831bae7" target="_top" xlink:title="returns whether attribute is available ">
<polygon fill="#ffffff" stroke="#000000" points="658.5,-323 658.5,-353 757.5,-353 757.5,-323 658.5,-323"/>
<text text-anchor="start" x="666.5" y="-341" font-family="Helvetica,sans-Serif" font-size="10.00" fill="#000000">openage::Unit::has</text>
<text text-anchor="middle" x="708" y="-330" font-family="Helvetica,sans-Serif" font-size="10.00" fill="#000000">_attribute</text>
</a>
</g>
</g>
<!-- Node37&#45;&gt;Node38 -->
<g id="edge2" class="edge">
<title>Node37&#45;&gt;Node38</title>
<path fill="none" stroke="#191970" d="M247.8349,-233.0769C288.8847,-256.1916 372.2296,-299.7298 449,-319 515.6192,-335.7222 594.6703,-339.2704 647.7647,-339.4023"/>
<polygon fill="#191970" stroke="#191970" points="648.0318,-342.9019 658.0262,-339.386 648.0206,-335.902 648.0318,-342.9019"/>
</g>
<!-- Node37&#45;&gt;Node40 -->
<g id="edge4" class="edge">
<title>Node37&#45;&gt;Node40</title>
<path fill="none" stroke="#191970" d="M270.6419,-202.9808C281.9801,-199.4798 294.1704,-195.7158 305.8894,-192.0973"/>
<polygon fill="#191970" stroke="#191970" points="307.0713,-195.3955 315.5936,-189.1009 305.006,-188.7071 307.0713,-195.3955"/>
</g>
<!-- Node39 -->
<g id="node4" class="node">
<title>Node39</title>
<g id="a_node4"><a xlink:href="../../de/d8a/classopenage_1_1_attributes.xhtml#aee38f453ac85b68821958ad74cdd8df5" target="_top" xlink:title="Check if the attribute of the given type exists. ">
<polygon fill="#ffffff" stroke="#000000" points="812,-328.5 812,-347.5 935,-347.5 935,-328.5 812,-328.5"/>
<text text-anchor="middle" x="873.5" y="-335.5" font-family="Helvetica,sans-Serif" font-size="10.00" fill="#000000">openage::Attributes::has</text>
</a>
</g>
</g>
<!-- Node38&#45;&gt;Node39 -->
<g id="edge3" class="edge">
<title>Node38&#45;&gt;Node39</title>
<path fill="none" stroke="#191970" d="M757.6555,-338C771.503,-338 786.8309,-338 801.6808,-338"/>
<polygon fill="#191970" stroke="#191970" points="801.8611,-341.5001 811.861,-338 801.861,-334.5001 801.8611,-341.5001"/>
</g>
<!-- Node41 -->
<g id="node6" class="node">
<title>Node41</title>
<g id="a_node6"><a xlink:href="../../de/d8a/classopenage_1_1_attributes.xhtml#a08f927be3be6911e7cf77604f9ead10f" target="_top" xlink:title="Get the attribute based on the type. ">
<polygon fill="#ffffff" stroke="#000000" points="466,-202.5 466,-221.5 587,-221.5 587,-202.5 466,-202.5"/>
<text text-anchor="middle" x="526.5" y="-209.5" font-family="Helvetica,sans-Serif" font-size="10.00" fill="#000000">openage::Attributes::get</text>
</a>
</g>
</g>
<!-- Node40&#45;&gt;Node41 -->
<g id="edge5" class="edge">
<title>Node40&#45;&gt;Node41</title>
<path fill="none" stroke="#191970" d="M413.1053,-185.4013C432.9579,-190.058 455.9189,-195.4439 475.9656,-200.1462"/>
<polygon fill="#191970" stroke="#191970" points="475.3126,-203.588 485.8476,-202.4643 476.9112,-196.773 475.3126,-203.588"/>
</g>
<!-- Node42 -->
<g id="node7" class="node">
<title>Node42</title>
<g id="a_node7"><a xlink:href="../../df/dea/classopenage_1_1_unit.xhtml#ac5dcdf3180dcd4bdce67b765d8ef2134" target="_top" xlink:title="queues a command to be applied to this unit on the next update ">
<polygon fill="#ffffff" stroke="#000000" points="459.5,-164.5 459.5,-183.5 593.5,-183.5 593.5,-164.5 459.5,-164.5"/>
<text text-anchor="middle" x="526.5" y="-171.5" font-family="Helvetica,sans-Serif" font-size="10.00" fill="#000000">openage::Unit::queue_cmd</text>
</a>
</g>
</g>
<!-- Node40&#45;&gt;Node42 -->
<g id="edge6" class="edge">
<title>Node40&#45;&gt;Node42</title>
<path fill="none" stroke="#191970" d="M413.1053,-174C424.464,-174 436.8403,-174 449.106,-174"/>
<polygon fill="#191970" stroke="#191970" points="449.3585,-177.5001 459.3585,-174 449.3585,-170.5001 449.3585,-177.5001"/>
</g>
<!-- Node44 -->
<g id="node9" class="node">
<title>Node44</title>
<g id="a_node9"><a xlink:href="../../df/dea/classopenage_1_1_unit.xhtml#a238fb029bd4cc32e393506533facd976" target="_top" xlink:title="removes all gather actions without calling their on_complete actions this cancels the gathering actio...">
<polygon fill="#ffffff" stroke="#000000" points="657,-235 657,-265 759,-265 759,-235 657,-235"/>
<text text-anchor="start" x="665" y="-253" font-family="Helvetica,sans-Serif" font-size="10.00" fill="#000000">openage::Unit::stop</text>
<text text-anchor="middle" x="708" y="-242" font-family="Helvetica,sans-Serif" font-size="10.00" fill="#000000">_gather</text>
</a>
</g>
</g>
<!-- Node40&#45;&gt;Node44 -->
<g id="edge8" class="edge">
<title>Node40&#45;&gt;Node44</title>
<path fill="none" stroke="#191970" d="M381.1667,-189.1629C397.2423,-202.7772 422.9141,-221.9676 449,-231 513.8402,-253.4514 593.1234,-255.9233 646.7607,-254.2363"/>
<polygon fill="#191970" stroke="#191970" points="646.9381,-257.7322 656.801,-253.8625 646.6777,-250.7371 646.9381,-257.7322"/>
</g>
<!-- Node46 -->
<g id="node11" class="node">
<title>Node46</title>
<g id="a_node11"><a xlink:href="../../df/dea/classopenage_1_1_unit.xhtml#a9f53ef015fca7c42ff3bf9d0779145a3" target="_top" xlink:title="removes all actions above and including the first interuptable action this will stop any of the units...">
<polygon fill="#ffffff" stroke="#000000" points="475.5,-279 475.5,-309 577.5,-309 577.5,-279 475.5,-279"/>
<text text-anchor="start" x="483.5" y="-297" font-family="Helvetica,sans-Serif" font-size="10.00" fill="#000000">openage::Unit::stop</text>
<text text-anchor="middle" x="526.5" y="-286" font-family="Helvetica,sans-Serif" font-size="10.00" fill="#000000">_actions</text>
</a>
</g>
</g>
<!-- Node40&#45;&gt;Node46 -->
<g id="edge10" class="edge">
<title>Node40&#45;&gt;Node46</title>
<path fill="none" stroke="#191970" d="M375.1846,-189.0323C389.8322,-208.6763 417.8992,-243.0355 449,-264 455.0042,-268.0473 461.6328,-271.6607 468.4102,-274.8548"/>
<polygon fill="#191970" stroke="#191970" points="467.1377,-278.1189 477.6998,-278.9519 469.9625,-271.7141 467.1377,-278.1189"/>
</g>
<!-- Node47 -->
<g id="node12" class="node">
<title>Node47</title>
<g id="a_node12"><a xlink:href="../../df/dea/classopenage_1_1_unit.xhtml#ad7f76de394d832d927a9e6d46bd3c93f" target="_top" xlink:title="begins unit removal by popping some actions ">
<polygon fill="#ffffff" stroke="#000000" points="461,-126.5 461,-145.5 592,-145.5 592,-126.5 461,-126.5"/>
<text text-anchor="middle" x="526.5" y="-133.5" font-family="Helvetica,sans-Serif" font-size="10.00" fill="#000000">openage::Unit::delete_unit</text>
</a>
</g>
</g>
<!-- Node40&#45;&gt;Node47 -->
<g id="edge14" class="edge">
<title>Node40&#45;&gt;Node47</title>
<path fill="none" stroke="#191970" d="M413.1053,-162.5987C432.9579,-157.942 455.9189,-152.5561 475.9656,-147.8538"/>
<polygon fill="#191970" stroke="#191970" points="476.9112,-151.227 485.8476,-145.5357 475.3126,-144.412 476.9112,-151.227"/>
</g>
<!-- Node48 -->
<g id="node13" class="node">
<title>Node48</title>
<g id="a_node13"><a xlink:href="../../df/dea/classopenage_1_1_unit.xhtml#adfea298b04684ab09dd8f499dabb8715" target="_top" xlink:title="get a reference which can check against the container to ensure this object still exists ...">
<polygon fill="#ffffff" stroke="#000000" points="470,-88.5 470,-107.5 583,-107.5 583,-88.5 470,-88.5"/>
<text text-anchor="middle" x="526.5" y="-95.5" font-family="Helvetica,sans-Serif" font-size="10.00" fill="#000000">openage::Unit::get_ref</text>
</a>
</g>
</g>
<!-- Node40&#45;&gt;Node48 -->
<g id="edge15" class="edge">
<title>Node40&#45;&gt;Node48</title>
<path fill="none" stroke="#191970" d="M382.8298,-158.8147C399.2283,-145.9448 424.4066,-127.8924 449,-117 454.6525,-114.4965 460.6892,-112.2885 466.8045,-110.349"/>
<polygon fill="#191970" stroke="#191970" points="467.8279,-113.6964 476.435,-107.5184 465.8539,-106.9805 467.8279,-113.6964"/>
</g>
<!-- Node49 -->
<g id="node14" class="node">
<title>Node49</title>
<g id="a_node14"><a xlink:href="../../df/dea/classopenage_1_1_unit.xhtml#a2e9937d84fe91d95cbe273f6fe986068" target="_top" xlink:title="the container used when constructing this unit ">
<polygon fill="#ffffff" stroke="#000000" points="478,-39 478,-69 575,-69 575,-39 478,-39"/>
<text text-anchor="start" x="486" y="-57" font-family="Helvetica,sans-Serif" font-size="10.00" fill="#000000">openage::Unit::get</text>
<text text-anchor="middle" x="526.5" y="-46" font-family="Helvetica,sans-Serif" font-size="10.00" fill="#000000">_container</text>
</a>
</g>
</g>
<!-- Node40&#45;&gt;Node49 -->
<g id="edge16" class="edge">
<title>Node40&#45;&gt;Node49</title>
<path fill="none" stroke="#191970" d="M374.0879,-158.8943C388.0934,-138.0084 416.0905,-100.4643 449,-79 455.0244,-75.0708 461.7151,-71.7159 468.5693,-68.8623"/>
<polygon fill="#191970" stroke="#191970" points="469.8752,-72.1102 477.9702,-65.2749 467.3795,-65.5702 469.8752,-72.1102"/>
</g>
<!-- Node50 -->
<g id="node15" class="node">
<title>Node50</title>
<g id="a_node15"><a xlink:href="../../df/dea/classopenage_1_1_unit.xhtml#ae769f520dfdb148ec831c151a954a881" target="_top" xlink:title="Returns the unit&#39;s name as the LogSource name. ">
<polygon fill="#ffffff" stroke="#000000" points="449,-.5 449,-19.5 604,-19.5 604,-.5 449,-.5"/>
<text text-anchor="middle" x="526.5" y="-7.5" font-family="Helvetica,sans-Serif" font-size="10.00" fill="#000000">openage::Unit::logsource_name</text>
</a>
</g>
</g>
<!-- Node40&#45;&gt;Node50 -->
<g id="edge17" class="edge">
<title>Node40&#45;&gt;Node50</title>
<path fill="none" stroke="#191970" d="M369.001,-158.5589C378.542,-128.6604 403.7223,-62.837 449,-29 451.5263,-27.1121 454.2161,-25.4096 457.0205,-23.8747"/>
<polygon fill="#191970" stroke="#191970" points="458.7384,-26.9349 466.3064,-19.5202 455.7664,-20.5971 458.7384,-26.9349"/>
</g>
<!-- Node43 -->
<g id="node8" class="node">
<title>Node43</title>
<g id="a_node8"><a xlink:href="../../d8/dda/classopenage_1_1_command.xhtml#afbc0a60d82b9608e375c38c5e3fdf758" target="_top" xlink:title="the ability types allowed to use this command ">
<polygon fill="#ffffff" stroke="#000000" points="640,-164.5 640,-183.5 776,-183.5 776,-164.5 640,-164.5"/>
<text text-anchor="middle" x="708" y="-171.5" font-family="Helvetica,sans-Serif" font-size="10.00" fill="#000000">openage::Command::ability</text>
</a>
</g>
</g>
<!-- Node42&#45;&gt;Node43 -->
<g id="edge7" class="edge">
<title>Node42&#45;&gt;Node43</title>
<path fill="none" stroke="#191970" d="M593.5682,-174C605.402,-174 617.8134,-174 629.9182,-174"/>
<polygon fill="#191970" stroke="#191970" points="629.9946,-177.5001 639.9946,-174 629.9945,-170.5001 629.9946,-177.5001"/>
</g>
<!-- Node45 -->
<g id="node10" class="node">
<title>Node45</title>
<g id="a_node10"><a xlink:href="../../df/dea/classopenage_1_1_unit.xhtml#aae0b3f53cb1d75823391322876d199ef" target="_top" xlink:title="erase from action specified by func to the end of the stack all actions erased will have the on_compl...">
<polygon fill="#ffffff" stroke="#000000" points="820,-257 820,-287 927,-287 927,-257 820,-257"/>
<text text-anchor="start" x="828" y="-275" font-family="Helvetica,sans-Serif" font-size="10.00" fill="#000000">openage::Unit::erase</text>
<text text-anchor="middle" x="873.5" y="-264" font-family="Helvetica,sans-Serif" font-size="10.00" fill="#000000">_after</text>
</a>
</g>
</g>
<!-- Node44&#45;&gt;Node45 -->
<g id="edge9" class="edge">
<title>Node44&#45;&gt;Node45</title>
<path fill="none" stroke="#191970" d="M759.0059,-256.7802C774.9723,-258.9027 792.7971,-261.2721 809.5387,-263.4976"/>
<polygon fill="#191970" stroke="#191970" points="809.4223,-267.0128 819.7964,-264.8611 810.3448,-260.0739 809.4223,-267.0128"/>
</g>
<!-- Node46&#45;&gt;Node38 -->
<g id="edge11" class="edge">
<title>Node46&#45;&gt;Node38</title>
<path fill="none" stroke="#191970" d="M577.5409,-306.3735C599.5524,-311.7097 625.4463,-317.987 648.3383,-323.5365"/>
<polygon fill="#191970" stroke="#191970" points="647.7384,-326.9924 658.2815,-325.947 649.3876,-320.1895 647.7384,-326.9924"/>
</g>
<!-- Node46&#45;&gt;Node44 -->
<g id="edge12" class="edge">
<title>Node46&#45;&gt;Node44</title>
<path fill="none" stroke="#191970" d="M577.5409,-281.6265C599.0957,-276.401 624.3736,-270.2731 646.9096,-264.8098"/>
<polygon fill="#191970" stroke="#191970" points="647.8195,-268.1907 656.7134,-262.4331 646.1702,-261.3877 647.8195,-268.1907"/>
</g>
<!-- Node46&#45;&gt;Node45 -->
<g id="edge13" class="edge">
<title>Node46&#45;&gt;Node45</title>
<path fill="none" stroke="#191970" d="M577.701,-290.7538C639.3864,-286.8429 743.0363,-280.2715 809.8214,-276.0373"/>
<polygon fill="#191970" stroke="#191970" points="810.046,-279.5301 819.8045,-275.4043 809.603,-272.5442 810.046,-279.5301"/>
</g>
<!-- Node51 -->
<g id="node16" class="node">
<title>Node51</title>
<g id="a_node16"><a xlink:href="../../d8/dcc/namespacestd.xhtml#a26aa0f4be3a77ac5cc3ce0cabb545042" target="_top" xlink:title="std::to_string">
<polygon fill="#ffffff" stroke="#000000" points="671,-.5 671,-19.5 745,-19.5 745,-.5 671,-.5"/>
<text text-anchor="middle" x="708" y="-7.5" font-family="Helvetica,sans-Serif" font-size="10.00" fill="#000000">std::to_string</text>
</a>
</g>
</g>
<!-- Node50&#45;&gt;Node51 -->
<g id="edge18" class="edge">
<title>Node50&#45;&gt;Node51</title>
<path fill="none" stroke="#191970" d="M604.2622,-10C623.3849,-10 643.2933,-10 660.4958,-10"/>
<polygon fill="#191970" stroke="#191970" points="660.826,-13.5001 670.8259,-10 660.8259,-6.5001 660.826,-13.5001"/>
</g>
</g>
</svg>
