<?xml version="1.0" encoding="UTF-8" standalone="no"?>
<!DOCTYPE svg PUBLIC "-//W3C//DTD SVG 1.1//EN"
 "http://www.w3.org/Graphics/SVG/1.1/DTD/svg11.dtd">
<!-- Generated by graphviz version 2.40.1 (20161225.0304)
 -->
<!-- Title: openage::square_outline Pages: 1 -->
<svg width="379pt" height="88pt"
 viewBox="0.00 0.00 379.00 88.00" xmlns="http://www.w3.org/2000/svg" xmlns:xlink="http://www.w3.org/1999/xlink">
<g id="graph0" class="graph" transform="scale(1 1) rotate(0) translate(4 84)">
<title>openage::square_outline</title>
<polygon fill="#ffffff" stroke="transparent" points="-4,4 -4,-84 375,-84 375,4 -4,4"/>
<!-- Node118 -->
<g id="node1" class="node">
<title>Node118</title>
<polygon fill="#bfbfbf" stroke="#000000" points="0,-30 0,-49 122,-49 122,-30 0,-30"/>
<text text-anchor="middle" x="61" y="-37" font-family="Helvetica,sans-Serif" font-size="10.00" fill="#000000">openage::square_outline</text>
</g>
<!-- Node119 -->
<g id="node2" class="node">
<title>Node119</title>
<g id="a_node2"><a xlink:href="../../d8/dcc/namespacestd.xhtml#a6af851cc1249a970adde4dc422ff824a" target="_top" xlink:title="std::abs">
<polygon fill="#ffffff" stroke="#000000" points="158,-30 158,-49 210,-49 210,-30 158,-30"/>
<text text-anchor="middle" x="184" y="-37" font-family="Helvetica,sans-Serif" font-size="10.00" fill="#000000">std::abs</text>
</a>
</g>
</g>
<!-- Node118&#45;&gt;Node119 -->
<g id="edge1" class="edge">
<title>Node118&#45;&gt;Node119</title>
<path fill="none" stroke="#191970" d="M122.1397,-39.5C130.8594,-39.5 139.5889,-39.5 147.6267,-39.5"/>
<polygon fill="#191970" stroke="#191970" points="147.736,-43.0001 157.736,-39.5 147.736,-36.0001 147.736,-43.0001"/>
</g>
<!-- Node120 -->
<g id="node3" class="node">
<title>Node120</title>
<g id="a_node3"><a xlink:href="../../dc/d65/classopenage_1_1util_1_1_fixed_point.xhtml#aa01c403263c2142c0ce9ce40cde89066" target="_top" xlink:title="Factory function to construct a fixed&#45;point number with a given raw value. ">
<polygon fill="#ffffff" stroke="#000000" points="246,-49.5 246,-79.5 371,-79.5 371,-49.5 246,-49.5"/>
<text text-anchor="start" x="254" y="-67.5" font-family="Helvetica,sans-Serif" font-size="10.00" fill="#000000">openage::util::FixedPoint</text>
<text text-anchor="middle" x="308.5" y="-56.5" font-family="Helvetica,sans-Serif" font-size="10.00" fill="#000000">::from_raw_value</text>
</a>
</g>
</g>
<!-- Node119&#45;&gt;Node120 -->
<g id="edge2" class="edge">
<title>Node119&#45;&gt;Node120</title>
<path fill="none" stroke="#191970" d="M210.0993,-44.7408C217.7967,-46.2865 226.6227,-48.0588 235.7592,-49.8934"/>
<polygon fill="#191970" stroke="#191970" points="235.2629,-53.3636 245.7563,-51.9009 236.6411,-46.5006 235.2629,-53.3636"/>
</g>
<!-- Node121 -->
<g id="node4" class="node">
<title>Node121</title>
<g id="a_node4"><a xlink:href="../../dc/d65/classopenage_1_1util_1_1_fixed_point.xhtml#affe7a3ec44c6f7ac96312875af742f87" target="_top" xlink:title="Converter to retrieve the raw value of the fixed&#45;point number. ">
<polygon fill="#ffffff" stroke="#000000" points="246,-.5 246,-30.5 371,-30.5 371,-.5 246,-.5"/>
<text text-anchor="start" x="254" y="-18.5" font-family="Helvetica,sans-Serif" font-size="10.00" fill="#000000">openage::util::FixedPoint</text>
<text text-anchor="middle" x="308.5" y="-7.5" font-family="Helvetica,sans-Serif" font-size="10.00" fill="#000000">::get_raw_value</text>
</a>
</g>
</g>
<!-- Node119&#45;&gt;Node121 -->
<g id="edge3" class="edge">
<title>Node119&#45;&gt;Node121</title>
<path fill="none" stroke="#191970" d="M210.0993,-34.4688C217.7967,-32.985 226.6227,-31.2836 235.7592,-29.5223"/>
<polygon fill="#191970" stroke="#191970" points="236.5996,-32.9248 245.7563,-27.5952 235.2746,-26.0514 236.5996,-32.9248"/>
</g>
</g>
</svg>
