<?xml version="1.0" encoding="UTF-8" standalone="no"?>
<!DOCTYPE svg PUBLIC "-//W3C//DTD SVG 1.1//EN"
 "http://www.w3.org/Graphics/SVG/1.1/DTD/svg11.dtd">
<!-- Generated by graphviz version 2.40.1 (20161225.0304)
 -->
<!-- Title: openage::complete_building Pages: 1 -->
<!--zoomable 345 -->
<svg id="main" version="1.1" xmlns="http://www.w3.org/2000/svg" xmlns:xlink="http://www.w3.org/1999/xlink" xml:space="preserve" onload="init(evt)">
<style type="text/css"><![CDATA[
.edge:hover path { stroke: red; }
.edge:hover polygon { stroke: red; fill: red; }
]]></style>
<script type="text/javascript"><![CDATA[
var edges = document.getElementsByTagName('g');
if (edges && edges.length) {
  for (var i=0;i<edges.length;i++) {
    if (edges[i].id.substr(0,4)=='edge') {
      edges[i].setAttribute('class','edge');
    }
  }
}
]]></script>
        <defs>
                <circle id="rim" cx="0" cy="0" r="7"/>
                <circle id="rim2" cx="0" cy="0" r="3.5"/>
                <g id="zoomPlus">
                        <use xlink:href="#rim" fill="#404040">
                                <set attributeName="fill" to="#808080" begin="zoomplus.mouseover" end="zoomplus.mouseout"/>
                        </use>
                        <path d="M-4,0h8M0,-4v8" fill="none" stroke="white" stroke-width="1.5" pointer-events="none"/>
                </g>
                <g id="zoomMin">
                        <use xlink:href="#rim" fill="#404040">
                                <set attributeName="fill" to="#808080" begin="zoomminus.mouseover" end="zoomminus.mouseout"/>
                        </use>
                        <path d="M-4,0h8" fill="none" stroke="white" stroke-width="1.5" pointer-events="none"/>
                </g>
                <g id="dirArrow">
                        <path fill="none" stroke="white" stroke-width="1.5" d="M0,-3.0v7 M-2.5,-0.5L0,-3.0L2.5,-0.5"/>
                </g>
               <g id="resetDef">
                       <use xlink:href="#rim2" fill="#404040">
                               <set attributeName="fill" to="#808080" begin="reset.mouseover" end="reset.mouseout"/>
                       </use>
               </g>
        </defs>

<script type="text/javascript">
var viewWidth = 800;
var viewHeight = 345;
var sectionId = 'dynsection-4';
</script>
<script xlink:href="../../svgpan.js"/>
<svg id="graph" class="graph">
<g id="viewport">
<title>openage::complete_building</title>
<polygon fill="#ffffff" stroke="transparent" points="-4,4 -4,-340.6217 796,-340.6217 796,4 -4,4"/>
<!-- Node25 -->
<g id="node1" class="node">
<title>Node25</title>
<polygon fill="#bfbfbf" stroke="#000000" points="0,-74.1217 0,-93.1217 137,-93.1217 137,-74.1217 0,-74.1217"/>
<text text-anchor="middle" x="68.5" y="-81.1217" font-family="Helvetica,sans-Serif" font-size="10.00" fill="#000000">openage::complete_building</text>
</g>
<!-- Node26 -->
<g id="node2" class="node">
<title>Node26</title>
<g id="a_node2"><a xlink:href="../../df/dea/classopenage_1_1_unit.xhtml#a3e12324401051119f44e212dae1a87ce" target="_top" xlink:title="returns attribute based on templated value ">
<polygon fill="#ffffff" stroke="#000000" points="173,-153.6217 173,-183.6217 270,-183.6217 270,-153.6217 173,-153.6217"/>
<text text-anchor="start" x="181" y="-171.6217" font-family="Helvetica,sans-Serif" font-size="10.00" fill="#000000">openage::Unit::get</text>
<text text-anchor="middle" x="221.5" y="-160.6217" font-family="Helvetica,sans-Serif" font-size="10.00" fill="#000000">_attribute</text>
</a>
</g>
</g>
<!-- Node25&#45;&gt;Node26 -->
<g id="edge1" class="edge">
<title>Node25&#45;&gt;Node26</title>
<path fill="none" stroke="#191970" d="M85.7536,-93.2071C109.7955,-106.5637 153.953,-131.0956 185.3738,-148.5516"/>
<polygon fill="#191970" stroke="#191970" points="183.8334,-151.6997 194.2748,-153.4966 187.233,-145.5806 183.8334,-151.6997"/>
</g>
<!-- Node33 -->
<g id="node9" class="node">
<title>Node33</title>
<g id="a_node9"><a xlink:href="../../df/dea/classopenage_1_1_unit.xhtml#a6c56a8b7e9856a8e0535cacbe831bae7" target="_top" xlink:title="returns whether attribute is available ">
<polygon fill="#ffffff" stroke="#000000" points="515.5,-95.6217 515.5,-125.6217 614.5,-125.6217 614.5,-95.6217 515.5,-95.6217"/>
<text text-anchor="start" x="523.5" y="-113.6217" font-family="Helvetica,sans-Serif" font-size="10.00" fill="#000000">openage::Unit::has</text>
<text text-anchor="middle" x="565" y="-102.6217" font-family="Helvetica,sans-Serif" font-size="10.00" fill="#000000">_attribute</text>
</a>
</g>
</g>
<!-- Node25&#45;&gt;Node33 -->
<g id="edge17" class="edge">
<title>Node25&#45;&gt;Node33</title>
<path fill="none" stroke="#191970" d="M86.7652,-74.0147C143.9386,-45.2944 323.8275,34.7649 461,-17.6217 497.4766,-31.5523 529.2528,-64.8152 547.7846,-87.5396"/>
<polygon fill="#191970" stroke="#191970" points="545.0432,-89.7156 553.997,-95.3796 550.5296,-85.3682 545.0432,-89.7156"/>
</g>
<!-- Node27 -->
<g id="node3" class="node">
<title>Node27</title>
<g id="a_node3"><a xlink:href="../../de/d8a/classopenage_1_1_attributes.xhtml#a08f927be3be6911e7cf77604f9ead10f" target="_top" xlink:title="Get the attribute based on the type. ">
<polygon fill="#ffffff" stroke="#000000" points="323,-279.1217 323,-298.1217 444,-298.1217 444,-279.1217 323,-279.1217"/>
<text text-anchor="middle" x="383.5" y="-286.1217" font-family="Helvetica,sans-Serif" font-size="10.00" fill="#000000">openage::Attributes::get</text>
</a>
</g>
</g>
<!-- Node26&#45;&gt;Node27 -->
<g id="edge2" class="edge">
<title>Node26&#45;&gt;Node27</title>
<path fill="none" stroke="#191970" d="M229.9654,-183.9138C243.181,-206.3094 270.8802,-247.7369 306,-269.6217 309.4078,-271.7453 313.0374,-273.6315 316.7949,-275.307"/>
<polygon fill="#191970" stroke="#191970" points="315.7573,-278.6596 326.3449,-279.0527 318.3133,-272.1429 315.7573,-278.6596"/>
</g>
<!-- Node28 -->
<g id="node4" class="node">
<title>Node28</title>
<g id="a_node4"><a xlink:href="../../df/dea/classopenage_1_1_unit.xhtml#ac5dcdf3180dcd4bdce67b765d8ef2134" target="_top" xlink:title="queues a command to be applied to this unit on the next update ">
<polygon fill="#ffffff" stroke="#000000" points="316.5,-241.1217 316.5,-260.1217 450.5,-260.1217 450.5,-241.1217 316.5,-241.1217"/>
<text text-anchor="middle" x="383.5" y="-248.1217" font-family="Helvetica,sans-Serif" font-size="10.00" fill="#000000">openage::Unit::queue_cmd</text>
</a>
</g>
</g>
<!-- Node26&#45;&gt;Node28 -->
<g id="edge3" class="edge">
<title>Node26&#45;&gt;Node28</title>
<path fill="none" stroke="#191970" d="M239.954,-183.7253C256.432,-196.5979 281.6573,-214.8352 306,-226.6217 315.1277,-231.0413 325.2514,-234.8733 335.0889,-238.0986"/>
<polygon fill="#191970" stroke="#191970" points="334.195,-241.486 344.7835,-241.1211 336.2785,-234.8033 334.195,-241.486"/>
</g>
<!-- Node30 -->
<g id="node6" class="node">
<title>Node30</title>
<g id="a_node6"><a xlink:href="../../df/dea/classopenage_1_1_unit.xhtml#a238fb029bd4cc32e393506533facd976" target="_top" xlink:title="removes all gather actions without calling their on_complete actions this cancels the gathering actio...">
<polygon fill="#ffffff" stroke="#000000" points="514,-194.6217 514,-224.6217 616,-224.6217 616,-194.6217 514,-194.6217"/>
<text text-anchor="start" x="522" y="-212.6217" font-family="Helvetica,sans-Serif" font-size="10.00" fill="#000000">openage::Unit::stop</text>
<text text-anchor="middle" x="565" y="-201.6217" font-family="Helvetica,sans-Serif" font-size="10.00" fill="#000000">_gather</text>
</a>
</g>
</g>
<!-- Node26&#45;&gt;Node30 -->
<g id="edge5" class="edge">
<title>Node26&#45;&gt;Node30</title>
<path fill="none" stroke="#191970" d="M265.3438,-183.6369C278.2928,-187.5129 292.5913,-191.2554 306,-193.6217 372.9641,-205.4391 450.9998,-208.8835 503.7728,-209.7203"/>
<polygon fill="#191970" stroke="#191970" points="503.9346,-213.2226 513.9798,-209.8545 504.0268,-206.2232 503.9346,-213.2226"/>
</g>
<!-- Node32 -->
<g id="node8" class="node">
<title>Node32</title>
<g id="a_node8"><a xlink:href="../../df/dea/classopenage_1_1_unit.xhtml#a9f53ef015fca7c42ff3bf9d0779145a3" target="_top" xlink:title="removes all actions above and including the first interuptable action this will stop any of the units...">
<polygon fill="#ffffff" stroke="#000000" points="332.5,-153.6217 332.5,-183.6217 434.5,-183.6217 434.5,-153.6217 332.5,-153.6217"/>
<text text-anchor="start" x="340.5" y="-171.6217" font-family="Helvetica,sans-Serif" font-size="10.00" fill="#000000">openage::Unit::stop</text>
<text text-anchor="middle" x="383.5" y="-160.6217" font-family="Helvetica,sans-Serif" font-size="10.00" fill="#000000">_actions</text>
</a>
</g>
</g>
<!-- Node26&#45;&gt;Node32 -->
<g id="edge7" class="edge">
<title>Node26&#45;&gt;Node32</title>
<path fill="none" stroke="#191970" d="M270.1053,-168.6217C286.5441,-168.6217 305.1142,-168.6217 322.3962,-168.6217"/>
<polygon fill="#191970" stroke="#191970" points="322.3969,-172.1218 332.3968,-168.6217 322.3968,-165.1218 322.3969,-172.1218"/>
</g>
<!-- Node35 -->
<g id="node11" class="node">
<title>Node35</title>
<g id="a_node11"><a xlink:href="../../df/dea/classopenage_1_1_unit.xhtml#ad7f76de394d832d927a9e6d46bd3c93f" target="_top" xlink:title="begins unit removal by popping some actions ">
<polygon fill="#ffffff" stroke="#000000" points="318,-115.1217 318,-134.1217 449,-134.1217 449,-115.1217 318,-115.1217"/>
<text text-anchor="middle" x="383.5" y="-122.1217" font-family="Helvetica,sans-Serif" font-size="10.00" fill="#000000">openage::Unit::delete_unit</text>
</a>
</g>
</g>
<!-- Node26&#45;&gt;Node35 -->
<g id="edge12" class="edge">
<title>Node26&#45;&gt;Node35</title>
<path fill="none" stroke="#191970" d="M270.1491,-154.5871C281.8732,-151.2649 294.3716,-147.773 306,-144.6217 315.6566,-142.0048 326.0117,-139.2778 335.9086,-136.7098"/>
<polygon fill="#191970" stroke="#191970" points="336.8026,-140.0938 345.6099,-134.2046 335.0524,-133.3161 336.8026,-140.0938"/>
</g>
<!-- Node36 -->
<g id="node12" class="node">
<title>Node36</title>
<g id="a_node12"><a xlink:href="../../df/dea/classopenage_1_1_unit.xhtml#adfea298b04684ab09dd8f499dabb8715" target="_top" xlink:title="get a reference which can check against the container to ensure this object still exists ...">
<polygon fill="#ffffff" stroke="#000000" points="327,-77.1217 327,-96.1217 440,-96.1217 440,-77.1217 327,-77.1217"/>
<text text-anchor="middle" x="383.5" y="-84.1217" font-family="Helvetica,sans-Serif" font-size="10.00" fill="#000000">openage::Unit::get_ref</text>
</a>
</g>
</g>
<!-- Node26&#45;&gt;Node36 -->
<g id="edge13" class="edge">
<title>Node26&#45;&gt;Node36</title>
<path fill="none" stroke="#191970" d="M237.6713,-153.4133C253.79,-139.0589 279.8485,-117.9505 306,-105.6217 311.2178,-103.1618 316.7887,-100.9995 322.4597,-99.103"/>
<polygon fill="#191970" stroke="#191970" points="323.5216,-102.4383 332.0535,-96.1567 321.4666,-95.7467 323.5216,-102.4383"/>
</g>
<!-- Node37 -->
<g id="node13" class="node">
<title>Node37</title>
<g id="a_node13"><a xlink:href="../../df/dea/classopenage_1_1_unit.xhtml#a2e9937d84fe91d95cbe273f6fe986068" target="_top" xlink:title="the container used when constructing this unit ">
<polygon fill="#ffffff" stroke="#000000" points="335,-27.6217 335,-57.6217 432,-57.6217 432,-27.6217 335,-27.6217"/>
<text text-anchor="start" x="343" y="-45.6217" font-family="Helvetica,sans-Serif" font-size="10.00" fill="#000000">openage::Unit::get</text>
<text text-anchor="middle" x="383.5" y="-34.6217" font-family="Helvetica,sans-Serif" font-size="10.00" fill="#000000">_container</text>
</a>
</g>
</g>
<!-- Node26&#45;&gt;Node37 -->
<g id="edge14" class="edge">
<title>Node26&#45;&gt;Node37</title>
<path fill="none" stroke="#191970" d="M230.3977,-153.2836C243.9633,-131.2111 271.8758,-90.6222 306,-67.6217 311.9642,-63.6017 318.6186,-60.1922 325.4534,-57.3092"/>
<polygon fill="#191970" stroke="#191970" points="326.7627,-60.5556 334.8374,-53.6964 324.2476,-54.023 326.7627,-60.5556"/>
</g>
<!-- Node38 -->
<g id="node14" class="node">
<title>Node38</title>
<g id="a_node14"><a xlink:href="../../df/dea/classopenage_1_1_unit.xhtml#ae769f520dfdb148ec831c151a954a881" target="_top" xlink:title="Returns the unit&#39;s name as the LogSource name. ">
<polygon fill="#ffffff" stroke="#000000" points="306,-317.1217 306,-336.1217 461,-336.1217 461,-317.1217 306,-317.1217"/>
<text text-anchor="middle" x="383.5" y="-324.1217" font-family="Helvetica,sans-Serif" font-size="10.00" fill="#000000">openage::Unit::logsource_name</text>
</a>
</g>
</g>
<!-- Node26&#45;&gt;Node38 -->
<g id="edge15" class="edge">
<title>Node26&#45;&gt;Node38</title>
<path fill="none" stroke="#191970" d="M226.3465,-183.8786C236.335,-212.7586 262.0385,-275.4002 306,-307.6217 308.5437,-309.4861 311.2479,-311.1692 314.0639,-312.6884"/>
<polygon fill="#191970" stroke="#191970" points="312.8335,-315.9758 323.3783,-317.0043 315.7765,-309.6244 312.8335,-315.9758"/>
</g>
<!-- Node29 -->
<g id="node5" class="node">
<title>Node29</title>
<g id="a_node5"><a xlink:href="../../d8/dda/classopenage_1_1_command.xhtml#afbc0a60d82b9608e375c38c5e3fdf758" target="_top" xlink:title="the ability types allowed to use this command ">
<polygon fill="#ffffff" stroke="#000000" points="497,-244.1217 497,-263.1217 633,-263.1217 633,-244.1217 497,-244.1217"/>
<text text-anchor="middle" x="565" y="-251.1217" font-family="Helvetica,sans-Serif" font-size="10.00" fill="#000000">openage::Command::ability</text>
</a>
</g>
</g>
<!-- Node28&#45;&gt;Node29 -->
<g id="edge4" class="edge">
<title>Node28&#45;&gt;Node29</title>
<path fill="none" stroke="#191970" d="M450.5682,-251.7303C462.402,-251.9259 474.8134,-252.131 486.9182,-252.3311"/>
<polygon fill="#191970" stroke="#191970" points="486.9381,-255.8318 496.9946,-252.4977 487.0538,-248.8328 486.9381,-255.8318"/>
</g>
<!-- Node31 -->
<g id="node7" class="node">
<title>Node31</title>
<g id="a_node7"><a xlink:href="../../df/dea/classopenage_1_1_unit.xhtml#aae0b3f53cb1d75823391322876d199ef" target="_top" xlink:title="erase from action specified by func to the end of the stack all actions erased will have the on_compl...">
<polygon fill="#ffffff" stroke="#000000" points="677,-161.6217 677,-191.6217 784,-191.6217 784,-161.6217 677,-161.6217"/>
<text text-anchor="start" x="685" y="-179.6217" font-family="Helvetica,sans-Serif" font-size="10.00" fill="#000000">openage::Unit::erase</text>
<text text-anchor="middle" x="730.5" y="-168.6217" font-family="Helvetica,sans-Serif" font-size="10.00" fill="#000000">_after</text>
</a>
</g>
</g>
<!-- Node30&#45;&gt;Node31 -->
<g id="edge6" class="edge">
<title>Node30&#45;&gt;Node31</title>
<path fill="none" stroke="#191970" d="M616.0059,-199.4514C631.9723,-196.2677 649.7971,-192.7135 666.5387,-189.3753"/>
<polygon fill="#191970" stroke="#191970" points="667.6739,-192.718 676.7964,-187.33 666.305,-185.8531 667.6739,-192.718"/>
</g>
<!-- Node32&#45;&gt;Node30 -->
<g id="edge10" class="edge">
<title>Node32&#45;&gt;Node30</title>
<path fill="none" stroke="#191970" d="M434.5409,-180.1516C456.0957,-185.0208 481.3736,-190.7309 503.9096,-195.8217"/>
<polygon fill="#191970" stroke="#191970" points="503.1879,-199.2468 513.7134,-198.0363 504.7304,-192.4188 503.1879,-199.2468"/>
</g>
<!-- Node32&#45;&gt;Node31 -->
<g id="edge11" class="edge">
<title>Node32&#45;&gt;Node31</title>
<path fill="none" stroke="#191970" d="M434.701,-169.8022C496.2598,-171.2214 599.6108,-173.6041 666.4095,-175.1441"/>
<polygon fill="#191970" stroke="#191970" points="666.7264,-178.6523 676.8045,-175.3838 666.8879,-171.6541 666.7264,-178.6523"/>
</g>
<!-- Node32&#45;&gt;Node33 -->
<g id="edge8" class="edge">
<title>Node32&#45;&gt;Node33</title>
<path fill="none" stroke="#191970" d="M430.7132,-153.5343C454.451,-145.9487 483.3971,-136.6987 508.3286,-128.7316"/>
<polygon fill="#191970" stroke="#191970" points="509.5631,-132.0115 518.0232,-125.6336 507.4323,-125.3437 509.5631,-132.0115"/>
</g>
<!-- Node34 -->
<g id="node10" class="node">
<title>Node34</title>
<g id="a_node10"><a xlink:href="../../de/d8a/classopenage_1_1_attributes.xhtml#aee38f453ac85b68821958ad74cdd8df5" target="_top" xlink:title="Check if the attribute of the given type exists. ">
<polygon fill="#ffffff" stroke="#000000" points="669,-101.1217 669,-120.1217 792,-120.1217 792,-101.1217 669,-101.1217"/>
<text text-anchor="middle" x="730.5" y="-108.1217" font-family="Helvetica,sans-Serif" font-size="10.00" fill="#000000">openage::Attributes::has</text>
</a>
</g>
</g>
<!-- Node33&#45;&gt;Node34 -->
<g id="edge9" class="edge">
<title>Node33&#45;&gt;Node34</title>
<path fill="none" stroke="#191970" d="M614.6555,-110.6217C628.503,-110.6217 643.8309,-110.6217 658.6808,-110.6217"/>
<polygon fill="#191970" stroke="#191970" points="658.8611,-114.1218 668.861,-110.6217 658.861,-107.1218 658.8611,-114.1218"/>
</g>
<!-- Node39 -->
<g id="node15" class="node">
<title>Node39</title>
<g id="a_node15"><a xlink:href="../../d8/dcc/namespacestd.xhtml#a26aa0f4be3a77ac5cc3ce0cabb545042" target="_top" xlink:title="std::to_string">
<polygon fill="#ffffff" stroke="#000000" points="528,-317.1217 528,-336.1217 602,-336.1217 602,-317.1217 528,-317.1217"/>
<text text-anchor="middle" x="565" y="-324.1217" font-family="Helvetica,sans-Serif" font-size="10.00" fill="#000000">std::to_string</text>
</a>
</g>
</g>
<!-- Node38&#45;&gt;Node39 -->
<g id="edge16" class="edge">
<title>Node38&#45;&gt;Node39</title>
<path fill="none" stroke="#191970" d="M461.2622,-326.6217C480.3849,-326.6217 500.2933,-326.6217 517.4958,-326.6217"/>
<polygon fill="#191970" stroke="#191970" points="517.826,-330.1218 527.8259,-326.6217 517.8259,-323.1218 517.826,-330.1218"/>
</g>
</g>
</svg>
        <g id="navigator" transform="translate(0 0)" fill="#404254">
                <rect fill="#f2f5e9" fill-opacity="0.5" stroke="#606060" stroke-width=".5" x="0" y="0" width="60" height="60"/>
                <use id="zoomplus" xlink:href="#zoomPlus" x="17" y="9" onmousedown="handleZoom(evt,'in')"/>
                <use id="zoomminus" xlink:href="#zoomMin" x="42" y="9" onmousedown="handleZoom(evt,'out')"/>
                <use id="reset" xlink:href="#resetDef" x="30" y="36" onmousedown="handleReset()"/>
                <g id="arrowUp" xlink:href="#dirArrow" transform="translate(30 24)" onmousedown="handlePan(0,-1)">
                  <use xlink:href="#rim" fill="#404040">
                        <set attributeName="fill" to="#808080" begin="arrowUp.mouseover" end="arrowUp.mouseout"/>
                  </use>
                  <path fill="none" stroke="white" stroke-width="1.5" d="M0,-3.0v7 M-2.5,-0.5L0,-3.0L2.5,-0.5"/>
                </g>
                <g id="arrowRight" xlink:href="#dirArrow" transform="rotate(90) translate(36 -43)" onmousedown="handlePan(1,0)">
                  <use xlink:href="#rim" fill="#404040">
                        <set attributeName="fill" to="#808080" begin="arrowRight.mouseover" end="arrowRight.mouseout"/>
                  </use>
                  <path fill="none" stroke="white" stroke-width="1.5" d="M0,-3.0v7 M-2.5,-0.5L0,-3.0L2.5,-0.5"/>
                </g>
                <g id="arrowDown" xlink:href="#dirArrow" transform="rotate(180) translate(-30 -48)" onmousedown="handlePan(0,1)">
                  <use xlink:href="#rim" fill="#404040">
                        <set attributeName="fill" to="#808080" begin="arrowDown.mouseover" end="arrowDown.mouseout"/>
                  </use>
                  <path fill="none" stroke="white" stroke-width="1.5" d="M0,-3.0v7 M-2.5,-0.5L0,-3.0L2.5,-0.5"/>
                </g>
                <g id="arrowLeft" xlink:href="#dirArrow" transform="rotate(270) translate(-36 17)" onmousedown="handlePan(-1,0)">
                  <use xlink:href="#rim" fill="#404040">
                        <set attributeName="fill" to="#808080" begin="arrowLeft.mouseover" end="arrowLeft.mouseout"/>
                  </use>
                  <path fill="none" stroke="white" stroke-width="1.5" d="M0,-3.0v7 M-2.5,-0.5L0,-3.0L2.5,-0.5"/>
                </g>
        </g>
        <svg viewBox="0 0 15 15" width="100%" height="30px" preserveAspectRatio="xMaxYMin meet">
         <g id="arrow_out" transform="scale(0.3 0.3)">
          <a xlink:href="namespaceopenage_a8c248986ac22a8251e1f27a6cef087eb_cgraph_org.svg" target="_base">
           <rect id="button" ry="5" rx="5" y="6" x="6" height="38" width="38"
                fill="#f2f5e9" fill-opacity="0.5" stroke="#606060" stroke-width="1.0"/>
           <path id="arrow"
             d="M 11.500037,31.436501 C 11.940474,20.09759 22.043105,11.32322 32.158766,21.979434 L 37.068811,17.246167 C 37.068811,17.246167 37.088388,32 37.088388,32 L 22.160133,31.978069 C 22.160133,31.978069 26.997745,27.140456 26.997745,27.140456 C 18.528582,18.264221 13.291696,25.230495 11.500037,31.436501 z"
             style="fill:#404040;"/>
          </a>
         </g>
        </svg>
</svg>
