<?xml version="1.0" encoding="UTF-8" standalone="no"?>
<!DOCTYPE svg PUBLIC "-//W3C//DTD SVG 1.1//EN"
 "http://www.w3.org/Graphics/SVG/1.1/DTD/svg11.dtd">
<!-- Generated by graphviz version 2.40.1 (20161225.0304)
 -->
<!-- Title: openage::building_center Pages: 1 -->
<svg width="443pt" height="88pt"
 viewBox="0.00 0.00 443.00 88.00" xmlns="http://www.w3.org/2000/svg" xmlns:xlink="http://www.w3.org/1999/xlink">
<g id="graph0" class="graph" transform="scale(1 1) rotate(0) translate(4 84)">
<title>openage::building_center</title>
<polygon fill="#ffffff" stroke="transparent" points="-4,4 -4,-84 439,-84 439,4 -4,4"/>
<!-- Node21 -->
<g id="node1" class="node">
<title>Node21</title>
<polygon fill="#bfbfbf" stroke="#000000" points="0,-30 0,-49 125,-49 125,-30 0,-30"/>
<text text-anchor="middle" x="62.5" y="-37" font-family="Helvetica,sans-Serif" font-size="10.00" fill="#000000">openage::building_center</text>
</g>
<!-- Node22 -->
<g id="node2" class="node">
<title>Node22</title>
<g id="a_node2"><a xlink:href="../../d0/dcc/classopenage_1_1_square_object.xhtml#a4c05c7ac16bbdbb7b4d74be4e9e113be" target="_top" xlink:title="calculate object start and end positions. ">
<polygon fill="#ffffff" stroke="#000000" points="161,-49.5 161,-79.5 280,-79.5 280,-49.5 161,-49.5"/>
<text text-anchor="start" x="169" y="-67.5" font-family="Helvetica,sans-Serif" font-size="10.00" fill="#000000">openage::SquareObject</text>
<text text-anchor="middle" x="220.5" y="-56.5" font-family="Helvetica,sans-Serif" font-size="10.00" fill="#000000">::get_range</text>
</a>
</g>
</g>
<!-- Node21&#45;&gt;Node22 -->
<g id="edge1" class="edge">
<title>Node21&#45;&gt;Node22</title>
<path fill="none" stroke="#191970" d="M132.7368,-50.6134C142.0846,-52.0925 151.598,-53.5978 160.745,-55.0451"/>
<polygon fill="#191970" stroke="#191970" points="133.1079,-47.1287 122.6838,-49.0227 132.0139,-54.0427 133.1079,-47.1287"/>
</g>
<!-- Node24 -->
<g id="node4" class="node">
<title>Node24</title>
<g id="a_node4"><a xlink:href="../../d8/d06/classopenage_1_1_action_mode.xhtml#aab55848d4a5495b982df54fe1d41865b" target="_top" xlink:title="Display this mode. ">
<polygon fill="#ffffff" stroke="#000000" points="165,-.5 165,-30.5 276,-30.5 276,-.5 165,-.5"/>
<text text-anchor="start" x="173" y="-18.5" font-family="Helvetica,sans-Serif" font-size="10.00" fill="#000000">openage::ActionMode</text>
<text text-anchor="middle" x="220.5" y="-7.5" font-family="Helvetica,sans-Serif" font-size="10.00" fill="#000000">::render</text>
</a>
</g>
</g>
<!-- Node21&#45;&gt;Node24 -->
<g id="edge3" class="edge">
<title>Node21&#45;&gt;Node24</title>
<path fill="none" stroke="#191970" d="M135.3018,-28.4415C145.2718,-26.9271 155.3742,-25.3925 164.9687,-23.9351"/>
<polygon fill="#191970" stroke="#191970" points="134.7607,-24.9835 125.3998,-29.9456 135.812,-31.9041 134.7607,-24.9835"/>
</g>
<!-- Node23 -->
<g id="node3" class="node">
<title>Node23</title>
<g id="a_node3"><a xlink:href="../../d0/dcc/classopenage_1_1_square_object.xhtml#a6ab34e730282117594441a96e2fb5882" target="_top" xlink:title="would this intersect with another object if it were positioned at the given point ...">
<polygon fill="#ffffff" stroke="#000000" points="316,-49.5 316,-79.5 435,-79.5 435,-49.5 316,-49.5"/>
<text text-anchor="start" x="324" y="-67.5" font-family="Helvetica,sans-Serif" font-size="10.00" fill="#000000">openage::SquareObject</text>
<text text-anchor="middle" x="375.5" y="-56.5" font-family="Helvetica,sans-Serif" font-size="10.00" fill="#000000">::intersects</text>
</a>
</g>
</g>
<!-- Node22&#45;&gt;Node23 -->
<g id="edge2" class="edge">
<title>Node22&#45;&gt;Node23</title>
<path fill="none" stroke="#191970" d="M290.6612,-64.5C299.1217,-64.5 307.6999,-64.5 315.9877,-64.5"/>
<polygon fill="#191970" stroke="#191970" points="290.4271,-61.0001 280.427,-64.5 290.427,-68.0001 290.4271,-61.0001"/>
</g>
</g>
</svg>
