<?xml version="1.0" encoding="UTF-8" standalone="no"?>
<!DOCTYPE svg PUBLIC "-//W3C//DTD SVG 1.1//EN"
 "http://www.w3.org/Graphics/SVG/1.1/DTD/svg11.dtd">
<!-- Generated by graphviz version 2.40.1 (20161225.0304)
 -->
<!-- Title: openage::tiles_in_range Pages: 1 -->
<svg width="587pt" height="39pt"
 viewBox="0.00 0.00 587.00 39.00" xmlns="http://www.w3.org/2000/svg" xmlns:xlink="http://www.w3.org/1999/xlink">
<g id="graph0" class="graph" transform="scale(1 1) rotate(0) translate(4 35)">
<title>openage::tiles_in_range</title>
<polygon fill="#ffffff" stroke="transparent" points="-4,4 -4,-35 583,-35 583,4 -4,4"/>
<!-- Node149 -->
<g id="node1" class="node">
<title>Node149</title>
<polygon fill="#bfbfbf" stroke="#000000" points="0,-6 0,-25 119,-25 119,-6 0,-6"/>
<text text-anchor="middle" x="59.5" y="-13" font-family="Helvetica,sans-Serif" font-size="10.00" fill="#000000">openage::tiles_in_range</text>
</g>
<!-- Node150 -->
<g id="node2" class="node">
<title>Node150</title>
<g id="a_node2"><a xlink:href="../../d9/de2/classopenage_1_1_unit_selection.xhtml#a1c3efeb8415c50094d66844e69402342" target="_top" xlink:title="boxed unit selection ">
<polygon fill="#ffffff" stroke="#000000" points="155,-.5 155,-30.5 273,-30.5 273,-.5 155,-.5"/>
<text text-anchor="start" x="163" y="-18.5" font-family="Helvetica,sans-Serif" font-size="10.00" fill="#000000">openage::UnitSelection</text>
<text text-anchor="middle" x="214" y="-7.5" font-family="Helvetica,sans-Serif" font-size="10.00" fill="#000000">::select_space</text>
</a>
</g>
</g>
<!-- Node149&#45;&gt;Node150 -->
<g id="edge1" class="edge">
<title>Node149&#45;&gt;Node150</title>
<path fill="none" stroke="#191970" d="M129.51,-15.5C138.0054,-15.5 146.6187,-15.5 154.934,-15.5"/>
<polygon fill="#191970" stroke="#191970" points="129.2338,-12.0001 119.2337,-15.5 129.2337,-19.0001 129.2338,-12.0001"/>
</g>
<!-- Node151 -->
<g id="node3" class="node">
<title>Node151</title>
<g id="a_node3"><a xlink:href="../../d9/de2/classopenage_1_1_unit_selection.xhtml#a6b4a0b9275c8ebf623d50a7509487623" target="_top" xlink:title="openage::UnitSelection\l::drag_release">
<polygon fill="#ffffff" stroke="#000000" points="309,-.5 309,-30.5 427,-30.5 427,-.5 309,-.5"/>
<text text-anchor="start" x="317" y="-18.5" font-family="Helvetica,sans-Serif" font-size="10.00" fill="#000000">openage::UnitSelection</text>
<text text-anchor="middle" x="368" y="-7.5" font-family="Helvetica,sans-Serif" font-size="10.00" fill="#000000">::drag_release</text>
</a>
</g>
</g>
<!-- Node150&#45;&gt;Node151 -->
<g id="edge2" class="edge">
<title>Node150&#45;&gt;Node151</title>
<path fill="none" stroke="#191970" d="M283.3691,-15.5C291.8618,-15.5 300.4796,-15.5 308.8037,-15.5"/>
<polygon fill="#191970" stroke="#191970" points="283.1,-12.0001 273.1,-15.5 283.1,-19.0001 283.1,-12.0001"/>
</g>
<!-- Node152 -->
<g id="node4" class="node">
<title>Node152</title>
<g id="a_node4"><a xlink:href="../../d8/d06/classopenage_1_1_action_mode.xhtml#a43f98279255b857ee8fa9943117271e8" target="_top" xlink:title="Called after GameControl has been set by QML from set_game_control. ">
<polygon fill="#ffffff" stroke="#000000" points="463,-.5 463,-30.5 579,-30.5 579,-.5 463,-.5"/>
<text text-anchor="start" x="471" y="-18.5" font-family="Helvetica,sans-Serif" font-size="10.00" fill="#000000">openage::ActionMode</text>
<text text-anchor="middle" x="521" y="-7.5" font-family="Helvetica,sans-Serif" font-size="10.00" fill="#000000">::on_game_control_set</text>
</a>
</g>
</g>
<!-- Node151&#45;&gt;Node152 -->
<g id="edge3" class="edge">
<title>Node151&#45;&gt;Node152</title>
<path fill="none" stroke="#191970" d="M437.4046,-15.5C445.8793,-15.5 454.4711,-15.5 462.7592,-15.5"/>
<polygon fill="#191970" stroke="#191970" points="437.1538,-12.0001 427.1538,-15.5 437.1538,-19.0001 437.1538,-12.0001"/>
</g>
</g>
</svg>
