<?xml version="1.0" encoding="UTF-8" standalone="no"?>
<!DOCTYPE svg PUBLIC "-//W3C//DTD SVG 1.1//EN"
 "http://www.w3.org/Graphics/SVG/1.1/DTD/svg11.dtd">
<!-- Generated by graphviz version 2.40.1 (20161225.0304)
 -->
<!-- Title: openage::tiles_in_range Pages: 1 -->
<svg width="470pt" height="115pt"
 viewBox="0.00 0.00 470.00 114.50" xmlns="http://www.w3.org/2000/svg" xmlns:xlink="http://www.w3.org/1999/xlink">
<g id="graph0" class="graph" transform="scale(1 1) rotate(0) translate(4 110.5)">
<title>openage::tiles_in_range</title>
<polygon fill="#ffffff" stroke="transparent" points="-4,4 -4,-110.5 466,-110.5 466,4 -4,4"/>
<!-- Node143 -->
<g id="node1" class="node">
<title>Node143</title>
<polygon fill="#bfbfbf" stroke="#000000" points="0,-49 0,-68 119,-68 119,-49 0,-49"/>
<text text-anchor="middle" x="59.5" y="-56" font-family="Helvetica,sans-Serif" font-size="10.00" fill="#000000">openage::tiles_in_range</text>
</g>
<!-- Node144 -->
<g id="node2" class="node">
<title>Node144</title>
<g id="a_node2"><a xlink:href="../../de/d06/namespaceopenage_1_1console_1_1tests.xhtml#a46ebd3333dc9196558ac9aced828d117" target="_top" xlink:title="openage::console::tests::max">
<polygon fill="#ffffff" stroke="#000000" points="155,-87 155,-106 301,-106 301,-87 155,-87"/>
<text text-anchor="middle" x="228" y="-94" font-family="Helvetica,sans-Serif" font-size="10.00" fill="#000000">openage::console::tests::max</text>
</a>
</g>
</g>
<!-- Node143&#45;&gt;Node144 -->
<g id="edge1" class="edge">
<title>Node143&#45;&gt;Node144</title>
<path fill="none" stroke="#191970" d="M102.0197,-68.089C124.4554,-73.1487 152.1732,-79.3996 175.8925,-84.7488"/>
<polygon fill="#191970" stroke="#191970" points="175.2611,-88.1942 185.7861,-86.9799 176.8011,-81.3657 175.2611,-88.1942"/>
</g>
<!-- Node145 -->
<g id="node3" class="node">
<title>Node145</title>
<g id="a_node3"><a xlink:href="../../d8/dcc/namespacestd.xhtml#a1c0bc145caf5f0b2af8d16d29d952180" target="_top" xlink:title="std::max">
<polygon fill="#ffffff" stroke="#000000" points="200.5,-11 200.5,-30 255.5,-30 255.5,-11 200.5,-11"/>
<text text-anchor="middle" x="228" y="-18" font-family="Helvetica,sans-Serif" font-size="10.00" fill="#000000">std::max</text>
</a>
</g>
</g>
<!-- Node143&#45;&gt;Node145 -->
<g id="edge2" class="edge">
<title>Node143&#45;&gt;Node145</title>
<path fill="none" stroke="#191970" d="M102.0197,-48.911C129.2173,-42.7774 164.1773,-34.8932 190.3666,-28.9871"/>
<polygon fill="#191970" stroke="#191970" points="191.3086,-32.3626 200.2936,-26.7483 189.7686,-25.5341 191.3086,-32.3626"/>
</g>
<!-- Node148 -->
<g id="node6" class="node">
<title>Node148</title>
<g id="a_node6"><a xlink:href="../../d8/dcc/namespacestd.xhtml#a34591a1d8ee5da3f16f56554590d5e16" target="_top" xlink:title="std::min">
<polygon fill="#ffffff" stroke="#000000" points="202,-49 202,-68 254,-68 254,-49 202,-49"/>
<text text-anchor="middle" x="228" y="-56" font-family="Helvetica,sans-Serif" font-size="10.00" fill="#000000">std::min</text>
</a>
</g>
</g>
<!-- Node143&#45;&gt;Node148 -->
<g id="edge5" class="edge">
<title>Node143&#45;&gt;Node148</title>
<path fill="none" stroke="#191970" d="M119.3812,-58.5C143.4959,-58.5 170.5248,-58.5 191.5875,-58.5"/>
<polygon fill="#191970" stroke="#191970" points="191.7095,-62.0001 201.7095,-58.5 191.7094,-55.0001 191.7095,-62.0001"/>
</g>
<!-- Node146 -->
<g id="node4" class="node">
<title>Node146</title>
<g id="a_node4"><a xlink:href="../../dc/d65/classopenage_1_1util_1_1_fixed_point.xhtml#aa01c403263c2142c0ce9ce40cde89066" target="_top" xlink:title="Factory function to construct a fixed&#45;point number with a given raw value. ">
<polygon fill="#ffffff" stroke="#000000" points="337,-49.5 337,-79.5 462,-79.5 462,-49.5 337,-49.5"/>
<text text-anchor="start" x="345" y="-67.5" font-family="Helvetica,sans-Serif" font-size="10.00" fill="#000000">openage::util::FixedPoint</text>
<text text-anchor="middle" x="399.5" y="-56.5" font-family="Helvetica,sans-Serif" font-size="10.00" fill="#000000">::from_raw_value</text>
</a>
</g>
</g>
<!-- Node145&#45;&gt;Node146 -->
<g id="edge3" class="edge">
<title>Node145&#45;&gt;Node146</title>
<path fill="none" stroke="#191970" d="M255.5544,-27.5694C275.8727,-32.7822 304.4445,-40.1126 330.7825,-46.8699"/>
<polygon fill="#191970" stroke="#191970" points="330.1895,-50.331 340.7456,-49.426 331.9291,-43.5506 330.1895,-50.331"/>
</g>
<!-- Node147 -->
<g id="node5" class="node">
<title>Node147</title>
<g id="a_node5"><a xlink:href="../../dc/d65/classopenage_1_1util_1_1_fixed_point.xhtml#affe7a3ec44c6f7ac96312875af742f87" target="_top" xlink:title="Converter to retrieve the raw value of the fixed&#45;point number. ">
<polygon fill="#ffffff" stroke="#000000" points="337,-.5 337,-30.5 462,-30.5 462,-.5 337,-.5"/>
<text text-anchor="start" x="345" y="-18.5" font-family="Helvetica,sans-Serif" font-size="10.00" fill="#000000">openage::util::FixedPoint</text>
<text text-anchor="middle" x="399.5" y="-7.5" font-family="Helvetica,sans-Serif" font-size="10.00" fill="#000000">::get_raw_value</text>
</a>
</g>
</g>
<!-- Node145&#45;&gt;Node147 -->
<g id="edge4" class="edge">
<title>Node145&#45;&gt;Node147</title>
<path fill="none" stroke="#191970" d="M255.5544,-19.6967C274.7782,-19.1362 301.3904,-18.3603 326.5087,-17.628"/>
<polygon fill="#191970" stroke="#191970" points="326.8888,-21.1185 336.7826,-17.3285 326.6848,-14.1215 326.8888,-21.1185"/>
</g>
<!-- Node148&#45;&gt;Node146 -->
<g id="edge6" class="edge">
<title>Node148&#45;&gt;Node146</title>
<path fill="none" stroke="#191970" d="M254.0472,-59.4113C273.4044,-60.0885 300.8197,-61.0476 326.6395,-61.9509"/>
<polygon fill="#191970" stroke="#191970" points="326.6985,-65.4551 336.8148,-62.3069 326.9433,-58.4593 326.6985,-65.4551"/>
</g>
<!-- Node148&#45;&gt;Node147 -->
<g id="edge7" class="edge">
<title>Node148&#45;&gt;Node147</title>
<path fill="none" stroke="#191970" d="M254.0472,-51.9692C274.1599,-46.9264 302.972,-39.7024 329.6548,-33.0122"/>
<polygon fill="#191970" stroke="#191970" points="330.5204,-36.4036 339.3689,-30.5766 328.8179,-29.6138 330.5204,-36.4036"/>
</g>
</g>
</svg>
