<?xml version="1.0" encoding="UTF-8" standalone="no"?>
<!DOCTYPE svg PUBLIC "-//W3C//DTD SVG 1.1//EN"
 "http://www.w3.org/Graphics/SVG/1.1/DTD/svg11.dtd">
<!-- Generated by graphviz version 2.40.1 (20161225.0304)
 -->
<!-- Title: /mnt/c/Users/Jameson/Desktop/git/openage&#45;new&#45;doc&#45;system/libopenage/renderer/resources/texture_data.cpp Pages: 1 -->
<svg width="1536pt" height="979pt"
 viewBox="0.00 0.00 1536.14 979.45" xmlns="http://www.w3.org/2000/svg" xmlns:xlink="http://www.w3.org/1999/xlink">
<g id="graph0" class="graph" transform="scale(1 1) rotate(0) translate(4 975.4516)">
<title>/mnt/c/Users/Jameson/Desktop/git/openage&#45;new&#45;doc&#45;system/libopenage/renderer/resources/texture_data.cpp</title>
<polygon fill="#ffffff" stroke="transparent" points="-4,4 -4,-975.4516 1532.1403,-975.4516 1532.1403,4 -4,4"/>
<!-- Node0 -->
<g id="node1" class="node">
<title>Node0</title>
<polygon fill="#bfbfbf" stroke="#000000" points="968.5,-907.9516 968.5,-970.9516 1109.5,-970.9516 1109.5,-907.9516 968.5,-907.9516"/>
<text text-anchor="start" x="976.5" y="-958.9516" font-family="Helvetica,sans-Serif" font-size="10.00" fill="#000000">/mnt/c/Users/Jameson</text>
<text text-anchor="start" x="976.5" y="-947.9516" font-family="Helvetica,sans-Serif" font-size="10.00" fill="#000000">/Desktop/git/openage</text>
<text text-anchor="start" x="976.5" y="-936.9516" font-family="Helvetica,sans-Serif" font-size="10.00" fill="#000000">&#45;new&#45;doc&#45;system/libopenage</text>
<text text-anchor="start" x="976.5" y="-925.9516" font-family="Helvetica,sans-Serif" font-size="10.00" fill="#000000">/renderer/resources/texture</text>
<text text-anchor="middle" x="1039" y="-914.9516" font-family="Helvetica,sans-Serif" font-size="10.00" fill="#000000">_data.cpp</text>
</g>
<!-- Node1 -->
<g id="node2" class="node">
<title>Node1</title>
<g id="a_node2"><a xlink:href="../../d0/dbf/texture__data_8h.xhtml" target="_top" xlink:title="texture_data.h">
<polygon fill="#ffffff" stroke="#000000" points="307.5,-851.9516 307.5,-870.9516 386.5,-870.9516 386.5,-851.9516 307.5,-851.9516"/>
<text text-anchor="middle" x="347" y="-858.9516" font-family="Helvetica,sans-Serif" font-size="10.00" fill="#000000">texture_data.h</text>
</a>
</g>
</g>
<!-- Node0&#45;&gt;Node1 -->
<g id="edge1" class="edge">
<title>Node0&#45;&gt;Node1</title>
<path fill="none" stroke="#191970" d="M968.1959,-931.4708C827.9514,-915.6629 517.9548,-880.7211 396.8529,-867.0709"/>
<polygon fill="#191970" stroke="#191970" points="397.0835,-863.5748 386.7544,-865.9326 396.2994,-870.5308 397.0835,-863.5748"/>
</g>
<!-- Node10 -->
<g id="node11" class="node">
<title>Node10</title>
<g id="a_node11"><a xlink:href="../../d7/dce/error_2error_8h.xhtml" target="_top" xlink:title="../error/error.h">
<polygon fill="#ffffff" stroke="#000000" points="1154,-336.9516 1154,-355.9516 1230,-355.9516 1230,-336.9516 1154,-336.9516"/>
<text text-anchor="middle" x="1192" y="-343.9516" font-family="Helvetica,sans-Serif" font-size="10.00" fill="#000000">../error/error.h</text>
</a>
</g>
</g>
<!-- Node0&#45;&gt;Node10 -->
<g id="edge96" class="edge">
<title>Node0&#45;&gt;Node10</title>
<path fill="none" stroke="#191970" d="M1109.964,-931.7043C1152.5042,-923.4703 1204.6409,-906.4856 1238,-871.4516 1259.0493,-849.3455 1257,-835.9763 1257,-805.4516 1257,-805.4516 1257,-805.4516 1257,-469.4516 1257,-427.6894 1227.3466,-386.2288 1208.0974,-363.7145"/>
<polygon fill="#191970" stroke="#191970" points="1210.5626,-361.2189 1201.3129,-356.0522 1205.3217,-365.8594 1210.5626,-361.2189"/>
</g>
<!-- Node36 -->
<g id="node34" class="node">
<title>Node36</title>
<g id="a_node34"><a xlink:href="../../d3/d8e/csv_8h.xhtml" target="_top" xlink:title="../../util/csv.h">
<polygon fill="#ffffff" stroke="#000000" points="717,-683.9516 717,-702.9516 791,-702.9516 791,-683.9516 717,-683.9516"/>
<text text-anchor="middle" x="754" y="-690.9516" font-family="Helvetica,sans-Serif" font-size="10.00" fill="#000000">../../util/csv.h</text>
</a>
</g>
</g>
<!-- Node0&#45;&gt;Node36 -->
<g id="edge97" class="edge">
<title>Node0&#45;&gt;Node36</title>
<path fill="none" stroke="#191970" d="M1002.3247,-907.795C941.0419,-854.8983 819.9378,-750.3664 773.1103,-709.9469"/>
<polygon fill="#191970" stroke="#191970" points="775.1192,-707.0573 765.2622,-703.1727 770.5453,-712.3563 775.1192,-707.0573"/>
</g>
<!-- Node50 -->
<g id="node48" class="node">
<title>Node50</title>
<polygon fill="#ffffff" stroke="#bfbfbf" points="1035,-851.9516 1035,-870.9516 1107,-870.9516 1107,-851.9516 1035,-851.9516"/>
<text text-anchor="middle" x="1071" y="-858.9516" font-family="Helvetica,sans-Serif" font-size="10.00" fill="#000000">SDL2/SDL.h</text>
</g>
<!-- Node0&#45;&gt;Node50 -->
<g id="edge91" class="edge">
<title>Node0&#45;&gt;Node50</title>
<path fill="none" stroke="#191970" d="M1052.0156,-907.726C1055.8116,-898.4734 1059.8399,-888.6545 1063.2045,-880.4531"/>
<polygon fill="#191970" stroke="#191970" points="1066.4865,-881.6744 1067.0441,-871.0942 1060.0104,-879.0174 1066.4865,-881.6744"/>
</g>
<!-- Node51 -->
<g id="node49" class="node">
<title>Node51</title>
<polygon fill="#ffffff" stroke="#bfbfbf" points="1125,-851.9516 1125,-870.9516 1229,-870.9516 1229,-851.9516 1125,-851.9516"/>
<text text-anchor="middle" x="1177" y="-858.9516" font-family="Helvetica,sans-Serif" font-size="10.00" fill="#000000">SDL2/SDL_image.h</text>
</g>
<!-- Node0&#45;&gt;Node51 -->
<g id="edge92" class="edge">
<title>Node0&#45;&gt;Node51</title>
<path fill="none" stroke="#191970" d="M1094.7321,-907.9509C1114.3672,-896.8528 1135.4919,-884.9127 1151.4183,-875.9108"/>
<polygon fill="#191970" stroke="#191970" points="1153.1609,-878.9464 1160.1443,-870.9788 1149.7164,-872.8524 1153.1609,-878.9464"/>
</g>
<!-- Node52 -->
<g id="node50" class="node">
<title>Node52</title>
<g id="a_node50"><a xlink:href="../../d7/d7f/log_8h.xhtml" target="_top" xlink:title="../../log/log.h">
<polygon fill="#ffffff" stroke="#000000" points="931.5,-336.9516 931.5,-355.9516 1002.5,-355.9516 1002.5,-336.9516 931.5,-336.9516"/>
<text text-anchor="middle" x="967" y="-343.9516" font-family="Helvetica,sans-Serif" font-size="10.00" fill="#000000">../../log/log.h</text>
</a>
</g>
</g>
<!-- Node0&#45;&gt;Node52 -->
<g id="edge93" class="edge">
<title>Node0&#45;&gt;Node52</title>
<path fill="none" stroke="#191970" d="M1029.6703,-907.664C1025.9301,-890.9289 1023.113,-870.0703 1026,-851.4516 1058.6017,-641.1978 1294.0527,-559.2797 1162,-392.4516 1143.7344,-369.3759 1064.4139,-356.7077 1012.7354,-350.7707"/>
<polygon fill="#191970" stroke="#191970" points="1013.1185,-347.2919 1002.7945,-349.672 1012.3494,-354.2495 1013.1185,-347.2919"/>
</g>
<!-- Node2 -->
<g id="node3" class="node">
<title>Node2</title>
<polygon fill="#ffffff" stroke="#bfbfbf" points="206,-112.9516 206,-131.9516 250,-131.9516 250,-112.9516 206,-112.9516"/>
<text text-anchor="middle" x="228" y="-119.9516" font-family="Helvetica,sans-Serif" font-size="10.00" fill="#000000">vector</text>
</g>
<!-- Node1&#45;&gt;Node2 -->
<g id="edge2" class="edge">
<title>Node1&#45;&gt;Node2</title>
<path fill="none" stroke="#191970" d="M307.2362,-855.6102C223.7803,-842.2301 38,-806.0847 38,-749.4516 38,-749.4516 38,-749.4516 38,-346.4516 38,-246.6316 149.0872,-168.4977 201.3789,-137.2477"/>
<polygon fill="#191970" stroke="#191970" points="203.2609,-140.2017 210.1253,-132.1313 199.7264,-134.1595 203.2609,-140.2017"/>
</g>
<!-- Node3 -->
<g id="node4" class="node">
<title>Node3</title>
<polygon fill="#ffffff" stroke="#bfbfbf" points="520,-224.9516 520,-243.9516 566,-243.9516 566,-224.9516 520,-224.9516"/>
<text text-anchor="middle" x="543" y="-231.9516" font-family="Helvetica,sans-Serif" font-size="10.00" fill="#000000">cstdint</text>
</g>
<!-- Node1&#45;&gt;Node3 -->
<g id="edge3" class="edge">
<title>Node1&#45;&gt;Node3</title>
<path fill="none" stroke="#191970" d="M353.9634,-851.8404C381.3291,-813.0918 480,-663.7868 480,-525.4516 480,-525.4516 480,-525.4516 480,-469.4516 480,-386.4746 517.0974,-292.4655 534.3578,-253.2164"/>
<polygon fill="#191970" stroke="#191970" points="537.5688,-254.6097 538.4692,-244.0531 531.1822,-251.7441 537.5688,-254.6097"/>
</g>
<!-- Node4 -->
<g id="node5" class="node">
<title>Node4</title>
<polygon fill="#ffffff" stroke="#bfbfbf" points="497.5,-.9516 497.5,-19.9516 538.5,-19.9516 538.5,-.9516 497.5,-.9516"/>
<text text-anchor="middle" x="518" y="-7.9516" font-family="Helvetica,sans-Serif" font-size="10.00" fill="#000000">string</text>
</g>
<!-- Node1&#45;&gt;Node4 -->
<g id="edge4" class="edge">
<title>Node1&#45;&gt;Node4</title>
<path fill="none" stroke="#191970" d="M307.3027,-857.2054C242.9336,-849.8944 118.9592,-833.9223 79,-815.4516 37.4702,-796.255 0,-795.2035 0,-749.4516 0,-749.4516 0,-749.4516 0,-122.4516 0,-77.7148 34.9602,-74.2593 76,-56.4516 150.2258,-24.2441 399.5428,-13.9338 487.2026,-11.2596"/>
<polygon fill="#191970" stroke="#191970" points="487.4099,-14.7552 497.3032,-10.9638 487.205,-7.7582 487.4099,-14.7552"/>
</g>
<!-- Node5 -->
<g id="node6" class="node">
<title>Node5</title>
<g id="a_node6"><a xlink:href="../../db/dab/texture__info_8h.xhtml" target="_top" xlink:title="texture_info.h">
<polygon fill="#ffffff" stroke="#000000" points="404,-795.9516 404,-814.9516 480,-814.9516 480,-795.9516 404,-795.9516"/>
<text text-anchor="middle" x="442" y="-802.9516" font-family="Helvetica,sans-Serif" font-size="10.00" fill="#000000">texture_info.h</text>
</a>
</g>
</g>
<!-- Node1&#45;&gt;Node5 -->
<g id="edge5" class="edge">
<title>Node1&#45;&gt;Node5</title>
<path fill="none" stroke="#191970" d="M363.5477,-851.6972C378.2599,-843.0248 399.9888,-830.2161 416.8505,-820.2766"/>
<polygon fill="#191970" stroke="#191970" points="418.8046,-823.1876 425.6419,-815.0943 415.2498,-817.1573 418.8046,-823.1876"/>
</g>
<!-- Node41 -->
<g id="node39" class="node">
<title>Node41</title>
<g id="a_node39"><a xlink:href="../../d1/d11/util_2path_8h.xhtml" target="_top" xlink:title="path.h">
<polygon fill="#ffffff" stroke="#000000" points="306,-627.9516 306,-646.9516 350,-646.9516 350,-627.9516 306,-627.9516"/>
<text text-anchor="middle" x="328" y="-634.9516" font-family="Helvetica,sans-Serif" font-size="10.00" fill="#000000">path.h</text>
</a>
</g>
</g>
<!-- Node1&#45;&gt;Node41 -->
<g id="edge90" class="edge">
<title>Node1&#45;&gt;Node41</title>
<path fill="none" stroke="#191970" d="M346.1836,-851.8266C343.309,-817.9367 333.6179,-703.6833 329.6823,-657.2848"/>
<polygon fill="#191970" stroke="#191970" points="333.1461,-656.7091 328.8134,-647.0408 326.1712,-657.3008 333.1461,-656.7091"/>
</g>
<!-- Node5&#45;&gt;Node2 -->
<g id="edge7" class="edge">
<title>Node5&#45;&gt;Node2</title>
<path fill="none" stroke="#191970" d="M403.8673,-795.9744C310.1256,-770.1511 76,-689.2591 76,-525.4516 76,-525.4516 76,-525.4516 76,-469.4516 76,-383.0223 152,-376.8809 152,-290.4516 152,-290.4516 152,-290.4516 152,-234.4516 152,-194.6878 185.2071,-158.5558 207.7208,-138.6286"/>
<polygon fill="#191970" stroke="#191970" points="210.1079,-141.1928 215.4501,-132.0434 205.5683,-135.8644 210.1079,-141.1928"/>
</g>
<!-- Node5&#45;&gt;Node3 -->
<g id="edge6" class="edge">
<title>Node5&#45;&gt;Node3</title>
<path fill="none" stroke="#191970" d="M444.8799,-795.5261C448.7122,-782.5363 455.8408,-759.1111 463,-739.4516 505.758,-622.0362 545.7619,-602.0368 570,-479.4516 586.3819,-396.5995 561.4567,-295.8778 549.179,-254.0841"/>
<polygon fill="#191970" stroke="#191970" points="552.4781,-252.902 546.2291,-244.3463 545.7787,-254.9315 552.4781,-252.902"/>
</g>
<!-- Node6 -->
<g id="node7" class="node">
<title>Node6</title>
<g id="a_node7"><a xlink:href="../../d3/dd6/constexpr__map_8h.xhtml" target="_top" xlink:title="../../datastructure\l/constexpr_map.h">
<polygon fill="#ffffff" stroke="#000000" points="1323.5,-392.9516 1323.5,-422.9516 1418.5,-422.9516 1418.5,-392.9516 1323.5,-392.9516"/>
<text text-anchor="start" x="1331.5" y="-410.9516" font-family="Helvetica,sans-Serif" font-size="10.00" fill="#000000">../../datastructure</text>
<text text-anchor="middle" x="1371" y="-399.9516" font-family="Helvetica,sans-Serif" font-size="10.00" fill="#000000">/constexpr_map.h</text>
</a>
</g>
</g>
<!-- Node5&#45;&gt;Node6 -->
<g id="edge8" class="edge">
<title>Node5&#45;&gt;Node6</title>
<path fill="none" stroke="#191970" d="M480.0304,-803.7968C645.5612,-795.5825 1295,-752.4578 1295,-581.4516 1295,-581.4516 1295,-581.4516 1295,-525.4516 1295,-487.4202 1323.4185,-451.9645 1345.4999,-430.1553"/>
<polygon fill="#191970" stroke="#191970" points="1348.1577,-432.4576 1352.9891,-423.0285 1343.3321,-427.3867 1348.1577,-432.4576"/>
</g>
<!-- Node35 -->
<g id="node33" class="node">
<title>Node35</title>
<g id="a_node33"><a xlink:href="../../dc/dfc/texture__subinfo_8h.xhtml" target="_top" xlink:title="texture_subinfo.h">
<polygon fill="#ffffff" stroke="#000000" points="472,-739.9516 472,-758.9516 564,-758.9516 564,-739.9516 472,-739.9516"/>
<text text-anchor="middle" x="518" y="-746.9516" font-family="Helvetica,sans-Serif" font-size="10.00" fill="#000000">texture_subinfo.h</text>
</a>
</g>
</g>
<!-- Node5&#45;&gt;Node35 -->
<g id="edge50" class="edge">
<title>Node5&#45;&gt;Node35</title>
<path fill="none" stroke="#191970" d="M455.2382,-795.6972C466.681,-787.2657 483.4296,-774.9245 496.7475,-765.1114"/>
<polygon fill="#191970" stroke="#191970" points="498.9391,-767.844 504.9135,-759.0943 494.7867,-762.2086 498.9391,-767.844"/>
</g>
<!-- Node7 -->
<g id="node8" class="node">
<title>Node7</title>
<polygon fill="#ffffff" stroke="#bfbfbf" points="1323,-336.9516 1323,-355.9516 1361,-355.9516 1361,-336.9516 1323,-336.9516"/>
<text text-anchor="middle" x="1342" y="-343.9516" font-family="Helvetica,sans-Serif" font-size="10.00" fill="#000000">array</text>
</g>
<!-- Node6&#45;&gt;Node7 -->
<g id="edge9" class="edge">
<title>Node6&#45;&gt;Node7</title>
<path fill="none" stroke="#191970" d="M1363.8315,-392.7494C1359.9318,-384.4793 1355.072,-374.1732 1350.9282,-365.3855"/>
<polygon fill="#191970" stroke="#191970" points="1354.0741,-363.8506 1346.6433,-356.2986 1347.7427,-366.8362 1354.0741,-363.8506"/>
</g>
<!-- Node8 -->
<g id="node9" class="node">
<title>Node8</title>
<polygon fill="#ffffff" stroke="#bfbfbf" points="1415,-168.9516 1415,-187.9516 1477,-187.9516 1477,-168.9516 1415,-168.9516"/>
<text text-anchor="middle" x="1446" y="-175.9516" font-family="Helvetica,sans-Serif" font-size="10.00" fill="#000000">type_traits</text>
</g>
<!-- Node6&#45;&gt;Node8 -->
<g id="edge10" class="edge">
<title>Node6&#45;&gt;Node8</title>
<path fill="none" stroke="#191970" d="M1394.8804,-392.7647C1406.9272,-383.7519 1420.5338,-371.2079 1428,-356.4516 1454.4572,-304.1617 1451.6935,-232.2631 1448.4098,-198.0613"/>
<polygon fill="#191970" stroke="#191970" points="1451.8755,-197.5547 1447.3177,-187.9903 1444.9163,-198.3094 1451.8755,-197.5547"/>
</g>
<!-- Node9 -->
<g id="node10" class="node">
<title>Node9</title>
<polygon fill="#ffffff" stroke="#bfbfbf" points="1379,-336.9516 1379,-355.9516 1419,-355.9516 1419,-336.9516 1379,-336.9516"/>
<text text-anchor="middle" x="1399" y="-343.9516" font-family="Helvetica,sans-Serif" font-size="10.00" fill="#000000">utility</text>
</g>
<!-- Node6&#45;&gt;Node9 -->
<g id="edge11" class="edge">
<title>Node6&#45;&gt;Node9</title>
<path fill="none" stroke="#191970" d="M1377.9214,-392.7494C1381.6461,-384.5682 1386.278,-374.3946 1390.2504,-365.6695"/>
<polygon fill="#191970" stroke="#191970" points="1393.5586,-366.85 1394.5168,-356.2986 1387.1878,-363.9494 1393.5586,-366.85"/>
</g>
<!-- Node6&#45;&gt;Node10 -->
<g id="edge12" class="edge">
<title>Node6&#45;&gt;Node10</title>
<path fill="none" stroke="#191970" d="M1327.2117,-392.907C1297.2141,-382.6006 1257.8513,-369.0765 1229.3384,-359.2802"/>
<polygon fill="#191970" stroke="#191970" points="1230.3333,-355.9213 1219.7386,-355.9819 1228.0587,-362.5414 1230.3333,-355.9213"/>
</g>
<!-- Node10&#45;&gt;Node4 -->
<g id="edge16" class="edge">
<title>Node10&#45;&gt;Node4</title>
<path fill="none" stroke="#191970" d="M1153.9916,-345.0594C1090.312,-341.9027 958.5662,-331.8296 852,-300.4516 739.4695,-267.3175 709.3258,-255.4019 613,-188.4516 562.5561,-153.3911 550.5621,-135.0116 532,-76.4516 527.1335,-61.0987 523.4559,-43.1981 521.0939,-29.9156"/>
<polygon fill="#191970" stroke="#191970" points="524.5363,-29.2806 519.4221,-20.0019 517.6338,-30.4447 524.5363,-29.2806"/>
</g>
<!-- Node11 -->
<g id="node12" class="node">
<title>Node11</title>
<polygon fill="#ffffff" stroke="#bfbfbf" points="752,-56.9516 752,-75.9516 806,-75.9516 806,-56.9516 752,-56.9516"/>
<text text-anchor="middle" x="779" y="-63.9516" font-family="Helvetica,sans-Serif" font-size="10.00" fill="#000000">iostream</text>
</g>
<!-- Node10&#45;&gt;Node11 -->
<g id="edge13" class="edge">
<title>Node10&#45;&gt;Node11</title>
<path fill="none" stroke="#191970" d="M1153.9654,-343.7487C1099.7798,-339.094 997.7593,-327.3368 915,-300.4516 862.0697,-283.2567 843.1692,-282.9707 803,-244.4516 782.467,-224.7621 779.115,-215.9954 772,-188.4516 762.8892,-153.1819 769.1489,-110.3412 774.2593,-85.952"/>
<polygon fill="#191970" stroke="#191970" points="777.6869,-86.6623 776.467,-76.1379 770.8575,-85.1259 777.6869,-86.6623"/>
</g>
<!-- Node12 -->
<g id="node13" class="node">
<title>Node12</title>
<polygon fill="#ffffff" stroke="#bfbfbf" points="1210,-112.9516 1210,-131.9516 1262,-131.9516 1262,-112.9516 1210,-112.9516"/>
<text text-anchor="middle" x="1236" y="-119.9516" font-family="Helvetica,sans-Serif" font-size="10.00" fill="#000000">memory</text>
</g>
<!-- Node10&#45;&gt;Node12 -->
<g id="edge14" class="edge">
<title>Node10&#45;&gt;Node12</title>
<path fill="none" stroke="#191970" d="M1194.5074,-336.6143C1196.8387,-327.3229 1200.342,-312.9824 1203,-300.4516 1215.1342,-243.2461 1227.0621,-175.1672 1232.6738,-142.2393"/>
<polygon fill="#191970" stroke="#191970" points="1236.1662,-142.5777 1234.3853,-132.1336 1229.2645,-141.4088 1236.1662,-142.5777"/>
</g>
<!-- Node13 -->
<g id="node14" class="node">
<title>Node13</title>
<polygon fill="#ffffff" stroke="#bfbfbf" points="1135.5,-280.9516 1135.5,-299.9516 1194.5,-299.9516 1194.5,-280.9516 1135.5,-280.9516"/>
<text text-anchor="middle" x="1165" y="-287.9516" font-family="Helvetica,sans-Serif" font-size="10.00" fill="#000000">stdexcept</text>
</g>
<!-- Node10&#45;&gt;Node13 -->
<g id="edge15" class="edge">
<title>Node10&#45;&gt;Node13</title>
<path fill="none" stroke="#191970" d="M1187.297,-336.6972C1183.6576,-329.149 1178.5076,-318.4674 1174.0738,-309.2714"/>
<polygon fill="#191970" stroke="#191970" points="1177.1449,-307.5819 1169.6491,-300.0943 1170.8395,-310.6221 1177.1449,-307.5819"/>
</g>
<!-- Node14 -->
<g id="node15" class="node">
<title>Node14</title>
<g id="a_node15"><a xlink:href="../../d4/dd1/compiler_8h.xhtml" target="_top" xlink:title="../util/compiler.h">
<polygon fill="#ffffff" stroke="#000000" points="1106,-56.9516 1106,-75.9516 1192,-75.9516 1192,-56.9516 1106,-56.9516"/>
<text text-anchor="middle" x="1149" y="-63.9516" font-family="Helvetica,sans-Serif" font-size="10.00" fill="#000000">../util/compiler.h</text>
</a>
</g>
</g>
<!-- Node10&#45;&gt;Node14 -->
<g id="edge17" class="edge">
<title>Node10&#45;&gt;Node14</title>
<path fill="none" stroke="#191970" d="M1230.2883,-340.1189C1324.6108,-322.8236 1555.6081,-269.2142 1486,-168.4516 1453.4984,-121.4033 1288.5075,-88.6442 1202.0409,-74.4174"/>
<polygon fill="#191970" stroke="#191970" points="1202.5838,-70.9598 1192.1526,-72.8149 1201.4639,-77.8697 1202.5838,-70.9598"/>
</g>
<!-- Node17 -->
<g id="node18" class="node">
<title>Node17</title>
<g id="a_node18"><a xlink:href="../../d2/d0d/message_8h.xhtml" target="_top" xlink:title="../log/message.h">
<polygon fill="#ffffff" stroke="#000000" points="924.5,-280.9516 924.5,-299.9516 1013.5,-299.9516 1013.5,-280.9516 924.5,-280.9516"/>
<text text-anchor="middle" x="969" y="-287.9516" font-family="Helvetica,sans-Serif" font-size="10.00" fill="#000000">../log/message.h</text>
</a>
</g>
</g>
<!-- Node10&#45;&gt;Node17 -->
<g id="edge22" class="edge">
<title>Node10&#45;&gt;Node17</title>
<path fill="none" stroke="#191970" d="M1153.9183,-336.8885C1115.9941,-327.365 1057.6711,-312.7188 1016.6874,-302.427"/>
<polygon fill="#191970" stroke="#191970" points="1017.476,-299.0164 1006.9246,-299.9753 1015.771,-305.8056 1017.476,-299.0164"/>
</g>
<!-- Node14&#45;&gt;Node4 -->
<g id="edge19" class="edge">
<title>Node14&#45;&gt;Node4</title>
<path fill="none" stroke="#191970" d="M1105.9879,-60.668C1094.3223,-59.192 1081.6869,-57.6777 1070,-56.4516 871.633,-35.6411 632.3587,-18.3568 548.6722,-12.5451"/>
<polygon fill="#191970" stroke="#191970" points="548.7985,-9.0455 538.5809,-11.8476 548.3158,-16.0289 548.7985,-9.0455"/>
</g>
<!-- Node15 -->
<g id="node16" class="node">
<title>Node15</title>
<polygon fill="#ffffff" stroke="#bfbfbf" points="1090,-.9516 1090,-19.9516 1140,-19.9516 1140,-.9516 1090,-.9516"/>
<text text-anchor="middle" x="1115" y="-7.9516" font-family="Helvetica,sans-Serif" font-size="10.00" fill="#000000">ciso646</text>
</g>
<!-- Node14&#45;&gt;Node15 -->
<g id="edge18" class="edge">
<title>Node14&#45;&gt;Node15</title>
<path fill="none" stroke="#191970" d="M1143.0777,-56.6972C1138.3973,-48.9884 1131.7327,-38.0114 1126.0711,-28.6864"/>
<polygon fill="#191970" stroke="#191970" points="1129.0361,-26.8258 1120.8545,-20.0943 1123.0525,-30.4586 1129.0361,-26.8258"/>
</g>
<!-- Node16 -->
<g id="node17" class="node">
<title>Node16</title>
<g id="a_node17"><a xlink:href="../../d8/d39/signal_8h.xhtml" target="_top" xlink:title="signal.h">
<polygon fill="#ffffff" stroke="#000000" points="1158,-.9516 1158,-19.9516 1208,-19.9516 1208,-.9516 1158,-.9516"/>
<text text-anchor="middle" x="1183" y="-7.9516" font-family="Helvetica,sans-Serif" font-size="10.00" fill="#000000">signal.h</text>
</a>
</g>
</g>
<!-- Node14&#45;&gt;Node16 -->
<g id="edge20" class="edge">
<title>Node14&#45;&gt;Node16</title>
<path fill="none" stroke="#191970" d="M1154.9223,-56.6972C1159.6027,-48.9884 1166.2673,-38.0114 1171.9289,-28.6864"/>
<polygon fill="#191970" stroke="#191970" points="1174.9475,-30.4586 1177.1455,-20.0943 1168.9639,-26.8258 1174.9475,-30.4586"/>
</g>
<!-- Node16&#45;&gt;Node16 -->
<g id="edge21" class="edge">
<title>Node16&#45;&gt;Node16</title>
<path fill="none" stroke="#191970" d="M1201.5634,-20.0262C1213.9465,-22.7213 1226,-19.5298 1226,-10.4516 1226,-3.9267 1219.7731,-.4429 1211.6726,0"/>
<polygon fill="#191970" stroke="#191970" points="1211.2234,3.4743 1201.5634,-.877 1211.8285,-3.4995 1211.2234,3.4743"/>
</g>
<!-- Node17&#45;&gt;Node3 -->
<g id="edge23" class="edge">
<title>Node17&#45;&gt;Node3</title>
<path fill="none" stroke="#191970" d="M924.2157,-284.5645C838.3214,-273.2732 652.2265,-248.81 576.2861,-238.8273"/>
<polygon fill="#191970" stroke="#191970" points="576.6945,-235.3509 566.3236,-237.5176 575.7821,-242.2912 576.6945,-235.3509"/>
</g>
<!-- Node17&#45;&gt;Node4 -->
<g id="edge24" class="edge">
<title>Node17&#45;&gt;Node4</title>
<path fill="none" stroke="#191970" d="M924.4552,-285.4781C842.7977,-273.9485 668.9172,-237.797 575,-132.4516 547.6386,-101.7608 530.9693,-55.6577 523.215,-29.8048"/>
<polygon fill="#191970" stroke="#191970" points="526.5457,-28.7219 520.4324,-20.0687 519.8152,-30.6456 526.5457,-28.7219"/>
</g>
<!-- Node18 -->
<g id="node19" class="node">
<title>Node18</title>
<polygon fill="#ffffff" stroke="#bfbfbf" points="1072.5,-224.9516 1072.5,-243.9516 1123.5,-243.9516 1123.5,-224.9516 1072.5,-224.9516"/>
<text text-anchor="middle" x="1098" y="-231.9516" font-family="Helvetica,sans-Serif" font-size="10.00" fill="#000000">config.h</text>
</g>
<!-- Node17&#45;&gt;Node18 -->
<g id="edge25" class="edge">
<title>Node17&#45;&gt;Node18</title>
<path fill="none" stroke="#191970" d="M991.1759,-280.8249C1011.9766,-271.7951 1043.2917,-258.201 1066.6458,-248.0627"/>
<polygon fill="#191970" stroke="#191970" points="1068.3343,-251.1454 1076.1135,-243.9528 1065.5468,-244.7243 1068.3343,-251.1454"/>
</g>
<!-- Node19 -->
<g id="node20" class="node">
<title>Node19</title>
<g id="a_node20"><a xlink:href="../../d1/d06/constexpr_8h.xhtml" target="_top" xlink:title="../util/constexpr.h">
<polygon fill="#ffffff" stroke="#000000" points="962,-224.9516 962,-243.9516 1054,-243.9516 1054,-224.9516 962,-224.9516"/>
<text text-anchor="middle" x="1008" y="-231.9516" font-family="Helvetica,sans-Serif" font-size="10.00" fill="#000000">../util/constexpr.h</text>
</a>
</g>
</g>
<!-- Node17&#45;&gt;Node19 -->
<g id="edge26" class="edge">
<title>Node17&#45;&gt;Node19</title>
<path fill="none" stroke="#191970" d="M975.7933,-280.6972C981.2178,-272.9081 988.9661,-261.7824 995.5033,-252.3956"/>
<polygon fill="#191970" stroke="#191970" points="998.4417,-254.3006 1001.2846,-244.0943 992.6975,-250.3001 998.4417,-254.3006"/>
</g>
<!-- Node21 -->
<g id="node22" class="node">
<title>Node21</title>
<g id="a_node22"><a xlink:href="../../de/d65/stringformatter_8h.xhtml" target="_top" xlink:title="../util/stringformatter.h">
<polygon fill="#ffffff" stroke="#000000" points="1294.5,-224.9516 1294.5,-243.9516 1407.5,-243.9516 1407.5,-224.9516 1294.5,-224.9516"/>
<text text-anchor="middle" x="1351" y="-231.9516" font-family="Helvetica,sans-Serif" font-size="10.00" fill="#000000">../util/stringformatter.h</text>
</a>
</g>
</g>
<!-- Node17&#45;&gt;Node21 -->
<g id="edge28" class="edge">
<title>Node17&#45;&gt;Node21</title>
<path fill="none" stroke="#191970" d="M1013.5679,-283.9181C1080.2454,-274.1434 1206.4247,-255.6459 1284.1671,-244.2491"/>
<polygon fill="#191970" stroke="#191970" points="1284.9493,-247.672 1294.3358,-242.7584 1283.9339,-240.746 1284.9493,-247.672"/>
</g>
<!-- Node29 -->
<g id="node27" class="node">
<title>Node29</title>
<g id="a_node27"><a xlink:href="../../d3/d4e/logsink_8h.xhtml" target="_top" xlink:title="logsink.h">
<polygon fill="#ffffff" stroke="#000000" points="812,-224.9516 812,-243.9516 868,-243.9516 868,-224.9516 812,-224.9516"/>
<text text-anchor="middle" x="840" y="-231.9516" font-family="Helvetica,sans-Serif" font-size="10.00" fill="#000000">logsink.h</text>
</a>
</g>
</g>
<!-- Node17&#45;&gt;Node29 -->
<g id="edge41" class="edge">
<title>Node17&#45;&gt;Node29</title>
<path fill="none" stroke="#191970" d="M946.8241,-280.8249C926.0234,-271.7951 894.7083,-258.201 871.3542,-248.0627"/>
<polygon fill="#191970" stroke="#191970" points="872.4532,-244.7243 861.8865,-243.9528 869.6657,-251.1454 872.4532,-244.7243"/>
</g>
<!-- Node32 -->
<g id="node30" class="node">
<title>Node32</title>
<g id="a_node30"><a xlink:href="../../de/d09/level_8h.xhtml" target="_top" xlink:title="level.h">
<polygon fill="#ffffff" stroke="#000000" points="900.5,-168.9516 900.5,-187.9516 945.5,-187.9516 945.5,-168.9516 900.5,-168.9516"/>
<text text-anchor="middle" x="923" y="-175.9516" font-family="Helvetica,sans-Serif" font-size="10.00" fill="#000000">level.h</text>
</a>
</g>
</g>
<!-- Node17&#45;&gt;Node32 -->
<g id="edge49" class="edge">
<title>Node17&#45;&gt;Node32</title>
<path fill="none" stroke="#191970" d="M965.0781,-280.9026C957.5077,-262.4703 940.7533,-221.677 930.8212,-197.4946"/>
<polygon fill="#191970" stroke="#191970" points="933.9488,-195.897 926.912,-187.9765 927.4737,-198.5565 933.9488,-195.897"/>
</g>
<!-- Node20 -->
<g id="node21" class="node">
<title>Node20</title>
<polygon fill="#ffffff" stroke="#bfbfbf" points="985.5,-168.9516 985.5,-187.9516 1030.5,-187.9516 1030.5,-168.9516 985.5,-168.9516"/>
<text text-anchor="middle" x="1008" y="-175.9516" font-family="Helvetica,sans-Serif" font-size="10.00" fill="#000000">cstdlib</text>
</g>
<!-- Node19&#45;&gt;Node20 -->
<g id="edge27" class="edge">
<title>Node19&#45;&gt;Node20</title>
<path fill="none" stroke="#191970" d="M1008,-224.6972C1008,-217.3899 1008,-207.146 1008,-198.1562"/>
<polygon fill="#191970" stroke="#191970" points="1011.5001,-198.0943 1008,-188.0943 1004.5001,-198.0943 1011.5001,-198.0943"/>
</g>
<!-- Node21&#45;&gt;Node8 -->
<g id="edge31" class="edge">
<title>Node21&#45;&gt;Node8</title>
<path fill="none" stroke="#191970" d="M1367.5477,-224.6972C1382.2599,-216.0248 1403.9888,-203.2161 1420.8505,-193.2766"/>
<polygon fill="#191970" stroke="#191970" points="1422.8046,-196.1876 1429.6419,-188.0943 1419.2498,-190.1573 1422.8046,-196.1876"/>
</g>
<!-- Node21&#45;&gt;Node12 -->
<g id="edge30" class="edge">
<title>Node21&#45;&gt;Node12</title>
<path fill="none" stroke="#191970" d="M1341.1952,-224.9026C1321.5902,-205.809 1277.3484,-162.7214 1252.9485,-138.958"/>
<polygon fill="#191970" stroke="#191970" points="1255.3859,-136.4462 1245.78,-131.9765 1250.502,-141.4609 1255.3859,-136.4462"/>
</g>
<!-- Node21&#45;&gt;Node14 -->
<g id="edge32" class="edge">
<title>Node21&#45;&gt;Node14</title>
<path fill="none" stroke="#191970" d="M1357.7058,-224.8839C1366.1985,-211.4748 1378.531,-186.6914 1368,-168.4516 1334.0143,-109.5882 1255.2973,-84.3752 1202.1005,-73.7974"/>
<polygon fill="#191970" stroke="#191970" points="1202.6261,-70.335 1192.1519,-71.9295 1201.3343,-77.2148 1202.6261,-70.335"/>
</g>
<!-- Node22 -->
<g id="node23" class="node">
<title>Node22</title>
<polygon fill="#ffffff" stroke="#bfbfbf" points="1313,-168.9516 1313,-187.9516 1359,-187.9516 1359,-168.9516 1313,-168.9516"/>
<text text-anchor="middle" x="1336" y="-175.9516" font-family="Helvetica,sans-Serif" font-size="10.00" fill="#000000">atomic</text>
</g>
<!-- Node21&#45;&gt;Node22 -->
<g id="edge29" class="edge">
<title>Node21&#45;&gt;Node22</title>
<path fill="none" stroke="#191970" d="M1348.3872,-224.6972C1346.4084,-217.3096 1343.6256,-206.9205 1341.1988,-197.8603"/>
<polygon fill="#191970" stroke="#191970" points="1344.5511,-196.8482 1338.5829,-188.0943 1337.7895,-198.6594 1344.5511,-196.8482"/>
</g>
<!-- Node23 -->
<g id="node24" class="node">
<title>Node23</title>
<g id="a_node24"><a xlink:href="../../dc/dcf/externalsstream_8h.xhtml" target="_top" xlink:title="externalsstream.h">
<polygon fill="#ffffff" stroke="#000000" points="801.5,-112.9516 801.5,-131.9516 896.5,-131.9516 896.5,-112.9516 801.5,-112.9516"/>
<text text-anchor="middle" x="849" y="-119.9516" font-family="Helvetica,sans-Serif" font-size="10.00" fill="#000000">externalsstream.h</text>
</a>
</g>
</g>
<!-- Node21&#45;&gt;Node23 -->
<g id="edge33" class="edge">
<title>Node21&#45;&gt;Node23</title>
<path fill="none" stroke="#191970" d="M1294.3589,-230.0101C1238.278,-224.4355 1150.5328,-212.5197 1078,-188.4516 1059.5116,-182.3168 1057.2603,-175.2352 1039,-168.4516 995.7768,-152.3945 944.9185,-140.4248 906.7026,-132.7266"/>
<polygon fill="#191970" stroke="#191970" points="907.2636,-129.2698 896.7748,-130.7653 905.9068,-136.1371 907.2636,-129.2698"/>
</g>
<!-- Node24 -->
<g id="node25" class="node">
<title>Node24</title>
<g id="a_node25"><a xlink:href="../../d6/d90/strings_8h.xhtml" target="_top" xlink:title="strings.h">
<polygon fill="#ffffff" stroke="#ff0000" points="1087,-168.9516 1087,-187.9516 1141,-187.9516 1141,-168.9516 1087,-168.9516"/>
<text text-anchor="middle" x="1114" y="-175.9516" font-family="Helvetica,sans-Serif" font-size="10.00" fill="#000000">strings.h</text>
</a>
</g>
</g>
<!-- Node21&#45;&gt;Node24 -->
<g id="edge36" class="edge">
<title>Node21&#45;&gt;Node24</title>
<path fill="none" stroke="#191970" d="M1310.5275,-224.8885C1265.731,-214.3037 1194.1541,-197.391 1150.862,-187.1616"/>
<polygon fill="#191970" stroke="#191970" points="1151.5606,-183.7304 1141.0237,-184.837 1149.9508,-190.5428 1151.5606,-183.7304"/>
</g>
<!-- Node23&#45;&gt;Node4 -->
<g id="edge35" class="edge">
<title>Node23&#45;&gt;Node4</title>
<path fill="none" stroke="#191970" d="M846.8905,-112.5332C843.1879,-97.7385 834.0326,-70.1655 815,-56.4516 772.7944,-26.0406 616.1497,-15.0963 548.9458,-11.7434"/>
<polygon fill="#191970" stroke="#191970" points="548.7435,-8.23 538.5888,-11.252 548.4116,-15.2221 548.7435,-8.23"/>
</g>
<!-- Node23&#45;&gt;Node11 -->
<g id="edge34" class="edge">
<title>Node23&#45;&gt;Node11</title>
<path fill="none" stroke="#191970" d="M836.8069,-112.6972C826.3679,-104.346 811.1345,-92.1593 798.926,-82.3925"/>
<polygon fill="#191970" stroke="#191970" points="801.0485,-79.6082 791.0533,-76.0943 796.6756,-85.0743 801.0485,-79.6082"/>
</g>
<!-- Node24&#45;&gt;Node2 -->
<g id="edge40" class="edge">
<title>Node24&#45;&gt;Node2</title>
<path fill="none" stroke="#191970" d="M1086.979,-174.3447C1072.7356,-172.3076 1054.9543,-169.9655 1039,-168.4516 737.0292,-139.798 369.9865,-126.8212 260.382,-123.4052"/>
<polygon fill="#191970" stroke="#191970" points="260.4037,-119.9043 250.3009,-123.0955 260.1887,-126.901 260.4037,-119.9043"/>
</g>
<!-- Node24&#45;&gt;Node4 -->
<g id="edge39" class="edge">
<title>Node24&#45;&gt;Node4</title>
<path fill="none" stroke="#191970" d="M1107.3489,-168.6248C1090.4104,-144.5217 1042.9334,-82.5411 986,-56.4516 907.6364,-20.5419 640.1219,-12.575 548.8244,-10.8859"/>
<polygon fill="#191970" stroke="#191970" points="548.6475,-7.3824 538.5886,-10.7096 548.5268,-14.3814 548.6475,-7.3824"/>
</g>
<!-- Node24&#45;&gt;Node12 -->
<g id="edge38" class="edge">
<title>Node24&#45;&gt;Node12</title>
<path fill="none" stroke="#191970" d="M1134.9725,-168.8249C1154.5567,-159.8354 1183.9961,-146.3223 1206.051,-136.1987"/>
<polygon fill="#191970" stroke="#191970" points="1207.6729,-139.3054 1215.3011,-131.9528 1204.7527,-132.9436 1207.6729,-139.3054"/>
</g>
<!-- Node26 -->
<g id="node26" class="node">
<title>Node26</title>
<polygon fill="#ffffff" stroke="#bfbfbf" points="685.5,-112.9516 685.5,-131.9516 744.5,-131.9516 744.5,-112.9516 685.5,-112.9516"/>
<text text-anchor="middle" x="715" y="-119.9516" font-family="Helvetica,sans-Serif" font-size="10.00" fill="#000000">functional</text>
</g>
<!-- Node24&#45;&gt;Node26 -->
<g id="edge37" class="edge">
<title>Node24&#45;&gt;Node26</title>
<path fill="none" stroke="#191970" d="M1086.8888,-174.6466C1017.9813,-164.9753 835.8668,-139.4154 754.8445,-128.0438"/>
<polygon fill="#191970" stroke="#191970" points="754.9514,-124.5246 744.562,-126.6007 753.9785,-131.4567 754.9514,-124.5246"/>
</g>
<!-- Node30 -->
<g id="node28" class="node">
<title>Node30</title>
<polygon fill="#ffffff" stroke="#bfbfbf" points="843.5,-168.9516 843.5,-187.9516 872.5,-187.9516 872.5,-168.9516 843.5,-168.9516"/>
<text text-anchor="middle" x="858" y="-175.9516" font-family="Helvetica,sans-Serif" font-size="10.00" fill="#000000">list</text>
</g>
<!-- Node29&#45;&gt;Node30 -->
<g id="edge42" class="edge">
<title>Node29&#45;&gt;Node30</title>
<path fill="none" stroke="#191970" d="M843.1354,-224.6972C845.51,-217.3096 848.8493,-206.9205 851.7615,-197.8603"/>
<polygon fill="#191970" stroke="#191970" points="855.1725,-198.6857 854.9006,-188.0943 848.5083,-196.5435 855.1725,-198.6857"/>
</g>
<!-- Node31 -->
<g id="node29" class="node">
<title>Node31</title>
<polygon fill="#ffffff" stroke="#bfbfbf" points="781,-168.9516 781,-187.9516 825,-187.9516 825,-168.9516 781,-168.9516"/>
<text text-anchor="middle" x="803" y="-175.9516" font-family="Helvetica,sans-Serif" font-size="10.00" fill="#000000">mutex</text>
</g>
<!-- Node29&#45;&gt;Node31 -->
<g id="edge43" class="edge">
<title>Node29&#45;&gt;Node31</title>
<path fill="none" stroke="#191970" d="M833.5551,-224.6972C828.4618,-216.9884 821.2092,-206.0114 815.048,-196.6864"/>
<polygon fill="#191970" stroke="#191970" points="817.8038,-194.5083 809.3711,-188.0943 811.9635,-198.3671 817.8038,-194.5083"/>
</g>
<!-- Node29&#45;&gt;Node32 -->
<g id="edge44" class="edge">
<title>Node29&#45;&gt;Node32</title>
<path fill="none" stroke="#191970" d="M854.4575,-224.6972C867.0732,-216.1854 885.5944,-203.6891 900.2045,-193.8317"/>
<polygon fill="#191970" stroke="#191970" points="902.3761,-196.5887 908.7082,-188.0943 898.4609,-190.786 902.3761,-196.5887"/>
</g>
<!-- Node33 -->
<g id="node31" class="node">
<title>Node33</title>
<g id="a_node31"><a xlink:href="../../d0/d9b/enum_8h.xhtml" target="_top" xlink:title="../util/enum.h">
<polygon fill="#ffffff" stroke="#000000" points="915,-112.9516 915,-131.9516 989,-131.9516 989,-112.9516 915,-112.9516"/>
<text text-anchor="middle" x="952" y="-119.9516" font-family="Helvetica,sans-Serif" font-size="10.00" fill="#000000">../util/enum.h</text>
</a>
</g>
</g>
<!-- Node32&#45;&gt;Node33 -->
<g id="edge45" class="edge">
<title>Node32&#45;&gt;Node33</title>
<path fill="none" stroke="#191970" d="M928.0514,-168.6972C932.0019,-161.0687 937.6097,-150.2398 942.4058,-140.9784"/>
<polygon fill="#191970" stroke="#191970" points="945.5159,-142.5838 947.0065,-132.0943 939.2999,-139.3648 945.5159,-142.5838"/>
</g>
<!-- Node33&#45;&gt;Node11 -->
<g id="edge46" class="edge">
<title>Node33&#45;&gt;Node11</title>
<path fill="none" stroke="#191970" d="M922.2602,-112.8249C892.7956,-103.2872 847.5994,-88.6572 815.8691,-78.3862"/>
<polygon fill="#191970" stroke="#191970" points="816.6692,-74.9664 806.0773,-75.2165 814.5134,-81.6262 816.6692,-74.9664"/>
</g>
<!-- Node33&#45;&gt;Node14 -->
<g id="edge48" class="edge">
<title>Node33&#45;&gt;Node14</title>
<path fill="none" stroke="#191970" d="M985.8655,-112.8249C1019.049,-103.392 1069.755,-88.9781 1105.8194,-78.7263"/>
<polygon fill="#191970" stroke="#191970" points="1106.9145,-82.0538 1115.5764,-75.9528 1105.0005,-75.3205 1106.9145,-82.0538"/>
</g>
<!-- Node34 -->
<g id="node32" class="node">
<title>Node34</title>
<polygon fill="#ffffff" stroke="#bfbfbf" points="926.5,-56.9516 926.5,-75.9516 977.5,-75.9516 977.5,-56.9516 926.5,-56.9516"/>
<text text-anchor="middle" x="952" y="-63.9516" font-family="Helvetica,sans-Serif" font-size="10.00" fill="#000000">typeinfo</text>
</g>
<!-- Node33&#45;&gt;Node34 -->
<g id="edge47" class="edge">
<title>Node33&#45;&gt;Node34</title>
<path fill="none" stroke="#191970" d="M952,-112.6972C952,-105.3899 952,-95.146 952,-86.1562"/>
<polygon fill="#191970" stroke="#191970" points="955.5001,-86.0943 952,-76.0943 948.5001,-86.0943 955.5001,-86.0943"/>
</g>
<!-- Node35&#45;&gt;Node3 -->
<g id="edge51" class="edge">
<title>Node35&#45;&gt;Node3</title>
<path fill="none" stroke="#191970" d="M518,-739.8633C518,-720.5054 518,-675.3683 518,-637.4516 518,-637.4516 518,-637.4516 518,-469.4516 518,-418.8454 526.6159,-406.7706 532,-356.4516 535.8674,-320.3072 539.4743,-278.0402 541.4444,-253.9403"/>
<polygon fill="#191970" stroke="#191970" points="544.9345,-254.2031 542.2518,-243.9536 537.9573,-253.639 544.9345,-254.2031"/>
</g>
<!-- Node35&#45;&gt;Node36 -->
<g id="edge52" class="edge">
<title>Node35&#45;&gt;Node36</title>
<path fill="none" stroke="#191970" d="M558.3017,-739.8885C599.5835,-730.0928 663.7046,-714.8777 707.2046,-704.5556"/>
<polygon fill="#191970" stroke="#191970" points="708.0522,-707.9518 716.974,-702.2375 706.436,-701.1409 708.0522,-707.9518"/>
</g>
<!-- Node36&#45;&gt;Node2 -->
<g id="edge58" class="edge">
<title>Node36&#45;&gt;Node2</title>
<path fill="none" stroke="#191970" d="M716.7577,-689.2452C659.4019,-680.4686 556,-654.5144 556,-581.4516 556,-581.4516 556,-581.4516 556,-525.4516 556,-426.2516 357.7887,-238.9511 288,-168.4516 276.8151,-157.1528 262.7824,-146.2482 251.1007,-137.894"/>
<polygon fill="#191970" stroke="#191970" points="252.9152,-134.8923 242.712,-132.0385 248.9086,-140.6323 252.9152,-134.8923"/>
</g>
<!-- Node36&#45;&gt;Node4 -->
<g id="edge56" class="edge">
<title>Node36&#45;&gt;Node4</title>
<path fill="none" stroke="#191970" d="M736.44,-683.849C722.3946,-675.5482 702.8308,-662.5296 689,-647.4516 657.9294,-613.5793 480,-336.4159 480,-290.4516 480,-290.4516 480,-290.4516 480,-122.4516 480,-88.0634 496.2634,-50.7348 507.511,-29.0307"/>
<polygon fill="#191970" stroke="#191970" points="510.7317,-30.432 512.393,-19.9682 504.569,-27.1121 510.7317,-30.432"/>
</g>
<!-- Node36&#45;&gt;Node10 -->
<g id="edge59" class="edge">
<title>Node36&#45;&gt;Node10</title>
<path fill="none" stroke="#191970" d="M791.1012,-691.8131C862.8643,-688.0196 1017.4553,-676.6205 1061,-647.4516 1157.3833,-582.8882 1164.1067,-535.2719 1195,-423.4516 1200.2176,-404.5663 1198.4835,-382.0885 1196.0441,-366.3093"/>
<polygon fill="#191970" stroke="#191970" points="1199.4338,-365.3809 1194.2324,-356.1507 1192.5425,-366.6099 1199.4338,-365.3809"/>
</g>
<!-- Node36&#45;&gt;Node14 -->
<g id="edge60" class="edge">
<title>Node36&#45;&gt;Node14</title>
<path fill="none" stroke="#191970" d="M791.1304,-690.4464C866.5351,-684.0033 1035.023,-667.7801 1089,-647.4516 1257.9993,-583.8044 1313.1261,-562.792 1428,-423.4516 1503.3078,-332.1043 1561.6997,-272.3783 1505,-168.4516 1482.9765,-128.0841 1460.8619,-129.1078 1418,-112.4516 1346.6404,-84.7212 1258.1929,-73.6706 1202.6593,-69.2915"/>
<polygon fill="#191970" stroke="#191970" points="1202.5774,-65.7758 1192.3456,-68.5252 1202.0587,-72.7566 1202.5774,-65.7758"/>
</g>
<!-- Node36&#45;&gt;Node20 -->
<g id="edge53" class="edge">
<title>Node36&#45;&gt;Node20</title>
<path fill="none" stroke="#191970" d="M791.1087,-687.3256C869.9509,-673.2586 1047,-635.6371 1047,-581.4516 1047,-581.4516 1047,-581.4516 1047,-469.4516 1047,-434.203 1054.5546,-425.7904 1066,-392.4516 1079.0242,-354.5141 1154.9053,-257.3794 1132,-224.4516 1131.9129,-224.3264 1077.2501,-204.0788 1040.5399,-190.4915"/>
<polygon fill="#191970" stroke="#191970" points="1041.3153,-187.0465 1030.7221,-186.858 1038.8857,-193.6113 1041.3153,-187.0465"/>
</g>
<!-- Node37 -->
<g id="node35" class="node">
<title>Node37</title>
<polygon fill="#ffffff" stroke="#bfbfbf" points="698,-627.9516 698,-646.9516 744,-646.9516 744,-627.9516 698,-627.9516"/>
<text text-anchor="middle" x="721" y="-634.9516" font-family="Helvetica,sans-Serif" font-size="10.00" fill="#000000">cstring</text>
</g>
<!-- Node36&#45;&gt;Node37 -->
<g id="edge54" class="edge">
<title>Node36&#45;&gt;Node37</title>
<path fill="none" stroke="#191970" d="M748.2518,-683.6972C743.7565,-676.0687 737.3752,-665.2398 731.9175,-655.9784"/>
<polygon fill="#191970" stroke="#191970" points="734.7747,-653.9328 726.6823,-647.0943 728.7439,-657.4866 734.7747,-653.9328"/>
</g>
<!-- Node38 -->
<g id="node36" class="node">
<title>Node38</title>
<polygon fill="#ffffff" stroke="#bfbfbf" points="762,-627.9516 762,-646.9516 812,-646.9516 812,-627.9516 762,-627.9516"/>
<text text-anchor="middle" x="787" y="-634.9516" font-family="Helvetica,sans-Serif" font-size="10.00" fill="#000000">fstream</text>
</g>
<!-- Node36&#45;&gt;Node38 -->
<g id="edge55" class="edge">
<title>Node36&#45;&gt;Node38</title>
<path fill="none" stroke="#191970" d="M759.7482,-683.6972C764.2435,-676.0687 770.6248,-665.2398 776.0825,-655.9784"/>
<polygon fill="#191970" stroke="#191970" points="779.2561,-657.4866 781.3177,-647.0943 773.2253,-653.9328 779.2561,-657.4866"/>
</g>
<!-- Node39 -->
<g id="node37" class="node">
<title>Node39</title>
<polygon fill="#ffffff" stroke="#bfbfbf" points="830.5,-627.9516 830.5,-646.9516 913.5,-646.9516 913.5,-627.9516 830.5,-627.9516"/>
<text text-anchor="middle" x="872" y="-634.9516" font-family="Helvetica,sans-Serif" font-size="10.00" fill="#000000">unordered_map</text>
</g>
<!-- Node36&#45;&gt;Node39 -->
<g id="edge57" class="edge">
<title>Node36&#45;&gt;Node39</title>
<path fill="none" stroke="#191970" d="M774.2849,-683.8249C793.1421,-674.8757 821.446,-661.4434 842.7455,-651.3351"/>
<polygon fill="#191970" stroke="#191970" points="844.4461,-654.4022 851.9798,-646.9528 841.4449,-648.0783 844.4461,-654.4022"/>
</g>
<!-- Node40 -->
<g id="node38" class="node">
<title>Node40</title>
<g id="a_node38"><a xlink:href="../../d3/d0f/fslike_2native_8h.xhtml" target="_top" xlink:title="fslike/native.h">
<polygon fill="#ffffff" stroke="#000000" points="374.5,-571.9516 374.5,-590.9516 451.5,-590.9516 451.5,-571.9516 374.5,-571.9516"/>
<text text-anchor="middle" x="413" y="-578.9516" font-family="Helvetica,sans-Serif" font-size="10.00" fill="#000000">fslike/native.h</text>
</a>
</g>
</g>
<!-- Node36&#45;&gt;Node40 -->
<g id="edge61" class="edge">
<title>Node36&#45;&gt;Node40</title>
<path fill="none" stroke="#191970" d="M716.8068,-688.3729C673.8298,-681.8251 601.4031,-668.6847 542,-647.4516 503.98,-633.8618 462.9288,-611.3705 437.5909,-596.4806"/>
<polygon fill="#191970" stroke="#191970" points="439.0713,-593.2887 428.6884,-591.1805 435.4904,-599.3035 439.0713,-593.2887"/>
</g>
<!-- Node36&#45;&gt;Node41 -->
<g id="edge62" class="edge">
<title>Node36&#45;&gt;Node41</title>
<path fill="none" stroke="#191970" d="M716.9405,-688.58C634.7733,-677.7786 438.4337,-651.9687 360.5944,-641.7363"/>
<polygon fill="#191970" stroke="#191970" points="360.7925,-638.2323 350.4216,-640.3991 359.8801,-645.1726 360.7925,-638.2323"/>
</g>
<!-- Node41&#45;&gt;Node2 -->
<g id="edge64" class="edge">
<title>Node41&#45;&gt;Node2</title>
<path fill="none" stroke="#191970" d="M309.3027,-627.9283C281.5081,-612.6471 230.0933,-579.8042 207,-535.4516 168.0502,-460.6452 190,-430.7907 190,-346.4516 190,-346.4516 190,-346.4516 190,-234.4516 190,-200.0634 206.2634,-162.7348 217.511,-141.0307"/>
<polygon fill="#191970" stroke="#191970" points="220.7317,-142.432 222.393,-131.9682 214.569,-139.1121 220.7317,-142.432"/>
</g>
<!-- Node41&#45;&gt;Node4 -->
<g id="edge63" class="edge">
<title>Node41&#45;&gt;Node4</title>
<path fill="none" stroke="#191970" d="M305.9043,-636.1227C251.2276,-631.5228 114,-611.4152 114,-525.4516 114,-525.4516 114,-525.4516 114,-469.4516 114,-335.7802 38,-312.1231 38,-178.4516 38,-178.4516 38,-178.4516 38,-122.4516 38,-29.7934 381.5009,-13.7529 487.3353,-11.0098"/>
<polygon fill="#191970" stroke="#191970" points="487.4608,-14.5079 497.375,-10.7716 487.2948,-7.5098 487.4608,-14.5079"/>
</g>
<!-- Node41&#45;&gt;Node40 -->
<g id="edge89" class="edge">
<title>Node41&#45;&gt;Node40</title>
<path fill="none" stroke="#191970" d="M342.8059,-627.6972C355.7256,-619.1854 374.6931,-606.6891 389.6552,-596.8317"/>
<polygon fill="#191970" stroke="#191970" points="391.9387,-599.5186 398.3638,-591.0943 388.0876,-593.6732 391.9387,-599.5186"/>
</g>
<!-- Node42 -->
<g id="node40" class="node">
<title>Node42</title>
<g id="a_node40"><a xlink:href="../../d2/d4b/pyobject_8h.xhtml" target="_top" xlink:title="../pyinterface/pyobject.h">
<polygon fill="#ffffff" stroke="#000000" points="216,-515.9516 216,-534.9516 338,-534.9516 338,-515.9516 216,-515.9516"/>
<text text-anchor="middle" x="277" y="-522.9516" font-family="Helvetica,sans-Serif" font-size="10.00" fill="#000000">../pyinterface/pyobject.h</text>
</a>
</g>
</g>
<!-- Node41&#45;&gt;Node42 -->
<g id="edge65" class="edge">
<title>Node41&#45;&gt;Node42</title>
<path fill="none" stroke="#191970" d="M323.6518,-627.9026C315.2209,-609.3876 296.5162,-568.3107 285.5237,-544.1703"/>
<polygon fill="#191970" stroke="#191970" points="288.6667,-542.6269 281.3372,-534.9765 282.2961,-545.5279 288.6667,-542.6269"/>
</g>
<!-- Node48 -->
<g id="node46" class="node">
<title>Node48</title>
<g id="a_node46"><a xlink:href="../../d2/d4d/file_8h.xhtml" target="_top" xlink:title="file.h">
<polygon fill="#ffffff" stroke="#000000" points="318,-571.9516 318,-590.9516 356,-590.9516 356,-571.9516 318,-571.9516"/>
<text text-anchor="middle" x="337" y="-578.9516" font-family="Helvetica,sans-Serif" font-size="10.00" fill="#000000">file.h</text>
</a>
</g>
</g>
<!-- Node41&#45;&gt;Node48 -->
<g id="edge80" class="edge">
<title>Node41&#45;&gt;Node48</title>
<path fill="none" stroke="#191970" d="M329.5677,-627.6972C330.7421,-620.3899 332.3884,-610.146 333.8332,-601.1562"/>
<polygon fill="#191970" stroke="#191970" points="337.3191,-601.523 335.4503,-591.0943 330.4078,-600.4122 337.3191,-601.523"/>
</g>
<!-- Node42&#45;&gt;Node2 -->
<g id="edge68" class="edge">
<title>Node42&#45;&gt;Node2</title>
<path fill="none" stroke="#191970" d="M269.3513,-515.7515C262.6147,-506.7872 252.9713,-492.8656 247,-479.4516 233.6281,-449.4129 228,-440.8323 228,-407.9516 228,-407.9516 228,-407.9516 228,-234.4516 228,-202.1632 228,-164.6388 228,-142.2564"/>
<polygon fill="#191970" stroke="#191970" points="231.5001,-142.04 228,-132.04 224.5001,-142.04 231.5001,-142.04"/>
</g>
<!-- Node42&#45;&gt;Node3 -->
<g id="edge66" class="edge">
<title>Node42&#45;&gt;Node3</title>
<path fill="none" stroke="#191970" d="M285.8503,-515.7695C324.3498,-473.6517 477.541,-306.0628 527.3005,-251.6266"/>
<polygon fill="#191970" stroke="#191970" points="529.9529,-253.9126 534.1165,-244.1701 524.7862,-249.1897 529.9529,-253.9126"/>
</g>
<!-- Node42&#45;&gt;Node4 -->
<g id="edge67" class="edge">
<title>Node42&#45;&gt;Node4</title>
<path fill="none" stroke="#191970" d="M266.1995,-515.7151C256.9655,-506.9432 243.8109,-493.3283 235,-479.4516 157.3896,-357.22 80.8519,-301.4856 138,-168.4516 152.2697,-135.2336 165.8707,-130.8372 197,-112.4516 294.3695,-54.9435 427.8122,-26.1135 487.2615,-15.4513"/>
<polygon fill="#191970" stroke="#191970" points="487.897,-18.8934 497.1457,-13.725 486.6926,-11.9977 487.897,-18.8934"/>
</g>
<!-- Node43 -->
<g id="node41" class="node">
<title>Node43</title>
<g id="a_node41"><a xlink:href="../../d5/d64/defs_8h.xhtml" target="_top" xlink:title="defs.h">
<polygon fill="#ffffff" stroke="#000000" points="256,-459.9516 256,-478.9516 300,-478.9516 300,-459.9516 256,-459.9516"/>
<text text-anchor="middle" x="278" y="-466.9516" font-family="Helvetica,sans-Serif" font-size="10.00" fill="#000000">defs.h</text>
</a>
</g>
</g>
<!-- Node42&#45;&gt;Node43 -->
<g id="edge69" class="edge">
<title>Node42&#45;&gt;Node43</title>
<path fill="none" stroke="#191970" d="M277.1742,-515.6972C277.3047,-508.3899 277.4876,-498.146 277.6481,-489.1562"/>
<polygon fill="#191970" stroke="#191970" points="281.1486,-489.1552 277.8278,-479.0943 274.1497,-489.0302 281.1486,-489.1552"/>
</g>
<!-- Node44 -->
<g id="node42" class="node">
<title>Node44</title>
<g id="a_node42"><a xlink:href="../../d8/dea/functional_8h.xhtml" target="_top" xlink:title="functional.h">
<polygon fill="#ffffff" stroke="#000000" points="744.5,-459.9516 744.5,-478.9516 811.5,-478.9516 811.5,-459.9516 744.5,-459.9516"/>
<text text-anchor="middle" x="778" y="-466.9516" font-family="Helvetica,sans-Serif" font-size="10.00" fill="#000000">functional.h</text>
</a>
</g>
</g>
<!-- Node42&#45;&gt;Node44 -->
<g id="edge70" class="edge">
<title>Node42&#45;&gt;Node44</title>
<path fill="none" stroke="#191970" d="M338.4324,-518.5849C441.105,-507.1086 645.0886,-484.308 734.4036,-474.3247"/>
<polygon fill="#191970" stroke="#191970" points="734.9106,-477.7899 744.4599,-473.2006 734.133,-470.8332 734.9106,-477.7899"/>
</g>
<!-- Node44&#45;&gt;Node14 -->
<g id="edge73" class="edge">
<title>Node44&#45;&gt;Node14</title>
<path fill="none" stroke="#191970" d="M808.8397,-459.9371C879.5308,-436.3625 1053.2234,-368.0326 1132,-244.4516 1163.6199,-194.8478 1157.7438,-121.1514 1152.5565,-86.2072"/>
<polygon fill="#191970" stroke="#191970" points="1156.0056,-85.6111 1150.9449,-76.3031 1149.0964,-86.7354 1156.0056,-85.6111"/>
</g>
<!-- Node44&#45;&gt;Node26 -->
<g id="edge71" class="edge">
<title>Node44&#45;&gt;Node26</title>
<path fill="none" stroke="#191970" d="M772.159,-459.7225C751.5728,-424.7025 682.7333,-301.1783 666,-188.4516 664.6948,-179.6591 662.4692,-176.6092 666,-168.4516 671.2337,-156.3598 681.3842,-145.9852 691.0955,-138.1655"/>
<polygon fill="#191970" stroke="#191970" points="693.4671,-140.7626 699.382,-131.9725 689.2766,-135.1555 693.4671,-140.7626"/>
</g>
<!-- Node44&#45;&gt;Node31 -->
<g id="edge72" class="edge">
<title>Node44&#45;&gt;Node31</title>
<path fill="none" stroke="#191970" d="M781.7303,-459.7533C785.0785,-450.5601 789.7948,-436.2861 792,-423.4516 799.4079,-380.3364 802.0108,-248.5758 802.7495,-198.2633"/>
<polygon fill="#191970" stroke="#191970" points="806.2517,-198.1163 802.8896,-188.0691 799.2524,-198.02 806.2517,-198.1163"/>
</g>
<!-- Node45 -->
<g id="node43" class="node">
<title>Node45</title>
<g id="a_node43"><a xlink:href="../../d8/dce/language_8h.xhtml" target="_top" xlink:title="../util/language.h">
<polygon fill="#ffffff" stroke="#000000" points="622.5,-398.4516 622.5,-417.4516 711.5,-417.4516 711.5,-398.4516 622.5,-398.4516"/>
<text text-anchor="middle" x="667" y="-405.4516" font-family="Helvetica,sans-Serif" font-size="10.00" fill="#000000">../util/language.h</text>
</a>
</g>
</g>
<!-- Node44&#45;&gt;Node45 -->
<g id="edge74" class="edge">
<title>Node44&#45;&gt;Node45</title>
<path fill="none" stroke="#191970" d="M760.6563,-459.8423C742.5727,-449.823 714.0141,-434 693.1835,-422.4587"/>
<polygon fill="#191970" stroke="#191970" points="694.6654,-419.2785 684.222,-417.4935 691.2729,-425.4015 694.6654,-419.2785"/>
</g>
<!-- Node46 -->
<g id="node44" class="node">
<title>Node46</title>
<g id="a_node44"><a xlink:href="../../dd/d5f/exctranslate_8h.xhtml" target="_top" xlink:title="exctranslate.h">
<polygon fill="#ffffff" stroke="#000000" points="1075,-398.4516 1075,-417.4516 1153,-417.4516 1153,-398.4516 1075,-398.4516"/>
<text text-anchor="middle" x="1114" y="-405.4516" font-family="Helvetica,sans-Serif" font-size="10.00" fill="#000000">exctranslate.h</text>
</a>
</g>
</g>
<!-- Node44&#45;&gt;Node46 -->
<g id="edge75" class="edge">
<title>Node44&#45;&gt;Node46</title>
<path fill="none" stroke="#191970" d="M811.7554,-463.2732C871.3516,-452.3649 995.4446,-429.6515 1064.6545,-416.9836"/>
<polygon fill="#191970" stroke="#191970" points="1065.6566,-420.3584 1074.863,-415.1151 1064.3963,-413.4728 1065.6566,-420.3584"/>
</g>
<!-- Node47 -->
<g id="node45" class="node">
<title>Node47</title>
<g id="a_node45"><a xlink:href="../../d7/df7/setup_8h.xhtml" target="_top" xlink:title="setup.h">
<polygon fill="#ffffff" stroke="#000000" points="675.5,-168.9516 675.5,-187.9516 724.5,-187.9516 724.5,-168.9516 675.5,-168.9516"/>
<text text-anchor="middle" x="700" y="-175.9516" font-family="Helvetica,sans-Serif" font-size="10.00" fill="#000000">setup.h</text>
</a>
</g>
</g>
<!-- Node44&#45;&gt;Node47 -->
<g id="edge77" class="edge">
<title>Node44&#45;&gt;Node47</title>
<path fill="none" stroke="#191970" d="M775.2956,-459.8842C771.0944,-445.2416 762.5864,-416.4459 754,-392.4516 730.0857,-325.624 707.5845,-314.1172 694,-244.4516 691.0066,-229.1004 692.884,-211.4425 695.3034,-198.2562"/>
<polygon fill="#191970" stroke="#191970" points="698.7476,-198.8849 697.3682,-188.3802 691.8957,-197.4523 698.7476,-198.8849"/>
</g>
<!-- Node46&#45;&gt;Node10 -->
<g id="edge76" class="edge">
<title>Node46&#45;&gt;Node10</title>
<path fill="none" stroke="#191970" d="M1126.1875,-398.3423C1138.437,-388.684 1157.5263,-373.6328 1171.9977,-362.2226"/>
<polygon fill="#191970" stroke="#191970" points="1174.2124,-364.9336 1179.8981,-355.9935 1169.8783,-359.4367 1174.2124,-364.9336"/>
</g>
<!-- Node47&#45;&gt;Node14 -->
<g id="edge79" class="edge">
<title>Node47&#45;&gt;Node14</title>
<path fill="none" stroke="#191970" d="M724.7439,-175.0071C791.4703,-165.6654 971.8584,-140.0426 998,-132.4516 1043.1214,-119.3492 1092.493,-95.8962 1122.0926,-80.7646"/>
<polygon fill="#191970" stroke="#191970" points="1123.7042,-83.8716 1130.9776,-76.1679 1120.4876,-77.6544 1123.7042,-83.8716"/>
</g>
<!-- Node47&#45;&gt;Node26 -->
<g id="edge78" class="edge">
<title>Node47&#45;&gt;Node26</title>
<path fill="none" stroke="#191970" d="M702.6128,-168.6972C704.5916,-161.3096 707.3744,-150.9205 709.8012,-141.8603"/>
<polygon fill="#191970" stroke="#191970" points="713.2105,-142.6594 712.4171,-132.0943 706.4489,-140.8482 713.2105,-142.6594"/>
</g>
<!-- Node48&#45;&gt;Node2 -->
<g id="edge83" class="edge">
<title>Node48&#45;&gt;Node2</title>
<path fill="none" stroke="#191970" d="M340.4843,-571.5899C344.5938,-558.6692 350.4553,-535.3184 347,-515.4516 333.4174,-437.3557 290,-425.7199 290,-346.4516 290,-346.4516 290,-346.4516 290,-234.4516 290,-196.9766 263.1023,-160.2788 244.7398,-139.5923"/>
<polygon fill="#191970" stroke="#191970" points="247.3118,-137.2185 237.9614,-132.2364 242.164,-141.9621 247.3118,-137.2185"/>
</g>
<!-- Node48&#45;&gt;Node4 -->
<g id="edge82" class="edge">
<title>Node48&#45;&gt;Node4</title>
<path fill="none" stroke="#191970" d="M343.4215,-571.612C349.0674,-562.5537 357.1239,-548.5725 362,-535.4516 437.8879,-331.2478 355.8375,-244.3942 466,-56.4516 472.9522,-44.5908 484.0323,-34.1674 494.1817,-26.2551"/>
<polygon fill="#191970" stroke="#191970" points="496.3982,-28.9695 502.3772,-20.2229 492.2488,-23.3319 496.3982,-28.9695"/>
</g>
<!-- Node48&#45;&gt;Node12 -->
<g id="edge81" class="edge">
<title>Node48&#45;&gt;Node12</title>
<path fill="none" stroke="#191970" d="M356.1518,-574.1574C359.0912,-573.1703 362.1093,-572.2309 365,-571.4516 712.86,-477.6777 837.563,-580.1065 1162,-423.4516 1202.851,-403.7267 1220.1978,-397.7355 1239,-356.4516 1272.3184,-283.2946 1252.3419,-183.4406 1241.5496,-141.858"/>
<polygon fill="#191970" stroke="#191970" points="1244.859,-140.689 1238.8609,-131.9556 1238.1036,-142.5233 1244.859,-140.689"/>
</g>
<!-- Node48&#45;&gt;Node42 -->
<g id="edge88" class="edge">
<title>Node48&#45;&gt;Node42</title>
<path fill="none" stroke="#191970" d="M326.5488,-571.6972C317.7731,-563.5066 305.0446,-551.6266 294.686,-541.9586"/>
<polygon fill="#191970" stroke="#191970" points="297.0301,-539.3588 287.3314,-535.0943 292.2539,-544.4762 297.0301,-539.3588"/>
</g>
<!-- Node49 -->
<g id="node47" class="node">
<title>Node49</title>
<g id="a_node47"><a xlink:href="../../d7/db5/filelike_8h.xhtml" target="_top" xlink:title="filelike/filelike.h">
<polygon fill="#ffffff" stroke="#000000" points="584.5,-112.9516 584.5,-131.9516 667.5,-131.9516 667.5,-112.9516 584.5,-112.9516"/>
<text text-anchor="middle" x="626" y="-119.9516" font-family="Helvetica,sans-Serif" font-size="10.00" fill="#000000">filelike/filelike.h</text>
</a>
</g>
</g>
<!-- Node48&#45;&gt;Node49 -->
<g id="edge84" class="edge">
<title>Node48&#45;&gt;Node49</title>
<path fill="none" stroke="#191970" d="M356.1832,-573.1308C377.7497,-563.3579 410.7173,-547.0146 418,-535.4516 451.9537,-481.5424 411.3538,-453.9493 428,-392.4516 449.7597,-312.0625 460.4627,-290.6474 511,-224.4516 538.0893,-188.969 578.878,-156.3063 603.8968,-137.9283"/>
<polygon fill="#191970" stroke="#191970" points="605.9859,-140.7369 612.0403,-132.0423 601.8854,-135.0636 605.9859,-140.7369"/>
</g>
<!-- Node49&#45;&gt;Node4 -->
<g id="edge86" class="edge">
<title>Node49&#45;&gt;Node4</title>
<path fill="none" stroke="#191970" d="M618.4338,-112.6792C608.0359,-99.4553 588.5074,-75.345 570,-56.4516 559.8523,-46.0923 547.7574,-35.31 537.787,-26.7904"/>
<polygon fill="#191970" stroke="#191970" points="539.9021,-23.9957 530.0009,-20.2251 535.3897,-29.3471 539.9021,-23.9957"/>
</g>
<!-- Node49&#45;&gt;Node11 -->
<g id="edge85" class="edge">
<title>Node49&#45;&gt;Node11</title>
<path fill="none" stroke="#191970" d="M652.3016,-112.8249C677.4128,-103.6339 715.4438,-89.714 743.2872,-79.523"/>
<polygon fill="#191970" stroke="#191970" points="744.8538,-82.6767 753.0416,-75.9528 742.4478,-76.1032 744.8538,-82.6767"/>
</g>
<!-- Node49&#45;&gt;Node14 -->
<g id="edge87" class="edge">
<title>Node49&#45;&gt;Node14</title>
<path fill="none" stroke="#191970" d="M667.6871,-113.7886C670.4951,-113.3056 673.2854,-112.8541 676,-112.4516 827.5151,-89.9906 1008.0279,-75.9151 1095.7979,-69.8752"/>
<polygon fill="#191970" stroke="#191970" points="1096.0406,-73.3669 1105.7797,-69.1956 1095.565,-66.3831 1096.0406,-73.3669"/>
</g>
<!-- Node52&#45;&gt;Node17 -->
<g id="edge95" class="edge">
<title>Node52&#45;&gt;Node17</title>
<path fill="none" stroke="#191970" d="M967.3484,-336.6972C967.6093,-329.3899 967.9752,-319.146 968.2963,-310.1562"/>
<polygon fill="#191970" stroke="#191970" points="971.7964,-310.2129 968.6556,-300.0943 964.8008,-309.963 971.7964,-310.2129"/>
</g>
<!-- Node52&#45;&gt;Node32 -->
<g id="edge94" class="edge">
<title>Node52&#45;&gt;Node32</title>
<path fill="none" stroke="#191970" d="M949.9433,-336.8286C937.6911,-328.853 922.1292,-316.2765 915,-300.4516 899.8866,-266.904 908.9091,-222.85 916.3105,-197.9004"/>
<polygon fill="#191970" stroke="#191970" points="919.7081,-198.7657 919.4064,-188.1752 913.0379,-196.6424 919.7081,-198.7657"/>
</g>
</g>
</svg>
