<?xml version="1.0" encoding="UTF-8" standalone="no"?>
<!DOCTYPE svg PUBLIC "-//W3C//DTD SVG 1.1//EN"
 "http://www.w3.org/Graphics/SVG/1.1/DTD/svg11.dtd">
<!-- Generated by graphviz version 2.40.1 (20161225.0304)
 -->
<!-- Title: /mnt/c/Users/Jameson/Desktop/git/openage&#45;new&#45;doc&#45;system/libopenage/log/message.h Pages: 1 -->
<svg width="730pt" height="341pt"
 viewBox="0.00 0.00 729.50 341.45" xmlns="http://www.w3.org/2000/svg" xmlns:xlink="http://www.w3.org/1999/xlink">
<g id="graph0" class="graph" transform="scale(1 1) rotate(0) translate(4 337.4516)">
<title>/mnt/c/Users/Jameson/Desktop/git/openage&#45;new&#45;doc&#45;system/libopenage/log/message.h</title>
<polygon fill="#ffffff" stroke="transparent" points="-4,4 -4,-337.4516 725.5,-337.4516 725.5,4 -4,4"/>
<!-- Node0 -->
<g id="node1" class="node">
<title>Node0</title>
<polygon fill="#bfbfbf" stroke="#000000" points="270.5,-280.9516 270.5,-332.9516 411.5,-332.9516 411.5,-280.9516 270.5,-280.9516"/>
<text text-anchor="start" x="278.5" y="-320.9516" font-family="Helvetica,sans-Serif" font-size="10.00" fill="#000000">/mnt/c/Users/Jameson</text>
<text text-anchor="start" x="278.5" y="-309.9516" font-family="Helvetica,sans-Serif" font-size="10.00" fill="#000000">/Desktop/git/openage</text>
<text text-anchor="start" x="278.5" y="-298.9516" font-family="Helvetica,sans-Serif" font-size="10.00" fill="#000000">&#45;new&#45;doc&#45;system/libopenage</text>
<text text-anchor="middle" x="341" y="-287.9516" font-family="Helvetica,sans-Serif" font-size="10.00" fill="#000000">/log/message.h</text>
</g>
<!-- Node1 -->
<g id="node2" class="node">
<title>Node1</title>
<polygon fill="#ffffff" stroke="#bfbfbf" points="168,-224.9516 168,-243.9516 214,-243.9516 214,-224.9516 168,-224.9516"/>
<text text-anchor="middle" x="191" y="-231.9516" font-family="Helvetica,sans-Serif" font-size="10.00" fill="#000000">cstdint</text>
</g>
<!-- Node0&#45;&gt;Node1 -->
<g id="edge1" class="edge">
<title>Node0&#45;&gt;Node1</title>
<path fill="none" stroke="#191970" d="M286.8466,-280.7775C264.1613,-269.8129 238.7121,-257.5125 219.7414,-248.3433"/>
<polygon fill="#191970" stroke="#191970" points="221.2521,-245.1862 210.7255,-243.9856 218.2059,-251.4886 221.2521,-245.1862"/>
</g>
<!-- Node2 -->
<g id="node3" class="node">
<title>Node2</title>
<polygon fill="#ffffff" stroke="#bfbfbf" points="414.5,-.9516 414.5,-19.9516 455.5,-19.9516 455.5,-.9516 414.5,-.9516"/>
<text text-anchor="middle" x="435" y="-7.9516" font-family="Helvetica,sans-Serif" font-size="10.00" fill="#000000">string</text>
</g>
<!-- Node0&#45;&gt;Node2 -->
<g id="edge2" class="edge">
<title>Node0&#45;&gt;Node2</title>
<path fill="none" stroke="#191970" d="M304.1361,-280.8304C275.989,-257.5512 242,-220.6948 242,-178.4516 242,-178.4516 242,-178.4516 242,-122.4516 242,-91.927 239.0208,-77.6334 261,-56.4516 306.5706,-12.5342 339.1547,-36.7468 404.5808,-20.486"/>
<polygon fill="#191970" stroke="#191970" points="405.7546,-23.7936 414.4776,-17.7803 403.9085,-17.0414 405.7546,-23.7936"/>
</g>
<!-- Node3 -->
<g id="node4" class="node">
<title>Node3</title>
<polygon fill="#ffffff" stroke="#bfbfbf" points="443.5,-224.9516 443.5,-243.9516 494.5,-243.9516 494.5,-224.9516 443.5,-224.9516"/>
<text text-anchor="middle" x="469" y="-231.9516" font-family="Helvetica,sans-Serif" font-size="10.00" fill="#000000">config.h</text>
</g>
<!-- Node0&#45;&gt;Node3 -->
<g id="edge3" class="edge">
<title>Node0&#45;&gt;Node3</title>
<path fill="none" stroke="#191970" d="M387.2109,-280.7775C406.127,-270.0633 427.2953,-258.0734 443.3566,-248.9762"/>
<polygon fill="#191970" stroke="#191970" points="445.1913,-251.9595 452.1676,-243.9856 441.7414,-245.8687 445.1913,-251.9595"/>
</g>
<!-- Node4 -->
<g id="node5" class="node">
<title>Node4</title>
<g id="a_node5"><a xlink:href="../../d1/d06/constexpr_8h.xhtml" target="_top" xlink:title="../util/constexpr.h">
<polygon fill="#ffffff" stroke="#000000" points="513,-224.9516 513,-243.9516 605,-243.9516 605,-224.9516 513,-224.9516"/>
<text text-anchor="middle" x="559" y="-231.9516" font-family="Helvetica,sans-Serif" font-size="10.00" fill="#000000">../util/constexpr.h</text>
</a>
</g>
</g>
<!-- Node0&#45;&gt;Node4 -->
<g id="edge4" class="edge">
<title>Node0&#45;&gt;Node4</title>
<path fill="none" stroke="#191970" d="M411.7784,-283.413C447.9687,-271.3772 490.5955,-257.2008 520.6419,-247.2084"/>
<polygon fill="#191970" stroke="#191970" points="521.9372,-250.4661 530.3217,-243.9891 519.7282,-243.8238 521.9372,-250.4661"/>
</g>
<!-- Node6 -->
<g id="node7" class="node">
<title>Node6</title>
<g id="a_node7"><a xlink:href="../../de/d65/stringformatter_8h.xhtml" target="_top" xlink:title="../util/stringformatter.h">
<polygon fill="#ffffff" stroke="#000000" points="270.5,-112.9516 270.5,-131.9516 383.5,-131.9516 383.5,-112.9516 270.5,-112.9516"/>
<text text-anchor="middle" x="327" y="-119.9516" font-family="Helvetica,sans-Serif" font-size="10.00" fill="#000000">../util/stringformatter.h</text>
</a>
</g>
</g>
<!-- Node0&#45;&gt;Node6 -->
<g id="edge6" class="edge">
<title>Node0&#45;&gt;Node6</title>
<path fill="none" stroke="#191970" d="M334.3938,-280.7812C328.0968,-253.0241 319.866,-207.8332 322,-168.4516 322.4662,-159.8487 323.4193,-150.3804 324.3696,-142.2817"/>
<polygon fill="#191970" stroke="#191970" points="327.8502,-142.6539 325.6176,-132.297 320.9043,-141.7856 327.8502,-142.6539"/>
</g>
<!-- Node21 -->
<g id="node22" class="node">
<title>Node21</title>
<g id="a_node22"><a xlink:href="../../d3/d4e/logsink_8h.xhtml" target="_top" xlink:title="logsink.h">
<polygon fill="#ffffff" stroke="#000000" points="369,-224.9516 369,-243.9516 425,-243.9516 425,-224.9516 369,-224.9516"/>
<text text-anchor="middle" x="397" y="-231.9516" font-family="Helvetica,sans-Serif" font-size="10.00" fill="#000000">logsink.h</text>
</a>
</g>
</g>
<!-- Node0&#45;&gt;Node21 -->
<g id="edge26" class="edge">
<title>Node0&#45;&gt;Node21</title>
<path fill="none" stroke="#191970" d="M361.2173,-280.7775C368.565,-271.2649 376.6893,-260.7467 383.3371,-252.1402"/>
<polygon fill="#191970" stroke="#191970" points="386.2928,-254.0392 389.6358,-243.9856 380.7529,-249.7602 386.2928,-254.0392"/>
</g>
<!-- Node24 -->
<g id="node25" class="node">
<title>Node24</title>
<g id="a_node25"><a xlink:href="../../de/d09/level_8h.xhtml" target="_top" xlink:title="level.h">
<polygon fill="#ffffff" stroke="#000000" points="331.5,-168.9516 331.5,-187.9516 376.5,-187.9516 376.5,-168.9516 331.5,-168.9516"/>
<text text-anchor="middle" x="354" y="-175.9516" font-family="Helvetica,sans-Serif" font-size="10.00" fill="#000000">level.h</text>
</a>
</g>
</g>
<!-- Node0&#45;&gt;Node24 -->
<g id="edge34" class="edge">
<title>Node0&#45;&gt;Node24</title>
<path fill="none" stroke="#191970" d="M343.6307,-280.9477C346.1074,-256.4672 349.7623,-220.3397 352.0063,-198.1584"/>
<polygon fill="#191970" stroke="#191970" points="355.5131,-198.2673 353.0375,-187.9658 348.5486,-197.5627 355.5131,-198.2673"/>
</g>
<!-- Node5 -->
<g id="node6" class="node">
<title>Node5</title>
<polygon fill="#ffffff" stroke="#bfbfbf" points="536.5,-168.9516 536.5,-187.9516 581.5,-187.9516 581.5,-168.9516 536.5,-168.9516"/>
<text text-anchor="middle" x="559" y="-175.9516" font-family="Helvetica,sans-Serif" font-size="10.00" fill="#000000">cstdlib</text>
</g>
<!-- Node4&#45;&gt;Node5 -->
<g id="edge5" class="edge">
<title>Node4&#45;&gt;Node5</title>
<path fill="none" stroke="#191970" d="M559,-224.6972C559,-217.3899 559,-207.146 559,-198.1562"/>
<polygon fill="#191970" stroke="#191970" points="562.5001,-198.0943 559,-188.0943 555.5001,-198.0943 562.5001,-198.0943"/>
</g>
<!-- Node7 -->
<g id="node8" class="node">
<title>Node7</title>
<polygon fill="#ffffff" stroke="#bfbfbf" points="350,-56.9516 350,-75.9516 396,-75.9516 396,-56.9516 350,-56.9516"/>
<text text-anchor="middle" x="373" y="-63.9516" font-family="Helvetica,sans-Serif" font-size="10.00" fill="#000000">atomic</text>
</g>
<!-- Node6&#45;&gt;Node7 -->
<g id="edge7" class="edge">
<title>Node6&#45;&gt;Node7</title>
<path fill="none" stroke="#191970" d="M335.0126,-112.6972C341.4768,-104.8278 350.7385,-93.5526 358.4983,-84.1058"/>
<polygon fill="#191970" stroke="#191970" points="361.4364,-86.0432 365.0792,-76.0943 356.0273,-81.6 361.4364,-86.0432"/>
</g>
<!-- Node8 -->
<g id="node9" class="node">
<title>Node8</title>
<polygon fill="#ffffff" stroke="#bfbfbf" points="0,-.9516 0,-19.9516 52,-19.9516 52,-.9516 0,-.9516"/>
<text text-anchor="middle" x="26" y="-7.9516" font-family="Helvetica,sans-Serif" font-size="10.00" fill="#000000">memory</text>
</g>
<!-- Node6&#45;&gt;Node8 -->
<g id="edge8" class="edge">
<title>Node6&#45;&gt;Node8</title>
<path fill="none" stroke="#191970" d="M278.247,-112.8757C242.3793,-105.075 192.7998,-92.6989 151,-76.4516 114.2889,-62.1823 74.4776,-39.8636 49.8826,-25.197"/>
<polygon fill="#191970" stroke="#191970" points="51.6102,-22.1516 41.2396,-19.9832 47.9945,-28.1455 51.6102,-22.1516"/>
</g>
<!-- Node9 -->
<g id="node10" class="node">
<title>Node9</title>
<polygon fill="#ffffff" stroke="#bfbfbf" points="270,-56.9516 270,-75.9516 332,-75.9516 332,-56.9516 270,-56.9516"/>
<text text-anchor="middle" x="301" y="-63.9516" font-family="Helvetica,sans-Serif" font-size="10.00" fill="#000000">type_traits</text>
</g>
<!-- Node6&#45;&gt;Node9 -->
<g id="edge9" class="edge">
<title>Node6&#45;&gt;Node9</title>
<path fill="none" stroke="#191970" d="M322.4711,-112.6972C318.9666,-105.149 314.0073,-94.4674 309.7377,-85.2714"/>
<polygon fill="#191970" stroke="#191970" points="312.8627,-83.6905 305.477,-76.0943 306.5136,-86.6383 312.8627,-83.6905"/>
</g>
<!-- Node10 -->
<g id="node11" class="node">
<title>Node10</title>
<g id="a_node11"><a xlink:href="../../d4/dd1/compiler_8h.xhtml" target="_top" xlink:title="../util/compiler.h">
<polygon fill="#ffffff" stroke="#000000" points="528,-56.9516 528,-75.9516 614,-75.9516 614,-56.9516 528,-56.9516"/>
<text text-anchor="middle" x="571" y="-63.9516" font-family="Helvetica,sans-Serif" font-size="10.00" fill="#000000">../util/compiler.h</text>
</a>
</g>
</g>
<!-- Node6&#45;&gt;Node10 -->
<g id="edge10" class="edge">
<title>Node6&#45;&gt;Node10</title>
<path fill="none" stroke="#191970" d="M368.6679,-112.8885C410.4266,-103.3046 474.7891,-88.5328 519.6728,-78.2317"/>
<polygon fill="#191970" stroke="#191970" points="520.5404,-81.6236 529.504,-75.9753 518.9745,-74.801 520.5404,-81.6236"/>
</g>
<!-- Node13 -->
<g id="node14" class="node">
<title>Node13</title>
<g id="a_node14"><a xlink:href="../../dc/dcf/externalsstream_8h.xhtml" target="_top" xlink:title="externalsstream.h">
<polygon fill="#ffffff" stroke="#000000" points="414.5,-56.9516 414.5,-75.9516 509.5,-75.9516 509.5,-56.9516 414.5,-56.9516"/>
<text text-anchor="middle" x="462" y="-63.9516" font-family="Helvetica,sans-Serif" font-size="10.00" fill="#000000">externalsstream.h</text>
</a>
</g>
</g>
<!-- Node6&#45;&gt;Node13 -->
<g id="edge15" class="edge">
<title>Node6&#45;&gt;Node13</title>
<path fill="none" stroke="#191970" d="M350.2073,-112.8249C372.1699,-103.7145 405.3332,-89.9579 429.8401,-79.792"/>
<polygon fill="#191970" stroke="#191970" points="431.1997,-83.0173 439.0955,-75.9528 428.5176,-76.5515 431.1997,-83.0173"/>
</g>
<!-- Node15 -->
<g id="node16" class="node">
<title>Node15</title>
<g id="a_node16"><a xlink:href="../../d6/d90/strings_8h.xhtml" target="_top" xlink:title="strings.h">
<polygon fill="#ffffff" stroke="#000000" points="160,-56.9516 160,-75.9516 214,-75.9516 214,-56.9516 160,-56.9516"/>
<text text-anchor="middle" x="187" y="-63.9516" font-family="Helvetica,sans-Serif" font-size="10.00" fill="#000000">strings.h</text>
</a>
</g>
</g>
<!-- Node6&#45;&gt;Node15 -->
<g id="edge18" class="edge">
<title>Node6&#45;&gt;Node15</title>
<path fill="none" stroke="#191970" d="M302.9331,-112.8249C280.1572,-103.7145 245.7656,-89.9579 220.351,-79.792"/>
<polygon fill="#191970" stroke="#191970" points="221.3375,-76.4171 210.7528,-75.9528 218.7377,-82.9164 221.3375,-76.4171"/>
</g>
<!-- Node10&#45;&gt;Node2 -->
<g id="edge12" class="edge">
<title>Node10&#45;&gt;Node2</title>
<path fill="none" stroke="#191970" d="M547.6208,-56.8249C524.8251,-47.4384 490.0514,-33.1199 465.1783,-22.878"/>
<polygon fill="#191970" stroke="#191970" points="466.427,-19.6071 455.8475,-19.0359 463.7617,-26.0798 466.427,-19.6071"/>
</g>
<!-- Node11 -->
<g id="node12" class="node">
<title>Node11</title>
<polygon fill="#ffffff" stroke="#bfbfbf" points="632,-.9516 632,-19.9516 682,-19.9516 682,-.9516 632,-.9516"/>
<text text-anchor="middle" x="657" y="-7.9516" font-family="Helvetica,sans-Serif" font-size="10.00" fill="#000000">ciso646</text>
</g>
<!-- Node10&#45;&gt;Node11 -->
<g id="edge11" class="edge">
<title>Node10&#45;&gt;Node11</title>
<path fill="none" stroke="#191970" d="M585.9801,-56.6972C599.1751,-48.1051 618.6051,-35.453 633.8079,-25.5534"/>
<polygon fill="#191970" stroke="#191970" points="635.7215,-28.4841 642.1916,-20.0943 631.9017,-22.6181 635.7215,-28.4841"/>
</g>
<!-- Node12 -->
<g id="node13" class="node">
<title>Node12</title>
<g id="a_node13"><a xlink:href="../../d8/d39/signal_8h.xhtml" target="_top" xlink:title="signal.h">
<polygon fill="#ffffff" stroke="#000000" points="546,-.9516 546,-19.9516 596,-19.9516 596,-.9516 546,-.9516"/>
<text text-anchor="middle" x="571" y="-7.9516" font-family="Helvetica,sans-Serif" font-size="10.00" fill="#000000">signal.h</text>
</a>
</g>
</g>
<!-- Node10&#45;&gt;Node12 -->
<g id="edge13" class="edge">
<title>Node10&#45;&gt;Node12</title>
<path fill="none" stroke="#191970" d="M571,-56.6972C571,-49.3899 571,-39.146 571,-30.1562"/>
<polygon fill="#191970" stroke="#191970" points="574.5001,-30.0943 571,-20.0943 567.5001,-30.0943 574.5001,-30.0943"/>
</g>
<!-- Node12&#45;&gt;Node12 -->
<g id="edge14" class="edge">
<title>Node12&#45;&gt;Node12</title>
<path fill="none" stroke="#191970" d="M589.5634,-20.0262C601.9465,-22.7213 614,-19.5298 614,-10.4516 614,-3.9267 607.7731,-.4429 599.6726,0"/>
<polygon fill="#191970" stroke="#191970" points="599.2234,3.4743 589.5634,-.877 599.8285,-3.4995 599.2234,3.4743"/>
</g>
<!-- Node13&#45;&gt;Node2 -->
<g id="edge17" class="edge">
<title>Node13&#45;&gt;Node2</title>
<path fill="none" stroke="#191970" d="M457.297,-56.6972C453.6576,-49.149 448.5076,-38.4674 444.0738,-29.2714"/>
<polygon fill="#191970" stroke="#191970" points="447.1449,-27.5819 439.6491,-20.0943 440.8395,-30.6221 447.1449,-27.5819"/>
</g>
<!-- Node14 -->
<g id="node15" class="node">
<title>Node14</title>
<polygon fill="#ffffff" stroke="#bfbfbf" points="474,-.9516 474,-19.9516 528,-19.9516 528,-.9516 474,-.9516"/>
<text text-anchor="middle" x="501" y="-7.9516" font-family="Helvetica,sans-Serif" font-size="10.00" fill="#000000">iostream</text>
</g>
<!-- Node13&#45;&gt;Node14 -->
<g id="edge16" class="edge">
<title>Node13&#45;&gt;Node14</title>
<path fill="none" stroke="#191970" d="M468.7933,-56.6972C474.2178,-48.9081 481.9661,-37.7824 488.5033,-28.3956"/>
<polygon fill="#191970" stroke="#191970" points="491.4417,-30.3006 494.2846,-20.0943 485.6975,-26.3001 491.4417,-30.3006"/>
</g>
<!-- Node15&#45;&gt;Node2 -->
<g id="edge24" class="edge">
<title>Node15&#45;&gt;Node2</title>
<path fill="none" stroke="#191970" d="M214.3118,-59.6304C218.8754,-58.5366 223.5663,-57.4403 228,-56.4516 303.7009,-39.5716 326.3666,-41.4687 404.3963,-20.6499"/>
<polygon fill="#191970" stroke="#191970" points="405.457,-23.9888 414.1939,-17.9956 403.6266,-17.2323 405.457,-23.9888"/>
</g>
<!-- Node15&#45;&gt;Node8 -->
<g id="edge22" class="edge">
<title>Node15&#45;&gt;Node8</title>
<path fill="none" stroke="#191970" d="M159.6885,-56.952C132.6865,-47.56 91.2328,-33.1413 61.6491,-22.8513"/>
<polygon fill="#191970" stroke="#191970" points="62.7042,-19.5127 52.1094,-19.5332 60.4045,-26.1242 62.7042,-19.5127"/>
</g>
<!-- Node16 -->
<g id="node17" class="node">
<title>Node16</title>
<polygon fill="#ffffff" stroke="#bfbfbf" points="270.5,-.9516 270.5,-19.9516 319.5,-19.9516 319.5,-.9516 270.5,-.9516"/>
<text text-anchor="middle" x="295" y="-7.9516" font-family="Helvetica,sans-Serif" font-size="10.00" fill="#000000">cstdarg</text>
</g>
<!-- Node15&#45;&gt;Node16 -->
<g id="edge19" class="edge">
<title>Node15&#45;&gt;Node16</title>
<path fill="none" stroke="#191970" d="M205.8122,-56.6972C222.8473,-47.8642 248.1575,-34.7403 267.4681,-24.7274"/>
<polygon fill="#191970" stroke="#191970" points="269.137,-27.8047 276.4034,-20.0943 265.9147,-21.5904 269.137,-27.8047"/>
</g>
<!-- Node17 -->
<g id="node18" class="node">
<title>Node17</title>
<polygon fill="#ffffff" stroke="#bfbfbf" points="337.5,-.9516 337.5,-19.9516 396.5,-19.9516 396.5,-.9516 337.5,-.9516"/>
<text text-anchor="middle" x="367" y="-7.9516" font-family="Helvetica,sans-Serif" font-size="10.00" fill="#000000">functional</text>
</g>
<!-- Node15&#45;&gt;Node17 -->
<g id="edge20" class="edge">
<title>Node15&#45;&gt;Node17</title>
<path fill="none" stroke="#191970" d="M214.3381,-57.9464C244.5038,-48.5615 293.3146,-33.376 327.6051,-22.7078"/>
<polygon fill="#191970" stroke="#191970" points="328.7946,-26.0033 337.3035,-19.6906 326.7151,-19.3193 328.7946,-26.0033"/>
</g>
<!-- Node18 -->
<g id="node19" class="node">
<title>Node18</title>
<polygon fill="#ffffff" stroke="#bfbfbf" points="70,-.9516 70,-19.9516 120,-19.9516 120,-.9516 70,-.9516"/>
<text text-anchor="middle" x="95" y="-7.9516" font-family="Helvetica,sans-Serif" font-size="10.00" fill="#000000">iomanip</text>
</g>
<!-- Node15&#45;&gt;Node18 -->
<g id="edge21" class="edge">
<title>Node15&#45;&gt;Node18</title>
<path fill="none" stroke="#191970" d="M170.9748,-56.6972C156.8592,-48.1051 136.0737,-35.453 119.8101,-25.5534"/>
<polygon fill="#191970" stroke="#191970" points="121.2034,-22.3041 110.8415,-20.0943 117.5637,-28.2835 121.2034,-22.3041"/>
</g>
<!-- Node19 -->
<g id="node20" class="node">
<title>Node19</title>
<polygon fill="#ffffff" stroke="#bfbfbf" points="138,-.9516 138,-19.9516 190,-19.9516 190,-.9516 138,-.9516"/>
<text text-anchor="middle" x="164" y="-7.9516" font-family="Helvetica,sans-Serif" font-size="10.00" fill="#000000">sstream</text>
</g>
<!-- Node15&#45;&gt;Node19 -->
<g id="edge23" class="edge">
<title>Node15&#45;&gt;Node19</title>
<path fill="none" stroke="#191970" d="M182.9937,-56.6972C179.9265,-49.2293 175.5997,-38.6943 171.8503,-29.5653"/>
<polygon fill="#191970" stroke="#191970" points="174.9972,-28.0148 167.9604,-20.0943 168.5221,-30.6742 174.9972,-28.0148"/>
</g>
<!-- Node20 -->
<g id="node21" class="node">
<title>Node20</title>
<polygon fill="#ffffff" stroke="#bfbfbf" points="208,-.9516 208,-19.9516 252,-19.9516 252,-.9516 208,-.9516"/>
<text text-anchor="middle" x="230" y="-7.9516" font-family="Helvetica,sans-Serif" font-size="10.00" fill="#000000">vector</text>
</g>
<!-- Node15&#45;&gt;Node20 -->
<g id="edge25" class="edge">
<title>Node15&#45;&gt;Node20</title>
<path fill="none" stroke="#191970" d="M194.49,-56.6972C200.5326,-48.8278 209.1903,-37.5526 216.4441,-28.1058"/>
<polygon fill="#191970" stroke="#191970" points="219.2815,-30.1574 222.5958,-20.0943 213.7295,-25.8942 219.2815,-30.1574"/>
</g>
<!-- Node22 -->
<g id="node23" class="node">
<title>Node22</title>
<polygon fill="#ffffff" stroke="#bfbfbf" points="394.5,-168.9516 394.5,-187.9516 423.5,-187.9516 423.5,-168.9516 394.5,-168.9516"/>
<text text-anchor="middle" x="409" y="-175.9516" font-family="Helvetica,sans-Serif" font-size="10.00" fill="#000000">list</text>
</g>
<!-- Node21&#45;&gt;Node22 -->
<g id="edge27" class="edge">
<title>Node21&#45;&gt;Node22</title>
<path fill="none" stroke="#191970" d="M399.0902,-224.6972C400.6561,-217.3899 402.8512,-207.146 404.7776,-198.1562"/>
<polygon fill="#191970" stroke="#191970" points="408.2607,-198.6057 406.9337,-188.0943 401.416,-197.139 408.2607,-198.6057"/>
</g>
<!-- Node23 -->
<g id="node24" class="node">
<title>Node23</title>
<polygon fill="#ffffff" stroke="#bfbfbf" points="442,-168.9516 442,-187.9516 486,-187.9516 486,-168.9516 442,-168.9516"/>
<text text-anchor="middle" x="464" y="-175.9516" font-family="Helvetica,sans-Serif" font-size="10.00" fill="#000000">mutex</text>
</g>
<!-- Node21&#45;&gt;Node23 -->
<g id="edge28" class="edge">
<title>Node21&#45;&gt;Node23</title>
<path fill="none" stroke="#191970" d="M408.6705,-224.6972C418.5661,-216.4263 432.9627,-204.3933 444.5901,-194.6749"/>
<polygon fill="#191970" stroke="#191970" points="447.035,-197.1929 452.4632,-188.0943 442.5458,-191.8219 447.035,-197.1929"/>
</g>
<!-- Node21&#45;&gt;Node24 -->
<g id="edge29" class="edge">
<title>Node21&#45;&gt;Node24</title>
<path fill="none" stroke="#191970" d="M389.51,-224.6972C383.4674,-216.8278 374.8097,-205.5526 367.5559,-196.1058"/>
<polygon fill="#191970" stroke="#191970" points="370.2705,-193.8942 361.4042,-188.0943 364.7185,-198.1574 370.2705,-193.8942"/>
</g>
<!-- Node25 -->
<g id="node26" class="node">
<title>Node25</title>
<g id="a_node26"><a xlink:href="../../d0/d9b/enum_8h.xhtml" target="_top" xlink:title="../util/enum.h">
<polygon fill="#ffffff" stroke="#000000" points="569,-112.9516 569,-131.9516 643,-131.9516 643,-112.9516 569,-112.9516"/>
<text text-anchor="middle" x="606" y="-119.9516" font-family="Helvetica,sans-Serif" font-size="10.00" fill="#000000">../util/enum.h</text>
</a>
</g>
</g>
<!-- Node24&#45;&gt;Node25 -->
<g id="edge30" class="edge">
<title>Node24&#45;&gt;Node25</title>
<path fill="none" stroke="#191970" d="M376.6475,-171.0768C379.7758,-170.1454 382.9582,-169.2429 386,-168.4516 445.0332,-153.0945 514.0038,-139.3402 558.7634,-130.9577"/>
<polygon fill="#191970" stroke="#191970" points="559.5742,-134.367 568.7661,-129.0983 558.2949,-127.4849 559.5742,-134.367"/>
</g>
<!-- Node25&#45;&gt;Node10 -->
<g id="edge33" class="edge">
<title>Node25&#45;&gt;Node10</title>
<path fill="none" stroke="#191970" d="M599.9035,-112.6972C595.0855,-104.9884 588.2249,-94.0114 582.3968,-84.6864"/>
<polygon fill="#191970" stroke="#191970" points="585.2947,-82.7193 577.0267,-76.0943 579.3587,-86.4293 585.2947,-82.7193"/>
</g>
<!-- Node25&#45;&gt;Node14 -->
<g id="edge31" class="edge">
<title>Node25&#45;&gt;Node14</title>
<path fill="none" stroke="#191970" d="M613.1096,-112.6283C622.0821,-98.9154 634.981,-73.7734 623,-56.4516 617.8726,-49.0386 571.8988,-33.0432 537.8908,-22.0145"/>
<polygon fill="#191970" stroke="#191970" points="538.8117,-18.6343 528.2203,-18.9068 536.6699,-25.2986 538.8117,-18.6343"/>
</g>
<!-- Node26 -->
<g id="node27" class="node">
<title>Node26</title>
<polygon fill="#ffffff" stroke="#bfbfbf" points="670.5,-56.9516 670.5,-75.9516 721.5,-75.9516 721.5,-56.9516 670.5,-56.9516"/>
<text text-anchor="middle" x="696" y="-63.9516" font-family="Helvetica,sans-Serif" font-size="10.00" fill="#000000">typeinfo</text>
</g>
<!-- Node25&#45;&gt;Node26 -->
<g id="edge32" class="edge">
<title>Node25&#45;&gt;Node26</title>
<path fill="none" stroke="#191970" d="M621.6768,-112.6972C635.4856,-104.1051 655.8193,-91.453 671.7292,-81.5534"/>
<polygon fill="#191970" stroke="#191970" points="673.8613,-84.3491 680.5028,-76.0943 670.1632,-78.4057 673.8613,-84.3491"/>
</g>
</g>
</svg>
