<?xml version="1.0" encoding="UTF-8" standalone="no"?>
<!DOCTYPE svg PUBLIC "-//W3C//DTD SVG 1.1//EN"
 "http://www.w3.org/Graphics/SVG/1.1/DTD/svg11.dtd">
<!-- Generated by graphviz version 2.40.1 (20161225.0304)
 -->
<!-- Title: openage::AssetManager::get_engine Pages: 1 -->
<svg width="836pt" height="137pt"
 viewBox="0.00 0.00 836.00 137.00" xmlns="http://www.w3.org/2000/svg" xmlns:xlink="http://www.w3.org/1999/xlink">
<g id="graph0" class="graph" transform="scale(1 1) rotate(0) translate(4 133)">
<title>openage::AssetManager::get_engine</title>
<polygon fill="#ffffff" stroke="transparent" points="-4,4 -4,-133 832,-133 832,4 -4,4"/>
<!-- Node30 -->
<g id="node1" class="node">
<title>Node30</title>
<polygon fill="#bfbfbf" stroke="#000000" points="0,-73.5 0,-103.5 122,-103.5 122,-73.5 0,-73.5"/>
<text text-anchor="start" x="8" y="-91.5" font-family="Helvetica,sans-Serif" font-size="10.00" fill="#000000">openage::AssetManager</text>
<text text-anchor="middle" x="61" y="-80.5" font-family="Helvetica,sans-Serif" font-size="10.00" fill="#000000">::get_engine</text>
</g>
<!-- Node31 -->
<g id="node2" class="node">
<title>Node31</title>
<g id="a_node2"><a xlink:href="../../de/d6a/classopenage_1_1_game_spec.xhtml#a979c8104ad4832b1912e703f19558bc9" target="_top" xlink:title="Invoked when the gamedata has been loaded. ">
<polygon fill="#ffffff" stroke="#000000" points="170.5,-98.5 170.5,-128.5 284.5,-128.5 284.5,-98.5 170.5,-98.5"/>
<text text-anchor="start" x="178.5" y="-116.5" font-family="Helvetica,sans-Serif" font-size="10.00" fill="#000000">openage::GameSpec::</text>
<text text-anchor="middle" x="227.5" y="-105.5" font-family="Helvetica,sans-Serif" font-size="10.00" fill="#000000">on_gamedata_loaded</text>
</a>
</g>
</g>
<!-- Node30&#45;&gt;Node31 -->
<g id="edge1" class="edge">
<title>Node30&#45;&gt;Node31</title>
<path fill="none" stroke="#191970" d="M132.1671,-99.1858C144.911,-101.0992 158.0407,-103.0707 170.3276,-104.9155"/>
<polygon fill="#191970" stroke="#191970" points="132.4619,-95.6909 122.053,-97.6671 131.4224,-102.6133 132.4619,-95.6909"/>
</g>
<!-- Node33 -->
<g id="node4" class="node">
<title>Node33</title>
<g id="a_node4"><a xlink:href="../../d7/de7/classopenage_1_1_game_spec_handle.xhtml#afcf8867f4e0077e6a8a2a6fe6c0c98ff" target="_top" xlink:title="Actually dispatch the loading job to the job manager. ">
<polygon fill="#ffffff" stroke="#000000" points="158,-49.5 158,-79.5 297,-79.5 297,-49.5 158,-49.5"/>
<text text-anchor="start" x="166" y="-67.5" font-family="Helvetica,sans-Serif" font-size="10.00" fill="#000000">openage::GameSpecHandle</text>
<text text-anchor="middle" x="227.5" y="-56.5" font-family="Helvetica,sans-Serif" font-size="10.00" fill="#000000">::start_load_job</text>
</a>
</g>
</g>
<!-- Node30&#45;&gt;Node33 -->
<g id="edge3" class="edge">
<title>Node30&#45;&gt;Node33</title>
<path fill="none" stroke="#191970" d="M131.9667,-78.2706C140.4995,-77.0406 149.2083,-75.7853 157.7238,-74.5578"/>
<polygon fill="#191970" stroke="#191970" points="131.4513,-74.8086 122.053,-79.6996 132.4501,-81.737 131.4513,-74.8086"/>
</g>
<!-- Node32 -->
<g id="node3" class="node">
<title>Node32</title>
<g id="a_node3"><a xlink:href="../../de/d6a/classopenage_1_1_game_spec.xhtml#a4de64c8c4a5463dc086f082659147b02" target="_top" xlink:title="perform the main loading job. ">
<polygon fill="#ffffff" stroke="#000000" points="345.5,-98.5 345.5,-128.5 459.5,-128.5 459.5,-98.5 345.5,-98.5"/>
<text text-anchor="start" x="353.5" y="-116.5" font-family="Helvetica,sans-Serif" font-size="10.00" fill="#000000">openage::GameSpec::</text>
<text text-anchor="middle" x="402.5" y="-105.5" font-family="Helvetica,sans-Serif" font-size="10.00" fill="#000000">initialize</text>
</a>
</g>
</g>
<!-- Node31&#45;&gt;Node32 -->
<g id="edge2" class="edge">
<title>Node31&#45;&gt;Node32</title>
<path fill="none" stroke="#191970" d="M295.0021,-113.5C311.6331,-113.5 329.2826,-113.5 345.3687,-113.5"/>
<polygon fill="#191970" stroke="#191970" points="294.8016,-110.0001 284.8015,-113.5 294.8015,-117.0001 294.8016,-110.0001"/>
</g>
<!-- Node34 -->
<g id="node5" class="node">
<title>Node34</title>
<g id="a_node5"><a xlink:href="../../d7/de7/classopenage_1_1_game_spec_handle.xhtml#ab95bd8daf4250f175a5ebb3c6753277d" target="_top" xlink:title="load the game specification if not already present. ">
<polygon fill="#ffffff" stroke="#000000" points="333,-49.5 333,-79.5 472,-79.5 472,-49.5 333,-49.5"/>
<text text-anchor="start" x="341" y="-67.5" font-family="Helvetica,sans-Serif" font-size="10.00" fill="#000000">openage::GameSpecHandle</text>
<text text-anchor="middle" x="402.5" y="-56.5" font-family="Helvetica,sans-Serif" font-size="10.00" fill="#000000">::start_loading_if_needed</text>
</a>
</g>
</g>
<!-- Node33&#45;&gt;Node34 -->
<g id="edge4" class="edge">
<title>Node33&#45;&gt;Node34</title>
<path fill="none" stroke="#191970" d="M307.4246,-64.5C315.8899,-64.5 324.4506,-64.5 332.7863,-64.5"/>
<polygon fill="#191970" stroke="#191970" points="307.1675,-61.0001 297.1675,-64.5 307.1674,-68.0001 307.1675,-61.0001"/>
</g>
<!-- Node35 -->
<g id="node6" class="node">
<title>Node35</title>
<g id="a_node6"><a xlink:href="../../d7/de7/classopenage_1_1_game_spec_handle.xhtml#ab7fe02e9268aff99041da5e2684d2e4d" target="_top" xlink:title="Control whether this specification can be loaded (=true) or will not be loaded (=false). ">
<polygon fill="#ffffff" stroke="#000000" points="508,-98.5 508,-128.5 647,-128.5 647,-98.5 508,-98.5"/>
<text text-anchor="start" x="516" y="-116.5" font-family="Helvetica,sans-Serif" font-size="10.00" fill="#000000">openage::GameSpecHandle</text>
<text text-anchor="middle" x="577.5" y="-105.5" font-family="Helvetica,sans-Serif" font-size="10.00" fill="#000000">::set_active</text>
</a>
</g>
</g>
<!-- Node34&#45;&gt;Node35 -->
<g id="edge5" class="edge">
<title>Node34&#45;&gt;Node35</title>
<path fill="none" stroke="#191970" d="M466.1473,-82.3212C485.042,-87.6118 505.5434,-93.3522 523.7444,-98.4484"/>
<polygon fill="#191970" stroke="#191970" points="467.0071,-78.9274 456.4337,-79.6014 465.1196,-85.6682 467.0071,-78.9274"/>
</g>
<!-- Node37 -->
<g id="node8" class="node">
<title>Node37</title>
<g id="a_node8"><a xlink:href="../../d7/de7/classopenage_1_1_game_spec_handle.xhtml#ad9c03812749a8ac9b21960e0f5bb462e" target="_top" xlink:title="invoked from qml when the asset_manager member is set. ">
<polygon fill="#ffffff" stroke="#000000" points="508,-49.5 508,-79.5 647,-79.5 647,-49.5 508,-49.5"/>
<text text-anchor="start" x="516" y="-67.5" font-family="Helvetica,sans-Serif" font-size="10.00" fill="#000000">openage::GameSpecHandle</text>
<text text-anchor="middle" x="577.5" y="-56.5" font-family="Helvetica,sans-Serif" font-size="10.00" fill="#000000">::set_asset_manager</text>
</a>
</g>
</g>
<!-- Node34&#45;&gt;Node37 -->
<g id="edge7" class="edge">
<title>Node34&#45;&gt;Node37</title>
<path fill="none" stroke="#191970" d="M482.4246,-64.5C490.8899,-64.5 499.4506,-64.5 507.7863,-64.5"/>
<polygon fill="#191970" stroke="#191970" points="482.1675,-61.0001 472.1675,-64.5 482.1674,-68.0001 482.1675,-61.0001"/>
</g>
<!-- Node39 -->
<g id="node10" class="node">
<title>Node39</title>
<g id="a_node10"><a xlink:href="../../d7/de7/classopenage_1_1_game_spec_handle.xhtml#a019a81d88722206e82c7b5c87ddfe04f" target="_top" xlink:title="forget everything about the specification and reload it with start_loading_if_needed. ">
<polygon fill="#ffffff" stroke="#000000" points="508,-.5 508,-30.5 647,-30.5 647,-.5 508,-.5"/>
<text text-anchor="start" x="516" y="-18.5" font-family="Helvetica,sans-Serif" font-size="10.00" fill="#000000">openage::GameSpecHandle</text>
<text text-anchor="middle" x="577.5" y="-7.5" font-family="Helvetica,sans-Serif" font-size="10.00" fill="#000000">::invalidate</text>
</a>
</g>
</g>
<!-- Node34&#45;&gt;Node39 -->
<g id="edge9" class="edge">
<title>Node34&#45;&gt;Node39</title>
<path fill="none" stroke="#191970" d="M466.1473,-46.6788C485.042,-41.3882 505.5434,-35.6478 523.7444,-30.5516"/>
<polygon fill="#191970" stroke="#191970" points="465.1196,-43.3318 456.4337,-49.3986 467.0071,-50.0726 465.1196,-43.3318"/>
</g>
<!-- Node36 -->
<g id="node7" class="node">
<title>Node36</title>
<g id="a_node7"><a xlink:href="../../d2/d90/classopenage_1_1gui_1_1_game_spec_link.xhtml#a65d2c73c99d6724ead9ca41556253c56" target="_top" xlink:title="openage::gui::GameSpecLink\l::set_active">
<polygon fill="#ffffff" stroke="#000000" points="683,-98.5 683,-128.5 828,-128.5 828,-98.5 683,-98.5"/>
<text text-anchor="start" x="691" y="-116.5" font-family="Helvetica,sans-Serif" font-size="10.00" fill="#000000">openage::gui::GameSpecLink</text>
<text text-anchor="middle" x="755.5" y="-105.5" font-family="Helvetica,sans-Serif" font-size="10.00" fill="#000000">::set_active</text>
</a>
</g>
</g>
<!-- Node35&#45;&gt;Node36 -->
<g id="edge6" class="edge">
<title>Node35&#45;&gt;Node36</title>
<path fill="none" stroke="#191970" d="M657.3282,-113.5C665.789,-113.5 674.3615,-113.5 682.7355,-113.5"/>
<polygon fill="#191970" stroke="#191970" points="657.0842,-110.0001 647.0842,-113.5 657.0842,-117.0001 657.0842,-110.0001"/>
</g>
<!-- Node38 -->
<g id="node9" class="node">
<title>Node38</title>
<g id="a_node9"><a xlink:href="../../d2/d90/classopenage_1_1gui_1_1_game_spec_link.xhtml#acee4b3764eaa0e07144e164b8b7bdca0" target="_top" xlink:title="openage::gui::GameSpecLink\l::set_asset_manager">
<polygon fill="#ffffff" stroke="#000000" points="683,-49.5 683,-79.5 828,-79.5 828,-49.5 683,-49.5"/>
<text text-anchor="start" x="691" y="-67.5" font-family="Helvetica,sans-Serif" font-size="10.00" fill="#000000">openage::gui::GameSpecLink</text>
<text text-anchor="middle" x="755.5" y="-56.5" font-family="Helvetica,sans-Serif" font-size="10.00" fill="#000000">::set_asset_manager</text>
</a>
</g>
</g>
<!-- Node37&#45;&gt;Node38 -->
<g id="edge8" class="edge">
<title>Node37&#45;&gt;Node38</title>
<path fill="none" stroke="#191970" d="M657.3282,-64.5C665.789,-64.5 674.3615,-64.5 682.7355,-64.5"/>
<polygon fill="#191970" stroke="#191970" points="657.0842,-61.0001 647.0842,-64.5 657.0842,-68.0001 657.0842,-61.0001"/>
</g>
</g>
</svg>
