<?xml version="1.0" encoding="UTF-8" standalone="no"?>
<!DOCTYPE svg PUBLIC "-//W3C//DTD SVG 1.1//EN"
 "http://www.w3.org/Graphics/SVG/1.1/DTD/svg11.dtd">
<!-- Generated by graphviz version 2.40.1 (20161225.0304)
 -->
<!-- Title: openage::AssetManager::get_asset_dir Pages: 1 -->
<svg width="430pt" height="102pt"
 viewBox="0.00 0.00 430.00 102.41" xmlns="http://www.w3.org/2000/svg" xmlns:xlink="http://www.w3.org/1999/xlink">
<g id="graph0" class="graph" transform="scale(1 1) rotate(0) translate(4 98.4101)">
<title>openage::AssetManager::get_asset_dir</title>
<polygon fill="#ffffff" stroke="transparent" points="-4,4 -4,-98.4101 426,-98.4101 426,4 -4,4"/>
<!-- Node25 -->
<g id="node1" class="node">
<title>Node25</title>
<polygon fill="#bfbfbf" stroke="#000000" points="0,-49.5 0,-79.5 122,-79.5 122,-49.5 0,-49.5"/>
<text text-anchor="start" x="8" y="-67.5" font-family="Helvetica,sans-Serif" font-size="10.00" fill="#000000">openage::AssetManager</text>
<text text-anchor="middle" x="61" y="-56.5" font-family="Helvetica,sans-Serif" font-size="10.00" fill="#000000">::get_asset_dir</text>
</g>
<!-- Node26 -->
<g id="node2" class="node">
<title>Node26</title>
<g id="a_node2"><a xlink:href="../../de/d6a/classopenage_1_1_game_spec.xhtml#a4de64c8c4a5463dc086f082659147b02" target="_top" xlink:title="perform the main loading job. ">
<polygon fill="#ffffff" stroke="#000000" points="308,-49.5 308,-79.5 422,-79.5 422,-49.5 308,-49.5"/>
<text text-anchor="start" x="316" y="-67.5" font-family="Helvetica,sans-Serif" font-size="10.00" fill="#000000">openage::GameSpec::</text>
<text text-anchor="middle" x="365" y="-56.5" font-family="Helvetica,sans-Serif" font-size="10.00" fill="#000000">initialize</text>
</a>
</g>
</g>
<!-- Node25&#45;&gt;Node26 -->
<g id="edge1" class="edge">
<title>Node25&#45;&gt;Node26</title>
<path fill="none" stroke="#191970" d="M119.331,-82.0644C131.9671,-85.1556 145.3397,-87.8947 158,-89.5 208.2642,-95.8732 221.7695,-96.1337 272,-89.5 287.4149,-87.4642 303.9034,-83.6083 318.6511,-79.5232"/>
<polygon fill="#191970" stroke="#191970" points="119.9376,-78.6071 109.3826,-79.5249 118.2062,-85.3896 119.9376,-78.6071"/>
</g>
<!-- Node27 -->
<g id="node3" class="node">
<title>Node27</title>
<g id="a_node3"><a xlink:href="../../de/d6a/classopenage_1_1_game_spec.xhtml#a6f6bbcfb3a4dd8586bbed00f62054bf1" target="_top" xlink:title="fill in the terrain_data attribute of this ">
<polygon fill="#ffffff" stroke="#000000" points="158,-49.5 158,-79.5 272,-79.5 272,-49.5 158,-49.5"/>
<text text-anchor="start" x="166" y="-67.5" font-family="Helvetica,sans-Serif" font-size="10.00" fill="#000000">openage::GameSpec::</text>
<text text-anchor="middle" x="215" y="-56.5" font-family="Helvetica,sans-Serif" font-size="10.00" fill="#000000">load_terrain</text>
</a>
</g>
</g>
<!-- Node25&#45;&gt;Node27 -->
<g id="edge2" class="edge">
<title>Node25&#45;&gt;Node27</title>
<path fill="none" stroke="#191970" d="M132.3104,-64.5C140.8906,-64.5 149.5654,-64.5 157.9057,-64.5"/>
<polygon fill="#191970" stroke="#191970" points="132.3074,-61.0001 122.3074,-64.5 132.3073,-68.0001 132.3074,-61.0001"/>
</g>
<!-- Node28 -->
<g id="node4" class="node">
<title>Node28</title>
<g id="a_node4"><a xlink:href="../../de/d6a/classopenage_1_1_game_spec.xhtml#a979c8104ad4832b1912e703f19558bc9" target="_top" xlink:title="Invoked when the gamedata has been loaded. ">
<polygon fill="#ffffff" stroke="#000000" points="158,-.5 158,-30.5 272,-30.5 272,-.5 158,-.5"/>
<text text-anchor="start" x="166" y="-18.5" font-family="Helvetica,sans-Serif" font-size="10.00" fill="#000000">openage::GameSpec::</text>
<text text-anchor="middle" x="215" y="-7.5" font-family="Helvetica,sans-Serif" font-size="10.00" fill="#000000">on_gamedata_loaded</text>
</a>
</g>
</g>
<!-- Node25&#45;&gt;Node28 -->
<g id="edge4" class="edge">
<title>Node25&#45;&gt;Node28</title>
<path fill="none" stroke="#191970" d="M118.3857,-46.2409C134.6286,-41.0727 152.119,-35.5076 167.695,-30.5516"/>
<polygon fill="#191970" stroke="#191970" points="116.9297,-43.0312 108.4617,-49.3986 119.0522,-49.7017 116.9297,-43.0312"/>
</g>
<!-- Node27&#45;&gt;Node26 -->
<g id="edge3" class="edge">
<title>Node27&#45;&gt;Node26</title>
<path fill="none" stroke="#191970" d="M282.3106,-64.5C290.7284,-64.5 299.2768,-64.5 307.5255,-64.5"/>
<polygon fill="#191970" stroke="#191970" points="282.1365,-61.0001 272.1365,-64.5 282.1364,-68.0001 282.1365,-61.0001"/>
</g>
<!-- Node28&#45;&gt;Node26 -->
<g id="edge5" class="edge">
<title>Node28&#45;&gt;Node26</title>
<path fill="none" stroke="#191970" d="M270.8951,-33.7591C286.7161,-38.9273 303.7523,-44.4924 318.9237,-49.4484"/>
<polygon fill="#191970" stroke="#191970" points="271.8214,-30.3797 261.2289,-30.6014 269.6477,-37.0337 271.8214,-30.3797"/>
</g>
</g>
</svg>
