<?xml version="1.0" encoding="UTF-8" standalone="no"?>
<!DOCTYPE svg PUBLIC "-//W3C//DTD SVG 1.1//EN"
 "http://www.w3.org/Graphics/SVG/1.1/DTD/svg11.dtd">
<!-- Generated by graphviz version 2.40.1 (20161225.0304)
 -->
<!-- Title: openage::Engine::lastframe_duration_nsec Pages: 1 -->
<svg width="438pt" height="39pt"
 viewBox="0.00 0.00 438.00 39.00" xmlns="http://www.w3.org/2000/svg" xmlns:xlink="http://www.w3.org/1999/xlink">
<g id="graph0" class="graph" transform="scale(1 1) rotate(0) translate(4 35)">
<title>openage::Engine::lastframe_duration_nsec</title>
<polygon fill="#ffffff" stroke="transparent" points="-4,4 -4,-35 434,-35 434,4 -4,4"/>
<!-- Node170 -->
<g id="node1" class="node">
<title>Node170</title>
<polygon fill="#bfbfbf" stroke="#000000" points="0,-.5 0,-30.5 136,-30.5 136,-.5 0,-.5"/>
<text text-anchor="start" x="8" y="-18.5" font-family="Helvetica,sans-Serif" font-size="10.00" fill="#000000">openage::Engine::lastframe</text>
<text text-anchor="middle" x="68" y="-7.5" font-family="Helvetica,sans-Serif" font-size="10.00" fill="#000000">_duration_nsec</text>
</g>
<!-- Node171 -->
<g id="node2" class="node">
<title>Node171</title>
<g id="a_node2"><a xlink:href="../../d6/d40/classopenage_1_1_engine.xhtml#adc80abfebed9b4f30df3de15984431e8" target="_top" xlink:title="main engine loop function. ">
<polygon fill="#ffffff" stroke="#000000" points="172,-6 172,-25 285,-25 285,-6 172,-6"/>
<text text-anchor="middle" x="228.5" y="-13" font-family="Helvetica,sans-Serif" font-size="10.00" fill="#000000">openage::Engine::loop</text>
</a>
</g>
</g>
<!-- Node170&#45;&gt;Node171 -->
<g id="edge1" class="edge">
<title>Node170&#45;&gt;Node171</title>
<path fill="none" stroke="#191970" d="M146.2222,-15.5C154.9065,-15.5 163.6225,-15.5 171.9631,-15.5"/>
<polygon fill="#191970" stroke="#191970" points="146.0665,-12.0001 136.0664,-15.5 146.0664,-19.0001 146.0665,-12.0001"/>
</g>
<!-- Node172 -->
<g id="node3" class="node">
<title>Node172</title>
<g id="a_node3"><a xlink:href="../../d6/d40/classopenage_1_1_engine.xhtml#a1f1b60bb90c738f6b64a6e19e49cde6d" target="_top" xlink:title="starts the engine loop. ">
<polygon fill="#ffffff" stroke="#000000" points="321,-6 321,-25 430,-25 430,-6 321,-6"/>
<text text-anchor="middle" x="375.5" y="-13" font-family="Helvetica,sans-Serif" font-size="10.00" fill="#000000">openage::Engine::run</text>
</a>
</g>
</g>
<!-- Node171&#45;&gt;Node172 -->
<g id="edge2" class="edge">
<title>Node171&#45;&gt;Node172</title>
<path fill="none" stroke="#191970" d="M295.5402,-15.5C303.9787,-15.5 312.5317,-15.5 320.7496,-15.5"/>
<polygon fill="#191970" stroke="#191970" points="295.3341,-12.0001 285.334,-15.5 295.334,-19.0001 295.3341,-12.0001"/>
</g>
</g>
</svg>
