<?xml version="1.0" encoding="UTF-8" standalone="no"?>
<!DOCTYPE svg PUBLIC "-//W3C//DTD SVG 1.1//EN"
 "http://www.w3.org/Graphics/SVG/1.1/DTD/svg11.dtd">
<!-- Generated by graphviz version 2.40.1 (20161225.0304)
 -->
<!-- Title: openage::Engine::on_resize Pages: 1 -->
<!--zoomable 132 -->
<svg id="main" version="1.1" xmlns="http://www.w3.org/2000/svg" xmlns:xlink="http://www.w3.org/1999/xlink" xml:space="preserve" onload="init(evt)">
<style type="text/css"><![CDATA[
.edge:hover path { stroke: red; }
.edge:hover polygon { stroke: red; fill: red; }
]]></style>
<script type="text/javascript"><![CDATA[
var edges = document.getElementsByTagName('g');
if (edges && edges.length) {
  for (var i=0;i<edges.length;i++) {
    if (edges[i].id.substr(0,4)=='edge') {
      edges[i].setAttribute('class','edge');
    }
  }
}
]]></script>
        <defs>
                <circle id="rim" cx="0" cy="0" r="7"/>
                <circle id="rim2" cx="0" cy="0" r="3.5"/>
                <g id="zoomPlus">
                        <use xlink:href="#rim" fill="#404040">
                                <set attributeName="fill" to="#808080" begin="zoomplus.mouseover" end="zoomplus.mouseout"/>
                        </use>
                        <path d="M-4,0h8M0,-4v8" fill="none" stroke="white" stroke-width="1.5" pointer-events="none"/>
                </g>
                <g id="zoomMin">
                        <use xlink:href="#rim" fill="#404040">
                                <set attributeName="fill" to="#808080" begin="zoomminus.mouseover" end="zoomminus.mouseout"/>
                        </use>
                        <path d="M-4,0h8" fill="none" stroke="white" stroke-width="1.5" pointer-events="none"/>
                </g>
                <g id="dirArrow">
                        <path fill="none" stroke="white" stroke-width="1.5" d="M0,-3.0v7 M-2.5,-0.5L0,-3.0L2.5,-0.5"/>
                </g>
               <g id="resetDef">
                       <use xlink:href="#rim2" fill="#404040">
                               <set attributeName="fill" to="#808080" begin="reset.mouseover" end="reset.mouseout"/>
                       </use>
               </g>
        </defs>

<script type="text/javascript">
var viewWidth = 604;
var viewHeight = 132;
var sectionId = 'dynsection-22';
</script>
<script xlink:href="../../svgpan.js"/>
<svg id="graph" class="graph">
<g id="viewport">
<title>openage::Engine::on_resize</title>
<polygon fill="#ffffff" stroke="transparent" points="-4,4 -4,-128 600,-128 600,4 -4,4"/>
<!-- Node226 -->
<g id="node1" class="node">
<title>Node226</title>
<polygon fill="#bfbfbf" stroke="#000000" points="0,-80 0,-110 106,-110 106,-80 0,-80"/>
<text text-anchor="start" x="8" y="-98" font-family="Helvetica,sans-Serif" font-size="10.00" fill="#000000">openage::Engine::on</text>
<text text-anchor="middle" x="53" y="-87" font-family="Helvetica,sans-Serif" font-size="10.00" fill="#000000">_resize</text>
</g>
<!-- Node227 -->
<g id="node2" class="node">
<title>Node227</title>
<g id="a_node2"><a xlink:href="../../dd/d1a/namespaceopenage_1_1log.xhtml#a5cb08687f485da2549d7eebef26368a6" target="_top" xlink:title="debug message ">
<polygon fill="#ffffff" stroke="#000000" points="143.5,-104.5 143.5,-123.5 231.5,-123.5 231.5,-104.5 143.5,-104.5"/>
<text text-anchor="middle" x="187.5" y="-111.5" font-family="Helvetica,sans-Serif" font-size="10.00" fill="#000000">openage.log.dbg</text>
</a>
</g>
</g>
<!-- Node226&#45;&gt;Node227 -->
<g id="edge1" class="edge">
<title>Node226&#45;&gt;Node227</title>
<path fill="none" stroke="#191970" d="M106.158,-102.5093C115.1207,-103.7754 124.4332,-105.0909 133.4192,-106.3603"/>
<polygon fill="#191970" stroke="#191970" points="132.9985,-109.8356 143.3898,-107.7688 133.9777,-102.9044 132.9985,-109.8356"/>
</g>
<!-- Node228 -->
<g id="node3" class="node">
<title>Node228</title>
<g id="a_node3"><a xlink:href="../../dd/d1a/namespaceopenage_1_1log.xhtml#a0eff614e7d6e818746700ed9d29e583f" target="_top" xlink:title="Convenience method that makes use of the &#39;general&#39; LogSource. ">
<polygon fill="#ffffff" stroke="#000000" points="142,-66.5 142,-85.5 233,-85.5 233,-66.5 142,-66.5"/>
<text text-anchor="middle" x="187.5" y="-73.5" font-family="Helvetica,sans-Serif" font-size="10.00" fill="#000000">openage::log::log</text>
</a>
</g>
</g>
<!-- Node226&#45;&gt;Node228 -->
<g id="edge2" class="edge">
<title>Node226&#45;&gt;Node228</title>
<path fill="none" stroke="#191970" d="M106.158,-87.4907C114.5104,-86.3108 123.1664,-85.088 131.579,-83.8996"/>
<polygon fill="#191970" stroke="#191970" points="132.2708,-87.3367 141.6829,-82.4723 131.2916,-80.4056 132.2708,-87.3367"/>
</g>
<!-- Node229 -->
<g id="node4" class="node">
<title>Node229</title>
<g id="a_node4"><a xlink:href="../../dd/d1a/namespaceopenage_1_1log.xhtml#a3fbb0c225d01e222648ec28a43507188" target="_top" xlink:title="Returns a reference to a general named log source, for use by log::log(). ">
<polygon fill="#ffffff" stroke="#000000" points="285.5,-83 285.5,-113 395.5,-113 395.5,-83 285.5,-83"/>
<text text-anchor="start" x="293.5" y="-101" font-family="Helvetica,sans-Serif" font-size="10.00" fill="#000000">openage::log::general</text>
<text text-anchor="middle" x="340.5" y="-90" font-family="Helvetica,sans-Serif" font-size="10.00" fill="#000000">_source</text>
</a>
</g>
</g>
<!-- Node228&#45;&gt;Node229 -->
<g id="edge3" class="edge">
<title>Node228&#45;&gt;Node229</title>
<path fill="none" stroke="#191970" d="M233.405,-82.6007C246.5794,-84.4951 261.2032,-86.5978 275.3031,-88.6253"/>
<polygon fill="#191970" stroke="#191970" points="275.0529,-92.1252 285.4493,-90.0842 276.0492,-85.1965 275.0529,-92.1252"/>
</g>
<!-- Node230 -->
<g id="node5" class="node">
<title>Node230</title>
<g id="a_node5"><a xlink:href="../../de/de3/classopenage_1_1log_1_1_log_source.xhtml#a5640099e20af4cd368c767dbcef3a1df" target="_top" xlink:title="Logs a message (get one via MSG(level)). ">
<polygon fill="#ffffff" stroke="#000000" points="269,-44.5 269,-63.5 412,-63.5 412,-44.5 269,-44.5"/>
<text text-anchor="middle" x="340.5" y="-51.5" font-family="Helvetica,sans-Serif" font-size="10.00" fill="#000000">openage::log::LogSource::log</text>
</a>
</g>
</g>
<!-- Node228&#45;&gt;Node230 -->
<g id="edge4" class="edge">
<title>Node228&#45;&gt;Node230</title>
<path fill="none" stroke="#191970" d="M233.405,-69.3993C243.1438,-67.9989 253.6746,-66.4847 264.2003,-64.9712"/>
<polygon fill="#191970" stroke="#191970" points="264.8644,-68.4118 274.2645,-63.5241 263.8681,-61.483 264.8644,-68.4118"/>
</g>
<!-- Node231 -->
<g id="node6" class="node">
<title>Node231</title>
<g id="a_node6"><a xlink:href="../../dd/d1a/namespaceopenage_1_1log.xhtml#a3d2885be9c3a09b9ff7ee8764b2e5f39" target="_top" xlink:title="Returns a reference to the global stdout logsink object; Initializes the object if needed...">
<polygon fill="#ffffff" stroke="#000000" points="470,-88 470,-118 574,-118 574,-88 470,-88"/>
<text text-anchor="start" x="478" y="-106" font-family="Helvetica,sans-Serif" font-size="10.00" fill="#000000">openage::log::global</text>
<text text-anchor="middle" x="522" y="-95" font-family="Helvetica,sans-Serif" font-size="10.00" fill="#000000">_stdoutsink</text>
</a>
</g>
</g>
<!-- Node230&#45;&gt;Node231 -->
<g id="edge5" class="edge">
<title>Node230&#45;&gt;Node231</title>
<path fill="none" stroke="#191970" d="M375.9259,-63.564C399.8272,-70.0167 432.008,-78.7046 460.0812,-86.2836"/>
<polygon fill="#191970" stroke="#191970" points="459.2527,-89.6852 469.8194,-88.9127 461.0773,-82.9272 459.2527,-89.6852"/>
</g>
<!-- Node232 -->
<g id="node7" class="node">
<title>Node232</title>
<g id="a_node7"><a xlink:href="../../d0/d58/classopenage_1_1log_1_1_log_sink_list.xhtml#a2d47416fab12651553b4b58c86fd6f84" target="_top" xlink:title="openage::log::LogSinkList\l::instance">
<polygon fill="#ffffff" stroke="#000000" points="457.5,-39 457.5,-69 586.5,-69 586.5,-39 457.5,-39"/>
<text text-anchor="start" x="465.5" y="-57" font-family="Helvetica,sans-Serif" font-size="10.00" fill="#000000">openage::log::LogSinkList</text>
<text text-anchor="middle" x="522" y="-46" font-family="Helvetica,sans-Serif" font-size="10.00" fill="#000000">::instance</text>
</a>
</g>
</g>
<!-- Node230&#45;&gt;Node232 -->
<g id="edge6" class="edge">
<title>Node230&#45;&gt;Node232</title>
<path fill="none" stroke="#191970" d="M412.2336,-54C423.7292,-54 435.651,-54 447.2157,-54"/>
<polygon fill="#191970" stroke="#191970" points="447.267,-57.5001 457.267,-54 447.267,-50.5001 447.267,-57.5001"/>
</g>
<!-- Node233 -->
<g id="node8" class="node">
<title>Node233</title>
<g id="a_node8"><a xlink:href="../../d0/d58/classopenage_1_1log_1_1_log_sink_list.xhtml#a8456b84ab55e1fe151c51438c5bfebdd" target="_top" xlink:title="openage::log::LogSinkList::log">
<polygon fill="#ffffff" stroke="#000000" points="448,-.5 448,-19.5 596,-19.5 596,-.5 448,-.5"/>
<text text-anchor="middle" x="522" y="-7.5" font-family="Helvetica,sans-Serif" font-size="10.00" fill="#000000">openage::log::LogSinkList::log</text>
</a>
</g>
</g>
<!-- Node230&#45;&gt;Node233 -->
<g id="edge7" class="edge">
<title>Node230&#45;&gt;Node233</title>
<path fill="none" stroke="#191970" d="M379.8828,-44.4527C407.1156,-37.8508 443.5503,-29.0181 472.7102,-21.949"/>
<polygon fill="#191970" stroke="#191970" points="473.8002,-25.2863 482.6941,-19.5287 472.1509,-18.4833 473.8002,-25.2863"/>
</g>
</g>
</svg>
        <g id="navigator" transform="translate(0 0)" fill="#404254">
                <rect fill="#f2f5e9" fill-opacity="0.5" stroke="#606060" stroke-width=".5" x="0" y="0" width="60" height="60"/>
                <use id="zoomplus" xlink:href="#zoomPlus" x="17" y="9" onmousedown="handleZoom(evt,'in')"/>
                <use id="zoomminus" xlink:href="#zoomMin" x="42" y="9" onmousedown="handleZoom(evt,'out')"/>
                <use id="reset" xlink:href="#resetDef" x="30" y="36" onmousedown="handleReset()"/>
                <g id="arrowUp" xlink:href="#dirArrow" transform="translate(30 24)" onmousedown="handlePan(0,-1)">
                  <use xlink:href="#rim" fill="#404040">
                        <set attributeName="fill" to="#808080" begin="arrowUp.mouseover" end="arrowUp.mouseout"/>
                  </use>
                  <path fill="none" stroke="white" stroke-width="1.5" d="M0,-3.0v7 M-2.5,-0.5L0,-3.0L2.5,-0.5"/>
                </g>
                <g id="arrowRight" xlink:href="#dirArrow" transform="rotate(90) translate(36 -43)" onmousedown="handlePan(1,0)">
                  <use xlink:href="#rim" fill="#404040">
                        <set attributeName="fill" to="#808080" begin="arrowRight.mouseover" end="arrowRight.mouseout"/>
                  </use>
                  <path fill="none" stroke="white" stroke-width="1.5" d="M0,-3.0v7 M-2.5,-0.5L0,-3.0L2.5,-0.5"/>
                </g>
                <g id="arrowDown" xlink:href="#dirArrow" transform="rotate(180) translate(-30 -48)" onmousedown="handlePan(0,1)">
                  <use xlink:href="#rim" fill="#404040">
                        <set attributeName="fill" to="#808080" begin="arrowDown.mouseover" end="arrowDown.mouseout"/>
                  </use>
                  <path fill="none" stroke="white" stroke-width="1.5" d="M0,-3.0v7 M-2.5,-0.5L0,-3.0L2.5,-0.5"/>
                </g>
                <g id="arrowLeft" xlink:href="#dirArrow" transform="rotate(270) translate(-36 17)" onmousedown="handlePan(-1,0)">
                  <use xlink:href="#rim" fill="#404040">
                        <set attributeName="fill" to="#808080" begin="arrowLeft.mouseover" end="arrowLeft.mouseout"/>
                  </use>
                  <path fill="none" stroke="white" stroke-width="1.5" d="M0,-3.0v7 M-2.5,-0.5L0,-3.0L2.5,-0.5"/>
                </g>
        </g>
        <svg viewBox="0 0 15 15" width="100%" height="30px" preserveAspectRatio="xMaxYMin meet">
         <g id="arrow_out" transform="scale(0.3 0.3)">
          <a xlink:href="classopenage_1_1_engine_ae0d4c0fbfaa2b1bb13cc71456880e08c_cgraph_org.svg" target="_base">
           <rect id="button" ry="5" rx="5" y="6" x="6" height="38" width="38"
                fill="#f2f5e9" fill-opacity="0.5" stroke="#606060" stroke-width="1.0"/>
           <path id="arrow"
             d="M 11.500037,31.436501 C 11.940474,20.09759 22.043105,11.32322 32.158766,21.979434 L 37.068811,17.246167 C 37.068811,17.246167 37.088388,32 37.088388,32 L 22.160133,31.978069 C 22.160133,31.978069 26.997745,27.140456 26.997745,27.140456 C 18.528582,18.264221 13.291696,25.230495 11.500037,31.436501 z"
             style="fill:#404040;"/>
          </a>
         </g>
        </svg>
</svg>
