<?xml version="1.0" encoding="UTF-8" standalone="no"?>
<!DOCTYPE svg PUBLIC "-//W3C//DTD SVG 1.1//EN"
 "http://www.w3.org/Graphics/SVG/1.1/DTD/svg11.dtd">
<!-- Generated by graphviz version 2.40.1 (20161225.0304)
 -->
<!-- Title: openage::Engine::stop Pages: 1 -->
<svg width="779pt" height="127pt"
 viewBox="0.00 0.00 779.00 126.50" xmlns="http://www.w3.org/2000/svg" xmlns:xlink="http://www.w3.org/1999/xlink">
<g id="graph0" class="graph" transform="scale(1 1) rotate(0) translate(4 122.5)">
<title>openage::Engine::stop</title>
<polygon fill="#ffffff" stroke="transparent" points="-4,4 -4,-122.5 775,-122.5 775,4 -4,4"/>
<!-- Node327 -->
<g id="node1" class="node">
<title>Node327</title>
<polygon fill="#bfbfbf" stroke="#000000" points="0,-66.5 0,-85.5 114,-85.5 114,-66.5 0,-66.5"/>
<text text-anchor="middle" x="57" y="-73.5" font-family="Helvetica,sans-Serif" font-size="10.00" fill="#000000">openage::Engine::stop</text>
</g>
<!-- Node328 -->
<g id="node2" class="node">
<title>Node328</title>
<g id="a_node2"><a xlink:href="../../dc/d9a/classopenage_1_1job_1_1_job_manager.xhtml#ac2cd8aa519595a5b0f50e796d5d00208" target="_top" xlink:title="Stop the job manager&#39;s worker threads. ">
<polygon fill="#ffffff" stroke="#000000" points="150,-61 150,-91 281,-91 281,-61 150,-61"/>
<text text-anchor="start" x="158" y="-79" font-family="Helvetica,sans-Serif" font-size="10.00" fill="#000000">openage::job::JobManager</text>
<text text-anchor="middle" x="215.5" y="-68" font-family="Helvetica,sans-Serif" font-size="10.00" fill="#000000">::stop</text>
</a>
</g>
</g>
<!-- Node327&#45;&gt;Node328 -->
<g id="edge1" class="edge">
<title>Node327&#45;&gt;Node328</title>
<path fill="none" stroke="#191970" d="M114.2221,-76C122.5075,-76 131.1418,-76 139.7217,-76"/>
<polygon fill="#191970" stroke="#191970" points="139.7447,-79.5001 149.7446,-76 139.7446,-72.5001 139.7447,-79.5001"/>
</g>
<!-- Node329 -->
<g id="node3" class="node">
<title>Node329</title>
<g id="a_node3"><a xlink:href="../../dd/d1a/namespaceopenage_1_1log.xhtml#a0eff614e7d6e818746700ed9d29e583f" target="_top" xlink:title="Convenience method that makes use of the &#39;general&#39; LogSource. ">
<polygon fill="#ffffff" stroke="#000000" points="317,-66.5 317,-85.5 408,-85.5 408,-66.5 317,-66.5"/>
<text text-anchor="middle" x="362.5" y="-73.5" font-family="Helvetica,sans-Serif" font-size="10.00" fill="#000000">openage::log::log</text>
</a>
</g>
</g>
<!-- Node328&#45;&gt;Node329 -->
<g id="edge2" class="edge">
<title>Node328&#45;&gt;Node329</title>
<path fill="none" stroke="#191970" d="M281.2608,-76C289.6458,-76 298.1667,-76 306.3803,-76"/>
<polygon fill="#191970" stroke="#191970" points="306.5867,-79.5001 316.5867,-76 306.5866,-72.5001 306.5867,-79.5001"/>
</g>
<!-- Node330 -->
<g id="node4" class="node">
<title>Node330</title>
<g id="a_node4"><a xlink:href="../../dd/d1a/namespaceopenage_1_1log.xhtml#a3fbb0c225d01e222648ec28a43507188" target="_top" xlink:title="Returns a reference to a general named log source, for use by log::log(). ">
<polygon fill="#ffffff" stroke="#000000" points="460.5,-83 460.5,-113 570.5,-113 570.5,-83 460.5,-83"/>
<text text-anchor="start" x="468.5" y="-101" font-family="Helvetica,sans-Serif" font-size="10.00" fill="#000000">openage::log::general</text>
<text text-anchor="middle" x="515.5" y="-90" font-family="Helvetica,sans-Serif" font-size="10.00" fill="#000000">_source</text>
</a>
</g>
</g>
<!-- Node329&#45;&gt;Node330 -->
<g id="edge3" class="edge">
<title>Node329&#45;&gt;Node330</title>
<path fill="none" stroke="#191970" d="M408.405,-82.6007C421.5794,-84.4951 436.2032,-86.5978 450.3031,-88.6253"/>
<polygon fill="#191970" stroke="#191970" points="450.0529,-92.1252 460.4493,-90.0842 451.0492,-85.1965 450.0529,-92.1252"/>
</g>
<!-- Node331 -->
<g id="node5" class="node">
<title>Node331</title>
<g id="a_node5"><a xlink:href="../../de/de3/classopenage_1_1log_1_1_log_source.xhtml#a5640099e20af4cd368c767dbcef3a1df" target="_top" xlink:title="Logs a message (get one via MSG(level)). ">
<polygon fill="#ffffff" stroke="#000000" points="444,-44.5 444,-63.5 587,-63.5 587,-44.5 444,-44.5"/>
<text text-anchor="middle" x="515.5" y="-51.5" font-family="Helvetica,sans-Serif" font-size="10.00" fill="#000000">openage::log::LogSource::log</text>
</a>
</g>
</g>
<!-- Node329&#45;&gt;Node331 -->
<g id="edge4" class="edge">
<title>Node329&#45;&gt;Node331</title>
<path fill="none" stroke="#191970" d="M408.405,-69.3993C418.1438,-67.9989 428.6746,-66.4847 439.2003,-64.9712"/>
<polygon fill="#191970" stroke="#191970" points="439.8644,-68.4118 449.2645,-63.5241 438.8681,-61.483 439.8644,-68.4118"/>
</g>
<!-- Node332 -->
<g id="node6" class="node">
<title>Node332</title>
<g id="a_node6"><a xlink:href="../../dd/d1a/namespaceopenage_1_1log.xhtml#a3d2885be9c3a09b9ff7ee8764b2e5f39" target="_top" xlink:title="Returns a reference to the global stdout logsink object; Initializes the object if needed...">
<polygon fill="#ffffff" stroke="#000000" points="645,-88 645,-118 749,-118 749,-88 645,-88"/>
<text text-anchor="start" x="653" y="-106" font-family="Helvetica,sans-Serif" font-size="10.00" fill="#000000">openage::log::global</text>
<text text-anchor="middle" x="697" y="-95" font-family="Helvetica,sans-Serif" font-size="10.00" fill="#000000">_stdoutsink</text>
</a>
</g>
</g>
<!-- Node331&#45;&gt;Node332 -->
<g id="edge5" class="edge">
<title>Node331&#45;&gt;Node332</title>
<path fill="none" stroke="#191970" d="M550.9259,-63.564C574.8272,-70.0167 607.008,-78.7046 635.0812,-86.2836"/>
<polygon fill="#191970" stroke="#191970" points="634.2527,-89.6852 644.8194,-88.9127 636.0773,-82.9272 634.2527,-89.6852"/>
</g>
<!-- Node333 -->
<g id="node7" class="node">
<title>Node333</title>
<g id="a_node7"><a xlink:href="../../d0/d58/classopenage_1_1log_1_1_log_sink_list.xhtml#a2d47416fab12651553b4b58c86fd6f84" target="_top" xlink:title="openage::log::LogSinkList\l::instance">
<polygon fill="#ffffff" stroke="#000000" points="632.5,-39 632.5,-69 761.5,-69 761.5,-39 632.5,-39"/>
<text text-anchor="start" x="640.5" y="-57" font-family="Helvetica,sans-Serif" font-size="10.00" fill="#000000">openage::log::LogSinkList</text>
<text text-anchor="middle" x="697" y="-46" font-family="Helvetica,sans-Serif" font-size="10.00" fill="#000000">::instance</text>
</a>
</g>
</g>
<!-- Node331&#45;&gt;Node333 -->
<g id="edge6" class="edge">
<title>Node331&#45;&gt;Node333</title>
<path fill="none" stroke="#191970" d="M587.2336,-54C598.7292,-54 610.651,-54 622.2157,-54"/>
<polygon fill="#191970" stroke="#191970" points="622.267,-57.5001 632.267,-54 622.267,-50.5001 622.267,-57.5001"/>
</g>
<!-- Node334 -->
<g id="node8" class="node">
<title>Node334</title>
<g id="a_node8"><a xlink:href="../../d0/d58/classopenage_1_1log_1_1_log_sink_list.xhtml#a8456b84ab55e1fe151c51438c5bfebdd" target="_top" xlink:title="openage::log::LogSinkList::log">
<polygon fill="#ffffff" stroke="#000000" points="623,-.5 623,-19.5 771,-19.5 771,-.5 623,-.5"/>
<text text-anchor="middle" x="697" y="-7.5" font-family="Helvetica,sans-Serif" font-size="10.00" fill="#000000">openage::log::LogSinkList::log</text>
</a>
</g>
</g>
<!-- Node331&#45;&gt;Node334 -->
<g id="edge7" class="edge">
<title>Node331&#45;&gt;Node334</title>
<path fill="none" stroke="#191970" d="M554.8828,-44.4527C582.1156,-37.8508 618.5503,-29.0181 647.7102,-21.949"/>
<polygon fill="#191970" stroke="#191970" points="648.8002,-25.2863 657.6941,-19.5287 647.1509,-18.4833 648.8002,-25.2863"/>
</g>
</g>
</svg>
