<?xml version="1.0" encoding="UTF-8" standalone="no"?>
<!DOCTYPE svg PUBLIC "-//W3C//DTD SVG 1.1//EN"
 "http://www.w3.org/Graphics/SVG/1.1/DTD/svg11.dtd">
<!-- Generated by graphviz version 2.40.1 (20161225.0304)
 -->
<!-- Title: qtsdl::RecursiveDirectoryWatcher::RecursiveDirectoryWatcher Pages: 1 -->
<!--zoomable 446 -->
<svg id="main" version="1.1" xmlns="http://www.w3.org/2000/svg" xmlns:xlink="http://www.w3.org/1999/xlink" xml:space="preserve" onload="init(evt)">
<style type="text/css"><![CDATA[
.edge:hover path { stroke: red; }
.edge:hover polygon { stroke: red; fill: red; }
]]></style>
<script type="text/javascript"><![CDATA[
var edges = document.getElementsByTagName('g');
if (edges && edges.length) {
  for (var i=0;i<edges.length;i++) {
    if (edges[i].id.substr(0,4)=='edge') {
      edges[i].setAttribute('class','edge');
    }
  }
}
]]></script>
        <defs>
                <circle id="rim" cx="0" cy="0" r="7"/>
                <circle id="rim2" cx="0" cy="0" r="3.5"/>
                <g id="zoomPlus">
                        <use xlink:href="#rim" fill="#404040">
                                <set attributeName="fill" to="#808080" begin="zoomplus.mouseover" end="zoomplus.mouseout"/>
                        </use>
                        <path d="M-4,0h8M0,-4v8" fill="none" stroke="white" stroke-width="1.5" pointer-events="none"/>
                </g>
                <g id="zoomMin">
                        <use xlink:href="#rim" fill="#404040">
                                <set attributeName="fill" to="#808080" begin="zoomminus.mouseover" end="zoomminus.mouseout"/>
                        </use>
                        <path d="M-4,0h8" fill="none" stroke="white" stroke-width="1.5" pointer-events="none"/>
                </g>
                <g id="dirArrow">
                        <path fill="none" stroke="white" stroke-width="1.5" d="M0,-3.0v7 M-2.5,-0.5L0,-3.0L2.5,-0.5"/>
                </g>
               <g id="resetDef">
                       <use xlink:href="#rim2" fill="#404040">
                               <set attributeName="fill" to="#808080" begin="reset.mouseover" end="reset.mouseout"/>
                       </use>
               </g>
        </defs>

<script type="text/javascript">
var viewWidth = 1619;
var viewHeight = 446;
var sectionId = 'dynsection-2';
</script>
<script xlink:href="../../svgpan.js"/>
<svg id="graph" class="graph">
<g id="viewport">
<title>qtsdl::RecursiveDirectoryWatcher::RecursiveDirectoryWatcher</title>
<polygon fill="#ffffff" stroke="transparent" points="-4,4 -4,-442 1615,-442 1615,4 -4,4"/>
<!-- Node0 -->
<g id="node1" class="node">
<title>Node0</title>
<polygon fill="#bfbfbf" stroke="#000000" points="0,-219.5 0,-249.5 180,-249.5 180,-219.5 0,-219.5"/>
<text text-anchor="start" x="8" y="-237.5" font-family="Helvetica,sans-Serif" font-size="10.00" fill="#000000">qtsdl::RecursiveDirectory</text>
<text text-anchor="middle" x="90" y="-226.5" font-family="Helvetica,sans-Serif" font-size="10.00" fill="#000000">Watcher::RecursiveDirectoryWatcher</text>
</g>
<!-- Node1 -->
<g id="node2" class="node">
<title>Node1</title>
<g id="a_node2"><a xlink:href="../../dc/d7b/classqtsdl_1_1_recursive_directory_watcher_worker.xhtml#a9722ee9e0a60a9f437b86c7902641767" target="_top" xlink:title="qtsdl::RecursiveDirectory\lWatcherWorker::onRootDirsPaths\lChanged">
<polygon fill="#ffffff" stroke="#000000" points="216,-214 216,-255 382,-255 382,-214 216,-214"/>
<text text-anchor="start" x="224" y="-243" font-family="Helvetica,sans-Serif" font-size="10.00" fill="#000000">qtsdl::RecursiveDirectory</text>
<text text-anchor="start" x="224" y="-232" font-family="Helvetica,sans-Serif" font-size="10.00" fill="#000000">WatcherWorker::onRootDirsPaths</text>
<text text-anchor="middle" x="299" y="-221" font-family="Helvetica,sans-Serif" font-size="10.00" fill="#000000">Changed</text>
</a>
</g>
</g>
<!-- Node0&#45;&gt;Node1 -->
<g id="edge1" class="edge">
<title>Node0&#45;&gt;Node1</title>
<path fill="none" stroke="#191970" d="M180.1513,-234.5C188.5555,-234.5 197.0859,-234.5 205.5196,-234.5"/>
<polygon fill="#191970" stroke="#191970" points="205.7438,-238.0001 215.7437,-234.5 205.7437,-231.0001 205.7438,-238.0001"/>
</g>
<!-- Node2 -->
<g id="node3" class="node">
<title>Node2</title>
<g id="a_node3"><a xlink:href="../../dc/d7b/classqtsdl_1_1_recursive_directory_watcher_worker.xhtml#a91bfaa86b49409e691361ef093d77211" target="_top" xlink:title="qtsdl::RecursiveDirectory\lWatcherWorker::restartWatching">
<polygon fill="#ffffff" stroke="#000000" points="418,-244.5 418,-274.5 578,-274.5 578,-244.5 418,-244.5"/>
<text text-anchor="start" x="426" y="-262.5" font-family="Helvetica,sans-Serif" font-size="10.00" fill="#000000">qtsdl::RecursiveDirectory</text>
<text text-anchor="middle" x="498" y="-251.5" font-family="Helvetica,sans-Serif" font-size="10.00" fill="#000000">WatcherWorker::restartWatching</text>
</a>
</g>
</g>
<!-- Node1&#45;&gt;Node2 -->
<g id="edge2" class="edge">
<title>Node1&#45;&gt;Node2</title>
<path fill="none" stroke="#191970" d="M382.2409,-244.9574C390.7381,-246.0249 399.3979,-247.1128 407.9633,-248.1889"/>
<polygon fill="#191970" stroke="#191970" points="407.6013,-251.6708 417.9596,-249.4447 408.4739,-244.7254 407.6013,-251.6708"/>
</g>
<!-- Node5 -->
<g id="node6" class="node">
<title>Node5</title>
<g id="a_node6"><a xlink:href="../../de/d60/namespaceopenage_1_1util.xhtml#ac6f34c002692bc844cd70de03e10bc5d" target="_top" xlink:title="std::for_each except just on containers. ">
<polygon fill="#ffffff" stroke="#000000" points="440,-203 440,-222 556,-222 556,-203 440,-203"/>
<text text-anchor="middle" x="498" y="-210" font-family="Helvetica,sans-Serif" font-size="10.00" fill="#000000">openage::util::for_each</text>
</a>
</g>
</g>
<!-- Node1&#45;&gt;Node5 -->
<g id="edge5" class="edge">
<title>Node1&#45;&gt;Node5</title>
<path fill="none" stroke="#191970" d="M382.2409,-225.2975C397.9905,-223.5563 414.2987,-221.7534 429.5291,-220.0696"/>
<polygon fill="#191970" stroke="#191970" points="430.3261,-223.503 439.8809,-218.9252 429.5568,-216.5453 430.3261,-223.503"/>
</g>
<!-- Node3 -->
<g id="node4" class="node">
<title>Node3</title>
<g id="a_node4"><a xlink:href="../../dc/d7b/classqtsdl_1_1_recursive_directory_watcher_worker.xhtml#ad06a00847d0e68ab3932169e674fde0b" target="_top" xlink:title="qtsdl::RecursiveDirectory\lWatcherWorker::restart\l_watching">
<polygon fill="#ffffff" stroke="#000000" points="614,-253 614,-294 742,-294 742,-253 614,-253"/>
<text text-anchor="start" x="622" y="-282" font-family="Helvetica,sans-Serif" font-size="10.00" fill="#000000">qtsdl::RecursiveDirectory</text>
<text text-anchor="start" x="622" y="-271" font-family="Helvetica,sans-Serif" font-size="10.00" fill="#000000">WatcherWorker::restart</text>
<text text-anchor="middle" x="678" y="-260" font-family="Helvetica,sans-Serif" font-size="10.00" fill="#000000">_watching</text>
</a>
</g>
</g>
<!-- Node2&#45;&gt;Node3 -->
<g id="edge3" class="edge">
<title>Node2&#45;&gt;Node3</title>
<path fill="none" stroke="#191970" d="M578.2611,-265.7425C586.7257,-266.4009 595.3066,-267.0683 603.6995,-267.7211"/>
<polygon fill="#191970" stroke="#191970" points="603.582,-271.2224 613.8233,-268.5085 604.1249,-264.2435 603.582,-271.2224"/>
</g>
<!-- Node4 -->
<g id="node5" class="node">
<title>Node4</title>
<g id="a_node5"><a xlink:href="../../dc/d7b/classqtsdl_1_1_recursive_directory_watcher_worker.xhtml#ae6212c6d19cb887015d3da8a59bd4576" target="_top" xlink:title="qtsdl::RecursiveDirectory\lWatcherWorker::onEntryChanged">
<polygon fill="#ffffff" stroke="#000000" points="778,-269.5 778,-299.5 942,-299.5 942,-269.5 778,-269.5"/>
<text text-anchor="start" x="786" y="-287.5" font-family="Helvetica,sans-Serif" font-size="10.00" fill="#000000">qtsdl::RecursiveDirectory</text>
<text text-anchor="middle" x="860" y="-276.5" font-family="Helvetica,sans-Serif" font-size="10.00" fill="#000000">WatcherWorker::onEntryChanged</text>
</a>
</g>
</g>
<!-- Node3&#45;&gt;Node4 -->
<g id="edge4" class="edge">
<title>Node3&#45;&gt;Node4</title>
<path fill="none" stroke="#191970" d="M742.1664,-277.3782C750.4784,-277.8806 759.1185,-278.4028 767.7734,-278.9259"/>
<polygon fill="#191970" stroke="#191970" points="767.7285,-282.4295 777.9215,-279.5392 768.1509,-275.4422 767.7285,-282.4295"/>
</g>
<!-- Node6 -->
<g id="node7" class="node">
<title>Node6</title>
<g id="a_node7"><a xlink:href="../../d5/d9d/namespaceopenage_1_1curve_1_1tests.xhtml#afc4e799a037edab37e1e35a74da593b7" target="_top" xlink:title="openage::curve::tests\l::container">
<polygon fill="#ffffff" stroke="#000000" points="622.5,-192.5 622.5,-222.5 733.5,-222.5 733.5,-192.5 622.5,-192.5"/>
<text text-anchor="start" x="630.5" y="-210.5" font-family="Helvetica,sans-Serif" font-size="10.00" fill="#000000">openage::curve::tests</text>
<text text-anchor="middle" x="678" y="-199.5" font-family="Helvetica,sans-Serif" font-size="10.00" fill="#000000">::container</text>
</a>
</g>
</g>
<!-- Node5&#45;&gt;Node6 -->
<g id="edge6" class="edge">
<title>Node5&#45;&gt;Node6</title>
<path fill="none" stroke="#191970" d="M556.4408,-210.8766C574.2008,-210.3833 593.838,-209.8378 612.056,-209.3318"/>
<polygon fill="#191970" stroke="#191970" points="612.4018,-212.8236 622.3007,-209.0472 612.2073,-205.8263 612.4018,-212.8236"/>
</g>
<!-- Node7 -->
<g id="node8" class="node">
<title>Node7</title>
<g id="a_node8"><a xlink:href="../../d5/d9d/namespaceopenage_1_1curve_1_1tests.xhtml#a994d019a14acd704605a0ccff85558c8" target="_top" xlink:title="openage::curve::tests\l::test_list">
<polygon fill="#ffffff" stroke="#000000" points="804.5,-171.5 804.5,-201.5 915.5,-201.5 915.5,-171.5 804.5,-171.5"/>
<text text-anchor="start" x="812.5" y="-189.5" font-family="Helvetica,sans-Serif" font-size="10.00" fill="#000000">openage::curve::tests</text>
<text text-anchor="middle" x="860" y="-178.5" font-family="Helvetica,sans-Serif" font-size="10.00" fill="#000000">::test_list</text>
</a>
</g>
</g>
<!-- Node6&#45;&gt;Node7 -->
<g id="edge7" class="edge">
<title>Node6&#45;&gt;Node7</title>
<path fill="none" stroke="#191970" d="M733.5949,-201.0852C752.822,-198.8667 774.5472,-196.3599 794.4947,-194.0583"/>
<polygon fill="#191970" stroke="#191970" points="794.8993,-197.5349 804.4322,-192.9117 794.0969,-190.5811 794.8993,-197.5349"/>
</g>
<!-- Node8 -->
<g id="node9" class="node">
<title>Node8</title>
<g id="a_node9"><a xlink:href="../../d5/d9d/namespaceopenage_1_1curve_1_1tests.xhtml#aafe8d47259322a390c43cae62d308296" target="_top" xlink:title="openage::curve::tests\l::test_map">
<polygon fill="#ffffff" stroke="#000000" points="1137,-101.5 1137,-131.5 1248,-131.5 1248,-101.5 1137,-101.5"/>
<text text-anchor="start" x="1145" y="-119.5" font-family="Helvetica,sans-Serif" font-size="10.00" fill="#000000">openage::curve::tests</text>
<text text-anchor="middle" x="1192.5" y="-108.5" font-family="Helvetica,sans-Serif" font-size="10.00" fill="#000000">::test_map</text>
</a>
</g>
</g>
<!-- Node6&#45;&gt;Node8 -->
<g id="edge8" class="edge">
<title>Node6&#45;&gt;Node8</title>
<path fill="none" stroke="#191970" d="M704.6862,-192.3372C724.3304,-181.9033 752.0287,-168.6777 778,-161.5 898.0539,-128.3207 1043.9877,-119.414 1126.7703,-117.1402"/>
<polygon fill="#191970" stroke="#191970" points="1126.8834,-120.6385 1136.7926,-116.889 1126.708,-113.6407 1126.8834,-120.6385"/>
</g>
<!-- Node15 -->
<g id="node16" class="node">
<title>Node15</title>
<g id="a_node16"><a xlink:href="../../d5/d9d/namespaceopenage_1_1curve_1_1tests.xhtml#ae4b27fadf76c2a10960f6b7e7ff7c724" target="_top" xlink:title="openage::curve::tests\l::test_queue">
<polygon fill="#ffffff" stroke="#000000" points="804.5,-220.5 804.5,-250.5 915.5,-250.5 915.5,-220.5 804.5,-220.5"/>
<text text-anchor="start" x="812.5" y="-238.5" font-family="Helvetica,sans-Serif" font-size="10.00" fill="#000000">openage::curve::tests</text>
<text text-anchor="middle" x="860" y="-227.5" font-family="Helvetica,sans-Serif" font-size="10.00" fill="#000000">::test_queue</text>
</a>
</g>
</g>
<!-- Node6&#45;&gt;Node15 -->
<g id="edge18" class="edge">
<title>Node6&#45;&gt;Node15</title>
<path fill="none" stroke="#191970" d="M733.5949,-216.0531C752.822,-219.0111 774.5472,-222.3534 794.4947,-225.4223"/>
<polygon fill="#191970" stroke="#191970" points="794.0162,-228.8897 804.4322,-226.9511 795.0807,-221.9711 794.0162,-228.8897"/>
</g>
<!-- Node9 -->
<g id="node10" class="node">
<title>Node9</title>
<g id="a_node10"><a xlink:href="../../dd/dcf/classopenage_1_1curve_1_1_unordered_map.xhtml#ab7e91da88c63f0bc632cf38572706fc5" target="_top" xlink:title="openage::curve::Unordered\lMap::at">
<polygon fill="#ffffff" stroke="#000000" points="1292,-147.5 1292,-177.5 1426,-177.5 1426,-147.5 1292,-147.5"/>
<text text-anchor="start" x="1300" y="-165.5" font-family="Helvetica,sans-Serif" font-size="10.00" fill="#000000">openage::curve::Unordered</text>
<text text-anchor="middle" x="1359" y="-154.5" font-family="Helvetica,sans-Serif" font-size="10.00" fill="#000000">Map::at</text>
</a>
</g>
</g>
<!-- Node8&#45;&gt;Node9 -->
<g id="edge9" class="edge">
<title>Node8&#45;&gt;Node9</title>
<path fill="none" stroke="#191970" d="M1247.0183,-131.5621C1262.3336,-135.7934 1279.1276,-140.4332 1294.944,-144.8029"/>
<polygon fill="#191970" stroke="#191970" points="1294.0727,-148.1932 1304.6437,-147.4826 1295.9369,-141.446 1294.0727,-148.1932"/>
</g>
<!-- Node11 -->
<g id="node12" class="node">
<title>Node11</title>
<g id="a_node12"><a xlink:href="../../dd/dcf/classopenage_1_1curve_1_1_unordered_map.xhtml#a3d59e255c6113d5e517ba2f69e6927ea" target="_top" xlink:title="openage::curve::Unordered\lMap::begin">
<polygon fill="#ffffff" stroke="#000000" points="1292,-49.5 1292,-79.5 1426,-79.5 1426,-49.5 1292,-49.5"/>
<text text-anchor="start" x="1300" y="-67.5" font-family="Helvetica,sans-Serif" font-size="10.00" fill="#000000">openage::curve::Unordered</text>
<text text-anchor="middle" x="1359" y="-56.5" font-family="Helvetica,sans-Serif" font-size="10.00" fill="#000000">Map::begin</text>
</a>
</g>
</g>
<!-- Node8&#45;&gt;Node11 -->
<g id="edge11" class="edge">
<title>Node8&#45;&gt;Node11</title>
<path fill="none" stroke="#191970" d="M1240.6587,-101.4594C1259.5558,-95.5576 1281.4056,-88.7337 1301.148,-82.5679"/>
<polygon fill="#191970" stroke="#191970" points="1302.4476,-85.8288 1310.9495,-79.5068 1300.3608,-79.1471 1302.4476,-85.8288"/>
</g>
<!-- Node12 -->
<g id="node13" class="node">
<title>Node12</title>
<g id="a_node13"><a xlink:href="../../dd/dcf/classopenage_1_1curve_1_1_unordered_map.xhtml#a74e9ff15f6b3176742a166d7e7c7b5f2" target="_top" xlink:title="openage::curve::Unordered\lMap::between">
<polygon fill="#ffffff" stroke="#000000" points="1292,-98.5 1292,-128.5 1426,-128.5 1426,-98.5 1292,-98.5"/>
<text text-anchor="start" x="1300" y="-116.5" font-family="Helvetica,sans-Serif" font-size="10.00" fill="#000000">openage::curve::Unordered</text>
<text text-anchor="middle" x="1359" y="-105.5" font-family="Helvetica,sans-Serif" font-size="10.00" fill="#000000">Map::between</text>
</a>
</g>
</g>
<!-- Node8&#45;&gt;Node12 -->
<g id="edge13" class="edge">
<title>Node8&#45;&gt;Node12</title>
<path fill="none" stroke="#191970" d="M1248.4053,-115.4927C1259.1102,-115.2998 1270.4937,-115.0947 1281.7312,-114.8922"/>
<polygon fill="#191970" stroke="#191970" points="1282.0513,-118.3871 1291.9866,-114.7074 1281.9251,-111.3883 1282.0513,-118.3871"/>
</g>
<!-- Node13 -->
<g id="node14" class="node">
<title>Node13</title>
<g id="a_node14"><a xlink:href="../../dd/dcf/classopenage_1_1curve_1_1_unordered_map.xhtml#af9481e8e9e7cba29a319bd1bea5be0c8" target="_top" xlink:title="openage::curve::Unordered\lMap::end">
<polygon fill="#ffffff" stroke="#000000" points="1292,-.5 1292,-30.5 1426,-30.5 1426,-.5 1292,-.5"/>
<text text-anchor="start" x="1300" y="-18.5" font-family="Helvetica,sans-Serif" font-size="10.00" fill="#000000">openage::curve::Unordered</text>
<text text-anchor="middle" x="1359" y="-7.5" font-family="Helvetica,sans-Serif" font-size="10.00" fill="#000000">Map::end</text>
</a>
</g>
</g>
<!-- Node8&#45;&gt;Node13 -->
<g id="edge14" class="edge">
<title>Node8&#45;&gt;Node13</title>
<path fill="none" stroke="#191970" d="M1208.0027,-101.2949C1226.1158,-84.2405 1257.6207,-56.7196 1289,-39.5 1292.231,-37.727 1295.617,-36.0499 1299.0825,-34.4696"/>
<polygon fill="#191970" stroke="#191970" points="1300.5564,-37.6462 1308.3901,-30.5129 1297.8178,-31.2041 1300.5564,-37.6462"/>
</g>
<!-- Node14 -->
<g id="node15" class="node">
<title>Node14</title>
<g id="a_node15"><a xlink:href="../../dd/dcf/classopenage_1_1curve_1_1_unordered_map.xhtml#af1b1051f0bf23fc91b3f153b8a9ba2df" target="_top" xlink:title="openage::curve::Unordered\lMap::insert">
<polygon fill="#ffffff" stroke="#000000" points="1292,-196.5 1292,-226.5 1426,-226.5 1426,-196.5 1292,-196.5"/>
<text text-anchor="start" x="1300" y="-214.5" font-family="Helvetica,sans-Serif" font-size="10.00" fill="#000000">openage::curve::Unordered</text>
<text text-anchor="middle" x="1359" y="-203.5" font-family="Helvetica,sans-Serif" font-size="10.00" fill="#000000">Map::insert</text>
</a>
</g>
</g>
<!-- Node8&#45;&gt;Node14 -->
<g id="edge16" class="edge">
<title>Node8&#45;&gt;Node14</title>
<path fill="none" stroke="#191970" d="M1209.9815,-131.5565C1228.5764,-146.9825 1259.3421,-170.8597 1289,-186.5 1293.0254,-188.6228 1297.2702,-190.6352 1301.5974,-192.5273"/>
<polygon fill="#191970" stroke="#191970" points="1300.5705,-195.8899 1311.1492,-196.4734 1303.2433,-189.4203 1300.5705,-195.8899"/>
</g>
<!-- Node10 -->
<g id="node11" class="node">
<title>Node10</title>
<g id="a_node11"><a xlink:href="../../de/d06/namespaceopenage_1_1console_1_1tests.xhtml#a46ebd3333dc9196558ac9aced828d117" target="_top" xlink:title="openage::console::tests::max">
<polygon fill="#ffffff" stroke="#000000" points="1465,-202 1465,-221 1611,-221 1611,-202 1465,-202"/>
<text text-anchor="middle" x="1538" y="-209" font-family="Helvetica,sans-Serif" font-size="10.00" fill="#000000">openage::console::tests::max</text>
</a>
</g>
</g>
<!-- Node9&#45;&gt;Node10 -->
<g id="edge10" class="edge">
<title>Node9&#45;&gt;Node10</title>
<path fill="none" stroke="#191970" d="M1414.1665,-177.6014C1439.6034,-184.5646 1469.4015,-192.7216 1493.3923,-199.2889"/>
<polygon fill="#191970" stroke="#191970" points="1492.7196,-202.7335 1503.2889,-201.9981 1494.5678,-195.9819 1492.7196,-202.7335"/>
</g>
<!-- Node11&#45;&gt;Node10 -->
<g id="edge12" class="edge">
<title>Node11&#45;&gt;Node10</title>
<path fill="none" stroke="#191970" d="M1412.3782,-79.5109C1418.2011,-82.0978 1423.869,-85.0794 1429,-88.5 1471.9226,-117.1139 1508.5842,-166.6603 1526.4197,-193.3007"/>
<polygon fill="#191970" stroke="#191970" points="1523.7089,-195.55 1532.1157,-201.9981 1529.5649,-191.7149 1523.7089,-195.55"/>
</g>
<!-- Node13&#45;&gt;Node10 -->
<g id="edge15" class="edge">
<title>Node13&#45;&gt;Node10</title>
<path fill="none" stroke="#191970" d="M1414.7325,-30.5884C1419.8088,-33.1278 1424.6635,-36.0776 1429,-39.5 1482.0653,-81.3794 1516.6711,-156.6595 1530.7871,-192.0774"/>
<polygon fill="#191970" stroke="#191970" points="1527.6392,-193.6415 1534.5079,-201.7082 1534.1689,-191.1188 1527.6392,-193.6415"/>
</g>
<!-- Node14&#45;&gt;Node10 -->
<g id="edge17" class="edge">
<title>Node14&#45;&gt;Node10</title>
<path fill="none" stroke="#191970" d="M1426.1623,-211.5C1435.4145,-211.5 1445.007,-211.5 1454.5087,-211.5"/>
<polygon fill="#191970" stroke="#191970" points="1454.7632,-215.0001 1464.7632,-211.5 1454.7631,-208.0001 1454.7632,-215.0001"/>
</g>
<!-- Node16 -->
<g id="node17" class="node">
<title>Node16</title>
<g id="a_node17"><a xlink:href="../../df/d88/classopenage_1_1curve_1_1_queue.xhtml#acbff846f0aad39b82c1dbffe83f80fba" target="_top" xlink:title="openage::curve::Queue\l::begin">
<polygon fill="#ffffff" stroke="#000000" points="1133.5,-259.5 1133.5,-289.5 1251.5,-289.5 1251.5,-259.5 1133.5,-259.5"/>
<text text-anchor="start" x="1141.5" y="-277.5" font-family="Helvetica,sans-Serif" font-size="10.00" fill="#000000">openage::curve::Queue</text>
<text text-anchor="middle" x="1192.5" y="-266.5" font-family="Helvetica,sans-Serif" font-size="10.00" fill="#000000">::begin</text>
</a>
</g>
</g>
<!-- Node15&#45;&gt;Node16 -->
<g id="edge19" class="edge">
<title>Node15&#45;&gt;Node16</title>
<path fill="none" stroke="#191970" d="M915.5682,-248.3599C935.1992,-252.4882 957.4925,-256.7096 978,-259.5 1026.1827,-266.056 1080.8672,-269.8238 1122.9622,-271.9435"/>
<polygon fill="#191970" stroke="#191970" points="1122.9496,-275.4469 1133.1072,-272.4348 1123.2883,-268.4551 1122.9496,-275.4469"/>
</g>
<!-- Node17 -->
<g id="node18" class="node">
<title>Node17</title>
<g id="a_node18"><a xlink:href="../../df/d88/classopenage_1_1curve_1_1_queue.xhtml#a3a60297cec80ae6d759ea3567922db8e" target="_top" xlink:title="openage::curve::Queue::end">
<polygon fill="#ffffff" stroke="#000000" points="1289,-246 1289,-265 1429,-265 1429,-246 1289,-246"/>
<text text-anchor="middle" x="1359" y="-253" font-family="Helvetica,sans-Serif" font-size="10.00" fill="#000000">openage::curve::Queue::end</text>
</a>
</g>
</g>
<!-- Node15&#45;&gt;Node17 -->
<g id="edge26" class="edge">
<title>Node15&#45;&gt;Node17</title>
<path fill="none" stroke="#191970" d="M915.7404,-221.1958C935.2884,-216.8457 957.4856,-212.6493 978,-210.5 1099.2248,-197.7994 1241.8276,-226.2517 1313.2985,-243.5112"/>
<polygon fill="#191970" stroke="#191970" points="1312.7702,-246.9854 1323.3162,-245.9703 1314.4389,-240.1872 1312.7702,-246.9854"/>
</g>
<!-- Node18 -->
<g id="node19" class="node">
<title>Node18</title>
<g id="a_node19"><a xlink:href="../../df/d88/classopenage_1_1curve_1_1_queue.xhtml#a3ba35a56fa550d939d0d16c71c63e56c" target="_top" xlink:title="openage::curve::Queue\l::between">
<polygon fill="#ffffff" stroke="#000000" points="978,-220.5 978,-250.5 1096,-250.5 1096,-220.5 978,-220.5"/>
<text text-anchor="start" x="986" y="-238.5" font-family="Helvetica,sans-Serif" font-size="10.00" fill="#000000">openage::curve::Queue</text>
<text text-anchor="middle" x="1037" y="-227.5" font-family="Helvetica,sans-Serif" font-size="10.00" fill="#000000">::between</text>
</a>
</g>
</g>
<!-- Node15&#45;&gt;Node18 -->
<g id="edge23" class="edge">
<title>Node15&#45;&gt;Node18</title>
<path fill="none" stroke="#191970" d="M915.5183,-235.5C932.0446,-235.5 950.3614,-235.5 967.6536,-235.5"/>
<polygon fill="#191970" stroke="#191970" points="967.6953,-239.0001 977.6952,-235.5 967.6952,-232.0001 967.6953,-239.0001"/>
</g>
<!-- Node19 -->
<g id="node20" class="node">
<title>Node19</title>
<g id="a_node20"><a xlink:href="../../df/d88/classopenage_1_1curve_1_1_queue.xhtml#ae7d94b0875221550e5af663a64ea2aec" target="_top" xlink:title="openage::curve::Queue\l::insert">
<polygon fill="#ffffff" stroke="#000000" points="978,-338.5 978,-368.5 1096,-368.5 1096,-338.5 978,-338.5"/>
<text text-anchor="start" x="986" y="-356.5" font-family="Helvetica,sans-Serif" font-size="10.00" fill="#000000">openage::curve::Queue</text>
<text text-anchor="middle" x="1037" y="-345.5" font-family="Helvetica,sans-Serif" font-size="10.00" fill="#000000">::insert</text>
</a>
</g>
</g>
<!-- Node15&#45;&gt;Node19 -->
<g id="edge27" class="edge">
<title>Node15&#45;&gt;Node19</title>
<path fill="none" stroke="#191970" d="M915.8172,-247.7663C924.8938,-250.8939 933.9485,-254.7563 942,-259.5 946.3169,-262.0434 988.0707,-303.9619 1014.7679,-330.9538"/>
<polygon fill="#191970" stroke="#191970" points="1012.3366,-333.4729 1021.855,-338.126 1017.3158,-328.5527 1012.3366,-333.4729"/>
</g>
<!-- Node16&#45;&gt;Node10 -->
<g id="edge22" class="edge">
<title>Node16&#45;&gt;Node10</title>
<path fill="none" stroke="#191970" d="M1251.9224,-282.905C1300.4327,-287.782 1370.307,-290.2416 1429,-274.5 1462.9887,-265.3841 1497.338,-242.8164 1518.151,-227.3222"/>
<polygon fill="#191970" stroke="#191970" points="1520.3779,-230.0255 1526.2016,-221.1748 1516.1296,-224.462 1520.3779,-230.0255"/>
</g>
<!-- Node16&#45;&gt;Node17 -->
<g id="edge20" class="edge">
<title>Node16&#45;&gt;Node17</title>
<path fill="none" stroke="#191970" d="M1251.6705,-267.7478C1260.5253,-266.7373 1269.7779,-265.6815 1278.9778,-264.6317"/>
<polygon fill="#191970" stroke="#191970" points="1279.38,-268.1086 1288.9187,-263.4973 1278.5863,-261.1537 1279.38,-268.1086"/>
</g>
<!-- Node17&#45;&gt;Node10 -->
<g id="edge21" class="edge">
<title>Node17&#45;&gt;Node10</title>
<path fill="none" stroke="#191970" d="M1397.8403,-245.9527C1424.698,-239.3508 1460.6309,-230.5181 1489.3892,-223.449"/>
<polygon fill="#191970" stroke="#191970" points="1490.36,-226.8147 1499.2355,-221.0287 1488.689,-220.017 1490.36,-226.8147"/>
</g>
<!-- Node18&#45;&gt;Node16 -->
<g id="edge24" class="edge">
<title>Node18&#45;&gt;Node16</title>
<path fill="none" stroke="#191970" d="M1096.2315,-250.3555C1105.1818,-252.6003 1114.4797,-254.9322 1123.6124,-257.2227"/>
<polygon fill="#191970" stroke="#191970" points="1122.8821,-260.6479 1133.4332,-259.6858 1124.5851,-253.8582 1122.8821,-260.6479"/>
</g>
<!-- Node18&#45;&gt;Node17 -->
<g id="edge25" class="edge">
<title>Node18&#45;&gt;Node17</title>
<path fill="none" stroke="#191970" d="M1096.0598,-239.1683C1147.357,-242.3545 1222.1088,-246.9974 1278.8087,-250.5192"/>
<polygon fill="#191970" stroke="#191970" points="1278.6197,-254.0141 1288.8175,-251.1408 1279.0537,-247.0276 1278.6197,-254.0141"/>
</g>
<!-- Node19&#45;&gt;Node10 -->
<g id="edge28" class="edge">
<title>Node19&#45;&gt;Node10</title>
<path fill="none" stroke="#191970" d="M1096.1414,-361.5083C1139.817,-365.8856 1200.5374,-368.7426 1253,-359.5 1334.971,-345.0588 1356.0629,-335.5996 1429,-295.5 1463.9607,-276.2792 1499.6916,-246.3913 1520.3117,-227.9316"/>
<polygon fill="#191970" stroke="#191970" points="1522.8831,-230.3243 1527.9326,-221.0102 1518.1768,-225.1425 1522.8831,-230.3243"/>
</g>
<!-- Node20 -->
<g id="node21" class="node">
<title>Node20</title>
<g id="a_node21"><a xlink:href="../../d4/d69/structopenage_1_1curve_1_1_queue_1_1queue__wrapper.xhtml#a9f13d26ca7d8cc64b9b4d003c7d18873" target="_top" xlink:title="openage::curve::Queue\l::queue_wrapper::queue\l_wrapper">
<polygon fill="#ffffff" stroke="#000000" points="1132,-309 1132,-350 1253,-350 1253,-309 1132,-309"/>
<text text-anchor="start" x="1140" y="-338" font-family="Helvetica,sans-Serif" font-size="10.00" fill="#000000">openage::curve::Queue</text>
<text text-anchor="start" x="1140" y="-327" font-family="Helvetica,sans-Serif" font-size="10.00" fill="#000000">::queue_wrapper::queue</text>
<text text-anchor="middle" x="1192.5" y="-316" font-family="Helvetica,sans-Serif" font-size="10.00" fill="#000000">_wrapper</text>
</a>
</g>
</g>
<!-- Node19&#45;&gt;Node20 -->
<g id="edge29" class="edge">
<title>Node19&#45;&gt;Node20</title>
<path fill="none" stroke="#191970" d="M1096.2315,-344.3582C1104.6212,-343.0633 1113.3164,-341.7213 1121.8946,-340.3973"/>
<polygon fill="#191970" stroke="#191970" points="1122.5366,-343.8397 1131.8856,-338.8553 1121.4688,-336.9217 1122.5366,-343.8397"/>
</g>
<!-- Node21 -->
<g id="node22" class="node">
<title>Node21</title>
<g id="a_node22"><a xlink:href="../../d4/d69/structopenage_1_1curve_1_1_queue_1_1queue__wrapper.xhtml#ac9a915e29db89fbd0731899d845db899" target="_top" xlink:title="openage::curve::Queue\l::queue_wrapper::time">
<polygon fill="#ffffff" stroke="#000000" points="1133.5,-407.5 1133.5,-437.5 1251.5,-437.5 1251.5,-407.5 1133.5,-407.5"/>
<text text-anchor="start" x="1141.5" y="-425.5" font-family="Helvetica,sans-Serif" font-size="10.00" fill="#000000">openage::curve::Queue</text>
<text text-anchor="middle" x="1192.5" y="-414.5" font-family="Helvetica,sans-Serif" font-size="10.00" fill="#000000">::queue_wrapper::time</text>
</a>
</g>
</g>
<!-- Node19&#45;&gt;Node21 -->
<g id="edge30" class="edge">
<title>Node19&#45;&gt;Node21</title>
<path fill="none" stroke="#191970" d="M1071.1251,-368.6423C1094.1148,-378.8435 1124.6282,-392.3833 1149.3088,-403.3348"/>
<polygon fill="#191970" stroke="#191970" points="1147.8943,-406.5362 1158.4545,-407.393 1150.7335,-400.1378 1147.8943,-406.5362"/>
</g>
</g>
</svg>
        <g id="navigator" transform="translate(0 0)" fill="#404254">
                <rect fill="#f2f5e9" fill-opacity="0.5" stroke="#606060" stroke-width=".5" x="0" y="0" width="60" height="60"/>
                <use id="zoomplus" xlink:href="#zoomPlus" x="17" y="9" onmousedown="handleZoom(evt,'in')"/>
                <use id="zoomminus" xlink:href="#zoomMin" x="42" y="9" onmousedown="handleZoom(evt,'out')"/>
                <use id="reset" xlink:href="#resetDef" x="30" y="36" onmousedown="handleReset()"/>
                <g id="arrowUp" xlink:href="#dirArrow" transform="translate(30 24)" onmousedown="handlePan(0,-1)">
                  <use xlink:href="#rim" fill="#404040">
                        <set attributeName="fill" to="#808080" begin="arrowUp.mouseover" end="arrowUp.mouseout"/>
                  </use>
                  <path fill="none" stroke="white" stroke-width="1.5" d="M0,-3.0v7 M-2.5,-0.5L0,-3.0L2.5,-0.5"/>
                </g>
                <g id="arrowRight" xlink:href="#dirArrow" transform="rotate(90) translate(36 -43)" onmousedown="handlePan(1,0)">
                  <use xlink:href="#rim" fill="#404040">
                        <set attributeName="fill" to="#808080" begin="arrowRight.mouseover" end="arrowRight.mouseout"/>
                  </use>
                  <path fill="none" stroke="white" stroke-width="1.5" d="M0,-3.0v7 M-2.5,-0.5L0,-3.0L2.5,-0.5"/>
                </g>
                <g id="arrowDown" xlink:href="#dirArrow" transform="rotate(180) translate(-30 -48)" onmousedown="handlePan(0,1)">
                  <use xlink:href="#rim" fill="#404040">
                        <set attributeName="fill" to="#808080" begin="arrowDown.mouseover" end="arrowDown.mouseout"/>
                  </use>
                  <path fill="none" stroke="white" stroke-width="1.5" d="M0,-3.0v7 M-2.5,-0.5L0,-3.0L2.5,-0.5"/>
                </g>
                <g id="arrowLeft" xlink:href="#dirArrow" transform="rotate(270) translate(-36 17)" onmousedown="handlePan(-1,0)">
                  <use xlink:href="#rim" fill="#404040">
                        <set attributeName="fill" to="#808080" begin="arrowLeft.mouseover" end="arrowLeft.mouseout"/>
                  </use>
                  <path fill="none" stroke="white" stroke-width="1.5" d="M0,-3.0v7 M-2.5,-0.5L0,-3.0L2.5,-0.5"/>
                </g>
        </g>
        <svg viewBox="0 0 15 15" width="100%" height="30px" preserveAspectRatio="xMaxYMin meet">
         <g id="arrow_out" transform="scale(0.3 0.3)">
          <a xlink:href="classqtsdl_1_1_recursive_directory_watcher_a783cc986da8f9ed63ac735b00f119404_cgraph_org.svg" target="_base">
           <rect id="button" ry="5" rx="5" y="6" x="6" height="38" width="38"
                fill="#f2f5e9" fill-opacity="0.5" stroke="#606060" stroke-width="1.0"/>
           <path id="arrow"
             d="M 11.500037,31.436501 C 11.940474,20.09759 22.043105,11.32322 32.158766,21.979434 L 37.068811,17.246167 C 37.068811,17.246167 37.088388,32 37.088388,32 L 22.160133,31.978069 C 22.160133,31.978069 26.997745,27.140456 26.997745,27.140456 C 18.528582,18.264221 13.291696,25.230495 11.500037,31.436501 z"
             style="fill:#404040;"/>
          </a>
         </g>
        </svg>
</svg>
