<?xml version="1.0" encoding="UTF-8" standalone="no"?>
<!DOCTYPE svg PUBLIC "-//W3C//DTD SVG 1.1//EN"
 "http://www.w3.org/Graphics/SVG/1.1/DTD/svg11.dtd">
<!-- Generated by graphviz version 2.40.1 (20161225.0304)
 -->
<!-- Title: qtsdl::RecursiveDirectoryWatcher::rootDirsPathsChanged Pages: 1 -->
<svg width="382pt" height="88pt"
 viewBox="0.00 0.00 382.00 88.00" xmlns="http://www.w3.org/2000/svg" xmlns:xlink="http://www.w3.org/1999/xlink">
<g id="graph0" class="graph" transform="scale(1 1) rotate(0) translate(4 84)">
<title>qtsdl::RecursiveDirectoryWatcher::rootDirsPathsChanged</title>
<polygon fill="#ffffff" stroke="transparent" points="-4,4 -4,-84 378,-84 378,4 -4,4"/>
<!-- Node34 -->
<g id="node1" class="node">
<title>Node34</title>
<polygon fill="#bfbfbf" stroke="#000000" points="0,-24.5 0,-54.5 158,-54.5 158,-24.5 0,-24.5"/>
<text text-anchor="start" x="8" y="-42.5" font-family="Helvetica,sans-Serif" font-size="10.00" fill="#000000">qtsdl::RecursiveDirectory</text>
<text text-anchor="middle" x="79" y="-31.5" font-family="Helvetica,sans-Serif" font-size="10.00" fill="#000000">Watcher::rootDirsPathsChanged</text>
</g>
<!-- Node35 -->
<g id="node2" class="node">
<title>Node35</title>
<g id="a_node2"><a xlink:href="../../de/d58/classqtsdl_1_1_gui_engine_impl.xhtml#a4088026e44037a9ec5c6a7d664651c0f" target="_top" xlink:title="qtsdl::GuiEngineImpl\l::GuiEngineImpl">
<polygon fill="#ffffff" stroke="#000000" points="230.5,-49.5 230.5,-79.5 337.5,-79.5 337.5,-49.5 230.5,-49.5"/>
<text text-anchor="start" x="238.5" y="-67.5" font-family="Helvetica,sans-Serif" font-size="10.00" fill="#000000">qtsdl::GuiEngineImpl</text>
<text text-anchor="middle" x="284" y="-56.5" font-family="Helvetica,sans-Serif" font-size="10.00" fill="#000000">::GuiEngineImpl</text>
</a>
</g>
</g>
<!-- Node34&#45;&gt;Node35 -->
<g id="edge1" class="edge">
<title>Node34&#45;&gt;Node35</title>
<path fill="none" stroke="#191970" d="M168.2347,-50.3823C189.3847,-52.9616 211.3011,-55.6343 230.2998,-57.9512"/>
<polygon fill="#191970" stroke="#191970" points="168.6085,-46.902 158.2584,-49.1657 167.7611,-53.8505 168.6085,-46.902"/>
</g>
<!-- Node36 -->
<g id="node3" class="node">
<title>Node36</title>
<g id="a_node3"><a xlink:href="../../d3/dea/classqtsdl_1_1_recursive_directory_watcher.xhtml#a783cc986da8f9ed63ac735b00f119404" target="_top" xlink:title="qtsdl::RecursiveDirectory\lWatcher::RecursiveDirectoryWatcher">
<polygon fill="#ffffff" stroke="#000000" points="194,-.5 194,-30.5 374,-30.5 374,-.5 194,-.5"/>
<text text-anchor="start" x="202" y="-18.5" font-family="Helvetica,sans-Serif" font-size="10.00" fill="#000000">qtsdl::RecursiveDirectory</text>
<text text-anchor="middle" x="284" y="-7.5" font-family="Helvetica,sans-Serif" font-size="10.00" fill="#000000">Watcher::RecursiveDirectoryWatcher</text>
</a>
</g>
</g>
<!-- Node34&#45;&gt;Node36 -->
<g id="edge2" class="edge">
<title>Node34&#45;&gt;Node36</title>
<path fill="none" stroke="#191970" d="M168.4118,-29.0323C176.7968,-28.0506 185.3005,-27.0551 193.6936,-26.0725"/>
<polygon fill="#191970" stroke="#191970" points="167.7835,-25.5818 158.2584,-30.221 168.5975,-32.5344 167.7835,-25.5818"/>
</g>
</g>
</svg>
