<?xml version="1.0" encoding="UTF-8" standalone="no"?>
<!DOCTYPE svg PUBLIC "-//W3C//DTD SVG 1.1//EN"
 "http://www.w3.org/Graphics/SVG/1.1/DTD/svg11.dtd">
<!-- Generated by graphviz version 2.40.1 (20161225.0304)
 -->
<!-- Title: openage.util.filelike.abstract.FileLikeObject.seek_helper Pages: 1 -->
<svg width="1407pt" height="139pt"
 viewBox="0.00 0.00 1407.00 139.00" xmlns="http://www.w3.org/2000/svg" xmlns:xlink="http://www.w3.org/1999/xlink">
<g id="graph0" class="graph" transform="scale(1 1) rotate(0) translate(4 135)">
<title>openage.util.filelike.abstract.FileLikeObject.seek_helper</title>
<polygon fill="#ffffff" stroke="transparent" points="-4,4 -4,-135 1403,-135 1403,4 -4,4"/>
<!-- Node54 -->
<g id="node1" class="node">
<title>Node54</title>
<polygon fill="#bfbfbf" stroke="#000000" points="0,-24.5 0,-54.5 141,-54.5 141,-24.5 0,-24.5"/>
<text text-anchor="start" x="8" y="-42.5" font-family="Helvetica,sans-Serif" font-size="10.00" fill="#000000">openage.util.filelike.abstract.</text>
<text text-anchor="middle" x="70.5" y="-31.5" font-family="Helvetica,sans-Serif" font-size="10.00" fill="#000000">FileLikeObject.seek_helper</text>
</g>
<!-- Node55 -->
<g id="node2" class="node">
<title>Node55</title>
<g id="a_node2"><a xlink:href="../../d2/d24/classopenage_1_1util_1_1filelike_1_1readonly_1_1_pos_saving_read_only_file_like_object.xhtml#a2312775f74be5a112a1ab18f0f581173" target="_top" xlink:title="openage.util.filelike.readonly.\lPosSavingReadOnlyFileLikeObject.seek">
<polygon fill="#ffffff" stroke="#000000" points="177,-24.5 177,-54.5 371,-54.5 371,-24.5 177,-24.5"/>
<text text-anchor="start" x="185" y="-42.5" font-family="Helvetica,sans-Serif" font-size="10.00" fill="#000000">openage.util.filelike.readonly.</text>
<text text-anchor="middle" x="274" y="-31.5" font-family="Helvetica,sans-Serif" font-size="10.00" fill="#000000">PosSavingReadOnlyFileLikeObject.seek</text>
</a>
</g>
</g>
<!-- Node54&#45;&gt;Node55 -->
<g id="edge1" class="edge">
<title>Node54&#45;&gt;Node55</title>
<path fill="none" stroke="#191970" d="M151.2909,-39.5C159.7385,-39.5 168.3875,-39.5 176.9912,-39.5"/>
<polygon fill="#191970" stroke="#191970" points="151.1033,-36.0001 141.1033,-39.5 151.1033,-43.0001 151.1033,-36.0001"/>
</g>
<!-- Node56 -->
<g id="node3" class="node">
<title>Node56</title>
<g id="a_node3"><a xlink:href="../../de/dbb/classopenage_1_1cabextract_1_1cab_1_1_c_a_b_folder_stream.xhtml#a455bb79e71a8baa07af00ac680085f6d" target="_top" xlink:title="reads the data of block block_id. ">
<polygon fill="#ffffff" stroke="#000000" points="407,-47.5 407,-77.5 579,-77.5 579,-47.5 407,-47.5"/>
<text text-anchor="start" x="415" y="-65.5" font-family="Helvetica,sans-Serif" font-size="10.00" fill="#000000">openage.cabextract.cab.CABFolder</text>
<text text-anchor="middle" x="493" y="-54.5" font-family="Helvetica,sans-Serif" font-size="10.00" fill="#000000">Stream.read_block_data</text>
</a>
</g>
</g>
<!-- Node55&#45;&gt;Node56 -->
<g id="edge2" class="edge">
<title>Node55&#45;&gt;Node56</title>
<path fill="none" stroke="#191970" d="M381.0871,-50.7466C389.6874,-51.6498 398.3076,-52.5551 406.7352,-53.4402"/>
<polygon fill="#191970" stroke="#191970" points="381.3239,-47.2523 371.013,-49.6886 380.5927,-54.214 381.3239,-47.2523"/>
</g>
<!-- Node61 -->
<g id="node8" class="node">
<title>Node61</title>
<g id="a_node8"><a xlink:href="../../d9/de8/classopenage_1_1util_1_1filelike_1_1stream_1_1_stream_fragment.xhtml#a2c451557a21c0bb2481bd4a8da2f6df5" target="_top" xlink:title="openage.util.filelike.stream.\lStreamFragment.read">
<polygon fill="#ffffff" stroke="#000000" points="633,-.5 633,-30.5 769,-30.5 769,-.5 633,-.5"/>
<text text-anchor="start" x="641" y="-18.5" font-family="Helvetica,sans-Serif" font-size="10.00" fill="#000000">openage.util.filelike.stream.</text>
<text text-anchor="middle" x="701" y="-7.5" font-family="Helvetica,sans-Serif" font-size="10.00" fill="#000000">StreamFragment.read</text>
</a>
</g>
</g>
<!-- Node55&#45;&gt;Node61 -->
<g id="edge9" class="edge">
<title>Node55&#45;&gt;Node61</title>
<path fill="none" stroke="#191970" d="M381.6219,-33.451C460.495,-29.0178 565.1812,-23.1338 632.8239,-19.3319"/>
<polygon fill="#191970" stroke="#191970" points="380.9477,-29.9833 371.1599,-34.039 381.3406,-36.9722 380.9477,-29.9833"/>
</g>
<!-- Node57 -->
<g id="node4" class="node">
<title>Node57</title>
<g id="a_node4"><a xlink:href="../../de/dbb/classopenage_1_1cabextract_1_1cab_1_1_c_a_b_folder_stream.xhtml#ad9654069c6554f9859298fa5c1e85b73" target="_top" xlink:title="openage.cabextract.cab.CABFolder\lStream.read_blocks">
<polygon fill="#ffffff" stroke="#000000" points="615,-49.5 615,-79.5 787,-79.5 787,-49.5 615,-49.5"/>
<text text-anchor="start" x="623" y="-67.5" font-family="Helvetica,sans-Serif" font-size="10.00" fill="#000000">openage.cabextract.cab.CABFolder</text>
<text text-anchor="middle" x="701" y="-56.5" font-family="Helvetica,sans-Serif" font-size="10.00" fill="#000000">Stream.read_blocks</text>
</a>
</g>
</g>
<!-- Node56&#45;&gt;Node57 -->
<g id="edge3" class="edge">
<title>Node56&#45;&gt;Node57</title>
<path fill="none" stroke="#191970" d="M589.1603,-63.4246C597.7679,-63.5074 606.4476,-63.5908 614.9616,-63.6727"/>
<polygon fill="#191970" stroke="#191970" points="589.1362,-59.9243 579.103,-63.3279 589.0689,-66.924 589.1362,-59.9243"/>
</g>
<!-- Node58 -->
<g id="node5" class="node">
<title>Node58</title>
<g id="a_node5"><a xlink:href="../../de/dbb/classopenage_1_1cabextract_1_1cab_1_1_c_a_b_folder_stream.xhtml#aa01e2f0b6657c5c629188cbc3a0e0a57" target="_top" xlink:title="openage.cabextract.cab.CABFolder\lStream.read">
<polygon fill="#ffffff" stroke="#000000" points="823,-49.5 823,-79.5 995,-79.5 995,-49.5 823,-49.5"/>
<text text-anchor="start" x="831" y="-67.5" font-family="Helvetica,sans-Serif" font-size="10.00" fill="#000000">openage.cabextract.cab.CABFolder</text>
<text text-anchor="middle" x="909" y="-56.5" font-family="Helvetica,sans-Serif" font-size="10.00" fill="#000000">Stream.read</text>
</a>
</g>
</g>
<!-- Node57&#45;&gt;Node58 -->
<g id="edge4" class="edge">
<title>Node57&#45;&gt;Node58</title>
<path fill="none" stroke="#191970" d="M797.1603,-64.5C805.7679,-64.5 814.4476,-64.5 822.9616,-64.5"/>
<polygon fill="#191970" stroke="#191970" points="797.103,-61.0001 787.103,-64.5 797.103,-68.0001 797.103,-61.0001"/>
</g>
<!-- Node59 -->
<g id="node6" class="node">
<title>Node59</title>
<g id="a_node6"><a xlink:href="../../d4/db1/classopenage_1_1convert_1_1dataformat_1_1exportable_1_1_exportable.xhtml#aadb76e27d69a7a94abc320498c316efe" target="_top" xlink:title="recursively read defined binary data from raw at given offset. ">
<polygon fill="#ffffff" stroke="#000000" points="1031,-82.5 1031,-112.5 1220,-112.5 1220,-82.5 1031,-82.5"/>
<text text-anchor="start" x="1039" y="-100.5" font-family="Helvetica,sans-Serif" font-size="10.00" fill="#000000">openage.convert.dataformat.exportable.</text>
<text text-anchor="middle" x="1125.5" y="-89.5" font-family="Helvetica,sans-Serif" font-size="10.00" fill="#000000">Exportable.read</text>
</a>
</g>
</g>
<!-- Node58&#45;&gt;Node59 -->
<g id="edge5" class="edge">
<title>Node58&#45;&gt;Node59</title>
<path fill="none" stroke="#191970" d="M1005.1106,-79.1497C1013.6132,-80.4457 1022.217,-81.7571 1030.7085,-83.0514"/>
<polygon fill="#191970" stroke="#191970" points="1005.6019,-75.6842 995.1886,-77.6373 1004.547,-82.6043 1005.6019,-75.6842"/>
</g>
<!-- Node60 -->
<g id="node7" class="node">
<title>Node60</title>
<g id="a_node7"><a xlink:href="../../df/da3/classopenage_1_1convert_1_1peresource_1_1_string_literal.xhtml#afe54133fe4a7d4cb75352a250a11a024" target="_top" xlink:title="In addition to the static data, reads the string. ">
<polygon fill="#ffffff" stroke="#000000" points="1256,-38.5 1256,-68.5 1399,-68.5 1399,-38.5 1256,-38.5"/>
<text text-anchor="start" x="1264" y="-56.5" font-family="Helvetica,sans-Serif" font-size="10.00" fill="#000000">openage.convert.peresource.</text>
<text text-anchor="middle" x="1327.5" y="-45.5" font-family="Helvetica,sans-Serif" font-size="10.00" fill="#000000">StringLiteral.readall</text>
</a>
</g>
</g>
<!-- Node58&#45;&gt;Node60 -->
<g id="edge8" class="edge">
<title>Node58&#45;&gt;Node60</title>
<path fill="none" stroke="#191970" d="M1005.3073,-61.9686C1081.6299,-59.9625 1186.5757,-57.2041 1255.6758,-55.3879"/>
<polygon fill="#191970" stroke="#191970" points="1005.1106,-58.4725 995.206,-62.2341 1005.2946,-65.4701 1005.1106,-58.4725"/>
</g>
<!-- Node59&#45;&gt;Node59 -->
<g id="edge6" class="edge">
<title>Node59&#45;&gt;Node59</title>
<path fill="none" stroke="#191970" d="M1089.607,-122.9579C1094.0619,-127.679 1106.0262,-131 1125.5,-131 1157.457,-131 1169.1913,-122.0566 1160.7027,-112.659"/>
<polygon fill="#191970" stroke="#191970" points="1093.1206,-122.8707 1090.2973,-112.659 1086.1363,-122.4025 1093.1206,-122.8707"/>
</g>
<!-- Node59&#45;&gt;Node60 -->
<g id="edge7" class="edge">
<title>Node59&#45;&gt;Node60</title>
<path fill="none" stroke="#191970" d="M1204.2803,-80.3399C1222.1802,-76.441 1241.0597,-72.3286 1258.5161,-68.5262"/>
<polygon fill="#191970" stroke="#191970" points="1203.4779,-76.9326 1194.452,-82.4808 1204.9678,-83.7722 1203.4779,-76.9326"/>
</g>
<!-- Node61&#45;&gt;Node60 -->
<g id="edge10" class="edge">
<title>Node61&#45;&gt;Node60</title>
<path fill="none" stroke="#191970" d="M779.312,-20.25C901.9843,-27.6906 1137.6406,-41.9842 1255.9842,-49.1622"/>
<polygon fill="#191970" stroke="#191970" points="779.4327,-16.7509 769.2391,-19.639 779.0088,-23.7381 779.4327,-16.7509"/>
</g>
</g>
</svg>
