<?xml version="1.0" encoding="UTF-8" standalone="no"?>
<!DOCTYPE svg PUBLIC "-//W3C//DTD SVG 1.1//EN"
 "http://www.w3.org/Graphics/SVG/1.1/DTD/svg11.dtd">
<!-- Generated by graphviz version 2.40.1 (20161225.0304)
 -->
<!-- Title: openage.util.filelike.abstract.FileLikeObject.writable Pages: 1 -->
<svg width="322pt" height="88pt"
 viewBox="0.00 0.00 322.00 88.00" xmlns="http://www.w3.org/2000/svg" xmlns:xlink="http://www.w3.org/1999/xlink">
<g id="graph0" class="graph" transform="scale(1 1) rotate(0) translate(4 84)">
<title>openage.util.filelike.abstract.FileLikeObject.writable</title>
<polygon fill="#ffffff" stroke="transparent" points="-4,4 -4,-84 318,-84 318,4 -4,4"/>
<!-- Node75 -->
<g id="node1" class="node">
<title>Node75</title>
<polygon fill="#bfbfbf" stroke="#000000" points="0,-24.5 0,-54.5 141,-54.5 141,-24.5 0,-24.5"/>
<text text-anchor="start" x="8" y="-42.5" font-family="Helvetica,sans-Serif" font-size="10.00" fill="#000000">openage.util.filelike.abstract.</text>
<text text-anchor="middle" x="70.5" y="-31.5" font-family="Helvetica,sans-Serif" font-size="10.00" fill="#000000">FileLikeObject.writable</text>
</g>
<!-- Node76 -->
<g id="node2" class="node">
<title>Node76</title>
<g id="a_node2"><a xlink:href="../../db/d90/classopenage_1_1util_1_1fslike_1_1wrapper_1_1_wrapper.xhtml#a9477182385b8db4a3b2874a9360b690f" target="_top" xlink:title="openage.util.fslike.wrapper.\lWrapper.resolve_w">
<polygon fill="#ffffff" stroke="#000000" points="177.5,-49.5 177.5,-79.5 313.5,-79.5 313.5,-49.5 177.5,-49.5"/>
<text text-anchor="start" x="185.5" y="-67.5" font-family="Helvetica,sans-Serif" font-size="10.00" fill="#000000">openage.util.fslike.wrapper.</text>
<text text-anchor="middle" x="245.5" y="-56.5" font-family="Helvetica,sans-Serif" font-size="10.00" fill="#000000">Wrapper.resolve_w</text>
</a>
</g>
</g>
<!-- Node75&#45;&gt;Node76 -->
<g id="edge1" class="edge">
<title>Node75&#45;&gt;Node76</title>
<path fill="none" stroke="#191970" d="M151.3421,-51.0489C160.0556,-52.2937 168.8577,-53.5511 177.4,-54.7714"/>
<polygon fill="#191970" stroke="#191970" points="151.5693,-47.5459 141.1748,-49.5964 150.5793,-54.4755 151.5693,-47.5459"/>
</g>
<!-- Node77 -->
<g id="node3" class="node">
<title>Node77</title>
<g id="a_node3"><a xlink:href="../../d3/d76/classopenage_1_1util_1_1fslike_1_1abstract_1_1_f_s_like_object.xhtml#a255427aef3f55eea705114af7d7c107f" target="_top" xlink:title="Returns a new flattened path. ">
<polygon fill="#ffffff" stroke="#000000" points="177,-.5 177,-30.5 314,-30.5 314,-.5 177,-.5"/>
<text text-anchor="start" x="185" y="-18.5" font-family="Helvetica,sans-Serif" font-size="10.00" fill="#000000">openage.util.fslike.abstract.</text>
<text text-anchor="middle" x="245.5" y="-7.5" font-family="Helvetica,sans-Serif" font-size="10.00" fill="#000000">FSLikeObject.resolve_w</text>
</a>
</g>
</g>
<!-- Node75&#45;&gt;Node77 -->
<g id="edge2" class="edge">
<title>Node75&#45;&gt;Node77</title>
<path fill="none" stroke="#191970" d="M151.1798,-28.4353C159.7539,-27.2595 168.4159,-26.0715 176.8337,-24.9171"/>
<polygon fill="#191970" stroke="#191970" points="150.6065,-24.9811 141.1748,-29.8075 151.5576,-31.9162 150.6065,-24.9811"/>
</g>
</g>
</svg>
