<?xml version="1.0" encoding="UTF-8" standalone="no"?>
<!DOCTYPE svg PUBLIC "-//W3C//DTD SVG 1.1//EN"
 "http://www.w3.org/Graphics/SVG/1.1/DTD/svg11.dtd">
<!-- Generated by graphviz version 2.40.1 (20161225.0304)
 -->
<!-- Title: openage::log::LogSink Pages: 1 -->
<svg width="411pt" height="215pt"
 viewBox="0.00 0.00 411.00 215.00" xmlns="http://www.w3.org/2000/svg" xmlns:xlink="http://www.w3.org/1999/xlink">
<g id="graph0" class="graph" transform="scale(1 1) rotate(0) translate(4 211)">
<title>openage::log::LogSink</title>
<polygon fill="#ffffff" stroke="transparent" points="-4,4 -4,-211 407,-211 407,4 -4,4"/>
<!-- Node0 -->
<g id="node1" class="node">
<title>Node0</title>
<polygon fill="#bfbfbf" stroke="#000000" points="142,-116.5 142,-206.5 261,-206.5 261,-116.5 142,-116.5"/>
<text text-anchor="middle" x="201.5" y="-194.5" font-family="Helvetica,sans-Serif" font-size="10.00" fill="#000000">openage::log::LogSink</text>
<polyline fill="none" stroke="#000000" points="142,-187.5 261,-187.5 "/>
<text text-anchor="start" x="150" y="-175.5" font-family="Helvetica,sans-Serif" font-size="10.00" fill="#000000">&#45; loglevel</text>
<polyline fill="none" stroke="#000000" points="142,-168.5 261,-168.5 "/>
<text text-anchor="start" x="150" y="-156.5" font-family="Helvetica,sans-Serif" font-size="10.00" fill="#000000">+ LogSink()</text>
<text text-anchor="start" x="150" y="-145.5" font-family="Helvetica,sans-Serif" font-size="10.00" fill="#000000">+ ~LogSink()</text>
<text text-anchor="start" x="150" y="-134.5" font-family="Helvetica,sans-Serif" font-size="10.00" fill="#000000">+ set_loglevel()</text>
<text text-anchor="start" x="150" y="-123.5" font-family="Helvetica,sans-Serif" font-size="10.00" fill="#000000">&#45; output_log_message()</text>
</g>
<!-- Node1 -->
<g id="node2" class="node">
<title>Node1</title>
<g id="a_node2"><a xlink:href="../../d0/ddf/classopenage_1_1log_1_1_file_sink.xhtml" target="_top" xlink:title="{openage::log::FileSink\n|&#45; outfile\l|+ FileSink()\l&#45; output_log_message()\l}">
<polygon fill="#ffffff" stroke="#000000" points="0,-6 0,-74 119,-74 119,-6 0,-6"/>
<text text-anchor="middle" x="59.5" y="-62" font-family="Helvetica,sans-Serif" font-size="10.00" fill="#000000">openage::log::FileSink</text>
<polyline fill="none" stroke="#000000" points="0,-55 119,-55 "/>
<text text-anchor="start" x="8" y="-43" font-family="Helvetica,sans-Serif" font-size="10.00" fill="#000000">&#45; outfile</text>
<polyline fill="none" stroke="#000000" points="0,-36 119,-36 "/>
<text text-anchor="start" x="8" y="-24" font-family="Helvetica,sans-Serif" font-size="10.00" fill="#000000">+ FileSink()</text>
<text text-anchor="start" x="8" y="-13" font-family="Helvetica,sans-Serif" font-size="10.00" fill="#000000">&#45; output_log_message()</text>
</a>
</g>
</g>
<!-- Node0&#45;&gt;Node1 -->
<g id="edge1" class="edge">
<title>Node0&#45;&gt;Node1</title>
<path fill="none" stroke="#191970" d="M140.9251,-109.67C126.9385,-97.7026 112.4001,-85.2631 99.5452,-74.264"/>
<polygon fill="none" stroke="#191970" points="138.7507,-112.4159 148.6244,-116.2579 143.3017,-107.0972 138.7507,-112.4159"/>
</g>
<!-- Node2 -->
<g id="node3" class="node">
<title>Node2</title>
<g id="a_node3"><a xlink:href="../../d8/d8d/classopenage_1_1log_1_1_std_out_sink.xhtml" target="_top" xlink:title="Simple logsink that prints messages to stdout (via std::cout). ">
<polygon fill="#ffffff" stroke="#000000" points="137.5,-6 137.5,-74 265.5,-74 265.5,-6 137.5,-6"/>
<text text-anchor="middle" x="201.5" y="-62" font-family="Helvetica,sans-Serif" font-size="10.00" fill="#000000">openage::log::StdOutSink</text>
<polyline fill="none" stroke="#000000" points="137.5,-55 265.5,-55 "/>
<text text-anchor="middle" x="201.5" y="-43" font-family="Helvetica,sans-Serif" font-size="10.00" fill="#000000"> </text>
<polyline fill="none" stroke="#000000" points="137.5,-36 265.5,-36 "/>
<text text-anchor="start" x="145.5" y="-24" font-family="Helvetica,sans-Serif" font-size="10.00" fill="#000000">+ StdOutSink()</text>
<text text-anchor="start" x="145.5" y="-13" font-family="Helvetica,sans-Serif" font-size="10.00" fill="#000000">&#45; output_log_message()</text>
</a>
</g>
</g>
<!-- Node0&#45;&gt;Node2 -->
<g id="edge2" class="edge">
<title>Node0&#45;&gt;Node2</title>
<path fill="none" stroke="#191970" d="M201.5,-106.0007C201.5,-95.1836 201.5,-84.1429 201.5,-74.264"/>
<polygon fill="none" stroke="#191970" points="198.0001,-106.2579 201.5,-116.2579 205.0001,-106.2579 198.0001,-106.2579"/>
</g>
<!-- Node3 -->
<g id="node4" class="node">
<title>Node3</title>
<g id="a_node4"><a xlink:href="../../d3/d09/classopenage_1_1log_1_1tests_1_1_test_log_sink.xhtml" target="_top" xlink:title="{openage::log::tests\l::TestLogSink\n|&#45; os\l|+ TestLogSink()\l&#45; output_log_message()\l}">
<polygon fill="#ffffff" stroke="#000000" points="284,-.5 284,-79.5 403,-79.5 403,-.5 284,-.5"/>
<text text-anchor="start" x="292" y="-67.5" font-family="Helvetica,sans-Serif" font-size="10.00" fill="#000000">openage::log::tests</text>
<text text-anchor="middle" x="343.5" y="-56.5" font-family="Helvetica,sans-Serif" font-size="10.00" fill="#000000">::TestLogSink</text>
<polyline fill="none" stroke="#000000" points="284,-49.5 403,-49.5 "/>
<text text-anchor="start" x="292" y="-37.5" font-family="Helvetica,sans-Serif" font-size="10.00" fill="#000000">&#45; os</text>
<polyline fill="none" stroke="#000000" points="284,-30.5 403,-30.5 "/>
<text text-anchor="start" x="292" y="-18.5" font-family="Helvetica,sans-Serif" font-size="10.00" fill="#000000">+ TestLogSink()</text>
<text text-anchor="start" x="292" y="-7.5" font-family="Helvetica,sans-Serif" font-size="10.00" fill="#000000">&#45; output_log_message()</text>
</a>
</g>
</g>
<!-- Node0&#45;&gt;Node3 -->
<g id="edge3" class="edge">
<title>Node0&#45;&gt;Node3</title>
<path fill="none" stroke="#191970" d="M262.0259,-109.712C273.7746,-99.6594 285.9145,-89.2721 297.1206,-79.6838"/>
<polygon fill="none" stroke="#191970" points="259.6983,-107.0972 254.3756,-116.2579 264.2493,-112.4159 259.6983,-107.0972"/>
</g>
</g>
</svg>
