<?xml version="1.0" encoding="UTF-8" standalone="no"?>
<!DOCTYPE svg PUBLIC "-//W3C//DTD SVG 1.1//EN"
 "http://www.w3.org/Graphics/SVG/1.1/DTD/svg11.dtd">
<!-- Generated by graphviz version 2.40.1 (20161225.0304)
 -->
<!-- Title: openage::util::FixedPoint::sqrt Pages: 1 -->
<svg width="869pt" height="304pt"
 viewBox="0.00 0.00 869.00 304.42" xmlns="http://www.w3.org/2000/svg" xmlns:xlink="http://www.w3.org/1999/xlink">
<g id="graph0" class="graph" transform="scale(1 1) rotate(0) translate(4 300.4195)">
<title>openage::util::FixedPoint::sqrt</title>
<polygon fill="#ffffff" stroke="transparent" points="-4,4 -4,-300.4195 865,-300.4195 865,4 -4,4"/>
<!-- Node274 -->
<g id="node1" class="node">
<title>Node274</title>
<polygon fill="#bfbfbf" stroke="#000000" points="0,-142.5 0,-172.5 125,-172.5 125,-142.5 0,-142.5"/>
<text text-anchor="start" x="8" y="-160.5" font-family="Helvetica,sans-Serif" font-size="10.00" fill="#000000">openage::util::FixedPoint</text>
<text text-anchor="middle" x="62.5" y="-149.5" font-family="Helvetica,sans-Serif" font-size="10.00" fill="#000000">::sqrt</text>
</g>
<!-- Node275 -->
<g id="node2" class="node">
<title>Node275</title>
<g id="a_node2"><a xlink:href="../../d8/dcc/namespacestd.xhtml#a0fc492a11cf74e80f976b24bea2a2eb2" target="_top" xlink:title="std::sqrt">
<polygon fill="#ffffff" stroke="#000000" points="161,-148 161,-167 214,-167 214,-148 161,-148"/>
<text text-anchor="middle" x="187.5" y="-155" font-family="Helvetica,sans-Serif" font-size="10.00" fill="#000000">std::sqrt</text>
</a>
</g>
</g>
<!-- Node274&#45;&gt;Node275 -->
<g id="edge1" class="edge">
<title>Node274&#45;&gt;Node275</title>
<path fill="none" stroke="#191970" d="M135.5942,-150.8369C144.5766,-150.9857 153.2582,-151.3251 160.8676,-151.8554"/>
<polygon fill="#191970" stroke="#191970" points="135.3956,-147.3352 125.3662,-150.7501 135.3361,-154.335 135.3956,-147.3352"/>
</g>
<!-- Node275&#45;&gt;Node274 -->
<g id="edge7" class="edge">
<title>Node275&#45;&gt;Node274</title>
<path fill="none" stroke="#191970" d="M150.7857,-163.711C142.7728,-164.0654 134.0743,-164.245 125.3662,-164.2499"/>
<polygon fill="#191970" stroke="#191970" points="151.0797,-167.2001 160.8676,-163.1446 150.687,-160.2112 151.0797,-167.2001"/>
</g>
<!-- Node276 -->
<g id="node3" class="node">
<title>Node276</title>
<g id="a_node3"><a xlink:href="../../d4/d15/classopenage_1_1_terrain.xhtml#a16e91ba2a775715dc81088e47e508786" target="_top" xlink:title="create rendering and blending information for a single tile on the terrain. ">
<polygon fill="#ffffff" stroke="#000000" points="421.5,-247.5 421.5,-277.5 543.5,-277.5 543.5,-247.5 421.5,-247.5"/>
<text text-anchor="start" x="429.5" y="-265.5" font-family="Helvetica,sans-Serif" font-size="10.00" fill="#000000">openage::Terrain::create</text>
<text text-anchor="middle" x="482.5" y="-254.5" font-family="Helvetica,sans-Serif" font-size="10.00" fill="#000000">_tile_advice</text>
</a>
</g>
</g>
<!-- Node275&#45;&gt;Node276 -->
<g id="edge2" class="edge">
<title>Node275&#45;&gt;Node276</title>
<path fill="none" stroke="#191970" d="M191.3794,-177.1586C198.0021,-204.772 214.3889,-254.0639 250,-275.5 309.4018,-311.2568 393.5594,-293.2707 442.6446,-277.5014"/>
<polygon fill="#191970" stroke="#191970" points="194.7362,-176.1261 189.1734,-167.1092 187.899,-177.6271 194.7362,-176.1261"/>
</g>
<!-- Node279 -->
<g id="node6" class="node">
<title>Node279</title>
<g id="a_node6"><a xlink:href="../../d4/d15/classopenage_1_1_terrain.xhtml#a72f81eb7623d4ade8272f8163bfcb4d9" target="_top" xlink:title="calculate blending masks for a given tile position. ">
<polygon fill="#ffffff" stroke="#000000" points="250,-235.5 250,-265.5 384,-265.5 384,-235.5 250,-235.5"/>
<text text-anchor="start" x="258" y="-253.5" font-family="Helvetica,sans-Serif" font-size="10.00" fill="#000000">openage::Terrain::calculate</text>
<text text-anchor="middle" x="317" y="-242.5" font-family="Helvetica,sans-Serif" font-size="10.00" fill="#000000">_masks</text>
</a>
</g>
</g>
<!-- Node275&#45;&gt;Node279 -->
<g id="edge5" class="edge">
<title>Node275&#45;&gt;Node279</title>
<path fill="none" stroke="#191970" d="M199.9206,-175.6066C211.3392,-191.0392 229.5584,-212.8316 250,-226.5 255.0328,-229.8652 260.5937,-232.8215 266.296,-235.4021"/>
<polygon fill="#191970" stroke="#191970" points="202.6861,-173.4568 194.018,-167.3645 196.9949,-177.5325 202.6861,-173.4568"/>
</g>
<!-- Node280 -->
<g id="node7" class="node">
<title>Node280</title>
<g id="a_node7"><a xlink:href="../../d5/d3c/namespaceopenage_1_1util_1_1tests.xhtml#a66cf54ea365e3f8f1357577ddaa1adfb" target="_top" xlink:title="openage::util::tests\l::fixed_point">
<polygon fill="#ffffff" stroke="#000000" points="267,-186.5 267,-216.5 367,-216.5 367,-186.5 267,-186.5"/>
<text text-anchor="start" x="275" y="-204.5" font-family="Helvetica,sans-Serif" font-size="10.00" fill="#000000">openage::util::tests</text>
<text text-anchor="middle" x="317" y="-193.5" font-family="Helvetica,sans-Serif" font-size="10.00" fill="#000000">::fixed_point</text>
</a>
</g>
</g>
<!-- Node275&#45;&gt;Node280 -->
<g id="edge8" class="edge">
<title>Node275&#45;&gt;Node280</title>
<path fill="none" stroke="#191970" d="M223.5889,-169.7619C238.8034,-174.9313 256.663,-180.9994 272.6684,-186.4375"/>
<polygon fill="#191970" stroke="#191970" points="224.6131,-166.4134 214.0188,-166.5102 222.3612,-173.0413 224.6131,-166.4134"/>
</g>
<!-- Node281 -->
<g id="node8" class="node">
<title>Node281</title>
<g id="a_node8"><a xlink:href="../../df/dc9/namespaceopenage_1_1math.xhtml#a29c55215e73408c49f2654261fd73d8e" target="_top" xlink:title="openage::math::hypot3">
<polygon fill="#ffffff" stroke="#000000" points="259,-148 259,-167 375,-167 375,-148 259,-148"/>
<text text-anchor="middle" x="317" y="-155" font-family="Helvetica,sans-Serif" font-size="10.00" fill="#000000">openage::math::hypot3</text>
</a>
</g>
</g>
<!-- Node275&#45;&gt;Node281 -->
<g id="edge9" class="edge">
<title>Node275&#45;&gt;Node281</title>
<path fill="none" stroke="#191970" d="M224.3307,-157.5C235.1283,-157.5 247.207,-157.5 258.9853,-157.5"/>
<polygon fill="#191970" stroke="#191970" points="224.0188,-154.0001 214.0188,-157.5 224.0187,-161.0001 224.0188,-154.0001"/>
</g>
<!-- Node285 -->
<g id="node12" class="node">
<title>Node285</title>
<g id="a_node12"><a xlink:href="../../d4/d43/classopenage_1_1util_1_1_quaternion.xhtml#aa16fe3c08c498d69f102951ae67fc4ca" target="_top" xlink:title="Constructs a quaternion from a rotation matrix. ">
<polygon fill="#ffffff" stroke="#000000" points="254.5,-98.5 254.5,-128.5 379.5,-128.5 379.5,-98.5 254.5,-98.5"/>
<text text-anchor="start" x="262.5" y="-116.5" font-family="Helvetica,sans-Serif" font-size="10.00" fill="#000000">openage::util::Quaternion</text>
<text text-anchor="middle" x="317" y="-105.5" font-family="Helvetica,sans-Serif" font-size="10.00" fill="#000000">::Quaternion</text>
</a>
</g>
</g>
<!-- Node275&#45;&gt;Node285 -->
<g id="edge13" class="edge">
<title>Node275&#45;&gt;Node285</title>
<path fill="none" stroke="#191970" d="M223.5889,-145.2381C238.8034,-140.0687 256.663,-134.0006 272.6684,-128.5625"/>
<polygon fill="#191970" stroke="#191970" points="222.3612,-141.9587 214.0188,-148.4898 224.6131,-148.5866 222.3612,-141.9587"/>
</g>
<!-- Node286 -->
<g id="node13" class="node">
<title>Node286</title>
<g id="a_node13"><a xlink:href="../../d4/d43/classopenage_1_1util_1_1_quaternion.xhtml#a82f95e1d240ee7f39982060a17fe37ec" target="_top" xlink:title="Calculate the length of the quaternion. ">
<polygon fill="#ffffff" stroke="#000000" points="254.5,-49.5 254.5,-79.5 379.5,-79.5 379.5,-49.5 254.5,-49.5"/>
<text text-anchor="start" x="262.5" y="-67.5" font-family="Helvetica,sans-Serif" font-size="10.00" fill="#000000">openage::util::Quaternion</text>
<text text-anchor="middle" x="317" y="-56.5" font-family="Helvetica,sans-Serif" font-size="10.00" fill="#000000">::norm</text>
</a>
</g>
</g>
<!-- Node275&#45;&gt;Node286 -->
<g id="edge14" class="edge">
<title>Node275&#45;&gt;Node286</title>
<path fill="none" stroke="#191970" d="M200.0205,-139.7296C211.5033,-124.568 229.7607,-103.1196 250,-89.5 255.5622,-85.7571 261.7589,-82.4808 268.0751,-79.6409"/>
<polygon fill="#191970" stroke="#191970" points="197.1752,-137.691 194.0787,-147.8233 202.8179,-141.8335 197.1752,-137.691"/>
</g>
<!-- Node290 -->
<g id="node17" class="node">
<title>Node290</title>
<g id="a_node17"><a xlink:href="../../df/da8/classopenage_1_1util_1_1_vector.xhtml#a5b3b46a13e28d59eaefacf1549269f9b" target="_top" xlink:title="Euclidian norm aka length. ">
<polygon fill="#ffffff" stroke="#000000" points="263.5,-.5 263.5,-30.5 370.5,-30.5 370.5,-.5 263.5,-.5"/>
<text text-anchor="start" x="271.5" y="-18.5" font-family="Helvetica,sans-Serif" font-size="10.00" fill="#000000">openage::util::Vector</text>
<text text-anchor="middle" x="317" y="-7.5" font-family="Helvetica,sans-Serif" font-size="10.00" fill="#000000">::norm</text>
</a>
</g>
</g>
<!-- Node275&#45;&gt;Node290 -->
<g id="edge18" class="edge">
<title>Node275&#45;&gt;Node290</title>
<path fill="none" stroke="#191970" d="M192.9784,-137.9028C201.2098,-111.9046 219.1824,-66.1949 250,-39.5 254.0158,-36.0214 258.5729,-33.0343 263.3761,-30.4717"/>
<polygon fill="#191970" stroke="#191970" points="189.5529,-137.1414 190.0379,-147.7251 196.2589,-139.1489 189.5529,-137.1414"/>
</g>
<!-- Node277 -->
<g id="node4" class="node">
<title>Node277</title>
<g id="a_node4"><a xlink:href="../../d4/d15/classopenage_1_1_terrain.xhtml#ab0736d57ce5014c9caea96125ad87b0d" target="_top" xlink:title="create the drawing instruction data. ">
<polygon fill="#ffffff" stroke="#000000" points="584,-247.5 584,-277.5 706,-277.5 706,-247.5 584,-247.5"/>
<text text-anchor="start" x="592" y="-265.5" font-family="Helvetica,sans-Serif" font-size="10.00" fill="#000000">openage::Terrain::create</text>
<text text-anchor="middle" x="645" y="-254.5" font-family="Helvetica,sans-Serif" font-size="10.00" fill="#000000">_draw_advice</text>
</a>
</g>
</g>
<!-- Node276&#45;&gt;Node277 -->
<g id="edge3" class="edge">
<title>Node276&#45;&gt;Node277</title>
<path fill="none" stroke="#191970" d="M554.1334,-262.5C564.0111,-262.5 574.0812,-262.5 583.7484,-262.5"/>
<polygon fill="#191970" stroke="#191970" points="553.9343,-259.0001 543.9343,-262.5 553.9342,-266.0001 553.9343,-259.0001"/>
</g>
<!-- Node278 -->
<g id="node5" class="node">
<title>Node278</title>
<g id="a_node5"><a xlink:href="../../d4/d15/classopenage_1_1_terrain.xhtml#ae8e6bd38cdaa86dcff31251de1c6deec" target="_top" xlink:title="draw the currently visible terrain area on screen. ">
<polygon fill="#ffffff" stroke="#000000" points="745,-253 745,-272 861,-272 861,-253 745,-253"/>
<text text-anchor="middle" x="803" y="-260" font-family="Helvetica,sans-Serif" font-size="10.00" fill="#000000">openage::Terrain::draw</text>
</a>
</g>
</g>
<!-- Node277&#45;&gt;Node278 -->
<g id="edge4" class="edge">
<title>Node277&#45;&gt;Node278</title>
<path fill="none" stroke="#191970" d="M716.3718,-262.5C725.9291,-262.5 735.6368,-262.5 744.9282,-262.5"/>
<polygon fill="#191970" stroke="#191970" points="716.087,-259.0001 706.0869,-262.5 716.0869,-266.0001 716.087,-259.0001"/>
</g>
<!-- Node279&#45;&gt;Node276 -->
<g id="edge6" class="edge">
<title>Node279&#45;&gt;Node276</title>
<path fill="none" stroke="#191970" d="M394.4545,-256.116C403.4873,-256.771 412.6046,-257.4321 421.3735,-258.0679"/>
<polygon fill="#191970" stroke="#191970" points="394.5421,-252.6133 384.3152,-255.3809 394.0359,-259.595 394.5421,-252.6133"/>
</g>
<!-- Node282 -->
<g id="node9" class="node">
<title>Node282</title>
<g id="a_node9"><a xlink:href="../../d9/d0c/classopenage_1_1_unit_texture.xhtml#ae0fe182788f2f7b1f346abf32cbac39a" target="_top" xlink:title="draw object with direction ">
<polygon fill="#ffffff" stroke="#000000" points="427.5,-179.5 427.5,-209.5 537.5,-209.5 537.5,-179.5 427.5,-179.5"/>
<text text-anchor="start" x="435.5" y="-197.5" font-family="Helvetica,sans-Serif" font-size="10.00" fill="#000000">openage::UnitTexture</text>
<text text-anchor="middle" x="482.5" y="-186.5" font-family="Helvetica,sans-Serif" font-size="10.00" fill="#000000">::draw</text>
</a>
</g>
</g>
<!-- Node281&#45;&gt;Node282 -->
<g id="edge10" class="edge">
<title>Node281&#45;&gt;Node282</title>
<path fill="none" stroke="#191970" d="M369.5651,-169.2517C387.9421,-173.3602 408.6206,-177.9832 427.213,-182.1398"/>
<polygon fill="#191970" stroke="#191970" points="370.1431,-165.7946 359.6204,-167.0284 368.6158,-172.626 370.1431,-165.7946"/>
</g>
<!-- Node283 -->
<g id="node10" class="node">
<title>Node283</title>
<g id="a_node10"><a xlink:href="../../d4/d49/structopenage_1_1coord_1_1phys3__delta.xhtml#af63b7f5b841ffab9004b2ffd3550ab9e" target="_top" xlink:title="openage::coord::phys3\l_delta::length">
<polygon fill="#ffffff" stroke="#000000" points="424.5,-130.5 424.5,-160.5 540.5,-160.5 540.5,-130.5 424.5,-130.5"/>
<text text-anchor="start" x="432.5" y="-148.5" font-family="Helvetica,sans-Serif" font-size="10.00" fill="#000000">openage::coord::phys3</text>
<text text-anchor="middle" x="482.5" y="-137.5" font-family="Helvetica,sans-Serif" font-size="10.00" fill="#000000">_delta::length</text>
</a>
</g>
</g>
<!-- Node281&#45;&gt;Node283 -->
<g id="edge11" class="edge">
<title>Node281&#45;&gt;Node283</title>
<path fill="none" stroke="#191970" d="M385.5711,-152.5281C398.475,-151.5924 411.853,-150.6224 424.3991,-149.7128"/>
<polygon fill="#191970" stroke="#191970" points="385.0698,-149.0551 375.3491,-153.2692 385.5761,-156.0368 385.0698,-149.0551"/>
</g>
<!-- Node284 -->
<g id="node11" class="node">
<title>Node284</title>
<g id="a_node11"><a xlink:href="../../d5/d14/classopenage_1_1_projectile_action.xhtml#ad5f60eb378fa84cbccd6fa61f221c7e5" target="_top" xlink:title="openage::ProjectileAction\l::ProjectileAction">
<polygon fill="#ffffff" stroke="#000000" points="581,-130.5 581,-160.5 709,-160.5 709,-130.5 581,-130.5"/>
<text text-anchor="start" x="589" y="-148.5" font-family="Helvetica,sans-Serif" font-size="10.00" fill="#000000">openage::ProjectileAction</text>
<text text-anchor="middle" x="645" y="-137.5" font-family="Helvetica,sans-Serif" font-size="10.00" fill="#000000">::ProjectileAction</text>
</a>
</g>
</g>
<!-- Node283&#45;&gt;Node284 -->
<g id="edge12" class="edge">
<title>Node283&#45;&gt;Node284</title>
<path fill="none" stroke="#191970" d="M550.9257,-145.5C560.8469,-145.5 571.0297,-145.5 580.8623,-145.5"/>
<polygon fill="#191970" stroke="#191970" points="550.7073,-142.0001 540.7072,-145.5 550.7072,-149.0001 550.7073,-142.0001"/>
</g>
<!-- Node287 -->
<g id="node14" class="node">
<title>Node287</title>
<g id="a_node14"><a xlink:href="../../d4/d43/classopenage_1_1util_1_1_quaternion.xhtml#a1ea971d2f39920e062b0b91971296b65" target="_top" xlink:title="Ensure that the quaternion&#39;s length equals 1. ">
<polygon fill="#ffffff" stroke="#000000" points="420,-49.5 420,-79.5 545,-79.5 545,-49.5 420,-49.5"/>
<text text-anchor="start" x="428" y="-67.5" font-family="Helvetica,sans-Serif" font-size="10.00" fill="#000000">openage::util::Quaternion</text>
<text text-anchor="middle" x="482.5" y="-56.5" font-family="Helvetica,sans-Serif" font-size="10.00" fill="#000000">::normalize</text>
</a>
</g>
</g>
<!-- Node286&#45;&gt;Node287 -->
<g id="edge15" class="edge">
<title>Node286&#45;&gt;Node287</title>
<path fill="none" stroke="#191970" d="M389.8835,-64.5C399.8733,-64.5 410.0577,-64.5 419.8431,-64.5"/>
<polygon fill="#191970" stroke="#191970" points="389.5685,-61.0001 379.5685,-64.5 389.5684,-68.0001 389.5685,-61.0001"/>
</g>
<!-- Node288 -->
<g id="node15" class="node">
<title>Node288</title>
<g id="a_node15"><a xlink:href="../../d4/d43/classopenage_1_1util_1_1_quaternion.xhtml#adaf56c826ceec78d0f4980148ce498fa" target="_top" xlink:title="Return the normalized version of this quaternion. ">
<polygon fill="#ffffff" stroke="#000000" points="582.5,-49.5 582.5,-79.5 707.5,-79.5 707.5,-49.5 582.5,-49.5"/>
<text text-anchor="start" x="590.5" y="-67.5" font-family="Helvetica,sans-Serif" font-size="10.00" fill="#000000">openage::util::Quaternion</text>
<text text-anchor="middle" x="645" y="-56.5" font-family="Helvetica,sans-Serif" font-size="10.00" fill="#000000">::normalized</text>
</a>
</g>
</g>
<!-- Node287&#45;&gt;Node288 -->
<g id="edge16" class="edge">
<title>Node287&#45;&gt;Node288</title>
<path fill="none" stroke="#191970" d="M555.3968,-64.5C564.389,-64.5 573.5191,-64.5 582.3403,-64.5"/>
<polygon fill="#191970" stroke="#191970" points="555.3268,-61.0001 545.3267,-64.5 555.3267,-68.0001 555.3268,-61.0001"/>
</g>
<!-- Node289 -->
<g id="node16" class="node">
<title>Node289</title>
<g id="a_node16"><a xlink:href="../../d5/d3c/namespaceopenage_1_1util_1_1tests.xhtml#ab3f1d081c603b383598beeee8e4429df" target="_top" xlink:title="openage::util::tests\l::quaternion">
<polygon fill="#ffffff" stroke="#000000" points="753,-49.5 753,-79.5 853,-79.5 853,-49.5 753,-49.5"/>
<text text-anchor="start" x="761" y="-67.5" font-family="Helvetica,sans-Serif" font-size="10.00" fill="#000000">openage::util::tests</text>
<text text-anchor="middle" x="803" y="-56.5" font-family="Helvetica,sans-Serif" font-size="10.00" fill="#000000">::quaternion</text>
</a>
</g>
</g>
<!-- Node288&#45;&gt;Node289 -->
<g id="edge17" class="edge">
<title>Node288&#45;&gt;Node289</title>
<path fill="none" stroke="#191970" d="M718.175,-64.5C729.9484,-64.5 741.8953,-64.5 752.962,-64.5"/>
<polygon fill="#191970" stroke="#191970" points="717.8998,-61.0001 707.8998,-64.5 717.8997,-68.0001 717.8998,-61.0001"/>
</g>
<!-- Node291 -->
<g id="node18" class="node">
<title>Node291</title>
<g id="a_node18"><a xlink:href="../../df/da8/classopenage_1_1util_1_1_vector.xhtml#aae6e40b885d6cdf296bd2568bd2b5e49" target="_top" xlink:title="Scales the Vector so that its norm is 1. ">
<polygon fill="#ffffff" stroke="#000000" points="429,-.5 429,-30.5 536,-30.5 536,-.5 429,-.5"/>
<text text-anchor="start" x="437" y="-18.5" font-family="Helvetica,sans-Serif" font-size="10.00" fill="#000000">openage::util::Vector</text>
<text text-anchor="middle" x="482.5" y="-7.5" font-family="Helvetica,sans-Serif" font-size="10.00" fill="#000000">::normalize</text>
</a>
</g>
</g>
<!-- Node290&#45;&gt;Node291 -->
<g id="edge19" class="edge">
<title>Node290&#45;&gt;Node291</title>
<path fill="none" stroke="#191970" d="M380.9471,-15.5C396.7411,-15.5 413.4999,-15.5 428.7535,-15.5"/>
<polygon fill="#191970" stroke="#191970" points="380.7331,-12.0001 370.7331,-15.5 380.7331,-19.0001 380.7331,-12.0001"/>
</g>
</g>
</svg>
