<?xml version="1.0" encoding="UTF-8" standalone="no"?>
<!DOCTYPE svg PUBLIC "-//W3C//DTD SVG 1.1//EN"
 "http://www.w3.org/Graphics/SVG/1.1/DTD/svg11.dtd">
<!-- Generated by graphviz version 2.40.1 (20161225.0304)
 -->
<!-- Title: openage::util::FixedPoint::min_value Pages: 1 -->
<svg width="303pt" height="50pt"
 viewBox="0.00 0.00 303.00 50.00" xmlns="http://www.w3.org/2000/svg" xmlns:xlink="http://www.w3.org/1999/xlink">
<g id="graph0" class="graph" transform="scale(1 1) rotate(0) translate(4 46)">
<title>openage::util::FixedPoint::min_value</title>
<polygon fill="#ffffff" stroke="transparent" points="-4,4 -4,-46 299,-46 299,4 -4,4"/>
<!-- Node219 -->
<g id="node1" class="node">
<title>Node219</title>
<polygon fill="#bfbfbf" stroke="#000000" points="0,-6 0,-36 125,-36 125,-6 0,-6"/>
<text text-anchor="start" x="8" y="-24" font-family="Helvetica,sans-Serif" font-size="10.00" fill="#000000">openage::util::FixedPoint</text>
<text text-anchor="middle" x="62.5" y="-13" font-family="Helvetica,sans-Serif" font-size="10.00" fill="#000000">::min_value</text>
</g>
<!-- Node220 -->
<g id="node2" class="node">
<title>Node220</title>
<g id="a_node2"><a xlink:href="../../d7/df6/structstd_1_1numeric__limits_3_01openage_1_1util_1_1_fixed_point_3_01_i_00_01_f_01_4_01_4.xhtml#a6691046f0043d8eede86b6c920718b0e" target="_top" xlink:title="std::numeric_limits\l\&lt; openage::util::FixedPoint\l\&lt; I, F \&gt; \&gt;::min">
<polygon fill="#ffffff" stroke="#000000" points="161,-.5 161,-41.5 295,-41.5 295,-.5 161,-.5"/>
<text text-anchor="start" x="169" y="-29.5" font-family="Helvetica,sans-Serif" font-size="10.00" fill="#000000">std::numeric_limits</text>
<text text-anchor="start" x="169" y="-18.5" font-family="Helvetica,sans-Serif" font-size="10.00" fill="#000000">&lt; openage::util::FixedPoint</text>
<text text-anchor="middle" x="228" y="-7.5" font-family="Helvetica,sans-Serif" font-size="10.00" fill="#000000">&lt; I, F &gt; &gt;::min</text>
</a>
</g>
</g>
<!-- Node219&#45;&gt;Node220 -->
<g id="edge1" class="edge">
<title>Node219&#45;&gt;Node220</title>
<path fill="none" stroke="#191970" d="M135.3485,-21C143.854,-21 152.5011,-21 160.9234,-21"/>
<polygon fill="#191970" stroke="#191970" points="135.0685,-17.5001 125.0685,-21 135.0684,-24.5001 135.0685,-17.5001"/>
</g>
</g>
</svg>
