<?xml version="1.0" encoding="UTF-8" standalone="no"?>
<!DOCTYPE svg PUBLIC "-//W3C//DTD SVG 1.1//EN"
 "http://www.w3.org/Graphics/SVG/1.1/DTD/svg11.dtd">
<!-- Generated by graphviz version 2.40.1 (20161225.0304)
 -->
<!-- Title: openage::util::FixedPoint::raw_value_from_double Pages: 1 -->
<!--zoomable 570 -->
<svg id="main" version="1.1" xmlns="http://www.w3.org/2000/svg" xmlns:xlink="http://www.w3.org/1999/xlink" xml:space="preserve" onload="init(evt)">
<style type="text/css"><![CDATA[
.edge:hover path { stroke: red; }
.edge:hover polygon { stroke: red; fill: red; }
]]></style>
<script type="text/javascript"><![CDATA[
var edges = document.getElementsByTagName('g');
if (edges && edges.length) {
  for (var i=0;i<edges.length;i++) {
    if (edges[i].id.substr(0,4)=='edge') {
      edges[i].setAttribute('class','edge');
    }
  }
}
]]></script>
        <defs>
                <circle id="rim" cx="0" cy="0" r="7"/>
                <circle id="rim2" cx="0" cy="0" r="3.5"/>
                <g id="zoomPlus">
                        <use xlink:href="#rim" fill="#404040">
                                <set attributeName="fill" to="#808080" begin="zoomplus.mouseover" end="zoomplus.mouseout"/>
                        </use>
                        <path d="M-4,0h8M0,-4v8" fill="none" stroke="white" stroke-width="1.5" pointer-events="none"/>
                </g>
                <g id="zoomMin">
                        <use xlink:href="#rim" fill="#404040">
                                <set attributeName="fill" to="#808080" begin="zoomminus.mouseover" end="zoomminus.mouseout"/>
                        </use>
                        <path d="M-4,0h8" fill="none" stroke="white" stroke-width="1.5" pointer-events="none"/>
                </g>
                <g id="dirArrow">
                        <path fill="none" stroke="white" stroke-width="1.5" d="M0,-3.0v7 M-2.5,-0.5L0,-3.0L2.5,-0.5"/>
                </g>
               <g id="resetDef">
                       <use xlink:href="#rim2" fill="#404040">
                               <set attributeName="fill" to="#808080" begin="reset.mouseover" end="reset.mouseout"/>
                       </use>
               </g>
        </defs>

<script type="text/javascript">
var viewWidth = 640;
var viewHeight = 570;
var sectionId = 'dynsection-12';
</script>
<script xlink:href="../../svgpan.js"/>
<svg id="graph" class="graph">
<g id="viewport">
<title>openage::util::FixedPoint::raw_value_from_double</title>
<polygon fill="#ffffff" stroke="transparent" points="-4,4 -4,-566 636,-566 636,4 -4,4"/>
<!-- Node258 -->
<g id="node1" class="node">
<title>Node258</title>
<polygon fill="#bfbfbf" stroke="#000000" points="0,-241.5 0,-271.5 125,-271.5 125,-241.5 0,-241.5"/>
<text text-anchor="start" x="8" y="-259.5" font-family="Helvetica,sans-Serif" font-size="10.00" fill="#000000">openage::util::FixedPoint</text>
<text text-anchor="middle" x="62.5" y="-248.5" font-family="Helvetica,sans-Serif" font-size="10.00" fill="#000000">::raw_value_from_double</text>
</g>
<!-- Node259 -->
<g id="node2" class="node">
<title>Node259</title>
<g id="a_node2"><a xlink:href="../../dc/d65/classopenage_1_1util_1_1_fixed_point.xhtml#a483c36345c5b597c1626162bc96dc52c" target="_top" xlink:title="Factory function to get a fixed&#45;point number from a double. ">
<polygon fill="#ffffff" stroke="#000000" points="161,-241.5 161,-271.5 301,-271.5 301,-241.5 161,-241.5"/>
<text text-anchor="start" x="169" y="-259.5" font-family="Helvetica,sans-Serif" font-size="10.00" fill="#000000">openage::util::FixedPoint</text>
<text text-anchor="middle" x="231" y="-248.5" font-family="Helvetica,sans-Serif" font-size="10.00" fill="#000000">&lt; int64_t, 16 &gt;::from_double</text>
</a>
</g>
</g>
<!-- Node258&#45;&gt;Node259 -->
<g id="edge1" class="edge">
<title>Node258&#45;&gt;Node259</title>
<path fill="none" stroke="#191970" d="M135.4276,-256.5C143.8587,-256.5 152.4439,-256.5 160.8371,-256.5"/>
<polygon fill="#191970" stroke="#191970" points="135.2432,-253.0001 125.2432,-256.5 135.2431,-260.0001 135.2432,-253.0001"/>
</g>
<!-- Node260 -->
<g id="node3" class="node">
<title>Node260</title>
<g id="a_node3"><a xlink:href="../../d4/dd3/classopenage_1_1event_1_1tests_1_1_test_state_1_1_test_object.xhtml#aa34202033ff483893bb1f253acea5cb5" target="_top" xlink:title="openage::event::tests\l::TestState::TestObject\l::set_number">
<polygon fill="#ffffff" stroke="#000000" points="343,-499 343,-540 462,-540 462,-499 343,-499"/>
<text text-anchor="start" x="351" y="-528" font-family="Helvetica,sans-Serif" font-size="10.00" fill="#000000">openage::event::tests</text>
<text text-anchor="start" x="351" y="-517" font-family="Helvetica,sans-Serif" font-size="10.00" fill="#000000">::TestState::TestObject</text>
<text text-anchor="middle" x="402.5" y="-506" font-family="Helvetica,sans-Serif" font-size="10.00" fill="#000000">::set_number</text>
</a>
</g>
</g>
<!-- Node259&#45;&gt;Node260 -->
<g id="edge2" class="edge">
<title>Node259&#45;&gt;Node260</title>
<path fill="none" stroke="#191970" d="M236.2571,-281.5492C247.2335,-328.1886 276.7293,-429.0755 337,-489.5 340.4448,-492.9536 344.3602,-496.0512 348.5229,-498.8211"/>
<polygon fill="#191970" stroke="#191970" points="239.6451,-280.6629 234.0234,-271.6825 232.8179,-282.2085 239.6451,-280.6629"/>
</g>
<!-- Node263 -->
<g id="node6" class="node">
<title>Node263</title>
<g id="a_node6"><a xlink:href="../../df/d5d/classopenage_1_1event_1_1tests_1_1_test_event_class.xhtml#aa7b77dcf1f1c8665b824c670aab81f88" target="_top" xlink:title="Is called to calculate the execution time for an event of this eventclass. ">
<polygon fill="#ffffff" stroke="#000000" points="338.5,-439 338.5,-480 466.5,-480 466.5,-439 338.5,-439"/>
<text text-anchor="start" x="346.5" y="-468" font-family="Helvetica,sans-Serif" font-size="10.00" fill="#000000">openage::event::tests</text>
<text text-anchor="start" x="346.5" y="-457" font-family="Helvetica,sans-Serif" font-size="10.00" fill="#000000">::TestEventClass::predict</text>
<text text-anchor="middle" x="402.5" y="-446" font-family="Helvetica,sans-Serif" font-size="10.00" fill="#000000">_invoke_time</text>
</a>
</g>
</g>
<!-- Node259&#45;&gt;Node263 -->
<g id="edge5" class="edge">
<title>Node259&#45;&gt;Node263</title>
<path fill="none" stroke="#191970" d="M240.6826,-281.4652C256.0626,-318.2496 289.2951,-387.2111 337,-429.5 340.931,-432.9847 345.3351,-436.1335 349.9514,-438.9628"/>
<polygon fill="#191970" stroke="#191970" points="243.8369,-279.9312 236.8208,-271.9923 237.3548,-282.5737 243.8369,-279.9312"/>
</g>
<!-- Node264 -->
<g id="node7" class="node">
<title>Node264</title>
<g id="a_node7"><a xlink:href="../../d0/d00/classopenage_1_1event_1_1tests_1_1_test_event_class_two.xhtml#aaaeabcec80a4ee92ce170b3ff509afea" target="_top" xlink:title="Is called to calculate the execution time for an event of this eventclass. ">
<polygon fill="#ffffff" stroke="#000000" points="343.5,-379 343.5,-420 461.5,-420 461.5,-379 343.5,-379"/>
<text text-anchor="start" x="351.5" y="-408" font-family="Helvetica,sans-Serif" font-size="10.00" fill="#000000">openage::event::tests</text>
<text text-anchor="start" x="351.5" y="-397" font-family="Helvetica,sans-Serif" font-size="10.00" fill="#000000">::TestEventClassTwo::</text>
<text text-anchor="middle" x="402.5" y="-386" font-family="Helvetica,sans-Serif" font-size="10.00" fill="#000000">predict_invoke_time</text>
</a>
</g>
</g>
<!-- Node259&#45;&gt;Node264 -->
<g id="edge6" class="edge">
<title>Node259&#45;&gt;Node264</title>
<path fill="none" stroke="#191970" d="M248.4605,-279.9506C267.8781,-304.7573 301.2506,-343.7929 337,-369.5 341.6711,-372.859 346.7784,-375.9795 352.0143,-378.8387"/>
<polygon fill="#191970" stroke="#191970" points="251.0685,-277.6009 242.1932,-271.8147 245.5231,-281.8727 251.0685,-277.6009"/>
</g>
<!-- Node265 -->
<g id="node8" class="node">
<title>Node265</title>
<g id="a_node8"><a xlink:href="../../df/d93/classopenage_1_1event_1_1tests_1_1_event_type_test_class.xhtml#a5321e145f5eea940554f18a71aa1b639" target="_top" xlink:title="Is called to calculate the execution time for an event of this eventclass. ">
<polygon fill="#ffffff" stroke="#000000" points="345,-319 345,-360 460,-360 460,-319 345,-319"/>
<text text-anchor="start" x="353" y="-348" font-family="Helvetica,sans-Serif" font-size="10.00" fill="#000000">openage::event::tests</text>
<text text-anchor="start" x="353" y="-337" font-family="Helvetica,sans-Serif" font-size="10.00" fill="#000000">::EventTypeTestClass</text>
<text text-anchor="middle" x="402.5" y="-326" font-family="Helvetica,sans-Serif" font-size="10.00" fill="#000000">::predict_invoke_time</text>
</a>
</g>
</g>
<!-- Node259&#45;&gt;Node265 -->
<g id="edge7" class="edge">
<title>Node259&#45;&gt;Node265</title>
<path fill="none" stroke="#191970" d="M269.6802,-276.2369C289.6949,-286.3486 314.5719,-298.7606 337,-309.5 343.4301,-312.579 350.2441,-315.7741 356.9521,-318.8811"/>
<polygon fill="#191970" stroke="#191970" points="271.0684,-273.0168 260.5658,-271.6216 267.9061,-279.2618 271.0684,-273.0168"/>
</g>
<!-- Node266 -->
<g id="node9" class="node">
<title>Node266</title>
<g id="a_node9"><a xlink:href="../../df/dc0/classopenage_1_1event_1_1demo_1_1_ball_reflect_wall.xhtml#a215ab77e1d0c301cf5ee7c79da4ffd4a" target="_top" xlink:title="This method implements the effects of the event. ">
<polygon fill="#ffffff" stroke="#000000" points="340,-269.5 340,-299.5 465,-299.5 465,-269.5 340,-269.5"/>
<text text-anchor="start" x="348" y="-287.5" font-family="Helvetica,sans-Serif" font-size="10.00" fill="#000000">openage::event::demo</text>
<text text-anchor="middle" x="402.5" y="-276.5" font-family="Helvetica,sans-Serif" font-size="10.00" fill="#000000">::BallReflectWall::invoke</text>
</a>
</g>
</g>
<!-- Node259&#45;&gt;Node266 -->
<g id="edge8" class="edge">
<title>Node259&#45;&gt;Node266</title>
<path fill="none" stroke="#191970" d="M311.1981,-269.5936C320.7956,-271.1605 330.4862,-272.7426 339.7863,-274.261"/>
<polygon fill="#191970" stroke="#191970" points="311.6838,-266.1266 301.2504,-267.9695 310.5558,-273.0351 311.6838,-266.1266"/>
</g>
<!-- Node267 -->
<g id="node10" class="node">
<title>Node267</title>
<g id="a_node10"><a xlink:href="../../df/dc0/classopenage_1_1event_1_1demo_1_1_ball_reflect_wall.xhtml#a3e60c155c12ea17e0c149b3eca114f70" target="_top" xlink:title="Is called to calculate the execution time for an event of this eventclass. ">
<polygon fill="#ffffff" stroke="#000000" points="340,-209 340,-250 465,-250 465,-209 340,-209"/>
<text text-anchor="start" x="348" y="-238" font-family="Helvetica,sans-Serif" font-size="10.00" fill="#000000">openage::event::demo</text>
<text text-anchor="start" x="348" y="-227" font-family="Helvetica,sans-Serif" font-size="10.00" fill="#000000">::BallReflectWall::predict</text>
<text text-anchor="middle" x="402.5" y="-216" font-family="Helvetica,sans-Serif" font-size="10.00" fill="#000000">_invoke_time</text>
</a>
</g>
</g>
<!-- Node259&#45;&gt;Node267 -->
<g id="edge9" class="edge">
<title>Node259&#45;&gt;Node267</title>
<path fill="none" stroke="#191970" d="M311.1981,-243.8741C320.7956,-242.3631 330.4862,-240.8375 339.7863,-239.3733"/>
<polygon fill="#191970" stroke="#191970" points="310.5844,-240.4275 301.2504,-245.4402 311.6731,-247.3423 310.5844,-240.4275"/>
</g>
<!-- Node268 -->
<g id="node11" class="node">
<title>Node268</title>
<g id="a_node11"><a xlink:href="../../d9/d5d/classopenage_1_1event_1_1demo_1_1_ball_reflect_panel.xhtml#aa56d9723c3d16a001d71bca91fd08c70" target="_top" xlink:title="This method implements the effects of the event. ">
<polygon fill="#ffffff" stroke="#000000" points="337.5,-159.5 337.5,-189.5 467.5,-189.5 467.5,-159.5 337.5,-159.5"/>
<text text-anchor="start" x="345.5" y="-177.5" font-family="Helvetica,sans-Serif" font-size="10.00" fill="#000000">openage::event::demo</text>
<text text-anchor="middle" x="402.5" y="-166.5" font-family="Helvetica,sans-Serif" font-size="10.00" fill="#000000">::BallReflectPanel::invoke</text>
</a>
</g>
</g>
<!-- Node259&#45;&gt;Node268 -->
<g id="edge10" class="edge">
<title>Node259&#45;&gt;Node268</title>
<path fill="none" stroke="#191970" d="M265.5943,-236.436C286.0359,-224.9515 312.613,-210.6548 337,-199.5 344.5267,-196.0572 352.6763,-192.6795 360.5869,-189.5752"/>
<polygon fill="#191970" stroke="#191970" points="263.6407,-233.5201 256.6639,-241.4934 267.0902,-239.6111 263.6407,-233.5201"/>
</g>
<!-- Node269 -->
<g id="node12" class="node">
<title>Node269</title>
<g id="a_node12"><a xlink:href="../../d9/d5d/classopenage_1_1event_1_1demo_1_1_ball_reflect_panel.xhtml#a81a50b0cb9bf2c5148a355f02829c992" target="_top" xlink:title="Is called to calculate the execution time for an event of this eventclass. ">
<polygon fill="#ffffff" stroke="#000000" points="337,-99 337,-140 468,-140 468,-99 337,-99"/>
<text text-anchor="start" x="345" y="-128" font-family="Helvetica,sans-Serif" font-size="10.00" fill="#000000">openage::event::demo</text>
<text text-anchor="start" x="345" y="-117" font-family="Helvetica,sans-Serif" font-size="10.00" fill="#000000">::BallReflectPanel::predict</text>
<text text-anchor="middle" x="402.5" y="-106" font-family="Helvetica,sans-Serif" font-size="10.00" fill="#000000">_invoke_time</text>
</a>
</g>
</g>
<!-- Node259&#45;&gt;Node269 -->
<g id="edge11" class="edge">
<title>Node259&#45;&gt;Node269</title>
<path fill="none" stroke="#191970" d="M250.0613,-233.2138C269.934,-210.0307 302.8918,-174.5283 337,-150.5 342.3482,-146.7324 348.2262,-143.2163 354.1981,-140.005"/>
<polygon fill="#191970" stroke="#191970" points="247.1337,-231.2558 243.354,-241.1535 252.481,-235.7732 247.1337,-231.2558"/>
</g>
<!-- Node270 -->
<g id="node13" class="node">
<title>Node270</title>
<g id="a_node13"><a xlink:href="../../d6/d6f/classopenage_1_1event_1_1demo_1_1_reset_game.xhtml#a0fa6b84fb64f30f1edd75d465876a2b3" target="_top" xlink:title="This method implements the effects of the event. ">
<polygon fill="#ffffff" stroke="#000000" points="346,-49.5 346,-79.5 459,-79.5 459,-49.5 346,-49.5"/>
<text text-anchor="start" x="354" y="-67.5" font-family="Helvetica,sans-Serif" font-size="10.00" fill="#000000">openage::event::demo</text>
<text text-anchor="middle" x="402.5" y="-56.5" font-family="Helvetica,sans-Serif" font-size="10.00" fill="#000000">::ResetGame::invoke</text>
</a>
</g>
</g>
<!-- Node259&#45;&gt;Node270 -->
<g id="edge12" class="edge">
<title>Node259&#45;&gt;Node270</title>
<path fill="none" stroke="#191970" d="M240.5721,-232.0129C255.8112,-196.01 288.8663,-128.8173 337,-89.5 341.7133,-85.65 347.0841,-82.3503 352.6757,-79.5327"/>
<polygon fill="#191970" stroke="#191970" points="237.3226,-230.7122 236.7486,-241.2914 243.7947,-233.3792 237.3226,-230.7122"/>
</g>
<!-- Node271 -->
<g id="node14" class="node">
<title>Node271</title>
<g id="a_node14"><a xlink:href="../../de/d26/classopenage_1_1event_1_1demo_1_1_physics.xhtml#a808f9e14e491c56f818471417ea08396" target="_top" xlink:title="openage::event::demo\l::Physics::process_input">
<polygon fill="#ffffff" stroke="#000000" points="340,-.5 340,-30.5 465,-30.5 465,-.5 340,-.5"/>
<text text-anchor="start" x="348" y="-18.5" font-family="Helvetica,sans-Serif" font-size="10.00" fill="#000000">openage::event::demo</text>
<text text-anchor="middle" x="402.5" y="-7.5" font-family="Helvetica,sans-Serif" font-size="10.00" fill="#000000">::Physics::process_input</text>
</a>
</g>
</g>
<!-- Node259&#45;&gt;Node271 -->
<g id="edge13" class="edge">
<title>Node259&#45;&gt;Node271</title>
<path fill="none" stroke="#191970" d="M236.6626,-231.4802C248.0287,-186.7866 277.7627,-92.9207 337,-39.5 340.7774,-36.0935 345.0784,-33.1588 349.6295,-30.6327"/>
<polygon fill="#191970" stroke="#191970" points="233.2528,-230.6899 234.2774,-241.2351 240.0525,-232.3526 233.2528,-230.6899"/>
</g>
<!-- Node261 -->
<g id="node4" class="node">
<title>Node261</title>
<g id="a_node4"><a xlink:href="../../df/d5d/classopenage_1_1event_1_1tests_1_1_test_event_class.xhtml#a6d3145302d7a6910d0e8e30d42380cc5" target="_top" xlink:title="This method implements the effects of the event. ">
<polygon fill="#ffffff" stroke="#000000" points="504,-531.5 504,-561.5 632,-561.5 632,-531.5 504,-531.5"/>
<text text-anchor="start" x="512" y="-549.5" font-family="Helvetica,sans-Serif" font-size="10.00" fill="#000000">openage::event::tests</text>
<text text-anchor="middle" x="568" y="-538.5" font-family="Helvetica,sans-Serif" font-size="10.00" fill="#000000">::TestEventClass::invoke</text>
</a>
</g>
</g>
<!-- Node260&#45;&gt;Node261 -->
<g id="edge3" class="edge">
<title>Node260&#45;&gt;Node261</title>
<path fill="none" stroke="#191970" d="M472.2047,-530.8718C482.7039,-532.5846 493.4905,-534.3444 503.8653,-536.0369"/>
<polygon fill="#191970" stroke="#191970" points="472.6824,-527.4035 462.2493,-529.2476 471.5552,-534.3122 472.6824,-527.4035"/>
</g>
<!-- Node262 -->
<g id="node5" class="node">
<title>Node262</title>
<g id="a_node5"><a xlink:href="../../d0/d00/classopenage_1_1event_1_1tests_1_1_test_event_class_two.xhtml#af47dbc011710ba5e6986493b63dead0e" target="_top" xlink:title="This method implements the effects of the event. ">
<polygon fill="#ffffff" stroke="#000000" points="509,-471 509,-512 627,-512 627,-471 509,-471"/>
<text text-anchor="start" x="517" y="-500" font-family="Helvetica,sans-Serif" font-size="10.00" fill="#000000">openage::event::tests</text>
<text text-anchor="start" x="517" y="-489" font-family="Helvetica,sans-Serif" font-size="10.00" fill="#000000">::TestEventClassTwo::</text>
<text text-anchor="middle" x="568" y="-478" font-family="Helvetica,sans-Serif" font-size="10.00" fill="#000000">invoke</text>
</a>
</g>
</g>
<!-- Node260&#45;&gt;Node262 -->
<g id="edge4" class="edge">
<title>Node260&#45;&gt;Node262</title>
<path fill="none" stroke="#191970" d="M472.3515,-507.6822C484.5129,-505.6247 497.0554,-503.5027 508.8933,-501.4999"/>
<polygon fill="#191970" stroke="#191970" points="471.5253,-504.2722 462.2493,-509.3914 472.6931,-511.1741 471.5253,-504.2722"/>
</g>
<!-- Node272 -->
<g id="node15" class="node">
<title>Node272</title>
<g id="a_node15"><a xlink:href="../../df/d0a/namespaceopenage_1_1event_1_1demo.xhtml#a941b2bcbd6e44b20cc352eb1c2b64068" target="_top" xlink:title="openage::event::demo\l::curvepong">
<polygon fill="#ffffff" stroke="#000000" points="511.5,-.5 511.5,-30.5 624.5,-30.5 624.5,-.5 511.5,-.5"/>
<text text-anchor="start" x="519.5" y="-18.5" font-family="Helvetica,sans-Serif" font-size="10.00" fill="#000000">openage::event::demo</text>
<text text-anchor="middle" x="568" y="-7.5" font-family="Helvetica,sans-Serif" font-size="10.00" fill="#000000">::curvepong</text>
</a>
</g>
</g>
<!-- Node271&#45;&gt;Node272 -->
<g id="edge14" class="edge">
<title>Node271&#45;&gt;Node272</title>
<path fill="none" stroke="#191970" d="M475.1557,-15.5C487.2742,-15.5 499.6859,-15.5 511.3301,-15.5"/>
<polygon fill="#191970" stroke="#191970" points="475.0685,-12.0001 465.0685,-15.5 475.0684,-19.0001 475.0685,-12.0001"/>
</g>
</g>
</svg>
        <g id="navigator" transform="translate(0 0)" fill="#404254">
                <rect fill="#f2f5e9" fill-opacity="0.5" stroke="#606060" stroke-width=".5" x="0" y="0" width="60" height="60"/>
                <use id="zoomplus" xlink:href="#zoomPlus" x="17" y="9" onmousedown="handleZoom(evt,'in')"/>
                <use id="zoomminus" xlink:href="#zoomMin" x="42" y="9" onmousedown="handleZoom(evt,'out')"/>
                <use id="reset" xlink:href="#resetDef" x="30" y="36" onmousedown="handleReset()"/>
                <g id="arrowUp" xlink:href="#dirArrow" transform="translate(30 24)" onmousedown="handlePan(0,-1)">
                  <use xlink:href="#rim" fill="#404040">
                        <set attributeName="fill" to="#808080" begin="arrowUp.mouseover" end="arrowUp.mouseout"/>
                  </use>
                  <path fill="none" stroke="white" stroke-width="1.5" d="M0,-3.0v7 M-2.5,-0.5L0,-3.0L2.5,-0.5"/>
                </g>
                <g id="arrowRight" xlink:href="#dirArrow" transform="rotate(90) translate(36 -43)" onmousedown="handlePan(1,0)">
                  <use xlink:href="#rim" fill="#404040">
                        <set attributeName="fill" to="#808080" begin="arrowRight.mouseover" end="arrowRight.mouseout"/>
                  </use>
                  <path fill="none" stroke="white" stroke-width="1.5" d="M0,-3.0v7 M-2.5,-0.5L0,-3.0L2.5,-0.5"/>
                </g>
                <g id="arrowDown" xlink:href="#dirArrow" transform="rotate(180) translate(-30 -48)" onmousedown="handlePan(0,1)">
                  <use xlink:href="#rim" fill="#404040">
                        <set attributeName="fill" to="#808080" begin="arrowDown.mouseover" end="arrowDown.mouseout"/>
                  </use>
                  <path fill="none" stroke="white" stroke-width="1.5" d="M0,-3.0v7 M-2.5,-0.5L0,-3.0L2.5,-0.5"/>
                </g>
                <g id="arrowLeft" xlink:href="#dirArrow" transform="rotate(270) translate(-36 17)" onmousedown="handlePan(-1,0)">
                  <use xlink:href="#rim" fill="#404040">
                        <set attributeName="fill" to="#808080" begin="arrowLeft.mouseover" end="arrowLeft.mouseout"/>
                  </use>
                  <path fill="none" stroke="white" stroke-width="1.5" d="M0,-3.0v7 M-2.5,-0.5L0,-3.0L2.5,-0.5"/>
                </g>
        </g>
        <svg viewBox="0 0 15 15" width="100%" height="30px" preserveAspectRatio="xMaxYMin meet">
         <g id="arrow_out" transform="scale(0.3 0.3)">
          <a xlink:href="classopenage_1_1util_1_1_fixed_point_a5f225133013eccb8bbdd9a4628308a59_icgraph_org.svg" target="_base">
           <rect id="button" ry="5" rx="5" y="6" x="6" height="38" width="38"
                fill="#f2f5e9" fill-opacity="0.5" stroke="#606060" stroke-width="1.0"/>
           <path id="arrow"
             d="M 11.500037,31.436501 C 11.940474,20.09759 22.043105,11.32322 32.158766,21.979434 L 37.068811,17.246167 C 37.068811,17.246167 37.088388,32 37.088388,32 L 22.160133,31.978069 C 22.160133,31.978069 26.997745,27.140456 26.997745,27.140456 C 18.528582,18.264221 13.291696,25.230495 11.500037,31.436501 z"
             style="fill:#404040;"/>
          </a>
         </g>
        </svg>
</svg>
