<?xml version="1.0" encoding="UTF-8" standalone="no"?>
<!DOCTYPE svg PUBLIC "-//W3C//DTD SVG 1.1//EN"
 "http://www.w3.org/Graphics/SVG/1.1/DTD/svg11.dtd">
<!-- Generated by graphviz version 2.40.1 (20161225.0304)
 -->
<!-- Title: openage::util::FixedPoint::to_float Pages: 1 -->
<svg width="753pt" height="156pt"
 viewBox="0.00 0.00 753.00 156.00" xmlns="http://www.w3.org/2000/svg" xmlns:xlink="http://www.w3.org/1999/xlink">
<g id="graph0" class="graph" transform="scale(1 1) rotate(0) translate(4 152)">
<title>openage::util::FixedPoint::to_float</title>
<polygon fill="#ffffff" stroke="transparent" points="-4,4 -4,-152 749,-152 749,4 -4,4"/>
<!-- Node323 -->
<g id="node1" class="node">
<title>Node323</title>
<polygon fill="#bfbfbf" stroke="#000000" points="0,-68.5 0,-98.5 125,-98.5 125,-68.5 0,-68.5"/>
<text text-anchor="start" x="8" y="-86.5" font-family="Helvetica,sans-Serif" font-size="10.00" fill="#000000">openage::util::FixedPoint</text>
<text text-anchor="middle" x="62.5" y="-75.5" font-family="Helvetica,sans-Serif" font-size="10.00" fill="#000000">::to_float</text>
</g>
<!-- Node324 -->
<g id="node2" class="node">
<title>Node324</title>
<g id="a_node2"><a xlink:href="../../d5/d3c/namespaceopenage_1_1util_1_1tests.xhtml#a66cf54ea365e3f8f1357577ddaa1adfb" target="_top" xlink:title="openage::util::tests\l::fixed_point">
<polygon fill="#ffffff" stroke="#000000" points="182.5,-117.5 182.5,-147.5 282.5,-147.5 282.5,-117.5 182.5,-117.5"/>
<text text-anchor="start" x="190.5" y="-135.5" font-family="Helvetica,sans-Serif" font-size="10.00" fill="#000000">openage::util::tests</text>
<text text-anchor="middle" x="232.5" y="-124.5" font-family="Helvetica,sans-Serif" font-size="10.00" fill="#000000">::fixed_point</text>
</a>
</g>
</g>
<!-- Node323&#45;&gt;Node324 -->
<g id="edge1" class="edge">
<title>Node323&#45;&gt;Node324</title>
<path fill="none" stroke="#191970" d="M124.6444,-101.4122C143.6209,-106.8819 164.2391,-112.8248 182.3171,-118.0355"/>
<polygon fill="#191970" stroke="#191970" points="125.471,-98.008 114.8928,-98.6014 123.5322,-104.7342 125.471,-98.008"/>
</g>
<!-- Node325 -->
<g id="node3" class="node">
<title>Node325</title>
<g id="a_node3"><a xlink:href="../../dc/d65/classopenage_1_1util_1_1_fixed_point.xhtml#a132f65f53a2a87b36f880fc567ec857f" target="_top" xlink:title="openage::util::FixedPoint\l\&lt; int64_t, 16 \&gt;::operator float">
<polygon fill="#ffffff" stroke="#000000" points="161,-68.5 161,-98.5 304,-98.5 304,-68.5 161,-68.5"/>
<text text-anchor="start" x="169" y="-86.5" font-family="Helvetica,sans-Serif" font-size="10.00" fill="#000000">openage::util::FixedPoint</text>
<text text-anchor="middle" x="232.5" y="-75.5" font-family="Helvetica,sans-Serif" font-size="10.00" fill="#000000">&lt; int64_t, 16 &gt;::operator float</text>
</a>
</g>
</g>
<!-- Node323&#45;&gt;Node325 -->
<g id="edge2" class="edge">
<title>Node323&#45;&gt;Node325</title>
<path fill="none" stroke="#191970" d="M135.4498,-83.5C143.8389,-83.5 152.3878,-83.5 160.7608,-83.5"/>
<polygon fill="#191970" stroke="#191970" points="135.3188,-80.0001 125.3187,-83.5 135.3187,-87.0001 135.3188,-80.0001"/>
</g>
<!-- Node326 -->
<g id="node4" class="node">
<title>Node326</title>
<g id="a_node4"><a xlink:href="../../d3/df4/namespaceopenage_1_1path.xhtml#a4699fb2dbfd8178b2234b9fbb935179f" target="_top" xlink:title="path between two static points ">
<polygon fill="#ffffff" stroke="#000000" points="173,-30 173,-49 292,-49 292,-30 173,-30"/>
<text text-anchor="middle" x="232.5" y="-37" font-family="Helvetica,sans-Serif" font-size="10.00" fill="#000000">openage::path::to_point</text>
</a>
</g>
</g>
<!-- Node323&#45;&gt;Node326 -->
<g id="edge3" class="edge">
<title>Node323&#45;&gt;Node326</title>
<path fill="none" stroke="#191970" d="M130.3138,-65.9482C152.6464,-60.168 176.631,-53.9602 195.7475,-49.0124"/>
<polygon fill="#191970" stroke="#191970" points="129.3329,-62.5867 120.5289,-68.4808 131.0869,-69.3634 129.3329,-62.5867"/>
</g>
<!-- Node327 -->
<g id="node5" class="node">
<title>Node327</title>
<g id="a_node5"><a xlink:href="../../d2/d4e/classopenage_1_1_move_action.xhtml#a4e56fc82672dfaf3c62f846afbd6df69" target="_top" xlink:title="use a star to find a path to target ">
<polygon fill="#ffffff" stroke="#000000" points="340,-24.5 340,-54.5 451,-54.5 451,-24.5 340,-24.5"/>
<text text-anchor="start" x="348" y="-42.5" font-family="Helvetica,sans-Serif" font-size="10.00" fill="#000000">openage::MoveAction</text>
<text text-anchor="middle" x="395.5" y="-31.5" font-family="Helvetica,sans-Serif" font-size="10.00" fill="#000000">::set_path</text>
</a>
</g>
</g>
<!-- Node326&#45;&gt;Node327 -->
<g id="edge4" class="edge">
<title>Node326&#45;&gt;Node327</title>
<path fill="none" stroke="#191970" d="M302.6029,-39.5C315.0365,-39.5 327.8311,-39.5 339.7983,-39.5"/>
<polygon fill="#191970" stroke="#191970" points="302.2697,-36.0001 292.2696,-39.5 302.2696,-43.0001 302.2697,-36.0001"/>
</g>
<!-- Node328 -->
<g id="node6" class="node">
<title>Node328</title>
<g id="a_node6"><a xlink:href="../../d2/d4e/classopenage_1_1_move_action.xhtml#a1b34ceffe821a5ef2afd3c3fc08ae3d1" target="_top" xlink:title="openage::MoveAction\l::initialise">
<polygon fill="#ffffff" stroke="#000000" points="487,-49.5 487,-79.5 598,-79.5 598,-49.5 487,-49.5"/>
<text text-anchor="start" x="495" y="-67.5" font-family="Helvetica,sans-Serif" font-size="10.00" fill="#000000">openage::MoveAction</text>
<text text-anchor="middle" x="542.5" y="-56.5" font-family="Helvetica,sans-Serif" font-size="10.00" fill="#000000">::initialise</text>
</a>
</g>
</g>
<!-- Node327&#45;&gt;Node328 -->
<g id="edge5" class="edge">
<title>Node327&#45;&gt;Node328</title>
<path fill="none" stroke="#191970" d="M461.0775,-50.6526C469.6805,-52.1157 478.4299,-53.6037 486.847,-55.0352"/>
<polygon fill="#191970" stroke="#191970" points="461.5197,-47.1777 451.0744,-48.9514 460.346,-54.0786 461.5197,-47.1777"/>
</g>
<!-- Node330 -->
<g id="node8" class="node">
<title>Node330</title>
<g id="a_node8"><a xlink:href="../../d2/d4e/classopenage_1_1_move_action.xhtml#afa4e4983c00b0207af76c7b717e81a05" target="_top" xlink:title="each action has its own update functionality which gets called when this is the active action ...">
<polygon fill="#ffffff" stroke="#000000" points="487,-.5 487,-30.5 598,-30.5 598,-.5 487,-.5"/>
<text text-anchor="start" x="495" y="-18.5" font-family="Helvetica,sans-Serif" font-size="10.00" fill="#000000">openage::MoveAction</text>
<text text-anchor="middle" x="542.5" y="-7.5" font-family="Helvetica,sans-Serif" font-size="10.00" fill="#000000">::update</text>
</a>
</g>
</g>
<!-- Node327&#45;&gt;Node330 -->
<g id="edge7" class="edge">
<title>Node327&#45;&gt;Node330</title>
<path fill="none" stroke="#191970" d="M461.0775,-28.7935C469.6805,-27.3889 478.4299,-25.9604 486.847,-24.5862"/>
<polygon fill="#191970" stroke="#191970" points="460.3797,-25.361 451.0744,-30.4266 461.5077,-32.2695 460.3797,-25.361"/>
</g>
<!-- Node329 -->
<g id="node7" class="node">
<title>Node329</title>
<g id="a_node7"><a xlink:href="../../d2/d4e/classopenage_1_1_move_action.xhtml#a8ebbeeb2d2ebf769a9ee6a55020062c5" target="_top" xlink:title="moves unit to a given fixed location ">
<polygon fill="#ffffff" stroke="#000000" points="634,-49.5 634,-79.5 745,-79.5 745,-49.5 634,-49.5"/>
<text text-anchor="start" x="642" y="-67.5" font-family="Helvetica,sans-Serif" font-size="10.00" fill="#000000">openage::MoveAction</text>
<text text-anchor="middle" x="689.5" y="-56.5" font-family="Helvetica,sans-Serif" font-size="10.00" fill="#000000">::MoveAction</text>
</a>
</g>
</g>
<!-- Node328&#45;&gt;Node329 -->
<g id="edge6" class="edge">
<title>Node328&#45;&gt;Node329</title>
<path fill="none" stroke="#191970" d="M608.0775,-64.5C616.6805,-64.5 625.4299,-64.5 633.847,-64.5"/>
<polygon fill="#191970" stroke="#191970" points="608.0744,-61.0001 598.0744,-64.5 608.0744,-68.0001 608.0744,-61.0001"/>
</g>
</g>
</svg>
