<?xml version="1.0" encoding="UTF-8" standalone="no"?>
<!DOCTYPE svg PUBLIC "-//W3C//DTD SVG 1.1//EN"
 "http://www.w3.org/Graphics/SVG/1.1/DTD/svg11.dtd">
<!-- Generated by graphviz version 2.40.1 (20161225.0304)
 -->
<!-- Title: openage::path::find_nearest Pages: 1 -->
<!--zoomable 302 -->
<svg id="main" version="1.1" xmlns="http://www.w3.org/2000/svg" xmlns:xlink="http://www.w3.org/1999/xlink" xml:space="preserve" onload="init(evt)">
<style type="text/css"><![CDATA[
.edge:hover path { stroke: red; }
.edge:hover polygon { stroke: red; fill: red; }
]]></style>
<script type="text/javascript"><![CDATA[
var edges = document.getElementsByTagName('g');
if (edges && edges.length) {
  for (var i=0;i<edges.length;i++) {
    if (edges[i].id.substr(0,4)=='edge') {
      edges[i].setAttribute('class','edge');
    }
  }
}
]]></script>
        <defs>
                <circle id="rim" cx="0" cy="0" r="7"/>
                <circle id="rim2" cx="0" cy="0" r="3.5"/>
                <g id="zoomPlus">
                        <use xlink:href="#rim" fill="#404040">
                                <set attributeName="fill" to="#808080" begin="zoomplus.mouseover" end="zoomplus.mouseout"/>
                        </use>
                        <path d="M-4,0h8M0,-4v8" fill="none" stroke="white" stroke-width="1.5" pointer-events="none"/>
                </g>
                <g id="zoomMin">
                        <use xlink:href="#rim" fill="#404040">
                                <set attributeName="fill" to="#808080" begin="zoomminus.mouseover" end="zoomminus.mouseout"/>
                        </use>
                        <path d="M-4,0h8" fill="none" stroke="white" stroke-width="1.5" pointer-events="none"/>
                </g>
                <g id="dirArrow">
                        <path fill="none" stroke="white" stroke-width="1.5" d="M0,-3.0v7 M-2.5,-0.5L0,-3.0L2.5,-0.5"/>
                </g>
               <g id="resetDef">
                       <use xlink:href="#rim2" fill="#404040">
                               <set attributeName="fill" to="#808080" begin="reset.mouseover" end="reset.mouseout"/>
                       </use>
               </g>
        </defs>

<script type="text/javascript">
var viewWidth = 797;
var viewHeight = 302;
var sectionId = 'dynsection-5';
</script>
<script xlink:href="../../svgpan.js"/>
<svg id="graph" class="graph">
<g id="viewport">
<title>openage::path::find_nearest</title>
<polygon fill="#ffffff" stroke="transparent" points="-4,4 -4,-297.5 793,-297.5 793,4 -4,4"/>
<!-- Node45 -->
<g id="node1" class="node">
<title>Node45</title>
<polygon fill="#bfbfbf" stroke="#000000" points="0,-131.5 0,-161.5 100,-161.5 100,-131.5 0,-131.5"/>
<text text-anchor="start" x="8" y="-149.5" font-family="Helvetica,sans-Serif" font-size="10.00" fill="#000000">openage::path::find</text>
<text text-anchor="middle" x="50" y="-138.5" font-family="Helvetica,sans-Serif" font-size="10.00" fill="#000000">_nearest</text>
</g>
<!-- Node46 -->
<g id="node2" class="node">
<title>Node46</title>
<g id="a_node2"><a xlink:href="../../d3/df4/namespaceopenage_1_1path.xhtml#acafe3c2e0b6cef7750a14663eab6c883" target="_top" xlink:title="finds a path between two endpoints ">
<polygon fill="#ffffff" stroke="#000000" points="136,-137 136,-156 247,-156 247,-137 136,-137"/>
<text text-anchor="middle" x="191.5" y="-144" font-family="Helvetica,sans-Serif" font-size="10.00" fill="#000000">openage::path::a_star</text>
</a>
</g>
</g>
<!-- Node45&#45;&gt;Node46 -->
<g id="edge1" class="edge">
<title>Node45&#45;&gt;Node46</title>
<path fill="none" stroke="#191970" d="M100.286,-146.5C108.4183,-146.5 116.9452,-146.5 125.3838,-146.5"/>
<polygon fill="#191970" stroke="#191970" points="125.6009,-150.0001 135.6008,-146.5 125.6008,-143.0001 125.6009,-150.0001"/>
</g>
<!-- Node47 -->
<g id="node3" class="node">
<title>Node47</title>
<g id="a_node3"><a xlink:href="../../dd/d1a/namespaceopenage_1_1log.xhtml#a5cb08687f485da2549d7eebef26368a6" target="_top" xlink:title="debug message ">
<polygon fill="#ffffff" stroke="#000000" points="310.5,-274 310.5,-293 398.5,-293 398.5,-274 310.5,-274"/>
<text text-anchor="middle" x="354.5" y="-281" font-family="Helvetica,sans-Serif" font-size="10.00" fill="#000000">openage.log.dbg</text>
</a>
</g>
</g>
<!-- Node46&#45;&gt;Node47 -->
<g id="edge2" class="edge">
<title>Node46&#45;&gt;Node47</title>
<path fill="none" stroke="#191970" d="M196.1705,-156.1735C207.618,-178.8231 239.3561,-235.563 283,-264.5 288.339,-268.0399 294.3116,-270.9217 300.4682,-273.2674"/>
<polygon fill="#191970" stroke="#191970" points="299.636,-276.6795 310.2297,-276.5297 301.8548,-270.0404 299.636,-276.6795"/>
</g>
<!-- Node48 -->
<g id="node4" class="node">
<title>Node48</title>
<g id="a_node4"><a xlink:href="../../dc/dfd/classopenage_1_1datastructure_1_1_pairing_heap.xhtml#ab94d37206816a45bcfe49f8631cc82a9" target="_top" xlink:title="You must call this after the node data decreased. ">
<polygon fill="#ffffff" stroke="#000000" points="293.5,-224.5 293.5,-254.5 415.5,-254.5 415.5,-224.5 293.5,-224.5"/>
<text text-anchor="start" x="301.5" y="-242.5" font-family="Helvetica,sans-Serif" font-size="10.00" fill="#000000">openage::datastructure</text>
<text text-anchor="middle" x="354.5" y="-231.5" font-family="Helvetica,sans-Serif" font-size="10.00" fill="#000000">::PairingHeap::decrease</text>
</a>
</g>
</g>
<!-- Node46&#45;&gt;Node48 -->
<g id="edge3" class="edge">
<title>Node46&#45;&gt;Node48</title>
<path fill="none" stroke="#191970" d="M201.9862,-156.2316C218.2328,-170.8658 250.9652,-198.6189 283,-215.5 286.3231,-217.2512 289.7993,-218.9112 293.3526,-220.4786"/>
<polygon fill="#191970" stroke="#191970" points="292.3069,-223.8333 302.886,-224.4101 294.9756,-217.3619 292.3069,-223.8333"/>
</g>
<!-- Node49 -->
<g id="node5" class="node">
<title>Node49</title>
<g id="a_node5"><a xlink:href="../../dc/dfd/classopenage_1_1datastructure_1_1_pairing_heap.xhtml#a7a529d5ee64fa5002f6487d3821df5f6" target="_top" xlink:title="openage::datastructure\l::PairingHeap::empty">
<polygon fill="#ffffff" stroke="#000000" points="296.5,-175.5 296.5,-205.5 412.5,-205.5 412.5,-175.5 296.5,-175.5"/>
<text text-anchor="start" x="304.5" y="-193.5" font-family="Helvetica,sans-Serif" font-size="10.00" fill="#000000">openage::datastructure</text>
<text text-anchor="middle" x="354.5" y="-182.5" font-family="Helvetica,sans-Serif" font-size="10.00" fill="#000000">::PairingHeap::empty</text>
</a>
</g>
</g>
<!-- Node46&#45;&gt;Node49 -->
<g id="edge4" class="edge">
<title>Node46&#45;&gt;Node49</title>
<path fill="none" stroke="#191970" d="M226.8686,-156.0473C244.9747,-160.9349 267.6101,-167.0451 288.7708,-172.7571"/>
<polygon fill="#191970" stroke="#191970" points="288.1231,-176.2075 298.6897,-175.4346 289.9474,-169.4494 288.1231,-176.2075"/>
</g>
<!-- Node50 -->
<g id="node6" class="node">
<title>Node50</title>
<g id="a_node6"><a xlink:href="../../dd/d1a/namespaceopenage_1_1log.xhtml#a0eff614e7d6e818746700ed9d29e583f" target="_top" xlink:title="Convenience method that makes use of the &#39;general&#39; LogSource. ">
<polygon fill="#ffffff" stroke="#000000" points="309,-137 309,-156 400,-156 400,-137 309,-137"/>
<text text-anchor="middle" x="354.5" y="-144" font-family="Helvetica,sans-Serif" font-size="10.00" fill="#000000">openage::log::log</text>
</a>
</g>
</g>
<!-- Node46&#45;&gt;Node50 -->
<g id="edge5" class="edge">
<title>Node46&#45;&gt;Node50</title>
<path fill="none" stroke="#191970" d="M247.1395,-146.5C263.7892,-146.5 282.0453,-146.5 298.705,-146.5"/>
<polygon fill="#191970" stroke="#191970" points="298.8431,-150.0001 308.8431,-146.5 298.843,-143.0001 298.8431,-150.0001"/>
</g>
<!-- Node56 -->
<g id="node12" class="node">
<title>Node56</title>
<g id="a_node12"><a xlink:href="../../d3/df4/namespaceopenage_1_1path.xhtml#a4fb2450790038eed534dfe29ad57d350" target="_top" xlink:title="openage::path::passable_line">
<polygon fill="#ffffff" stroke="#000000" points="283,-99 283,-118 426,-118 426,-99 283,-99"/>
<text text-anchor="middle" x="354.5" y="-106" font-family="Helvetica,sans-Serif" font-size="10.00" fill="#000000">openage::path::passable_line</text>
</a>
</g>
</g>
<!-- Node46&#45;&gt;Node56 -->
<g id="edge11" class="edge">
<title>Node46&#45;&gt;Node56</title>
<path fill="none" stroke="#191970" d="M232.6318,-136.911C254.2383,-131.8739 280.909,-125.6562 303.7858,-120.3229"/>
<polygon fill="#191970" stroke="#191970" points="304.7198,-123.6991 313.664,-118.0201 303.1305,-116.8819 304.7198,-123.6991"/>
</g>
<!-- Node58 -->
<g id="node14" class="node">
<title>Node58</title>
<g id="a_node14"><a xlink:href="../../dc/dfd/classopenage_1_1datastructure_1_1_pairing_heap.xhtml#ac6bcfcb890dd8d546b1b4c466cf09009" target="_top" xlink:title="returns and removes the smallest item on the heap. ">
<polygon fill="#ffffff" stroke="#000000" points="296.5,-49.5 296.5,-79.5 412.5,-79.5 412.5,-49.5 296.5,-49.5"/>
<text text-anchor="start" x="304.5" y="-67.5" font-family="Helvetica,sans-Serif" font-size="10.00" fill="#000000">openage::datastructure</text>
<text text-anchor="middle" x="354.5" y="-56.5" font-family="Helvetica,sans-Serif" font-size="10.00" fill="#000000">::PairingHeap::pop</text>
</a>
</g>
</g>
<!-- Node46&#45;&gt;Node58 -->
<g id="edge13" class="edge">
<title>Node46&#45;&gt;Node58</title>
<path fill="none" stroke="#191970" d="M204.9095,-136.8214C222.2791,-124.6013 253.7996,-103.4883 283,-89.5 287.553,-87.3189 292.3483,-85.2298 297.211,-83.2541"/>
<polygon fill="#191970" stroke="#191970" points="298.5496,-86.4889 306.5992,-79.6001 296.0106,-79.9656 298.5496,-86.4889"/>
</g>
<!-- Node59 -->
<g id="node15" class="node">
<title>Node59</title>
<g id="a_node15"><a xlink:href="../../dc/dfd/classopenage_1_1datastructure_1_1_pairing_heap.xhtml#a75e9e7602b59aeee47a2fd84a10c8f74" target="_top" xlink:title="adds the given item to the heap. ">
<polygon fill="#ffffff" stroke="#000000" points="296.5,-.5 296.5,-30.5 412.5,-30.5 412.5,-.5 296.5,-.5"/>
<text text-anchor="start" x="304.5" y="-18.5" font-family="Helvetica,sans-Serif" font-size="10.00" fill="#000000">openage::datastructure</text>
<text text-anchor="middle" x="354.5" y="-7.5" font-family="Helvetica,sans-Serif" font-size="10.00" fill="#000000">::PairingHeap::push</text>
</a>
</g>
</g>
<!-- Node46&#45;&gt;Node59 -->
<g id="edge14" class="edge">
<title>Node46&#45;&gt;Node59</title>
<path fill="none" stroke="#191970" d="M197.0919,-136.9947C209.755,-116.2715 242.6801,-66.7063 283,-39.5 285.2624,-37.9734 287.6304,-36.5363 290.0717,-35.1843"/>
<polygon fill="#191970" stroke="#191970" points="291.7828,-38.2423 299.1753,-30.6527 288.6634,-31.9757 291.7828,-38.2423"/>
</g>
<!-- Node51 -->
<g id="node7" class="node">
<title>Node51</title>
<g id="a_node7"><a xlink:href="../../dd/d1a/namespaceopenage_1_1log.xhtml#a3fbb0c225d01e222648ec28a43507188" target="_top" xlink:title="Returns a reference to a general named log source, for use by log::log(). ">
<polygon fill="#ffffff" stroke="#000000" points="478.5,-175.5 478.5,-205.5 588.5,-205.5 588.5,-175.5 478.5,-175.5"/>
<text text-anchor="start" x="486.5" y="-193.5" font-family="Helvetica,sans-Serif" font-size="10.00" fill="#000000">openage::log::general</text>
<text text-anchor="middle" x="533.5" y="-182.5" font-family="Helvetica,sans-Serif" font-size="10.00" fill="#000000">_source</text>
</a>
</g>
</g>
<!-- Node50&#45;&gt;Node51 -->
<g id="edge6" class="edge">
<title>Node50&#45;&gt;Node51</title>
<path fill="none" stroke="#191970" d="M393.3403,-156.0473C415.3075,-161.4471 443.3457,-168.3392 468.5638,-174.538"/>
<polygon fill="#191970" stroke="#191970" points="467.8901,-177.9766 478.4365,-176.9648 469.5611,-171.1789 467.8901,-177.9766"/>
</g>
<!-- Node52 -->
<g id="node8" class="node">
<title>Node52</title>
<g id="a_node8"><a xlink:href="../../de/de3/classopenage_1_1log_1_1_log_source.xhtml#a5640099e20af4cd368c767dbcef3a1df" target="_top" xlink:title="Logs a message (get one via MSG(level)). ">
<polygon fill="#ffffff" stroke="#000000" points="462,-137 462,-156 605,-156 605,-137 462,-137"/>
<text text-anchor="middle" x="533.5" y="-144" font-family="Helvetica,sans-Serif" font-size="10.00" fill="#000000">openage::log::LogSource::log</text>
</a>
</g>
</g>
<!-- Node50&#45;&gt;Node52 -->
<g id="edge7" class="edge">
<title>Node50&#45;&gt;Node52</title>
<path fill="none" stroke="#191970" d="M400.1324,-146.5C415.8046,-146.5 433.8611,-146.5 451.5239,-146.5"/>
<polygon fill="#191970" stroke="#191970" points="451.8571,-150.0001 461.857,-146.5 451.857,-143.0001 451.8571,-150.0001"/>
</g>
<!-- Node53 -->
<g id="node9" class="node">
<title>Node53</title>
<g id="a_node9"><a xlink:href="../../dd/d1a/namespaceopenage_1_1log.xhtml#a3d2885be9c3a09b9ff7ee8764b2e5f39" target="_top" xlink:title="Returns a reference to the global stdout logsink object; Initializes the object if needed...">
<polygon fill="#ffffff" stroke="#000000" points="663,-180.5 663,-210.5 767,-210.5 767,-180.5 663,-180.5"/>
<text text-anchor="start" x="671" y="-198.5" font-family="Helvetica,sans-Serif" font-size="10.00" fill="#000000">openage::log::global</text>
<text text-anchor="middle" x="715" y="-187.5" font-family="Helvetica,sans-Serif" font-size="10.00" fill="#000000">_stdoutsink</text>
</a>
</g>
</g>
<!-- Node52&#45;&gt;Node53 -->
<g id="edge8" class="edge">
<title>Node52&#45;&gt;Node53</title>
<path fill="none" stroke="#191970" d="M568.9259,-156.064C592.8272,-162.5167 625.008,-171.2046 653.0812,-178.7836"/>
<polygon fill="#191970" stroke="#191970" points="652.2527,-182.1852 662.8194,-181.4127 654.0773,-175.4272 652.2527,-182.1852"/>
</g>
<!-- Node54 -->
<g id="node10" class="node">
<title>Node54</title>
<g id="a_node10"><a xlink:href="../../d0/d58/classopenage_1_1log_1_1_log_sink_list.xhtml#a2d47416fab12651553b4b58c86fd6f84" target="_top" xlink:title="openage::log::LogSinkList\l::instance">
<polygon fill="#ffffff" stroke="#000000" points="650.5,-131.5 650.5,-161.5 779.5,-161.5 779.5,-131.5 650.5,-131.5"/>
<text text-anchor="start" x="658.5" y="-149.5" font-family="Helvetica,sans-Serif" font-size="10.00" fill="#000000">openage::log::LogSinkList</text>
<text text-anchor="middle" x="715" y="-138.5" font-family="Helvetica,sans-Serif" font-size="10.00" fill="#000000">::instance</text>
</a>
</g>
</g>
<!-- Node52&#45;&gt;Node54 -->
<g id="edge9" class="edge">
<title>Node52&#45;&gt;Node54</title>
<path fill="none" stroke="#191970" d="M605.2336,-146.5C616.7292,-146.5 628.651,-146.5 640.2157,-146.5"/>
<polygon fill="#191970" stroke="#191970" points="640.267,-150.0001 650.267,-146.5 640.267,-143.0001 640.267,-150.0001"/>
</g>
<!-- Node55 -->
<g id="node11" class="node">
<title>Node55</title>
<g id="a_node11"><a xlink:href="../../d0/d58/classopenage_1_1log_1_1_log_sink_list.xhtml#a8456b84ab55e1fe151c51438c5bfebdd" target="_top" xlink:title="openage::log::LogSinkList::log">
<polygon fill="#ffffff" stroke="#000000" points="641,-93 641,-112 789,-112 789,-93 641,-93"/>
<text text-anchor="middle" x="715" y="-100" font-family="Helvetica,sans-Serif" font-size="10.00" fill="#000000">openage::log::LogSinkList::log</text>
</a>
</g>
</g>
<!-- Node52&#45;&gt;Node55 -->
<g id="edge10" class="edge">
<title>Node52&#45;&gt;Node55</title>
<path fill="none" stroke="#191970" d="M572.8828,-136.9527C600.1156,-130.3508 636.5503,-121.5181 665.7102,-114.449"/>
<polygon fill="#191970" stroke="#191970" points="666.8002,-117.7863 675.6941,-112.0287 665.1509,-110.9833 666.8002,-117.7863"/>
</g>
<!-- Node57 -->
<g id="node13" class="node">
<title>Node57</title>
<g id="a_node13"><a xlink:href="../../dc/d65/classopenage_1_1util_1_1_fixed_point.xhtml#a3d55d1b8ecdb0fd4ff8e7e3da2598554" target="_top" xlink:title="Converter to retrieve the number as double. ">
<polygon fill="#ffffff" stroke="#000000" points="471,-87.5 471,-117.5 596,-117.5 596,-87.5 471,-87.5"/>
<text text-anchor="start" x="479" y="-105.5" font-family="Helvetica,sans-Serif" font-size="10.00" fill="#000000">openage::util::FixedPoint</text>
<text text-anchor="middle" x="533.5" y="-94.5" font-family="Helvetica,sans-Serif" font-size="10.00" fill="#000000">::to_double</text>
</a>
</g>
</g>
<!-- Node56&#45;&gt;Node57 -->
<g id="edge12" class="edge">
<title>Node56&#45;&gt;Node57</title>
<path fill="none" stroke="#191970" d="M426.0172,-106.1028C437.3498,-105.7229 449.0836,-105.3296 460.4507,-104.9486"/>
<polygon fill="#191970" stroke="#191970" points="460.8877,-108.436 470.7648,-104.6029 460.6532,-101.4399 460.8877,-108.436"/>
</g>
</g>
</svg>
        <g id="navigator" transform="translate(0 0)" fill="#404254">
                <rect fill="#f2f5e9" fill-opacity="0.5" stroke="#606060" stroke-width=".5" x="0" y="0" width="60" height="60"/>
                <use id="zoomplus" xlink:href="#zoomPlus" x="17" y="9" onmousedown="handleZoom(evt,'in')"/>
                <use id="zoomminus" xlink:href="#zoomMin" x="42" y="9" onmousedown="handleZoom(evt,'out')"/>
                <use id="reset" xlink:href="#resetDef" x="30" y="36" onmousedown="handleReset()"/>
                <g id="arrowUp" xlink:href="#dirArrow" transform="translate(30 24)" onmousedown="handlePan(0,-1)">
                  <use xlink:href="#rim" fill="#404040">
                        <set attributeName="fill" to="#808080" begin="arrowUp.mouseover" end="arrowUp.mouseout"/>
                  </use>
                  <path fill="none" stroke="white" stroke-width="1.5" d="M0,-3.0v7 M-2.5,-0.5L0,-3.0L2.5,-0.5"/>
                </g>
                <g id="arrowRight" xlink:href="#dirArrow" transform="rotate(90) translate(36 -43)" onmousedown="handlePan(1,0)">
                  <use xlink:href="#rim" fill="#404040">
                        <set attributeName="fill" to="#808080" begin="arrowRight.mouseover" end="arrowRight.mouseout"/>
                  </use>
                  <path fill="none" stroke="white" stroke-width="1.5" d="M0,-3.0v7 M-2.5,-0.5L0,-3.0L2.5,-0.5"/>
                </g>
                <g id="arrowDown" xlink:href="#dirArrow" transform="rotate(180) translate(-30 -48)" onmousedown="handlePan(0,1)">
                  <use xlink:href="#rim" fill="#404040">
                        <set attributeName="fill" to="#808080" begin="arrowDown.mouseover" end="arrowDown.mouseout"/>
                  </use>
                  <path fill="none" stroke="white" stroke-width="1.5" d="M0,-3.0v7 M-2.5,-0.5L0,-3.0L2.5,-0.5"/>
                </g>
                <g id="arrowLeft" xlink:href="#dirArrow" transform="rotate(270) translate(-36 17)" onmousedown="handlePan(-1,0)">
                  <use xlink:href="#rim" fill="#404040">
                        <set attributeName="fill" to="#808080" begin="arrowLeft.mouseover" end="arrowLeft.mouseout"/>
                  </use>
                  <path fill="none" stroke="white" stroke-width="1.5" d="M0,-3.0v7 M-2.5,-0.5L0,-3.0L2.5,-0.5"/>
                </g>
        </g>
        <svg viewBox="0 0 15 15" width="100%" height="30px" preserveAspectRatio="xMaxYMin meet">
         <g id="arrow_out" transform="scale(0.3 0.3)">
          <a xlink:href="namespaceopenage_1_1path_a4382f59f9523f9dd89a6689336cc353a_cgraph_org.svg" target="_base">
           <rect id="button" ry="5" rx="5" y="6" x="6" height="38" width="38"
                fill="#f2f5e9" fill-opacity="0.5" stroke="#606060" stroke-width="1.0"/>
           <path id="arrow"
             d="M 11.500037,31.436501 C 11.940474,20.09759 22.043105,11.32322 32.158766,21.979434 L 37.068811,17.246167 C 37.068811,17.246167 37.088388,32 37.088388,32 L 22.160133,31.978069 C 22.160133,31.978069 26.997745,27.140456 26.997745,27.140456 C 18.528582,18.264221 13.291696,25.230495 11.500037,31.436501 z"
             style="fill:#404040;"/>
          </a>
         </g>
        </svg>
</svg>
