<?xml version="1.0" encoding="UTF-8" standalone="no"?>
<!DOCTYPE svg PUBLIC "-//W3C//DTD SVG 1.1//EN"
 "http://www.w3.org/Graphics/SVG/1.1/DTD/svg11.dtd">
<!-- Generated by graphviz version 2.40.1 (20161225.0304)
 -->
<!-- Title: openage::path::to_point Pages: 1 -->
<!--zoomable 302 -->
<svg id="main" version="1.1" xmlns="http://www.w3.org/2000/svg" xmlns:xlink="http://www.w3.org/1999/xlink" xml:space="preserve" onload="init(evt)">
<style type="text/css"><![CDATA[
.edge:hover path { stroke: red; }
.edge:hover polygon { stroke: red; fill: red; }
]]></style>
<script type="text/javascript"><![CDATA[
var edges = document.getElementsByTagName('g');
if (edges && edges.length) {
  for (var i=0;i<edges.length;i++) {
    if (edges[i].id.substr(0,4)=='edge') {
      edges[i].setAttribute('class','edge');
    }
  }
}
]]></script>
        <defs>
                <circle id="rim" cx="0" cy="0" r="7"/>
                <circle id="rim2" cx="0" cy="0" r="3.5"/>
                <g id="zoomPlus">
                        <use xlink:href="#rim" fill="#404040">
                                <set attributeName="fill" to="#808080" begin="zoomplus.mouseover" end="zoomplus.mouseout"/>
                        </use>
                        <path d="M-4,0h8M0,-4v8" fill="none" stroke="white" stroke-width="1.5" pointer-events="none"/>
                </g>
                <g id="zoomMin">
                        <use xlink:href="#rim" fill="#404040">
                                <set attributeName="fill" to="#808080" begin="zoomminus.mouseover" end="zoomminus.mouseout"/>
                        </use>
                        <path d="M-4,0h8" fill="none" stroke="white" stroke-width="1.5" pointer-events="none"/>
                </g>
                <g id="dirArrow">
                        <path fill="none" stroke="white" stroke-width="1.5" d="M0,-3.0v7 M-2.5,-0.5L0,-3.0L2.5,-0.5"/>
                </g>
               <g id="resetDef">
                       <use xlink:href="#rim2" fill="#404040">
                               <set attributeName="fill" to="#808080" begin="reset.mouseover" end="reset.mouseout"/>
                       </use>
               </g>
        </defs>

<script type="text/javascript">
var viewWidth = 854;
var viewHeight = 302;
var sectionId = 'dynsection-11';
</script>
<script xlink:href="../../svgpan.js"/>
<svg id="graph" class="graph">
<g id="viewport">
<title>openage::path::to_point</title>
<polygon fill="#ffffff" stroke="transparent" points="-4,4 -4,-297.5 850,-297.5 850,4 -4,4"/>
<!-- Node103 -->
<g id="node1" class="node">
<title>Node103</title>
<polygon fill="#bfbfbf" stroke="#000000" points="0,-77 0,-96 119,-96 119,-77 0,-77"/>
<text text-anchor="middle" x="59.5" y="-84" font-family="Helvetica,sans-Serif" font-size="10.00" fill="#000000">openage::path::to_point</text>
</g>
<!-- Node104 -->
<g id="node2" class="node">
<title>Node104</title>
<g id="a_node2"><a xlink:href="../../d3/df4/namespaceopenage_1_1path.xhtml#acafe3c2e0b6cef7750a14663eab6c883" target="_top" xlink:title="finds a path between two endpoints ">
<polygon fill="#ffffff" stroke="#000000" points="174,-137 174,-156 285,-156 285,-137 174,-137"/>
<text text-anchor="middle" x="229.5" y="-144" font-family="Helvetica,sans-Serif" font-size="10.00" fill="#000000">openage::path::a_star</text>
</a>
</g>
</g>
<!-- Node103&#45;&gt;Node104 -->
<g id="edge1" class="edge">
<title>Node103&#45;&gt;Node104</title>
<path fill="none" stroke="#191970" d="M79.2667,-96.0627C98.3366,-105.029 128.1788,-118.3844 155,-127.5 162.2057,-129.949 169.8971,-132.2495 177.5005,-134.3463"/>
<polygon fill="#191970" stroke="#191970" points="176.8332,-137.7905 187.397,-136.9807 178.6339,-131.026 176.8332,-137.7905"/>
</g>
<!-- Node118 -->
<g id="node16" class="node">
<title>Node118</title>
<g id="a_node16"><a xlink:href="../../d3/df4/namespaceopenage_1_1path.xhtml#a18aa96b43da6809c7796eaa4214a3420" target="_top" xlink:title="Euclidean distance cost estimation. ">
<polygon fill="#ffffff" stroke="#000000" points="155,-99 155,-118 304,-118 304,-99 155,-99"/>
<text text-anchor="middle" x="229.5" y="-106" font-family="Helvetica,sans-Serif" font-size="10.00" fill="#000000">openage::path::euclidean_cost</text>
</a>
</g>
</g>
<!-- Node103&#45;&gt;Node118 -->
<g id="edge15" class="edge">
<title>Node103&#45;&gt;Node118</title>
<path fill="none" stroke="#191970" d="M119.4356,-94.2564C127.9786,-95.3619 136.8925,-96.5155 145.7876,-97.6666"/>
<polygon fill="#191970" stroke="#191970" points="145.4352,-101.1501 155.8017,-98.9626 146.3336,-94.208 145.4352,-101.1501"/>
</g>
<!-- Node119 -->
<g id="node17" class="node">
<title>Node119</title>
<g id="a_node17"><a xlink:href="../../d3/df4/namespaceopenage_1_1path.xhtml#a64affc7c4a103a4ffabfd72c454962cf" target="_top" xlink:title="Squared euclidean distance cost estimation. ">
<polygon fill="#ffffff" stroke="#000000" points="167,-49.5 167,-79.5 292,-79.5 292,-49.5 167,-49.5"/>
<text text-anchor="start" x="175" y="-67.5" font-family="Helvetica,sans-Serif" font-size="10.00" fill="#000000">openage::path::euclidean</text>
<text text-anchor="middle" x="229.5" y="-56.5" font-family="Helvetica,sans-Serif" font-size="10.00" fill="#000000">_squared_cost</text>
</a>
</g>
</g>
<!-- Node103&#45;&gt;Node119 -->
<g id="edge16" class="edge">
<title>Node103&#45;&gt;Node119</title>
<path fill="none" stroke="#191970" d="M119.4356,-78.7436C131.5798,-77.172 144.4736,-75.5034 156.9973,-73.8827"/>
<polygon fill="#191970" stroke="#191970" points="157.4723,-77.3505 166.9404,-72.5959 156.5739,-70.4084 157.4723,-77.3505"/>
</g>
<!-- Node120 -->
<g id="node18" class="node">
<title>Node120</title>
<g id="a_node18"><a xlink:href="../../dc/d65/classopenage_1_1util_1_1_fixed_point.xhtml#a07a0fa1c13f5aff3f184a2d82574e7e7" target="_top" xlink:title="Converter to retrieve the number as float. ">
<polygon fill="#ffffff" stroke="#000000" points="167,-.5 167,-30.5 292,-30.5 292,-.5 167,-.5"/>
<text text-anchor="start" x="175" y="-18.5" font-family="Helvetica,sans-Serif" font-size="10.00" fill="#000000">openage::util::FixedPoint</text>
<text text-anchor="middle" x="229.5" y="-7.5" font-family="Helvetica,sans-Serif" font-size="10.00" fill="#000000">::to_float</text>
</a>
</g>
</g>
<!-- Node103&#45;&gt;Node120 -->
<g id="edge17" class="edge">
<title>Node103&#45;&gt;Node120</title>
<path fill="none" stroke="#191970" d="M77.0985,-76.8716C95.9965,-66.7631 127.0785,-50.7981 155,-39.5 159.7591,-37.5743 164.7361,-35.6942 169.7631,-33.8883"/>
<polygon fill="#191970" stroke="#191970" points="171.156,-37.1095 179.4478,-30.5143 168.8529,-30.4992 171.156,-37.1095"/>
</g>
<!-- Node105 -->
<g id="node3" class="node">
<title>Node105</title>
<g id="a_node3"><a xlink:href="../../dd/d1a/namespaceopenage_1_1log.xhtml#a5cb08687f485da2549d7eebef26368a6" target="_top" xlink:title="debug message ">
<polygon fill="#ffffff" stroke="#000000" points="367.5,-274 367.5,-293 455.5,-293 455.5,-274 367.5,-274"/>
<text text-anchor="middle" x="411.5" y="-281" font-family="Helvetica,sans-Serif" font-size="10.00" fill="#000000">openage.log.dbg</text>
</a>
</g>
</g>
<!-- Node104&#45;&gt;Node105 -->
<g id="edge2" class="edge">
<title>Node104&#45;&gt;Node105</title>
<path fill="none" stroke="#191970" d="M235.6809,-156.152C250.6735,-178.7551 291.3434,-235.4019 340,-264.5 345.4255,-267.7446 351.4077,-270.4439 357.532,-272.6877"/>
<polygon fill="#191970" stroke="#191970" points="356.6208,-276.072 367.2133,-275.8515 358.7952,-269.4182 356.6208,-276.072"/>
</g>
<!-- Node106 -->
<g id="node4" class="node">
<title>Node106</title>
<g id="a_node4"><a xlink:href="../../dc/dfd/classopenage_1_1datastructure_1_1_pairing_heap.xhtml#ab94d37206816a45bcfe49f8631cc82a9" target="_top" xlink:title="You must call this after the node data decreased. ">
<polygon fill="#ffffff" stroke="#000000" points="350.5,-224.5 350.5,-254.5 472.5,-254.5 472.5,-224.5 350.5,-224.5"/>
<text text-anchor="start" x="358.5" y="-242.5" font-family="Helvetica,sans-Serif" font-size="10.00" fill="#000000">openage::datastructure</text>
<text text-anchor="middle" x="411.5" y="-231.5" font-family="Helvetica,sans-Serif" font-size="10.00" fill="#000000">::PairingHeap::decrease</text>
</a>
</g>
</g>
<!-- Node104&#45;&gt;Node106 -->
<g id="edge3" class="edge">
<title>Node104&#45;&gt;Node106</title>
<path fill="none" stroke="#191970" d="M242.5303,-156.0587C262.6295,-170.467 302.7757,-197.9291 340,-215.5 343.8631,-217.3235 347.9028,-219.072 352.0114,-220.735"/>
<polygon fill="#191970" stroke="#191970" points="351.0826,-224.1278 361.6724,-224.4553 353.5982,-217.5954 351.0826,-224.1278"/>
</g>
<!-- Node107 -->
<g id="node5" class="node">
<title>Node107</title>
<g id="a_node5"><a xlink:href="../../dc/dfd/classopenage_1_1datastructure_1_1_pairing_heap.xhtml#a7a529d5ee64fa5002f6487d3821df5f6" target="_top" xlink:title="openage::datastructure\l::PairingHeap::empty">
<polygon fill="#ffffff" stroke="#000000" points="353.5,-175.5 353.5,-205.5 469.5,-205.5 469.5,-175.5 353.5,-175.5"/>
<text text-anchor="start" x="361.5" y="-193.5" font-family="Helvetica,sans-Serif" font-size="10.00" fill="#000000">openage::datastructure</text>
<text text-anchor="middle" x="411.5" y="-182.5" font-family="Helvetica,sans-Serif" font-size="10.00" fill="#000000">::PairingHeap::empty</text>
</a>
</g>
</g>
<!-- Node104&#45;&gt;Node107 -->
<g id="edge4" class="edge">
<title>Node104&#45;&gt;Node107</title>
<path fill="none" stroke="#191970" d="M268.9913,-156.0473C290.7728,-161.3132 318.4249,-167.9983 343.5632,-174.0757"/>
<polygon fill="#191970" stroke="#191970" points="342.879,-177.5111 353.4215,-176.459 344.524,-170.7071 342.879,-177.5111"/>
</g>
<!-- Node108 -->
<g id="node6" class="node">
<title>Node108</title>
<g id="a_node6"><a xlink:href="../../dd/d1a/namespaceopenage_1_1log.xhtml#a0eff614e7d6e818746700ed9d29e583f" target="_top" xlink:title="Convenience method that makes use of the &#39;general&#39; LogSource. ">
<polygon fill="#ffffff" stroke="#000000" points="366,-137 366,-156 457,-156 457,-137 366,-137"/>
<text text-anchor="middle" x="411.5" y="-144" font-family="Helvetica,sans-Serif" font-size="10.00" fill="#000000">openage::log::log</text>
</a>
</g>
</g>
<!-- Node104&#45;&gt;Node108 -->
<g id="edge5" class="edge">
<title>Node104&#45;&gt;Node108</title>
<path fill="none" stroke="#191970" d="M285.0949,-146.5C307.4862,-146.5 333.2657,-146.5 355.6797,-146.5"/>
<polygon fill="#191970" stroke="#191970" points="355.7169,-150.0001 365.7169,-146.5 355.7169,-143.0001 355.7169,-150.0001"/>
</g>
<!-- Node114 -->
<g id="node12" class="node">
<title>Node114</title>
<g id="a_node12"><a xlink:href="../../d3/df4/namespaceopenage_1_1path.xhtml#a4fb2450790038eed534dfe29ad57d350" target="_top" xlink:title="openage::path::passable_line">
<polygon fill="#ffffff" stroke="#000000" points="340,-99 340,-118 483,-118 483,-99 340,-99"/>
<text text-anchor="middle" x="411.5" y="-106" font-family="Helvetica,sans-Serif" font-size="10.00" fill="#000000">openage::path::passable_line</text>
</a>
</g>
</g>
<!-- Node104&#45;&gt;Node114 -->
<g id="edge11" class="edge">
<title>Node104&#45;&gt;Node114</title>
<path fill="none" stroke="#191970" d="M275.4263,-136.911C299.8759,-131.8061 330.1331,-125.4887 355.903,-120.1082"/>
<polygon fill="#191970" stroke="#191970" points="356.8304,-123.4901 365.904,-118.0201 355.3997,-116.6378 356.8304,-123.4901"/>
</g>
<!-- Node116 -->
<g id="node14" class="node">
<title>Node116</title>
<g id="a_node14"><a xlink:href="../../dc/dfd/classopenage_1_1datastructure_1_1_pairing_heap.xhtml#ac6bcfcb890dd8d546b1b4c466cf09009" target="_top" xlink:title="returns and removes the smallest item on the heap. ">
<polygon fill="#ffffff" stroke="#000000" points="353.5,-49.5 353.5,-79.5 469.5,-79.5 469.5,-49.5 353.5,-49.5"/>
<text text-anchor="start" x="361.5" y="-67.5" font-family="Helvetica,sans-Serif" font-size="10.00" fill="#000000">openage::datastructure</text>
<text text-anchor="middle" x="411.5" y="-56.5" font-family="Helvetica,sans-Serif" font-size="10.00" fill="#000000">::PairingHeap::pop</text>
</a>
</g>
</g>
<!-- Node104&#45;&gt;Node116 -->
<g id="edge13" class="edge">
<title>Node104&#45;&gt;Node116</title>
<path fill="none" stroke="#191970" d="M282.6718,-136.8915C290.1071,-134.4326 297.4395,-131.3533 304,-127.5 324.0602,-115.7177 320.469,-102.1401 340,-89.5 343.1084,-87.4883 346.398,-85.6167 349.7912,-83.8787"/>
<polygon fill="#191970" stroke="#191970" points="351.3894,-86.9952 358.9625,-79.5858 348.4217,-80.6553 351.3894,-86.9952"/>
</g>
<!-- Node117 -->
<g id="node15" class="node">
<title>Node117</title>
<g id="a_node15"><a xlink:href="../../dc/dfd/classopenage_1_1datastructure_1_1_pairing_heap.xhtml#a75e9e7602b59aeee47a2fd84a10c8f74" target="_top" xlink:title="adds the given item to the heap. ">
<polygon fill="#ffffff" stroke="#000000" points="353.5,-.5 353.5,-30.5 469.5,-30.5 469.5,-.5 353.5,-.5"/>
<text text-anchor="start" x="361.5" y="-18.5" font-family="Helvetica,sans-Serif" font-size="10.00" fill="#000000">openage::datastructure</text>
<text text-anchor="middle" x="411.5" y="-7.5" font-family="Helvetica,sans-Serif" font-size="10.00" fill="#000000">::PairingHeap::push</text>
</a>
</g>
</g>
<!-- Node104&#45;&gt;Node117 -->
<g id="edge14" class="edge">
<title>Node104&#45;&gt;Node117</title>
<path fill="none" stroke="#191970" d="M285.2974,-138.5175C292.1041,-135.8125 298.5625,-132.2316 304,-127.5 335.8779,-99.7605 309.172,-68.4018 340,-39.5 341.4687,-38.1231 343.0188,-36.825 344.6354,-35.6012"/>
<polygon fill="#191970" stroke="#191970" points="346.6919,-38.4398 353.2018,-30.0809 342.9,-32.5558 346.6919,-38.4398"/>
</g>
<!-- Node109 -->
<g id="node7" class="node">
<title>Node109</title>
<g id="a_node7"><a xlink:href="../../dd/d1a/namespaceopenage_1_1log.xhtml#a3fbb0c225d01e222648ec28a43507188" target="_top" xlink:title="Returns a reference to a general named log source, for use by log::log(). ">
<polygon fill="#ffffff" stroke="#000000" points="535.5,-175.5 535.5,-205.5 645.5,-205.5 645.5,-175.5 535.5,-175.5"/>
<text text-anchor="start" x="543.5" y="-193.5" font-family="Helvetica,sans-Serif" font-size="10.00" fill="#000000">openage::log::general</text>
<text text-anchor="middle" x="590.5" y="-182.5" font-family="Helvetica,sans-Serif" font-size="10.00" fill="#000000">_source</text>
</a>
</g>
</g>
<!-- Node108&#45;&gt;Node109 -->
<g id="edge6" class="edge">
<title>Node108&#45;&gt;Node109</title>
<path fill="none" stroke="#191970" d="M450.3403,-156.0473C472.3075,-161.4471 500.3457,-168.3392 525.5638,-174.538"/>
<polygon fill="#191970" stroke="#191970" points="524.8901,-177.9766 535.4365,-176.9648 526.5611,-171.1789 524.8901,-177.9766"/>
</g>
<!-- Node110 -->
<g id="node8" class="node">
<title>Node110</title>
<g id="a_node8"><a xlink:href="../../de/de3/classopenage_1_1log_1_1_log_source.xhtml#a5640099e20af4cd368c767dbcef3a1df" target="_top" xlink:title="Logs a message (get one via MSG(level)). ">
<polygon fill="#ffffff" stroke="#000000" points="519,-137 519,-156 662,-156 662,-137 519,-137"/>
<text text-anchor="middle" x="590.5" y="-144" font-family="Helvetica,sans-Serif" font-size="10.00" fill="#000000">openage::log::LogSource::log</text>
</a>
</g>
</g>
<!-- Node108&#45;&gt;Node110 -->
<g id="edge7" class="edge">
<title>Node108&#45;&gt;Node110</title>
<path fill="none" stroke="#191970" d="M457.1324,-146.5C472.8046,-146.5 490.8611,-146.5 508.5239,-146.5"/>
<polygon fill="#191970" stroke="#191970" points="508.8571,-150.0001 518.857,-146.5 508.857,-143.0001 508.8571,-150.0001"/>
</g>
<!-- Node111 -->
<g id="node9" class="node">
<title>Node111</title>
<g id="a_node9"><a xlink:href="../../dd/d1a/namespaceopenage_1_1log.xhtml#a3d2885be9c3a09b9ff7ee8764b2e5f39" target="_top" xlink:title="Returns a reference to the global stdout logsink object; Initializes the object if needed...">
<polygon fill="#ffffff" stroke="#000000" points="720,-180.5 720,-210.5 824,-210.5 824,-180.5 720,-180.5"/>
<text text-anchor="start" x="728" y="-198.5" font-family="Helvetica,sans-Serif" font-size="10.00" fill="#000000">openage::log::global</text>
<text text-anchor="middle" x="772" y="-187.5" font-family="Helvetica,sans-Serif" font-size="10.00" fill="#000000">_stdoutsink</text>
</a>
</g>
</g>
<!-- Node110&#45;&gt;Node111 -->
<g id="edge8" class="edge">
<title>Node110&#45;&gt;Node111</title>
<path fill="none" stroke="#191970" d="M625.9259,-156.064C649.8272,-162.5167 682.008,-171.2046 710.0812,-178.7836"/>
<polygon fill="#191970" stroke="#191970" points="709.2527,-182.1852 719.8194,-181.4127 711.0773,-175.4272 709.2527,-182.1852"/>
</g>
<!-- Node112 -->
<g id="node10" class="node">
<title>Node112</title>
<g id="a_node10"><a xlink:href="../../d0/d58/classopenage_1_1log_1_1_log_sink_list.xhtml#a2d47416fab12651553b4b58c86fd6f84" target="_top" xlink:title="openage::log::LogSinkList\l::instance">
<polygon fill="#ffffff" stroke="#000000" points="707.5,-131.5 707.5,-161.5 836.5,-161.5 836.5,-131.5 707.5,-131.5"/>
<text text-anchor="start" x="715.5" y="-149.5" font-family="Helvetica,sans-Serif" font-size="10.00" fill="#000000">openage::log::LogSinkList</text>
<text text-anchor="middle" x="772" y="-138.5" font-family="Helvetica,sans-Serif" font-size="10.00" fill="#000000">::instance</text>
</a>
</g>
</g>
<!-- Node110&#45;&gt;Node112 -->
<g id="edge9" class="edge">
<title>Node110&#45;&gt;Node112</title>
<path fill="none" stroke="#191970" d="M662.2336,-146.5C673.7292,-146.5 685.651,-146.5 697.2157,-146.5"/>
<polygon fill="#191970" stroke="#191970" points="697.267,-150.0001 707.267,-146.5 697.267,-143.0001 697.267,-150.0001"/>
</g>
<!-- Node113 -->
<g id="node11" class="node">
<title>Node113</title>
<g id="a_node11"><a xlink:href="../../d0/d58/classopenage_1_1log_1_1_log_sink_list.xhtml#a8456b84ab55e1fe151c51438c5bfebdd" target="_top" xlink:title="openage::log::LogSinkList::log">
<polygon fill="#ffffff" stroke="#000000" points="698,-93 698,-112 846,-112 846,-93 698,-93"/>
<text text-anchor="middle" x="772" y="-100" font-family="Helvetica,sans-Serif" font-size="10.00" fill="#000000">openage::log::LogSinkList::log</text>
</a>
</g>
</g>
<!-- Node110&#45;&gt;Node113 -->
<g id="edge10" class="edge">
<title>Node110&#45;&gt;Node113</title>
<path fill="none" stroke="#191970" d="M629.8828,-136.9527C657.1156,-130.3508 693.5503,-121.5181 722.7102,-114.449"/>
<polygon fill="#191970" stroke="#191970" points="723.8002,-117.7863 732.6941,-112.0287 722.1509,-110.9833 723.8002,-117.7863"/>
</g>
<!-- Node115 -->
<g id="node13" class="node">
<title>Node115</title>
<g id="a_node13"><a xlink:href="../../dc/d65/classopenage_1_1util_1_1_fixed_point.xhtml#a3d55d1b8ecdb0fd4ff8e7e3da2598554" target="_top" xlink:title="Converter to retrieve the number as double. ">
<polygon fill="#ffffff" stroke="#000000" points="528,-87.5 528,-117.5 653,-117.5 653,-87.5 528,-87.5"/>
<text text-anchor="start" x="536" y="-105.5" font-family="Helvetica,sans-Serif" font-size="10.00" fill="#000000">openage::util::FixedPoint</text>
<text text-anchor="middle" x="590.5" y="-94.5" font-family="Helvetica,sans-Serif" font-size="10.00" fill="#000000">::to_double</text>
</a>
</g>
</g>
<!-- Node114&#45;&gt;Node115 -->
<g id="edge12" class="edge">
<title>Node114&#45;&gt;Node115</title>
<path fill="none" stroke="#191970" d="M483.0172,-106.1028C494.3498,-105.7229 506.0836,-105.3296 517.4507,-104.9486"/>
<polygon fill="#191970" stroke="#191970" points="517.8877,-108.436 527.7648,-104.6029 517.6532,-101.4399 517.8877,-108.436"/>
</g>
</g>
</svg>
        <g id="navigator" transform="translate(0 0)" fill="#404254">
                <rect fill="#f2f5e9" fill-opacity="0.5" stroke="#606060" stroke-width=".5" x="0" y="0" width="60" height="60"/>
                <use id="zoomplus" xlink:href="#zoomPlus" x="17" y="9" onmousedown="handleZoom(evt,'in')"/>
                <use id="zoomminus" xlink:href="#zoomMin" x="42" y="9" onmousedown="handleZoom(evt,'out')"/>
                <use id="reset" xlink:href="#resetDef" x="30" y="36" onmousedown="handleReset()"/>
                <g id="arrowUp" xlink:href="#dirArrow" transform="translate(30 24)" onmousedown="handlePan(0,-1)">
                  <use xlink:href="#rim" fill="#404040">
                        <set attributeName="fill" to="#808080" begin="arrowUp.mouseover" end="arrowUp.mouseout"/>
                  </use>
                  <path fill="none" stroke="white" stroke-width="1.5" d="M0,-3.0v7 M-2.5,-0.5L0,-3.0L2.5,-0.5"/>
                </g>
                <g id="arrowRight" xlink:href="#dirArrow" transform="rotate(90) translate(36 -43)" onmousedown="handlePan(1,0)">
                  <use xlink:href="#rim" fill="#404040">
                        <set attributeName="fill" to="#808080" begin="arrowRight.mouseover" end="arrowRight.mouseout"/>
                  </use>
                  <path fill="none" stroke="white" stroke-width="1.5" d="M0,-3.0v7 M-2.5,-0.5L0,-3.0L2.5,-0.5"/>
                </g>
                <g id="arrowDown" xlink:href="#dirArrow" transform="rotate(180) translate(-30 -48)" onmousedown="handlePan(0,1)">
                  <use xlink:href="#rim" fill="#404040">
                        <set attributeName="fill" to="#808080" begin="arrowDown.mouseover" end="arrowDown.mouseout"/>
                  </use>
                  <path fill="none" stroke="white" stroke-width="1.5" d="M0,-3.0v7 M-2.5,-0.5L0,-3.0L2.5,-0.5"/>
                </g>
                <g id="arrowLeft" xlink:href="#dirArrow" transform="rotate(270) translate(-36 17)" onmousedown="handlePan(-1,0)">
                  <use xlink:href="#rim" fill="#404040">
                        <set attributeName="fill" to="#808080" begin="arrowLeft.mouseover" end="arrowLeft.mouseout"/>
                  </use>
                  <path fill="none" stroke="white" stroke-width="1.5" d="M0,-3.0v7 M-2.5,-0.5L0,-3.0L2.5,-0.5"/>
                </g>
        </g>
        <svg viewBox="0 0 15 15" width="100%" height="30px" preserveAspectRatio="xMaxYMin meet">
         <g id="arrow_out" transform="scale(0.3 0.3)">
          <a xlink:href="namespaceopenage_1_1path_a4699fb2dbfd8178b2234b9fbb935179f_cgraph_org.svg" target="_base">
           <rect id="button" ry="5" rx="5" y="6" x="6" height="38" width="38"
                fill="#f2f5e9" fill-opacity="0.5" stroke="#606060" stroke-width="1.0"/>
           <path id="arrow"
             d="M 11.500037,31.436501 C 11.940474,20.09759 22.043105,11.32322 32.158766,21.979434 L 37.068811,17.246167 C 37.068811,17.246167 37.088388,32 37.088388,32 L 22.160133,31.978069 C 22.160133,31.978069 26.997745,27.140456 26.997745,27.140456 C 18.528582,18.264221 13.291696,25.230495 11.500037,31.436501 z"
             style="fill:#404040;"/>
          </a>
         </g>
        </svg>
</svg>
