<?xml version="1.0" encoding="UTF-8" standalone="no"?>
<!DOCTYPE svg PUBLIC "-//W3C//DTD SVG 1.1//EN"
 "http://www.w3.org/Graphics/SVG/1.1/DTD/svg11.dtd">
<!-- Generated by graphviz version 2.40.1 (20161225.0304)
 -->
<!-- Title: openage::pyinterface::PyException::type_name Pages: 1 -->
<svg width="452pt" height="39pt"
 viewBox="0.00 0.00 452.00 39.00" xmlns="http://www.w3.org/2000/svg" xmlns:xlink="http://www.w3.org/1999/xlink">
<g id="graph0" class="graph" transform="scale(1 1) rotate(0) translate(4 35)">
<title>openage::pyinterface::PyException::type_name</title>
<polygon fill="#ffffff" stroke="transparent" points="-4,4 -4,-35 448,-35 448,4 -4,4"/>
<!-- Node2 -->
<g id="node1" class="node">
<title>Node2</title>
<polygon fill="#bfbfbf" stroke="#000000" points="0,-.5 0,-30.5 132,-30.5 132,-.5 0,-.5"/>
<text text-anchor="start" x="8" y="-18.5" font-family="Helvetica,sans-Serif" font-size="10.00" fill="#000000">openage::pyinterface</text>
<text text-anchor="middle" x="66" y="-7.5" font-family="Helvetica,sans-Serif" font-size="10.00" fill="#000000">::PyException::type_name</text>
</g>
<!-- Node3 -->
<g id="node2" class="node">
<title>Node3</title>
<g id="a_node2"><a xlink:href="../../d5/d0e/namespaceopenage_1_1testing_1_1testing.xhtml#ac25bf81db406af62d08113ef7ae9fd6e" target="_top" xlink:title="openage.testing.testing.result">
<polygon fill="#ffffff" stroke="#000000" points="168,-6 168,-25 313,-25 313,-6 168,-6"/>
<text text-anchor="middle" x="240.5" y="-13" font-family="Helvetica,sans-Serif" font-size="10.00" fill="#000000">openage.testing.testing.result</text>
</a>
</g>
</g>
<!-- Node2&#45;&gt;Node3 -->
<g id="edge1" class="edge">
<title>Node2&#45;&gt;Node3</title>
<path fill="none" stroke="#191970" d="M132.4688,-15.5C140.6857,-15.5 149.1637,-15.5 157.5877,-15.5"/>
<polygon fill="#191970" stroke="#191970" points="157.8151,-19.0001 167.8151,-15.5 157.8151,-12.0001 157.8151,-19.0001"/>
</g>
<!-- Node4 -->
<g id="node3" class="node">
<title>Node4</title>
<g id="a_node3"><a xlink:href="../../de/d60/namespaceopenage_1_1util.xhtml#a7bc4421a5f0f57f3a0aba3f96eb8d19c" target="_top" xlink:title="method that behaves similar to python&#39;s &quot;repr&quot;. ">
<polygon fill="#ffffff" stroke="#000000" points="349,-6 349,-25 444,-25 444,-6 349,-6"/>
<text text-anchor="middle" x="396.5" y="-13" font-family="Helvetica,sans-Serif" font-size="10.00" fill="#000000">openage::util::repr</text>
</a>
</g>
</g>
<!-- Node3&#45;&gt;Node4 -->
<g id="edge2" class="edge">
<title>Node3&#45;&gt;Node4</title>
<path fill="none" stroke="#191970" d="M313.0196,-8.7648C321.6179,-8.7182 330.3054,-8.7815 338.6614,-8.9545"/>
<polygon fill="#191970" stroke="#191970" points="338.5718,-12.4533 348.6613,-9.2201 338.7578,-5.4558 338.5718,-12.4533"/>
</g>
<!-- Node4&#45;&gt;Node3 -->
<g id="edge3" class="edge">
<title>Node4&#45;&gt;Node3</title>
<path fill="none" stroke="#191970" d="M348.6613,-21.7799C340.5562,-22.0451 331.9375,-22.1982 323.24,-22.2389"/>
<polygon fill="#191970" stroke="#191970" points="323.021,-18.7389 313.0196,-22.2352 323.0183,-25.7389 323.021,-18.7389"/>
</g>
</g>
</svg>
