<?xml version="1.0" encoding="UTF-8" standalone="no"?>
<!DOCTYPE svg PUBLIC "-//W3C//DTD SVG 1.1//EN"
 "http://www.w3.org/Graphics/SVG/1.1/DTD/svg11.dtd">
<!-- Generated by graphviz version 2.40.1 (20161225.0304)
 -->
<!-- Title: openage::Region::subset Pages: 1 -->
<!--zoomable 61 -->
<svg id="main" version="1.1" xmlns="http://www.w3.org/2000/svg" xmlns:xlink="http://www.w3.org/1999/xlink" xml:space="preserve" onload="init(evt)">
<style type="text/css"><![CDATA[
.edge:hover path { stroke: red; }
.edge:hover polygon { stroke: red; fill: red; }
]]></style>
<script type="text/javascript"><![CDATA[
var edges = document.getElementsByTagName('g');
if (edges && edges.length) {
  for (var i=0;i<edges.length;i++) {
    if (edges[i].id.substr(0,4)=='edge') {
      edges[i].setAttribute('class','edge');
    }
  }
}
]]></script>
        <defs>
                <circle id="rim" cx="0" cy="0" r="7"/>
                <circle id="rim2" cx="0" cy="0" r="3.5"/>
                <g id="zoomPlus">
                        <use xlink:href="#rim" fill="#404040">
                                <set attributeName="fill" to="#808080" begin="zoomplus.mouseover" end="zoomplus.mouseout"/>
                        </use>
                        <path d="M-4,0h8M0,-4v8" fill="none" stroke="white" stroke-width="1.5" pointer-events="none"/>
                </g>
                <g id="zoomMin">
                        <use xlink:href="#rim" fill="#404040">
                                <set attributeName="fill" to="#808080" begin="zoomminus.mouseover" end="zoomminus.mouseout"/>
                        </use>
                        <path d="M-4,0h8" fill="none" stroke="white" stroke-width="1.5" pointer-events="none"/>
                </g>
                <g id="dirArrow">
                        <path fill="none" stroke="white" stroke-width="1.5" d="M0,-3.0v7 M-2.5,-0.5L0,-3.0L2.5,-0.5"/>
                </g>
               <g id="resetDef">
                       <use xlink:href="#rim2" fill="#404040">
                               <set attributeName="fill" to="#808080" begin="reset.mouseover" end="reset.mouseout"/>
                       </use>
               </g>
        </defs>

<script type="text/javascript">
var viewWidth = 711;
var viewHeight = 61;
var sectionId = 'dynsection-5';
</script>
<script xlink:href="../../svgpan.js"/>
<svg id="graph" class="graph">
<g id="viewport">
<title>openage::Region::subset</title>
<polygon fill="#ffffff" stroke="transparent" points="-4,4 -4,-57 707,-57 707,4 -4,4"/>
<!-- Node38 -->
<g id="node1" class="node">
<title>Node38</title>
<polygon fill="#bfbfbf" stroke="#000000" points="0,-6 0,-25 125,-25 125,-6 0,-6"/>
<text text-anchor="middle" x="62.5" y="-13" font-family="Helvetica,sans-Serif" font-size="10.00" fill="#000000">openage::Region::subset</text>
</g>
<!-- Node39 -->
<g id="node2" class="node">
<title>Node39</title>
<g id="a_node2"><a xlink:href="../../d1/d80/classopenage_1_1_region.xhtml#a268c678dfa97caf1cd17b632ca74de40" target="_top" xlink:title="removes the given set of tiles from this region, which get split of as a new child region ...">
<polygon fill="#ffffff" stroke="#000000" points="161,-.5 161,-30.5 276,-30.5 276,-.5 161,-.5"/>
<text text-anchor="start" x="169" y="-18.5" font-family="Helvetica,sans-Serif" font-size="10.00" fill="#000000">openage::Region::take</text>
<text text-anchor="middle" x="218.5" y="-7.5" font-family="Helvetica,sans-Serif" font-size="10.00" fill="#000000">_tiles</text>
</a>
</g>
</g>
<!-- Node38&#45;&gt;Node39 -->
<g id="edge1" class="edge">
<title>Node38&#45;&gt;Node39</title>
<path fill="none" stroke="#191970" d="M135.1575,-15.5C143.8221,-15.5 152.5751,-15.5 160.986,-15.5"/>
<polygon fill="#191970" stroke="#191970" points="135.0523,-12.0001 125.0523,-15.5 135.0523,-19.0001 135.0523,-12.0001"/>
</g>
<!-- Node40 -->
<g id="node3" class="node">
<title>Node40</title>
<g id="a_node3"><a xlink:href="../../d1/d80/classopenage_1_1_region.xhtml#a365efd8b6f0199a7cb270af90291a662" target="_top" xlink:title="similiar to take_tiles, but takes a random group of tiles ">
<polygon fill="#ffffff" stroke="#000000" points="312,-22.5 312,-52.5 427,-52.5 427,-22.5 312,-22.5"/>
<text text-anchor="start" x="320" y="-40.5" font-family="Helvetica,sans-Serif" font-size="10.00" fill="#000000">openage::Region::take</text>
<text text-anchor="middle" x="369.5" y="-29.5" font-family="Helvetica,sans-Serif" font-size="10.00" fill="#000000">_random</text>
</a>
</g>
</g>
<!-- Node39&#45;&gt;Node40 -->
<g id="edge2" class="edge">
<title>Node39&#45;&gt;Node40</title>
<path fill="none" stroke="#191970" d="M286.0519,-25.342C294.6779,-26.5988 303.4438,-27.8759 311.8925,-29.1069"/>
<polygon fill="#191970" stroke="#191970" points="286.4175,-21.8584 276.0174,-23.88 285.4083,-28.7853 286.4175,-21.8584"/>
</g>
<!-- Node41 -->
<g id="node4" class="node">
<title>Node41</title>
<g id="a_node4"><a xlink:href="../../dd/d78/classopenage_1_1_generator.xhtml#ae221973cf4125fbf62af6f9626609b4a" target="_top" xlink:title="openage::Generator\l::create_regions">
<polygon fill="#ffffff" stroke="#000000" points="463,-.5 463,-30.5 565,-30.5 565,-.5 463,-.5"/>
<text text-anchor="start" x="471" y="-18.5" font-family="Helvetica,sans-Serif" font-size="10.00" fill="#000000">openage::Generator</text>
<text text-anchor="middle" x="514" y="-7.5" font-family="Helvetica,sans-Serif" font-size="10.00" fill="#000000">::create_regions</text>
</a>
</g>
</g>
<!-- Node39&#45;&gt;Node41 -->
<g id="edge5" class="edge">
<title>Node39&#45;&gt;Node41</title>
<path fill="none" stroke="#191970" d="M286.4014,-13.8771C295.0175,-13.7214 303.7149,-13.5886 312,-13.5 363.1082,-12.9535 375.8923,-12.9126 427,-13.5 438.6325,-13.6337 451.1382,-13.8679 462.9394,-14.1301"/>
<polygon fill="#191970" stroke="#191970" points="286.285,-10.3786 276.3538,-14.0693 286.419,-17.3773 286.285,-10.3786"/>
</g>
<!-- Node40&#45;&gt;Node41 -->
<g id="edge3" class="edge">
<title>Node40&#45;&gt;Node41</title>
<path fill="none" stroke="#191970" d="M437.0867,-27.21C445.7176,-25.8959 454.4375,-24.5683 462.7512,-23.3026"/>
<polygon fill="#191970" stroke="#191970" points="436.3847,-23.7764 427.0254,-28.7418 437.4383,-30.6967 436.3847,-23.7764"/>
</g>
<!-- Node42 -->
<g id="node5" class="node">
<title>Node42</title>
<g id="a_node5"><a xlink:href="../../dd/d78/classopenage_1_1_generator.xhtml#ab7579f771b73612867f7d07482e0a540" target="_top" xlink:title="Create a game from a specification. ">
<polygon fill="#ffffff" stroke="#000000" points="601,-.5 601,-30.5 703,-30.5 703,-.5 601,-.5"/>
<text text-anchor="start" x="609" y="-18.5" font-family="Helvetica,sans-Serif" font-size="10.00" fill="#000000">openage::Generator</text>
<text text-anchor="middle" x="652" y="-7.5" font-family="Helvetica,sans-Serif" font-size="10.00" fill="#000000">::create</text>
</a>
</g>
</g>
<!-- Node41&#45;&gt;Node42 -->
<g id="edge4" class="edge">
<title>Node41&#45;&gt;Node42</title>
<path fill="none" stroke="#191970" d="M575.4957,-15.5C583.872,-15.5 592.3977,-15.5 600.571,-15.5"/>
<polygon fill="#191970" stroke="#191970" points="575.3861,-12.0001 565.3861,-15.5 575.3861,-19.0001 575.3861,-12.0001"/>
</g>
</g>
</svg>
        <g id="navigator" transform="translate(0 0)" fill="#404254">
                <rect fill="#f2f5e9" fill-opacity="0.5" stroke="#606060" stroke-width=".5" x="0" y="0" width="60" height="60"/>
                <use id="zoomplus" xlink:href="#zoomPlus" x="17" y="9" onmousedown="handleZoom(evt,'in')"/>
                <use id="zoomminus" xlink:href="#zoomMin" x="42" y="9" onmousedown="handleZoom(evt,'out')"/>
                <use id="reset" xlink:href="#resetDef" x="30" y="36" onmousedown="handleReset()"/>
                <g id="arrowUp" xlink:href="#dirArrow" transform="translate(30 24)" onmousedown="handlePan(0,-1)">
                  <use xlink:href="#rim" fill="#404040">
                        <set attributeName="fill" to="#808080" begin="arrowUp.mouseover" end="arrowUp.mouseout"/>
                  </use>
                  <path fill="none" stroke="white" stroke-width="1.5" d="M0,-3.0v7 M-2.5,-0.5L0,-3.0L2.5,-0.5"/>
                </g>
                <g id="arrowRight" xlink:href="#dirArrow" transform="rotate(90) translate(36 -43)" onmousedown="handlePan(1,0)">
                  <use xlink:href="#rim" fill="#404040">
                        <set attributeName="fill" to="#808080" begin="arrowRight.mouseover" end="arrowRight.mouseout"/>
                  </use>
                  <path fill="none" stroke="white" stroke-width="1.5" d="M0,-3.0v7 M-2.5,-0.5L0,-3.0L2.5,-0.5"/>
                </g>
                <g id="arrowDown" xlink:href="#dirArrow" transform="rotate(180) translate(-30 -48)" onmousedown="handlePan(0,1)">
                  <use xlink:href="#rim" fill="#404040">
                        <set attributeName="fill" to="#808080" begin="arrowDown.mouseover" end="arrowDown.mouseout"/>
                  </use>
                  <path fill="none" stroke="white" stroke-width="1.5" d="M0,-3.0v7 M-2.5,-0.5L0,-3.0L2.5,-0.5"/>
                </g>
                <g id="arrowLeft" xlink:href="#dirArrow" transform="rotate(270) translate(-36 17)" onmousedown="handlePan(-1,0)">
                  <use xlink:href="#rim" fill="#404040">
                        <set attributeName="fill" to="#808080" begin="arrowLeft.mouseover" end="arrowLeft.mouseout"/>
                  </use>
                  <path fill="none" stroke="white" stroke-width="1.5" d="M0,-3.0v7 M-2.5,-0.5L0,-3.0L2.5,-0.5"/>
                </g>
        </g>
        <svg viewBox="0 0 15 15" width="100%" height="30px" preserveAspectRatio="xMaxYMin meet">
         <g id="arrow_out" transform="scale(0.3 0.3)">
          <a xlink:href="classopenage_1_1_region_aab907d7f645bc78647dd204ba136b5d4_icgraph_org.svg" target="_base">
           <rect id="button" ry="5" rx="5" y="6" x="6" height="38" width="38"
                fill="#f2f5e9" fill-opacity="0.5" stroke="#606060" stroke-width="1.0"/>
           <path id="arrow"
             d="M 11.500037,31.436501 C 11.940474,20.09759 22.043105,11.32322 32.158766,21.979434 L 37.068811,17.246167 C 37.068811,17.246167 37.088388,32 37.088388,32 L 22.160133,31.978069 C 22.160133,31.978069 26.997745,27.140456 26.997745,27.140456 C 18.528582,18.264221 13.291696,25.230495 11.500037,31.436501 z"
             style="fill:#404040;"/>
          </a>
         </g>
        </svg>
</svg>
