<?xml version="1.0" encoding="UTF-8" standalone="no"?>
<!DOCTYPE svg PUBLIC "-//W3C//DTD SVG 1.1//EN"
 "http://www.w3.org/Graphics/SVG/1.1/DTD/svg11.dtd">
<!-- Generated by graphviz version 2.40.1 (20161225.0304)
 -->
<!-- Title: openage::Region::take_random Pages: 1 -->
<!--zoomable 168 -->
<svg id="main" version="1.1" xmlns="http://www.w3.org/2000/svg" xmlns:xlink="http://www.w3.org/1999/xlink" xml:space="preserve" onload="init(evt)">
<style type="text/css"><![CDATA[
.edge:hover path { stroke: red; }
.edge:hover polygon { stroke: red; fill: red; }
]]></style>
<script type="text/javascript"><![CDATA[
var edges = document.getElementsByTagName('g');
if (edges && edges.length) {
  for (var i=0;i<edges.length;i++) {
    if (edges[i].id.substr(0,4)=='edge') {
      edges[i].setAttribute('class','edge');
    }
  }
}
]]></script>
        <defs>
                <circle id="rim" cx="0" cy="0" r="7"/>
                <circle id="rim2" cx="0" cy="0" r="3.5"/>
                <g id="zoomPlus">
                        <use xlink:href="#rim" fill="#404040">
                                <set attributeName="fill" to="#808080" begin="zoomplus.mouseover" end="zoomplus.mouseout"/>
                        </use>
                        <path d="M-4,0h8M0,-4v8" fill="none" stroke="white" stroke-width="1.5" pointer-events="none"/>
                </g>
                <g id="zoomMin">
                        <use xlink:href="#rim" fill="#404040">
                                <set attributeName="fill" to="#808080" begin="zoomminus.mouseover" end="zoomminus.mouseout"/>
                        </use>
                        <path d="M-4,0h8" fill="none" stroke="white" stroke-width="1.5" pointer-events="none"/>
                </g>
                <g id="dirArrow">
                        <path fill="none" stroke="white" stroke-width="1.5" d="M0,-3.0v7 M-2.5,-0.5L0,-3.0L2.5,-0.5"/>
                </g>
               <g id="resetDef">
                       <use xlink:href="#rim2" fill="#404040">
                               <set attributeName="fill" to="#808080" begin="reset.mouseover" end="reset.mouseout"/>
                       </use>
               </g>
        </defs>

<script type="text/javascript">
var viewWidth = 1109;
var viewHeight = 168;
var sectionId = 'dynsection-6';
</script>
<script xlink:href="../../svgpan.js"/>
<svg id="graph" class="graph">
<g id="viewport">
<title>openage::Region::take_random</title>
<polygon fill="#ffffff" stroke="transparent" points="-4,4 -4,-163.5 1105,-163.5 1105,4 -4,4"/>
<!-- Node43 -->
<g id="node1" class="node">
<title>Node43</title>
<polygon fill="#bfbfbf" stroke="#000000" points="0,-61 0,-91 115,-91 115,-61 0,-61"/>
<text text-anchor="start" x="8" y="-79" font-family="Helvetica,sans-Serif" font-size="10.00" fill="#000000">openage::Region::take</text>
<text text-anchor="middle" x="57.5" y="-68" font-family="Helvetica,sans-Serif" font-size="10.00" fill="#000000">_random</text>
</g>
<!-- Node44 -->
<g id="node2" class="node">
<title>Node44</title>
<g id="a_node2"><a xlink:href="../../d1/d80/classopenage_1_1_region.xhtml#a01b77dd370f14a109a1691702244bb15" target="_top" xlink:title="picks a random tile from this subset ">
<polygon fill="#ffffff" stroke="#000000" points="302,-88.5 302,-107.5 430,-107.5 430,-88.5 302,-88.5"/>
<text text-anchor="middle" x="366" y="-95.5" font-family="Helvetica,sans-Serif" font-size="10.00" fill="#000000">openage::Region::get_tile</text>
</a>
</g>
</g>
<!-- Node43&#45;&gt;Node44 -->
<g id="edge1" class="edge">
<title>Node43&#45;&gt;Node44</title>
<path fill="none" stroke="#191970" d="M115.1646,-80.1122C165.0531,-83.6699 237.4966,-88.8361 291.7178,-92.7027"/>
<polygon fill="#191970" stroke="#191970" points="291.7397,-96.2131 301.9634,-93.4334 292.2377,-89.2308 291.7397,-96.2131"/>
</g>
<!-- Node55 -->
<g id="node13" class="node">
<title>Node55</title>
<g id="a_node13"><a xlink:href="../../d1/d80/classopenage_1_1_region.xhtml#a268c678dfa97caf1cd17b632ca74de40" target="_top" xlink:title="removes the given set of tiles from this region, which get split of as a new child region ...">
<polygon fill="#ffffff" stroke="#000000" points="151,-39 151,-69 266,-69 266,-39 151,-39"/>
<text text-anchor="start" x="159" y="-57" font-family="Helvetica,sans-Serif" font-size="10.00" fill="#000000">openage::Region::take</text>
<text text-anchor="middle" x="208.5" y="-46" font-family="Helvetica,sans-Serif" font-size="10.00" fill="#000000">_tiles</text>
</a>
</g>
</g>
<!-- Node43&#45;&gt;Node55 -->
<g id="edge12" class="edge">
<title>Node43&#45;&gt;Node55</title>
<path fill="none" stroke="#191970" d="M115.0174,-67.62C123.4639,-66.3894 132.2292,-65.1123 140.8561,-63.8554"/>
<polygon fill="#191970" stroke="#191970" points="141.5016,-67.2984 150.8925,-62.3931 140.4924,-60.3715 141.5016,-67.2984"/>
</g>
<!-- Node45 -->
<g id="node3" class="node">
<title>Node45</title>
<g id="a_node3"><a xlink:href="../../da/d23/namespaceopenage.xhtml#a3acc47409b93e64eef42ad8add16052b" target="_top" xlink:title="picks a random tile from a set ">
<polygon fill="#ffffff" stroke="#000000" points="466,-88.5 466,-107.5 576,-107.5 576,-88.5 466,-88.5"/>
<text text-anchor="middle" x="521" y="-95.5" font-family="Helvetica,sans-Serif" font-size="10.00" fill="#000000">openage::random_tile</text>
</a>
</g>
</g>
<!-- Node44&#45;&gt;Node45 -->
<g id="edge2" class="edge">
<title>Node44&#45;&gt;Node45</title>
<path fill="none" stroke="#191970" d="M430.3874,-98C438.7843,-98 447.3926,-98 455.8027,-98"/>
<polygon fill="#191970" stroke="#191970" points="455.9352,-101.5001 465.9351,-98 455.9351,-94.5001 455.9352,-101.5001"/>
</g>
<!-- Node46 -->
<g id="node4" class="node">
<title>Node46</title>
<g id="a_node4"><a xlink:href="../../dd/d1a/namespaceopenage_1_1log.xhtml#ab6b4b10be67af93ab6c4d5a36139736e" target="_top" xlink:title="error message ">
<polygon fill="#ffffff" stroke="#000000" points="633.5,-126.5 633.5,-145.5 716.5,-145.5 716.5,-126.5 633.5,-126.5"/>
<text text-anchor="middle" x="675" y="-133.5" font-family="Helvetica,sans-Serif" font-size="10.00" fill="#000000">openage.log.err</text>
</a>
</g>
</g>
<!-- Node45&#45;&gt;Node46 -->
<g id="edge3" class="edge">
<title>Node45&#45;&gt;Node46</title>
<path fill="none" stroke="#191970" d="M559.8607,-107.589C580.0911,-112.5809 605.0207,-118.7324 626.5036,-124.0334"/>
<polygon fill="#191970" stroke="#191970" points="625.8714,-127.4823 636.4187,-126.4799 627.5485,-120.6861 625.8714,-127.4823"/>
</g>
<!-- Node47 -->
<g id="node5" class="node">
<title>Node47</title>
<g id="a_node5"><a xlink:href="../../dd/d1a/namespaceopenage_1_1log.xhtml#a0eff614e7d6e818746700ed9d29e583f" target="_top" xlink:title="Convenience method that makes use of the &#39;general&#39; LogSource. ">
<polygon fill="#ffffff" stroke="#000000" points="629.5,-88.5 629.5,-107.5 720.5,-107.5 720.5,-88.5 629.5,-88.5"/>
<text text-anchor="middle" x="675" y="-95.5" font-family="Helvetica,sans-Serif" font-size="10.00" fill="#000000">openage::log::log</text>
</a>
</g>
</g>
<!-- Node45&#45;&gt;Node47 -->
<g id="edge4" class="edge">
<title>Node45&#45;&gt;Node47</title>
<path fill="none" stroke="#191970" d="M576.1626,-98C590.1913,-98 605.2744,-98 619.3283,-98"/>
<polygon fill="#191970" stroke="#191970" points="619.3501,-101.5001 629.3501,-98 619.3501,-94.5001 619.3501,-101.5001"/>
</g>
<!-- Node53 -->
<g id="node11" class="node">
<title>Node53</title>
<g id="a_node11"><a xlink:href="../../da/daa/classopenage_1_1rng_1_1_r_n_g.xhtml#a95f8c2c7e00ab2531e0e6c33ae70e154" target="_top" xlink:title="Retrieves a random value from the generator. ">
<polygon fill="#ffffff" stroke="#000000" points="621.5,-39 621.5,-69 728.5,-69 728.5,-39 621.5,-39"/>
<text text-anchor="start" x="629.5" y="-57" font-family="Helvetica,sans-Serif" font-size="10.00" fill="#000000">openage::rng::RNG::</text>
<text text-anchor="middle" x="675" y="-46" font-family="Helvetica,sans-Serif" font-size="10.00" fill="#000000">random</text>
</a>
</g>
</g>
<!-- Node45&#45;&gt;Node53 -->
<g id="edge10" class="edge">
<title>Node45&#45;&gt;Node53</title>
<path fill="none" stroke="#191970" d="M554.4157,-88.4527C571.4447,-83.5872 592.7143,-77.5102 612.6285,-71.8204"/>
<polygon fill="#191970" stroke="#191970" points="613.6175,-75.178 622.2712,-69.0654 611.6944,-68.4473 613.6175,-75.178"/>
</g>
<!-- Node48 -->
<g id="node6" class="node">
<title>Node48</title>
<g id="a_node6"><a xlink:href="../../dd/d1a/namespaceopenage_1_1log.xhtml#a3fbb0c225d01e222648ec28a43507188" target="_top" xlink:title="Returns a reference to a general named log source, for use by log::log(). ">
<polygon fill="#ffffff" stroke="#000000" points="790.5,-124 790.5,-154 900.5,-154 900.5,-124 790.5,-124"/>
<text text-anchor="start" x="798.5" y="-142" font-family="Helvetica,sans-Serif" font-size="10.00" fill="#000000">openage::log::general</text>
<text text-anchor="middle" x="845.5" y="-131" font-family="Helvetica,sans-Serif" font-size="10.00" fill="#000000">_source</text>
</a>
</g>
</g>
<!-- Node47&#45;&gt;Node48 -->
<g id="edge5" class="edge">
<title>Node47&#45;&gt;Node48</title>
<path fill="none" stroke="#191970" d="M714.5447,-107.5093C734.1683,-112.2282 758.3794,-118.0502 780.6244,-123.3994"/>
<polygon fill="#191970" stroke="#191970" points="779.8084,-126.8029 790.3496,-125.738 781.4451,-119.9969 779.8084,-126.8029"/>
</g>
<!-- Node49 -->
<g id="node7" class="node">
<title>Node49</title>
<g id="a_node7"><a xlink:href="../../de/de3/classopenage_1_1log_1_1_log_source.xhtml#a5640099e20af4cd368c767dbcef3a1df" target="_top" xlink:title="Logs a message (get one via MSG(level)). ">
<polygon fill="#ffffff" stroke="#000000" points="774,-85.5 774,-104.5 917,-104.5 917,-85.5 774,-85.5"/>
<text text-anchor="middle" x="845.5" y="-92.5" font-family="Helvetica,sans-Serif" font-size="10.00" fill="#000000">openage::log::LogSource::log</text>
</a>
</g>
</g>
<!-- Node47&#45;&gt;Node49 -->
<g id="edge6" class="edge">
<title>Node47&#45;&gt;Node49</title>
<path fill="none" stroke="#191970" d="M720.6909,-97.1961C733.9951,-96.962 748.9509,-96.6988 763.765,-96.4382"/>
<polygon fill="#191970" stroke="#191970" points="764.0393,-99.934 773.9762,-96.2585 763.9161,-92.935 764.0393,-99.934"/>
</g>
<!-- Node50 -->
<g id="node8" class="node">
<title>Node50</title>
<g id="a_node8"><a xlink:href="../../dd/d1a/namespaceopenage_1_1log.xhtml#a3d2885be9c3a09b9ff7ee8764b2e5f39" target="_top" xlink:title="Returns a reference to the global stdout logsink object; Initializes the object if needed...">
<polygon fill="#ffffff" stroke="#000000" points="975,-129 975,-159 1079,-159 1079,-129 975,-129"/>
<text text-anchor="start" x="983" y="-147" font-family="Helvetica,sans-Serif" font-size="10.00" fill="#000000">openage::log::global</text>
<text text-anchor="middle" x="1027" y="-136" font-family="Helvetica,sans-Serif" font-size="10.00" fill="#000000">_stdoutsink</text>
</a>
</g>
</g>
<!-- Node49&#45;&gt;Node50 -->
<g id="edge7" class="edge">
<title>Node49&#45;&gt;Node50</title>
<path fill="none" stroke="#191970" d="M880.9259,-104.564C904.8272,-111.0167 937.008,-119.7046 965.0812,-127.2836"/>
<polygon fill="#191970" stroke="#191970" points="964.2527,-130.6852 974.8194,-129.9127 966.0773,-123.9272 964.2527,-130.6852"/>
</g>
<!-- Node51 -->
<g id="node9" class="node">
<title>Node51</title>
<g id="a_node9"><a xlink:href="../../d0/d58/classopenage_1_1log_1_1_log_sink_list.xhtml#a2d47416fab12651553b4b58c86fd6f84" target="_top" xlink:title="openage::log::LogSinkList\l::instance">
<polygon fill="#ffffff" stroke="#000000" points="962.5,-80 962.5,-110 1091.5,-110 1091.5,-80 962.5,-80"/>
<text text-anchor="start" x="970.5" y="-98" font-family="Helvetica,sans-Serif" font-size="10.00" fill="#000000">openage::log::LogSinkList</text>
<text text-anchor="middle" x="1027" y="-87" font-family="Helvetica,sans-Serif" font-size="10.00" fill="#000000">::instance</text>
</a>
</g>
</g>
<!-- Node49&#45;&gt;Node51 -->
<g id="edge8" class="edge">
<title>Node49&#45;&gt;Node51</title>
<path fill="none" stroke="#191970" d="M917.2336,-95C928.7292,-95 940.651,-95 952.2157,-95"/>
<polygon fill="#191970" stroke="#191970" points="952.267,-98.5001 962.267,-95 952.267,-91.5001 952.267,-98.5001"/>
</g>
<!-- Node52 -->
<g id="node10" class="node">
<title>Node52</title>
<g id="a_node10"><a xlink:href="../../d0/d58/classopenage_1_1log_1_1_log_sink_list.xhtml#a8456b84ab55e1fe151c51438c5bfebdd" target="_top" xlink:title="openage::log::LogSinkList::log">
<polygon fill="#ffffff" stroke="#000000" points="953,-41.5 953,-60.5 1101,-60.5 1101,-41.5 953,-41.5"/>
<text text-anchor="middle" x="1027" y="-48.5" font-family="Helvetica,sans-Serif" font-size="10.00" fill="#000000">openage::log::LogSinkList::log</text>
</a>
</g>
</g>
<!-- Node49&#45;&gt;Node52 -->
<g id="edge9" class="edge">
<title>Node49&#45;&gt;Node52</title>
<path fill="none" stroke="#191970" d="M884.8828,-85.4527C912.1156,-78.8508 948.5503,-70.0181 977.7102,-62.949"/>
<polygon fill="#191970" stroke="#191970" points="978.8002,-66.2863 987.6941,-60.5287 977.1509,-59.4833 978.8002,-66.2863"/>
</g>
<!-- Node54 -->
<g id="node12" class="node">
<title>Node54</title>
<g id="a_node12"><a xlink:href="../../d8/d88/namespaceopenage_1_1rng.xhtml#af7d90437e58aaa4fe1d816ad7b62dc07" target="_top" xlink:title="openage::rng::do_rng">
<polygon fill="#ffffff" stroke="#000000" points="791.5,-44.5 791.5,-63.5 899.5,-63.5 899.5,-44.5 791.5,-44.5"/>
<text text-anchor="middle" x="845.5" y="-51.5" font-family="Helvetica,sans-Serif" font-size="10.00" fill="#000000">openage::rng::do_rng</text>
</a>
</g>
</g>
<!-- Node53&#45;&gt;Node54 -->
<g id="edge11" class="edge">
<title>Node53&#45;&gt;Node54</title>
<path fill="none" stroke="#191970" d="M728.9473,-54C745.429,-54 763.7234,-54 780.8399,-54"/>
<polygon fill="#191970" stroke="#191970" points="781.3185,-57.5001 791.3185,-54 781.3184,-50.5001 781.3185,-57.5001"/>
</g>
<!-- Node56 -->
<g id="node14" class="node">
<title>Node56</title>
<g id="a_node14"><a xlink:href="../../d1/d80/classopenage_1_1_region.xhtml#aab907d7f645bc78647dd204ba136b5d4" target="_top" xlink:title="find a group of tiles inside this region, number is the number of tiles to be contained in the subset...">
<polygon fill="#ffffff" stroke="#000000" points="303.5,-44.5 303.5,-63.5 428.5,-63.5 428.5,-44.5 303.5,-44.5"/>
<text text-anchor="middle" x="366" y="-51.5" font-family="Helvetica,sans-Serif" font-size="10.00" fill="#000000">openage::Region::subset</text>
</a>
</g>
</g>
<!-- Node55&#45;&gt;Node56 -->
<g id="edge13" class="edge">
<title>Node55&#45;&gt;Node56</title>
<path fill="none" stroke="#191970" d="M266.2529,-54C275.0556,-54 284.2359,-54 293.3083,-54"/>
<polygon fill="#191970" stroke="#191970" points="293.4797,-57.5001 303.4797,-54 293.4796,-50.5001 293.4797,-57.5001"/>
</g>
<!-- Node56&#45;&gt;Node45 -->
<g id="edge17" class="edge">
<title>Node56&#45;&gt;Node45</title>
<path fill="none" stroke="#191970" d="M399.6327,-63.5473C422.4831,-70.0339 452.9198,-78.674 477.5963,-85.6789"/>
<polygon fill="#191970" stroke="#191970" points="476.8572,-89.1074 487.4329,-88.4713 478.7688,-82.3734 476.8572,-89.1074"/>
</g>
<!-- Node57 -->
<g id="node15" class="node">
<title>Node57</title>
<g id="a_node15"><a xlink:href="../../da/daa/classopenage_1_1rng_1_1_r_n_g.xhtml#ab24ce8fabde7df2ec900e3e1883281a4" target="_top" xlink:title="Returns true with the passed probability. ">
<polygon fill="#ffffff" stroke="#000000" points="467.5,-39 467.5,-69 574.5,-69 574.5,-39 467.5,-39"/>
<text text-anchor="start" x="475.5" y="-57" font-family="Helvetica,sans-Serif" font-size="10.00" fill="#000000">openage::rng::RNG::</text>
<text text-anchor="middle" x="521" y="-46" font-family="Helvetica,sans-Serif" font-size="10.00" fill="#000000">probability</text>
</a>
</g>
</g>
<!-- Node56&#45;&gt;Node57 -->
<g id="edge14" class="edge">
<title>Node56&#45;&gt;Node57</title>
<path fill="none" stroke="#191970" d="M428.5977,-54C437.9764,-54 447.6577,-54 457.0639,-54"/>
<polygon fill="#191970" stroke="#191970" points="457.1353,-57.5001 467.1352,-54 457.1352,-50.5001 457.1353,-57.5001"/>
</g>
<!-- Node57&#45;&gt;Node53 -->
<g id="edge15" class="edge">
<title>Node57&#45;&gt;Node53</title>
<path fill="none" stroke="#191970" d="M574.8617,-54C586.6525,-54 599.2412,-54 611.373,-54"/>
<polygon fill="#191970" stroke="#191970" points="611.4288,-57.5001 621.4287,-54 611.4287,-50.5001 611.4288,-57.5001"/>
</g>
<!-- Node58 -->
<g id="node16" class="node">
<title>Node58</title>
<g id="a_node16"><a xlink:href="../../da/daa/classopenage_1_1rng_1_1_r_n_g.xhtml#accd55f47ffd4049900e96f032f0a9375" target="_top" xlink:title="openage::rng::RNG::max">
<polygon fill="#ffffff" stroke="#000000" points="612,-.5 612,-19.5 738,-19.5 738,-.5 612,-.5"/>
<text text-anchor="middle" x="675" y="-7.5" font-family="Helvetica,sans-Serif" font-size="10.00" fill="#000000">openage::rng::RNG::max</text>
</a>
</g>
</g>
<!-- Node57&#45;&gt;Node58 -->
<g id="edge16" class="edge">
<title>Node57&#45;&gt;Node58</title>
<path fill="none" stroke="#191970" d="M573.5673,-38.9808C592.5353,-33.5613 613.7101,-27.5114 631.7862,-22.3468"/>
<polygon fill="#191970" stroke="#191970" points="632.8223,-25.6909 641.476,-19.5783 630.8992,-18.9602 632.8223,-25.6909"/>
</g>
</g>
</svg>
        <g id="navigator" transform="translate(0 0)" fill="#404254">
                <rect fill="#f2f5e9" fill-opacity="0.5" stroke="#606060" stroke-width=".5" x="0" y="0" width="60" height="60"/>
                <use id="zoomplus" xlink:href="#zoomPlus" x="17" y="9" onmousedown="handleZoom(evt,'in')"/>
                <use id="zoomminus" xlink:href="#zoomMin" x="42" y="9" onmousedown="handleZoom(evt,'out')"/>
                <use id="reset" xlink:href="#resetDef" x="30" y="36" onmousedown="handleReset()"/>
                <g id="arrowUp" xlink:href="#dirArrow" transform="translate(30 24)" onmousedown="handlePan(0,-1)">
                  <use xlink:href="#rim" fill="#404040">
                        <set attributeName="fill" to="#808080" begin="arrowUp.mouseover" end="arrowUp.mouseout"/>
                  </use>
                  <path fill="none" stroke="white" stroke-width="1.5" d="M0,-3.0v7 M-2.5,-0.5L0,-3.0L2.5,-0.5"/>
                </g>
                <g id="arrowRight" xlink:href="#dirArrow" transform="rotate(90) translate(36 -43)" onmousedown="handlePan(1,0)">
                  <use xlink:href="#rim" fill="#404040">
                        <set attributeName="fill" to="#808080" begin="arrowRight.mouseover" end="arrowRight.mouseout"/>
                  </use>
                  <path fill="none" stroke="white" stroke-width="1.5" d="M0,-3.0v7 M-2.5,-0.5L0,-3.0L2.5,-0.5"/>
                </g>
                <g id="arrowDown" xlink:href="#dirArrow" transform="rotate(180) translate(-30 -48)" onmousedown="handlePan(0,1)">
                  <use xlink:href="#rim" fill="#404040">
                        <set attributeName="fill" to="#808080" begin="arrowDown.mouseover" end="arrowDown.mouseout"/>
                  </use>
                  <path fill="none" stroke="white" stroke-width="1.5" d="M0,-3.0v7 M-2.5,-0.5L0,-3.0L2.5,-0.5"/>
                </g>
                <g id="arrowLeft" xlink:href="#dirArrow" transform="rotate(270) translate(-36 17)" onmousedown="handlePan(-1,0)">
                  <use xlink:href="#rim" fill="#404040">
                        <set attributeName="fill" to="#808080" begin="arrowLeft.mouseover" end="arrowLeft.mouseout"/>
                  </use>
                  <path fill="none" stroke="white" stroke-width="1.5" d="M0,-3.0v7 M-2.5,-0.5L0,-3.0L2.5,-0.5"/>
                </g>
        </g>
        <svg viewBox="0 0 15 15" width="100%" height="30px" preserveAspectRatio="xMaxYMin meet">
         <g id="arrow_out" transform="scale(0.3 0.3)">
          <a xlink:href="classopenage_1_1_region_a365efd8b6f0199a7cb270af90291a662_cgraph_org.svg" target="_base">
           <rect id="button" ry="5" rx="5" y="6" x="6" height="38" width="38"
                fill="#f2f5e9" fill-opacity="0.5" stroke="#606060" stroke-width="1.0"/>
           <path id="arrow"
             d="M 11.500037,31.436501 C 11.940474,20.09759 22.043105,11.32322 32.158766,21.979434 L 37.068811,17.246167 C 37.068811,17.246167 37.088388,32 37.088388,32 L 22.160133,31.978069 C 22.160133,31.978069 26.997745,27.140456 26.997745,27.140456 C 18.528582,18.264221 13.291696,25.230495 11.500037,31.436501 z"
             style="fill:#404040;"/>
          </a>
         </g>
        </svg>
</svg>
