<?xml version="1.0" encoding="UTF-8" standalone="no"?>
<!DOCTYPE svg PUBLIC "-//W3C//DTD SVG 1.1//EN"
 "http://www.w3.org/Graphics/SVG/1.1/DTD/svg11.dtd">
<!-- Generated by graphviz version 2.40.1 (20161225.0304)
 -->
<!-- Title: /mnt/c/Users/Jameson/Desktop/git/openage&#45;new&#45;doc&#45;system/libopenage/gui/guisys/private Pages: 1 -->
<svg width="244pt" height="219pt"
 viewBox="0.00 0.00 244.00 219.00" xmlns="http://www.w3.org/2000/svg" xmlns:xlink="http://www.w3.org/1999/xlink">
<g id="graph0" class="graph" transform="scale(1 1) rotate(0) translate(4 215)">
<title>/mnt/c/Users/Jameson/Desktop/git/openage&#45;new&#45;doc&#45;system/libopenage/gui/guisys/private</title>
<polygon fill="#ffffff" stroke="transparent" points="-4,4 -4,-215 240,-215 240,4 -4,4"/>
<g id="clust1" class="cluster">
<title>clusterdir_acb330e0bd97d2656bfb843bf4718018</title>
<g id="a_clust1"><a xlink:href="dir_acb330e0bd97d2656bfb843bf4718018.xhtml" target="_top" xlink:title="guisys">
<polygon fill="#ddddee" stroke="#000000" points="8,-8 8,-167 174,-167 174,-8 8,-8"/>
<text text-anchor="middle" x="91" y="-155" font-family="Helvetica,sans-Serif" font-size="10.00" fill="#000000">guisys</text>
</a>
</g>
</g>
<g id="clust2" class="cluster">
<title>clusterdir_78b5e0a243888fb9785f340b050804d7</title>
<g id="a_clust2"><a xlink:href="dir_78b5e0a243888fb9785f340b050804d7.xhtml" target="_top">
<polygon fill="#eeeeff" stroke="#000000" points="16,-16 16,-140 166,-140 166,-16 16,-16"/>
</a>
</g>
</g>
<!-- dir_78b5e0a243888fb9785f340b050804d7 -->
<g id="node1" class="node">
<title>dir_78b5e0a243888fb9785f340b050804d7</title>
<text text-anchor="middle" x="130" y="-111.5" font-family="Helvetica,sans-Serif" font-size="10.00" fill="#000000">private</text>
</g>
<!-- dir_9a525e6df3ce662347fd0125e10bcda2 -->
<g id="node2" class="node">
<title>dir_9a525e6df3ce662347fd0125e10bcda2</title>
<g id="a_node2"><a xlink:href="dir_9a525e6df3ce662347fd0125e10bcda2.xhtml" target="_top" xlink:title="livereload">
<polygon fill="#ffffff" stroke="#000000" points="158,-60 100,-60 100,-24 158,-24 158,-60"/>
<text text-anchor="middle" x="129" y="-39.5" font-family="Helvetica,sans-Serif" font-size="10.00" fill="#000000">livereload</text>
</a>
</g>
</g>
<!-- dir_78b5e0a243888fb9785f340b050804d7&#45;&gt;dir_9a525e6df3ce662347fd0125e10bcda2 -->
<g id="edge4" class="edge">
<title>dir_78b5e0a243888fb9785f340b050804d7&#45;&gt;dir_9a525e6df3ce662347fd0125e10bcda2</title>
<path fill="none" stroke="#000000" d="M129.7477,-95.8314C129.6407,-88.131 129.5135,-78.9743 129.3947,-70.4166"/>
<polygon fill="#000000" stroke="#000000" points="132.8944,-70.3637 129.2557,-60.4133 125.8951,-70.4609 132.8944,-70.3637"/>
<g id="a_edge4&#45;headlabel"><a xlink:href="dir_000022_000023.xhtml" target="_top" xlink:title="2">
<text text-anchor="middle" x="135.7832" y="-71.4185" font-family="Helvetica,sans-Serif" font-size="10.00" fill="#000000">2</text>
</a>
</g>
</g>
<!-- dir_87ca0b16c40389b37efbe69b92f7a47c -->
<g id="node3" class="node">
<title>dir_87ca0b16c40389b37efbe69b92f7a47c</title>
<g id="a_node3"><a xlink:href="dir_87ca0b16c40389b37efbe69b92f7a47c.xhtml" target="_top" xlink:title="platforms">
<polygon fill="#ffffff" stroke="#000000" points="81.5,-60 24.5,-60 24.5,-24 81.5,-24 81.5,-60"/>
<text text-anchor="middle" x="53" y="-39.5" font-family="Helvetica,sans-Serif" font-size="10.00" fill="#000000">platforms</text>
</a>
</g>
</g>
<!-- dir_78b5e0a243888fb9785f340b050804d7&#45;&gt;dir_87ca0b16c40389b37efbe69b92f7a47c -->
<g id="edge5" class="edge">
<title>dir_78b5e0a243888fb9785f340b050804d7&#45;&gt;dir_87ca0b16c40389b37efbe69b92f7a47c</title>
<path fill="none" stroke="#000000" d="M110.5696,-95.8314C101.268,-87.1337 89.9796,-76.5783 79.8714,-67.1265"/>
<polygon fill="#000000" stroke="#000000" points="82.1189,-64.4363 72.4241,-60.1628 77.3379,-69.5493 82.1189,-64.4363"/>
<g id="a_edge5&#45;headlabel"><a xlink:href="dir_000022_000024.xhtml" target="_top" xlink:title="1">
<text text-anchor="middle" x="86.6837" y="-62.3175" font-family="Helvetica,sans-Serif" font-size="10.00" fill="#000000">1</text>
</a>
</g>
</g>
<!-- dir_ee52762a54ed24851c9ca23cf72f1a00 -->
<g id="node5" class="node">
<title>dir_ee52762a54ed24851c9ca23cf72f1a00</title>
<g id="a_node5"><a xlink:href="dir_ee52762a54ed24851c9ca23cf72f1a00.xhtml" target="_top" xlink:title="public">
<polygon fill="none" stroke="#000000" points="197,-211 143,-211 143,-175 197,-175 197,-211"/>
<text text-anchor="middle" x="170" y="-190.5" font-family="Helvetica,sans-Serif" font-size="10.00" fill="#000000">public</text>
</a>
</g>
</g>
<!-- dir_78b5e0a243888fb9785f340b050804d7&#45;&gt;dir_ee52762a54ed24851c9ca23cf72f1a00 -->
<g id="edge6" class="edge">
<title>dir_78b5e0a243888fb9785f340b050804d7&#45;&gt;dir_ee52762a54ed24851c9ca23cf72f1a00</title>
<path fill="none" stroke="#000000" d="M133.4362,-132.2234C137.4795,-142.1772 143.6003,-154.7002 149.7711,-165.7885"/>
<polygon fill="#000000" stroke="#000000" points="146.8798,-167.7797 154.9219,-174.6772 152.9364,-164.2701 146.8798,-167.7797"/>
<g id="a_edge6&#45;headlabel"><a xlink:href="dir_000022_000025.xhtml" target="_top" xlink:title="7">
<text text-anchor="middle" x="142.621" y="-163.5931" font-family="Helvetica,sans-Serif" font-size="10.00" fill="#000000">7</text>
</a>
</g>
</g>
<!-- dir_33953da122726b9905cb02c38c71bd0c -->
<g id="node4" class="node">
<title>dir_33953da122726b9905cb02c38c71bd0c</title>
<g id="a_node4"><a xlink:href="dir_33953da122726b9905cb02c38c71bd0c.xhtml" target="_top" xlink:title="link">
<polygon fill="none" stroke="#000000" points="236,-132 182,-132 182,-96 236,-96 236,-132"/>
<text text-anchor="middle" x="209" y="-111.5" font-family="Helvetica,sans-Serif" font-size="10.00" fill="#000000">link</text>
</a>
</g>
</g>
<!-- dir_9a525e6df3ce662347fd0125e10bcda2&#45;&gt;dir_33953da122726b9905cb02c38c71bd0c -->
<g id="edge3" class="edge">
<title>dir_9a525e6df3ce662347fd0125e10bcda2&#45;&gt;dir_33953da122726b9905cb02c38c71bd0c</title>
<path fill="none" stroke="#000000" d="M143.2291,-60.1628C152.1307,-68.9449 163.8268,-79.622 174.9293,-89.1448"/>
<polygon fill="#000000" stroke="#000000" points="172.9588,-92.0615 182.8602,-95.8314 177.4708,-86.7097 172.9588,-92.0615"/>
<g id="a_edge3&#45;headlabel"><a xlink:href="dir_000023_000021.xhtml" target="_top" xlink:title="1">
<text text-anchor="middle" x="168.3805" y="-89.4152" font-family="Helvetica,sans-Serif" font-size="10.00" fill="#000000">1</text>
</a>
</g>
</g>
<!-- dir_33953da122726b9905cb02c38c71bd0c&#45;&gt;dir_78b5e0a243888fb9785f340b050804d7 -->
<g id="edge2" class="edge">
<title>dir_33953da122726b9905cb02c38c71bd0c&#45;&gt;dir_78b5e0a243888fb9785f340b050804d7</title>
<path fill="none" stroke="#000000" d="M181.863,-114C176.9732,-114 172.0833,-114 167.1934,-114"/>
<polygon fill="#000000" stroke="#000000" points="167.1563,-110.5001 157.1563,-114 167.1562,-117.5001 167.1563,-110.5001"/>
<g id="a_edge2&#45;headlabel"><a xlink:href="dir_000021_000022.xhtml" target="_top" xlink:title="3">
<text text-anchor="middle" x="170.7509" y="-105.1607" font-family="Helvetica,sans-Serif" font-size="10.00" fill="#000000">3</text>
</a>
</g>
</g>
<!-- dir_33953da122726b9905cb02c38c71bd0c&#45;&gt;dir_9a525e6df3ce662347fd0125e10bcda2 -->
<g id="edge1" class="edge">
<title>dir_33953da122726b9905cb02c38c71bd0c&#45;&gt;dir_9a525e6df3ce662347fd0125e10bcda2</title>
<path fill="none" stroke="#000000" d="M194.765,-95.8314C185.8622,-87.0485 174.1656,-76.3712 163.0634,-66.8489"/>
<polygon fill="#000000" stroke="#000000" points="165.0343,-63.9326 155.1327,-60.1628 160.5223,-69.2844 165.0343,-63.9326"/>
<g id="a_edge1&#45;headlabel"><a xlink:href="dir_000021_000023.xhtml" target="_top" xlink:title="1">
<text text-anchor="middle" x="169.6126" y="-61.5787" font-family="Helvetica,sans-Serif" font-size="10.00" fill="#000000">1</text>
</a>
</g>
</g>
<!-- dir_ee52762a54ed24851c9ca23cf72f1a00&#45;&gt;dir_78b5e0a243888fb9785f340b050804d7 -->
<g id="edge8" class="edge">
<title>dir_ee52762a54ed24851c9ca23cf72f1a00&#45;&gt;dir_78b5e0a243888fb9785f340b050804d7</title>
<path fill="none" stroke="#000000" d="M166.5234,-174.6772C162.4663,-164.7064 156.3384,-152.1796 150.1673,-141.101"/>
<polygon fill="#000000" stroke="#000000" points="153.063,-139.1174 145.0179,-132.2234 147.0079,-142.6297 153.063,-139.1174"/>
<g id="a_edge8&#45;headlabel"><a xlink:href="dir_000025_000022.xhtml" target="_top" xlink:title="7">
<text text-anchor="middle" x="157.3225" y="-138.3022" font-family="Helvetica,sans-Serif" font-size="10.00" fill="#000000">7</text>
</a>
</g>
</g>
<!-- dir_ee52762a54ed24851c9ca23cf72f1a00&#45;&gt;dir_33953da122726b9905cb02c38c71bd0c -->
<g id="edge7" class="edge">
<title>dir_ee52762a54ed24851c9ca23cf72f1a00&#45;&gt;dir_33953da122726b9905cb02c38c71bd0c</title>
<path fill="none" stroke="#000000" d="M179.0454,-174.6772C183.9185,-164.8061 190.0283,-152.4299 195.4568,-141.4338"/>
<polygon fill="#000000" stroke="#000000" points="198.7153,-142.7396 200.0036,-132.2234 192.4385,-139.6409 198.7153,-142.7396"/>
<g id="a_edge7&#45;headlabel"><a xlink:href="dir_000025_000021.xhtml" target="_top" xlink:title="1">
<text text-anchor="middle" x="199.6701" y="-144.7197" font-family="Helvetica,sans-Serif" font-size="10.00" fill="#000000">1</text>
</a>
</g>
</g>
</g>
</svg>
