<?xml version="1.0" encoding="UTF-8" standalone="no"?>
<!DOCTYPE svg PUBLIC "-//W3C//DTD SVG 1.1//EN"
 "http://www.w3.org/Graphics/SVG/1.1/DTD/svg11.dtd">
<!-- Generated by graphviz version 2.40.1 (20161225.0304)
 -->
<!-- Title: /mnt/c/Users/Jameson/Desktop/git/openage&#45;new&#45;doc&#45;system/libopenage/event Pages: 1 -->
<svg width="425pt" height="447pt"
 viewBox="0.00 0.00 425.23 447.00" xmlns="http://www.w3.org/2000/svg" xmlns:xlink="http://www.w3.org/1999/xlink">
<g id="graph0" class="graph" transform="scale(1 1) rotate(0) translate(4 443)">
<title>/mnt/c/Users/Jameson/Desktop/git/openage&#45;new&#45;doc&#45;system/libopenage/event</title>
<polygon fill="#ffffff" stroke="transparent" points="-4,4 -4,-443 421.2313,-443 421.2313,4 -4,4"/>
<g id="clust1" class="cluster">
<title>clusterdir_7a1433c2fe60c22d0d75c56b51397e23</title>
<g id="a_clust1"><a xlink:href="dir_7a1433c2fe60c22d0d75c56b51397e23.xhtml" target="_top" xlink:title="libopenage">
<polygon fill="#ddddee" stroke="#000000" points="128,-344 128,-431 286,-431 286,-344 128,-344"/>
<text text-anchor="middle" x="207" y="-419" font-family="Helvetica,sans-Serif" font-size="10.00" fill="#000000">libopenage</text>
</a>
</g>
</g>
<g id="clust2" class="cluster">
<title>clusterdir_906fd80251564c07ab43a732fc1e9e78</title>
<g id="a_clust2"><a xlink:href="dir_906fd80251564c07ab43a732fc1e9e78.xhtml" target="_top">
<polygon fill="#eeeeff" stroke="#000000" points="136,-352 136,-404 278,-404 278,-352 136,-352"/>
</a>
</g>
</g>
<!-- dir_906fd80251564c07ab43a732fc1e9e78 -->
<g id="node1" class="node">
<title>dir_906fd80251564c07ab43a732fc1e9e78</title>
<text text-anchor="middle" x="243" y="-375.5" font-family="Helvetica,sans-Serif" font-size="10.00" fill="#000000">event</text>
</g>
<!-- dir_d4038e006ae681f38d9f19ed63c3b2e6 -->
<g id="node3" class="node">
<title>dir_d4038e006ae681f38d9f19ed63c3b2e6</title>
<g id="a_node3"><a xlink:href="dir_d4038e006ae681f38d9f19ed63c3b2e6.xhtml" target="_top" xlink:title="log">
<polygon fill="none" stroke="#000000" points="234,-252 180,-252 180,-216 234,-216 234,-252"/>
<text text-anchor="middle" x="207" y="-231.5" font-family="Helvetica,sans-Serif" font-size="10.00" fill="#000000">log</text>
</a>
</g>
</g>
<!-- dir_906fd80251564c07ab43a732fc1e9e78&#45;&gt;dir_d4038e006ae681f38d9f19ed63c3b2e6 -->
<g id="edge14" class="edge">
<title>dir_906fd80251564c07ab43a732fc1e9e78&#45;&gt;dir_d4038e006ae681f38d9f19ed63c3b2e6</title>
<path fill="none" stroke="#000000" d="M236.7316,-359.6343C233.3094,-349.2474 229.1421,-335.9788 226,-324 220.6061,-303.4364 215.6841,-279.9219 212.2018,-262.0864"/>
<polygon fill="#000000" stroke="#000000" points="215.5979,-261.2116 210.2768,-252.0499 208.7232,-262.5303 215.5979,-261.2116"/>
<g id="a_edge14&#45;headlabel"><a xlink:href="dir_000007_000030.xhtml" target="_top" xlink:title="7">
<text text-anchor="middle" x="219.0634" y="-261.7071" font-family="Helvetica,sans-Serif" font-size="10.00" fill="#000000">7</text>
</a>
</g>
</g>
<!-- dir_7ea809f223a8f5a589c716fad2b2f668 -->
<g id="node4" class="node">
<title>dir_7ea809f223a8f5a589c716fad2b2f668</title>
<g id="a_node4"><a xlink:href="dir_7ea809f223a8f5a589c716fad2b2f668.xhtml" target="_top" xlink:title="datastructure">
<polygon fill="none" stroke="#000000" points="402,-252 328,-252 328,-216 402,-216 402,-252"/>
<text text-anchor="middle" x="365" y="-231.5" font-family="Helvetica,sans-Serif" font-size="10.00" fill="#000000">datastructure</text>
</a>
</g>
</g>
<!-- dir_906fd80251564c07ab43a732fc1e9e78&#45;&gt;dir_7ea809f223a8f5a589c716fad2b2f668 -->
<g id="edge15" class="edge">
<title>dir_906fd80251564c07ab43a732fc1e9e78&#45;&gt;dir_7ea809f223a8f5a589c716fad2b2f668</title>
<path fill="none" stroke="#000000" d="M262.8293,-359.9536C273.6343,-349.7757 287.0051,-336.6057 298,-324 315.7157,-303.689 333.8528,-279.0435 346.7811,-260.6817"/>
<polygon fill="#000000" stroke="#000000" points="349.8337,-262.4231 352.6846,-252.219 344.0926,-258.4181 349.8337,-262.4231"/>
<g id="a_edge15&#45;headlabel"><a xlink:href="dir_000007_000006.xhtml" target="_top" xlink:title="1">
<text text-anchor="middle" x="350.1058" y="-264.4957" font-family="Helvetica,sans-Serif" font-size="10.00" fill="#000000">1</text>
</a>
</g>
</g>
<!-- dir_453470d189f22e6c466bdeb48be1c767 -->
<g id="node8" class="node">
<title>dir_453470d189f22e6c466bdeb48be1c767</title>
<g id="a_node8"><a xlink:href="dir_453470d189f22e6c466bdeb48be1c767.xhtml" target="_top" xlink:title="testing">
<polygon fill="none" stroke="#000000" points="313,-108 259,-108 259,-72 313,-72 313,-108"/>
<text text-anchor="middle" x="286" y="-87.5" font-family="Helvetica,sans-Serif" font-size="10.00" fill="#000000">testing</text>
</a>
</g>
</g>
<!-- dir_906fd80251564c07ab43a732fc1e9e78&#45;&gt;dir_453470d189f22e6c466bdeb48be1c767 -->
<g id="edge16" class="edge">
<title>dir_906fd80251564c07ab43a732fc1e9e78&#45;&gt;dir_453470d189f22e6c466bdeb48be1c767</title>
<path fill="none" stroke="#000000" d="M270.2891,-367.4311C310.2572,-350.2316 383.0013,-311.9566 411,-252 437.6331,-194.9678 367.5166,-139.2769 321.8201,-110.3922"/>
<polygon fill="#000000" stroke="#000000" points="323.3913,-107.2492 313.0422,-104.9802 319.7175,-113.2077 323.3913,-107.2492"/>
<g id="a_edge16&#45;headlabel"><a xlink:href="dir_000007_000039.xhtml" target="_top" xlink:title="1">
<text text-anchor="middle" x="327.9411" y="-104.2189" font-family="Helvetica,sans-Serif" font-size="10.00" fill="#000000">1</text>
</a>
</g>
</g>
<!-- dir_6197a954b4bd6d8383a8df145c55be91 -->
<g id="node2" class="node">
<title>dir_6197a954b4bd6d8383a8df145c55be91</title>
<g id="a_node2"><a xlink:href="dir_6197a954b4bd6d8383a8df145c55be91.xhtml" target="_top" xlink:title="demo">
<polygon fill="#ffffff" stroke="#000000" points="198,-396 144,-396 144,-360 198,-360 198,-396"/>
<text text-anchor="middle" x="171" y="-375.5" font-family="Helvetica,sans-Serif" font-size="10.00" fill="#000000">demo</text>
</a>
</g>
</g>
<!-- dir_3c7a1d16eeb7847b36e40c66a45c0cab -->
<g id="node5" class="node">
<title>dir_3c7a1d16eeb7847b36e40c66a45c0cab</title>
<g id="a_node5"><a xlink:href="dir_3c7a1d16eeb7847b36e40c66a45c0cab.xhtml" target="_top" xlink:title="error">
<polygon fill="none" stroke="#000000" points="234,-36 180,-36 180,0 234,0 234,-36"/>
<text text-anchor="middle" x="207" y="-15.5" font-family="Helvetica,sans-Serif" font-size="10.00" fill="#000000">error</text>
</a>
</g>
</g>
<!-- dir_6197a954b4bd6d8383a8df145c55be91&#45;&gt;dir_3c7a1d16eeb7847b36e40c66a45c0cab -->
<g id="edge5" class="edge">
<title>dir_6197a954b4bd6d8383a8df145c55be91&#45;&gt;dir_3c7a1d16eeb7847b36e40c66a45c0cab</title>
<path fill="none" stroke="#000000" d="M143.9045,-369.3372C95.6872,-352.0312 0,-308.3244 0,-234 0,-234 0,-234 0,-162 0,-80.0601 110.6551,-40.9618 170.1566,-25.861"/>
<polygon fill="#000000" stroke="#000000" points="171.0513,-29.2455 179.9384,-23.4774 169.394,-22.4444 171.0513,-29.2455"/>
<g id="a_edge5&#45;headlabel"><a xlink:href="dir_000015_000002.xhtml" target="_top" xlink:title="1">
<text text-anchor="middle" x="168.231" y="-30.3549" font-family="Helvetica,sans-Serif" font-size="10.00" fill="#000000">1</text>
</a>
</g>
</g>
<!-- dir_a25237b91464ed624c167f154229e196 -->
<g id="node6" class="node">
<title>dir_a25237b91464ed624c167f154229e196</title>
<g id="a_node6"><a xlink:href="dir_a25237b91464ed624c167f154229e196.xhtml" target="_top" xlink:title="util">
<polygon fill="#ffffff" stroke="#ff0000" points="234,-180 180,-180 180,-144 234,-144 234,-180"/>
<text text-anchor="middle" x="207" y="-159.5" font-family="Helvetica,sans-Serif" font-size="10.00" fill="#000000">util</text>
</a>
</g>
</g>
<!-- dir_6197a954b4bd6d8383a8df145c55be91&#45;&gt;dir_a25237b91464ed624c167f154229e196 -->
<g id="edge6" class="edge">
<title>dir_6197a954b4bd6d8383a8df145c55be91&#45;&gt;dir_a25237b91464ed624c167f154229e196</title>
<path fill="none" stroke="#000000" d="M167.5997,-359.5171C162.7097,-328.8995 155.8407,-266.0679 171,-216 173.9564,-206.2355 179.3252,-196.6229 185.03,-188.2762"/>
<polygon fill="#000000" stroke="#000000" points="187.9414,-190.2239 191.0095,-180.0831 182.2871,-186.0973 187.9414,-190.2239"/>
<g id="a_edge6&#45;headlabel"><a xlink:href="dir_000015_000018.xhtml" target="_top" xlink:title="3">
<text text-anchor="middle" x="188.1158" y="-192.3013" font-family="Helvetica,sans-Serif" font-size="10.00" fill="#000000">3</text>
</a>
</g>
</g>
<!-- dir_f3789cadf99dfd908eb4a711d92a558b -->
<g id="node7" class="node">
<title>dir_f3789cadf99dfd908eb4a711d92a558b</title>
<g id="a_node7"><a xlink:href="dir_f3789cadf99dfd908eb4a711d92a558b.xhtml" target="_top" xlink:title="rng">
<polygon fill="none" stroke="#000000" points="124,-324 70,-324 70,-288 124,-288 124,-324"/>
<text text-anchor="middle" x="97" y="-303.5" font-family="Helvetica,sans-Serif" font-size="10.00" fill="#000000">rng</text>
</a>
</g>
</g>
<!-- dir_6197a954b4bd6d8383a8df145c55be91&#45;&gt;dir_f3789cadf99dfd908eb4a711d92a558b -->
<g id="edge7" class="edge">
<title>dir_6197a954b4bd6d8383a8df145c55be91&#45;&gt;dir_f3789cadf99dfd908eb4a711d92a558b</title>
<path fill="none" stroke="#000000" d="M152.3267,-359.8314C143.4751,-351.219 132.7514,-340.7851 123.1105,-331.4048"/>
<polygon fill="#000000" stroke="#000000" points="125.2754,-328.6279 115.6674,-324.1628 120.3939,-333.645 125.2754,-328.6279"/>
<g id="a_edge7&#45;headlabel"><a xlink:href="dir_000015_000036.xhtml" target="_top" xlink:title="1">
<text text-anchor="middle" x="129.8317" y="-326.5996" font-family="Helvetica,sans-Serif" font-size="10.00" fill="#000000">1</text>
</a>
</g>
</g>
<!-- dir_ccad08bb708da2762bd629c3fb99a53c -->
<g id="node9" class="node">
<title>dir_ccad08bb708da2762bd629c3fb99a53c</title>
<g id="a_node9"><a xlink:href="dir_ccad08bb708da2762bd629c3fb99a53c.xhtml" target="_top" xlink:title="curve">
<polygon fill="#ffffff" stroke="#ff0000" points="289,-324 235,-324 235,-288 289,-288 289,-324"/>
<text text-anchor="middle" x="262" y="-303.5" font-family="Helvetica,sans-Serif" font-size="10.00" fill="#000000">curve</text>
</a>
</g>
</g>
<!-- dir_6197a954b4bd6d8383a8df145c55be91&#45;&gt;dir_ccad08bb708da2762bd629c3fb99a53c -->
<g id="edge8" class="edge">
<title>dir_6197a954b4bd6d8383a8df145c55be91&#45;&gt;dir_ccad08bb708da2762bd629c3fb99a53c</title>
<path fill="none" stroke="#000000" d="M189.1956,-359.7944C194.7528,-354.5172 200.9873,-348.8694 207,-344 213.1514,-339.0183 219.929,-333.9938 226.5624,-329.303"/>
<polygon fill="#000000" stroke="#000000" points="228.6081,-332.1436 234.8297,-323.568 224.6182,-326.392 228.6081,-332.1436"/>
<g id="a_edge8&#45;headlabel"><a xlink:href="dir_000015_000012.xhtml" target="_top" xlink:title="3">
<text text-anchor="middle" x="227.2728" y="-334.0254" font-family="Helvetica,sans-Serif" font-size="10.00" fill="#000000">3</text>
</a>
</g>
</g>
<!-- dir_d4038e006ae681f38d9f19ed63c3b2e6&#45;&gt;dir_a25237b91464ed624c167f154229e196 -->
<g id="edge1" class="edge">
<title>dir_d4038e006ae681f38d9f19ed63c3b2e6&#45;&gt;dir_a25237b91464ed624c167f154229e196</title>
<path fill="none" stroke="#000000" d="M201.0476,-215.8314C200.2972,-208.131 200.0763,-198.9743 200.3849,-190.4166"/>
<polygon fill="#000000" stroke="#000000" points="203.8792,-190.6161 201.024,-180.4133 196.8935,-190.1697 203.8792,-190.6161"/>
<g id="a_edge1&#45;headlabel"><a xlink:href="dir_000030_000018.xhtml" target="_top" xlink:title="9">
<text text-anchor="middle" x="206.4836" y="-191.8844" font-family="Helvetica,sans-Serif" font-size="10.00" fill="#000000">9</text>
</a>
</g>
</g>
<!-- dir_7ea809f223a8f5a589c716fad2b2f668&#45;&gt;dir_3c7a1d16eeb7847b36e40c66a45c0cab -->
<g id="edge2" class="edge">
<title>dir_7ea809f223a8f5a589c716fad2b2f668&#45;&gt;dir_3c7a1d16eeb7847b36e40c66a45c0cab</title>
<path fill="none" stroke="#000000" d="M364.9725,-215.9686C363.9899,-183.4823 357.5252,-114.5538 322,-72 302.1586,-48.233 269.5017,-34.2946 244.0482,-26.5519"/>
<polygon fill="#000000" stroke="#000000" points="244.9157,-23.1599 234.3394,-23.7876 242.9987,-29.8923 244.9157,-23.1599"/>
<g id="a_edge2&#45;headlabel"><a xlink:href="dir_000006_000002.xhtml" target="_top" xlink:title="2">
<text text-anchor="middle" x="249.1503" y="-18.9134" font-family="Helvetica,sans-Serif" font-size="10.00" fill="#000000">2</text>
</a>
</g>
</g>
<!-- dir_7ea809f223a8f5a589c716fad2b2f668&#45;&gt;dir_a25237b91464ed624c167f154229e196 -->
<g id="edge3" class="edge">
<title>dir_7ea809f223a8f5a589c716fad2b2f668&#45;&gt;dir_a25237b91464ed624c167f154229e196</title>
<path fill="none" stroke="#000000" d="M327.956,-217.1192C302.5602,-205.5464 269.0153,-190.2601 243.6946,-178.7216"/>
<polygon fill="#000000" stroke="#000000" points="244.9781,-175.4603 234.427,-174.4984 242.0754,-181.8301 244.9781,-175.4603"/>
<g id="a_edge3&#45;headlabel"><a xlink:href="dir_000006_000018.xhtml" target="_top" xlink:title="1">
<text text-anchor="middle" x="249.4265" y="-171.8671" font-family="Helvetica,sans-Serif" font-size="10.00" fill="#000000">1</text>
</a>
</g>
</g>
<!-- dir_7ea809f223a8f5a589c716fad2b2f668&#45;&gt;dir_453470d189f22e6c466bdeb48be1c767 -->
<g id="edge4" class="edge">
<title>dir_7ea809f223a8f5a589c716fad2b2f668&#45;&gt;dir_453470d189f22e6c466bdeb48be1c767</title>
<path fill="none" stroke="#000000" d="M354.9946,-215.7623C341.3419,-190.8764 316.7673,-146.0822 300.9313,-117.2165"/>
<polygon fill="#000000" stroke="#000000" points="303.8026,-115.1735 295.9242,-108.0896 297.6655,-118.5404 303.8026,-115.1735"/>
<g id="a_edge4&#45;headlabel"><a xlink:href="dir_000006_000039.xhtml" target="_top" xlink:title="1">
<text text-anchor="middle" x="308.0208" y="-114.4593" font-family="Helvetica,sans-Serif" font-size="10.00" fill="#000000">1</text>
</a>
</g>
</g>
<!-- dir_3c7a1d16eeb7847b36e40c66a45c0cab&#45;&gt;dir_d4038e006ae681f38d9f19ed63c3b2e6 -->
<g id="edge9" class="edge">
<title>dir_3c7a1d16eeb7847b36e40c66a45c0cab&#45;&gt;dir_d4038e006ae681f38d9f19ed63c3b2e6</title>
<path fill="none" stroke="#000000" d="M196.9138,-36.2089C181.5117,-66.4325 155.4709,-128.7108 171,-180 173.9564,-189.7645 179.3252,-199.3771 185.03,-207.7238"/>
<polygon fill="#000000" stroke="#000000" points="182.2871,-209.9027 191.0095,-215.9169 187.9414,-205.7761 182.2871,-209.9027"/>
<g id="a_edge9&#45;headlabel"><a xlink:href="dir_000002_000030.xhtml" target="_top" xlink:title="3">
<text text-anchor="middle" x="177.8747" y="-206.173" font-family="Helvetica,sans-Serif" font-size="10.00" fill="#000000">3</text>
</a>
</g>
</g>
<!-- dir_3c7a1d16eeb7847b36e40c66a45c0cab&#45;&gt;dir_a25237b91464ed624c167f154229e196 -->
<g id="edge10" class="edge">
<title>dir_3c7a1d16eeb7847b36e40c66a45c0cab&#45;&gt;dir_a25237b91464ed624c167f154229e196</title>
<path fill="none" stroke="#000000" d="M211.6583,-36.0896C214.1269,-60.5727 214.4104,-104.5174 212.5089,-133.4713"/>
<polygon fill="#000000" stroke="#000000" points="208.9942,-133.5118 211.6732,-143.7623 215.9712,-134.0785 208.9942,-133.5118"/>
<g id="a_edge10&#45;headlabel"><a xlink:href="dir_000002_000018.xhtml" target="_top" xlink:title="8">
<text text-anchor="middle" x="206.4551" y="-127.1992" font-family="Helvetica,sans-Serif" font-size="10.00" fill="#000000">8</text>
</a>
</g>
</g>
<!-- dir_a25237b91464ed624c167f154229e196&#45;&gt;dir_d4038e006ae681f38d9f19ed63c3b2e6 -->
<g id="edge11" class="edge">
<title>dir_a25237b91464ed624c167f154229e196&#45;&gt;dir_d4038e006ae681f38d9f19ed63c3b2e6</title>
<path fill="none" stroke="#000000" d="M212.976,-180.4133C213.7071,-188.0593 213.9203,-197.1084 213.6155,-205.5726"/>
<polygon fill="#000000" stroke="#000000" points="210.1048,-205.6264 212.9524,-215.8314 217.0902,-206.078 210.1048,-205.6264"/>
<g id="a_edge11&#45;headlabel"><a xlink:href="dir_000018_000030.xhtml" target="_top" xlink:title="9">
<text text-anchor="middle" x="207.5032" y="-199.3562" font-family="Helvetica,sans-Serif" font-size="10.00" fill="#000000">9</text>
</a>
</g>
</g>
<!-- dir_a25237b91464ed624c167f154229e196&#45;&gt;dir_3c7a1d16eeb7847b36e40c66a45c0cab -->
<g id="edge12" class="edge">
<title>dir_a25237b91464ed624c167f154229e196&#45;&gt;dir_3c7a1d16eeb7847b36e40c66a45c0cab</title>
<path fill="none" stroke="#000000" d="M202.3268,-143.7623C199.867,-119.201 199.5923,-75.2474 201.5026,-46.3541"/>
<polygon fill="#000000" stroke="#000000" points="205.0152,-46.3416 202.3417,-36.0896 198.0385,-45.7712 205.0152,-46.3416"/>
<g id="a_edge12&#45;headlabel"><a xlink:href="dir_000018_000002.xhtml" target="_top" xlink:title="14">
<text text-anchor="middle" x="207.5522" y="-47.6556" font-family="Helvetica,sans-Serif" font-size="10.00" fill="#000000">14</text>
</a>
</g>
</g>
<!-- dir_a25237b91464ed624c167f154229e196&#45;&gt;dir_453470d189f22e6c466bdeb48be1c767 -->
<g id="edge13" class="edge">
<title>dir_a25237b91464ed624c167f154229e196&#45;&gt;dir_453470d189f22e6c466bdeb48be1c767</title>
<path fill="none" stroke="#000000" d="M226.935,-143.8314C236.4783,-135.1337 248.0599,-124.5783 258.4306,-115.1265"/>
<polygon fill="#000000" stroke="#000000" points="261.038,-117.4857 266.0713,-108.1628 256.3228,-112.3121 261.038,-117.4857"/>
<g id="a_edge13&#45;headlabel"><a xlink:href="dir_000018_000039.xhtml" target="_top" xlink:title="9">
<text text-anchor="middle" x="260.2938" y="-119.5055" font-family="Helvetica,sans-Serif" font-size="10.00" fill="#000000">9</text>
</a>
</g>
</g>
<!-- dir_f3789cadf99dfd908eb4a711d92a558b&#45;&gt;dir_d4038e006ae681f38d9f19ed63c3b2e6 -->
<g id="edge17" class="edge">
<title>dir_f3789cadf99dfd908eb4a711d92a558b&#45;&gt;dir_d4038e006ae681f38d9f19ed63c3b2e6</title>
<path fill="none" stroke="#000000" d="M124.191,-288.2022C138.3378,-278.9425 155.8157,-267.5025 171.063,-257.5224"/>
<polygon fill="#000000" stroke="#000000" points="173.2903,-260.2476 179.7406,-251.8425 169.4567,-254.3907 173.2903,-260.2476"/>
<g id="a_edge17&#45;headlabel"><a xlink:href="dir_000036_000030.xhtml" target="_top" xlink:title="1">
<text text-anchor="middle" x="171.8377" y="-262.0918" font-family="Helvetica,sans-Serif" font-size="10.00" fill="#000000">1</text>
</a>
</g>
</g>
<!-- dir_f3789cadf99dfd908eb4a711d92a558b&#45;&gt;dir_3c7a1d16eeb7847b36e40c66a45c0cab -->
<g id="edge18" class="edge">
<title>dir_f3789cadf99dfd908eb4a711d92a558b&#45;&gt;dir_3c7a1d16eeb7847b36e40c66a45c0cab</title>
<path fill="none" stroke="#000000" d="M95.2103,-287.791C93.9121,-269.4097 93.2578,-240.3379 99,-216 115.2526,-147.1143 130.6496,-132.7292 167,-72 172.5726,-62.6902 179.3752,-53.0179 185.7788,-44.4753"/>
<polygon fill="#000000" stroke="#000000" points="188.6887,-46.4321 191.9891,-36.3644 183.1308,-42.1765 188.6887,-46.4321"/>
<g id="a_edge18&#45;headlabel"><a xlink:href="dir_000036_000002.xhtml" target="_top" xlink:title="2">
<text text-anchor="middle" x="188.7578" y="-48.5122" font-family="Helvetica,sans-Serif" font-size="10.00" fill="#000000">2</text>
</a>
</g>
</g>
<!-- dir_f3789cadf99dfd908eb4a711d92a558b&#45;&gt;dir_a25237b91464ed624c167f154229e196 -->
<g id="edge19" class="edge">
<title>dir_f3789cadf99dfd908eb4a711d92a558b&#45;&gt;dir_a25237b91464ed624c167f154229e196</title>
<path fill="none" stroke="#000000" d="M102.4456,-287.7021C108.797,-268.4619 120.684,-237.987 138,-216 147.3153,-204.1719 159.7417,-193.418 171.481,-184.6757"/>
<polygon fill="#000000" stroke="#000000" points="173.7617,-187.3474 179.8533,-178.6789 169.6855,-181.6565 173.7617,-187.3474"/>
<g id="a_edge19&#45;headlabel"><a xlink:href="dir_000036_000018.xhtml" target="_top" xlink:title="2">
<text text-anchor="middle" x="172.4927" y="-189.2487" font-family="Helvetica,sans-Serif" font-size="10.00" fill="#000000">2</text>
</a>
</g>
</g>
<!-- dir_f3789cadf99dfd908eb4a711d92a558b&#45;&gt;dir_453470d189f22e6c466bdeb48be1c767 -->
<g id="edge20" class="edge">
<title>dir_f3789cadf99dfd908eb4a711d92a558b&#45;&gt;dir_453470d189f22e6c466bdeb48be1c767</title>
<path fill="none" stroke="#000000" d="M97.8668,-287.9869C99.3377,-269.2505 103.3044,-239.4347 114,-216 130.946,-178.8704 139.0112,-169.3475 171,-144 194.5508,-125.3386 225.6027,-111.2466 249.5029,-102.1454"/>
<polygon fill="#000000" stroke="#000000" points="250.7634,-105.4111 258.9361,-98.6689 248.3427,-98.843 250.7634,-105.4111"/>
<g id="a_edge20&#45;headlabel"><a xlink:href="dir_000036_000039.xhtml" target="_top" xlink:title="1">
<text text-anchor="middle" x="248.3724" y="-106.8182" font-family="Helvetica,sans-Serif" font-size="10.00" fill="#000000">1</text>
</a>
</g>
</g>
<!-- dir_453470d189f22e6c466bdeb48be1c767&#45;&gt;dir_3c7a1d16eeb7847b36e40c66a45c0cab -->
<g id="edge21" class="edge">
<title>dir_453470d189f22e6c466bdeb48be1c767&#45;&gt;dir_3c7a1d16eeb7847b36e40c66a45c0cab</title>
<path fill="none" stroke="#000000" d="M266.065,-71.8314C256.5217,-63.1337 244.9401,-52.5783 234.5694,-43.1265"/>
<polygon fill="#000000" stroke="#000000" points="236.6772,-40.3121 226.9287,-36.1628 231.962,-45.4857 236.6772,-40.3121"/>
<g id="a_edge21&#45;headlabel"><a xlink:href="dir_000039_000002.xhtml" target="_top" xlink:title="1">
<text text-anchor="middle" x="241.2465" y="-38.1349" font-family="Helvetica,sans-Serif" font-size="10.00" fill="#000000">1</text>
</a>
</g>
</g>
<!-- dir_ccad08bb708da2762bd629c3fb99a53c&#45;&gt;dir_906fd80251564c07ab43a732fc1e9e78 -->
<g id="edge25" class="edge">
<title>dir_ccad08bb708da2762bd629c3fb99a53c&#45;&gt;dir_906fd80251564c07ab43a732fc1e9e78</title>
<path fill="none" stroke="#000000" d="M257.1409,-324.4133C255.0784,-332.2292 252.629,-341.5113 250.353,-350.136"/>
<polygon fill="#000000" stroke="#000000" points="246.962,-349.2693 247.7945,-359.8314 253.7303,-351.0554 246.962,-349.2693"/>
<g id="a_edge25&#45;headlabel"><a xlink:href="dir_000012_000007.xhtml" target="_top" xlink:title="3">
<text text-anchor="middle" x="245.1338" y="-342.5692" font-family="Helvetica,sans-Serif" font-size="10.00" fill="#000000">3</text>
</a>
</g>
</g>
<!-- dir_ccad08bb708da2762bd629c3fb99a53c&#45;&gt;dir_d4038e006ae681f38d9f19ed63c3b2e6 -->
<g id="edge22" class="edge">
<title>dir_ccad08bb708da2762bd629c3fb99a53c&#45;&gt;dir_d4038e006ae681f38d9f19ed63c3b2e6</title>
<path fill="none" stroke="#000000" d="M248.1212,-287.8314C241.7864,-279.5386 234.1616,-269.557 227.2074,-260.4533"/>
<polygon fill="#000000" stroke="#000000" points="229.9175,-258.2353 221.0657,-252.4133 224.3548,-262.4847 229.9175,-258.2353"/>
<g id="a_edge22&#45;headlabel"><a xlink:href="dir_000012_000030.xhtml" target="_top" xlink:title="2">
<text text-anchor="middle" x="234.3558" y="-256.8683" font-family="Helvetica,sans-Serif" font-size="10.00" fill="#000000">2</text>
</a>
</g>
</g>
<!-- dir_ccad08bb708da2762bd629c3fb99a53c&#45;&gt;dir_3c7a1d16eeb7847b36e40c66a45c0cab -->
<g id="edge23" class="edge">
<title>dir_ccad08bb708da2762bd629c3fb99a53c&#45;&gt;dir_3c7a1d16eeb7847b36e40c66a45c0cab</title>
<path fill="none" stroke="#000000" d="M289.1917,-300.0608C328.1391,-290.9401 396.7036,-272.3876 411,-252 420.1862,-238.8999 414.3667,-231.6418 411,-216 396.2248,-147.3541 396.961,-120.3068 346,-72 317.7247,-45.1974 274.6593,-31.246 243.9632,-24.2987"/>
<polygon fill="#000000" stroke="#000000" points="244.5749,-20.8507 234.0667,-22.2028 243.1245,-27.6988 244.5749,-20.8507"/>
<g id="a_edge23&#45;headlabel"><a xlink:href="dir_000012_000002.xhtml" target="_top" xlink:title="1">
<text text-anchor="middle" x="248.6798" y="-16.3177" font-family="Helvetica,sans-Serif" font-size="10.00" fill="#000000">1</text>
</a>
</g>
</g>
<!-- dir_ccad08bb708da2762bd629c3fb99a53c&#45;&gt;dir_a25237b91464ed624c167f154229e196 -->
<g id="edge24" class="edge">
<title>dir_ccad08bb708da2762bd629c3fb99a53c&#45;&gt;dir_a25237b91464ed624c167f154229e196</title>
<path fill="none" stroke="#000000" d="M260.2095,-287.8083C257.9112,-269.1875 252.9655,-239.7008 243,-216 239.0456,-206.5953 233.3848,-197.0879 227.7195,-188.727"/>
<polygon fill="#000000" stroke="#000000" points="230.5184,-186.6231 221.8853,-180.4815 224.8041,-190.6664 230.5184,-186.6231"/>
<g id="a_edge24&#45;headlabel"><a xlink:href="dir_000012_000018.xhtml" target="_top" xlink:title="1">
<text text-anchor="middle" x="234.9124" y="-185.4175" font-family="Helvetica,sans-Serif" font-size="10.00" fill="#000000">1</text>
</a>
</g>
</g>
<!-- dir_ccad08bb708da2762bd629c3fb99a53c&#45;&gt;dir_453470d189f22e6c466bdeb48be1c767 -->
<g id="edge26" class="edge">
<title>dir_ccad08bb708da2762bd629c3fb99a53c&#45;&gt;dir_453470d189f22e6c466bdeb48be1c767</title>
<path fill="none" stroke="#000000" d="M264.0049,-287.9555C268.1873,-250.3144 277.8681,-163.1867 282.875,-118.1246"/>
<polygon fill="#000000" stroke="#000000" points="286.3581,-118.4704 283.9839,-108.1451 279.4009,-117.6974 286.3581,-118.4704"/>
<g id="a_edge26&#45;headlabel"><a xlink:href="dir_000012_000039.xhtml" target="_top" xlink:title="2">
<text text-anchor="middle" x="288.7831" y="-119.8566" font-family="Helvetica,sans-Serif" font-size="10.00" fill="#000000">2</text>
</a>
</g>
</g>
</g>
</svg>
