<?xml version="1.0" encoding="UTF-8" standalone="no"?>
<!DOCTYPE svg PUBLIC "-//W3C//DTD SVG 1.1//EN"
 "http://www.w3.org/Graphics/SVG/1.1/DTD/svg11.dtd">
<!-- Generated by graphviz version 2.40.1 (20161225.0304)
 -->
<!-- Title: /mnt/c/Users/Jameson/Desktop/git/openage&#45;new&#45;doc&#45;system/libopenage/gui Pages: 1 -->
<svg width="437pt" height="447pt"
 viewBox="0.00 0.00 437.50 447.00" xmlns="http://www.w3.org/2000/svg" xmlns:xlink="http://www.w3.org/1999/xlink">
<g id="graph0" class="graph" transform="scale(1 1) rotate(0) translate(4 443)">
<title>/mnt/c/Users/Jameson/Desktop/git/openage&#45;new&#45;doc&#45;system/libopenage/gui</title>
<polygon fill="#ffffff" stroke="transparent" points="-4,4 -4,-443 433.4982,-443 433.4982,4 -4,4"/>
<g id="clust1" class="cluster">
<title>clusterdir_7a1433c2fe60c22d0d75c56b51397e23</title>
<g id="a_clust1"><a xlink:href="dir_7a1433c2fe60c22d0d75c56b51397e23.xhtml" target="_top" xlink:title="libopenage">
<polygon fill="#ddddee" stroke="#000000" points="132,-200 132,-431 246,-431 246,-200 132,-200"/>
<text text-anchor="middle" x="189" y="-419" font-family="Helvetica,sans-Serif" font-size="10.00" fill="#000000">libopenage</text>
</a>
</g>
</g>
<g id="clust2" class="cluster">
<title>clusterdir_d037ee21b1d08cda7e27f2ce4ee48ec3</title>
<g id="a_clust2"><a xlink:href="dir_d037ee21b1d08cda7e27f2ce4ee48ec3.xhtml" target="_top">
<polygon fill="#eeeeff" stroke="#000000" points="140,-208 140,-404 238,-404 238,-208 140,-208"/>
</a>
</g>
</g>
<!-- dir_d037ee21b1d08cda7e27f2ce4ee48ec3 -->
<g id="node1" class="node">
<title>dir_d037ee21b1d08cda7e27f2ce4ee48ec3</title>
<text text-anchor="middle" x="203" y="-375.5" font-family="Helvetica,sans-Serif" font-size="10.00" fill="#000000">gui</text>
</g>
<!-- dir_acb330e0bd97d2656bfb843bf4718018 -->
<g id="node2" class="node">
<title>dir_acb330e0bd97d2656bfb843bf4718018</title>
<g id="a_node2"><a xlink:href="dir_acb330e0bd97d2656bfb843bf4718018.xhtml" target="_top" xlink:title="guisys">
<polygon fill="#ffffff" stroke="#ff0000" points="230,-252 176,-252 176,-216 230,-216 230,-252"/>
<text text-anchor="middle" x="203" y="-231.5" font-family="Helvetica,sans-Serif" font-size="10.00" fill="#000000">guisys</text>
</a>
</g>
</g>
<!-- dir_d037ee21b1d08cda7e27f2ce4ee48ec3&#45;&gt;dir_acb330e0bd97d2656bfb843bf4718018 -->
<g id="edge16" class="edge">
<title>dir_d037ee21b1d08cda7e27f2ce4ee48ec3&#45;&gt;dir_acb330e0bd97d2656bfb843bf4718018</title>
<path fill="none" stroke="#000000" d="M209.8195,-359.7996C213.3281,-349.4645 217.2317,-336.1925 219,-324 221.2965,-308.1657 221.2965,-303.8343 219,-288 217.7428,-279.3319 215.4064,-270.1182 212.9,-261.802"/>
<polygon fill="#000000" stroke="#000000" points="216.2072,-260.6531 209.8195,-252.2004 209.5418,-262.7916 216.2072,-260.6531"/>
<g id="a_edge16&#45;headlabel"><a xlink:href="dir_000016_000020.xhtml" target="_top" xlink:title="50">
<text text-anchor="middle" x="220.0088" y="-260.7085" font-family="Helvetica,sans-Serif" font-size="10.00" fill="#000000">50</text>
</a>
</g>
</g>
<!-- dir_cbf204bd148c4f3791294990ca88307d -->
<g id="node3" class="node">
<title>dir_cbf204bd148c4f3791294990ca88307d</title>
<g id="a_node3"><a xlink:href="dir_cbf204bd148c4f3791294990ca88307d.xhtml" target="_top" xlink:title="integration">
<polygon fill="#ffffff" stroke="#ff0000" points="210,-324 148,-324 148,-288 210,-288 210,-324"/>
<text text-anchor="middle" x="179" y="-303.5" font-family="Helvetica,sans-Serif" font-size="10.00" fill="#000000">integration</text>
</a>
</g>
</g>
<!-- dir_d037ee21b1d08cda7e27f2ce4ee48ec3&#45;&gt;dir_cbf204bd148c4f3791294990ca88307d -->
<g id="edge13" class="edge">
<title>dir_d037ee21b1d08cda7e27f2ce4ee48ec3&#45;&gt;dir_cbf204bd148c4f3791294990ca88307d</title>
<path fill="none" stroke="#000000" d="M196.9438,-359.8314C194.3488,-352.0463 191.2576,-342.7729 188.3782,-334.1347"/>
<polygon fill="#000000" stroke="#000000" points="191.6205,-332.7933 185.1378,-324.4133 184.9797,-335.0069 191.6205,-332.7933"/>
<g id="a_edge13&#45;headlabel"><a xlink:href="dir_000016_000026.xhtml" target="_top" xlink:title="6">
<text text-anchor="middle" x="195.4507" y="-332.8056" font-family="Helvetica,sans-Serif" font-size="10.00" fill="#000000">6</text>
</a>
</g>
</g>
<!-- dir_b8357664411f749eff500667caa9fc6b -->
<g id="node4" class="node">
<title>dir_b8357664411f749eff500667caa9fc6b</title>
<g id="a_node4"><a xlink:href="dir_b8357664411f749eff500667caa9fc6b.xhtml" target="_top" xlink:title="shader">
<polygon fill="none" stroke="#000000" points="120,-252 66,-252 66,-216 120,-216 120,-252"/>
<text text-anchor="middle" x="93" y="-231.5" font-family="Helvetica,sans-Serif" font-size="10.00" fill="#000000">shader</text>
</a>
</g>
</g>
<!-- dir_d037ee21b1d08cda7e27f2ce4ee48ec3&#45;&gt;dir_b8357664411f749eff500667caa9fc6b -->
<g id="edge11" class="edge">
<title>dir_d037ee21b1d08cda7e27f2ce4ee48ec3&#45;&gt;dir_b8357664411f749eff500667caa9fc6b</title>
<path fill="none" stroke="#000000" d="M176.8749,-359.7963C164.3452,-350.1678 149.7596,-337.547 139,-324 123.9209,-305.0145 111.7191,-280.306 103.6813,-261.5825"/>
<polygon fill="#000000" stroke="#000000" points="106.8258,-260.0285 99.7584,-252.1353 100.361,-262.713 106.8258,-260.0285"/>
<g id="a_edge11&#45;headlabel"><a xlink:href="dir_000016_000034.xhtml" target="_top" xlink:title="2">
<text text-anchor="middle" x="110.8264" y="-259.7595" font-family="Helvetica,sans-Serif" font-size="10.00" fill="#000000">2</text>
</a>
</g>
</g>
<!-- dir_d4038e006ae681f38d9f19ed63c3b2e6 -->
<g id="node5" class="node">
<title>dir_d4038e006ae681f38d9f19ed63c3b2e6</title>
<g id="a_node5"><a xlink:href="dir_d4038e006ae681f38d9f19ed63c3b2e6.xhtml" target="_top" xlink:title="log">
<polygon fill="none" stroke="#000000" points="271,-180 217,-180 217,-144 271,-144 271,-180"/>
<text text-anchor="middle" x="244" y="-159.5" font-family="Helvetica,sans-Serif" font-size="10.00" fill="#000000">log</text>
</a>
</g>
</g>
<!-- dir_d037ee21b1d08cda7e27f2ce4ee48ec3&#45;&gt;dir_d4038e006ae681f38d9f19ed63c3b2e6 -->
<g id="edge12" class="edge">
<title>dir_d037ee21b1d08cda7e27f2ce4ee48ec3&#45;&gt;dir_d4038e006ae681f38d9f19ed63c3b2e6</title>
<path fill="none" stroke="#000000" d="M210.9597,-359.7681C215.2548,-349.4231 220.3983,-336.1518 224,-324 233.2888,-292.6605 234.7482,-284.4094 239,-252 241.7099,-231.3441 242.9535,-207.8334 243.523,-190.0226"/>
<polygon fill="#000000" stroke="#000000" points="247.0222,-190.0935 243.792,-180.0032 240.0248,-189.9056 247.0222,-190.0935"/>
<g id="a_edge12&#45;headlabel"><a xlink:href="dir_000016_000030.xhtml" target="_top" xlink:title="2">
<text text-anchor="middle" x="249.7641" y="-191.263" font-family="Helvetica,sans-Serif" font-size="10.00" fill="#000000">2</text>
</a>
</g>
</g>
<!-- dir_3c7a1d16eeb7847b36e40c66a45c0cab -->
<g id="node6" class="node">
<title>dir_3c7a1d16eeb7847b36e40c66a45c0cab</title>
<g id="a_node6"><a xlink:href="dir_3c7a1d16eeb7847b36e40c66a45c0cab.xhtml" target="_top" xlink:title="error">
<polygon fill="none" stroke="#000000" points="182,-36 128,-36 128,0 182,0 182,-36"/>
<text text-anchor="middle" x="155" y="-15.5" font-family="Helvetica,sans-Serif" font-size="10.00" fill="#000000">error</text>
</a>
</g>
</g>
<!-- dir_d037ee21b1d08cda7e27f2ce4ee48ec3&#45;&gt;dir_3c7a1d16eeb7847b36e40c66a45c0cab -->
<g id="edge14" class="edge">
<title>dir_d037ee21b1d08cda7e27f2ce4ee48ec3&#45;&gt;dir_3c7a1d16eeb7847b36e40c66a45c0cab</title>
<path fill="none" stroke="#000000" d="M175.6225,-372.1437C120.2122,-358.5101 0,-319.123 0,-234 0,-234 0,-234 0,-162 0,-97.7036 72.472,-54.0081 118.3055,-32.8029"/>
<polygon fill="#000000" stroke="#000000" points="119.9498,-35.9016 127.6459,-28.62 117.0888,-29.5129 119.9498,-35.9016"/>
<g id="a_edge14&#45;headlabel"><a xlink:href="dir_000016_000002.xhtml" target="_top" xlink:title="10">
<text text-anchor="middle" x="117.8296" y="-37.462" font-family="Helvetica,sans-Serif" font-size="10.00" fill="#000000">10</text>
</a>
</g>
</g>
<!-- dir_a25237b91464ed624c167f154229e196 -->
<g id="node7" class="node">
<title>dir_a25237b91464ed624c167f154229e196</title>
<g id="a_node7"><a xlink:href="dir_a25237b91464ed624c167f154229e196.xhtml" target="_top" xlink:title="util">
<polygon fill="#ffffff" stroke="#ff0000" points="271,-108 217,-108 217,-72 271,-72 271,-108"/>
<text text-anchor="middle" x="244" y="-87.5" font-family="Helvetica,sans-Serif" font-size="10.00" fill="#000000">util</text>
</a>
</g>
</g>
<!-- dir_d037ee21b1d08cda7e27f2ce4ee48ec3&#45;&gt;dir_a25237b91464ed624c167f154229e196 -->
<g id="edge15" class="edge">
<title>dir_d037ee21b1d08cda7e27f2ce4ee48ec3&#45;&gt;dir_a25237b91464ed624c167f154229e196</title>
<path fill="none" stroke="#000000" d="M230.1571,-375.7746C267.6212,-371.4692 335.6605,-359.0718 381,-324 410.6633,-301.0543 414.8426,-288.1005 425,-252 439.4292,-200.7172 416.6834,-174.4941 373,-144 344.6672,-124.2217 307.9679,-109.7449 280.961,-100.7878"/>
<polygon fill="#000000" stroke="#000000" points="281.7139,-97.3535 271.1226,-97.6256 279.5719,-104.0177 281.7139,-97.3535"/>
<g id="a_edge15&#45;headlabel"><a xlink:href="dir_000016_000018.xhtml" target="_top" xlink:title="6">
<text text-anchor="middle" x="286.0049" y="-93.2503" font-family="Helvetica,sans-Serif" font-size="10.00" fill="#000000">6</text>
</a>
</g>
</g>
<!-- dir_712401372000c18ae60227658ea59d70 -->
<g id="node8" class="node">
<title>dir_712401372000c18ae60227658ea59d70</title>
<g id="a_node8"><a xlink:href="dir_712401372000c18ae60227658ea59d70.xhtml" target="_top" xlink:title="gamestate">
<polygon fill="none" stroke="#000000" points="348,-324 286,-324 286,-288 348,-288 348,-324"/>
<text text-anchor="middle" x="317" y="-303.5" font-family="Helvetica,sans-Serif" font-size="10.00" fill="#000000">gamestate</text>
</a>
</g>
</g>
<!-- dir_d037ee21b1d08cda7e27f2ce4ee48ec3&#45;&gt;dir_712401372000c18ae60227658ea59d70 -->
<g id="edge17" class="edge">
<title>dir_d037ee21b1d08cda7e27f2ce4ee48ec3&#45;&gt;dir_712401372000c18ae60227658ea59d70</title>
<path fill="none" stroke="#000000" d="M225.8146,-359.8314C240.4685,-349.9692 259.7729,-337.7186 276.8922,-327.3965"/>
<polygon fill="#000000" stroke="#000000" points="278.8135,-330.3259 285.609,-322.1975 275.2278,-324.314 278.8135,-330.3259"/>
<g id="a_edge17&#45;headlabel"><a xlink:href="dir_000016_000003.xhtml" target="_top" xlink:title="16">
<text text-anchor="middle" x="277.1807" y="-332.1057" font-family="Helvetica,sans-Serif" font-size="10.00" fill="#000000">16</text>
</a>
</g>
</g>
<!-- dir_2da62acedc39afa28df93c1a9cf67524 -->
<g id="node9" class="node">
<title>dir_2da62acedc39afa28df93c1a9cf67524</title>
<g id="a_node9"><a xlink:href="dir_2da62acedc39afa28df93c1a9cf67524.xhtml" target="_top" xlink:title="unit">
<polygon fill="none" stroke="#000000" points="416,-252 362,-252 362,-216 416,-216 416,-252"/>
<text text-anchor="middle" x="389" y="-231.5" font-family="Helvetica,sans-Serif" font-size="10.00" fill="#000000">unit</text>
</a>
</g>
</g>
<!-- dir_d037ee21b1d08cda7e27f2ce4ee48ec3&#45;&gt;dir_2da62acedc39afa28df93c1a9cf67524 -->
<g id="edge18" class="edge">
<title>dir_d037ee21b1d08cda7e27f2ce4ee48ec3&#45;&gt;dir_2da62acedc39afa28df93c1a9cf67524</title>
<path fill="none" stroke="#000000" d="M230.1139,-375.5575C264.1484,-371.0856 322.2659,-358.5829 357,-324 373.5359,-307.5361 381.5616,-281.9804 385.4366,-262.3017"/>
<polygon fill="#000000" stroke="#000000" points="388.9028,-262.7965 387.149,-252.3479 382.0041,-261.6097 388.9028,-262.7965"/>
<g id="a_edge18&#45;headlabel"><a xlink:href="dir_000016_000029.xhtml" target="_top" xlink:title="2">
<text text-anchor="middle" x="391.0916" y="-264.3204" font-family="Helvetica,sans-Serif" font-size="10.00" fill="#000000">2</text>
</a>
</g>
</g>
<!-- dir_cbf204bd148c4f3791294990ca88307d&#45;&gt;dir_acb330e0bd97d2656bfb843bf4718018 -->
<g id="edge7" class="edge">
<title>dir_cbf204bd148c4f3791294990ca88307d&#45;&gt;dir_acb330e0bd97d2656bfb843bf4718018</title>
<path fill="none" stroke="#000000" d="M185.0562,-287.8314C187.6512,-280.0463 190.7424,-270.7729 193.6218,-262.1347"/>
<polygon fill="#000000" stroke="#000000" points="197.0203,-263.0069 196.8622,-252.4133 190.3795,-260.7933 197.0203,-263.0069"/>
<g id="a_edge7&#45;headlabel"><a xlink:href="dir_000026_000020.xhtml" target="_top" xlink:title="8">
<text text-anchor="middle" x="198.5772" y="-264.8149" font-family="Helvetica,sans-Serif" font-size="10.00" fill="#000000">8</text>
</a>
</g>
</g>
<!-- dir_cbf204bd148c4f3791294990ca88307d&#45;&gt;dir_d4038e006ae681f38d9f19ed63c3b2e6 -->
<g id="edge5" class="edge">
<title>dir_cbf204bd148c4f3791294990ca88307d&#45;&gt;dir_d4038e006ae681f38d9f19ed63c3b2e6</title>
<path fill="none" stroke="#000000" d="M170.5398,-287.99C161.3804,-265.6041 150.1823,-227.0537 167,-200 175.9094,-185.6679 191.9959,-176.5806 207.17,-170.9021"/>
<polygon fill="#000000" stroke="#000000" points="208.5503,-174.1311 216.9252,-167.6418 206.3314,-167.4921 208.5503,-174.1311"/>
<g id="a_edge5&#45;headlabel"><a xlink:href="dir_000026_000030.xhtml" target="_top" xlink:title="1">
<text text-anchor="middle" x="206.041" y="-175.4633" font-family="Helvetica,sans-Serif" font-size="10.00" fill="#000000">1</text>
</a>
</g>
</g>
<!-- dir_cbf204bd148c4f3791294990ca88307d&#45;&gt;dir_3c7a1d16eeb7847b36e40c66a45c0cab -->
<g id="edge6" class="edge">
<title>dir_cbf204bd148c4f3791294990ca88307d&#45;&gt;dir_3c7a1d16eeb7847b36e40c66a45c0cab</title>
<path fill="none" stroke="#000000" d="M147.8302,-301.8025C118.7584,-296.0522 76.9655,-282.6711 57,-252 11.5717,-182.2129 86.6944,-87.8767 129.0857,-43.3149"/>
<polygon fill="#000000" stroke="#000000" points="131.6372,-45.7114 136.0846,-36.0952 126.6111,-40.8391 131.6372,-45.7114"/>
<g id="a_edge6&#45;headlabel"><a xlink:href="dir_000026_000002.xhtml" target="_top" xlink:title="7">
<text text-anchor="middle" x="131.1738" y="-47.7685" font-family="Helvetica,sans-Serif" font-size="10.00" fill="#000000">7</text>
</a>
</g>
</g>
<!-- dir_cbf204bd148c4f3791294990ca88307d&#45;&gt;dir_712401372000c18ae60227658ea59d70 -->
<g id="edge8" class="edge">
<title>dir_cbf204bd148c4f3791294990ca88307d&#45;&gt;dir_712401372000c18ae60227658ea59d70</title>
<path fill="none" stroke="#000000" d="M210.2656,-306C232.0796,-306 253.8936,-306 275.7075,-306"/>
<polygon fill="#000000" stroke="#000000" points="275.7302,-309.5001 285.7302,-306 275.7301,-302.5001 275.7302,-309.5001"/>
<g id="a_edge8&#45;headlabel"><a xlink:href="dir_000026_000003.xhtml" target="_top" xlink:title="5">
<text text-anchor="middle" x="272.1355" y="-309.8393" font-family="Helvetica,sans-Serif" font-size="10.00" fill="#000000">5</text>
</a>
</g>
</g>
<!-- dir_b8357664411f749eff500667caa9fc6b&#45;&gt;dir_d4038e006ae681f38d9f19ed63c3b2e6 -->
<g id="edge1" class="edge">
<title>dir_b8357664411f749eff500667caa9fc6b&#45;&gt;dir_d4038e006ae681f38d9f19ed63c3b2e6</title>
<path fill="none" stroke="#000000" d="M113.0176,-215.9254C119.951,-210.2934 127.9983,-204.4097 136,-200 158.3921,-187.6598 185.548,-178.1269 207.0274,-171.6956"/>
<polygon fill="#000000" stroke="#000000" points="208.133,-175.0193 216.764,-168.8745 206.1849,-168.2958 208.133,-175.0193"/>
<g id="a_edge1&#45;headlabel"><a xlink:href="dir_000034_000030.xhtml" target="_top" xlink:title="2">
<text text-anchor="middle" x="205.4705" y="-176.2467" font-family="Helvetica,sans-Serif" font-size="10.00" fill="#000000">2</text>
</a>
</g>
</g>
<!-- dir_b8357664411f749eff500667caa9fc6b&#45;&gt;dir_3c7a1d16eeb7847b36e40c66a45c0cab -->
<g id="edge2" class="edge">
<title>dir_b8357664411f749eff500667caa9fc6b&#45;&gt;dir_3c7a1d16eeb7847b36e40c66a45c0cab</title>
<path fill="none" stroke="#000000" d="M98.1794,-215.9555C109.0066,-178.235 134.0983,-90.8188 147.0089,-45.8399"/>
<polygon fill="#000000" stroke="#000000" points="150.3968,-46.7226 149.7917,-36.1451 143.6685,-44.7913 150.3968,-46.7226"/>
<g id="a_edge2&#45;headlabel"><a xlink:href="dir_000034_000002.xhtml" target="_top" xlink:title="2">
<text text-anchor="middle" x="152.1342" y="-48.461" font-family="Helvetica,sans-Serif" font-size="10.00" fill="#000000">2</text>
</a>
</g>
</g>
<!-- dir_b8357664411f749eff500667caa9fc6b&#45;&gt;dir_a25237b91464ed624c167f154229e196 -->
<g id="edge3" class="edge">
<title>dir_b8357664411f749eff500667caa9fc6b&#45;&gt;dir_a25237b91464ed624c167f154229e196</title>
<path fill="none" stroke="#000000" d="M112.1243,-215.7623C138.7871,-190.3354 187.2436,-144.1253 217.4105,-115.3569"/>
<polygon fill="#000000" stroke="#000000" points="220.2097,-117.5239 225.031,-108.0896 215.3787,-112.4581 220.2097,-117.5239"/>
<g id="a_edge3&#45;headlabel"><a xlink:href="dir_000034_000018.xhtml" target="_top" xlink:title="5">
<text text-anchor="middle" x="219.5678" y="-119.5593" font-family="Helvetica,sans-Serif" font-size="10.00" fill="#000000">5</text>
</a>
</g>
</g>
<!-- dir_d4038e006ae681f38d9f19ed63c3b2e6&#45;&gt;dir_a25237b91464ed624c167f154229e196 -->
<g id="edge4" class="edge">
<title>dir_d4038e006ae681f38d9f19ed63c3b2e6&#45;&gt;dir_a25237b91464ed624c167f154229e196</title>
<path fill="none" stroke="#000000" d="M238.0476,-143.8314C237.2972,-136.131 237.0763,-126.9743 237.3849,-118.4166"/>
<polygon fill="#000000" stroke="#000000" points="240.8792,-118.6161 238.024,-108.4133 233.8935,-118.1697 240.8792,-118.6161"/>
<g id="a_edge4&#45;headlabel"><a xlink:href="dir_000030_000018.xhtml" target="_top" xlink:title="9">
<text text-anchor="middle" x="243.4836" y="-119.8844" font-family="Helvetica,sans-Serif" font-size="10.00" fill="#000000">9</text>
</a>
</g>
</g>
<!-- dir_3c7a1d16eeb7847b36e40c66a45c0cab&#45;&gt;dir_d4038e006ae681f38d9f19ed63c3b2e6 -->
<g id="edge9" class="edge">
<title>dir_3c7a1d16eeb7847b36e40c66a45c0cab&#45;&gt;dir_d4038e006ae681f38d9f19ed63c3b2e6</title>
<path fill="none" stroke="#000000" d="M165.2668,-36.107C175.7365,-54.409 192.5862,-83.4204 208,-108 213.5979,-116.9267 219.9099,-126.5374 225.6673,-135.1413"/>
<polygon fill="#000000" stroke="#000000" points="222.9237,-137.3332 231.4132,-143.672 228.7296,-133.4227 222.9237,-137.3332"/>
<g id="a_edge9&#45;headlabel"><a xlink:href="dir_000002_000030.xhtml" target="_top" xlink:title="3">
<text text-anchor="middle" x="218.5607" y="-133.4379" font-family="Helvetica,sans-Serif" font-size="10.00" fill="#000000">3</text>
</a>
</g>
</g>
<!-- dir_3c7a1d16eeb7847b36e40c66a45c0cab&#45;&gt;dir_a25237b91464ed624c167f154229e196 -->
<g id="edge10" class="edge">
<title>dir_3c7a1d16eeb7847b36e40c66a45c0cab&#45;&gt;dir_a25237b91464ed624c167f154229e196</title>
<path fill="none" stroke="#000000" d="M182.0772,-35.1715C194.1276,-44.1553 208.1233,-55.3163 219.8177,-65.2189"/>
<polygon fill="#000000" stroke="#000000" points="217.633,-67.9566 227.4939,-71.8314 222.2016,-62.653 217.633,-67.9566"/>
<g id="a_edge10&#45;headlabel"><a xlink:href="dir_000002_000018.xhtml" target="_top" xlink:title="8">
<text text-anchor="middle" x="213.0565" y="-65.2618" font-family="Helvetica,sans-Serif" font-size="10.00" fill="#000000">8</text>
</a>
</g>
</g>
<!-- dir_a25237b91464ed624c167f154229e196&#45;&gt;dir_d4038e006ae681f38d9f19ed63c3b2e6 -->
<g id="edge19" class="edge">
<title>dir_a25237b91464ed624c167f154229e196&#45;&gt;dir_d4038e006ae681f38d9f19ed63c3b2e6</title>
<path fill="none" stroke="#000000" d="M249.976,-108.4133C250.7071,-116.0593 250.9203,-125.1084 250.6155,-133.5726"/>
<polygon fill="#000000" stroke="#000000" points="247.1048,-133.6264 249.9524,-143.8314 254.0902,-134.078 247.1048,-133.6264"/>
<g id="a_edge19&#45;headlabel"><a xlink:href="dir_000018_000030.xhtml" target="_top" xlink:title="9">
<text text-anchor="middle" x="244.5032" y="-127.3562" font-family="Helvetica,sans-Serif" font-size="10.00" fill="#000000">9</text>
</a>
</g>
</g>
<!-- dir_a25237b91464ed624c167f154229e196&#45;&gt;dir_3c7a1d16eeb7847b36e40c66a45c0cab -->
<g id="edge20" class="edge">
<title>dir_a25237b91464ed624c167f154229e196&#45;&gt;dir_3c7a1d16eeb7847b36e40c66a45c0cab</title>
<path fill="none" stroke="#000000" d="M216.5773,-72.5708C204.5308,-63.576 190.5923,-52.4513 178.9657,-42.5976"/>
<polygon fill="#000000" stroke="#000000" points="181.1967,-39.8998 171.3376,-36.0206 176.6257,-45.2014 181.1967,-39.8998"/>
<g id="a_edge20&#45;headlabel"><a xlink:href="dir_000018_000002.xhtml" target="_top" xlink:title="14">
<text text-anchor="middle" x="185.7731" y="-37.5967" font-family="Helvetica,sans-Serif" font-size="10.00" fill="#000000">14</text>
</a>
</g>
</g>
<!-- dir_712401372000c18ae60227658ea59d70&#45;&gt;dir_d037ee21b1d08cda7e27f2ce4ee48ec3 -->
<g id="edge22" class="edge">
<title>dir_712401372000c18ae60227658ea59d70&#45;&gt;dir_d037ee21b1d08cda7e27f2ce4ee48ec3</title>
<path fill="none" stroke="#000000" d="M294.4053,-324.0206C278.479,-334.7471 256.9838,-348.3387 238.7793,-359.1999"/>
<polygon fill="#000000" stroke="#000000" points="236.9839,-356.1953 230.1457,-364.2879 240.538,-362.226 236.9839,-356.1953"/>
<g id="a_edge22&#45;headlabel"><a xlink:href="dir_000003_000016.xhtml" target="_top" xlink:title="1">
<text text-anchor="middle" x="238.6392" y="-349.4242" font-family="Helvetica,sans-Serif" font-size="10.00" fill="#000000">1</text>
</a>
</g>
</g>
<!-- dir_712401372000c18ae60227658ea59d70&#45;&gt;dir_acb330e0bd97d2656bfb843bf4718018 -->
<g id="edge24" class="edge">
<title>dir_712401372000c18ae60227658ea59d70&#45;&gt;dir_acb330e0bd97d2656bfb843bf4718018</title>
<path fill="none" stroke="#000000" d="M288.233,-287.8314C273.2065,-278.3409 254.6777,-266.6386 238.7383,-256.5716"/>
<polygon fill="#000000" stroke="#000000" points="240.512,-253.5522 230.1881,-251.1715 236.7741,-259.4707 240.512,-253.5522"/>
<g id="a_edge24&#45;headlabel"><a xlink:href="dir_000003_000020.xhtml" target="_top" xlink:title="1">
<text text-anchor="middle" x="245.0674" y="-250.5711" font-family="Helvetica,sans-Serif" font-size="10.00" fill="#000000">1</text>
</a>
</g>
</g>
<!-- dir_712401372000c18ae60227658ea59d70&#45;&gt;dir_d4038e006ae681f38d9f19ed63c3b2e6 -->
<g id="edge21" class="edge">
<title>dir_712401372000c18ae60227658ea59d70&#45;&gt;dir_d4038e006ae681f38d9f19ed63c3b2e6</title>
<path fill="none" stroke="#000000" d="M310.7398,-287.7634C302.9871,-266.1447 288.7368,-229.3505 272,-200 269.8536,-196.236 267.3994,-192.4058 264.8561,-188.6973"/>
<polygon fill="#000000" stroke="#000000" points="267.5394,-186.4335 258.8628,-180.3533 261.854,-190.5172 267.5394,-186.4335"/>
<g id="a_edge21&#45;headlabel"><a xlink:href="dir_000003_000030.xhtml" target="_top" xlink:title="7">
<text text-anchor="middle" x="271.9424" y="-185.1966" font-family="Helvetica,sans-Serif" font-size="10.00" fill="#000000">7</text>
</a>
</g>
</g>
<!-- dir_712401372000c18ae60227658ea59d70&#45;&gt;dir_a25237b91464ed624c167f154229e196 -->
<g id="edge23" class="edge">
<title>dir_712401372000c18ae60227658ea59d70&#45;&gt;dir_a25237b91464ed624c167f154229e196</title>
<path fill="none" stroke="#000000" d="M315.5188,-287.8751C312.4266,-256.9759 303.504,-192.719 280,-144 275.4943,-134.6606 269.5756,-125.0573 263.8421,-116.5869"/>
<polygon fill="#000000" stroke="#000000" points="266.5983,-114.4206 258.0013,-108.2284 260.8604,-118.4302 266.5983,-114.4206"/>
<g id="a_edge23&#45;headlabel"><a xlink:href="dir_000003_000018.xhtml" target="_top" xlink:title="7">
<text text-anchor="middle" x="270.9846" y="-113.2408" font-family="Helvetica,sans-Serif" font-size="10.00" fill="#000000">7</text>
</a>
</g>
</g>
<!-- dir_712401372000c18ae60227658ea59d70&#45;&gt;dir_2da62acedc39afa28df93c1a9cf67524 -->
<g id="edge25" class="edge">
<title>dir_712401372000c18ae60227658ea59d70&#45;&gt;dir_2da62acedc39afa28df93c1a9cf67524</title>
<path fill="none" stroke="#000000" d="M329.2162,-287.8314C337.0663,-279.1337 347.4496,-268.5783 357.4049,-259.1265"/>
<polygon fill="#000000" stroke="#000000" points="359.9508,-261.5384 364.8853,-252.1628 355.1812,-256.4148 359.9508,-261.5384"/>
<g id="a_edge25&#45;headlabel"><a xlink:href="dir_000003_000029.xhtml" target="_top" xlink:title="11">
<text text-anchor="middle" x="359.2544" y="-263.5658" font-family="Helvetica,sans-Serif" font-size="10.00" fill="#000000">11</text>
</a>
</g>
</g>
<!-- dir_2da62acedc39afa28df93c1a9cf67524&#45;&gt;dir_d4038e006ae681f38d9f19ed63c3b2e6 -->
<g id="edge26" class="edge">
<title>dir_2da62acedc39afa28df93c1a9cf67524&#45;&gt;dir_d4038e006ae681f38d9f19ed63c3b2e6</title>
<path fill="none" stroke="#000000" d="M361.7266,-220.4574C338.7396,-209.0431 305.653,-192.6139 280.406,-180.0775"/>
<polygon fill="#000000" stroke="#000000" points="281.6643,-176.7946 271.1511,-175.4819 278.5511,-183.0642 281.6643,-176.7946"/>
<g id="a_edge26&#45;headlabel"><a xlink:href="dir_000029_000030.xhtml" target="_top" xlink:title="5">
<text text-anchor="middle" x="286.1466" y="-173.3502" font-family="Helvetica,sans-Serif" font-size="10.00" fill="#000000">5</text>
</a>
</g>
</g>
<!-- dir_2da62acedc39afa28df93c1a9cf67524&#45;&gt;dir_a25237b91464ed624c167f154229e196 -->
<g id="edge27" class="edge">
<title>dir_2da62acedc39afa28df93c1a9cf67524&#45;&gt;dir_a25237b91464ed624c167f154229e196</title>
<path fill="none" stroke="#000000" d="M384.5371,-215.7549C378.9032,-195.9914 367.5107,-164.5413 348,-144 329.5319,-124.5565 302.5101,-110.8194 280.6392,-102.0672"/>
<polygon fill="#000000" stroke="#000000" points="281.593,-98.6851 271.0021,-98.394 279.0998,-105.2261 281.593,-98.6851"/>
<g id="a_edge27&#45;headlabel"><a xlink:href="dir_000029_000018.xhtml" target="_top" xlink:title="6">
<text text-anchor="middle" x="285.9631" y="-94.8122" font-family="Helvetica,sans-Serif" font-size="10.00" fill="#000000">6</text>
</a>
</g>
</g>
<!-- dir_2da62acedc39afa28df93c1a9cf67524&#45;&gt;dir_712401372000c18ae60227658ea59d70 -->
<g id="edge28" class="edge">
<title>dir_2da62acedc39afa28df93c1a9cf67524&#45;&gt;dir_712401372000c18ae60227658ea59d70</title>
<path fill="none" stroke="#000000" d="M376.5627,-252.4133C368.7259,-261.0787 358.4215,-271.5464 348.5436,-280.9223"/>
<polygon fill="#000000" stroke="#000000" points="346.0561,-278.4561 341.121,-287.8314 350.8255,-283.5799 346.0561,-278.4561"/>
<g id="a_edge28&#45;headlabel"><a xlink:href="dir_000029_000003.xhtml" target="_top" xlink:title="10">
<text text-anchor="middle" x="346.7528" y="-271.4287" font-family="Helvetica,sans-Serif" font-size="10.00" fill="#000000">10</text>
</a>
</g>
</g>
</g>
</svg>
