<?xml version="1.0" encoding="UTF-8" standalone="no"?>
<!DOCTYPE svg PUBLIC "-//W3C//DTD SVG 1.1//EN"
 "http://www.w3.org/Graphics/SVG/1.1/DTD/svg11.dtd">
<!-- Generated by graphviz version 2.40.1 (20161225.0304)
 -->
<!-- Title: /mnt/c/Users/Jameson/Desktop/git/openage&#45;new&#45;doc&#45;system/libopenage/gamestate Pages: 1 -->
<svg width="555pt" height="367pt"
 viewBox="0.00 0.00 554.85 367.00" xmlns="http://www.w3.org/2000/svg" xmlns:xlink="http://www.w3.org/1999/xlink">
<g id="graph0" class="graph" transform="scale(1 1) rotate(0) translate(4 363)">
<title>/mnt/c/Users/Jameson/Desktop/git/openage&#45;new&#45;doc&#45;system/libopenage/gamestate</title>
<polygon fill="#ffffff" stroke="transparent" points="-4,4 -4,-363 550.8479,-363 550.8479,4 -4,4"/>
<g id="clust1" class="cluster">
<title>clusterdir_7a1433c2fe60c22d0d75c56b51397e23</title>
<g id="a_clust1"><a xlink:href="dir_7a1433c2fe60c22d0d75c56b51397e23.xhtml" target="_top" xlink:title="libopenage">
<polygon fill="#ddddee" stroke="#000000" points="232.8479,-280 232.8479,-351 310.8479,-351 310.8479,-280 232.8479,-280"/>
<text text-anchor="middle" x="271.8479" y="-339" font-family="Helvetica,sans-Serif" font-size="10.00" fill="#000000">libopenage</text>
</a>
</g>
</g>
<!-- dir_712401372000c18ae60227658ea59d70 -->
<g id="node1" class="node">
<title>dir_712401372000c18ae60227658ea59d70</title>
<g id="a_node1"><a xlink:href="dir_712401372000c18ae60227658ea59d70.xhtml" target="_top" xlink:title="gamestate">
<polygon fill="#eeeeff" stroke="#000000" points="302.8479,-324 240.8479,-324 240.8479,-288 302.8479,-288 302.8479,-324"/>
<text text-anchor="middle" x="271.8479" y="-303.5" font-family="Helvetica,sans-Serif" font-size="10.00" fill="#000000">gamestate</text>
</a>
</g>
</g>
<!-- dir_d4038e006ae681f38d9f19ed63c3b2e6 -->
<g id="node2" class="node">
<title>dir_d4038e006ae681f38d9f19ed63c3b2e6</title>
<g id="a_node2"><a xlink:href="dir_d4038e006ae681f38d9f19ed63c3b2e6.xhtml" target="_top" xlink:title="log">
<polygon fill="none" stroke="#000000" points="271.8479,-108 217.8479,-108 217.8479,-72 271.8479,-72 271.8479,-108"/>
<text text-anchor="middle" x="244.8479" y="-87.5" font-family="Helvetica,sans-Serif" font-size="10.00" fill="#000000">log</text>
</a>
</g>
</g>
<!-- dir_712401372000c18ae60227658ea59d70&#45;&gt;dir_d4038e006ae681f38d9f19ed63c3b2e6 -->
<g id="edge16" class="edge">
<title>dir_712401372000c18ae60227658ea59d70&#45;&gt;dir_d4038e006ae681f38d9f19ed63c3b2e6</title>
<path fill="none" stroke="#000000" d="M268.9693,-287.5251C267.3811,-277.1041 265.4186,-263.8377 263.8479,-252 257.6236,-205.0895 251.4293,-150.3928 247.8781,-118.0642"/>
<polygon fill="#000000" stroke="#000000" points="251.3442,-117.5624 246.7788,-108.0016 244.3856,-118.3226 251.3442,-117.5624"/>
<g id="a_edge16&#45;headlabel"><a xlink:href="dir_000003_000030.xhtml" target="_top" xlink:title="7">
<text text-anchor="middle" x="254.5569" y="-118.3274" font-family="Helvetica,sans-Serif" font-size="10.00" fill="#000000">7</text>
</a>
</g>
</g>
<!-- dir_731ac1015346d96b185da00f7857606e -->
<g id="node3" class="node">
<title>dir_731ac1015346d96b185da00f7857606e</title>
<g id="a_node3"><a xlink:href="dir_731ac1015346d96b185da00f7857606e.xhtml" target="_top" xlink:title="audio">
<polygon fill="none" stroke="#000000" points="205.8479,-252 151.8479,-252 151.8479,-216 205.8479,-216 205.8479,-252"/>
<text text-anchor="middle" x="178.8479" y="-231.5" font-family="Helvetica,sans-Serif" font-size="10.00" fill="#000000">audio</text>
</a>
</g>
</g>
<!-- dir_712401372000c18ae60227658ea59d70&#45;&gt;dir_731ac1015346d96b185da00f7857606e -->
<g id="edge17" class="edge">
<title>dir_712401372000c18ae60227658ea59d70&#45;&gt;dir_731ac1015346d96b185da00f7857606e</title>
<path fill="none" stroke="#000000" d="M248.3801,-287.8314C236.8152,-278.8779 222.7075,-267.9558 210.2296,-258.2955"/>
<polygon fill="#000000" stroke="#000000" points="212.3581,-255.5171 202.3082,-252.1628 208.0729,-261.0521 212.3581,-255.5171"/>
<g id="a_edge17&#45;headlabel"><a xlink:href="dir_000003_000001.xhtml" target="_top" xlink:title="2">
<text text-anchor="middle" x="216.9385" y="-252.9725" font-family="Helvetica,sans-Serif" font-size="10.00" fill="#000000">2</text>
</a>
</g>
</g>
<!-- dir_5ffefd0c1f0e77d7f24c1701d3d706c9 -->
<g id="node4" class="node">
<title>dir_5ffefd0c1f0e77d7f24c1701d3d706c9</title>
<g id="a_node4"><a xlink:href="dir_5ffefd0c1f0e77d7f24c1701d3d706c9.xhtml" target="_top" xlink:title="terrain">
<polygon fill="none" stroke="#000000" points="474.8479,-252 420.8479,-252 420.8479,-216 474.8479,-216 474.8479,-252"/>
<text text-anchor="middle" x="447.8479" y="-231.5" font-family="Helvetica,sans-Serif" font-size="10.00" fill="#000000">terrain</text>
</a>
</g>
</g>
<!-- dir_712401372000c18ae60227658ea59d70&#45;&gt;dir_5ffefd0c1f0e77d7f24c1701d3d706c9 -->
<g id="edge18" class="edge">
<title>dir_712401372000c18ae60227658ea59d70&#45;&gt;dir_5ffefd0c1f0e77d7f24c1701d3d706c9</title>
<path fill="none" stroke="#000000" d="M303.0669,-293.8518C330.5059,-283.0939 371.4642,-266.8391 406.8479,-252 408.2369,-251.4175 409.6505,-250.8201 411.077,-250.2133"/>
<polygon fill="#000000" stroke="#000000" points="412.7543,-253.3018 420.5552,-246.1326 409.9862,-246.8724 412.7543,-253.3018"/>
<g id="a_edge18&#45;headlabel"><a xlink:href="dir_000003_000038.xhtml" target="_top" xlink:title="5">
<text text-anchor="middle" x="410.5754" y="-254.8311" font-family="Helvetica,sans-Serif" font-size="10.00" fill="#000000">5</text>
</a>
</g>
</g>
<!-- dir_7f22ae691c2f00df38feb17398996147 -->
<g id="node5" class="node">
<title>dir_7f22ae691c2f00df38feb17398996147</title>
<g id="a_node5"><a xlink:href="dir_7f22ae691c2f00df38feb17398996147.xhtml" target="_top" xlink:title="coord">
<polygon fill="none" stroke="#000000" points="546.8479,-108 492.8479,-108 492.8479,-72 546.8479,-72 546.8479,-108"/>
<text text-anchor="middle" x="519.8479" y="-87.5" font-family="Helvetica,sans-Serif" font-size="10.00" fill="#000000">coord</text>
</a>
</g>
</g>
<!-- dir_712401372000c18ae60227658ea59d70&#45;&gt;dir_7f22ae691c2f00df38feb17398996147 -->
<g id="edge19" class="edge">
<title>dir_712401372000c18ae60227658ea59d70&#45;&gt;dir_7f22ae691c2f00df38feb17398996147</title>
<path fill="none" stroke="#000000" d="M303.0874,-301.5693C355.2389,-293.6097 456.9754,-275.5052 483.8479,-252 521.8426,-218.7663 524.6928,-155.1424 522.7074,-118.2926"/>
<polygon fill="#000000" stroke="#000000" points="526.1922,-117.9509 522.0072,-108.2176 519.209,-118.4362 526.1922,-117.9509"/>
<g id="a_edge19&#45;headlabel"><a xlink:href="dir_000003_000011.xhtml" target="_top" xlink:title="1">
<text text-anchor="middle" x="529.2737" y="-118.84" font-family="Helvetica,sans-Serif" font-size="10.00" fill="#000000">1</text>
</a>
</g>
</g>
<!-- dir_d037ee21b1d08cda7e27f2ce4ee48ec3 -->
<g id="node6" class="node">
<title>dir_d037ee21b1d08cda7e27f2ce4ee48ec3</title>
<g id="a_node6"><a xlink:href="dir_d037ee21b1d08cda7e27f2ce4ee48ec3.xhtml" target="_top" xlink:title="gui">
<polygon fill="#ffffff" stroke="#ff0000" points="326.8479,-252 272.8479,-252 272.8479,-216 326.8479,-216 326.8479,-252"/>
<text text-anchor="middle" x="299.8479" y="-231.5" font-family="Helvetica,sans-Serif" font-size="10.00" fill="#000000">gui</text>
</a>
</g>
</g>
<!-- dir_712401372000c18ae60227658ea59d70&#45;&gt;dir_d037ee21b1d08cda7e27f2ce4ee48ec3 -->
<g id="edge20" class="edge">
<title>dir_712401372000c18ae60227658ea59d70&#45;&gt;dir_d037ee21b1d08cda7e27f2ce4ee48ec3</title>
<path fill="none" stroke="#000000" d="M272.9611,-287.8314C275.2793,-279.8771 278.7667,-270.369 282.5425,-261.5723"/>
<polygon fill="#000000" stroke="#000000" points="285.7542,-262.9648 286.7112,-252.4133 279.383,-260.065 285.7542,-262.9648"/>
<g id="a_edge20&#45;headlabel"><a xlink:href="dir_000003_000016.xhtml" target="_top" xlink:title="1">
<text text-anchor="middle" x="286.8493" y="-264.9126" font-family="Helvetica,sans-Serif" font-size="10.00" fill="#000000">1</text>
</a>
</g>
</g>
<!-- dir_a25237b91464ed624c167f154229e196 -->
<g id="node7" class="node">
<title>dir_a25237b91464ed624c167f154229e196</title>
<g id="a_node7"><a xlink:href="dir_a25237b91464ed624c167f154229e196.xhtml" target="_top" xlink:title="util">
<polygon fill="#ffffff" stroke="#ff0000" points="271.8479,-36 217.8479,-36 217.8479,0 271.8479,0 271.8479,-36"/>
<text text-anchor="middle" x="244.8479" y="-15.5" font-family="Helvetica,sans-Serif" font-size="10.00" fill="#000000">util</text>
</a>
</g>
</g>
<!-- dir_712401372000c18ae60227658ea59d70&#45;&gt;dir_a25237b91464ed624c167f154229e196 -->
<g id="edge21" class="edge">
<title>dir_712401372000c18ae60227658ea59d70&#45;&gt;dir_a25237b91464ed624c167f154229e196</title>
<path fill="none" stroke="#000000" d="M240.7063,-303.6788C179.0473,-297.1064 44.0778,-272.2951 5.8479,-180 -32.1223,-88.3319 131.5093,-41.5694 207.6847,-25.0733"/>
<polygon fill="#000000" stroke="#000000" points="208.7553,-28.4249 217.8228,-22.9449 207.317,-21.5742 208.7553,-28.4249"/>
<g id="a_edge21&#45;headlabel"><a xlink:href="dir_000003_000018.xhtml" target="_top" xlink:title="7">
<text text-anchor="middle" x="205.8206" y="-29.442" font-family="Helvetica,sans-Serif" font-size="10.00" fill="#000000">7</text>
</a>
</g>
</g>
<!-- dir_f3789cadf99dfd908eb4a711d92a558b -->
<g id="node8" class="node">
<title>dir_f3789cadf99dfd908eb4a711d92a558b</title>
<g id="a_node8"><a xlink:href="dir_f3789cadf99dfd908eb4a711d92a558b.xhtml" target="_top" xlink:title="rng">
<polygon fill="none" stroke="#000000" points="68.8479,-180 14.8479,-180 14.8479,-144 68.8479,-144 68.8479,-180"/>
<text text-anchor="middle" x="41.8479" y="-159.5" font-family="Helvetica,sans-Serif" font-size="10.00" fill="#000000">rng</text>
</a>
</g>
</g>
<!-- dir_712401372000c18ae60227658ea59d70&#45;&gt;dir_f3789cadf99dfd908eb4a711d92a558b -->
<g id="edge22" class="edge">
<title>dir_712401372000c18ae60227658ea59d70&#45;&gt;dir_f3789cadf99dfd908eb4a711d92a558b</title>
<path fill="none" stroke="#000000" d="M240.5722,-299.8515C208.2324,-292.4098 157.3162,-277.5802 119.8479,-252 95.0065,-235.0404 73.2104,-208.2935 59.0202,-188.359"/>
<polygon fill="#000000" stroke="#000000" points="61.8076,-186.2364 53.235,-180.0105 56.054,-190.2235 61.8076,-186.2364"/>
<g id="a_edge22&#45;headlabel"><a xlink:href="dir_000003_000036.xhtml" target="_top" xlink:title="2">
<text text-anchor="middle" x="66.1886" y="-185.0738" font-family="Helvetica,sans-Serif" font-size="10.00" fill="#000000">2</text>
</a>
</g>
</g>
<!-- dir_26d84fcac5b38ff9c2db6912af76a48c -->
<g id="node9" class="node">
<title>dir_26d84fcac5b38ff9c2db6912af76a48c</title>
<g id="a_node9"><a xlink:href="dir_26d84fcac5b38ff9c2db6912af76a48c.xhtml" target="_top" xlink:title="job">
<polygon fill="none" stroke="#000000" points="140.8479,-180 86.8479,-180 86.8479,-144 140.8479,-144 140.8479,-180"/>
<text text-anchor="middle" x="113.8479" y="-159.5" font-family="Helvetica,sans-Serif" font-size="10.00" fill="#000000">job</text>
</a>
</g>
</g>
<!-- dir_712401372000c18ae60227658ea59d70&#45;&gt;dir_26d84fcac5b38ff9c2db6912af76a48c -->
<g id="edge23" class="edge">
<title>dir_712401372000c18ae60227658ea59d70&#45;&gt;dir_26d84fcac5b38ff9c2db6912af76a48c</title>
<path fill="none" stroke="#000000" d="M240.7407,-300.6756C211.5838,-294.1098 168.7178,-280.1601 142.8479,-252 127.2926,-235.0677 120.0777,-209.7228 116.7331,-190.2392"/>
<polygon fill="#000000" stroke="#000000" points="120.1612,-189.4937 115.2448,-180.1087 113.2356,-190.5113 120.1612,-189.4937"/>
<g id="a_edge23&#45;headlabel"><a xlink:href="dir_000003_000004.xhtml" target="_top" xlink:title="1">
<text text-anchor="middle" x="123.4927" y="-190.1375" font-family="Helvetica,sans-Serif" font-size="10.00" fill="#000000">1</text>
</a>
</g>
</g>
<!-- dir_2da62acedc39afa28df93c1a9cf67524 -->
<g id="node10" class="node">
<title>dir_2da62acedc39afa28df93c1a9cf67524</title>
<g id="a_node10"><a xlink:href="dir_2da62acedc39afa28df93c1a9cf67524.xhtml" target="_top" xlink:title="unit">
<polygon fill="none" stroke="#000000" points="402.8479,-180 348.8479,-180 348.8479,-144 402.8479,-144 402.8479,-180"/>
<text text-anchor="middle" x="375.8479" y="-159.5" font-family="Helvetica,sans-Serif" font-size="10.00" fill="#000000">unit</text>
</a>
</g>
</g>
<!-- dir_712401372000c18ae60227658ea59d70&#45;&gt;dir_2da62acedc39afa28df93c1a9cf67524 -->
<g id="edge24" class="edge">
<title>dir_712401372000c18ae60227658ea59d70&#45;&gt;dir_2da62acedc39afa28df93c1a9cf67524</title>
<path fill="none" stroke="#000000" d="M298.6104,-287.801C311.1448,-278.2624 325.5472,-265.7177 335.8479,-252 349.9685,-233.1954 360.4617,-208.62 367.1496,-189.9017"/>
<polygon fill="#000000" stroke="#000000" points="370.5504,-190.7737 370.4725,-180.1791 363.9265,-188.5098 370.5504,-190.7737"/>
<g id="a_edge24&#45;headlabel"><a xlink:href="dir_000003_000029.xhtml" target="_top" xlink:title="11">
<text text-anchor="middle" x="372.0746" y="-192.5933" font-family="Helvetica,sans-Serif" font-size="10.00" fill="#000000">11</text>
</a>
</g>
</g>
<!-- dir_d4038e006ae681f38d9f19ed63c3b2e6&#45;&gt;dir_a25237b91464ed624c167f154229e196 -->
<g id="edge1" class="edge">
<title>dir_d4038e006ae681f38d9f19ed63c3b2e6&#45;&gt;dir_a25237b91464ed624c167f154229e196</title>
<path fill="none" stroke="#000000" d="M238.8955,-71.8314C238.1451,-64.131 237.9242,-54.9743 238.2328,-46.4166"/>
<polygon fill="#000000" stroke="#000000" points="241.7271,-46.6161 238.8719,-36.4133 234.7414,-46.1697 241.7271,-46.6161"/>
<g id="a_edge1&#45;headlabel"><a xlink:href="dir_000030_000018.xhtml" target="_top" xlink:title="9">
<text text-anchor="middle" x="244.3315" y="-47.8844" font-family="Helvetica,sans-Serif" font-size="10.00" fill="#000000">9</text>
</a>
</g>
</g>
<!-- dir_731ac1015346d96b185da00f7857606e&#45;&gt;dir_d4038e006ae681f38d9f19ed63c3b2e6 -->
<g id="edge2" class="edge">
<title>dir_731ac1015346d96b185da00f7857606e&#45;&gt;dir_d4038e006ae681f38d9f19ed63c3b2e6</title>
<path fill="none" stroke="#000000" d="M187.2069,-215.7623C198.6129,-190.8764 219.1435,-146.0822 232.3737,-117.2165"/>
<polygon fill="#000000" stroke="#000000" points="235.572,-118.6386 236.5568,-108.0896 229.2085,-115.722 235.572,-118.6386"/>
<g id="a_edge2&#45;headlabel"><a xlink:href="dir_000001_000030.xhtml" target="_top" xlink:title="6">
<text text-anchor="middle" x="236.6554" y="-120.5893" font-family="Helvetica,sans-Serif" font-size="10.00" fill="#000000">6</text>
</a>
</g>
</g>
<!-- dir_731ac1015346d96b185da00f7857606e&#45;&gt;dir_a25237b91464ed624c167f154229e196 -->
<g id="edge3" class="edge">
<title>dir_731ac1015346d96b185da00f7857606e&#45;&gt;dir_a25237b91464ed624c167f154229e196</title>
<path fill="none" stroke="#000000" d="M179.8273,-215.8391C181.9969,-185.1574 188.7324,-121.5614 208.8479,-72 212.6847,-62.5467 218.3111,-53.0251 223.9811,-44.6662"/>
<polygon fill="#000000" stroke="#000000" points="226.8953,-46.6073 229.8324,-36.4277 221.1883,-42.5539 226.8953,-46.6073"/>
<g id="a_edge3&#45;headlabel"><a xlink:href="dir_000001_000018.xhtml" target="_top" xlink:title="10">
<text text-anchor="middle" x="227.1287" y="-48.682" font-family="Helvetica,sans-Serif" font-size="10.00" fill="#000000">10</text>
</a>
</g>
</g>
<!-- dir_731ac1015346d96b185da00f7857606e&#45;&gt;dir_26d84fcac5b38ff9c2db6912af76a48c -->
<g id="edge4" class="edge">
<title>dir_731ac1015346d96b185da00f7857606e&#45;&gt;dir_26d84fcac5b38ff9c2db6912af76a48c</title>
<path fill="none" stroke="#000000" d="M162.4457,-215.8314C154.8064,-207.3694 145.5796,-197.1489 137.2272,-187.8971"/>
<polygon fill="#000000" stroke="#000000" points="139.77,-185.4906 130.471,-180.4133 134.5741,-190.1813 139.77,-185.4906"/>
<g id="a_edge4&#45;headlabel"><a xlink:href="dir_000001_000004.xhtml" target="_top" xlink:title="3">
<text text-anchor="middle" x="144.2862" y="-183.7561" font-family="Helvetica,sans-Serif" font-size="10.00" fill="#000000">3</text>
</a>
</g>
</g>
<!-- dir_5ffefd0c1f0e77d7f24c1701d3d706c9&#45;&gt;dir_d4038e006ae681f38d9f19ed63c3b2e6 -->
<g id="edge5" class="edge">
<title>dir_5ffefd0c1f0e77d7f24c1701d3d706c9&#45;&gt;dir_d4038e006ae681f38d9f19ed63c3b2e6</title>
<path fill="none" stroke="#000000" d="M445.2655,-215.8874C441.4455,-195.6412 432.3821,-163.1878 411.8479,-144 376.0309,-110.5315 319.2802,-97.8023 282.0504,-92.9635"/>
<polygon fill="#000000" stroke="#000000" points="282.4405,-89.4854 272.101,-91.7973 281.6255,-96.4378 282.4405,-89.4854"/>
<g id="a_edge5&#45;headlabel"><a xlink:href="dir_000038_000030.xhtml" target="_top" xlink:title="2">
<text text-anchor="middle" x="286.3412" y="-84.5838" font-family="Helvetica,sans-Serif" font-size="10.00" fill="#000000">2</text>
</a>
</g>
</g>
<!-- dir_5ffefd0c1f0e77d7f24c1701d3d706c9&#45;&gt;dir_7f22ae691c2f00df38feb17398996147 -->
<g id="edge6" class="edge">
<title>dir_5ffefd0c1f0e77d7f24c1701d3d706c9&#45;&gt;dir_7f22ae691c2f00df38feb17398996147</title>
<path fill="none" stroke="#000000" d="M453.0633,-215.5225C459.0068,-205.3243 467.4193,-192.2713 473.8479,-180 484.4975,-159.6713 494.2633,-135.575 502.4293,-117.4336"/>
<polygon fill="#000000" stroke="#000000" points="505.759,-118.5734 506.7969,-108.0295 499.4103,-115.6248 505.759,-118.5734"/>
<g id="a_edge6&#45;headlabel"><a xlink:href="dir_000038_000011.xhtml" target="_top" xlink:title="19">
<text text-anchor="middle" x="506.82" y="-120.5295" font-family="Helvetica,sans-Serif" font-size="10.00" fill="#000000">19</text>
</a>
</g>
</g>
<!-- dir_5ffefd0c1f0e77d7f24c1701d3d706c9&#45;&gt;dir_a25237b91464ed624c167f154229e196 -->
<g id="edge7" class="edge">
<title>dir_5ffefd0c1f0e77d7f24c1701d3d706c9&#45;&gt;dir_a25237b91464ed624c167f154229e196</title>
<path fill="none" stroke="#000000" d="M449.1912,-215.6878C449.7925,-196.7075 448.4764,-166.6952 436.8479,-144 405.2585,-82.347 328.104,-46.3412 281.7875,-29.5691"/>
<polygon fill="#000000" stroke="#000000" points="282.7152,-26.1856 272.1204,-26.1852 280.4025,-32.7925 282.7152,-26.1856"/>
<g id="a_edge7&#45;headlabel"><a xlink:href="dir_000038_000018.xhtml" target="_top" xlink:title="6">
<text text-anchor="middle" x="287.046" y="-22.1933" font-family="Helvetica,sans-Serif" font-size="10.00" fill="#000000">6</text>
</a>
</g>
</g>
<!-- dir_5ffefd0c1f0e77d7f24c1701d3d706c9&#45;&gt;dir_2da62acedc39afa28df93c1a9cf67524 -->
<g id="edge8" class="edge">
<title>dir_5ffefd0c1f0e77d7f24c1701d3d706c9&#45;&gt;dir_2da62acedc39afa28df93c1a9cf67524</title>
<path fill="none" stroke="#000000" d="M423.7269,-215.8314C414.4402,-207.3694 404.0346,-197.1489 395.237,-187.8971"/>
<polygon fill="#000000" stroke="#000000" points="397.6554,-185.3579 388.2852,-180.4133 392.5267,-190.122 397.6554,-185.3579"/>
<g id="a_edge8&#45;headlabel"><a xlink:href="dir_000038_000029.xhtml" target="_top" xlink:title="1">
<text text-anchor="middle" x="402.1821" y="-183.5592" font-family="Helvetica,sans-Serif" font-size="10.00" fill="#000000">1</text>
</a>
</g>
</g>
<!-- dir_7f22ae691c2f00df38feb17398996147&#45;&gt;dir_5ffefd0c1f0e77d7f24c1701d3d706c9 -->
<g id="edge9" class="edge">
<title>dir_7f22ae691c2f00df38feb17398996147&#45;&gt;dir_5ffefd0c1f0e77d7f24c1701d3d706c9</title>
<path fill="none" stroke="#000000" d="M520.3194,-108.0295C515.8499,-126.5212 504.4696,-155.9067 491.8479,-180 487.0265,-189.2035 481.089,-198.8467 475.0513,-207.3954"/>
<polygon fill="#000000" stroke="#000000" points="472.1684,-205.407 469.0177,-215.5225 477.7888,-209.5796 472.1684,-205.407"/>
<g id="a_edge9&#45;headlabel"><a xlink:href="dir_000011_000038.xhtml" target="_top" xlink:title="2">
<text text-anchor="middle" x="472.0314" y="-198.3284" font-family="Helvetica,sans-Serif" font-size="10.00" fill="#000000">2</text>
</a>
</g>
</g>
<!-- dir_7f22ae691c2f00df38feb17398996147&#45;&gt;dir_a25237b91464ed624c167f154229e196 -->
<g id="edge10" class="edge">
<title>dir_7f22ae691c2f00df38feb17398996147&#45;&gt;dir_a25237b91464ed624c167f154229e196</title>
<path fill="none" stroke="#000000" d="M492.7791,-77.2699C488.1863,-75.3554 483.4226,-73.5173 478.8479,-72 410.7855,-49.4264 328.556,-32.8104 281.9173,-24.3361"/>
<polygon fill="#000000" stroke="#000000" points="282.4281,-20.8719 271.9677,-22.554 281.1939,-27.7623 282.4281,-20.8719"/>
<g id="a_edge10&#45;headlabel"><a xlink:href="dir_000011_000018.xhtml" target="_top" xlink:title="7">
<text text-anchor="middle" x="286.467" y="-16.2108" font-family="Helvetica,sans-Serif" font-size="10.00" fill="#000000">7</text>
</a>
</g>
</g>
<!-- dir_d037ee21b1d08cda7e27f2ce4ee48ec3&#45;&gt;dir_712401372000c18ae60227658ea59d70 -->
<g id="edge13" class="edge">
<title>dir_d037ee21b1d08cda7e27f2ce4ee48ec3&#45;&gt;dir_712401372000c18ae60227658ea59d70</title>
<path fill="none" stroke="#000000" d="M298.6632,-252.4133C296.3212,-260.3991 292.819,-269.9155 289.0373,-278.6975"/>
<polygon fill="#000000" stroke="#000000" points="285.8365,-277.2811 284.8659,-287.8314 292.2039,-280.1891 285.8365,-277.2811"/>
<g id="a_edge13&#45;headlabel"><a xlink:href="dir_000016_000003.xhtml" target="_top" xlink:title="16">
<text text-anchor="middle" x="284.7471" y="-270.3318" font-family="Helvetica,sans-Serif" font-size="10.00" fill="#000000">16</text>
</a>
</g>
</g>
<!-- dir_d037ee21b1d08cda7e27f2ce4ee48ec3&#45;&gt;dir_d4038e006ae681f38d9f19ed63c3b2e6 -->
<g id="edge11" class="edge">
<title>dir_d037ee21b1d08cda7e27f2ce4ee48ec3&#45;&gt;dir_d4038e006ae681f38d9f19ed63c3b2e6</title>
<path fill="none" stroke="#000000" d="M292.8821,-215.7623C283.4184,-190.9846 266.4168,-146.4714 255.3872,-117.5939"/>
<polygon fill="#000000" stroke="#000000" points="258.5949,-116.1826 251.7571,-108.0896 252.0556,-118.6803 258.5949,-116.1826"/>
<g id="a_edge11&#45;headlabel"><a xlink:href="dir_000016_000030.xhtml" target="_top" xlink:title="2">
<text text-anchor="middle" x="262.5298" y="-116.0275" font-family="Helvetica,sans-Serif" font-size="10.00" fill="#000000">2</text>
</a>
</g>
</g>
<!-- dir_d037ee21b1d08cda7e27f2ce4ee48ec3&#45;&gt;dir_a25237b91464ed624c167f154229e196 -->
<g id="edge12" class="edge">
<title>dir_d037ee21b1d08cda7e27f2ce4ee48ec3&#45;&gt;dir_a25237b91464ed624c167f154229e196</title>
<path fill="none" stroke="#000000" d="M300.4342,-215.8694C300.838,-185.2324 299.124,-121.7005 280.8479,-72 277.3268,-62.4246 271.7928,-52.8673 266.1104,-44.5132"/>
<polygon fill="#000000" stroke="#000000" points="268.886,-42.3778 260.2131,-36.2925 263.1982,-46.4581 268.886,-42.3778"/>
<g id="a_edge12&#45;headlabel"><a xlink:href="dir_000016_000018.xhtml" target="_top" xlink:title="6">
<text text-anchor="middle" x="273.2883" y="-41.1436" font-family="Helvetica,sans-Serif" font-size="10.00" fill="#000000">6</text>
</a>
</g>
</g>
<!-- dir_d037ee21b1d08cda7e27f2ce4ee48ec3&#45;&gt;dir_2da62acedc39afa28df93c1a9cf67524 -->
<g id="edge14" class="edge">
<title>dir_d037ee21b1d08cda7e27f2ce4ee48ec3&#45;&gt;dir_2da62acedc39afa28df93c1a9cf67524</title>
<path fill="none" stroke="#000000" d="M319.0259,-215.8314C328.2067,-207.1337 339.3485,-196.5783 349.3255,-187.1265"/>
<polygon fill="#000000" stroke="#000000" points="351.8236,-189.5811 356.676,-180.1628 347.0094,-184.4995 351.8236,-189.5811"/>
<g id="a_edge14&#45;headlabel"><a xlink:href="dir_000016_000029.xhtml" target="_top" xlink:title="2">
<text text-anchor="middle" x="351.1668" y="-191.6145" font-family="Helvetica,sans-Serif" font-size="10.00" fill="#000000">2</text>
</a>
</g>
</g>
<!-- dir_a25237b91464ed624c167f154229e196&#45;&gt;dir_d4038e006ae681f38d9f19ed63c3b2e6 -->
<g id="edge15" class="edge">
<title>dir_a25237b91464ed624c167f154229e196&#45;&gt;dir_d4038e006ae681f38d9f19ed63c3b2e6</title>
<path fill="none" stroke="#000000" d="M250.8239,-36.4133C251.555,-44.0593 251.7682,-53.1084 251.4634,-61.5726"/>
<polygon fill="#000000" stroke="#000000" points="247.9527,-61.6264 250.8003,-71.8314 254.9381,-62.078 247.9527,-61.6264"/>
<g id="a_edge15&#45;headlabel"><a xlink:href="dir_000018_000030.xhtml" target="_top" xlink:title="9">
<text text-anchor="middle" x="245.3511" y="-55.3562" font-family="Helvetica,sans-Serif" font-size="10.00" fill="#000000">9</text>
</a>
</g>
</g>
<!-- dir_f3789cadf99dfd908eb4a711d92a558b&#45;&gt;dir_d4038e006ae681f38d9f19ed63c3b2e6 -->
<g id="edge25" class="edge">
<title>dir_f3789cadf99dfd908eb4a711d92a558b&#45;&gt;dir_d4038e006ae681f38d9f19ed63c3b2e6</title>
<path fill="none" stroke="#000000" d="M69.1681,-147.8068C72.071,-146.4593 75.0021,-145.1638 77.8479,-144 121.5551,-126.1261 173.5425,-110.104 207.7691,-100.2415"/>
<polygon fill="#000000" stroke="#000000" points="209.1353,-103.4915 217.7921,-97.3833 207.2156,-96.7599 209.1353,-103.4915"/>
<g id="a_edge25&#45;headlabel"><a xlink:href="dir_000036_000030.xhtml" target="_top" xlink:title="1">
<text text-anchor="middle" x="206.4571" y="-104.7077" font-family="Helvetica,sans-Serif" font-size="10.00" fill="#000000">1</text>
</a>
</g>
</g>
<!-- dir_f3789cadf99dfd908eb4a711d92a558b&#45;&gt;dir_a25237b91464ed624c167f154229e196 -->
<g id="edge26" class="edge">
<title>dir_f3789cadf99dfd908eb4a711d92a558b&#45;&gt;dir_a25237b91464ed624c167f154229e196</title>
<path fill="none" stroke="#000000" d="M56.1594,-143.8858C72.3951,-124.2369 100.456,-92.8865 129.8479,-72 154.0752,-54.7835 184.6598,-40.7301 208.1966,-31.2798"/>
<polygon fill="#000000" stroke="#000000" points="209.7769,-34.4199 217.8133,-27.5158 207.2255,-27.9014 209.7769,-34.4199"/>
<g id="a_edge26&#45;headlabel"><a xlink:href="dir_000036_000018.xhtml" target="_top" xlink:title="2">
<text text-anchor="middle" x="207.4644" y="-35.874" font-family="Helvetica,sans-Serif" font-size="10.00" fill="#000000">2</text>
</a>
</g>
</g>
<!-- dir_26d84fcac5b38ff9c2db6912af76a48c&#45;&gt;dir_d4038e006ae681f38d9f19ed63c3b2e6 -->
<g id="edge27" class="edge">
<title>dir_26d84fcac5b38ff9c2db6912af76a48c&#45;&gt;dir_d4038e006ae681f38d9f19ed63c3b2e6</title>
<path fill="none" stroke="#000000" d="M140.9912,-147.0816C160.6637,-136.2692 187.4636,-121.5395 208.9115,-109.7513"/>
<polygon fill="#000000" stroke="#000000" points="210.6616,-112.7833 217.7394,-104.8993 207.29,-106.6488 210.6616,-112.7833"/>
<g id="a_edge27&#45;headlabel"><a xlink:href="dir_000004_000030.xhtml" target="_top" xlink:title="2">
<text text-anchor="middle" x="208.879" y="-114.5028" font-family="Helvetica,sans-Serif" font-size="10.00" fill="#000000">2</text>
</a>
</g>
</g>
<!-- dir_26d84fcac5b38ff9c2db6912af76a48c&#45;&gt;dir_a25237b91464ed624c167f154229e196 -->
<g id="edge28" class="edge">
<title>dir_26d84fcac5b38ff9c2db6912af76a48c&#45;&gt;dir_a25237b91464ed624c167f154229e196</title>
<path fill="none" stroke="#000000" d="M118.5537,-143.9787C124.4003,-124.411 135.978,-93.1315 154.8479,-72 169.524,-55.5649 190.416,-42.6079 208.3772,-33.5101"/>
<polygon fill="#000000" stroke="#000000" points="209.9849,-36.6203 217.4541,-29.1063 206.9293,-30.3224 209.9849,-36.6203"/>
<g id="a_edge28&#45;headlabel"><a xlink:href="dir_000004_000018.xhtml" target="_top" xlink:title="2">
<text text-anchor="middle" x="207.9901" y="-38.2438" font-family="Helvetica,sans-Serif" font-size="10.00" fill="#000000">2</text>
</a>
</g>
</g>
<!-- dir_2da62acedc39afa28df93c1a9cf67524&#45;&gt;dir_712401372000c18ae60227658ea59d70 -->
<g id="edge33" class="edge">
<title>dir_2da62acedc39afa28df93c1a9cf67524&#45;&gt;dir_712401372000c18ae60227658ea59d70</title>
<path fill="none" stroke="#000000" d="M376.8126,-180.183C376.9487,-199.6054 374.5045,-230.4924 359.8479,-252 348.3501,-268.8723 329.6621,-281.4209 312.4587,-290.153"/>
<polygon fill="#000000" stroke="#000000" points="310.6267,-287.1491 303.1091,-294.6148 313.6416,-293.4666 310.6267,-287.1491"/>
<g id="a_edge33&#45;headlabel"><a xlink:href="dir_000029_000003.xhtml" target="_top" xlink:title="10">
<text text-anchor="middle" x="312.648" y="-280.5385" font-family="Helvetica,sans-Serif" font-size="10.00" fill="#000000">10</text>
</a>
</g>
</g>
<!-- dir_2da62acedc39afa28df93c1a9cf67524&#45;&gt;dir_d4038e006ae681f38d9f19ed63c3b2e6 -->
<g id="edge29" class="edge">
<title>dir_2da62acedc39afa28df93c1a9cf67524&#45;&gt;dir_d4038e006ae681f38d9f19ed63c3b2e6</title>
<path fill="none" stroke="#000000" d="M348.7046,-147.0816C329.0321,-136.2692 302.2322,-121.5395 280.7843,-109.7513"/>
<polygon fill="#000000" stroke="#000000" points="282.4058,-106.6488 271.9564,-104.8993 279.0342,-112.7833 282.4058,-106.6488"/>
<g id="a_edge29&#45;headlabel"><a xlink:href="dir_000029_000030.xhtml" target="_top" xlink:title="5">
<text text-anchor="middle" x="286.9235" y="-103.3919" font-family="Helvetica,sans-Serif" font-size="10.00" fill="#000000">5</text>
</a>
</g>
</g>
<!-- dir_2da62acedc39afa28df93c1a9cf67524&#45;&gt;dir_5ffefd0c1f0e77d7f24c1701d3d706c9 -->
<g id="edge30" class="edge">
<title>dir_2da62acedc39afa28df93c1a9cf67524&#45;&gt;dir_5ffefd0c1f0e77d7f24c1701d3d706c9</title>
<path fill="none" stroke="#000000" d="M399.9626,-180.1628C409.3201,-188.6891 419.8146,-199.0016 428.6555,-208.3099"/>
<polygon fill="#000000" stroke="#000000" points="426.2652,-210.8796 435.6317,-215.8314 431.3975,-206.1194 426.2652,-210.8796"/>
<g id="a_edge30&#45;headlabel"><a xlink:href="dir_000029_000038.xhtml" target="_top" xlink:title="12">
<text text-anchor="middle" x="421.7391" y="-207.6749" font-family="Helvetica,sans-Serif" font-size="10.00" fill="#000000">12</text>
</a>
</g>
</g>
<!-- dir_2da62acedc39afa28df93c1a9cf67524&#45;&gt;dir_7f22ae691c2f00df38feb17398996147 -->
<g id="edge31" class="edge">
<title>dir_2da62acedc39afa28df93c1a9cf67524&#45;&gt;dir_7f22ae691c2f00df38feb17398996147</title>
<path fill="none" stroke="#000000" d="M402.9332,-148.4574C425.6172,-137.1153 458.2046,-120.8217 483.216,-108.316"/>
<polygon fill="#000000" stroke="#000000" points="485.0154,-111.3294 492.3945,-103.7267 481.8849,-105.0684 485.0154,-111.3294"/>
<g id="a_edge31&#45;headlabel"><a xlink:href="dir_000029_000011.xhtml" target="_top" xlink:title="12">
<text text-anchor="middle" x="483.0701" y="-112.9764" font-family="Helvetica,sans-Serif" font-size="10.00" fill="#000000">12</text>
</a>
</g>
</g>
<!-- dir_2da62acedc39afa28df93c1a9cf67524&#45;&gt;dir_a25237b91464ed624c167f154229e196 -->
<g id="edge32" class="edge">
<title>dir_2da62acedc39afa28df93c1a9cf67524&#45;&gt;dir_a25237b91464ed624c167f154229e196</title>
<path fill="none" stroke="#000000" d="M371.1421,-143.9787C365.2955,-124.411 353.7178,-93.1315 334.8479,-72 320.1718,-55.5649 299.2798,-42.6079 281.3186,-33.5101"/>
<polygon fill="#000000" stroke="#000000" points="282.7665,-30.3224 272.2417,-29.1063 279.711,-36.6203 282.7665,-30.3224"/>
<g id="a_edge32&#45;headlabel"><a xlink:href="dir_000029_000018.xhtml" target="_top" xlink:title="6">
<text text-anchor="middle" x="287.2399" y="-26.8369" font-family="Helvetica,sans-Serif" font-size="10.00" fill="#000000">6</text>
</a>
</g>
</g>
</g>
</svg>
