<?xml version="1.0" encoding="UTF-8" standalone="no"?>
<!DOCTYPE svg PUBLIC "-//W3C//DTD SVG 1.1//EN"
 "http://www.w3.org/Graphics/SVG/1.1/DTD/svg11.dtd">
<!-- Generated by graphviz version 2.40.1 (20161225.0304)
 -->
<!-- Title: Graphical Class Hierarchy Pages: 1 -->
<svg width="442pt" height="263pt"
 viewBox="0.00 0.00 442.00 262.50" xmlns="http://www.w3.org/2000/svg" xmlns:xlink="http://www.w3.org/1999/xlink">
<g id="graph0" class="graph" transform="scale(1 1) rotate(0) translate(4 258.5)">
<title>Graphical Class Hierarchy</title>
<polygon fill="#ffffff" stroke="transparent" points="-4,4 -4,-258.5 438,-258.5 438,4 -4,4"/>
<!-- Node57 -->
<g id="node1" class="node">
<title>Node57</title>
<polygon fill="#ffffff" stroke="#bfbfbf" points="0,-137 0,-156 125,-156 125,-137 0,-137"/>
<text text-anchor="middle" x="62.5" y="-144" font-family="Helvetica,sans-Serif" font-size="10.00" fill="#000000">enable_shared_from_this</text>
</g>
<!-- Node0 -->
<g id="node2" class="node">
<title>Node0</title>
<g id="a_node2"><a xlink:href="d6/d61/classopenage_1_1datastructure_1_1_pairing_heap_node.xhtml" target="_top" xlink:title="openage::datastructure\l::PairingHeapNode\&lt; T,\l compare \&gt;">
<polygon fill="#ffffff" stroke="#000000" points="161.5,-213 161.5,-254 278.5,-254 278.5,-213 161.5,-213"/>
<text text-anchor="start" x="169.5" y="-242" font-family="Helvetica,sans-Serif" font-size="10.00" fill="#000000">openage::datastructure</text>
<text text-anchor="start" x="169.5" y="-231" font-family="Helvetica,sans-Serif" font-size="10.00" fill="#000000">::PairingHeapNode&lt; T,</text>
<text text-anchor="middle" x="220" y="-220" font-family="Helvetica,sans-Serif" font-size="10.00" fill="#000000"> compare &gt;</text>
</a>
</g>
</g>
<!-- Node57&#45;&gt;Node0 -->
<g id="edge1" class="edge">
<title>Node57&#45;&gt;Node0</title>
<path fill="none" stroke="#191970" d="M87.0816,-161.2207C106.8821,-172.9576 135.5191,-189.6623 161,-203.5 166.756,-206.6258 172.8737,-209.847 178.9068,-212.966"/>
<polygon fill="#191970" stroke="#191970" points="88.7705,-158.153 78.3866,-156.0492 85.1922,-164.1693 88.7705,-158.153"/>
</g>
<!-- Node59 -->
<g id="node3" class="node">
<title>Node59</title>
<g id="a_node3"><a xlink:href="d9/dad/classopenage_1_1event_1_1_event.xhtml" target="_top" xlink:title="The actual one event that may be called &#45; it is used to manage the event itself. ">
<polygon fill="#ffffff" stroke="#000000" points="162.5,-175 162.5,-194 277.5,-194 277.5,-175 162.5,-175"/>
<text text-anchor="middle" x="220" y="-182" font-family="Helvetica,sans-Serif" font-size="10.00" fill="#000000">openage::event::Event</text>
</a>
</g>
</g>
<!-- Node57&#45;&gt;Node59 -->
<g id="edge2" class="edge">
<title>Node57&#45;&gt;Node59</title>
<path fill="none" stroke="#191970" d="M112.1041,-158.468C134.1753,-163.7931 159.8027,-169.9762 180.5419,-174.9799"/>
<polygon fill="#191970" stroke="#191970" points="112.7859,-155.0321 102.2439,-156.089 111.1441,-161.8369 112.7859,-155.0321"/>
</g>
<!-- Node60 -->
<g id="node4" class="node">
<title>Node60</title>
<g id="a_node4"><a xlink:href="de/d95/classopenage_1_1path_1_1_node.xhtml" target="_top" xlink:title="One navigation waypoint in a path. ">
<polygon fill="#ffffff" stroke="#000000" points="166.5,-137 166.5,-156 273.5,-156 273.5,-137 166.5,-137"/>
<text text-anchor="middle" x="220" y="-144" font-family="Helvetica,sans-Serif" font-size="10.00" fill="#000000">openage::path::Node</text>
</a>
</g>
</g>
<!-- Node57&#45;&gt;Node60 -->
<g id="edge3" class="edge">
<title>Node57&#45;&gt;Node60</title>
<path fill="none" stroke="#191970" d="M135.2043,-146.5C145.7099,-146.5 156.3599,-146.5 166.4004,-146.5"/>
<polygon fill="#191970" stroke="#191970" points="135.2008,-143.0001 125.2007,-146.5 135.2007,-150.0001 135.2008,-143.0001"/>
</g>
<!-- Node61 -->
<g id="node5" class="node">
<title>Node61</title>
<g id="a_node5"><a xlink:href="db/db3/classopenage_1_1_terrain_object.xhtml" target="_top" xlink:title="Base class for map location types which include square tile aligned positions and radial positions Th...">
<polygon fill="#ffffff" stroke="#000000" points="161,-99 161,-118 279,-118 279,-99 161,-99"/>
<text text-anchor="middle" x="220" y="-106" font-family="Helvetica,sans-Serif" font-size="10.00" fill="#000000">openage::TerrainObject</text>
</a>
</g>
</g>
<!-- Node57&#45;&gt;Node61 -->
<g id="edge4" class="edge">
<title>Node57&#45;&gt;Node61</title>
<path fill="none" stroke="#191970" d="M112.1041,-134.532C134.1753,-129.2069 159.8027,-123.0238 180.5419,-118.0201"/>
<polygon fill="#191970" stroke="#191970" points="111.1441,-131.1631 102.2439,-136.911 112.7859,-137.9679 111.1441,-131.1631"/>
</g>
<!-- Node64 -->
<g id="node8" class="node">
<title>Node64</title>
<g id="a_node8"><a xlink:href="d9/d42/classopenage_1_1util_1_1fslike_1_1_f_s_like.xhtml" target="_top" xlink:title="Base class for possible path implementations. ">
<polygon fill="#ffffff" stroke="#000000" points="169.5,-49.5 169.5,-79.5 270.5,-79.5 270.5,-49.5 169.5,-49.5"/>
<text text-anchor="start" x="177.5" y="-67.5" font-family="Helvetica,sans-Serif" font-size="10.00" fill="#000000">openage::util::fslike</text>
<text text-anchor="middle" x="220" y="-56.5" font-family="Helvetica,sans-Serif" font-size="10.00" fill="#000000">::FSLike</text>
</a>
</g>
</g>
<!-- Node57&#45;&gt;Node64 -->
<g id="edge7" class="edge">
<title>Node57&#45;&gt;Node64</title>
<path fill="none" stroke="#191970" d="M86.481,-131.5018C106.1481,-119.4767 134.9004,-102.5187 161,-89.5 167.8689,-86.0737 175.3212,-82.6782 182.5435,-79.5459"/>
<polygon fill="#191970" stroke="#191970" points="84.5452,-128.5835 77.8671,-136.8087 88.2169,-134.5432 84.5452,-128.5835"/>
</g>
<!-- Node62 -->
<g id="node6" class="node">
<title>Node62</title>
<g id="a_node6"><a xlink:href="d6/d31/classopenage_1_1_radial_object.xhtml" target="_top" xlink:title="Represents circular shaped objects (movable game units) can only be constructed by unit&#45;&gt;make_locatio...">
<polygon fill="#ffffff" stroke="#000000" points="316.5,-137 316.5,-156 432.5,-156 432.5,-137 316.5,-137"/>
<text text-anchor="middle" x="374.5" y="-144" font-family="Helvetica,sans-Serif" font-size="10.00" fill="#000000">openage::RadialObject</text>
</a>
</g>
</g>
<!-- Node61&#45;&gt;Node62 -->
<g id="edge5" class="edge">
<title>Node61&#45;&gt;Node62</title>
<path fill="none" stroke="#191970" d="M268.9521,-120.54C290.5365,-125.8488 315.541,-131.9988 335.7935,-136.9799"/>
<polygon fill="#191970" stroke="#191970" points="269.5334,-117.0787 258.9869,-118.089 267.8615,-123.8762 269.5334,-117.0787"/>
</g>
<!-- Node63 -->
<g id="node7" class="node">
<title>Node63</title>
<g id="a_node7"><a xlink:href="d0/dcc/classopenage_1_1_square_object.xhtml" target="_top" xlink:title="terrain object class represents one immobile object on the map (building, trees, fish, ...). ">
<polygon fill="#ffffff" stroke="#000000" points="315,-99 315,-118 434,-118 434,-99 315,-99"/>
<text text-anchor="middle" x="374.5" y="-106" font-family="Helvetica,sans-Serif" font-size="10.00" fill="#000000">openage::SquareObject</text>
</a>
</g>
</g>
<!-- Node61&#45;&gt;Node63 -->
<g id="edge6" class="edge">
<title>Node61&#45;&gt;Node63</title>
<path fill="none" stroke="#191970" d="M289.519,-108.5C297.9768,-108.5 306.5595,-108.5 314.8561,-108.5"/>
<polygon fill="#191970" stroke="#191970" points="289.2919,-105.0001 279.2919,-108.5 289.2918,-112.0001 289.2919,-105.0001"/>
</g>
<!-- Node65 -->
<g id="node9" class="node">
<title>Node65</title>
<g id="a_node9"><a xlink:href="dd/d4e/classopenage_1_1util_1_1fslike_1_1_directory.xhtml" target="_top" xlink:title="Filesystem&#45;like object which uses native libc calls. ">
<polygon fill="#ffffff" stroke="#000000" points="324,-49.5 324,-79.5 425,-79.5 425,-49.5 324,-49.5"/>
<text text-anchor="start" x="332" y="-67.5" font-family="Helvetica,sans-Serif" font-size="10.00" fill="#000000">openage::util::fslike</text>
<text text-anchor="middle" x="374.5" y="-56.5" font-family="Helvetica,sans-Serif" font-size="10.00" fill="#000000">::Directory</text>
</a>
</g>
</g>
<!-- Node64&#45;&gt;Node65 -->
<g id="edge8" class="edge">
<title>Node64&#45;&gt;Node65</title>
<path fill="none" stroke="#191970" d="M280.79,-64.5C295.0296,-64.5 310.0518,-64.5 323.7973,-64.5"/>
<polygon fill="#191970" stroke="#191970" points="280.5891,-61.0001 270.5891,-64.5 280.589,-68.0001 280.5891,-61.0001"/>
</g>
<!-- Node66 -->
<g id="node10" class="node">
<title>Node66</title>
<g id="a_node10"><a xlink:href="d1/d06/classopenage_1_1util_1_1fslike_1_1_python.xhtml" target="_top" xlink:title="Filesystem&#45;like object that wraps a filesystem&#45;like object from Python. ">
<polygon fill="#ffffff" stroke="#000000" points="324,-.5 324,-30.5 425,-30.5 425,-.5 324,-.5"/>
<text text-anchor="start" x="332" y="-18.5" font-family="Helvetica,sans-Serif" font-size="10.00" fill="#000000">openage::util::fslike</text>
<text text-anchor="middle" x="374.5" y="-7.5" font-family="Helvetica,sans-Serif" font-size="10.00" fill="#000000">::Python</text>
</a>
</g>
</g>
<!-- Node64&#45;&gt;Node66 -->
<g id="edge9" class="edge">
<title>Node64&#45;&gt;Node66</title>
<path fill="none" stroke="#191970" d="M277.572,-46.2409C293.8676,-41.0727 311.4149,-35.5076 327.0415,-30.5516"/>
<polygon fill="#191970" stroke="#191970" points="276.0897,-43.0391 267.6158,-49.3986 278.206,-49.7116 276.0897,-43.0391"/>
</g>
</g>
</svg>
