<?xml version="1.0" encoding="UTF-8" standalone="no"?>
<!DOCTYPE svg PUBLIC "-//W3C//DTD SVG 1.1//EN"
 "http://www.w3.org/Graphics/SVG/1.1/DTD/svg11.dtd">
<!-- Generated by graphviz version 2.40.1 (20161225.0304)
 -->
<!-- Title: Graphical Class Hierarchy Pages: 1 -->
<svg width="264pt" height="137pt"
 viewBox="0.00 0.00 264.00 137.00" xmlns="http://www.w3.org/2000/svg" xmlns:xlink="http://www.w3.org/1999/xlink">
<g id="graph0" class="graph" transform="scale(1 1) rotate(0) translate(4 133)">
<title>Graphical Class Hierarchy</title>
<polygon fill="#ffffff" stroke="transparent" points="-4,4 -4,-133 260,-133 260,4 -4,4"/>
<!-- Node734 -->
<g id="node1" class="node">
<title>Node734</title>
<polygon fill="#ffffff" stroke="#bfbfbf" points="0,-55 0,-74 104,-74 104,-55 0,-55"/>
<text text-anchor="middle" x="52" y="-62" font-family="Helvetica,sans-Serif" font-size="10.00" fill="#000000">CoordNeSeRelative</text>
</g>
<!-- Node0 -->
<g id="node2" class="node">
<title>Node0</title>
<g id="a_node2"><a xlink:href="d7/d40/structopenage_1_1coord_1_1chunk__delta.xhtml" target="_top" xlink:title="openage::coord::chunk\l_delta">
<polygon fill="#ffffff" stroke="#000000" points="140,-98.5 140,-128.5 256,-128.5 256,-98.5 140,-98.5"/>
<text text-anchor="start" x="148" y="-116.5" font-family="Helvetica,sans-Serif" font-size="10.00" fill="#000000">openage::coord::chunk</text>
<text text-anchor="middle" x="198" y="-105.5" font-family="Helvetica,sans-Serif" font-size="10.00" fill="#000000">_delta</text>
</a>
</g>
</g>
<!-- Node734&#45;&gt;Node0 -->
<g id="edge1" class="edge">
<title>Node734&#45;&gt;Node0</title>
<path fill="none" stroke="#191970" d="M90.1666,-77.3093C109.4755,-83.7897 133.0315,-91.6955 153.196,-98.463"/>
<polygon fill="#191970" stroke="#191970" points="91.0908,-73.9277 80.4969,-74.064 88.8635,-80.5639 91.0908,-73.9277"/>
</g>
<!-- Node736 -->
<g id="node3" class="node">
<title>Node736</title>
<g id="a_node3"><a xlink:href="dd/d68/structopenage_1_1coord_1_1phys2__delta.xhtml" target="_top" xlink:title="openage::coord::phys2\l_delta">
<polygon fill="#ffffff" stroke="#000000" points="140,-49.5 140,-79.5 256,-79.5 256,-49.5 140,-49.5"/>
<text text-anchor="start" x="148" y="-67.5" font-family="Helvetica,sans-Serif" font-size="10.00" fill="#000000">openage::coord::phys2</text>
<text text-anchor="middle" x="198" y="-56.5" font-family="Helvetica,sans-Serif" font-size="10.00" fill="#000000">_delta</text>
</a>
</g>
</g>
<!-- Node734&#45;&gt;Node736 -->
<g id="edge2" class="edge">
<title>Node734&#45;&gt;Node736</title>
<path fill="none" stroke="#191970" d="M114.4591,-64.5C122.8937,-64.5 131.5201,-64.5 139.875,-64.5"/>
<polygon fill="#191970" stroke="#191970" points="114.297,-61.0001 104.297,-64.5 114.2969,-68.0001 114.297,-61.0001"/>
</g>
<!-- Node737 -->
<g id="node4" class="node">
<title>Node737</title>
<g id="a_node4"><a xlink:href="db/db5/structopenage_1_1coord_1_1tile__delta.xhtml" target="_top" xlink:title="openage::coord::tile\l_delta">
<polygon fill="#ffffff" stroke="#000000" points="147,-.5 147,-30.5 249,-30.5 249,-.5 147,-.5"/>
<text text-anchor="start" x="155" y="-18.5" font-family="Helvetica,sans-Serif" font-size="10.00" fill="#000000">openage::coord::tile</text>
<text text-anchor="middle" x="198" y="-7.5" font-family="Helvetica,sans-Serif" font-size="10.00" fill="#000000">_delta</text>
</a>
</g>
</g>
<!-- Node734&#45;&gt;Node737 -->
<g id="edge3" class="edge">
<title>Node734&#45;&gt;Node737</title>
<path fill="none" stroke="#191970" d="M90.1666,-51.6907C109.4755,-45.2103 133.0315,-37.3045 153.196,-30.537"/>
<polygon fill="#191970" stroke="#191970" points="88.8635,-48.4361 80.4969,-54.936 91.0908,-55.0723 88.8635,-48.4361"/>
</g>
</g>
</svg>
