<?xml version="1.0" encoding="UTF-8" standalone="no"?>
<!DOCTYPE svg PUBLIC "-//W3C//DTD SVG 1.1//EN"
 "http://www.w3.org/Graphics/SVG/1.1/DTD/svg11.dtd">
<!-- Generated by graphviz version 2.40.1 (20161225.0304)
 -->
<!-- Title: Graphical Class Hierarchy Pages: 1 -->
<svg width="244pt" height="88pt"
 viewBox="0.00 0.00 244.00 88.00" xmlns="http://www.w3.org/2000/svg" xmlns:xlink="http://www.w3.org/1999/xlink">
<g id="graph0" class="graph" transform="scale(1 1) rotate(0) translate(4 84)">
<title>Graphical Class Hierarchy</title>
<polygon fill="#ffffff" stroke="transparent" points="-4,4 -4,-84 240,-84 240,4 -4,4"/>
<!-- Node694 -->
<g id="node1" class="node">
<title>Node694</title>
<polygon fill="#ffffff" stroke="#bfbfbf" points="0,-30 0,-49 60,-49 60,-30 0,-30"/>
<text text-anchor="middle" x="30" y="-37" font-family="Helvetica,sans-Serif" font-size="10.00" fill="#000000">Exception</text>
</g>
<!-- Node0 -->
<g id="node2" class="node">
<title>Node0</title>
<g id="a_node2"><a xlink:href="d6/d6e/classopenage_1_1testing_1_1testing_1_1_test_error.xhtml" target="_top" xlink:title="openage.testing.testing.\lTestError">
<polygon fill="#ffffff" stroke="#000000" points="105.5,-49.5 105.5,-79.5 226.5,-79.5 226.5,-49.5 105.5,-49.5"/>
<text text-anchor="start" x="113.5" y="-67.5" font-family="Helvetica,sans-Serif" font-size="10.00" fill="#000000">openage.testing.testing.</text>
<text text-anchor="middle" x="166" y="-56.5" font-family="Helvetica,sans-Serif" font-size="10.00" fill="#000000">TestError</text>
</a>
</g>
</g>
<!-- Node694&#45;&gt;Node0 -->
<g id="edge1" class="edge">
<title>Node694&#45;&gt;Node0</title>
<path fill="none" stroke="#191970" d="M70.2993,-46.908C81.2713,-48.9249 93.4039,-51.1551 105.2406,-53.331"/>
<polygon fill="#191970" stroke="#191970" points="70.6508,-43.414 60.1828,-45.0483 69.3852,-50.2987 70.6508,-43.414"/>
</g>
<!-- Node696 -->
<g id="node3" class="node">
<title>Node696</title>
<g id="a_node3"><a xlink:href="d1/d4b/classopenage_1_1util_1_1bytequeue_1_1_byte_buffer_1_1_discarded_error.xhtml" target="_top" xlink:title="openage.util.bytequeue.Byte\lBuffer.DiscardedError">
<polygon fill="#ffffff" stroke="#000000" points="96,-.5 96,-30.5 236,-30.5 236,-.5 96,-.5"/>
<text text-anchor="start" x="104" y="-18.5" font-family="Helvetica,sans-Serif" font-size="10.00" fill="#000000">openage.util.bytequeue.Byte</text>
<text text-anchor="middle" x="166" y="-7.5" font-family="Helvetica,sans-Serif" font-size="10.00" fill="#000000">Buffer.DiscardedError</text>
</a>
</g>
</g>
<!-- Node694&#45;&gt;Node696 -->
<g id="edge2" class="edge">
<title>Node694&#45;&gt;Node696</title>
<path fill="none" stroke="#191970" d="M70.0958,-32.4243C78.2293,-30.9889 87.0072,-29.4399 95.8338,-27.8823"/>
<polygon fill="#191970" stroke="#191970" points="69.4224,-28.9889 60.1828,-34.1736 70.6389,-35.8824 69.4224,-28.9889"/>
</g>
</g>
</svg>
