<?xml version="1.0" encoding="UTF-8" standalone="no"?>
<!DOCTYPE svg PUBLIC "-//W3C//DTD SVG 1.1//EN"
 "http://www.w3.org/Graphics/SVG/1.1/DTD/svg11.dtd">
<!-- Generated by graphviz version 2.40.1 (20161225.0304)
 -->
<!-- Title: Graphical Class Hierarchy Pages: 1 -->
<svg width="345pt" height="78pt"
 viewBox="0.00 0.00 345.00 77.50" xmlns="http://www.w3.org/2000/svg" xmlns:xlink="http://www.w3.org/1999/xlink">
<g id="graph0" class="graph" transform="scale(1 1) rotate(0) translate(4 73.5)">
<title>Graphical Class Hierarchy</title>
<polygon fill="#ffffff" stroke="transparent" points="-4,4 -4,-73.5 341,-73.5 341,4 -4,4"/>
<!-- Node0 -->
<g id="node1" class="node">
<title>Node0</title>
<g id="a_node1"><a xlink:href="d1/da7/classopenage_1_1audio_1_1_resource.xhtml" target="_top" xlink:title="A Resource contains 16 bit signed integer pcm data, that can be played by sounds. ...">
<polygon fill="#ffffff" stroke="#000000" points="0,-28 0,-47 131,-47 131,-28 0,-28"/>
<text text-anchor="middle" x="65.5" y="-35" font-family="Helvetica,sans-Serif" font-size="10.00" fill="#000000">openage::audio::Resource</text>
</a>
</g>
</g>
<!-- Node1 -->
<g id="node2" class="node">
<title>Node1</title>
<g id="a_node2"><a xlink:href="d4/de5/classopenage_1_1audio_1_1_dynamic_resource.xhtml" target="_top" xlink:title="Audio data that is loaded dynamically when used. ">
<polygon fill="#ffffff" stroke="#000000" points="167,-50 167,-69 337,-69 337,-50 167,-50"/>
<text text-anchor="middle" x="252" y="-57" font-family="Helvetica,sans-Serif" font-size="10.00" fill="#000000">openage::audio::DynamicResource</text>
</a>
</g>
</g>
<!-- Node0&#45;&gt;Node1 -->
<g id="edge1" class="edge">
<title>Node0&#45;&gt;Node1</title>
<path fill="none" stroke="#191970" d="M141.3643,-46.4491C151.178,-47.6068 161.258,-48.7959 171.1486,-49.9626"/>
<polygon fill="#191970" stroke="#191970" points="141.5941,-42.9521 131.2529,-45.2564 140.774,-49.9039 141.5941,-42.9521"/>
</g>
<!-- Node2 -->
<g id="node3" class="node">
<title>Node2</title>
<g id="a_node3"><a xlink:href="da/de3/classopenage_1_1audio_1_1_in_memory_resource.xhtml" target="_top" xlink:title="An InMemoryResource loads the whole pcm data into memory and keeps it there. ">
<polygon fill="#ffffff" stroke="#000000" points="186,-.5 186,-30.5 318,-30.5 318,-.5 186,-.5"/>
<text text-anchor="start" x="194" y="-18.5" font-family="Helvetica,sans-Serif" font-size="10.00" fill="#000000">openage::audio::InMemory</text>
<text text-anchor="middle" x="252" y="-7.5" font-family="Helvetica,sans-Serif" font-size="10.00" fill="#000000">Resource</text>
</a>
</g>
</g>
<!-- Node0&#45;&gt;Node2 -->
<g id="edge2" class="edge">
<title>Node0&#45;&gt;Node2</title>
<path fill="none" stroke="#191970" d="M141.3568,-28.5518C156.1178,-26.8105 171.4817,-24.9981 185.8974,-23.2976"/>
<polygon fill="#191970" stroke="#191970" points="140.774,-25.0961 131.2529,-29.7436 141.5941,-32.0479 140.774,-25.0961"/>
</g>
</g>
</svg>
