<?xml version="1.0" encoding="UTF-8" standalone="no"?>
<!DOCTYPE svg PUBLIC "-//W3C//DTD SVG 1.1//EN"
 "http://www.w3.org/Graphics/SVG/1.1/DTD/svg11.dtd">
<!-- Generated by graphviz version 2.40.1 (20161225.0304)
 -->
<!-- Title: openage.util.struct.NamedStructMeta.__new__ Pages: 1 -->
<svg width="579pt" height="53pt"
 viewBox="0.00 0.00 579.00 52.50" xmlns="http://www.w3.org/2000/svg" xmlns:xlink="http://www.w3.org/1999/xlink">
<g id="graph0" class="graph" transform="scale(1 1) rotate(0) translate(4 48.5)">
<title>openage.util.struct.NamedStructMeta.__new__</title>
<polygon fill="#ffffff" stroke="transparent" points="-4,4 -4,-48.5 575,-48.5 575,4 -4,4"/>
<!-- Node0 -->
<g id="node1" class="node">
<title>Node0</title>
<polygon fill="#bfbfbf" stroke="#000000" points="0,-.5 0,-30.5 131,-30.5 131,-.5 0,-.5"/>
<text text-anchor="start" x="8" y="-18.5" font-family="Helvetica,sans-Serif" font-size="10.00" fill="#000000">openage.util.struct.Named</text>
<text text-anchor="middle" x="65.5" y="-7.5" font-family="Helvetica,sans-Serif" font-size="10.00" fill="#000000">StructMeta.__new__</text>
</g>
<!-- Node1 -->
<g id="node2" class="node">
<title>Node1</title>
<g id="a_node2"><a xlink:href="../../d4/dd4/namespaceopenage_1_1py.xhtml#a5ba80af3e9224d2de11179ce232f75d9" target="_top" xlink:title="dict() ">
<polygon fill="#ffffff" stroke="#000000" points="167,-25 167,-44 259,-44 259,-25 167,-25"/>
<text text-anchor="middle" x="213" y="-32" font-family="Helvetica,sans-Serif" font-size="10.00" fill="#000000">openage::py::dict</text>
</a>
</g>
</g>
<!-- Node0&#45;&gt;Node1 -->
<g id="edge1" class="edge">
<title>Node0&#45;&gt;Node1</title>
<path fill="none" stroke="#191970" d="M131.0546,-23.9443C139.5878,-25.0435 148.2692,-26.1618 156.6342,-27.2393"/>
<polygon fill="#191970" stroke="#191970" points="156.2842,-30.7231 166.6495,-28.5294 157.1786,-23.7804 156.2842,-30.7231"/>
</g>
<!-- Node3 -->
<g id="node4" class="node">
<title>Node3</title>
<g id="a_node4"><a xlink:href="../../de/d60/namespaceopenage_1_1util.xhtml#a7bc4421a5f0f57f3a0aba3f96eb8d19c" target="_top" xlink:title="method that behaves similar to python&#39;s &quot;repr&quot;. ">
<polygon fill="#ffffff" stroke="#000000" points="476,-25 476,-44 571,-44 571,-25 476,-25"/>
<text text-anchor="middle" x="523.5" y="-32" font-family="Helvetica,sans-Serif" font-size="10.00" fill="#000000">openage::util::repr</text>
</a>
</g>
</g>
<!-- Node0&#45;&gt;Node3 -->
<g id="edge5" class="edge">
<title>Node0&#45;&gt;Node3</title>
<path fill="none" stroke="#191970" d="M131.0318,-11.0868C205.9849,-7.061 332.2612,-3.397 440,-15.5 453.0567,-16.9667 467.0496,-19.6851 479.7763,-22.6161"/>
<polygon fill="#191970" stroke="#191970" points="479.1285,-26.06 489.6694,-24.9925 480.7635,-19.2536 479.1285,-26.06"/>
</g>
<!-- Node2 -->
<g id="node3" class="node">
<title>Node2</title>
<g id="a_node3"><a xlink:href="../../d5/d0e/namespaceopenage_1_1testing_1_1testing.xhtml#ac25bf81db406af62d08113ef7ae9fd6e" target="_top" xlink:title="openage.testing.testing.result">
<polygon fill="#ffffff" stroke="#000000" points="295,-25 295,-44 440,-44 440,-25 295,-25"/>
<text text-anchor="middle" x="367.5" y="-32" font-family="Helvetica,sans-Serif" font-size="10.00" fill="#000000">openage.testing.testing.result</text>
</a>
</g>
</g>
<!-- Node1&#45;&gt;Node2 -->
<g id="edge2" class="edge">
<title>Node1&#45;&gt;Node2</title>
<path fill="none" stroke="#191970" d="M259.3551,-34.5C267.4047,-34.5 275.9902,-34.5 284.6701,-34.5"/>
<polygon fill="#191970" stroke="#191970" points="284.8765,-38.0001 294.8765,-34.5 284.8764,-31.0001 284.8765,-38.0001"/>
</g>
<!-- Node2&#45;&gt;Node3 -->
<g id="edge3" class="edge">
<title>Node2&#45;&gt;Node3</title>
<path fill="none" stroke="#191970" d="M440.0196,-27.7648C448.6179,-27.7182 457.3054,-27.7815 465.6614,-27.9545"/>
<polygon fill="#191970" stroke="#191970" points="465.5718,-31.4533 475.6613,-28.2201 465.7578,-24.4558 465.5718,-31.4533"/>
</g>
<!-- Node3&#45;&gt;Node2 -->
<g id="edge4" class="edge">
<title>Node3&#45;&gt;Node2</title>
<path fill="none" stroke="#191970" d="M475.6613,-40.7799C467.5562,-41.0451 458.9375,-41.1982 450.24,-41.2389"/>
<polygon fill="#191970" stroke="#191970" points="450.021,-37.7389 440.0196,-41.2352 450.0183,-44.7389 450.021,-37.7389"/>
</g>
</g>
</svg>
