<?xml version="1.0" encoding="UTF-8" standalone="no"?>
<!DOCTYPE svg PUBLIC "-//W3C//DTD SVG 1.1//EN"
 "http://www.w3.org/Graphics/SVG/1.1/DTD/svg11.dtd">
<!-- Generated by graphviz version 2.40.1 (20161225.0304)
 -->
<!-- Title: openage.util.struct.FlagsMeta Pages: 1 -->
<svg width="348pt" height="458pt"
 viewBox="0.00 0.00 348.00 458.00" xmlns="http://www.w3.org/2000/svg" xmlns:xlink="http://www.w3.org/1999/xlink">
<g id="graph0" class="graph" transform="scale(1 1) rotate(0) translate(4 454)">
<title>openage.util.struct.FlagsMeta</title>
<polygon fill="#ffffff" stroke="transparent" points="-4,4 -4,-454 344,-454 344,4 -4,4"/>
<!-- Node0 -->
<g id="node1" class="node">
<title>Node0</title>
<polygon fill="#bfbfbf" stroke="#000000" points="92.5,-298.5 92.5,-355.5 238.5,-355.5 238.5,-298.5 92.5,-298.5"/>
<text text-anchor="middle" x="165.5" y="-343.5" font-family="Helvetica,sans-Serif" font-size="10.00" fill="#000000">openage.util.struct.FlagsMeta</text>
<polyline fill="none" stroke="#000000" points="92.5,-336.5 238.5,-336.5 "/>
<text text-anchor="middle" x="165.5" y="-324.5" font-family="Helvetica,sans-Serif" font-size="10.00" fill="#000000"> </text>
<polyline fill="none" stroke="#000000" points="92.5,-317.5 238.5,-317.5 "/>
<text text-anchor="start" x="100.5" y="-305.5" font-family="Helvetica,sans-Serif" font-size="10.00" fill="#000000">+ __new__()</text>
</g>
<!-- Node2 -->
<g id="node3" class="node">
<title>Node2</title>
<g id="a_node3"><a xlink:href="../../d8/d87/classopenage_1_1util_1_1struct_1_1_flags.xhtml" target="_top" xlink:title="Designed to be inherited from, similar to Enum. ">
<polygon fill="#ffffff" stroke="#000000" points="103.5,-171.5 103.5,-261.5 227.5,-261.5 227.5,-171.5 103.5,-171.5"/>
<text text-anchor="middle" x="165.5" y="-249.5" font-family="Helvetica,sans-Serif" font-size="10.00" fill="#000000">openage.util.struct.Flags</text>
<polyline fill="none" stroke="#000000" points="103.5,-242.5 227.5,-242.5 "/>
<text text-anchor="start" x="111.5" y="-230.5" font-family="Helvetica,sans-Serif" font-size="10.00" fill="#000000">&#45; _flags</text>
<polyline fill="none" stroke="#000000" points="103.5,-223.5 227.5,-223.5 "/>
<text text-anchor="start" x="111.5" y="-211.5" font-family="Helvetica,sans-Serif" font-size="10.00" fill="#000000">+ __init__()</text>
<text text-anchor="start" x="111.5" y="-200.5" font-family="Helvetica,sans-Serif" font-size="10.00" fill="#000000">+ unknown()</text>
<text text-anchor="start" x="111.5" y="-189.5" font-family="Helvetica,sans-Serif" font-size="10.00" fill="#000000">+ as_dict()</text>
<text text-anchor="start" x="111.5" y="-178.5" font-family="Helvetica,sans-Serif" font-size="10.00" fill="#000000">+ __repr__()</text>
</a>
</g>
</g>
<!-- Node0&#45;&gt;Node2 -->
<g id="edge2" class="edge">
<title>Node0&#45;&gt;Node2</title>
<path fill="none" stroke="#191970" d="M165.5,-288.1977C165.5,-279.667 165.5,-270.5607 165.5,-261.7995"/>
<polygon fill="none" stroke="#191970" points="162.0001,-288.2559 165.5,-298.2559 169.0001,-288.2559 162.0001,-288.2559"/>
</g>
<!-- Node1 -->
<g id="node2" class="node">
<title>Node1</title>
<polygon fill="#ffffff" stroke="#bfbfbf" points="148,-392.5 148,-449.5 183,-449.5 183,-392.5 148,-392.5"/>
<text text-anchor="middle" x="165.5" y="-437.5" font-family="Helvetica,sans-Serif" font-size="10.00" fill="#000000">type</text>
<polyline fill="none" stroke="#bfbfbf" points="148,-430.5 183,-430.5 "/>
<text text-anchor="middle" x="165.5" y="-418.5" font-family="Helvetica,sans-Serif" font-size="10.00" fill="#000000"> </text>
<polyline fill="none" stroke="#bfbfbf" points="148,-411.5 183,-411.5 "/>
<text text-anchor="middle" x="165.5" y="-399.5" font-family="Helvetica,sans-Serif" font-size="10.00" fill="#000000"> </text>
</g>
<!-- Node1&#45;&gt;Node0 -->
<g id="edge1" class="edge">
<title>Node1&#45;&gt;Node0</title>
<path fill="none" stroke="#191970" d="M165.5,-382.1035C165.5,-373.2052 165.5,-363.9073 165.5,-355.538"/>
<polygon fill="none" stroke="#191970" points="162.0001,-382.2861 165.5,-392.2861 169.0001,-382.2862 162.0001,-382.2861"/>
</g>
<!-- Node3 -->
<g id="node4" class="node">
<title>Node3</title>
<g id="a_node4"><a xlink:href="../../d9/d9b/classopenage_1_1cabextract_1_1cab_1_1_c_f_file_attributes.xhtml" target="_top" xlink:title="File flags; found in the CFFile struct. ">
<polygon fill="#ffffff" stroke="#000000" points="0,-.5 0,-134.5 153,-134.5 153,-.5 0,-.5"/>
<text text-anchor="start" x="8" y="-122.5" font-family="Helvetica,sans-Serif" font-size="10.00" fill="#000000">openage.cabextract.cab.CFFile</text>
<text text-anchor="middle" x="76.5" y="-111.5" font-family="Helvetica,sans-Serif" font-size="10.00" fill="#000000">Attributes</text>
<polyline fill="none" stroke="#000000" points="0,-104.5 153,-104.5 "/>
<text text-anchor="start" x="8" y="-92.5" font-family="Helvetica,sans-Serif" font-size="10.00" fill="#000000">+ specstr</text>
<text text-anchor="start" x="8" y="-81.5" font-family="Helvetica,sans-Serif" font-size="10.00" fill="#000000">+ rdonly</text>
<text text-anchor="start" x="8" y="-70.5" font-family="Helvetica,sans-Serif" font-size="10.00" fill="#000000">+ hidden</text>
<text text-anchor="start" x="8" y="-59.5" font-family="Helvetica,sans-Serif" font-size="10.00" fill="#000000">+ system</text>
<text text-anchor="start" x="8" y="-48.5" font-family="Helvetica,sans-Serif" font-size="10.00" fill="#000000">+ arch</text>
<text text-anchor="start" x="8" y="-37.5" font-family="Helvetica,sans-Serif" font-size="10.00" fill="#000000">+ exec</text>
<text text-anchor="start" x="8" y="-26.5" font-family="Helvetica,sans-Serif" font-size="10.00" fill="#000000">+ name_is_utf</text>
<polyline fill="none" stroke="#000000" points="0,-19.5 153,-19.5 "/>
<text text-anchor="middle" x="76.5" y="-7.5" font-family="Helvetica,sans-Serif" font-size="10.00" fill="#000000"> </text>
</a>
</g>
</g>
<!-- Node2&#45;&gt;Node3 -->
<g id="edge3" class="edge">
<title>Node2&#45;&gt;Node3</title>
<path fill="none" stroke="#191970" d="M133.2624,-162.5292C127.8694,-153.5004 122.2157,-144.0353 116.6535,-134.7233"/>
<polygon fill="none" stroke="#191970" points="130.4227,-164.6005 138.5555,-171.3907 136.4323,-161.0108 130.4227,-164.6005"/>
</g>
<!-- Node4 -->
<g id="node5" class="node">
<title>Node4</title>
<g id="a_node5"><a xlink:href="../../df/de2/classopenage_1_1cabextract_1_1cab_1_1_c_f_header_flags.xhtml" target="_top" xlink:title="Cabinet file option indicators. ">
<polygon fill="#ffffff" stroke="#000000" points="171,-17 171,-118 340,-118 340,-17 171,-17"/>
<text text-anchor="start" x="179" y="-106" font-family="Helvetica,sans-Serif" font-size="10.00" fill="#000000">openage.cabextract.cab.CFHeader</text>
<text text-anchor="middle" x="255.5" y="-95" font-family="Helvetica,sans-Serif" font-size="10.00" fill="#000000">Flags</text>
<polyline fill="none" stroke="#000000" points="171,-88 340,-88 "/>
<text text-anchor="start" x="179" y="-76" font-family="Helvetica,sans-Serif" font-size="10.00" fill="#000000">+ specstr</text>
<text text-anchor="start" x="179" y="-65" font-family="Helvetica,sans-Serif" font-size="10.00" fill="#000000">+ prev_cabinet</text>
<text text-anchor="start" x="179" y="-54" font-family="Helvetica,sans-Serif" font-size="10.00" fill="#000000">+ next_cabinet</text>
<text text-anchor="start" x="179" y="-43" font-family="Helvetica,sans-Serif" font-size="10.00" fill="#000000">+ reserve_present</text>
<polyline fill="none" stroke="#000000" points="171,-36 340,-36 "/>
<text text-anchor="middle" x="255.5" y="-24" font-family="Helvetica,sans-Serif" font-size="10.00" fill="#000000"> </text>
</a>
</g>
</g>
<!-- Node2&#45;&gt;Node4 -->
<g id="edge4" class="edge">
<title>Node2&#45;&gt;Node4</title>
<path fill="none" stroke="#191970" d="M198.0897,-162.5459C206.8318,-148.0729 216.2518,-132.4776 224.8829,-118.1883"/>
<polygon fill="none" stroke="#191970" points="194.9216,-161.0214 192.7472,-171.3907 200.9134,-164.6407 194.9216,-161.0214"/>
</g>
</g>
</svg>
