<?xml version="1.0" encoding="UTF-8" standalone="no"?>
<!DOCTYPE svg PUBLIC "-//W3C//DTD SVG 1.1//EN"
 "http://www.w3.org/Graphics/SVG/1.1/DTD/svg11.dtd">
<!-- Generated by graphviz version 2.40.1 (20161225.0304)
 -->
<!-- Title: openage::rng::RNG::probability Pages: 1 -->
<!--zoomable 105 -->
<svg id="main" version="1.1" xmlns="http://www.w3.org/2000/svg" xmlns:xlink="http://www.w3.org/1999/xlink" xml:space="preserve" onload="init(evt)">
<style type="text/css"><![CDATA[
.edge:hover path { stroke: red; }
.edge:hover polygon { stroke: red; fill: red; }
]]></style>
<script type="text/javascript"><![CDATA[
var edges = document.getElementsByTagName('g');
if (edges && edges.length) {
  for (var i=0;i<edges.length;i++) {
    if (edges[i].id.substr(0,4)=='edge') {
      edges[i].setAttribute('class','edge');
    }
  }
}
]]></script>
        <defs>
                <circle id="rim" cx="0" cy="0" r="7"/>
                <circle id="rim2" cx="0" cy="0" r="3.5"/>
                <g id="zoomPlus">
                        <use xlink:href="#rim" fill="#404040">
                                <set attributeName="fill" to="#808080" begin="zoomplus.mouseover" end="zoomplus.mouseout"/>
                        </use>
                        <path d="M-4,0h8M0,-4v8" fill="none" stroke="white" stroke-width="1.5" pointer-events="none"/>
                </g>
                <g id="zoomMin">
                        <use xlink:href="#rim" fill="#404040">
                                <set attributeName="fill" to="#808080" begin="zoomminus.mouseover" end="zoomminus.mouseout"/>
                        </use>
                        <path d="M-4,0h8" fill="none" stroke="white" stroke-width="1.5" pointer-events="none"/>
                </g>
                <g id="dirArrow">
                        <path fill="none" stroke="white" stroke-width="1.5" d="M0,-3.0v7 M-2.5,-0.5L0,-3.0L2.5,-0.5"/>
                </g>
               <g id="resetDef">
                       <use xlink:href="#rim2" fill="#404040">
                               <set attributeName="fill" to="#808080" begin="reset.mouseover" end="reset.mouseout"/>
                       </use>
               </g>
        </defs>

<script type="text/javascript">
var viewWidth = 854;
var viewHeight = 105;
var sectionId = 'dynsection-15';
</script>
<script xlink:href="../../svgpan.js"/>
<svg id="graph" class="graph">
<g id="viewport">
<title>openage::rng::RNG::probability</title>
<polygon fill="#ffffff" stroke="transparent" points="-4,4 -4,-101 850,-101 850,4 -4,4"/>
<!-- Node75 -->
<g id="node1" class="node">
<title>Node75</title>
<polygon fill="#bfbfbf" stroke="#000000" points="0,-44.5 0,-74.5 107,-74.5 107,-44.5 0,-44.5"/>
<text text-anchor="start" x="8" y="-62.5" font-family="Helvetica,sans-Serif" font-size="10.00" fill="#000000">openage::rng::RNG::</text>
<text text-anchor="middle" x="53.5" y="-51.5" font-family="Helvetica,sans-Serif" font-size="10.00" fill="#000000">probability</text>
</g>
<!-- Node76 -->
<g id="node2" class="node">
<title>Node76</title>
<g id="a_node2"><a xlink:href="../../d8/d06/classopenage_1_1_action_mode.xhtml#a43f98279255b857ee8fa9943117271e8" target="_top" xlink:title="Called after GameControl has been set by QML from set_game_control. ">
<polygon fill="#ffffff" stroke="#000000" points="147.5,-66.5 147.5,-96.5 263.5,-96.5 263.5,-66.5 147.5,-66.5"/>
<text text-anchor="start" x="155.5" y="-84.5" font-family="Helvetica,sans-Serif" font-size="10.00" fill="#000000">openage::ActionMode</text>
<text text-anchor="middle" x="205.5" y="-73.5" font-family="Helvetica,sans-Serif" font-size="10.00" fill="#000000">::on_game_control_set</text>
</a>
</g>
</g>
<!-- Node75&#45;&gt;Node76 -->
<g id="edge1" class="edge">
<title>Node75&#45;&gt;Node76</title>
<path fill="none" stroke="#191970" d="M117.0524,-68.6984C127.1429,-70.1588 137.5344,-71.6629 147.489,-73.1037"/>
<polygon fill="#191970" stroke="#191970" points="117.4878,-65.225 107.0895,-67.2564 116.485,-72.1528 117.4878,-65.225"/>
</g>
<!-- Node77 -->
<g id="node3" class="node">
<title>Node77</title>
<g id="a_node3"><a xlink:href="../../d1/d80/classopenage_1_1_region.xhtml#aab907d7f645bc78647dd204ba136b5d4" target="_top" xlink:title="find a group of tiles inside this region, number is the number of tiles to be contained in the subset...">
<polygon fill="#ffffff" stroke="#000000" points="143,-28 143,-47 268,-47 268,-28 143,-28"/>
<text text-anchor="middle" x="205.5" y="-35" font-family="Helvetica,sans-Serif" font-size="10.00" fill="#000000">openage::Region::subset</text>
</a>
</g>
</g>
<!-- Node75&#45;&gt;Node77 -->
<g id="edge2" class="edge">
<title>Node75&#45;&gt;Node77</title>
<path fill="none" stroke="#191970" d="M117.2565,-50.2721C125.6995,-49.0501 134.3496,-47.7981 142.7751,-46.5786"/>
<polygon fill="#191970" stroke="#191970" points="116.485,-46.8472 107.0895,-51.7436 117.4878,-53.775 116.485,-46.8472"/>
</g>
<!-- Node78 -->
<g id="node4" class="node">
<title>Node78</title>
<g id="a_node4"><a xlink:href="../../d1/d80/classopenage_1_1_region.xhtml#a268c678dfa97caf1cd17b632ca74de40" target="_top" xlink:title="removes the given set of tiles from this region, which get split of as a new child region ...">
<polygon fill="#ffffff" stroke="#000000" points="304,-22.5 304,-52.5 419,-52.5 419,-22.5 304,-22.5"/>
<text text-anchor="start" x="312" y="-40.5" font-family="Helvetica,sans-Serif" font-size="10.00" fill="#000000">openage::Region::take</text>
<text text-anchor="middle" x="361.5" y="-29.5" font-family="Helvetica,sans-Serif" font-size="10.00" fill="#000000">_tiles</text>
</a>
</g>
</g>
<!-- Node77&#45;&gt;Node78 -->
<g id="edge3" class="edge">
<title>Node77&#45;&gt;Node78</title>
<path fill="none" stroke="#191970" d="M278.1575,-37.5C286.8221,-37.5 295.5751,-37.5 303.986,-37.5"/>
<polygon fill="#191970" stroke="#191970" points="278.0523,-34.0001 268.0523,-37.5 278.0523,-41.0001 278.0523,-34.0001"/>
</g>
<!-- Node79 -->
<g id="node5" class="node">
<title>Node79</title>
<g id="a_node5"><a xlink:href="../../dd/d78/classopenage_1_1_generator.xhtml#ae221973cf4125fbf62af6f9626609b4a" target="_top" xlink:title="openage::Generator\l::create_regions">
<polygon fill="#ffffff" stroke="#000000" points="606,-22.5 606,-52.5 708,-52.5 708,-22.5 606,-22.5"/>
<text text-anchor="start" x="614" y="-40.5" font-family="Helvetica,sans-Serif" font-size="10.00" fill="#000000">openage::Generator</text>
<text text-anchor="middle" x="657" y="-29.5" font-family="Helvetica,sans-Serif" font-size="10.00" fill="#000000">::create_regions</text>
</a>
</g>
</g>
<!-- Node78&#45;&gt;Node79 -->
<g id="edge4" class="edge">
<title>Node78&#45;&gt;Node79</title>
<path fill="none" stroke="#191970" d="M429.398,-39.9343C438.0146,-40.168 446.7131,-40.3671 455,-40.5 506.1045,-41.3196 518.8965,-41.3808 570,-40.5 581.6354,-40.2994 594.1422,-39.9481 605.9436,-39.5549"/>
<polygon fill="#191970" stroke="#191970" points="429.4462,-36.4343 419.35,-39.646 429.2454,-43.4314 429.4462,-36.4343"/>
</g>
<!-- Node81 -->
<g id="node7" class="node">
<title>Node81</title>
<g id="a_node7"><a xlink:href="../../d1/d80/classopenage_1_1_region.xhtml#a365efd8b6f0199a7cb270af90291a662" target="_top" xlink:title="similiar to take_tiles, but takes a random group of tiles ">
<polygon fill="#ffffff" stroke="#000000" points="455,-.5 455,-30.5 570,-30.5 570,-.5 455,-.5"/>
<text text-anchor="start" x="463" y="-18.5" font-family="Helvetica,sans-Serif" font-size="10.00" fill="#000000">openage::Region::take</text>
<text text-anchor="middle" x="512.5" y="-7.5" font-family="Helvetica,sans-Serif" font-size="10.00" fill="#000000">_random</text>
</a>
</g>
</g>
<!-- Node78&#45;&gt;Node81 -->
<g id="edge6" class="edge">
<title>Node78&#45;&gt;Node81</title>
<path fill="none" stroke="#191970" d="M429.0519,-27.658C437.6779,-26.4012 446.4438,-25.1241 454.8925,-23.8931"/>
<polygon fill="#191970" stroke="#191970" points="428.4083,-24.2147 419.0174,-29.12 429.4175,-31.1416 428.4083,-24.2147"/>
</g>
<!-- Node80 -->
<g id="node6" class="node">
<title>Node80</title>
<g id="a_node6"><a xlink:href="../../dd/d78/classopenage_1_1_generator.xhtml#ab7579f771b73612867f7d07482e0a540" target="_top" xlink:title="Create a game from a specification. ">
<polygon fill="#ffffff" stroke="#000000" points="744,-22.5 744,-52.5 846,-52.5 846,-22.5 744,-22.5"/>
<text text-anchor="start" x="752" y="-40.5" font-family="Helvetica,sans-Serif" font-size="10.00" fill="#000000">openage::Generator</text>
<text text-anchor="middle" x="795" y="-29.5" font-family="Helvetica,sans-Serif" font-size="10.00" fill="#000000">::create</text>
</a>
</g>
</g>
<!-- Node79&#45;&gt;Node80 -->
<g id="edge5" class="edge">
<title>Node79&#45;&gt;Node80</title>
<path fill="none" stroke="#191970" d="M718.4957,-37.5C726.872,-37.5 735.3977,-37.5 743.571,-37.5"/>
<polygon fill="#191970" stroke="#191970" points="718.3861,-34.0001 708.3861,-37.5 718.3861,-41.0001 718.3861,-34.0001"/>
</g>
<!-- Node81&#45;&gt;Node79 -->
<g id="edge7" class="edge">
<title>Node81&#45;&gt;Node79</title>
<path fill="none" stroke="#191970" d="M580.0867,-25.79C588.7176,-27.1041 597.4375,-28.4317 605.7512,-29.6974"/>
<polygon fill="#191970" stroke="#191970" points="580.4383,-22.3033 570.0254,-24.2582 579.3847,-29.2236 580.4383,-22.3033"/>
</g>
</g>
</svg>
        <g id="navigator" transform="translate(0 0)" fill="#404254">
                <rect fill="#f2f5e9" fill-opacity="0.5" stroke="#606060" stroke-width=".5" x="0" y="0" width="60" height="60"/>
                <use id="zoomplus" xlink:href="#zoomPlus" x="17" y="9" onmousedown="handleZoom(evt,'in')"/>
                <use id="zoomminus" xlink:href="#zoomMin" x="42" y="9" onmousedown="handleZoom(evt,'out')"/>
                <use id="reset" xlink:href="#resetDef" x="30" y="36" onmousedown="handleReset()"/>
                <g id="arrowUp" xlink:href="#dirArrow" transform="translate(30 24)" onmousedown="handlePan(0,-1)">
                  <use xlink:href="#rim" fill="#404040">
                        <set attributeName="fill" to="#808080" begin="arrowUp.mouseover" end="arrowUp.mouseout"/>
                  </use>
                  <path fill="none" stroke="white" stroke-width="1.5" d="M0,-3.0v7 M-2.5,-0.5L0,-3.0L2.5,-0.5"/>
                </g>
                <g id="arrowRight" xlink:href="#dirArrow" transform="rotate(90) translate(36 -43)" onmousedown="handlePan(1,0)">
                  <use xlink:href="#rim" fill="#404040">
                        <set attributeName="fill" to="#808080" begin="arrowRight.mouseover" end="arrowRight.mouseout"/>
                  </use>
                  <path fill="none" stroke="white" stroke-width="1.5" d="M0,-3.0v7 M-2.5,-0.5L0,-3.0L2.5,-0.5"/>
                </g>
                <g id="arrowDown" xlink:href="#dirArrow" transform="rotate(180) translate(-30 -48)" onmousedown="handlePan(0,1)">
                  <use xlink:href="#rim" fill="#404040">
                        <set attributeName="fill" to="#808080" begin="arrowDown.mouseover" end="arrowDown.mouseout"/>
                  </use>
                  <path fill="none" stroke="white" stroke-width="1.5" d="M0,-3.0v7 M-2.5,-0.5L0,-3.0L2.5,-0.5"/>
                </g>
                <g id="arrowLeft" xlink:href="#dirArrow" transform="rotate(270) translate(-36 17)" onmousedown="handlePan(-1,0)">
                  <use xlink:href="#rim" fill="#404040">
                        <set attributeName="fill" to="#808080" begin="arrowLeft.mouseover" end="arrowLeft.mouseout"/>
                  </use>
                  <path fill="none" stroke="white" stroke-width="1.5" d="M0,-3.0v7 M-2.5,-0.5L0,-3.0L2.5,-0.5"/>
                </g>
        </g>
        <svg viewBox="0 0 15 15" width="100%" height="30px" preserveAspectRatio="xMaxYMin meet">
         <g id="arrow_out" transform="scale(0.3 0.3)">
          <a xlink:href="classopenage_1_1rng_1_1_r_n_g_ab24ce8fabde7df2ec900e3e1883281a4_icgraph_org.svg" target="_base">
           <rect id="button" ry="5" rx="5" y="6" x="6" height="38" width="38"
                fill="#f2f5e9" fill-opacity="0.5" stroke="#606060" stroke-width="1.0"/>
           <path id="arrow"
             d="M 11.500037,31.436501 C 11.940474,20.09759 22.043105,11.32322 32.158766,21.979434 L 37.068811,17.246167 C 37.068811,17.246167 37.088388,32 37.088388,32 L 22.160133,31.978069 C 22.160133,31.978069 26.997745,27.140456 26.997745,27.140456 C 18.528582,18.264221 13.291696,25.230495 11.500037,31.436501 z"
             style="fill:#404040;"/>
          </a>
         </g>
        </svg>
</svg>
