<?xml version="1.0" encoding="UTF-8" standalone="no"?>
<!DOCTYPE svg PUBLIC "-//W3C//DTD SVG 1.1//EN"
 "http://www.w3.org/Graphics/SVG/1.1/DTD/svg11.dtd">
<!-- Generated by graphviz version 2.40.1 (20161225.0304)
 -->
<!-- Title: openage::rng::RNG::max Pages: 1 -->
<!--zoomable 215 -->
<svg id="main" version="1.1" xmlns="http://www.w3.org/2000/svg" xmlns:xlink="http://www.w3.org/1999/xlink" xml:space="preserve" onload="init(evt)">
<style type="text/css"><![CDATA[
.edge:hover path { stroke: red; }
.edge:hover polygon { stroke: red; fill: red; }
]]></style>
<script type="text/javascript"><![CDATA[
var edges = document.getElementsByTagName('g');
if (edges && edges.length) {
  for (var i=0;i<edges.length;i++) {
    if (edges[i].id.substr(0,4)=='edge') {
      edges[i].setAttribute('class','edge');
    }
  }
}
]]></script>
        <defs>
                <circle id="rim" cx="0" cy="0" r="7"/>
                <circle id="rim2" cx="0" cy="0" r="3.5"/>
                <g id="zoomPlus">
                        <use xlink:href="#rim" fill="#404040">
                                <set attributeName="fill" to="#808080" begin="zoomplus.mouseover" end="zoomplus.mouseout"/>
                        </use>
                        <path d="M-4,0h8M0,-4v8" fill="none" stroke="white" stroke-width="1.5" pointer-events="none"/>
                </g>
                <g id="zoomMin">
                        <use xlink:href="#rim" fill="#404040">
                                <set attributeName="fill" to="#808080" begin="zoomminus.mouseover" end="zoomminus.mouseout"/>
                        </use>
                        <path d="M-4,0h8" fill="none" stroke="white" stroke-width="1.5" pointer-events="none"/>
                </g>
                <g id="dirArrow">
                        <path fill="none" stroke="white" stroke-width="1.5" d="M0,-3.0v7 M-2.5,-0.5L0,-3.0L2.5,-0.5"/>
                </g>
               <g id="resetDef">
                       <use xlink:href="#rim2" fill="#404040">
                               <set attributeName="fill" to="#808080" begin="reset.mouseover" end="reset.mouseout"/>
                       </use>
               </g>
        </defs>

<script type="text/javascript">
var viewWidth = 1037;
var viewHeight = 215;
var sectionId = 'dynsection-12';
</script>
<script xlink:href="../../svgpan.js"/>
<svg id="graph" class="graph">
<g id="viewport">
<title>openage::rng::RNG::max</title>
<polygon fill="#ffffff" stroke="transparent" points="-4,4 -4,-210.5 1033,-210.5 1033,4 -4,4"/>
<!-- Node50 -->
<g id="node1" class="node">
<title>Node50</title>
<polygon fill="#bfbfbf" stroke="#000000" points="0,-88.5 0,-107.5 126,-107.5 126,-88.5 0,-88.5"/>
<text text-anchor="middle" x="63" y="-95.5" font-family="Helvetica,sans-Serif" font-size="10.00" fill="#000000">openage::rng::RNG::max</text>
</g>
<!-- Node51 -->
<g id="node2" class="node">
<title>Node51</title>
<g id="a_node2"><a xlink:href="../../da/daa/classopenage_1_1rng_1_1_r_n_g.xhtml#ab7dbd0bef0c06a30b6724f2352af833c" target="_top" xlink:title="Fills an array of doubles with values in [0, 1) Gives identical results as real() but more effecientl...">
<polygon fill="#ffffff" stroke="#000000" points="170,-83 170,-113 277,-113 277,-83 170,-83"/>
<text text-anchor="start" x="178" y="-101" font-family="Helvetica,sans-Serif" font-size="10.00" fill="#000000">openage::rng::RNG::</text>
<text text-anchor="middle" x="223.5" y="-90" font-family="Helvetica,sans-Serif" font-size="10.00" fill="#000000">fill_real</text>
</a>
</g>
</g>
<!-- Node50&#45;&gt;Node51 -->
<g id="edge1" class="edge">
<title>Node50&#45;&gt;Node51</title>
<path fill="none" stroke="#191970" d="M136.6367,-98C147.8268,-98 159.1895,-98 169.8466,-98"/>
<polygon fill="#191970" stroke="#191970" points="136.4339,-94.5001 126.4338,-98 136.4338,-101.5001 136.4339,-94.5001"/>
</g>
<!-- Node56 -->
<g id="node7" class="node">
<title>Node56</title>
<g id="a_node7"><a xlink:href="../../da/daa/classopenage_1_1rng_1_1_r_n_g.xhtml#ab24ce8fabde7df2ec900e3e1883281a4" target="_top" xlink:title="Returns true with the passed probability. ">
<polygon fill="#ffffff" stroke="#000000" points="170,-132 170,-162 277,-162 277,-132 170,-132"/>
<text text-anchor="start" x="178" y="-150" font-family="Helvetica,sans-Serif" font-size="10.00" fill="#000000">openage::rng::RNG::</text>
<text text-anchor="middle" x="223.5" y="-139" font-family="Helvetica,sans-Serif" font-size="10.00" fill="#000000">probability</text>
</a>
</g>
</g>
<!-- Node50&#45;&gt;Node56 -->
<g id="edge6" class="edge">
<title>Node50&#45;&gt;Node56</title>
<path fill="none" stroke="#191970" d="M104.0835,-110.5426C125.4703,-117.0719 151.7741,-125.1024 174.2463,-131.963"/>
<polygon fill="#191970" stroke="#191970" points="104.9132,-107.1365 94.327,-107.564 102.8692,-113.8315 104.9132,-107.1365"/>
</g>
<!-- Node63 -->
<g id="node14" class="node">
<title>Node63</title>
<g id="a_node14"><a xlink:href="../../da/daa/classopenage_1_1rng_1_1_r_n_g.xhtml#a2d906c2de63a31a89589a34bac2a3dd8" target="_top" xlink:title="Retrieves a double in [0, 1) ">
<polygon fill="#ffffff" stroke="#000000" points="162,-44.5 162,-63.5 285,-63.5 285,-44.5 162,-44.5"/>
<text text-anchor="middle" x="223.5" y="-51.5" font-family="Helvetica,sans-Serif" font-size="10.00" fill="#000000">openage::rng::RNG::real</text>
</a>
</g>
</g>
<!-- Node50&#45;&gt;Node63 -->
<g id="edge14" class="edge">
<title>Node50&#45;&gt;Node63</title>
<path fill="none" stroke="#191970" d="M107.6768,-85.7522C133.3005,-78.7276 164.9906,-70.04 188.7419,-63.5287"/>
<polygon fill="#191970" stroke="#191970" points="106.5449,-82.4332 97.8261,-88.4527 108.3957,-89.1842 106.5449,-82.4332"/>
</g>
<!-- Node52 -->
<g id="node3" class="node">
<title>Node52</title>
<g id="a_node3"><a xlink:href="../../d8/d8d/namespaceopenage_1_1rng_1_1tests.xhtml#a3b24c3f995bfb45b9d833030720bd88f" target="_top" xlink:title="Tests filling doubles. ">
<polygon fill="#ffffff" stroke="#000000" points="333,-88 333,-118 434,-118 434,-88 333,-88"/>
<text text-anchor="start" x="341" y="-106" font-family="Helvetica,sans-Serif" font-size="10.00" fill="#000000">openage::rng::tests</text>
<text text-anchor="middle" x="383.5" y="-95" font-family="Helvetica,sans-Serif" font-size="10.00" fill="#000000">::fill_real</text>
</a>
</g>
</g>
<!-- Node51&#45;&gt;Node52 -->
<g id="edge2" class="edge">
<title>Node51&#45;&gt;Node52</title>
<path fill="none" stroke="#191970" d="M287.516,-100.0005C302.6069,-100.4721 318.4888,-100.9684 332.8939,-101.4186"/>
<polygon fill="#191970" stroke="#191970" points="287.3273,-96.493 277.2228,-99.6788 287.1086,-103.4896 287.3273,-96.493"/>
</g>
<!-- Node54 -->
<g id="node5" class="node">
<title>Node54</title>
<g id="a_node5"><a xlink:href="../../da/daa/classopenage_1_1rng_1_1_r_n_g.xhtml#a7f8fa5c414eb4888ee638441585fdcec" target="_top" xlink:title="Returns a double in the range [min, max) ">
<polygon fill="#ffffff" stroke="#000000" points="330,-39 330,-69 437,-69 437,-39 330,-39"/>
<text text-anchor="start" x="338" y="-57" font-family="Helvetica,sans-Serif" font-size="10.00" fill="#000000">openage::rng::RNG::</text>
<text text-anchor="middle" x="383.5" y="-46" font-family="Helvetica,sans-Serif" font-size="10.00" fill="#000000">real_range</text>
</a>
</g>
</g>
<!-- Node51&#45;&gt;Node54 -->
<g id="edge4" class="edge">
<title>Node51&#45;&gt;Node54</title>
<path fill="none" stroke="#191970" d="M286.936,-80.5551C301.169,-76.641 316.1335,-72.5258 329.919,-68.7348"/>
<polygon fill="#191970" stroke="#191970" points="285.9368,-77.1999 277.2228,-83.2262 287.7929,-83.9493 285.9368,-77.1999"/>
</g>
<!-- Node53 -->
<g id="node4" class="node">
<title>Node53</title>
<g id="a_node4"><a xlink:href="../../d8/d8d/namespaceopenage_1_1rng_1_1tests.xhtml#ae22d2c6364226e0169f0eed1c9701592" target="_top" xlink:title="openage::rng::tests::run">
<polygon fill="#ffffff" stroke="#000000" points="482,-93.5 482,-112.5 602,-112.5 602,-93.5 482,-93.5"/>
<text text-anchor="middle" x="542" y="-100.5" font-family="Helvetica,sans-Serif" font-size="10.00" fill="#000000">openage::rng::tests::run</text>
</a>
</g>
</g>
<!-- Node52&#45;&gt;Node53 -->
<g id="edge3" class="edge">
<title>Node52&#45;&gt;Node53</title>
<path fill="none" stroke="#191970" d="M444.2803,-103C456.6272,-103 469.6075,-103 481.9296,-103"/>
<polygon fill="#191970" stroke="#191970" points="444.0862,-99.5001 434.0862,-103 444.0861,-106.5001 444.0862,-99.5001"/>
</g>
<!-- Node55 -->
<g id="node6" class="node">
<title>Node55</title>
<g id="a_node6"><a xlink:href="../../d8/d88/namespaceopenage_1_1rng.xhtml#a459eb99bb9ad49587a1cbb0bb3de8750" target="_top" xlink:title="Returns a double in [lower, upper) from the global rng. ">
<polygon fill="#ffffff" stroke="#000000" points="494.5,-39 494.5,-69 589.5,-69 589.5,-39 494.5,-39"/>
<text text-anchor="start" x="502.5" y="-57" font-family="Helvetica,sans-Serif" font-size="10.00" fill="#000000">openage::rng::real</text>
<text text-anchor="middle" x="542" y="-46" font-family="Helvetica,sans-Serif" font-size="10.00" fill="#000000">_range</text>
</a>
</g>
</g>
<!-- Node54&#45;&gt;Node55 -->
<g id="edge5" class="edge">
<title>Node54&#45;&gt;Node55</title>
<path fill="none" stroke="#191970" d="M447.3086,-54C462.9756,-54 479.4801,-54 494.2433,-54"/>
<polygon fill="#191970" stroke="#191970" points="447.1609,-50.5001 437.1609,-54 447.1608,-57.5001 447.1609,-50.5001"/>
</g>
<!-- Node57 -->
<g id="node8" class="node">
<title>Node57</title>
<g id="a_node8"><a xlink:href="../../d8/d06/classopenage_1_1_action_mode.xhtml#a43f98279255b857ee8fa9943117271e8" target="_top" xlink:title="Called after GameControl has been set by QML from set_game_control. ">
<polygon fill="#ffffff" stroke="#000000" points="325.5,-176 325.5,-206 441.5,-206 441.5,-176 325.5,-176"/>
<text text-anchor="start" x="333.5" y="-194" font-family="Helvetica,sans-Serif" font-size="10.00" fill="#000000">openage::ActionMode</text>
<text text-anchor="middle" x="383.5" y="-183" font-family="Helvetica,sans-Serif" font-size="10.00" fill="#000000">::on_game_control_set</text>
</a>
</g>
</g>
<!-- Node56&#45;&gt;Node57 -->
<g id="edge7" class="edge">
<title>Node56&#45;&gt;Node57</title>
<path fill="none" stroke="#191970" d="M287.1271,-164.4974C300.928,-168.2927 315.408,-172.2747 328.8278,-175.9651"/>
<polygon fill="#191970" stroke="#191970" points="287.7929,-161.0507 277.2228,-161.7738 285.9368,-167.8001 287.7929,-161.0507"/>
</g>
<!-- Node58 -->
<g id="node9" class="node">
<title>Node58</title>
<g id="a_node9"><a xlink:href="../../d1/d80/classopenage_1_1_region.xhtml#aab907d7f645bc78647dd204ba136b5d4" target="_top" xlink:title="find a group of tiles inside this region, number is the number of tiles to be contained in the subset...">
<polygon fill="#ffffff" stroke="#000000" points="321,-137.5 321,-156.5 446,-156.5 446,-137.5 321,-137.5"/>
<text text-anchor="middle" x="383.5" y="-144.5" font-family="Helvetica,sans-Serif" font-size="10.00" fill="#000000">openage::Region::subset</text>
</a>
</g>
</g>
<!-- Node56&#45;&gt;Node58 -->
<g id="edge8" class="edge">
<title>Node56&#45;&gt;Node58</title>
<path fill="none" stroke="#191970" d="M287.2259,-147C298.2786,-147 309.764,-147 320.7893,-147"/>
<polygon fill="#191970" stroke="#191970" points="287.2228,-143.5001 277.2228,-147 287.2227,-150.5001 287.2228,-143.5001"/>
</g>
<!-- Node59 -->
<g id="node10" class="node">
<title>Node59</title>
<g id="a_node10"><a xlink:href="../../d1/d80/classopenage_1_1_region.xhtml#a268c678dfa97caf1cd17b632ca74de40" target="_top" xlink:title="removes the given set of tiles from this region, which get split of as a new child region ...">
<polygon fill="#ffffff" stroke="#000000" points="484.5,-132 484.5,-162 599.5,-162 599.5,-132 484.5,-132"/>
<text text-anchor="start" x="492.5" y="-150" font-family="Helvetica,sans-Serif" font-size="10.00" fill="#000000">openage::Region::take</text>
<text text-anchor="middle" x="542" y="-139" font-family="Helvetica,sans-Serif" font-size="10.00" fill="#000000">_tiles</text>
</a>
</g>
</g>
<!-- Node58&#45;&gt;Node59 -->
<g id="edge9" class="edge">
<title>Node58&#45;&gt;Node59</title>
<path fill="none" stroke="#191970" d="M456.3099,-147C465.7469,-147 475.3065,-147 484.4487,-147"/>
<polygon fill="#191970" stroke="#191970" points="456.1434,-143.5001 446.1434,-147 456.1434,-150.5001 456.1434,-143.5001"/>
</g>
<!-- Node60 -->
<g id="node11" class="node">
<title>Node60</title>
<g id="a_node11"><a xlink:href="../../dd/d78/classopenage_1_1_generator.xhtml#ae221973cf4125fbf62af6f9626609b4a" target="_top" xlink:title="openage::Generator\l::create_regions">
<polygon fill="#ffffff" stroke="#000000" points="789,-132 789,-162 891,-162 891,-132 789,-132"/>
<text text-anchor="start" x="797" y="-150" font-family="Helvetica,sans-Serif" font-size="10.00" fill="#000000">openage::Generator</text>
<text text-anchor="middle" x="840" y="-139" font-family="Helvetica,sans-Serif" font-size="10.00" fill="#000000">::create_regions</text>
</a>
</g>
</g>
<!-- Node59&#45;&gt;Node60 -->
<g id="edge10" class="edge">
<title>Node59&#45;&gt;Node60</title>
<path fill="none" stroke="#191970" d="M609.8049,-148.5888C619.2735,-148.7593 628.88,-148.905 638,-149 689.1083,-149.5323 701.8923,-149.5874 753,-149 764.6325,-148.8663 777.1382,-148.6321 788.9394,-148.3699"/>
<polygon fill="#191970" stroke="#191970" points="609.6789,-145.0859 599.6142,-148.3954 609.546,-152.0846 609.6789,-145.0859"/>
</g>
<!-- Node62 -->
<g id="node13" class="node">
<title>Node62</title>
<g id="a_node13"><a xlink:href="../../d1/d80/classopenage_1_1_region.xhtml#a365efd8b6f0199a7cb270af90291a662" target="_top" xlink:title="similiar to take_tiles, but takes a random group of tiles ">
<polygon fill="#ffffff" stroke="#000000" points="638,-110 638,-140 753,-140 753,-110 638,-110"/>
<text text-anchor="start" x="646" y="-128" font-family="Helvetica,sans-Serif" font-size="10.00" fill="#000000">openage::Region::take</text>
<text text-anchor="middle" x="695.5" y="-117" font-family="Helvetica,sans-Serif" font-size="10.00" fill="#000000">_random</text>
</a>
</g>
</g>
<!-- Node59&#45;&gt;Node62 -->
<g id="edge12" class="edge">
<title>Node59&#45;&gt;Node62</title>
<path fill="none" stroke="#191970" d="M609.686,-137.2991C619.0775,-135.9531 628.6525,-134.5807 637.8381,-133.2642"/>
<polygon fill="#191970" stroke="#191970" points="608.9967,-133.862 599.5945,-138.7454 609.9899,-140.7912 608.9967,-133.862"/>
</g>
<!-- Node61 -->
<g id="node12" class="node">
<title>Node61</title>
<g id="a_node12"><a xlink:href="../../dd/d78/classopenage_1_1_generator.xhtml#ab7579f771b73612867f7d07482e0a540" target="_top" xlink:title="Create a game from a specification. ">
<polygon fill="#ffffff" stroke="#000000" points="927,-132 927,-162 1029,-162 1029,-132 927,-132"/>
<text text-anchor="start" x="935" y="-150" font-family="Helvetica,sans-Serif" font-size="10.00" fill="#000000">openage::Generator</text>
<text text-anchor="middle" x="978" y="-139" font-family="Helvetica,sans-Serif" font-size="10.00" fill="#000000">::create</text>
</a>
</g>
</g>
<!-- Node60&#45;&gt;Node61 -->
<g id="edge11" class="edge">
<title>Node60&#45;&gt;Node61</title>
<path fill="none" stroke="#191970" d="M901.4957,-147C909.872,-147 918.3977,-147 926.571,-147"/>
<polygon fill="#191970" stroke="#191970" points="901.3861,-143.5001 891.3861,-147 901.3861,-150.5001 901.3861,-143.5001"/>
</g>
<!-- Node62&#45;&gt;Node60 -->
<g id="edge13" class="edge">
<title>Node62&#45;&gt;Node60</title>
<path fill="none" stroke="#191970" d="M763.0867,-135.29C771.7176,-136.6041 780.4375,-137.9317 788.7512,-139.1974"/>
<polygon fill="#191970" stroke="#191970" points="763.4383,-131.8033 753.0254,-133.7582 762.3847,-138.7236 763.4383,-131.8033"/>
</g>
<!-- Node63&#45;&gt;Node54 -->
<g id="edge16" class="edge">
<title>Node63&#45;&gt;Node54</title>
<path fill="none" stroke="#191970" d="M295.4496,-54C307.0254,-54 318.8282,-54 329.8755,-54"/>
<polygon fill="#191970" stroke="#191970" points="295.3602,-50.5001 285.3602,-54 295.3601,-57.5001 295.3602,-50.5001"/>
</g>
<!-- Node64 -->
<g id="node15" class="node">
<title>Node64</title>
<g id="a_node15"><a xlink:href="../../d8/d88/namespaceopenage_1_1rng.xhtml#aadfcdd4f8b418047382e29828d81b157" target="_top" xlink:title="Returns a double in [0, 1) from the global rng. ">
<polygon fill="#ffffff" stroke="#000000" points="336,-.5 336,-19.5 431,-19.5 431,-.5 336,-.5"/>
<text text-anchor="middle" x="383.5" y="-7.5" font-family="Helvetica,sans-Serif" font-size="10.00" fill="#000000">openage::rng::real</text>
</a>
</g>
</g>
<!-- Node63&#45;&gt;Node64 -->
<g id="edge15" class="edge">
<title>Node63&#45;&gt;Node64</title>
<path fill="none" stroke="#191970" d="M268.0376,-41.7522C293.5815,-34.7276 325.1729,-26.04 348.8501,-19.5287"/>
<polygon fill="#191970" stroke="#191970" points="266.9316,-38.4263 258.2176,-44.4527 268.7877,-45.1757 266.9316,-38.4263"/>
</g>
</g>
</svg>
        <g id="navigator" transform="translate(0 0)" fill="#404254">
                <rect fill="#f2f5e9" fill-opacity="0.5" stroke="#606060" stroke-width=".5" x="0" y="0" width="60" height="60"/>
                <use id="zoomplus" xlink:href="#zoomPlus" x="17" y="9" onmousedown="handleZoom(evt,'in')"/>
                <use id="zoomminus" xlink:href="#zoomMin" x="42" y="9" onmousedown="handleZoom(evt,'out')"/>
                <use id="reset" xlink:href="#resetDef" x="30" y="36" onmousedown="handleReset()"/>
                <g id="arrowUp" xlink:href="#dirArrow" transform="translate(30 24)" onmousedown="handlePan(0,-1)">
                  <use xlink:href="#rim" fill="#404040">
                        <set attributeName="fill" to="#808080" begin="arrowUp.mouseover" end="arrowUp.mouseout"/>
                  </use>
                  <path fill="none" stroke="white" stroke-width="1.5" d="M0,-3.0v7 M-2.5,-0.5L0,-3.0L2.5,-0.5"/>
                </g>
                <g id="arrowRight" xlink:href="#dirArrow" transform="rotate(90) translate(36 -43)" onmousedown="handlePan(1,0)">
                  <use xlink:href="#rim" fill="#404040">
                        <set attributeName="fill" to="#808080" begin="arrowRight.mouseover" end="arrowRight.mouseout"/>
                  </use>
                  <path fill="none" stroke="white" stroke-width="1.5" d="M0,-3.0v7 M-2.5,-0.5L0,-3.0L2.5,-0.5"/>
                </g>
                <g id="arrowDown" xlink:href="#dirArrow" transform="rotate(180) translate(-30 -48)" onmousedown="handlePan(0,1)">
                  <use xlink:href="#rim" fill="#404040">
                        <set attributeName="fill" to="#808080" begin="arrowDown.mouseover" end="arrowDown.mouseout"/>
                  </use>
                  <path fill="none" stroke="white" stroke-width="1.5" d="M0,-3.0v7 M-2.5,-0.5L0,-3.0L2.5,-0.5"/>
                </g>
                <g id="arrowLeft" xlink:href="#dirArrow" transform="rotate(270) translate(-36 17)" onmousedown="handlePan(-1,0)">
                  <use xlink:href="#rim" fill="#404040">
                        <set attributeName="fill" to="#808080" begin="arrowLeft.mouseover" end="arrowLeft.mouseout"/>
                  </use>
                  <path fill="none" stroke="white" stroke-width="1.5" d="M0,-3.0v7 M-2.5,-0.5L0,-3.0L2.5,-0.5"/>
                </g>
        </g>
        <svg viewBox="0 0 15 15" width="100%" height="30px" preserveAspectRatio="xMaxYMin meet">
         <g id="arrow_out" transform="scale(0.3 0.3)">
          <a xlink:href="classopenage_1_1rng_1_1_r_n_g_accd55f47ffd4049900e96f032f0a9375_icgraph_org.svg" target="_base">
           <rect id="button" ry="5" rx="5" y="6" x="6" height="38" width="38"
                fill="#f2f5e9" fill-opacity="0.5" stroke="#606060" stroke-width="1.0"/>
           <path id="arrow"
             d="M 11.500037,31.436501 C 11.940474,20.09759 22.043105,11.32322 32.158766,21.979434 L 37.068811,17.246167 C 37.068811,17.246167 37.088388,32 37.088388,32 L 22.160133,31.978069 C 22.160133,31.978069 26.997745,27.140456 26.997745,27.140456 C 18.528582,18.264221 13.291696,25.230495 11.500037,31.436501 z"
             style="fill:#404040;"/>
          </a>
         </g>
        </svg>
</svg>
