<?xml version="1.0" encoding="UTF-8" standalone="no"?>
<!DOCTYPE svg PUBLIC "-//W3C//DTD SVG 1.1//EN"
 "http://www.w3.org/Graphics/SVG/1.1/DTD/svg11.dtd">
<!-- Generated by graphviz version 2.40.1 (20161225.0304)
 -->
<!-- Title: openage::rng::RNG::discard Pages: 1 -->
<svg width="410pt" height="78pt"
 viewBox="0.00 0.00 410.00 77.50" xmlns="http://www.w3.org/2000/svg" xmlns:xlink="http://www.w3.org/1999/xlink">
<g id="graph0" class="graph" transform="scale(1 1) rotate(0) translate(4 73.5)">
<title>openage::rng::RNG::discard</title>
<polygon fill="#ffffff" stroke="transparent" points="-4,4 -4,-73.5 406,-73.5 406,4 -4,4"/>
<!-- Node15 -->
<g id="node1" class="node">
<title>Node15</title>
<polygon fill="#bfbfbf" stroke="#000000" points="0,-17 0,-47 107,-47 107,-17 0,-17"/>
<text text-anchor="start" x="8" y="-35" font-family="Helvetica,sans-Serif" font-size="10.00" fill="#000000">openage::rng::RNG::</text>
<text text-anchor="middle" x="53.5" y="-24" font-family="Helvetica,sans-Serif" font-size="10.00" fill="#000000">discard</text>
</g>
<!-- Node16 -->
<g id="node2" class="node">
<title>Node16</title>
<g id="a_node2"><a xlink:href="../../da/daa/classopenage_1_1rng_1_1_r_n_g.xhtml#a7f8fa5c414eb4888ee638441585fdcec" target="_top" xlink:title="Returns a double in the range [min, max) ">
<polygon fill="#ffffff" stroke="#000000" points="153.5,-39 153.5,-69 260.5,-69 260.5,-39 153.5,-39"/>
<text text-anchor="start" x="161.5" y="-57" font-family="Helvetica,sans-Serif" font-size="10.00" fill="#000000">openage::rng::RNG::</text>
<text text-anchor="middle" x="207" y="-46" font-family="Helvetica,sans-Serif" font-size="10.00" fill="#000000">real_range</text>
</a>
</g>
</g>
<!-- Node15&#45;&gt;Node16 -->
<g id="edge1" class="edge">
<title>Node15&#45;&gt;Node16</title>
<path fill="none" stroke="#191970" d="M117.1601,-41.1239C129.189,-42.8479 141.6599,-44.6353 153.3435,-46.3098"/>
<polygon fill="#191970" stroke="#191970" points="117.5823,-37.6487 107.1869,-39.6945 116.5891,-44.5779 117.5823,-37.6487"/>
</g>
<!-- Node18 -->
<g id="node4" class="node">
<title>Node18</title>
<g id="a_node4"><a xlink:href="../../da/daa/classopenage_1_1rng_1_1_r_n_g.xhtml#a196e215960939e55ac626c9c75a451e0" target="_top" xlink:title="Initializes the rng using bits from the buffer pointed to by data. ">
<polygon fill="#ffffff" stroke="#000000" points="143,-.5 143,-19.5 271,-19.5 271,-.5 143,-.5"/>
<text text-anchor="middle" x="207" y="-7.5" font-family="Helvetica,sans-Serif" font-size="10.00" fill="#000000">openage::rng::RNG::seed</text>
</a>
</g>
</g>
<!-- Node15&#45;&gt;Node18 -->
<g id="edge3" class="edge">
<title>Node15&#45;&gt;Node18</title>
<path fill="none" stroke="#191970" d="M117.3208,-22.853C125.7388,-21.6465 134.3706,-20.4094 142.7951,-19.202"/>
<polygon fill="#191970" stroke="#191970" points="116.5891,-19.4221 107.1869,-24.3055 117.5823,-26.3513 116.5891,-19.4221"/>
</g>
<!-- Node17 -->
<g id="node3" class="node">
<title>Node17</title>
<g id="a_node3"><a xlink:href="../../d8/d88/namespaceopenage_1_1rng.xhtml#a459eb99bb9ad49587a1cbb0bb3de8750" target="_top" xlink:title="Returns a double in [lower, upper) from the global rng. ">
<polygon fill="#ffffff" stroke="#000000" points="307,-39 307,-69 402,-69 402,-39 307,-39"/>
<text text-anchor="start" x="315" y="-57" font-family="Helvetica,sans-Serif" font-size="10.00" fill="#000000">openage::rng::real</text>
<text text-anchor="middle" x="354.5" y="-46" font-family="Helvetica,sans-Serif" font-size="10.00" fill="#000000">_range</text>
</a>
</g>
</g>
<!-- Node16&#45;&gt;Node17 -->
<g id="edge2" class="edge">
<title>Node16&#45;&gt;Node17</title>
<path fill="none" stroke="#191970" d="M270.7606,-54C282.9139,-54 295.436,-54 306.9737,-54"/>
<polygon fill="#191970" stroke="#191970" points="270.6682,-50.5001 260.6681,-54 270.6681,-57.5001 270.6682,-50.5001"/>
</g>
</g>
</svg>
