<?xml version="1.0" encoding="UTF-8" standalone="no"?>
<!DOCTYPE svg PUBLIC "-//W3C//DTD SVG 1.1//EN"
 "http://www.w3.org/Graphics/SVG/1.1/DTD/svg11.dtd">
<!-- Generated by graphviz version 2.40.1 (20161225.0304)
 -->
<!-- Title: openage::Score::get_score Pages: 1 -->
<!--zoomable 176 -->
<svg id="main" version="1.1" xmlns="http://www.w3.org/2000/svg" xmlns:xlink="http://www.w3.org/1999/xlink" xml:space="preserve" onload="init(evt)">
<style type="text/css"><![CDATA[
.edge:hover path { stroke: red; }
.edge:hover polygon { stroke: red; fill: red; }
]]></style>
<script type="text/javascript"><![CDATA[
var edges = document.getElementsByTagName('g');
if (edges && edges.length) {
  for (var i=0;i<edges.length;i++) {
    if (edges[i].id.substr(0,4)=='edge') {
      edges[i].setAttribute('class','edge');
    }
  }
}
]]></script>
        <defs>
                <circle id="rim" cx="0" cy="0" r="7"/>
                <circle id="rim2" cx="0" cy="0" r="3.5"/>
                <g id="zoomPlus">
                        <use xlink:href="#rim" fill="#404040">
                                <set attributeName="fill" to="#808080" begin="zoomplus.mouseover" end="zoomplus.mouseout"/>
                        </use>
                        <path d="M-4,0h8M0,-4v8" fill="none" stroke="white" stroke-width="1.5" pointer-events="none"/>
                </g>
                <g id="zoomMin">
                        <use xlink:href="#rim" fill="#404040">
                                <set attributeName="fill" to="#808080" begin="zoomminus.mouseover" end="zoomminus.mouseout"/>
                        </use>
                        <path d="M-4,0h8" fill="none" stroke="white" stroke-width="1.5" pointer-events="none"/>
                </g>
                <g id="dirArrow">
                        <path fill="none" stroke="white" stroke-width="1.5" d="M0,-3.0v7 M-2.5,-0.5L0,-3.0L2.5,-0.5"/>
                </g>
               <g id="resetDef">
                       <use xlink:href="#rim2" fill="#404040">
                               <set attributeName="fill" to="#808080" begin="reset.mouseover" end="reset.mouseout"/>
                       </use>
               </g>
        </defs>

<script type="text/javascript">
var viewWidth = 576;
var viewHeight = 176;
var sectionId = 'dynsection-4';
</script>
<script xlink:href="../../svgpan.js"/>
<svg id="graph" class="graph">
<g id="viewport">
<title>openage::Score::get_score</title>
<polygon fill="#ffffff" stroke="transparent" points="-4,4 -4,-172 572,-172 572,4 -4,4"/>
<!-- Node21 -->
<g id="node1" class="node">
<title>Node21</title>
<polygon fill="#bfbfbf" stroke="#000000" points="0,-66.5 0,-96.5 104,-96.5 104,-66.5 0,-66.5"/>
<text text-anchor="start" x="8" y="-84.5" font-family="Helvetica,sans-Serif" font-size="10.00" fill="#000000">openage::Score::get</text>
<text text-anchor="middle" x="52" y="-73.5" font-family="Helvetica,sans-Serif" font-size="10.00" fill="#000000">_score</text>
</g>
<!-- Node22 -->
<g id="node2" class="node">
<title>Node22</title>
<g id="a_node2"><a xlink:href="../../d8/dd7/classopenage_1_1_score.xhtml#ad71b795068636d35bd174acde2e080fd" target="_top" xlink:title="Calculates the total score from the sub&#45;scores. ">
<polygon fill="#ffffff" stroke="#000000" points="140,-66.5 140,-96.5 260,-96.5 260,-66.5 140,-66.5"/>
<text text-anchor="start" x="148" y="-84.5" font-family="Helvetica,sans-Serif" font-size="10.00" fill="#000000">openage::Score::update</text>
<text text-anchor="middle" x="200" y="-73.5" font-family="Helvetica,sans-Serif" font-size="10.00" fill="#000000">_score</text>
</a>
</g>
</g>
<!-- Node21&#45;&gt;Node22 -->
<g id="edge1" class="edge">
<title>Node21&#45;&gt;Node22</title>
<path fill="none" stroke="#191970" d="M114.3759,-81.5C122.8453,-81.5 131.523,-81.5 139.9503,-81.5"/>
<polygon fill="#191970" stroke="#191970" points="114.1793,-78.0001 104.1793,-81.5 114.1792,-85.0001 114.1793,-78.0001"/>
</g>
<!-- Node23 -->
<g id="node3" class="node">
<title>Node23</title>
<g id="a_node3"><a xlink:href="../../d8/dd7/classopenage_1_1_score.xhtml#aeac024481d04808435d7a31fa3eb2d0e" target="_top" xlink:title="openage::Score::add\l_score">
<polygon fill="#ffffff" stroke="#000000" points="304,-137.5 304,-167.5 411,-167.5 411,-137.5 304,-137.5"/>
<text text-anchor="start" x="312" y="-155.5" font-family="Helvetica,sans-Serif" font-size="10.00" fill="#000000">openage::Score::add</text>
<text text-anchor="middle" x="357.5" y="-144.5" font-family="Helvetica,sans-Serif" font-size="10.00" fill="#000000">_score</text>
</a>
</g>
</g>
<!-- Node22&#45;&gt;Node23 -->
<g id="edge2" class="edge">
<title>Node22&#45;&gt;Node23</title>
<path fill="none" stroke="#191970" d="M238.3967,-101.2071C255.8216,-109.9144 276.7888,-120.0662 296,-128.5 302.9264,-131.5407 310.3691,-134.6088 317.6015,-137.488"/>
<polygon fill="#191970" stroke="#191970" points="239.6206,-97.905 229.1143,-96.5385 236.4753,-104.1586 239.6206,-97.905"/>
</g>
<!-- Node24 -->
<g id="node4" class="node">
<title>Node24</title>
<g id="a_node4"><a xlink:href="../../d8/dd7/classopenage_1_1_score.xhtml#aa5c379cb015205d10950f61b40a51f10" target="_top" xlink:title="openage::Score::remove\l_score">
<polygon fill="#ffffff" stroke="#000000" points="296,-88.5 296,-118.5 419,-118.5 419,-88.5 296,-88.5"/>
<text text-anchor="start" x="304" y="-106.5" font-family="Helvetica,sans-Serif" font-size="10.00" fill="#000000">openage::Score::remove</text>
<text text-anchor="middle" x="357.5" y="-95.5" font-family="Helvetica,sans-Serif" font-size="10.00" fill="#000000">_score</text>
</a>
</g>
</g>
<!-- Node22&#45;&gt;Node24 -->
<g id="edge3" class="edge">
<title>Node22&#45;&gt;Node24</title>
<path fill="none" stroke="#191970" d="M270.3607,-91.3282C278.8816,-92.5184 287.5349,-93.7271 295.9156,-94.8977"/>
<polygon fill="#191970" stroke="#191970" points="270.8312,-87.86 260.4432,-89.9429 269.8628,-94.7927 270.8312,-87.86"/>
</g>
<!-- Node25 -->
<g id="node5" class="node">
<title>Node25</title>
<g id="a_node5"><a xlink:href="../../d8/de3/classopenage_1_1_player_score.xhtml#a335bfe5e296ab4563b6689a8cacca562" target="_top" xlink:title="Calculates the total score from the sub&#45;scores. ">
<polygon fill="#ffffff" stroke="#000000" points="455,-22.5 455,-52.5 568,-52.5 568,-22.5 455,-22.5"/>
<text text-anchor="start" x="463" y="-40.5" font-family="Helvetica,sans-Serif" font-size="10.00" fill="#000000">openage::PlayerScore</text>
<text text-anchor="middle" x="511.5" y="-29.5" font-family="Helvetica,sans-Serif" font-size="10.00" fill="#000000">::update_score</text>
</a>
</g>
</g>
<!-- Node22&#45;&gt;Node25 -->
<g id="edge4" class="edge">
<title>Node22&#45;&gt;Node25</title>
<path fill="none" stroke="#191970" d="M270.2114,-71.5825C325.9546,-63.7087 402.8889,-52.8415 454.7735,-45.5127"/>
<polygon fill="#191970" stroke="#191970" points="269.4725,-68.152 260.0603,-73.0164 270.4516,-75.0832 269.4725,-68.152"/>
</g>
<!-- Node26 -->
<g id="node6" class="node">
<title>Node26</title>
<g id="a_node6"><a xlink:href="../../d4/db7/classopenage_1_1_team_score.xhtml#ad1af15c7921ffc8ffc57c04b3c8084ff" target="_top" xlink:title="Calculates the total score from the sub&#45;scores. ">
<polygon fill="#ffffff" stroke="#000000" points="302.5,-.5 302.5,-30.5 412.5,-30.5 412.5,-.5 302.5,-.5"/>
<text text-anchor="start" x="310.5" y="-18.5" font-family="Helvetica,sans-Serif" font-size="10.00" fill="#000000">openage::TeamScore</text>
<text text-anchor="middle" x="357.5" y="-7.5" font-family="Helvetica,sans-Serif" font-size="10.00" fill="#000000">::update_score</text>
</a>
</g>
</g>
<!-- Node22&#45;&gt;Node26 -->
<g id="edge5" class="edge">
<title>Node22&#45;&gt;Node26</title>
<path fill="none" stroke="#191970" d="M245.4643,-62.4483C269.6455,-52.3152 298.9581,-40.0318 321.5345,-30.5713"/>
<polygon fill="#191970" stroke="#191970" points="244.0039,-59.2653 236.1337,-66.3583 246.7094,-65.7214 244.0039,-59.2653"/>
</g>
<!-- Node26&#45;&gt;Node25 -->
<g id="edge6" class="edge">
<title>Node26&#45;&gt;Node25</title>
<path fill="none" stroke="#191970" d="M422.7827,-24.8261C433.4655,-26.3522 444.4565,-27.9224 454.9069,-29.4153"/>
<polygon fill="#191970" stroke="#191970" points="423.0571,-21.3298 412.6626,-23.3804 422.067,-28.2595 423.0571,-21.3298"/>
</g>
</g>
</svg>
        <g id="navigator" transform="translate(0 0)" fill="#404254">
                <rect fill="#f2f5e9" fill-opacity="0.5" stroke="#606060" stroke-width=".5" x="0" y="0" width="60" height="60"/>
                <use id="zoomplus" xlink:href="#zoomPlus" x="17" y="9" onmousedown="handleZoom(evt,'in')"/>
                <use id="zoomminus" xlink:href="#zoomMin" x="42" y="9" onmousedown="handleZoom(evt,'out')"/>
                <use id="reset" xlink:href="#resetDef" x="30" y="36" onmousedown="handleReset()"/>
                <g id="arrowUp" xlink:href="#dirArrow" transform="translate(30 24)" onmousedown="handlePan(0,-1)">
                  <use xlink:href="#rim" fill="#404040">
                        <set attributeName="fill" to="#808080" begin="arrowUp.mouseover" end="arrowUp.mouseout"/>
                  </use>
                  <path fill="none" stroke="white" stroke-width="1.5" d="M0,-3.0v7 M-2.5,-0.5L0,-3.0L2.5,-0.5"/>
                </g>
                <g id="arrowRight" xlink:href="#dirArrow" transform="rotate(90) translate(36 -43)" onmousedown="handlePan(1,0)">
                  <use xlink:href="#rim" fill="#404040">
                        <set attributeName="fill" to="#808080" begin="arrowRight.mouseover" end="arrowRight.mouseout"/>
                  </use>
                  <path fill="none" stroke="white" stroke-width="1.5" d="M0,-3.0v7 M-2.5,-0.5L0,-3.0L2.5,-0.5"/>
                </g>
                <g id="arrowDown" xlink:href="#dirArrow" transform="rotate(180) translate(-30 -48)" onmousedown="handlePan(0,1)">
                  <use xlink:href="#rim" fill="#404040">
                        <set attributeName="fill" to="#808080" begin="arrowDown.mouseover" end="arrowDown.mouseout"/>
                  </use>
                  <path fill="none" stroke="white" stroke-width="1.5" d="M0,-3.0v7 M-2.5,-0.5L0,-3.0L2.5,-0.5"/>
                </g>
                <g id="arrowLeft" xlink:href="#dirArrow" transform="rotate(270) translate(-36 17)" onmousedown="handlePan(-1,0)">
                  <use xlink:href="#rim" fill="#404040">
                        <set attributeName="fill" to="#808080" begin="arrowLeft.mouseover" end="arrowLeft.mouseout"/>
                  </use>
                  <path fill="none" stroke="white" stroke-width="1.5" d="M0,-3.0v7 M-2.5,-0.5L0,-3.0L2.5,-0.5"/>
                </g>
        </g>
        <svg viewBox="0 0 15 15" width="100%" height="30px" preserveAspectRatio="xMaxYMin meet">
         <g id="arrow_out" transform="scale(0.3 0.3)">
          <a xlink:href="classopenage_1_1_score_a544fc32ebabe81bb0122dcd4ea9c7931_icgraph_org.svg" target="_base">
           <rect id="button" ry="5" rx="5" y="6" x="6" height="38" width="38"
                fill="#f2f5e9" fill-opacity="0.5" stroke="#606060" stroke-width="1.0"/>
           <path id="arrow"
             d="M 11.500037,31.436501 C 11.940474,20.09759 22.043105,11.32322 32.158766,21.979434 L 37.068811,17.246167 C 37.068811,17.246167 37.088388,32 37.088388,32 L 22.160133,31.978069 C 22.160133,31.978069 26.997745,27.140456 26.997745,27.140456 C 18.528582,18.264221 13.291696,25.230495 11.500037,31.436501 z"
             style="fill:#404040;"/>
          </a>
         </g>
        </svg>
</svg>
