<?xml version="1.0" encoding="UTF-8" standalone="no"?>
<!DOCTYPE svg PUBLIC "-//W3C//DTD SVG 1.1//EN"
 "http://www.w3.org/Graphics/SVG/1.1/DTD/svg11.dtd">
<!-- Generated by graphviz version 2.40.1 (20161225.0304)
 -->
<!-- Title: /mnt/c/Users/Jameson/Desktop/git/openage&#45;new&#45;doc&#45;system/libopenage/renderer/font/font.cpp Pages: 1 -->
<svg width="1179pt" height="565pt"
 viewBox="0.00 0.00 1178.50 565.45" xmlns="http://www.w3.org/2000/svg" xmlns:xlink="http://www.w3.org/1999/xlink">
<g id="graph0" class="graph" transform="scale(1 1) rotate(0) translate(4 561.4516)">
<title>/mnt/c/Users/Jameson/Desktop/git/openage&#45;new&#45;doc&#45;system/libopenage/renderer/font/font.cpp</title>
<polygon fill="#ffffff" stroke="transparent" points="-4,4 -4,-561.4516 1174.5,-561.4516 1174.5,4 -4,4"/>
<!-- Node0 -->
<g id="node1" class="node">
<title>Node0</title>
<polygon fill="#bfbfbf" stroke="#000000" points="721.5,-504.9516 721.5,-556.9516 862.5,-556.9516 862.5,-504.9516 721.5,-504.9516"/>
<text text-anchor="start" x="729.5" y="-544.9516" font-family="Helvetica,sans-Serif" font-size="10.00" fill="#000000">/mnt/c/Users/Jameson</text>
<text text-anchor="start" x="729.5" y="-533.9516" font-family="Helvetica,sans-Serif" font-size="10.00" fill="#000000">/Desktop/git/openage</text>
<text text-anchor="start" x="729.5" y="-522.9516" font-family="Helvetica,sans-Serif" font-size="10.00" fill="#000000">&#45;new&#45;doc&#45;system/libopenage</text>
<text text-anchor="middle" x="792" y="-511.9516" font-family="Helvetica,sans-Serif" font-size="10.00" fill="#000000">/renderer/font/font.cpp</text>
</g>
<!-- Node1 -->
<g id="node2" class="node">
<title>Node1</title>
<g id="a_node2"><a xlink:href="../../d9/d67/font_8h.xhtml" target="_top" xlink:title="font.h">
<polygon fill="#ffffff" stroke="#000000" points="552.5,-448.9516 552.5,-467.9516 593.5,-467.9516 593.5,-448.9516 552.5,-448.9516"/>
<text text-anchor="middle" x="573" y="-455.9516" font-family="Helvetica,sans-Serif" font-size="10.00" fill="#000000">font.h</text>
</a>
</g>
</g>
<!-- Node0&#45;&gt;Node1 -->
<g id="edge1" class="edge">
<title>Node0&#45;&gt;Node1</title>
<path fill="none" stroke="#191970" d="M721.1994,-507.5131C681.4535,-494.3552 633.9009,-478.6129 603.5771,-468.5742"/>
<polygon fill="#191970" stroke="#191970" points="604.5834,-465.2206 593.9901,-465.4004 602.3834,-471.8659 604.5834,-465.2206"/>
</g>
<!-- Node10 -->
<g id="node11" class="node">
<title>Node10</title>
<polygon fill="#ffffff" stroke="#bfbfbf" points="500,-336.9516 500,-355.9516 556,-355.9516 556,-336.9516 500,-336.9516"/>
<text text-anchor="middle" x="528" y="-343.9516" font-family="Helvetica,sans-Serif" font-size="10.00" fill="#000000">ft2build.h</text>
</g>
<!-- Node0&#45;&gt;Node10 -->
<g id="edge56" class="edge">
<title>Node0&#45;&gt;Node10</title>
<path fill="none" stroke="#191970" d="M754.7352,-504.9086C698.9038,-465.8901 595.2819,-393.4725 550.0635,-361.871"/>
<polygon fill="#191970" stroke="#191970" points="552.0317,-358.9765 541.83,-356.1169 548.0218,-364.7142 552.0317,-358.9765"/>
</g>
<!-- Node12 -->
<g id="node13" class="node">
<title>Node12</title>
<g id="a_node13"><a xlink:href="../../d7/dce/error_2error_8h.xhtml" target="_top" xlink:title="../../error/error.h">
<polygon fill="#ffffff" stroke="#000000" points="396.5,-336.9516 396.5,-355.9516 481.5,-355.9516 481.5,-336.9516 396.5,-336.9516"/>
<text text-anchor="middle" x="439" y="-343.9516" font-family="Helvetica,sans-Serif" font-size="10.00" fill="#000000">../../error/error.h</text>
</a>
</g>
</g>
<!-- Node0&#45;&gt;Node12 -->
<g id="edge59" class="edge">
<title>Node0&#45;&gt;Node12</title>
<path fill="none" stroke="#191970" d="M721.4886,-524.8884C669.0028,-517.7302 597.3446,-502.1757 543,-468.4516 500.2442,-441.9191 466.0076,-392.013 449.5825,-364.9815"/>
<polygon fill="#191970" stroke="#191970" points="452.458,-362.9681 444.3542,-356.1432 446.4332,-366.5321 452.458,-362.9681"/>
</g>
<!-- Node15 -->
<g id="node16" class="node">
<title>Node15</title>
<g id="a_node16"><a xlink:href="../../d4/dd1/compiler_8h.xhtml" target="_top" xlink:title="../util/compiler.h">
<polygon fill="#ffffff" stroke="#000000" points="898,-56.9516 898,-75.9516 984,-75.9516 984,-56.9516 898,-56.9516"/>
<text text-anchor="middle" x="941" y="-63.9516" font-family="Helvetica,sans-Serif" font-size="10.00" fill="#000000">../util/compiler.h</text>
</a>
</g>
</g>
<!-- Node0&#45;&gt;Node15 -->
<g id="edge60" class="edge">
<title>Node0&#45;&gt;Node15</title>
<path fill="none" stroke="#191970" d="M862.5395,-508.984C909.6434,-489.4277 963,-455.5553 963,-402.4516 963,-402.4516 963,-402.4516 963,-178.4516 963,-145.5648 953.754,-108.2474 947.2501,-86.0655"/>
<polygon fill="#191970" stroke="#191970" points="950.5104,-84.7576 944.2462,-76.213 943.8147,-86.7991 950.5104,-84.7576"/>
</g>
<!-- Node37 -->
<g id="node38" class="node">
<title>Node37</title>
<polygon fill="#ffffff" stroke="#bfbfbf" points="991,-448.9516 991,-467.9516 1067,-467.9516 1067,-448.9516 991,-448.9516"/>
<text text-anchor="middle" x="1029" y="-455.9516" font-family="Helvetica,sans-Serif" font-size="10.00" fill="#000000">harfbuzz/hb.h</text>
</g>
<!-- Node0&#45;&gt;Node37 -->
<g id="edge57" class="edge">
<title>Node0&#45;&gt;Node37</title>
<path fill="none" stroke="#191970" d="M862.7868,-509.2974C903.6301,-496.8032 953.5517,-481.5318 987.9626,-471.0053"/>
<polygon fill="#191970" stroke="#191970" points="989.1371,-474.3061 997.6758,-468.0339 987.0894,-467.6123 989.1371,-474.3061"/>
</g>
<!-- Node38 -->
<g id="node39" class="node">
<title>Node38</title>
<polygon fill="#ffffff" stroke="#bfbfbf" points="1085.5,-448.9516 1085.5,-467.9516 1170.5,-467.9516 1170.5,-448.9516 1085.5,-448.9516"/>
<text text-anchor="middle" x="1128" y="-455.9516" font-family="Helvetica,sans-Serif" font-size="10.00" fill="#000000">harfbuzz/hb&#45;ft.h</text>
</g>
<!-- Node0&#45;&gt;Node38 -->
<g id="edge58" class="edge">
<title>Node0&#45;&gt;Node38</title>
<path fill="none" stroke="#191970" d="M862.8464,-515.6648C926.4172,-501.9479 1018.2653,-482.1295 1075.4832,-469.7834"/>
<polygon fill="#191970" stroke="#191970" points="1076.3646,-473.1738 1085.4014,-467.6433 1074.8882,-466.3313 1076.3646,-473.1738"/>
</g>
<!-- Node2 -->
<g id="node3" class="node">
<title>Node2</title>
<polygon fill="#ffffff" stroke="#bfbfbf" points="104,-112.9516 104,-131.9516 156,-131.9516 156,-112.9516 104,-112.9516"/>
<text text-anchor="middle" x="130" y="-119.9516" font-family="Helvetica,sans-Serif" font-size="10.00" fill="#000000">memory</text>
</g>
<!-- Node1&#45;&gt;Node2 -->
<g id="edge2" class="edge">
<title>Node1&#45;&gt;Node2</title>
<path fill="none" stroke="#191970" d="M552.3552,-456.3731C454.0345,-446.2036 38,-400.0082 38,-346.4516 38,-346.4516 38,-346.4516 38,-234.4516 38,-191.9913 77.9701,-156.8458 105.219,-137.8195"/>
<polygon fill="#191970" stroke="#191970" points="107.2043,-140.7022 113.5522,-132.2196 103.3,-134.8922 107.2043,-140.7022"/>
</g>
<!-- Node3 -->
<g id="node4" class="node">
<title>Node3</title>
<polygon fill="#ffffff" stroke="#bfbfbf" points="238.5,-.9516 238.5,-19.9516 279.5,-19.9516 279.5,-.9516 238.5,-.9516"/>
<text text-anchor="middle" x="259" y="-7.9516" font-family="Helvetica,sans-Serif" font-size="10.00" fill="#000000">string</text>
</g>
<!-- Node1&#45;&gt;Node3 -->
<g id="edge3" class="edge">
<title>Node1&#45;&gt;Node3</title>
<path fill="none" stroke="#191970" d="M552.3069,-457.2118C476.8603,-452.5453 216.8016,-435.1425 137,-412.4516 71.9907,-393.9668 0,-414.0379 0,-346.4516 0,-346.4516 0,-346.4516 0,-122.4516 0,-73.1749 159.9405,-32.1811 228.449,-16.8822"/>
<polygon fill="#191970" stroke="#191970" points="229.2262,-20.295 238.2428,-14.7316 227.7248,-13.4579 229.2262,-20.295"/>
</g>
<!-- Node4 -->
<g id="node5" class="node">
<title>Node4</title>
<polygon fill="#ffffff" stroke="#bfbfbf" points="728.5,-336.9516 728.5,-355.9516 787.5,-355.9516 787.5,-336.9516 728.5,-336.9516"/>
<text text-anchor="middle" x="758" y="-343.9516" font-family="Helvetica,sans-Serif" font-size="10.00" fill="#000000">typeindex</text>
</g>
<!-- Node1&#45;&gt;Node4 -->
<g id="edge4" class="edge">
<title>Node1&#45;&gt;Node4</title>
<path fill="none" stroke="#191970" d="M593.5596,-455.3056C633.2476,-448.8362 718.3328,-432.9137 739,-412.4516 751.2889,-400.2847 755.7519,-380.7206 757.312,-366.0458"/>
<polygon fill="#191970" stroke="#191970" points="760.8096,-366.2016 758.0208,-355.9804 753.8269,-365.7098 760.8096,-366.2016"/>
</g>
<!-- Node5 -->
<g id="node6" class="node">
<title>Node5</title>
<polygon fill="#ffffff" stroke="#bfbfbf" points="456,-112.9516 456,-131.9516 500,-131.9516 500,-112.9516 456,-112.9516"/>
<text text-anchor="middle" x="478" y="-119.9516" font-family="Helvetica,sans-Serif" font-size="10.00" fill="#000000">vector</text>
</g>
<!-- Node1&#45;&gt;Node5 -->
<g id="edge5" class="edge">
<title>Node1&#45;&gt;Node5</title>
<path fill="none" stroke="#191970" d="M577.8854,-448.4918C593.5841,-414.9921 639.5848,-304.0348 602,-224.4516 582.6655,-183.5121 537.95,-153.4625 507.8428,-136.9642"/>
<polygon fill="#191970" stroke="#191970" points="509.1072,-133.6733 498.6318,-132.0871 505.8317,-139.8597 509.1072,-133.6733"/>
</g>
<!-- Node6 -->
<g id="node7" class="node">
<title>Node6</title>
<g id="a_node7"><a xlink:href="../../db/dfb/hash_8h.xhtml" target="_top" xlink:title="../../util/hash.h">
<polygon fill="#ffffff" stroke="#000000" points="650,-392.9516 650,-411.9516 730,-411.9516 730,-392.9516 650,-392.9516"/>
<text text-anchor="middle" x="690" y="-399.9516" font-family="Helvetica,sans-Serif" font-size="10.00" fill="#000000">../../util/hash.h</text>
</a>
</g>
</g>
<!-- Node1&#45;&gt;Node6 -->
<g id="edge6" class="edge">
<title>Node1&#45;&gt;Node6</title>
<path fill="none" stroke="#191970" d="M593.113,-448.8249C611.8103,-439.8757 639.8744,-426.4434 660.9934,-416.3351"/>
<polygon fill="#191970" stroke="#191970" points="662.6405,-419.4271 670.1494,-411.9528 659.6183,-413.1131 662.6405,-419.4271"/>
</g>
<!-- Node9 -->
<g id="node10" class="node">
<title>Node9</title>
<g id="a_node10"><a xlink:href="../../d7/d2f/font__manager_8h.xhtml" target="_top" xlink:title="font_manager.h">
<polygon fill="#ffffff" stroke="#000000" points="346,-392.9516 346,-411.9516 430,-411.9516 430,-392.9516 346,-392.9516"/>
<text text-anchor="middle" x="388" y="-399.9516" font-family="Helvetica,sans-Serif" font-size="10.00" fill="#000000">font_manager.h</text>
</a>
</g>
</g>
<!-- Node1&#45;&gt;Node9 -->
<g id="edge10" class="edge">
<title>Node1&#45;&gt;Node9</title>
<path fill="none" stroke="#191970" d="M552.4949,-452.2447C522.8738,-443.2783 467.4752,-426.509 429.2061,-414.9248"/>
<polygon fill="#191970" stroke="#191970" points="429.9728,-411.5001 419.3876,-411.9528 427.9447,-418.1999 429.9728,-411.5001"/>
</g>
<!-- Node6&#45;&gt;Node4 -->
<g id="edge9" class="edge">
<title>Node6&#45;&gt;Node4</title>
<path fill="none" stroke="#191970" d="M701.8447,-392.6972C711.888,-384.4263 726.4995,-372.3933 738.3004,-362.6749"/>
<polygon fill="#191970" stroke="#191970" points="740.7967,-365.1532 746.291,-356.0943 736.3467,-359.7497 740.7967,-365.1532"/>
</g>
<!-- Node7 -->
<g id="node8" class="node">
<title>Node7</title>
<polygon fill="#ffffff" stroke="#bfbfbf" points="437.5,-168.9516 437.5,-187.9516 482.5,-187.9516 482.5,-168.9516 437.5,-168.9516"/>
<text text-anchor="middle" x="460" y="-175.9516" font-family="Helvetica,sans-Serif" font-size="10.00" fill="#000000">cstdlib</text>
</g>
<!-- Node6&#45;&gt;Node7 -->
<g id="edge7" class="edge">
<title>Node6&#45;&gt;Node7</title>
<path fill="none" stroke="#191970" d="M683.6432,-392.7792C677.7268,-383.6044 668.8216,-369.3428 662,-356.4516 631.8588,-299.492 650.2878,-267.1269 602,-224.4516 564.299,-191.1327 540.6709,-203.9183 492.3228,-189.9852"/>
<polygon fill="#191970" stroke="#191970" points="493.2461,-186.6065 482.6565,-186.9389 491.142,-193.2828 493.2461,-186.6065"/>
</g>
<!-- Node8 -->
<g id="node9" class="node">
<title>Node8</title>
<polygon fill="#ffffff" stroke="#bfbfbf" points="671,-336.9516 671,-355.9516 709,-355.9516 709,-336.9516 671,-336.9516"/>
<text text-anchor="middle" x="690" y="-343.9516" font-family="Helvetica,sans-Serif" font-size="10.00" fill="#000000">array</text>
</g>
<!-- Node6&#45;&gt;Node8 -->
<g id="edge8" class="edge">
<title>Node6&#45;&gt;Node8</title>
<path fill="none" stroke="#191970" d="M690,-392.6972C690,-385.3899 690,-375.146 690,-366.1562"/>
<polygon fill="#191970" stroke="#191970" points="693.5001,-366.0943 690,-356.0943 686.5001,-366.0943 693.5001,-366.0943"/>
</g>
<!-- Node9&#45;&gt;Node2 -->
<g id="edge12" class="edge">
<title>Node9&#45;&gt;Node2</title>
<path fill="none" stroke="#191970" d="M345.788,-394.327C268.9288,-378.3184 114,-339.9146 114,-290.4516 114,-290.4516 114,-290.4516 114,-234.4516 114,-201.6858 120.7939,-164.065 125.5275,-141.8294"/>
<polygon fill="#191970" stroke="#191970" points="128.9649,-142.4944 127.7076,-131.9744 122.1302,-140.9824 128.9649,-142.4944"/>
</g>
<!-- Node9&#45;&gt;Node3 -->
<g id="edge13" class="edge">
<title>Node9&#45;&gt;Node3</title>
<path fill="none" stroke="#191970" d="M345.8417,-400.291C297.8102,-396.4551 217.9607,-385.8314 156,-356.4516 114.351,-336.7031 76,-336.5455 76,-290.4516 76,-290.4516 76,-290.4516 76,-122.4516 76,-51.8845 176.2195,-24.4247 228.3272,-14.9166"/>
<polygon fill="#191970" stroke="#191970" points="229.0971,-18.3358 238.3633,-13.1988 227.9161,-11.4361 229.0971,-18.3358"/>
</g>
<!-- Node9&#45;&gt;Node10 -->
<g id="edge11" class="edge">
<title>Node9&#45;&gt;Node10</title>
<path fill="none" stroke="#191970" d="M412.0669,-392.8249C434.8428,-383.7145 469.2344,-369.9579 494.649,-359.792"/>
<polygon fill="#191970" stroke="#191970" points="496.2623,-362.9164 504.2472,-355.9528 493.6625,-356.4171 496.2623,-362.9164"/>
</g>
<!-- Node11 -->
<g id="node12" class="node">
<title>Node11</title>
<polygon fill="#ffffff" stroke="#bfbfbf" points="295.5,-336.9516 295.5,-355.9516 378.5,-355.9516 378.5,-336.9516 295.5,-336.9516"/>
<text text-anchor="middle" x="337" y="-343.9516" font-family="Helvetica,sans-Serif" font-size="10.00" fill="#000000">unordered_map</text>
</g>
<!-- Node9&#45;&gt;Node11 -->
<g id="edge14" class="edge">
<title>Node9&#45;&gt;Node11</title>
<path fill="none" stroke="#191970" d="M379.1165,-392.6972C371.8034,-384.6672 361.2609,-373.091 352.5533,-363.5298"/>
<polygon fill="#191970" stroke="#191970" points="355.1028,-361.1311 345.7817,-356.0943 349.9273,-365.8444 355.1028,-361.1311"/>
</g>
<!-- Node9&#45;&gt;Node12 -->
<g id="edge15" class="edge">
<title>Node9&#45;&gt;Node12</title>
<path fill="none" stroke="#191970" d="M396.8835,-392.6972C404.1966,-384.6672 414.7391,-373.091 423.4467,-363.5298"/>
<polygon fill="#191970" stroke="#191970" points="426.0727,-365.8444 430.2183,-356.0943 420.8972,-361.1311 426.0727,-365.8444"/>
</g>
<!-- Node12&#45;&gt;Node2 -->
<g id="edge17" class="edge">
<title>Node12&#45;&gt;Node2</title>
<path fill="none" stroke="#191970" d="M396.4465,-338.1929C393.2513,-337.5958 390.0755,-337.0096 387,-336.4516 293.3954,-319.4679 246.0312,-364.8403 176,-300.4516 130.858,-258.9468 127.5644,-179.4844 128.7312,-142.4146"/>
<polygon fill="#191970" stroke="#191970" points="132.2303,-142.5109 129.1951,-132.3602 125.2378,-142.1882 132.2303,-142.5109"/>
</g>
<!-- Node12&#45;&gt;Node3 -->
<g id="edge19" class="edge">
<title>Node12&#45;&gt;Node3</title>
<path fill="none" stroke="#191970" d="M481.5506,-338.0735C593.379,-315.7671 887,-255.2211 887,-234.4516 887,-234.4516 887,-234.4516 887,-178.4516 887,-53.296 415.6456,-18.903 289.6537,-11.9454"/>
<polygon fill="#191970" stroke="#191970" points="289.71,-8.4435 279.5376,-11.4054 289.3368,-15.4335 289.71,-8.4435"/>
</g>
<!-- Node13 -->
<g id="node14" class="node">
<title>Node13</title>
<polygon fill="#ffffff" stroke="#bfbfbf" points="287,-56.9516 287,-75.9516 341,-75.9516 341,-56.9516 287,-56.9516"/>
<text text-anchor="middle" x="314" y="-63.9516" font-family="Helvetica,sans-Serif" font-size="10.00" fill="#000000">iostream</text>
</g>
<!-- Node12&#45;&gt;Node13 -->
<g id="edge16" class="edge">
<title>Node12&#45;&gt;Node13</title>
<path fill="none" stroke="#191970" d="M396.1656,-336.8506C350.579,-324.1491 280.5026,-296.9522 247,-244.4516 215.4083,-194.9456 212.6256,-163.8693 241,-112.4516 248.9558,-98.0349 263.5383,-87.5178 277.5901,-80.2094"/>
<polygon fill="#191970" stroke="#191970" points="279.164,-83.3363 286.6724,-75.8614 276.1414,-77.0225 279.164,-83.3363"/>
</g>
<!-- Node14 -->
<g id="node15" class="node">
<title>Node14</title>
<polygon fill="#ffffff" stroke="#bfbfbf" points="476.5,-280.9516 476.5,-299.9516 535.5,-299.9516 535.5,-280.9516 476.5,-280.9516"/>
<text text-anchor="middle" x="506" y="-287.9516" font-family="Helvetica,sans-Serif" font-size="10.00" fill="#000000">stdexcept</text>
</g>
<!-- Node12&#45;&gt;Node14 -->
<g id="edge18" class="edge">
<title>Node12&#45;&gt;Node14</title>
<path fill="none" stroke="#191970" d="M450.6705,-336.6972C460.5661,-328.4263 474.9627,-316.3933 486.5901,-306.6749"/>
<polygon fill="#191970" stroke="#191970" points="489.035,-309.1929 494.4632,-300.0943 484.5458,-303.8219 489.035,-309.1929"/>
</g>
<!-- Node12&#45;&gt;Node15 -->
<g id="edge20" class="edge">
<title>Node12&#45;&gt;Node15</title>
<path fill="none" stroke="#191970" d="M481.5081,-337.9095C484.7138,-337.378 487.9044,-336.884 491,-336.4516 581.5822,-323.7989 828.4555,-356.152 901,-300.4516 925.7568,-281.4431 925,-265.6642 925,-234.4516 925,-234.4516 925,-234.4516 925,-178.4516 925,-145.6858 931.7939,-108.065 936.5275,-85.8294"/>
<polygon fill="#191970" stroke="#191970" points="939.9649,-86.4944 938.7076,-75.9744 933.1302,-84.9824 939.9649,-86.4944"/>
</g>
<!-- Node18 -->
<g id="node19" class="node">
<title>Node18</title>
<g id="a_node19"><a xlink:href="../../d2/d0d/message_8h.xhtml" target="_top" xlink:title="../log/message.h">
<polygon fill="#ffffff" stroke="#000000" points="369.5,-280.9516 369.5,-299.9516 458.5,-299.9516 458.5,-280.9516 369.5,-280.9516"/>
<text text-anchor="middle" x="414" y="-287.9516" font-family="Helvetica,sans-Serif" font-size="10.00" fill="#000000">../log/message.h</text>
</a>
</g>
</g>
<!-- Node12&#45;&gt;Node18 -->
<g id="edge25" class="edge">
<title>Node12&#45;&gt;Node18</title>
<path fill="none" stroke="#191970" d="M434.6453,-336.6972C431.2756,-329.149 426.507,-318.4674 422.4017,-309.2714"/>
<polygon fill="#191970" stroke="#191970" points="425.5773,-307.7989 418.3048,-300.0943 419.1853,-310.6525 425.5773,-307.7989"/>
</g>
<!-- Node15&#45;&gt;Node3 -->
<g id="edge22" class="edge">
<title>Node15&#45;&gt;Node3</title>
<path fill="none" stroke="#191970" d="M897.8084,-58.4057C893.1572,-57.6792 888.4867,-57.0089 884,-56.4516 656.7804,-28.2305 380.7775,-15.3224 289.7442,-11.6222"/>
<polygon fill="#191970" stroke="#191970" points="289.707,-8.118 279.5753,-11.2161 289.4276,-15.1124 289.707,-8.118"/>
</g>
<!-- Node16 -->
<g id="node17" class="node">
<title>Node16</title>
<polygon fill="#ffffff" stroke="#bfbfbf" points="882,-.9516 882,-19.9516 932,-19.9516 932,-.9516 882,-.9516"/>
<text text-anchor="middle" x="907" y="-7.9516" font-family="Helvetica,sans-Serif" font-size="10.00" fill="#000000">ciso646</text>
</g>
<!-- Node15&#45;&gt;Node16 -->
<g id="edge21" class="edge">
<title>Node15&#45;&gt;Node16</title>
<path fill="none" stroke="#191970" d="M935.0777,-56.6972C930.3973,-48.9884 923.7327,-38.0114 918.0711,-28.6864"/>
<polygon fill="#191970" stroke="#191970" points="921.0361,-26.8258 912.8545,-20.0943 915.0525,-30.4586 921.0361,-26.8258"/>
</g>
<!-- Node17 -->
<g id="node18" class="node">
<title>Node17</title>
<g id="a_node18"><a xlink:href="../../d8/d39/signal_8h.xhtml" target="_top" xlink:title="signal.h">
<polygon fill="#ffffff" stroke="#000000" points="950,-.9516 950,-19.9516 1000,-19.9516 1000,-.9516 950,-.9516"/>
<text text-anchor="middle" x="975" y="-7.9516" font-family="Helvetica,sans-Serif" font-size="10.00" fill="#000000">signal.h</text>
</a>
</g>
</g>
<!-- Node15&#45;&gt;Node17 -->
<g id="edge23" class="edge">
<title>Node15&#45;&gt;Node17</title>
<path fill="none" stroke="#191970" d="M946.9223,-56.6972C951.6027,-48.9884 958.2673,-38.0114 963.9289,-28.6864"/>
<polygon fill="#191970" stroke="#191970" points="966.9475,-30.4586 969.1455,-20.0943 960.9639,-26.8258 966.9475,-30.4586"/>
</g>
<!-- Node17&#45;&gt;Node17 -->
<g id="edge24" class="edge">
<title>Node17&#45;&gt;Node17</title>
<path fill="none" stroke="#191970" d="M993.5634,-20.0262C1005.9465,-22.7213 1018,-19.5298 1018,-10.4516 1018,-3.9267 1011.7731,-.4429 1003.6726,0"/>
<polygon fill="#191970" stroke="#191970" points="1003.2234,3.4743 993.5634,-.877 1003.8285,-3.4995 1003.2234,3.4743"/>
</g>
<!-- Node18&#45;&gt;Node3 -->
<g id="edge27" class="edge">
<title>Node18&#45;&gt;Node3</title>
<path fill="none" stroke="#191970" d="M369.1653,-284.0752C325.0926,-276.8072 262.2744,-263.4267 247,-244.4516 195.8648,-180.9276 232.1751,-73.3981 250.3333,-29.7383"/>
<polygon fill="#191970" stroke="#191970" points="253.6562,-30.8708 254.3955,-20.3018 247.2267,-28.103 253.6562,-30.8708"/>
</g>
<!-- Node19 -->
<g id="node20" class="node">
<title>Node19</title>
<polygon fill="#ffffff" stroke="#bfbfbf" points="478,-224.9516 478,-243.9516 524,-243.9516 524,-224.9516 478,-224.9516"/>
<text text-anchor="middle" x="501" y="-231.9516" font-family="Helvetica,sans-Serif" font-size="10.00" fill="#000000">cstdint</text>
</g>
<!-- Node18&#45;&gt;Node19 -->
<g id="edge26" class="edge">
<title>Node18&#45;&gt;Node19</title>
<path fill="none" stroke="#191970" d="M429.1542,-280.6972C442.5027,-272.1051 462.1586,-259.453 477.5383,-249.5534"/>
<polygon fill="#191970" stroke="#191970" points="479.5051,-252.4498 486.0194,-244.0943 475.7164,-246.5638 479.5051,-252.4498"/>
</g>
<!-- Node20 -->
<g id="node21" class="node">
<title>Node20</title>
<polygon fill="#ffffff" stroke="#bfbfbf" points="542.5,-224.9516 542.5,-243.9516 593.5,-243.9516 593.5,-224.9516 542.5,-224.9516"/>
<text text-anchor="middle" x="568" y="-231.9516" font-family="Helvetica,sans-Serif" font-size="10.00" fill="#000000">config.h</text>
</g>
<!-- Node18&#45;&gt;Node20 -->
<g id="edge28" class="edge">
<title>Node18&#45;&gt;Node20</title>
<path fill="none" stroke="#191970" d="M440.4735,-280.8249C466.0135,-271.5376 504.8317,-257.4219 532.9309,-247.204"/>
<polygon fill="#191970" stroke="#191970" points="534.1818,-250.4734 542.3836,-243.7667 531.7896,-243.8949 534.1818,-250.4734"/>
</g>
<!-- Node21 -->
<g id="node22" class="node">
<title>Node21</title>
<g id="a_node22"><a xlink:href="../../d1/d06/constexpr_8h.xhtml" target="_top" xlink:title="../util/constexpr.h">
<polygon fill="#ffffff" stroke="#000000" points="368,-224.9516 368,-243.9516 460,-243.9516 460,-224.9516 368,-224.9516"/>
<text text-anchor="middle" x="414" y="-231.9516" font-family="Helvetica,sans-Serif" font-size="10.00" fill="#000000">../util/constexpr.h</text>
</a>
</g>
</g>
<!-- Node18&#45;&gt;Node21 -->
<g id="edge29" class="edge">
<title>Node18&#45;&gt;Node21</title>
<path fill="none" stroke="#191970" d="M414,-280.6972C414,-273.3899 414,-263.146 414,-254.1562"/>
<polygon fill="#191970" stroke="#191970" points="417.5001,-254.0943 414,-244.0943 410.5001,-254.0943 417.5001,-254.0943"/>
</g>
<!-- Node22 -->
<g id="node23" class="node">
<title>Node22</title>
<g id="a_node23"><a xlink:href="../../de/d65/stringformatter_8h.xhtml" target="_top" xlink:title="../util/stringformatter.h">
<polygon fill="#ffffff" stroke="#000000" points="688.5,-224.9516 688.5,-243.9516 801.5,-243.9516 801.5,-224.9516 688.5,-224.9516"/>
<text text-anchor="middle" x="745" y="-231.9516" font-family="Helvetica,sans-Serif" font-size="10.00" fill="#000000">../util/stringformatter.h</text>
</a>
</g>
</g>
<!-- Node18&#45;&gt;Node22 -->
<g id="edge31" class="edge">
<title>Node18&#45;&gt;Node22</title>
<path fill="none" stroke="#191970" d="M458.5197,-281.9765C461.3883,-281.4537 464.2339,-280.9414 467,-280.4516 539.104,-267.6856 621.9309,-254.1219 678.2906,-245.0577"/>
<polygon fill="#191970" stroke="#191970" points="679.179,-248.46 688.4977,-243.4188 678.0692,-241.5485 679.179,-248.46"/>
</g>
<!-- Node31 -->
<g id="node32" class="node">
<title>Node31</title>
<g id="a_node32"><a xlink:href="../../d3/d4e/logsink_8h.xhtml" target="_top" xlink:title="logsink.h">
<polygon fill="#ffffff" stroke="#000000" points="256,-224.9516 256,-243.9516 312,-243.9516 312,-224.9516 256,-224.9516"/>
<text text-anchor="middle" x="284" y="-231.9516" font-family="Helvetica,sans-Serif" font-size="10.00" fill="#000000">logsink.h</text>
</a>
</g>
</g>
<!-- Node18&#45;&gt;Node31 -->
<g id="edge47" class="edge">
<title>Node18&#45;&gt;Node31</title>
<path fill="none" stroke="#191970" d="M391.6522,-280.8249C370.5967,-271.7548 338.8505,-258.0795 315.2825,-247.9272"/>
<polygon fill="#191970" stroke="#191970" points="316.625,-244.6946 306.0562,-243.9528 313.8556,-251.1235 316.625,-244.6946"/>
</g>
<!-- Node34 -->
<g id="node35" class="node">
<title>Node34</title>
<g id="a_node35"><a xlink:href="../../de/d09/level_8h.xhtml" target="_top" xlink:title="level.h">
<polygon fill="#ffffff" stroke="#000000" points="366.5,-168.9516 366.5,-187.9516 411.5,-187.9516 411.5,-168.9516 366.5,-168.9516"/>
<text text-anchor="middle" x="389" y="-175.9516" font-family="Helvetica,sans-Serif" font-size="10.00" fill="#000000">level.h</text>
</a>
</g>
</g>
<!-- Node18&#45;&gt;Node34 -->
<g id="edge55" class="edge">
<title>Node18&#45;&gt;Node34</title>
<path fill="none" stroke="#191970" d="M395.7167,-280.9025C382.8142,-273.0419 366.5359,-260.5785 359,-244.4516 351.3945,-228.1757 361.596,-209.5319 372.1121,-196.2204"/>
<polygon fill="#191970" stroke="#191970" points="375.0326,-198.1913 378.8841,-188.3213 369.7182,-193.6352 375.0326,-198.1913"/>
</g>
<!-- Node21&#45;&gt;Node7 -->
<g id="edge30" class="edge">
<title>Node21&#45;&gt;Node7</title>
<path fill="none" stroke="#191970" d="M422.0126,-224.6972C428.4768,-216.8278 437.7385,-205.5526 445.4983,-196.1058"/>
<polygon fill="#191970" stroke="#191970" points="448.4364,-198.0432 452.0792,-188.0943 443.0273,-193.6 448.4364,-198.0432"/>
</g>
<!-- Node22&#45;&gt;Node2 -->
<g id="edge33" class="edge">
<title>Node22&#45;&gt;Node2</title>
<path fill="none" stroke="#191970" d="M708.9086,-224.9439C641.3998,-207.1778 501.8209,-170.5381 491,-168.4516 373.1739,-145.7326 231.4777,-131.4049 166.1835,-125.5224"/>
<polygon fill="#191970" stroke="#191970" points="166.2768,-122.017 156.0064,-124.6185 165.6575,-128.9896 166.2768,-122.017"/>
</g>
<!-- Node22&#45;&gt;Node15 -->
<g id="edge35" class="edge">
<title>Node22&#45;&gt;Node15</title>
<path fill="none" stroke="#191970" d="M767.5445,-224.8056C785.4356,-216.5685 810.5797,-203.6583 830,-188.4516 870.3605,-156.848 908.5526,-109.7869 927.8729,-84.3404"/>
<polygon fill="#191970" stroke="#191970" points="930.9163,-86.1153 934.1062,-76.012 925.3121,-81.9209 930.9163,-86.1153"/>
</g>
<!-- Node23 -->
<g id="node24" class="node">
<title>Node23</title>
<polygon fill="#ffffff" stroke="#bfbfbf" points="695,-168.9516 695,-187.9516 741,-187.9516 741,-168.9516 695,-168.9516"/>
<text text-anchor="middle" x="718" y="-175.9516" font-family="Helvetica,sans-Serif" font-size="10.00" fill="#000000">atomic</text>
</g>
<!-- Node22&#45;&gt;Node23 -->
<g id="edge32" class="edge">
<title>Node22&#45;&gt;Node23</title>
<path fill="none" stroke="#191970" d="M740.297,-224.6972C736.6576,-217.149 731.5076,-206.4674 727.0738,-197.2714"/>
<polygon fill="#191970" stroke="#191970" points="730.1449,-195.5819 722.6491,-188.0943 723.8395,-198.6221 730.1449,-195.5819"/>
</g>
<!-- Node24 -->
<g id="node25" class="node">
<title>Node24</title>
<polygon fill="#ffffff" stroke="#bfbfbf" points="759,-168.9516 759,-187.9516 821,-187.9516 821,-168.9516 759,-168.9516"/>
<text text-anchor="middle" x="790" y="-175.9516" font-family="Helvetica,sans-Serif" font-size="10.00" fill="#000000">type_traits</text>
</g>
<!-- Node22&#45;&gt;Node24 -->
<g id="edge34" class="edge">
<title>Node22&#45;&gt;Node24</title>
<path fill="none" stroke="#191970" d="M752.8384,-224.6972C759.162,-216.8278 768.2224,-205.5526 775.8136,-196.1058"/>
<polygon fill="#191970" stroke="#191970" points="778.7158,-198.0818 782.2514,-188.0943 773.2592,-193.697 778.7158,-198.0818"/>
</g>
<!-- Node25 -->
<g id="node26" class="node">
<title>Node25</title>
<g id="a_node26"><a xlink:href="../../dc/dcf/externalsstream_8h.xhtml" target="_top" xlink:title="externalsstream.h">
<polygon fill="#ffffff" stroke="#000000" points="250.5,-112.9516 250.5,-131.9516 345.5,-131.9516 345.5,-112.9516 250.5,-112.9516"/>
<text text-anchor="middle" x="298" y="-119.9516" font-family="Helvetica,sans-Serif" font-size="10.00" fill="#000000">externalsstream.h</text>
</a>
</g>
</g>
<!-- Node22&#45;&gt;Node25 -->
<g id="edge36" class="edge">
<title>Node22&#45;&gt;Node25</title>
<path fill="none" stroke="#191970" d="M715.2963,-224.9419C688.5419,-216.1594 648.2706,-202.3997 614,-188.4516 594.4778,-180.5062 591.1342,-174.6854 571,-168.4516 481.026,-140.5947 452.746,-148.3075 355.5268,-132.4908"/>
<polygon fill="#191970" stroke="#191970" points="356.0204,-129.0249 345.5805,-130.8303 354.8676,-135.9293 356.0204,-129.0249"/>
</g>
<!-- Node26 -->
<g id="node27" class="node">
<title>Node26</title>
<g id="a_node27"><a xlink:href="../../d6/d90/strings_8h.xhtml" target="_top" xlink:title="strings.h">
<polygon fill="#ffffff" stroke="#000000" points="623,-168.9516 623,-187.9516 677,-187.9516 677,-168.9516 623,-168.9516"/>
<text text-anchor="middle" x="650" y="-175.9516" font-family="Helvetica,sans-Serif" font-size="10.00" fill="#000000">strings.h</text>
</a>
</g>
</g>
<!-- Node22&#45;&gt;Node26 -->
<g id="edge39" class="edge">
<title>Node22&#45;&gt;Node26</title>
<path fill="none" stroke="#191970" d="M728.4523,-224.6972C713.7401,-216.0248 692.0112,-203.2161 675.1495,-193.2766"/>
<polygon fill="#191970" stroke="#191970" points="676.7502,-190.1573 666.3581,-188.0943 673.1954,-196.1876 676.7502,-190.1573"/>
</g>
<!-- Node25&#45;&gt;Node3 -->
<g id="edge38" class="edge">
<title>Node25&#45;&gt;Node3</title>
<path fill="none" stroke="#191970" d="M293.3333,-112.7299C289.0182,-103.5203 282.5971,-89.2351 278,-76.4516 272.4519,-61.0238 267.3825,-43.1287 263.878,-29.8675"/>
<polygon fill="#191970" stroke="#191970" points="267.2129,-28.7828 261.3262,-19.9738 260.4347,-30.5311 267.2129,-28.7828"/>
</g>
<!-- Node25&#45;&gt;Node13 -->
<g id="edge37" class="edge">
<title>Node25&#45;&gt;Node13</title>
<path fill="none" stroke="#191970" d="M300.787,-112.6972C302.8977,-105.3096 305.866,-94.9205 308.4547,-85.8603"/>
<polygon fill="#191970" stroke="#191970" points="311.863,-86.6711 311.245,-76.0943 305.1323,-84.748 311.863,-86.6711"/>
</g>
<!-- Node26&#45;&gt;Node2 -->
<g id="edge43" class="edge">
<title>Node26&#45;&gt;Node2</title>
<path fill="none" stroke="#191970" d="M622.9612,-174.8797C607.7123,-172.9028 588.3042,-170.4491 571,-168.4516 421.0379,-151.1413 242.0445,-133.3583 166.4975,-125.9847"/>
<polygon fill="#191970" stroke="#191970" points="166.4098,-122.4597 156.1176,-124.9736 165.7311,-129.4267 166.4098,-122.4597"/>
</g>
<!-- Node26&#45;&gt;Node3 -->
<g id="edge45" class="edge">
<title>Node26&#45;&gt;Node3</title>
<path fill="none" stroke="#191970" d="M625.2706,-168.8454C604.029,-160.2582 572.8362,-146.8393 547,-132.4516 494.4437,-103.1839 489.7817,-81.3058 435,-56.4516 386.4427,-34.4215 325.382,-21.4417 289.43,-15.1568"/>
<polygon fill="#191970" stroke="#191970" points="289.9967,-11.703 279.5535,-13.489 288.8311,-18.6053 289.9967,-11.703"/>
</g>
<!-- Node26&#45;&gt;Node5 -->
<g id="edge46" class="edge">
<title>Node26&#45;&gt;Node5</title>
<path fill="none" stroke="#191970" d="M622.7461,-169.5783C592.1461,-159.6155 542.5389,-143.4643 510.0903,-132.8996"/>
<polygon fill="#191970" stroke="#191970" points="510.7961,-129.4487 500.2039,-129.6808 508.629,-136.1048 510.7961,-129.4487"/>
</g>
<!-- Node27 -->
<g id="node28" class="node">
<title>Node27</title>
<polygon fill="#ffffff" stroke="#bfbfbf" points="626.5,-112.9516 626.5,-131.9516 675.5,-131.9516 675.5,-112.9516 626.5,-112.9516"/>
<text text-anchor="middle" x="651" y="-119.9516" font-family="Helvetica,sans-Serif" font-size="10.00" fill="#000000">cstdarg</text>
</g>
<!-- Node26&#45;&gt;Node27 -->
<g id="edge40" class="edge">
<title>Node26&#45;&gt;Node27</title>
<path fill="none" stroke="#191970" d="M650.1742,-168.6972C650.3047,-161.3899 650.4876,-151.146 650.6481,-142.1562"/>
<polygon fill="#191970" stroke="#191970" points="654.1486,-142.1552 650.8278,-132.0943 647.1497,-142.0302 654.1486,-142.1552"/>
</g>
<!-- Node28 -->
<g id="node29" class="node">
<title>Node28</title>
<polygon fill="#ffffff" stroke="#bfbfbf" points="693.5,-112.9516 693.5,-131.9516 752.5,-131.9516 752.5,-112.9516 693.5,-112.9516"/>
<text text-anchor="middle" x="723" y="-119.9516" font-family="Helvetica,sans-Serif" font-size="10.00" fill="#000000">functional</text>
</g>
<!-- Node26&#45;&gt;Node28 -->
<g id="edge41" class="edge">
<title>Node26&#45;&gt;Node28</title>
<path fill="none" stroke="#191970" d="M662.7156,-168.6972C673.602,-160.346 689.4883,-148.1593 702.22,-138.3925"/>
<polygon fill="#191970" stroke="#191970" points="704.6261,-140.958 710.4301,-132.0943 700.3654,-135.4039 704.6261,-140.958"/>
</g>
<!-- Node29 -->
<g id="node30" class="node">
<title>Node29</title>
<polygon fill="#ffffff" stroke="#bfbfbf" points="771,-112.9516 771,-131.9516 821,-131.9516 821,-112.9516 771,-112.9516"/>
<text text-anchor="middle" x="796" y="-119.9516" font-family="Helvetica,sans-Serif" font-size="10.00" fill="#000000">iomanip</text>
</g>
<!-- Node26&#45;&gt;Node29 -->
<g id="edge42" class="edge">
<title>Node26&#45;&gt;Node29</title>
<path fill="none" stroke="#191970" d="M675.0983,-168.8249C698.9555,-159.6742 735.0335,-145.836 761.571,-135.6573"/>
<polygon fill="#191970" stroke="#191970" points="763.1459,-138.8019 771.2292,-131.9528 760.639,-132.2662 763.1459,-138.8019"/>
</g>
<!-- Node30 -->
<g id="node31" class="node">
<title>Node30</title>
<polygon fill="#ffffff" stroke="#bfbfbf" points="556,-112.9516 556,-131.9516 608,-131.9516 608,-112.9516 556,-112.9516"/>
<text text-anchor="middle" x="582" y="-119.9516" font-family="Helvetica,sans-Serif" font-size="10.00" fill="#000000">sstream</text>
</g>
<!-- Node26&#45;&gt;Node30 -->
<g id="edge44" class="edge">
<title>Node26&#45;&gt;Node30</title>
<path fill="none" stroke="#191970" d="M638.1553,-168.6972C628.112,-160.4263 613.5005,-148.3933 601.6996,-138.6749"/>
<polygon fill="#191970" stroke="#191970" points="603.6533,-135.7497 593.709,-132.0943 599.2033,-141.1532 603.6533,-135.7497"/>
</g>
<!-- Node32 -->
<g id="node33" class="node">
<title>Node32</title>
<polygon fill="#ffffff" stroke="#bfbfbf" points="256.5,-168.9516 256.5,-187.9516 285.5,-187.9516 285.5,-168.9516 256.5,-168.9516"/>
<text text-anchor="middle" x="271" y="-175.9516" font-family="Helvetica,sans-Serif" font-size="10.00" fill="#000000">list</text>
</g>
<!-- Node31&#45;&gt;Node32 -->
<g id="edge48" class="edge">
<title>Node31&#45;&gt;Node32</title>
<path fill="none" stroke="#191970" d="M281.7356,-224.6972C280.0206,-217.3096 277.6088,-206.9205 275.5056,-197.8603"/>
<polygon fill="#191970" stroke="#191970" points="278.9092,-197.0438 273.2385,-188.0943 272.0905,-198.6268 278.9092,-197.0438"/>
</g>
<!-- Node33 -->
<g id="node34" class="node">
<title>Node33</title>
<polygon fill="#ffffff" stroke="#bfbfbf" points="304,-168.9516 304,-187.9516 348,-187.9516 348,-168.9516 304,-168.9516"/>
<text text-anchor="middle" x="326" y="-175.9516" font-family="Helvetica,sans-Serif" font-size="10.00" fill="#000000">mutex</text>
</g>
<!-- Node31&#45;&gt;Node33 -->
<g id="edge49" class="edge">
<title>Node31&#45;&gt;Node33</title>
<path fill="none" stroke="#191970" d="M291.3158,-224.6972C297.2179,-216.8278 305.6742,-205.5526 312.7594,-196.1058"/>
<polygon fill="#191970" stroke="#191970" points="315.568,-198.1943 318.768,-188.0943 309.9679,-193.9943 315.568,-198.1943"/>
</g>
<!-- Node31&#45;&gt;Node34 -->
<g id="edge50" class="edge">
<title>Node31&#45;&gt;Node34</title>
<path fill="none" stroke="#191970" d="M302.2896,-224.6972C318.7762,-215.9043 343.2352,-202.8596 361.9765,-192.8641"/>
<polygon fill="#191970" stroke="#191970" points="363.7435,-195.8885 370.92,-188.0943 360.4494,-189.712 363.7435,-195.8885"/>
</g>
<!-- Node35 -->
<g id="node36" class="node">
<title>Node35</title>
<g id="a_node36"><a xlink:href="../../d0/d9b/enum_8h.xhtml" target="_top" xlink:title="../util/enum.h">
<polygon fill="#ffffff" stroke="#000000" points="364,-112.9516 364,-131.9516 438,-131.9516 438,-112.9516 364,-112.9516"/>
<text text-anchor="middle" x="401" y="-119.9516" font-family="Helvetica,sans-Serif" font-size="10.00" fill="#000000">../util/enum.h</text>
</a>
</g>
</g>
<!-- Node34&#45;&gt;Node35 -->
<g id="edge51" class="edge">
<title>Node34&#45;&gt;Node35</title>
<path fill="none" stroke="#191970" d="M391.0902,-168.6972C392.6561,-161.3899 394.8512,-151.146 396.7776,-142.1562"/>
<polygon fill="#191970" stroke="#191970" points="400.2607,-142.6057 398.9337,-132.0943 393.416,-141.139 400.2607,-142.6057"/>
</g>
<!-- Node35&#45;&gt;Node13 -->
<g id="edge52" class="edge">
<title>Node35&#45;&gt;Node13</title>
<path fill="none" stroke="#191970" d="M385.8458,-112.6972C372.4973,-104.1051 352.8414,-91.453 337.4617,-81.5534"/>
<polygon fill="#191970" stroke="#191970" points="339.2836,-78.5638 328.9806,-76.0943 335.4949,-84.4498 339.2836,-78.5638"/>
</g>
<!-- Node35&#45;&gt;Node15 -->
<g id="edge54" class="edge">
<title>Node35&#45;&gt;Node15</title>
<path fill="none" stroke="#191970" d="M438.0849,-113.9857C441.0929,-113.4223 444.0924,-112.9014 447,-112.4516 606.4197,-87.794 796.9727,-74.595 887.7857,-69.2856"/>
<polygon fill="#191970" stroke="#191970" points="888.0514,-72.7762 897.8335,-68.7067 887.6487,-65.7878 888.0514,-72.7762"/>
</g>
<!-- Node36 -->
<g id="node37" class="node">
<title>Node36</title>
<polygon fill="#ffffff" stroke="#bfbfbf" points="375.5,-56.9516 375.5,-75.9516 426.5,-75.9516 426.5,-56.9516 375.5,-56.9516"/>
<text text-anchor="middle" x="401" y="-63.9516" font-family="Helvetica,sans-Serif" font-size="10.00" fill="#000000">typeinfo</text>
</g>
<!-- Node35&#45;&gt;Node36 -->
<g id="edge53" class="edge">
<title>Node35&#45;&gt;Node36</title>
<path fill="none" stroke="#191970" d="M401,-112.6972C401,-105.3899 401,-95.146 401,-86.1562"/>
<polygon fill="#191970" stroke="#191970" points="404.5001,-86.0943 401,-76.0943 397.5001,-86.0943 404.5001,-86.0943"/>
</g>
</g>
</svg>
