<?xml version="1.0" encoding="UTF-8" standalone="no"?>
<!DOCTYPE svg PUBLIC "-//W3C//DTD SVG 1.1//EN"
 "http://www.w3.org/Graphics/SVG/1.1/DTD/svg11.dtd">
<!-- Generated by graphviz version 2.40.1 (20161225.0304)
 -->
<!-- Title: openage::Attribute&lt; attr_type::dropsite &gt; Pages: 1 -->
<svg width="149pt" height="353pt"
 viewBox="0.00 0.00 149.00 353.00" xmlns="http://www.w3.org/2000/svg" xmlns:xlink="http://www.w3.org/1999/xlink">
<g id="graph0" class="graph" transform="scale(1 1) rotate(0) translate(4 349)">
<title>openage::Attribute&lt; attr_type::dropsite &gt;</title>
<polygon fill="#ffffff" stroke="transparent" points="-4,4 -4,-349 145,-349 145,4 -4,4"/>
<!-- Node3 -->
<g id="node1" class="node">
<title>Node3</title>
<polygon fill="#bfbfbf" stroke="#000000" points="12.5,-.5 12.5,-90.5 128.5,-90.5 128.5,-.5 12.5,-.5"/>
<text text-anchor="start" x="20.5" y="-78.5" font-family="Helvetica,sans-Serif" font-size="10.00" fill="#000000">openage::Attribute</text>
<text text-anchor="middle" x="70.5" y="-67.5" font-family="Helvetica,sans-Serif" font-size="10.00" fill="#000000">&lt; attr_type::dropsite &gt;</text>
<polyline fill="none" stroke="#000000" points="12.5,-60.5 128.5,-60.5 "/>
<text text-anchor="start" x="20.5" y="-48.5" font-family="Helvetica,sans-Serif" font-size="10.00" fill="#000000">+ resource_types</text>
<polyline fill="none" stroke="#000000" points="12.5,-41.5 128.5,-41.5 "/>
<text text-anchor="start" x="20.5" y="-29.5" font-family="Helvetica,sans-Serif" font-size="10.00" fill="#000000">+ Attribute()</text>
<text text-anchor="start" x="20.5" y="-18.5" font-family="Helvetica,sans-Serif" font-size="10.00" fill="#000000">+ copy()</text>
<text text-anchor="start" x="20.5" y="-7.5" font-family="Helvetica,sans-Serif" font-size="10.00" fill="#000000">+ accepting_resource()</text>
</g>
<!-- Node4 -->
<g id="node2" class="node">
<title>Node4</title>
<g id="a_node2"><a xlink:href="../../d4/d90/classopenage_1_1_shared_attribute_container.xhtml" target="_top" xlink:title="Wraps a templated shared attribute. ">
<polygon fill="#ffffff" stroke="#000000" points="0,-127.5 0,-206.5 141,-206.5 141,-127.5 0,-127.5"/>
<text text-anchor="start" x="8" y="-194.5" font-family="Helvetica,sans-Serif" font-size="10.00" fill="#000000">openage::SharedAttribute</text>
<text text-anchor="middle" x="70.5" y="-183.5" font-family="Helvetica,sans-Serif" font-size="10.00" fill="#000000">Container</text>
<polyline fill="none" stroke="#000000" points="0,-176.5 141,-176.5 "/>
<text text-anchor="middle" x="70.5" y="-164.5" font-family="Helvetica,sans-Serif" font-size="10.00" fill="#000000"> </text>
<polyline fill="none" stroke="#000000" points="0,-157.5 141,-157.5 "/>
<text text-anchor="start" x="8" y="-145.5" font-family="Helvetica,sans-Serif" font-size="10.00" fill="#000000">+ SharedAttributeContainer()</text>
<text text-anchor="start" x="8" y="-134.5" font-family="Helvetica,sans-Serif" font-size="10.00" fill="#000000">+ shared()</text>
</a>
</g>
</g>
<!-- Node4&#45;&gt;Node3 -->
<g id="edge1" class="edge">
<title>Node4&#45;&gt;Node3</title>
<path fill="none" stroke="#191970" d="M70.5,-117.1739C70.5,-108.4596 70.5,-99.4352 70.5,-90.8501"/>
<polygon fill="none" stroke="#191970" points="67.0001,-117.2163 70.5,-127.2164 74.0001,-117.2164 67.0001,-117.2163"/>
</g>
<!-- Node5 -->
<g id="node3" class="node">
<title>Node5</title>
<g id="a_node3"><a xlink:href="../../df/d4d/classopenage_1_1_attribute_container.xhtml" target="_top" xlink:title="Wraps a templated attribute. ">
<polygon fill="#ffffff" stroke="#000000" points="1.5,-243.5 1.5,-344.5 139.5,-344.5 139.5,-243.5 1.5,-243.5"/>
<text text-anchor="middle" x="70.5" y="-332.5" font-family="Helvetica,sans-Serif" font-size="10.00" fill="#000000">openage::AttributeContainer</text>
<polyline fill="none" stroke="#000000" points="1.5,-325.5 139.5,-325.5 "/>
<text text-anchor="start" x="9.5" y="-313.5" font-family="Helvetica,sans-Serif" font-size="10.00" fill="#000000">+ type</text>
<polyline fill="none" stroke="#000000" points="1.5,-306.5 139.5,-306.5 "/>
<text text-anchor="start" x="9.5" y="-294.5" font-family="Helvetica,sans-Serif" font-size="10.00" fill="#000000">+ AttributeContainer()</text>
<text text-anchor="start" x="9.5" y="-283.5" font-family="Helvetica,sans-Serif" font-size="10.00" fill="#000000">+ AttributeContainer()</text>
<text text-anchor="start" x="9.5" y="-272.5" font-family="Helvetica,sans-Serif" font-size="10.00" fill="#000000">+ ~AttributeContainer()</text>
<text text-anchor="start" x="9.5" y="-261.5" font-family="Helvetica,sans-Serif" font-size="10.00" fill="#000000">+ shared()</text>
<text text-anchor="start" x="9.5" y="-250.5" font-family="Helvetica,sans-Serif" font-size="10.00" fill="#000000">+ copy()</text>
</a>
</g>
</g>
<!-- Node5&#45;&gt;Node4 -->
<g id="edge2" class="edge">
<title>Node5&#45;&gt;Node4</title>
<path fill="none" stroke="#191970" d="M70.5,-233.3446C70.5,-224.3388 70.5,-215.2565 70.5,-206.8243"/>
<polygon fill="none" stroke="#191970" points="67.0001,-233.4413 70.5,-243.4413 74.0001,-233.4414 67.0001,-233.4413"/>
</g>
</g>
</svg>
