<?xml version="1.0" encoding="UTF-8" standalone="no"?>
<!DOCTYPE svg PUBLIC "-//W3C//DTD SVG 1.1//EN"
 "http://www.w3.org/Graphics/SVG/1.1/DTD/svg11.dtd">
<!-- Generated by graphviz version 2.40.1 (20161225.0304)
 -->
<!-- Title: openage::gameio::save_unit Pages: 1 -->
<!--zoomable 137 -->
<svg id="main" version="1.1" xmlns="http://www.w3.org/2000/svg" xmlns:xlink="http://www.w3.org/1999/xlink" xml:space="preserve" onload="init(evt)">
<style type="text/css"><![CDATA[
.edge:hover path { stroke: red; }
.edge:hover polygon { stroke: red; fill: red; }
]]></style>
<script type="text/javascript"><![CDATA[
var edges = document.getElementsByTagName('g');
if (edges && edges.length) {
  for (var i=0;i<edges.length;i++) {
    if (edges[i].id.substr(0,4)=='edge') {
      edges[i].setAttribute('class','edge');
    }
  }
}
]]></script>
        <defs>
                <circle id="rim" cx="0" cy="0" r="7"/>
                <circle id="rim2" cx="0" cy="0" r="3.5"/>
                <g id="zoomPlus">
                        <use xlink:href="#rim" fill="#404040">
                                <set attributeName="fill" to="#808080" begin="zoomplus.mouseover" end="zoomplus.mouseout"/>
                        </use>
                        <path d="M-4,0h8M0,-4v8" fill="none" stroke="white" stroke-width="1.5" pointer-events="none"/>
                </g>
                <g id="zoomMin">
                        <use xlink:href="#rim" fill="#404040">
                                <set attributeName="fill" to="#808080" begin="zoomminus.mouseover" end="zoomminus.mouseout"/>
                        </use>
                        <path d="M-4,0h8" fill="none" stroke="white" stroke-width="1.5" pointer-events="none"/>
                </g>
                <g id="dirArrow">
                        <path fill="none" stroke="white" stroke-width="1.5" d="M0,-3.0v7 M-2.5,-0.5L0,-3.0L2.5,-0.5"/>
                </g>
               <g id="resetDef">
                       <use xlink:href="#rim2" fill="#404040">
                               <set attributeName="fill" to="#808080" begin="reset.mouseover" end="reset.mouseout"/>
                       </use>
               </g>
        </defs>

<script type="text/javascript">
var viewWidth = 671;
var viewHeight = 137;
var sectionId = 'dynsection-9';
</script>
<script xlink:href="../../svgpan.js"/>
<svg id="graph" class="graph">
<g id="viewport">
<title>openage::gameio::save_unit</title>
<polygon fill="#ffffff" stroke="transparent" points="-4,4 -4,-133 667,-133 667,4 -4,4"/>
<!-- Node134 -->
<g id="node1" class="node">
<title>Node134</title>
<polygon fill="#bfbfbf" stroke="#000000" points="0,-55 0,-74 139,-74 139,-55 0,-55"/>
<text text-anchor="middle" x="69.5" y="-62" font-family="Helvetica,sans-Serif" font-size="10.00" fill="#000000">openage::gameio::save_unit</text>
</g>
<!-- Node135 -->
<g id="node2" class="node">
<title>Node135</title>
<g id="a_node2"><a xlink:href="../../d4/d0d/namespaceopenage_1_1gameio.xhtml#afc1134c3c633c8bddb614ecb3da48eb2" target="_top" xlink:title="a game save function that sometimes works ">
<polygon fill="#ffffff" stroke="#000000" points="175,-55 175,-74 293,-74 293,-55 175,-55"/>
<text text-anchor="middle" x="234" y="-62" font-family="Helvetica,sans-Serif" font-size="10.00" fill="#000000">openage::gameio::save</text>
</a>
</g>
</g>
<!-- Node134&#45;&gt;Node135 -->
<g id="edge1" class="edge">
<title>Node134&#45;&gt;Node135</title>
<path fill="none" stroke="#191970" d="M149.2985,-64.5C157.8804,-64.5 166.498,-64.5 174.777,-64.5"/>
<polygon fill="#191970" stroke="#191970" points="149.2628,-61.0001 139.2628,-64.5 149.2628,-68.0001 149.2628,-61.0001"/>
</g>
<!-- Node136 -->
<g id="node3" class="node">
<title>Node136</title>
<g id="a_node3"><a xlink:href="../../d5/d54/classopenage_1_1gui_1_1_game_saver.xhtml#a8d88b6621b60cfc359cbeaae88475686" target="_top" xlink:title="openage::gui::GameSaver\l::activate">
<polygon fill="#ffffff" stroke="#000000" points="344.5,-98.5 344.5,-128.5 474.5,-128.5 474.5,-98.5 344.5,-98.5"/>
<text text-anchor="start" x="352.5" y="-116.5" font-family="Helvetica,sans-Serif" font-size="10.00" fill="#000000">openage::gui::GameSaver</text>
<text text-anchor="middle" x="409.5" y="-105.5" font-family="Helvetica,sans-Serif" font-size="10.00" fill="#000000">::activate</text>
</a>
</g>
</g>
<!-- Node135&#45;&gt;Node136 -->
<g id="edge2" class="edge">
<title>Node135&#45;&gt;Node136</title>
<path fill="none" stroke="#191970" d="M277.9737,-76.7776C301.527,-83.3537 330.7372,-91.5092 355.6431,-98.463"/>
<polygon fill="#191970" stroke="#191970" points="278.8277,-73.3822 268.2548,-74.064 276.9452,-80.1243 278.8277,-73.3822"/>
</g>
<!-- Node137 -->
<g id="node4" class="node">
<title>Node137</title>
<g id="a_node4"><a xlink:href="../../d6/d02/namespaceopenage_1_1convert_1_1main.xhtml#a4973f96b5a25450372f6d09c153284bf" target="_top" xlink:title="openage.convert.main.interactive\l_browser">
<polygon fill="#ffffff" stroke="#000000" points="329,-49.5 329,-79.5 490,-79.5 490,-49.5 329,-49.5"/>
<text text-anchor="start" x="337" y="-67.5" font-family="Helvetica,sans-Serif" font-size="10.00" fill="#000000">openage.convert.main.interactive</text>
<text text-anchor="middle" x="409.5" y="-56.5" font-family="Helvetica,sans-Serif" font-size="10.00" fill="#000000">_browser</text>
</a>
</g>
</g>
<!-- Node135&#45;&gt;Node137 -->
<g id="edge3" class="edge">
<title>Node135&#45;&gt;Node137</title>
<path fill="none" stroke="#191970" d="M303.4918,-64.5C311.864,-64.5 320.4683,-64.5 328.9811,-64.5"/>
<polygon fill="#191970" stroke="#191970" points="303.4163,-61.0001 293.4163,-64.5 303.4163,-68.0001 303.4163,-61.0001"/>
</g>
<!-- Node139 -->
<g id="node6" class="node">
<title>Node139</title>
<g id="a_node6"><a xlink:href="../../d6/d8c/classopenage_1_1convert_1_1colortable_1_1_color_table.xhtml#aeea5aabc465e55e3b8a519049bbcb623" target="_top" xlink:title="openage.convert.colortable.\lColorTable.save_visualization">
<polygon fill="#ffffff" stroke="#000000" points="336,-.5 336,-30.5 483,-30.5 483,-.5 336,-.5"/>
<text text-anchor="start" x="344" y="-18.5" font-family="Helvetica,sans-Serif" font-size="10.00" fill="#000000">openage.convert.colortable.</text>
<text text-anchor="middle" x="409.5" y="-7.5" font-family="Helvetica,sans-Serif" font-size="10.00" fill="#000000">ColorTable.save_visualization</text>
</a>
</g>
</g>
<!-- Node135&#45;&gt;Node139 -->
<g id="edge5" class="edge">
<title>Node135&#45;&gt;Node139</title>
<path fill="none" stroke="#191970" d="M277.9737,-52.2224C301.527,-45.6463 330.7372,-37.4908 355.6431,-30.537"/>
<polygon fill="#191970" stroke="#191970" points="276.9452,-48.8757 268.2548,-54.936 278.8277,-55.6178 276.9452,-48.8757"/>
</g>
<!-- Node138 -->
<g id="node5" class="node">
<title>Node138</title>
<g id="a_node5"><a xlink:href="../../d6/d02/namespaceopenage_1_1convert_1_1main.xhtml#ab4e998cdda52db3b3cae6efbcd2eda23" target="_top" xlink:title="CLI entry point. ">
<polygon fill="#ffffff" stroke="#000000" points="526,-55 526,-74 663,-74 663,-55 526,-55"/>
<text text-anchor="middle" x="594.5" y="-62" font-family="Helvetica,sans-Serif" font-size="10.00" fill="#000000">openage.convert.main.main</text>
</a>
</g>
</g>
<!-- Node137&#45;&gt;Node138 -->
<g id="edge4" class="edge">
<title>Node137&#45;&gt;Node138</title>
<path fill="none" stroke="#191970" d="M500.1739,-64.5C508.7741,-64.5 517.3954,-64.5 525.7402,-64.5"/>
<polygon fill="#191970" stroke="#191970" points="500.1056,-61.0001 490.1055,-64.5 500.1055,-68.0001 500.1056,-61.0001"/>
</g>
</g>
</svg>
        <g id="navigator" transform="translate(0 0)" fill="#404254">
                <rect fill="#f2f5e9" fill-opacity="0.5" stroke="#606060" stroke-width=".5" x="0" y="0" width="60" height="60"/>
                <use id="zoomplus" xlink:href="#zoomPlus" x="17" y="9" onmousedown="handleZoom(evt,'in')"/>
                <use id="zoomminus" xlink:href="#zoomMin" x="42" y="9" onmousedown="handleZoom(evt,'out')"/>
                <use id="reset" xlink:href="#resetDef" x="30" y="36" onmousedown="handleReset()"/>
                <g id="arrowUp" xlink:href="#dirArrow" transform="translate(30 24)" onmousedown="handlePan(0,-1)">
                  <use xlink:href="#rim" fill="#404040">
                        <set attributeName="fill" to="#808080" begin="arrowUp.mouseover" end="arrowUp.mouseout"/>
                  </use>
                  <path fill="none" stroke="white" stroke-width="1.5" d="M0,-3.0v7 M-2.5,-0.5L0,-3.0L2.5,-0.5"/>
                </g>
                <g id="arrowRight" xlink:href="#dirArrow" transform="rotate(90) translate(36 -43)" onmousedown="handlePan(1,0)">
                  <use xlink:href="#rim" fill="#404040">
                        <set attributeName="fill" to="#808080" begin="arrowRight.mouseover" end="arrowRight.mouseout"/>
                  </use>
                  <path fill="none" stroke="white" stroke-width="1.5" d="M0,-3.0v7 M-2.5,-0.5L0,-3.0L2.5,-0.5"/>
                </g>
                <g id="arrowDown" xlink:href="#dirArrow" transform="rotate(180) translate(-30 -48)" onmousedown="handlePan(0,1)">
                  <use xlink:href="#rim" fill="#404040">
                        <set attributeName="fill" to="#808080" begin="arrowDown.mouseover" end="arrowDown.mouseout"/>
                  </use>
                  <path fill="none" stroke="white" stroke-width="1.5" d="M0,-3.0v7 M-2.5,-0.5L0,-3.0L2.5,-0.5"/>
                </g>
                <g id="arrowLeft" xlink:href="#dirArrow" transform="rotate(270) translate(-36 17)" onmousedown="handlePan(-1,0)">
                  <use xlink:href="#rim" fill="#404040">
                        <set attributeName="fill" to="#808080" begin="arrowLeft.mouseover" end="arrowLeft.mouseout"/>
                  </use>
                  <path fill="none" stroke="white" stroke-width="1.5" d="M0,-3.0v7 M-2.5,-0.5L0,-3.0L2.5,-0.5"/>
                </g>
        </g>
        <svg viewBox="0 0 15 15" width="100%" height="30px" preserveAspectRatio="xMaxYMin meet">
         <g id="arrow_out" transform="scale(0.3 0.3)">
          <a xlink:href="namespaceopenage_1_1gameio_a644610ec4e114bf5109a4a46847f3762_icgraph_org.svg" target="_base">
           <rect id="button" ry="5" rx="5" y="6" x="6" height="38" width="38"
                fill="#f2f5e9" fill-opacity="0.5" stroke="#606060" stroke-width="1.0"/>
           <path id="arrow"
             d="M 11.500037,31.436501 C 11.940474,20.09759 22.043105,11.32322 32.158766,21.979434 L 37.068811,17.246167 C 37.068811,17.246167 37.088388,32 37.088388,32 L 22.160133,31.978069 C 22.160133,31.978069 26.997745,27.140456 26.997745,27.140456 C 18.528582,18.264221 13.291696,25.230495 11.500037,31.436501 z"
             style="fill:#404040;"/>
          </a>
         </g>
        </svg>
</svg>
