<?xml version="1.0" encoding="UTF-8" standalone="no"?>
<!DOCTYPE svg PUBLIC "-//W3C//DTD SVG 1.1//EN"
 "http://www.w3.org/Graphics/SVG/1.1/DTD/svg11.dtd">
<!-- Generated by graphviz version 2.40.1 (20161225.0304)
 -->
<!-- Title: /mnt/c/Users/Jameson/Desktop/git/openage&#45;new&#45;doc&#45;system/libopenage/gui/integration/private/gui_texture_factory.h Pages: 1 -->
<svg width="404pt" height="195pt"
 viewBox="0.00 0.00 404.00 195.00" xmlns="http://www.w3.org/2000/svg" xmlns:xlink="http://www.w3.org/1999/xlink">
<g id="graph0" class="graph" transform="scale(1 1) rotate(0) translate(4 191)">
<title>/mnt/c/Users/Jameson/Desktop/git/openage&#45;new&#45;doc&#45;system/libopenage/gui/integration/private/gui_texture_factory.h</title>
<polygon fill="#ffffff" stroke="transparent" points="-4,4 -4,-191 400,-191 400,4 -4,4"/>
<!-- Node0 -->
<g id="node1" class="node">
<title>Node0</title>
<polygon fill="#bfbfbf" stroke="#000000" points="87.5,-123.5 87.5,-186.5 228.5,-186.5 228.5,-123.5 87.5,-123.5"/>
<text text-anchor="start" x="95.5" y="-174.5" font-family="Helvetica,sans-Serif" font-size="10.00" fill="#000000">/mnt/c/Users/Jameson</text>
<text text-anchor="start" x="95.5" y="-163.5" font-family="Helvetica,sans-Serif" font-size="10.00" fill="#000000">/Desktop/git/openage</text>
<text text-anchor="start" x="95.5" y="-152.5" font-family="Helvetica,sans-Serif" font-size="10.00" fill="#000000">&#45;new&#45;doc&#45;system/libopenage</text>
<text text-anchor="start" x="95.5" y="-141.5" font-family="Helvetica,sans-Serif" font-size="10.00" fill="#000000">/gui/integration/private</text>
<text text-anchor="middle" x="158" y="-130.5" font-family="Helvetica,sans-Serif" font-size="10.00" fill="#000000">/gui_texture_factory.h</text>
</g>
<!-- Node1 -->
<g id="node2" class="node">
<title>Node1</title>
<polygon fill="#ffffff" stroke="#bfbfbf" points="0,-.5 0,-19.5 52,-19.5 52,-.5 0,-.5"/>
<text text-anchor="middle" x="26" y="-7.5" font-family="Helvetica,sans-Serif" font-size="10.00" fill="#000000">memory</text>
</g>
<!-- Node0&#45;&gt;Node1 -->
<g id="edge1" class="edge">
<title>Node0&#45;&gt;Node1</title>
<path fill="none" stroke="#191970" d="M87.4368,-129.2181C68.2581,-118.9164 49.3879,-105.0938 37,-87 25.5951,-70.342 23.7594,-46.8801 24.2058,-30.2421"/>
<polygon fill="#191970" stroke="#191970" points="27.7158,-30.1639 24.7899,-19.9811 20.7271,-29.766 27.7158,-30.1639"/>
</g>
<!-- Node2 -->
<g id="node3" class="node">
<title>Node2</title>
<polygon fill="#ffffff" stroke="#bfbfbf" points="280,-62 280,-81 396,-81 396,-62 280,-62"/>
<text text-anchor="middle" x="338" y="-69" font-family="Helvetica,sans-Serif" font-size="10.00" fill="#000000">QQuickTextureFactory</text>
</g>
<!-- Node0&#45;&gt;Node2 -->
<g id="edge2" class="edge">
<title>Node0&#45;&gt;Node2</title>
<path fill="none" stroke="#191970" d="M226.0503,-123.4322C254.322,-110.3173 285.6711,-95.7748 307.9868,-85.4228"/>
<polygon fill="#191970" stroke="#191970" points="309.6625,-88.5038 317.2611,-81.1205 306.7168,-82.1537 309.6625,-88.5038"/>
</g>
<!-- Node3 -->
<g id="node4" class="node">
<title>Node3</title>
<g id="a_node4"><a xlink:href="../../d4/dea/gui__texture__handle_8h.xhtml" target="_top" xlink:title="gui_texture_handle.h">
<polygon fill="#ffffff" stroke="#000000" points="46.5,-62 46.5,-81 153.5,-81 153.5,-62 46.5,-62"/>
<text text-anchor="middle" x="100" y="-69" font-family="Helvetica,sans-Serif" font-size="10.00" fill="#000000">gui_texture_handle.h</text>
</a>
</g>
</g>
<!-- Node0&#45;&gt;Node3 -->
<g id="edge3" class="edge">
<title>Node0&#45;&gt;Node3</title>
<path fill="none" stroke="#191970" d="M136.0727,-123.4322C128.115,-111.9759 119.4007,-99.4303 112.5308,-89.5401"/>
<polygon fill="#191970" stroke="#191970" points="115.3945,-87.5276 106.815,-81.3112 109.6453,-91.521 115.3945,-87.5276"/>
</g>
<!-- Node5 -->
<g id="node6" class="node">
<title>Node5</title>
<g id="a_node6"><a xlink:href="../../dd/d97/gui__filled__texture__handles_8h.xhtml" target="_top" xlink:title="gui_filled_texture\l_handles.h">
<polygon fill="#ffffff" stroke="#000000" points="172,-56.5 172,-86.5 262,-86.5 262,-56.5 172,-56.5"/>
<text text-anchor="start" x="180" y="-74.5" font-family="Helvetica,sans-Serif" font-size="10.00" fill="#000000">gui_filled_texture</text>
<text text-anchor="middle" x="217" y="-63.5" font-family="Helvetica,sans-Serif" font-size="10.00" fill="#000000">_handles.h</text>
</a>
</g>
</g>
<!-- Node0&#45;&gt;Node5 -->
<g id="edge5" class="edge">
<title>Node0&#45;&gt;Node5</title>
<path fill="none" stroke="#191970" d="M180.3054,-123.4322C186.9624,-114.0109 194.1399,-103.8528 200.3664,-95.0407"/>
<polygon fill="#191970" stroke="#191970" points="203.3091,-96.9412 206.2214,-86.7545 197.5922,-92.9017 203.3091,-96.9412"/>
</g>
<!-- Node4 -->
<g id="node5" class="node">
<title>Node4</title>
<polygon fill="#ffffff" stroke="#bfbfbf" points="74,-.5 74,-19.5 118,-19.5 118,-.5 74,-.5"/>
<text text-anchor="middle" x="96" y="-7.5" font-family="Helvetica,sans-Serif" font-size="10.00" fill="#000000">QSize</text>
</g>
<!-- Node3&#45;&gt;Node4 -->
<g id="edge4" class="edge">
<title>Node3&#45;&gt;Node4</title>
<path fill="none" stroke="#191970" d="M99.375,-61.8906C98.8205,-53.3657 97.9928,-40.6392 97.2958,-29.9235"/>
<polygon fill="#191970" stroke="#191970" points="100.7756,-29.4966 96.6338,-19.7449 93.7903,-29.951 100.7756,-29.4966"/>
</g>
<!-- Node5&#45;&gt;Node1 -->
<g id="edge8" class="edge">
<title>Node5&#45;&gt;Node1</title>
<path fill="none" stroke="#191970" d="M171.7357,-56.9254C138.0904,-46.092 92.8159,-31.514 61.7057,-21.4969"/>
<polygon fill="#191970" stroke="#191970" points="62.7269,-18.1488 52.1354,-18.4153 60.5814,-24.8119 62.7269,-18.1488"/>
</g>
<!-- Node5&#45;&gt;Node4 -->
<g id="edge11" class="edge">
<title>Node5&#45;&gt;Node4</title>
<path fill="none" stroke="#191970" d="M187.4001,-56.4554C168.0078,-46.599 142.8258,-33.7999 123.8057,-24.1327"/>
<polygon fill="#191970" stroke="#191970" points="125.2512,-20.9412 114.7507,-19.5303 122.0795,-27.1815 125.2512,-20.9412"/>
</g>
<!-- Node6 -->
<g id="node7" class="node">
<title>Node6</title>
<polygon fill="#ffffff" stroke="#bfbfbf" points="282,-.5 282,-19.5 326,-19.5 326,-.5 282,-.5"/>
<text text-anchor="middle" x="304" y="-7.5" font-family="Helvetica,sans-Serif" font-size="10.00" fill="#000000">vector</text>
</g>
<!-- Node5&#45;&gt;Node6 -->
<g id="edge6" class="edge">
<title>Node5&#45;&gt;Node6</title>
<path fill="none" stroke="#191970" d="M238.5056,-56.2977C251.7968,-46.9022 268.8057,-34.8787 282.1588,-25.4395"/>
<polygon fill="#191970" stroke="#191970" points="284.1846,-28.2937 290.33,-19.6633 280.1439,-22.5776 284.1846,-28.2937"/>
</g>
<!-- Node7 -->
<g id="node8" class="node">
<title>Node7</title>
<polygon fill="#ffffff" stroke="#bfbfbf" points="344,-.5 344,-19.5 388,-19.5 388,-.5 344,-.5"/>
<text text-anchor="middle" x="366" y="-7.5" font-family="Helvetica,sans-Serif" font-size="10.00" fill="#000000">mutex</text>
</g>
<!-- Node5&#45;&gt;Node7 -->
<g id="edge7" class="edge">
<title>Node5&#45;&gt;Node7</title>
<path fill="none" stroke="#191970" d="M253.4495,-56.4554C278.2863,-46.204 310.8357,-32.7692 334.5386,-22.9857"/>
<polygon fill="#191970" stroke="#191970" points="335.8806,-26.2183 343.7888,-19.1677 333.2098,-19.7478 335.8806,-26.2183"/>
</g>
<!-- Node8 -->
<g id="node9" class="node">
<title>Node8</title>
<polygon fill="#ffffff" stroke="#bfbfbf" points="136.5,-.5 136.5,-19.5 195.5,-19.5 195.5,-.5 136.5,-.5"/>
<text text-anchor="middle" x="166" y="-7.5" font-family="Helvetica,sans-Serif" font-size="10.00" fill="#000000">functional</text>
</g>
<!-- Node5&#45;&gt;Node8 -->
<g id="edge9" class="edge">
<title>Node5&#45;&gt;Node8</title>
<path fill="none" stroke="#191970" d="M204.3933,-56.2977C197.2402,-47.672 188.2503,-36.8312 180.7682,-27.8087"/>
<polygon fill="#191970" stroke="#191970" points="183.2433,-25.3103 174.1657,-19.8469 177.855,-29.7787 183.2433,-25.3103"/>
</g>
<!-- Node9 -->
<g id="node10" class="node">
<title>Node9</title>
<polygon fill="#ffffff" stroke="#bfbfbf" points="214,-.5 214,-19.5 264,-19.5 264,-.5 214,-.5"/>
<text text-anchor="middle" x="239" y="-7.5" font-family="Helvetica,sans-Serif" font-size="10.00" fill="#000000">QString</text>
</g>
<!-- Node5&#45;&gt;Node9 -->
<g id="edge10" class="edge">
<title>Node5&#45;&gt;Node9</title>
<path fill="none" stroke="#191970" d="M222.4382,-56.2977C225.333,-48.2055 228.9251,-38.1639 232.0234,-29.5029"/>
<polygon fill="#191970" stroke="#191970" points="235.4047,-30.4415 235.4775,-19.8469 228.8138,-28.0837 235.4047,-30.4415"/>
</g>
</g>
</svg>
