<?xml version="1.0" encoding="UTF-8" standalone="no"?>
<!DOCTYPE svg PUBLIC "-//W3C//DTD SVG 1.1//EN"
 "http://www.w3.org/Graphics/SVG/1.1/DTD/svg11.dtd">
<!-- Generated by graphviz version 2.40.1 (20161225.0304)
 -->
<!-- Title: openage::renderer::resources::MeshData::get_data Pages: 1 -->
<svg width="264pt" height="50pt"
 viewBox="0.00 0.00 264.00 50.00" xmlns="http://www.w3.org/2000/svg" xmlns:xlink="http://www.w3.org/1999/xlink">
<g id="graph0" class="graph" transform="scale(1 1) rotate(0) translate(4 46)">
<title>openage::renderer::resources::MeshData::get_data</title>
<polygon fill="#ffffff" stroke="transparent" points="-4,4 -4,-46 260,-46 260,4 -4,4"/>
<!-- Node10 -->
<g id="node1" class="node">
<title>Node10</title>
<polygon fill="#bfbfbf" stroke="#000000" points="0,-.5 0,-41.5 110,-41.5 110,-.5 0,-.5"/>
<text text-anchor="start" x="8" y="-29.5" font-family="Helvetica,sans-Serif" font-size="10.00" fill="#000000">openage::renderer::</text>
<text text-anchor="start" x="8" y="-18.5" font-family="Helvetica,sans-Serif" font-size="10.00" fill="#000000">resources::MeshData</text>
<text text-anchor="middle" x="55" y="-7.5" font-family="Helvetica,sans-Serif" font-size="10.00" fill="#000000">::get_data</text>
</g>
<!-- Node11 -->
<g id="node2" class="node">
<title>Node11</title>
<g id="a_node2"><a xlink:href="../../d4/deb/classopenage_1_1renderer_1_1opengl_1_1_gl_geometry.xhtml#a0107bf16583a0fb4bb73dd9d74678925" target="_top" xlink:title="Initialize a meshed geometry. Relatively costly, has to initialize GL buffers and copy vertex data...">
<polygon fill="#ffffff" stroke="#000000" points="146,-.5 146,-41.5 256,-41.5 256,-.5 146,-.5"/>
<text text-anchor="start" x="154" y="-29.5" font-family="Helvetica,sans-Serif" font-size="10.00" fill="#000000">openage::renderer::</text>
<text text-anchor="start" x="154" y="-18.5" font-family="Helvetica,sans-Serif" font-size="10.00" fill="#000000">opengl::GlGeometry::</text>
<text text-anchor="middle" x="201" y="-7.5" font-family="Helvetica,sans-Serif" font-size="10.00" fill="#000000">GlGeometry</text>
</a>
</g>
</g>
<!-- Node10&#45;&gt;Node11 -->
<g id="edge1" class="edge">
<title>Node10&#45;&gt;Node11</title>
<path fill="none" stroke="#191970" d="M120.4101,-21C128.8647,-21 137.4567,-21 145.7256,-21"/>
<polygon fill="#191970" stroke="#191970" points="120.1964,-17.5001 110.1963,-21 120.1963,-24.5001 120.1964,-17.5001"/>
</g>
</g>
</svg>
