<?xml version="1.0" encoding="UTF-8" standalone="no"?>
<!DOCTYPE svg PUBLIC "-//W3C//DTD SVG 1.1//EN"
 "http://www.w3.org/Graphics/SVG/1.1/DTD/svg11.dtd">
<!-- Generated by graphviz version 2.40.1 (20161225.0304)
 -->
<!-- Title: openage::input::sdl_mouse Pages: 1 -->
<svg width="289pt" height="39pt"
 viewBox="0.00 0.00 289.00 39.00" xmlns="http://www.w3.org/2000/svg" xmlns:xlink="http://www.w3.org/1999/xlink">
<g id="graph0" class="graph" transform="scale(1 1) rotate(0) translate(4 35)">
<title>openage::input::sdl_mouse</title>
<polygon fill="#ffffff" stroke="transparent" points="-4,4 -4,-35 285,-35 285,4 -4,4"/>
<!-- Node28 -->
<g id="node1" class="node">
<title>Node28</title>
<polygon fill="#bfbfbf" stroke="#000000" points="0,-.5 0,-30.5 99,-30.5 99,-.5 0,-.5"/>
<text text-anchor="start" x="8" y="-18.5" font-family="Helvetica,sans-Serif" font-size="10.00" fill="#000000">openage::input::sdl</text>
<text text-anchor="middle" x="49.5" y="-7.5" font-family="Helvetica,sans-Serif" font-size="10.00" fill="#000000">_mouse</text>
</g>
<!-- Node29 -->
<g id="node2" class="node">
<title>Node29</title>
<g id="a_node2"><a xlink:href="../../d7/df3/classopenage_1_1input_1_1_input_manager.xhtml#a2e46dfc175d1fd66e92a8644d994e6ab" target="_top" xlink:title="When a SDL event happens, this is called. ">
<polygon fill="#ffffff" stroke="#000000" points="135,-.5 135,-30.5 281,-30.5 281,-.5 135,-.5"/>
<text text-anchor="start" x="143" y="-18.5" font-family="Helvetica,sans-Serif" font-size="10.00" fill="#000000">openage::input::InputManager</text>
<text text-anchor="middle" x="208" y="-7.5" font-family="Helvetica,sans-Serif" font-size="10.00" fill="#000000">::on_input</text>
</a>
</g>
</g>
<!-- Node28&#45;&gt;Node29 -->
<g id="edge1" class="edge">
<title>Node28&#45;&gt;Node29</title>
<path fill="none" stroke="#191970" d="M109.2656,-15.5C117.6535,-15.5 126.352,-15.5 134.9524,-15.5"/>
<polygon fill="#191970" stroke="#191970" points="109.2155,-12.0001 99.2155,-15.5 109.2155,-19.0001 109.2155,-12.0001"/>
</g>
</g>
</svg>
