<?xml version="1.0" encoding="UTF-8" standalone="no"?>
<!DOCTYPE svg PUBLIC "-//W3C//DTD SVG 1.1//EN"
 "http://www.w3.org/Graphics/SVG/1.1/DTD/svg11.dtd">
<!-- Generated by graphviz version 2.40.1 (20161225.0304)
 -->
<!-- Title: openage::pyinterface::check Pages: 1 -->
<svg width="692pt" height="66pt"
 viewBox="0.00 0.00 692.00 66.00" xmlns="http://www.w3.org/2000/svg" xmlns:xlink="http://www.w3.org/1999/xlink">
<g id="graph0" class="graph" transform="scale(1 1) rotate(0) translate(4 62)">
<title>openage::pyinterface::check</title>
<polygon fill="#ffffff" stroke="transparent" points="-4,4 -4,-62 688,-62 688,4 -4,4"/>
<!-- Node21 -->
<g id="node1" class="node">
<title>Node21</title>
<polygon fill="#bfbfbf" stroke="#000000" points="0,-14 0,-44 107,-44 107,-14 0,-14"/>
<text text-anchor="start" x="8" y="-32" font-family="Helvetica,sans-Serif" font-size="10.00" fill="#000000">openage::pyinterface</text>
<text text-anchor="middle" x="53.5" y="-21" font-family="Helvetica,sans-Serif" font-size="10.00" fill="#000000">::check</text>
</g>
<!-- Node22 -->
<g id="node2" class="node">
<title>Node22</title>
<g id="a_node2"><a xlink:href="../../d8/de6/namespaceopenage_1_1cppinterface_1_1setup.xhtml#ae1c256c521da867c4f2ee7e9a7460ad3" target="_top" xlink:title="After a call to setup(), the C++ interface is in a usable state. ">
<polygon fill="#ffffff" stroke="#000000" points="143,-19.5 143,-38.5 307,-38.5 307,-19.5 143,-19.5"/>
<text text-anchor="middle" x="225" y="-26.5" font-family="Helvetica,sans-Serif" font-size="10.00" fill="#000000">openage.cppinterface.setup.setup</text>
</a>
</g>
</g>
<!-- Node21&#45;&gt;Node22 -->
<g id="edge1" class="edge">
<title>Node21&#45;&gt;Node22</title>
<path fill="none" stroke="#191970" d="M117.5576,-29C125.8018,-29 134.3323,-29 142.8162,-29"/>
<polygon fill="#191970" stroke="#191970" points="117.2932,-25.5001 107.2931,-29 117.2931,-32.5001 117.2932,-25.5001"/>
</g>
<!-- Node23 -->
<g id="node3" class="node">
<title>Node23</title>
<g id="a_node3"><a xlink:href="../../d6/d02/namespaceopenage_1_1convert_1_1main.xhtml#ab4e998cdda52db3b3cae6efbcd2eda23" target="_top" xlink:title="CLI entry point. ">
<polygon fill="#ffffff" stroke="#000000" points="360,-38.5 360,-57.5 497,-57.5 497,-38.5 360,-38.5"/>
<text text-anchor="middle" x="428.5" y="-45.5" font-family="Helvetica,sans-Serif" font-size="10.00" fill="#000000">openage.convert.main.main</text>
</a>
</g>
</g>
<!-- Node22&#45;&gt;Node23 -->
<g id="edge2" class="edge">
<title>Node22&#45;&gt;Node23</title>
<path fill="none" stroke="#191970" d="M317.472,-37.6338C331.6811,-38.9604 346.1334,-40.3098 359.7084,-41.5772"/>
<polygon fill="#191970" stroke="#191970" points="317.4668,-34.1181 307.1847,-36.6733 316.816,-41.0878 317.4668,-34.1181"/>
</g>
<!-- Node24 -->
<g id="node4" class="node">
<title>Node24</title>
<g id="a_node4"><a xlink:href="../../d7/d35/namespaceopenage_1_1testing_1_1main.xhtml#a346b6762051aaadb5cc302e1adbf5f1e" target="_top" xlink:title="Processes the given args, detecting errors. ">
<polygon fill="#ffffff" stroke="#000000" points="343,-.5 343,-19.5 514,-19.5 514,-.5 343,-.5"/>
<text text-anchor="middle" x="428.5" y="-7.5" font-family="Helvetica,sans-Serif" font-size="10.00" fill="#000000">openage.testing.main.process_args</text>
</a>
</g>
</g>
<!-- Node22&#45;&gt;Node24 -->
<g id="edge3" class="edge">
<title>Node22&#45;&gt;Node24</title>
<path fill="none" stroke="#191970" d="M317.3987,-20.3731C325.8202,-19.5868 334.3279,-18.7925 342.6884,-18.0119"/>
<polygon fill="#191970" stroke="#191970" points="316.816,-16.9122 307.1847,-21.3267 317.4668,-23.8819 316.816,-16.9122"/>
</g>
<!-- Node25 -->
<g id="node5" class="node">
<title>Node25</title>
<g id="a_node5"><a xlink:href="../../d7/d35/namespaceopenage_1_1testing_1_1main.xhtml#a22daa2dd4990bc8d016d850a9d9fc5fb" target="_top" xlink:title="CLI main method. ">
<polygon fill="#ffffff" stroke="#000000" points="550,-.5 550,-19.5 684,-19.5 684,-.5 550,-.5"/>
<text text-anchor="middle" x="617" y="-7.5" font-family="Helvetica,sans-Serif" font-size="10.00" fill="#000000">openage.testing.main.main</text>
</a>
</g>
</g>
<!-- Node24&#45;&gt;Node25 -->
<g id="edge4" class="edge">
<title>Node24&#45;&gt;Node25</title>
<path fill="none" stroke="#191970" d="M524.3206,-10C532.9492,-10 541.5603,-10 549.8644,-10"/>
<polygon fill="#191970" stroke="#191970" points="524.2007,-6.5001 514.2006,-10 524.2006,-13.5001 524.2007,-6.5001"/>
</g>
</g>
</svg>
