<?xml version="1.0" encoding="UTF-8" standalone="no"?>
<!DOCTYPE svg PUBLIC "-//W3C//DTD SVG 1.1//EN"
 "http://www.w3.org/Graphics/SVG/1.1/DTD/svg11.dtd">
<!-- Generated by graphviz version 2.40.1 (20161225.0304)
 -->
<!-- Title: openage::pyinterface::add_py_if_component Pages: 1 -->
<svg width="270pt" height="39pt"
 viewBox="0.00 0.00 270.00 39.00" xmlns="http://www.w3.org/2000/svg" xmlns:xlink="http://www.w3.org/1999/xlink">
<g id="graph0" class="graph" transform="scale(1 1) rotate(0) translate(4 35)">
<title>openage::pyinterface::add_py_if_component</title>
<polygon fill="#ffffff" stroke="transparent" points="-4,4 -4,-35 266,-35 266,4 -4,4"/>
<!-- Node10 -->
<g id="node1" class="node">
<title>Node10</title>
<polygon fill="#bfbfbf" stroke="#000000" points="0,-.5 0,-30.5 118,-30.5 118,-.5 0,-.5"/>
<text text-anchor="start" x="8" y="-18.5" font-family="Helvetica,sans-Serif" font-size="10.00" fill="#000000">openage::pyinterface</text>
<text text-anchor="middle" x="59" y="-7.5" font-family="Helvetica,sans-Serif" font-size="10.00" fill="#000000">::add_py_if_component</text>
</g>
<!-- Node11 -->
<g id="node2" class="node">
<title>Node11</title>
<g id="a_node2"><a xlink:href="../../d2/d29/classopenage_1_1pyinterface_1_1_py_if_func.xhtml#a151c2faee8d91169645204f1eb3a6a22" target="_top" xlink:title="openage::pyinterface\l::PyIfFunc::PyIfFunc">
<polygon fill="#ffffff" stroke="#000000" points="154,-.5 154,-30.5 262,-30.5 262,-.5 154,-.5"/>
<text text-anchor="start" x="162" y="-18.5" font-family="Helvetica,sans-Serif" font-size="10.00" fill="#000000">openage::pyinterface</text>
<text text-anchor="middle" x="208" y="-7.5" font-family="Helvetica,sans-Serif" font-size="10.00" fill="#000000">::PyIfFunc::PyIfFunc</text>
</a>
</g>
</g>
<!-- Node10&#45;&gt;Node11 -->
<g id="edge1" class="edge">
<title>Node10&#45;&gt;Node11</title>
<path fill="none" stroke="#191970" d="M128.5522,-15.5C137.002,-15.5 145.5372,-15.5 153.7202,-15.5"/>
<polygon fill="#191970" stroke="#191970" points="128.3169,-12.0001 118.3169,-15.5 128.3168,-19.0001 128.3169,-12.0001"/>
</g>
</g>
</svg>
