<?xml version="1.0" encoding="UTF-8" standalone="no"?>
<!DOCTYPE svg PUBLIC "-//W3C//DTD SVG 1.1//EN"
 "http://www.w3.org/Graphics/SVG/1.1/DTD/svg11.dtd">
<!-- Generated by graphviz version 2.40.1 (20161225.0304)
 -->
<!-- Title: openage.convert.binpack.BinaryTreePacker.grow_node Pages: 1 -->
<svg width="514pt" height="106pt"
 viewBox="0.00 0.00 514.00 106.00" xmlns="http://www.w3.org/2000/svg" xmlns:xlink="http://www.w3.org/1999/xlink">
<g id="graph0" class="graph" transform="scale(1 1) rotate(0) translate(4 102)">
<title>openage.convert.binpack.BinaryTreePacker.grow_node</title>
<polygon fill="#ffffff" stroke="transparent" points="-4,4 -4,-102 510,-102 510,4 -4,4"/>
<!-- Node21 -->
<g id="node1" class="node">
<title>Node21</title>
<polygon fill="#bfbfbf" stroke="#000000" points="0,-24.5 0,-54.5 145,-54.5 145,-24.5 0,-24.5"/>
<text text-anchor="start" x="8" y="-42.5" font-family="Helvetica,sans-Serif" font-size="10.00" fill="#000000">openage.convert.binpack.</text>
<text text-anchor="middle" x="72.5" y="-31.5" font-family="Helvetica,sans-Serif" font-size="10.00" fill="#000000">BinaryTreePacker.grow_node</text>
</g>
<!-- Node22 -->
<g id="node2" class="node">
<title>Node22</title>
<g id="a_node2"><a xlink:href="../../dd/d5f/classopenage_1_1convert_1_1binpack_1_1_binary_tree_packer.xhtml#ab2ad7afcbebffd5353e9004157b45644" target="_top" xlink:title="openage.convert.binpack.\lBinaryTreePacker.grow_down">
<polygon fill="#ffffff" stroke="#000000" points="181,-49.5 181,-79.5 328,-79.5 328,-49.5 181,-49.5"/>
<text text-anchor="start" x="189" y="-67.5" font-family="Helvetica,sans-Serif" font-size="10.00" fill="#000000">openage.convert.binpack.</text>
<text text-anchor="middle" x="254.5" y="-56.5" font-family="Helvetica,sans-Serif" font-size="10.00" fill="#000000">BinaryTreePacker.grow_down</text>
</a>
</g>
</g>
<!-- Node21&#45;&gt;Node22 -->
<g id="edge1" class="edge">
<title>Node21&#45;&gt;Node22</title>
<path fill="none" stroke="#191970" d="M145.2159,-49.4884C153.6133,-50.6419 162.2274,-51.8252 170.756,-52.9967"/>
<polygon fill="#191970" stroke="#191970" points="170.3271,-56.4706 180.7104,-54.3641 171.2797,-49.5357 170.3271,-56.4706"/>
</g>
<!-- Node25 -->
<g id="node5" class="node">
<title>Node25</title>
<g id="a_node5"><a xlink:href="../../dd/d5f/classopenage_1_1convert_1_1binpack_1_1_binary_tree_packer.xhtml#abf53a5df2edae1fc544296ab05c08ff9" target="_top" xlink:title="openage.convert.binpack.\lBinaryTreePacker.grow_right">
<polygon fill="#ffffff" stroke="#000000" points="183,-.5 183,-30.5 326,-30.5 326,-.5 183,-.5"/>
<text text-anchor="start" x="191" y="-18.5" font-family="Helvetica,sans-Serif" font-size="10.00" fill="#000000">openage.convert.binpack.</text>
<text text-anchor="middle" x="254.5" y="-7.5" font-family="Helvetica,sans-Serif" font-size="10.00" fill="#000000">BinaryTreePacker.grow_right</text>
</a>
</g>
</g>
<!-- Node21&#45;&gt;Node25 -->
<g id="edge5" class="edge">
<title>Node21&#45;&gt;Node25</title>
<path fill="none" stroke="#191970" d="M145.2159,-29.9111C154.3048,-28.7125 163.6476,-27.4805 172.8611,-26.2656"/>
<polygon fill="#191970" stroke="#191970" points="173.3332,-29.7337 182.7897,-24.9563 172.418,-22.7938 173.3332,-29.7337"/>
</g>
<!-- Node23 -->
<g id="node3" class="node">
<title>Node23</title>
<g id="a_node3"><a xlink:href="../../dd/d5f/classopenage_1_1convert_1_1binpack_1_1_binary_tree_packer.xhtml#a3bc196b2ae9a97ca5e35fbd0c0d25ca1" target="_top" xlink:title="openage.convert.binpack.\lBinaryTreePacker.find_node">
<polygon fill="#ffffff" stroke="#000000" points="365,-49.5 365,-79.5 505,-79.5 505,-49.5 365,-49.5"/>
<text text-anchor="start" x="373" y="-67.5" font-family="Helvetica,sans-Serif" font-size="10.00" fill="#000000">openage.convert.binpack.</text>
<text text-anchor="middle" x="435" y="-56.5" font-family="Helvetica,sans-Serif" font-size="10.00" fill="#000000">BinaryTreePacker.find_node</text>
</a>
</g>
</g>
<!-- Node22&#45;&gt;Node23 -->
<g id="edge2" class="edge">
<title>Node22&#45;&gt;Node23</title>
<path fill="none" stroke="#191970" d="M328.1766,-64.5C336.8646,-64.5 345.7648,-64.5 354.54,-64.5"/>
<polygon fill="#191970" stroke="#191970" points="354.7638,-68.0001 364.7638,-64.5 354.7638,-61.0001 354.7638,-68.0001"/>
</g>
<!-- Node24 -->
<g id="node4" class="node">
<title>Node24</title>
<g id="a_node4"><a xlink:href="../../dd/d5f/classopenage_1_1convert_1_1binpack_1_1_binary_tree_packer.xhtml#a32c685bf642e7e1d51c8236da236e7d3" target="_top" xlink:title="openage.convert.binpack.\lBinaryTreePacker.split_node">
<polygon fill="#ffffff" stroke="#000000" points="364,-.5 364,-30.5 506,-30.5 506,-.5 364,-.5"/>
<text text-anchor="start" x="372" y="-18.5" font-family="Helvetica,sans-Serif" font-size="10.00" fill="#000000">openage.convert.binpack.</text>
<text text-anchor="middle" x="435" y="-7.5" font-family="Helvetica,sans-Serif" font-size="10.00" fill="#000000">BinaryTreePacker.split_node</text>
</a>
</g>
</g>
<!-- Node22&#45;&gt;Node24 -->
<g id="edge4" class="edge">
<title>Node22&#45;&gt;Node24</title>
<path fill="none" stroke="#191970" d="M310.1288,-49.3986C329.0034,-44.2747 350.2592,-38.5044 369.8108,-33.1968"/>
<polygon fill="#191970" stroke="#191970" points="370.8212,-36.5493 379.5549,-30.5516 368.9872,-29.7938 370.8212,-36.5493"/>
</g>
<!-- Node23&#45;&gt;Node23 -->
<g id="edge3" class="edge">
<title>Node23&#45;&gt;Node23</title>
<path fill="none" stroke="#191970" d="M403.6313,-79.659C396.0672,-89.0566 406.5234,-98 435,-98 452.3529,-98 463.0142,-94.679 466.9838,-89.9579"/>
<polygon fill="#191970" stroke="#191970" points="470.4588,-89.4325 466.3687,-79.659 463.4712,-89.8499 470.4588,-89.4325"/>
</g>
<!-- Node25&#45;&gt;Node23 -->
<g id="edge6" class="edge">
<title>Node25&#45;&gt;Node23</title>
<path fill="none" stroke="#191970" d="M310.1288,-30.6014C329.0034,-35.7253 350.2592,-41.4956 369.8108,-46.8032"/>
<polygon fill="#191970" stroke="#191970" points="368.9872,-50.2062 379.5549,-49.4484 370.8212,-43.4507 368.9872,-50.2062"/>
</g>
<!-- Node25&#45;&gt;Node24 -->
<g id="edge7" class="edge">
<title>Node25&#45;&gt;Node24</title>
<path fill="none" stroke="#191970" d="M326.0976,-15.5C335.1083,-15.5 344.3783,-15.5 353.5269,-15.5"/>
<polygon fill="#191970" stroke="#191970" points="353.7841,-19.0001 363.7841,-15.5 353.7841,-12.0001 353.7841,-19.0001"/>
</g>
</g>
</svg>
