<?xml version="1.0" encoding="UTF-8" standalone="no"?>
<!DOCTYPE svg PUBLIC "-//W3C//DTD SVG 1.1//EN"
 "http://www.w3.org/Graphics/SVG/1.1/DTD/svg11.dtd">
<!-- Generated by graphviz version 2.40.1 (20161225.0304)
 -->
<!-- Title: openage.convert.binpack.BinaryTreePacker.find_node Pages: 1 -->
<!--zoomable 110 -->
<svg id="main" version="1.1" xmlns="http://www.w3.org/2000/svg" xmlns:xlink="http://www.w3.org/1999/xlink" xml:space="preserve" onload="init(evt)">
<style type="text/css"><![CDATA[
.edge:hover path { stroke: red; }
.edge:hover polygon { stroke: red; fill: red; }
]]></style>
<script type="text/javascript"><![CDATA[
var edges = document.getElementsByTagName('g');
if (edges && edges.length) {
  for (var i=0;i<edges.length;i++) {
    if (edges[i].id.substr(0,4)=='edge') {
      edges[i].setAttribute('class','edge');
    }
  }
}
]]></script>
        <defs>
                <circle id="rim" cx="0" cy="0" r="7"/>
                <circle id="rim2" cx="0" cy="0" r="3.5"/>
                <g id="zoomPlus">
                        <use xlink:href="#rim" fill="#404040">
                                <set attributeName="fill" to="#808080" begin="zoomplus.mouseover" end="zoomplus.mouseout"/>
                        </use>
                        <path d="M-4,0h8M0,-4v8" fill="none" stroke="white" stroke-width="1.5" pointer-events="none"/>
                </g>
                <g id="zoomMin">
                        <use xlink:href="#rim" fill="#404040">
                                <set attributeName="fill" to="#808080" begin="zoomminus.mouseover" end="zoomminus.mouseout"/>
                        </use>
                        <path d="M-4,0h8" fill="none" stroke="white" stroke-width="1.5" pointer-events="none"/>
                </g>
                <g id="dirArrow">
                        <path fill="none" stroke="white" stroke-width="1.5" d="M0,-3.0v7 M-2.5,-0.5L0,-3.0L2.5,-0.5"/>
                </g>
               <g id="resetDef">
                       <use xlink:href="#rim2" fill="#404040">
                               <set attributeName="fill" to="#808080" begin="reset.mouseover" end="reset.mouseout"/>
                       </use>
               </g>
        </defs>

<script type="text/javascript">
var viewWidth = 676;
var viewHeight = 110;
var sectionId = 'dynsection-3';
</script>
<script xlink:href="../../svgpan.js"/>
<svg id="graph" class="graph">
<g id="viewport">
<title>openage.convert.binpack.BinaryTreePacker.find_node</title>
<polygon fill="#ffffff" stroke="transparent" points="-4,4 -4,-106 672,-106 672,4 -4,4"/>
<!-- Node3 -->
<g id="node1" class="node">
<title>Node3</title>
<polygon fill="#bfbfbf" stroke="#000000" points="0,-49.5 0,-79.5 140,-79.5 140,-49.5 0,-49.5"/>
<text text-anchor="start" x="8" y="-67.5" font-family="Helvetica,sans-Serif" font-size="10.00" fill="#000000">openage.convert.binpack.</text>
<text text-anchor="middle" x="70" y="-56.5" font-family="Helvetica,sans-Serif" font-size="10.00" fill="#000000">BinaryTreePacker.find_node</text>
</g>
<!-- Node3&#45;&gt;Node3 -->
<g id="edge1" class="edge">
<title>Node3&#45;&gt;Node3</title>
<path fill="none" stroke="#191970" d="M38.3715,-89.9579C42.2971,-94.679 52.8399,-98 70,-98 98.1602,-98 108.5002,-89.0566 101.0202,-79.659"/>
<polygon fill="#191970" stroke="#191970" points="41.884,-89.848 38.9798,-79.659 34.8962,-89.4352 41.884,-89.848"/>
</g>
<!-- Node4 -->
<g id="node2" class="node">
<title>Node4</title>
<g id="a_node2"><a xlink:href="../../dd/d5f/classopenage_1_1convert_1_1binpack_1_1_binary_tree_packer.xhtml#ae48dccc105acdb2ded7629bc1060847c" target="_top" xlink:title="openage.convert.binpack.\lBinaryTreePacker.fit">
<polygon fill="#ffffff" stroke="#000000" points="540,-71.5 540,-101.5 668,-101.5 668,-71.5 540,-71.5"/>
<text text-anchor="start" x="548" y="-89.5" font-family="Helvetica,sans-Serif" font-size="10.00" fill="#000000">openage.convert.binpack.</text>
<text text-anchor="middle" x="604" y="-78.5" font-family="Helvetica,sans-Serif" font-size="10.00" fill="#000000">BinaryTreePacker.fit</text>
</a>
</g>
</g>
<!-- Node3&#45;&gt;Node4 -->
<g id="edge2" class="edge">
<title>Node3&#45;&gt;Node4</title>
<path fill="none" stroke="#191970" d="M133.0049,-81.8835C147.0491,-85.0495 161.945,-87.865 176,-89.5 304.4288,-104.44 456,-97.685 539.9236,-91.8247"/>
<polygon fill="#191970" stroke="#191970" points="133.4882,-78.402 122.9534,-79.528 131.891,-85.2173 133.4882,-78.402"/>
</g>
<!-- Node5 -->
<g id="node3" class="node">
<title>Node5</title>
<g id="a_node3"><a xlink:href="../../dd/d5f/classopenage_1_1convert_1_1binpack_1_1_binary_tree_packer.xhtml#ab2ad7afcbebffd5353e9004157b45644" target="_top" xlink:title="openage.convert.binpack.\lBinaryTreePacker.grow_down">
<polygon fill="#ffffff" stroke="#000000" points="176,-49.5 176,-79.5 323,-79.5 323,-49.5 176,-49.5"/>
<text text-anchor="start" x="184" y="-67.5" font-family="Helvetica,sans-Serif" font-size="10.00" fill="#000000">openage.convert.binpack.</text>
<text text-anchor="middle" x="249.5" y="-56.5" font-family="Helvetica,sans-Serif" font-size="10.00" fill="#000000">BinaryTreePacker.grow_down</text>
</a>
</g>
</g>
<!-- Node3&#45;&gt;Node5 -->
<g id="edge3" class="edge">
<title>Node3&#45;&gt;Node5</title>
<path fill="none" stroke="#191970" d="M150.4142,-64.5C158.8744,-64.5 167.4465,-64.5 175.8253,-64.5"/>
<polygon fill="#191970" stroke="#191970" points="150.1706,-61.0001 140.1706,-64.5 150.1706,-68.0001 150.1706,-61.0001"/>
</g>
<!-- Node7 -->
<g id="node5" class="node">
<title>Node7</title>
<g id="a_node5"><a xlink:href="../../dd/d5f/classopenage_1_1convert_1_1binpack_1_1_binary_tree_packer.xhtml#abf53a5df2edae1fc544296ab05c08ff9" target="_top" xlink:title="openage.convert.binpack.\lBinaryTreePacker.grow_right">
<polygon fill="#ffffff" stroke="#000000" points="178,-.5 178,-30.5 321,-30.5 321,-.5 178,-.5"/>
<text text-anchor="start" x="186" y="-18.5" font-family="Helvetica,sans-Serif" font-size="10.00" fill="#000000">openage.convert.binpack.</text>
<text text-anchor="middle" x="249.5" y="-7.5" font-family="Helvetica,sans-Serif" font-size="10.00" fill="#000000">BinaryTreePacker.grow_right</text>
</a>
</g>
</g>
<!-- Node3&#45;&gt;Node7 -->
<g id="edge6" class="edge">
<title>Node3&#45;&gt;Node7</title>
<path fill="none" stroke="#191970" d="M135.0174,-46.7515C154.4716,-41.4409 175.6075,-35.6712 194.3621,-30.5516"/>
<polygon fill="#191970" stroke="#191970" points="134.0459,-43.3886 125.3206,-49.3986 135.8893,-50.1415 134.0459,-43.3886"/>
</g>
<!-- Node6 -->
<g id="node4" class="node">
<title>Node6</title>
<g id="a_node4"><a xlink:href="../../dd/d5f/classopenage_1_1convert_1_1binpack_1_1_binary_tree_packer.xhtml#a61f11eee28580e8d9f377e2a2a2be97f" target="_top" xlink:title="openage.convert.binpack.\lBinaryTreePacker.grow_node">
<polygon fill="#ffffff" stroke="#000000" points="359,-49.5 359,-79.5 504,-79.5 504,-49.5 359,-49.5"/>
<text text-anchor="start" x="367" y="-67.5" font-family="Helvetica,sans-Serif" font-size="10.00" fill="#000000">openage.convert.binpack.</text>
<text text-anchor="middle" x="431.5" y="-56.5" font-family="Helvetica,sans-Serif" font-size="10.00" fill="#000000">BinaryTreePacker.grow_node</text>
</a>
</g>
</g>
<!-- Node5&#45;&gt;Node6 -->
<g id="edge4" class="edge">
<title>Node5&#45;&gt;Node6</title>
<path fill="none" stroke="#191970" d="M333.0693,-64.5C341.6965,-64.5 350.4133,-64.5 358.9068,-64.5"/>
<polygon fill="#191970" stroke="#191970" points="333.0018,-61.0001 323.0018,-64.5 333.0017,-68.0001 333.0018,-61.0001"/>
</g>
<!-- Node6&#45;&gt;Node4 -->
<g id="edge5" class="edge">
<title>Node6&#45;&gt;Node4</title>
<path fill="none" stroke="#191970" d="M514.2405,-75.0524C522.8674,-76.1527 531.5411,-77.2589 539.9158,-78.3269"/>
<polygon fill="#191970" stroke="#191970" points="514.518,-71.5595 504.1556,-73.7662 513.6324,-78.5033 514.518,-71.5595"/>
</g>
<!-- Node7&#45;&gt;Node6 -->
<g id="edge7" class="edge">
<title>Node7&#45;&gt;Node6</title>
<path fill="none" stroke="#191970" d="M315.4229,-33.2485C335.1481,-38.5591 356.5783,-44.3288 375.5941,-49.4484"/>
<polygon fill="#191970" stroke="#191970" points="316.1572,-29.8216 305.5911,-30.6014 314.3373,-36.5809 316.1572,-29.8216"/>
</g>
</g>
</svg>
        <g id="navigator" transform="translate(0 0)" fill="#404254">
                <rect fill="#f2f5e9" fill-opacity="0.5" stroke="#606060" stroke-width=".5" x="0" y="0" width="60" height="60"/>
                <use id="zoomplus" xlink:href="#zoomPlus" x="17" y="9" onmousedown="handleZoom(evt,'in')"/>
                <use id="zoomminus" xlink:href="#zoomMin" x="42" y="9" onmousedown="handleZoom(evt,'out')"/>
                <use id="reset" xlink:href="#resetDef" x="30" y="36" onmousedown="handleReset()"/>
                <g id="arrowUp" xlink:href="#dirArrow" transform="translate(30 24)" onmousedown="handlePan(0,-1)">
                  <use xlink:href="#rim" fill="#404040">
                        <set attributeName="fill" to="#808080" begin="arrowUp.mouseover" end="arrowUp.mouseout"/>
                  </use>
                  <path fill="none" stroke="white" stroke-width="1.5" d="M0,-3.0v7 M-2.5,-0.5L0,-3.0L2.5,-0.5"/>
                </g>
                <g id="arrowRight" xlink:href="#dirArrow" transform="rotate(90) translate(36 -43)" onmousedown="handlePan(1,0)">
                  <use xlink:href="#rim" fill="#404040">
                        <set attributeName="fill" to="#808080" begin="arrowRight.mouseover" end="arrowRight.mouseout"/>
                  </use>
                  <path fill="none" stroke="white" stroke-width="1.5" d="M0,-3.0v7 M-2.5,-0.5L0,-3.0L2.5,-0.5"/>
                </g>
                <g id="arrowDown" xlink:href="#dirArrow" transform="rotate(180) translate(-30 -48)" onmousedown="handlePan(0,1)">
                  <use xlink:href="#rim" fill="#404040">
                        <set attributeName="fill" to="#808080" begin="arrowDown.mouseover" end="arrowDown.mouseout"/>
                  </use>
                  <path fill="none" stroke="white" stroke-width="1.5" d="M0,-3.0v7 M-2.5,-0.5L0,-3.0L2.5,-0.5"/>
                </g>
                <g id="arrowLeft" xlink:href="#dirArrow" transform="rotate(270) translate(-36 17)" onmousedown="handlePan(-1,0)">
                  <use xlink:href="#rim" fill="#404040">
                        <set attributeName="fill" to="#808080" begin="arrowLeft.mouseover" end="arrowLeft.mouseout"/>
                  </use>
                  <path fill="none" stroke="white" stroke-width="1.5" d="M0,-3.0v7 M-2.5,-0.5L0,-3.0L2.5,-0.5"/>
                </g>
        </g>
        <svg viewBox="0 0 15 15" width="100%" height="30px" preserveAspectRatio="xMaxYMin meet">
         <g id="arrow_out" transform="scale(0.3 0.3)">
          <a xlink:href="classopenage_1_1convert_1_1binpack_1_1_binary_tree_packer_a3bc196b2ae9a97ca5e35fbd0c0d25ca1_icgraph_org.svg" target="_base">
           <rect id="button" ry="5" rx="5" y="6" x="6" height="38" width="38"
                fill="#f2f5e9" fill-opacity="0.5" stroke="#606060" stroke-width="1.0"/>
           <path id="arrow"
             d="M 11.500037,31.436501 C 11.940474,20.09759 22.043105,11.32322 32.158766,21.979434 L 37.068811,17.246167 C 37.068811,17.246167 37.088388,32 37.088388,32 L 22.160133,31.978069 C 22.160133,31.978069 26.997745,27.140456 26.997745,27.140456 C 18.528582,18.264221 13.291696,25.230495 11.500037,31.436501 z"
             style="fill:#404040;"/>
          </a>
         </g>
        </svg>
</svg>
