<?xml version="1.0" encoding="UTF-8" standalone="no"?>
<!DOCTYPE svg PUBLIC "-//W3C//DTD SVG 1.1//EN"
 "http://www.w3.org/Graphics/SVG/1.1/DTD/svg11.dtd">
<!-- Generated by graphviz version 2.40.1 (20161225.0304)
 -->
<!-- Title: /mnt/c/Users/Jameson/Desktop/git/openage&#45;new&#45;doc&#45;system/libopenage/error/backtrace.h Pages: 1 -->
<svg width="262pt" height="117pt"
 viewBox="0.00 0.00 261.50 117.00" xmlns="http://www.w3.org/2000/svg" xmlns:xlink="http://www.w3.org/1999/xlink">
<g id="graph0" class="graph" transform="scale(1 1) rotate(0) translate(4 113)">
<title>/mnt/c/Users/Jameson/Desktop/git/openage&#45;new&#45;doc&#45;system/libopenage/error/backtrace.h</title>
<polygon fill="#ffffff" stroke="transparent" points="-4,4 -4,-113 257.5,-113 257.5,4 -4,4"/>
<!-- Node0 -->
<g id="node1" class="node">
<title>Node0</title>
<polygon fill="#bfbfbf" stroke="#000000" points="45.5,-56.5 45.5,-108.5 186.5,-108.5 186.5,-56.5 45.5,-56.5"/>
<text text-anchor="start" x="53.5" y="-96.5" font-family="Helvetica,sans-Serif" font-size="10.00" fill="#000000">/mnt/c/Users/Jameson</text>
<text text-anchor="start" x="53.5" y="-85.5" font-family="Helvetica,sans-Serif" font-size="10.00" fill="#000000">/Desktop/git/openage</text>
<text text-anchor="start" x="53.5" y="-74.5" font-family="Helvetica,sans-Serif" font-size="10.00" fill="#000000">&#45;new&#45;doc&#45;system/libopenage</text>
<text text-anchor="middle" x="116" y="-63.5" font-family="Helvetica,sans-Serif" font-size="10.00" fill="#000000">/error/backtrace.h</text>
</g>
<!-- Node1 -->
<g id="node2" class="node">
<title>Node1</title>
<polygon fill="#ffffff" stroke="#bfbfbf" points="0,-.5 0,-19.5 44,-19.5 44,-.5 0,-.5"/>
<text text-anchor="middle" x="22" y="-7.5" font-family="Helvetica,sans-Serif" font-size="10.00" fill="#000000">vector</text>
</g>
<!-- Node0&#45;&gt;Node1 -->
<g id="edge1" class="edge">
<title>Node0&#45;&gt;Node1</title>
<path fill="none" stroke="#191970" d="M82.0638,-56.3258C68.8215,-46.1123 54.0761,-34.7396 42.5094,-25.8184"/>
<polygon fill="#191970" stroke="#191970" points="44.4173,-22.8699 34.3613,-19.534 40.1422,-28.4128 44.4173,-22.8699"/>
</g>
<!-- Node2 -->
<g id="node3" class="node">
<title>Node2</title>
<polygon fill="#ffffff" stroke="#bfbfbf" points="62.5,-.5 62.5,-19.5 103.5,-19.5 103.5,-.5 62.5,-.5"/>
<text text-anchor="middle" x="83" y="-7.5" font-family="Helvetica,sans-Serif" font-size="10.00" fill="#000000">string</text>
</g>
<!-- Node0&#45;&gt;Node2 -->
<g id="edge2" class="edge">
<title>Node0&#45;&gt;Node2</title>
<path fill="none" stroke="#191970" d="M104.0862,-56.3258C99.9387,-47.2138 95.3711,-37.179 91.5507,-28.7857"/>
<polygon fill="#191970" stroke="#191970" points="94.668,-27.1855 87.3396,-19.534 88.2969,-30.0855 94.668,-27.1855"/>
</g>
<!-- Node3 -->
<g id="node4" class="node">
<title>Node3</title>
<polygon fill="#ffffff" stroke="#bfbfbf" points="122,-.5 122,-19.5 176,-19.5 176,-.5 122,-.5"/>
<text text-anchor="middle" x="149" y="-7.5" font-family="Helvetica,sans-Serif" font-size="10.00" fill="#000000">iostream</text>
</g>
<!-- Node0&#45;&gt;Node3 -->
<g id="edge3" class="edge">
<title>Node0&#45;&gt;Node3</title>
<path fill="none" stroke="#191970" d="M127.9138,-56.3258C132.0613,-47.2138 136.6289,-37.179 140.4493,-28.7857"/>
<polygon fill="#191970" stroke="#191970" points="143.7031,-30.0855 144.6604,-19.534 137.332,-27.1855 143.7031,-30.0855"/>
</g>
<!-- Node4 -->
<g id="node5" class="node">
<title>Node4</title>
<polygon fill="#ffffff" stroke="#bfbfbf" points="194.5,-.5 194.5,-19.5 253.5,-19.5 253.5,-.5 194.5,-.5"/>
<text text-anchor="middle" x="224" y="-7.5" font-family="Helvetica,sans-Serif" font-size="10.00" fill="#000000">functional</text>
</g>
<!-- Node0&#45;&gt;Node4 -->
<g id="edge4" class="edge">
<title>Node0&#45;&gt;Node4</title>
<path fill="none" stroke="#191970" d="M154.9905,-56.3258C170.5034,-45.912 187.8116,-34.2931 201.2135,-25.2965"/>
<polygon fill="#191970" stroke="#191970" points="203.4457,-28.0136 209.7976,-19.534 199.5441,-22.2017 203.4457,-28.0136"/>
</g>
</g>
</svg>
