<?xml version="1.0" encoding="UTF-8" standalone="no"?>
<!DOCTYPE svg PUBLIC "-//W3C//DTD SVG 1.1//EN"
 "http://www.w3.org/Graphics/SVG/1.1/DTD/svg11.dtd">
<!-- Generated by graphviz version 2.40.1 (20161225.0304)
 -->
<!-- Title: /mnt/c/Users/Jameson/Desktop/git/openage&#45;new&#45;doc&#45;system/libopenage/terrain/terrain_outline.h Pages: 1 -->
<!--zoomable 677 -->
<svg id="main" version="1.1" xmlns="http://www.w3.org/2000/svg" xmlns:xlink="http://www.w3.org/1999/xlink" xml:space="preserve" onload="init(evt)">
<style type="text/css"><![CDATA[
.edge:hover path { stroke: red; }
.edge:hover polygon { stroke: red; fill: red; }
]]></style>
<script type="text/javascript"><![CDATA[
var edges = document.getElementsByTagName('g');
if (edges && edges.length) {
  for (var i=0;i<edges.length;i++) {
    if (edges[i].id.substr(0,4)=='edge') {
      edges[i].setAttribute('class','edge');
    }
  }
}
]]></script>
        <defs>
                <circle id="rim" cx="0" cy="0" r="7"/>
                <circle id="rim2" cx="0" cy="0" r="3.5"/>
                <g id="zoomPlus">
                        <use xlink:href="#rim" fill="#404040">
                                <set attributeName="fill" to="#808080" begin="zoomplus.mouseover" end="zoomplus.mouseout"/>
                        </use>
                        <path d="M-4,0h8M0,-4v8" fill="none" stroke="white" stroke-width="1.5" pointer-events="none"/>
                </g>
                <g id="zoomMin">
                        <use xlink:href="#rim" fill="#404040">
                                <set attributeName="fill" to="#808080" begin="zoomminus.mouseover" end="zoomminus.mouseout"/>
                        </use>
                        <path d="M-4,0h8" fill="none" stroke="white" stroke-width="1.5" pointer-events="none"/>
                </g>
                <g id="dirArrow">
                        <path fill="none" stroke="white" stroke-width="1.5" d="M0,-3.0v7 M-2.5,-0.5L0,-3.0L2.5,-0.5"/>
                </g>
               <g id="resetDef">
                       <use xlink:href="#rim2" fill="#404040">
                               <set attributeName="fill" to="#808080" begin="reset.mouseover" end="reset.mouseout"/>
                       </use>
               </g>
        </defs>

<script type="text/javascript">
var viewWidth = 1056;
var viewHeight = 677;
var sectionId = 'dynsection-0';
</script>
<script xlink:href="../../svgpan.js"/>
<svg id="graph" class="graph">
<g id="viewport">
<title>/mnt/c/Users/Jameson/Desktop/git/openage&#45;new&#45;doc&#45;system/libopenage/terrain/terrain_outline.h</title>
<polygon fill="#ffffff" stroke="transparent" points="-4,4 -4,-673.4516 1052,-673.4516 1052,4 -4,4"/>
<!-- Node0 -->
<g id="node1" class="node">
<title>Node0</title>
<polygon fill="#bfbfbf" stroke="#000000" points="205.5,-616.9516 205.5,-668.9516 346.5,-668.9516 346.5,-616.9516 205.5,-616.9516"/>
<text text-anchor="start" x="213.5" y="-656.9516" font-family="Helvetica,sans-Serif" font-size="10.00" fill="#000000">/mnt/c/Users/Jameson</text>
<text text-anchor="start" x="213.5" y="-645.9516" font-family="Helvetica,sans-Serif" font-size="10.00" fill="#000000">/Desktop/git/openage</text>
<text text-anchor="start" x="213.5" y="-634.9516" font-family="Helvetica,sans-Serif" font-size="10.00" fill="#000000">&#45;new&#45;doc&#45;system/libopenage</text>
<text text-anchor="middle" x="276" y="-623.9516" font-family="Helvetica,sans-Serif" font-size="10.00" fill="#000000">/terrain/terrain_outline.h</text>
</g>
<!-- Node1 -->
<g id="node2" class="node">
<title>Node1</title>
<polygon fill="#ffffff" stroke="#bfbfbf" points="111,-112.9516 111,-131.9516 163,-131.9516 163,-112.9516 111,-112.9516"/>
<text text-anchor="middle" x="137" y="-119.9516" font-family="Helvetica,sans-Serif" font-size="10.00" fill="#000000">memory</text>
</g>
<!-- Node0&#45;&gt;Node1 -->
<g id="edge1" class="edge">
<title>Node0&#45;&gt;Node1</title>
<path fill="none" stroke="#191970" d="M205.2815,-624.9068C123.5066,-601.9192 0,-559.7091 0,-514.4516 0,-514.4516 0,-514.4516 0,-290.4516 0,-220.5935 72.0255,-163.7169 111.6287,-137.7234"/>
<polygon fill="#191970" stroke="#191970" points="113.9289,-140.4075 120.4746,-132.0765 110.1623,-134.5072 113.9289,-140.4075"/>
</g>
<!-- Node2 -->
<g id="node3" class="node">
<title>Node2</title>
<g id="a_node3"><a xlink:href="../../da/dce/tile_8h.xhtml" target="_top" xlink:title="../coord/tile.h">
<polygon fill="#ffffff" stroke="#000000" points="580,-560.9516 580,-579.9516 654,-579.9516 654,-560.9516 580,-560.9516"/>
<text text-anchor="middle" x="617" y="-567.9516" font-family="Helvetica,sans-Serif" font-size="10.00" fill="#000000">../coord/tile.h</text>
</a>
</g>
</g>
<!-- Node0&#45;&gt;Node2 -->
<g id="edge2" class="edge">
<title>Node0&#45;&gt;Node2</title>
<path fill="none" stroke="#191970" d="M346.6554,-627.9296C413.4585,-613.7266 511.8353,-592.8107 569.6681,-580.5149"/>
<polygon fill="#191970" stroke="#191970" points="570.5776,-583.8998 579.6311,-578.3966 569.1219,-577.0528 570.5776,-583.8998"/>
</g>
<!-- Node3 -->
<g id="node4" class="node">
<title>Node3</title>
<g id="a_node4"><a xlink:href="../../db/d40/declarations_8h.xhtml" target="_top" xlink:title="declarations.h">
<polygon fill="#ffffff" stroke="#000000" points="624.5,-504.9516 624.5,-523.9516 701.5,-523.9516 701.5,-504.9516 624.5,-504.9516"/>
<text text-anchor="middle" x="663" y="-511.9516" font-family="Helvetica,sans-Serif" font-size="10.00" fill="#000000">declarations.h</text>
</a>
</g>
</g>
<!-- Node2&#45;&gt;Node3 -->
<g id="edge3" class="edge">
<title>Node2&#45;&gt;Node3</title>
<path fill="none" stroke="#191970" d="M625.0126,-560.6972C631.4768,-552.8278 640.7385,-541.5526 648.4983,-532.1058"/>
<polygon fill="#191970" stroke="#191970" points="651.4364,-534.0432 655.0792,-524.0943 646.0273,-529.6 651.4364,-534.0432"/>
</g>
<!-- Node13 -->
<g id="node14" class="node">
<title>Node13</title>
<g id="a_node14"><a xlink:href="../../d4/d08/misc_8h.xhtml" target="_top" xlink:title="misc.h">
<polygon fill="#ffffff" stroke="#000000" points="399,-392.9516 399,-411.9516 445,-411.9516 445,-392.9516 399,-392.9516"/>
<text text-anchor="middle" x="422" y="-399.9516" font-family="Helvetica,sans-Serif" font-size="10.00" fill="#000000">misc.h</text>
</a>
</g>
</g>
<!-- Node2&#45;&gt;Node13 -->
<g id="edge65" class="edge">
<title>Node2&#45;&gt;Node13</title>
<path fill="none" stroke="#191970" d="M592.7067,-560.885C573.7696,-552.7779 547.3596,-540.003 527,-524.4516 487.2449,-494.0854 451.7455,-446.5311 433.9899,-420.6761"/>
<polygon fill="#191970" stroke="#191970" points="436.7695,-418.538 428.2761,-412.2044 430.966,-422.4521 436.7695,-418.538"/>
</g>
<!-- Node41 -->
<g id="node42" class="node">
<title>Node41</title>
<polygon fill="#ffffff" stroke="#bfbfbf" points="720,-504.9516 720,-523.9516 814,-523.9516 814,-504.9516 720,-504.9516"/>
<text text-anchor="middle" x="767" y="-511.9516" font-family="Helvetica,sans-Serif" font-size="10.00" fill="#000000">coord_nese.gen.h</text>
</g>
<!-- Node2&#45;&gt;Node41 -->
<g id="edge63" class="edge">
<title>Node2&#45;&gt;Node41</title>
<path fill="none" stroke="#191970" d="M642.7859,-560.8249C667.4047,-551.6339 704.69,-537.714 731.9875,-527.523"/>
<polygon fill="#191970" stroke="#191970" points="733.4063,-530.7293 741.5506,-523.9528 730.958,-524.1714 733.4063,-530.7293"/>
</g>
<!-- Node42 -->
<g id="node43" class="node">
<title>Node42</title>
<polygon fill="#ffffff" stroke="#bfbfbf" points="832,-504.9516 832,-523.9516 936,-523.9516 936,-504.9516 832,-504.9516"/>
<text text-anchor="middle" x="884" y="-511.9516" font-family="Helvetica,sans-Serif" font-size="10.00" fill="#000000">coord_neseup.gen.h</text>
</g>
<!-- Node2&#45;&gt;Node42 -->
<g id="edge64" class="edge">
<title>Node2&#45;&gt;Node42</title>
<path fill="none" stroke="#191970" d="M654.1252,-562.6651C699.2614,-553.1983 775.8696,-537.1307 828.1398,-526.1676"/>
<polygon fill="#191970" stroke="#191970" points="829.1843,-529.5248 838.2528,-524.0465 827.7473,-522.6739 829.1843,-529.5248"/>
</g>
<!-- Node43 -->
<g id="node44" class="node">
<title>Node43</title>
<g id="a_node44"><a xlink:href="../../db/dfb/hash_8h.xhtml" target="_top" xlink:title="../util/hash.h">
<polygon fill="#ffffff" stroke="#000000" points="535.5,-504.9516 535.5,-523.9516 606.5,-523.9516 606.5,-504.9516 535.5,-504.9516"/>
<text text-anchor="middle" x="571" y="-511.9516" font-family="Helvetica,sans-Serif" font-size="10.00" fill="#000000">../util/hash.h</text>
</a>
</g>
</g>
<!-- Node2&#45;&gt;Node43 -->
<g id="edge66" class="edge">
<title>Node2&#45;&gt;Node43</title>
<path fill="none" stroke="#191970" d="M608.9874,-560.6972C602.5232,-552.8278 593.2615,-541.5526 585.5017,-532.1058"/>
<polygon fill="#191970" stroke="#191970" points="587.9727,-529.6 578.9208,-524.0943 582.5636,-534.0432 587.9727,-529.6"/>
</g>
<!-- Node4 -->
<g id="node5" class="node">
<title>Node4</title>
<polygon fill="#ffffff" stroke="#bfbfbf" points="974,-224.9516 974,-243.9516 1020,-243.9516 1020,-224.9516 974,-224.9516"/>
<text text-anchor="middle" x="997" y="-231.9516" font-family="Helvetica,sans-Serif" font-size="10.00" fill="#000000">cstdint</text>
</g>
<!-- Node3&#45;&gt;Node4 -->
<g id="edge4" class="edge">
<title>Node3&#45;&gt;Node4</title>
<path fill="none" stroke="#191970" d="M701.7953,-506.0948C792.3437,-486.0525 1010,-434.5385 1010,-402.4516 1010,-402.4516 1010,-402.4516 1010,-346.4516 1010,-313.7973 1004.48,-276.1427 1000.6339,-253.8701"/>
<polygon fill="#191970" stroke="#191970" points="1004.0735,-253.2214 998.8626,-243.9966 997.1835,-254.4576 1004.0735,-253.2214"/>
</g>
<!-- Node5 -->
<g id="node6" class="node">
<title>Node5</title>
<g id="a_node6"><a xlink:href="../../de/d62/fixed__point_8h.xhtml" target="_top" xlink:title="../util/fixed_point.h">
<polygon fill="#ffffff" stroke="#000000" points="618.5,-448.9516 618.5,-467.9516 715.5,-467.9516 715.5,-448.9516 618.5,-448.9516"/>
<text text-anchor="middle" x="667" y="-455.9516" font-family="Helvetica,sans-Serif" font-size="10.00" fill="#000000">../util/fixed_point.h</text>
</a>
</g>
</g>
<!-- Node3&#45;&gt;Node5 -->
<g id="edge5" class="edge">
<title>Node3&#45;&gt;Node5</title>
<path fill="none" stroke="#191970" d="M663.6967,-504.6972C664.2187,-497.3899 664.9504,-487.146 665.5925,-478.1562"/>
<polygon fill="#191970" stroke="#191970" points="669.0898,-478.3183 666.3112,-468.0943 662.1076,-477.8195 669.0898,-478.3183"/>
</g>
<!-- Node6 -->
<g id="node7" class="node">
<title>Node6</title>
<polygon fill="#ffffff" stroke="#bfbfbf" points="564,-336.9516 564,-355.9516 620,-355.9516 620,-336.9516 564,-336.9516"/>
<text text-anchor="middle" x="592" y="-343.9516" font-family="Helvetica,sans-Serif" font-size="10.00" fill="#000000">algorithm</text>
</g>
<!-- Node5&#45;&gt;Node6 -->
<g id="edge6" class="edge">
<title>Node5&#45;&gt;Node6</title>
<path fill="none" stroke="#191970" d="M659.7589,-448.6926C652.9635,-439.4565 642.5879,-425.1535 634,-412.4516 623.2263,-396.5169 611.5188,-378.0135 603.208,-364.6603"/>
<polygon fill="#191970" stroke="#191970" points="606.0594,-362.6168 597.8187,-355.9578 600.1081,-366.3023 606.0594,-362.6168"/>
</g>
<!-- Node7 -->
<g id="node8" class="node">
<title>Node7</title>
<polygon fill="#ffffff" stroke="#bfbfbf" points="714.5,-392.9516 714.5,-411.9516 759.5,-411.9516 759.5,-392.9516 714.5,-392.9516"/>
<text text-anchor="middle" x="737" y="-399.9516" font-family="Helvetica,sans-Serif" font-size="10.00" fill="#000000">climits</text>
</g>
<!-- Node5&#45;&gt;Node7 -->
<g id="edge7" class="edge">
<title>Node5&#45;&gt;Node7</title>
<path fill="none" stroke="#191970" d="M679.1931,-448.6972C689.6321,-440.346 704.8655,-428.1593 717.074,-418.3925"/>
<polygon fill="#191970" stroke="#191970" points="719.3244,-421.0743 724.9467,-412.0943 714.9515,-415.6082 719.3244,-421.0743"/>
</g>
<!-- Node8 -->
<g id="node9" class="node">
<title>Node8</title>
<polygon fill="#ffffff" stroke="#bfbfbf" points="502,-336.9516 502,-355.9516 546,-355.9516 546,-336.9516 502,-336.9516"/>
<text text-anchor="middle" x="524" y="-343.9516" font-family="Helvetica,sans-Serif" font-size="10.00" fill="#000000">cmath</text>
</g>
<!-- Node5&#45;&gt;Node8 -->
<g id="edge8" class="edge">
<title>Node5&#45;&gt;Node8</title>
<path fill="none" stroke="#191970" d="M654.8079,-448.9026C630.2185,-429.6437 574.4609,-385.9735 544.2926,-362.3451"/>
<polygon fill="#191970" stroke="#191970" points="546.1921,-359.3871 536.1612,-355.9765 541.8759,-364.8981 546.1921,-359.3871"/>
</g>
<!-- Node9 -->
<g id="node10" class="node">
<title>Node9</title>
<polygon fill="#ffffff" stroke="#bfbfbf" points="686,-112.9516 686,-131.9516 736,-131.9516 736,-112.9516 686,-112.9516"/>
<text text-anchor="middle" x="711" y="-119.9516" font-family="Helvetica,sans-Serif" font-size="10.00" fill="#000000">iomanip</text>
</g>
<!-- Node5&#45;&gt;Node9 -->
<g id="edge9" class="edge">
<title>Node5&#45;&gt;Node9</title>
<path fill="none" stroke="#191970" d="M666.4502,-448.7163C664.7093,-426.3654 657.5868,-370.6728 629,-336.4516 606.8246,-309.9055 577.9306,-330.031 560,-300.4516 542.4903,-271.5665 548.6135,-256.2523 560,-224.4516 570.8577,-194.1277 580.3202,-187.8933 606,-168.4516 627.0949,-152.4811 654.5974,-140.6924 676.1633,-133.0491"/>
<polygon fill="#191970" stroke="#191970" points="677.5754,-136.2657 685.9138,-129.7295 675.3193,-129.6392 677.5754,-136.2657"/>
</g>
<!-- Node10 -->
<g id="node11" class="node">
<title>Node10</title>
<polygon fill="#ffffff" stroke="#bfbfbf" points="778,-392.9516 778,-411.9516 818,-411.9516 818,-392.9516 778,-392.9516"/>
<text text-anchor="middle" x="798" y="-399.9516" font-family="Helvetica,sans-Serif" font-size="10.00" fill="#000000">limits</text>
</g>
<!-- Node5&#45;&gt;Node10 -->
<g id="edge10" class="edge">
<title>Node5&#45;&gt;Node10</title>
<path fill="none" stroke="#191970" d="M689.5197,-448.8249C711.3802,-439.48 744.6763,-425.2465 768.6126,-415.0142"/>
<polygon fill="#191970" stroke="#191970" points="770.0996,-418.185 777.9189,-411.0359 767.3481,-411.7484 770.0996,-418.185"/>
</g>
<!-- Node11 -->
<g id="node12" class="node">
<title>Node11</title>
<polygon fill="#ffffff" stroke="#bfbfbf" points="836,-392.9516 836,-411.9516 888,-411.9516 888,-392.9516 836,-392.9516"/>
<text text-anchor="middle" x="862" y="-399.9516" font-family="Helvetica,sans-Serif" font-size="10.00" fill="#000000">ostream</text>
</g>
<!-- Node5&#45;&gt;Node11 -->
<g id="edge11" class="edge">
<title>Node5&#45;&gt;Node11</title>
<path fill="none" stroke="#191970" d="M700.5217,-448.8249C735.4084,-438.8061 789.861,-423.1685 825.7339,-412.8665"/>
<polygon fill="#191970" stroke="#191970" points="827.132,-416.1066 835.7774,-409.9822 825.1998,-409.3785 827.132,-416.1066"/>
</g>
<!-- Node12 -->
<g id="node13" class="node">
<title>Node12</title>
<polygon fill="#ffffff" stroke="#bfbfbf" points="615,-168.9516 615,-187.9516 677,-187.9516 677,-168.9516 615,-168.9516"/>
<text text-anchor="middle" x="646" y="-175.9516" font-family="Helvetica,sans-Serif" font-size="10.00" fill="#000000">type_traits</text>
</g>
<!-- Node5&#45;&gt;Node12 -->
<g id="edge12" class="edge">
<title>Node5&#45;&gt;Node12</title>
<path fill="none" stroke="#191970" d="M667.6871,-448.7693C669.4429,-421.9395 673.5144,-344.3984 667,-280.4516 664.0471,-251.465 656.4898,-218.5518 651.2955,-198.1429"/>
<polygon fill="#191970" stroke="#191970" points="654.6109,-196.9861 648.6971,-188.1954 647.8381,-198.7553 654.6109,-196.9861"/>
</g>
<!-- Node5&#45;&gt;Node13 -->
<g id="edge13" class="edge">
<title>Node5&#45;&gt;Node13</title>
<path fill="none" stroke="#191970" d="M625.1614,-448.8885C577.0814,-437.8988 499.1585,-420.0879 455.1022,-410.0178"/>
<polygon fill="#191970" stroke="#191970" points="455.7206,-406.569 445.1921,-407.7527 454.1608,-413.393 455.7206,-406.569"/>
</g>
<!-- Node13&#45;&gt;Node1 -->
<g id="edge20" class="edge">
<title>Node13&#45;&gt;Node1</title>
<path fill="none" stroke="#191970" d="M398.7284,-400.0925C347.4244,-394.5283 226.4947,-379.3099 193,-356.4516 122.8749,-308.5951 128.7997,-189.2362 134.22,-142.0725"/>
<polygon fill="#191970" stroke="#191970" points="137.7165,-142.3212 135.5075,-131.9592 130.7725,-141.4371 137.7165,-142.3212"/>
</g>
<!-- Node13&#45;&gt;Node6 -->
<g id="edge14" class="edge">
<title>Node13&#45;&gt;Node6</title>
<path fill="none" stroke="#191970" d="M445.2813,-394.7825C473.3007,-385.5526 520.7328,-369.9279 554.0645,-358.948"/>
<polygon fill="#191970" stroke="#191970" points="555.5162,-362.1549 563.919,-355.7018 553.326,-355.5064 555.5162,-362.1549"/>
</g>
<!-- Node13&#45;&gt;Node8 -->
<g id="edge16" class="edge">
<title>Node13&#45;&gt;Node8</title>
<path fill="none" stroke="#191970" d="M439.767,-392.6972C455.7095,-383.9445 479.3259,-370.9786 497.4989,-361.0013"/>
<polygon fill="#191970" stroke="#191970" points="499.3552,-363.975 506.4366,-356.0943 495.9863,-357.8389 499.3552,-363.975"/>
</g>
<!-- Node14 -->
<g id="node15" class="node">
<title>Node14</title>
<polygon fill="#ffffff" stroke="#bfbfbf" points="398,-336.9516 398,-355.9516 446,-355.9516 446,-336.9516 398,-336.9516"/>
<text text-anchor="middle" x="422" y="-343.9516" font-family="Helvetica,sans-Serif" font-size="10.00" fill="#000000">limits.h</text>
</g>
<!-- Node13&#45;&gt;Node14 -->
<g id="edge15" class="edge">
<title>Node13&#45;&gt;Node14</title>
<path fill="none" stroke="#191970" d="M422,-392.6972C422,-385.3899 422,-375.146 422,-366.1562"/>
<polygon fill="#191970" stroke="#191970" points="425.5001,-366.0943 422,-356.0943 418.5001,-366.0943 425.5001,-366.0943"/>
</g>
<!-- Node15 -->
<g id="node16" class="node">
<title>Node15</title>
<polygon fill="#ffffff" stroke="#bfbfbf" points="334,-336.9516 334,-355.9516 380,-355.9516 380,-336.9516 334,-336.9516"/>
<text text-anchor="middle" x="357" y="-343.9516" font-family="Helvetica,sans-Serif" font-size="10.00" fill="#000000">cstring</text>
</g>
<!-- Node13&#45;&gt;Node15 -->
<g id="edge17" class="edge">
<title>Node13&#45;&gt;Node15</title>
<path fill="none" stroke="#191970" d="M410.6779,-392.6972C401.0777,-384.4263 387.1108,-372.3933 375.8305,-362.6749"/>
<polygon fill="#191970" stroke="#191970" points="378.053,-359.9698 368.1924,-356.0943 373.484,-365.2731 378.053,-359.9698"/>
</g>
<!-- Node16 -->
<g id="node17" class="node">
<title>Node16</title>
<polygon fill="#ffffff" stroke="#bfbfbf" points="258.5,-.9516 258.5,-19.9516 299.5,-19.9516 299.5,-.9516 258.5,-.9516"/>
<text text-anchor="middle" x="279" y="-7.9516" font-family="Helvetica,sans-Serif" font-size="10.00" fill="#000000">string</text>
</g>
<!-- Node13&#45;&gt;Node16 -->
<g id="edge18" class="edge">
<title>Node13&#45;&gt;Node16</title>
<path fill="none" stroke="#191970" d="M398.8323,-400.4122C343.768,-395.227 206.7695,-380.2418 168,-356.4516 114.7383,-323.7686 108.5707,-301.4703 83,-244.4516 48.7855,-168.1589 24.6152,-108.5673 90,-56.4516 114.3057,-37.0785 201.3778,-21.7822 248.3842,-14.7165"/>
<polygon fill="#191970" stroke="#191970" points="248.9328,-18.1736 258.3175,-13.2564 247.9148,-11.248 248.9328,-18.1736"/>
</g>
<!-- Node17 -->
<g id="node18" class="node">
<title>Node17</title>
<polygon fill="#ffffff" stroke="#bfbfbf" points="257,-112.9516 257,-131.9516 301,-131.9516 301,-112.9516 257,-112.9516"/>
<text text-anchor="middle" x="279" y="-119.9516" font-family="Helvetica,sans-Serif" font-size="10.00" fill="#000000">vector</text>
</g>
<!-- Node13&#45;&gt;Node17 -->
<g id="edge19" class="edge">
<title>Node13&#45;&gt;Node17</title>
<path fill="none" stroke="#191970" d="M398.6198,-397.2568C376.5451,-391.1579 344.064,-378.8959 325,-356.4516 305.239,-333.1867 306,-320.9763 306,-290.4516 306,-290.4516 306,-290.4516 306,-234.4516 306,-201.1054 294.5488,-163.6909 286.5614,-141.6497"/>
<polygon fill="#191970" stroke="#191970" points="289.7836,-140.2747 282.9839,-132.1497 283.2327,-142.7416 289.7836,-140.2747"/>
</g>
<!-- Node18 -->
<g id="node19" class="node">
<title>Node18</title>
<g id="a_node19"><a xlink:href="../../d7/dce/error_2error_8h.xhtml" target="_top" xlink:title="../error/error.h">
<polygon fill="#ffffff" stroke="#000000" points="202,-336.9516 202,-355.9516 278,-355.9516 278,-336.9516 202,-336.9516"/>
<text text-anchor="middle" x="240" y="-343.9516" font-family="Helvetica,sans-Serif" font-size="10.00" fill="#000000">../error/error.h</text>
</a>
</g>
</g>
<!-- Node13&#45;&gt;Node18 -->
<g id="edge21" class="edge">
<title>Node13&#45;&gt;Node18</title>
<path fill="none" stroke="#191970" d="M398.9496,-395.3592C369.3103,-386.2394 317.3271,-370.2446 280.9018,-359.0368"/>
<polygon fill="#191970" stroke="#191970" points="281.6592,-355.608 271.0721,-356.0123 279.6005,-362.2984 281.6592,-355.608"/>
</g>
<!-- Node21 -->
<g id="node22" class="node">
<title>Node21</title>
<g id="a_node22"><a xlink:href="../../d4/dd1/compiler_8h.xhtml" target="_top" xlink:title="../util/compiler.h">
<polygon fill="#ffffff" stroke="#000000" points="824,-56.9516 824,-75.9516 910,-75.9516 910,-56.9516 824,-56.9516"/>
<text text-anchor="middle" x="867" y="-63.9516" font-family="Helvetica,sans-Serif" font-size="10.00" fill="#000000">../util/compiler.h</text>
</a>
</g>
</g>
<!-- Node13&#45;&gt;Node21 -->
<g id="edge62" class="edge">
<title>Node13&#45;&gt;Node21</title>
<path fill="none" stroke="#191970" d="M428.9833,-392.7306C440.4251,-377.669 464.7401,-349.1123 493,-336.4516 681.3369,-252.0749 946,-440.8256 946,-234.4516 946,-234.4516 946,-234.4516 946,-178.4516 946,-138.3982 911.8445,-102.5946 888.4502,-82.769"/>
<polygon fill="#191970" stroke="#191970" points="890.3642,-79.8138 880.4013,-76.2095 885.942,-85.2401 890.3642,-79.8138"/>
</g>
<!-- Node18&#45;&gt;Node1 -->
<g id="edge23" class="edge">
<title>Node18&#45;&gt;Node1</title>
<path fill="none" stroke="#191970" d="M216.869,-336.8588C201.4549,-329.2559 182.0634,-317.1275 171,-300.4516 138.1841,-250.9885 135.2711,-177.75 136.0087,-142.6478"/>
<polygon fill="#191970" stroke="#191970" points="139.5188,-142.4083 136.3609,-132.2951 132.5228,-142.1703 139.5188,-142.4083"/>
</g>
<!-- Node18&#45;&gt;Node16 -->
<g id="edge25" class="edge">
<title>Node18&#45;&gt;Node16</title>
<path fill="none" stroke="#191970" d="M218.5599,-336.9164C174.1057,-315.5194 76,-259.1561 76,-178.4516 76,-178.4516 76,-178.4516 76,-122.4516 76,-44.7436 191.449,-20.5437 248.2195,-13.3413"/>
<polygon fill="#191970" stroke="#191970" points="248.8914,-16.7867 258.4181,-12.1508 248.0797,-9.8339 248.8914,-16.7867"/>
</g>
<!-- Node19 -->
<g id="node20" class="node">
<title>Node19</title>
<polygon fill="#ffffff" stroke="#bfbfbf" points="285,-56.9516 285,-75.9516 339,-75.9516 339,-56.9516 285,-56.9516"/>
<text text-anchor="middle" x="312" y="-63.9516" font-family="Helvetica,sans-Serif" font-size="10.00" fill="#000000">iostream</text>
</g>
<!-- Node18&#45;&gt;Node19 -->
<g id="edge22" class="edge">
<title>Node18&#45;&gt;Node19</title>
<path fill="none" stroke="#191970" d="M242.2107,-336.6453C244.1798,-327.3758 246.9126,-313.0501 248,-300.4516 255.1849,-217.2056 209.8761,-186.8028 248,-112.4516 254.933,-98.9305 267.8936,-88.4842 280.3481,-80.9894"/>
<polygon fill="#191970" stroke="#191970" points="282.1928,-83.9684 289.234,-76.0518 278.7928,-77.8496 282.1928,-83.9684"/>
</g>
<!-- Node20 -->
<g id="node21" class="node">
<title>Node20</title>
<polygon fill="#ffffff" stroke="#bfbfbf" points="180.5,-280.9516 180.5,-299.9516 239.5,-299.9516 239.5,-280.9516 180.5,-280.9516"/>
<text text-anchor="middle" x="210" y="-287.9516" font-family="Helvetica,sans-Serif" font-size="10.00" fill="#000000">stdexcept</text>
</g>
<!-- Node18&#45;&gt;Node20 -->
<g id="edge24" class="edge">
<title>Node18&#45;&gt;Node20</title>
<path fill="none" stroke="#191970" d="M234.7744,-336.6972C230.6877,-329.0687 224.8865,-318.2398 219.925,-308.9784"/>
<polygon fill="#191970" stroke="#191970" points="222.9732,-307.2563 215.1657,-300.0943 216.8028,-310.5619 222.9732,-307.2563"/>
</g>
<!-- Node18&#45;&gt;Node21 -->
<g id="edge26" class="edge">
<title>Node18&#45;&gt;Node21</title>
<path fill="none" stroke="#191970" d="M278.0702,-341.8721C292.7341,-340.1346 309.642,-338.1633 325,-336.4516 455.7141,-321.8834 908,-365.9751 908,-234.4516 908,-234.4516 908,-234.4516 908,-178.4516 908,-143.796 890.4755,-106.5829 878.3408,-84.969"/>
<polygon fill="#191970" stroke="#191970" points="881.2886,-83.076 873.227,-76.2012 875.2419,-86.6027 881.2886,-83.076"/>
</g>
<!-- Node24 -->
<g id="node25" class="node">
<title>Node24</title>
<g id="a_node25"><a xlink:href="../../d2/d0d/message_8h.xhtml" target="_top" xlink:title="../log/message.h">
<polygon fill="#ffffff" stroke="#000000" points="568.5,-280.9516 568.5,-299.9516 657.5,-299.9516 657.5,-280.9516 568.5,-280.9516"/>
<text text-anchor="middle" x="613" y="-287.9516" font-family="Helvetica,sans-Serif" font-size="10.00" fill="#000000">../log/message.h</text>
</a>
</g>
</g>
<!-- Node18&#45;&gt;Node24 -->
<g id="edge31" class="edge">
<title>Node18&#45;&gt;Node24</title>
<path fill="none" stroke="#191970" d="M278.1646,-340.7218C344.6229,-330.7442 481.8007,-310.1491 558.3415,-298.6577"/>
<polygon fill="#191970" stroke="#191970" points="558.903,-302.1128 568.2725,-297.1668 557.8636,-295.1903 558.903,-302.1128"/>
</g>
<!-- Node21&#45;&gt;Node16 -->
<g id="edge28" class="edge">
<title>Node21&#45;&gt;Node16</title>
<path fill="none" stroke="#191970" d="M823.9273,-57.8095C820.9119,-57.3151 817.9139,-56.8557 815,-56.4516 623.7598,-29.9307 391.8727,-16.2466 309.681,-11.9609"/>
<polygon fill="#191970" stroke="#191970" points="309.699,-8.4573 299.5327,-11.4402 309.3402,-15.4481 309.699,-8.4573"/>
</g>
<!-- Node22 -->
<g id="node23" class="node">
<title>Node22</title>
<polygon fill="#ffffff" stroke="#bfbfbf" points="885,-.9516 885,-19.9516 935,-19.9516 935,-.9516 885,-.9516"/>
<text text-anchor="middle" x="910" y="-7.9516" font-family="Helvetica,sans-Serif" font-size="10.00" fill="#000000">ciso646</text>
</g>
<!-- Node21&#45;&gt;Node22 -->
<g id="edge27" class="edge">
<title>Node21&#45;&gt;Node22</title>
<path fill="none" stroke="#191970" d="M874.49,-56.6972C880.5326,-48.8278 889.1903,-37.5526 896.4441,-28.1058"/>
<polygon fill="#191970" stroke="#191970" points="899.2815,-30.1574 902.5958,-20.0943 893.7295,-25.8942 899.2815,-30.1574"/>
</g>
<!-- Node23 -->
<g id="node24" class="node">
<title>Node23</title>
<g id="a_node24"><a xlink:href="../../d8/d39/signal_8h.xhtml" target="_top" xlink:title="signal.h">
<polygon fill="#ffffff" stroke="#000000" points="799,-.9516 799,-19.9516 849,-19.9516 849,-.9516 799,-.9516"/>
<text text-anchor="middle" x="824" y="-7.9516" font-family="Helvetica,sans-Serif" font-size="10.00" fill="#000000">signal.h</text>
</a>
</g>
</g>
<!-- Node21&#45;&gt;Node23 -->
<g id="edge29" class="edge">
<title>Node21&#45;&gt;Node23</title>
<path fill="none" stroke="#191970" d="M859.51,-56.6972C853.4674,-48.8278 844.8097,-37.5526 837.5559,-28.1058"/>
<polygon fill="#191970" stroke="#191970" points="840.2705,-25.8942 831.4042,-20.0943 834.7185,-30.1574 840.2705,-25.8942"/>
</g>
<!-- Node23&#45;&gt;Node23 -->
<g id="edge30" class="edge">
<title>Node23&#45;&gt;Node23</title>
<path fill="none" stroke="#191970" d="M842.5634,-20.0262C854.9465,-22.7213 867,-19.5298 867,-10.4516 867,-3.9267 860.7731,-.4429 852.6726,0"/>
<polygon fill="#191970" stroke="#191970" points="852.2234,3.4743 842.5634,-.877 852.8285,-3.4995 852.2234,3.4743"/>
</g>
<!-- Node24&#45;&gt;Node4 -->
<g id="edge32" class="edge">
<title>Node24&#45;&gt;Node4</title>
<path fill="none" stroke="#191970" d="M657.8012,-283.9181C735.7362,-272.5526 894.5375,-249.3941 963.6362,-239.3172"/>
<polygon fill="#191970" stroke="#191970" points="964.5396,-242.7226 973.9298,-237.816 963.5294,-235.7958 964.5396,-242.7226"/>
</g>
<!-- Node24&#45;&gt;Node16 -->
<g id="edge33" class="edge">
<title>Node24&#45;&gt;Node16</title>
<path fill="none" stroke="#191970" d="M568.2381,-288.0617C459.6313,-281.0442 191,-255.8627 191,-178.4516 191,-178.4516 191,-178.4516 191,-122.4516 191,-80.6837 229.3084,-45.2757 255.3742,-26.0178"/>
<polygon fill="#191970" stroke="#191970" points="257.5485,-28.7664 263.6716,-20.1201 253.493,-23.0609 257.5485,-28.7664"/>
</g>
<!-- Node25 -->
<g id="node26" class="node">
<title>Node25</title>
<polygon fill="#ffffff" stroke="#bfbfbf" points="568.5,-224.9516 568.5,-243.9516 619.5,-243.9516 619.5,-224.9516 568.5,-224.9516"/>
<text text-anchor="middle" x="594" y="-231.9516" font-family="Helvetica,sans-Serif" font-size="10.00" fill="#000000">config.h</text>
</g>
<!-- Node24&#45;&gt;Node25 -->
<g id="edge34" class="edge">
<title>Node24&#45;&gt;Node25</title>
<path fill="none" stroke="#191970" d="M609.6905,-280.6972C607.1567,-273.2293 603.5823,-262.6943 600.485,-253.5653"/>
<polygon fill="#191970" stroke="#191970" points="603.7991,-252.4395 597.2716,-244.0943 597.1702,-254.6887 603.7991,-252.4395"/>
</g>
<!-- Node26 -->
<g id="node27" class="node">
<title>Node26</title>
<g id="a_node27"><a xlink:href="../../d1/d06/constexpr_8h.xhtml" target="_top" xlink:title="../util/constexpr.h">
<polygon fill="#ffffff" stroke="#000000" points="788,-224.9516 788,-243.9516 880,-243.9516 880,-224.9516 788,-224.9516"/>
<text text-anchor="middle" x="834" y="-231.9516" font-family="Helvetica,sans-Serif" font-size="10.00" fill="#000000">../util/constexpr.h</text>
</a>
</g>
</g>
<!-- Node24&#45;&gt;Node26 -->
<g id="edge35" class="edge">
<title>Node24&#45;&gt;Node26</title>
<path fill="none" stroke="#191970" d="M650.7401,-280.8885C688.2448,-271.3851 745.8799,-256.7807 786.4824,-246.4923"/>
<polygon fill="#191970" stroke="#191970" points="787.5816,-249.8245 796.4155,-243.9753 785.8621,-243.0389 787.5816,-249.8245"/>
</g>
<!-- Node28 -->
<g id="node29" class="node">
<title>Node28</title>
<g id="a_node29"><a xlink:href="../../de/d65/stringformatter_8h.xhtml" target="_top" xlink:title="../util/stringformatter.h">
<polygon fill="#ffffff" stroke="#000000" points="398.5,-224.9516 398.5,-243.9516 511.5,-243.9516 511.5,-224.9516 398.5,-224.9516"/>
<text text-anchor="middle" x="455" y="-231.9516" font-family="Helvetica,sans-Serif" font-size="10.00" fill="#000000">../util/stringformatter.h</text>
</a>
</g>
</g>
<!-- Node24&#45;&gt;Node28 -->
<g id="edge37" class="edge">
<title>Node24&#45;&gt;Node28</title>
<path fill="none" stroke="#191970" d="M585.8388,-280.8249C559.7933,-271.5936 520.2884,-257.5918 491.5021,-247.3891"/>
<polygon fill="#191970" stroke="#191970" points="492.4015,-243.9946 481.8067,-243.9528 490.063,-250.5924 492.4015,-243.9946"/>
</g>
<!-- Node35 -->
<g id="node36" class="node">
<title>Node35</title>
<g id="a_node36"><a xlink:href="../../d3/d4e/logsink_8h.xhtml" target="_top" xlink:title="logsink.h">
<polygon fill="#ffffff" stroke="#000000" points="714,-224.9516 714,-243.9516 770,-243.9516 770,-224.9516 714,-224.9516"/>
<text text-anchor="middle" x="742" y="-231.9516" font-family="Helvetica,sans-Serif" font-size="10.00" fill="#000000">logsink.h</text>
</a>
</g>
</g>
<!-- Node24&#45;&gt;Node35 -->
<g id="edge53" class="edge">
<title>Node24&#45;&gt;Node35</title>
<path fill="none" stroke="#191970" d="M635.1759,-280.8249C655.9766,-271.7951 687.2917,-258.201 710.6458,-248.0627"/>
<polygon fill="#191970" stroke="#191970" points="712.3343,-251.1454 720.1135,-243.9528 709.5468,-244.7243 712.3343,-251.1454"/>
</g>
<!-- Node38 -->
<g id="node39" class="node">
<title>Node38</title>
<g id="a_node39"><a xlink:href="../../de/d09/level_8h.xhtml" target="_top" xlink:title="level.h">
<polygon fill="#ffffff" stroke="#000000" points="695.5,-168.9516 695.5,-187.9516 740.5,-187.9516 740.5,-168.9516 695.5,-168.9516"/>
<text text-anchor="middle" x="718" y="-175.9516" font-family="Helvetica,sans-Serif" font-size="10.00" fill="#000000">level.h</text>
</a>
</g>
</g>
<!-- Node24&#45;&gt;Node38 -->
<g id="edge61" class="edge">
<title>Node24&#45;&gt;Node38</title>
<path fill="none" stroke="#191970" d="M621.9522,-280.9026C639.6975,-261.9743 679.5493,-219.4657 701.9426,-195.5795"/>
<polygon fill="#191970" stroke="#191970" points="704.7844,-197.6657 709.0704,-187.9765 699.6776,-192.8781 704.7844,-197.6657"/>
</g>
<!-- Node27 -->
<g id="node28" class="node">
<title>Node27</title>
<polygon fill="#ffffff" stroke="#bfbfbf" points="999.5,-168.9516 999.5,-187.9516 1044.5,-187.9516 1044.5,-168.9516 999.5,-168.9516"/>
<text text-anchor="middle" x="1022" y="-175.9516" font-family="Helvetica,sans-Serif" font-size="10.00" fill="#000000">cstdlib</text>
</g>
<!-- Node26&#45;&gt;Node27 -->
<g id="edge36" class="edge">
<title>Node26&#45;&gt;Node27</title>
<path fill="none" stroke="#191970" d="M866.3184,-224.8249C900.8127,-214.55 955.1475,-198.3651 989.6529,-188.087"/>
<polygon fill="#191970" stroke="#191970" points="990.6687,-191.4364 999.2534,-185.2272 988.6703,-184.7277 990.6687,-191.4364"/>
</g>
<!-- Node28&#45;&gt;Node1 -->
<g id="edge39" class="edge">
<title>Node28&#45;&gt;Node1</title>
<path fill="none" stroke="#191970" d="M427.8875,-224.9026C370.5741,-204.7167 237.1169,-157.7129 172.8483,-135.0775"/>
<polygon fill="#191970" stroke="#191970" points="173.7448,-131.6825 163.1499,-131.6617 171.4193,-138.285 173.7448,-131.6825"/>
</g>
<!-- Node28&#45;&gt;Node12 -->
<g id="edge40" class="edge">
<title>Node28&#45;&gt;Node12</title>
<path fill="none" stroke="#191970" d="M487.8341,-224.8249C520.2578,-215.3185 569.9361,-200.7531 604.9497,-190.4873"/>
<polygon fill="#191970" stroke="#191970" points="606.2478,-193.7541 614.8592,-187.5819 604.2783,-187.0369 606.2478,-193.7541"/>
</g>
<!-- Node28&#45;&gt;Node21 -->
<g id="edge41" class="edge">
<title>Node28&#45;&gt;Node21</title>
<path fill="none" stroke="#191970" d="M473.025,-224.7445C500.7769,-210.2257 556.0058,-183.0082 606,-168.4516 705.7631,-139.4041 754.2435,-195.2832 837,-132.4516 851.6813,-121.3051 859.3832,-101.3116 863.2863,-86.2416"/>
<polygon fill="#191970" stroke="#191970" points="866.7348,-86.8583 865.5025,-76.3354 859.9036,-85.33 866.7348,-86.8583"/>
</g>
<!-- Node29 -->
<g id="node30" class="node">
<title>Node29</title>
<polygon fill="#ffffff" stroke="#bfbfbf" points="403,-168.9516 403,-187.9516 449,-187.9516 449,-168.9516 403,-168.9516"/>
<text text-anchor="middle" x="426" y="-175.9516" font-family="Helvetica,sans-Serif" font-size="10.00" fill="#000000">atomic</text>
</g>
<!-- Node28&#45;&gt;Node29 -->
<g id="edge38" class="edge">
<title>Node28&#45;&gt;Node29</title>
<path fill="none" stroke="#191970" d="M449.9486,-224.6972C445.9981,-217.0687 440.3903,-206.2398 435.5942,-196.9784"/>
<polygon fill="#191970" stroke="#191970" points="438.7001,-195.3648 430.9935,-188.0943 432.4841,-198.5838 438.7001,-195.3648"/>
</g>
<!-- Node30 -->
<g id="node31" class="node">
<title>Node30</title>
<g id="a_node31"><a xlink:href="../../dc/dcf/externalsstream_8h.xhtml" target="_top" xlink:title="externalsstream.h">
<polygon fill="#ffffff" stroke="#000000" points="319.5,-112.9516 319.5,-131.9516 414.5,-131.9516 414.5,-112.9516 319.5,-112.9516"/>
<text text-anchor="middle" x="367" y="-119.9516" font-family="Helvetica,sans-Serif" font-size="10.00" fill="#000000">externalsstream.h</text>
</a>
</g>
</g>
<!-- Node28&#45;&gt;Node30 -->
<g id="edge42" class="edge">
<title>Node28&#45;&gt;Node30</title>
<path fill="none" stroke="#191970" d="M437.7135,-224.9352C424.2474,-216.7715 405.9005,-203.8967 394,-188.4516 383.3872,-174.6778 376.2924,-156.1511 372.0499,-142.2329"/>
<polygon fill="#191970" stroke="#191970" points="375.317,-140.9208 369.2463,-132.2376 368.5771,-142.8113 375.317,-140.9208"/>
</g>
<!-- Node31 -->
<g id="node32" class="node">
<title>Node31</title>
<g id="a_node32"><a xlink:href="../../d6/d90/strings_8h.xhtml" target="_top" xlink:title="strings.h">
<polygon fill="#ffffff" stroke="#000000" points="467,-168.9516 467,-187.9516 521,-187.9516 521,-168.9516 467,-168.9516"/>
<text text-anchor="middle" x="494" y="-175.9516" font-family="Helvetica,sans-Serif" font-size="10.00" fill="#000000">strings.h</text>
</a>
</g>
</g>
<!-- Node28&#45;&gt;Node31 -->
<g id="edge45" class="edge">
<title>Node28&#45;&gt;Node31</title>
<path fill="none" stroke="#191970" d="M461.7933,-224.6972C467.2178,-216.9081 474.9661,-205.7824 481.5033,-196.3956"/>
<polygon fill="#191970" stroke="#191970" points="484.4417,-198.3006 487.2846,-188.0943 478.6975,-194.3001 484.4417,-198.3006"/>
</g>
<!-- Node30&#45;&gt;Node16 -->
<g id="edge44" class="edge">
<title>Node30&#45;&gt;Node16</title>
<path fill="none" stroke="#191970" d="M366.2731,-112.575C364.8216,-98.7988 360.5306,-73.582 348,-56.4516 337.9859,-42.7616 322.5755,-31.9297 308.8564,-24.2248"/>
<polygon fill="#191970" stroke="#191970" points="310.1925,-20.9721 299.7159,-19.3934 306.9213,-27.1608 310.1925,-20.9721"/>
</g>
<!-- Node30&#45;&gt;Node19 -->
<g id="edge43" class="edge">
<title>Node30&#45;&gt;Node19</title>
<path fill="none" stroke="#191970" d="M357.4197,-112.6972C349.4542,-104.5869 337.9359,-92.8591 328.4921,-83.2435"/>
<polygon fill="#191970" stroke="#191970" points="330.9747,-80.7763 321.4705,-76.0943 325.9805,-85.6813 330.9747,-80.7763"/>
</g>
<!-- Node31&#45;&gt;Node1 -->
<g id="edge49" class="edge">
<title>Node31&#45;&gt;Node1</title>
<path fill="none" stroke="#191970" d="M466.9648,-170.5401C463.9536,-169.7789 460.9204,-169.0638 458,-168.4516 355.8596,-147.0397 233.3314,-132.5177 173.4958,-126.1344"/>
<polygon fill="#191970" stroke="#191970" points="173.7255,-122.6393 163.4139,-125.0729 172.9924,-129.6009 173.7255,-122.6393"/>
</g>
<!-- Node31&#45;&gt;Node9 -->
<g id="edge48" class="edge">
<title>Node31&#45;&gt;Node9</title>
<path fill="none" stroke="#191970" d="M521.3224,-171.7255C561.3743,-161.8435 634.9708,-143.5963 676.0717,-132.6159"/>
<polygon fill="#191970" stroke="#191970" points="677.0412,-135.9795 685.7807,-129.9903 675.2138,-129.2222 677.0412,-135.9795"/>
</g>
<!-- Node31&#45;&gt;Node16 -->
<g id="edge51" class="edge">
<title>Node31&#45;&gt;Node16</title>
<path fill="none" stroke="#191970" d="M496.4688,-168.5482C499.3091,-154.7402 502.2553,-129.4859 491,-112.4516 449.4479,-49.5646 357.6363,-24.3396 309.6193,-15.1573"/>
<polygon fill="#191970" stroke="#191970" points="309.9786,-11.6658 299.5168,-13.3399 308.7391,-18.5552 309.9786,-11.6658"/>
</g>
<!-- Node31&#45;&gt;Node17 -->
<g id="edge52" class="edge">
<title>Node31&#45;&gt;Node17</title>
<path fill="none" stroke="#191970" d="M466.8985,-170.8224C463.8997,-170.0083 460.8875,-169.2037 458,-168.4516 395.5603,-152.19 376.8779,-150.9419 311.3156,-132.6801"/>
<polygon fill="#191970" stroke="#191970" points="311.8658,-129.199 301.2915,-129.8585 309.969,-135.9372 311.8658,-129.199"/>
</g>
<!-- Node32 -->
<g id="node33" class="node">
<title>Node32</title>
<polygon fill="#ffffff" stroke="#bfbfbf" points="432.5,-112.9516 432.5,-131.9516 481.5,-131.9516 481.5,-112.9516 432.5,-112.9516"/>
<text text-anchor="middle" x="457" y="-119.9516" font-family="Helvetica,sans-Serif" font-size="10.00" fill="#000000">cstdarg</text>
</g>
<!-- Node31&#45;&gt;Node32 -->
<g id="edge46" class="edge">
<title>Node31&#45;&gt;Node32</title>
<path fill="none" stroke="#191970" d="M487.5551,-168.6972C482.4618,-160.9884 475.2092,-150.0114 469.048,-140.6864"/>
<polygon fill="#191970" stroke="#191970" points="471.8038,-138.5083 463.3711,-132.0943 465.9635,-142.3671 471.8038,-138.5083"/>
</g>
<!-- Node33 -->
<g id="node34" class="node">
<title>Node33</title>
<polygon fill="#ffffff" stroke="#bfbfbf" points="538.5,-112.9516 538.5,-131.9516 597.5,-131.9516 597.5,-112.9516 538.5,-112.9516"/>
<text text-anchor="middle" x="568" y="-119.9516" font-family="Helvetica,sans-Serif" font-size="10.00" fill="#000000">functional</text>
</g>
<!-- Node31&#45;&gt;Node33 -->
<g id="edge47" class="edge">
<title>Node31&#45;&gt;Node33</title>
<path fill="none" stroke="#191970" d="M506.8898,-168.6972C517.9254,-160.346 534.0292,-148.1593 546.9353,-138.3925"/>
<polygon fill="#191970" stroke="#191970" points="549.3959,-140.9197 555.2579,-132.0943 545.1717,-135.3378 549.3959,-140.9197"/>
</g>
<!-- Node34 -->
<g id="node35" class="node">
<title>Node34</title>
<polygon fill="#ffffff" stroke="#bfbfbf" points="616,-112.9516 616,-131.9516 668,-131.9516 668,-112.9516 616,-112.9516"/>
<text text-anchor="middle" x="642" y="-119.9516" font-family="Helvetica,sans-Serif" font-size="10.00" fill="#000000">sstream</text>
</g>
<!-- Node31&#45;&gt;Node34 -->
<g id="edge50" class="edge">
<title>Node31&#45;&gt;Node34</title>
<path fill="none" stroke="#191970" d="M519.4421,-168.8249C543.7326,-159.6339 580.5208,-145.714 607.4543,-135.523"/>
<polygon fill="#191970" stroke="#191970" points="608.7757,-138.7652 616.8899,-131.9528 606.2984,-132.2182 608.7757,-138.7652"/>
</g>
<!-- Node36 -->
<g id="node37" class="node">
<title>Node36</title>
<polygon fill="#ffffff" stroke="#bfbfbf" points="758.5,-168.9516 758.5,-187.9516 787.5,-187.9516 787.5,-168.9516 758.5,-168.9516"/>
<text text-anchor="middle" x="773" y="-175.9516" font-family="Helvetica,sans-Serif" font-size="10.00" fill="#000000">list</text>
</g>
<!-- Node35&#45;&gt;Node36 -->
<g id="edge54" class="edge">
<title>Node35&#45;&gt;Node36</title>
<path fill="none" stroke="#191970" d="M747.3998,-224.6972C751.6227,-217.0687 757.6173,-206.2398 762.7441,-196.9784"/>
<polygon fill="#191970" stroke="#191970" points="765.881,-198.5384 767.6621,-188.0943 759.7568,-195.1481 765.881,-198.5384"/>
</g>
<!-- Node37 -->
<g id="node38" class="node">
<title>Node37</title>
<polygon fill="#ffffff" stroke="#bfbfbf" points="806,-168.9516 806,-187.9516 850,-187.9516 850,-168.9516 806,-168.9516"/>
<text text-anchor="middle" x="828" y="-175.9516" font-family="Helvetica,sans-Serif" font-size="10.00" fill="#000000">mutex</text>
</g>
<!-- Node35&#45;&gt;Node37 -->
<g id="edge55" class="edge">
<title>Node35&#45;&gt;Node37</title>
<path fill="none" stroke="#191970" d="M756.9801,-224.6972C770.1751,-216.1051 789.6051,-203.453 804.8079,-193.5534"/>
<polygon fill="#191970" stroke="#191970" points="806.7215,-196.4841 813.1916,-188.0943 802.9017,-190.6181 806.7215,-196.4841"/>
</g>
<!-- Node35&#45;&gt;Node38 -->
<g id="edge56" class="edge">
<title>Node35&#45;&gt;Node38</title>
<path fill="none" stroke="#191970" d="M737.8195,-224.6972C734.619,-217.2293 730.104,-206.6943 726.1916,-197.5653"/>
<polygon fill="#191970" stroke="#191970" points="729.2888,-195.907 722.1326,-188.0943 722.8548,-198.6645 729.2888,-195.907"/>
</g>
<!-- Node39 -->
<g id="node40" class="node">
<title>Node39</title>
<g id="a_node40"><a xlink:href="../../d0/d9b/enum_8h.xhtml" target="_top" xlink:title="../util/enum.h">
<polygon fill="#ffffff" stroke="#000000" points="754,-112.9516 754,-131.9516 828,-131.9516 828,-112.9516 754,-112.9516"/>
<text text-anchor="middle" x="791" y="-119.9516" font-family="Helvetica,sans-Serif" font-size="10.00" fill="#000000">../util/enum.h</text>
</a>
</g>
</g>
<!-- Node38&#45;&gt;Node39 -->
<g id="edge57" class="edge">
<title>Node38&#45;&gt;Node39</title>
<path fill="none" stroke="#191970" d="M730.7156,-168.6972C741.602,-160.346 757.4883,-148.1593 770.22,-138.3925"/>
<polygon fill="#191970" stroke="#191970" points="772.6261,-140.958 778.4301,-132.0943 768.3654,-135.4039 772.6261,-140.958"/>
</g>
<!-- Node39&#45;&gt;Node19 -->
<g id="edge58" class="edge">
<title>Node39&#45;&gt;Node19</title>
<path fill="none" stroke="#191970" d="M753.9085,-114.0275C750.9019,-113.4548 747.9046,-112.9202 745,-112.4516 599.8881,-89.041 425.4214,-74.656 349.9023,-69.0912"/>
<polygon fill="#191970" stroke="#191970" points="349.7209,-65.5689 339.4934,-68.3342 349.2131,-72.5504 349.7209,-65.5689"/>
</g>
<!-- Node39&#45;&gt;Node21 -->
<g id="edge60" class="edge">
<title>Node39&#45;&gt;Node21</title>
<path fill="none" stroke="#191970" d="M804.2382,-112.6972C815.681,-104.2657 832.4296,-91.9245 845.7475,-82.1114"/>
<polygon fill="#191970" stroke="#191970" points="847.9391,-84.844 853.9135,-76.0943 843.7867,-79.2086 847.9391,-84.844"/>
</g>
<!-- Node40 -->
<g id="node41" class="node">
<title>Node40</title>
<polygon fill="#ffffff" stroke="#bfbfbf" points="754.5,-56.9516 754.5,-75.9516 805.5,-75.9516 805.5,-56.9516 754.5,-56.9516"/>
<text text-anchor="middle" x="780" y="-63.9516" font-family="Helvetica,sans-Serif" font-size="10.00" fill="#000000">typeinfo</text>
</g>
<!-- Node39&#45;&gt;Node40 -->
<g id="edge59" class="edge">
<title>Node39&#45;&gt;Node40</title>
<path fill="none" stroke="#191970" d="M789.0839,-112.6972C787.6486,-105.3899 785.6364,-95.146 783.8705,-86.1562"/>
<polygon fill="#191970" stroke="#191970" points="787.256,-85.2322 781.8941,-76.0943 780.3873,-86.5814 787.256,-85.2322"/>
</g>
<!-- Node43&#45;&gt;Node27 -->
<g id="edge67" class="edge">
<title>Node43&#45;&gt;Node27</title>
<path fill="none" stroke="#191970" d="M606.8525,-505.7815C717.7843,-478.46 1048,-393.2044 1048,-346.4516 1048,-346.4516 1048,-346.4516 1048,-290.4516 1048,-257.1721 1036.9729,-219.7373 1029.2813,-197.6741"/>
<polygon fill="#191970" stroke="#191970" points="1032.5329,-196.3736 1025.8364,-188.1633 1025.9513,-198.7576 1032.5329,-196.3736"/>
</g>
<!-- Node44 -->
<g id="node45" class="node">
<title>Node44</title>
<polygon fill="#ffffff" stroke="#bfbfbf" points="485,-448.9516 485,-467.9516 523,-467.9516 523,-448.9516 485,-448.9516"/>
<text text-anchor="middle" x="504" y="-455.9516" font-family="Helvetica,sans-Serif" font-size="10.00" fill="#000000">array</text>
</g>
<!-- Node43&#45;&gt;Node44 -->
<g id="edge68" class="edge">
<title>Node43&#45;&gt;Node44</title>
<path fill="none" stroke="#191970" d="M559.3295,-504.6972C549.4339,-496.4263 535.0373,-484.3933 523.4099,-474.6749"/>
<polygon fill="#191970" stroke="#191970" points="525.4542,-471.8219 515.5368,-468.0943 520.965,-477.1929 525.4542,-471.8219"/>
</g>
<!-- Node45 -->
<g id="node46" class="node">
<title>Node45</title>
<polygon fill="#ffffff" stroke="#bfbfbf" points="541.5,-448.9516 541.5,-467.9516 600.5,-467.9516 600.5,-448.9516 541.5,-448.9516"/>
<text text-anchor="middle" x="571" y="-455.9516" font-family="Helvetica,sans-Serif" font-size="10.00" fill="#000000">typeindex</text>
</g>
<!-- Node43&#45;&gt;Node45 -->
<g id="edge69" class="edge">
<title>Node43&#45;&gt;Node45</title>
<path fill="none" stroke="#191970" d="M571,-504.6972C571,-497.3899 571,-487.146 571,-478.1562"/>
<polygon fill="#191970" stroke="#191970" points="574.5001,-478.0943 571,-468.0943 567.5001,-478.0943 574.5001,-478.0943"/>
</g>
</g>
</svg>
        <g id="navigator" transform="translate(0 0)" fill="#404254">
                <rect fill="#f2f5e9" fill-opacity="0.5" stroke="#606060" stroke-width=".5" x="0" y="0" width="60" height="60"/>
                <use id="zoomplus" xlink:href="#zoomPlus" x="17" y="9" onmousedown="handleZoom(evt,'in')"/>
                <use id="zoomminus" xlink:href="#zoomMin" x="42" y="9" onmousedown="handleZoom(evt,'out')"/>
                <use id="reset" xlink:href="#resetDef" x="30" y="36" onmousedown="handleReset()"/>
                <g id="arrowUp" xlink:href="#dirArrow" transform="translate(30 24)" onmousedown="handlePan(0,-1)">
                  <use xlink:href="#rim" fill="#404040">
                        <set attributeName="fill" to="#808080" begin="arrowUp.mouseover" end="arrowUp.mouseout"/>
                  </use>
                  <path fill="none" stroke="white" stroke-width="1.5" d="M0,-3.0v7 M-2.5,-0.5L0,-3.0L2.5,-0.5"/>
                </g>
                <g id="arrowRight" xlink:href="#dirArrow" transform="rotate(90) translate(36 -43)" onmousedown="handlePan(1,0)">
                  <use xlink:href="#rim" fill="#404040">
                        <set attributeName="fill" to="#808080" begin="arrowRight.mouseover" end="arrowRight.mouseout"/>
                  </use>
                  <path fill="none" stroke="white" stroke-width="1.5" d="M0,-3.0v7 M-2.5,-0.5L0,-3.0L2.5,-0.5"/>
                </g>
                <g id="arrowDown" xlink:href="#dirArrow" transform="rotate(180) translate(-30 -48)" onmousedown="handlePan(0,1)">
                  <use xlink:href="#rim" fill="#404040">
                        <set attributeName="fill" to="#808080" begin="arrowDown.mouseover" end="arrowDown.mouseout"/>
                  </use>
                  <path fill="none" stroke="white" stroke-width="1.5" d="M0,-3.0v7 M-2.5,-0.5L0,-3.0L2.5,-0.5"/>
                </g>
                <g id="arrowLeft" xlink:href="#dirArrow" transform="rotate(270) translate(-36 17)" onmousedown="handlePan(-1,0)">
                  <use xlink:href="#rim" fill="#404040">
                        <set attributeName="fill" to="#808080" begin="arrowLeft.mouseover" end="arrowLeft.mouseout"/>
                  </use>
                  <path fill="none" stroke="white" stroke-width="1.5" d="M0,-3.0v7 M-2.5,-0.5L0,-3.0L2.5,-0.5"/>
                </g>
        </g>
        <svg viewBox="0 0 15 15" width="100%" height="30px" preserveAspectRatio="xMaxYMin meet">
         <g id="arrow_out" transform="scale(0.3 0.3)">
          <a xlink:href="terrain__outline_8h__incl_org.svg" target="_base">
           <rect id="button" ry="5" rx="5" y="6" x="6" height="38" width="38"
                fill="#f2f5e9" fill-opacity="0.5" stroke="#606060" stroke-width="1.0"/>
           <path id="arrow"
             d="M 11.500037,31.436501 C 11.940474,20.09759 22.043105,11.32322 32.158766,21.979434 L 37.068811,17.246167 C 37.068811,17.246167 37.088388,32 37.088388,32 L 22.160133,31.978069 C 22.160133,31.978069 26.997745,27.140456 26.997745,27.140456 C 18.528582,18.264221 13.291696,25.230495 11.500037,31.436501 z"
             style="fill:#404040;"/>
          </a>
         </g>
        </svg>
</svg>
