<?xml version="1.0" encoding="UTF-8" standalone="no"?>
<!DOCTYPE svg PUBLIC "-//W3C//DTD SVG 1.1//EN"
 "http://www.w3.org/Graphics/SVG/1.1/DTD/svg11.dtd">
<!-- Generated by graphviz version 2.40.1 (20161225.0304)
 -->
<!-- Title: std::sqrt Pages: 1 -->
<svg width="708pt" height="362pt"
 viewBox="0.00 0.00 708.00 362.00" xmlns="http://www.w3.org/2000/svg" xmlns:xlink="http://www.w3.org/1999/xlink">
<g id="graph0" class="graph" transform="scale(1 1) rotate(0) translate(4 358)">
<title>std::sqrt</title>
<polygon fill="#ffffff" stroke="transparent" points="-4,4 -4,-358 704,-358 704,4 -4,4"/>
<!-- Node113 -->
<g id="node1" class="node">
<title>Node113</title>
<polygon fill="#bfbfbf" stroke="#000000" points="0,-175 0,-194 53,-194 53,-175 0,-175"/>
<text text-anchor="middle" x="26.5" y="-182" font-family="Helvetica,sans-Serif" font-size="10.00" fill="#000000">std::sqrt</text>
</g>
<!-- Node114 -->
<g id="node2" class="node">
<title>Node114</title>
<g id="a_node2"><a xlink:href="../../d4/d15/classopenage_1_1_terrain.xhtml#a72f81eb7623d4ade8272f8163bfcb4d9" target="_top" xlink:title="calculate blending masks for a given tile position. ">
<polygon fill="#ffffff" stroke="#000000" points="89,-323.5 89,-353.5 223,-353.5 223,-323.5 89,-323.5"/>
<text text-anchor="start" x="97" y="-341.5" font-family="Helvetica,sans-Serif" font-size="10.00" fill="#000000">openage::Terrain::calculate</text>
<text text-anchor="middle" x="156" y="-330.5" font-family="Helvetica,sans-Serif" font-size="10.00" fill="#000000">_masks</text>
</a>
</g>
</g>
<!-- Node113&#45;&gt;Node114 -->
<g id="edge1" class="edge">
<title>Node113&#45;&gt;Node114</title>
<path fill="none" stroke="#191970" d="M31.792,-203.973C39.968,-230.74 58.0492,-278.9375 89,-308.5 95.267,-314.4859 102.932,-319.4085 110.8101,-323.4103"/>
<polygon fill="#191970" stroke="#191970" points="35.1148,-202.8646 28.9689,-194.2346 28.3916,-204.8137 35.1148,-202.8646"/>
</g>
<!-- Node115 -->
<g id="node3" class="node">
<title>Node115</title>
<g id="a_node3"><a xlink:href="../../d4/d15/classopenage_1_1_terrain.xhtml#a16e91ba2a775715dc81088e47e508786" target="_top" xlink:title="create rendering and blending information for a single tile on the terrain. ">
<polygon fill="#ffffff" stroke="#000000" points="260.5,-306.5 260.5,-336.5 382.5,-336.5 382.5,-306.5 260.5,-306.5"/>
<text text-anchor="start" x="268.5" y="-324.5" font-family="Helvetica,sans-Serif" font-size="10.00" fill="#000000">openage::Terrain::create</text>
<text text-anchor="middle" x="321.5" y="-313.5" font-family="Helvetica,sans-Serif" font-size="10.00" fill="#000000">_tile_advice</text>
</a>
</g>
</g>
<!-- Node113&#45;&gt;Node115 -->
<g id="edge5" class="edge">
<title>Node113&#45;&gt;Node115</title>
<path fill="none" stroke="#191970" d="M34.1164,-203.2492C43.6862,-224.3073 62.1725,-257.8408 89,-275.5 116.6244,-293.6837 201.2302,-307.1688 260.3646,-314.6864"/>
<polygon fill="#191970" stroke="#191970" points="37.316,-201.83 30.1373,-194.0379 30.89,-204.606 37.316,-201.83"/>
</g>
<!-- Node118 -->
<g id="node6" class="node">
<title>Node118</title>
<g id="a_node6"><a xlink:href="../../d5/d3c/namespaceopenage_1_1util_1_1tests.xhtml#a66cf54ea365e3f8f1357577ddaa1adfb" target="_top" xlink:title="openage::util::tests\l::fixed_point">
<polygon fill="#ffffff" stroke="#000000" points="106,-235.5 106,-265.5 206,-265.5 206,-235.5 106,-235.5"/>
<text text-anchor="start" x="114" y="-253.5" font-family="Helvetica,sans-Serif" font-size="10.00" fill="#000000">openage::util::tests</text>
<text text-anchor="middle" x="156" y="-242.5" font-family="Helvetica,sans-Serif" font-size="10.00" fill="#000000">::fixed_point</text>
</a>
</g>
</g>
<!-- Node113&#45;&gt;Node118 -->
<g id="edge6" class="edge">
<title>Node113&#45;&gt;Node118</title>
<path fill="none" stroke="#191970" d="M47.6758,-200.0989C59.4565,-208.3325 74.6088,-218.2104 89,-225.5 96.0883,-229.0905 103.82,-232.4482 111.4303,-235.4651"/>
<polygon fill="#191970" stroke="#191970" points="49.5669,-197.1487 39.3926,-194.1932 45.5032,-202.8484 49.5669,-197.1487"/>
</g>
<!-- Node119 -->
<g id="node7" class="node">
<title>Node119</title>
<g id="a_node7"><a xlink:href="../../df/dc9/namespaceopenage_1_1math.xhtml#a29c55215e73408c49f2654261fd73d8e" target="_top" xlink:title="openage::math::hypot3">
<polygon fill="#ffffff" stroke="#000000" points="98,-197 98,-216 214,-216 214,-197 98,-197"/>
<text text-anchor="middle" x="156" y="-204" font-family="Helvetica,sans-Serif" font-size="10.00" fill="#000000">openage::math::hypot3</text>
</a>
</g>
</g>
<!-- Node113&#45;&gt;Node119 -->
<g id="edge7" class="edge">
<title>Node113&#45;&gt;Node119</title>
<path fill="none" stroke="#191970" d="M63.0587,-190.7107C74.4967,-192.6539 87.393,-194.8448 99.8563,-196.9621"/>
<polygon fill="#191970" stroke="#191970" points="63.4637,-187.2295 53.0188,-189.0051 62.2913,-194.1306 63.4637,-187.2295"/>
</g>
<!-- Node123 -->
<g id="node11" class="node">
<title>Node123</title>
<g id="a_node11"><a xlink:href="../../df/da8/classopenage_1_1util_1_1_vector.xhtml#a5b3b46a13e28d59eaefacf1549269f9b" target="_top" xlink:title="Euclidian norm aka length. ">
<polygon fill="#ffffff" stroke="#000000" points="102.5,-147.5 102.5,-177.5 209.5,-177.5 209.5,-147.5 102.5,-147.5"/>
<text text-anchor="start" x="110.5" y="-165.5" font-family="Helvetica,sans-Serif" font-size="10.00" fill="#000000">openage::util::Vector</text>
<text text-anchor="middle" x="156" y="-154.5" font-family="Helvetica,sans-Serif" font-size="10.00" fill="#000000">::norm</text>
</a>
</g>
</g>
<!-- Node113&#45;&gt;Node123 -->
<g id="edge11" class="edge">
<title>Node113&#45;&gt;Node123</title>
<path fill="none" stroke="#191970" d="M63.208,-178.2639C75.3444,-176.2021 89.1098,-173.8636 102.2522,-171.6309"/>
<polygon fill="#191970" stroke="#191970" points="62.2913,-174.8694 53.0188,-179.9949 63.4637,-181.7705 62.2913,-174.8694"/>
</g>
<!-- Node125 -->
<g id="node13" class="node">
<title>Node125</title>
<g id="a_node13"><a xlink:href="../../d4/d43/classopenage_1_1util_1_1_quaternion.xhtml#a82f95e1d240ee7f39982060a17fe37ec" target="_top" xlink:title="Calculate the length of the quaternion. ">
<polygon fill="#ffffff" stroke="#000000" points="93.5,-98.5 93.5,-128.5 218.5,-128.5 218.5,-98.5 93.5,-98.5"/>
<text text-anchor="start" x="101.5" y="-116.5" font-family="Helvetica,sans-Serif" font-size="10.00" fill="#000000">openage::util::Quaternion</text>
<text text-anchor="middle" x="156" y="-105.5" font-family="Helvetica,sans-Serif" font-size="10.00" fill="#000000">::norm</text>
</a>
</g>
</g>
<!-- Node113&#45;&gt;Node125 -->
<g id="edge13" class="edge">
<title>Node113&#45;&gt;Node125</title>
<path fill="none" stroke="#191970" d="M45.1907,-168.0792C57.1087,-158.2274 73.2286,-146.0011 89,-137.5 95.0907,-134.217 101.7228,-131.2218 108.368,-128.5457"/>
<polygon fill="#191970" stroke="#191970" points="42.6885,-165.6117 37.3202,-174.7459 47.2129,-170.9531 42.6885,-165.6117"/>
</g>
<!-- Node129 -->
<g id="node17" class="node">
<title>Node129</title>
<g id="a_node17"><a xlink:href="../../d4/d43/classopenage_1_1util_1_1_quaternion.xhtml#aa16fe3c08c498d69f102951ae67fc4ca" target="_top" xlink:title="Constructs a quaternion from a rotation matrix. ">
<polygon fill="#ffffff" stroke="#000000" points="93.5,-49.5 93.5,-79.5 218.5,-79.5 218.5,-49.5 93.5,-49.5"/>
<text text-anchor="start" x="101.5" y="-67.5" font-family="Helvetica,sans-Serif" font-size="10.00" fill="#000000">openage::util::Quaternion</text>
<text text-anchor="middle" x="156" y="-56.5" font-family="Helvetica,sans-Serif" font-size="10.00" fill="#000000">::Quaternion</text>
</a>
</g>
</g>
<!-- Node113&#45;&gt;Node129 -->
<g id="edge17" class="edge">
<title>Node113&#45;&gt;Node129</title>
<path fill="none" stroke="#191970" d="M34.36,-165.4492C44.1564,-143.9118 62.8532,-109.1651 89,-88.5 93.3621,-85.0524 98.2609,-82.0752 103.373,-79.5097"/>
<polygon fill="#191970" stroke="#191970" points="31.0538,-164.2755 30.2723,-174.8415 37.4722,-167.0691 31.0538,-164.2755"/>
</g>
<!-- Node130 -->
<g id="node18" class="node">
<title>Node130</title>
<g id="a_node18"><a xlink:href="../../dc/d65/classopenage_1_1util_1_1_fixed_point.xhtml#ae963a0d669b00ec8a65da1bf0041172a" target="_top" xlink:title="openage::util::FixedPoint\l\&lt; int64_t, 16 \&gt;::sqrt">
<polygon fill="#ffffff" stroke="#000000" points="93.5,-.5 93.5,-30.5 218.5,-30.5 218.5,-.5 93.5,-.5"/>
<text text-anchor="start" x="101.5" y="-18.5" font-family="Helvetica,sans-Serif" font-size="10.00" fill="#000000">openage::util::FixedPoint</text>
<text text-anchor="middle" x="156" y="-7.5" font-family="Helvetica,sans-Serif" font-size="10.00" fill="#000000">&lt; int64_t, 16 &gt;::sqrt</text>
</a>
</g>
</g>
<!-- Node113&#45;&gt;Node130 -->
<g id="edge18" class="edge">
<title>Node113&#45;&gt;Node130</title>
<path fill="none" stroke="#191970" d="M29.7884,-164.9162C35.9653,-134.0611 52.1567,-74.0923 89,-39.5 92.6931,-36.0325 96.9219,-33.0601 101.4199,-30.5131"/>
<polygon fill="#191970" stroke="#191970" points="26.3253,-164.3956 27.9461,-174.8657 33.2083,-165.6701 26.3253,-164.3956"/>
</g>
<!-- Node114&#45;&gt;Node115 -->
<g id="edge2" class="edge">
<title>Node114&#45;&gt;Node115</title>
<path fill="none" stroke="#191970" d="M233.4545,-330.5439C242.4873,-329.6161 251.6046,-328.6796 260.3735,-327.7789"/>
<polygon fill="#191970" stroke="#191970" points="232.9052,-327.0819 223.3152,-331.5854 233.6205,-334.0452 232.9052,-327.0819"/>
</g>
<!-- Node116 -->
<g id="node4" class="node">
<title>Node116</title>
<g id="a_node4"><a xlink:href="../../d4/d15/classopenage_1_1_terrain.xhtml#ab0736d57ce5014c9caea96125ad87b0d" target="_top" xlink:title="create the drawing instruction data. ">
<polygon fill="#ffffff" stroke="#000000" points="423,-306.5 423,-336.5 545,-336.5 545,-306.5 423,-306.5"/>
<text text-anchor="start" x="431" y="-324.5" font-family="Helvetica,sans-Serif" font-size="10.00" fill="#000000">openage::Terrain::create</text>
<text text-anchor="middle" x="484" y="-313.5" font-family="Helvetica,sans-Serif" font-size="10.00" fill="#000000">_draw_advice</text>
</a>
</g>
</g>
<!-- Node115&#45;&gt;Node116 -->
<g id="edge3" class="edge">
<title>Node115&#45;&gt;Node116</title>
<path fill="none" stroke="#191970" d="M393.1334,-321.5C403.0111,-321.5 413.0812,-321.5 422.7484,-321.5"/>
<polygon fill="#191970" stroke="#191970" points="392.9343,-318.0001 382.9343,-321.5 392.9342,-325.0001 392.9343,-318.0001"/>
</g>
<!-- Node117 -->
<g id="node5" class="node">
<title>Node117</title>
<g id="a_node5"><a xlink:href="../../d4/d15/classopenage_1_1_terrain.xhtml#ae8e6bd38cdaa86dcff31251de1c6deec" target="_top" xlink:title="draw the currently visible terrain area on screen. ">
<polygon fill="#ffffff" stroke="#000000" points="584,-312 584,-331 700,-331 700,-312 584,-312"/>
<text text-anchor="middle" x="642" y="-319" font-family="Helvetica,sans-Serif" font-size="10.00" fill="#000000">openage::Terrain::draw</text>
</a>
</g>
</g>
<!-- Node116&#45;&gt;Node117 -->
<g id="edge4" class="edge">
<title>Node116&#45;&gt;Node117</title>
<path fill="none" stroke="#191970" d="M555.3718,-321.5C564.9291,-321.5 574.6368,-321.5 583.9282,-321.5"/>
<polygon fill="#191970" stroke="#191970" points="555.087,-318.0001 545.0869,-321.5 555.0869,-325.0001 555.087,-318.0001"/>
</g>
<!-- Node120 -->
<g id="node8" class="node">
<title>Node120</title>
<g id="a_node8"><a xlink:href="../../d9/d0c/classopenage_1_1_unit_texture.xhtml#ae0fe182788f2f7b1f346abf32cbac39a" target="_top" xlink:title="draw object with direction ">
<polygon fill="#ffffff" stroke="#000000" points="266.5,-243.5 266.5,-273.5 376.5,-273.5 376.5,-243.5 266.5,-243.5"/>
<text text-anchor="start" x="274.5" y="-261.5" font-family="Helvetica,sans-Serif" font-size="10.00" fill="#000000">openage::UnitTexture</text>
<text text-anchor="middle" x="321.5" y="-250.5" font-family="Helvetica,sans-Serif" font-size="10.00" fill="#000000">::draw</text>
</a>
</g>
</g>
<!-- Node119&#45;&gt;Node120 -->
<g id="edge8" class="edge">
<title>Node119&#45;&gt;Node120</title>
<path fill="none" stroke="#191970" d="M198.235,-218.9394C206.4597,-221.4092 215.0079,-224.0093 223,-226.5 240.3379,-231.9032 259.3271,-238.0239 275.9659,-243.4549"/>
<polygon fill="#191970" stroke="#191970" points="199.0057,-215.5168 188.4223,-216.0074 197.0017,-222.2238 199.0057,-215.5168"/>
</g>
<!-- Node121 -->
<g id="node9" class="node">
<title>Node121</title>
<g id="a_node9"><a xlink:href="../../d4/d49/structopenage_1_1coord_1_1phys3__delta.xhtml#af63b7f5b841ffab9004b2ffd3550ab9e" target="_top" xlink:title="openage::coord::phys3\l_delta::length">
<polygon fill="#ffffff" stroke="#000000" points="263.5,-194.5 263.5,-224.5 379.5,-224.5 379.5,-194.5 263.5,-194.5"/>
<text text-anchor="start" x="271.5" y="-212.5" font-family="Helvetica,sans-Serif" font-size="10.00" fill="#000000">openage::coord::phys3</text>
<text text-anchor="middle" x="321.5" y="-201.5" font-family="Helvetica,sans-Serif" font-size="10.00" fill="#000000">_delta::length</text>
</a>
</g>
</g>
<!-- Node119&#45;&gt;Node121 -->
<g id="edge9" class="edge">
<title>Node119&#45;&gt;Node121</title>
<path fill="none" stroke="#191970" d="M224.5711,-207.743C237.475,-207.9769 250.853,-208.2194 263.3991,-208.4468"/>
<polygon fill="#191970" stroke="#191970" points="224.4109,-204.2396 214.3491,-207.5577 224.284,-211.2384 224.4109,-204.2396"/>
</g>
<!-- Node122 -->
<g id="node10" class="node">
<title>Node122</title>
<g id="a_node10"><a xlink:href="../../d5/d14/classopenage_1_1_projectile_action.xhtml#ad5f60eb378fa84cbccd6fa61f221c7e5" target="_top" xlink:title="openage::ProjectileAction\l::ProjectileAction">
<polygon fill="#ffffff" stroke="#000000" points="420,-194.5 420,-224.5 548,-224.5 548,-194.5 420,-194.5"/>
<text text-anchor="start" x="428" y="-212.5" font-family="Helvetica,sans-Serif" font-size="10.00" fill="#000000">openage::ProjectileAction</text>
<text text-anchor="middle" x="484" y="-201.5" font-family="Helvetica,sans-Serif" font-size="10.00" fill="#000000">::ProjectileAction</text>
</a>
</g>
</g>
<!-- Node121&#45;&gt;Node122 -->
<g id="edge10" class="edge">
<title>Node121&#45;&gt;Node122</title>
<path fill="none" stroke="#191970" d="M389.9257,-209.5C399.8469,-209.5 410.0297,-209.5 419.8623,-209.5"/>
<polygon fill="#191970" stroke="#191970" points="389.7073,-206.0001 379.7072,-209.5 389.7072,-213.0001 389.7073,-206.0001"/>
</g>
<!-- Node124 -->
<g id="node12" class="node">
<title>Node124</title>
<g id="a_node12"><a xlink:href="../../df/da8/classopenage_1_1util_1_1_vector.xhtml#aae6e40b885d6cdf296bd2568bd2b5e49" target="_top" xlink:title="Scales the Vector so that its norm is 1. ">
<polygon fill="#ffffff" stroke="#000000" points="268,-145.5 268,-175.5 375,-175.5 375,-145.5 268,-145.5"/>
<text text-anchor="start" x="276" y="-163.5" font-family="Helvetica,sans-Serif" font-size="10.00" fill="#000000">openage::util::Vector</text>
<text text-anchor="middle" x="321.5" y="-152.5" font-family="Helvetica,sans-Serif" font-size="10.00" fill="#000000">::normalize</text>
</a>
</g>
</g>
<!-- Node123&#45;&gt;Node124 -->
<g id="edge12" class="edge">
<title>Node123&#45;&gt;Node124</title>
<path fill="none" stroke="#191970" d="M219.9471,-161.7272C235.7411,-161.5364 252.4999,-161.3338 267.7535,-161.1495"/>
<polygon fill="#191970" stroke="#191970" points="219.6901,-158.23 209.7331,-161.8507 219.7747,-165.2295 219.6901,-158.23"/>
</g>
<!-- Node126 -->
<g id="node14" class="node">
<title>Node126</title>
<g id="a_node14"><a xlink:href="../../d4/d43/classopenage_1_1util_1_1_quaternion.xhtml#a1ea971d2f39920e062b0b91971296b65" target="_top" xlink:title="Ensure that the quaternion&#39;s length equals 1. ">
<polygon fill="#ffffff" stroke="#000000" points="259,-96.5 259,-126.5 384,-126.5 384,-96.5 259,-96.5"/>
<text text-anchor="start" x="267" y="-114.5" font-family="Helvetica,sans-Serif" font-size="10.00" fill="#000000">openage::util::Quaternion</text>
<text text-anchor="middle" x="321.5" y="-103.5" font-family="Helvetica,sans-Serif" font-size="10.00" fill="#000000">::normalize</text>
</a>
</g>
</g>
<!-- Node125&#45;&gt;Node126 -->
<g id="edge14" class="edge">
<title>Node125&#45;&gt;Node126</title>
<path fill="none" stroke="#191970" d="M228.5681,-112.623C238.6589,-112.5011 248.9547,-112.3767 258.8431,-112.2572"/>
<polygon fill="#191970" stroke="#191970" points="228.5254,-109.1232 218.5685,-112.7439 228.6101,-116.1227 228.5254,-109.1232"/>
</g>
<!-- Node127 -->
<g id="node15" class="node">
<title>Node127</title>
<g id="a_node15"><a xlink:href="../../d4/d43/classopenage_1_1util_1_1_quaternion.xhtml#adaf56c826ceec78d0f4980148ce498fa" target="_top" xlink:title="Return the normalized version of this quaternion. ">
<polygon fill="#ffffff" stroke="#000000" points="421.5,-96.5 421.5,-126.5 546.5,-126.5 546.5,-96.5 421.5,-96.5"/>
<text text-anchor="start" x="429.5" y="-114.5" font-family="Helvetica,sans-Serif" font-size="10.00" fill="#000000">openage::util::Quaternion</text>
<text text-anchor="middle" x="484" y="-103.5" font-family="Helvetica,sans-Serif" font-size="10.00" fill="#000000">::normalized</text>
</a>
</g>
</g>
<!-- Node126&#45;&gt;Node127 -->
<g id="edge15" class="edge">
<title>Node126&#45;&gt;Node127</title>
<path fill="none" stroke="#191970" d="M394.3968,-111.5C403.389,-111.5 412.5191,-111.5 421.3403,-111.5"/>
<polygon fill="#191970" stroke="#191970" points="394.3268,-108.0001 384.3267,-111.5 394.3267,-115.0001 394.3268,-108.0001"/>
</g>
<!-- Node128 -->
<g id="node16" class="node">
<title>Node128</title>
<g id="a_node16"><a xlink:href="../../d5/d3c/namespaceopenage_1_1util_1_1tests.xhtml#ab3f1d081c603b383598beeee8e4429df" target="_top" xlink:title="openage::util::tests\l::quaternion">
<polygon fill="#ffffff" stroke="#000000" points="592,-96.5 592,-126.5 692,-126.5 692,-96.5 592,-96.5"/>
<text text-anchor="start" x="600" y="-114.5" font-family="Helvetica,sans-Serif" font-size="10.00" fill="#000000">openage::util::tests</text>
<text text-anchor="middle" x="642" y="-103.5" font-family="Helvetica,sans-Serif" font-size="10.00" fill="#000000">::quaternion</text>
</a>
</g>
</g>
<!-- Node127&#45;&gt;Node128 -->
<g id="edge16" class="edge">
<title>Node127&#45;&gt;Node128</title>
<path fill="none" stroke="#191970" d="M557.175,-111.5C568.9484,-111.5 580.8953,-111.5 591.962,-111.5"/>
<polygon fill="#191970" stroke="#191970" points="556.8998,-108.0001 546.8998,-111.5 556.8997,-115.0001 556.8998,-108.0001"/>
</g>
</g>
</svg>
