<?xml version="1.0" encoding="UTF-8" standalone="no"?>
<!DOCTYPE svg PUBLIC "-//W3C//DTD SVG 1.1//EN"
 "http://www.w3.org/Graphics/SVG/1.1/DTD/svg11.dtd">
<!-- Generated by graphviz version 2.40.1 (20161225.0304)
 -->
<!-- Title: openage::renderer::Font::get_horizontal_kerning Pages: 1 -->
<svg width="444pt" height="88pt"
 viewBox="0.00 0.00 444.00 88.00" xmlns="http://www.w3.org/2000/svg" xmlns:xlink="http://www.w3.org/1999/xlink">
<g id="graph0" class="graph" transform="scale(1 1) rotate(0) translate(4 84)">
<title>openage::renderer::Font::get_horizontal_kerning</title>
<polygon fill="#ffffff" stroke="transparent" points="-4,4 -4,-84 440,-84 440,4 -4,4"/>
<!-- Node40 -->
<g id="node1" class="node">
<title>Node40</title>
<polygon fill="#bfbfbf" stroke="#000000" points="0,-19 0,-60 103,-60 103,-19 0,-19"/>
<text text-anchor="start" x="8" y="-48" font-family="Helvetica,sans-Serif" font-size="10.00" fill="#000000">openage::renderer::</text>
<text text-anchor="start" x="8" y="-37" font-family="Helvetica,sans-Serif" font-size="10.00" fill="#000000">Font::get_horizontal</text>
<text text-anchor="middle" x="51.5" y="-26" font-family="Helvetica,sans-Serif" font-size="10.00" fill="#000000">_kerning</text>
</g>
<!-- Node41 -->
<g id="node2" class="node">
<title>Node41</title>
<g id="a_node2"><a xlink:href="../../df/db8/classopenage_1_1renderer_1_1_font.xhtml#a2fac4e6433df045834538de8e814fc13" target="_top" xlink:title="Get the advance width of a particular string. ">
<polygon fill="#ffffff" stroke="#000000" points="139,-49.5 139,-79.5 265,-79.5 265,-49.5 139,-49.5"/>
<text text-anchor="start" x="147" y="-67.5" font-family="Helvetica,sans-Serif" font-size="10.00" fill="#000000">openage::renderer::</text>
<text text-anchor="middle" x="202" y="-56.5" font-family="Helvetica,sans-Serif" font-size="10.00" fill="#000000">Font::get_advance_width</text>
</a>
</g>
</g>
<!-- Node40&#45;&gt;Node41 -->
<g id="edge1" class="edge">
<title>Node40&#45;&gt;Node41</title>
<path fill="none" stroke="#191970" d="M113.421,-49.7859C121.8415,-51.1846 130.492,-52.6216 138.9324,-54.0237"/>
<polygon fill="#191970" stroke="#191970" points="113.732,-46.2896 103.2936,-48.1036 112.5848,-53.195 113.732,-46.2896"/>
</g>
<!-- Node43 -->
<g id="node4" class="node">
<title>Node43</title>
<g id="a_node4"><a xlink:href="../../d4/dba/classopenage_1_1renderer_1_1_text_renderer.xhtml#ad5f8238ffefc1fcf24366c34141b710e" target="_top" xlink:title="Render all the text draw requests made during the frame. ">
<polygon fill="#ffffff" stroke="#000000" points="147.5,-.5 147.5,-30.5 256.5,-30.5 256.5,-.5 147.5,-.5"/>
<text text-anchor="start" x="155.5" y="-18.5" font-family="Helvetica,sans-Serif" font-size="10.00" fill="#000000">openage::renderer::</text>
<text text-anchor="middle" x="202" y="-7.5" font-family="Helvetica,sans-Serif" font-size="10.00" fill="#000000">TextRenderer::render</text>
</a>
</g>
</g>
<!-- Node40&#45;&gt;Node43 -->
<g id="edge3" class="edge">
<title>Node40&#45;&gt;Node43</title>
<path fill="none" stroke="#191970" d="M113.4519,-29.6206C124.6703,-27.8316 136.2961,-25.9777 147.2886,-24.2247"/>
<polygon fill="#191970" stroke="#191970" points="112.6176,-26.2094 103.2936,-31.2406 113.72,-33.122 112.6176,-26.2094"/>
</g>
<!-- Node42 -->
<g id="node3" class="node">
<title>Node42</title>
<g id="a_node3"><a xlink:href="../../d7/d6d/classopenage_1_1console_1_1_console.xhtml#a0e1f861a8f19ed84b00c580d50d9f49f" target="_top" xlink:title="openage::console::Console\l::Console">
<polygon fill="#ffffff" stroke="#000000" points="301,-49.5 301,-79.5 436,-79.5 436,-49.5 301,-49.5"/>
<text text-anchor="start" x="309" y="-67.5" font-family="Helvetica,sans-Serif" font-size="10.00" fill="#000000">openage::console::Console</text>
<text text-anchor="middle" x="368.5" y="-56.5" font-family="Helvetica,sans-Serif" font-size="10.00" fill="#000000">::Console</text>
</a>
</g>
</g>
<!-- Node41&#45;&gt;Node42 -->
<g id="edge2" class="edge">
<title>Node41&#45;&gt;Node42</title>
<path fill="none" stroke="#191970" d="M275.5758,-64.5C283.9739,-64.5 292.505,-64.5 300.8212,-64.5"/>
<polygon fill="#191970" stroke="#191970" points="275.4215,-61.0001 265.4215,-64.5 275.4214,-68.0001 275.4215,-61.0001"/>
</g>
</g>
</svg>
