<?xml version="1.0" encoding="UTF-8" standalone="no"?>
<!DOCTYPE svg PUBLIC "-//W3C//DTD SVG 1.1//EN"
 "http://www.w3.org/Graphics/SVG/1.1/DTD/svg11.dtd">
<!-- Generated by graphviz version 2.40.1 (20161225.0304)
 -->
<!-- Title: openage::datastructure::PairingHeap::pop Pages: 1 -->
<!--zoomable 194 -->
<svg id="main" version="1.1" xmlns="http://www.w3.org/2000/svg" xmlns:xlink="http://www.w3.org/1999/xlink" xml:space="preserve" onload="init(evt)">
<style type="text/css"><![CDATA[
.edge:hover path { stroke: red; }
.edge:hover polygon { stroke: red; fill: red; }
]]></style>
<script type="text/javascript"><![CDATA[
var edges = document.getElementsByTagName('g');
if (edges && edges.length) {
  for (var i=0;i<edges.length;i++) {
    if (edges[i].id.substr(0,4)=='edge') {
      edges[i].setAttribute('class','edge');
    }
  }
}
]]></script>
        <defs>
                <circle id="rim" cx="0" cy="0" r="7"/>
                <circle id="rim2" cx="0" cy="0" r="3.5"/>
                <g id="zoomPlus">
                        <use xlink:href="#rim" fill="#404040">
                                <set attributeName="fill" to="#808080" begin="zoomplus.mouseover" end="zoomplus.mouseout"/>
                        </use>
                        <path d="M-4,0h8M0,-4v8" fill="none" stroke="white" stroke-width="1.5" pointer-events="none"/>
                </g>
                <g id="zoomMin">
                        <use xlink:href="#rim" fill="#404040">
                                <set attributeName="fill" to="#808080" begin="zoomminus.mouseover" end="zoomminus.mouseout"/>
                        </use>
                        <path d="M-4,0h8" fill="none" stroke="white" stroke-width="1.5" pointer-events="none"/>
                </g>
                <g id="dirArrow">
                        <path fill="none" stroke="white" stroke-width="1.5" d="M0,-3.0v7 M-2.5,-0.5L0,-3.0L2.5,-0.5"/>
                </g>
               <g id="resetDef">
                       <use xlink:href="#rim2" fill="#404040">
                               <set attributeName="fill" to="#808080" begin="reset.mouseover" end="reset.mouseout"/>
                       </use>
               </g>
        </defs>

<script type="text/javascript">
var viewWidth = 940;
var viewHeight = 194;
var sectionId = 'dynsection-5';
</script>
<script xlink:href="../../svgpan.js"/>
<svg id="graph" class="graph">
<g id="viewport">
<title>openage::datastructure::PairingHeap::pop</title>
<polygon fill="#ffffff" stroke="transparent" points="-4,4 -4,-190 936,-190 936,4 -4,4"/>
<!-- Node32 -->
<g id="node1" class="node">
<title>Node32</title>
<polygon fill="#bfbfbf" stroke="#000000" points="0,-47.5 0,-77.5 116,-77.5 116,-47.5 0,-47.5"/>
<text text-anchor="start" x="8" y="-65.5" font-family="Helvetica,sans-Serif" font-size="10.00" fill="#000000">openage::datastructure</text>
<text text-anchor="middle" x="58" y="-54.5" font-family="Helvetica,sans-Serif" font-size="10.00" fill="#000000">::PairingHeap::pop</text>
</g>
<!-- Node33 -->
<g id="node2" class="node">
<title>Node33</title>
<g id="a_node2"><a xlink:href="../../d3/df4/namespaceopenage_1_1path.xhtml#acafe3c2e0b6cef7750a14663eab6c883" target="_top" xlink:title="finds a path between two endpoints ">
<polygon fill="#ffffff" stroke="#000000" points="176.5,-77 176.5,-96 287.5,-96 287.5,-77 176.5,-77"/>
<text text-anchor="middle" x="232" y="-84" font-family="Helvetica,sans-Serif" font-size="10.00" fill="#000000">openage::path::a_star</text>
</a>
</g>
</g>
<!-- Node32&#45;&gt;Node33 -->
<g id="edge1" class="edge">
<title>Node32&#45;&gt;Node33</title>
<path fill="none" stroke="#191970" d="M126.5666,-71.9575C143.0864,-74.236 160.5354,-76.6428 176.3808,-78.8284"/>
<polygon fill="#191970" stroke="#191970" points="126.808,-68.4577 116.4235,-70.5584 125.8515,-75.3921 126.808,-68.4577"/>
</g>
<!-- Node42 -->
<g id="node11" class="node">
<title>Node42</title>
<g id="a_node11"><a xlink:href="../../d1/d17/classopenage_1_1event_1_1_event_store.xhtml#a6758260ffbc439c15c70590979acb2f9" target="_top" xlink:title="openage::event::EventStore::pop">
<polygon fill="#ffffff" stroke="#000000" points="152,-34 152,-53 312,-53 312,-34 152,-34"/>
<text text-anchor="middle" x="232" y="-41" font-family="Helvetica,sans-Serif" font-size="10.00" fill="#000000">openage::event::EventStore::pop</text>
</a>
</g>
</g>
<!-- Node32&#45;&gt;Node42 -->
<g id="edge11" class="edge">
<title>Node32&#45;&gt;Node42</title>
<path fill="none" stroke="#191970" d="M126.4307,-55.0277C134.7492,-54.1193 143.3053,-53.1851 151.7752,-52.2602"/>
<polygon fill="#191970" stroke="#191970" points="125.9845,-51.5555 116.4235,-56.1204 126.7444,-58.5141 125.9845,-51.5555"/>
</g>
<!-- Node34 -->
<g id="node3" class="node">
<title>Node34</title>
<g id="a_node3"><a xlink:href="../../d3/df4/namespaceopenage_1_1path.xhtml#a4699fb2dbfd8178b2234b9fbb935179f" target="_top" xlink:title="path between two static points ">
<polygon fill="#ffffff" stroke="#000000" points="360,-137 360,-156 479,-156 479,-137 360,-137"/>
<text text-anchor="middle" x="419.5" y="-144" font-family="Helvetica,sans-Serif" font-size="10.00" fill="#000000">openage::path::to_point</text>
</a>
</g>
</g>
<!-- Node33&#45;&gt;Node34 -->
<g id="edge2" class="edge">
<title>Node33&#45;&gt;Node34</title>
<path fill="none" stroke="#191970" d="M266.7726,-99.61C289.6891,-108.0464 320.4459,-118.9845 348,-127.5 358.6761,-130.7994 370.3535,-134.0507 381.1188,-136.9054"/>
<polygon fill="#191970" stroke="#191970" points="267.7429,-96.237 257.1498,-96.045 265.311,-102.8011 267.7429,-96.237"/>
</g>
<!-- Node39 -->
<g id="node8" class="node">
<title>Node39</title>
<g id="a_node8"><a xlink:href="../../d3/df4/namespaceopenage_1_1path.xhtml#a047e97b9a81a866f064ad6d6f8dddfd6" target="_top" xlink:title="path between 2 objects, with how close to come to end point ">
<polygon fill="#ffffff" stroke="#000000" points="357.5,-99 357.5,-118 481.5,-118 481.5,-99 357.5,-99"/>
<text text-anchor="middle" x="419.5" y="-106" font-family="Helvetica,sans-Serif" font-size="10.00" fill="#000000">openage::path::to_object</text>
</a>
</g>
</g>
<!-- Node33&#45;&gt;Node39 -->
<g id="edge7" class="edge">
<title>Node33&#45;&gt;Node39</title>
<path fill="none" stroke="#191970" d="M297.7074,-94.2097C317.097,-96.4847 338.2492,-98.9666 357.4039,-101.2141"/>
<polygon fill="#191970" stroke="#191970" points="298.0883,-90.7304 287.7485,-93.0412 297.2725,-97.6827 298.0883,-90.7304"/>
</g>
<!-- Node41 -->
<g id="node10" class="node">
<title>Node41</title>
<g id="a_node10"><a xlink:href="../../d3/df4/namespaceopenage_1_1path.xhtml#a4382f59f9523f9dd89a6689336cc353a" target="_top" xlink:title="path to nearest object with lambda ">
<polygon fill="#ffffff" stroke="#000000" points="369.5,-49.5 369.5,-79.5 469.5,-79.5 469.5,-49.5 369.5,-49.5"/>
<text text-anchor="start" x="377.5" y="-67.5" font-family="Helvetica,sans-Serif" font-size="10.00" fill="#000000">openage::path::find</text>
<text text-anchor="middle" x="419.5" y="-56.5" font-family="Helvetica,sans-Serif" font-size="10.00" fill="#000000">_nearest</text>
</a>
</g>
</g>
<!-- Node33&#45;&gt;Node41 -->
<g id="edge10" class="edge">
<title>Node33&#45;&gt;Node41</title>
<path fill="none" stroke="#191970" d="M297.9783,-78.7585C321.4475,-76.0048 347.469,-72.9516 369.392,-70.3793"/>
<polygon fill="#191970" stroke="#191970" points="297.2725,-75.3173 287.7485,-79.9588 298.0883,-82.2696 297.2725,-75.3173"/>
</g>
<!-- Node35 -->
<g id="node4" class="node">
<title>Node35</title>
<g id="a_node4"><a xlink:href="../../d2/d4e/classopenage_1_1_move_action.xhtml#a4e56fc82672dfaf3c62f846afbd6df69" target="_top" xlink:title="use a star to find a path to target ">
<polygon fill="#ffffff" stroke="#000000" points="527,-131.5 527,-161.5 638,-161.5 638,-131.5 527,-131.5"/>
<text text-anchor="start" x="535" y="-149.5" font-family="Helvetica,sans-Serif" font-size="10.00" fill="#000000">openage::MoveAction</text>
<text text-anchor="middle" x="582.5" y="-138.5" font-family="Helvetica,sans-Serif" font-size="10.00" fill="#000000">::set_path</text>
</a>
</g>
</g>
<!-- Node34&#45;&gt;Node35 -->
<g id="edge3" class="edge">
<title>Node34&#45;&gt;Node35</title>
<path fill="none" stroke="#191970" d="M489.6029,-146.5C502.0365,-146.5 514.8311,-146.5 526.7983,-146.5"/>
<polygon fill="#191970" stroke="#191970" points="489.2697,-143.0001 479.2696,-146.5 489.2696,-150.0001 489.2697,-143.0001"/>
</g>
<!-- Node36 -->
<g id="node5" class="node">
<title>Node36</title>
<g id="a_node5"><a xlink:href="../../d2/d4e/classopenage_1_1_move_action.xhtml#a1b34ceffe821a5ef2afd3c3fc08ae3d1" target="_top" xlink:title="openage::MoveAction\l::initialise">
<polygon fill="#ffffff" stroke="#000000" points="674,-155.5 674,-185.5 785,-185.5 785,-155.5 674,-155.5"/>
<text text-anchor="start" x="682" y="-173.5" font-family="Helvetica,sans-Serif" font-size="10.00" fill="#000000">openage::MoveAction</text>
<text text-anchor="middle" x="729.5" y="-162.5" font-family="Helvetica,sans-Serif" font-size="10.00" fill="#000000">::initialise</text>
</a>
</g>
</g>
<!-- Node35&#45;&gt;Node36 -->
<g id="edge4" class="edge">
<title>Node35&#45;&gt;Node36</title>
<path fill="none" stroke="#191970" d="M648.0775,-157.2065C656.6805,-158.6111 665.4299,-160.0396 673.847,-161.4138"/>
<polygon fill="#191970" stroke="#191970" points="648.5077,-153.7305 638.0744,-155.5734 647.3797,-160.639 648.5077,-153.7305"/>
</g>
<!-- Node38 -->
<g id="node7" class="node">
<title>Node38</title>
<g id="a_node7"><a xlink:href="../../d2/d4e/classopenage_1_1_move_action.xhtml#afa4e4983c00b0207af76c7b717e81a05" target="_top" xlink:title="each action has its own update functionality which gets called when this is the active action ...">
<polygon fill="#ffffff" stroke="#000000" points="674,-106.5 674,-136.5 785,-136.5 785,-106.5 674,-106.5"/>
<text text-anchor="start" x="682" y="-124.5" font-family="Helvetica,sans-Serif" font-size="10.00" fill="#000000">openage::MoveAction</text>
<text text-anchor="middle" x="729.5" y="-113.5" font-family="Helvetica,sans-Serif" font-size="10.00" fill="#000000">::update</text>
</a>
</g>
</g>
<!-- Node35&#45;&gt;Node38 -->
<g id="edge6" class="edge">
<title>Node35&#45;&gt;Node38</title>
<path fill="none" stroke="#191970" d="M648.0775,-135.3474C656.6805,-133.8843 665.4299,-132.3963 673.847,-130.9648"/>
<polygon fill="#191970" stroke="#191970" points="647.346,-131.9214 638.0744,-137.0486 648.5197,-138.8223 647.346,-131.9214"/>
</g>
<!-- Node37 -->
<g id="node6" class="node">
<title>Node37</title>
<g id="a_node6"><a xlink:href="../../d2/d4e/classopenage_1_1_move_action.xhtml#a8ebbeeb2d2ebf769a9ee6a55020062c5" target="_top" xlink:title="moves unit to a given fixed location ">
<polygon fill="#ffffff" stroke="#000000" points="821,-155.5 821,-185.5 932,-185.5 932,-155.5 821,-155.5"/>
<text text-anchor="start" x="829" y="-173.5" font-family="Helvetica,sans-Serif" font-size="10.00" fill="#000000">openage::MoveAction</text>
<text text-anchor="middle" x="876.5" y="-162.5" font-family="Helvetica,sans-Serif" font-size="10.00" fill="#000000">::MoveAction</text>
</a>
</g>
</g>
<!-- Node36&#45;&gt;Node37 -->
<g id="edge5" class="edge">
<title>Node36&#45;&gt;Node37</title>
<path fill="none" stroke="#191970" d="M795.0775,-170.5C803.6805,-170.5 812.4299,-170.5 820.847,-170.5"/>
<polygon fill="#191970" stroke="#191970" points="795.0744,-167.0001 785.0744,-170.5 795.0744,-174.0001 795.0744,-167.0001"/>
</g>
<!-- Node39&#45;&gt;Node35 -->
<g id="edge9" class="edge">
<title>Node39&#45;&gt;Node35</title>
<path fill="none" stroke="#191970" d="M470.5912,-120.4108C488.4865,-124.5827 508.6652,-129.287 526.9104,-133.5405"/>
<polygon fill="#191970" stroke="#191970" points="471.1653,-116.9509 460.6318,-118.089 469.576,-123.7681 471.1653,-116.9509"/>
</g>
<!-- Node40 -->
<g id="node9" class="node">
<title>Node40</title>
<g id="a_node9"><a xlink:href="../../da/dd8/classopenage_1_1_idle_action.xhtml#a90d182b9575459830744488f776a2f4e" target="_top" xlink:title="each action has its own update functionality which gets called when this is the active action ...">
<polygon fill="#ffffff" stroke="#000000" points="531,-82.5 531,-112.5 634,-112.5 634,-82.5 531,-82.5"/>
<text text-anchor="start" x="539" y="-100.5" font-family="Helvetica,sans-Serif" font-size="10.00" fill="#000000">openage::IdleAction</text>
<text text-anchor="middle" x="582.5" y="-89.5" font-family="Helvetica,sans-Serif" font-size="10.00" fill="#000000">::update</text>
</a>
</g>
</g>
<!-- Node39&#45;&gt;Node40 -->
<g id="edge8" class="edge">
<title>Node39&#45;&gt;Node40</title>
<path fill="none" stroke="#191970" d="M491.6238,-103.6327C504.8633,-102.7393 518.4373,-101.8233 530.9232,-100.9806"/>
<polygon fill="#191970" stroke="#191970" points="491.3299,-100.1445 481.5883,-104.31 491.8013,-107.1286 491.3299,-100.1445"/>
</g>
<!-- Node43 -->
<g id="node12" class="node">
<title>Node43</title>
<g id="a_node12"><a xlink:href="../../de/daa/classopenage_1_1event_1_1_event_queue.xhtml#aec381e61d472643475de6fa50ae7b5d8" target="_top" xlink:title="Obtain the next event from the event_queue that happens before &lt;= max_time. ">
<polygon fill="#ffffff" stroke="#000000" points="348,-.5 348,-30.5 491,-30.5 491,-.5 348,-.5"/>
<text text-anchor="start" x="356" y="-18.5" font-family="Helvetica,sans-Serif" font-size="10.00" fill="#000000">openage::event::EventQueue</text>
<text text-anchor="middle" x="419.5" y="-7.5" font-family="Helvetica,sans-Serif" font-size="10.00" fill="#000000">::take_event</text>
</a>
</g>
</g>
<!-- Node42&#45;&gt;Node43 -->
<g id="edge12" class="edge">
<title>Node42&#45;&gt;Node43</title>
<path fill="none" stroke="#191970" d="M305.7146,-32.4919C319.5867,-30.4204 334.0728,-28.2571 347.8797,-26.1953"/>
<polygon fill="#191970" stroke="#191970" points="305.1139,-29.0428 295.7406,-33.9814 306.1479,-35.966 305.1139,-29.0428"/>
</g>
<!-- Node44 -->
<g id="node13" class="node">
<title>Node44</title>
<g id="a_node13"><a xlink:href="../../df/d23/classopenage_1_1event_1_1_loop.xhtml#aa73104f71472a83e1afff4f11e0c619f" target="_top" xlink:title="Execute the events. ">
<polygon fill="#ffffff" stroke="#000000" points="527.5,-.5 527.5,-30.5 637.5,-30.5 637.5,-.5 527.5,-.5"/>
<text text-anchor="start" x="535.5" y="-18.5" font-family="Helvetica,sans-Serif" font-size="10.00" fill="#000000">openage::event::Loop</text>
<text text-anchor="middle" x="582.5" y="-7.5" font-family="Helvetica,sans-Serif" font-size="10.00" fill="#000000">::execute_events</text>
</a>
</g>
</g>
<!-- Node43&#45;&gt;Node44 -->
<g id="edge13" class="edge">
<title>Node43&#45;&gt;Node44</title>
<path fill="none" stroke="#191970" d="M501.5853,-15.5C510.2195,-15.5 518.8449,-15.5 527.074,-15.5"/>
<polygon fill="#191970" stroke="#191970" points="501.4687,-12.0001 491.4686,-15.5 501.4686,-19.0001 501.4687,-12.0001"/>
</g>
<!-- Node45 -->
<g id="node14" class="node">
<title>Node45</title>
<g id="a_node14"><a xlink:href="../../df/d23/classopenage_1_1event_1_1_loop.xhtml#aeba9e515057a87d7fbfddb8585095de6" target="_top" xlink:title="Execute all events that are registered until a certain point in time. ">
<polygon fill="#ffffff" stroke="#000000" points="674.5,-.5 674.5,-30.5 784.5,-30.5 784.5,-.5 674.5,-.5"/>
<text text-anchor="start" x="682.5" y="-18.5" font-family="Helvetica,sans-Serif" font-size="10.00" fill="#000000">openage::event::Loop</text>
<text text-anchor="middle" x="729.5" y="-7.5" font-family="Helvetica,sans-Serif" font-size="10.00" fill="#000000">::reach_time</text>
</a>
</g>
</g>
<!-- Node44&#45;&gt;Node45 -->
<g id="edge14" class="edge">
<title>Node44&#45;&gt;Node45</title>
<path fill="none" stroke="#191970" d="M647.8238,-15.5C656.5725,-15.5 665.4777,-15.5 674.0353,-15.5"/>
<polygon fill="#191970" stroke="#191970" points="647.6556,-12.0001 637.6556,-15.5 647.6556,-19.0001 647.6556,-12.0001"/>
</g>
</g>
</svg>
        <g id="navigator" transform="translate(0 0)" fill="#404254">
                <rect fill="#f2f5e9" fill-opacity="0.5" stroke="#606060" stroke-width=".5" x="0" y="0" width="60" height="60"/>
                <use id="zoomplus" xlink:href="#zoomPlus" x="17" y="9" onmousedown="handleZoom(evt,'in')"/>
                <use id="zoomminus" xlink:href="#zoomMin" x="42" y="9" onmousedown="handleZoom(evt,'out')"/>
                <use id="reset" xlink:href="#resetDef" x="30" y="36" onmousedown="handleReset()"/>
                <g id="arrowUp" xlink:href="#dirArrow" transform="translate(30 24)" onmousedown="handlePan(0,-1)">
                  <use xlink:href="#rim" fill="#404040">
                        <set attributeName="fill" to="#808080" begin="arrowUp.mouseover" end="arrowUp.mouseout"/>
                  </use>
                  <path fill="none" stroke="white" stroke-width="1.5" d="M0,-3.0v7 M-2.5,-0.5L0,-3.0L2.5,-0.5"/>
                </g>
                <g id="arrowRight" xlink:href="#dirArrow" transform="rotate(90) translate(36 -43)" onmousedown="handlePan(1,0)">
                  <use xlink:href="#rim" fill="#404040">
                        <set attributeName="fill" to="#808080" begin="arrowRight.mouseover" end="arrowRight.mouseout"/>
                  </use>
                  <path fill="none" stroke="white" stroke-width="1.5" d="M0,-3.0v7 M-2.5,-0.5L0,-3.0L2.5,-0.5"/>
                </g>
                <g id="arrowDown" xlink:href="#dirArrow" transform="rotate(180) translate(-30 -48)" onmousedown="handlePan(0,1)">
                  <use xlink:href="#rim" fill="#404040">
                        <set attributeName="fill" to="#808080" begin="arrowDown.mouseover" end="arrowDown.mouseout"/>
                  </use>
                  <path fill="none" stroke="white" stroke-width="1.5" d="M0,-3.0v7 M-2.5,-0.5L0,-3.0L2.5,-0.5"/>
                </g>
                <g id="arrowLeft" xlink:href="#dirArrow" transform="rotate(270) translate(-36 17)" onmousedown="handlePan(-1,0)">
                  <use xlink:href="#rim" fill="#404040">
                        <set attributeName="fill" to="#808080" begin="arrowLeft.mouseover" end="arrowLeft.mouseout"/>
                  </use>
                  <path fill="none" stroke="white" stroke-width="1.5" d="M0,-3.0v7 M-2.5,-0.5L0,-3.0L2.5,-0.5"/>
                </g>
        </g>
        <svg viewBox="0 0 15 15" width="100%" height="30px" preserveAspectRatio="xMaxYMin meet">
         <g id="arrow_out" transform="scale(0.3 0.3)">
          <a xlink:href="classopenage_1_1datastructure_1_1_pairing_heap_ac6bcfcb890dd8d546b1b4c466cf09009_icgraph_org.svg" target="_base">
           <rect id="button" ry="5" rx="5" y="6" x="6" height="38" width="38"
                fill="#f2f5e9" fill-opacity="0.5" stroke="#606060" stroke-width="1.0"/>
           <path id="arrow"
             d="M 11.500037,31.436501 C 11.940474,20.09759 22.043105,11.32322 32.158766,21.979434 L 37.068811,17.246167 C 37.068811,17.246167 37.088388,32 37.088388,32 L 22.160133,31.978069 C 22.160133,31.978069 26.997745,27.140456 26.997745,27.140456 C 18.528582,18.264221 13.291696,25.230495 11.500037,31.436501 z"
             style="fill:#404040;"/>
          </a>
         </g>
        </svg>
</svg>
