<?xml version="1.0" encoding="UTF-8" standalone="no"?>
<!DOCTYPE svg PUBLIC "-//W3C//DTD SVG 1.1//EN"
 "http://www.w3.org/Graphics/SVG/1.1/DTD/svg11.dtd">
<!-- Generated by graphviz version 2.40.1 (20161225.0304)
 -->
<!-- Title: openage::datastructure::PairingHeap::top Pages: 1 -->
<svg width="789pt" height="39pt"
 viewBox="0.00 0.00 789.00 39.00" xmlns="http://www.w3.org/2000/svg" xmlns:xlink="http://www.w3.org/1999/xlink">
<g id="graph0" class="graph" transform="scale(1 1) rotate(0) translate(4 35)">
<title>openage::datastructure::PairingHeap::top</title>
<polygon fill="#ffffff" stroke="transparent" points="-4,4 -4,-35 785,-35 785,4 -4,4"/>
<!-- Node98 -->
<g id="node1" class="node">
<title>Node98</title>
<polygon fill="#bfbfbf" stroke="#000000" points="0,-.5 0,-30.5 116,-30.5 116,-.5 0,-.5"/>
<text text-anchor="start" x="8" y="-18.5" font-family="Helvetica,sans-Serif" font-size="10.00" fill="#000000">openage::datastructure</text>
<text text-anchor="middle" x="58" y="-7.5" font-family="Helvetica,sans-Serif" font-size="10.00" fill="#000000">::PairingHeap::top</text>
</g>
<!-- Node99 -->
<g id="node2" class="node">
<title>Node99</title>
<g id="a_node2"><a xlink:href="../../d1/d17/classopenage_1_1event_1_1_event_store.xhtml#abbad60ac960f4020d813237260867dcb" target="_top" xlink:title="openage::event::EventStore::top">
<polygon fill="#ffffff" stroke="#000000" points="152,-6 152,-25 310,-25 310,-6 152,-6"/>
<text text-anchor="middle" x="231" y="-13" font-family="Helvetica,sans-Serif" font-size="10.00" fill="#000000">openage::event::EventStore::top</text>
</a>
</g>
</g>
<!-- Node98&#45;&gt;Node99 -->
<g id="edge1" class="edge">
<title>Node98&#45;&gt;Node99</title>
<path fill="none" stroke="#191970" d="M126.2129,-15.5C134.6308,-15.5 143.2909,-15.5 151.8541,-15.5"/>
<polygon fill="#191970" stroke="#191970" points="126.0878,-12.0001 116.0878,-15.5 126.0877,-19.0001 126.0878,-12.0001"/>
</g>
<!-- Node100 -->
<g id="node3" class="node">
<title>Node100</title>
<g id="a_node3"><a xlink:href="../../de/daa/classopenage_1_1event_1_1_event_queue.xhtml#aec381e61d472643475de6fa50ae7b5d8" target="_top" xlink:title="Obtain the next event from the event_queue that happens before &lt;= max_time. ">
<polygon fill="#ffffff" stroke="#000000" points="346,-.5 346,-30.5 489,-30.5 489,-.5 346,-.5"/>
<text text-anchor="start" x="354" y="-18.5" font-family="Helvetica,sans-Serif" font-size="10.00" fill="#000000">openage::event::EventQueue</text>
<text text-anchor="middle" x="417.5" y="-7.5" font-family="Helvetica,sans-Serif" font-size="10.00" fill="#000000">::take_event</text>
</a>
</g>
</g>
<!-- Node99&#45;&gt;Node100 -->
<g id="edge2" class="edge">
<title>Node99&#45;&gt;Node100</title>
<path fill="none" stroke="#191970" d="M320.2018,-15.5C328.8465,-15.5 337.5378,-15.5 345.9776,-15.5"/>
<polygon fill="#191970" stroke="#191970" points="320.0928,-12.0001 310.0928,-15.5 320.0928,-19.0001 320.0928,-12.0001"/>
</g>
<!-- Node101 -->
<g id="node4" class="node">
<title>Node101</title>
<g id="a_node4"><a xlink:href="../../df/d23/classopenage_1_1event_1_1_loop.xhtml#aa73104f71472a83e1afff4f11e0c619f" target="_top" xlink:title="Execute the events. ">
<polygon fill="#ffffff" stroke="#000000" points="525,-.5 525,-30.5 635,-30.5 635,-.5 525,-.5"/>
<text text-anchor="start" x="533" y="-18.5" font-family="Helvetica,sans-Serif" font-size="10.00" fill="#000000">openage::event::Loop</text>
<text text-anchor="middle" x="580" y="-7.5" font-family="Helvetica,sans-Serif" font-size="10.00" fill="#000000">::execute_events</text>
</a>
</g>
</g>
<!-- Node100&#45;&gt;Node101 -->
<g id="edge3" class="edge">
<title>Node100&#45;&gt;Node101</title>
<path fill="none" stroke="#191970" d="M499.3335,-15.5C507.9412,-15.5 516.5402,-15.5 524.744,-15.5"/>
<polygon fill="#191970" stroke="#191970" points="499.2479,-12.0001 489.2479,-15.5 499.2479,-19.0001 499.2479,-12.0001"/>
</g>
<!-- Node102 -->
<g id="node5" class="node">
<title>Node102</title>
<g id="a_node5"><a xlink:href="../../df/d23/classopenage_1_1event_1_1_loop.xhtml#aeba9e515057a87d7fbfddb8585095de6" target="_top" xlink:title="Execute all events that are registered until a certain point in time. ">
<polygon fill="#ffffff" stroke="#000000" points="671,-.5 671,-30.5 781,-30.5 781,-.5 671,-.5"/>
<text text-anchor="start" x="679" y="-18.5" font-family="Helvetica,sans-Serif" font-size="10.00" fill="#000000">openage::event::Loop</text>
<text text-anchor="middle" x="726" y="-7.5" font-family="Helvetica,sans-Serif" font-size="10.00" fill="#000000">::reach_time</text>
</a>
</g>
</g>
<!-- Node101&#45;&gt;Node102 -->
<g id="edge4" class="edge">
<title>Node101&#45;&gt;Node102</title>
<path fill="none" stroke="#191970" d="M645.4101,-15.5C653.8647,-15.5 662.4567,-15.5 670.7256,-15.5"/>
<polygon fill="#191970" stroke="#191970" points="645.1964,-12.0001 635.1963,-15.5 645.1963,-19.0001 645.1964,-12.0001"/>
</g>
</g>
</svg>
