<?xml version="1.0" encoding="UTF-8" standalone="no"?>
<!DOCTYPE svg PUBLIC "-//W3C//DTD SVG 1.1//EN"
 "http://www.w3.org/Graphics/SVG/1.1/DTD/svg11.dtd">
<!-- Generated by graphviz version 2.40.1 (20161225.0304)
 -->
<!-- Title: /mnt/c/Users/Jameson/Desktop/git/openage&#45;new&#45;doc&#45;system/libopenage/gui/guisys/link/qml_engine_with_singleton_items_info.h Pages: 1 -->
<svg width="289pt" height="195pt"
 viewBox="0.00 0.00 289.00 195.00" xmlns="http://www.w3.org/2000/svg" xmlns:xlink="http://www.w3.org/1999/xlink">
<g id="graph0" class="graph" transform="scale(1 1) rotate(0) translate(4 191)">
<title>/mnt/c/Users/Jameson/Desktop/git/openage&#45;new&#45;doc&#45;system/libopenage/gui/guisys/link/qml_engine_with_singleton_items_info.h</title>
<polygon fill="#ffffff" stroke="transparent" points="-4,4 -4,-191 285,-191 285,4 -4,4"/>
<!-- Node0 -->
<g id="node1" class="node">
<title>Node0</title>
<polygon fill="#bfbfbf" stroke="#000000" points="0,-123.5 0,-186.5 143,-186.5 143,-123.5 0,-123.5"/>
<text text-anchor="start" x="8" y="-174.5" font-family="Helvetica,sans-Serif" font-size="10.00" fill="#000000">/mnt/c/Users/Jameson</text>
<text text-anchor="start" x="8" y="-163.5" font-family="Helvetica,sans-Serif" font-size="10.00" fill="#000000">/Desktop/git/openage</text>
<text text-anchor="start" x="8" y="-152.5" font-family="Helvetica,sans-Serif" font-size="10.00" fill="#000000">&#45;new&#45;doc&#45;system/libopenage</text>
<text text-anchor="start" x="8" y="-141.5" font-family="Helvetica,sans-Serif" font-size="10.00" fill="#000000">/gui/guisys/link/qml_engine</text>
<text text-anchor="middle" x="71.5" y="-130.5" font-family="Helvetica,sans-Serif" font-size="10.00" fill="#000000">_with_singleton_items_info.h</text>
</g>
<!-- Node1 -->
<g id="node2" class="node">
<title>Node1</title>
<polygon fill="#ffffff" stroke="#bfbfbf" points="32.5,-.5 32.5,-19.5 84.5,-19.5 84.5,-.5 32.5,-.5"/>
<text text-anchor="middle" x="58.5" y="-7.5" font-family="Helvetica,sans-Serif" font-size="10.00" fill="#000000">memory</text>
</g>
<!-- Node0&#45;&gt;Node1 -->
<g id="edge1" class="edge">
<title>Node0&#45;&gt;Node1</title>
<path fill="none" stroke="#191970" d="M45.0899,-123.4238C37.5714,-112.5627 30.3753,-99.8782 26.5,-87 22.5299,-73.8066 22.3771,-69.1464 26.5,-56 29.7496,-45.6383 36.2494,-35.5669 42.5471,-27.5026"/>
<polygon fill="#191970" stroke="#191970" points="45.4079,-29.5376 49.1382,-19.6212 40.0381,-25.047 45.4079,-29.5376"/>
</g>
<!-- Node2 -->
<g id="node3" class="node">
<title>Node2</title>
<polygon fill="#ffffff" stroke="#bfbfbf" points="35.5,-62 35.5,-81 107.5,-81 107.5,-62 35.5,-62"/>
<text text-anchor="middle" x="71.5" y="-69" font-family="Helvetica,sans-Serif" font-size="10.00" fill="#000000">QQmlEngine</text>
</g>
<!-- Node0&#45;&gt;Node2 -->
<g id="edge2" class="edge">
<title>Node0&#45;&gt;Node2</title>
<path fill="none" stroke="#191970" d="M71.5,-123.4322C71.5,-112.6773 71.5,-100.9624 71.5,-91.3857"/>
<polygon fill="#191970" stroke="#191970" points="75.0001,-91.3112 71.5,-81.3112 68.0001,-91.3112 75.0001,-91.3112"/>
</g>
<!-- Node3 -->
<g id="node4" class="node">
<title>Node3</title>
<g id="a_node4"><a xlink:href="../../d8/d62/gui__image__provider__impl_8h.xhtml" target="_top" xlink:title="../private/gui_image\l_provider_impl.h">
<polygon fill="#ffffff" stroke="#000000" points="125.5,-56.5 125.5,-86.5 227.5,-86.5 227.5,-56.5 125.5,-56.5"/>
<text text-anchor="start" x="133.5" y="-74.5" font-family="Helvetica,sans-Serif" font-size="10.00" fill="#000000">../private/gui_image</text>
<text text-anchor="middle" x="176.5" y="-63.5" font-family="Helvetica,sans-Serif" font-size="10.00" fill="#000000">_provider_impl.h</text>
</a>
</g>
</g>
<!-- Node0&#45;&gt;Node3 -->
<g id="edge3" class="edge">
<title>Node0&#45;&gt;Node3</title>
<path fill="none" stroke="#191970" d="M111.196,-123.4322C124.0005,-113.2496 137.8873,-102.2063 149.5496,-92.932"/>
<polygon fill="#191970" stroke="#191970" points="151.9528,-95.4927 157.6011,-86.5291 147.5958,-90.0139 151.9528,-95.4927"/>
</g>
<!-- Node3&#45;&gt;Node1 -->
<g id="edge4" class="edge">
<title>Node3&#45;&gt;Node1</title>
<path fill="none" stroke="#191970" d="M147.634,-56.4554C128.8089,-46.644 104.389,-33.9167 85.8708,-24.2653"/>
<polygon fill="#191970" stroke="#191970" points="87.2713,-21.0484 76.7858,-19.5303 84.036,-27.2559 87.2713,-21.0484"/>
</g>
<!-- Node4 -->
<g id="node5" class="node">
<title>Node4</title>
<polygon fill="#ffffff" stroke="#bfbfbf" points="105.5,-.5 105.5,-19.5 149.5,-19.5 149.5,-.5 105.5,-.5"/>
<text text-anchor="middle" x="127.5" y="-7.5" font-family="Helvetica,sans-Serif" font-size="10.00" fill="#000000">vector</text>
</g>
<!-- Node3&#45;&gt;Node4 -->
<g id="edge5" class="edge">
<title>Node3&#45;&gt;Node4</title>
<path fill="none" stroke="#191970" d="M164.3876,-56.2977C157.5151,-47.672 148.8777,-36.8312 141.689,-27.8087"/>
<polygon fill="#191970" stroke="#191970" points="144.3144,-25.487 135.3455,-19.8469 138.8396,-29.849 144.3144,-25.487"/>
</g>
<!-- Node5 -->
<g id="node6" class="node">
<title>Node5</title>
<polygon fill="#ffffff" stroke="#bfbfbf" points="168,-.5 168,-19.5 281,-19.5 281,-.5 168,-.5"/>
<text text-anchor="middle" x="224.5" y="-7.5" font-family="Helvetica,sans-Serif" font-size="10.00" fill="#000000">QQuickImageProvider</text>
</g>
<!-- Node3&#45;&gt;Node5 -->
<g id="edge6" class="edge">
<title>Node3&#45;&gt;Node5</title>
<path fill="none" stroke="#191970" d="M188.3652,-56.2977C195.0975,-47.672 203.5585,-36.8312 210.6006,-27.8087"/>
<polygon fill="#191970" stroke="#191970" points="213.421,-29.8836 216.8146,-19.8469 207.9027,-25.5766 213.421,-29.8836"/>
</g>
</g>
</svg>
