<?xml version="1.0" encoding="UTF-8" standalone="no"?>
<!DOCTYPE svg PUBLIC "-//W3C//DTD SVG 1.1//EN"
 "http://www.w3.org/Graphics/SVG/1.1/DTD/svg11.dtd">
<!-- Generated by graphviz version 2.40.1 (20161225.0304)
 -->
<!-- Title: openage::renderer::vulkan::VlkGraphicsDevice::get_queue Pages: 1 -->
<svg width="425pt" height="50pt"
 viewBox="0.00 0.00 425.00 50.00" xmlns="http://www.w3.org/2000/svg" xmlns:xlink="http://www.w3.org/1999/xlink">
<g id="graph0" class="graph" transform="scale(1 1) rotate(0) translate(4 46)">
<title>openage::renderer::vulkan::VlkGraphicsDevice::get_queue</title>
<polygon fill="#ffffff" stroke="transparent" points="-4,4 -4,-46 421,-46 421,4 -4,4"/>
<!-- Node25 -->
<g id="node1" class="node">
<title>Node25</title>
<polygon fill="#bfbfbf" stroke="#000000" points="0,-.5 0,-41.5 135,-41.5 135,-.5 0,-.5"/>
<text text-anchor="start" x="8" y="-29.5" font-family="Helvetica,sans-Serif" font-size="10.00" fill="#000000">openage::renderer::</text>
<text text-anchor="start" x="8" y="-18.5" font-family="Helvetica,sans-Serif" font-size="10.00" fill="#000000">vulkan::VlkGraphicsDevice</text>
<text text-anchor="middle" x="67.5" y="-7.5" font-family="Helvetica,sans-Serif" font-size="10.00" fill="#000000">::get_queue</text>
</g>
<!-- Node26 -->
<g id="node2" class="node">
<title>Node26</title>
<g id="a_node2"><a xlink:href="../../da/de9/classopenage_1_1renderer_1_1vulkan_1_1_vlk_renderer.xhtml#a15177acc1d4eb10a786e021ea8eb0207" target="_top" xlink:title="Testing function that draws a triangle. Not part of the final renderer implementation. ">
<polygon fill="#ffffff" stroke="#000000" points="171,-.5 171,-41.5 276,-41.5 276,-.5 171,-.5"/>
<text text-anchor="start" x="179" y="-29.5" font-family="Helvetica,sans-Serif" font-size="10.00" fill="#000000">openage::renderer::</text>
<text text-anchor="start" x="179" y="-18.5" font-family="Helvetica,sans-Serif" font-size="10.00" fill="#000000">vulkan::VlkRenderer</text>
<text text-anchor="middle" x="223.5" y="-7.5" font-family="Helvetica,sans-Serif" font-size="10.00" fill="#000000">::do_the_thing</text>
</a>
</g>
</g>
<!-- Node25&#45;&gt;Node26 -->
<g id="edge1" class="edge">
<title>Node25&#45;&gt;Node26</title>
<path fill="none" stroke="#191970" d="M145.2147,-21C153.9261,-21 162.6423,-21 170.9285,-21"/>
<polygon fill="#191970" stroke="#191970" points="145.0166,-17.5001 135.0166,-21 145.0165,-24.5001 145.0166,-17.5001"/>
</g>
<!-- Node27 -->
<g id="node3" class="node">
<title>Node27</title>
<g id="a_node3"><a xlink:href="../../da/de9/classopenage_1_1renderer_1_1vulkan_1_1_vlk_renderer.xhtml#a1d6c65604305a3193079ff8026a20c9f" target="_top" xlink:title="openage::renderer::\lvulkan::VlkRenderer\l::VlkRenderer">
<polygon fill="#ffffff" stroke="#000000" points="312,-.5 312,-41.5 417,-41.5 417,-.5 312,-.5"/>
<text text-anchor="start" x="320" y="-29.5" font-family="Helvetica,sans-Serif" font-size="10.00" fill="#000000">openage::renderer::</text>
<text text-anchor="start" x="320" y="-18.5" font-family="Helvetica,sans-Serif" font-size="10.00" fill="#000000">vulkan::VlkRenderer</text>
<text text-anchor="middle" x="364.5" y="-7.5" font-family="Helvetica,sans-Serif" font-size="10.00" fill="#000000">::VlkRenderer</text>
</a>
</g>
</g>
<!-- Node26&#45;&gt;Node27 -->
<g id="edge2" class="edge">
<title>Node26&#45;&gt;Node27</title>
<path fill="none" stroke="#191970" d="M286.0504,-21C294.6995,-21 303.5102,-21 311.953,-21"/>
<polygon fill="#191970" stroke="#191970" points="286.0032,-17.5001 276.0032,-21 286.0032,-24.5001 286.0032,-17.5001"/>
</g>
</g>
</svg>
