<?xml version="1.0" encoding="UTF-8" standalone="no"?>
<!DOCTYPE svg PUBLIC "-//W3C//DTD SVG 1.1//EN"
 "http://www.w3.org/Graphics/SVG/1.1/DTD/svg11.dtd">
<!-- Generated by graphviz version 2.40.1 (20161225.0304)
 -->
<!-- Title: openage::GameControlSignals::modes_changed Pages: 1 -->
<svg width="310pt" height="39pt"
 viewBox="0.00 0.00 310.00 39.00" xmlns="http://www.w3.org/2000/svg" xmlns:xlink="http://www.w3.org/1999/xlink">
<g id="graph0" class="graph" transform="scale(1 1) rotate(0) translate(4 35)">
<title>openage::GameControlSignals::modes_changed</title>
<polygon fill="#ffffff" stroke="transparent" points="-4,4 -4,-35 306,-35 306,4 -4,4"/>
<!-- Node24 -->
<g id="node1" class="node">
<title>Node24</title>
<polygon fill="#bfbfbf" stroke="#000000" points="0,-.5 0,-30.5 149,-30.5 149,-.5 0,-.5"/>
<text text-anchor="start" x="8" y="-18.5" font-family="Helvetica,sans-Serif" font-size="10.00" fill="#000000">openage::GameControlSignals</text>
<text text-anchor="middle" x="74.5" y="-7.5" font-family="Helvetica,sans-Serif" font-size="10.00" fill="#000000">::modes_changed</text>
</g>
<!-- Node25 -->
<g id="node2" class="node">
<title>Node25</title>
<g id="a_node2"><a xlink:href="../../d8/db5/classopenage_1_1_game_control.xhtml#af8fcfaca1f2135c0508cb706955d18d0" target="_top" xlink:title="openage::GameControl\l::set_modes">
<polygon fill="#ffffff" stroke="#000000" points="185,-.5 185,-30.5 302,-30.5 302,-.5 185,-.5"/>
<text text-anchor="start" x="193" y="-18.5" font-family="Helvetica,sans-Serif" font-size="10.00" fill="#000000">openage::GameControl</text>
<text text-anchor="middle" x="243.5" y="-7.5" font-family="Helvetica,sans-Serif" font-size="10.00" fill="#000000">::set_modes</text>
</a>
</g>
</g>
<!-- Node24&#45;&gt;Node25 -->
<g id="edge1" class="edge">
<title>Node24&#45;&gt;Node25</title>
<path fill="none" stroke="#191970" d="M159.2315,-15.5C167.864,-15.5 176.4932,-15.5 184.7589,-15.5"/>
<polygon fill="#191970" stroke="#191970" points="159.1178,-12.0001 149.1178,-15.5 159.1178,-19.0001 159.1178,-12.0001"/>
</g>
</g>
</svg>
