<?xml version="1.0" encoding="UTF-8" standalone="no"?>
<!DOCTYPE svg PUBLIC "-//W3C//DTD SVG 1.1//EN"
 "http://www.w3.org/Graphics/SVG/1.1/DTD/svg11.dtd">
<!-- Generated by graphviz version 2.40.1 (20161225.0304)
 -->
<!-- Title: openage::GameControlSignals::mode_changed Pages: 1 -->
<svg width="616pt" height="88pt"
 viewBox="0.00 0.00 616.00 88.00" xmlns="http://www.w3.org/2000/svg" xmlns:xlink="http://www.w3.org/1999/xlink">
<g id="graph0" class="graph" transform="scale(1 1) rotate(0) translate(4 84)">
<title>openage::GameControlSignals::mode_changed</title>
<polygon fill="#ffffff" stroke="transparent" points="-4,4 -4,-84 612,-84 612,4 -4,4"/>
<!-- Node18 -->
<g id="node1" class="node">
<title>Node18</title>
<polygon fill="#bfbfbf" stroke="#000000" points="0,-24.5 0,-54.5 149,-54.5 149,-24.5 0,-24.5"/>
<text text-anchor="start" x="8" y="-42.5" font-family="Helvetica,sans-Serif" font-size="10.00" fill="#000000">openage::GameControlSignals</text>
<text text-anchor="middle" x="74.5" y="-31.5" font-family="Helvetica,sans-Serif" font-size="10.00" fill="#000000">::mode_changed</text>
</g>
<!-- Node19 -->
<g id="node2" class="node">
<title>Node19</title>
<g id="a_node2"><a xlink:href="../../d8/db5/classopenage_1_1_game_control.xhtml#a8c867441262580369ff7c66ba6bd0e4b" target="_top" xlink:title="openage::GameControl\l::announce_mode">
<polygon fill="#ffffff" stroke="#000000" points="185,-24.5 185,-54.5 302,-54.5 302,-24.5 185,-24.5"/>
<text text-anchor="start" x="193" y="-42.5" font-family="Helvetica,sans-Serif" font-size="10.00" fill="#000000">openage::GameControl</text>
<text text-anchor="middle" x="243.5" y="-31.5" font-family="Helvetica,sans-Serif" font-size="10.00" fill="#000000">::announce_mode</text>
</a>
</g>
</g>
<!-- Node18&#45;&gt;Node19 -->
<g id="edge1" class="edge">
<title>Node18&#45;&gt;Node19</title>
<path fill="none" stroke="#191970" d="M159.2315,-39.5C167.864,-39.5 176.4932,-39.5 184.7589,-39.5"/>
<polygon fill="#191970" stroke="#191970" points="159.1178,-36.0001 149.1178,-39.5 159.1178,-43.0001 159.1178,-36.0001"/>
</g>
<!-- Node20 -->
<g id="node3" class="node">
<title>Node20</title>
<g id="a_node3"><a xlink:href="../../d8/db5/classopenage_1_1_game_control.xhtml#a1d0f073f844955000861e4c0d08b20e0" target="_top" xlink:title="openage::GameControl\l::set_mode">
<polygon fill="#ffffff" stroke="#000000" points="338,-24.5 338,-54.5 455,-54.5 455,-24.5 338,-24.5"/>
<text text-anchor="start" x="346" y="-42.5" font-family="Helvetica,sans-Serif" font-size="10.00" fill="#000000">openage::GameControl</text>
<text text-anchor="middle" x="396.5" y="-31.5" font-family="Helvetica,sans-Serif" font-size="10.00" fill="#000000">::set_mode</text>
</a>
</g>
</g>
<!-- Node19&#45;&gt;Node20 -->
<g id="edge2" class="edge">
<title>Node19&#45;&gt;Node20</title>
<path fill="none" stroke="#191970" d="M312.4932,-39.5C320.9927,-39.5 329.617,-39.5 337.9409,-39.5"/>
<polygon fill="#191970" stroke="#191970" points="312.2163,-36.0001 302.2162,-39.5 312.2162,-43.0001 312.2163,-36.0001"/>
</g>
<!-- Node21 -->
<g id="node4" class="node">
<title>Node21</title>
<g id="a_node4"><a xlink:href="../../d8/db5/classopenage_1_1_game_control.xhtml#ad7c9d48df33f8f56ab5686c36648bfa5" target="_top" xlink:title="openage::GameControl\l::set_engine">
<polygon fill="#ffffff" stroke="#000000" points="491,-49.5 491,-79.5 608,-79.5 608,-49.5 491,-49.5"/>
<text text-anchor="start" x="499" y="-67.5" font-family="Helvetica,sans-Serif" font-size="10.00" fill="#000000">openage::GameControl</text>
<text text-anchor="middle" x="549.5" y="-56.5" font-family="Helvetica,sans-Serif" font-size="10.00" fill="#000000">::set_engine</text>
</a>
</g>
</g>
<!-- Node20&#45;&gt;Node21 -->
<g id="edge3" class="edge">
<title>Node20&#45;&gt;Node21</title>
<path fill="none" stroke="#191970" d="M465.2131,-50.7276C473.8031,-52.1312 482.5255,-53.5565 490.9409,-54.9315"/>
<polygon fill="#191970" stroke="#191970" points="465.6498,-47.2526 455.2162,-49.0942 464.5209,-54.161 465.6498,-47.2526"/>
</g>
<!-- Node22 -->
<g id="node5" class="node">
<title>Node22</title>
<g id="a_node5"><a xlink:href="../../d8/db5/classopenage_1_1_game_control.xhtml#af8fcfaca1f2135c0508cb706955d18d0" target="_top" xlink:title="openage::GameControl\l::set_modes">
<polygon fill="#ffffff" stroke="#000000" points="491,-.5 491,-30.5 608,-30.5 608,-.5 491,-.5"/>
<text text-anchor="start" x="499" y="-18.5" font-family="Helvetica,sans-Serif" font-size="10.00" fill="#000000">openage::GameControl</text>
<text text-anchor="middle" x="549.5" y="-7.5" font-family="Helvetica,sans-Serif" font-size="10.00" fill="#000000">::set_modes</text>
</a>
</g>
</g>
<!-- Node20&#45;&gt;Node22 -->
<g id="edge4" class="edge">
<title>Node20&#45;&gt;Node22</title>
<path fill="none" stroke="#191970" d="M465.2131,-28.7215C473.8031,-27.374 482.5255,-26.0058 490.9409,-24.6857"/>
<polygon fill="#191970" stroke="#191970" points="464.553,-25.2821 455.2162,-30.2896 465.6378,-32.1976 464.553,-25.2821"/>
</g>
</g>
</svg>
