<?xml version="1.0" encoding="UTF-8" standalone="no"?>
<!DOCTYPE svg PUBLIC "-//W3C//DTD SVG 1.1//EN"
 "http://www.w3.org/Graphics/SVG/1.1/DTD/svg11.dtd">
<!-- Generated by graphviz version 2.40.1 (20161225.0304)
 -->
<!-- Title: openage.cabextract.cab.CABFile Pages: 1 -->
<svg width="169pt" height="645pt"
 viewBox="0.00 0.00 169.00 645.00" xmlns="http://www.w3.org/2000/svg" xmlns:xlink="http://www.w3.org/1999/xlink">
<g id="graph0" class="graph" transform="scale(1 1) rotate(0) translate(4 641)">
<title>openage.cabextract.cab.CABFile</title>
<polygon fill="#ffffff" stroke="transparent" points="-4,4 -4,-641 165,-641 165,4 -4,4"/>
<!-- Node0 -->
<g id="node1" class="node">
<title>Node0</title>
<polygon fill="#bfbfbf" stroke="#000000" points="0,-.5 0,-112.5 161,-112.5 161,-.5 0,-.5"/>
<text text-anchor="middle" x="80.5" y="-100.5" font-family="Helvetica,sans-Serif" font-size="10.00" fill="#000000">openage.cabextract.cab.CABFile</text>
<polyline fill="none" stroke="#000000" points="0,-93.5 161,-93.5 "/>
<text text-anchor="start" x="8" y="-81.5" font-family="Helvetica,sans-Serif" font-size="10.00" fill="#000000">+ header</text>
<text text-anchor="start" x="8" y="-70.5" font-family="Helvetica,sans-Serif" font-size="10.00" fill="#000000">+ folders</text>
<text text-anchor="start" x="8" y="-59.5" font-family="Helvetica,sans-Serif" font-size="10.00" fill="#000000">+ rootdir</text>
<polyline fill="none" stroke="#000000" points="0,-52.5 161,-52.5 "/>
<text text-anchor="start" x="8" y="-40.5" font-family="Helvetica,sans-Serif" font-size="10.00" fill="#000000">+ __init__()</text>
<text text-anchor="start" x="8" y="-29.5" font-family="Helvetica,sans-Serif" font-size="10.00" fill="#000000">+ __repr__()</text>
<text text-anchor="start" x="8" y="-18.5" font-family="Helvetica,sans-Serif" font-size="10.00" fill="#000000">+ read_folder_headers()</text>
<text text-anchor="start" x="8" y="-7.5" font-family="Helvetica,sans-Serif" font-size="10.00" fill="#000000">+ read_file_headers()</text>
</g>
<!-- Node1 -->
<g id="node2" class="node">
<title>Node1</title>
<g id="a_node2"><a xlink:href="../../dc/d11/classopenage_1_1util_1_1fslike_1_1filecollection_1_1_file_collection.xhtml" target="_top" xlink:title="FSLikeObject that holds several individual files. ">
<polygon fill="#ffffff" stroke="#000000" points="3,-149.5 3,-327.5 158,-327.5 158,-149.5 3,-149.5"/>
<text text-anchor="start" x="11" y="-315.5" font-family="Helvetica,sans-Serif" font-size="10.00" fill="#000000">openage.util.fslike.filecollection.</text>
<text text-anchor="middle" x="80.5" y="-304.5" font-family="Helvetica,sans-Serif" font-size="10.00" fill="#000000">FileCollection</text>
<polyline fill="none" stroke="#000000" points="3,-297.5 158,-297.5 "/>
<text text-anchor="start" x="11" y="-285.5" font-family="Helvetica,sans-Serif" font-size="10.00" fill="#000000">+ rootentries</text>
<polyline fill="none" stroke="#000000" points="3,-278.5 158,-278.5 "/>
<text text-anchor="start" x="11" y="-266.5" font-family="Helvetica,sans-Serif" font-size="10.00" fill="#000000">+ __init__()</text>
<text text-anchor="start" x="11" y="-255.5" font-family="Helvetica,sans-Serif" font-size="10.00" fill="#000000">+ root()</text>
<text text-anchor="start" x="11" y="-244.5" font-family="Helvetica,sans-Serif" font-size="10.00" fill="#000000">+ get_direntries()</text>
<text text-anchor="start" x="11" y="-233.5" font-family="Helvetica,sans-Serif" font-size="10.00" fill="#000000">+ add_fileentry()</text>
<text text-anchor="start" x="11" y="-222.5" font-family="Helvetica,sans-Serif" font-size="10.00" fill="#000000">+ get_fileentry()</text>
<text text-anchor="start" x="11" y="-211.5" font-family="Helvetica,sans-Serif" font-size="10.00" fill="#000000">+ open_r()</text>
<text text-anchor="start" x="11" y="-200.5" font-family="Helvetica,sans-Serif" font-size="10.00" fill="#000000">+ open_w()</text>
<text text-anchor="start" x="11" y="-189.5" font-family="Helvetica,sans-Serif" font-size="10.00" fill="#000000">+ list()</text>
<text text-anchor="start" x="11" y="-178.5" font-family="Helvetica,sans-Serif" font-size="10.00" fill="#000000">+ filesize()</text>
<text text-anchor="start" x="11" y="-167.5" font-family="Helvetica,sans-Serif" font-size="10.00" fill="#000000">+ mtime()</text>
<text text-anchor="start" x="11" y="-156.5" font-family="Helvetica,sans-Serif" font-size="10.00" fill="#000000">and 10 more...</text>
</a>
</g>
</g>
<!-- Node1&#45;&gt;Node0 -->
<g id="edge1" class="edge">
<title>Node1&#45;&gt;Node0</title>
<path fill="none" stroke="#191970" d="M80.5,-139.1054C80.5,-130.0423 80.5,-121.0912 80.5,-112.6158"/>
<polygon fill="none" stroke="#191970" points="77.0001,-139.3661 80.5,-149.3661 84.0001,-139.3661 77.0001,-139.3661"/>
</g>
<!-- Node2 -->
<g id="node3" class="node">
<title>Node2</title>
<g id="a_node3"><a xlink:href="../../d3/d76/classopenage_1_1util_1_1fslike_1_1abstract_1_1_f_s_like_object.xhtml" target="_top" xlink:title="{openage.util.fslike.abstract.\lFSLikeObject\n||+ root()\l+ pretty()\l+ open_r()\l+ open_w()\l+ open_rw()\l+ open_a()\l+ open_ar()\l+ exists()\l+ resolve_r()\l+ resolve_w()\land 14 more...\l}">
<polygon fill="#ffffff" stroke="#000000" points="12,-364.5 12,-542.5 149,-542.5 149,-364.5 12,-364.5"/>
<text text-anchor="start" x="20" y="-530.5" font-family="Helvetica,sans-Serif" font-size="10.00" fill="#000000">openage.util.fslike.abstract.</text>
<text text-anchor="middle" x="80.5" y="-519.5" font-family="Helvetica,sans-Serif" font-size="10.00" fill="#000000">FSLikeObject</text>
<polyline fill="none" stroke="#000000" points="12,-512.5 149,-512.5 "/>
<text text-anchor="middle" x="80.5" y="-500.5" font-family="Helvetica,sans-Serif" font-size="10.00" fill="#000000"> </text>
<polyline fill="none" stroke="#000000" points="12,-493.5 149,-493.5 "/>
<text text-anchor="start" x="20" y="-481.5" font-family="Helvetica,sans-Serif" font-size="10.00" fill="#000000">+ root()</text>
<text text-anchor="start" x="20" y="-470.5" font-family="Helvetica,sans-Serif" font-size="10.00" fill="#000000">+ pretty()</text>
<text text-anchor="start" x="20" y="-459.5" font-family="Helvetica,sans-Serif" font-size="10.00" fill="#000000">+ open_r()</text>
<text text-anchor="start" x="20" y="-448.5" font-family="Helvetica,sans-Serif" font-size="10.00" fill="#000000">+ open_w()</text>
<text text-anchor="start" x="20" y="-437.5" font-family="Helvetica,sans-Serif" font-size="10.00" fill="#000000">+ open_rw()</text>
<text text-anchor="start" x="20" y="-426.5" font-family="Helvetica,sans-Serif" font-size="10.00" fill="#000000">+ open_a()</text>
<text text-anchor="start" x="20" y="-415.5" font-family="Helvetica,sans-Serif" font-size="10.00" fill="#000000">+ open_ar()</text>
<text text-anchor="start" x="20" y="-404.5" font-family="Helvetica,sans-Serif" font-size="10.00" fill="#000000">+ exists()</text>
<text text-anchor="start" x="20" y="-393.5" font-family="Helvetica,sans-Serif" font-size="10.00" fill="#000000">+ resolve_r()</text>
<text text-anchor="start" x="20" y="-382.5" font-family="Helvetica,sans-Serif" font-size="10.00" fill="#000000">+ resolve_w()</text>
<text text-anchor="start" x="20" y="-371.5" font-family="Helvetica,sans-Serif" font-size="10.00" fill="#000000">and 14 more...</text>
</a>
</g>
</g>
<!-- Node2&#45;&gt;Node1 -->
<g id="edge2" class="edge">
<title>Node2&#45;&gt;Node1</title>
<path fill="none" stroke="#191970" d="M80.5,-354.4894C80.5,-345.5825 80.5,-336.5973 80.5,-327.7806"/>
<polygon fill="none" stroke="#191970" points="77.0001,-354.4993 80.5,-364.4993 84.0001,-354.4993 77.0001,-354.4993"/>
</g>
<!-- Node3 -->
<g id="node4" class="node">
<title>Node3</title>
<polygon fill="#ffffff" stroke="#bfbfbf" points="61.5,-579.5 61.5,-636.5 99.5,-636.5 99.5,-579.5 61.5,-579.5"/>
<text text-anchor="middle" x="80.5" y="-624.5" font-family="Helvetica,sans-Serif" font-size="10.00" fill="#000000">ABC</text>
<polyline fill="none" stroke="#bfbfbf" points="61.5,-617.5 99.5,-617.5 "/>
<text text-anchor="middle" x="80.5" y="-605.5" font-family="Helvetica,sans-Serif" font-size="10.00" fill="#000000"> </text>
<polyline fill="none" stroke="#bfbfbf" points="61.5,-598.5 99.5,-598.5 "/>
<text text-anchor="middle" x="80.5" y="-586.5" font-family="Helvetica,sans-Serif" font-size="10.00" fill="#000000"> </text>
</g>
<!-- Node3&#45;&gt;Node2 -->
<g id="edge3" class="edge">
<title>Node3&#45;&gt;Node2</title>
<path fill="none" stroke="#191970" d="M80.5,-569.039C80.5,-560.8624 80.5,-551.9198 80.5,-542.7458"/>
<polygon fill="none" stroke="#191970" points="77.0001,-569.3018 80.5,-579.3018 84.0001,-569.3019 77.0001,-569.3018"/>
</g>
</g>
</svg>
