<?xml version="1.0" encoding="UTF-8" standalone="no"?>
<!DOCTYPE svg PUBLIC "-//W3C//DTD SVG 1.1//EN"
 "http://www.w3.org/Graphics/SVG/1.1/DTD/svg11.dtd">
<!-- Generated by graphviz version 2.40.1 (20161225.0304)
 -->
<!-- Title: openage::RepairAction::RepairAction Pages: 1 -->
<svg width="824pt" height="640pt"
 viewBox="0.00 0.00 824.00 640.00" xmlns="http://www.w3.org/2000/svg" xmlns:xlink="http://www.w3.org/1999/xlink">
<g id="graph0" class="graph" transform="scale(1 1) rotate(0) translate(4 636)">
<title>openage::RepairAction::RepairAction</title>
<polygon fill="#ffffff" stroke="transparent" points="-4,4 -4,-636 820,-636 820,4 -4,4"/>
<!-- Node0 -->
<g id="node1" class="node">
<title>Node0</title>
<polygon fill="#bfbfbf" stroke="#000000" points="0,-172.5 0,-202.5 116,-202.5 116,-172.5 0,-172.5"/>
<text text-anchor="start" x="8" y="-190.5" font-family="Helvetica,sans-Serif" font-size="10.00" fill="#000000">openage::RepairAction</text>
<text text-anchor="middle" x="58" y="-179.5" font-family="Helvetica,sans-Serif" font-size="10.00" fill="#000000">::RepairAction</text>
</g>
<!-- Node1 -->
<g id="node2" class="node">
<title>Node1</title>
<g id="a_node2"><a xlink:href="../../d8/d5b/classopenage_1_1_resource_cost.xhtml#a916923be9959f675aadb992258068e32" target="_top" xlink:title="Returns the cost. ">
<polygon fill="#ffffff" stroke="#000000" points="152,-558 152,-577 294,-577 294,-558 152,-558"/>
<text text-anchor="middle" x="223" y="-565" font-family="Helvetica,sans-Serif" font-size="10.00" fill="#000000">openage::ResourceCost::get</text>
</a>
</g>
</g>
<!-- Node0&#45;&gt;Node1 -->
<g id="edge1" class="edge">
<title>Node0&#45;&gt;Node1</title>
<path fill="none" stroke="#191970" d="M60.0851,-202.5096C67.0133,-248.7322 92.2987,-391.9268 152,-493.5 165.3677,-516.2432 187.0464,-537.4495 202.9371,-551.2788"/>
<polygon fill="#191970" stroke="#191970" points="200.7519,-554.0147 210.6447,-557.8073 205.2763,-548.6732 200.7519,-554.0147"/>
</g>
<!-- Node5 -->
<g id="node6" class="node">
<title>Node5</title>
<g id="a_node6"><a xlink:href="../../d3/d37/classopenage_1_1_unit_reference.xhtml#a6303ff3facc18acf10aa335ee9d318d8" target="_top" xlink:title="openage::UnitReference::get">
<polygon fill="#ffffff" stroke="#000000" points="152,-465 152,-484 294,-484 294,-465 152,-465"/>
<text text-anchor="middle" x="223" y="-472" font-family="Helvetica,sans-Serif" font-size="10.00" fill="#000000">openage::UnitReference::get</text>
</a>
</g>
</g>
<!-- Node0&#45;&gt;Node5 -->
<g id="edge5" class="edge">
<title>Node0&#45;&gt;Node5</title>
<path fill="none" stroke="#191970" d="M66.6388,-202.5263C94.4841,-250.9603 181.8379,-402.9028 212.3523,-455.9794"/>
<polygon fill="#191970" stroke="#191970" points="209.4942,-458.0305 217.5127,-464.9555 215.5628,-454.5416 209.4942,-458.0305"/>
</g>
<!-- Node8 -->
<g id="node9" class="node">
<title>Node8</title>
<g id="a_node9"><a xlink:href="../../df/dea/classopenage_1_1_unit.xhtml#a3e12324401051119f44e212dae1a87ce" target="_top" xlink:title="returns attribute based on templated value ">
<polygon fill="#ffffff" stroke="#000000" points="174.5,-251.5 174.5,-281.5 271.5,-281.5 271.5,-251.5 174.5,-251.5"/>
<text text-anchor="start" x="182.5" y="-269.5" font-family="Helvetica,sans-Serif" font-size="10.00" fill="#000000">openage::Unit::get</text>
<text text-anchor="middle" x="223" y="-258.5" font-family="Helvetica,sans-Serif" font-size="10.00" fill="#000000">_attribute</text>
</a>
</g>
</g>
<!-- Node0&#45;&gt;Node8 -->
<g id="edge8" class="edge">
<title>Node0&#45;&gt;Node8</title>
<path fill="none" stroke="#191970" d="M89.4236,-202.5452C115.7175,-215.1344 153.4234,-233.1876 182.0734,-246.9049"/>
<polygon fill="#191970" stroke="#191970" points="180.8818,-250.2148 191.4128,-251.3764 183.9048,-243.9011 180.8818,-250.2148"/>
</g>
<!-- Node15 -->
<g id="node16" class="node">
<title>Node15</title>
<g id="a_node16"><a xlink:href="../../df/dea/classopenage_1_1_unit.xhtml#a6c56a8b7e9856a8e0535cacbe831bae7" target="_top" xlink:title="returns whether attribute is available ">
<polygon fill="#ffffff" stroke="#000000" points="539.5,-207.5 539.5,-237.5 638.5,-237.5 638.5,-207.5 539.5,-207.5"/>
<text text-anchor="start" x="547.5" y="-225.5" font-family="Helvetica,sans-Serif" font-size="10.00" fill="#000000">openage::Unit::has</text>
<text text-anchor="middle" x="589" y="-214.5" font-family="Helvetica,sans-Serif" font-size="10.00" fill="#000000">_attribute</text>
</a>
</g>
</g>
<!-- Node0&#45;&gt;Node15 -->
<g id="edge25" class="edge">
<title>Node0&#45;&gt;Node15</title>
<path fill="none" stroke="#191970" d="M85.1783,-172.4707C156.6101,-135.1868 353.2011,-47.0751 485,-127.5 514.8634,-145.723 494.7922,-174.3256 521,-197.5 523.8533,-200.023 526.983,-202.299 530.2838,-204.351"/>
<polygon fill="#191970" stroke="#191970" points="528.8908,-207.5773 539.3486,-209.2757 532.2324,-201.4264 528.8908,-207.5773"/>
</g>
<!-- Node22 -->
<g id="node23" class="node">
<title>Node22</title>
<g id="a_node23"><a xlink:href="../../de/d24/classopenage_1_1_interval_timer.xhtml#a3b8556bdc5e8f4c6e00a1d614f6b949b" target="_top" xlink:title="openage::IntervalTimer\l::get_interval">
<polygon fill="#ffffff" stroke="#000000" points="165,-49.5 165,-79.5 281,-79.5 281,-49.5 165,-49.5"/>
<text text-anchor="start" x="173" y="-67.5" font-family="Helvetica,sans-Serif" font-size="10.00" fill="#000000">openage::IntervalTimer</text>
<text text-anchor="middle" x="223" y="-56.5" font-family="Helvetica,sans-Serif" font-size="10.00" fill="#000000">::get_interval</text>
</a>
</g>
</g>
<!-- Node0&#45;&gt;Node22 -->
<g id="edge24" class="edge">
<title>Node0&#45;&gt;Node22</title>
<path fill="none" stroke="#191970" d="M70.2501,-172.1725C86.9477,-152.1014 118.6157,-116.8486 152,-94.5 157.7528,-90.6489 164.0801,-87.1291 170.5147,-83.964"/>
<polygon fill="#191970" stroke="#191970" points="172.364,-86.9646 179.9645,-79.5833 169.4199,-80.6138 172.364,-86.9646"/>
</g>
<!-- Node23 -->
<g id="node24" class="node">
<title>Node23</title>
<g id="a_node24"><a xlink:href="../../de/d24/classopenage_1_1_interval_timer.xhtml#abaf69917928c58c16504879c285ee792" target="_top" xlink:title="openage::IntervalTimer\l::set_interval">
<polygon fill="#ffffff" stroke="#000000" points="165,-.5 165,-30.5 281,-30.5 281,-.5 165,-.5"/>
<text text-anchor="start" x="173" y="-18.5" font-family="Helvetica,sans-Serif" font-size="10.00" fill="#000000">openage::IntervalTimer</text>
<text text-anchor="middle" x="223" y="-7.5" font-family="Helvetica,sans-Serif" font-size="10.00" fill="#000000">::set_interval</text>
</a>
</g>
</g>
<!-- Node0&#45;&gt;Node23 -->
<g id="edge26" class="edge">
<title>Node0&#45;&gt;Node23</title>
<path fill="none" stroke="#191970" d="M63.6961,-172.0777C75.5175,-142.1535 105.548,-75.9595 152,-39.5 153.788,-38.0966 155.6626,-36.773 157.6036,-35.5249"/>
<polygon fill="#191970" stroke="#191970" points="159.4852,-38.482 166.4771,-30.5218 156.0472,-32.3844 159.4852,-38.482"/>
</g>
<!-- Node2 -->
<g id="node3" class="node">
<title>Node2</title>
<g id="a_node3"><a xlink:href="../../d2/de9/classopenage_1_1_resource_bundle.xhtml#aec4c3c3cae1b78ff42a0bc533929e51c" target="_top" xlink:title="openage::ResourceBundle\l::clone">
<polygon fill="#ffffff" stroke="#000000" points="342,-601.5 342,-631.5 473,-631.5 473,-601.5 342,-601.5"/>
<text text-anchor="start" x="350" y="-619.5" font-family="Helvetica,sans-Serif" font-size="10.00" fill="#000000">openage::ResourceBundle</text>
<text text-anchor="middle" x="407.5" y="-608.5" font-family="Helvetica,sans-Serif" font-size="10.00" fill="#000000">::clone</text>
</a>
</g>
</g>
<!-- Node1&#45;&gt;Node2 -->
<g id="edge2" class="edge">
<title>Node1&#45;&gt;Node2</title>
<path fill="none" stroke="#191970" d="M259.0114,-577.064C282.2678,-583.2405 313.2352,-591.4649 340.8709,-598.8045"/>
<polygon fill="#191970" stroke="#191970" points="340.3179,-602.2789 350.8812,-601.463 342.1147,-595.5134 340.3179,-602.2789"/>
</g>
<!-- Node4 -->
<g id="node5" class="node">
<title>Node4</title>
<g id="a_node5"><a xlink:href="../../d8/d47/classopenage_1_1_player.xhtml#af95cd6a1823c78ef20a347369901830d" target="_top" xlink:title="The number of units considered part of the workforce. ">
<polygon fill="#ffffff" stroke="#000000" points="354,-552.5 354,-582.5 461,-582.5 461,-552.5 354,-552.5"/>
<text text-anchor="start" x="362" y="-570.5" font-family="Helvetica,sans-Serif" font-size="10.00" fill="#000000">openage::Player::get</text>
<text text-anchor="middle" x="407.5" y="-559.5" font-family="Helvetica,sans-Serif" font-size="10.00" fill="#000000">_workforce_count</text>
</a>
</g>
</g>
<!-- Node1&#45;&gt;Node4 -->
<g id="edge4" class="edge">
<title>Node1&#45;&gt;Node4</title>
<path fill="none" stroke="#191970" d="M294.0686,-567.5C310.3899,-567.5 327.6463,-567.5 343.641,-567.5"/>
<polygon fill="#191970" stroke="#191970" points="343.9472,-571.0001 353.9472,-567.5 343.9471,-564.0001 343.9472,-571.0001"/>
</g>
<!-- Node3 -->
<g id="node4" class="node">
<title>Node3</title>
<g id="a_node4"><a xlink:href="../../d2/de9/classopenage_1_1_resource_bundle.xhtml#acc8ae3310aa9478c9b4fee2cabc8134e" target="_top" xlink:title="openage::ResourceBundle\l::ResourceBundle">
<polygon fill="#ffffff" stroke="#000000" points="523.5,-601.5 523.5,-631.5 654.5,-631.5 654.5,-601.5 523.5,-601.5"/>
<text text-anchor="start" x="531.5" y="-619.5" font-family="Helvetica,sans-Serif" font-size="10.00" fill="#000000">openage::ResourceBundle</text>
<text text-anchor="middle" x="589" y="-608.5" font-family="Helvetica,sans-Serif" font-size="10.00" fill="#000000">::ResourceBundle</text>
</a>
</g>
</g>
<!-- Node2&#45;&gt;Node3 -->
<g id="edge3" class="edge">
<title>Node2&#45;&gt;Node3</title>
<path fill="none" stroke="#191970" d="M473.0257,-616.5C486.0529,-616.5 499.8335,-616.5 513.1719,-616.5"/>
<polygon fill="#191970" stroke="#191970" points="513.2659,-620.0001 523.2658,-616.5 513.2658,-613.0001 513.2659,-620.0001"/>
</g>
<!-- Node6 -->
<g id="node7" class="node">
<title>Node6</title>
<g id="a_node7"><a xlink:href="../../d3/d37/classopenage_1_1_unit_reference.xhtml#a55afff48cc1901715f3c29383969d2ac" target="_top" xlink:title="openage::UnitReference\l::is_valid">
<polygon fill="#ffffff" stroke="#000000" points="346.5,-503.5 346.5,-533.5 468.5,-533.5 468.5,-503.5 346.5,-503.5"/>
<text text-anchor="start" x="354.5" y="-521.5" font-family="Helvetica,sans-Serif" font-size="10.00" fill="#000000">openage::UnitReference</text>
<text text-anchor="middle" x="407.5" y="-510.5" font-family="Helvetica,sans-Serif" font-size="10.00" fill="#000000">::is_valid</text>
</a>
</g>
</g>
<!-- Node5&#45;&gt;Node6 -->
<g id="edge6" class="edge">
<title>Node5&#45;&gt;Node6</title>
<path fill="none" stroke="#191970" d="M263.0338,-484.0473C284.5531,-489.1793 311.7249,-495.6593 336.6815,-501.611"/>
<polygon fill="#191970" stroke="#191970" points="335.9453,-505.0336 346.4845,-503.9489 337.5692,-498.2245 335.9453,-505.0336"/>
</g>
<!-- Node7 -->
<g id="node8" class="node">
<title>Node7</title>
<g id="a_node8"><a xlink:href="../../dd/d1a/namespaceopenage_1_1log.xhtml#ab6b4b10be67af93ab6c4d5a36139736e" target="_top" xlink:title="error message ">
<polygon fill="#ffffff" stroke="#000000" points="366,-465 366,-484 449,-484 449,-465 366,-465"/>
<text text-anchor="middle" x="407.5" y="-472" font-family="Helvetica,sans-Serif" font-size="10.00" fill="#000000">openage.log.err</text>
</a>
</g>
</g>
<!-- Node5&#45;&gt;Node7 -->
<g id="edge7" class="edge">
<title>Node5&#45;&gt;Node7</title>
<path fill="none" stroke="#191970" d="M294.0686,-474.5C314.634,-474.5 336.684,-474.5 355.824,-474.5"/>
<polygon fill="#191970" stroke="#191970" points="355.8362,-478.0001 365.8362,-474.5 355.8362,-471.0001 355.8362,-478.0001"/>
</g>
<!-- Node9 -->
<g id="node10" class="node">
<title>Node9</title>
<g id="a_node10"><a xlink:href="../../de/d8a/classopenage_1_1_attributes.xhtml#a08f927be3be6911e7cf77604f9ead10f" target="_top" xlink:title="Get the attribute based on the type. ">
<polygon fill="#ffffff" stroke="#000000" points="347,-339 347,-358 468,-358 468,-339 347,-339"/>
<text text-anchor="middle" x="407.5" y="-346" font-family="Helvetica,sans-Serif" font-size="10.00" fill="#000000">openage::Attributes::get</text>
</a>
</g>
</g>
<!-- Node8&#45;&gt;Node9 -->
<g id="edge9" class="edge">
<title>Node8&#45;&gt;Node9</title>
<path fill="none" stroke="#191970" d="M247.3945,-281.5191C268.6509,-294.1644 300.594,-312.1187 330,-324.5 340.0343,-328.7249 351.0746,-332.5865 361.5986,-335.919"/>
<polygon fill="#191970" stroke="#191970" points="360.8941,-339.3637 371.4807,-338.9466 362.9447,-332.6708 360.8941,-339.3637"/>
</g>
<!-- Node10 -->
<g id="node11" class="node">
<title>Node10</title>
<g id="a_node11"><a xlink:href="../../df/dea/classopenage_1_1_unit.xhtml#ac5dcdf3180dcd4bdce67b765d8ef2134" target="_top" xlink:title="queues a command to be applied to this unit on the next update ">
<polygon fill="#ffffff" stroke="#000000" points="340.5,-213 340.5,-232 474.5,-232 474.5,-213 340.5,-213"/>
<text text-anchor="middle" x="407.5" y="-220" font-family="Helvetica,sans-Serif" font-size="10.00" fill="#000000">openage::Unit::queue_cmd</text>
</a>
</g>
</g>
<!-- Node8&#45;&gt;Node10 -->
<g id="edge10" class="edge">
<title>Node8&#45;&gt;Node10</title>
<path fill="none" stroke="#191970" d="M271.9582,-254.8243C298.4637,-248.5032 331.1358,-240.7115 357.7609,-234.3619"/>
<polygon fill="#191970" stroke="#191970" points="358.7285,-237.7294 367.6437,-232.005 357.1046,-230.9203 358.7285,-237.7294"/>
</g>
<!-- Node12 -->
<g id="node13" class="node">
<title>Node12</title>
<g id="a_node13"><a xlink:href="../../df/dea/classopenage_1_1_unit.xhtml#a238fb029bd4cc32e393506533facd976" target="_top" xlink:title="removes all gather actions without calling their on_complete actions this cancels the gathering actio...">
<polygon fill="#ffffff" stroke="#000000" points="538,-295.5 538,-325.5 640,-325.5 640,-295.5 538,-295.5"/>
<text text-anchor="start" x="546" y="-313.5" font-family="Helvetica,sans-Serif" font-size="10.00" fill="#000000">openage::Unit::stop</text>
<text text-anchor="middle" x="589" y="-302.5" font-family="Helvetica,sans-Serif" font-size="10.00" fill="#000000">_gather</text>
</a>
</g>
</g>
<!-- Node8&#45;&gt;Node12 -->
<g id="edge12" class="edge">
<title>Node8&#45;&gt;Node12</title>
<path fill="none" stroke="#191970" d="M271.6937,-279.5706C289.8705,-284.0009 310.7643,-288.5657 330,-291.5 397.0647,-301.7304 474.7696,-306.4985 527.4377,-308.6912"/>
<polygon fill="#191970" stroke="#191970" points="527.4958,-312.1962 537.627,-309.0962 527.7739,-305.2017 527.4958,-312.1962"/>
</g>
<!-- Node14 -->
<g id="node15" class="node">
<title>Node14</title>
<g id="a_node15"><a xlink:href="../../df/dea/classopenage_1_1_unit.xhtml#a9f53ef015fca7c42ff3bf9d0779145a3" target="_top" xlink:title="removes all actions above and including the first interuptable action this will stop any of the units...">
<polygon fill="#ffffff" stroke="#000000" points="356.5,-251.5 356.5,-281.5 458.5,-281.5 458.5,-251.5 356.5,-251.5"/>
<text text-anchor="start" x="364.5" y="-269.5" font-family="Helvetica,sans-Serif" font-size="10.00" fill="#000000">openage::Unit::stop</text>
<text text-anchor="middle" x="407.5" y="-258.5" font-family="Helvetica,sans-Serif" font-size="10.00" fill="#000000">_actions</text>
</a>
</g>
</g>
<!-- Node8&#45;&gt;Node14 -->
<g id="edge14" class="edge">
<title>Node8&#45;&gt;Node14</title>
<path fill="none" stroke="#191970" d="M271.9582,-266.5C294.7506,-266.5 322.1028,-266.5 346.2489,-266.5"/>
<polygon fill="#191970" stroke="#191970" points="346.3783,-270.0001 356.3783,-266.5 346.3782,-263.0001 346.3783,-270.0001"/>
</g>
<!-- Node17 -->
<g id="node18" class="node">
<title>Node17</title>
<g id="a_node18"><a xlink:href="../../df/dea/classopenage_1_1_unit.xhtml#ad7f76de394d832d927a9e6d46bd3c93f" target="_top" xlink:title="begins unit removal by popping some actions ">
<polygon fill="#ffffff" stroke="#000000" points="342,-175 342,-194 473,-194 473,-175 342,-175"/>
<text text-anchor="middle" x="407.5" y="-182" font-family="Helvetica,sans-Serif" font-size="10.00" fill="#000000">openage::Unit::delete_unit</text>
</a>
</g>
</g>
<!-- Node8&#45;&gt;Node17 -->
<g id="edge19" class="edge">
<title>Node8&#45;&gt;Node17</title>
<path fill="none" stroke="#191970" d="M244.5637,-251.2426C265.5078,-237.0571 298.649,-216.2507 330,-203.5 336.2078,-200.9753 342.8368,-198.7262 349.5062,-196.7389"/>
<polygon fill="#191970" stroke="#191970" points="350.573,-200.0749 359.2621,-194.0128 348.6891,-193.3332 350.573,-200.0749"/>
</g>
<!-- Node18 -->
<g id="node19" class="node">
<title>Node18</title>
<g id="a_node19"><a xlink:href="../../df/dea/classopenage_1_1_unit.xhtml#adfea298b04684ab09dd8f499dabb8715" target="_top" xlink:title="get a reference which can check against the container to ensure this object still exists ...">
<polygon fill="#ffffff" stroke="#000000" points="351,-137 351,-156 464,-156 464,-137 351,-137"/>
<text text-anchor="middle" x="407.5" y="-144" font-family="Helvetica,sans-Serif" font-size="10.00" fill="#000000">openage::Unit::get_ref</text>
</a>
</g>
</g>
<!-- Node8&#45;&gt;Node18 -->
<g id="edge20" class="edge">
<title>Node8&#45;&gt;Node18</title>
<path fill="none" stroke="#191970" d="M234.7138,-251.2648C252.7166,-228.9417 289.3902,-187.6057 330,-165.5 334.1902,-163.2191 338.6554,-161.2081 343.246,-159.4355"/>
<polygon fill="#191970" stroke="#191970" points="344.4962,-162.7065 352.7966,-156.1221 342.2018,-156.0932 344.4962,-162.7065"/>
</g>
<!-- Node19 -->
<g id="node20" class="node">
<title>Node19</title>
<g id="a_node20"><a xlink:href="../../df/dea/classopenage_1_1_unit.xhtml#a2e9937d84fe91d95cbe273f6fe986068" target="_top" xlink:title="the container used when constructing this unit ">
<polygon fill="#ffffff" stroke="#000000" points="359,-415.5 359,-445.5 456,-445.5 456,-415.5 359,-415.5"/>
<text text-anchor="start" x="367" y="-433.5" font-family="Helvetica,sans-Serif" font-size="10.00" fill="#000000">openage::Unit::get</text>
<text text-anchor="middle" x="407.5" y="-422.5" font-family="Helvetica,sans-Serif" font-size="10.00" fill="#000000">_container</text>
</a>
</g>
</g>
<!-- Node8&#45;&gt;Node19 -->
<g id="edge21" class="edge">
<title>Node8&#45;&gt;Node19</title>
<path fill="none" stroke="#191970" d="M230.754,-281.9077C245.9066,-310.483 282.1882,-371.8411 330,-405.5 335.8813,-409.6404 342.4858,-413.1224 349.2937,-416.0443"/>
<polygon fill="#191970" stroke="#191970" points="348.0661,-419.3223 358.6546,-419.6908 350.607,-412.7997 348.0661,-419.3223"/>
</g>
<!-- Node20 -->
<g id="node21" class="node">
<title>Node20</title>
<g id="a_node21"><a xlink:href="../../df/dea/classopenage_1_1_unit.xhtml#ae769f520dfdb148ec831c151a954a881" target="_top" xlink:title="Returns the unit&#39;s name as the LogSource name. ">
<polygon fill="#ffffff" stroke="#000000" points="330,-377 330,-396 485,-396 485,-377 330,-377"/>
<text text-anchor="middle" x="407.5" y="-384" font-family="Helvetica,sans-Serif" font-size="10.00" fill="#000000">openage::Unit::logsource_name</text>
</a>
</g>
</g>
<!-- Node8&#45;&gt;Node20 -->
<g id="edge22" class="edge">
<title>Node8&#45;&gt;Node20</title>
<path fill="none" stroke="#191970" d="M234.7138,-281.7352C252.7166,-304.0583 289.3902,-345.3943 330,-367.5 334.1902,-369.7809 338.6554,-371.7919 343.246,-373.5645"/>
<polygon fill="#191970" stroke="#191970" points="342.2018,-376.9068 352.7966,-376.8779 344.4962,-370.2935 342.2018,-376.9068"/>
</g>
<!-- Node11 -->
<g id="node12" class="node">
<title>Node11</title>
<g id="a_node12"><a xlink:href="../../d8/dda/classopenage_1_1_command.xhtml#afbc0a60d82b9608e375c38c5e3fdf758" target="_top" xlink:title="the ability types allowed to use this command ">
<polygon fill="#ffffff" stroke="#000000" points="521,-169 521,-188 657,-188 657,-169 521,-169"/>
<text text-anchor="middle" x="589" y="-176" font-family="Helvetica,sans-Serif" font-size="10.00" fill="#000000">openage::Command::ability</text>
</a>
</g>
</g>
<!-- Node10&#45;&gt;Node11 -->
<g id="edge11" class="edge">
<title>Node10&#45;&gt;Node11</title>
<path fill="none" stroke="#191970" d="M446.8828,-212.9527C474.1156,-206.3508 510.5503,-197.5181 539.7102,-190.449"/>
<polygon fill="#191970" stroke="#191970" points="540.8002,-193.7863 549.6941,-188.0287 539.1509,-186.9833 540.8002,-193.7863"/>
</g>
<!-- Node13 -->
<g id="node14" class="node">
<title>Node13</title>
<g id="a_node14"><a xlink:href="../../df/dea/classopenage_1_1_unit.xhtml#aae0b3f53cb1d75823391322876d199ef" target="_top" xlink:title="erase from action specified by func to the end of the stack all actions erased will have the on_compl...">
<polygon fill="#ffffff" stroke="#000000" points="701,-273.5 701,-303.5 808,-303.5 808,-273.5 701,-273.5"/>
<text text-anchor="start" x="709" y="-291.5" font-family="Helvetica,sans-Serif" font-size="10.00" fill="#000000">openage::Unit::erase</text>
<text text-anchor="middle" x="754.5" y="-280.5" font-family="Helvetica,sans-Serif" font-size="10.00" fill="#000000">_after</text>
</a>
</g>
</g>
<!-- Node12&#45;&gt;Node13 -->
<g id="edge13" class="edge">
<title>Node12&#45;&gt;Node13</title>
<path fill="none" stroke="#191970" d="M640.0059,-303.7198C655.9723,-301.5973 673.7971,-299.2279 690.5387,-297.0024"/>
<polygon fill="#191970" stroke="#191970" points="691.3448,-300.4261 700.7964,-295.6389 690.4223,-293.4872 691.3448,-300.4261"/>
</g>
<!-- Node14&#45;&gt;Node12 -->
<g id="edge17" class="edge">
<title>Node14&#45;&gt;Node12</title>
<path fill="none" stroke="#191970" d="M458.5409,-278.8735C480.0957,-284.099 505.3736,-290.2269 527.9096,-295.6902"/>
<polygon fill="#191970" stroke="#191970" points="527.1702,-299.1123 537.7134,-298.0669 528.8195,-292.3093 527.1702,-299.1123"/>
</g>
<!-- Node14&#45;&gt;Node13 -->
<g id="edge18" class="edge">
<title>Node14&#45;&gt;Node13</title>
<path fill="none" stroke="#191970" d="M458.701,-269.7462C520.3864,-273.6571 624.0363,-280.2285 690.8214,-284.4627"/>
<polygon fill="#191970" stroke="#191970" points="690.603,-287.9558 700.8045,-285.0957 691.046,-280.9699 690.603,-287.9558"/>
</g>
<!-- Node14&#45;&gt;Node15 -->
<g id="edge15" class="edge">
<title>Node14&#45;&gt;Node15</title>
<path fill="none" stroke="#191970" d="M458.5409,-254.1265C480.5524,-248.7903 506.4463,-242.513 529.3383,-236.9635"/>
<polygon fill="#191970" stroke="#191970" points="530.3876,-240.3105 539.2815,-234.553 528.7384,-233.5076 530.3876,-240.3105"/>
</g>
<!-- Node16 -->
<g id="node17" class="node">
<title>Node16</title>
<g id="a_node17"><a xlink:href="../../de/d8a/classopenage_1_1_attributes.xhtml#aee38f453ac85b68821958ad74cdd8df5" target="_top" xlink:title="Check if the attribute of the given type exists. ">
<polygon fill="#ffffff" stroke="#000000" points="693,-213 693,-232 816,-232 816,-213 693,-213"/>
<text text-anchor="middle" x="754.5" y="-220" font-family="Helvetica,sans-Serif" font-size="10.00" fill="#000000">openage::Attributes::has</text>
</a>
</g>
</g>
<!-- Node15&#45;&gt;Node16 -->
<g id="edge16" class="edge">
<title>Node15&#45;&gt;Node16</title>
<path fill="none" stroke="#191970" d="M638.6555,-222.5C652.503,-222.5 667.8309,-222.5 682.6808,-222.5"/>
<polygon fill="#191970" stroke="#191970" points="682.8611,-226.0001 692.861,-222.5 682.861,-219.0001 682.8611,-226.0001"/>
</g>
<!-- Node21 -->
<g id="node22" class="node">
<title>Node21</title>
<g id="a_node22"><a xlink:href="../../d8/dcc/namespacestd.xhtml#a26aa0f4be3a77ac5cc3ce0cabb545042" target="_top" xlink:title="std::to_string">
<polygon fill="#ffffff" stroke="#000000" points="552,-377 552,-396 626,-396 626,-377 552,-377"/>
<text text-anchor="middle" x="589" y="-384" font-family="Helvetica,sans-Serif" font-size="10.00" fill="#000000">std::to_string</text>
</a>
</g>
</g>
<!-- Node20&#45;&gt;Node21 -->
<g id="edge23" class="edge">
<title>Node20&#45;&gt;Node21</title>
<path fill="none" stroke="#191970" d="M485.2622,-386.5C504.3849,-386.5 524.2933,-386.5 541.4958,-386.5"/>
<polygon fill="#191970" stroke="#191970" points="541.826,-390.0001 551.8259,-386.5 541.8259,-383.0001 541.826,-390.0001"/>
</g>
</g>
</svg>
