<?xml version="1.0" encoding="UTF-8" standalone="no"?>
<!DOCTYPE svg PUBLIC "-//W3C//DTD SVG 1.1//EN"
 "http://www.w3.org/Graphics/SVG/1.1/DTD/svg11.dtd">
<!-- Generated by graphviz version 2.40.1 (20161225.0304)
 -->
<!-- Title: /mnt/c/Users/Jameson/Desktop/git/openage&#45;new&#45;doc&#45;system/libopenage/util/quaternion.h Pages: 1 -->
<svg width="984pt" height="565pt"
 viewBox="0.00 0.00 984.00 565.45" xmlns="http://www.w3.org/2000/svg" xmlns:xlink="http://www.w3.org/1999/xlink">
<g id="graph0" class="graph" transform="scale(1 1) rotate(0) translate(4 561.4516)">
<title>/mnt/c/Users/Jameson/Desktop/git/openage&#45;new&#45;doc&#45;system/libopenage/util/quaternion.h</title>
<polygon fill="#ffffff" stroke="transparent" points="-4,4 -4,-561.4516 980,-561.4516 980,4 -4,4"/>
<!-- Node0 -->
<g id="node1" class="node">
<title>Node0</title>
<polygon fill="#bfbfbf" stroke="#000000" points="237.5,-504.9516 237.5,-556.9516 378.5,-556.9516 378.5,-504.9516 237.5,-504.9516"/>
<text text-anchor="start" x="245.5" y="-544.9516" font-family="Helvetica,sans-Serif" font-size="10.00" fill="#000000">/mnt/c/Users/Jameson</text>
<text text-anchor="start" x="245.5" y="-533.9516" font-family="Helvetica,sans-Serif" font-size="10.00" fill="#000000">/Desktop/git/openage</text>
<text text-anchor="start" x="245.5" y="-522.9516" font-family="Helvetica,sans-Serif" font-size="10.00" fill="#000000">&#45;new&#45;doc&#45;system/libopenage</text>
<text text-anchor="middle" x="308" y="-511.9516" font-family="Helvetica,sans-Serif" font-size="10.00" fill="#000000">/util/quaternion.h</text>
</g>
<!-- Node1 -->
<g id="node2" class="node">
<title>Node1</title>
<polygon fill="#ffffff" stroke="#bfbfbf" points="158,-336.9516 158,-355.9516 202,-355.9516 202,-336.9516 158,-336.9516"/>
<text text-anchor="middle" x="180" y="-343.9516" font-family="Helvetica,sans-Serif" font-size="10.00" fill="#000000">cmath</text>
</g>
<!-- Node0&#45;&gt;Node1 -->
<g id="edge1" class="edge">
<title>Node0&#45;&gt;Node1</title>
<path fill="none" stroke="#191970" d="M286.9908,-504.7361C268.3862,-481.1194 240.8669,-445.1853 219,-412.4516 208.5296,-396.7779 197.7079,-378.2466 190.1282,-364.8166"/>
<polygon fill="#191970" stroke="#191970" points="193.1654,-363.0766 185.2334,-356.0528 187.054,-366.49 193.1654,-363.0766"/>
</g>
<!-- Node2 -->
<g id="node3" class="node">
<title>Node2</title>
<g id="a_node3"><a xlink:href="../../dd/df4/matrix_8h.xhtml" target="_top" xlink:title="matrix.h">
<polygon fill="#ffffff" stroke="#000000" points="309,-448.9516 309,-467.9516 361,-467.9516 361,-448.9516 309,-448.9516"/>
<text text-anchor="middle" x="335" y="-455.9516" font-family="Helvetica,sans-Serif" font-size="10.00" fill="#000000">matrix.h</text>
</a>
</g>
</g>
<!-- Node0&#45;&gt;Node2 -->
<g id="edge2" class="edge">
<title>Node0&#45;&gt;Node2</title>
<path fill="none" stroke="#191970" d="M317.7476,-504.7775C321.1038,-495.7655 324.7961,-485.8511 327.9007,-477.5146"/>
<polygon fill="#191970" stroke="#191970" points="331.2393,-478.5784 331.4494,-467.9856 324.6794,-476.1354 331.2393,-478.5784"/>
</g>
<!-- Node7 -->
<g id="node8" class="node">
<title>Node7</title>
<g id="a_node8"><a xlink:href="../../d6/d68/vector_8h.xhtml" target="_top" xlink:title="vector.h">
<polygon fill="#ffffff" stroke="#000000" points="255,-392.9516 255,-411.9516 307,-411.9516 307,-392.9516 255,-392.9516"/>
<text text-anchor="middle" x="281" y="-399.9516" font-family="Helvetica,sans-Serif" font-size="10.00" fill="#000000">vector.h</text>
</a>
</g>
</g>
<!-- Node0&#45;&gt;Node7 -->
<g id="edge60" class="edge">
<title>Node0&#45;&gt;Node7</title>
<path fill="none" stroke="#191970" d="M302.5361,-504.9477C297.3688,-480.3549 289.7317,-444.008 285.0768,-421.854"/>
<polygon fill="#191970" stroke="#191970" points="288.4806,-421.0324 282.9991,-411.9658 281.6302,-422.4718 288.4806,-421.0324"/>
</g>
<!-- Node8 -->
<g id="node9" class="node">
<title>Node8</title>
<g id="a_node9"><a xlink:href="../../d7/dce/error_2error_8h.xhtml" target="_top" xlink:title="../error/error.h">
<polygon fill="#ffffff" stroke="#000000" points="64,-336.9516 64,-355.9516 140,-355.9516 140,-336.9516 64,-336.9516"/>
<text text-anchor="middle" x="102" y="-343.9516" font-family="Helvetica,sans-Serif" font-size="10.00" fill="#000000">../error/error.h</text>
</a>
</g>
</g>
<!-- Node0&#45;&gt;Node8 -->
<g id="edge61" class="edge">
<title>Node0&#45;&gt;Node8</title>
<path fill="none" stroke="#191970" d="M278.9221,-504.9086C236.004,-466.4698 156.8946,-395.6169 120.8188,-363.3063"/>
<polygon fill="#191970" stroke="#191970" points="122.7971,-360.3796 113.0129,-356.3151 118.1269,-365.594 122.7971,-360.3796"/>
</g>
<!-- Node35 -->
<g id="node36" class="node">
<title>Node35</title>
<g id="a_node36"><a xlink:href="../../d7/d7f/log_8h.xhtml" target="_top" xlink:title="../log/log.h">
<polygon fill="#ffffff" stroke="#000000" points="479,-336.9516 479,-355.9516 541,-355.9516 541,-336.9516 479,-336.9516"/>
<text text-anchor="middle" x="510" y="-343.9516" font-family="Helvetica,sans-Serif" font-size="10.00" fill="#000000">../log/log.h</text>
</a>
</g>
</g>
<!-- Node0&#45;&gt;Node35 -->
<g id="edge62" class="edge">
<title>Node0&#45;&gt;Node35</title>
<path fill="none" stroke="#191970" d="M337.5449,-504.7992C364.4197,-480.9227 405.0981,-444.5628 440,-412.4516 457.8789,-396.0023 478.0388,-376.9388 492.1159,-363.542"/>
<polygon fill="#191970" stroke="#191970" points="494.8147,-365.8048 499.6381,-356.3716 489.9849,-360.738 494.8147,-365.8048"/>
</g>
<!-- Node36 -->
<g id="node37" class="node">
<title>Node36</title>
<g id="a_node37"><a xlink:href="../../d5/d77/math__constants_8h.xhtml" target="_top" xlink:title="math_constants.h">
<polygon fill="#ffffff" stroke="#000000" points="685.5,-448.9516 685.5,-467.9516 780.5,-467.9516 780.5,-448.9516 685.5,-448.9516"/>
<text text-anchor="middle" x="733" y="-455.9516" font-family="Helvetica,sans-Serif" font-size="10.00" fill="#000000">math_constants.h</text>
</a>
</g>
</g>
<!-- Node0&#45;&gt;Node36 -->
<g id="edge58" class="edge">
<title>Node0&#45;&gt;Node36</title>
<path fill="none" stroke="#191970" d="M378.6572,-518.8983C461.7862,-504.7175 598.2127,-481.4448 675.2804,-468.2979"/>
<polygon fill="#191970" stroke="#191970" points="676.0227,-471.7219 685.2917,-466.5901 674.8456,-464.8216 676.0227,-471.7219"/>
</g>
<!-- Node2&#45;&gt;Node1 -->
<g id="edge4" class="edge">
<title>Node2&#45;&gt;Node1</title>
<path fill="none" stroke="#191970" d="M311.9409,-448.9094C293.2809,-440.6436 266.7817,-427.6427 246,-412.4516 226.5343,-398.2225 207.3997,-378.2371 194.7876,-363.9941"/>
<polygon fill="#191970" stroke="#191970" points="197.3596,-361.6178 188.1623,-356.3586 192.0725,-366.2055 197.3596,-361.6178"/>
</g>
<!-- Node3 -->
<g id="node4" class="node">
<title>Node3</title>
<polygon fill="#ffffff" stroke="#bfbfbf" points="296,-336.9516 296,-355.9516 334,-355.9516 334,-336.9516 296,-336.9516"/>
<text text-anchor="middle" x="315" y="-343.9516" font-family="Helvetica,sans-Serif" font-size="10.00" fill="#000000">array</text>
</g>
<!-- Node2&#45;&gt;Node3 -->
<g id="edge3" class="edge">
<title>Node2&#45;&gt;Node3</title>
<path fill="none" stroke="#191970" d="M333.2948,-448.9026C330.0181,-430.5529 322.7841,-390.0424 318.4588,-365.821"/>
<polygon fill="#191970" stroke="#191970" points="321.9044,-365.2055 316.7009,-355.9765 315.0134,-366.4361 321.9044,-365.2055"/>
</g>
<!-- Node4 -->
<g id="node5" class="node">
<title>Node4</title>
<polygon fill="#ffffff" stroke="#bfbfbf" points="352,-336.9516 352,-355.9516 398,-355.9516 398,-336.9516 352,-336.9516"/>
<text text-anchor="middle" x="375" y="-343.9516" font-family="Helvetica,sans-Serif" font-size="10.00" fill="#000000">cstring</text>
</g>
<!-- Node2&#45;&gt;Node4 -->
<g id="edge5" class="edge">
<title>Node2&#45;&gt;Node4</title>
<path fill="none" stroke="#191970" d="M338.4104,-448.9026C344.9933,-430.4703 359.5624,-389.677 368.1989,-365.4946"/>
<polygon fill="#191970" stroke="#191970" points="371.5309,-366.5711 371.5983,-355.9765 364.9387,-364.2167 371.5309,-366.5711"/>
</g>
<!-- Node5 -->
<g id="node6" class="node">
<title>Node5</title>
<polygon fill="#ffffff" stroke="#bfbfbf" points="784,-56.9516 784,-75.9516 838,-75.9516 838,-56.9516 784,-56.9516"/>
<text text-anchor="middle" x="811" y="-63.9516" font-family="Helvetica,sans-Serif" font-size="10.00" fill="#000000">iostream</text>
</g>
<!-- Node2&#45;&gt;Node5 -->
<g id="edge6" class="edge">
<title>Node2&#45;&gt;Node5</title>
<path fill="none" stroke="#191970" d="M361.1096,-456.1652C473.2051,-446.0065 908,-402.9608 908,-346.4516 908,-346.4516 908,-346.4516 908,-290.4516 908,-212.7196 862.0106,-204.5672 833,-132.4516 826.8019,-117.0441 820.9152,-99.1476 816.7935,-85.8806"/>
<polygon fill="#191970" stroke="#191970" points="820.0402,-84.5277 813.7782,-75.9814 813.344,-86.5674 820.0402,-84.5277"/>
</g>
<!-- Node6 -->
<g id="node7" class="node">
<title>Node6</title>
<polygon fill="#ffffff" stroke="#bfbfbf" points="258,-168.9516 258,-187.9516 320,-187.9516 320,-168.9516 258,-168.9516"/>
<text text-anchor="middle" x="289" y="-175.9516" font-family="Helvetica,sans-Serif" font-size="10.00" fill="#000000">type_traits</text>
</g>
<!-- Node2&#45;&gt;Node6 -->
<g id="edge7" class="edge">
<title>Node2&#45;&gt;Node6</title>
<path fill="none" stroke="#191970" d="M347.8394,-448.9114C372.8392,-429.0811 424.1612,-381.4977 407,-336.4516 387.5002,-285.2671 356.5422,-289.2309 325,-244.4516 314.4584,-229.4861 304.6622,-211.1091 297.9586,-197.5502"/>
<polygon fill="#191970" stroke="#191970" points="300.9724,-195.7422 293.474,-188.2572 294.6681,-198.7846 300.9724,-195.7422"/>
</g>
<!-- Node2&#45;&gt;Node7 -->
<g id="edge8" class="edge">
<title>Node2&#45;&gt;Node7</title>
<path fill="none" stroke="#191970" d="M325.5939,-448.6972C317.8507,-440.6672 306.688,-429.091 297.4682,-419.5298"/>
<polygon fill="#191970" stroke="#191970" points="299.7591,-416.8633 290.2983,-412.0943 294.7202,-421.7223 299.7591,-416.8633"/>
</g>
<!-- Node7&#45;&gt;Node1 -->
<g id="edge10" class="edge">
<title>Node7&#45;&gt;Node1</title>
<path fill="none" stroke="#191970" d="M263.4071,-392.6972C247.621,-383.9445 224.2361,-370.9786 206.2413,-361.0013"/>
<polygon fill="#191970" stroke="#191970" points="207.8341,-357.8824 197.3913,-356.0943 204.4397,-364.0044 207.8341,-357.8824"/>
</g>
<!-- Node7&#45;&gt;Node3 -->
<g id="edge9" class="edge">
<title>Node7&#45;&gt;Node3</title>
<path fill="none" stroke="#191970" d="M286.9223,-392.6972C291.6027,-384.9884 298.2673,-374.0114 303.9289,-364.6864"/>
<polygon fill="#191970" stroke="#191970" points="306.9475,-366.4586 309.1455,-356.0943 300.9639,-362.8258 306.9475,-366.4586"/>
</g>
<!-- Node7&#45;&gt;Node4 -->
<g id="edge11" class="edge">
<title>Node7&#45;&gt;Node4</title>
<path fill="none" stroke="#191970" d="M297.3736,-392.6972C311.9308,-384.0248 333.431,-371.2161 350.1152,-361.2766"/>
<polygon fill="#191970" stroke="#191970" points="352.0144,-364.2193 358.8141,-356.0943 348.4317,-358.2055 352.0144,-364.2193"/>
</g>
<!-- Node7&#45;&gt;Node5 -->
<g id="edge12" class="edge">
<title>Node7&#45;&gt;Node5</title>
<path fill="none" stroke="#191970" d="M275.3951,-392.8133C252.6775,-352.3657 172.249,-194.6351 249,-112.4516 287.344,-71.3937 682.781,-85.0716 773.6733,-75.974"/>
<polygon fill="#191970" stroke="#191970" points="774.1502,-79.4415 783.6126,-74.6756 773.2434,-72.5005 774.1502,-79.4415"/>
</g>
<!-- Node7&#45;&gt;Node6 -->
<g id="edge13" class="edge">
<title>Node7&#45;&gt;Node6</title>
<path fill="none" stroke="#191970" d="M281.3438,-392.8266C282.5541,-358.9367 286.6346,-244.6833 288.2917,-198.2848"/>
<polygon fill="#191970" stroke="#191970" points="291.7983,-198.1594 288.6575,-188.0408 284.8028,-197.9094 291.7983,-198.1594"/>
</g>
<!-- Node7&#45;&gt;Node8 -->
<g id="edge14" class="edge">
<title>Node7&#45;&gt;Node8</title>
<path fill="none" stroke="#191970" d="M254.9719,-394.3088C225.4075,-385.0596 176.8059,-369.8546 142.3254,-359.0674"/>
<polygon fill="#191970" stroke="#191970" points="143.148,-355.6575 132.5591,-356.012 141.0579,-362.3382 143.148,-355.6575"/>
</g>
<!-- Node7&#45;&gt;Node35 -->
<g id="edge55" class="edge">
<title>Node7&#45;&gt;Node35</title>
<path fill="none" stroke="#191970" d="M307.2692,-396.0277C346.8905,-386.3387 422.2765,-367.9037 469.1198,-356.4485"/>
<polygon fill="#191970" stroke="#191970" points="470.0625,-359.8212 478.9448,-354.0459 468.3996,-353.0216 470.0625,-359.8212"/>
</g>
<!-- Node8&#45;&gt;Node5 -->
<g id="edge15" class="edge">
<title>Node8&#45;&gt;Node5</title>
<path fill="none" stroke="#191970" d="M127.2746,-336.9352C143.073,-329.548 162.2175,-317.6398 172,-300.4516 186.5244,-274.9318 168.7406,-196.3171 178,-168.4516 187.4847,-139.9081 189.8895,-127.3826 216,-112.4516 321.4213,-52.1677 636.3708,-95.0116 773.6483,-76.2166"/>
<polygon fill="#191970" stroke="#191970" points="774.2612,-79.6637 783.6146,-74.6872 773.1993,-72.7447 774.2612,-79.6637"/>
</g>
<!-- Node9 -->
<g id="node10" class="node">
<title>Node9</title>
<polygon fill="#ffffff" stroke="#bfbfbf" points="258,-112.9516 258,-131.9516 310,-131.9516 310,-112.9516 258,-112.9516"/>
<text text-anchor="middle" x="284" y="-119.9516" font-family="Helvetica,sans-Serif" font-size="10.00" fill="#000000">memory</text>
</g>
<!-- Node8&#45;&gt;Node9 -->
<g id="edge16" class="edge">
<title>Node8&#45;&gt;Node9</title>
<path fill="none" stroke="#191970" d="M97.8606,-336.5264C92.9414,-323.1294 86.4125,-298.8235 95,-280.4516 127.9849,-209.8844 209.7036,-159.7523 254.1146,-136.6977"/>
<polygon fill="#191970" stroke="#191970" points="255.9184,-139.7073 263.254,-132.0627 252.7523,-133.4643 255.9184,-139.7073"/>
</g>
<!-- Node10 -->
<g id="node11" class="node">
<title>Node10</title>
<polygon fill="#ffffff" stroke="#bfbfbf" points="104.5,-280.9516 104.5,-299.9516 163.5,-299.9516 163.5,-280.9516 104.5,-280.9516"/>
<text text-anchor="middle" x="134" y="-287.9516" font-family="Helvetica,sans-Serif" font-size="10.00" fill="#000000">stdexcept</text>
</g>
<!-- Node8&#45;&gt;Node10 -->
<g id="edge17" class="edge">
<title>Node8&#45;&gt;Node10</title>
<path fill="none" stroke="#191970" d="M107.574,-336.6972C111.9331,-329.0687 118.1211,-318.2398 123.4133,-308.9784"/>
<polygon fill="#191970" stroke="#191970" points="126.5673,-310.5133 128.4899,-300.0943 120.4896,-307.0402 126.5673,-310.5133"/>
</g>
<!-- Node11 -->
<g id="node12" class="node">
<title>Node11</title>
<polygon fill="#ffffff" stroke="#bfbfbf" points="662.5,-.9516 662.5,-19.9516 703.5,-19.9516 703.5,-.9516 662.5,-.9516"/>
<text text-anchor="middle" x="683" y="-7.9516" font-family="Helvetica,sans-Serif" font-size="10.00" fill="#000000">string</text>
</g>
<!-- Node8&#45;&gt;Node11 -->
<g id="edge18" class="edge">
<title>Node8&#45;&gt;Node11</title>
<path fill="none" stroke="#191970" d="M83.2916,-336.8815C53.8451,-320.3273 0,-283.369 0,-234.4516 0,-234.4516 0,-234.4516 0,-122.4516 0,-55.468 518.1771,-20.2008 651.8448,-12.2176"/>
<polygon fill="#191970" stroke="#191970" points="652.4092,-15.6905 662.1862,-11.6089 651.9978,-8.7026 652.4092,-15.6905"/>
</g>
<!-- Node12 -->
<g id="node13" class="node">
<title>Node12</title>
<g id="a_node13"><a xlink:href="../../d4/dd1/compiler_8h.xhtml" target="_top" xlink:title="../util/compiler.h">
<polygon fill="#ffffff" stroke="#000000" points="359,-56.9516 359,-75.9516 445,-75.9516 445,-56.9516 359,-56.9516"/>
<text text-anchor="middle" x="402" y="-63.9516" font-family="Helvetica,sans-Serif" font-size="10.00" fill="#000000">../util/compiler.h</text>
</a>
</g>
</g>
<!-- Node8&#45;&gt;Node12 -->
<g id="edge19" class="edge">
<title>Node8&#45;&gt;Node12</title>
<path fill="none" stroke="#191970" d="M91.7173,-336.7298C73.626,-318.5186 38,-277.2264 38,-234.4516 38,-234.4516 38,-234.4516 38,-178.4516 38,-114.2091 247.7413,-82.9621 348.8003,-71.635"/>
<polygon fill="#191970" stroke="#191970" points="349.2556,-75.1061 358.815,-70.5379 348.4933,-68.1478 349.2556,-75.1061"/>
</g>
<!-- Node15 -->
<g id="node16" class="node">
<title>Node15</title>
<g id="a_node16"><a xlink:href="../../d2/d0d/message_8h.xhtml" target="_top" xlink:title="../log/message.h">
<polygon fill="#ffffff" stroke="#000000" points="480.5,-280.9516 480.5,-299.9516 569.5,-299.9516 569.5,-280.9516 480.5,-280.9516"/>
<text text-anchor="middle" x="525" y="-287.9516" font-family="Helvetica,sans-Serif" font-size="10.00" fill="#000000">../log/message.h</text>
</a>
</g>
</g>
<!-- Node8&#45;&gt;Node15 -->
<g id="edge24" class="edge">
<title>Node8&#45;&gt;Node15</title>
<path fill="none" stroke="#191970" d="M140.166,-338.038C143.1492,-337.47 146.1202,-336.9332 149,-336.4516 262.4458,-317.4811 396.381,-302.9609 469.8573,-295.6648"/>
<polygon fill="#191970" stroke="#191970" points="470.641,-299.1046 480.2497,-294.6411 469.9547,-292.1384 470.641,-299.1046"/>
</g>
<!-- Node12&#45;&gt;Node11 -->
<g id="edge21" class="edge">
<title>Node12&#45;&gt;Node11</title>
<path fill="none" stroke="#191970" d="M445.2904,-57.8244C502.6377,-46.3957 602.3647,-26.5213 652.4498,-16.5399"/>
<polygon fill="#191970" stroke="#191970" points="653.2277,-19.9538 662.3508,-14.5668 651.8595,-13.0888 653.2277,-19.9538"/>
</g>
<!-- Node13 -->
<g id="node14" class="node">
<title>Node13</title>
<polygon fill="#ffffff" stroke="#bfbfbf" points="420,-.9516 420,-19.9516 470,-19.9516 470,-.9516 420,-.9516"/>
<text text-anchor="middle" x="445" y="-7.9516" font-family="Helvetica,sans-Serif" font-size="10.00" fill="#000000">ciso646</text>
</g>
<!-- Node12&#45;&gt;Node13 -->
<g id="edge20" class="edge">
<title>Node12&#45;&gt;Node13</title>
<path fill="none" stroke="#191970" d="M409.49,-56.6972C415.5326,-48.8278 424.1903,-37.5526 431.4441,-28.1058"/>
<polygon fill="#191970" stroke="#191970" points="434.2815,-30.1574 437.5958,-20.0943 428.7295,-25.8942 434.2815,-30.1574"/>
</g>
<!-- Node14 -->
<g id="node15" class="node">
<title>Node14</title>
<g id="a_node15"><a xlink:href="../../d8/d39/signal_8h.xhtml" target="_top" xlink:title="signal.h">
<polygon fill="#ffffff" stroke="#000000" points="334,-.9516 334,-19.9516 384,-19.9516 384,-.9516 334,-.9516"/>
<text text-anchor="middle" x="359" y="-7.9516" font-family="Helvetica,sans-Serif" font-size="10.00" fill="#000000">signal.h</text>
</a>
</g>
</g>
<!-- Node12&#45;&gt;Node14 -->
<g id="edge22" class="edge">
<title>Node12&#45;&gt;Node14</title>
<path fill="none" stroke="#191970" d="M394.51,-56.6972C388.4674,-48.8278 379.8097,-37.5526 372.5559,-28.1058"/>
<polygon fill="#191970" stroke="#191970" points="375.2705,-25.8942 366.4042,-20.0943 369.7185,-30.1574 375.2705,-25.8942"/>
</g>
<!-- Node14&#45;&gt;Node14 -->
<g id="edge23" class="edge">
<title>Node14&#45;&gt;Node14</title>
<path fill="none" stroke="#191970" d="M377.5634,-20.0262C389.9465,-22.7213 402,-19.5298 402,-10.4516 402,-3.9267 395.7731,-.4429 387.6726,0"/>
<polygon fill="#191970" stroke="#191970" points="387.2234,3.4743 377.5634,-.877 387.8285,-3.4995 387.2234,3.4743"/>
</g>
<!-- Node15&#45;&gt;Node11 -->
<g id="edge26" class="edge">
<title>Node15&#45;&gt;Node11</title>
<path fill="none" stroke="#191970" d="M569.6627,-285.4014C635.526,-277.523 755.2035,-261.4402 795,-244.4516 871.8476,-211.6466 908.4337,-207.0874 946,-132.4516 992.6836,-39.702 793.338,-17.2109 714.1713,-11.9737"/>
<polygon fill="#191970" stroke="#191970" points="714.0307,-8.4587 703.8362,-11.3437 713.6047,-15.4457 714.0307,-8.4587"/>
</g>
<!-- Node16 -->
<g id="node17" class="node">
<title>Node16</title>
<polygon fill="#ffffff" stroke="#bfbfbf" points="404,-224.9516 404,-243.9516 450,-243.9516 450,-224.9516 404,-224.9516"/>
<text text-anchor="middle" x="427" y="-231.9516" font-family="Helvetica,sans-Serif" font-size="10.00" fill="#000000">cstdint</text>
</g>
<!-- Node15&#45;&gt;Node16 -->
<g id="edge25" class="edge">
<title>Node15&#45;&gt;Node16</title>
<path fill="none" stroke="#191970" d="M507.9297,-280.6972C492.753,-272.0248 470.3379,-259.2161 452.9437,-249.2766"/>
<polygon fill="#191970" stroke="#191970" points="454.2936,-246.0169 443.8747,-244.0943 450.8206,-252.0946 454.2936,-246.0169"/>
</g>
<!-- Node17 -->
<g id="node18" class="node">
<title>Node17</title>
<polygon fill="#ffffff" stroke="#bfbfbf" points="334.5,-224.9516 334.5,-243.9516 385.5,-243.9516 385.5,-224.9516 334.5,-224.9516"/>
<text text-anchor="middle" x="360" y="-231.9516" font-family="Helvetica,sans-Serif" font-size="10.00" fill="#000000">config.h</text>
</g>
<!-- Node15&#45;&gt;Node17 -->
<g id="edge27" class="edge">
<title>Node15&#45;&gt;Node17</title>
<path fill="none" stroke="#191970" d="M496.6355,-280.8249C468.5722,-271.3004 425.5464,-256.6977 395.2899,-246.4288"/>
<polygon fill="#191970" stroke="#191970" points="396.1529,-243.0257 385.5586,-243.1261 393.9032,-249.6543 396.1529,-243.0257"/>
</g>
<!-- Node18 -->
<g id="node19" class="node">
<title>Node18</title>
<g id="a_node19"><a xlink:href="../../d1/d06/constexpr_8h.xhtml" target="_top" xlink:title="../util/constexpr.h">
<polygon fill="#ffffff" stroke="#000000" points="674,-224.9516 674,-243.9516 766,-243.9516 766,-224.9516 674,-224.9516"/>
<text text-anchor="middle" x="720" y="-231.9516" font-family="Helvetica,sans-Serif" font-size="10.00" fill="#000000">../util/constexpr.h</text>
</a>
</g>
</g>
<!-- Node15&#45;&gt;Node18 -->
<g id="edge28" class="edge">
<title>Node15&#45;&gt;Node18</title>
<path fill="none" stroke="#191970" d="M558.5217,-280.8249C591.3683,-271.392 641.5595,-256.9781 677.2578,-246.7263"/>
<polygon fill="#191970" stroke="#191970" points="678.2703,-250.0771 686.9157,-243.9528 676.3381,-243.349 678.2703,-250.0771"/>
</g>
<!-- Node20 -->
<g id="node21" class="node">
<title>Node20</title>
<g id="a_node21"><a xlink:href="../../de/d65/stringformatter_8h.xhtml" target="_top" xlink:title="../util/stringformatter.h">
<polygon fill="#ffffff" stroke="#000000" points="468.5,-224.9516 468.5,-243.9516 581.5,-243.9516 581.5,-224.9516 468.5,-224.9516"/>
<text text-anchor="middle" x="525" y="-231.9516" font-family="Helvetica,sans-Serif" font-size="10.00" fill="#000000">../util/stringformatter.h</text>
</a>
</g>
</g>
<!-- Node15&#45;&gt;Node20 -->
<g id="edge30" class="edge">
<title>Node15&#45;&gt;Node20</title>
<path fill="none" stroke="#191970" d="M525,-280.6972C525,-273.3899 525,-263.146 525,-254.1562"/>
<polygon fill="#191970" stroke="#191970" points="528.5001,-254.0943 525,-244.0943 521.5001,-254.0943 528.5001,-254.0943"/>
</g>
<!-- Node29 -->
<g id="node30" class="node">
<title>Node29</title>
<g id="a_node30"><a xlink:href="../../d3/d4e/logsink_8h.xhtml" target="_top" xlink:title="logsink.h">
<polygon fill="#ffffff" stroke="#000000" points="600,-224.9516 600,-243.9516 656,-243.9516 656,-224.9516 600,-224.9516"/>
<text text-anchor="middle" x="628" y="-231.9516" font-family="Helvetica,sans-Serif" font-size="10.00" fill="#000000">logsink.h</text>
</a>
</g>
</g>
<!-- Node15&#45;&gt;Node29 -->
<g id="edge46" class="edge">
<title>Node15&#45;&gt;Node29</title>
<path fill="none" stroke="#191970" d="M542.9412,-280.6972C559.04,-271.9445 582.8879,-258.9786 601.2391,-249.0013"/>
<polygon fill="#191970" stroke="#191970" points="603.1507,-251.9458 610.2644,-244.0943 599.8071,-245.796 603.1507,-251.9458"/>
</g>
<!-- Node32 -->
<g id="node33" class="node">
<title>Node32</title>
<g id="a_node33"><a xlink:href="../../de/d09/level_8h.xhtml" target="_top" xlink:title="level.h">
<polygon fill="#ffffff" stroke="#000000" points="768.5,-168.9516 768.5,-187.9516 813.5,-187.9516 813.5,-168.9516 768.5,-168.9516"/>
<text text-anchor="middle" x="791" y="-175.9516" font-family="Helvetica,sans-Serif" font-size="10.00" fill="#000000">level.h</text>
</a>
</g>
</g>
<!-- Node15&#45;&gt;Node32 -->
<g id="edge54" class="edge">
<title>Node15&#45;&gt;Node32</title>
<path fill="none" stroke="#191970" d="M569.5922,-287.9678C633.3353,-283.4934 746.0212,-271.855 775,-244.4516 787.4242,-232.7029 790.9063,-213.0832 791.5907,-198.2815"/>
<polygon fill="#191970" stroke="#191970" points="795.0918,-198.1391 791.6704,-188.1119 788.092,-198.0842 795.0918,-198.1391"/>
</g>
<!-- Node19 -->
<g id="node20" class="node">
<title>Node19</title>
<polygon fill="#ffffff" stroke="#bfbfbf" points="700.5,-168.9516 700.5,-187.9516 745.5,-187.9516 745.5,-168.9516 700.5,-168.9516"/>
<text text-anchor="middle" x="723" y="-175.9516" font-family="Helvetica,sans-Serif" font-size="10.00" fill="#000000">cstdlib</text>
</g>
<!-- Node18&#45;&gt;Node19 -->
<g id="edge29" class="edge">
<title>Node18&#45;&gt;Node19</title>
<path fill="none" stroke="#191970" d="M720.5226,-224.6972C720.914,-217.3899 721.4628,-207.146 721.9444,-198.1562"/>
<polygon fill="#191970" stroke="#191970" points="725.4434,-198.2673 722.4834,-188.0943 718.4534,-197.8927 725.4434,-198.2673"/>
</g>
<!-- Node20&#45;&gt;Node6 -->
<g id="edge33" class="edge">
<title>Node20&#45;&gt;Node6</title>
<path fill="none" stroke="#191970" d="M484.6983,-224.8885C441.5534,-214.6507 373.461,-198.4932 330.0356,-188.1889"/>
<polygon fill="#191970" stroke="#191970" points="330.6306,-184.733 320.0927,-185.8296 329.0144,-191.5439 330.6306,-184.733"/>
</g>
<!-- Node20&#45;&gt;Node9 -->
<g id="edge32" class="edge">
<title>Node20&#45;&gt;Node9</title>
<path fill="none" stroke="#191970" d="M514.2849,-224.835C498.0136,-210.6802 465.6131,-184.2138 434,-168.4516 423.6409,-163.2866 360.904,-144.6994 319.9145,-132.792"/>
<polygon fill="#191970" stroke="#191970" points="320.8396,-129.4162 310.2605,-129.9941 318.891,-136.1395 320.8396,-129.4162"/>
</g>
<!-- Node20&#45;&gt;Node12 -->
<g id="edge34" class="edge">
<title>Node20&#45;&gt;Node12</title>
<path fill="none" stroke="#191970" d="M486.5082,-224.9277C454.7799,-216.6277 408.8451,-203.5705 370,-188.4516 351.106,-181.0979 347.3578,-177.0571 329,-168.4516 293.6966,-151.9026 270.1703,-165.1933 249,-132.4516 222.9551,-92.1709 294.8368,-76.3818 348.7158,-70.2563"/>
<polygon fill="#191970" stroke="#191970" points="349.2984,-73.7144 358.8778,-69.1883 348.5667,-66.7527 349.2984,-73.7144"/>
</g>
<!-- Node21 -->
<g id="node22" class="node">
<title>Node21</title>
<polygon fill="#ffffff" stroke="#bfbfbf" points="379,-168.9516 379,-187.9516 425,-187.9516 425,-168.9516 379,-168.9516"/>
<text text-anchor="middle" x="402" y="-175.9516" font-family="Helvetica,sans-Serif" font-size="10.00" fill="#000000">atomic</text>
</g>
<!-- Node20&#45;&gt;Node21 -->
<g id="edge31" class="edge">
<title>Node20&#45;&gt;Node21</title>
<path fill="none" stroke="#191970" d="M503.8555,-224.8249C484.1108,-215.8354 454.4302,-202.3223 432.1945,-192.1987"/>
<polygon fill="#191970" stroke="#191970" points="433.42,-188.911 422.8685,-187.9528 430.5194,-195.2818 433.42,-188.911"/>
</g>
<!-- Node22 -->
<g id="node23" class="node">
<title>Node22</title>
<g id="a_node23"><a xlink:href="../../dc/dcf/externalsstream_8h.xhtml" target="_top" xlink:title="externalsstream.h">
<polygon fill="#ffffff" stroke="#000000" points="841.5,-112.9516 841.5,-131.9516 936.5,-131.9516 936.5,-112.9516 841.5,-112.9516"/>
<text text-anchor="middle" x="889" y="-119.9516" font-family="Helvetica,sans-Serif" font-size="10.00" fill="#000000">externalsstream.h</text>
</a>
</g>
</g>
<!-- Node20&#45;&gt;Node22 -->
<g id="edge35" class="edge">
<title>Node20&#45;&gt;Node22</title>
<path fill="none" stroke="#191970" d="M530.2001,-224.9163C538.8291,-210.1092 557.6006,-181.8949 582,-168.4516 603.3822,-156.6708 748.2905,-138.5225 831.1538,-128.922"/>
<polygon fill="#191970" stroke="#191970" points="831.6512,-132.3879 841.1849,-127.7664 830.8501,-125.4339 831.6512,-132.3879"/>
</g>
<!-- Node23 -->
<g id="node24" class="node">
<title>Node23</title>
<g id="a_node24"><a xlink:href="../../d6/d90/strings_8h.xhtml" target="_top" xlink:title="strings.h">
<polygon fill="#ffffff" stroke="#000000" points="481,-168.9516 481,-187.9516 535,-187.9516 535,-168.9516 481,-168.9516"/>
<text text-anchor="middle" x="508" y="-175.9516" font-family="Helvetica,sans-Serif" font-size="10.00" fill="#000000">strings.h</text>
</a>
</g>
</g>
<!-- Node20&#45;&gt;Node23 -->
<g id="edge38" class="edge">
<title>Node20&#45;&gt;Node23</title>
<path fill="none" stroke="#191970" d="M522.0388,-224.6972C519.7962,-217.3096 516.6423,-206.9205 513.8919,-197.8603"/>
<polygon fill="#191970" stroke="#191970" points="517.1812,-196.6464 510.9272,-188.0943 510.483,-198.6798 517.1812,-196.6464"/>
</g>
<!-- Node22&#45;&gt;Node5 -->
<g id="edge36" class="edge">
<title>Node22&#45;&gt;Node5</title>
<path fill="none" stroke="#191970" d="M875.4134,-112.6972C863.6695,-104.2657 846.4801,-91.9245 832.8118,-82.1114"/>
<polygon fill="#191970" stroke="#191970" points="834.5954,-79.0833 824.4309,-76.0943 830.5129,-84.7696 834.5954,-79.0833"/>
</g>
<!-- Node22&#45;&gt;Node11 -->
<g id="edge37" class="edge">
<title>Node22&#45;&gt;Node11</title>
<path fill="none" stroke="#191970" d="M885.4752,-112.7898C879.701,-98.3302 866.8449,-71.189 847,-56.4516 807.1974,-26.8932 749.1887,-16.3213 713.8919,-12.5448"/>
<polygon fill="#191970" stroke="#191970" points="713.9985,-9.0392 703.7122,-11.5774 713.3362,-16.0078 713.9985,-9.0392"/>
</g>
<!-- Node23&#45;&gt;Node9 -->
<g id="edge42" class="edge">
<title>Node23&#45;&gt;Node9</title>
<path fill="none" stroke="#191970" d="M480.6535,-171.7792C476.0941,-170.6675 471.4135,-169.5266 467,-168.4516 404.3103,-153.1821 386.1281,-150.0341 320.3965,-132.7543"/>
<polygon fill="#191970" stroke="#191970" points="320.9046,-129.2686 310.3424,-130.0991 319.1172,-136.0365 320.9046,-129.2686"/>
</g>
<!-- Node23&#45;&gt;Node11 -->
<g id="edge44" class="edge">
<title>Node23&#45;&gt;Node11</title>
<path fill="none" stroke="#191970" d="M535.0139,-172.1485C577.3391,-162.03 655.3728,-142.3025 664,-132.4516 688.962,-103.9491 688.5122,-56.648 685.8414,-30.0935"/>
<polygon fill="#191970" stroke="#191970" points="689.3078,-29.6039 684.6285,-20.0984 682.3588,-30.4473 689.3078,-29.6039"/>
</g>
<!-- Node24 -->
<g id="node25" class="node">
<title>Node24</title>
<polygon fill="#ffffff" stroke="#bfbfbf" points="460.5,-112.9516 460.5,-131.9516 509.5,-131.9516 509.5,-112.9516 460.5,-112.9516"/>
<text text-anchor="middle" x="485" y="-119.9516" font-family="Helvetica,sans-Serif" font-size="10.00" fill="#000000">cstdarg</text>
</g>
<!-- Node23&#45;&gt;Node24 -->
<g id="edge39" class="edge">
<title>Node23&#45;&gt;Node24</title>
<path fill="none" stroke="#191970" d="M503.9937,-168.6972C500.9265,-161.2293 496.5997,-150.6943 492.8503,-141.5653"/>
<polygon fill="#191970" stroke="#191970" points="495.9972,-140.0148 488.9604,-132.0943 489.5221,-142.6742 495.9972,-140.0148"/>
</g>
<!-- Node25 -->
<g id="node26" class="node">
<title>Node25</title>
<polygon fill="#ffffff" stroke="#bfbfbf" points="527.5,-112.9516 527.5,-131.9516 586.5,-131.9516 586.5,-112.9516 527.5,-112.9516"/>
<text text-anchor="middle" x="557" y="-119.9516" font-family="Helvetica,sans-Serif" font-size="10.00" fill="#000000">functional</text>
</g>
<!-- Node23&#45;&gt;Node25 -->
<g id="edge40" class="edge">
<title>Node23&#45;&gt;Node25</title>
<path fill="none" stroke="#191970" d="M516.5351,-168.6972C523.4912,-160.7475 533.4883,-149.3222 541.8051,-139.8172"/>
<polygon fill="#191970" stroke="#191970" points="544.6116,-141.9249 548.5627,-132.0943 539.3436,-137.3153 544.6116,-141.9249"/>
</g>
<!-- Node26 -->
<g id="node27" class="node">
<title>Node26</title>
<polygon fill="#ffffff" stroke="#bfbfbf" points="605,-112.9516 605,-131.9516 655,-131.9516 655,-112.9516 605,-112.9516"/>
<text text-anchor="middle" x="630" y="-119.9516" font-family="Helvetica,sans-Serif" font-size="10.00" fill="#000000">iomanip</text>
</g>
<!-- Node23&#45;&gt;Node26 -->
<g id="edge41" class="edge">
<title>Node23&#45;&gt;Node26</title>
<path fill="none" stroke="#191970" d="M528.9725,-168.8249C548.5567,-159.8354 577.9961,-146.3223 600.051,-136.1987"/>
<polygon fill="#191970" stroke="#191970" points="601.6729,-139.3054 609.3011,-131.9528 598.7527,-132.9436 601.6729,-139.3054"/>
</g>
<!-- Node27 -->
<g id="node28" class="node">
<title>Node27</title>
<polygon fill="#ffffff" stroke="#bfbfbf" points="328,-112.9516 328,-131.9516 380,-131.9516 380,-112.9516 328,-112.9516"/>
<text text-anchor="middle" x="354" y="-119.9516" font-family="Helvetica,sans-Serif" font-size="10.00" fill="#000000">sstream</text>
</g>
<!-- Node23&#45;&gt;Node27 -->
<g id="edge43" class="edge">
<title>Node23&#45;&gt;Node27</title>
<path fill="none" stroke="#191970" d="M481.5265,-168.8249C456.1403,-159.5936 417.6355,-145.5918 389.578,-135.3891"/>
<polygon fill="#191970" stroke="#191970" points="390.7222,-132.081 380.1281,-131.9528 388.3299,-138.6595 390.7222,-132.081"/>
</g>
<!-- Node28 -->
<g id="node29" class="node">
<title>Node28</title>
<polygon fill="#ffffff" stroke="#bfbfbf" points="398,-112.9516 398,-131.9516 442,-131.9516 442,-112.9516 398,-112.9516"/>
<text text-anchor="middle" x="420" y="-119.9516" font-family="Helvetica,sans-Serif" font-size="10.00" fill="#000000">vector</text>
</g>
<!-- Node23&#45;&gt;Node28 -->
<g id="edge45" class="edge">
<title>Node23&#45;&gt;Node28</title>
<path fill="none" stroke="#191970" d="M492.6716,-168.6972C479.1697,-160.1051 459.2878,-147.453 443.7314,-137.5534"/>
<polygon fill="#191970" stroke="#191970" points="445.4685,-134.5103 435.1528,-132.0943 441.7103,-140.4159 445.4685,-134.5103"/>
</g>
<!-- Node30 -->
<g id="node31" class="node">
<title>Node30</title>
<polygon fill="#ffffff" stroke="#bfbfbf" points="653.5,-168.9516 653.5,-187.9516 682.5,-187.9516 682.5,-168.9516 653.5,-168.9516"/>
<text text-anchor="middle" x="668" y="-175.9516" font-family="Helvetica,sans-Serif" font-size="10.00" fill="#000000">list</text>
</g>
<!-- Node29&#45;&gt;Node30 -->
<g id="edge47" class="edge">
<title>Node29&#45;&gt;Node30</title>
<path fill="none" stroke="#191970" d="M634.9675,-224.6972C640.5311,-216.9081 648.478,-205.7824 655.1829,-196.3956"/>
<polygon fill="#191970" stroke="#191970" points="658.148,-198.266 661.1124,-188.0943 652.4519,-194.1973 658.148,-198.266"/>
</g>
<!-- Node31 -->
<g id="node32" class="node">
<title>Node31</title>
<polygon fill="#ffffff" stroke="#bfbfbf" points="591,-168.9516 591,-187.9516 635,-187.9516 635,-168.9516 591,-168.9516"/>
<text text-anchor="middle" x="613" y="-175.9516" font-family="Helvetica,sans-Serif" font-size="10.00" fill="#000000">mutex</text>
</g>
<!-- Node29&#45;&gt;Node31 -->
<g id="edge48" class="edge">
<title>Node29&#45;&gt;Node31</title>
<path fill="none" stroke="#191970" d="M625.3872,-224.6972C623.4084,-217.3096 620.6256,-206.9205 618.1988,-197.8603"/>
<polygon fill="#191970" stroke="#191970" points="621.5511,-196.8482 615.5829,-188.0943 614.7895,-198.6594 621.5511,-196.8482"/>
</g>
<!-- Node29&#45;&gt;Node32 -->
<g id="edge49" class="edge">
<title>Node29&#45;&gt;Node32</title>
<path fill="none" stroke="#191970" d="M656.0207,-224.8249C684.5616,-215.0194 728.7686,-199.8317 758.7494,-189.5316"/>
<polygon fill="#191970" stroke="#191970" points="760.008,-192.8001 768.3282,-186.2407 757.7335,-186.1799 760.008,-192.8001"/>
</g>
<!-- Node33 -->
<g id="node34" class="node">
<title>Node33</title>
<g id="a_node34"><a xlink:href="../../d0/d9b/enum_8h.xhtml" target="_top" xlink:title="../util/enum.h">
<polygon fill="#ffffff" stroke="#000000" points="711,-112.9516 711,-131.9516 785,-131.9516 785,-112.9516 711,-112.9516"/>
<text text-anchor="middle" x="748" y="-119.9516" font-family="Helvetica,sans-Serif" font-size="10.00" fill="#000000">../util/enum.h</text>
</a>
</g>
</g>
<!-- Node32&#45;&gt;Node33 -->
<g id="edge50" class="edge">
<title>Node32&#45;&gt;Node33</title>
<path fill="none" stroke="#191970" d="M783.51,-168.6972C777.4674,-160.8278 768.8097,-149.5526 761.5559,-140.1058"/>
<polygon fill="#191970" stroke="#191970" points="764.2705,-137.8942 755.4042,-132.0943 758.7185,-142.1574 764.2705,-137.8942"/>
</g>
<!-- Node33&#45;&gt;Node5 -->
<g id="edge51" class="edge">
<title>Node33&#45;&gt;Node5</title>
<path fill="none" stroke="#191970" d="M758.9738,-112.6972C768.1882,-104.5066 781.5532,-92.6266 792.4297,-82.9586"/>
<polygon fill="#191970" stroke="#191970" points="795.0032,-85.3539 800.152,-76.0943 790.3526,-80.122 795.0032,-85.3539"/>
</g>
<!-- Node33&#45;&gt;Node12 -->
<g id="edge53" class="edge">
<title>Node33&#45;&gt;Node12</title>
<path fill="none" stroke="#191970" d="M710.9719,-116.4587C649.4923,-106.5082 526.1222,-86.5408 455.2869,-75.0761"/>
<polygon fill="#191970" stroke="#191970" points="455.6613,-71.5912 445.2306,-73.4485 454.5429,-78.5013 455.6613,-71.5912"/>
</g>
<!-- Node34 -->
<g id="node35" class="node">
<title>Node34</title>
<polygon fill="#ffffff" stroke="#bfbfbf" points="714.5,-56.9516 714.5,-75.9516 765.5,-75.9516 765.5,-56.9516 714.5,-56.9516"/>
<text text-anchor="middle" x="740" y="-63.9516" font-family="Helvetica,sans-Serif" font-size="10.00" fill="#000000">typeinfo</text>
</g>
<!-- Node33&#45;&gt;Node34 -->
<g id="edge52" class="edge">
<title>Node33&#45;&gt;Node34</title>
<path fill="none" stroke="#191970" d="M746.6065,-112.6972C745.5626,-105.3899 744.0992,-95.146 742.8149,-86.1562"/>
<polygon fill="#191970" stroke="#191970" points="746.2566,-85.4988 741.3775,-76.0943 739.327,-86.4888 746.2566,-85.4988"/>
</g>
<!-- Node35&#45;&gt;Node15 -->
<g id="edge57" class="edge">
<title>Node35&#45;&gt;Node15</title>
<path fill="none" stroke="#191970" d="M512.6128,-336.6972C514.5916,-329.3096 517.3744,-318.9205 519.8012,-309.8603"/>
<polygon fill="#191970" stroke="#191970" points="523.2105,-310.6594 522.4171,-300.0943 516.4489,-308.8482 523.2105,-310.6594"/>
</g>
<!-- Node35&#45;&gt;Node32 -->
<g id="edge56" class="edge">
<title>Node35&#45;&gt;Node32</title>
<path fill="none" stroke="#191970" d="M541.1086,-340.0026C608.5956,-325.3153 764.8171,-287.3116 795,-244.4516 804.4806,-230.9891 802.0814,-211.8928 798.1387,-197.7024"/>
<polygon fill="#191970" stroke="#191970" points="801.4021,-196.4188 794.994,-187.9817 794.742,-198.5735 801.4021,-196.4188"/>
</g>
<!-- Node37 -->
<g id="node38" class="node">
<title>Node37</title>
<polygon fill="#ffffff" stroke="#bfbfbf" points="936,-392.9516 936,-411.9516 976,-411.9516 976,-392.9516 936,-392.9516"/>
<text text-anchor="middle" x="956" y="-399.9516" font-family="Helvetica,sans-Serif" font-size="10.00" fill="#000000">limits</text>
</g>
<!-- Node36&#45;&gt;Node37 -->
<g id="edge59" class="edge">
<title>Node36&#45;&gt;Node37</title>
<path fill="none" stroke="#191970" d="M774.809,-448.8748C813.2032,-439.9384 871.6107,-425.9857 922,-412.4516 923.2701,-412.1105 924.5652,-411.7566 925.8722,-411.3945"/>
<polygon fill="#191970" stroke="#191970" points="927.2521,-414.6405 935.9085,-408.5319 925.332,-407.909 927.2521,-414.6405"/>
</g>
</g>
</svg>
