<?xml version="1.0" encoding="UTF-8" standalone="no"?>
<!DOCTYPE svg PUBLIC "-//W3C//DTD SVG 1.1//EN"
 "http://www.w3.org/Graphics/SVG/1.1/DTD/svg11.dtd">
<!-- Generated by graphviz version 2.40.1 (20161225.0304)
 -->
<!-- Title: openage::OutputMode::name Pages: 1 -->
<svg width="748pt" height="345pt"
 viewBox="0.00 0.00 748.00 345.00" xmlns="http://www.w3.org/2000/svg" xmlns:xlink="http://www.w3.org/1999/xlink">
<g id="graph0" class="graph" transform="scale(1 1) rotate(0) translate(4 341)">
<title>openage::OutputMode::name</title>
<polygon fill="#ffffff" stroke="transparent" points="-4,4 -4,-341 744,-341 744,4 -4,4"/>
<!-- Node27 -->
<g id="node1" class="node">
<title>Node27</title>
<polygon fill="#bfbfbf" stroke="#000000" points="0,-73.5 0,-103.5 113,-103.5 113,-73.5 0,-73.5"/>
<text text-anchor="start" x="8" y="-91.5" font-family="Helvetica,sans-Serif" font-size="10.00" fill="#000000">openage::OutputMode</text>
<text text-anchor="middle" x="56.5" y="-80.5" font-family="Helvetica,sans-Serif" font-size="10.00" fill="#000000">::name</text>
</g>
<!-- Node28 -->
<g id="node2" class="node">
<title>Node28</title>
<g id="a_node2"><a xlink:href="../../de/d24/classopenage_1_1_output_mode.xhtml#aafb84951c6575c14b5517312c5cfe191" target="_top" xlink:title="Emit the &quot;announced&quot; signal with (name, InputContext::active_binds). ">
<polygon fill="#ffffff" stroke="#000000" points="152.5,-171.5 152.5,-201.5 265.5,-201.5 265.5,-171.5 152.5,-171.5"/>
<text text-anchor="start" x="160.5" y="-189.5" font-family="Helvetica,sans-Serif" font-size="10.00" fill="#000000">openage::OutputMode</text>
<text text-anchor="middle" x="209" y="-178.5" font-family="Helvetica,sans-Serif" font-size="10.00" fill="#000000">::announce</text>
</a>
</g>
</g>
<!-- Node27&#45;&gt;Node28 -->
<g id="edge1" class="edge">
<title>Node27&#45;&gt;Node28</title>
<path fill="none" stroke="#191970" d="M88.5359,-109.087C117.5099,-127.7063 159.4975,-154.6886 185.4794,-171.3851"/>
<polygon fill="#191970" stroke="#191970" points="90.2988,-106.0595 79.9939,-103.5977 86.5144,-111.9484 90.2988,-106.0595"/>
</g>
<!-- Node40 -->
<g id="node14" class="node">
<title>Node40</title>
<g id="a_node14"><a xlink:href="../../d6/d6b/classopenage_1_1util_1_1fslike_1_1path_1_1_path.xhtml#aab5ade46752aa652e414b1c3bac704c1" target="_top" xlink:title="Name without suffix (such that stem + suffix == name). ">
<polygon fill="#ffffff" stroke="#000000" points="149,-98.5 149,-128.5 269,-128.5 269,-98.5 149,-98.5"/>
<text text-anchor="start" x="157" y="-116.5" font-family="Helvetica,sans-Serif" font-size="10.00" fill="#000000">openage.util.fslike.path.</text>
<text text-anchor="middle" x="209" y="-105.5" font-family="Helvetica,sans-Serif" font-size="10.00" fill="#000000">Path.stem</text>
</a>
</g>
</g>
<!-- Node27&#45;&gt;Node40 -->
<g id="edge13" class="edge">
<title>Node27&#45;&gt;Node40</title>
<path fill="none" stroke="#191970" d="M123.201,-99.4346C131.7333,-100.8333 140.4277,-102.2586 148.8477,-103.639"/>
<polygon fill="#191970" stroke="#191970" points="123.7199,-95.973 113.2854,-97.8091 122.5874,-102.8808 123.7199,-95.973"/>
</g>
<!-- Node42 -->
<g id="node16" class="node">
<title>Node42</title>
<g id="a_node16"><a xlink:href="../../d6/d6b/classopenage_1_1util_1_1fslike_1_1path_1_1_path.xhtml#a7b11153f6ef9787c4c583bcf0126ba6a" target="_top" xlink:title="The last suffix of the name of the topmost component (str). ">
<polygon fill="#ffffff" stroke="#000000" points="149,-49.5 149,-79.5 269,-79.5 269,-49.5 149,-49.5"/>
<text text-anchor="start" x="157" y="-67.5" font-family="Helvetica,sans-Serif" font-size="10.00" fill="#000000">openage.util.fslike.path.</text>
<text text-anchor="middle" x="209" y="-56.5" font-family="Helvetica,sans-Serif" font-size="10.00" fill="#000000">Path.suffix</text>
</a>
</g>
</g>
<!-- Node27&#45;&gt;Node42 -->
<g id="edge15" class="edge">
<title>Node27&#45;&gt;Node42</title>
<path fill="none" stroke="#191970" d="M123.201,-78.0028C131.7333,-76.66 140.4277,-75.2917 148.8477,-73.9666"/>
<polygon fill="#191970" stroke="#191970" points="122.6196,-74.5511 113.2854,-79.5633 123.7079,-81.466 122.6196,-74.5511"/>
</g>
<!-- Node43 -->
<g id="node17" class="node">
<title>Node43</title>
<g id="a_node17"><a xlink:href="../../d6/d6b/classopenage_1_1util_1_1fslike_1_1path_1_1_path.xhtml#a912043b2fbd330e3493588f6c6af92b8" target="_top" xlink:title="The suffixes of the name of the topmost component (str list). ">
<polygon fill="#ffffff" stroke="#000000" points="149,-.5 149,-30.5 269,-30.5 269,-.5 149,-.5"/>
<text text-anchor="start" x="157" y="-18.5" font-family="Helvetica,sans-Serif" font-size="10.00" fill="#000000">openage.util.fslike.path.</text>
<text text-anchor="middle" x="209" y="-7.5" font-family="Helvetica,sans-Serif" font-size="10.00" fill="#000000">Path.suffixes</text>
</a>
</g>
</g>
<!-- Node27&#45;&gt;Node43 -->
<g id="edge16" class="edge">
<title>Node27&#45;&gt;Node43</title>
<path fill="none" stroke="#191970" d="M92.2519,-68.4178C109.2321,-59.1765 129.9391,-48.3302 149,-39.5 155.6169,-36.4347 162.7417,-33.3787 169.69,-30.525"/>
<polygon fill="#191970" stroke="#191970" points="90.3199,-65.4855 83.2359,-73.3638 93.6867,-71.6227 90.3199,-65.4855"/>
</g>
<!-- Node29 -->
<g id="node3" class="node">
<title>Node29</title>
<g id="a_node3"><a xlink:href="../../d8/d06/classopenage_1_1_action_mode.xhtml#a6288ce1c7b45e988f140ace30845bc69" target="_top" xlink:title="sends to gui the properties that it needs ">
<polygon fill="#ffffff" stroke="#000000" points="309.5,-269.5 309.5,-299.5 420.5,-299.5 420.5,-269.5 309.5,-269.5"/>
<text text-anchor="start" x="317.5" y="-287.5" font-family="Helvetica,sans-Serif" font-size="10.00" fill="#000000">openage::ActionMode</text>
<text text-anchor="middle" x="365" y="-276.5" font-family="Helvetica,sans-Serif" font-size="10.00" fill="#000000">::announce</text>
</a>
</g>
</g>
<!-- Node28&#45;&gt;Node29 -->
<g id="edge2" class="edge">
<title>Node28&#45;&gt;Node29</title>
<path fill="none" stroke="#191970" d="M233.3795,-208.3544C252.0256,-224.2842 278.8903,-245.5989 305,-260.5 310.6515,-263.7253 316.822,-266.7211 322.9862,-269.4258"/>
<polygon fill="#191970" stroke="#191970" points="235.5201,-205.5781 225.6707,-201.6744 230.936,-210.8682 235.5201,-205.5781"/>
</g>
<!-- Node33 -->
<g id="node7" class="node">
<title>Node33</title>
<g id="a_node7"><a xlink:href="../../db/d42/classopenage_1_1_editor_mode.xhtml#aeac3794a1c9c6b6492413573d3670133" target="_top" xlink:title="Emit the &quot;announced&quot; signal with (name, InputContext::active_binds). ">
<polygon fill="#ffffff" stroke="#000000" points="310.5,-220.5 310.5,-250.5 419.5,-250.5 419.5,-220.5 310.5,-220.5"/>
<text text-anchor="start" x="318.5" y="-238.5" font-family="Helvetica,sans-Serif" font-size="10.00" fill="#000000">openage::EditorMode</text>
<text text-anchor="middle" x="365" y="-227.5" font-family="Helvetica,sans-Serif" font-size="10.00" fill="#000000">::announce</text>
</a>
</g>
</g>
<!-- Node28&#45;&gt;Node33 -->
<g id="edge6" class="edge">
<title>Node28&#45;&gt;Node33</title>
<path fill="none" stroke="#191970" d="M266.6656,-204.6129C283.2503,-209.8222 301.1535,-215.4457 317.0807,-220.4484"/>
<polygon fill="#191970" stroke="#191970" points="267.6674,-201.259 257.0781,-201.6014 265.5696,-207.9373 267.6674,-201.259"/>
</g>
<!-- Node34 -->
<g id="node8" class="node">
<title>Node34</title>
<g id="a_node8"><a xlink:href="../../d8/db5/classopenage_1_1_game_control.xhtml#a8c867441262580369ff7c66ba6bd0e4b" target="_top" xlink:title="openage::GameControl\l::announce_mode">
<polygon fill="#ffffff" stroke="#000000" points="306.5,-171.5 306.5,-201.5 423.5,-201.5 423.5,-171.5 306.5,-171.5"/>
<text text-anchor="start" x="314.5" y="-189.5" font-family="Helvetica,sans-Serif" font-size="10.00" fill="#000000">openage::GameControl</text>
<text text-anchor="middle" x="365" y="-178.5" font-family="Helvetica,sans-Serif" font-size="10.00" fill="#000000">::announce_mode</text>
</a>
</g>
</g>
<!-- Node28&#45;&gt;Node34 -->
<g id="edge7" class="edge">
<title>Node28&#45;&gt;Node34</title>
<path fill="none" stroke="#191970" d="M275.8316,-186.5C286.0152,-186.5 296.4582,-186.5 306.4467,-186.5"/>
<polygon fill="#191970" stroke="#191970" points="275.7609,-183.0001 265.7609,-186.5 275.7608,-190.0001 275.7609,-183.0001"/>
</g>
<!-- Node38 -->
<g id="node12" class="node">
<title>Node38</title>
<g id="a_node12"><a xlink:href="../../de/d24/classopenage_1_1_output_mode.xhtml#a56daba2d7cbace8b99ca51015d2f76df" target="_top" xlink:title="Called when the GameControl is set in QML. ">
<polygon fill="#ffffff" stroke="#000000" points="308.5,-122.5 308.5,-152.5 421.5,-152.5 421.5,-122.5 308.5,-122.5"/>
<text text-anchor="start" x="316.5" y="-140.5" font-family="Helvetica,sans-Serif" font-size="10.00" fill="#000000">openage::OutputMode</text>
<text text-anchor="middle" x="365" y="-129.5" font-family="Helvetica,sans-Serif" font-size="10.00" fill="#000000">::set_game_control</text>
</a>
</g>
</g>
<!-- Node28&#45;&gt;Node38 -->
<g id="edge11" class="edge">
<title>Node28&#45;&gt;Node38</title>
<path fill="none" stroke="#191970" d="M266.6656,-168.3871C283.2503,-163.1778 301.1535,-157.5543 317.0807,-152.5516"/>
<polygon fill="#191970" stroke="#191970" points="265.5696,-165.0627 257.0781,-171.3986 267.6674,-171.741 265.5696,-165.0627"/>
</g>
<!-- Node30 -->
<g id="node4" class="node">
<title>Node30</title>
<g id="a_node4"><a xlink:href="../../d8/d06/classopenage_1_1_action_mode.xhtml#a30654ed7b85fa4cf0a2728c447dfa652" target="_top" xlink:title="sends to gui the buttons it should use for the action buttons (if changed) ">
<polygon fill="#ffffff" stroke="#000000" points="461,-269.5 461,-299.5 587,-299.5 587,-269.5 461,-269.5"/>
<text text-anchor="start" x="469" y="-287.5" font-family="Helvetica,sans-Serif" font-size="10.00" fill="#000000">openage::ActionMode</text>
<text text-anchor="middle" x="524" y="-276.5" font-family="Helvetica,sans-Serif" font-size="10.00" fill="#000000">::announce_buttons_type</text>
</a>
</g>
</g>
<!-- Node29&#45;&gt;Node30 -->
<g id="edge3" class="edge">
<title>Node29&#45;&gt;Node30</title>
<path fill="none" stroke="#191970" d="M430.8137,-284.5C440.7322,-284.5 450.9439,-284.5 460.8057,-284.5"/>
<polygon fill="#191970" stroke="#191970" points="430.6105,-281.0001 420.6105,-284.5 430.6104,-288.0001 430.6105,-281.0001"/>
</g>
<!-- Node31 -->
<g id="node5" class="node">
<title>Node31</title>
<g id="a_node5"><a xlink:href="../../d8/d06/classopenage_1_1_action_mode.xhtml#a9c7d1f16c862692b1172079402ac0f18" target="_top" xlink:title="Called when the mode is left. ">
<polygon fill="#ffffff" stroke="#000000" points="626,-306.5 626,-336.5 737,-336.5 737,-306.5 626,-306.5"/>
<text text-anchor="start" x="634" y="-324.5" font-family="Helvetica,sans-Serif" font-size="10.00" fill="#000000">openage::ActionMode</text>
<text text-anchor="middle" x="681.5" y="-313.5" font-family="Helvetica,sans-Serif" font-size="10.00" fill="#000000">::on_exit</text>
</a>
</g>
</g>
<!-- Node30&#45;&gt;Node31 -->
<g id="edge4" class="edge">
<title>Node30&#45;&gt;Node31</title>
<path fill="none" stroke="#191970" d="M597.1727,-301.6898C606.8498,-303.9631 616.6397,-306.263 625.9541,-308.4511"/>
<polygon fill="#191970" stroke="#191970" points="597.6892,-298.2159 587.1538,-299.3361 596.0883,-305.0304 597.6892,-298.2159"/>
</g>
<!-- Node32 -->
<g id="node6" class="node">
<title>Node32</title>
<g id="a_node6"><a xlink:href="../../d8/d06/classopenage_1_1_action_mode.xhtml#a43f98279255b857ee8fa9943117271e8" target="_top" xlink:title="Called after GameControl has been set by QML from set_game_control. ">
<polygon fill="#ffffff" stroke="#000000" points="623.5,-257.5 623.5,-287.5 739.5,-287.5 739.5,-257.5 623.5,-257.5"/>
<text text-anchor="start" x="631.5" y="-275.5" font-family="Helvetica,sans-Serif" font-size="10.00" fill="#000000">openage::ActionMode</text>
<text text-anchor="middle" x="681.5" y="-264.5" font-family="Helvetica,sans-Serif" font-size="10.00" fill="#000000">::on_game_control_set</text>
</a>
</g>
</g>
<!-- Node30&#45;&gt;Node32 -->
<g id="edge5" class="edge">
<title>Node30&#45;&gt;Node32</title>
<path fill="none" stroke="#191970" d="M597.3561,-278.911C606.1041,-278.2445 614.9412,-277.5711 623.433,-276.9242"/>
<polygon fill="#191970" stroke="#191970" points="596.8589,-275.4386 587.1538,-279.6883 597.3908,-282.4184 596.8589,-275.4386"/>
</g>
<!-- Node35 -->
<g id="node9" class="node">
<title>Node35</title>
<g id="a_node9"><a xlink:href="../../d8/db5/classopenage_1_1_game_control.xhtml#a1d0f073f844955000861e4c0d08b20e0" target="_top" xlink:title="openage::GameControl\l::set_mode">
<polygon fill="#ffffff" stroke="#000000" points="465.5,-171.5 465.5,-201.5 582.5,-201.5 582.5,-171.5 465.5,-171.5"/>
<text text-anchor="start" x="473.5" y="-189.5" font-family="Helvetica,sans-Serif" font-size="10.00" fill="#000000">openage::GameControl</text>
<text text-anchor="middle" x="524" y="-178.5" font-family="Helvetica,sans-Serif" font-size="10.00" fill="#000000">::set_mode</text>
</a>
</g>
</g>
<!-- Node34&#45;&gt;Node35 -->
<g id="edge8" class="edge">
<title>Node34&#45;&gt;Node35</title>
<path fill="none" stroke="#191970" d="M433.781,-186.5C444.3476,-186.5 455.1714,-186.5 465.4875,-186.5"/>
<polygon fill="#191970" stroke="#191970" points="433.754,-183.0001 423.754,-186.5 433.754,-190.0001 433.754,-183.0001"/>
</g>
<!-- Node36 -->
<g id="node10" class="node">
<title>Node36</title>
<g id="a_node10"><a xlink:href="../../d8/db5/classopenage_1_1_game_control.xhtml#ad7c9d48df33f8f56ab5686c36648bfa5" target="_top" xlink:title="openage::GameControl\l::set_engine">
<polygon fill="#ffffff" stroke="#000000" points="623,-184.5 623,-214.5 740,-214.5 740,-184.5 623,-184.5"/>
<text text-anchor="start" x="631" y="-202.5" font-family="Helvetica,sans-Serif" font-size="10.00" fill="#000000">openage::GameControl</text>
<text text-anchor="middle" x="681.5" y="-191.5" font-family="Helvetica,sans-Serif" font-size="10.00" fill="#000000">::set_engine</text>
</a>
</g>
</g>
<!-- Node35&#45;&gt;Node36 -->
<g id="edge9" class="edge">
<title>Node35&#45;&gt;Node36</title>
<path fill="none" stroke="#191970" d="M592.9257,-192.1891C602.8891,-193.0115 613.0656,-193.8514 622.8038,-194.6552"/>
<polygon fill="#191970" stroke="#191970" points="592.9012,-188.6753 582.6472,-191.3407 592.3254,-195.6515 592.9012,-188.6753"/>
</g>
<!-- Node37 -->
<g id="node11" class="node">
<title>Node37</title>
<g id="a_node11"><a xlink:href="../../d8/db5/classopenage_1_1_game_control.xhtml#af8fcfaca1f2135c0508cb706955d18d0" target="_top" xlink:title="openage::GameControl\l::set_modes">
<polygon fill="#ffffff" stroke="#000000" points="623,-135.5 623,-165.5 740,-165.5 740,-135.5 623,-135.5"/>
<text text-anchor="start" x="631" y="-153.5" font-family="Helvetica,sans-Serif" font-size="10.00" fill="#000000">openage::GameControl</text>
<text text-anchor="middle" x="681.5" y="-142.5" font-family="Helvetica,sans-Serif" font-size="10.00" fill="#000000">::set_modes</text>
</a>
</g>
</g>
<!-- Node35&#45;&gt;Node37 -->
<g id="edge10" class="edge">
<title>Node35&#45;&gt;Node37</title>
<path fill="none" stroke="#191970" d="M592.6111,-170.8175C602.6748,-168.5172 612.9631,-166.1656 622.8038,-163.9163"/>
<polygon fill="#191970" stroke="#191970" points="591.6159,-167.4546 582.6472,-173.0949 593.1757,-174.2786 591.6159,-167.4546"/>
</g>
<!-- Node39 -->
<g id="node13" class="node">
<title>Node39</title>
<g id="a_node13"><a xlink:href="../../db/d42/classopenage_1_1_editor_mode.xhtml#a4c17017408bec2740f3653123bd17660" target="_top" xlink:title="Called when the GameControl is set in QML. ">
<polygon fill="#ffffff" stroke="#000000" points="469.5,-122.5 469.5,-152.5 578.5,-152.5 578.5,-122.5 469.5,-122.5"/>
<text text-anchor="start" x="477.5" y="-140.5" font-family="Helvetica,sans-Serif" font-size="10.00" fill="#000000">openage::EditorMode</text>
<text text-anchor="middle" x="524" y="-129.5" font-family="Helvetica,sans-Serif" font-size="10.00" fill="#000000">::set_game_control</text>
</a>
</g>
</g>
<!-- Node38&#45;&gt;Node39 -->
<g id="edge12" class="edge">
<title>Node38&#45;&gt;Node39</title>
<path fill="none" stroke="#191970" d="M431.8536,-137.5C444.3256,-137.5 457.2239,-137.5 469.2777,-137.5"/>
<polygon fill="#191970" stroke="#191970" points="431.5052,-134.0001 421.5051,-137.5 431.5051,-141.0001 431.5052,-134.0001"/>
</g>
<!-- Node41 -->
<g id="node15" class="node">
<title>Node41</title>
<g id="a_node15"><a xlink:href="../../d6/d6b/classopenage_1_1util_1_1fslike_1_1path_1_1_path.xhtml#a3ab02f8ab30da2c239dc08a5bb463b58" target="_top" xlink:title="Returns path for different suffix (same parent and stem). ">
<polygon fill="#ffffff" stroke="#000000" points="305,-73.5 305,-103.5 425,-103.5 425,-73.5 305,-73.5"/>
<text text-anchor="start" x="313" y="-91.5" font-family="Helvetica,sans-Serif" font-size="10.00" fill="#000000">openage.util.fslike.path.</text>
<text text-anchor="middle" x="365" y="-80.5" font-family="Helvetica,sans-Serif" font-size="10.00" fill="#000000">Path.with_suffix</text>
</a>
</g>
</g>
<!-- Node40&#45;&gt;Node41 -->
<g id="edge14" class="edge">
<title>Node40&#45;&gt;Node41</title>
<path fill="none" stroke="#191970" d="M279.2594,-102.2405C287.8019,-100.8715 296.4694,-99.4825 304.8467,-98.1399"/>
<polygon fill="#191970" stroke="#191970" points="278.6338,-98.796 269.3137,-103.8343 279.7415,-105.7078 278.6338,-98.796"/>
</g>
</g>
</svg>
