<?xml version="1.0" encoding="UTF-8" standalone="no"?>
<!DOCTYPE svg PUBLIC "-//W3C//DTD SVG 1.1//EN"
 "http://www.w3.org/Graphics/SVG/1.1/DTD/svg11.dtd">
<!-- Generated by graphviz version 2.40.1 (20161225.0304)
 -->
<!-- Title: openage.cabextract.cab.CABFolderStream.read Pages: 1 -->
<!--zoomable 786 -->
<svg id="main" version="1.1" xmlns="http://www.w3.org/2000/svg" xmlns:xlink="http://www.w3.org/1999/xlink" xml:space="preserve" onload="init(evt)">
<style type="text/css"><![CDATA[
.edge:hover path { stroke: red; }
.edge:hover polygon { stroke: red; fill: red; }
]]></style>
<script type="text/javascript"><![CDATA[
var edges = document.getElementsByTagName('g');
if (edges && edges.length) {
  for (var i=0;i<edges.length;i++) {
    if (edges[i].id.substr(0,4)=='edge') {
      edges[i].setAttribute('class','edge');
    }
  }
}
]]></script>
        <defs>
                <circle id="rim" cx="0" cy="0" r="7"/>
                <circle id="rim2" cx="0" cy="0" r="3.5"/>
                <g id="zoomPlus">
                        <use xlink:href="#rim" fill="#404040">
                                <set attributeName="fill" to="#808080" begin="zoomplus.mouseover" end="zoomplus.mouseout"/>
                        </use>
                        <path d="M-4,0h8M0,-4v8" fill="none" stroke="white" stroke-width="1.5" pointer-events="none"/>
                </g>
                <g id="zoomMin">
                        <use xlink:href="#rim" fill="#404040">
                                <set attributeName="fill" to="#808080" begin="zoomminus.mouseover" end="zoomminus.mouseout"/>
                        </use>
                        <path d="M-4,0h8" fill="none" stroke="white" stroke-width="1.5" pointer-events="none"/>
                </g>
                <g id="dirArrow">
                        <path fill="none" stroke="white" stroke-width="1.5" d="M0,-3.0v7 M-2.5,-0.5L0,-3.0L2.5,-0.5"/>
                </g>
               <g id="resetDef">
                       <use xlink:href="#rim2" fill="#404040">
                               <set attributeName="fill" to="#808080" begin="reset.mouseover" end="reset.mouseout"/>
                       </use>
               </g>
        </defs>

<script type="text/javascript">
var viewWidth = 1211;
var viewHeight = 786;
var sectionId = 'dynsection-5';
</script>
<script xlink:href="../../svgpan.js"/>
<svg id="graph" class="graph">
<g id="viewport">
<title>openage.cabextract.cab.CABFolderStream.read</title>
<polygon fill="#ffffff" stroke="transparent" points="-4,4 -4,-782 1207,-782 1207,4 -4,4"/>
<!-- Node23 -->
<g id="node1" class="node">
<title>Node23</title>
<polygon fill="#bfbfbf" stroke="#000000" points="0,-321.5 0,-351.5 172,-351.5 172,-321.5 0,-321.5"/>
<text text-anchor="start" x="8" y="-339.5" font-family="Helvetica,sans-Serif" font-size="10.00" fill="#000000">openage.cabextract.cab.CABFolder</text>
<text text-anchor="middle" x="86" y="-328.5" font-family="Helvetica,sans-Serif" font-size="10.00" fill="#000000">Stream.read</text>
</g>
<!-- Node24 -->
<g id="node2" class="node">
<title>Node24</title>
<g id="a_node2"><a xlink:href="../../de/dbb/classopenage_1_1cabextract_1_1cab_1_1_c_a_b_folder_stream.xhtml#ad9654069c6554f9859298fa5c1e85b73" target="_top" xlink:title="openage.cabextract.cab.CABFolder\lStream.read_blocks">
<polygon fill="#ffffff" stroke="#000000" points="208,-321.5 208,-351.5 380,-351.5 380,-321.5 208,-321.5"/>
<text text-anchor="start" x="216" y="-339.5" font-family="Helvetica,sans-Serif" font-size="10.00" fill="#000000">openage.cabextract.cab.CABFolder</text>
<text text-anchor="middle" x="294" y="-328.5" font-family="Helvetica,sans-Serif" font-size="10.00" fill="#000000">Stream.read_blocks</text>
</a>
</g>
</g>
<!-- Node23&#45;&gt;Node24 -->
<g id="edge1" class="edge">
<title>Node23&#45;&gt;Node24</title>
<path fill="none" stroke="#191970" d="M172.103,-336.5C180.6179,-336.5 189.2978,-336.5 197.905,-336.5"/>
<polygon fill="#191970" stroke="#191970" points="197.9616,-340.0001 207.9616,-336.5 197.9615,-333.0001 197.9616,-340.0001"/>
</g>
<!-- Node25 -->
<g id="node3" class="node">
<title>Node25</title>
<g id="a_node3"><a xlink:href="../../de/dbb/classopenage_1_1cabextract_1_1cab_1_1_c_a_b_folder_stream.xhtml#a455bb79e71a8baa07af00ac680085f6d" target="_top" xlink:title="reads the data of block block_id. ">
<polygon fill="#ffffff" stroke="#000000" points="416,-321.5 416,-351.5 588,-351.5 588,-321.5 416,-321.5"/>
<text text-anchor="start" x="424" y="-339.5" font-family="Helvetica,sans-Serif" font-size="10.00" fill="#000000">openage.cabextract.cab.CABFolder</text>
<text text-anchor="middle" x="502" y="-328.5" font-family="Helvetica,sans-Serif" font-size="10.00" fill="#000000">Stream.read_block_data</text>
</a>
</g>
</g>
<!-- Node24&#45;&gt;Node25 -->
<g id="edge2" class="edge">
<title>Node24&#45;&gt;Node25</title>
<path fill="none" stroke="#191970" d="M380.103,-336.5C388.6179,-336.5 397.2978,-336.5 405.905,-336.5"/>
<polygon fill="#191970" stroke="#191970" points="405.9616,-340.0001 415.9616,-336.5 405.9615,-333.0001 405.9616,-340.0001"/>
</g>
<!-- Node26 -->
<g id="node4" class="node">
<title>Node26</title>
<g id="a_node4"><a xlink:href="../../d2/d24/classopenage_1_1util_1_1filelike_1_1readonly_1_1_pos_saving_read_only_file_like_object.xhtml#a2312775f74be5a112a1ab18f0f581173" target="_top" xlink:title="openage.util.filelike.readonly.\lPosSavingReadOnlyFileLikeObject.seek">
<polygon fill="#ffffff" stroke="#000000" points="624,-370.5 624,-400.5 818,-400.5 818,-370.5 624,-370.5"/>
<text text-anchor="start" x="632" y="-388.5" font-family="Helvetica,sans-Serif" font-size="10.00" fill="#000000">openage.util.filelike.readonly.</text>
<text text-anchor="middle" x="721" y="-377.5" font-family="Helvetica,sans-Serif" font-size="10.00" fill="#000000">PosSavingReadOnlyFileLikeObject.seek</text>
</a>
</g>
</g>
<!-- Node25&#45;&gt;Node26 -->
<g id="edge3" class="edge">
<title>Node25&#45;&gt;Node26</title>
<path fill="none" stroke="#191970" d="M569.1955,-351.5346C592.8444,-356.8259 619.6042,-362.8133 643.9979,-368.2712"/>
<polygon fill="#191970" stroke="#191970" points="643.4086,-371.7258 653.9315,-370.4938 644.9371,-364.8947 643.4086,-371.7258"/>
</g>
<!-- Node44 -->
<g id="node22" class="node">
<title>Node44</title>
<g id="a_node22"><a xlink:href="../../de/dbb/classopenage_1_1cabextract_1_1cab_1_1_c_a_b_folder_stream.xhtml#adc3af5aa923ad52702de79831c669dc3" target="_top" xlink:title="adds metadata for the next block ">
<polygon fill="#ffffff" stroke="#000000" points="635,-321.5 635,-351.5 807,-351.5 807,-321.5 635,-321.5"/>
<text text-anchor="start" x="643" y="-339.5" font-family="Helvetica,sans-Serif" font-size="10.00" fill="#000000">openage.cabextract.cab.CABFolder</text>
<text text-anchor="middle" x="721" y="-328.5" font-family="Helvetica,sans-Serif" font-size="10.00" fill="#000000">Stream.next_block_size</text>
</a>
</g>
</g>
<!-- Node25&#45;&gt;Node44 -->
<g id="edge21" class="edge">
<title>Node25&#45;&gt;Node44</title>
<path fill="none" stroke="#191970" d="M588.2402,-336.5C600.2099,-336.5 612.5682,-336.5 624.7069,-336.5"/>
<polygon fill="#191970" stroke="#191970" points="624.8384,-340.0001 634.8383,-336.5 624.8383,-333.0001 624.8384,-340.0001"/>
</g>
<!-- Node45 -->
<g id="node23" class="node">
<title>Node45</title>
<g id="a_node23"><a xlink:href="../../dd/d90/namespaceopenage_1_1util_1_1files.xhtml#aa2ba5a14f2468fd0745e07dc84ff2188" target="_top" xlink:title="openage.util.files.read\l_guaranteed">
<polygon fill="#ffffff" stroke="#000000" points="665,-272.5 665,-302.5 777,-302.5 777,-272.5 665,-272.5"/>
<text text-anchor="start" x="673" y="-290.5" font-family="Helvetica,sans-Serif" font-size="10.00" fill="#000000">openage.util.files.read</text>
<text text-anchor="middle" x="721" y="-279.5" font-family="Helvetica,sans-Serif" font-size="10.00" fill="#000000">_guaranteed</text>
</a>
</g>
</g>
<!-- Node25&#45;&gt;Node45 -->
<g id="edge22" class="edge">
<title>Node25&#45;&gt;Node45</title>
<path fill="none" stroke="#191970" d="M569.1955,-321.4654C596.5192,-315.3519 627.9957,-308.3092 655.1775,-302.2274"/>
<polygon fill="#191970" stroke="#191970" points="655.9874,-305.6328 664.9819,-300.0337 654.4589,-298.8017 655.9874,-305.6328"/>
</g>
<!-- Node27 -->
<g id="node5" class="node">
<title>Node27</title>
<g id="a_node5"><a xlink:href="../../dd/df9/classopenage_1_1util_1_1filelike_1_1abstract_1_1_file_like_object.xhtml#a248471b44bfea2faad6d97d9dd07eb00" target="_top" xlink:title="Helper function for use by implementations of seek(). ">
<polygon fill="#ffffff" stroke="#000000" points="854,-370.5 854,-400.5 995,-400.5 995,-370.5 854,-370.5"/>
<text text-anchor="start" x="862" y="-388.5" font-family="Helvetica,sans-Serif" font-size="10.00" fill="#000000">openage.util.filelike.abstract.</text>
<text text-anchor="middle" x="924.5" y="-377.5" font-family="Helvetica,sans-Serif" font-size="10.00" fill="#000000">FileLikeObject.seek_helper</text>
</a>
</g>
</g>
<!-- Node26&#45;&gt;Node27 -->
<g id="edge4" class="edge">
<title>Node26&#45;&gt;Node27</title>
<path fill="none" stroke="#191970" d="M818.2798,-385.5C826.7799,-385.5 835.3215,-385.5 843.667,-385.5"/>
<polygon fill="#191970" stroke="#191970" points="843.7334,-389.0001 853.7334,-385.5 843.7333,-382.0001 843.7334,-389.0001"/>
</g>
<!-- Node28 -->
<g id="node6" class="node">
<title>Node28</title>
<g id="a_node6"><a xlink:href="../../dc/d27/classopenage_1_1util_1_1_file.xhtml#a27557ca3420295dbe0a09030ea19bd77" target="_top" xlink:title="openage::util::File\l::tell">
<polygon fill="#ffffff" stroke="#000000" points="1070,-747.5 1070,-777.5 1164,-777.5 1164,-747.5 1070,-747.5"/>
<text text-anchor="start" x="1078" y="-765.5" font-family="Helvetica,sans-Serif" font-size="10.00" fill="#000000">openage::util::File</text>
<text text-anchor="middle" x="1117" y="-754.5" font-family="Helvetica,sans-Serif" font-size="10.00" fill="#000000">::tell</text>
</a>
</g>
</g>
<!-- Node27&#45;&gt;Node28 -->
<g id="edge5" class="edge">
<title>Node27&#45;&gt;Node28</title>
<path fill="none" stroke="#191970" d="M927.0939,-400.7153C937.8119,-461.8921 980.464,-689.0078 1031,-738.5 1038.9703,-746.3057 1049.2561,-751.6194 1059.9255,-755.2253"/>
<polygon fill="#191970" stroke="#191970" points="1059.1975,-758.6582 1069.7765,-758.0792 1061.1454,-751.9347 1059.1975,-758.6582"/>
</g>
<!-- Node29 -->
<g id="node7" class="node">
<title>Node29</title>
<g id="a_node7"><a xlink:href="../../db/da6/classopenage_1_1util_1_1filelike_1_1_file_like.xhtml#a30eeb9b647177a0aaf06ca241e347196" target="_top" xlink:title="openage::util::filelike\l::FileLike::tell">
<polygon fill="#ffffff" stroke="#000000" points="1064,-698.5 1064,-728.5 1170,-728.5 1170,-698.5 1064,-698.5"/>
<text text-anchor="start" x="1072" y="-716.5" font-family="Helvetica,sans-Serif" font-size="10.00" fill="#000000">openage::util::filelike</text>
<text text-anchor="middle" x="1117" y="-705.5" font-family="Helvetica,sans-Serif" font-size="10.00" fill="#000000">::FileLike::tell</text>
</a>
</g>
</g>
<!-- Node27&#45;&gt;Node29 -->
<g id="edge6" class="edge">
<title>Node27&#45;&gt;Node29</title>
<path fill="none" stroke="#191970" d="M925.1081,-400.7547C927.9266,-450.2149 943.6794,-607.6638 1031,-689.5 1037.5741,-695.6612 1045.5964,-700.2619 1054.0703,-703.693"/>
<polygon fill="#191970" stroke="#191970" points="1053.1816,-707.0901 1063.7764,-707.0907 1055.4945,-700.4832 1053.1816,-707.0901"/>
</g>
<!-- Node30 -->
<g id="node8" class="node">
<title>Node30</title>
<g id="a_node8"><a xlink:href="../../d5/d1e/classopenage_1_1util_1_1filelike_1_1_native.xhtml#a3cd357c014b8193cfdaaf48eec32ec1b" target="_top" xlink:title="openage::util::filelike\l::Native::tell">
<polygon fill="#ffffff" stroke="#000000" points="1064,-649.5 1064,-679.5 1170,-679.5 1170,-649.5 1064,-649.5"/>
<text text-anchor="start" x="1072" y="-667.5" font-family="Helvetica,sans-Serif" font-size="10.00" fill="#000000">openage::util::filelike</text>
<text text-anchor="middle" x="1117" y="-656.5" font-family="Helvetica,sans-Serif" font-size="10.00" fill="#000000">::Native::tell</text>
</a>
</g>
</g>
<!-- Node27&#45;&gt;Node30 -->
<g id="edge7" class="edge">
<title>Node27&#45;&gt;Node30</title>
<path fill="none" stroke="#191970" d="M926.2668,-400.7794C932.2013,-444.9332 955.4982,-573.7895 1031,-640.5 1037.6676,-646.3912 1045.6686,-650.8472 1054.0699,-654.2153"/>
<polygon fill="#191970" stroke="#191970" points="1053.0807,-657.5772 1063.6756,-657.5744 1055.3914,-650.9695 1053.0807,-657.5772"/>
</g>
<!-- Node31 -->
<g id="node9" class="node">
<title>Node31</title>
<g id="a_node9"><a xlink:href="../../d1/d0b/classopenage_1_1util_1_1filelike_1_1_python.xhtml#a116cc148489f31270f4f85c8d8ecf1f1" target="_top" xlink:title="openage::util::filelike\l::Python::tell">
<polygon fill="#ffffff" stroke="#000000" points="1064,-600.5 1064,-630.5 1170,-630.5 1170,-600.5 1064,-600.5"/>
<text text-anchor="start" x="1072" y="-618.5" font-family="Helvetica,sans-Serif" font-size="10.00" fill="#000000">openage::util::filelike</text>
<text text-anchor="middle" x="1117" y="-607.5" font-family="Helvetica,sans-Serif" font-size="10.00" fill="#000000">::Python::tell</text>
</a>
</g>
</g>
<!-- Node27&#45;&gt;Node31 -->
<g id="edge8" class="edge">
<title>Node27&#45;&gt;Node31</title>
<path fill="none" stroke="#191970" d="M927.8731,-400.5685C937.1965,-438.6507 966.9742,-539.4172 1031,-591.5 1037.8147,-597.0435 1045.8268,-601.3089 1054.1722,-604.5902"/>
<polygon fill="#191970" stroke="#191970" points="1053.0951,-607.9211 1063.6899,-607.8925 1055.3897,-601.3079 1053.0951,-607.9211"/>
</g>
<!-- Node32 -->
<g id="node10" class="node">
<title>Node32</title>
<g id="a_node10"><a xlink:href="../../df/d79/classopenage_1_1cabextract_1_1lzxdstream_1_1_l_z_x_d_stream.xhtml#ad60178631fe4c59543351deb02216676" target="_top" xlink:title="openage.cabextract.lzxdstream.\lLZXDStream.tell">
<polygon fill="#ffffff" stroke="#000000" points="1039,-551.5 1039,-581.5 1195,-581.5 1195,-551.5 1039,-551.5"/>
<text text-anchor="start" x="1047" y="-569.5" font-family="Helvetica,sans-Serif" font-size="10.00" fill="#000000">openage.cabextract.lzxdstream.</text>
<text text-anchor="middle" x="1117" y="-558.5" font-family="Helvetica,sans-Serif" font-size="10.00" fill="#000000">LZXDStream.tell</text>
</a>
</g>
</g>
<!-- Node27&#45;&gt;Node32 -->
<g id="edge9" class="edge">
<title>Node27&#45;&gt;Node32</title>
<path fill="none" stroke="#191970" d="M930.469,-400.6373C943.6518,-432.0667 978.3221,-504.6178 1031,-542.5 1033.0922,-544.0046 1035.2754,-545.415 1037.5289,-546.737"/>
<polygon fill="#191970" stroke="#191970" points="1036.0383,-549.9067 1046.5258,-551.411 1039.2654,-543.695 1036.0383,-549.9067"/>
</g>
<!-- Node33 -->
<g id="node11" class="node">
<title>Node33</title>
<g id="a_node11"><a xlink:href="../../dd/df9/classopenage_1_1util_1_1filelike_1_1abstract_1_1_file_like_object.xhtml#a0ad9d642b58e227e95d4c03b49b57d0b" target="_top" xlink:title="Returns the current position in the file. ">
<polygon fill="#ffffff" stroke="#000000" points="1046.5,-502.5 1046.5,-532.5 1187.5,-532.5 1187.5,-502.5 1046.5,-502.5"/>
<text text-anchor="start" x="1054.5" y="-520.5" font-family="Helvetica,sans-Serif" font-size="10.00" fill="#000000">openage.util.filelike.abstract.</text>
<text text-anchor="middle" x="1117" y="-509.5" font-family="Helvetica,sans-Serif" font-size="10.00" fill="#000000">FileLikeObject.tell</text>
</a>
</g>
</g>
<!-- Node27&#45;&gt;Node33 -->
<g id="edge10" class="edge">
<title>Node27&#45;&gt;Node33</title>
<path fill="none" stroke="#191970" d="M935.4118,-400.8716C952.8974,-424.3645 989.4772,-469.0444 1031,-493.5 1033.8717,-495.1913 1036.8676,-496.7678 1039.9466,-498.2369"/>
<polygon fill="#191970" stroke="#191970" points="1038.8246,-501.5651 1049.3919,-502.3291 1041.6075,-495.142 1038.8246,-501.5651"/>
</g>
<!-- Node34 -->
<g id="node12" class="node">
<title>Node34</title>
<g id="a_node12"><a xlink:href="../../d6/d9c/classopenage_1_1renderer_1_1opengl_1_1_gl_buffer.xhtml#a6b6867a9bcc96e5d36923ce98bd7a635" target="_top" xlink:title="The size in bytes of this buffer. ">
<polygon fill="#ffffff" stroke="#000000" points="1052,-453.5 1052,-483.5 1182,-483.5 1182,-453.5 1052,-453.5"/>
<text text-anchor="start" x="1060" y="-471.5" font-family="Helvetica,sans-Serif" font-size="10.00" fill="#000000">openage::renderer::</text>
<text text-anchor="middle" x="1117" y="-460.5" font-family="Helvetica,sans-Serif" font-size="10.00" fill="#000000">opengl::GlBuffer::get_size</text>
</a>
</g>
</g>
<!-- Node27&#45;&gt;Node34 -->
<g id="edge11" class="edge">
<title>Node27&#45;&gt;Node34</title>
<path fill="none" stroke="#191970" d="M948.7171,-400.656C969.8345,-413.3869 1001.6057,-431.39 1031,-443.5 1036.755,-445.871 1042.8131,-448.1118 1048.9387,-450.2051"/>
<polygon fill="#191970" stroke="#191970" points="1047.9936,-453.5785 1058.5864,-453.3707 1050.1761,-446.9274 1047.9936,-453.5785"/>
</g>
<!-- Node35 -->
<g id="node13" class="node">
<title>Node35</title>
<g id="a_node13"><a xlink:href="../../d0/dd8/classopenage_1_1renderer_1_1resources_1_1_texture2d_info.xhtml#a3bd462432c63a67c1b199c3f717bce50" target="_top" xlink:title="Returns the dimensions of the whole texture bitmap. ">
<polygon fill="#ffffff" stroke="#000000" points="1054.5,-393 1054.5,-434 1179.5,-434 1179.5,-393 1054.5,-393"/>
<text text-anchor="start" x="1062.5" y="-422" font-family="Helvetica,sans-Serif" font-size="10.00" fill="#000000">openage::renderer::</text>
<text text-anchor="start" x="1062.5" y="-411" font-family="Helvetica,sans-Serif" font-size="10.00" fill="#000000">resources::Texture2dInfo</text>
<text text-anchor="middle" x="1117" y="-400" font-family="Helvetica,sans-Serif" font-size="10.00" fill="#000000">::get_size</text>
</a>
</g>
</g>
<!-- Node27&#45;&gt;Node35 -->
<g id="edge12" class="edge">
<title>Node27&#45;&gt;Node35</title>
<path fill="none" stroke="#191970" d="M995.0868,-395.7672C1011.1706,-398.1066 1028.2858,-400.5961 1044.4501,-402.9473"/>
<polygon fill="#191970" stroke="#191970" points="1043.9743,-406.4148 1054.374,-404.3908 1044.9819,-399.4877 1043.9743,-406.4148"/>
</g>
<!-- Node36 -->
<g id="node14" class="node">
<title>Node36</title>
<g id="a_node14"><a xlink:href="../../d0/de5/classopenage_1_1renderer_1_1_window.xhtml#a1bf53e4db756c04ed522a975573b36a6" target="_top" xlink:title="Returns the dimensions of this window. ">
<polygon fill="#ffffff" stroke="#000000" points="1066.5,-343.5 1066.5,-373.5 1167.5,-373.5 1167.5,-343.5 1066.5,-343.5"/>
<text text-anchor="start" x="1074.5" y="-361.5" font-family="Helvetica,sans-Serif" font-size="10.00" fill="#000000">openage::renderer::</text>
<text text-anchor="middle" x="1117" y="-350.5" font-family="Helvetica,sans-Serif" font-size="10.00" fill="#000000">Window::get_size</text>
</a>
</g>
</g>
<!-- Node27&#45;&gt;Node36 -->
<g id="edge13" class="edge">
<title>Node27&#45;&gt;Node36</title>
<path fill="none" stroke="#191970" d="M995.0868,-375.5995C1015.1895,-372.7799 1036.9034,-369.7343 1056.3579,-367.0056"/>
<polygon fill="#191970" stroke="#191970" points="1056.888,-370.4656 1066.3049,-365.6105 1055.9157,-363.5335 1056.888,-370.4656"/>
</g>
<!-- Node37 -->
<g id="node15" class="node">
<title>Node37</title>
<g id="a_node15"><a xlink:href="../../d9/dab/classopenage_1_1_terrain_chunk.xhtml#afd204c75d8f3ef28ad07f8ce1ba79894" target="_top" xlink:title="openage::TerrainChunk\l::get_size">
<polygon fill="#ffffff" stroke="#000000" points="1058,-294.5 1058,-324.5 1176,-324.5 1176,-294.5 1058,-294.5"/>
<text text-anchor="start" x="1066" y="-312.5" font-family="Helvetica,sans-Serif" font-size="10.00" fill="#000000">openage::TerrainChunk</text>
<text text-anchor="middle" x="1117" y="-301.5" font-family="Helvetica,sans-Serif" font-size="10.00" fill="#000000">::get_size</text>
</a>
</g>
</g>
<!-- Node27&#45;&gt;Node37 -->
<g id="edge14" class="edge">
<title>Node27&#45;&gt;Node37</title>
<path fill="none" stroke="#191970" d="M952.8698,-370.3446C974.0115,-359.44 1003.8047,-344.8842 1031,-334.5 1037.2461,-332.115 1043.8202,-329.8259 1050.436,-327.6677"/>
<polygon fill="#191970" stroke="#191970" points="1051.646,-330.956 1060.1253,-324.6036 1049.5353,-324.2818 1051.646,-330.956"/>
</g>
<!-- Node38 -->
<g id="node16" class="node">
<title>Node38</title>
<g id="a_node16"><a xlink:href="../../db/da6/classopenage_1_1util_1_1filelike_1_1_file_like.xhtml#a212820ce88cf538a4099f14f622e569b" target="_top" xlink:title="openage::util::filelike\l::FileLike::get_size">
<polygon fill="#ffffff" stroke="#000000" points="1064,-245.5 1064,-275.5 1170,-275.5 1170,-245.5 1064,-245.5"/>
<text text-anchor="start" x="1072" y="-263.5" font-family="Helvetica,sans-Serif" font-size="10.00" fill="#000000">openage::util::filelike</text>
<text text-anchor="middle" x="1117" y="-252.5" font-family="Helvetica,sans-Serif" font-size="10.00" fill="#000000">::FileLike::get_size</text>
</a>
</g>
</g>
<!-- Node27&#45;&gt;Node38 -->
<g id="edge15" class="edge">
<title>Node27&#45;&gt;Node38</title>
<path fill="none" stroke="#191970" d="M936.6011,-370.2738C954.8032,-348.3699 991.3455,-308.1213 1031,-285.5 1038.1052,-281.4468 1045.9221,-278.0036 1053.8581,-275.091"/>
<polygon fill="#191970" stroke="#191970" points="1055.2147,-278.3267 1063.5575,-271.7961 1052.9631,-271.6987 1055.2147,-278.3267"/>
</g>
<!-- Node39 -->
<g id="node17" class="node">
<title>Node39</title>
<g id="a_node17"><a xlink:href="../../d5/d1e/classopenage_1_1util_1_1filelike_1_1_native.xhtml#ac4dd2bd1f87b66cc3de59abd1672d606" target="_top" xlink:title="openage::util::filelike\l::Native::get_size">
<polygon fill="#ffffff" stroke="#000000" points="1064,-196.5 1064,-226.5 1170,-226.5 1170,-196.5 1064,-196.5"/>
<text text-anchor="start" x="1072" y="-214.5" font-family="Helvetica,sans-Serif" font-size="10.00" fill="#000000">openage::util::filelike</text>
<text text-anchor="middle" x="1117" y="-203.5" font-family="Helvetica,sans-Serif" font-size="10.00" fill="#000000">::Native::get_size</text>
</a>
</g>
</g>
<!-- Node27&#45;&gt;Node39 -->
<g id="edge16" class="edge">
<title>Node27&#45;&gt;Node39</title>
<path fill="none" stroke="#191970" d="M931.1422,-370.2588C945.0994,-340.0381 980.4134,-272.3525 1031,-236.5 1038.097,-231.4701 1046.1993,-227.4447 1054.5286,-224.2249"/>
<polygon fill="#191970" stroke="#191970" points="1055.7008,-227.5229 1063.9876,-220.9214 1053.3927,-220.9143 1055.7008,-227.5229"/>
</g>
<!-- Node40 -->
<g id="node18" class="node">
<title>Node40</title>
<g id="a_node18"><a xlink:href="../../d1/d0b/classopenage_1_1util_1_1filelike_1_1_python.xhtml#aa2723a9836cd17708e0341691d5ca5dd" target="_top" xlink:title="openage::util::filelike\l::Python::get_size">
<polygon fill="#ffffff" stroke="#000000" points="1064,-147.5 1064,-177.5 1170,-177.5 1170,-147.5 1064,-147.5"/>
<text text-anchor="start" x="1072" y="-165.5" font-family="Helvetica,sans-Serif" font-size="10.00" fill="#000000">openage::util::filelike</text>
<text text-anchor="middle" x="1117" y="-154.5" font-family="Helvetica,sans-Serif" font-size="10.00" fill="#000000">::Python::get_size</text>
</a>
</g>
</g>
<!-- Node27&#45;&gt;Node40 -->
<g id="edge17" class="edge">
<title>Node27&#45;&gt;Node40</title>
<path fill="none" stroke="#191970" d="M928.3081,-370.2361C938.3723,-333.1043 969.2423,-237.4517 1031,-187.5 1037.8512,-181.9586 1045.8835,-177.6454 1054.2384,-174.2883"/>
<polygon fill="#191970" stroke="#191970" points="1055.5206,-177.547 1063.7626,-170.8898 1053.168,-170.9542 1055.5206,-177.547"/>
</g>
<!-- Node41 -->
<g id="node19" class="node">
<title>Node41</title>
<g id="a_node19"><a xlink:href="../../de/dbb/classopenage_1_1cabextract_1_1cab_1_1_c_a_b_folder_stream.xhtml#a22d3c8597d3b8ef507a98145bd623990" target="_top" xlink:title="openage.cabextract.cab.CABFolder\lStream.get_size">
<polygon fill="#ffffff" stroke="#000000" points="1031,-98.5 1031,-128.5 1203,-128.5 1203,-98.5 1031,-98.5"/>
<text text-anchor="start" x="1039" y="-116.5" font-family="Helvetica,sans-Serif" font-size="10.00" fill="#000000">openage.cabextract.cab.CABFolder</text>
<text text-anchor="middle" x="1117" y="-105.5" font-family="Helvetica,sans-Serif" font-size="10.00" fill="#000000">Stream.get_size</text>
</a>
</g>
</g>
<!-- Node27&#45;&gt;Node41 -->
<g id="edge18" class="edge">
<title>Node27&#45;&gt;Node41</title>
<path fill="none" stroke="#191970" d="M926.5059,-370.4216C933.0334,-327.4421 957.6623,-203.2521 1031,-138.5 1032.9377,-136.7891 1034.9865,-135.195 1037.1237,-133.7097"/>
<polygon fill="#191970" stroke="#191970" points="1039.0013,-136.6646 1045.7576,-128.5036 1035.3866,-130.6701 1039.0013,-136.6646"/>
</g>
<!-- Node42 -->
<g id="node20" class="node">
<title>Node42</title>
<g id="a_node20"><a xlink:href="../../df/d79/classopenage_1_1cabextract_1_1lzxdstream_1_1_l_z_x_d_stream.xhtml#ab3cbec4d52b33409ea1569d92496b50b" target="_top" xlink:title="openage.cabextract.lzxdstream.\lLZXDStream.get_size">
<polygon fill="#ffffff" stroke="#000000" points="1039,-49.5 1039,-79.5 1195,-79.5 1195,-49.5 1039,-49.5"/>
<text text-anchor="start" x="1047" y="-67.5" font-family="Helvetica,sans-Serif" font-size="10.00" fill="#000000">openage.cabextract.lzxdstream.</text>
<text text-anchor="middle" x="1117" y="-56.5" font-family="Helvetica,sans-Serif" font-size="10.00" fill="#000000">LZXDStream.get_size</text>
</a>
</g>
</g>
<!-- Node27&#45;&gt;Node42 -->
<g id="edge19" class="edge">
<title>Node27&#45;&gt;Node42</title>
<path fill="none" stroke="#191970" d="M925.3044,-370.3354C928.7087,-321.8842 946.0159,-169.3339 1031,-89.5 1032.6574,-87.9431 1034.4061,-86.4824 1036.2302,-85.1121"/>
<polygon fill="#191970" stroke="#191970" points="1038.1621,-88.031 1044.6627,-79.6647 1034.3637,-82.1512 1038.1621,-88.031"/>
</g>
<!-- Node43 -->
<g id="node21" class="node">
<title>Node43</title>
<g id="a_node21"><a xlink:href="../../dd/df9/classopenage_1_1util_1_1filelike_1_1abstract_1_1_file_like_object.xhtml#a402459217e8204b8242829b019ad85a7" target="_top" xlink:title="openage.util.filelike.abstract.\lFileLikeObject.get_size">
<polygon fill="#ffffff" stroke="#000000" points="1046.5,-.5 1046.5,-30.5 1187.5,-30.5 1187.5,-.5 1046.5,-.5"/>
<text text-anchor="start" x="1054.5" y="-18.5" font-family="Helvetica,sans-Serif" font-size="10.00" fill="#000000">openage.util.filelike.abstract.</text>
<text text-anchor="middle" x="1117" y="-7.5" font-family="Helvetica,sans-Serif" font-size="10.00" fill="#000000">FileLikeObject.get_size</text>
</a>
</g>
</g>
<!-- Node27&#45;&gt;Node43 -->
<g id="edge20" class="edge">
<title>Node27&#45;&gt;Node43</title>
<path fill="none" stroke="#191970" d="M927.2336,-370.2329C938.3244,-309.8916 981.7301,-88.9629 1031,-40.5 1032.9399,-38.5919 1035.0164,-36.8279 1037.2018,-35.1971"/>
<polygon fill="#191970" stroke="#191970" points="1039.5428,-37.857 1046.1125,-29.545 1035.7933,-31.9458 1039.5428,-37.857"/>
</g>
</g>
</svg>
        <g id="navigator" transform="translate(0 0)" fill="#404254">
                <rect fill="#f2f5e9" fill-opacity="0.5" stroke="#606060" stroke-width=".5" x="0" y="0" width="60" height="60"/>
                <use id="zoomplus" xlink:href="#zoomPlus" x="17" y="9" onmousedown="handleZoom(evt,'in')"/>
                <use id="zoomminus" xlink:href="#zoomMin" x="42" y="9" onmousedown="handleZoom(evt,'out')"/>
                <use id="reset" xlink:href="#resetDef" x="30" y="36" onmousedown="handleReset()"/>
                <g id="arrowUp" xlink:href="#dirArrow" transform="translate(30 24)" onmousedown="handlePan(0,-1)">
                  <use xlink:href="#rim" fill="#404040">
                        <set attributeName="fill" to="#808080" begin="arrowUp.mouseover" end="arrowUp.mouseout"/>
                  </use>
                  <path fill="none" stroke="white" stroke-width="1.5" d="M0,-3.0v7 M-2.5,-0.5L0,-3.0L2.5,-0.5"/>
                </g>
                <g id="arrowRight" xlink:href="#dirArrow" transform="rotate(90) translate(36 -43)" onmousedown="handlePan(1,0)">
                  <use xlink:href="#rim" fill="#404040">
                        <set attributeName="fill" to="#808080" begin="arrowRight.mouseover" end="arrowRight.mouseout"/>
                  </use>
                  <path fill="none" stroke="white" stroke-width="1.5" d="M0,-3.0v7 M-2.5,-0.5L0,-3.0L2.5,-0.5"/>
                </g>
                <g id="arrowDown" xlink:href="#dirArrow" transform="rotate(180) translate(-30 -48)" onmousedown="handlePan(0,1)">
                  <use xlink:href="#rim" fill="#404040">
                        <set attributeName="fill" to="#808080" begin="arrowDown.mouseover" end="arrowDown.mouseout"/>
                  </use>
                  <path fill="none" stroke="white" stroke-width="1.5" d="M0,-3.0v7 M-2.5,-0.5L0,-3.0L2.5,-0.5"/>
                </g>
                <g id="arrowLeft" xlink:href="#dirArrow" transform="rotate(270) translate(-36 17)" onmousedown="handlePan(-1,0)">
                  <use xlink:href="#rim" fill="#404040">
                        <set attributeName="fill" to="#808080" begin="arrowLeft.mouseover" end="arrowLeft.mouseout"/>
                  </use>
                  <path fill="none" stroke="white" stroke-width="1.5" d="M0,-3.0v7 M-2.5,-0.5L0,-3.0L2.5,-0.5"/>
                </g>
        </g>
        <svg viewBox="0 0 15 15" width="100%" height="30px" preserveAspectRatio="xMaxYMin meet">
         <g id="arrow_out" transform="scale(0.3 0.3)">
          <a xlink:href="classopenage_1_1cabextract_1_1cab_1_1_c_a_b_folder_stream_aa01e2f0b6657c5c629188cbc3a0e0a57_cgraph_org.svg" target="_base">
           <rect id="button" ry="5" rx="5" y="6" x="6" height="38" width="38"
                fill="#f2f5e9" fill-opacity="0.5" stroke="#606060" stroke-width="1.0"/>
           <path id="arrow"
             d="M 11.500037,31.436501 C 11.940474,20.09759 22.043105,11.32322 32.158766,21.979434 L 37.068811,17.246167 C 37.068811,17.246167 37.088388,32 37.088388,32 L 22.160133,31.978069 C 22.160133,31.978069 26.997745,27.140456 26.997745,27.140456 C 18.528582,18.264221 13.291696,25.230495 11.500037,31.436501 z"
             style="fill:#404040;"/>
          </a>
         </g>
        </svg>
</svg>
