<?xml version="1.0" encoding="UTF-8" standalone="no"?>
<!DOCTYPE svg PUBLIC "-//W3C//DTD SVG 1.1//EN"
 "http://www.w3.org/Graphics/SVG/1.1/DTD/svg11.dtd">
<!-- Generated by graphviz version 2.40.1 (20161225.0304)
 -->
<!-- Title: openage::EngineSignals::global_binds_changed Pages: 1 -->
<svg width="303pt" height="88pt"
 viewBox="0.00 0.00 303.00 88.00" xmlns="http://www.w3.org/2000/svg" xmlns:xlink="http://www.w3.org/1999/xlink">
<g id="graph0" class="graph" transform="scale(1 1) rotate(0) translate(4 84)">
<title>openage::EngineSignals::global_binds_changed</title>
<polygon fill="#ffffff" stroke="transparent" points="-4,4 -4,-84 299,-84 299,4 -4,4"/>
<!-- Node1 -->
<g id="node1" class="node">
<title>Node1</title>
<polygon fill="#bfbfbf" stroke="#000000" points="0,-24.5 0,-54.5 122,-54.5 122,-24.5 0,-24.5"/>
<text text-anchor="start" x="8" y="-42.5" font-family="Helvetica,sans-Serif" font-size="10.00" fill="#000000">openage::EngineSignals</text>
<text text-anchor="middle" x="61" y="-31.5" font-family="Helvetica,sans-Serif" font-size="10.00" fill="#000000">::global_binds_changed</text>
</g>
<!-- Node2 -->
<g id="node2" class="node">
<title>Node2</title>
<g id="a_node2"><a xlink:href="../../d6/d40/classopenage_1_1_engine.xhtml#a0592aec2fe0da923bfc337154341cfa2" target="_top" xlink:title="send keybindings help string to gui. ">
<polygon fill="#ffffff" stroke="#000000" points="158,-49.5 158,-79.5 295,-79.5 295,-49.5 158,-49.5"/>
<text text-anchor="start" x="166" y="-67.5" font-family="Helvetica,sans-Serif" font-size="10.00" fill="#000000">openage::Engine::announce</text>
<text text-anchor="middle" x="226.5" y="-56.5" font-family="Helvetica,sans-Serif" font-size="10.00" fill="#000000">_global_binds</text>
</a>
</g>
</g>
<!-- Node1&#45;&gt;Node2 -->
<g id="edge1" class="edge">
<title>Node1&#45;&gt;Node2</title>
<path fill="none" stroke="#191970" d="M132.0673,-50.2352C140.5955,-51.5235 149.2926,-52.8372 157.7864,-54.1203"/>
<polygon fill="#191970" stroke="#191970" points="132.5665,-46.771 122.1559,-48.738 131.5209,-53.6925 132.5665,-46.771"/>
</g>
<!-- Node3 -->
<g id="node3" class="node">
<title>Node3</title>
<g id="a_node3"><a xlink:href="../../d9/dbc/classopenage_1_1gui_1_1_engine_link.xhtml#a729c9cd9c03e4c663ebb8801c659dcb1" target="_top" xlink:title="openage::gui::EngineLink\l::EngineLink">
<polygon fill="#ffffff" stroke="#000000" points="163.5,-.5 163.5,-30.5 289.5,-30.5 289.5,-.5 163.5,-.5"/>
<text text-anchor="start" x="171.5" y="-18.5" font-family="Helvetica,sans-Serif" font-size="10.00" fill="#000000">openage::gui::EngineLink</text>
<text text-anchor="middle" x="226.5" y="-7.5" font-family="Helvetica,sans-Serif" font-size="10.00" fill="#000000">::EngineLink</text>
</a>
</g>
</g>
<!-- Node1&#45;&gt;Node3 -->
<g id="edge2" class="edge">
<title>Node1&#45;&gt;Node3</title>
<path fill="none" stroke="#191970" d="M132.3675,-29.1506C142.6837,-27.6546 153.2405,-26.1237 163.3801,-24.6533"/>
<polygon fill="#191970" stroke="#191970" points="131.55,-25.7325 122.1559,-30.6315 132.5547,-32.66 131.55,-25.7325"/>
</g>
</g>
</svg>
