<?xml version="1.0" encoding="UTF-8" standalone="no"?>
<!DOCTYPE svg PUBLIC "-//W3C//DTD SVG 1.1//EN"
 "http://www.w3.org/Graphics/SVG/1.1/DTD/svg11.dtd">
<!-- Generated by graphviz version 2.40.1 (20161225.0304)
 -->
<!-- Title: openage::rng::global_seed Pages: 1 -->
<svg width="755pt" height="88pt"
 viewBox="0.00 0.00 755.00 88.00" xmlns="http://www.w3.org/2000/svg" xmlns:xlink="http://www.w3.org/1999/xlink">
<g id="graph0" class="graph" transform="scale(1 1) rotate(0) translate(4 84)">
<title>openage::rng::global_seed</title>
<polygon fill="#ffffff" stroke="transparent" points="-4,4 -4,-84 751,-84 751,4 -4,4"/>
<!-- Node52 -->
<g id="node1" class="node">
<title>Node52</title>
<polygon fill="#bfbfbf" stroke="#000000" points="0,-30 0,-49 131,-49 131,-30 0,-30"/>
<text text-anchor="middle" x="65.5" y="-37" font-family="Helvetica,sans-Serif" font-size="10.00" fill="#000000">openage::rng::global_seed</text>
</g>
<!-- Node53 -->
<g id="node2" class="node">
<title>Node53</title>
<g id="a_node2"><a xlink:href="../../d8/d88/namespaceopenage_1_1rng.xhtml#a510f1a8aa7487e18b60b1844cd2af86a" target="_top" xlink:title="Returns a seed based on time since epoch as well as data from std::random_device if available...">
<polygon fill="#ffffff" stroke="#000000" points="167,-30 167,-49 304,-49 304,-30 167,-30"/>
<text text-anchor="middle" x="235.5" y="-37" font-family="Helvetica,sans-Serif" font-size="10.00" fill="#000000">openage::rng::random_seed</text>
</a>
</g>
</g>
<!-- Node52&#45;&gt;Node53 -->
<g id="edge1" class="edge">
<title>Node52&#45;&gt;Node53</title>
<path fill="none" stroke="#191970" d="M131.2264,-39.5C139.6209,-39.5 148.28,-39.5 156.8525,-39.5"/>
<polygon fill="#191970" stroke="#191970" points="156.8551,-43.0001 166.855,-39.5 156.855,-36.0001 156.8551,-43.0001"/>
</g>
<!-- Node54 -->
<g id="node3" class="node">
<title>Node54</title>
<g id="a_node3"><a xlink:href="../../d8/d88/namespaceopenage_1_1rng.xhtml#a4bdd2cc5c7f7f5d81ff514287f65eef0" target="_top" xlink:title="openage::rng::time_seed">
<polygon fill="#ffffff" stroke="#000000" points="340,-30 340,-49 464,-49 464,-30 340,-30"/>
<text text-anchor="middle" x="402" y="-37" font-family="Helvetica,sans-Serif" font-size="10.00" fill="#000000">openage::rng::time_seed</text>
</a>
</g>
</g>
<!-- Node53&#45;&gt;Node54 -->
<g id="edge2" class="edge">
<title>Node53&#45;&gt;Node54</title>
<path fill="none" stroke="#191970" d="M304.1832,-39.5C312.5896,-39.5 321.2005,-39.5 329.6586,-39.5"/>
<polygon fill="#191970" stroke="#191970" points="329.8758,-43.0001 339.8758,-39.5 329.8757,-36.0001 329.8758,-43.0001"/>
</g>
<!-- Node55 -->
<g id="node4" class="node">
<title>Node55</title>
<g id="a_node4"><a xlink:href="../../dc/dc5/namespaceopenage_1_1timing.xhtml#aea51f4c8e71a8c326e3dd9dcc05c00eb" target="_top" xlink:title="returns the number of nanoseconds since the UNIX epoch. ">
<polygon fill="#ffffff" stroke="#000000" points="511.5,-49.5 511.5,-79.5 616.5,-79.5 616.5,-49.5 511.5,-49.5"/>
<text text-anchor="start" x="519.5" y="-67.5" font-family="Helvetica,sans-Serif" font-size="10.00" fill="#000000">openage::timing::get</text>
<text text-anchor="middle" x="564" y="-56.5" font-family="Helvetica,sans-Serif" font-size="10.00" fill="#000000">_real_time</text>
</a>
</g>
</g>
<!-- Node54&#45;&gt;Node55 -->
<g id="edge3" class="edge">
<title>Node54&#45;&gt;Node55</title>
<path fill="none" stroke="#191970" d="M463.7074,-49.0227C476.0021,-50.9201 488.9265,-52.9146 501.2556,-54.8172"/>
<polygon fill="#191970" stroke="#191970" points="501.0284,-58.3235 511.4452,-56.3897 502.096,-51.4054 501.0284,-58.3235"/>
</g>
<!-- Node56 -->
<g id="node5" class="node">
<title>Node56</title>
<g id="a_node5"><a xlink:href="../../d8/d88/namespaceopenage_1_1rng.xhtml#a924b85bc82578378e68818dab9a247b6" target="_top" xlink:title="openage::rng::try_random\l_device">
<polygon fill="#ffffff" stroke="#000000" points="500,-.5 500,-30.5 628,-30.5 628,-.5 500,-.5"/>
<text text-anchor="start" x="508" y="-18.5" font-family="Helvetica,sans-Serif" font-size="10.00" fill="#000000">openage::rng::try_random</text>
<text text-anchor="middle" x="564" y="-7.5" font-family="Helvetica,sans-Serif" font-size="10.00" fill="#000000">_device</text>
</a>
</g>
</g>
<!-- Node54&#45;&gt;Node56 -->
<g id="edge4" class="edge">
<title>Node54&#45;&gt;Node56</title>
<path fill="none" stroke="#191970" d="M464.1701,-30.2896C472.5715,-29.045 481.259,-27.7579 489.8433,-26.4862"/>
<polygon fill="#191970" stroke="#191970" points="490.4706,-29.9315 499.8497,-25.0037 489.4447,-23.0071 490.4706,-29.9315"/>
</g>
<!-- Node57 -->
<g id="node6" class="node">
<title>Node57</title>
<g id="a_node6"><a xlink:href="../../dd/d1a/namespaceopenage_1_1log.xhtml#ab6b4b10be67af93ab6c4d5a36139736e" target="_top" xlink:title="error message ">
<polygon fill="#ffffff" stroke="#000000" points="664,-6 664,-25 747,-25 747,-6 664,-6"/>
<text text-anchor="middle" x="705.5" y="-13" font-family="Helvetica,sans-Serif" font-size="10.00" fill="#000000">openage.log.err</text>
</a>
</g>
</g>
<!-- Node56&#45;&gt;Node57 -->
<g id="edge5" class="edge">
<title>Node56&#45;&gt;Node57</title>
<path fill="none" stroke="#191970" d="M628.1258,-15.5C636.6607,-15.5 645.3252,-15.5 653.6168,-15.5"/>
<polygon fill="#191970" stroke="#191970" points="653.8823,-19.0001 663.8822,-15.5 653.8822,-12.0001 653.8823,-19.0001"/>
</g>
</g>
</svg>
