<?xml version="1.0" encoding="UTF-8" standalone="no"?>
<!DOCTYPE svg PUBLIC "-//W3C//DTD SVG 1.1//EN"
 "http://www.w3.org/Graphics/SVG/1.1/DTD/svg11.dtd">
<!-- Generated by graphviz version 2.40.1 (20161225.0304)
 -->
<!-- Title: openage::rng::time_seed Pages: 1 -->
<svg width="575pt" height="88pt"
 viewBox="0.00 0.00 575.00 88.00" xmlns="http://www.w3.org/2000/svg" xmlns:xlink="http://www.w3.org/1999/xlink">
<g id="graph0" class="graph" transform="scale(1 1) rotate(0) translate(4 84)">
<title>openage::rng::time_seed</title>
<polygon fill="#ffffff" stroke="transparent" points="-4,4 -4,-84 571,-84 571,4 -4,4"/>
<!-- Node152 -->
<g id="node1" class="node">
<title>Node152</title>
<polygon fill="#bfbfbf" stroke="#000000" points="0,-30 0,-49 124,-49 124,-30 0,-30"/>
<text text-anchor="middle" x="62" y="-37" font-family="Helvetica,sans-Serif" font-size="10.00" fill="#000000">openage::rng::time_seed</text>
</g>
<!-- Node153 -->
<g id="node2" class="node">
<title>Node153</title>
<g id="a_node2"><a xlink:href="../../d8/d88/namespaceopenage_1_1rng.xhtml#a4bdd2cc5c7f7f5d81ff514287f65eef0" target="_top" xlink:title="openage::rng::time_seed">
<polygon fill="#ffffff" stroke="#000000" points="160,-30 160,-49 284,-49 284,-30 160,-30"/>
<text text-anchor="middle" x="222" y="-37" font-family="Helvetica,sans-Serif" font-size="10.00" fill="#000000">openage::rng::time_seed</text>
</a>
</g>
</g>
<!-- Node152&#45;&gt;Node153 -->
<g id="edge1" class="edge">
<title>Node152&#45;&gt;Node153</title>
<path fill="none" stroke="#191970" d="M124.3183,-39.5C132.615,-39.5 141.1788,-39.5 149.628,-39.5"/>
<polygon fill="#191970" stroke="#191970" points="149.8518,-43.0001 159.8518,-39.5 149.8517,-36.0001 149.8518,-43.0001"/>
</g>
<!-- Node154 -->
<g id="node3" class="node">
<title>Node154</title>
<g id="a_node3"><a xlink:href="../../dc/dc5/namespaceopenage_1_1timing.xhtml#aea51f4c8e71a8c326e3dd9dcc05c00eb" target="_top" xlink:title="returns the number of nanoseconds since the UNIX epoch. ">
<polygon fill="#ffffff" stroke="#000000" points="331.5,-49.5 331.5,-79.5 436.5,-79.5 436.5,-49.5 331.5,-49.5"/>
<text text-anchor="start" x="339.5" y="-67.5" font-family="Helvetica,sans-Serif" font-size="10.00" fill="#000000">openage::timing::get</text>
<text text-anchor="middle" x="384" y="-56.5" font-family="Helvetica,sans-Serif" font-size="10.00" fill="#000000">_real_time</text>
</a>
</g>
</g>
<!-- Node153&#45;&gt;Node154 -->
<g id="edge2" class="edge">
<title>Node153&#45;&gt;Node154</title>
<path fill="none" stroke="#191970" d="M283.7074,-49.0227C296.0021,-50.9201 308.9265,-52.9146 321.2556,-54.8172"/>
<polygon fill="#191970" stroke="#191970" points="321.0284,-58.3235 331.4452,-56.3897 322.096,-51.4054 321.0284,-58.3235"/>
</g>
<!-- Node155 -->
<g id="node4" class="node">
<title>Node155</title>
<g id="a_node4"><a xlink:href="../../d8/d88/namespaceopenage_1_1rng.xhtml#a924b85bc82578378e68818dab9a247b6" target="_top" xlink:title="openage::rng::try_random\l_device">
<polygon fill="#ffffff" stroke="#000000" points="320,-.5 320,-30.5 448,-30.5 448,-.5 320,-.5"/>
<text text-anchor="start" x="328" y="-18.5" font-family="Helvetica,sans-Serif" font-size="10.00" fill="#000000">openage::rng::try_random</text>
<text text-anchor="middle" x="384" y="-7.5" font-family="Helvetica,sans-Serif" font-size="10.00" fill="#000000">_device</text>
</a>
</g>
</g>
<!-- Node153&#45;&gt;Node155 -->
<g id="edge3" class="edge">
<title>Node153&#45;&gt;Node155</title>
<path fill="none" stroke="#191970" d="M284.1701,-30.2896C292.5715,-29.045 301.259,-27.7579 309.8433,-26.4862"/>
<polygon fill="#191970" stroke="#191970" points="310.4706,-29.9315 319.8497,-25.0037 309.4447,-23.0071 310.4706,-29.9315"/>
</g>
<!-- Node156 -->
<g id="node5" class="node">
<title>Node156</title>
<g id="a_node5"><a xlink:href="../../dd/d1a/namespaceopenage_1_1log.xhtml#ab6b4b10be67af93ab6c4d5a36139736e" target="_top" xlink:title="error message ">
<polygon fill="#ffffff" stroke="#000000" points="484,-6 484,-25 567,-25 567,-6 484,-6"/>
<text text-anchor="middle" x="525.5" y="-13" font-family="Helvetica,sans-Serif" font-size="10.00" fill="#000000">openage.log.err</text>
</a>
</g>
</g>
<!-- Node155&#45;&gt;Node156 -->
<g id="edge4" class="edge">
<title>Node155&#45;&gt;Node156</title>
<path fill="none" stroke="#191970" d="M448.1258,-15.5C456.6607,-15.5 465.3252,-15.5 473.6168,-15.5"/>
<polygon fill="#191970" stroke="#191970" points="473.8823,-19.0001 483.8822,-15.5 473.8822,-12.0001 473.8823,-19.0001"/>
</g>
</g>
</svg>
