<?xml version="1.0" encoding="UTF-8" standalone="no"?>
<!DOCTYPE svg PUBLIC "-//W3C//DTD SVG 1.1//EN"
 "http://www.w3.org/Graphics/SVG/1.1/DTD/svg11.dtd">
<!-- Generated by graphviz version 2.40.1 (20161225.0304)
 -->
<!-- Title: openage::util::constexpr_::strip_prefix Pages: 1 -->
<svg width="598pt" height="78pt"
 viewBox="0.00 0.00 598.00 77.50" xmlns="http://www.w3.org/2000/svg" xmlns:xlink="http://www.w3.org/1999/xlink">
<g id="graph0" class="graph" transform="scale(1 1) rotate(0) translate(4 73.5)">
<title>openage::util::constexpr_::strip_prefix</title>
<polygon fill="#ffffff" stroke="transparent" points="-4,4 -4,-73.5 594,-73.5 594,4 -4,4"/>
<!-- Node21 -->
<g id="node1" class="node">
<title>Node21</title>
<polygon fill="#bfbfbf" stroke="#000000" points="0,-17 0,-47 121,-47 121,-17 0,-17"/>
<text text-anchor="start" x="8" y="-35" font-family="Helvetica,sans-Serif" font-size="10.00" fill="#000000">openage::util::constexpr</text>
<text text-anchor="middle" x="60.5" y="-24" font-family="Helvetica,sans-Serif" font-size="10.00" fill="#000000">_::strip_prefix</text>
</g>
<!-- Node22 -->
<g id="node2" class="node">
<title>Node22</title>
<g id="a_node2"><a xlink:href="../../d8/d88/namespaceopenage_1_1util_1_1constexpr__.xhtml#aa4f041b85b8ae3df628165f73397d1fa" target="_top" xlink:title="Tests whether a string literal starts with the given prefix. ">
<polygon fill="#ffffff" stroke="#000000" points="157,-39 157,-69 278,-69 278,-39 157,-39"/>
<text text-anchor="start" x="165" y="-57" font-family="Helvetica,sans-Serif" font-size="10.00" fill="#000000">openage::util::constexpr</text>
<text text-anchor="middle" x="217.5" y="-46" font-family="Helvetica,sans-Serif" font-size="10.00" fill="#000000">_::has_prefix</text>
</a>
</g>
</g>
<!-- Node21&#45;&gt;Node22 -->
<g id="edge1" class="edge">
<title>Node21&#45;&gt;Node22</title>
<path fill="none" stroke="#191970" d="M121.2003,-40.5058C129.635,-41.6877 138.3591,-42.9102 146.9547,-44.1147"/>
<polygon fill="#191970" stroke="#191970" points="146.5722,-47.5952 156.9611,-45.5168 147.5436,-40.6629 146.5722,-47.5952"/>
</g>
<!-- Node23 -->
<g id="node3" class="node">
<title>Node23</title>
<g id="a_node3"><a xlink:href="../../d4/dd4/namespaceopenage_1_1py.xhtml#a4d2bbe46a5d10404c658b54f3b199551" target="_top" xlink:title="str(value); ">
<polygon fill="#ffffff" stroke="#000000" points="174,-.5 174,-19.5 261,-19.5 261,-.5 174,-.5"/>
<text text-anchor="middle" x="217.5" y="-7.5" font-family="Helvetica,sans-Serif" font-size="10.00" fill="#000000">openage::py::str</text>
</a>
</g>
</g>
<!-- Node21&#45;&gt;Node23 -->
<g id="edge2" class="edge">
<title>Node21&#45;&gt;Node23</title>
<path fill="none" stroke="#191970" d="M121.2003,-23.4942C135.2276,-21.5286 150.0553,-19.4508 163.7611,-17.5303"/>
<polygon fill="#191970" stroke="#191970" points="164.574,-20.9507 173.9915,-16.0967 163.6025,-14.0184 164.574,-20.9507"/>
</g>
<!-- Node24 -->
<g id="node4" class="node">
<title>Node24</title>
<g id="a_node4"><a xlink:href="../../d5/d0e/namespaceopenage_1_1testing_1_1testing.xhtml#ac25bf81db406af62d08113ef7ae9fd6e" target="_top" xlink:title="openage.testing.testing.result">
<polygon fill="#ffffff" stroke="#000000" points="314,-.5 314,-19.5 459,-19.5 459,-.5 314,-.5"/>
<text text-anchor="middle" x="386.5" y="-7.5" font-family="Helvetica,sans-Serif" font-size="10.00" fill="#000000">openage.testing.testing.result</text>
</a>
</g>
</g>
<!-- Node23&#45;&gt;Node24 -->
<g id="edge3" class="edge">
<title>Node23&#45;&gt;Node24</title>
<path fill="none" stroke="#191970" d="M261.0217,-10C274.133,-10 288.981,-10 303.7573,-10"/>
<polygon fill="#191970" stroke="#191970" points="303.9535,-13.5001 313.9534,-10 303.9534,-6.5001 303.9535,-13.5001"/>
</g>
<!-- Node25 -->
<g id="node5" class="node">
<title>Node25</title>
<g id="a_node5"><a xlink:href="../../de/d60/namespaceopenage_1_1util.xhtml#a7bc4421a5f0f57f3a0aba3f96eb8d19c" target="_top" xlink:title="method that behaves similar to python&#39;s &quot;repr&quot;. ">
<polygon fill="#ffffff" stroke="#000000" points="495,-.5 495,-19.5 590,-19.5 590,-.5 495,-.5"/>
<text text-anchor="middle" x="542.5" y="-7.5" font-family="Helvetica,sans-Serif" font-size="10.00" fill="#000000">openage::util::repr</text>
</a>
</g>
</g>
<!-- Node24&#45;&gt;Node25 -->
<g id="edge4" class="edge">
<title>Node24&#45;&gt;Node25</title>
<path fill="none" stroke="#191970" d="M459.0196,-3.2648C467.6179,-3.2182 476.3054,-3.2815 484.6614,-3.4545"/>
<polygon fill="#191970" stroke="#191970" points="484.5718,-6.9533 494.6613,-3.7201 484.7578,.0442 484.5718,-6.9533"/>
</g>
<!-- Node25&#45;&gt;Node24 -->
<g id="edge5" class="edge">
<title>Node25&#45;&gt;Node24</title>
<path fill="none" stroke="#191970" d="M494.6613,-16.2799C486.5562,-16.5451 477.9375,-16.6982 469.24,-16.7389"/>
<polygon fill="#191970" stroke="#191970" points="469.021,-13.2389 459.0196,-16.7352 469.0183,-20.2389 469.021,-13.2389"/>
</g>
</g>
</svg>
