<?xml version="1.0" encoding="UTF-8" standalone="no"?>
<!DOCTYPE svg PUBLIC "-//W3C//DTD SVG 1.1//EN"
 "http://www.w3.org/Graphics/SVG/1.1/DTD/svg11.dtd">
<!-- Generated by graphviz version 2.40.1 (20161225.0304)
 -->
<!-- Title: openage::rng::try_random_device Pages: 1 -->
<!--zoomable 422 -->
<svg id="main" version="1.1" xmlns="http://www.w3.org/2000/svg" xmlns:xlink="http://www.w3.org/1999/xlink" xml:space="preserve" onload="init(evt)">
<style type="text/css"><![CDATA[
.edge:hover path { stroke: red; }
.edge:hover polygon { stroke: red; fill: red; }
]]></style>
<script type="text/javascript"><![CDATA[
var edges = document.getElementsByTagName('g');
if (edges && edges.length) {
  for (var i=0;i<edges.length;i++) {
    if (edges[i].id.substr(0,4)=='edge') {
      edges[i].setAttribute('class','edge');
    }
  }
}
]]></script>
        <defs>
                <circle id="rim" cx="0" cy="0" r="7"/>
                <circle id="rim2" cx="0" cy="0" r="3.5"/>
                <g id="zoomPlus">
                        <use xlink:href="#rim" fill="#404040">
                                <set attributeName="fill" to="#808080" begin="zoomplus.mouseover" end="zoomplus.mouseout"/>
                        </use>
                        <path d="M-4,0h8M0,-4v8" fill="none" stroke="white" stroke-width="1.5" pointer-events="none"/>
                </g>
                <g id="zoomMin">
                        <use xlink:href="#rim" fill="#404040">
                                <set attributeName="fill" to="#808080" begin="zoomminus.mouseover" end="zoomminus.mouseout"/>
                        </use>
                        <path d="M-4,0h8" fill="none" stroke="white" stroke-width="1.5" pointer-events="none"/>
                </g>
                <g id="dirArrow">
                        <path fill="none" stroke="white" stroke-width="1.5" d="M0,-3.0v7 M-2.5,-0.5L0,-3.0L2.5,-0.5"/>
                </g>
               <g id="resetDef">
                       <use xlink:href="#rim2" fill="#404040">
                               <set attributeName="fill" to="#808080" begin="reset.mouseover" end="reset.mouseout"/>
                       </use>
               </g>
        </defs>

<script type="text/javascript">
var viewWidth = 900;
var viewHeight = 422;
var sectionId = 'dynsection-18';
</script>
<script xlink:href="../../svgpan.js"/>
<svg id="graph" class="graph">
<g id="viewport">
<title>openage::rng::try_random_device</title>
<polygon fill="#ffffff" stroke="transparent" points="-4,4 -4,-417.5891 896,-417.5891 896,4 -4,4"/>
<!-- Node160 -->
<g id="node1" class="node">
<title>Node160</title>
<polygon fill="#bfbfbf" stroke="#000000" points="0,-110 0,-140 128,-140 128,-110 0,-110"/>
<text text-anchor="start" x="8" y="-128" font-family="Helvetica,sans-Serif" font-size="10.00" fill="#000000">openage::rng::try_random</text>
<text text-anchor="middle" x="64" y="-117" font-family="Helvetica,sans-Serif" font-size="10.00" fill="#000000">_device</text>
</g>
<!-- Node161 -->
<g id="node2" class="node">
<title>Node161</title>
<g id="a_node2"><a xlink:href="../../d8/d88/namespaceopenage_1_1rng.xhtml#a4bdd2cc5c7f7f5d81ff514287f65eef0" target="_top" xlink:title="openage::rng::time_seed">
<polygon fill="#ffffff" stroke="#000000" points="164,-115.5 164,-134.5 288,-134.5 288,-115.5 164,-115.5"/>
<text text-anchor="middle" x="226" y="-122.5" font-family="Helvetica,sans-Serif" font-size="10.00" fill="#000000">openage::rng::time_seed</text>
</a>
</g>
</g>
<!-- Node160&#45;&gt;Node161 -->
<g id="edge1" class="edge">
<title>Node160&#45;&gt;Node161</title>
<path fill="none" stroke="#191970" d="M138.0466,-125C146.6433,-125 155.3452,-125 163.7611,-125"/>
<polygon fill="#191970" stroke="#191970" points="138.0267,-121.5001 128.0267,-125 138.0267,-128.5001 138.0267,-121.5001"/>
</g>
<!-- Node162 -->
<g id="node3" class="node">
<title>Node162</title>
<g id="a_node3"><a xlink:href="../../d8/d8d/namespaceopenage_1_1rng_1_1tests.xhtml#a3b24c3f995bfb45b9d833030720bd88f" target="_top" xlink:title="Tests filling doubles. ">
<polygon fill="#ffffff" stroke="#000000" points="512,-121 512,-151 613,-151 613,-121 512,-121"/>
<text text-anchor="start" x="520" y="-139" font-family="Helvetica,sans-Serif" font-size="10.00" fill="#000000">openage::rng::tests</text>
<text text-anchor="middle" x="562.5" y="-128" font-family="Helvetica,sans-Serif" font-size="10.00" fill="#000000">::fill_real</text>
</a>
</g>
</g>
<!-- Node161&#45;&gt;Node162 -->
<g id="edge2" class="edge">
<title>Node161&#45;&gt;Node162</title>
<path fill="none" stroke="#191970" d="M298.1801,-127.3595C362.4831,-129.4616 454.9433,-132.484 511.739,-134.3406"/>
<polygon fill="#191970" stroke="#191970" points="298.2205,-123.8591 288.1114,-127.0304 297.9917,-130.8553 298.2205,-123.8591"/>
</g>
<!-- Node164 -->
<g id="node5" class="node">
<title>Node164</title>
<g id="a_node5"><a xlink:href="../../d8/d8d/namespaceopenage_1_1rng_1_1tests.xhtml#acad40865d58b96a35f6f453e04642f00" target="_top" xlink:title="Tests the distribution of the bit generator. ">
<polygon fill="#ffffff" stroke="#000000" points="342,-353 342,-383 443,-383 443,-353 342,-353"/>
<text text-anchor="start" x="350" y="-371" font-family="Helvetica,sans-Serif" font-size="10.00" fill="#000000">openage::rng::tests</text>
<text text-anchor="middle" x="392.5" y="-360" font-family="Helvetica,sans-Serif" font-size="10.00" fill="#000000">::freq_dist</text>
</a>
</g>
</g>
<!-- Node161&#45;&gt;Node164 -->
<g id="edge4" class="edge">
<title>Node161&#45;&gt;Node164</title>
<path fill="none" stroke="#191970" d="M237.3605,-143.0965C255.2982,-171.5059 291.4897,-228.1643 324,-275 343.3245,-302.8397 366.9874,-334.4523 380.8388,-352.7236"/>
<polygon fill="#191970" stroke="#191970" points="240.2999,-141.196 232.0087,-134.6 234.3769,-144.9268 240.2999,-141.196"/>
</g>
<!-- Node165 -->
<g id="node6" class="node">
<title>Node165</title>
<g id="a_node6"><a xlink:href="../../d8/d88/namespaceopenage_1_1rng.xhtml#a510f1a8aa7487e18b60b1844cd2af86a" target="_top" xlink:title="Returns a seed based on time since epoch as well as data from std::random_device if available...">
<polygon fill="#ffffff" stroke="#000000" points="324,-246.5 324,-265.5 461,-265.5 461,-246.5 324,-246.5"/>
<text text-anchor="middle" x="392.5" y="-253.5" font-family="Helvetica,sans-Serif" font-size="10.00" fill="#000000">openage::rng::random_seed</text>
</a>
</g>
</g>
<!-- Node161&#45;&gt;Node165 -->
<g id="edge6" class="edge">
<title>Node161&#45;&gt;Node165</title>
<path fill="none" stroke="#191970" d="M246.3207,-140.9881C281.2931,-168.5039 351.8358,-224.0059 380.2389,-246.3531"/>
<polygon fill="#191970" stroke="#191970" points="248.2665,-138.0655 238.2431,-134.6327 243.938,-143.5669 248.2665,-138.0655"/>
</g>
<!-- Node172 -->
<g id="node13" class="node">
<title>Node172</title>
<g id="a_node13"><a xlink:href="../../d8/d8d/namespaceopenage_1_1rng_1_1tests.xhtml#a1270464ae98991431da5e3fa6ee60ab5" target="_top" xlink:title="Tests the distribution of the floating point numbers. ">
<polygon fill="#ffffff" stroke="#000000" points="342,-88 342,-118 443,-118 443,-88 342,-88"/>
<text text-anchor="start" x="350" y="-106" font-family="Helvetica,sans-Serif" font-size="10.00" fill="#000000">openage::rng::tests</text>
<text text-anchor="middle" x="392.5" y="-95" font-family="Helvetica,sans-Serif" font-size="10.00" fill="#000000">::real_dist</text>
</a>
</g>
</g>
<!-- Node161&#45;&gt;Node172 -->
<g id="edge15" class="edge">
<title>Node161&#45;&gt;Node172</title>
<path fill="none" stroke="#191970" d="M298.5033,-115.42C313.1294,-113.4874 328.2055,-111.4954 341.8849,-109.6879"/>
<polygon fill="#191970" stroke="#191970" points="297.9275,-111.9656 288.4722,-116.7454 298.8445,-118.9052 297.9275,-111.9656"/>
</g>
<!-- Node173 -->
<g id="node14" class="node">
<title>Node173</title>
<g id="a_node14"><a xlink:href="../../d8/d8d/namespaceopenage_1_1rng_1_1tests.xhtml#aa77427d76c14080c4993edd5b79a293e" target="_top" xlink:title="Tests reproducibility. ">
<polygon fill="#ffffff" stroke="#000000" points="342,-39 342,-69 443,-69 443,-39 342,-39"/>
<text text-anchor="start" x="350" y="-57" font-family="Helvetica,sans-Serif" font-size="10.00" fill="#000000">openage::rng::tests</text>
<text text-anchor="middle" x="392.5" y="-46" font-family="Helvetica,sans-Serif" font-size="10.00" fill="#000000">::reproduce</text>
</a>
</g>
</g>
<!-- Node161&#45;&gt;Node173 -->
<g id="edge17" class="edge">
<title>Node161&#45;&gt;Node173</title>
<path fill="none" stroke="#191970" d="M254.4836,-110.8097C273.881,-101.3498 300.2494,-88.8852 324,-79 332.1814,-75.5948 341.0102,-72.1827 349.5207,-69.0219"/>
<polygon fill="#191970" stroke="#191970" points="252.7296,-107.7717 245.2952,-115.3202 255.8143,-114.0554 252.7296,-107.7717"/>
</g>
<!-- Node174 -->
<g id="node15" class="node">
<title>Node174</title>
<g id="a_node15"><a xlink:href="../../d8/d88/namespaceopenage_1_1rng.xhtml#adde6a014119705e9ea92a28bae96f385" target="_top" xlink:title="Returns a seed based on time since epoch. ">
<polygon fill="#ffffff" stroke="#000000" points="330.5,-.5 330.5,-19.5 454.5,-19.5 454.5,-.5 330.5,-.5"/>
<text text-anchor="middle" x="392.5" y="-7.5" font-family="Helvetica,sans-Serif" font-size="10.00" fill="#000000">openage::rng::time_seed</text>
</a>
</g>
</g>
<!-- Node161&#45;&gt;Node174 -->
<g id="edge19" class="edge">
<title>Node161&#45;&gt;Node174</title>
<path fill="none" stroke="#191970" d="M239.1859,-107.4823C256.3702,-85.8719 288.4525,-49.4869 324,-29 330.6295,-25.1793 338.0656,-22.0948 345.5289,-19.614"/>
<polygon fill="#191970" stroke="#191970" points="236.3334,-105.449 232.9613,-115.4929 241.8608,-109.744 236.3334,-105.449"/>
</g>
<!-- Node163 -->
<g id="node4" class="node">
<title>Node163</title>
<g id="a_node4"><a xlink:href="../../d8/d8d/namespaceopenage_1_1rng_1_1tests.xhtml#ae22d2c6364226e0169f0eed1c9701592" target="_top" xlink:title="openage::rng::tests::run">
<polygon fill="#ffffff" stroke="#000000" points="718,-151.5 718,-170.5 838,-170.5 838,-151.5 718,-151.5"/>
<text text-anchor="middle" x="778" y="-158.5" font-family="Helvetica,sans-Serif" font-size="10.00" fill="#000000">openage::rng::tests::run</text>
</a>
</g>
</g>
<!-- Node162&#45;&gt;Node163 -->
<g id="edge3" class="edge">
<title>Node162&#45;&gt;Node163</title>
<path fill="none" stroke="#191970" d="M623.2289,-143.0451C652.8257,-146.4786 688.3107,-150.5952 717.8325,-154.02"/>
<polygon fill="#191970" stroke="#191970" points="623.3619,-139.5372 613.0252,-141.8614 622.5552,-146.4905 623.3619,-139.5372"/>
</g>
<!-- Node164&#45;&gt;Node163 -->
<g id="edge5" class="edge">
<title>Node164&#45;&gt;Node163</title>
<path fill="none" stroke="#191970" d="M433.6169,-386.9779C483.0717,-406.7795 567.0346,-430.518 628,-396 655.0618,-380.6779 647.51,-362.3665 664,-336 703.7996,-272.3631 753.7717,-197.2198 771.4435,-170.7855"/>
<polygon fill="#191970" stroke="#191970" points="434.7818,-383.6723 424.2031,-383.0885 432.1088,-390.1418 434.7818,-383.6723"/>
</g>
<!-- Node166 -->
<g id="node7" class="node">
<title>Node166</title>
<g id="a_node7"><a xlink:href="../../d8/d06/classopenage_1_1_action_mode.xhtml#ab7a28a2d45f303bcf0160ff65d0e1c52" target="_top" xlink:title="openage::ActionMode\l::ActionMode">
<polygon fill="#ffffff" stroke="#000000" points="507,-307 507,-337 618,-337 618,-307 507,-307"/>
<text text-anchor="start" x="515" y="-325" font-family="Helvetica,sans-Serif" font-size="10.00" fill="#000000">openage::ActionMode</text>
<text text-anchor="middle" x="562.5" y="-314" font-family="Helvetica,sans-Serif" font-size="10.00" fill="#000000">::ActionMode</text>
</a>
</g>
</g>
<!-- Node165&#45;&gt;Node166 -->
<g id="edge7" class="edge">
<title>Node165&#45;&gt;Node166</title>
<path fill="none" stroke="#191970" d="M426.0598,-269.2582C446.538,-277.3258 473.2587,-287.8121 497,-297 505.3999,-300.2508 514.4167,-303.7112 522.9917,-306.9883"/>
<polygon fill="#191970" stroke="#191970" points="427.1355,-265.9202 416.5487,-265.5084 424.568,-272.4324 427.1355,-265.9202"/>
</g>
<!-- Node167 -->
<g id="node8" class="node">
<title>Node167</title>
<g id="a_node8"><a xlink:href="../../d8/d8d/namespaceopenage_1_1rng_1_1tests.xhtml#ab46fd4b091c16460f3ed825fe2ec269b" target="_top" xlink:title="Tests the distribution of the boolean generation. ">
<polygon fill="#ffffff" stroke="#000000" points="512,-170 512,-200 613,-200 613,-170 512,-170"/>
<text text-anchor="start" x="520" y="-188" font-family="Helvetica,sans-Serif" font-size="10.00" fill="#000000">openage::rng::tests</text>
<text text-anchor="middle" x="562.5" y="-177" font-family="Helvetica,sans-Serif" font-size="10.00" fill="#000000">::bool_dist</text>
</a>
</g>
</g>
<!-- Node165&#45;&gt;Node167 -->
<g id="edge8" class="edge">
<title>Node165&#45;&gt;Node167</title>
<path fill="none" stroke="#191970" d="M422.845,-242.1623C443.6097,-232.8119 471.831,-220.3353 497,-210 505.1067,-206.6711 513.8346,-203.2372 522.1929,-200.0206"/>
<polygon fill="#191970" stroke="#191970" points="421.2534,-239.0407 413.5823,-246.3486 424.1363,-245.4195 421.2534,-239.0407"/>
</g>
<!-- Node168 -->
<g id="node9" class="node">
<title>Node168</title>
<g id="a_node9"><a xlink:href="../../d8/d8d/namespaceopenage_1_1rng_1_1tests.xhtml#a7c865b312f955cab3ff9ea078fd0cc95" target="_top" xlink:title="Tests filling integers. ">
<polygon fill="#ffffff" stroke="#000000" points="512,-356 512,-386 613,-386 613,-356 512,-356"/>
<text text-anchor="start" x="520" y="-374" font-family="Helvetica,sans-Serif" font-size="10.00" fill="#000000">openage::rng::tests</text>
<text text-anchor="middle" x="562.5" y="-363" font-family="Helvetica,sans-Serif" font-size="10.00" fill="#000000">::fill</text>
</a>
</g>
</g>
<!-- Node165&#45;&gt;Node168 -->
<g id="edge10" class="edge">
<title>Node165&#45;&gt;Node168</title>
<path fill="none" stroke="#191970" d="M408.1627,-272.995C427.414,-293.0345 461.8702,-326.2354 497,-347 502.6299,-350.3277 508.7991,-353.3195 515.0296,-355.9689"/>
<polygon fill="#191970" stroke="#191970" points="410.5207,-270.3944 401.1093,-265.5285 405.4321,-275.2014 410.5207,-270.3944"/>
</g>
<!-- Node170 -->
<g id="node11" class="node">
<title>Node170</title>
<g id="a_node11"><a xlink:href="../../d8/d88/namespaceopenage_1_1rng.xhtml#a595e7ab593687bbb092d69186c65c45a" target="_top" xlink:title="Returns the value of the global seed. ">
<polygon fill="#ffffff" stroke="#000000" points="497,-268.5 497,-287.5 628,-287.5 628,-268.5 497,-268.5"/>
<text text-anchor="middle" x="562.5" y="-275.5" font-family="Helvetica,sans-Serif" font-size="10.00" fill="#000000">openage::rng::global_seed</text>
</a>
</g>
</g>
<!-- Node165&#45;&gt;Node170 -->
<g id="edge13" class="edge">
<title>Node165&#45;&gt;Node170</title>
<path fill="none" stroke="#191970" d="M471.1901,-266.1834C479.7901,-267.2964 488.4767,-268.4205 496.8952,-269.51"/>
<polygon fill="#191970" stroke="#191970" points="471.522,-262.6973 461.1555,-264.8848 470.6236,-269.6394 471.522,-262.6973"/>
</g>
<!-- Node171 -->
<g id="node12" class="node">
<title>Node171</title>
<g id="a_node12"><a xlink:href="../../d8/d8d/namespaceopenage_1_1rng_1_1tests.xhtml#a265e3eddfd2efda00d3f1d1d9291469d" target="_top" xlink:title="Tests the serializing functionality. ">
<polygon fill="#ffffff" stroke="#000000" points="512,-219 512,-249 613,-249 613,-219 512,-219"/>
<text text-anchor="start" x="520" y="-237" font-family="Helvetica,sans-Serif" font-size="10.00" fill="#000000">openage::rng::tests</text>
<text text-anchor="middle" x="562.5" y="-226" font-family="Helvetica,sans-Serif" font-size="10.00" fill="#000000">::serialize</text>
</a>
</g>
</g>
<!-- Node165&#45;&gt;Node171 -->
<g id="edge14" class="edge">
<title>Node165&#45;&gt;Node171</title>
<path fill="none" stroke="#191970" d="M471.1726,-245.8188C485.013,-244.0277 499.0784,-242.2075 511.89,-240.5495"/>
<polygon fill="#191970" stroke="#191970" points="470.6236,-242.3606 461.1555,-247.1152 471.522,-249.3027 470.6236,-242.3606"/>
</g>
<!-- Node167&#45;&gt;Node163 -->
<g id="edge9" class="edge">
<title>Node167&#45;&gt;Node163</title>
<path fill="none" stroke="#191970" d="M623.2289,-178.2367C652.8257,-174.9405 688.3107,-170.9886 717.8325,-167.7008"/>
<polygon fill="#191970" stroke="#191970" points="622.5763,-174.7876 613.0252,-179.3731 623.3512,-181.7446 622.5763,-174.7876"/>
</g>
<!-- Node168&#45;&gt;Node163 -->
<g id="edge11" class="edge">
<title>Node168&#45;&gt;Node163</title>
<path fill="none" stroke="#191970" d="M621.5236,-351.2025C623.7636,-349.8809 625.9326,-348.4812 628,-347 699.8288,-295.5387 755.9714,-200.9489 772.8052,-170.6245"/>
<polygon fill="#191970" stroke="#191970" points="619.8026,-348.1532 612.5965,-355.9199 623.0732,-354.3422 619.8026,-348.1532"/>
</g>
<!-- Node169 -->
<g id="node10" class="node">
<title>Node169</title>
<g id="a_node10"><a xlink:href="../../d2/def/classopenage_1_1util_1_1compress_1_1_huffman_table.xhtml#af44253d3e7adef12c7a4c4371b97a2fd" target="_top" xlink:title="This function was originally coded by David Tritscher. ">
<polygon fill="#ffffff" stroke="#000000" points="664,-345 664,-397 892,-397 892,-345 664,-345"/>
<text text-anchor="start" x="672" y="-385" font-family="Helvetica,sans-Serif" font-size="10.00" fill="#000000">openage::util::compress</text>
<text text-anchor="start" x="672" y="-374" font-family="Helvetica,sans-Serif" font-size="10.00" fill="#000000">::HuffmanTable&lt; LZX_PRETREE</text>
<text text-anchor="start" x="672" y="-363" font-family="Helvetica,sans-Serif" font-size="10.00" fill="#000000">_MAXSYMBOLS, LZX_PRETREE_TABLEBITS</text>
<text text-anchor="middle" x="778" y="-352" font-family="Helvetica,sans-Serif" font-size="10.00" fill="#000000"> &gt;::try_make_decode_table</text>
</a>
</g>
</g>
<!-- Node168&#45;&gt;Node169 -->
<g id="edge12" class="edge">
<title>Node168&#45;&gt;Node169</title>
<path fill="none" stroke="#191970" d="M623.0628,-371C635.8997,-371 649.85,-371 663.9447,-371"/>
<polygon fill="#191970" stroke="#191970" points="623.0252,-367.5001 613.0252,-371 623.0251,-374.5001 623.0252,-367.5001"/>
</g>
<!-- Node172&#45;&gt;Node163 -->
<g id="edge16" class="edge">
<title>Node172&#45;&gt;Node163</title>
<path fill="none" stroke="#191970" d="M453.2001,-100.7293C501.0536,-100.0392 569.2765,-101.4979 628,-112 674.385,-120.2955 726.1526,-139.5633 755.1309,-151.3146"/>
<polygon fill="#191970" stroke="#191970" points="452.9423,-97.2333 443.0071,-100.9132 453.0687,-104.2321 452.9423,-97.2333"/>
</g>
<!-- Node173&#45;&gt;Node163 -->
<g id="edge18" class="edge">
<title>Node173&#45;&gt;Node163</title>
<path fill="none" stroke="#191970" d="M453.313,-60.8949C501.4098,-67.2877 569.9016,-78.4918 628,-96 677.1858,-110.8223 731.8038,-137.178 759.5849,-151.3486"/>
<polygon fill="#191970" stroke="#191970" points="453.7379,-57.4207 443.3703,-59.6032 452.836,-64.3624 453.7379,-57.4207"/>
</g>
</g>
</svg>
        <g id="navigator" transform="translate(0 0)" fill="#404254">
                <rect fill="#f2f5e9" fill-opacity="0.5" stroke="#606060" stroke-width=".5" x="0" y="0" width="60" height="60"/>
                <use id="zoomplus" xlink:href="#zoomPlus" x="17" y="9" onmousedown="handleZoom(evt,'in')"/>
                <use id="zoomminus" xlink:href="#zoomMin" x="42" y="9" onmousedown="handleZoom(evt,'out')"/>
                <use id="reset" xlink:href="#resetDef" x="30" y="36" onmousedown="handleReset()"/>
                <g id="arrowUp" xlink:href="#dirArrow" transform="translate(30 24)" onmousedown="handlePan(0,-1)">
                  <use xlink:href="#rim" fill="#404040">
                        <set attributeName="fill" to="#808080" begin="arrowUp.mouseover" end="arrowUp.mouseout"/>
                  </use>
                  <path fill="none" stroke="white" stroke-width="1.5" d="M0,-3.0v7 M-2.5,-0.5L0,-3.0L2.5,-0.5"/>
                </g>
                <g id="arrowRight" xlink:href="#dirArrow" transform="rotate(90) translate(36 -43)" onmousedown="handlePan(1,0)">
                  <use xlink:href="#rim" fill="#404040">
                        <set attributeName="fill" to="#808080" begin="arrowRight.mouseover" end="arrowRight.mouseout"/>
                  </use>
                  <path fill="none" stroke="white" stroke-width="1.5" d="M0,-3.0v7 M-2.5,-0.5L0,-3.0L2.5,-0.5"/>
                </g>
                <g id="arrowDown" xlink:href="#dirArrow" transform="rotate(180) translate(-30 -48)" onmousedown="handlePan(0,1)">
                  <use xlink:href="#rim" fill="#404040">
                        <set attributeName="fill" to="#808080" begin="arrowDown.mouseover" end="arrowDown.mouseout"/>
                  </use>
                  <path fill="none" stroke="white" stroke-width="1.5" d="M0,-3.0v7 M-2.5,-0.5L0,-3.0L2.5,-0.5"/>
                </g>
                <g id="arrowLeft" xlink:href="#dirArrow" transform="rotate(270) translate(-36 17)" onmousedown="handlePan(-1,0)">
                  <use xlink:href="#rim" fill="#404040">
                        <set attributeName="fill" to="#808080" begin="arrowLeft.mouseover" end="arrowLeft.mouseout"/>
                  </use>
                  <path fill="none" stroke="white" stroke-width="1.5" d="M0,-3.0v7 M-2.5,-0.5L0,-3.0L2.5,-0.5"/>
                </g>
        </g>
        <svg viewBox="0 0 15 15" width="100%" height="30px" preserveAspectRatio="xMaxYMin meet">
         <g id="arrow_out" transform="scale(0.3 0.3)">
          <a xlink:href="namespaceopenage_1_1rng_a924b85bc82578378e68818dab9a247b6_icgraph_org.svg" target="_base">
           <rect id="button" ry="5" rx="5" y="6" x="6" height="38" width="38"
                fill="#f2f5e9" fill-opacity="0.5" stroke="#606060" stroke-width="1.0"/>
           <path id="arrow"
             d="M 11.500037,31.436501 C 11.940474,20.09759 22.043105,11.32322 32.158766,21.979434 L 37.068811,17.246167 C 37.068811,17.246167 37.088388,32 37.088388,32 L 22.160133,31.978069 C 22.160133,31.978069 26.997745,27.140456 26.997745,27.140456 C 18.528582,18.264221 13.291696,25.230495 11.500037,31.436501 z"
             style="fill:#404040;"/>
          </a>
         </g>
        </svg>
</svg>
