<?xml version="1.0" encoding="UTF-8" standalone="no"?>
<!DOCTYPE svg PUBLIC "-//W3C//DTD SVG 1.1//EN"
 "http://www.w3.org/Graphics/SVG/1.1/DTD/svg11.dtd">
<!-- Generated by graphviz version 2.40.1 (20161225.0304)
 -->
<!-- Title: openage::error::demo Pages: 1 -->
<svg width="622pt" height="132pt"
 viewBox="0.00 0.00 622.00 132.00" xmlns="http://www.w3.org/2000/svg" xmlns:xlink="http://www.w3.org/1999/xlink">
<g id="graph0" class="graph" transform="scale(1 1) rotate(0) translate(4 128)">
<title>openage::error::demo</title>
<polygon fill="#ffffff" stroke="transparent" points="-4,4 -4,-128 618,-128 618,4 -4,4"/>
<!-- Node4 -->
<g id="node1" class="node">
<title>Node4</title>
<polygon fill="#bfbfbf" stroke="#000000" points="0,-66.5 0,-85.5 109,-85.5 109,-66.5 0,-66.5"/>
<text text-anchor="middle" x="54.5" y="-73.5" font-family="Helvetica,sans-Serif" font-size="10.00" fill="#000000">openage::error::demo</text>
</g>
<!-- Node5 -->
<g id="node2" class="node">
<title>Node5</title>
<g id="a_node2"><a xlink:href="../../dd/d1a/namespaceopenage_1_1log.xhtml#a403182e8d0c54bd49bea6934c3cb1e28" target="_top" xlink:title="info message ">
<polygon fill="#ffffff" stroke="#000000" points="154,-104.5 154,-123.5 242,-123.5 242,-104.5 154,-104.5"/>
<text text-anchor="middle" x="198" y="-111.5" font-family="Helvetica,sans-Serif" font-size="10.00" fill="#000000">openage.log.info</text>
</a>
</g>
</g>
<!-- Node4&#45;&gt;Node5 -->
<g id="edge1" class="edge">
<title>Node4&#45;&gt;Node5</title>
<path fill="none" stroke="#191970" d="M90.7111,-85.589C109.3206,-90.5169 132.1972,-96.5749 152.0389,-101.8291"/>
<polygon fill="#191970" stroke="#191970" points="151.2377,-105.2375 161.8005,-104.4141 153.0296,-98.4708 151.2377,-105.2375"/>
</g>
<!-- Node6 -->
<g id="node3" class="node">
<title>Node6</title>
<g id="a_node3"><a xlink:href="../../dd/d1a/namespaceopenage_1_1log.xhtml#a0eff614e7d6e818746700ed9d29e583f" target="_top" xlink:title="Convenience method that makes use of the &#39;general&#39; LogSource. ">
<polygon fill="#ffffff" stroke="#000000" points="152.5,-66.5 152.5,-85.5 243.5,-85.5 243.5,-66.5 152.5,-66.5"/>
<text text-anchor="middle" x="198" y="-73.5" font-family="Helvetica,sans-Serif" font-size="10.00" fill="#000000">openage::log::log</text>
</a>
</g>
</g>
<!-- Node4&#45;&gt;Node6 -->
<g id="edge2" class="edge">
<title>Node4&#45;&gt;Node6</title>
<path fill="none" stroke="#191970" d="M109.1606,-76C119.9646,-76 131.3176,-76 142.1602,-76"/>
<polygon fill="#191970" stroke="#191970" points="142.3647,-79.5001 152.3646,-76 142.3646,-72.5001 142.3647,-79.5001"/>
</g>
<!-- Node12 -->
<g id="node9" class="node">
<title>Node12</title>
<g id="a_node9"><a xlink:href="../../d0/df4/classopenage_1_1error_1_1_error.xhtml#a1a6de651093edf2d3673cd0d146992e4" target="_top" xlink:title="Calls this&#45;&gt;backtrace&#45;&gt;trim_to_current_stack_frame(), if this&#45;&gt;backtrace is not nullptr. ">
<polygon fill="#ffffff" stroke="#000000" points="145,-17 145,-47 251,-47 251,-17 145,-17"/>
<text text-anchor="start" x="153" y="-35" font-family="Helvetica,sans-Serif" font-size="10.00" fill="#000000">openage::error::Error</text>
<text text-anchor="middle" x="198" y="-24" font-family="Helvetica,sans-Serif" font-size="10.00" fill="#000000">::trim_backtrace</text>
</a>
</g>
</g>
<!-- Node4&#45;&gt;Node12 -->
<g id="edge8" class="edge">
<title>Node4&#45;&gt;Node12</title>
<path fill="none" stroke="#191970" d="M85.6374,-66.4527C101.2889,-61.6536 120.7849,-55.6757 139.1213,-50.0534"/>
<polygon fill="#191970" stroke="#191970" points="140.3317,-53.3432 148.8664,-47.0654 138.2797,-46.6507 140.3317,-53.3432"/>
</g>
<!-- Node7 -->
<g id="node4" class="node">
<title>Node7</title>
<g id="a_node4"><a xlink:href="../../dd/d1a/namespaceopenage_1_1log.xhtml#a3fbb0c225d01e222648ec28a43507188" target="_top" xlink:title="Returns a reference to a general named log source, for use by log::log(). ">
<polygon fill="#ffffff" stroke="#000000" points="303.5,-83 303.5,-113 413.5,-113 413.5,-83 303.5,-83"/>
<text text-anchor="start" x="311.5" y="-101" font-family="Helvetica,sans-Serif" font-size="10.00" fill="#000000">openage::log::general</text>
<text text-anchor="middle" x="358.5" y="-90" font-family="Helvetica,sans-Serif" font-size="10.00" fill="#000000">_source</text>
</a>
</g>
</g>
<!-- Node6&#45;&gt;Node7 -->
<g id="edge3" class="edge">
<title>Node6&#45;&gt;Node7</title>
<path fill="none" stroke="#191970" d="M243.5635,-82.2455C258.99,-84.36 276.534,-86.7648 293.1882,-89.0476"/>
<polygon fill="#191970" stroke="#191970" points="293.0332,-92.559 303.4159,-90.4495 293.9839,-85.6239 293.0332,-92.559"/>
</g>
<!-- Node8 -->
<g id="node5" class="node">
<title>Node8</title>
<g id="a_node5"><a xlink:href="../../de/de3/classopenage_1_1log_1_1_log_source.xhtml#a5640099e20af4cd368c767dbcef3a1df" target="_top" xlink:title="Logs a message (get one via MSG(level)). ">
<polygon fill="#ffffff" stroke="#000000" points="287,-44.5 287,-63.5 430,-63.5 430,-44.5 287,-44.5"/>
<text text-anchor="middle" x="358.5" y="-51.5" font-family="Helvetica,sans-Serif" font-size="10.00" fill="#000000">openage::log::LogSource::log</text>
</a>
</g>
</g>
<!-- Node6&#45;&gt;Node8 -->
<g id="edge4" class="edge">
<title>Node6&#45;&gt;Node8</title>
<path fill="none" stroke="#191970" d="M243.5635,-69.7545C254.6414,-68.2361 266.8112,-66.5679 278.9593,-64.9028"/>
<polygon fill="#191970" stroke="#191970" points="279.7022,-68.3338 289.1342,-63.5081 278.7515,-61.3986 279.7022,-68.3338"/>
</g>
<!-- Node9 -->
<g id="node6" class="node">
<title>Node9</title>
<g id="a_node6"><a xlink:href="../../dd/d1a/namespaceopenage_1_1log.xhtml#a3d2885be9c3a09b9ff7ee8764b2e5f39" target="_top" xlink:title="Returns a reference to the global stdout logsink object; Initializes the object if needed...">
<polygon fill="#ffffff" stroke="#000000" points="488,-88 488,-118 592,-118 592,-88 488,-88"/>
<text text-anchor="start" x="496" y="-106" font-family="Helvetica,sans-Serif" font-size="10.00" fill="#000000">openage::log::global</text>
<text text-anchor="middle" x="540" y="-95" font-family="Helvetica,sans-Serif" font-size="10.00" fill="#000000">_stdoutsink</text>
</a>
</g>
</g>
<!-- Node8&#45;&gt;Node9 -->
<g id="edge5" class="edge">
<title>Node8&#45;&gt;Node9</title>
<path fill="none" stroke="#191970" d="M393.9259,-63.564C417.8272,-70.0167 450.008,-78.7046 478.0812,-86.2836"/>
<polygon fill="#191970" stroke="#191970" points="477.2527,-89.6852 487.8194,-88.9127 479.0773,-82.9272 477.2527,-89.6852"/>
</g>
<!-- Node10 -->
<g id="node7" class="node">
<title>Node10</title>
<g id="a_node7"><a xlink:href="../../d0/d58/classopenage_1_1log_1_1_log_sink_list.xhtml#a2d47416fab12651553b4b58c86fd6f84" target="_top" xlink:title="openage::log::LogSinkList\l::instance">
<polygon fill="#ffffff" stroke="#000000" points="475.5,-39 475.5,-69 604.5,-69 604.5,-39 475.5,-39"/>
<text text-anchor="start" x="483.5" y="-57" font-family="Helvetica,sans-Serif" font-size="10.00" fill="#000000">openage::log::LogSinkList</text>
<text text-anchor="middle" x="540" y="-46" font-family="Helvetica,sans-Serif" font-size="10.00" fill="#000000">::instance</text>
</a>
</g>
</g>
<!-- Node8&#45;&gt;Node10 -->
<g id="edge6" class="edge">
<title>Node8&#45;&gt;Node10</title>
<path fill="none" stroke="#191970" d="M430.2336,-54C441.7292,-54 453.651,-54 465.2157,-54"/>
<polygon fill="#191970" stroke="#191970" points="465.267,-57.5001 475.267,-54 465.267,-50.5001 465.267,-57.5001"/>
</g>
<!-- Node11 -->
<g id="node8" class="node">
<title>Node11</title>
<g id="a_node8"><a xlink:href="../../d0/d58/classopenage_1_1log_1_1_log_sink_list.xhtml#a8456b84ab55e1fe151c51438c5bfebdd" target="_top" xlink:title="openage::log::LogSinkList::log">
<polygon fill="#ffffff" stroke="#000000" points="466,-.5 466,-19.5 614,-19.5 614,-.5 466,-.5"/>
<text text-anchor="middle" x="540" y="-7.5" font-family="Helvetica,sans-Serif" font-size="10.00" fill="#000000">openage::log::LogSinkList::log</text>
</a>
</g>
</g>
<!-- Node8&#45;&gt;Node11 -->
<g id="edge7" class="edge">
<title>Node8&#45;&gt;Node11</title>
<path fill="none" stroke="#191970" d="M397.8828,-44.4527C425.1156,-37.8508 461.5503,-29.0181 490.7102,-21.949"/>
<polygon fill="#191970" stroke="#191970" points="491.8002,-25.2863 500.6941,-19.5287 490.1509,-18.4833 491.8002,-25.2863"/>
</g>
</g>
</svg>
