<?xml version="1.0" encoding="UTF-8" standalone="no"?>
<!DOCTYPE svg PUBLIC "-//W3C//DTD SVG 1.1//EN"
 "http://www.w3.org/Graphics/SVG/1.1/DTD/svg11.dtd">
<!-- Generated by graphviz version 2.40.1 (20161225.0304)
 -->
<!-- Title: openage::error::operator&lt;&lt; Pages: 1 -->
<!--zoomable 102 -->
<svg id="main" version="1.1" xmlns="http://www.w3.org/2000/svg" xmlns:xlink="http://www.w3.org/1999/xlink" xml:space="preserve" onload="init(evt)">
<style type="text/css"><![CDATA[
.edge:hover path { stroke: red; }
.edge:hover polygon { stroke: red; fill: red; }
]]></style>
<script type="text/javascript"><![CDATA[
var edges = document.getElementsByTagName('g');
if (edges && edges.length) {
  for (var i=0;i<edges.length;i++) {
    if (edges[i].id.substr(0,4)=='edge') {
      edges[i].setAttribute('class','edge');
    }
  }
}
]]></script>
        <defs>
                <circle id="rim" cx="0" cy="0" r="7"/>
                <circle id="rim2" cx="0" cy="0" r="3.5"/>
                <g id="zoomPlus">
                        <use xlink:href="#rim" fill="#404040">
                                <set attributeName="fill" to="#808080" begin="zoomplus.mouseover" end="zoomplus.mouseout"/>
                        </use>
                        <path d="M-4,0h8M0,-4v8" fill="none" stroke="white" stroke-width="1.5" pointer-events="none"/>
                </g>
                <g id="zoomMin">
                        <use xlink:href="#rim" fill="#404040">
                                <set attributeName="fill" to="#808080" begin="zoomminus.mouseover" end="zoomminus.mouseout"/>
                        </use>
                        <path d="M-4,0h8" fill="none" stroke="white" stroke-width="1.5" pointer-events="none"/>
                </g>
                <g id="dirArrow">
                        <path fill="none" stroke="white" stroke-width="1.5" d="M0,-3.0v7 M-2.5,-0.5L0,-3.0L2.5,-0.5"/>
                </g>
               <g id="resetDef">
                       <use xlink:href="#rim2" fill="#404040">
                               <set attributeName="fill" to="#808080" begin="reset.mouseover" end="reset.mouseout"/>
                       </use>
               </g>
        </defs>

<script type="text/javascript">
var viewWidth = 750;
var viewHeight = 102;
var sectionId = 'dynsection-5';
</script>
<script xlink:href="../../svgpan.js"/>
<svg id="graph" class="graph">
<g id="viewport">
<title>openage::error::operator&lt;&lt;</title>
<polygon fill="#ffffff" stroke="transparent" points="-4,4 -4,-98.2433 746,-98.2433 746,4 -4,4"/>
<!-- Node24 -->
<g id="node1" class="node">
<title>Node24</title>
<polygon fill="#bfbfbf" stroke="#000000" points="0,-55 0,-74 132,-74 132,-55 0,-55"/>
<text text-anchor="middle" x="66" y="-62" font-family="Helvetica,sans-Serif" font-size="10.00" fill="#000000">openage::error::operator&lt;&lt;</text>
</g>
<!-- Node25 -->
<g id="node2" class="node">
<title>Node25</title>
<g id="a_node2"><a xlink:href="../../de/d60/namespaceopenage_1_1util.xhtml#aebed129b2a0773520cdd8d40b0f70318" target="_top" xlink:title="Demangles a symbol name. ">
<polygon fill="#ffffff" stroke="#000000" points="310,-52 310,-71 430,-71 430,-52 310,-52"/>
<text text-anchor="middle" x="370" y="-59" font-family="Helvetica,sans-Serif" font-size="10.00" fill="#000000">openage::util::demangle</text>
</a>
</g>
</g>
<!-- Node24&#45;&gt;Node25 -->
<g id="edge1" class="edge">
<title>Node24&#45;&gt;Node25</title>
<path fill="none" stroke="#191970" d="M96.8907,-74.126C116.935,-79.8585 143.7447,-86.5709 168,-89.5 214.7713,-95.1482 227.3624,-96.1625 274,-89.5 294.5917,-86.5583 316.9368,-80.237 334.8835,-74.3439"/>
<polygon fill="#191970" stroke="#191970" points="336.0108,-77.6575 344.3624,-71.1382 333.7681,-71.0264 336.0108,-77.6575"/>
</g>
<!-- Node28 -->
<g id="node5" class="node">
<title>Node28</title>
<g id="a_node5"><a xlink:href="../../d0/df4/classopenage_1_1error_1_1_error.xhtml#a2eac361ac1550421b68e453b9a710d4b" target="_top" xlink:title="Re&#45;throws the exception cause, if the exception has one. ">
<polygon fill="#ffffff" stroke="#000000" points="168,-49.5 168,-79.5 274,-79.5 274,-49.5 168,-49.5"/>
<text text-anchor="start" x="176" y="-67.5" font-family="Helvetica,sans-Serif" font-size="10.00" fill="#000000">openage::error::Error</text>
<text text-anchor="middle" x="221" y="-56.5" font-family="Helvetica,sans-Serif" font-size="10.00" fill="#000000">::rethrow_cause</text>
</a>
</g>
</g>
<!-- Node24&#45;&gt;Node28 -->
<g id="edge5" class="edge">
<title>Node24&#45;&gt;Node28</title>
<path fill="none" stroke="#191970" d="M132.1835,-64.5C140.6072,-64.5 149.2131,-64.5 157.5917,-64.5"/>
<polygon fill="#191970" stroke="#191970" points="157.6714,-68.0001 167.6714,-64.5 157.6713,-61.0001 157.6714,-68.0001"/>
</g>
<!-- Node29 -->
<g id="node6" class="node">
<title>Node29</title>
<g id="a_node6"><a xlink:href="../../d0/df4/classopenage_1_1error_1_1_error.xhtml#a6c5c486df5943aa399b6c051d9eb9059" target="_top" xlink:title="The type name of the exception (for pretty&#45;printing in case the exception hierarchy is used)...">
<polygon fill="#ffffff" stroke="#000000" points="168,-.5 168,-30.5 274,-30.5 274,-.5 168,-.5"/>
<text text-anchor="start" x="176" y="-18.5" font-family="Helvetica,sans-Serif" font-size="10.00" fill="#000000">openage::error::Error</text>
<text text-anchor="middle" x="221" y="-7.5" font-family="Helvetica,sans-Serif" font-size="10.00" fill="#000000">::type_name</text>
</a>
</g>
</g>
<!-- Node24&#45;&gt;Node29 -->
<g id="edge6" class="edge">
<title>Node24&#45;&gt;Node29</title>
<path fill="none" stroke="#191970" d="M96.2535,-54.936C115.4486,-48.8679 140.8965,-40.823 163.7998,-33.5826"/>
<polygon fill="#191970" stroke="#191970" points="164.9542,-36.8885 173.4341,-30.537 162.8442,-30.2141 164.9542,-36.8885"/>
</g>
<!-- Node26 -->
<g id="node3" class="node">
<title>Node26</title>
<g id="a_node3"><a xlink:href="../../d5/d0e/namespaceopenage_1_1testing_1_1testing.xhtml#ac25bf81db406af62d08113ef7ae9fd6e" target="_top" xlink:title="openage.testing.testing.result">
<polygon fill="#ffffff" stroke="#000000" points="466,-52 466,-71 611,-71 611,-52 466,-52"/>
<text text-anchor="middle" x="538.5" y="-59" font-family="Helvetica,sans-Serif" font-size="10.00" fill="#000000">openage.testing.testing.result</text>
</a>
</g>
</g>
<!-- Node25&#45;&gt;Node26 -->
<g id="edge2" class="edge">
<title>Node25&#45;&gt;Node26</title>
<path fill="none" stroke="#191970" d="M430.3564,-61.5C438.637,-61.5 447.2532,-61.5 455.8472,-61.5"/>
<polygon fill="#191970" stroke="#191970" points="455.9043,-65.0001 465.9043,-61.5 455.9042,-58.0001 455.9043,-65.0001"/>
</g>
<!-- Node27 -->
<g id="node4" class="node">
<title>Node27</title>
<g id="a_node4"><a xlink:href="../../de/d60/namespaceopenage_1_1util.xhtml#a7bc4421a5f0f57f3a0aba3f96eb8d19c" target="_top" xlink:title="method that behaves similar to python&#39;s &quot;repr&quot;. ">
<polygon fill="#ffffff" stroke="#000000" points="647,-52 647,-71 742,-71 742,-52 647,-52"/>
<text text-anchor="middle" x="694.5" y="-59" font-family="Helvetica,sans-Serif" font-size="10.00" fill="#000000">openage::util::repr</text>
</a>
</g>
</g>
<!-- Node26&#45;&gt;Node27 -->
<g id="edge3" class="edge">
<title>Node26&#45;&gt;Node27</title>
<path fill="none" stroke="#191970" d="M611.0196,-54.7648C619.6179,-54.7182 628.3054,-54.7815 636.6614,-54.9545"/>
<polygon fill="#191970" stroke="#191970" points="636.5718,-58.4533 646.6613,-55.2201 636.7578,-51.4558 636.5718,-58.4533"/>
</g>
<!-- Node27&#45;&gt;Node26 -->
<g id="edge4" class="edge">
<title>Node27&#45;&gt;Node26</title>
<path fill="none" stroke="#191970" d="M646.6613,-67.7799C638.5562,-68.0451 629.9375,-68.1982 621.24,-68.2389"/>
<polygon fill="#191970" stroke="#191970" points="621.021,-64.7389 611.0196,-68.2352 621.0183,-71.7389 621.021,-64.7389"/>
</g>
<!-- Node29&#45;&gt;Node25 -->
<g id="edge7" class="edge">
<title>Node29&#45;&gt;Node25</title>
<path fill="none" stroke="#191970" d="M269.7882,-30.5621C288.98,-36.4871 310.7664,-43.2131 329.1123,-48.8769"/>
<polygon fill="#191970" stroke="#191970" points="328.3246,-52.2967 338.9121,-51.9024 330.3896,-45.6082 328.3246,-52.2967"/>
</g>
</g>
</svg>
        <g id="navigator" transform="translate(0 0)" fill="#404254">
                <rect fill="#f2f5e9" fill-opacity="0.5" stroke="#606060" stroke-width=".5" x="0" y="0" width="60" height="60"/>
                <use id="zoomplus" xlink:href="#zoomPlus" x="17" y="9" onmousedown="handleZoom(evt,'in')"/>
                <use id="zoomminus" xlink:href="#zoomMin" x="42" y="9" onmousedown="handleZoom(evt,'out')"/>
                <use id="reset" xlink:href="#resetDef" x="30" y="36" onmousedown="handleReset()"/>
                <g id="arrowUp" xlink:href="#dirArrow" transform="translate(30 24)" onmousedown="handlePan(0,-1)">
                  <use xlink:href="#rim" fill="#404040">
                        <set attributeName="fill" to="#808080" begin="arrowUp.mouseover" end="arrowUp.mouseout"/>
                  </use>
                  <path fill="none" stroke="white" stroke-width="1.5" d="M0,-3.0v7 M-2.5,-0.5L0,-3.0L2.5,-0.5"/>
                </g>
                <g id="arrowRight" xlink:href="#dirArrow" transform="rotate(90) translate(36 -43)" onmousedown="handlePan(1,0)">
                  <use xlink:href="#rim" fill="#404040">
                        <set attributeName="fill" to="#808080" begin="arrowRight.mouseover" end="arrowRight.mouseout"/>
                  </use>
                  <path fill="none" stroke="white" stroke-width="1.5" d="M0,-3.0v7 M-2.5,-0.5L0,-3.0L2.5,-0.5"/>
                </g>
                <g id="arrowDown" xlink:href="#dirArrow" transform="rotate(180) translate(-30 -48)" onmousedown="handlePan(0,1)">
                  <use xlink:href="#rim" fill="#404040">
                        <set attributeName="fill" to="#808080" begin="arrowDown.mouseover" end="arrowDown.mouseout"/>
                  </use>
                  <path fill="none" stroke="white" stroke-width="1.5" d="M0,-3.0v7 M-2.5,-0.5L0,-3.0L2.5,-0.5"/>
                </g>
                <g id="arrowLeft" xlink:href="#dirArrow" transform="rotate(270) translate(-36 17)" onmousedown="handlePan(-1,0)">
                  <use xlink:href="#rim" fill="#404040">
                        <set attributeName="fill" to="#808080" begin="arrowLeft.mouseover" end="arrowLeft.mouseout"/>
                  </use>
                  <path fill="none" stroke="white" stroke-width="1.5" d="M0,-3.0v7 M-2.5,-0.5L0,-3.0L2.5,-0.5"/>
                </g>
        </g>
        <svg viewBox="0 0 15 15" width="100%" height="30px" preserveAspectRatio="xMaxYMin meet">
         <g id="arrow_out" transform="scale(0.3 0.3)">
          <a xlink:href="namespaceopenage_1_1error_a902be6cbbea4f6485907cc5e15406b3a_cgraph_org.svg" target="_base">
           <rect id="button" ry="5" rx="5" y="6" x="6" height="38" width="38"
                fill="#f2f5e9" fill-opacity="0.5" stroke="#606060" stroke-width="1.0"/>
           <path id="arrow"
             d="M 11.500037,31.436501 C 11.940474,20.09759 22.043105,11.32322 32.158766,21.979434 L 37.068811,17.246167 C 37.068811,17.246167 37.088388,32 37.088388,32 L 22.160133,31.978069 C 22.160133,31.978069 26.997745,27.140456 26.997745,27.140456 C 18.528582,18.264221 13.291696,25.230495 11.500037,31.436501 z"
             style="fill:#404040;"/>
          </a>
         </g>
        </svg>
</svg>
