<?xml version="1.0" encoding="UTF-8" standalone="no"?>
<!DOCTYPE svg PUBLIC "-//W3C//DTD SVG 1.1//EN"
 "http://www.w3.org/Graphics/SVG/1.1/DTD/svg11.dtd">
<!-- Generated by graphviz version 2.40.1 (20161225.0304)
 -->
<!-- Title: openage::gui::GuiImageProviderLink::provider Pages: 1 -->
<svg width="354pt" height="127pt"
 viewBox="0.00 0.00 354.00 126.50" xmlns="http://www.w3.org/2000/svg" xmlns:xlink="http://www.w3.org/1999/xlink">
<g id="graph0" class="graph" transform="scale(1 1) rotate(0) translate(4 122.5)">
<title>openage::gui::GuiImageProviderLink::provider</title>
<polygon fill="#ffffff" stroke="transparent" points="-4,4 -4,-122.5 350,-122.5 350,4 -4,4"/>
<!-- Node19 -->
<g id="node1" class="node">
<title>Node19</title>
<polygon fill="#bfbfbf" stroke="#000000" points="0,-49.5 0,-79.5 156,-79.5 156,-49.5 0,-49.5"/>
<text text-anchor="start" x="8" y="-67.5" font-family="Helvetica,sans-Serif" font-size="10.00" fill="#000000">openage::gui::GuiImageProvider</text>
<text text-anchor="middle" x="78" y="-56.5" font-family="Helvetica,sans-Serif" font-size="10.00" fill="#000000">Link::provider</text>
</g>
<!-- Node20 -->
<g id="node2" class="node">
<title>Node20</title>
<g id="a_node2"><a xlink:href="../../d6/dda/namespaceqtsdl.xhtml#a220ce9f0bb41d3f42a8b559e454ed4bc" target="_top" xlink:title="qtsdl::checked_static_cast">
<polygon fill="#ffffff" stroke="#000000" points="202,-99 202,-118 336,-118 336,-99 202,-99"/>
<text text-anchor="middle" x="269" y="-106" font-family="Helvetica,sans-Serif" font-size="10.00" fill="#000000">qtsdl::checked_static_cast</text>
</a>
</g>
</g>
<!-- Node19&#45;&gt;Node20 -->
<g id="edge1" class="edge">
<title>Node19&#45;&gt;Node20</title>
<path fill="none" stroke="#191970" d="M143.1972,-79.5192C167.5789,-85.136 194.9005,-91.43 217.8368,-96.7137"/>
<polygon fill="#191970" stroke="#191970" points="217.177,-100.1533 227.7075,-98.9876 218.7484,-93.332 217.177,-100.1533"/>
</g>
<!-- Node21 -->
<g id="node3" class="node">
<title>Node21</title>
<g id="a_node3"><a xlink:href="../../db/d28/classqtsdl_1_1_gui_image_provider_impl.xhtml#a3611fcc07dd0e4199aa4465f20cfef5e" target="_top" xlink:title="qtsdl::GuiImageProviderImpl\l::get_id">
<polygon fill="#ffffff" stroke="#000000" points="199,-49.5 199,-79.5 339,-79.5 339,-49.5 199,-49.5"/>
<text text-anchor="start" x="207" y="-67.5" font-family="Helvetica,sans-Serif" font-size="10.00" fill="#000000">qtsdl::GuiImageProviderImpl</text>
<text text-anchor="middle" x="269" y="-56.5" font-family="Helvetica,sans-Serif" font-size="10.00" fill="#000000">::get_id</text>
</a>
</g>
</g>
<!-- Node19&#45;&gt;Node21 -->
<g id="edge2" class="edge">
<title>Node19&#45;&gt;Node21</title>
<path fill="none" stroke="#191970" d="M156.2381,-64.5C166.9339,-64.5 177.9285,-64.5 188.6609,-64.5"/>
<polygon fill="#191970" stroke="#191970" points="188.8522,-68.0001 198.8521,-64.5 188.8521,-61.0001 188.8522,-68.0001"/>
</g>
<!-- Node22 -->
<g id="node4" class="node">
<title>Node22</title>
<g id="a_node4"><a xlink:href="../../d1/dd2/classqtsdl_1_1_qml_engine_with_singleton_items_info.xhtml#a02494fab112e3dda7c9fdd12c66541b9" target="_top" xlink:title="qtsdl::QmlEngineWithSingleton\lItemsInfo::get_image_providers">
<polygon fill="#ffffff" stroke="#000000" points="192,-.5 192,-30.5 346,-30.5 346,-.5 192,-.5"/>
<text text-anchor="start" x="200" y="-18.5" font-family="Helvetica,sans-Serif" font-size="10.00" fill="#000000">qtsdl::QmlEngineWithSingleton</text>
<text text-anchor="middle" x="269" y="-7.5" font-family="Helvetica,sans-Serif" font-size="10.00" fill="#000000">ItemsInfo::get_image_providers</text>
</a>
</g>
</g>
<!-- Node19&#45;&gt;Node22 -->
<g id="edge3" class="edge">
<title>Node19&#45;&gt;Node22</title>
<path fill="none" stroke="#191970" d="M136.6043,-49.4654C156.8629,-44.2682 179.7391,-38.3994 200.7063,-33.0204"/>
<polygon fill="#191970" stroke="#191970" points="201.6899,-36.3814 210.5065,-30.5062 199.9504,-29.601 201.6899,-36.3814"/>
</g>
</g>
</svg>
