<?xml version="1.0" encoding="UTF-8" standalone="no"?>
<!DOCTYPE svg PUBLIC "-//W3C//DTD SVG 1.1//EN"
 "http://www.w3.org/Graphics/SVG/1.1/DTD/svg11.dtd">
<!-- Generated by graphviz version 2.40.1 (20161225.0304)
 -->
<!-- Title: qtsdl::GuiPropertyMapImpl::property_changed Pages: 1 -->
<svg width="317pt" height="100pt"
 viewBox="0.00 0.00 317.00 99.50" xmlns="http://www.w3.org/2000/svg" xmlns:xlink="http://www.w3.org/1999/xlink">
<g id="graph0" class="graph" transform="scale(1 1) rotate(0) translate(4 95.5)">
<title>qtsdl::GuiPropertyMapImpl::property_changed</title>
<polygon fill="#ffffff" stroke="transparent" points="-4,4 -4,-95.5 313,-95.5 313,4 -4,4"/>
<!-- Node8 -->
<g id="node1" class="node">
<title>Node8</title>
<polygon fill="#bfbfbf" stroke="#000000" points="0,-27.5 0,-57.5 133,-57.5 133,-27.5 0,-27.5"/>
<text text-anchor="start" x="8" y="-45.5" font-family="Helvetica,sans-Serif" font-size="10.00" fill="#000000">qtsdl::GuiPropertyMapImpl</text>
<text text-anchor="middle" x="66.5" y="-34.5" font-family="Helvetica,sans-Serif" font-size="10.00" fill="#000000">::property_changed</text>
</g>
<!-- Node9 -->
<g id="node2" class="node">
<title>Node9</title>
<g id="a_node2"><a xlink:href="../../d6/d56/classqtsdl_1_1_gui_item_list_model.xhtml#a0e965b2d5161f95e8118b197ac2f0f42" target="_top" xlink:title="qtsdl::GuiItemListModel\l\&lt; GeneratorLink \&gt;::establish\l_to_gui_propagation">
<polygon fill="#ffffff" stroke="#000000" points="169,-50 169,-91 309,-91 309,-50 169,-50"/>
<text text-anchor="start" x="177" y="-79" font-family="Helvetica,sans-Serif" font-size="10.00" fill="#000000">qtsdl::GuiItemListModel</text>
<text text-anchor="start" x="177" y="-68" font-family="Helvetica,sans-Serif" font-size="10.00" fill="#000000">&lt; GeneratorLink &gt;::establish</text>
<text text-anchor="middle" x="239" y="-57" font-family="Helvetica,sans-Serif" font-size="10.00" fill="#000000">_to_gui_propagation</text>
</a>
</g>
</g>
<!-- Node8&#45;&gt;Node9 -->
<g id="edge1" class="edge">
<title>Node8&#45;&gt;Node9</title>
<path fill="none" stroke="#191970" d="M143.1314,-54.9387C151.6645,-56.3238 160.3248,-57.7295 168.7725,-59.1008"/>
<polygon fill="#191970" stroke="#191970" points="143.6246,-51.473 133.193,-53.3255 142.503,-58.3826 143.6246,-51.473"/>
</g>
<!-- Node10 -->
<g id="node3" class="node">
<title>Node10</title>
<g id="a_node3"><a xlink:href="../../da/d54/classqtsdl_1_1_gui_property_map_impl.xhtml#a80eccbbffe3ab324cd17a4edeae23649" target="_top" xlink:title="qtsdl::GuiPropertyMapImpl\l::event">
<polygon fill="#ffffff" stroke="#000000" points="172.5,-.5 172.5,-30.5 305.5,-30.5 305.5,-.5 172.5,-.5"/>
<text text-anchor="start" x="180.5" y="-18.5" font-family="Helvetica,sans-Serif" font-size="10.00" fill="#000000">qtsdl::GuiPropertyMapImpl</text>
<text text-anchor="middle" x="239" y="-7.5" font-family="Helvetica,sans-Serif" font-size="10.00" fill="#000000">::event</text>
</a>
</g>
</g>
<!-- Node8&#45;&gt;Node10 -->
<g id="edge2" class="edge">
<title>Node8&#45;&gt;Node10</title>
<path fill="none" stroke="#191970" d="M143.2671,-30.4843C153.0113,-28.9591 162.9189,-27.4083 172.4844,-25.9111"/>
<polygon fill="#191970" stroke="#191970" points="142.5315,-27.0567 133.193,-32.0611 143.614,-33.9725 142.5315,-27.0567"/>
</g>
</g>
</svg>
