<?xml version="1.0" encoding="UTF-8" standalone="no"?>
<!DOCTYPE svg PUBLIC "-//W3C//DTD SVG 1.1//EN"
 "http://www.w3.org/Graphics/SVG/1.1/DTD/svg11.dtd">
<!-- Generated by graphviz version 2.40.1 (20161225.0304)
 -->
<!-- Title: qtsdl::GuiEngineImpl::reload Pages: 1 -->
<!--zoomable 161 -->
<svg id="main" version="1.1" xmlns="http://www.w3.org/2000/svg" xmlns:xlink="http://www.w3.org/1999/xlink" xml:space="preserve" onload="init(evt)">
<style type="text/css"><![CDATA[
.edge:hover path { stroke: red; }
.edge:hover polygon { stroke: red; fill: red; }
]]></style>
<script type="text/javascript"><![CDATA[
var edges = document.getElementsByTagName('g');
if (edges && edges.length) {
  for (var i=0;i<edges.length;i++) {
    if (edges[i].id.substr(0,4)=='edge') {
      edges[i].setAttribute('class','edge');
    }
  }
}
]]></script>
        <defs>
                <circle id="rim" cx="0" cy="0" r="7"/>
                <circle id="rim2" cx="0" cy="0" r="3.5"/>
                <g id="zoomPlus">
                        <use xlink:href="#rim" fill="#404040">
                                <set attributeName="fill" to="#808080" begin="zoomplus.mouseover" end="zoomplus.mouseout"/>
                        </use>
                        <path d="M-4,0h8M0,-4v8" fill="none" stroke="white" stroke-width="1.5" pointer-events="none"/>
                </g>
                <g id="zoomMin">
                        <use xlink:href="#rim" fill="#404040">
                                <set attributeName="fill" to="#808080" begin="zoomminus.mouseover" end="zoomminus.mouseout"/>
                        </use>
                        <path d="M-4,0h8" fill="none" stroke="white" stroke-width="1.5" pointer-events="none"/>
                </g>
                <g id="dirArrow">
                        <path fill="none" stroke="white" stroke-width="1.5" d="M0,-3.0v7 M-2.5,-0.5L0,-3.0L2.5,-0.5"/>
                </g>
               <g id="resetDef">
                       <use xlink:href="#rim2" fill="#404040">
                               <set attributeName="fill" to="#808080" begin="reset.mouseover" end="reset.mouseout"/>
                       </use>
               </g>
        </defs>

<script type="text/javascript">
var viewWidth = 501;
var viewHeight = 161;
var sectionId = 'dynsection-9';
</script>
<script xlink:href="../../svgpan.js"/>
<svg id="graph" class="graph">
<g id="viewport">
<title>qtsdl::GuiEngineImpl::reload</title>
<polygon fill="#ffffff" stroke="transparent" points="-4,4 -4,-157 497,-157 497,4 -4,4"/>
<!-- Node34 -->
<g id="node1" class="node">
<title>Node34</title>
<polygon fill="#bfbfbf" stroke="#000000" points="0,-49.5 0,-79.5 107,-79.5 107,-49.5 0,-49.5"/>
<text text-anchor="start" x="8" y="-67.5" font-family="Helvetica,sans-Serif" font-size="10.00" fill="#000000">qtsdl::GuiEngineImpl</text>
<text text-anchor="middle" x="53.5" y="-56.5" font-family="Helvetica,sans-Serif" font-size="10.00" fill="#000000">::reload</text>
</g>
<!-- Node35 -->
<g id="node2" class="node">
<title>Node35</title>
<g id="a_node2"><a xlink:href="../../dd/d89/classqtsdl_1_1_gui_engine_impl_connection.xhtml#ac2ef61bcd0cdb991b399a29eeb5ec74c" target="_top" xlink:title="qtsdl::GuiEngineImplConnection\l::disconnect">
<polygon fill="#ffffff" stroke="#000000" points="143,-98.5 143,-128.5 300,-128.5 300,-98.5 143,-98.5"/>
<text text-anchor="start" x="151" y="-116.5" font-family="Helvetica,sans-Serif" font-size="10.00" fill="#000000">qtsdl::GuiEngineImplConnection</text>
<text text-anchor="middle" x="221.5" y="-105.5" font-family="Helvetica,sans-Serif" font-size="10.00" fill="#000000">::disconnect</text>
</a>
</g>
</g>
<!-- Node34&#45;&gt;Node35 -->
<g id="edge1" class="edge">
<title>Node34&#45;&gt;Node35</title>
<path fill="none" stroke="#191970" d="M115.101,-82.467C133.1013,-87.717 152.582,-93.3989 169.8946,-98.4484"/>
<polygon fill="#191970" stroke="#191970" points="115.8564,-79.0415 105.2764,-79.6014 113.8963,-85.7615 115.8564,-79.0415"/>
</g>
<!-- Node38 -->
<g id="node5" class="node">
<title>Node38</title>
<g id="a_node5"><a xlink:href="../../dd/d89/classqtsdl_1_1_gui_engine_impl_connection.xhtml#af9d75573df9d5f7b433c54eb6f2690fa" target="_top" xlink:title="qtsdl::GuiEngineImplConnection\l::GuiEngineImplConnection">
<polygon fill="#ffffff" stroke="#000000" points="143,-49.5 143,-79.5 300,-79.5 300,-49.5 143,-49.5"/>
<text text-anchor="start" x="151" y="-67.5" font-family="Helvetica,sans-Serif" font-size="10.00" fill="#000000">qtsdl::GuiEngineImplConnection</text>
<text text-anchor="middle" x="221.5" y="-56.5" font-family="Helvetica,sans-Serif" font-size="10.00" fill="#000000">::GuiEngineImplConnection</text>
</a>
</g>
</g>
<!-- Node34&#45;&gt;Node38 -->
<g id="edge4" class="edge">
<title>Node34&#45;&gt;Node38</title>
<path fill="none" stroke="#191970" d="M117.2205,-64.5C125.6403,-64.5 134.3493,-64.5 142.9808,-64.5"/>
<polygon fill="#191970" stroke="#191970" points="117.1182,-61.0001 107.1182,-64.5 117.1181,-68.0001 117.1182,-61.0001"/>
</g>
<!-- Node39 -->
<g id="node6" class="node">
<title>Node39</title>
<g id="a_node6"><a xlink:href="../../de/d58/classqtsdl_1_1_gui_engine_impl.xhtml#a8a5e647f1df22a102c691e721dcc8f26" target="_top" xlink:title="qtsdl::GuiEngineImpl\l::onReload">
<polygon fill="#ffffff" stroke="#000000" points="168,-.5 168,-30.5 275,-30.5 275,-.5 168,-.5"/>
<text text-anchor="start" x="176" y="-18.5" font-family="Helvetica,sans-Serif" font-size="10.00" fill="#000000">qtsdl::GuiEngineImpl</text>
<text text-anchor="middle" x="221.5" y="-7.5" font-family="Helvetica,sans-Serif" font-size="10.00" fill="#000000">::onReload</text>
</a>
</g>
</g>
<!-- Node34&#45;&gt;Node39 -->
<g id="edge5" class="edge">
<title>Node34&#45;&gt;Node39</title>
<path fill="none" stroke="#191970" d="M115.101,-46.533C133.1013,-41.283 152.582,-35.6011 169.8946,-30.5516"/>
<polygon fill="#191970" stroke="#191970" points="113.8963,-43.2385 105.2764,-49.3986 115.8564,-49.9585 113.8963,-43.2385"/>
</g>
<!-- Node36 -->
<g id="node3" class="node">
<title>Node36</title>
<g id="a_node3"><a xlink:href="../../dd/d89/classqtsdl_1_1_gui_engine_impl_connection.xhtml#a838d04049e7a234096ddc630de0fee59" target="_top" xlink:title="qtsdl::GuiEngineImplConnection\l::~GuiEngineImplConnection">
<polygon fill="#ffffff" stroke="#000000" points="336,-122.5 336,-152.5 493,-152.5 493,-122.5 336,-122.5"/>
<text text-anchor="start" x="344" y="-140.5" font-family="Helvetica,sans-Serif" font-size="10.00" fill="#000000">qtsdl::GuiEngineImplConnection</text>
<text text-anchor="middle" x="414.5" y="-129.5" font-family="Helvetica,sans-Serif" font-size="10.00" fill="#000000">::~GuiEngineImplConnection</text>
</a>
</g>
</g>
<!-- Node35&#45;&gt;Node36 -->
<g id="edge2" class="edge">
<title>Node35&#45;&gt;Node36</title>
<path fill="none" stroke="#191970" d="M310.0225,-124.508C318.607,-125.5755 327.2762,-126.6535 335.7559,-127.708"/>
<polygon fill="#191970" stroke="#191970" points="310.356,-121.0226 300.0005,-123.2617 309.4921,-127.9691 310.356,-121.0226"/>
</g>
<!-- Node37 -->
<g id="node4" class="node">
<title>Node37</title>
<g id="a_node4"><a xlink:href="../../dd/d89/classqtsdl_1_1_gui_engine_impl_connection.xhtml#a3de39e1c4b2cc6b97f38d9c1217d5de5" target="_top" xlink:title="qtsdl::GuiEngineImplConnection\l::operator=">
<polygon fill="#ffffff" stroke="#000000" points="336,-73.5 336,-103.5 493,-103.5 493,-73.5 336,-73.5"/>
<text text-anchor="start" x="344" y="-91.5" font-family="Helvetica,sans-Serif" font-size="10.00" fill="#000000">qtsdl::GuiEngineImplConnection</text>
<text text-anchor="middle" x="414.5" y="-80.5" font-family="Helvetica,sans-Serif" font-size="10.00" fill="#000000">::operator=</text>
</a>
</g>
</g>
<!-- Node35&#45;&gt;Node37 -->
<g id="edge3" class="edge">
<title>Node35&#45;&gt;Node37</title>
<path fill="none" stroke="#191970" d="M310.0225,-102.0334C318.607,-100.9214 327.2762,-99.7984 335.7559,-98.7"/>
<polygon fill="#191970" stroke="#191970" points="309.468,-98.5759 300.0005,-103.3315 310.3673,-105.5179 309.468,-98.5759"/>
</g>
<!-- Node40 -->
<g id="node7" class="node">
<title>Node40</title>
<g id="a_node7"><a xlink:href="../../de/d58/classqtsdl_1_1_gui_engine_impl.xhtml#a4088026e44037a9ec5c6a7d664651c0f" target="_top" xlink:title="qtsdl::GuiEngineImpl\l::GuiEngineImpl">
<polygon fill="#ffffff" stroke="#000000" points="361,-.5 361,-30.5 468,-30.5 468,-.5 361,-.5"/>
<text text-anchor="start" x="369" y="-18.5" font-family="Helvetica,sans-Serif" font-size="10.00" fill="#000000">qtsdl::GuiEngineImpl</text>
<text text-anchor="middle" x="414.5" y="-7.5" font-family="Helvetica,sans-Serif" font-size="10.00" fill="#000000">::GuiEngineImpl</text>
</a>
</g>
</g>
<!-- Node39&#45;&gt;Node40 -->
<g id="edge6" class="edge">
<title>Node39&#45;&gt;Node40</title>
<path fill="none" stroke="#191970" d="M285.2836,-15.5C309.7732,-15.5 337.4514,-15.5 360.891,-15.5"/>
<polygon fill="#191970" stroke="#191970" points="285.005,-12.0001 275.005,-15.5 285.0049,-19.0001 285.005,-12.0001"/>
</g>
</g>
</svg>
        <g id="navigator" transform="translate(0 0)" fill="#404254">
                <rect fill="#f2f5e9" fill-opacity="0.5" stroke="#606060" stroke-width=".5" x="0" y="0" width="60" height="60"/>
                <use id="zoomplus" xlink:href="#zoomPlus" x="17" y="9" onmousedown="handleZoom(evt,'in')"/>
                <use id="zoomminus" xlink:href="#zoomMin" x="42" y="9" onmousedown="handleZoom(evt,'out')"/>
                <use id="reset" xlink:href="#resetDef" x="30" y="36" onmousedown="handleReset()"/>
                <g id="arrowUp" xlink:href="#dirArrow" transform="translate(30 24)" onmousedown="handlePan(0,-1)">
                  <use xlink:href="#rim" fill="#404040">
                        <set attributeName="fill" to="#808080" begin="arrowUp.mouseover" end="arrowUp.mouseout"/>
                  </use>
                  <path fill="none" stroke="white" stroke-width="1.5" d="M0,-3.0v7 M-2.5,-0.5L0,-3.0L2.5,-0.5"/>
                </g>
                <g id="arrowRight" xlink:href="#dirArrow" transform="rotate(90) translate(36 -43)" onmousedown="handlePan(1,0)">
                  <use xlink:href="#rim" fill="#404040">
                        <set attributeName="fill" to="#808080" begin="arrowRight.mouseover" end="arrowRight.mouseout"/>
                  </use>
                  <path fill="none" stroke="white" stroke-width="1.5" d="M0,-3.0v7 M-2.5,-0.5L0,-3.0L2.5,-0.5"/>
                </g>
                <g id="arrowDown" xlink:href="#dirArrow" transform="rotate(180) translate(-30 -48)" onmousedown="handlePan(0,1)">
                  <use xlink:href="#rim" fill="#404040">
                        <set attributeName="fill" to="#808080" begin="arrowDown.mouseover" end="arrowDown.mouseout"/>
                  </use>
                  <path fill="none" stroke="white" stroke-width="1.5" d="M0,-3.0v7 M-2.5,-0.5L0,-3.0L2.5,-0.5"/>
                </g>
                <g id="arrowLeft" xlink:href="#dirArrow" transform="rotate(270) translate(-36 17)" onmousedown="handlePan(-1,0)">
                  <use xlink:href="#rim" fill="#404040">
                        <set attributeName="fill" to="#808080" begin="arrowLeft.mouseover" end="arrowLeft.mouseout"/>
                  </use>
                  <path fill="none" stroke="white" stroke-width="1.5" d="M0,-3.0v7 M-2.5,-0.5L0,-3.0L2.5,-0.5"/>
                </g>
        </g>
        <svg viewBox="0 0 15 15" width="100%" height="30px" preserveAspectRatio="xMaxYMin meet">
         <g id="arrow_out" transform="scale(0.3 0.3)">
          <a xlink:href="classqtsdl_1_1_gui_engine_impl_ad57811cbb531486d7aadd98aedfdcf31_icgraph_org.svg" target="_base">
           <rect id="button" ry="5" rx="5" y="6" x="6" height="38" width="38"
                fill="#f2f5e9" fill-opacity="0.5" stroke="#606060" stroke-width="1.0"/>
           <path id="arrow"
             d="M 11.500037,31.436501 C 11.940474,20.09759 22.043105,11.32322 32.158766,21.979434 L 37.068811,17.246167 C 37.068811,17.246167 37.088388,32 37.088388,32 L 22.160133,31.978069 C 22.160133,31.978069 26.997745,27.140456 26.997745,27.140456 C 18.528582,18.264221 13.291696,25.230495 11.500037,31.436501 z"
             style="fill:#404040;"/>
          </a>
         </g>
        </svg>
</svg>
