<?xml version="1.0" encoding="UTF-8" standalone="no"?>
<!DOCTYPE svg PUBLIC "-//W3C//DTD SVG 1.1//EN"
 "http://www.w3.org/Graphics/SVG/1.1/DTD/svg11.dtd">
<!-- Generated by graphviz version 2.40.1 (20161225.0304)
 -->
<!-- Title: openage.convert.binpack.BestPacker.width Pages: 1 -->
<svg width="297pt" height="39pt"
 viewBox="0.00 0.00 297.00 39.00" xmlns="http://www.w3.org/2000/svg" xmlns:xlink="http://www.w3.org/1999/xlink">
<g id="graph0" class="graph" transform="scale(1 1) rotate(0) translate(4 35)">
<title>openage.convert.binpack.BestPacker.width</title>
<polygon fill="#ffffff" stroke="transparent" points="-4,4 -4,-35 293,-35 293,4 -4,4"/>
<!-- Node20 -->
<g id="node1" class="node">
<title>Node20</title>
<polygon fill="#bfbfbf" stroke="#000000" points="0,-.5 0,-30.5 128,-30.5 128,-.5 0,-.5"/>
<text text-anchor="start" x="8" y="-18.5" font-family="Helvetica,sans-Serif" font-size="10.00" fill="#000000">openage.convert.binpack.</text>
<text text-anchor="middle" x="64" y="-7.5" font-family="Helvetica,sans-Serif" font-size="10.00" fill="#000000">BestPacker.width</text>
</g>
<!-- Node21 -->
<g id="node2" class="node">
<title>Node21</title>
<g id="a_node2"><a xlink:href="../../d8/d76/classopenage_1_1convert_1_1texture_1_1_texture.xhtml#ad67d62c0af627d1b83389ed9dc09b213" target="_top" xlink:title="openage.convert.texture.\lTexture.__init__">
<polygon fill="#ffffff" stroke="#000000" points="164,-.5 164,-30.5 289,-30.5 289,-.5 164,-.5"/>
<text text-anchor="start" x="172" y="-18.5" font-family="Helvetica,sans-Serif" font-size="10.00" fill="#000000">openage.convert.texture.</text>
<text text-anchor="middle" x="226.5" y="-7.5" font-family="Helvetica,sans-Serif" font-size="10.00" fill="#000000">Texture.__init__</text>
</a>
</g>
</g>
<!-- Node20&#45;&gt;Node21 -->
<g id="edge1" class="edge">
<title>Node20&#45;&gt;Node21</title>
<path fill="none" stroke="#191970" d="M138.4782,-15.5C146.9451,-15.5 155.5108,-15.5 163.804,-15.5"/>
<polygon fill="#191970" stroke="#191970" points="138.2243,-12.0001 128.2243,-15.5 138.2243,-19.0001 138.2243,-12.0001"/>
</g>
</g>
</svg>
