<?xml version="1.0" encoding="UTF-8" standalone="no"?>
<!DOCTYPE svg PUBLIC "-//W3C//DTD SVG 1.1//EN"
 "http://www.w3.org/Graphics/SVG/1.1/DTD/svg11.dtd">
<!-- Generated by graphviz version 2.40.1 (20161225.0304)
 -->
<!-- Title: openage::job::JobManager::enqueue_state Pages: 1 -->
<!--zoomable 137 -->
<svg id="main" version="1.1" xmlns="http://www.w3.org/2000/svg" xmlns:xlink="http://www.w3.org/1999/xlink" xml:space="preserve" onload="init(evt)">
<style type="text/css"><![CDATA[
.edge:hover path { stroke: red; }
.edge:hover polygon { stroke: red; fill: red; }
]]></style>
<script type="text/javascript"><![CDATA[
var edges = document.getElementsByTagName('g');
if (edges && edges.length) {
  for (var i=0;i<edges.length;i++) {
    if (edges[i].id.substr(0,4)=='edge') {
      edges[i].setAttribute('class','edge');
    }
  }
}
]]></script>
        <defs>
                <circle id="rim" cx="0" cy="0" r="7"/>
                <circle id="rim2" cx="0" cy="0" r="3.5"/>
                <g id="zoomPlus">
                        <use xlink:href="#rim" fill="#404040">
                                <set attributeName="fill" to="#808080" begin="zoomplus.mouseover" end="zoomplus.mouseout"/>
                        </use>
                        <path d="M-4,0h8M0,-4v8" fill="none" stroke="white" stroke-width="1.5" pointer-events="none"/>
                </g>
                <g id="zoomMin">
                        <use xlink:href="#rim" fill="#404040">
                                <set attributeName="fill" to="#808080" begin="zoomminus.mouseover" end="zoomminus.mouseout"/>
                        </use>
                        <path d="M-4,0h8" fill="none" stroke="white" stroke-width="1.5" pointer-events="none"/>
                </g>
                <g id="dirArrow">
                        <path fill="none" stroke="white" stroke-width="1.5" d="M0,-3.0v7 M-2.5,-0.5L0,-3.0L2.5,-0.5"/>
                </g>
               <g id="resetDef">
                       <use xlink:href="#rim2" fill="#404040">
                               <set attributeName="fill" to="#808080" begin="reset.mouseover" end="reset.mouseout"/>
                       </use>
               </g>
        </defs>

<script type="text/javascript">
var viewWidth = 1019;
var viewHeight = 137;
var sectionId = 'dynsection-6';
</script>
<script xlink:href="../../svgpan.js"/>
<svg id="graph" class="graph">
<g id="viewport">
<title>openage::job::JobManager::enqueue_state</title>
<polygon fill="#ffffff" stroke="transparent" points="-4,4 -4,-133 1015,-133 1015,4 -4,4"/>
<!-- Node41 -->
<g id="node1" class="node">
<title>Node41</title>
<polygon fill="#bfbfbf" stroke="#000000" points="0,-73.5 0,-103.5 131,-103.5 131,-73.5 0,-73.5"/>
<text text-anchor="start" x="8" y="-91.5" font-family="Helvetica,sans-Serif" font-size="10.00" fill="#000000">openage::job::JobManager</text>
<text text-anchor="middle" x="65.5" y="-80.5" font-family="Helvetica,sans-Serif" font-size="10.00" fill="#000000">::enqueue_state</text>
</g>
<!-- Node42 -->
<g id="node2" class="node">
<title>Node42</title>
<g id="a_node2"><a xlink:href="../../dc/d9a/classopenage_1_1job_1_1_job_manager.xhtml#ab12ca59d9b54653a1106a405a23721b2" target="_top" xlink:title="Enqueues the given function into the job manager&#39;s queue, so that it will be dispatched by one of the...">
<polygon fill="#ffffff" stroke="#000000" points="167,-73.5 167,-103.5 298,-103.5 298,-73.5 167,-73.5"/>
<text text-anchor="start" x="175" y="-91.5" font-family="Helvetica,sans-Serif" font-size="10.00" fill="#000000">openage::job::JobManager</text>
<text text-anchor="middle" x="232.5" y="-80.5" font-family="Helvetica,sans-Serif" font-size="10.00" fill="#000000">::enqueue</text>
</a>
</g>
</g>
<!-- Node41&#45;&gt;Node42 -->
<g id="edge1" class="edge">
<title>Node41&#45;&gt;Node42</title>
<path fill="none" stroke="#191970" d="M141.0663,-88.5C149.6848,-88.5 158.4171,-88.5 166.8913,-88.5"/>
<polygon fill="#191970" stroke="#191970" points="141.0235,-85.0001 131.0235,-88.5 141.0235,-92.0001 141.0235,-85.0001"/>
</g>
<!-- Node43 -->
<g id="node3" class="node">
<title>Node43</title>
<g id="a_node3"><a xlink:href="../../d5/dfd/classopenage_1_1_screenshot_manager.xhtml#a810563b379906491c07a5c951cb4f535" target="_top" xlink:title="To be called to save a screenshot. ">
<polygon fill="#ffffff" stroke="#000000" points="334,-98.5 334,-128.5 480,-128.5 480,-98.5 334,-98.5"/>
<text text-anchor="start" x="342" y="-116.5" font-family="Helvetica,sans-Serif" font-size="10.00" fill="#000000">openage::ScreenshotManager</text>
<text text-anchor="middle" x="407" y="-105.5" font-family="Helvetica,sans-Serif" font-size="10.00" fill="#000000">::save_screenshot</text>
</a>
</g>
</g>
<!-- Node42&#45;&gt;Node43 -->
<g id="edge2" class="edge">
<title>Node42&#45;&gt;Node43</title>
<path fill="none" stroke="#191970" d="M308.6266,-99.4064C317.0269,-100.6099 325.5669,-101.8334 333.9284,-103.0313"/>
<polygon fill="#191970" stroke="#191970" points="308.8663,-95.9051 298.471,-97.9514 307.8735,-102.8343 308.8663,-95.9051"/>
</g>
<!-- Node45 -->
<g id="node5" class="node">
<title>Node45</title>
<g id="a_node5"><a xlink:href="../../d7/de7/classopenage_1_1_game_spec_handle.xhtml#afcf8867f4e0077e6a8a2a6fe6c0c98ff" target="_top" xlink:title="Actually dispatch the loading job to the job manager. ">
<polygon fill="#ffffff" stroke="#000000" points="337.5,-49.5 337.5,-79.5 476.5,-79.5 476.5,-49.5 337.5,-49.5"/>
<text text-anchor="start" x="345.5" y="-67.5" font-family="Helvetica,sans-Serif" font-size="10.00" fill="#000000">openage::GameSpecHandle</text>
<text text-anchor="middle" x="407" y="-56.5" font-family="Helvetica,sans-Serif" font-size="10.00" fill="#000000">::start_load_job</text>
</a>
</g>
</g>
<!-- Node42&#45;&gt;Node45 -->
<g id="edge4" class="edge">
<title>Node42&#45;&gt;Node45</title>
<path fill="none" stroke="#191970" d="M308.4328,-78.0565C318.0767,-76.7301 327.9083,-75.3779 337.4453,-74.0663"/>
<polygon fill="#191970" stroke="#191970" points="307.9008,-74.5967 298.471,-79.4266 308.8546,-81.5314 307.9008,-74.5967"/>
</g>
<!-- Node44 -->
<g id="node4" class="node">
<title>Node44</title>
<g id="a_node4"><a xlink:href="../../d6/d40/classopenage_1_1_engine.xhtml#a201016f062279be18da34be570e9971c" target="_top" xlink:title="engine initialization method. ">
<polygon fill="#ffffff" stroke="#000000" points="523,-104 523,-123 648,-123 648,-104 523,-104"/>
<text text-anchor="middle" x="585.5" y="-111" font-family="Helvetica,sans-Serif" font-size="10.00" fill="#000000">openage::Engine::Engine</text>
</a>
</g>
</g>
<!-- Node43&#45;&gt;Node44 -->
<g id="edge3" class="edge">
<title>Node43&#45;&gt;Node44</title>
<path fill="none" stroke="#191970" d="M490.1423,-113.5C501.1166,-113.5 512.2147,-113.5 522.7686,-113.5"/>
<polygon fill="#191970" stroke="#191970" points="490.1178,-110.0001 480.1178,-113.5 490.1178,-117.0001 490.1178,-110.0001"/>
</g>
<!-- Node46 -->
<g id="node6" class="node">
<title>Node46</title>
<g id="a_node6"><a xlink:href="../../d7/de7/classopenage_1_1_game_spec_handle.xhtml#ab95bd8daf4250f175a5ebb3c6753277d" target="_top" xlink:title="load the game specification if not already present. ">
<polygon fill="#ffffff" stroke="#000000" points="516,-49.5 516,-79.5 655,-79.5 655,-49.5 516,-49.5"/>
<text text-anchor="start" x="524" y="-67.5" font-family="Helvetica,sans-Serif" font-size="10.00" fill="#000000">openage::GameSpecHandle</text>
<text text-anchor="middle" x="585.5" y="-56.5" font-family="Helvetica,sans-Serif" font-size="10.00" fill="#000000">::start_loading_if_needed</text>
</a>
</g>
</g>
<!-- Node45&#45;&gt;Node46 -->
<g id="edge5" class="edge">
<title>Node45&#45;&gt;Node46</title>
<path fill="none" stroke="#191970" d="M486.6138,-64.5C496.3691,-64.5 506.2797,-64.5 515.8722,-64.5"/>
<polygon fill="#191970" stroke="#191970" points="486.5239,-61.0001 476.5239,-64.5 486.5238,-68.0001 486.5239,-61.0001"/>
</g>
<!-- Node47 -->
<g id="node7" class="node">
<title>Node47</title>
<g id="a_node7"><a xlink:href="../../d7/de7/classopenage_1_1_game_spec_handle.xhtml#a019a81d88722206e82c7b5c87ddfe04f" target="_top" xlink:title="forget everything about the specification and reload it with start_loading_if_needed. ">
<polygon fill="#ffffff" stroke="#000000" points="691,-98.5 691,-128.5 830,-128.5 830,-98.5 691,-98.5"/>
<text text-anchor="start" x="699" y="-116.5" font-family="Helvetica,sans-Serif" font-size="10.00" fill="#000000">openage::GameSpecHandle</text>
<text text-anchor="middle" x="760.5" y="-105.5" font-family="Helvetica,sans-Serif" font-size="10.00" fill="#000000">::invalidate</text>
</a>
</g>
</g>
<!-- Node46&#45;&gt;Node47 -->
<g id="edge6" class="edge">
<title>Node46&#45;&gt;Node47</title>
<path fill="none" stroke="#191970" d="M649.1473,-82.3212C668.042,-87.6118 688.5434,-93.3522 706.7444,-98.4484"/>
<polygon fill="#191970" stroke="#191970" points="650.0071,-78.9274 639.4337,-79.6014 648.1196,-85.6682 650.0071,-78.9274"/>
</g>
<!-- Node48 -->
<g id="node8" class="node">
<title>Node48</title>
<g id="a_node8"><a xlink:href="../../d7/de7/classopenage_1_1_game_spec_handle.xhtml#ab7fe02e9268aff99041da5e2684d2e4d" target="_top" xlink:title="Control whether this specification can be loaded (=true) or will not be loaded (=false). ">
<polygon fill="#ffffff" stroke="#000000" points="691,-49.5 691,-79.5 830,-79.5 830,-49.5 691,-49.5"/>
<text text-anchor="start" x="699" y="-67.5" font-family="Helvetica,sans-Serif" font-size="10.00" fill="#000000">openage::GameSpecHandle</text>
<text text-anchor="middle" x="760.5" y="-56.5" font-family="Helvetica,sans-Serif" font-size="10.00" fill="#000000">::set_active</text>
</a>
</g>
</g>
<!-- Node46&#45;&gt;Node48 -->
<g id="edge7" class="edge">
<title>Node46&#45;&gt;Node48</title>
<path fill="none" stroke="#191970" d="M665.4246,-64.5C673.8899,-64.5 682.4506,-64.5 690.7863,-64.5"/>
<polygon fill="#191970" stroke="#191970" points="665.1675,-61.0001 655.1675,-64.5 665.1674,-68.0001 665.1675,-61.0001"/>
</g>
<!-- Node50 -->
<g id="node10" class="node">
<title>Node50</title>
<g id="a_node10"><a xlink:href="../../d7/de7/classopenage_1_1_game_spec_handle.xhtml#ad9c03812749a8ac9b21960e0f5bb462e" target="_top" xlink:title="invoked from qml when the asset_manager member is set. ">
<polygon fill="#ffffff" stroke="#000000" points="691,-.5 691,-30.5 830,-30.5 830,-.5 691,-.5"/>
<text text-anchor="start" x="699" y="-18.5" font-family="Helvetica,sans-Serif" font-size="10.00" fill="#000000">openage::GameSpecHandle</text>
<text text-anchor="middle" x="760.5" y="-7.5" font-family="Helvetica,sans-Serif" font-size="10.00" fill="#000000">::set_asset_manager</text>
</a>
</g>
</g>
<!-- Node46&#45;&gt;Node50 -->
<g id="edge9" class="edge">
<title>Node46&#45;&gt;Node50</title>
<path fill="none" stroke="#191970" d="M649.1473,-46.6788C668.042,-41.3882 688.5434,-35.6478 706.7444,-30.5516"/>
<polygon fill="#191970" stroke="#191970" points="648.1196,-43.3318 639.4337,-49.3986 650.0071,-50.0726 648.1196,-43.3318"/>
</g>
<!-- Node49 -->
<g id="node9" class="node">
<title>Node49</title>
<g id="a_node9"><a xlink:href="../../d2/d90/classopenage_1_1gui_1_1_game_spec_link.xhtml#a65d2c73c99d6724ead9ca41556253c56" target="_top" xlink:title="openage::gui::GameSpecLink\l::set_active">
<polygon fill="#ffffff" stroke="#000000" points="866,-49.5 866,-79.5 1011,-79.5 1011,-49.5 866,-49.5"/>
<text text-anchor="start" x="874" y="-67.5" font-family="Helvetica,sans-Serif" font-size="10.00" fill="#000000">openage::gui::GameSpecLink</text>
<text text-anchor="middle" x="938.5" y="-56.5" font-family="Helvetica,sans-Serif" font-size="10.00" fill="#000000">::set_active</text>
</a>
</g>
</g>
<!-- Node48&#45;&gt;Node49 -->
<g id="edge8" class="edge">
<title>Node48&#45;&gt;Node49</title>
<path fill="none" stroke="#191970" d="M840.3282,-64.5C848.789,-64.5 857.3615,-64.5 865.7355,-64.5"/>
<polygon fill="#191970" stroke="#191970" points="840.0842,-61.0001 830.0842,-64.5 840.0842,-68.0001 840.0842,-61.0001"/>
</g>
<!-- Node51 -->
<g id="node11" class="node">
<title>Node51</title>
<g id="a_node11"><a xlink:href="../../d2/d90/classopenage_1_1gui_1_1_game_spec_link.xhtml#acee4b3764eaa0e07144e164b8b7bdca0" target="_top" xlink:title="openage::gui::GameSpecLink\l::set_asset_manager">
<polygon fill="#ffffff" stroke="#000000" points="866,-.5 866,-30.5 1011,-30.5 1011,-.5 866,-.5"/>
<text text-anchor="start" x="874" y="-18.5" font-family="Helvetica,sans-Serif" font-size="10.00" fill="#000000">openage::gui::GameSpecLink</text>
<text text-anchor="middle" x="938.5" y="-7.5" font-family="Helvetica,sans-Serif" font-size="10.00" fill="#000000">::set_asset_manager</text>
</a>
</g>
</g>
<!-- Node50&#45;&gt;Node51 -->
<g id="edge10" class="edge">
<title>Node50&#45;&gt;Node51</title>
<path fill="none" stroke="#191970" d="M840.3282,-15.5C848.789,-15.5 857.3615,-15.5 865.7355,-15.5"/>
<polygon fill="#191970" stroke="#191970" points="840.0842,-12.0001 830.0842,-15.5 840.0842,-19.0001 840.0842,-12.0001"/>
</g>
</g>
</svg>
        <g id="navigator" transform="translate(0 0)" fill="#404254">
                <rect fill="#f2f5e9" fill-opacity="0.5" stroke="#606060" stroke-width=".5" x="0" y="0" width="60" height="60"/>
                <use id="zoomplus" xlink:href="#zoomPlus" x="17" y="9" onmousedown="handleZoom(evt,'in')"/>
                <use id="zoomminus" xlink:href="#zoomMin" x="42" y="9" onmousedown="handleZoom(evt,'out')"/>
                <use id="reset" xlink:href="#resetDef" x="30" y="36" onmousedown="handleReset()"/>
                <g id="arrowUp" xlink:href="#dirArrow" transform="translate(30 24)" onmousedown="handlePan(0,-1)">
                  <use xlink:href="#rim" fill="#404040">
                        <set attributeName="fill" to="#808080" begin="arrowUp.mouseover" end="arrowUp.mouseout"/>
                  </use>
                  <path fill="none" stroke="white" stroke-width="1.5" d="M0,-3.0v7 M-2.5,-0.5L0,-3.0L2.5,-0.5"/>
                </g>
                <g id="arrowRight" xlink:href="#dirArrow" transform="rotate(90) translate(36 -43)" onmousedown="handlePan(1,0)">
                  <use xlink:href="#rim" fill="#404040">
                        <set attributeName="fill" to="#808080" begin="arrowRight.mouseover" end="arrowRight.mouseout"/>
                  </use>
                  <path fill="none" stroke="white" stroke-width="1.5" d="M0,-3.0v7 M-2.5,-0.5L0,-3.0L2.5,-0.5"/>
                </g>
                <g id="arrowDown" xlink:href="#dirArrow" transform="rotate(180) translate(-30 -48)" onmousedown="handlePan(0,1)">
                  <use xlink:href="#rim" fill="#404040">
                        <set attributeName="fill" to="#808080" begin="arrowDown.mouseover" end="arrowDown.mouseout"/>
                  </use>
                  <path fill="none" stroke="white" stroke-width="1.5" d="M0,-3.0v7 M-2.5,-0.5L0,-3.0L2.5,-0.5"/>
                </g>
                <g id="arrowLeft" xlink:href="#dirArrow" transform="rotate(270) translate(-36 17)" onmousedown="handlePan(-1,0)">
                  <use xlink:href="#rim" fill="#404040">
                        <set attributeName="fill" to="#808080" begin="arrowLeft.mouseover" end="arrowLeft.mouseout"/>
                  </use>
                  <path fill="none" stroke="white" stroke-width="1.5" d="M0,-3.0v7 M-2.5,-0.5L0,-3.0L2.5,-0.5"/>
                </g>
        </g>
        <svg viewBox="0 0 15 15" width="100%" height="30px" preserveAspectRatio="xMaxYMin meet">
         <g id="arrow_out" transform="scale(0.3 0.3)">
          <a xlink:href="classopenage_1_1job_1_1_job_manager_a0f13eaafaebb859ca13dad1884c18031_icgraph_org.svg" target="_base">
           <rect id="button" ry="5" rx="5" y="6" x="6" height="38" width="38"
                fill="#f2f5e9" fill-opacity="0.5" stroke="#606060" stroke-width="1.0"/>
           <path id="arrow"
             d="M 11.500037,31.436501 C 11.940474,20.09759 22.043105,11.32322 32.158766,21.979434 L 37.068811,17.246167 C 37.068811,17.246167 37.088388,32 37.088388,32 L 22.160133,31.978069 C 22.160133,31.978069 26.997745,27.140456 26.997745,27.140456 C 18.528582,18.264221 13.291696,25.230495 11.500037,31.436501 z"
             style="fill:#404040;"/>
          </a>
         </g>
        </svg>
</svg>
