<?xml version="1.0" encoding="UTF-8" standalone="no"?>
<!DOCTYPE svg PUBLIC "-//W3C//DTD SVG 1.1//EN"
 "http://www.w3.org/Graphics/SVG/1.1/DTD/svg11.dtd">
<!-- Generated by graphviz version 2.40.1 (20161225.0304)
 -->
<!-- Title: openage::BuildAbility::invoke Pages: 1 -->
<svg width="1001pt" height="495pt"
 viewBox="0.00 0.00 1001.00 494.50" xmlns="http://www.w3.org/2000/svg" xmlns:xlink="http://www.w3.org/1999/xlink">
<g id="graph0" class="graph" transform="scale(1 1) rotate(0) translate(4 490.5)">
<title>openage::BuildAbility::invoke</title>
<polygon fill="#ffffff" stroke="transparent" points="-4,4 -4,-490.5 997,-490.5 997,4 -4,4"/>
<!-- Node21 -->
<g id="node1" class="node">
<title>Node21</title>
<polygon fill="#bfbfbf" stroke="#000000" points="0,-347.5 0,-377.5 108,-377.5 108,-347.5 0,-347.5"/>
<text text-anchor="start" x="8" y="-365.5" font-family="Helvetica,sans-Serif" font-size="10.00" fill="#000000">openage::BuildAbility</text>
<text text-anchor="middle" x="54" y="-354.5" font-family="Helvetica,sans-Serif" font-size="10.00" fill="#000000">::invoke</text>
</g>
<!-- Node22 -->
<g id="node2" class="node">
<title>Node22</title>
<g id="a_node2"><a xlink:href="../../dd/d1a/namespaceopenage_1_1log.xhtml#a5cb08687f485da2549d7eebef26368a6" target="_top" xlink:title="debug message ">
<polygon fill="#ffffff" stroke="#000000" points="173.5,-467 173.5,-486 261.5,-486 261.5,-467 173.5,-467"/>
<text text-anchor="middle" x="217.5" y="-474" font-family="Helvetica,sans-Serif" font-size="10.00" fill="#000000">openage.log.dbg</text>
</a>
</g>
</g>
<!-- Node21&#45;&gt;Node22 -->
<g id="edge1" class="edge">
<title>Node21&#45;&gt;Node22</title>
<path fill="none" stroke="#191970" d="M64.0205,-377.5082C78.9241,-398.6297 108.9674,-436.8469 144,-457.5 149.9501,-461.0078 156.5442,-463.8756 163.2693,-466.2186"/>
<polygon fill="#191970" stroke="#191970" points="162.5683,-469.6657 173.1564,-469.289 164.6444,-462.9806 162.5683,-469.6657"/>
</g>
<!-- Node23 -->
<g id="node3" class="node">
<title>Node23</title>
<g id="a_node3"><a xlink:href="../../df/dea/classopenage_1_1_unit.xhtml#adfea298b04684ab09dd8f499dabb8715" target="_top" xlink:title="get a reference which can check against the container to ensure this object still exists ...">
<polygon fill="#ffffff" stroke="#000000" points="161,-429 161,-448 274,-448 274,-429 161,-429"/>
<text text-anchor="middle" x="217.5" y="-436" font-family="Helvetica,sans-Serif" font-size="10.00" fill="#000000">openage::Unit::get_ref</text>
</a>
</g>
</g>
<!-- Node21&#45;&gt;Node23 -->
<g id="edge2" class="edge">
<title>Node21&#45;&gt;Node23</title>
<path fill="none" stroke="#191970" d="M73.7198,-377.5458C91.3119,-390.3263 118.2036,-408.3259 144,-419.5 149.5009,-421.8828 155.3673,-424.0187 161.2957,-425.9201"/>
<polygon fill="#191970" stroke="#191970" points="160.6942,-429.3932 171.2776,-428.9011 162.6973,-422.6859 160.6942,-429.3932"/>
</g>
<!-- Node24 -->
<g id="node4" class="node">
<title>Node24</title>
<g id="a_node4"><a xlink:href="../../d8/dda/classopenage_1_1_command.xhtml#a89702d889840a84d4f1cadd017b4e8c2" target="_top" xlink:title="openage::Command::has_unit">
<polygon fill="#ffffff" stroke="#000000" points="144,-391 144,-410 291,-410 291,-391 144,-391"/>
<text text-anchor="middle" x="217.5" y="-398" font-family="Helvetica,sans-Serif" font-size="10.00" fill="#000000">openage::Command::has_unit</text>
</a>
</g>
</g>
<!-- Node21&#45;&gt;Node24 -->
<g id="edge3" class="edge">
<title>Node21&#45;&gt;Node24</title>
<path fill="none" stroke="#191970" d="M108.4431,-375.1534C127.176,-379.5073 148.0701,-384.3634 166.5171,-388.6508"/>
<polygon fill="#191970" stroke="#191970" points="165.9516,-392.1126 176.4844,-390.9673 167.5364,-385.2943 165.9516,-392.1126"/>
</g>
<!-- Node25 -->
<g id="node5" class="node">
<title>Node25</title>
<g id="a_node5"><a xlink:href="../../de/de3/classopenage_1_1log_1_1_log_source.xhtml#a5640099e20af4cd368c767dbcef3a1df" target="_top" xlink:title="Logs a message (get one via MSG(level)). ">
<polygon fill="#ffffff" stroke="#000000" points="518,-353 518,-372 661,-372 661,-353 518,-353"/>
<text text-anchor="middle" x="589.5" y="-360" font-family="Helvetica,sans-Serif" font-size="10.00" fill="#000000">openage::log::LogSource::log</text>
</a>
</g>
</g>
<!-- Node21&#45;&gt;Node25 -->
<g id="edge4" class="edge">
<title>Node21&#45;&gt;Node25</title>
<path fill="none" stroke="#191970" d="M108.2935,-362.5C202.537,-362.5 396.9022,-362.5 507.6062,-362.5"/>
<polygon fill="#191970" stroke="#191970" points="507.7241,-366.0001 517.7241,-362.5 507.7241,-359.0001 507.7241,-366.0001"/>
</g>
<!-- Node29 -->
<g id="node9" class="node">
<title>Node29</title>
<g id="a_node9"><a xlink:href="../../d6/d57/classopenage_1_1_sound.xhtml#a526acd600cd69f6f421a253fc169398b" target="_top" xlink:title="openage::Sound::play">
<polygon fill="#ffffff" stroke="#000000" points="162,-255 162,-274 273,-274 273,-255 162,-255"/>
<text text-anchor="middle" x="217.5" y="-262" font-family="Helvetica,sans-Serif" font-size="10.00" fill="#000000">openage::Sound::play</text>
</a>
</g>
</g>
<!-- Node21&#45;&gt;Node29 -->
<g id="edge8" class="edge">
<title>Node21&#45;&gt;Node29</title>
<path fill="none" stroke="#191970" d="M79.1886,-347.4023C110.0364,-328.9124 161.9595,-297.7904 192.6515,-279.3939"/>
<polygon fill="#191970" stroke="#191970" points="194.6703,-282.2645 201.4481,-274.1213 191.0715,-276.2604 194.6703,-282.2645"/>
</g>
<!-- Node42 -->
<g id="node22" class="node">
<title>Node42</title>
<g id="a_node22"><a xlink:href="../../df/dea/classopenage_1_1_unit.xhtml#aecd686fafc67487f4df4d3637f2621f4" target="_top" xlink:title="adds a new action on top of the action stack will be performed immediately ">
<polygon fill="#ffffff" stroke="#000000" points="165.5,-205.5 165.5,-235.5 269.5,-235.5 269.5,-205.5 165.5,-205.5"/>
<text text-anchor="start" x="173.5" y="-223.5" font-family="Helvetica,sans-Serif" font-size="10.00" fill="#000000">openage::Unit::push</text>
<text text-anchor="middle" x="217.5" y="-212.5" font-family="Helvetica,sans-Serif" font-size="10.00" fill="#000000">_action</text>
</a>
</g>
</g>
<!-- Node21&#45;&gt;Node42 -->
<g id="edge22" class="edge">
<title>Node21&#45;&gt;Node42</title>
<path fill="none" stroke="#191970" d="M61.8149,-347.2655C75.2964,-322.4409 105.2467,-273.2531 144,-245.5 147.7378,-242.8232 151.7843,-240.4159 155.991,-238.2538"/>
<polygon fill="#191970" stroke="#191970" points="157.7914,-241.2774 165.3984,-233.9028 154.8529,-234.924 157.7914,-241.2774"/>
</g>
<!-- Node46 -->
<g id="node26" class="node">
<title>Node46</title>
<g id="a_node26"><a xlink:href="../../d8/dda/classopenage_1_1_command.xhtml#aac8f87a8abd4c2ed97832d42c4954514" target="_top" xlink:title="openage::Command::unit">
<polygon fill="#ffffff" stroke="#000000" points="154.5,-167 154.5,-186 280.5,-186 280.5,-167 154.5,-167"/>
<text text-anchor="middle" x="217.5" y="-174" font-family="Helvetica,sans-Serif" font-size="10.00" fill="#000000">openage::Command::unit</text>
</a>
</g>
</g>
<!-- Node21&#45;&gt;Node46 -->
<g id="edge27" class="edge">
<title>Node21&#45;&gt;Node46</title>
<path fill="none" stroke="#191970" d="M57.7924,-347.4999C66.8424,-314.8442 92.8586,-237.0029 144,-196.5 146.9189,-194.1883 150.0849,-192.1431 153.4083,-190.3338"/>
<polygon fill="#191970" stroke="#191970" points="154.9371,-193.4827 162.5114,-186.0745 151.9705,-187.1424 154.9371,-193.4827"/>
</g>
<!-- Node26 -->
<g id="node6" class="node">
<title>Node26</title>
<g id="a_node6"><a xlink:href="../../dd/d1a/namespaceopenage_1_1log.xhtml#a3d2885be9c3a09b9ff7ee8764b2e5f39" target="_top" xlink:title="Returns a reference to the global stdout logsink object; Initializes the object if needed...">
<polygon fill="#ffffff" stroke="#000000" points="723,-303.5 723,-333.5 827,-333.5 827,-303.5 723,-303.5"/>
<text text-anchor="start" x="731" y="-321.5" font-family="Helvetica,sans-Serif" font-size="10.00" fill="#000000">openage::log::global</text>
<text text-anchor="middle" x="775" y="-310.5" font-family="Helvetica,sans-Serif" font-size="10.00" fill="#000000">_stdoutsink</text>
</a>
</g>
</g>
<!-- Node25&#45;&gt;Node26 -->
<g id="edge5" class="edge">
<title>Node25&#45;&gt;Node26</title>
<path fill="none" stroke="#191970" d="M629.7507,-352.9527C654.0457,-347.19 685.5063,-339.7276 712.933,-333.2221"/>
<polygon fill="#191970" stroke="#191970" points="713.912,-336.5871 722.8343,-330.8735 712.2964,-329.776 713.912,-336.5871"/>
</g>
<!-- Node27 -->
<g id="node7" class="node">
<title>Node27</title>
<g id="a_node7"><a xlink:href="../../d0/d58/classopenage_1_1log_1_1_log_sink_list.xhtml#a2d47416fab12651553b4b58c86fd6f84" target="_top" xlink:title="openage::log::LogSinkList\l::instance">
<polygon fill="#ffffff" stroke="#000000" points="710.5,-391.5 710.5,-421.5 839.5,-421.5 839.5,-391.5 710.5,-391.5"/>
<text text-anchor="start" x="718.5" y="-409.5" font-family="Helvetica,sans-Serif" font-size="10.00" fill="#000000">openage::log::LogSinkList</text>
<text text-anchor="middle" x="775" y="-398.5" font-family="Helvetica,sans-Serif" font-size="10.00" fill="#000000">::instance</text>
</a>
</g>
</g>
<!-- Node25&#45;&gt;Node27 -->
<g id="edge6" class="edge">
<title>Node25&#45;&gt;Node27</title>
<path fill="none" stroke="#191970" d="M629.7507,-372.0473C650.7291,-377.0233 677.0503,-383.2666 701.5036,-389.0669"/>
<polygon fill="#191970" stroke="#191970" points="700.948,-392.5321 711.4858,-391.4346 702.5636,-385.7211 700.948,-392.5321"/>
</g>
<!-- Node28 -->
<g id="node8" class="node">
<title>Node28</title>
<g id="a_node8"><a xlink:href="../../d0/d58/classopenage_1_1log_1_1_log_sink_list.xhtml#a8456b84ab55e1fe151c51438c5bfebdd" target="_top" xlink:title="openage::log::LogSinkList::log">
<polygon fill="#ffffff" stroke="#000000" points="701,-353 701,-372 849,-372 849,-353 701,-353"/>
<text text-anchor="middle" x="775" y="-360" font-family="Helvetica,sans-Serif" font-size="10.00" fill="#000000">openage::log::LogSinkList::log</text>
</a>
</g>
</g>
<!-- Node25&#45;&gt;Node28 -->
<g id="edge7" class="edge">
<title>Node25&#45;&gt;Node28</title>
<path fill="none" stroke="#191970" d="M661.2191,-362.5C670.829,-362.5 680.7567,-362.5 690.5597,-362.5"/>
<polygon fill="#191970" stroke="#191970" points="690.7117,-366.0001 700.7117,-362.5 690.7117,-359.0001 690.7117,-366.0001"/>
</g>
<!-- Node30 -->
<g id="node10" class="node">
<title>Node30</title>
<g id="a_node10"><a xlink:href="../../d8/d88/namespaceopenage_1_1rng.xhtml#a398e36f7942536cd461ca212dfee6cb5" target="_top" xlink:title="Returns a random number n [lower, upper) from the global rng. ">
<polygon fill="#ffffff" stroke="#000000" points="347,-227.5 347,-257.5 458,-257.5 458,-227.5 347,-227.5"/>
<text text-anchor="start" x="355" y="-245.5" font-family="Helvetica,sans-Serif" font-size="10.00" fill="#000000">openage::rng::random</text>
<text text-anchor="middle" x="402.5" y="-234.5" font-family="Helvetica,sans-Serif" font-size="10.00" fill="#000000">_range</text>
</a>
</g>
</g>
<!-- Node29&#45;&gt;Node30 -->
<g id="edge9" class="edge">
<title>Node29&#45;&gt;Node30</title>
<path fill="none" stroke="#191970" d="M273.0061,-257.8993C293.0368,-255.5172 315.8386,-252.8057 336.6677,-250.3287"/>
<polygon fill="#191970" stroke="#191970" points="337.1969,-253.7905 346.7136,-249.1341 336.3702,-246.8395 337.1969,-253.7905"/>
</g>
<!-- Node34 -->
<g id="node14" class="node">
<title>Node34</title>
<g id="a_node14"><a xlink:href="../../d0/d62/classopenage_1_1audio_1_1_audio_manager.xhtml#a6df7195e7f02f6959a9a241037e48657" target="_top" xlink:title="If this audio manager is available. ">
<polygon fill="#ffffff" stroke="#000000" points="327,-178.5 327,-208.5 478,-208.5 478,-178.5 327,-178.5"/>
<text text-anchor="start" x="335" y="-196.5" font-family="Helvetica,sans-Serif" font-size="10.00" fill="#000000">openage::audio::AudioManager</text>
<text text-anchor="middle" x="402.5" y="-185.5" font-family="Helvetica,sans-Serif" font-size="10.00" fill="#000000">::is_available</text>
</a>
</g>
</g>
<!-- Node29&#45;&gt;Node34 -->
<g id="edge13" class="edge">
<title>Node29&#45;&gt;Node34</title>
<path fill="none" stroke="#191970" d="M265.5187,-254.9808C274.2147,-252.4521 283.0418,-249.3269 291,-245.5 309.0243,-236.8325 309.2752,-227.7645 327,-218.5 331.214,-216.2974 335.6606,-214.2349 340.2008,-212.3149"/>
<polygon fill="#191970" stroke="#191970" points="341.6084,-215.5218 349.6073,-208.5742 339.0217,-209.0172 341.6084,-215.5218"/>
</g>
<!-- Node35 -->
<g id="node15" class="node">
<title>Node35</title>
<g id="a_node15"><a xlink:href="../../d0/d62/classopenage_1_1audio_1_1_audio_manager.xhtml#a4fcd0ea2e63f5035df72bdceb0ac22f2" target="_top" xlink:title="Returns a sound object with the given category and the given id. ">
<polygon fill="#ffffff" stroke="#000000" points="514,-137.5 514,-167.5 665,-167.5 665,-137.5 514,-137.5"/>
<text text-anchor="start" x="522" y="-155.5" font-family="Helvetica,sans-Serif" font-size="10.00" fill="#000000">openage::audio::AudioManager</text>
<text text-anchor="middle" x="589.5" y="-144.5" font-family="Helvetica,sans-Serif" font-size="10.00" fill="#000000">::get_sound</text>
</a>
</g>
</g>
<!-- Node29&#45;&gt;Node35 -->
<g id="edge14" class="edge">
<title>Node29&#45;&gt;Node35</title>
<path fill="none" stroke="#191970" d="M273.0705,-255.8511C279.5481,-253.2426 285.7173,-249.8662 291,-245.5 319.8093,-221.689 296.0799,-190.4972 327,-169.5 378.2163,-134.7201 448.7989,-132.0079 503.8756,-137.1539"/>
<polygon fill="#191970" stroke="#191970" points="503.6634,-140.6506 513.971,-138.2002 504.3851,-133.6879 503.6634,-140.6506"/>
</g>
<!-- Node37 -->
<g id="node17" class="node">
<title>Node37</title>
<g id="a_node17"><a xlink:href="../../d9/de9/classopenage_1_1audio_1_1_sound.xhtml#a7e4854e55386f2498a332eed36e374d4" target="_top" xlink:title="Resets the sound to it&#39;s beginning and starts playing it. ">
<polygon fill="#ffffff" stroke="#000000" points="344.5,-90.5 344.5,-120.5 460.5,-120.5 460.5,-90.5 344.5,-90.5"/>
<text text-anchor="start" x="352.5" y="-108.5" font-family="Helvetica,sans-Serif" font-size="10.00" fill="#000000">openage::audio::Sound</text>
<text text-anchor="middle" x="402.5" y="-97.5" font-family="Helvetica,sans-Serif" font-size="10.00" fill="#000000">::play</text>
</a>
</g>
</g>
<!-- Node29&#45;&gt;Node37 -->
<g id="edge16" class="edge">
<title>Node29&#45;&gt;Node37</title>
<path fill="none" stroke="#191970" d="M273.2455,-256.6239C279.7721,-253.896 285.9067,-250.2805 291,-245.5 328.5071,-210.2957 291.7697,-172.9827 327,-135.5 330.384,-131.8997 334.2555,-128.723 338.418,-125.9213"/>
<polygon fill="#191970" stroke="#191970" points="340.4696,-128.7748 347.3072,-120.6817 336.9151,-122.7444 340.4696,-128.7748"/>
</g>
<!-- Node39 -->
<g id="node19" class="node">
<title>Node39</title>
<g id="a_node19"><a xlink:href="../../dd/d1a/namespaceopenage_1_1log.xhtml#a0eff614e7d6e818746700ed9d29e583f" target="_top" xlink:title="Convenience method that makes use of the &#39;general&#39; LogSource. ">
<polygon fill="#ffffff" stroke="#000000" points="357,-315 357,-334 448,-334 448,-315 357,-315"/>
<text text-anchor="middle" x="402.5" y="-322" font-family="Helvetica,sans-Serif" font-size="10.00" fill="#000000">openage::log::log</text>
</a>
</g>
</g>
<!-- Node29&#45;&gt;Node39 -->
<g id="edge18" class="edge">
<title>Node29&#45;&gt;Node39</title>
<path fill="none" stroke="#191970" d="M240.7335,-274.0636C262.7213,-282.9073 296.77,-296.0691 327,-305.5 334.7972,-307.9325 343.1203,-310.2753 351.2865,-312.4352"/>
<polygon fill="#191970" stroke="#191970" points="350.5664,-315.864 361.1237,-314.9729 352.315,-309.0859 350.5664,-315.864"/>
</g>
<!-- Node41 -->
<g id="node21" class="node">
<title>Node41</title>
<g id="a_node21"><a xlink:href="../../dd/d1a/namespaceopenage_1_1log.xhtml#a2a1b7ecac013c794375d21d5efd89f87" target="_top" xlink:title="warning message ">
<polygon fill="#ffffff" stroke="#000000" points="356,-277 356,-296 449,-296 449,-277 356,-277"/>
<text text-anchor="middle" x="402.5" y="-284" font-family="Helvetica,sans-Serif" font-size="10.00" fill="#000000">openage.log.warn</text>
</a>
</g>
</g>
<!-- Node29&#45;&gt;Node41 -->
<g id="edge21" class="edge">
<title>Node29&#45;&gt;Node41</title>
<path fill="none" stroke="#191970" d="M273.0061,-271.1007C295.9986,-273.835 322.6422,-277.0034 345.7624,-279.7528"/>
<polygon fill="#191970" stroke="#191970" points="345.4285,-283.2377 355.7719,-280.9431 346.2552,-276.2867 345.4285,-283.2377"/>
</g>
<!-- Node31 -->
<g id="node11" class="node">
<title>Node31</title>
<g id="a_node11"><a xlink:href="../../da/daa/classopenage_1_1rng_1_1_r_n_g.xhtml#ad7b2ba8c495b7ee100b7708b633bc060" target="_top" xlink:title="Returns a random integer in the range [lower, upper]. ">
<polygon fill="#ffffff" stroke="#000000" points="536,-227.5 536,-257.5 643,-257.5 643,-227.5 536,-227.5"/>
<text text-anchor="start" x="544" y="-245.5" font-family="Helvetica,sans-Serif" font-size="10.00" fill="#000000">openage::rng::RNG::</text>
<text text-anchor="middle" x="589.5" y="-234.5" font-family="Helvetica,sans-Serif" font-size="10.00" fill="#000000">random_range</text>
</a>
</g>
</g>
<!-- Node30&#45;&gt;Node31 -->
<g id="edge10" class="edge">
<title>Node30&#45;&gt;Node31</title>
<path fill="none" stroke="#191970" d="M458.0999,-242.5C479.2906,-242.5 503.6078,-242.5 525.5159,-242.5"/>
<polygon fill="#191970" stroke="#191970" points="525.7215,-246.0001 535.7215,-242.5 525.7215,-239.0001 525.7215,-246.0001"/>
</g>
<!-- Node32 -->
<g id="node12" class="node">
<title>Node32</title>
<g id="a_node12"><a xlink:href="../../da/daa/classopenage_1_1rng_1_1_r_n_g.xhtml#a95f8c2c7e00ab2531e0e6c33ae70e154" target="_top" xlink:title="Retrieves a random value from the generator. ">
<polygon fill="#ffffff" stroke="#000000" points="721.5,-227.5 721.5,-257.5 828.5,-257.5 828.5,-227.5 721.5,-227.5"/>
<text text-anchor="start" x="729.5" y="-245.5" font-family="Helvetica,sans-Serif" font-size="10.00" fill="#000000">openage::rng::RNG::</text>
<text text-anchor="middle" x="775" y="-234.5" font-family="Helvetica,sans-Serif" font-size="10.00" fill="#000000">random</text>
</a>
</g>
</g>
<!-- Node31&#45;&gt;Node32 -->
<g id="edge11" class="edge">
<title>Node31&#45;&gt;Node32</title>
<path fill="none" stroke="#191970" d="M643.1543,-242.5C664.4962,-242.5 689.2186,-242.5 711.4488,-242.5"/>
<polygon fill="#191970" stroke="#191970" points="711.4663,-246.0001 721.4663,-242.5 711.4663,-239.0001 711.4663,-246.0001"/>
</g>
<!-- Node33 -->
<g id="node13" class="node">
<title>Node33</title>
<g id="a_node13"><a xlink:href="../../d8/d88/namespaceopenage_1_1rng.xhtml#af7d90437e58aaa4fe1d816ad7b62dc07" target="_top" xlink:title="openage::rng::do_rng">
<polygon fill="#ffffff" stroke="#000000" points="885,-233 885,-252 993,-252 993,-233 885,-233"/>
<text text-anchor="middle" x="939" y="-240" font-family="Helvetica,sans-Serif" font-size="10.00" fill="#000000">openage::rng::do_rng</text>
</a>
</g>
</g>
<!-- Node32&#45;&gt;Node33 -->
<g id="edge12" class="edge">
<title>Node32&#45;&gt;Node33</title>
<path fill="none" stroke="#191970" d="M828.6997,-242.5C843.3486,-242.5 859.371,-242.5 874.5513,-242.5"/>
<polygon fill="#191970" stroke="#191970" points="874.8991,-246.0001 884.8991,-242.5 874.899,-239.0001 874.8991,-246.0001"/>
</g>
<!-- Node36 -->
<g id="node16" class="node">
<title>Node36</title>
<g id="a_node16"><a xlink:href="../../dd/d1a/namespaceopenage_1_1log.xhtml#ab6b4b10be67af93ab6c4d5a36139736e" target="_top" xlink:title="error message ">
<polygon fill="#ffffff" stroke="#000000" points="733.5,-97 733.5,-116 816.5,-116 816.5,-97 733.5,-97"/>
<text text-anchor="middle" x="775" y="-104" font-family="Helvetica,sans-Serif" font-size="10.00" fill="#000000">openage.log.err</text>
</a>
</g>
</g>
<!-- Node35&#45;&gt;Node36 -->
<g id="edge15" class="edge">
<title>Node35&#45;&gt;Node36</title>
<path fill="none" stroke="#191970" d="M650.2396,-137.4379C674.9991,-131.2981 703.2274,-124.298 726.5634,-118.5112"/>
<polygon fill="#191970" stroke="#191970" points="727.7112,-121.8327 736.5748,-116.0286 726.0264,-115.0385 727.7112,-121.8327"/>
</g>
<!-- Node38 -->
<g id="node18" class="node">
<title>Node38</title>
<g id="a_node18"><a xlink:href="../../d0/d62/classopenage_1_1audio_1_1_audio_manager.xhtml#a558810ebb9233d8f80da70d48b0bf282" target="_top" xlink:title="openage::audio::AudioManager\l::add_sound">
<polygon fill="#ffffff" stroke="#000000" points="514,-88.5 514,-118.5 665,-118.5 665,-88.5 514,-88.5"/>
<text text-anchor="start" x="522" y="-106.5" font-family="Helvetica,sans-Serif" font-size="10.00" fill="#000000">openage::audio::AudioManager</text>
<text text-anchor="middle" x="589.5" y="-95.5" font-family="Helvetica,sans-Serif" font-size="10.00" fill="#000000">::add_sound</text>
</a>
</g>
</g>
<!-- Node37&#45;&gt;Node38 -->
<g id="edge17" class="edge">
<title>Node37&#45;&gt;Node38</title>
<path fill="none" stroke="#191970" d="M460.6429,-104.8782C474.3196,-104.7319 489.1799,-104.5729 503.7851,-104.4167"/>
<polygon fill="#191970" stroke="#191970" points="503.876,-107.9161 513.8379,-104.3092 503.801,-100.9165 503.876,-107.9161"/>
</g>
<!-- Node39&#45;&gt;Node25 -->
<g id="edge20" class="edge">
<title>Node39&#45;&gt;Node25</title>
<path fill="none" stroke="#191970" d="M448.2453,-333.7958C473.6531,-338.9589 505.492,-345.4289 532.5072,-350.9186"/>
<polygon fill="#191970" stroke="#191970" points="532.1047,-354.4082 542.6014,-352.9698 533.4987,-347.5484 532.1047,-354.4082"/>
</g>
<!-- Node40 -->
<g id="node20" class="node">
<title>Node40</title>
<g id="a_node20"><a xlink:href="../../dd/d1a/namespaceopenage_1_1log.xhtml#a3fbb0c225d01e222648ec28a43507188" target="_top" xlink:title="Returns a reference to a general named log source, for use by log::log(). ">
<polygon fill="#ffffff" stroke="#000000" points="534.5,-303.5 534.5,-333.5 644.5,-333.5 644.5,-303.5 534.5,-303.5"/>
<text text-anchor="start" x="542.5" y="-321.5" font-family="Helvetica,sans-Serif" font-size="10.00" fill="#000000">openage::log::general</text>
<text text-anchor="middle" x="589.5" y="-310.5" font-family="Helvetica,sans-Serif" font-size="10.00" fill="#000000">_source</text>
</a>
</g>
</g>
<!-- Node39&#45;&gt;Node40 -->
<g id="edge19" class="edge">
<title>Node39&#45;&gt;Node40</title>
<path fill="none" stroke="#191970" d="M448.2453,-323.0322C471.0534,-322.3004 499.0439,-321.4023 524.0753,-320.5992"/>
<polygon fill="#191970" stroke="#191970" points="524.3492,-324.0923 534.2318,-320.2733 524.1246,-317.0959 524.3492,-324.0923"/>
</g>
<!-- Node43 -->
<g id="node23" class="node">
<title>Node43</title>
<g id="a_node23"><a xlink:href="../../df/dea/classopenage_1_1_unit.xhtml#a21542f7813db482fd36799cf12971979" target="_top" xlink:title="true when the unit is alive and able to add new actions ">
<polygon fill="#ffffff" stroke="#000000" points="346,-41.5 346,-71.5 459,-71.5 459,-41.5 346,-41.5"/>
<text text-anchor="start" x="354" y="-59.5" font-family="Helvetica,sans-Serif" font-size="10.00" fill="#000000">openage::Unit::accept</text>
<text text-anchor="middle" x="402.5" y="-48.5" font-family="Helvetica,sans-Serif" font-size="10.00" fill="#000000">_commands</text>
</a>
</g>
</g>
<!-- Node42&#45;&gt;Node43 -->
<g id="edge23" class="edge">
<title>Node42&#45;&gt;Node43</title>
<path fill="none" stroke="#191970" d="M269.712,-209.6469C277.5954,-206.1664 285.062,-201.5699 291,-195.5 328.1555,-157.5187 289.691,-119.3306 327,-81.5 329.9995,-78.4586 333.3767,-75.7871 336.9965,-73.4406"/>
<polygon fill="#191970" stroke="#191970" points="338.7808,-76.4532 345.8192,-68.5342 335.3787,-70.3355 338.7808,-76.4532"/>
</g>
<!-- Node44 -->
<g id="node24" class="node">
<title>Node44</title>
<g id="a_node24"><a xlink:href="../../df/dea/classopenage_1_1_unit.xhtml#a257ef8a7aeceb306d372ef745b40ef90" target="_top" xlink:title="checks the entity has an action, if it has no action it should be removed from the game ...">
<polygon fill="#ffffff" stroke="#000000" points="540,-.5 540,-30.5 639,-30.5 639,-.5 540,-.5"/>
<text text-anchor="start" x="548" y="-18.5" font-family="Helvetica,sans-Serif" font-size="10.00" fill="#000000">openage::Unit::has</text>
<text text-anchor="middle" x="589.5" y="-7.5" font-family="Helvetica,sans-Serif" font-size="10.00" fill="#000000">_action</text>
</a>
</g>
</g>
<!-- Node43&#45;&gt;Node44 -->
<g id="edge24" class="edge">
<title>Node43&#45;&gt;Node44</title>
<path fill="none" stroke="#191970" d="M459.1136,-44.0874C481.4938,-39.1805 507.2318,-33.5374 529.8965,-28.5681"/>
<polygon fill="#191970" stroke="#191970" points="530.7173,-31.9714 539.7357,-26.4109 529.2181,-25.1338 530.7173,-31.9714"/>
</g>
<!-- Node45 -->
<g id="node25" class="node">
<title>Node45</title>
<g id="a_node25"><a xlink:href="../../df/dea/classopenage_1_1_unit.xhtml#a86a49987e082055274e98a142baffad8" target="_top" xlink:title="returns the current action on top of the stack ">
<polygon fill="#ffffff" stroke="#000000" points="541,-50 541,-69 638,-69 638,-50 541,-50"/>
<text text-anchor="middle" x="589.5" y="-57" font-family="Helvetica,sans-Serif" font-size="10.00" fill="#000000">openage::Unit::top</text>
</a>
</g>
</g>
<!-- Node43&#45;&gt;Node45 -->
<g id="edge25" class="edge">
<title>Node43&#45;&gt;Node45</title>
<path fill="none" stroke="#191970" d="M459.1136,-57.4082C481.7663,-57.7717 507.8591,-58.1903 530.7231,-58.5571"/>
<polygon fill="#191970" stroke="#191970" points="530.9221,-62.0606 540.977,-58.7216 531.0344,-55.0615 530.9221,-62.0606"/>
</g>
<!-- Node45&#45;&gt;Node36 -->
<g id="edge26" class="edge">
<title>Node45&#45;&gt;Node36</title>
<path fill="none" stroke="#191970" d="M627.0387,-69.0112C655.9837,-76.3449 696.2079,-86.5365 727.4111,-94.4424"/>
<polygon fill="#191970" stroke="#191970" points="726.6459,-97.8591 737.1992,-96.9224 728.3652,-91.0735 726.6459,-97.8591"/>
</g>
</g>
</svg>
