<?xml version="1.0" encoding="UTF-8" standalone="no"?>
<!DOCTYPE svg PUBLIC "-//W3C//DTD SVG 1.1//EN"
 "http://www.w3.org/Graphics/SVG/1.1/DTD/svg11.dtd">
<!-- Generated by graphviz version 2.40.1 (20161225.0304)
 -->
<!-- Title: openage::GameSpecHandle::start_loading_if_needed Pages: 1 -->
<svg width="670pt" height="176pt"
 viewBox="0.00 0.00 670.00 175.50" xmlns="http://www.w3.org/2000/svg" xmlns:xlink="http://www.w3.org/1999/xlink">
<g id="graph0" class="graph" transform="scale(1 1) rotate(0) translate(4 171.5)">
<title>openage::GameSpecHandle::start_loading_if_needed</title>
<polygon fill="#ffffff" stroke="transparent" points="-4,4 -4,-171.5 666,-171.5 666,4 -4,4"/>
<!-- Node63 -->
<g id="node1" class="node">
<title>Node63</title>
<polygon fill="#bfbfbf" stroke="#000000" points="0,-63 0,-93 139,-93 139,-63 0,-63"/>
<text text-anchor="start" x="8" y="-81" font-family="Helvetica,sans-Serif" font-size="10.00" fill="#000000">openage::GameSpecHandle</text>
<text text-anchor="middle" x="69.5" y="-70" font-family="Helvetica,sans-Serif" font-size="10.00" fill="#000000">::start_loading_if_needed</text>
</g>
<!-- Node64 -->
<g id="node2" class="node">
<title>Node64</title>
<g id="a_node2"><a xlink:href="../../d7/de7/classopenage_1_1_game_spec_handle.xhtml#afcf8867f4e0077e6a8a2a6fe6c0c98ff" target="_top" xlink:title="Actually dispatch the loading job to the job manager. ">
<polygon fill="#ffffff" stroke="#000000" points="175,-63 175,-93 314,-93 314,-63 175,-63"/>
<text text-anchor="start" x="183" y="-81" font-family="Helvetica,sans-Serif" font-size="10.00" fill="#000000">openage::GameSpecHandle</text>
<text text-anchor="middle" x="244.5" y="-70" font-family="Helvetica,sans-Serif" font-size="10.00" fill="#000000">::start_load_job</text>
</a>
</g>
</g>
<!-- Node63&#45;&gt;Node64 -->
<g id="edge1" class="edge">
<title>Node63&#45;&gt;Node64</title>
<path fill="none" stroke="#191970" d="M139.1675,-78C147.5024,-78 156.0628,-78 164.5285,-78"/>
<polygon fill="#191970" stroke="#191970" points="164.7864,-81.5001 174.7863,-78 164.7863,-74.5001 164.7864,-81.5001"/>
</g>
<!-- Node65 -->
<g id="node3" class="node">
<title>Node65</title>
<g id="a_node3"><a xlink:href="../../dc/d9a/classopenage_1_1job_1_1_job_manager.xhtml#ab12ca59d9b54653a1106a405a23721b2" target="_top" xlink:title="Enqueues the given function into the job manager&#39;s queue, so that it will be dispatched by one of the...">
<polygon fill="#ffffff" stroke="#000000" points="357,-137 357,-167 488,-167 488,-137 357,-137"/>
<text text-anchor="start" x="365" y="-155" font-family="Helvetica,sans-Serif" font-size="10.00" fill="#000000">openage::job::JobManager</text>
<text text-anchor="middle" x="422.5" y="-144" font-family="Helvetica,sans-Serif" font-size="10.00" fill="#000000">::enqueue</text>
</a>
</g>
</g>
<!-- Node64&#45;&gt;Node65 -->
<g id="edge2" class="edge">
<title>Node64&#45;&gt;Node65</title>
<path fill="none" stroke="#191970" d="M274.0792,-93.2183C294.9923,-103.6801 323.8479,-117.5203 350,-128 354.7248,-129.8933 359.663,-131.7585 364.6442,-133.5615"/>
<polygon fill="#191970" stroke="#191970" points="363.6371,-136.9175 374.2319,-136.9429 365.9654,-130.3161 363.6371,-136.9175"/>
</g>
<!-- Node67 -->
<g id="node5" class="node">
<title>Node67</title>
<g id="a_node5"><a xlink:href="../../d4/dbb/classopenage_1_1_asset_manager.xhtml#a50069b4b3cd4b5fcf8fb5f4b480c721d" target="_top" xlink:title="Return the engine responsible for this asset manager. ">
<polygon fill="#ffffff" stroke="#000000" points="361.5,-88 361.5,-118 483.5,-118 483.5,-88 361.5,-88"/>
<text text-anchor="start" x="369.5" y="-106" font-family="Helvetica,sans-Serif" font-size="10.00" fill="#000000">openage::AssetManager</text>
<text text-anchor="middle" x="422.5" y="-95" font-family="Helvetica,sans-Serif" font-size="10.00" fill="#000000">::get_engine</text>
</a>
</g>
</g>
<!-- Node64&#45;&gt;Node67 -->
<g id="edge4" class="edge">
<title>Node64&#45;&gt;Node67</title>
<path fill="none" stroke="#191970" d="M314.0842,-87.7731C326.2726,-89.4849 338.9718,-91.2685 351.2058,-92.9868"/>
<polygon fill="#191970" stroke="#191970" points="350.9618,-96.4868 361.3515,-94.4117 351.9355,-89.5548 350.9618,-96.4868"/>
</g>
<!-- Node68 -->
<g id="node6" class="node">
<title>Node68</title>
<g id="a_node6"><a xlink:href="../../d6/d40/classopenage_1_1_engine.xhtml#a65102655ef3f9fb0fc8617deb7e80c02" target="_top" xlink:title="return this engine&#39;s job manager. ">
<polygon fill="#ffffff" stroke="#000000" points="368,-39 368,-69 477,-69 477,-39 368,-39"/>
<text text-anchor="start" x="376" y="-57" font-family="Helvetica,sans-Serif" font-size="10.00" fill="#000000">openage::Engine::get</text>
<text text-anchor="middle" x="422.5" y="-46" font-family="Helvetica,sans-Serif" font-size="10.00" fill="#000000">_job_manager</text>
</a>
</g>
</g>
<!-- Node64&#45;&gt;Node68 -->
<g id="edge5" class="edge">
<title>Node64&#45;&gt;Node68</title>
<path fill="none" stroke="#191970" d="M314.0842,-68.6179C328.4429,-66.6819 343.5104,-64.6503 357.6912,-62.7383"/>
<polygon fill="#191970" stroke="#191970" points="358.3949,-66.1751 367.8375,-61.3702 357.4595,-59.2379 358.3949,-66.1751"/>
</g>
<!-- Node69 -->
<g id="node7" class="node">
<title>Node69</title>
<g id="a_node7"><a xlink:href="../../d5/d0e/namespaceopenage_1_1testing_1_1testing.xhtml#ac25bf81db406af62d08113ef7ae9fd6e" target="_top" xlink:title="openage.testing.testing.result">
<polygon fill="#ffffff" stroke="#000000" points="350,-.5 350,-19.5 495,-19.5 495,-.5 350,-.5"/>
<text text-anchor="middle" x="422.5" y="-7.5" font-family="Helvetica,sans-Serif" font-size="10.00" fill="#000000">openage.testing.testing.result</text>
</a>
</g>
</g>
<!-- Node64&#45;&gt;Node69 -->
<g id="edge6" class="edge">
<title>Node64&#45;&gt;Node69</title>
<path fill="none" stroke="#191970" d="M273.4679,-62.8342C294.3399,-52.3334 323.3981,-38.5767 350,-29 356.7335,-26.5759 363.9201,-24.3165 371.0544,-22.2627"/>
<polygon fill="#191970" stroke="#191970" points="371.9982,-25.6332 380.703,-19.5936 370.1318,-18.8866 371.9982,-25.6332"/>
</g>
<!-- Node66 -->
<g id="node4" class="node">
<title>Node66</title>
<g id="a_node4"><a xlink:href="../../dc/d9a/classopenage_1_1job_1_1_job_manager.xhtml#a0f13eaafaebb859ca13dad1884c18031" target="_top" xlink:title="Enqueues the given job into the internal job queue. ">
<polygon fill="#ffffff" stroke="#000000" points="531,-137 531,-167 662,-167 662,-137 531,-137"/>
<text text-anchor="start" x="539" y="-155" font-family="Helvetica,sans-Serif" font-size="10.00" fill="#000000">openage::job::JobManager</text>
<text text-anchor="middle" x="596.5" y="-144" font-family="Helvetica,sans-Serif" font-size="10.00" fill="#000000">::enqueue_state</text>
</a>
</g>
</g>
<!-- Node65&#45;&gt;Node66 -->
<g id="edge3" class="edge">
<title>Node65&#45;&gt;Node66</title>
<path fill="none" stroke="#191970" d="M488.2819,-152C498.8568,-152 509.8771,-152 520.6646,-152"/>
<polygon fill="#191970" stroke="#191970" points="520.9137,-155.5001 530.9137,-152 520.9137,-148.5001 520.9137,-155.5001"/>
</g>
<!-- Node70 -->
<g id="node8" class="node">
<title>Node70</title>
<g id="a_node8"><a xlink:href="../../de/d60/namespaceopenage_1_1util.xhtml#a7bc4421a5f0f57f3a0aba3f96eb8d19c" target="_top" xlink:title="method that behaves similar to python&#39;s &quot;repr&quot;. ">
<polygon fill="#ffffff" stroke="#000000" points="549,-.5 549,-19.5 644,-19.5 644,-.5 549,-.5"/>
<text text-anchor="middle" x="596.5" y="-7.5" font-family="Helvetica,sans-Serif" font-size="10.00" fill="#000000">openage::util::repr</text>
</a>
</g>
</g>
<!-- Node69&#45;&gt;Node70 -->
<g id="edge7" class="edge">
<title>Node69&#45;&gt;Node70</title>
<path fill="none" stroke="#191970" d="M495.0317,-3.3337C509.5218,-3.1647 524.5627,-3.2517 538.4855,-3.5946"/>
<polygon fill="#191970" stroke="#191970" points="538.7863,-7.1051 548.8868,-3.9068 538.9963,-.1083 538.7863,-7.1051"/>
</g>
<!-- Node70&#45;&gt;Node69 -->
<g id="edge8" class="edge">
<title>Node70&#45;&gt;Node69</title>
<path fill="none" stroke="#191970" d="M548.8868,-16.0932C535.3828,-16.5759 520.274,-16.7926 505.3297,-16.7431"/>
<polygon fill="#191970" stroke="#191970" points="505.0575,-13.2411 495.0317,-16.6663 505.0053,-20.2409 505.0575,-13.2411"/>
</g>
</g>
</svg>
