<?xml version="1.0" encoding="UTF-8" standalone="no"?>
<!DOCTYPE svg PUBLIC "-//W3C//DTD SVG 1.1//EN"
 "http://www.w3.org/Graphics/SVG/1.1/DTD/svg11.dtd">
<!-- Generated by graphviz version 2.40.1 (20161225.0304)
 -->
<!-- Title: openage::gui::GuiGameSpecImageProviderImpl Pages: 1 -->
<svg width="298pt" height="497pt"
 viewBox="0.00 0.00 298.00 497.00" xmlns="http://www.w3.org/2000/svg" xmlns:xlink="http://www.w3.org/1999/xlink">
<g id="graph0" class="graph" transform="scale(1 1) rotate(0) translate(4 493)">
<title>openage::gui::GuiGameSpecImageProviderImpl</title>
<polygon fill="#ffffff" stroke="transparent" points="-4,4 -4,-493 294,-493 294,4 -4,4"/>
<!-- Node7 -->
<g id="node1" class="node">
<title>Node7</title>
<polygon fill="#bfbfbf" stroke="#000000" points="46.5,-.5 46.5,-233.5 229.5,-233.5 229.5,-.5 46.5,-.5"/>
<text text-anchor="start" x="54.5" y="-221.5" font-family="Helvetica,sans-Serif" font-size="10.00" fill="#000000">openage::gui::GuiGameSpec</text>
<text text-anchor="middle" x="138" y="-210.5" font-family="Helvetica,sans-Serif" font-size="10.00" fill="#000000">ImageProviderImpl</text>
<polyline fill="none" stroke="#000000" points="46.5,-203.5 229.5,-203.5 "/>
<text text-anchor="start" x="54.5" y="-191.5" font-family="Helvetica,sans-Serif" font-size="10.00" fill="#000000"># loaded_game_spec</text>
<text text-anchor="start" x="54.5" y="-180.5" font-family="Helvetica,sans-Serif" font-size="10.00" fill="#000000"># invalidated</text>
<text text-anchor="start" x="54.5" y="-169.5" font-family="Helvetica,sans-Serif" font-size="10.00" fill="#000000">&#45; filled_handles</text>
<text text-anchor="start" x="54.5" y="-158.5" font-family="Helvetica,sans-Serif" font-size="10.00" fill="#000000">&#45; loaded_game_spec_mutex</text>
<text text-anchor="start" x="54.5" y="-147.5" font-family="Helvetica,sans-Serif" font-size="10.00" fill="#000000">&#45; loaded_game_spec_cond</text>
<text text-anchor="start" x="54.5" y="-136.5" font-family="Helvetica,sans-Serif" font-size="10.00" fill="#000000">&#45; ended</text>
<polyline fill="none" stroke="#000000" points="46.5,-129.5 229.5,-129.5 "/>
<text text-anchor="start" x="54.5" y="-117.5" font-family="Helvetica,sans-Serif" font-size="10.00" fill="#000000">+ GuiGameSpecImageProviderImpl()</text>
<text text-anchor="start" x="54.5" y="-106.5" font-family="Helvetica,sans-Serif" font-size="10.00" fill="#000000">+ ~GuiGameSpecImageProviderImpl()</text>
<text text-anchor="start" x="54.5" y="-95.5" font-family="Helvetica,sans-Serif" font-size="10.00" fill="#000000">+ on_game_spec_loaded()</text>
<text text-anchor="start" x="54.5" y="-84.5" font-family="Helvetica,sans-Serif" font-size="10.00" fill="#000000">+ on_game_spec_invalidated()</text>
<text text-anchor="start" x="54.5" y="-73.5" font-family="Helvetica,sans-Serif" font-size="10.00" fill="#000000">+ fill_texture_handle()</text>
<text text-anchor="start" x="54.5" y="-62.5" font-family="Helvetica,sans-Serif" font-size="10.00" fill="#000000"># get_missing_texture()</text>
<text text-anchor="start" x="54.5" y="-51.5" font-family="Helvetica,sans-Serif" font-size="10.00" fill="#000000">&#45; get_texture_handle()</text>
<text text-anchor="start" x="54.5" y="-40.5" font-family="Helvetica,sans-Serif" font-size="10.00" fill="#000000">&#45; requestTexture()</text>
<text text-anchor="start" x="54.5" y="-29.5" font-family="Helvetica,sans-Serif" font-size="10.00" fill="#000000">&#45; give_up()</text>
<text text-anchor="start" x="54.5" y="-18.5" font-family="Helvetica,sans-Serif" font-size="10.00" fill="#000000">&#45; migrate_to_new_game_spec()</text>
<text text-anchor="start" x="54.5" y="-7.5" font-family="Helvetica,sans-Serif" font-size="10.00" fill="#000000">&#45; overwrite_texture_handle()</text>
</g>
<!-- Node8 -->
<g id="node2" class="node">
<title>Node8</title>
<g id="a_node2"><a xlink:href="../../db/d28/classqtsdl_1_1_gui_image_provider_impl.xhtml" target="_top" xlink:title="{qtsdl::GuiImageProviderImpl\n||+ GuiImageProviderImpl()\l+ ~GuiImageProviderImpl()\l+ get_id()\l+ give_up()\l+ take_ownership()\l+ take_ownership()\l}">
<polygon fill="#ffffff" stroke="#000000" points="0,-281.5 0,-393.5 140,-393.5 140,-281.5 0,-281.5"/>
<text text-anchor="middle" x="70" y="-381.5" font-family="Helvetica,sans-Serif" font-size="10.00" fill="#000000">qtsdl::GuiImageProviderImpl</text>
<polyline fill="none" stroke="#000000" points="0,-374.5 140,-374.5 "/>
<text text-anchor="middle" x="70" y="-362.5" font-family="Helvetica,sans-Serif" font-size="10.00" fill="#000000"> </text>
<polyline fill="none" stroke="#000000" points="0,-355.5 140,-355.5 "/>
<text text-anchor="start" x="8" y="-343.5" font-family="Helvetica,sans-Serif" font-size="10.00" fill="#000000">+ GuiImageProviderImpl()</text>
<text text-anchor="start" x="8" y="-332.5" font-family="Helvetica,sans-Serif" font-size="10.00" fill="#000000">+ ~GuiImageProviderImpl()</text>
<text text-anchor="start" x="8" y="-321.5" font-family="Helvetica,sans-Serif" font-size="10.00" fill="#000000">+ get_id()</text>
<text text-anchor="start" x="8" y="-310.5" font-family="Helvetica,sans-Serif" font-size="10.00" fill="#000000">+ give_up()</text>
<text text-anchor="start" x="8" y="-299.5" font-family="Helvetica,sans-Serif" font-size="10.00" fill="#000000">+ take_ownership()</text>
<text text-anchor="start" x="8" y="-288.5" font-family="Helvetica,sans-Serif" font-size="10.00" fill="#000000">+ take_ownership()</text>
</a>
</g>
</g>
<!-- Node8&#45;&gt;Node7 -->
<g id="edge1" class="edge">
<title>Node8&#45;&gt;Node7</title>
<path fill="none" stroke="#191970" d="M90.3751,-271.4307C94.0719,-259.4434 98.0262,-246.6211 102.017,-233.6802"/>
<polygon fill="none" stroke="#191970" points="86.9377,-270.7006 87.3352,-281.288 93.6268,-272.7636 86.9377,-270.7006"/>
</g>
<!-- Node9 -->
<g id="node3" class="node">
<title>Node9</title>
<polygon fill="#ffffff" stroke="#bfbfbf" points="13.5,-431.5 13.5,-488.5 126.5,-488.5 126.5,-431.5 13.5,-431.5"/>
<text text-anchor="middle" x="70" y="-476.5" font-family="Helvetica,sans-Serif" font-size="10.00" fill="#000000">QQuickImageProvider</text>
<polyline fill="none" stroke="#bfbfbf" points="13.5,-469.5 126.5,-469.5 "/>
<text text-anchor="middle" x="70" y="-457.5" font-family="Helvetica,sans-Serif" font-size="10.00" fill="#000000"> </text>
<polyline fill="none" stroke="#bfbfbf" points="13.5,-450.5 126.5,-450.5 "/>
<text text-anchor="middle" x="70" y="-438.5" font-family="Helvetica,sans-Serif" font-size="10.00" fill="#000000"> </text>
</g>
<!-- Node9&#45;&gt;Node8 -->
<g id="edge2" class="edge">
<title>Node9&#45;&gt;Node8</title>
<path fill="none" stroke="#191970" d="M70,-421.1358C70,-412.4939 70,-403.1625 70,-393.9752"/>
<polygon fill="none" stroke="#191970" points="66.5001,-421.2792 70,-431.2792 73.5001,-421.2792 66.5001,-421.2792"/>
</g>
<!-- Node10 -->
<g id="node4" class="node">
<title>Node10</title>
<g id="a_node4"><a xlink:href="../../d9/df2/classqtsdl_1_1_gui_callback.xhtml" target="_top" xlink:title="{qtsdl::GuiCallback\n||+ GuiCallback()\l+ ~GuiCallback()\l+ process()\l}">
<polygon fill="#ffffff" stroke="#000000" points="158.5,-298 158.5,-377 255.5,-377 255.5,-298 158.5,-298"/>
<text text-anchor="middle" x="207" y="-365" font-family="Helvetica,sans-Serif" font-size="10.00" fill="#000000">qtsdl::GuiCallback</text>
<polyline fill="none" stroke="#000000" points="158.5,-358 255.5,-358 "/>
<text text-anchor="middle" x="207" y="-346" font-family="Helvetica,sans-Serif" font-size="10.00" fill="#000000"> </text>
<polyline fill="none" stroke="#000000" points="158.5,-339 255.5,-339 "/>
<text text-anchor="start" x="166.5" y="-327" font-family="Helvetica,sans-Serif" font-size="10.00" fill="#000000">+ GuiCallback()</text>
<text text-anchor="start" x="166.5" y="-316" font-family="Helvetica,sans-Serif" font-size="10.00" fill="#000000">+ ~GuiCallback()</text>
<text text-anchor="start" x="166.5" y="-305" font-family="Helvetica,sans-Serif" font-size="10.00" fill="#000000">+ process()</text>
</a>
</g>
</g>
<!-- Node10&#45;&gt;Node7 -->
<g id="edge3" class="edge">
<title>Node10&#45;&gt;Node7</title>
<path fill="none" stroke="#404040" d="M194.5845,-297.8244C189.8389,-282.6592 184.1316,-264.4206 178.1929,-245.4424"/>
<polygon fill="none" stroke="#404040" points="178.1577,-245.3297 172.5483,-240.7982 174.5739,-233.8774 180.1832,-238.409 178.1577,-245.3297"/>
<text text-anchor="middle" x="236.5" y="-255" font-family="Helvetica,sans-Serif" font-size="10.00" fill="#000000"> &#45;render_thread_callback</text>
</g>
<!-- Node11 -->
<g id="node5" class="node">
<title>Node11</title>
<polygon fill="#ffffff" stroke="#bfbfbf" points="180.5,-431.5 180.5,-488.5 233.5,-488.5 233.5,-431.5 180.5,-431.5"/>
<text text-anchor="middle" x="207" y="-476.5" font-family="Helvetica,sans-Serif" font-size="10.00" fill="#000000">QObject</text>
<polyline fill="none" stroke="#bfbfbf" points="180.5,-469.5 233.5,-469.5 "/>
<text text-anchor="middle" x="207" y="-457.5" font-family="Helvetica,sans-Serif" font-size="10.00" fill="#000000"> </text>
<polyline fill="none" stroke="#bfbfbf" points="180.5,-450.5 233.5,-450.5 "/>
<text text-anchor="middle" x="207" y="-438.5" font-family="Helvetica,sans-Serif" font-size="10.00" fill="#000000"> </text>
</g>
<!-- Node11&#45;&gt;Node10 -->
<g id="edge4" class="edge">
<title>Node11&#45;&gt;Node10</title>
<path fill="none" stroke="#191970" d="M207,-420.9879C207,-406.9971 207,-391.2151 207,-377.1691"/>
<polygon fill="none" stroke="#191970" points="203.5001,-421.2792 207,-431.2792 210.5001,-421.2792 203.5001,-421.2792"/>
</g>
</g>
</svg>
