<?xml version="1.0" encoding="UTF-8" standalone="no"?>
<!DOCTYPE svg PUBLIC "-//W3C//DTD SVG 1.1//EN"
 "http://www.w3.org/Graphics/SVG/1.1/DTD/svg11.dtd">
<!-- Generated by graphviz version 2.40.1 (20161225.0304)
 -->
<!-- Title: openage::gui::EditorModeLink Pages: 1 -->
<svg width="691pt" height="1076pt"
 viewBox="0.00 0.00 691.00 1076.00" xmlns="http://www.w3.org/2000/svg" xmlns:xlink="http://www.w3.org/1999/xlink">
<g id="graph0" class="graph" transform="scale(1 1) rotate(0) translate(4 1072)">
<title>openage::gui::EditorModeLink</title>
<polygon fill="#ffffff" stroke="transparent" points="-4,4 -4,-1072 687,-1072 687,4 -4,4"/>
<!-- Node0 -->
<g id="node1" class="node">
<title>Node0</title>
<polygon fill="#bfbfbf" stroke="#000000" points="229,-.5 229,-244.5 383,-244.5 383,-.5 229,-.5"/>
<text text-anchor="middle" x="306" y="-232.5" font-family="Helvetica,sans-Serif" font-size="10.00" fill="#000000">openage::gui::EditorModeLink</text>
<polyline fill="none" stroke="#000000" points="229,-225.5 383,-225.5 "/>
<text text-anchor="start" x="237" y="-213.5" font-family="Helvetica,sans-Serif" font-size="10.00" fill="#000000">+ currentTypeId</text>
<text text-anchor="start" x="237" y="-202.5" font-family="Helvetica,sans-Serif" font-size="10.00" fill="#000000">+ currentTerrainId</text>
<text text-anchor="start" x="237" y="-191.5" font-family="Helvetica,sans-Serif" font-size="10.00" fill="#000000">+ paintTerrain</text>
<text text-anchor="start" x="237" y="-180.5" font-family="Helvetica,sans-Serif" font-size="10.00" fill="#000000">+ categories</text>
<text text-anchor="start" x="237" y="-169.5" font-family="Helvetica,sans-Serif" font-size="10.00" fill="#000000">&#45; current_type_id</text>
<text text-anchor="start" x="237" y="-158.5" font-family="Helvetica,sans-Serif" font-size="10.00" fill="#000000">&#45; current_terrain_id</text>
<text text-anchor="start" x="237" y="-147.5" font-family="Helvetica,sans-Serif" font-size="10.00" fill="#000000">&#45; paint_terrain</text>
<polyline fill="none" stroke="#000000" points="229,-140.5 383,-140.5 "/>
<text text-anchor="start" x="237" y="-128.5" font-family="Helvetica,sans-Serif" font-size="10.00" fill="#000000">+ EditorModeLink()</text>
<text text-anchor="start" x="237" y="-117.5" font-family="Helvetica,sans-Serif" font-size="10.00" fill="#000000">+ ~EditorModeLink()</text>
<text text-anchor="start" x="237" y="-106.5" font-family="Helvetica,sans-Serif" font-size="10.00" fill="#000000">+ get_current_type_id()</text>
<text text-anchor="start" x="237" y="-95.5" font-family="Helvetica,sans-Serif" font-size="10.00" fill="#000000">+ set_current_type_id()</text>
<text text-anchor="start" x="237" y="-84.5" font-family="Helvetica,sans-Serif" font-size="10.00" fill="#000000">+ get_current_terrain_id()</text>
<text text-anchor="start" x="237" y="-73.5" font-family="Helvetica,sans-Serif" font-size="10.00" fill="#000000">+ set_current_terrain_id()</text>
<text text-anchor="start" x="237" y="-62.5" font-family="Helvetica,sans-Serif" font-size="10.00" fill="#000000">+ get_paint_terrain()</text>
<text text-anchor="start" x="237" y="-51.5" font-family="Helvetica,sans-Serif" font-size="10.00" fill="#000000">+ set_paint_terrain()</text>
<text text-anchor="start" x="237" y="-40.5" font-family="Helvetica,sans-Serif" font-size="10.00" fill="#000000">+ get_categories()</text>
<text text-anchor="start" x="237" y="-29.5" font-family="Helvetica,sans-Serif" font-size="10.00" fill="#000000">+ announce_category_content()</text>
<text text-anchor="start" x="237" y="-18.5" font-family="Helvetica,sans-Serif" font-size="10.00" fill="#000000">&#45; on_core_adopted()</text>
<text text-anchor="start" x="237" y="-7.5" font-family="Helvetica,sans-Serif" font-size="10.00" fill="#000000">&#45; on_categories_changed()</text>
</g>
<!-- Node1 -->
<g id="node2" class="node">
<title>Node1</title>
<g id="a_node2"><a xlink:href="../../d2/d2f/classqtsdl_1_1_inherits.xhtml" target="_top" xlink:title="{qtsdl::Inherits\&lt; OutputMode\lLink, EditorModeLink \&gt;\n||+ Inherits()\l}">
<polygon fill="#ffffff" stroke="#000000" points="237,-282.5 237,-350.5 375,-350.5 375,-282.5 237,-282.5"/>
<text text-anchor="start" x="245" y="-338.5" font-family="Helvetica,sans-Serif" font-size="10.00" fill="#000000">qtsdl::Inherits&lt; OutputMode</text>
<text text-anchor="middle" x="306" y="-327.5" font-family="Helvetica,sans-Serif" font-size="10.00" fill="#000000">Link, EditorModeLink &gt;</text>
<polyline fill="none" stroke="#000000" points="237,-320.5 375,-320.5 "/>
<text text-anchor="middle" x="306" y="-308.5" font-family="Helvetica,sans-Serif" font-size="10.00" fill="#000000"> </text>
<polyline fill="none" stroke="#000000" points="237,-301.5 375,-301.5 "/>
<text text-anchor="start" x="245" y="-289.5" font-family="Helvetica,sans-Serif" font-size="10.00" fill="#000000">+ Inherits()</text>
</a>
</g>
</g>
<!-- Node1&#45;&gt;Node0 -->
<g id="edge1" class="edge">
<title>Node1&#45;&gt;Node0</title>
<path fill="none" stroke="#191970" d="M306,-272.0114C306,-263.5731 306,-254.376 306,-244.8267"/>
<polygon fill="none" stroke="#191970" points="302.5001,-272.2632 306,-282.2633 309.5001,-272.2633 302.5001,-272.2632"/>
</g>
<!-- Node2 -->
<g id="node3" class="node">
<title>Node2</title>
<g id="a_node3"><a xlink:href="../../d1/d28/classqtsdl_1_1_shadow.xhtml" target="_top" xlink:title="{qtsdl::Shadow\&lt; OutputMode\lLink \&gt;\n||+ Shadow()\l+ get()\l+ i()\l+ s()\l+ sf()\l}">
<polygon fill="#ffffff" stroke="#000000" points="87.5,-409.5 87.5,-521.5 228.5,-521.5 228.5,-409.5 87.5,-409.5"/>
<text text-anchor="start" x="95.5" y="-509.5" font-family="Helvetica,sans-Serif" font-size="10.00" fill="#000000">qtsdl::Shadow&lt; OutputMode</text>
<text text-anchor="middle" x="158" y="-498.5" font-family="Helvetica,sans-Serif" font-size="10.00" fill="#000000">Link &gt;</text>
<polyline fill="none" stroke="#000000" points="87.5,-491.5 228.5,-491.5 "/>
<text text-anchor="middle" x="158" y="-479.5" font-family="Helvetica,sans-Serif" font-size="10.00" fill="#000000"> </text>
<polyline fill="none" stroke="#000000" points="87.5,-472.5 228.5,-472.5 "/>
<text text-anchor="start" x="95.5" y="-460.5" font-family="Helvetica,sans-Serif" font-size="10.00" fill="#000000">+ Shadow()</text>
<text text-anchor="start" x="95.5" y="-449.5" font-family="Helvetica,sans-Serif" font-size="10.00" fill="#000000">+ get()</text>
<text text-anchor="start" x="95.5" y="-438.5" font-family="Helvetica,sans-Serif" font-size="10.00" fill="#000000">+ i()</text>
<text text-anchor="start" x="95.5" y="-427.5" font-family="Helvetica,sans-Serif" font-size="10.00" fill="#000000">+ s()</text>
<text text-anchor="start" x="95.5" y="-416.5" font-family="Helvetica,sans-Serif" font-size="10.00" fill="#000000">+ sf()</text>
</a>
</g>
</g>
<!-- Node2&#45;&gt;Node1 -->
<g id="edge2" class="edge">
<title>Node2&#45;&gt;Node1</title>
<path fill="none" stroke="#191970" d="M221.3301,-401.742C238.6856,-384.2693 256.8408,-365.9913 271.8687,-350.8619"/>
<polygon fill="none" stroke="#191970" points="218.5165,-399.6081 213.9525,-409.1695 223.4829,-404.5412 218.5165,-399.6081"/>
</g>
<!-- Node3 -->
<g id="node4" class="node">
<title>Node3</title>
<polygon fill="#ffffff" stroke="#bfbfbf" points="0,-602.5 0,-659.5 88,-659.5 88,-602.5 0,-602.5"/>
<text text-anchor="middle" x="44" y="-647.5" font-family="Helvetica,sans-Serif" font-size="10.00" fill="#000000">OutputModeLink</text>
<polyline fill="none" stroke="#bfbfbf" points="0,-640.5 88,-640.5 "/>
<text text-anchor="middle" x="44" y="-628.5" font-family="Helvetica,sans-Serif" font-size="10.00" fill="#000000"> </text>
<polyline fill="none" stroke="#bfbfbf" points="0,-621.5 88,-621.5 "/>
<text text-anchor="middle" x="44" y="-609.5" font-family="Helvetica,sans-Serif" font-size="10.00" fill="#000000"> </text>
</g>
<!-- Node3&#45;&gt;Node2 -->
<g id="edge3" class="edge">
<title>Node3&#45;&gt;Node2</title>
<path fill="none" stroke="#191970" d="M69.656,-593.7538C84.2744,-572.5314 102.8847,-545.5139 119.2507,-521.7545"/>
<polygon fill="none" stroke="#191970" points="66.6476,-591.9513 63.8573,-602.1721 72.4124,-595.9222 66.6476,-591.9513"/>
</g>
<!-- Node4 -->
<g id="node5" class="node">
<title>Node4</title>
<g id="a_node5"><a xlink:href="../../d1/d28/classqtsdl_1_1_shadow.xhtml" target="_top" xlink:title="Shadows inherited member functions. ">
<polygon fill="#ffffff" stroke="#000000" points="106.5,-580.5 106.5,-681.5 209.5,-681.5 209.5,-580.5 106.5,-580.5"/>
<text text-anchor="middle" x="158" y="-669.5" font-family="Helvetica,sans-Serif" font-size="10.00" fill="#000000">qtsdl::Shadow&lt; T &gt;</text>
<polyline fill="none" stroke="#000000" points="106.5,-662.5 209.5,-662.5 "/>
<text text-anchor="middle" x="158" y="-650.5" font-family="Helvetica,sans-Serif" font-size="10.00" fill="#000000"> </text>
<polyline fill="none" stroke="#000000" points="106.5,-643.5 209.5,-643.5 "/>
<text text-anchor="start" x="114.5" y="-631.5" font-family="Helvetica,sans-Serif" font-size="10.00" fill="#000000">+ Shadow()</text>
<text text-anchor="start" x="114.5" y="-620.5" font-family="Helvetica,sans-Serif" font-size="10.00" fill="#000000">+ get()</text>
<text text-anchor="start" x="114.5" y="-609.5" font-family="Helvetica,sans-Serif" font-size="10.00" fill="#000000">+ i()</text>
<text text-anchor="start" x="114.5" y="-598.5" font-family="Helvetica,sans-Serif" font-size="10.00" fill="#000000">+ s()</text>
<text text-anchor="start" x="114.5" y="-587.5" font-family="Helvetica,sans-Serif" font-size="10.00" fill="#000000">+ sf()</text>
</a>
</g>
</g>
<!-- Node4&#45;&gt;Node2 -->
<g id="edge4" class="edge">
<title>Node4&#45;&gt;Node2</title>
<path fill="none" stroke="#ffa500" d="M158,-570.179C158,-554.2593 158,-537.1726 158,-521.5163"/>
<polygon fill="#ffa500" stroke="#ffa500" points="154.5001,-570.4452 158,-580.4453 161.5001,-570.4453 154.5001,-570.4452"/>
<text text-anchor="middle" x="204.5" y="-543" font-family="Helvetica,sans-Serif" font-size="10.00" fill="#000000"> &lt; OutputModeLink &gt;</text>
</g>
<!-- Node10 -->
<g id="node11" class="node">
<title>Node10</title>
<g id="a_node11"><a xlink:href="../../d2/d2f/classqtsdl_1_1_inherits.xhtml" target="_top" xlink:title="Switches the factory to production of the instances of the derived class. ">
<polygon fill="#ffffff" stroke="#000000" points="249.5,-437 249.5,-494 362.5,-494 362.5,-437 249.5,-437"/>
<text text-anchor="middle" x="306" y="-482" font-family="Helvetica,sans-Serif" font-size="10.00" fill="#000000">qtsdl::Inherits&lt; T, P &gt;</text>
<polyline fill="none" stroke="#000000" points="249.5,-475 362.5,-475 "/>
<text text-anchor="middle" x="306" y="-463" font-family="Helvetica,sans-Serif" font-size="10.00" fill="#000000"> </text>
<polyline fill="none" stroke="#000000" points="249.5,-456 362.5,-456 "/>
<text text-anchor="start" x="257.5" y="-444" font-family="Helvetica,sans-Serif" font-size="10.00" fill="#000000">+ Inherits()</text>
</a>
</g>
</g>
<!-- Node4&#45;&gt;Node10 -->
<g id="edge12" class="edge">
<title>Node4&#45;&gt;Node10</title>
<path fill="none" stroke="#191970" d="M212.7768,-573.7488C214.8388,-572.1034 216.916,-570.515 219,-569 233.4693,-558.4815 241.8905,-563.1713 255,-551 272.0996,-535.1241 285.3472,-512.2155 294.0501,-494.1065"/>
<polygon fill="none" stroke="#191970" points="210.3283,-571.2343 204.9163,-580.3426 214.8271,-576.5973 210.3283,-571.2343"/>
</g>
<!-- Node5 -->
<g id="node6" class="node">
<title>Node5</title>
<polygon fill="#ffffff" stroke="#bfbfbf" points="143.5,-784.5 143.5,-841.5 172.5,-841.5 172.5,-784.5 143.5,-784.5"/>
<text text-anchor="middle" x="158" y="-829.5" font-family="Helvetica,sans-Serif" font-size="10.00" fill="#000000">T</text>
<polyline fill="none" stroke="#bfbfbf" points="143.5,-822.5 172.5,-822.5 "/>
<text text-anchor="middle" x="158" y="-810.5" font-family="Helvetica,sans-Serif" font-size="10.00" fill="#000000"> </text>
<polyline fill="none" stroke="#bfbfbf" points="143.5,-803.5 172.5,-803.5 "/>
<text text-anchor="middle" x="158" y="-791.5" font-family="Helvetica,sans-Serif" font-size="10.00" fill="#000000"> </text>
</g>
<!-- Node5&#45;&gt;Node4 -->
<g id="edge5" class="edge">
<title>Node5&#45;&gt;Node4</title>
<path fill="none" stroke="#191970" d="M158,-773.9478C158,-746.9917 158,-710.8915 158,-681.7142"/>
<polygon fill="none" stroke="#191970" points="154.5001,-774.1615 158,-784.1616 161.5001,-774.1616 154.5001,-774.1615"/>
</g>
<!-- Node6 -->
<g id="node7" class="node">
<title>Node6</title>
<g id="a_node7"><a xlink:href="../../df/df5/classqtsdl_1_1_gui_item_core_instantiator.xhtml" target="_top" xlink:title="{qtsdl::GuiItemCoreInstantiator\l\&lt; EditorModeLink \&gt;\n|+ instantiate_core_func\l+ do_adopt_core_func\l|+ GuiItemCoreInstantiator()\l&#45; GuiItemCoreInstantiator()\l&#45; instantiate_core()\l&#45; do_adopt_core()\l&#45; operator=()\l}">
<polygon fill="#ffffff" stroke="#000000" points="419,-569.5 419,-692.5 567,-692.5 567,-569.5 419,-569.5"/>
<text text-anchor="start" x="427" y="-680.5" font-family="Helvetica,sans-Serif" font-size="10.00" fill="#000000">qtsdl::GuiItemCoreInstantiator</text>
<text text-anchor="middle" x="493" y="-669.5" font-family="Helvetica,sans-Serif" font-size="10.00" fill="#000000">&lt; EditorModeLink &gt;</text>
<polyline fill="none" stroke="#000000" points="419,-662.5 567,-662.5 "/>
<text text-anchor="start" x="427" y="-650.5" font-family="Helvetica,sans-Serif" font-size="10.00" fill="#000000">+ instantiate_core_func</text>
<text text-anchor="start" x="427" y="-639.5" font-family="Helvetica,sans-Serif" font-size="10.00" fill="#000000">+ do_adopt_core_func</text>
<polyline fill="none" stroke="#000000" points="419,-632.5 567,-632.5 "/>
<text text-anchor="start" x="427" y="-620.5" font-family="Helvetica,sans-Serif" font-size="10.00" fill="#000000">+ GuiItemCoreInstantiator()</text>
<text text-anchor="start" x="427" y="-609.5" font-family="Helvetica,sans-Serif" font-size="10.00" fill="#000000">&#45; GuiItemCoreInstantiator()</text>
<text text-anchor="start" x="427" y="-598.5" font-family="Helvetica,sans-Serif" font-size="10.00" fill="#000000">&#45; instantiate_core()</text>
<text text-anchor="start" x="427" y="-587.5" font-family="Helvetica,sans-Serif" font-size="10.00" fill="#000000">&#45; do_adopt_core()</text>
<text text-anchor="start" x="427" y="-576.5" font-family="Helvetica,sans-Serif" font-size="10.00" fill="#000000">&#45; operator=()</text>
</a>
</g>
</g>
<!-- Node6&#45;&gt;Node1 -->
<g id="edge6" class="edge">
<title>Node6&#45;&gt;Node1</title>
<path fill="none" stroke="#191970" d="M490.9942,-559.1444C485.8116,-501.6436 470.1551,-422.1099 425,-369 411.9822,-353.6889 393.6329,-342.6784 375.2326,-334.8288"/>
<polygon fill="none" stroke="#191970" points="487.5172,-559.5706 491.8185,-569.253 494.4941,-559.0015 487.5172,-559.5706"/>
</g>
<!-- Node7 -->
<g id="node8" class="node">
<title>Node7</title>
<g id="a_node8"><a xlink:href="../../d5/db2/classqtsdl_1_1_gui_item_methods.xhtml" target="_top" xlink:title="{qtsdl::GuiItemMethods\l\&lt; EditorModeLink \&gt;\n||+ ~GuiItemMethods()\l+ get()\l+ get()\l+ i()\l# s()\l# sf()\l&#45; assign_while_catching\l_constant_properies_inits()\l}">
<polygon fill="#ffffff" stroke="#000000" points="549,-740.5 549,-885.5 683,-885.5 683,-740.5 549,-740.5"/>
<text text-anchor="start" x="557" y="-873.5" font-family="Helvetica,sans-Serif" font-size="10.00" fill="#000000">qtsdl::GuiItemMethods</text>
<text text-anchor="middle" x="616" y="-862.5" font-family="Helvetica,sans-Serif" font-size="10.00" fill="#000000">&lt; EditorModeLink &gt;</text>
<polyline fill="none" stroke="#000000" points="549,-855.5 683,-855.5 "/>
<text text-anchor="middle" x="616" y="-843.5" font-family="Helvetica,sans-Serif" font-size="10.00" fill="#000000"> </text>
<polyline fill="none" stroke="#000000" points="549,-836.5 683,-836.5 "/>
<text text-anchor="start" x="557" y="-824.5" font-family="Helvetica,sans-Serif" font-size="10.00" fill="#000000">+ ~GuiItemMethods()</text>
<text text-anchor="start" x="557" y="-813.5" font-family="Helvetica,sans-Serif" font-size="10.00" fill="#000000">+ get()</text>
<text text-anchor="start" x="557" y="-802.5" font-family="Helvetica,sans-Serif" font-size="10.00" fill="#000000">+ get()</text>
<text text-anchor="start" x="557" y="-791.5" font-family="Helvetica,sans-Serif" font-size="10.00" fill="#000000">+ i()</text>
<text text-anchor="start" x="557" y="-780.5" font-family="Helvetica,sans-Serif" font-size="10.00" fill="#000000"># s()</text>
<text text-anchor="start" x="557" y="-769.5" font-family="Helvetica,sans-Serif" font-size="10.00" fill="#000000"># sf()</text>
<text text-anchor="start" x="557" y="-758.5" font-family="Helvetica,sans-Serif" font-size="10.00" fill="#000000">&#45; assign_while_catching</text>
<text text-anchor="start" x="557" y="-747.5" font-family="Helvetica,sans-Serif" font-size="10.00" fill="#000000">_constant_properies_inits()</text>
</a>
</g>
</g>
<!-- Node7&#45;&gt;Node6 -->
<g id="edge7" class="edge">
<title>Node7&#45;&gt;Node6</title>
<path fill="none" stroke="#191970" d="M576.7864,-731.3852C572.6945,-724.3549 568.4105,-717.4654 564,-711 559.8141,-704.8638 555.2028,-698.6921 550.4014,-692.6457"/>
<polygon fill="none" stroke="#191970" points="573.8874,-733.3686 581.862,-740.3441 579.9779,-729.9181 573.8874,-733.3686"/>
</g>
<!-- Node8 -->
<g id="node9" class="node">
<title>Node8</title>
<g id="a_node9"><a xlink:href="../../d5/db2/classqtsdl_1_1_gui_item_methods.xhtml" target="_top" xlink:title="Member function of the GuiPersistentItem. ">
<polygon fill="#ffffff" stroke="#000000" points="375,-933.5 375,-1067.5 515,-1067.5 515,-933.5 375,-933.5"/>
<text text-anchor="middle" x="445" y="-1055.5" font-family="Helvetica,sans-Serif" font-size="10.00" fill="#000000">qtsdl::GuiItemMethods&lt; T &gt;</text>
<polyline fill="none" stroke="#000000" points="375,-1048.5 515,-1048.5 "/>
<text text-anchor="middle" x="445" y="-1036.5" font-family="Helvetica,sans-Serif" font-size="10.00" fill="#000000"> </text>
<polyline fill="none" stroke="#000000" points="375,-1029.5 515,-1029.5 "/>
<text text-anchor="start" x="383" y="-1017.5" font-family="Helvetica,sans-Serif" font-size="10.00" fill="#000000">+ ~GuiItemMethods()</text>
<text text-anchor="start" x="383" y="-1006.5" font-family="Helvetica,sans-Serif" font-size="10.00" fill="#000000">+ get()</text>
<text text-anchor="start" x="383" y="-995.5" font-family="Helvetica,sans-Serif" font-size="10.00" fill="#000000">+ get()</text>
<text text-anchor="start" x="383" y="-984.5" font-family="Helvetica,sans-Serif" font-size="10.00" fill="#000000">+ i()</text>
<text text-anchor="start" x="383" y="-973.5" font-family="Helvetica,sans-Serif" font-size="10.00" fill="#000000"># s()</text>
<text text-anchor="start" x="383" y="-962.5" font-family="Helvetica,sans-Serif" font-size="10.00" fill="#000000"># sf()</text>
<text text-anchor="start" x="383" y="-951.5" font-family="Helvetica,sans-Serif" font-size="10.00" fill="#000000">&#45; assign_while_catching</text>
<text text-anchor="start" x="383" y="-940.5" font-family="Helvetica,sans-Serif" font-size="10.00" fill="#000000">_constant_properies_inits()</text>
</a>
</g>
</g>
<!-- Node8&#45;&gt;Node7 -->
<g id="edge8" class="edge">
<title>Node8&#45;&gt;Node7</title>
<path fill="none" stroke="#ffa500" d="M513.2554,-925.6586C525.2557,-912.5003 537.729,-898.8235 549.6757,-885.7241"/>
<polygon fill="#ffa500" stroke="#ffa500" points="510.4044,-923.5906 506.2519,-933.3378 515.5765,-928.3076 510.4044,-923.5906"/>
<text text-anchor="middle" x="574.5" y="-907" font-family="Helvetica,sans-Serif" font-size="10.00" fill="#000000"> &lt; EditorModeLink &gt;</text>
</g>
<!-- Node9 -->
<g id="node10" class="node">
<title>Node9</title>
<g id="a_node10"><a xlink:href="../../df/df5/classqtsdl_1_1_gui_item_core_instantiator.xhtml" target="_top" xlink:title="{qtsdl::GuiItemCoreInstantiator\&lt; T \&gt;\n|+ instantiate_core_func\l+ do_adopt_core_func\l|+ GuiItemCoreInstantiator()\l&#45; instantiate_core()\l&#45; do_adopt_core()\l&#45; GuiItemCoreInstantiator()\l&#45; operator=()\l}">
<polygon fill="#ffffff" stroke="#000000" points="359,-757 359,-869 531,-869 531,-757 359,-757"/>
<text text-anchor="middle" x="445" y="-857" font-family="Helvetica,sans-Serif" font-size="10.00" fill="#000000">qtsdl::GuiItemCoreInstantiator&lt; T &gt;</text>
<polyline fill="none" stroke="#000000" points="359,-850 531,-850 "/>
<text text-anchor="start" x="367" y="-838" font-family="Helvetica,sans-Serif" font-size="10.00" fill="#000000">+ instantiate_core_func</text>
<text text-anchor="start" x="367" y="-827" font-family="Helvetica,sans-Serif" font-size="10.00" fill="#000000">+ do_adopt_core_func</text>
<polyline fill="none" stroke="#000000" points="359,-820 531,-820 "/>
<text text-anchor="start" x="367" y="-808" font-family="Helvetica,sans-Serif" font-size="10.00" fill="#000000">+ GuiItemCoreInstantiator()</text>
<text text-anchor="start" x="367" y="-797" font-family="Helvetica,sans-Serif" font-size="10.00" fill="#000000">&#45; instantiate_core()</text>
<text text-anchor="start" x="367" y="-786" font-family="Helvetica,sans-Serif" font-size="10.00" fill="#000000">&#45; do_adopt_core()</text>
<text text-anchor="start" x="367" y="-775" font-family="Helvetica,sans-Serif" font-size="10.00" fill="#000000">&#45; GuiItemCoreInstantiator()</text>
<text text-anchor="start" x="367" y="-764" font-family="Helvetica,sans-Serif" font-size="10.00" fill="#000000">&#45; operator=()</text>
</a>
</g>
</g>
<!-- Node8&#45;&gt;Node9 -->
<g id="edge10" class="edge">
<title>Node8&#45;&gt;Node9</title>
<path fill="none" stroke="#191970" d="M445,-923.1101C445,-905.0389 445,-886.1308 445,-869.1847"/>
<polygon fill="none" stroke="#191970" points="441.5001,-923.3378 445,-933.3378 448.5001,-923.3378 441.5001,-923.3378"/>
</g>
<!-- Node12 -->
<g id="node13" class="node">
<title>Node12</title>
<g id="a_node13"><a xlink:href="../../d5/db2/classqtsdl_1_1_gui_item_methods.xhtml" target="_top" xlink:title="{qtsdl::GuiItemMethods\&lt; P \&gt;\n||+ ~GuiItemMethods()\l+ get()\l+ get()\l+ i()\l# s()\l# sf()\l&#45; assign_while_catching\l_constant_properies_inits()\l}">
<polygon fill="#ffffff" stroke="#000000" points="201,-746 201,-880 341,-880 341,-746 201,-746"/>
<text text-anchor="middle" x="271" y="-868" font-family="Helvetica,sans-Serif" font-size="10.00" fill="#000000">qtsdl::GuiItemMethods&lt; P &gt;</text>
<polyline fill="none" stroke="#000000" points="201,-861 341,-861 "/>
<text text-anchor="middle" x="271" y="-849" font-family="Helvetica,sans-Serif" font-size="10.00" fill="#000000"> </text>
<polyline fill="none" stroke="#000000" points="201,-842 341,-842 "/>
<text text-anchor="start" x="209" y="-830" font-family="Helvetica,sans-Serif" font-size="10.00" fill="#000000">+ ~GuiItemMethods()</text>
<text text-anchor="start" x="209" y="-819" font-family="Helvetica,sans-Serif" font-size="10.00" fill="#000000">+ get()</text>
<text text-anchor="start" x="209" y="-808" font-family="Helvetica,sans-Serif" font-size="10.00" fill="#000000">+ get()</text>
<text text-anchor="start" x="209" y="-797" font-family="Helvetica,sans-Serif" font-size="10.00" fill="#000000">+ i()</text>
<text text-anchor="start" x="209" y="-786" font-family="Helvetica,sans-Serif" font-size="10.00" fill="#000000"># s()</text>
<text text-anchor="start" x="209" y="-775" font-family="Helvetica,sans-Serif" font-size="10.00" fill="#000000"># sf()</text>
<text text-anchor="start" x="209" y="-764" font-family="Helvetica,sans-Serif" font-size="10.00" fill="#000000">&#45; assign_while_catching</text>
<text text-anchor="start" x="209" y="-753" font-family="Helvetica,sans-Serif" font-size="10.00" fill="#000000">_constant_properies_inits()</text>
</a>
</g>
</g>
<!-- Node8&#45;&gt;Node12 -->
<g id="edge15" class="edge">
<title>Node8&#45;&gt;Node12</title>
<path fill="none" stroke="#ffa500" d="M375.8196,-925.9521C361.7375,-910.7775 347.0046,-894.9015 333.1836,-880.0082"/>
<polygon fill="#ffa500" stroke="#ffa500" points="373.3057,-928.3885 382.6735,-933.3378 378.4367,-923.6269 373.3057,-928.3885"/>
<text text-anchor="middle" x="377" y="-907" font-family="Helvetica,sans-Serif" font-size="10.00" fill="#000000"> &lt; P &gt;</text>
</g>
<!-- Node9&#45;&gt;Node6 -->
<g id="edge9" class="edge">
<title>Node9&#45;&gt;Node6</title>
<path fill="none" stroke="#ffa500" d="M462.3592,-747.1799C467.0551,-729.3743 472.1193,-710.1728 476.7517,-692.608"/>
<polygon fill="#ffa500" stroke="#ffa500" points="458.9592,-746.347 459.7932,-756.9089 465.7278,-748.1321 458.9592,-746.347"/>
<text text-anchor="middle" x="515.5" y="-714" font-family="Helvetica,sans-Serif" font-size="10.00" fill="#000000"> &lt; EditorModeLink &gt;</text>
</g>
<!-- Node11 -->
<g id="node12" class="node">
<title>Node11</title>
<g id="a_node12"><a xlink:href="../../df/df5/classqtsdl_1_1_gui_item_core_instantiator.xhtml" target="_top" xlink:title="{qtsdl::GuiItemCoreInstantiator\&lt; P \&gt;\n|+ instantiate_core_func\l+ do_adopt_core_func\l|+ GuiItemCoreInstantiator()\l&#45; GuiItemCoreInstantiator()\l&#45; instantiate_core()\l&#45; do_adopt_core()\l&#45; operator=()\l}">
<polygon fill="#ffffff" stroke="#000000" points="227.5,-575 227.5,-687 400.5,-687 400.5,-575 227.5,-575"/>
<text text-anchor="middle" x="314" y="-675" font-family="Helvetica,sans-Serif" font-size="10.00" fill="#000000">qtsdl::GuiItemCoreInstantiator&lt; P &gt;</text>
<polyline fill="none" stroke="#000000" points="227.5,-668 400.5,-668 "/>
<text text-anchor="start" x="235.5" y="-656" font-family="Helvetica,sans-Serif" font-size="10.00" fill="#000000">+ instantiate_core_func</text>
<text text-anchor="start" x="235.5" y="-645" font-family="Helvetica,sans-Serif" font-size="10.00" fill="#000000">+ do_adopt_core_func</text>
<polyline fill="none" stroke="#000000" points="227.5,-638 400.5,-638 "/>
<text text-anchor="start" x="235.5" y="-626" font-family="Helvetica,sans-Serif" font-size="10.00" fill="#000000">+ GuiItemCoreInstantiator()</text>
<text text-anchor="start" x="235.5" y="-615" font-family="Helvetica,sans-Serif" font-size="10.00" fill="#000000">&#45; GuiItemCoreInstantiator()</text>
<text text-anchor="start" x="235.5" y="-604" font-family="Helvetica,sans-Serif" font-size="10.00" fill="#000000">&#45; instantiate_core()</text>
<text text-anchor="start" x="235.5" y="-593" font-family="Helvetica,sans-Serif" font-size="10.00" fill="#000000">&#45; do_adopt_core()</text>
<text text-anchor="start" x="235.5" y="-582" font-family="Helvetica,sans-Serif" font-size="10.00" fill="#000000">&#45; operator=()</text>
</a>
</g>
</g>
<!-- Node9&#45;&gt;Node11 -->
<g id="edge16" class="edge">
<title>Node9&#45;&gt;Node11</title>
<path fill="none" stroke="#ffa500" d="M398.7423,-748.7336C384.2968,-728.6643 368.481,-706.6912 354.4654,-687.2191"/>
<polygon fill="#ffa500" stroke="#ffa500" points="395.9442,-750.8374 404.6268,-756.9089 401.6255,-746.7481 395.9442,-750.8374"/>
<text text-anchor="middle" x="393" y="-714" font-family="Helvetica,sans-Serif" font-size="10.00" fill="#000000"> &lt; P &gt;</text>
</g>
<!-- Node10&#45;&gt;Node1 -->
<g id="edge11" class="edge">
<title>Node10&#45;&gt;Node1</title>
<path fill="none" stroke="#ffa500" d="M306,-426.7559C306,-403.1705 306,-373.3175 306,-350.6252"/>
<polygon fill="#ffa500" stroke="#ffa500" points="302.5001,-426.7713 306,-436.7713 309.5001,-426.7713 302.5001,-426.7713"/>
<text text-anchor="start" x="306" y="-383" font-family="Helvetica,sans-Serif" font-size="10.00" fill="#000000"> &lt; OutputModeLink, Editor</text>
<text text-anchor="middle" x="363.5" y="-372" font-family="Helvetica,sans-Serif" font-size="10.00" fill="#000000">ModeLink &gt;</text>
</g>
<!-- Node11&#45;&gt;Node10 -->
<g id="edge13" class="edge">
<title>Node11&#45;&gt;Node10</title>
<path fill="none" stroke="#191970" d="M310.806,-564.9243C309.6147,-540.28 308.324,-513.5773 307.3804,-494.0564"/>
<polygon fill="none" stroke="#191970" points="307.3127,-565.1499 311.2916,-574.9692 314.3046,-564.8119 307.3127,-565.1499"/>
</g>
<!-- Node12&#45;&gt;Node11 -->
<g id="edge14" class="edge">
<title>Node12&#45;&gt;Node11</title>
<path fill="none" stroke="#191970" d="M289.2606,-735.711C293.1055,-719.4374 297.0918,-702.5651 300.7124,-687.2405"/>
<polygon fill="none" stroke="#191970" points="285.7826,-735.2101 286.8894,-745.747 292.5951,-736.8197 285.7826,-735.2101"/>
</g>
</g>
</svg>
