<?xml version="1.0" encoding="UTF-8" standalone="no"?>
<!DOCTYPE svg PUBLIC "-//W3C//DTD SVG 1.1//EN"
 "http://www.w3.org/Graphics/SVG/1.1/DTD/svg11.dtd">
<!-- Generated by graphviz version 2.40.1 (20161225.0304)
 -->
<!-- Title: openage.convert.driver.extract_mediafiles_names_map Pages: 1 -->
<svg width="531pt" height="39pt"
 viewBox="0.00 0.00 531.00 39.00" xmlns="http://www.w3.org/2000/svg" xmlns:xlink="http://www.w3.org/1999/xlink">
<g id="graph0" class="graph" transform="scale(1 1) rotate(0) translate(4 35)">
<title>openage.convert.driver.extract_mediafiles_names_map</title>
<polygon fill="#ffffff" stroke="transparent" points="-4,4 -4,-35 527,-35 527,4 -4,4"/>
<!-- Node128 -->
<g id="node1" class="node">
<title>Node128</title>
<polygon fill="#bfbfbf" stroke="#000000" points="0,-.5 0,-30.5 149,-30.5 149,-.5 0,-.5"/>
<text text-anchor="start" x="8" y="-18.5" font-family="Helvetica,sans-Serif" font-size="10.00" fill="#000000">openage.convert.driver.extract</text>
<text text-anchor="middle" x="74.5" y="-7.5" font-family="Helvetica,sans-Serif" font-size="10.00" fill="#000000">_mediafiles_names_map</text>
</g>
<!-- Node129 -->
<g id="node2" class="node">
<title>Node129</title>
<g id="a_node2"><a xlink:href="../../d7/d5b/namespaceopenage_1_1convert_1_1driver.xhtml#ad7f7fa271abe4e1c3bc43160e84bc58f" target="_top" xlink:title="Converts the media part. ">
<polygon fill="#ffffff" stroke="#000000" points="185,-.5 185,-30.5 336,-30.5 336,-.5 185,-.5"/>
<text text-anchor="start" x="193" y="-18.5" font-family="Helvetica,sans-Serif" font-size="10.00" fill="#000000">openage.convert.driver.convert</text>
<text text-anchor="middle" x="260.5" y="-7.5" font-family="Helvetica,sans-Serif" font-size="10.00" fill="#000000">_media</text>
</a>
</g>
</g>
<!-- Node128&#45;&gt;Node129 -->
<g id="edge1" class="edge">
<title>Node128&#45;&gt;Node129</title>
<path fill="none" stroke="#191970" d="M159.1391,-15.5C167.7597,-15.5 176.4769,-15.5 184.9912,-15.5"/>
<polygon fill="#191970" stroke="#191970" points="159.0816,-12.0001 149.0816,-15.5 159.0816,-19.0001 159.0816,-12.0001"/>
</g>
<!-- Node130 -->
<g id="node3" class="node">
<title>Node130</title>
<g id="a_node3"><a xlink:href="../../d7/d5b/namespaceopenage_1_1convert_1_1driver.xhtml#ac0a5dae7195fabd749cffb70a062a647" target="_top" xlink:title="openage.convert.driver.convert">
<polygon fill="#ffffff" stroke="#000000" points="372,-6 372,-25 523,-25 523,-6 372,-6"/>
<text text-anchor="middle" x="447.5" y="-13" font-family="Helvetica,sans-Serif" font-size="10.00" fill="#000000">openage.convert.driver.convert</text>
</a>
</g>
</g>
<!-- Node129&#45;&gt;Node130 -->
<g id="edge2" class="edge">
<title>Node129&#45;&gt;Node130</title>
<path fill="none" stroke="#191970" d="M346.2978,-15.5C354.7728,-15.5 363.3329,-15.5 371.6969,-15.5"/>
<polygon fill="#191970" stroke="#191970" points="346.0211,-12.0001 336.021,-15.5 346.021,-19.0001 346.0211,-12.0001"/>
</g>
</g>
</svg>
