<?xml version="1.0" encoding="UTF-8" standalone="no"?>
<!DOCTYPE svg PUBLIC "-//W3C//DTD SVG 1.1//EN"
 "http://www.w3.org/Graphics/SVG/1.1/DTD/svg11.dtd">
<!-- Generated by graphviz version 2.40.1 (20161225.0304)
 -->
<!-- Title: openage.convert.driver.extract_mediafiles_names_map Pages: 1 -->
<svg width="597pt" height="39pt"
 viewBox="0.00 0.00 597.00 39.00" xmlns="http://www.w3.org/2000/svg" xmlns:xlink="http://www.w3.org/1999/xlink">
<g id="graph0" class="graph" transform="scale(1 1) rotate(0) translate(4 35)">
<title>openage.convert.driver.extract_mediafiles_names_map</title>
<polygon fill="#ffffff" stroke="transparent" points="-4,4 -4,-35 593,-35 593,4 -4,4"/>
<!-- Node124 -->
<g id="node1" class="node">
<title>Node124</title>
<polygon fill="#bfbfbf" stroke="#000000" points="0,-.5 0,-30.5 149,-30.5 149,-.5 0,-.5"/>
<text text-anchor="start" x="8" y="-18.5" font-family="Helvetica,sans-Serif" font-size="10.00" fill="#000000">openage.convert.driver.extract</text>
<text text-anchor="middle" x="74.5" y="-7.5" font-family="Helvetica,sans-Serif" font-size="10.00" fill="#000000">_mediafiles_names_map</text>
</g>
<!-- Node125 -->
<g id="node2" class="node">
<title>Node125</title>
<g id="a_node2"><a xlink:href="../../d4/dd4/namespaceopenage_1_1py.xhtml#a5ba80af3e9224d2de11179ce232f75d9" target="_top" xlink:title="dict() ">
<polygon fill="#ffffff" stroke="#000000" points="185,-6 185,-25 277,-25 277,-6 185,-6"/>
<text text-anchor="middle" x="231" y="-13" font-family="Helvetica,sans-Serif" font-size="10.00" fill="#000000">openage::py::dict</text>
</a>
</g>
</g>
<!-- Node124&#45;&gt;Node125 -->
<g id="edge1" class="edge">
<title>Node124&#45;&gt;Node125</title>
<path fill="none" stroke="#191970" d="M149.0832,-15.5C157.6079,-15.5 166.1907,-15.5 174.4258,-15.5"/>
<polygon fill="#191970" stroke="#191970" points="174.6405,-19.0001 184.6404,-15.5 174.6404,-12.0001 174.6405,-19.0001"/>
</g>
<!-- Node126 -->
<g id="node3" class="node">
<title>Node126</title>
<g id="a_node3"><a xlink:href="../../d5/d0e/namespaceopenage_1_1testing_1_1testing.xhtml#ac25bf81db406af62d08113ef7ae9fd6e" target="_top" xlink:title="openage.testing.testing.result">
<polygon fill="#ffffff" stroke="#000000" points="313,-6 313,-25 458,-25 458,-6 313,-6"/>
<text text-anchor="middle" x="385.5" y="-13" font-family="Helvetica,sans-Serif" font-size="10.00" fill="#000000">openage.testing.testing.result</text>
</a>
</g>
</g>
<!-- Node125&#45;&gt;Node126 -->
<g id="edge2" class="edge">
<title>Node125&#45;&gt;Node126</title>
<path fill="none" stroke="#191970" d="M277.3551,-15.5C285.4047,-15.5 293.9902,-15.5 302.6701,-15.5"/>
<polygon fill="#191970" stroke="#191970" points="302.8765,-19.0001 312.8765,-15.5 302.8764,-12.0001 302.8765,-19.0001"/>
</g>
<!-- Node127 -->
<g id="node4" class="node">
<title>Node127</title>
<g id="a_node4"><a xlink:href="../../de/d60/namespaceopenage_1_1util.xhtml#a7bc4421a5f0f57f3a0aba3f96eb8d19c" target="_top" xlink:title="method that behaves similar to python&#39;s &quot;repr&quot;. ">
<polygon fill="#ffffff" stroke="#000000" points="494,-6 494,-25 589,-25 589,-6 494,-6"/>
<text text-anchor="middle" x="541.5" y="-13" font-family="Helvetica,sans-Serif" font-size="10.00" fill="#000000">openage::util::repr</text>
</a>
</g>
</g>
<!-- Node126&#45;&gt;Node127 -->
<g id="edge3" class="edge">
<title>Node126&#45;&gt;Node127</title>
<path fill="none" stroke="#191970" d="M458.0196,-8.7648C466.6179,-8.7182 475.3054,-8.7815 483.6614,-8.9545"/>
<polygon fill="#191970" stroke="#191970" points="483.5718,-12.4533 493.6613,-9.2201 483.7578,-5.4558 483.5718,-12.4533"/>
</g>
<!-- Node127&#45;&gt;Node126 -->
<g id="edge4" class="edge">
<title>Node127&#45;&gt;Node126</title>
<path fill="none" stroke="#191970" d="M493.6613,-21.7799C485.5562,-22.0451 476.9375,-22.1982 468.24,-22.2389"/>
<polygon fill="#191970" stroke="#191970" points="468.021,-18.7389 458.0196,-22.2352 468.0183,-25.7389 468.021,-18.7389"/>
</g>
</g>
</svg>
