<?xml version="1.0" encoding="UTF-8" standalone="no"?>
<!DOCTYPE svg PUBLIC "-//W3C//DTD SVG 1.1//EN"
 "http://www.w3.org/Graphics/SVG/1.1/DTD/svg11.dtd">
<!-- Generated by graphviz version 2.40.1 (20161225.0304)
 -->
<!-- Title: openage.convert.driver.get_string_resources Pages: 1 -->
<svg width="514pt" height="39pt"
 viewBox="0.00 0.00 514.00 39.00" xmlns="http://www.w3.org/2000/svg" xmlns:xlink="http://www.w3.org/1999/xlink">
<g id="graph0" class="graph" transform="scale(1 1) rotate(0) translate(4 35)">
<title>openage.convert.driver.get_string_resources</title>
<polygon fill="#ffffff" stroke="transparent" points="-4,4 -4,-35 510,-35 510,4 -4,4"/>
<!-- Node166 -->
<g id="node1" class="node">
<title>Node166</title>
<polygon fill="#bfbfbf" stroke="#000000" points="0,-.5 0,-30.5 132,-30.5 132,-.5 0,-.5"/>
<text text-anchor="start" x="8" y="-18.5" font-family="Helvetica,sans-Serif" font-size="10.00" fill="#000000">openage.convert.driver.get</text>
<text text-anchor="middle" x="66" y="-7.5" font-family="Helvetica,sans-Serif" font-size="10.00" fill="#000000">_string_resources</text>
</g>
<!-- Node167 -->
<g id="node2" class="node">
<title>Node167</title>
<g id="a_node2"><a xlink:href="../../d7/d5b/namespaceopenage_1_1convert_1_1driver.xhtml#a2147ca3608a15047a639e9661a7a928c" target="_top" xlink:title="Converts the metadata part. ">
<polygon fill="#ffffff" stroke="#000000" points="168,-.5 168,-30.5 319,-30.5 319,-.5 168,-.5"/>
<text text-anchor="start" x="176" y="-18.5" font-family="Helvetica,sans-Serif" font-size="10.00" fill="#000000">openage.convert.driver.convert</text>
<text text-anchor="middle" x="243.5" y="-7.5" font-family="Helvetica,sans-Serif" font-size="10.00" fill="#000000">_metadata</text>
</a>
</g>
</g>
<!-- Node166&#45;&gt;Node167 -->
<g id="edge1" class="edge">
<title>Node166&#45;&gt;Node167</title>
<path fill="none" stroke="#191970" d="M142.2989,-15.5C150.7443,-15.5 159.3433,-15.5 167.7816,-15.5"/>
<polygon fill="#191970" stroke="#191970" points="142.0945,-12.0001 132.0944,-15.5 142.0944,-19.0001 142.0945,-12.0001"/>
</g>
<!-- Node168 -->
<g id="node3" class="node">
<title>Node168</title>
<g id="a_node3"><a xlink:href="../../d7/d5b/namespaceopenage_1_1convert_1_1driver.xhtml#ac0a5dae7195fabd749cffb70a062a647" target="_top" xlink:title="openage.convert.driver.convert">
<polygon fill="#ffffff" stroke="#000000" points="355,-6 355,-25 506,-25 506,-6 355,-6"/>
<text text-anchor="middle" x="430.5" y="-13" font-family="Helvetica,sans-Serif" font-size="10.00" fill="#000000">openage.convert.driver.convert</text>
</a>
</g>
</g>
<!-- Node167&#45;&gt;Node168 -->
<g id="edge2" class="edge">
<title>Node167&#45;&gt;Node168</title>
<path fill="none" stroke="#191970" d="M329.2978,-15.5C337.7728,-15.5 346.3329,-15.5 354.6969,-15.5"/>
<polygon fill="#191970" stroke="#191970" points="329.0211,-12.0001 319.021,-15.5 329.021,-19.0001 329.0211,-12.0001"/>
</g>
</g>
</svg>
