<?xml version="1.0" encoding="UTF-8" standalone="no"?>
<!DOCTYPE svg PUBLIC "-//W3C//DTD SVG 1.1//EN"
 "http://www.w3.org/Graphics/SVG/1.1/DTD/svg11.dtd">
<!-- Generated by graphviz version 2.40.1 (20161225.0304)
 -->
<!-- Title: openage.convert.driver.convert_metadata Pages: 1 -->
<svg width="1093pt" height="410pt"
 viewBox="0.00 0.00 1093.00 410.00" xmlns="http://www.w3.org/2000/svg" xmlns:xlink="http://www.w3.org/1999/xlink">
<g id="graph0" class="graph" transform="scale(1 1) rotate(0) translate(4 406)">
<title>openage.convert.driver.convert_metadata</title>
<polygon fill="#ffffff" stroke="transparent" points="-4,4 -4,-406 1089,-406 1089,4 -4,4"/>
<!-- Node80 -->
<g id="node1" class="node">
<title>Node80</title>
<polygon fill="#bfbfbf" stroke="#000000" points="0,-112.5 0,-142.5 151,-142.5 151,-112.5 0,-112.5"/>
<text text-anchor="start" x="8" y="-130.5" font-family="Helvetica,sans-Serif" font-size="10.00" fill="#000000">openage.convert.driver.convert</text>
<text text-anchor="middle" x="75.5" y="-119.5" font-family="Helvetica,sans-Serif" font-size="10.00" fill="#000000">_metadata</text>
</g>
<!-- Node81 -->
<g id="node2" class="node">
<title>Node81</title>
<g id="a_node2"><a xlink:href="../../dd/d1a/namespaceopenage_1_1log.xhtml#a5cb08687f485da2549d7eebef26368a6" target="_top" xlink:title="debug message ">
<polygon fill="#ffffff" stroke="#000000" points="837.5,-268 837.5,-287 925.5,-287 925.5,-268 837.5,-268"/>
<text text-anchor="middle" x="881.5" y="-275" font-family="Helvetica,sans-Serif" font-size="10.00" fill="#000000">openage.log.dbg</text>
</a>
</g>
</g>
<!-- Node80&#45;&gt;Node81 -->
<g id="edge1" class="edge">
<title>Node80&#45;&gt;Node81</title>
<path fill="none" stroke="#191970" d="M151.0795,-120.3171C308.5553,-106.6558 666.0495,-82.8206 773,-136.5 824.8363,-162.5171 859.0036,-226.2267 873.5337,-258.3373"/>
<polygon fill="#191970" stroke="#191970" points="870.5034,-260.145 877.7056,-267.9154 876.9211,-257.3497 870.5034,-260.145"/>
</g>
<!-- Node82 -->
<g id="node3" class="node">
<title>Node82</title>
<g id="a_node3"><a xlink:href="../../d7/d5b/namespaceopenage_1_1convert_1_1driver.xhtml#a8c15f89a4e29ef83e1c5e0237f511ad2" target="_top" xlink:title="reads blendomatic.dat ">
<polygon fill="#ffffff" stroke="#000000" points="187,-49.5 187,-79.5 319,-79.5 319,-49.5 187,-49.5"/>
<text text-anchor="start" x="195" y="-67.5" font-family="Helvetica,sans-Serif" font-size="10.00" fill="#000000">openage.convert.driver.get</text>
<text text-anchor="middle" x="253" y="-56.5" font-family="Helvetica,sans-Serif" font-size="10.00" fill="#000000">_blendomatic_data</text>
</a>
</g>
</g>
<!-- Node80&#45;&gt;Node82 -->
<g id="edge2" class="edge">
<title>Node80&#45;&gt;Node82</title>
<path fill="none" stroke="#191970" d="M118.0157,-112.4099C142.9527,-103.559 174.6463,-92.31 201.0556,-82.9366"/>
<polygon fill="#191970" stroke="#191970" points="202.2707,-86.2193 210.524,-79.576 199.9293,-79.6225 202.2707,-86.2193"/>
</g>
<!-- Node83 -->
<g id="node4" class="node">
<title>Node83</title>
<g id="a_node4"><a xlink:href="../../d7/d5b/namespaceopenage_1_1convert_1_1driver.xhtml#af952f8f82261ef86e5c83facd56758f9" target="_top" xlink:title="reads empires.dat and fixes it ">
<polygon fill="#ffffff" stroke="#000000" points="187,-212.5 187,-242.5 319,-242.5 319,-212.5 187,-212.5"/>
<text text-anchor="start" x="195" y="-230.5" font-family="Helvetica,sans-Serif" font-size="10.00" fill="#000000">openage.convert.driver.get</text>
<text text-anchor="middle" x="253" y="-219.5" font-family="Helvetica,sans-Serif" font-size="10.00" fill="#000000">_gamespec</text>
</a>
</g>
</g>
<!-- Node80&#45;&gt;Node83 -->
<g id="edge3" class="edge">
<title>Node80&#45;&gt;Node83</title>
<path fill="none" stroke="#191970" d="M102.4584,-142.6878C133.1307,-159.968 183.3508,-188.261 217.2659,-207.3681"/>
<polygon fill="#191970" stroke="#191970" points="215.939,-210.6378 226.3695,-212.4969 219.3749,-204.539 215.939,-210.6378"/>
</g>
<!-- Node86 -->
<g id="node7" class="node">
<title>Node86</title>
<g id="a_node7"><a xlink:href="../../dd/d1a/namespaceopenage_1_1log.xhtml#a403182e8d0c54bd49bea6934c3cb1e28" target="_top" xlink:title="info message ">
<polygon fill="#ffffff" stroke="#000000" points="641,-146 641,-165 729,-165 729,-146 641,-146"/>
<text text-anchor="middle" x="685" y="-153" font-family="Helvetica,sans-Serif" font-size="10.00" fill="#000000">openage.log.info</text>
</a>
</g>
</g>
<!-- Node80&#45;&gt;Node86 -->
<g id="edge24" class="edge">
<title>Node80&#45;&gt;Node86</title>
<path fill="none" stroke="#191970" d="M151.1544,-130.9755C275.9281,-136.7075 521.8801,-148.0064 630.845,-153.0122"/>
<polygon fill="#191970" stroke="#191970" points="630.8036,-156.5139 640.9537,-153.4765 631.1249,-149.5212 630.8036,-156.5139"/>
</g>
<!-- Node90 -->
<g id="node11" class="node">
<title>Node90</title>
<g id="a_node11"><a xlink:href="../../d7/d5b/namespaceopenage_1_1convert_1_1driver.xhtml#af79fabd89ea708bced76ef970ae9f413" target="_top" xlink:title="Read and create the color palette. ">
<polygon fill="#ffffff" stroke="#000000" points="187,-.5 187,-30.5 319,-30.5 319,-.5 187,-.5"/>
<text text-anchor="start" x="195" y="-18.5" font-family="Helvetica,sans-Serif" font-size="10.00" fill="#000000">openage.convert.driver.get</text>
<text text-anchor="middle" x="253" y="-7.5" font-family="Helvetica,sans-Serif" font-size="10.00" fill="#000000">_palette</text>
</a>
</g>
</g>
<!-- Node80&#45;&gt;Node90 -->
<g id="edge11" class="edge">
<title>Node80&#45;&gt;Node90</title>
<path fill="none" stroke="#191970" d="M91.3101,-112.2969C111.9159,-93.1555 149.7347,-60.2693 187,-39.5 190.0203,-37.8167 193.1813,-36.2118 196.4149,-34.6886"/>
<polygon fill="#191970" stroke="#191970" points="197.9225,-37.8491 205.6632,-30.6151 195.1007,-31.443 197.9225,-37.8491"/>
</g>
<!-- Node91 -->
<g id="node12" class="node">
<title>Node91</title>
<g id="a_node12"><a xlink:href="../../d7/d5b/namespaceopenage_1_1convert_1_1driver.xhtml#adbdd640ef25ad8535078cc706f314686" target="_top" xlink:title="reads the (language) string resources ">
<polygon fill="#ffffff" stroke="#000000" points="187,-285.5 187,-315.5 319,-315.5 319,-285.5 187,-285.5"/>
<text text-anchor="start" x="195" y="-303.5" font-family="Helvetica,sans-Serif" font-size="10.00" fill="#000000">openage.convert.driver.get</text>
<text text-anchor="middle" x="253" y="-292.5" font-family="Helvetica,sans-Serif" font-size="10.00" fill="#000000">_string_resources</text>
</a>
</g>
</g>
<!-- Node80&#45;&gt;Node91 -->
<g id="edge12" class="edge">
<title>Node80&#45;&gt;Node91</title>
<path fill="none" stroke="#191970" d="M87.3331,-142.5031C106.8027,-166.7432 147.395,-215.4437 187,-251.5 197.848,-261.376 210.6259,-271.2214 222.0348,-279.4685"/>
<polygon fill="#191970" stroke="#191970" points="220.2582,-282.4997 230.4377,-285.4375 224.3121,-276.7929 220.2582,-282.4997"/>
</g>
<!-- Node84 -->
<g id="node5" class="node">
<title>Node84</title>
<g id="a_node5"><a xlink:href="../../db/d69/namespaceopenage_1_1convert_1_1game__versions.xhtml#a34537bbd9836f1e83d73d08545ff07c6" target="_top" xlink:title="Determine whether any of the versions has patch 1, i.e. ">
<polygon fill="#ffffff" stroke="#000000" points="400,-273.5 400,-303.5 516,-303.5 516,-273.5 400,-273.5"/>
<text text-anchor="start" x="408" y="-291.5" font-family="Helvetica,sans-Serif" font-size="10.00" fill="#000000">openage.convert.game</text>
<text text-anchor="middle" x="458" y="-280.5" font-family="Helvetica,sans-Serif" font-size="10.00" fill="#000000">_versions.has_x1_p1</text>
</a>
</g>
</g>
<!-- Node83&#45;&gt;Node84 -->
<g id="edge4" class="edge">
<title>Node83&#45;&gt;Node84</title>
<path fill="none" stroke="#191970" d="M292.9024,-242.6371C311.6121,-249.4623 334.298,-257.3515 355,-263.5 366.3004,-266.8562 378.3951,-270.0982 390.179,-273.0731"/>
<polygon fill="#191970" stroke="#191970" points="389.4314,-276.4936 399.9801,-275.5057 391.1177,-269.6998 389.4314,-276.4936"/>
</g>
<!-- Node85 -->
<g id="node6" class="node">
<title>Node85</title>
<g id="a_node6"><a xlink:href="../../de/d8b/namespaceopenage_1_1convert_1_1gamedata_1_1empiresdat.xhtml#a571729db3187f457aefbdb94af2364d0" target="_top" xlink:title="openage.convert.gamedata.empiresdat.load\l_gamespec">
<polygon fill="#ffffff" stroke="#000000" points="355,-224.5 355,-254.5 561,-254.5 561,-224.5 355,-224.5"/>
<text text-anchor="start" x="363" y="-242.5" font-family="Helvetica,sans-Serif" font-size="10.00" fill="#000000">openage.convert.gamedata.empiresdat.load</text>
<text text-anchor="middle" x="458" y="-231.5" font-family="Helvetica,sans-Serif" font-size="10.00" fill="#000000">_gamespec</text>
</a>
</g>
</g>
<!-- Node83&#45;&gt;Node85 -->
<g id="edge5" class="edge">
<title>Node83&#45;&gt;Node85</title>
<path fill="none" stroke="#191970" d="M319.2745,-231.3795C327.4302,-231.8569 335.9371,-232.3549 344.5482,-232.8589"/>
<polygon fill="#191970" stroke="#191970" points="344.5026,-236.3621 354.69,-233.4526 344.9117,-229.3741 344.5026,-236.3621"/>
</g>
<!-- Node89 -->
<g id="node10" class="node">
<title>Node89</title>
<g id="a_node10"><a xlink:href="../../d3/d2d/namespaceopenage_1_1convert_1_1fix__data.xhtml#aa8a9618d6c503e4ea34ed5854a8d534f" target="_top" xlink:title="modernizes/patches the gamespec. ">
<polygon fill="#ffffff" stroke="#000000" points="407,-175.5 407,-205.5 509,-205.5 509,-175.5 407,-175.5"/>
<text text-anchor="start" x="415" y="-193.5" font-family="Helvetica,sans-Serif" font-size="10.00" fill="#000000">openage.convert.fix</text>
<text text-anchor="middle" x="458" y="-182.5" font-family="Helvetica,sans-Serif" font-size="10.00" fill="#000000">_data.fix_data</text>
</a>
</g>
</g>
<!-- Node83&#45;&gt;Node89 -->
<g id="edge10" class="edge">
<title>Node83&#45;&gt;Node89</title>
<path fill="none" stroke="#191970" d="M319.2745,-215.5383C344.2584,-211.029 372.5376,-205.9249 397.0156,-201.5069"/>
<polygon fill="#191970" stroke="#191970" points="397.6788,-204.9439 406.8981,-199.7233 396.4355,-198.0552 397.6788,-204.9439"/>
</g>
<!-- Node85&#45;&gt;Node81 -->
<g id="edge8" class="edge">
<title>Node85&#45;&gt;Node81</title>
<path fill="none" stroke="#191970" d="M561.1372,-254.4059C573.2127,-255.9115 585.3688,-257.3181 597,-258.5 676.7445,-266.6032 769.4297,-272.057 826.7824,-274.9711"/>
<polygon fill="#191970" stroke="#191970" points="826.9067,-278.4816 837.0691,-275.4857 827.2565,-271.4903 826.9067,-278.4816"/>
</g>
<!-- Node85&#45;&gt;Node86 -->
<g id="edge6" class="edge">
<title>Node85&#45;&gt;Node86</title>
<path fill="none" stroke="#191970" d="M537.3507,-224.4665C545.5485,-221.6769 553.5828,-218.3839 561,-214.5 579.9646,-204.5694 578.3396,-192.9911 597,-182.5 607.5564,-176.5651 619.5743,-171.7779 631.2633,-167.979"/>
<polygon fill="#191970" stroke="#191970" points="632.4233,-171.2844 640.9654,-165.0169 630.3792,-164.5895 632.4233,-171.2844"/>
</g>
<!-- Node87 -->
<g id="node8" class="node">
<title>Node87</title>
<g id="a_node8"><a xlink:href="../../dd/d1a/namespaceopenage_1_1log.xhtml#a2a1b7ecac013c794375d21d5efd89f87" target="_top" xlink:title="warning message ">
<polygon fill="#ffffff" stroke="#000000" points="638.5,-230 638.5,-249 731.5,-249 731.5,-230 638.5,-230"/>
<text text-anchor="middle" x="685" y="-237" font-family="Helvetica,sans-Serif" font-size="10.00" fill="#000000">openage.log.warn</text>
</a>
</g>
</g>
<!-- Node85&#45;&gt;Node87 -->
<g id="edge7" class="edge">
<title>Node85&#45;&gt;Node87</title>
<path fill="none" stroke="#191970" d="M561.2045,-239.5C584.2487,-239.5 607.8638,-239.5 628.2076,-239.5"/>
<polygon fill="#191970" stroke="#191970" points="628.2203,-243.0001 638.2203,-239.5 628.2202,-236.0001 628.2203,-243.0001"/>
</g>
<!-- Node88 -->
<g id="node9" class="node">
<title>Node88</title>
<g id="a_node9"><a xlink:href="../../dd/d1a/namespaceopenage_1_1log.xhtml#a758c833a4fbe8b0f6ef9035bfac1a9eb" target="_top" xlink:title="spam message ">
<polygon fill="#ffffff" stroke="#000000" points="637,-192 637,-211 733,-211 733,-192 637,-192"/>
<text text-anchor="middle" x="685" y="-199" font-family="Helvetica,sans-Serif" font-size="10.00" fill="#000000">openage.log.spam</text>
</a>
</g>
</g>
<!-- Node85&#45;&gt;Node88 -->
<g id="edge9" class="edge">
<title>Node85&#45;&gt;Node88</title>
<path fill="none" stroke="#191970" d="M547.7164,-224.4814C574.2832,-220.0341 602.6701,-215.2821 626.6956,-211.2602"/>
<polygon fill="#191970" stroke="#191970" points="627.4224,-214.6873 636.7072,-209.5843 626.2666,-207.7834 627.4224,-214.6873"/>
</g>
<!-- Node91&#45;&gt;Node84 -->
<g id="edge23" class="edge">
<title>Node91&#45;&gt;Node84</title>
<path fill="none" stroke="#191970" d="M319.2745,-296.6205C341.795,-295.3022 366.9929,-293.8272 389.6709,-292.4998"/>
<polygon fill="#191970" stroke="#191970" points="390.1161,-295.9798 399.8945,-291.9013 389.707,-288.9917 390.1161,-295.9798"/>
</g>
<!-- Node92 -->
<g id="node13" class="node">
<title>Node92</title>
<g id="a_node13"><a xlink:href="../../d0/d98/namespaceopenage_1_1convert_1_1hdlanguagefile.xhtml#a352b2dbd5b398f49f4f46dcca838cebd" target="_top" xlink:title="openage.convert.hdlanguagefile.read\l_age2_hd_fe_stringresources">
<polygon fill="#ffffff" stroke="#000000" points="370,-322.5 370,-352.5 546,-352.5 546,-322.5 370,-322.5"/>
<text text-anchor="start" x="378" y="-340.5" font-family="Helvetica,sans-Serif" font-size="10.00" fill="#000000">openage.convert.hdlanguagefile.read</text>
<text text-anchor="middle" x="458" y="-329.5" font-family="Helvetica,sans-Serif" font-size="10.00" fill="#000000">_age2_hd_fe_stringresources</text>
</a>
</g>
</g>
<!-- Node91&#45;&gt;Node92 -->
<g id="edge13" class="edge">
<title>Node91&#45;&gt;Node92</title>
<path fill="none" stroke="#191970" d="M319.2745,-312.4617C333.7645,-315.077 349.3629,-317.8923 364.6853,-320.6578"/>
<polygon fill="#191970" stroke="#191970" points="364.2374,-324.1335 374.7001,-322.4654 365.4807,-317.2448 364.2374,-324.1335"/>
</g>
<!-- Node95 -->
<g id="node16" class="node">
<title>Node95</title>
<g id="a_node16"><a xlink:href="../../d0/d98/namespaceopenage_1_1convert_1_1hdlanguagefile.xhtml#a189674ed7c17e3398bf7e39919e3b641" target="_top" xlink:title="openage.convert.hdlanguagefile.read\l_age2_hd_3x_stringresources">
<polygon fill="#ffffff" stroke="#000000" points="370,-371.5 370,-401.5 546,-401.5 546,-371.5 370,-371.5"/>
<text text-anchor="start" x="378" y="-389.5" font-family="Helvetica,sans-Serif" font-size="10.00" fill="#000000">openage.convert.hdlanguagefile.read</text>
<text text-anchor="middle" x="458" y="-378.5" font-family="Helvetica,sans-Serif" font-size="10.00" fill="#000000">_age2_hd_3x_stringresources</text>
</a>
</g>
</g>
<!-- Node91&#45;&gt;Node95 -->
<g id="edge17" class="edge">
<title>Node91&#45;&gt;Node95</title>
<path fill="none" stroke="#191970" d="M273.8963,-315.5697C293.851,-329.3216 325.2111,-349.3058 355,-361.5 361.2357,-364.0526 367.7949,-366.3865 374.4574,-368.512"/>
<polygon fill="#191970" stroke="#191970" points="373.682,-371.934 384.2671,-371.4782 375.7081,-365.2336 373.682,-371.934"/>
</g>
<!-- Node93 -->
<g id="node14" class="node">
<title>Node93</title>
<g id="a_node14"><a xlink:href="../../d0/d98/namespaceopenage_1_1convert_1_1hdlanguagefile.xhtml#acc46a3a14127905594fced841fdfb09b" target="_top" xlink:title="Takes a file object, and the file&#39;s language code. ">
<polygon fill="#ffffff" stroke="#000000" points="597,-322.5 597,-352.5 773,-352.5 773,-322.5 597,-322.5"/>
<text text-anchor="start" x="605" y="-340.5" font-family="Helvetica,sans-Serif" font-size="10.00" fill="#000000">openage.convert.hdlanguagefile.read</text>
<text text-anchor="middle" x="685" y="-329.5" font-family="Helvetica,sans-Serif" font-size="10.00" fill="#000000">_hd_language_file</text>
</a>
</g>
</g>
<!-- Node92&#45;&gt;Node93 -->
<g id="edge14" class="edge">
<title>Node92&#45;&gt;Node93</title>
<path fill="none" stroke="#191970" d="M546.089,-337.5C559.3967,-337.5 573.1956,-337.5 586.702,-337.5"/>
<polygon fill="#191970" stroke="#191970" points="586.9605,-341.0001 596.9605,-337.5 586.9604,-334.0001 586.9605,-341.0001"/>
</g>
<!-- Node93&#45;&gt;Node81 -->
<g id="edge15" class="edge">
<title>Node93&#45;&gt;Node81</title>
<path fill="none" stroke="#191970" d="M734.3316,-322.4369C767.1584,-312.4135 809.7667,-299.4033 840.6829,-289.9632"/>
<polygon fill="#191970" stroke="#191970" points="841.7406,-293.2999 850.2826,-287.032 839.6963,-286.605 841.7406,-293.2999"/>
</g>
<!-- Node94 -->
<g id="node15" class="node">
<title>Node94</title>
<g id="a_node15"><a xlink:href="../../de/d60/namespaceopenage_1_1util.xhtml#a9556b8562574e2c6ad102d8fd87569c6" target="_top" xlink:title="Split a string at a delimiter into a vector. ">
<polygon fill="#ffffff" stroke="#000000" points="833.5,-328 833.5,-347 929.5,-347 929.5,-328 833.5,-328"/>
<text text-anchor="middle" x="881.5" y="-335" font-family="Helvetica,sans-Serif" font-size="10.00" fill="#000000">openage::util::split</text>
</a>
</g>
</g>
<!-- Node93&#45;&gt;Node94 -->
<g id="edge16" class="edge">
<title>Node93&#45;&gt;Node94</title>
<path fill="none" stroke="#191970" d="M773.1912,-337.5C790.1811,-337.5 807.5765,-337.5 823.3164,-337.5"/>
<polygon fill="#191970" stroke="#191970" points="823.3998,-341.0001 833.3997,-337.5 823.3997,-334.0001 823.3998,-341.0001"/>
</g>
<!-- Node95&#45;&gt;Node93 -->
<g id="edge22" class="edge">
<title>Node95&#45;&gt;Node93</title>
<path fill="none" stroke="#191970" d="M527.6502,-371.4654C552.2719,-366.1506 580.1469,-360.1335 605.522,-354.656"/>
<polygon fill="#191970" stroke="#191970" points="606.4452,-358.0375 615.4815,-352.5062 604.9682,-351.1951 606.4452,-358.0375"/>
</g>
<!-- Node96 -->
<g id="node17" class="node">
<title>Node96</title>
<g id="a_node17"><a xlink:href="../../d4/dd4/namespaceopenage_1_1py.xhtml#a58cbca251b8e2118e0a6b9b0b78a7b32" target="_top" xlink:title="list() ">
<polygon fill="#ffffff" stroke="#000000" points="640.5,-377 640.5,-396 729.5,-396 729.5,-377 640.5,-377"/>
<text text-anchor="middle" x="685" y="-384" font-family="Helvetica,sans-Serif" font-size="10.00" fill="#000000">openage::py::list</text>
</a>
</g>
</g>
<!-- Node95&#45;&gt;Node96 -->
<g id="edge18" class="edge">
<title>Node95&#45;&gt;Node96</title>
<path fill="none" stroke="#191970" d="M546.089,-386.5C574.4583,-386.5 605.0602,-386.5 630.3017,-386.5"/>
<polygon fill="#191970" stroke="#191970" points="630.4098,-390.0001 640.4097,-386.5 630.4097,-383.0001 630.4098,-390.0001"/>
</g>
<!-- Node97 -->
<g id="node18" class="node">
<title>Node97</title>
<g id="a_node18"><a xlink:href="../../d5/d0e/namespaceopenage_1_1testing_1_1testing.xhtml#ac25bf81db406af62d08113ef7ae9fd6e" target="_top" xlink:title="openage.testing.testing.result">
<polygon fill="#ffffff" stroke="#000000" points="809,-377 809,-396 954,-396 954,-377 809,-377"/>
<text text-anchor="middle" x="881.5" y="-384" font-family="Helvetica,sans-Serif" font-size="10.00" fill="#000000">openage.testing.testing.result</text>
</a>
</g>
</g>
<!-- Node96&#45;&gt;Node97 -->
<g id="edge19" class="edge">
<title>Node96&#45;&gt;Node97</title>
<path fill="none" stroke="#191970" d="M729.5889,-386.5C750.0984,-386.5 775.1081,-386.5 798.8673,-386.5"/>
<polygon fill="#191970" stroke="#191970" points="798.9565,-390.0001 808.9565,-386.5 798.9565,-383.0001 798.9565,-390.0001"/>
</g>
<!-- Node98 -->
<g id="node19" class="node">
<title>Node98</title>
<g id="a_node19"><a xlink:href="../../de/d60/namespaceopenage_1_1util.xhtml#a7bc4421a5f0f57f3a0aba3f96eb8d19c" target="_top" xlink:title="method that behaves similar to python&#39;s &quot;repr&quot;. ">
<polygon fill="#ffffff" stroke="#000000" points="990,-377 990,-396 1085,-396 1085,-377 990,-377"/>
<text text-anchor="middle" x="1037.5" y="-384" font-family="Helvetica,sans-Serif" font-size="10.00" fill="#000000">openage::util::repr</text>
</a>
</g>
</g>
<!-- Node97&#45;&gt;Node98 -->
<g id="edge20" class="edge">
<title>Node97&#45;&gt;Node98</title>
<path fill="none" stroke="#191970" d="M954.0196,-379.7648C962.6179,-379.7182 971.3054,-379.7815 979.6614,-379.9545"/>
<polygon fill="#191970" stroke="#191970" points="979.5718,-383.4533 989.6613,-380.2201 979.7578,-376.4558 979.5718,-383.4533"/>
</g>
<!-- Node98&#45;&gt;Node97 -->
<g id="edge21" class="edge">
<title>Node98&#45;&gt;Node97</title>
<path fill="none" stroke="#191970" d="M989.6613,-392.7799C981.5562,-393.0451 972.9375,-393.1982 964.24,-393.2389"/>
<polygon fill="#191970" stroke="#191970" points="964.021,-389.7389 954.0196,-393.2352 964.0183,-396.7389 964.021,-389.7389"/>
</g>
</g>
</svg>
