<?xml version="1.0" encoding="UTF-8" standalone="no"?>
<!DOCTYPE svg PUBLIC "-//W3C//DTD SVG 1.1//EN"
 "http://www.w3.org/Graphics/SVG/1.1/DTD/svg11.dtd">
<!-- Generated by graphviz version 2.40.1 (20161225.0304)
 -->
<!-- Title: openage.convert.driver.get_gamespec Pages: 1 -->
<!--zoomable 189 -->
<svg id="main" version="1.1" xmlns="http://www.w3.org/2000/svg" xmlns:xlink="http://www.w3.org/1999/xlink" xml:space="preserve" onload="init(evt)">
<style type="text/css"><![CDATA[
.edge:hover path { stroke: red; }
.edge:hover polygon { stroke: red; fill: red; }
]]></style>
<script type="text/javascript"><![CDATA[
var edges = document.getElementsByTagName('g');
if (edges && edges.length) {
  for (var i=0;i<edges.length;i++) {
    if (edges[i].id.substr(0,4)=='edge') {
      edges[i].setAttribute('class','edge');
    }
  }
}
]]></script>
        <defs>
                <circle id="rim" cx="0" cy="0" r="7"/>
                <circle id="rim2" cx="0" cy="0" r="3.5"/>
                <g id="zoomPlus">
                        <use xlink:href="#rim" fill="#404040">
                                <set attributeName="fill" to="#808080" begin="zoomplus.mouseover" end="zoomplus.mouseout"/>
                        </use>
                        <path d="M-4,0h8M0,-4v8" fill="none" stroke="white" stroke-width="1.5" pointer-events="none"/>
                </g>
                <g id="zoomMin">
                        <use xlink:href="#rim" fill="#404040">
                                <set attributeName="fill" to="#808080" begin="zoomminus.mouseover" end="zoomminus.mouseout"/>
                        </use>
                        <path d="M-4,0h8" fill="none" stroke="white" stroke-width="1.5" pointer-events="none"/>
                </g>
                <g id="dirArrow">
                        <path fill="none" stroke="white" stroke-width="1.5" d="M0,-3.0v7 M-2.5,-0.5L0,-3.0L2.5,-0.5"/>
                </g>
               <g id="resetDef">
                       <use xlink:href="#rim2" fill="#404040">
                               <set attributeName="fill" to="#808080" begin="reset.mouseover" end="reset.mouseout"/>
                       </use>
               </g>
        </defs>

<script type="text/javascript">
var viewWidth = 514;
var viewHeight = 189;
var sectionId = 'dynsection-17';
</script>
<script xlink:href="../../svgpan.js"/>
<svg id="graph" class="graph">
<g id="viewport">
<title>openage.convert.driver.get_gamespec</title>
<polygon fill="#ffffff" stroke="transparent" points="-4,4 -4,-184.5 510,-184.5 510,4 -4,4"/>
<!-- Node139 -->
<g id="node1" class="node">
<title>Node139</title>
<polygon fill="#bfbfbf" stroke="#000000" points="0,-101 0,-131 132,-131 132,-101 0,-101"/>
<text text-anchor="start" x="8" y="-119" font-family="Helvetica,sans-Serif" font-size="10.00" fill="#000000">openage.convert.driver.get</text>
<text text-anchor="middle" x="66" y="-108" font-family="Helvetica,sans-Serif" font-size="10.00" fill="#000000">_gamespec</text>
</g>
<!-- Node140 -->
<g id="node2" class="node">
<title>Node140</title>
<g id="a_node2"><a xlink:href="../../d3/d2d/namespaceopenage_1_1convert_1_1fix__data.xhtml#aa8a9618d6c503e4ea34ed5854a8d534f" target="_top" xlink:title="modernizes/patches the gamespec. ">
<polygon fill="#ffffff" stroke="#000000" points="220,-150 220,-180 322,-180 322,-150 220,-150"/>
<text text-anchor="start" x="228" y="-168" font-family="Helvetica,sans-Serif" font-size="10.00" fill="#000000">openage.convert.fix</text>
<text text-anchor="middle" x="271" y="-157" font-family="Helvetica,sans-Serif" font-size="10.00" fill="#000000">_data.fix_data</text>
</a>
</g>
</g>
<!-- Node139&#45;&gt;Node140 -->
<g id="edge1" class="edge">
<title>Node139&#45;&gt;Node140</title>
<path fill="none" stroke="#191970" d="M126.9203,-131.0522C140.4387,-134.3586 154.7004,-137.8208 168,-141 181.5796,-144.2461 196.1799,-147.6814 209.9964,-150.9071"/>
<polygon fill="#191970" stroke="#191970" points="209.3591,-154.3523 219.8925,-153.2131 210.9478,-147.5349 209.3591,-154.3523"/>
</g>
<!-- Node141 -->
<g id="node3" class="node">
<title>Node141</title>
<g id="a_node3"><a xlink:href="../../db/d69/namespaceopenage_1_1convert_1_1game__versions.xhtml#a34537bbd9836f1e83d73d08545ff07c6" target="_top" xlink:title="Determine whether any of the versions has patch 1, i.e. ">
<polygon fill="#ffffff" stroke="#000000" points="213,-101 213,-131 329,-131 329,-101 213,-101"/>
<text text-anchor="start" x="221" y="-119" font-family="Helvetica,sans-Serif" font-size="10.00" fill="#000000">openage.convert.game</text>
<text text-anchor="middle" x="271" y="-108" font-family="Helvetica,sans-Serif" font-size="10.00" fill="#000000">_versions.has_x1_p1</text>
</a>
</g>
</g>
<!-- Node139&#45;&gt;Node141 -->
<g id="edge2" class="edge">
<title>Node139&#45;&gt;Node141</title>
<path fill="none" stroke="#191970" d="M132.2745,-116C154.795,-116 179.9929,-116 202.6709,-116"/>
<polygon fill="#191970" stroke="#191970" points="202.8945,-119.5001 212.8945,-116 202.8944,-112.5001 202.8945,-119.5001"/>
</g>
<!-- Node142 -->
<g id="node4" class="node">
<title>Node142</title>
<g id="a_node4"><a xlink:href="../../de/d8b/namespaceopenage_1_1convert_1_1gamedata_1_1empiresdat.xhtml#a571729db3187f457aefbdb94af2364d0" target="_top" xlink:title="openage.convert.gamedata.empiresdat.load\l_gamespec">
<polygon fill="#ffffff" stroke="#000000" points="168,-52 168,-82 374,-82 374,-52 168,-52"/>
<text text-anchor="start" x="176" y="-70" font-family="Helvetica,sans-Serif" font-size="10.00" fill="#000000">openage.convert.gamedata.empiresdat.load</text>
<text text-anchor="middle" x="271" y="-59" font-family="Helvetica,sans-Serif" font-size="10.00" fill="#000000">_gamespec</text>
</a>
</g>
</g>
<!-- Node139&#45;&gt;Node142 -->
<g id="edge3" class="edge">
<title>Node139&#45;&gt;Node142</title>
<path fill="none" stroke="#191970" d="M128.8999,-100.9654C150.8402,-95.7211 175.641,-89.7931 198.311,-84.3745"/>
<polygon fill="#191970" stroke="#191970" points="199.3067,-87.7351 208.219,-82.0062 197.6793,-80.9269 199.3067,-87.7351"/>
</g>
<!-- Node143 -->
<g id="node5" class="node">
<title>Node143</title>
<g id="a_node5"><a xlink:href="../../dd/d1a/namespaceopenage_1_1log.xhtml#a403182e8d0c54bd49bea6934c3cb1e28" target="_top" xlink:title="info message ">
<polygon fill="#ffffff" stroke="#000000" points="414,-114.5 414,-133.5 502,-133.5 502,-114.5 414,-114.5"/>
<text text-anchor="middle" x="458" y="-121.5" font-family="Helvetica,sans-Serif" font-size="10.00" fill="#000000">openage.log.info</text>
</a>
</g>
</g>
<!-- Node142&#45;&gt;Node143 -->
<g id="edge4" class="edge">
<title>Node142&#45;&gt;Node143</title>
<path fill="none" stroke="#191970" d="M338.3755,-82.0606C350.3148,-85.0961 362.5772,-88.4534 374,-92 383.709,-95.0145 405.2932,-103.2493 424.1502,-110.6099"/>
<polygon fill="#191970" stroke="#191970" points="423.0976,-113.9565 433.6852,-114.347 425.652,-107.4392 423.0976,-113.9565"/>
</g>
<!-- Node144 -->
<g id="node6" class="node">
<title>Node144</title>
<g id="a_node6"><a xlink:href="../../dd/d1a/namespaceopenage_1_1log.xhtml#a2a1b7ecac013c794375d21d5efd89f87" target="_top" xlink:title="warning message ">
<polygon fill="#ffffff" stroke="#000000" points="411.5,-76.5 411.5,-95.5 504.5,-95.5 504.5,-76.5 411.5,-76.5"/>
<text text-anchor="middle" x="458" y="-83.5" font-family="Helvetica,sans-Serif" font-size="10.00" fill="#000000">openage.log.warn</text>
</a>
</g>
</g>
<!-- Node142&#45;&gt;Node144 -->
<g id="edge5" class="edge">
<title>Node142&#45;&gt;Node144</title>
<path fill="none" stroke="#191970" d="M374.0725,-77.4726C383.4443,-78.4248 392.6865,-79.3639 401.4171,-80.2509"/>
<polygon fill="#191970" stroke="#191970" points="401.1056,-83.7372 411.4082,-81.2661 401.8132,-76.7731 401.1056,-83.7372"/>
</g>
<!-- Node145 -->
<g id="node7" class="node">
<title>Node145</title>
<g id="a_node7"><a xlink:href="../../dd/d1a/namespaceopenage_1_1log.xhtml#a5cb08687f485da2549d7eebef26368a6" target="_top" xlink:title="debug message ">
<polygon fill="#ffffff" stroke="#000000" points="414,-38.5 414,-57.5 502,-57.5 502,-38.5 414,-38.5"/>
<text text-anchor="middle" x="458" y="-45.5" font-family="Helvetica,sans-Serif" font-size="10.00" fill="#000000">openage.log.dbg</text>
</a>
</g>
</g>
<!-- Node142&#45;&gt;Node145 -->
<g id="edge6" class="edge">
<title>Node142&#45;&gt;Node145</title>
<path fill="none" stroke="#191970" d="M374.0725,-56.5274C384.1613,-55.5023 394.1,-54.4925 403.4119,-53.5464"/>
<polygon fill="#191970" stroke="#191970" points="404.0387,-57.0008 413.6336,-52.5078 403.331,-50.0367 404.0387,-57.0008"/>
</g>
<!-- Node146 -->
<g id="node8" class="node">
<title>Node146</title>
<g id="a_node8"><a xlink:href="../../dd/d1a/namespaceopenage_1_1log.xhtml#a758c833a4fbe8b0f6ef9035bfac1a9eb" target="_top" xlink:title="spam message ">
<polygon fill="#ffffff" stroke="#000000" points="410,-.5 410,-19.5 506,-19.5 506,-.5 410,-.5"/>
<text text-anchor="middle" x="458" y="-7.5" font-family="Helvetica,sans-Serif" font-size="10.00" fill="#000000">openage.log.spam</text>
</a>
</g>
</g>
<!-- Node142&#45;&gt;Node146 -->
<g id="edge7" class="edge">
<title>Node142&#45;&gt;Node146</title>
<path fill="none" stroke="#191970" d="M320.6216,-51.8747C350.7235,-42.6993 388.6724,-31.1319 417.0538,-22.4809"/>
<polygon fill="#191970" stroke="#191970" points="418.12,-25.815 426.665,-19.5513 416.079,-19.1191 418.12,-25.815"/>
</g>
</g>
</svg>
        <g id="navigator" transform="translate(0 0)" fill="#404254">
                <rect fill="#f2f5e9" fill-opacity="0.5" stroke="#606060" stroke-width=".5" x="0" y="0" width="60" height="60"/>
                <use id="zoomplus" xlink:href="#zoomPlus" x="17" y="9" onmousedown="handleZoom(evt,'in')"/>
                <use id="zoomminus" xlink:href="#zoomMin" x="42" y="9" onmousedown="handleZoom(evt,'out')"/>
                <use id="reset" xlink:href="#resetDef" x="30" y="36" onmousedown="handleReset()"/>
                <g id="arrowUp" xlink:href="#dirArrow" transform="translate(30 24)" onmousedown="handlePan(0,-1)">
                  <use xlink:href="#rim" fill="#404040">
                        <set attributeName="fill" to="#808080" begin="arrowUp.mouseover" end="arrowUp.mouseout"/>
                  </use>
                  <path fill="none" stroke="white" stroke-width="1.5" d="M0,-3.0v7 M-2.5,-0.5L0,-3.0L2.5,-0.5"/>
                </g>
                <g id="arrowRight" xlink:href="#dirArrow" transform="rotate(90) translate(36 -43)" onmousedown="handlePan(1,0)">
                  <use xlink:href="#rim" fill="#404040">
                        <set attributeName="fill" to="#808080" begin="arrowRight.mouseover" end="arrowRight.mouseout"/>
                  </use>
                  <path fill="none" stroke="white" stroke-width="1.5" d="M0,-3.0v7 M-2.5,-0.5L0,-3.0L2.5,-0.5"/>
                </g>
                <g id="arrowDown" xlink:href="#dirArrow" transform="rotate(180) translate(-30 -48)" onmousedown="handlePan(0,1)">
                  <use xlink:href="#rim" fill="#404040">
                        <set attributeName="fill" to="#808080" begin="arrowDown.mouseover" end="arrowDown.mouseout"/>
                  </use>
                  <path fill="none" stroke="white" stroke-width="1.5" d="M0,-3.0v7 M-2.5,-0.5L0,-3.0L2.5,-0.5"/>
                </g>
                <g id="arrowLeft" xlink:href="#dirArrow" transform="rotate(270) translate(-36 17)" onmousedown="handlePan(-1,0)">
                  <use xlink:href="#rim" fill="#404040">
                        <set attributeName="fill" to="#808080" begin="arrowLeft.mouseover" end="arrowLeft.mouseout"/>
                  </use>
                  <path fill="none" stroke="white" stroke-width="1.5" d="M0,-3.0v7 M-2.5,-0.5L0,-3.0L2.5,-0.5"/>
                </g>
        </g>
        <svg viewBox="0 0 15 15" width="100%" height="30px" preserveAspectRatio="xMaxYMin meet">
         <g id="arrow_out" transform="scale(0.3 0.3)">
          <a xlink:href="namespaceopenage_1_1convert_1_1driver_af952f8f82261ef86e5c83facd56758f9_cgraph_org.svg" target="_base">
           <rect id="button" ry="5" rx="5" y="6" x="6" height="38" width="38"
                fill="#f2f5e9" fill-opacity="0.5" stroke="#606060" stroke-width="1.0"/>
           <path id="arrow"
             d="M 11.500037,31.436501 C 11.940474,20.09759 22.043105,11.32322 32.158766,21.979434 L 37.068811,17.246167 C 37.068811,17.246167 37.088388,32 37.088388,32 L 22.160133,31.978069 C 22.160133,31.978069 26.997745,27.140456 26.997745,27.140456 C 18.528582,18.264221 13.291696,25.230495 11.500037,31.436501 z"
             style="fill:#404040;"/>
          </a>
         </g>
        </svg>
</svg>
