<?xml version="1.0" encoding="UTF-8" standalone="no"?>
<!DOCTYPE svg PUBLIC "-//W3C//DTD SVG 1.1//EN"
 "http://www.w3.org/Graphics/SVG/1.1/DTD/svg11.dtd">
<!-- Generated by graphviz version 2.40.1 (20161225.0304)
 -->
<!-- Title: openage.convert.driver.get_string_resources Pages: 1 -->
<svg width="876pt" height="163pt"
 viewBox="0.00 0.00 876.00 162.50" xmlns="http://www.w3.org/2000/svg" xmlns:xlink="http://www.w3.org/1999/xlink">
<g id="graph0" class="graph" transform="scale(1 1) rotate(0) translate(4 158.5)">
<title>openage.convert.driver.get_string_resources</title>
<polygon fill="#ffffff" stroke="transparent" points="-4,4 -4,-158.5 872,-158.5 872,4 -4,4"/>
<!-- Node156 -->
<g id="node1" class="node">
<title>Node156</title>
<polygon fill="#bfbfbf" stroke="#000000" points="0,-75 0,-105 132,-105 132,-75 0,-75"/>
<text text-anchor="start" x="8" y="-93" font-family="Helvetica,sans-Serif" font-size="10.00" fill="#000000">openage.convert.driver.get</text>
<text text-anchor="middle" x="66" y="-82" font-family="Helvetica,sans-Serif" font-size="10.00" fill="#000000">_string_resources</text>
</g>
<!-- Node157 -->
<g id="node2" class="node">
<title>Node157</title>
<g id="a_node2"><a xlink:href="../../db/d69/namespaceopenage_1_1convert_1_1game__versions.xhtml#a34537bbd9836f1e83d73d08545ff07c6" target="_top" xlink:title="Determine whether any of the versions has patch 1, i.e. ">
<polygon fill="#ffffff" stroke="#000000" points="198,-124 198,-154 314,-154 314,-124 198,-124"/>
<text text-anchor="start" x="206" y="-142" font-family="Helvetica,sans-Serif" font-size="10.00" fill="#000000">openage.convert.game</text>
<text text-anchor="middle" x="256" y="-131" font-family="Helvetica,sans-Serif" font-size="10.00" fill="#000000">_versions.has_x1_p1</text>
</a>
</g>
</g>
<!-- Node156&#45;&gt;Node157 -->
<g id="edge1" class="edge">
<title>Node156&#45;&gt;Node157</title>
<path fill="none" stroke="#191970" d="M124.2975,-105.0346C144.45,-110.2318 167.2064,-116.1006 188.0639,-121.4796"/>
<polygon fill="#191970" stroke="#191970" points="187.2555,-124.8856 197.8127,-123.9938 189.0036,-118.1074 187.2555,-124.8856"/>
</g>
<!-- Node158 -->
<g id="node3" class="node">
<title>Node158</title>
<g id="a_node3"><a xlink:href="../../d0/d98/namespaceopenage_1_1convert_1_1hdlanguagefile.xhtml#a189674ed7c17e3398bf7e39919e3b641" target="_top" xlink:title="openage.convert.hdlanguagefile.read\l_age2_hd_3x_stringresources">
<polygon fill="#ffffff" stroke="#000000" points="168,-75 168,-105 344,-105 344,-75 168,-75"/>
<text text-anchor="start" x="176" y="-93" font-family="Helvetica,sans-Serif" font-size="10.00" fill="#000000">openage.convert.hdlanguagefile.read</text>
<text text-anchor="middle" x="256" y="-82" font-family="Helvetica,sans-Serif" font-size="10.00" fill="#000000">_age2_hd_3x_stringresources</text>
</a>
</g>
</g>
<!-- Node156&#45;&gt;Node158 -->
<g id="edge2" class="edge">
<title>Node156&#45;&gt;Node158</title>
<path fill="none" stroke="#191970" d="M132.1861,-90C140.4995,-90 149.1381,-90 157.8121,-90"/>
<polygon fill="#191970" stroke="#191970" points="157.9937,-93.5001 167.9937,-90 157.9937,-86.5001 157.9937,-93.5001"/>
</g>
<!-- Node165 -->
<g id="node10" class="node">
<title>Node165</title>
<g id="a_node10"><a xlink:href="../../d0/d98/namespaceopenage_1_1convert_1_1hdlanguagefile.xhtml#a352b2dbd5b398f49f4f46dcca838cebd" target="_top" xlink:title="openage.convert.hdlanguagefile.read\l_age2_hd_fe_stringresources">
<polygon fill="#ffffff" stroke="#000000" points="168,-26 168,-56 344,-56 344,-26 168,-26"/>
<text text-anchor="start" x="176" y="-44" font-family="Helvetica,sans-Serif" font-size="10.00" fill="#000000">openage.convert.hdlanguagefile.read</text>
<text text-anchor="middle" x="256" y="-33" font-family="Helvetica,sans-Serif" font-size="10.00" fill="#000000">_age2_hd_fe_stringresources</text>
</a>
</g>
</g>
<!-- Node156&#45;&gt;Node165 -->
<g id="edge10" class="edge">
<title>Node156&#45;&gt;Node165</title>
<path fill="none" stroke="#191970" d="M124.2975,-74.9654C144.45,-69.7682 167.2064,-63.8994 188.0639,-58.5204"/>
<polygon fill="#191970" stroke="#191970" points="189.0036,-61.8926 197.8127,-56.0062 187.2555,-55.1144 189.0036,-61.8926"/>
</g>
<!-- Node159 -->
<g id="node4" class="node">
<title>Node159</title>
<g id="a_node4"><a xlink:href="../../d4/dd4/namespaceopenage_1_1py.xhtml#a58cbca251b8e2118e0a6b9b0b78a7b32" target="_top" xlink:title="list() ">
<polygon fill="#ffffff" stroke="#000000" points="423.5,-80.5 423.5,-99.5 512.5,-99.5 512.5,-80.5 423.5,-80.5"/>
<text text-anchor="middle" x="468" y="-87.5" font-family="Helvetica,sans-Serif" font-size="10.00" fill="#000000">openage::py::list</text>
</a>
</g>
</g>
<!-- Node158&#45;&gt;Node159 -->
<g id="edge3" class="edge">
<title>Node158&#45;&gt;Node159</title>
<path fill="none" stroke="#191970" d="M344.0653,-90C367.529,-90 392.2001,-90 413.2984,-90"/>
<polygon fill="#191970" stroke="#191970" points="413.3479,-93.5001 423.3478,-90 413.3478,-86.5001 413.3479,-93.5001"/>
</g>
<!-- Node162 -->
<g id="node7" class="node">
<title>Node162</title>
<g id="a_node7"><a xlink:href="../../d0/d98/namespaceopenage_1_1convert_1_1hdlanguagefile.xhtml#acc46a3a14127905594fced841fdfb09b" target="_top" xlink:title="Takes a file object, and the file&#39;s language code. ">
<polygon fill="#ffffff" stroke="#000000" points="380,-28 380,-58 556,-58 556,-28 380,-28"/>
<text text-anchor="start" x="388" y="-46" font-family="Helvetica,sans-Serif" font-size="10.00" fill="#000000">openage.convert.hdlanguagefile.read</text>
<text text-anchor="middle" x="468" y="-35" font-family="Helvetica,sans-Serif" font-size="10.00" fill="#000000">_hd_language_file</text>
</a>
</g>
</g>
<!-- Node158&#45;&gt;Node162 -->
<g id="edge7" class="edge">
<title>Node158&#45;&gt;Node162</title>
<path fill="none" stroke="#191970" d="M323.661,-74.9997C344.888,-70.2937 368.4857,-65.0621 390.3471,-60.2155"/>
<polygon fill="#191970" stroke="#191970" points="391.2493,-63.6006 400.2547,-58.019 389.7341,-56.7665 391.2493,-63.6006"/>
</g>
<!-- Node160 -->
<g id="node5" class="node">
<title>Node160</title>
<g id="a_node5"><a xlink:href="../../d5/d0e/namespaceopenage_1_1testing_1_1testing.xhtml#ac25bf81db406af62d08113ef7ae9fd6e" target="_top" xlink:title="openage.testing.testing.result">
<polygon fill="#ffffff" stroke="#000000" points="592,-80.5 592,-99.5 737,-99.5 737,-80.5 592,-80.5"/>
<text text-anchor="middle" x="664.5" y="-87.5" font-family="Helvetica,sans-Serif" font-size="10.00" fill="#000000">openage.testing.testing.result</text>
</a>
</g>
</g>
<!-- Node159&#45;&gt;Node160 -->
<g id="edge4" class="edge">
<title>Node159&#45;&gt;Node160</title>
<path fill="none" stroke="#191970" d="M512.5889,-90C533.0984,-90 558.1081,-90 581.8673,-90"/>
<polygon fill="#191970" stroke="#191970" points="581.9565,-93.5001 591.9565,-90 581.9565,-86.5001 581.9565,-93.5001"/>
</g>
<!-- Node161 -->
<g id="node6" class="node">
<title>Node161</title>
<g id="a_node6"><a xlink:href="../../de/d60/namespaceopenage_1_1util.xhtml#a7bc4421a5f0f57f3a0aba3f96eb8d19c" target="_top" xlink:title="method that behaves similar to python&#39;s &quot;repr&quot;. ">
<polygon fill="#ffffff" stroke="#000000" points="773,-80.5 773,-99.5 868,-99.5 868,-80.5 773,-80.5"/>
<text text-anchor="middle" x="820.5" y="-87.5" font-family="Helvetica,sans-Serif" font-size="10.00" fill="#000000">openage::util::repr</text>
</a>
</g>
</g>
<!-- Node160&#45;&gt;Node161 -->
<g id="edge5" class="edge">
<title>Node160&#45;&gt;Node161</title>
<path fill="none" stroke="#191970" d="M737.0196,-83.2648C745.6179,-83.2182 754.3054,-83.2815 762.6614,-83.4545"/>
<polygon fill="#191970" stroke="#191970" points="762.5718,-86.9533 772.6613,-83.7201 762.7578,-79.9558 762.5718,-86.9533"/>
</g>
<!-- Node161&#45;&gt;Node160 -->
<g id="edge6" class="edge">
<title>Node161&#45;&gt;Node160</title>
<path fill="none" stroke="#191970" d="M772.6613,-96.2799C764.5562,-96.5451 755.9375,-96.6982 747.24,-96.7389"/>
<polygon fill="#191970" stroke="#191970" points="747.021,-93.2389 737.0196,-96.7352 747.0183,-100.2389 747.021,-93.2389"/>
</g>
<!-- Node163 -->
<g id="node8" class="node">
<title>Node163</title>
<g id="a_node8"><a xlink:href="../../dd/d1a/namespaceopenage_1_1log.xhtml#a5cb08687f485da2549d7eebef26368a6" target="_top" xlink:title="debug message ">
<polygon fill="#ffffff" stroke="#000000" points="620.5,-38.5 620.5,-57.5 708.5,-57.5 708.5,-38.5 620.5,-38.5"/>
<text text-anchor="middle" x="664.5" y="-45.5" font-family="Helvetica,sans-Serif" font-size="10.00" fill="#000000">openage.log.dbg</text>
</a>
</g>
</g>
<!-- Node162&#45;&gt;Node163 -->
<g id="edge8" class="edge">
<title>Node162&#45;&gt;Node163</title>
<path fill="none" stroke="#191970" d="M556.1912,-45.2441C574.6103,-45.7127 593.5059,-46.1935 610.2521,-46.6196"/>
<polygon fill="#191970" stroke="#191970" points="610.2918,-50.1217 620.3777,-46.8773 610.47,-43.124 610.2918,-50.1217"/>
</g>
<!-- Node164 -->
<g id="node9" class="node">
<title>Node164</title>
<g id="a_node9"><a xlink:href="../../de/d60/namespaceopenage_1_1util.xhtml#a9556b8562574e2c6ad102d8fd87569c6" target="_top" xlink:title="Split a string at a delimiter into a vector. ">
<polygon fill="#ffffff" stroke="#000000" points="616.5,-.5 616.5,-19.5 712.5,-19.5 712.5,-.5 616.5,-.5"/>
<text text-anchor="middle" x="664.5" y="-7.5" font-family="Helvetica,sans-Serif" font-size="10.00" fill="#000000">openage::util::split</text>
</a>
</g>
</g>
<!-- Node162&#45;&gt;Node164 -->
<g id="edge9" class="edge">
<title>Node162&#45;&gt;Node164</title>
<path fill="none" stroke="#191970" d="M556.1912,-28.1893C573.1811,-25.336 590.5765,-22.4146 606.3164,-19.7713"/>
<polygon fill="#191970" stroke="#191970" points="607.1175,-23.1858 616.3997,-18.0779 605.9582,-16.2825 607.1175,-23.1858"/>
</g>
<!-- Node165&#45;&gt;Node162 -->
<g id="edge11" class="edge">
<title>Node165&#45;&gt;Node162</title>
<path fill="none" stroke="#191970" d="M344.0653,-41.8308C352.5691,-41.911 361.2315,-41.9928 369.825,-42.0738"/>
<polygon fill="#191970" stroke="#191970" points="369.835,-45.574 379.8676,-42.1686 369.9011,-38.5743 369.835,-45.574"/>
</g>
</g>
</svg>
