<?xml version="1.0" encoding="UTF-8" standalone="no"?>
<!DOCTYPE svg PUBLIC "-//W3C//DTD SVG 1.1//EN"
 "http://www.w3.org/Graphics/SVG/1.1/DTD/svg11.dtd">
<!-- Generated by graphviz version 2.40.1 (20161225.0304)
 -->
<!-- Title: openage.convert.driver.convert_mediafile Pages: 1 -->
<!--zoomable 165 -->
<svg id="main" version="1.1" xmlns="http://www.w3.org/2000/svg" xmlns:xlink="http://www.w3.org/1999/xlink" xml:space="preserve" onload="init(evt)">
<style type="text/css"><![CDATA[
.edge:hover path { stroke: red; }
.edge:hover polygon { stroke: red; fill: red; }
]]></style>
<script type="text/javascript"><![CDATA[
var edges = document.getElementsByTagName('g');
if (edges && edges.length) {
  for (var i=0;i<edges.length;i++) {
    if (edges[i].id.substr(0,4)=='edge') {
      edges[i].setAttribute('class','edge');
    }
  }
}
]]></script>
        <defs>
                <circle id="rim" cx="0" cy="0" r="7"/>
                <circle id="rim2" cx="0" cy="0" r="3.5"/>
                <g id="zoomPlus">
                        <use xlink:href="#rim" fill="#404040">
                                <set attributeName="fill" to="#808080" begin="zoomplus.mouseover" end="zoomplus.mouseout"/>
                        </use>
                        <path d="M-4,0h8M0,-4v8" fill="none" stroke="white" stroke-width="1.5" pointer-events="none"/>
                </g>
                <g id="zoomMin">
                        <use xlink:href="#rim" fill="#404040">
                                <set attributeName="fill" to="#808080" begin="zoomminus.mouseover" end="zoomminus.mouseout"/>
                        </use>
                        <path d="M-4,0h8" fill="none" stroke="white" stroke-width="1.5" pointer-events="none"/>
                </g>
                <g id="dirArrow">
                        <path fill="none" stroke="white" stroke-width="1.5" d="M0,-3.0v7 M-2.5,-0.5L0,-3.0L2.5,-0.5"/>
                </g>
               <g id="resetDef">
                       <use xlink:href="#rim2" fill="#404040">
                               <set attributeName="fill" to="#808080" begin="reset.mouseover" end="reset.mouseout"/>
                       </use>
               </g>
        </defs>

<script type="text/javascript">
var viewWidth = 1148;
var viewHeight = 165;
var sectionId = 'dynsection-5';
</script>
<script xlink:href="../../svgpan.js"/>
<svg id="graph" class="graph">
<g id="viewport">
<title>openage.convert.driver.convert_mediafile</title>
<polygon fill="#ffffff" stroke="transparent" points="-4,4 -4,-161 1144,-161 1144,4 -4,4"/>
<!-- Node65 -->
<g id="node1" class="node">
<title>Node65</title>
<polygon fill="#bfbfbf" stroke="#000000" points="0,-17 0,-47 151,-47 151,-17 0,-17"/>
<text text-anchor="start" x="8" y="-35" font-family="Helvetica,sans-Serif" font-size="10.00" fill="#000000">openage.convert.driver.convert</text>
<text text-anchor="middle" x="75.5" y="-24" font-family="Helvetica,sans-Serif" font-size="10.00" fill="#000000">_mediafile</text>
</g>
<!-- Node66 -->
<g id="node2" class="node">
<title>Node66</title>
<g id="a_node2"><a xlink:href="../../d7/d5b/namespaceopenage_1_1convert_1_1driver.xhtml#a7d1272350acf362f78ea6e0373880c59" target="_top" xlink:title="openage.convert.driver.convert_slp">
<polygon fill="#ffffff" stroke="#000000" points="189.5,-42.5 189.5,-61.5 358.5,-61.5 358.5,-42.5 189.5,-42.5"/>
<text text-anchor="middle" x="274" y="-49.5" font-family="Helvetica,sans-Serif" font-size="10.00" fill="#000000">openage.convert.driver.convert_slp</text>
</a>
</g>
</g>
<!-- Node65&#45;&gt;Node66 -->
<g id="edge1" class="edge">
<title>Node65&#45;&gt;Node66</title>
<path fill="none" stroke="#191970" d="M151.1106,-39.6182C160.283,-40.5424 169.7415,-41.4954 179.1472,-42.443"/>
<polygon fill="#191970" stroke="#191970" points="179.0161,-45.9475 189.3166,-43.4677 179.7179,-38.9827 179.0161,-45.9475"/>
</g>
<!-- Node76 -->
<g id="node12" class="node">
<title>Node76</title>
<g id="a_node12"><a xlink:href="../../d7/d5b/namespaceopenage_1_1convert_1_1driver.xhtml#ac829030d79b4d14be0f6cf8c1eb035a8" target="_top" xlink:title="Convert a wav audio file to an opus file. ">
<polygon fill="#ffffff" stroke="#000000" points="187,-3.5 187,-22.5 361,-22.5 361,-3.5 187,-3.5"/>
<text text-anchor="middle" x="274" y="-10.5" font-family="Helvetica,sans-Serif" font-size="10.00" fill="#000000">openage.convert.driver.convert_wav</text>
</a>
</g>
</g>
<!-- Node65&#45;&gt;Node76 -->
<g id="edge13" class="edge">
<title>Node65&#45;&gt;Node76</title>
<path fill="none" stroke="#191970" d="M151.1106,-24.7627C159.5366,-23.9562 168.204,-23.1266 176.8502,-22.299"/>
<polygon fill="#191970" stroke="#191970" points="177.3535,-25.7669 186.9745,-21.3299 176.6865,-18.7987 177.3535,-25.7669"/>
</g>
<!-- Node67 -->
<g id="node3" class="node">
<title>Node67</title>
<g id="a_node3"><a xlink:href="../../da/d24/namespaceopenage_1_1convert_1_1interface_1_1rename.xhtml#a045e4e1a64322c77bfee10f24e8613e7" target="_top" xlink:title="Renaming interface assets and splitting into directories. ">
<polygon fill="#ffffff" stroke="#000000" points="397,-88 397,-118 580,-118 580,-88 397,-88"/>
<text text-anchor="start" x="405" y="-106" font-family="Helvetica,sans-Serif" font-size="10.00" fill="#000000">openage.convert.interface.rename.hud</text>
<text text-anchor="middle" x="488.5" y="-95" font-family="Helvetica,sans-Serif" font-size="10.00" fill="#000000">_rename</text>
</a>
</g>
</g>
<!-- Node66&#45;&gt;Node67 -->
<g id="edge2" class="edge">
<title>Node66&#45;&gt;Node67</title>
<path fill="none" stroke="#191970" d="M314.0942,-61.5329C342.4577,-68.2766 381.3066,-77.5135 415.1404,-85.5578"/>
<polygon fill="#191970" stroke="#191970" points="414.4599,-88.9936 424.9983,-87.9017 416.0791,-82.1834 414.4599,-88.9936"/>
</g>
<!-- Node73 -->
<g id="node9" class="node">
<title>Node73</title>
<g id="a_node9"><a xlink:href="../../d7/d5b/namespaceopenage_1_1convert_1_1driver.xhtml#a3a28ebc76c4e7841f81931892db4849a" target="_top" xlink:title="Returns a human&#45;readable name if it&#39;s in the map. ">
<polygon fill="#ffffff" stroke="#000000" points="423,-39 423,-69 554,-69 554,-39 423,-39"/>
<text text-anchor="start" x="431" y="-57" font-family="Helvetica,sans-Serif" font-size="10.00" fill="#000000">openage.convert.driver.slp</text>
<text text-anchor="middle" x="488.5" y="-46" font-family="Helvetica,sans-Serif" font-size="10.00" fill="#000000">_rename</text>
</a>
</g>
</g>
<!-- Node66&#45;&gt;Node73 -->
<g id="edge9" class="edge">
<title>Node66&#45;&gt;Node73</title>
<path fill="none" stroke="#191970" d="M358.7761,-52.7905C376.5921,-52.9566 395.2744,-53.1308 412.7351,-53.2936"/>
<polygon fill="#191970" stroke="#191970" points="412.8265,-56.7945 422.8587,-53.388 412.8918,-49.7948 412.8265,-56.7945"/>
</g>
<!-- Node74 -->
<g id="node10" class="node">
<title>Node74</title>
<g id="a_node10"><a xlink:href="../../d7/d5b/namespaceopenage_1_1convert_1_1driver.xhtml#a6dce2cf04f6cf53afeba4c3dc859a3f0" target="_top" xlink:title="openage.convert.driver.change_dir">
<polygon fill="#ffffff" stroke="#000000" points="405.5,-.5 405.5,-19.5 571.5,-19.5 571.5,-.5 405.5,-.5"/>
<text text-anchor="middle" x="488.5" y="-7.5" font-family="Helvetica,sans-Serif" font-size="10.00" fill="#000000">openage.convert.driver.change_dir</text>
</a>
</g>
</g>
<!-- Node66&#45;&gt;Node74 -->
<g id="edge10" class="edge">
<title>Node66&#45;&gt;Node74</title>
<path fill="none" stroke="#191970" d="M322.6734,-42.4695C354.3746,-36.2623 395.9251,-28.1265 429.5033,-21.5518"/>
<polygon fill="#191970" stroke="#191970" points="430.5074,-24.9217 439.6484,-19.5653 429.1622,-18.0522 430.5074,-24.9217"/>
</g>
<!-- Node68 -->
<g id="node4" class="node">
<title>Node68</title>
<g id="a_node4"><a xlink:href="../../d4/dd4/namespaceopenage_1_1py.xhtml#a4d2bbe46a5d10404c658b54f3b199551" target="_top" xlink:title="str(value); ">
<polygon fill="#ffffff" stroke="#000000" points="678.5,-137.5 678.5,-156.5 765.5,-156.5 765.5,-137.5 678.5,-137.5"/>
<text text-anchor="middle" x="722" y="-144.5" font-family="Helvetica,sans-Serif" font-size="10.00" fill="#000000">openage::py::str</text>
</a>
</g>
</g>
<!-- Node67&#45;&gt;Node68 -->
<g id="edge3" class="edge">
<title>Node67&#45;&gt;Node68</title>
<path fill="none" stroke="#191970" d="M563.9706,-118.0088C581.0687,-121.3504 599.1508,-124.8383 616,-128 632.9671,-131.1839 651.4846,-134.5428 668.2268,-137.5362"/>
<polygon fill="#191970" stroke="#191970" points="667.9331,-141.039 678.3921,-139.3481 669.1614,-134.1476 667.9331,-141.039"/>
</g>
<!-- Node71 -->
<g id="node7" class="node">
<title>Node71</title>
<g id="a_node7"><a xlink:href="../../d3/df8/namespaceopenage_1_1convert_1_1interface_1_1hardcoded.xhtml#a5269bff8c865ba582e87918dd9e28d0d" target="_top" xlink:title="Index in the hardcoded list of the known ingame hud backgrounds to match the civ. ...">
<polygon fill="#ffffff" stroke="#000000" points="616,-88 616,-118 828,-118 828,-88 616,-88"/>
<text text-anchor="start" x="624" y="-106" font-family="Helvetica,sans-Serif" font-size="10.00" fill="#000000">openage.convert.interface.hardcoded.ingame</text>
<text text-anchor="middle" x="722" y="-95" font-family="Helvetica,sans-Serif" font-size="10.00" fill="#000000">_hud_background_index</text>
</a>
</g>
</g>
<!-- Node67&#45;&gt;Node71 -->
<g id="edge7" class="edge">
<title>Node67&#45;&gt;Node71</title>
<path fill="none" stroke="#191970" d="M580.1152,-103C588.5638,-103 597.1967,-103 605.8254,-103"/>
<polygon fill="#191970" stroke="#191970" points="605.9415,-106.5001 615.9415,-103 605.9414,-99.5001 605.9415,-106.5001"/>
</g>
<!-- Node72 -->
<g id="node8" class="node">
<title>Node72</title>
<g id="a_node8"><a xlink:href="../../da/d24/namespaceopenage_1_1convert_1_1interface_1_1rename.xhtml#ac64b3950e30561002141b4459599afb0" target="_top" xlink:title="Rename a slp asset path by the lookup map above. ">
<polygon fill="#ffffff" stroke="#000000" points="626.5,-39 626.5,-69 817.5,-69 817.5,-39 626.5,-39"/>
<text text-anchor="start" x="634.5" y="-57" font-family="Helvetica,sans-Serif" font-size="10.00" fill="#000000">openage.convert.interface.rename.asset</text>
<text text-anchor="middle" x="722" y="-46" font-family="Helvetica,sans-Serif" font-size="10.00" fill="#000000">_rename</text>
</a>
</g>
</g>
<!-- Node67&#45;&gt;Node72 -->
<g id="edge8" class="edge">
<title>Node67&#45;&gt;Node72</title>
<path fill="none" stroke="#191970" d="M560.1445,-87.9654C585.5833,-82.627 614.3983,-76.5802 640.5925,-71.0834"/>
<polygon fill="#191970" stroke="#191970" points="641.4229,-74.4854 650.4909,-69.0062 639.9853,-67.6346 641.4229,-74.4854"/>
</g>
<!-- Node69 -->
<g id="node5" class="node">
<title>Node69</title>
<g id="a_node5"><a xlink:href="../../d5/d0e/namespaceopenage_1_1testing_1_1testing.xhtml#ac25bf81db406af62d08113ef7ae9fd6e" target="_top" xlink:title="openage.testing.testing.result">
<polygon fill="#ffffff" stroke="#000000" points="864,-68.5 864,-87.5 1009,-87.5 1009,-68.5 864,-68.5"/>
<text text-anchor="middle" x="936.5" y="-75.5" font-family="Helvetica,sans-Serif" font-size="10.00" fill="#000000">openage.testing.testing.result</text>
</a>
</g>
</g>
<!-- Node68&#45;&gt;Node69 -->
<g id="edge4" class="edge">
<title>Node68&#45;&gt;Node69</title>
<path fill="none" stroke="#191970" d="M765.6659,-141.7289C785.0347,-138.741 807.9351,-134.3079 828,-128 857.3003,-118.7887 889.0084,-103.5033 910.5342,-92.2533"/>
<polygon fill="#191970" stroke="#191970" points="912.1895,-95.3373 919.3808,-87.5568 908.9072,-89.1545 912.1895,-95.3373"/>
</g>
<!-- Node70 -->
<g id="node6" class="node">
<title>Node70</title>
<g id="a_node6"><a xlink:href="../../de/d60/namespaceopenage_1_1util.xhtml#a7bc4421a5f0f57f3a0aba3f96eb8d19c" target="_top" xlink:title="method that behaves similar to python&#39;s &quot;repr&quot;. ">
<polygon fill="#ffffff" stroke="#000000" points="1045,-68.5 1045,-87.5 1140,-87.5 1140,-68.5 1045,-68.5"/>
<text text-anchor="middle" x="1092.5" y="-75.5" font-family="Helvetica,sans-Serif" font-size="10.00" fill="#000000">openage::util::repr</text>
</a>
</g>
</g>
<!-- Node69&#45;&gt;Node70 -->
<g id="edge5" class="edge">
<title>Node69&#45;&gt;Node70</title>
<path fill="none" stroke="#191970" d="M1009.0196,-71.2648C1017.6179,-71.2182 1026.3054,-71.2815 1034.6614,-71.4545"/>
<polygon fill="#191970" stroke="#191970" points="1034.5718,-74.9533 1044.6613,-71.7201 1034.7578,-67.9558 1034.5718,-74.9533"/>
</g>
<!-- Node70&#45;&gt;Node69 -->
<g id="edge6" class="edge">
<title>Node70&#45;&gt;Node69</title>
<path fill="none" stroke="#191970" d="M1044.6613,-84.2799C1036.5562,-84.5451 1027.9375,-84.6982 1019.24,-84.7389"/>
<polygon fill="#191970" stroke="#191970" points="1019.021,-81.2389 1009.0196,-84.7352 1019.0183,-88.2389 1019.021,-81.2389"/>
</g>
<!-- Node75 -->
<g id="node11" class="node">
<title>Node75</title>
<g id="a_node11"><a xlink:href="../../d4/dd4/namespaceopenage_1_1py.xhtml#a58cbca251b8e2118e0a6b9b0b78a7b32" target="_top" xlink:title="list() ">
<polygon fill="#ffffff" stroke="#000000" points="677.5,-.5 677.5,-19.5 766.5,-19.5 766.5,-.5 677.5,-.5"/>
<text text-anchor="middle" x="722" y="-7.5" font-family="Helvetica,sans-Serif" font-size="10.00" fill="#000000">openage::py::list</text>
</a>
</g>
</g>
<!-- Node74&#45;&gt;Node75 -->
<g id="edge11" class="edge">
<title>Node74&#45;&gt;Node75</title>
<path fill="none" stroke="#191970" d="M571.8099,-10C603.538,-10 638.8645,-10 667.2816,-10"/>
<polygon fill="#191970" stroke="#191970" points="667.4189,-13.5001 677.4189,-10 667.4189,-6.5001 667.4189,-13.5001"/>
</g>
<!-- Node75&#45;&gt;Node69 -->
<g id="edge12" class="edge">
<title>Node75&#45;&gt;Node69</title>
<path fill="none" stroke="#191970" d="M766.6795,-15.5047C785.8214,-18.5027 808.2683,-22.8794 828,-29 856.931,-37.9741 888.2962,-52.7321 909.8269,-63.7106"/>
<polygon fill="#191970" stroke="#191970" points="908.4941,-66.9619 918.9833,-68.4545 911.7143,-60.7465 908.4941,-66.9619"/>
</g>
<!-- Node76&#45;&gt;Node74 -->
<g id="edge14" class="edge">
<title>Node76&#45;&gt;Node74</title>
<path fill="none" stroke="#191970" d="M361.2454,-11.7798C372.4345,-11.6233 383.9248,-11.4626 395.2056,-11.3048"/>
<polygon fill="#191970" stroke="#191970" points="395.5419,-14.8006 405.492,-11.161 395.444,-7.8012 395.5419,-14.8006"/>
</g>
</g>
</svg>
        <g id="navigator" transform="translate(0 0)" fill="#404254">
                <rect fill="#f2f5e9" fill-opacity="0.5" stroke="#606060" stroke-width=".5" x="0" y="0" width="60" height="60"/>
                <use id="zoomplus" xlink:href="#zoomPlus" x="17" y="9" onmousedown="handleZoom(evt,'in')"/>
                <use id="zoomminus" xlink:href="#zoomMin" x="42" y="9" onmousedown="handleZoom(evt,'out')"/>
                <use id="reset" xlink:href="#resetDef" x="30" y="36" onmousedown="handleReset()"/>
                <g id="arrowUp" xlink:href="#dirArrow" transform="translate(30 24)" onmousedown="handlePan(0,-1)">
                  <use xlink:href="#rim" fill="#404040">
                        <set attributeName="fill" to="#808080" begin="arrowUp.mouseover" end="arrowUp.mouseout"/>
                  </use>
                  <path fill="none" stroke="white" stroke-width="1.5" d="M0,-3.0v7 M-2.5,-0.5L0,-3.0L2.5,-0.5"/>
                </g>
                <g id="arrowRight" xlink:href="#dirArrow" transform="rotate(90) translate(36 -43)" onmousedown="handlePan(1,0)">
                  <use xlink:href="#rim" fill="#404040">
                        <set attributeName="fill" to="#808080" begin="arrowRight.mouseover" end="arrowRight.mouseout"/>
                  </use>
                  <path fill="none" stroke="white" stroke-width="1.5" d="M0,-3.0v7 M-2.5,-0.5L0,-3.0L2.5,-0.5"/>
                </g>
                <g id="arrowDown" xlink:href="#dirArrow" transform="rotate(180) translate(-30 -48)" onmousedown="handlePan(0,1)">
                  <use xlink:href="#rim" fill="#404040">
                        <set attributeName="fill" to="#808080" begin="arrowDown.mouseover" end="arrowDown.mouseout"/>
                  </use>
                  <path fill="none" stroke="white" stroke-width="1.5" d="M0,-3.0v7 M-2.5,-0.5L0,-3.0L2.5,-0.5"/>
                </g>
                <g id="arrowLeft" xlink:href="#dirArrow" transform="rotate(270) translate(-36 17)" onmousedown="handlePan(-1,0)">
                  <use xlink:href="#rim" fill="#404040">
                        <set attributeName="fill" to="#808080" begin="arrowLeft.mouseover" end="arrowLeft.mouseout"/>
                  </use>
                  <path fill="none" stroke="white" stroke-width="1.5" d="M0,-3.0v7 M-2.5,-0.5L0,-3.0L2.5,-0.5"/>
                </g>
        </g>
        <svg viewBox="0 0 15 15" width="100%" height="30px" preserveAspectRatio="xMaxYMin meet">
         <g id="arrow_out" transform="scale(0.3 0.3)">
          <a xlink:href="namespaceopenage_1_1convert_1_1driver_a43cdddabcdd60c8443967f3b81047bd4_cgraph_org.svg" target="_base">
           <rect id="button" ry="5" rx="5" y="6" x="6" height="38" width="38"
                fill="#f2f5e9" fill-opacity="0.5" stroke="#606060" stroke-width="1.0"/>
           <path id="arrow"
             d="M 11.500037,31.436501 C 11.940474,20.09759 22.043105,11.32322 32.158766,21.979434 L 37.068811,17.246167 C 37.068811,17.246167 37.088388,32 37.088388,32 L 22.160133,31.978069 C 22.160133,31.978069 26.997745,27.140456 26.997745,27.140456 C 18.528582,18.264221 13.291696,25.230495 11.500037,31.436501 z"
             style="fill:#404040;"/>
          </a>
         </g>
        </svg>
</svg>
