<?xml version="1.0" encoding="UTF-8" standalone="no"?>
<!DOCTYPE svg PUBLIC "-//W3C//DTD SVG 1.1//EN"
 "http://www.w3.org/Graphics/SVG/1.1/DTD/svg11.dtd">
<!-- Generated by graphviz version 2.40.1 (20161225.0304)
 -->
<!-- Title: openage::UnitAbility::is_ally Pages: 1 -->
<svg width="271pt" height="137pt"
 viewBox="0.00 0.00 271.00 137.00" xmlns="http://www.w3.org/2000/svg" xmlns:xlink="http://www.w3.org/1999/xlink">
<g id="graph0" class="graph" transform="scale(1 1) rotate(0) translate(4 133)">
<title>openage::UnitAbility::is_ally</title>
<polygon fill="#ffffff" stroke="transparent" points="-4,4 -4,-133 267,-133 267,4 -4,4"/>
<!-- Node56 -->
<g id="node1" class="node">
<title>Node56</title>
<polygon fill="#bfbfbf" stroke="#000000" points="0,-49.5 0,-79.5 104,-79.5 104,-49.5 0,-49.5"/>
<text text-anchor="start" x="8" y="-67.5" font-family="Helvetica,sans-Serif" font-size="10.00" fill="#000000">openage::UnitAbility</text>
<text text-anchor="middle" x="52" y="-56.5" font-family="Helvetica,sans-Serif" font-size="10.00" fill="#000000">::is_ally</text>
</g>
<!-- Node57 -->
<g id="node2" class="node">
<title>Node57</title>
<g id="a_node2"><a xlink:href="../../d3/dea/classopenage_1_1_garrison_ability.xhtml#a9fb1408b1820a14dedf69ca911110727" target="_top" xlink:title="true if the paramaters allow an action to be performed ">
<polygon fill="#ffffff" stroke="#000000" points="140,-98.5 140,-128.5 263,-128.5 263,-98.5 140,-98.5"/>
<text text-anchor="start" x="148" y="-116.5" font-family="Helvetica,sans-Serif" font-size="10.00" fill="#000000">openage::GarrisonAbility</text>
<text text-anchor="middle" x="201.5" y="-105.5" font-family="Helvetica,sans-Serif" font-size="10.00" fill="#000000">::can_invoke</text>
</a>
</g>
</g>
<!-- Node56&#45;&gt;Node57 -->
<g id="edge1" class="edge">
<title>Node56&#45;&gt;Node57</title>
<path fill="none" stroke="#191970" d="M107.7088,-82.7591C123.4771,-87.9273 140.4565,-93.4924 155.5773,-98.4484"/>
<polygon fill="#191970" stroke="#191970" points="108.6675,-79.3902 98.0748,-79.6014 106.4873,-86.042 108.6675,-79.3902"/>
</g>
<!-- Node58 -->
<g id="node3" class="node">
<title>Node58</title>
<g id="a_node3"><a xlink:href="../../dd/d47/classopenage_1_1_repair_ability.xhtml#ace3c32d3f619cdc28abfca9fa684b3e2" target="_top" xlink:title="true if the paramaters allow an action to be performed ">
<polygon fill="#ffffff" stroke="#000000" points="144,-49.5 144,-79.5 259,-79.5 259,-49.5 144,-49.5"/>
<text text-anchor="start" x="152" y="-67.5" font-family="Helvetica,sans-Serif" font-size="10.00" fill="#000000">openage::RepairAbility</text>
<text text-anchor="middle" x="201.5" y="-56.5" font-family="Helvetica,sans-Serif" font-size="10.00" fill="#000000">::can_invoke</text>
</a>
</g>
</g>
<!-- Node56&#45;&gt;Node58 -->
<g id="edge2" class="edge">
<title>Node56&#45;&gt;Node58</title>
<path fill="none" stroke="#191970" d="M114.3508,-64.5C124.1365,-64.5 134.2138,-64.5 143.8865,-64.5"/>
<polygon fill="#191970" stroke="#191970" points="114.2879,-61.0001 104.2878,-64.5 114.2878,-68.0001 114.2879,-61.0001"/>
</g>
<!-- Node59 -->
<g id="node4" class="node">
<title>Node59</title>
<g id="a_node4"><a xlink:href="../../d4/d30/classopenage_1_1_heal_ability.xhtml#a9940045e67d852476cf73aec89895218" target="_top" xlink:title="true if the paramaters allow an action to be performed ">
<polygon fill="#ffffff" stroke="#000000" points="148,-.5 148,-30.5 255,-30.5 255,-.5 148,-.5"/>
<text text-anchor="start" x="156" y="-18.5" font-family="Helvetica,sans-Serif" font-size="10.00" fill="#000000">openage::HealAbility</text>
<text text-anchor="middle" x="201.5" y="-7.5" font-family="Helvetica,sans-Serif" font-size="10.00" fill="#000000">::can_invoke</text>
</a>
</g>
</g>
<!-- Node56&#45;&gt;Node59 -->
<g id="edge3" class="edge">
<title>Node56&#45;&gt;Node59</title>
<path fill="none" stroke="#191970" d="M107.7088,-46.2409C123.4771,-41.0727 140.4565,-35.5076 155.5773,-30.5516"/>
<polygon fill="#191970" stroke="#191970" points="106.4873,-42.958 98.0748,-49.3986 108.6675,-49.6098 106.4873,-42.958"/>
</g>
</g>
</svg>
