<?xml version="1.0" encoding="UTF-8" standalone="no"?>
<!DOCTYPE svg PUBLIC "-//W3C//DTD SVG 1.1//EN"
 "http://www.w3.org/Graphics/SVG/1.1/DTD/svg11.dtd">
<!-- Generated by graphviz version 2.40.1 (20161225.0304)
 -->
<!-- Title: openage::event::EventStore::get_sorted_events Pages: 1 -->
<svg width="438pt" height="39pt"
 viewBox="0.00 0.00 438.00 39.00" xmlns="http://www.w3.org/2000/svg" xmlns:xlink="http://www.w3.org/1999/xlink">
<g id="graph0" class="graph" transform="scale(1 1) rotate(0) translate(4 35)">
<title>openage::event::EventStore::get_sorted_events</title>
<polygon fill="#ffffff" stroke="transparent" points="-4,4 -4,-35 434,-35 434,4 -4,4"/>
<!-- Node17 -->
<g id="node1" class="node">
<title>Node17</title>
<polygon fill="#bfbfbf" stroke="#000000" points="0,-.5 0,-30.5 138,-30.5 138,-.5 0,-.5"/>
<text text-anchor="start" x="8" y="-18.5" font-family="Helvetica,sans-Serif" font-size="10.00" fill="#000000">openage::event::EventStore</text>
<text text-anchor="middle" x="69" y="-7.5" font-family="Helvetica,sans-Serif" font-size="10.00" fill="#000000">::get_sorted_events</text>
</g>
<!-- Node18 -->
<g id="node2" class="node">
<title>Node18</title>
<g id="a_node2"><a xlink:href="../../df/d23/classopenage_1_1event_1_1_loop.xhtml#aa73104f71472a83e1afff4f11e0c619f" target="_top" xlink:title="Execute the events. ">
<polygon fill="#ffffff" stroke="#000000" points="174,-.5 174,-30.5 284,-30.5 284,-.5 174,-.5"/>
<text text-anchor="start" x="182" y="-18.5" font-family="Helvetica,sans-Serif" font-size="10.00" fill="#000000">openage::event::Loop</text>
<text text-anchor="middle" x="229" y="-7.5" font-family="Helvetica,sans-Serif" font-size="10.00" fill="#000000">::execute_events</text>
</a>
</g>
</g>
<!-- Node17&#45;&gt;Node18 -->
<g id="edge1" class="edge">
<title>Node17&#45;&gt;Node18</title>
<path fill="none" stroke="#191970" d="M148.2764,-15.5C156.8437,-15.5 165.4221,-15.5 173.6185,-15.5"/>
<polygon fill="#191970" stroke="#191970" points="148.2478,-12.0001 138.2478,-15.5 148.2477,-19.0001 148.2478,-12.0001"/>
</g>
<!-- Node19 -->
<g id="node3" class="node">
<title>Node19</title>
<g id="a_node3"><a xlink:href="../../df/d23/classopenage_1_1event_1_1_loop.xhtml#aeba9e515057a87d7fbfddb8585095de6" target="_top" xlink:title="Execute all events that are registered until a certain point in time. ">
<polygon fill="#ffffff" stroke="#000000" points="320,-.5 320,-30.5 430,-30.5 430,-.5 320,-.5"/>
<text text-anchor="start" x="328" y="-18.5" font-family="Helvetica,sans-Serif" font-size="10.00" fill="#000000">openage::event::Loop</text>
<text text-anchor="middle" x="375" y="-7.5" font-family="Helvetica,sans-Serif" font-size="10.00" fill="#000000">::reach_time</text>
</a>
</g>
</g>
<!-- Node18&#45;&gt;Node19 -->
<g id="edge2" class="edge">
<title>Node18&#45;&gt;Node19</title>
<path fill="none" stroke="#191970" d="M294.4101,-15.5C302.8647,-15.5 311.4567,-15.5 319.7256,-15.5"/>
<polygon fill="#191970" stroke="#191970" points="294.1964,-12.0001 284.1963,-15.5 294.1963,-19.0001 294.1964,-12.0001"/>
</g>
</g>
</svg>
