<?xml version="1.0" encoding="UTF-8" standalone="no"?>
<!DOCTYPE svg PUBLIC "-//W3C//DTD SVG 1.1//EN"
 "http://www.w3.org/Graphics/SVG/1.1/DTD/svg11.dtd">
<!-- Generated by graphviz version 2.40.1 (20161225.0304)
 -->
<!-- Title: /mnt/c/Users/Jameson/Desktop/git/openage&#45;new&#45;doc&#45;system/libopenage/renderer/vulkan/render_target.h Pages: 1 -->
<svg width="346pt" height="173pt"
 viewBox="0.00 0.00 345.50 173.00" xmlns="http://www.w3.org/2000/svg" xmlns:xlink="http://www.w3.org/1999/xlink">
<g id="graph0" class="graph" transform="scale(1 1) rotate(0) translate(4 169)">
<title>/mnt/c/Users/Jameson/Desktop/git/openage&#45;new&#45;doc&#45;system/libopenage/renderer/vulkan/render_target.h</title>
<polygon fill="#ffffff" stroke="transparent" points="-4,4 -4,-169 341.5,-169 341.5,4 -4,4"/>
<!-- Node0 -->
<g id="node1" class="node">
<title>Node0</title>
<polygon fill="#bfbfbf" stroke="#000000" points="31.5,-112.5 31.5,-164.5 186.5,-164.5 186.5,-112.5 31.5,-112.5"/>
<text text-anchor="start" x="39.5" y="-152.5" font-family="Helvetica,sans-Serif" font-size="10.00" fill="#000000">/mnt/c/Users/Jameson</text>
<text text-anchor="start" x="39.5" y="-141.5" font-family="Helvetica,sans-Serif" font-size="10.00" fill="#000000">/Desktop/git/openage</text>
<text text-anchor="start" x="39.5" y="-130.5" font-family="Helvetica,sans-Serif" font-size="10.00" fill="#000000">&#45;new&#45;doc&#45;system/libopenage</text>
<text text-anchor="middle" x="109" y="-119.5" font-family="Helvetica,sans-Serif" font-size="10.00" fill="#000000">/renderer/vulkan/render_target.h</text>
</g>
<!-- Node1 -->
<g id="node2" class="node">
<title>Node1</title>
<polygon fill="#ffffff" stroke="#bfbfbf" points="0,-56.5 0,-75.5 56,-75.5 56,-56.5 0,-56.5"/>
<text text-anchor="middle" x="28" y="-63.5" font-family="Helvetica,sans-Serif" font-size="10.00" fill="#000000">algorithm</text>
</g>
<!-- Node0&#45;&gt;Node1 -->
<g id="edge1" class="edge">
<title>Node0&#45;&gt;Node1</title>
<path fill="none" stroke="#191970" d="M79.7571,-112.3258C68.5699,-102.3126 56.1378,-91.1851 46.2624,-82.346"/>
<polygon fill="#191970" stroke="#191970" points="48.4373,-79.5954 38.6518,-75.534 43.7688,-84.8113 48.4373,-79.5954"/>
</g>
<!-- Node2 -->
<g id="node3" class="node">
<title>Node2</title>
<g id="a_node3"><a xlink:href="../../d6/d85/renderer_8h.xhtml" target="_top" xlink:title="../renderer.h">
<polygon fill="#ffffff" stroke="#000000" points="74.5,-56.5 74.5,-75.5 143.5,-75.5 143.5,-56.5 74.5,-56.5"/>
<text text-anchor="middle" x="109" y="-63.5" font-family="Helvetica,sans-Serif" font-size="10.00" fill="#000000">../renderer.h</text>
</a>
</g>
</g>
<!-- Node0&#45;&gt;Node2 -->
<g id="edge2" class="edge">
<title>Node0&#45;&gt;Node2</title>
<path fill="none" stroke="#191970" d="M109,-112.3258C109,-103.5142 109,-93.8397 109,-85.621"/>
<polygon fill="#191970" stroke="#191970" points="112.5001,-85.534 109,-75.534 105.5001,-85.534 112.5001,-85.534"/>
</g>
<!-- Node5 -->
<g id="node6" class="node">
<title>Node5</title>
<g id="a_node6"><a xlink:href="../../da/d59/graphics__device_8h.xhtml" target="_top" xlink:title="graphics_device.h">
<polygon fill="#ffffff" stroke="#000000" points="161.5,-56.5 161.5,-75.5 256.5,-75.5 256.5,-56.5 161.5,-56.5"/>
<text text-anchor="middle" x="209" y="-63.5" font-family="Helvetica,sans-Serif" font-size="10.00" fill="#000000">graphics_device.h</text>
</a>
</g>
</g>
<!-- Node0&#45;&gt;Node5 -->
<g id="edge5" class="edge">
<title>Node0&#45;&gt;Node5</title>
<path fill="none" stroke="#191970" d="M145.1023,-112.3258C159.328,-102.0122 175.1842,-90.5165 187.5425,-81.5567"/>
<polygon fill="#191970" stroke="#191970" points="189.8079,-84.2374 195.8497,-75.534 185.6991,-78.5701 189.8079,-84.2374"/>
</g>
<!-- Node3 -->
<g id="node4" class="node">
<title>Node3</title>
<polygon fill="#ffffff" stroke="#bfbfbf" points="122,-.5 122,-19.5 166,-19.5 166,-.5 122,-.5"/>
<text text-anchor="middle" x="144" y="-7.5" font-family="Helvetica,sans-Serif" font-size="10.00" fill="#000000">vector</text>
</g>
<!-- Node2&#45;&gt;Node3 -->
<g id="edge3" class="edge">
<title>Node2&#45;&gt;Node3</title>
<path fill="none" stroke="#191970" d="M115.0965,-56.2455C119.9145,-48.5367 126.7751,-37.5598 132.6032,-28.2348"/>
<polygon fill="#191970" stroke="#191970" points="135.6413,-29.9777 137.9733,-19.6427 129.7053,-26.2677 135.6413,-29.9777"/>
</g>
<!-- Node4 -->
<g id="node5" class="node">
<title>Node4</title>
<polygon fill="#ffffff" stroke="#bfbfbf" points="52,-.5 52,-19.5 104,-19.5 104,-.5 52,-.5"/>
<text text-anchor="middle" x="78" y="-7.5" font-family="Helvetica,sans-Serif" font-size="10.00" fill="#000000">memory</text>
</g>
<!-- Node2&#45;&gt;Node4 -->
<g id="edge4" class="edge">
<title>Node2&#45;&gt;Node4</title>
<path fill="none" stroke="#191970" d="M103.6002,-56.2455C99.3773,-48.617 93.3827,-37.7881 88.2559,-28.5267"/>
<polygon fill="#191970" stroke="#191970" points="91.2432,-26.6965 83.3379,-19.6427 85.119,-30.0867 91.2432,-26.6965"/>
</g>
<!-- Node5&#45;&gt;Node3 -->
<g id="edge7" class="edge">
<title>Node5&#45;&gt;Node3</title>
<path fill="none" stroke="#191970" d="M197.6779,-56.2455C188.0777,-47.9746 174.1108,-35.9416 162.8305,-26.2232"/>
<polygon fill="#191970" stroke="#191970" points="165.053,-23.5182 155.1924,-19.6427 160.484,-28.8214 165.053,-23.5182"/>
</g>
<!-- Node6 -->
<g id="node7" class="node">
<title>Node6</title>
<polygon fill="#ffffff" stroke="#bfbfbf" points="184,-.5 184,-19.5 234,-19.5 234,-.5 184,-.5"/>
<text text-anchor="middle" x="209" y="-7.5" font-family="Helvetica,sans-Serif" font-size="10.00" fill="#000000">optional</text>
</g>
<!-- Node5&#45;&gt;Node6 -->
<g id="edge6" class="edge">
<title>Node5&#45;&gt;Node6</title>
<path fill="none" stroke="#191970" d="M209,-56.2455C209,-48.9382 209,-38.6944 209,-29.7046"/>
<polygon fill="#191970" stroke="#191970" points="212.5001,-29.6426 209,-19.6427 205.5001,-29.6427 212.5001,-29.6426"/>
</g>
<!-- Node7 -->
<g id="node8" class="node">
<title>Node7</title>
<polygon fill="#ffffff" stroke="#bfbfbf" points="252.5,-.5 252.5,-19.5 337.5,-19.5 337.5,-.5 252.5,-.5"/>
<text text-anchor="middle" x="295" y="-7.5" font-family="Helvetica,sans-Serif" font-size="10.00" fill="#000000">vulkan/vulkan.h</text>
</g>
<!-- Node5&#45;&gt;Node7 -->
<g id="edge8" class="edge">
<title>Node5&#45;&gt;Node7</title>
<path fill="none" stroke="#191970" d="M223.9801,-56.2455C237.1751,-47.6534 256.6051,-35.0014 271.8079,-25.1018"/>
<polygon fill="#191970" stroke="#191970" points="273.7215,-28.0325 280.1916,-19.6427 269.9017,-22.1665 273.7215,-28.0325"/>
</g>
</g>
</svg>
