<?xml version="1.0" encoding="UTF-8" standalone="no"?>
<!DOCTYPE svg PUBLIC "-//W3C//DTD SVG 1.1//EN"
 "http://www.w3.org/Graphics/SVG/1.1/DTD/svg11.dtd">
<!-- Generated by graphviz version 2.40.1 (20161225.0304)
 -->
<!-- Title: openage::util::compress::HuffmanTable::try_make_decode_table Pages: 1 -->
<svg width="403pt" height="132pt"
 viewBox="0.00 0.00 403.00 132.00" xmlns="http://www.w3.org/2000/svg" xmlns:xlink="http://www.w3.org/1999/xlink">
<g id="graph0" class="graph" transform="scale(1 1) rotate(0) translate(4 128)">
<title>openage::util::compress::HuffmanTable::try_make_decode_table</title>
<polygon fill="#ffffff" stroke="transparent" points="-4,4 -4,-128 399,-128 399,4 -4,4"/>
<!-- Node24 -->
<g id="node1" class="node">
<title>Node24</title>
<polygon fill="#bfbfbf" stroke="#000000" points="0,-41 0,-82 131,-82 131,-41 0,-41"/>
<text text-anchor="start" x="8" y="-70" font-family="Helvetica,sans-Serif" font-size="10.00" fill="#000000">openage::util::compress</text>
<text text-anchor="start" x="8" y="-59" font-family="Helvetica,sans-Serif" font-size="10.00" fill="#000000">::HuffmanTable::try_make</text>
<text text-anchor="middle" x="65.5" y="-48" font-family="Helvetica,sans-Serif" font-size="10.00" fill="#000000">_decode_table</text>
</g>
<!-- Node25 -->
<g id="node2" class="node">
<title>Node25</title>
<g id="a_node2"><a xlink:href="../../d2/def/classopenage_1_1util_1_1compress_1_1_huffman_table.xhtml#a041e0bae2c9b121a0c77682b940c42d3" target="_top" xlink:title="openage::util::compress\l::HuffmanTable\&lt; LZX_PRETREE\l_MAXSYMBOLS, LZX_PRETREE_TABLEBITS\l \&gt;::HuffmanTable">
<polygon fill="#ffffff" stroke="#000000" points="167,-71.5 167,-123.5 395,-123.5 395,-71.5 167,-71.5"/>
<text text-anchor="start" x="175" y="-111.5" font-family="Helvetica,sans-Serif" font-size="10.00" fill="#000000">openage::util::compress</text>
<text text-anchor="start" x="175" y="-100.5" font-family="Helvetica,sans-Serif" font-size="10.00" fill="#000000">::HuffmanTable&lt; LZX_PRETREE</text>
<text text-anchor="start" x="175" y="-89.5" font-family="Helvetica,sans-Serif" font-size="10.00" fill="#000000">_MAXSYMBOLS, LZX_PRETREE_TABLEBITS</text>
<text text-anchor="middle" x="281" y="-78.5" font-family="Helvetica,sans-Serif" font-size="10.00" fill="#000000"> &gt;::HuffmanTable</text>
</a>
</g>
</g>
<!-- Node24&#45;&gt;Node25 -->
<g id="edge1" class="edge">
<title>Node24&#45;&gt;Node25</title>
<path fill="none" stroke="#191970" d="M141.0863,-74.1269C149.4551,-75.525 158.109,-76.9706 166.8191,-78.4257"/>
<polygon fill="#191970" stroke="#191970" points="141.4749,-70.6434 131.0348,-72.4478 140.3214,-77.5478 141.4749,-70.6434"/>
</g>
<!-- Node26 -->
<g id="node3" class="node">
<title>Node26</title>
<g id="a_node3"><a xlink:href="../../d2/def/classopenage_1_1util_1_1compress_1_1_huffman_table.xhtml#a1e2e81d74fd03fd894c4acf72227cc2d" target="_top" xlink:title="calls try_make_decode_table, and, if allow_empty is false, raises an exception on failure...">
<polygon fill="#ffffff" stroke="#000000" points="167,-.5 167,-52.5 395,-52.5 395,-.5 167,-.5"/>
<text text-anchor="start" x="175" y="-40.5" font-family="Helvetica,sans-Serif" font-size="10.00" fill="#000000">openage::util::compress</text>
<text text-anchor="start" x="175" y="-29.5" font-family="Helvetica,sans-Serif" font-size="10.00" fill="#000000">::HuffmanTable&lt; LZX_PRETREE</text>
<text text-anchor="start" x="175" y="-18.5" font-family="Helvetica,sans-Serif" font-size="10.00" fill="#000000">_MAXSYMBOLS, LZX_PRETREE_TABLEBITS</text>
<text text-anchor="middle" x="281" y="-7.5" font-family="Helvetica,sans-Serif" font-size="10.00" fill="#000000"> &gt;::make_decode_table</text>
</a>
</g>
</g>
<!-- Node24&#45;&gt;Node26 -->
<g id="edge2" class="edge">
<title>Node24&#45;&gt;Node26</title>
<path fill="none" stroke="#191970" d="M141.0863,-49.2238C149.4551,-47.8646 158.109,-46.4591 166.8191,-45.0445"/>
<polygon fill="#191970" stroke="#191970" points="140.3444,-45.7984 131.0348,-50.8563 141.4666,-52.7078 140.3444,-45.7984"/>
</g>
</g>
</svg>
