<?xml version="1.0" encoding="UTF-8" standalone="no"?>
<!DOCTYPE svg PUBLIC "-//W3C//DTD SVG 1.1//EN"
 "http://www.w3.org/Graphics/SVG/1.1/DTD/svg11.dtd">
<!-- Generated by graphviz version 2.40.1 (20161225.0304)
 -->
<!-- Title: openage::util::compress::HuffmanTable::make_decode_table Pages: 1 -->
<!--zoomable 181 -->
<svg id="main" version="1.1" xmlns="http://www.w3.org/2000/svg" xmlns:xlink="http://www.w3.org/1999/xlink" xml:space="preserve" onload="init(evt)">
<style type="text/css"><![CDATA[
.edge:hover path { stroke: red; }
.edge:hover polygon { stroke: red; fill: red; }
]]></style>
<script type="text/javascript"><![CDATA[
var edges = document.getElementsByTagName('g');
if (edges && edges.length) {
  for (var i=0;i<edges.length;i++) {
    if (edges[i].id.substr(0,4)=='edge') {
      edges[i].setAttribute('class','edge');
    }
  }
}
]]></script>
        <defs>
                <circle id="rim" cx="0" cy="0" r="7"/>
                <circle id="rim2" cx="0" cy="0" r="3.5"/>
                <g id="zoomPlus">
                        <use xlink:href="#rim" fill="#404040">
                                <set attributeName="fill" to="#808080" begin="zoomplus.mouseover" end="zoomplus.mouseout"/>
                        </use>
                        <path d="M-4,0h8M0,-4v8" fill="none" stroke="white" stroke-width="1.5" pointer-events="none"/>
                </g>
                <g id="zoomMin">
                        <use xlink:href="#rim" fill="#404040">
                                <set attributeName="fill" to="#808080" begin="zoomminus.mouseover" end="zoomminus.mouseout"/>
                        </use>
                        <path d="M-4,0h8" fill="none" stroke="white" stroke-width="1.5" pointer-events="none"/>
                </g>
                <g id="dirArrow">
                        <path fill="none" stroke="white" stroke-width="1.5" d="M0,-3.0v7 M-2.5,-0.5L0,-3.0L2.5,-0.5"/>
                </g>
               <g id="resetDef">
                       <use xlink:href="#rim2" fill="#404040">
                               <set attributeName="fill" to="#808080" begin="reset.mouseover" end="reset.mouseout"/>
                       </use>
               </g>
        </defs>

<script type="text/javascript">
var viewWidth = 824;
var viewHeight = 181;
var sectionId = 'dynsection-2';
</script>
<script xlink:href="../../svgpan.js"/>
<svg id="graph" class="graph">
<g id="viewport">
<title>openage::util::compress::HuffmanTable::make_decode_table</title>
<polygon fill="#ffffff" stroke="transparent" points="-4,4 -4,-177 820,-177 820,4 -4,4"/>
<!-- Node3 -->
<g id="node1" class="node">
<title>Node3</title>
<polygon fill="#bfbfbf" stroke="#000000" points="0,-71.5 0,-101.5 177,-101.5 177,-71.5 0,-71.5"/>
<text text-anchor="start" x="8" y="-89.5" font-family="Helvetica,sans-Serif" font-size="10.00" fill="#000000">openage::util::compress</text>
<text text-anchor="middle" x="88.5" y="-78.5" font-family="Helvetica,sans-Serif" font-size="10.00" fill="#000000">::HuffmanTable::make_decode_table</text>
</g>
<!-- Node4 -->
<g id="node2" class="node">
<title>Node4</title>
<g id="a_node2"><a xlink:href="../../d2/def/classopenage_1_1util_1_1compress_1_1_huffman_table.xhtml#a041e0bae2c9b121a0c77682b940c42d3" target="_top" xlink:title="openage::util::compress\l::HuffmanTable\&lt; LZX_PRETREE\l_MAXSYMBOLS, LZX_PRETREE_TABLEBITS\l \&gt;::HuffmanTable">
<polygon fill="#ffffff" stroke="#000000" points="213,-120.5 213,-172.5 441,-172.5 441,-120.5 213,-120.5"/>
<text text-anchor="start" x="221" y="-160.5" font-family="Helvetica,sans-Serif" font-size="10.00" fill="#000000">openage::util::compress</text>
<text text-anchor="start" x="221" y="-149.5" font-family="Helvetica,sans-Serif" font-size="10.00" fill="#000000">::HuffmanTable&lt; LZX_PRETREE</text>
<text text-anchor="start" x="221" y="-138.5" font-family="Helvetica,sans-Serif" font-size="10.00" fill="#000000">_MAXSYMBOLS, LZX_PRETREE_TABLEBITS</text>
<text text-anchor="middle" x="327" y="-127.5" font-family="Helvetica,sans-Serif" font-size="10.00" fill="#000000"> &gt;::HuffmanTable</text>
</a>
</g>
</g>
<!-- Node3&#45;&gt;Node4 -->
<g id="edge1" class="edge">
<title>Node3&#45;&gt;Node4</title>
<path fill="none" stroke="#191970" d="M158.1973,-104.0339C178.6175,-109.1711 201.3956,-114.9014 223.4452,-120.4485"/>
<polygon fill="#191970" stroke="#191970" points="158.9275,-100.6086 148.3758,-101.5631 157.2197,-107.3971 158.9275,-100.6086"/>
</g>
<!-- Node5 -->
<g id="node3" class="node">
<title>Node5</title>
<g id="a_node3"><a xlink:href="../../d7/da4/classopenage_1_1util_1_1compress_1_1_l_z_x_d_stream.xhtml#af98ef8408ba92de4f9e28010c3b2d6c8" target="_top" xlink:title="Initializes the next block. ">
<polygon fill="#ffffff" stroke="#000000" points="251.5,-71.5 251.5,-101.5 402.5,-101.5 402.5,-71.5 251.5,-71.5"/>
<text text-anchor="start" x="259.5" y="-89.5" font-family="Helvetica,sans-Serif" font-size="10.00" fill="#000000">openage::util::compress</text>
<text text-anchor="middle" x="327" y="-78.5" font-family="Helvetica,sans-Serif" font-size="10.00" fill="#000000">::LZXDStream::init_next_block</text>
</a>
</g>
</g>
<!-- Node3&#45;&gt;Node5 -->
<g id="edge2" class="edge">
<title>Node3&#45;&gt;Node5</title>
<path fill="none" stroke="#191970" d="M187.3942,-86.5C208.7885,-86.5 231.0836,-86.5 251.4143,-86.5"/>
<polygon fill="#191970" stroke="#191970" points="187.3086,-83.0001 177.3086,-86.5 187.3086,-90.0001 187.3086,-83.0001"/>
</g>
<!-- Node8 -->
<g id="node6" class="node">
<title>Node8</title>
<g id="a_node6"><a xlink:href="../../d2/def/classopenage_1_1util_1_1compress_1_1_huffman_table.xhtml#a281ecfaf32eb7102310771c48034e107" target="_top" xlink:title="reads in code lengths for symbols first to last in the given table. ">
<polygon fill="#ffffff" stroke="#000000" points="213,-.5 213,-52.5 441,-52.5 441,-.5 213,-.5"/>
<text text-anchor="start" x="221" y="-40.5" font-family="Helvetica,sans-Serif" font-size="10.00" fill="#000000">openage::util::compress</text>
<text text-anchor="start" x="221" y="-29.5" font-family="Helvetica,sans-Serif" font-size="10.00" fill="#000000">::HuffmanTable&lt; LZX_PRETREE</text>
<text text-anchor="start" x="221" y="-18.5" font-family="Helvetica,sans-Serif" font-size="10.00" fill="#000000">_MAXSYMBOLS, LZX_PRETREE_TABLEBITS</text>
<text text-anchor="middle" x="327" y="-7.5" font-family="Helvetica,sans-Serif" font-size="10.00" fill="#000000"> &gt;::read_lengths</text>
</a>
</g>
</g>
<!-- Node3&#45;&gt;Node8 -->
<g id="edge5" class="edge">
<title>Node3&#45;&gt;Node8</title>
<path fill="none" stroke="#191970" d="M158.1973,-68.9661C178.6175,-63.8289 201.3956,-58.0986 223.4452,-52.5515"/>
<polygon fill="#191970" stroke="#191970" points="157.2197,-65.6029 148.3758,-71.4369 158.9275,-72.3914 157.2197,-65.6029"/>
</g>
<!-- Node6 -->
<g id="node4" class="node">
<title>Node6</title>
<g id="a_node4"><a xlink:href="../../d7/da4/classopenage_1_1util_1_1compress_1_1_l_z_x_d_stream.xhtml#a12047565515e79d8fa7ae56c1459a724" target="_top" xlink:title="See the doc for LZXDecompressor::decompress_next_frame in lzxd.h. ">
<polygon fill="#ffffff" stroke="#000000" points="477,-66 477,-107 616,-107 616,-66 477,-66"/>
<text text-anchor="start" x="485" y="-95" font-family="Helvetica,sans-Serif" font-size="10.00" fill="#000000">openage::util::compress</text>
<text text-anchor="start" x="485" y="-84" font-family="Helvetica,sans-Serif" font-size="10.00" fill="#000000">::LZXDStream::decompress</text>
<text text-anchor="middle" x="546.5" y="-73" font-family="Helvetica,sans-Serif" font-size="10.00" fill="#000000">_next_frame</text>
</a>
</g>
</g>
<!-- Node5&#45;&gt;Node6 -->
<g id="edge3" class="edge">
<title>Node5&#45;&gt;Node6</title>
<path fill="none" stroke="#191970" d="M412.8188,-86.5C433.9926,-86.5 456.4156,-86.5 476.7237,-86.5"/>
<polygon fill="#191970" stroke="#191970" points="412.5395,-83.0001 402.5394,-86.5 412.5394,-90.0001 412.5395,-83.0001"/>
</g>
<!-- Node7 -->
<g id="node5" class="node">
<title>Node7</title>
<g id="a_node5"><a xlink:href="../../d2/dce/classopenage_1_1util_1_1compress_1_1_l_z_x_decompressor.xhtml#ad03ce7fd20c3abe824f61dd382bab43c" target="_top" xlink:title="Decompresses a single 32&#45;KiB frame. ">
<polygon fill="#ffffff" stroke="#000000" points="652,-66 652,-107 816,-107 816,-66 652,-66"/>
<text text-anchor="start" x="660" y="-95" font-family="Helvetica,sans-Serif" font-size="10.00" fill="#000000">openage::util::compress</text>
<text text-anchor="start" x="660" y="-84" font-family="Helvetica,sans-Serif" font-size="10.00" fill="#000000">::LZXDecompressor::decompress</text>
<text text-anchor="middle" x="734" y="-73" font-family="Helvetica,sans-Serif" font-size="10.00" fill="#000000">_next_frame</text>
</a>
</g>
</g>
<!-- Node6&#45;&gt;Node7 -->
<g id="edge4" class="edge">
<title>Node6&#45;&gt;Node7</title>
<path fill="none" stroke="#191970" d="M626.2895,-86.5C634.7617,-86.5 643.3894,-86.5 651.8876,-86.5"/>
<polygon fill="#191970" stroke="#191970" points="626.0517,-83.0001 616.0516,-86.5 626.0516,-90.0001 626.0517,-83.0001"/>
</g>
</g>
</svg>
        <g id="navigator" transform="translate(0 0)" fill="#404254">
                <rect fill="#f2f5e9" fill-opacity="0.5" stroke="#606060" stroke-width=".5" x="0" y="0" width="60" height="60"/>
                <use id="zoomplus" xlink:href="#zoomPlus" x="17" y="9" onmousedown="handleZoom(evt,'in')"/>
                <use id="zoomminus" xlink:href="#zoomMin" x="42" y="9" onmousedown="handleZoom(evt,'out')"/>
                <use id="reset" xlink:href="#resetDef" x="30" y="36" onmousedown="handleReset()"/>
                <g id="arrowUp" xlink:href="#dirArrow" transform="translate(30 24)" onmousedown="handlePan(0,-1)">
                  <use xlink:href="#rim" fill="#404040">
                        <set attributeName="fill" to="#808080" begin="arrowUp.mouseover" end="arrowUp.mouseout"/>
                  </use>
                  <path fill="none" stroke="white" stroke-width="1.5" d="M0,-3.0v7 M-2.5,-0.5L0,-3.0L2.5,-0.5"/>
                </g>
                <g id="arrowRight" xlink:href="#dirArrow" transform="rotate(90) translate(36 -43)" onmousedown="handlePan(1,0)">
                  <use xlink:href="#rim" fill="#404040">
                        <set attributeName="fill" to="#808080" begin="arrowRight.mouseover" end="arrowRight.mouseout"/>
                  </use>
                  <path fill="none" stroke="white" stroke-width="1.5" d="M0,-3.0v7 M-2.5,-0.5L0,-3.0L2.5,-0.5"/>
                </g>
                <g id="arrowDown" xlink:href="#dirArrow" transform="rotate(180) translate(-30 -48)" onmousedown="handlePan(0,1)">
                  <use xlink:href="#rim" fill="#404040">
                        <set attributeName="fill" to="#808080" begin="arrowDown.mouseover" end="arrowDown.mouseout"/>
                  </use>
                  <path fill="none" stroke="white" stroke-width="1.5" d="M0,-3.0v7 M-2.5,-0.5L0,-3.0L2.5,-0.5"/>
                </g>
                <g id="arrowLeft" xlink:href="#dirArrow" transform="rotate(270) translate(-36 17)" onmousedown="handlePan(-1,0)">
                  <use xlink:href="#rim" fill="#404040">
                        <set attributeName="fill" to="#808080" begin="arrowLeft.mouseover" end="arrowLeft.mouseout"/>
                  </use>
                  <path fill="none" stroke="white" stroke-width="1.5" d="M0,-3.0v7 M-2.5,-0.5L0,-3.0L2.5,-0.5"/>
                </g>
        </g>
        <svg viewBox="0 0 15 15" width="100%" height="30px" preserveAspectRatio="xMaxYMin meet">
         <g id="arrow_out" transform="scale(0.3 0.3)">
          <a xlink:href="classopenage_1_1util_1_1compress_1_1_huffman_table_a1e2e81d74fd03fd894c4acf72227cc2d_icgraph_org.svg" target="_base">
           <rect id="button" ry="5" rx="5" y="6" x="6" height="38" width="38"
                fill="#f2f5e9" fill-opacity="0.5" stroke="#606060" stroke-width="1.0"/>
           <path id="arrow"
             d="M 11.500037,31.436501 C 11.940474,20.09759 22.043105,11.32322 32.158766,21.979434 L 37.068811,17.246167 C 37.068811,17.246167 37.088388,32 37.088388,32 L 22.160133,31.978069 C 22.160133,31.978069 26.997745,27.140456 26.997745,27.140456 C 18.528582,18.264221 13.291696,25.230495 11.500037,31.436501 z"
             style="fill:#404040;"/>
          </a>
         </g>
        </svg>
</svg>
