<?xml version="1.0" encoding="UTF-8" standalone="no"?>
<!DOCTYPE svg PUBLIC "-//W3C//DTD SVG 1.1//EN"
 "http://www.w3.org/Graphics/SVG/1.1/DTD/svg11.dtd">
<!-- Generated by graphviz version 2.40.1 (20161225.0304)
 -->
<!-- Title: openage::audio::Sound::resume Pages: 1 -->
<svg width="311pt" height="39pt"
 viewBox="0.00 0.00 311.00 39.00" xmlns="http://www.w3.org/2000/svg" xmlns:xlink="http://www.w3.org/1999/xlink">
<g id="graph0" class="graph" transform="scale(1 1) rotate(0) translate(4 35)">
<title>openage::audio::Sound::resume</title>
<polygon fill="#ffffff" stroke="transparent" points="-4,4 -4,-35 307,-35 307,4 -4,4"/>
<!-- Node39 -->
<g id="node1" class="node">
<title>Node39</title>
<polygon fill="#bfbfbf" stroke="#000000" points="0,-.5 0,-30.5 116,-30.5 116,-.5 0,-.5"/>
<text text-anchor="start" x="8" y="-18.5" font-family="Helvetica,sans-Serif" font-size="10.00" fill="#000000">openage::audio::Sound</text>
<text text-anchor="middle" x="58" y="-7.5" font-family="Helvetica,sans-Serif" font-size="10.00" fill="#000000">::resume</text>
</g>
<!-- Node40 -->
<g id="node2" class="node">
<title>Node40</title>
<g id="a_node2"><a xlink:href="../../d0/d62/classopenage_1_1audio_1_1_audio_manager.xhtml#a558810ebb9233d8f80da70d48b0bf282" target="_top" xlink:title="openage::audio::AudioManager\l::add_sound">
<polygon fill="#ffffff" stroke="#000000" points="152,-.5 152,-30.5 303,-30.5 303,-.5 152,-.5"/>
<text text-anchor="start" x="160" y="-18.5" font-family="Helvetica,sans-Serif" font-size="10.00" fill="#000000">openage::audio::AudioManager</text>
<text text-anchor="middle" x="227.5" y="-7.5" font-family="Helvetica,sans-Serif" font-size="10.00" fill="#000000">::add_sound</text>
</a>
</g>
</g>
<!-- Node39&#45;&gt;Node40 -->
<g id="edge1" class="edge">
<title>Node39&#45;&gt;Node40</title>
<path fill="none" stroke="#191970" d="M116.3323,-15.5C124.5918,-15.5 133.2232,-15.5 141.8669,-15.5"/>
<polygon fill="#191970" stroke="#191970" points="141.998,-19.0001 151.998,-15.5 141.9979,-12.0001 141.998,-19.0001"/>
</g>
</g>
</svg>
