<?xml version="1.0" encoding="UTF-8" standalone="no"?>
<!DOCTYPE svg PUBLIC "-//W3C//DTD SVG 1.1//EN"
 "http://www.w3.org/Graphics/SVG/1.1/DTD/svg11.dtd">
<!-- Generated by graphviz version 2.40.1 (20161225.0304)
 -->
<!-- Title: openage::UnitType::place_beside Pages: 1 -->
<svg width="267pt" height="127pt"
 viewBox="0.00 0.00 267.00 126.50" xmlns="http://www.w3.org/2000/svg" xmlns:xlink="http://www.w3.org/1999/xlink">
<g id="graph0" class="graph" transform="scale(1 1) rotate(0) translate(4 122.5)">
<title>openage::UnitType::place_beside</title>
<polygon fill="#ffffff" stroke="transparent" points="-4,4 -4,-122.5 263,-122.5 263,4 -4,4"/>
<!-- Node71 -->
<g id="node1" class="node">
<title>Node71</title>
<polygon fill="#bfbfbf" stroke="#000000" points="0,-39 0,-69 105,-69 105,-39 0,-39"/>
<text text-anchor="start" x="8" y="-57" font-family="Helvetica,sans-Serif" font-size="10.00" fill="#000000">openage::UnitType::</text>
<text text-anchor="middle" x="52.5" y="-46" font-family="Helvetica,sans-Serif" font-size="10.00" fill="#000000">place_beside</text>
</g>
<!-- Node72 -->
<g id="node2" class="node">
<title>Node72</title>
<g id="a_node2"><a xlink:href="../../db/db3/classopenage_1_1_terrain_object.xhtml#a170289794bdd31d673ffb3aca873bb1d" target="_top" xlink:title="openage::TerrainObject\l::get_terrain">
<polygon fill="#ffffff" stroke="#000000" points="141,-88 141,-118 259,-118 259,-88 141,-88"/>
<text text-anchor="start" x="149" y="-106" font-family="Helvetica,sans-Serif" font-size="10.00" fill="#000000">openage::TerrainObject</text>
<text text-anchor="middle" x="200" y="-95" font-family="Helvetica,sans-Serif" font-size="10.00" fill="#000000">::get_terrain</text>
</a>
</g>
</g>
<!-- Node71&#45;&gt;Node72 -->
<g id="edge1" class="edge">
<title>Node71&#45;&gt;Node72</title>
<path fill="none" stroke="#191970" d="M97.9584,-69.1014C112.8893,-74.0615 129.6436,-79.6274 145.1929,-84.7929"/>
<polygon fill="#191970" stroke="#191970" points="144.0982,-88.1172 154.6917,-87.9484 146.3051,-81.4742 144.0982,-88.1172"/>
</g>
<!-- Node73 -->
<g id="node3" class="node">
<title>Node73</title>
<g id="a_node3"><a xlink:href="../../dd/d39/classopenage_1_1_unit_type.xhtml#a51facc71929fe2d425bc6bec06e0dc48" target="_top" xlink:title="set unit in place – return if placement was successful ">
<polygon fill="#ffffff" stroke="#000000" points="147.5,-39 147.5,-69 252.5,-69 252.5,-39 147.5,-39"/>
<text text-anchor="start" x="155.5" y="-57" font-family="Helvetica,sans-Serif" font-size="10.00" fill="#000000">openage::UnitType::</text>
<text text-anchor="middle" x="200" y="-46" font-family="Helvetica,sans-Serif" font-size="10.00" fill="#000000">place</text>
</a>
</g>
</g>
<!-- Node71&#45;&gt;Node73 -->
<g id="edge2" class="edge">
<title>Node71&#45;&gt;Node73</title>
<path fill="none" stroke="#191970" d="M105.3343,-54C115.6078,-54 126.4715,-54 137.0337,-54"/>
<polygon fill="#191970" stroke="#191970" points="137.0389,-57.5001 147.0389,-54 137.0388,-50.5001 137.0389,-57.5001"/>
</g>
<!-- Node74 -->
<g id="node4" class="node">
<title>Node74</title>
<g id="a_node4"><a xlink:href="../../da/d23/namespaceopenage.xhtml#a3a0d4d7c2bc234c442c13758d306f60c" target="_top" xlink:title="get all tiles in the tile range – useful for iterating returns a flat list of tiles between the rect...">
<polygon fill="#ffffff" stroke="#000000" points="155,-.5 155,-19.5 245,-19.5 245,-.5 155,-.5"/>
<text text-anchor="middle" x="200" y="-7.5" font-family="Helvetica,sans-Serif" font-size="10.00" fill="#000000">openage::tile_list</text>
</a>
</g>
</g>
<!-- Node71&#45;&gt;Node74 -->
<g id="edge3" class="edge">
<title>Node71&#45;&gt;Node74</title>
<path fill="none" stroke="#191970" d="M102.8486,-38.9808C120.8478,-33.6115 140.9216,-27.6234 158.1285,-22.4905"/>
<polygon fill="#191970" stroke="#191970" points="159.3088,-25.7909 167.891,-19.5783 157.3077,-19.083 159.3088,-25.7909"/>
</g>
</g>
</svg>
