<?xml version="1.0" encoding="UTF-8" standalone="no"?>
<!DOCTYPE svg PUBLIC "-//W3C//DTD SVG 1.1//EN"
 "http://www.w3.org/Graphics/SVG/1.1/DTD/svg11.dtd">
<!-- Generated by graphviz version 2.40.1 (20161225.0304)
 -->
<!-- Title: openage::UnitType::initialise Pages: 1 -->
<svg width="607pt" height="137pt"
 viewBox="0.00 0.00 607.00 137.00" xmlns="http://www.w3.org/2000/svg" xmlns:xlink="http://www.w3.org/1999/xlink">
<g id="graph0" class="graph" transform="scale(1 1) rotate(0) translate(4 133)">
<title>openage::UnitType::initialise</title>
<polygon fill="#ffffff" stroke="transparent" points="-4,4 -4,-133 603,-133 603,4 -4,4"/>
<!-- Node31 -->
<g id="node1" class="node">
<title>Node31</title>
<polygon fill="#bfbfbf" stroke="#000000" points="0,-49.5 0,-79.5 105,-79.5 105,-49.5 0,-49.5"/>
<text text-anchor="start" x="8" y="-67.5" font-family="Helvetica,sans-Serif" font-size="10.00" fill="#000000">openage::UnitType::</text>
<text text-anchor="middle" x="52.5" y="-56.5" font-family="Helvetica,sans-Serif" font-size="10.00" fill="#000000">initialise</text>
</g>
<!-- Node32 -->
<g id="node2" class="node">
<title>Node32</title>
<g id="a_node2"><a xlink:href="../../d2/d60/classopenage_1_1_object_producer.xhtml#aee34f7883059625ffd3fb4bd5a43371f" target="_top" xlink:title="Initialize units attributes to this type spec. ">
<polygon fill="#ffffff" stroke="#000000" points="141,-98.5 141,-128.5 268,-128.5 268,-98.5 141,-98.5"/>
<text text-anchor="start" x="149" y="-116.5" font-family="Helvetica,sans-Serif" font-size="10.00" fill="#000000">openage::ObjectProducer</text>
<text text-anchor="middle" x="204.5" y="-105.5" font-family="Helvetica,sans-Serif" font-size="10.00" fill="#000000">::initialise</text>
</a>
</g>
</g>
<!-- Node31&#45;&gt;Node32 -->
<g id="edge1" class="edge">
<title>Node31&#45;&gt;Node32</title>
<path fill="none" stroke="#191970" d="M109.1404,-82.7591C125.1723,-87.9273 142.4357,-93.4924 157.8094,-98.4484"/>
<polygon fill="#191970" stroke="#191970" points="109.9369,-79.3385 99.3453,-79.6014 107.7891,-86.0009 109.9369,-79.3385"/>
</g>
<!-- Node35 -->
<g id="node5" class="node">
<title>Node35</title>
<g id="a_node5"><a xlink:href="../../d2/d82/classopenage_1_1_unit_container.xhtml#a9ef13f975890f222c360b8a5e3242939" target="_top" xlink:title="adds a new unit to the container and initialises using a unit type ">
<polygon fill="#ffffff" stroke="#000000" points="145,-49.5 145,-79.5 264,-79.5 264,-49.5 145,-49.5"/>
<text text-anchor="start" x="153" y="-67.5" font-family="Helvetica,sans-Serif" font-size="10.00" fill="#000000">openage::UnitContainer</text>
<text text-anchor="middle" x="204.5" y="-56.5" font-family="Helvetica,sans-Serif" font-size="10.00" fill="#000000">::new_unit</text>
</a>
</g>
</g>
<!-- Node31&#45;&gt;Node35 -->
<g id="edge4" class="edge">
<title>Node31&#45;&gt;Node35</title>
<path fill="none" stroke="#191970" d="M115.2824,-64.5C125.0548,-64.5 135.1279,-64.5 144.8286,-64.5"/>
<polygon fill="#191970" stroke="#191970" points="115.2357,-61.0001 105.2356,-64.5 115.2356,-68.0001 115.2357,-61.0001"/>
</g>
<!-- Node36 -->
<g id="node6" class="node">
<title>Node36</title>
<g id="a_node6"><a xlink:href="../../dd/d39/classopenage_1_1_unit_type.xhtml#a05d515d0c9b380bd9cb426b3bf3852f8" target="_top" xlink:title="Initialize units shared attributes only to this type spec. ">
<polygon fill="#ffffff" stroke="#000000" points="152,-.5 152,-30.5 257,-30.5 257,-.5 152,-.5"/>
<text text-anchor="start" x="160" y="-18.5" font-family="Helvetica,sans-Serif" font-size="10.00" fill="#000000">openage::UnitType::</text>
<text text-anchor="middle" x="204.5" y="-7.5" font-family="Helvetica,sans-Serif" font-size="10.00" fill="#000000">reinitialise</text>
</a>
</g>
</g>
<!-- Node31&#45;&gt;Node36 -->
<g id="edge5" class="edge">
<title>Node31&#45;&gt;Node36</title>
<path fill="none" stroke="#191970" d="M109.1404,-46.2409C125.1723,-41.0727 142.4357,-35.5076 157.8094,-30.5516"/>
<polygon fill="#191970" stroke="#191970" points="107.7891,-42.9991 99.3453,-49.3986 109.9369,-49.6615 107.7891,-42.9991"/>
</g>
<!-- Node33 -->
<g id="node3" class="node">
<title>Node33</title>
<g id="a_node3"><a xlink:href="../../de/d30/classopenage_1_1_movable_producer.xhtml#a3fc2ee02406d37a4106d51fee9d3c1c0" target="_top" xlink:title="Initialize units attributes to this type spec. ">
<polygon fill="#ffffff" stroke="#000000" points="304,-98.5 304,-128.5 439,-128.5 439,-98.5 304,-98.5"/>
<text text-anchor="start" x="312" y="-116.5" font-family="Helvetica,sans-Serif" font-size="10.00" fill="#000000">openage::MovableProducer</text>
<text text-anchor="middle" x="371.5" y="-105.5" font-family="Helvetica,sans-Serif" font-size="10.00" fill="#000000">::initialise</text>
</a>
</g>
</g>
<!-- Node32&#45;&gt;Node33 -->
<g id="edge2" class="edge">
<title>Node32&#45;&gt;Node33</title>
<path fill="none" stroke="#191970" d="M278.3783,-113.5C286.8693,-113.5 295.4948,-113.5 303.8972,-113.5"/>
<polygon fill="#191970" stroke="#191970" points="278.112,-110.0001 268.1119,-113.5 278.1119,-117.0001 278.112,-110.0001"/>
</g>
<!-- Node34 -->
<g id="node4" class="node">
<title>Node34</title>
<g id="a_node4"><a xlink:href="../../db/db1/classopenage_1_1_living_producer.xhtml#ab1a0ef8e72b2db575f6c7b4fcdc09466" target="_top" xlink:title="Initialize units attributes to this type spec. ">
<polygon fill="#ffffff" stroke="#000000" points="475,-98.5 475,-128.5 599,-128.5 599,-98.5 475,-98.5"/>
<text text-anchor="start" x="483" y="-116.5" font-family="Helvetica,sans-Serif" font-size="10.00" fill="#000000">openage::LivingProducer</text>
<text text-anchor="middle" x="537" y="-105.5" font-family="Helvetica,sans-Serif" font-size="10.00" fill="#000000">::initialise</text>
</a>
</g>
</g>
<!-- Node33&#45;&gt;Node34 -->
<g id="edge3" class="edge">
<title>Node33&#45;&gt;Node34</title>
<path fill="none" stroke="#191970" d="M449.312,-113.5C457.8937,-113.5 466.5465,-113.5 474.8994,-113.5"/>
<polygon fill="#191970" stroke="#191970" points="449.2927,-110.0001 439.2927,-113.5 449.2927,-117.0001 449.2927,-110.0001"/>
</g>
</g>
</svg>
