<?xml version="1.0" encoding="UTF-8" standalone="no"?>
<!DOCTYPE svg PUBLIC "-//W3C//DTD SVG 1.1//EN"
 "http://www.w3.org/Graphics/SVG/1.1/DTD/svg11.dtd">
<!-- Generated by graphviz version 2.40.1 (20161225.0304)
 -->
<!-- Title: openage::gui::GuiGameSpecImageProviderByFilenameImpl::get_id Pages: 1 -->
<svg width="358pt" height="50pt"
 viewBox="0.00 0.00 358.00 50.00" xmlns="http://www.w3.org/2000/svg" xmlns:xlink="http://www.w3.org/1999/xlink">
<g id="graph0" class="graph" transform="scale(1 1) rotate(0) translate(4 46)">
<title>openage::gui::GuiGameSpecImageProviderByFilenameImpl::get_id</title>
<polygon fill="#ffffff" stroke="transparent" points="-4,4 -4,-46 354,-46 354,4 -4,4"/>
<!-- Node4 -->
<g id="node1" class="node">
<title>Node4</title>
<polygon fill="#bfbfbf" stroke="#000000" points="0,-.5 0,-41.5 150,-41.5 150,-.5 0,-.5"/>
<text text-anchor="start" x="8" y="-29.5" font-family="Helvetica,sans-Serif" font-size="10.00" fill="#000000">openage::gui::GuiGameSpec</text>
<text text-anchor="start" x="8" y="-18.5" font-family="Helvetica,sans-Serif" font-size="10.00" fill="#000000">ImageProviderByFilenameImpl</text>
<text text-anchor="middle" x="75" y="-7.5" font-family="Helvetica,sans-Serif" font-size="10.00" fill="#000000">::get_id</text>
</g>
<!-- Node5 -->
<g id="node2" class="node">
<title>Node5</title>
<g id="a_node2"><a xlink:href="../../d6/db8/classopenage_1_1gui_1_1_gui_game_spec_image_provider_by_filename_impl.xhtml#a1d48a1b142023a067b5d20a23d4e9e16" target="_top" xlink:title="openage::gui::GuiGameSpec\lImageProviderByFilenameImpl::id">
<polygon fill="#ffffff" stroke="#000000" points="186,-6 186,-36 350,-36 350,-6 186,-6"/>
<text text-anchor="start" x="194" y="-24" font-family="Helvetica,sans-Serif" font-size="10.00" fill="#000000">openage::gui::GuiGameSpec</text>
<text text-anchor="middle" x="268" y="-13" font-family="Helvetica,sans-Serif" font-size="10.00" fill="#000000">ImageProviderByFilenameImpl::id</text>
</a>
</g>
</g>
<!-- Node4&#45;&gt;Node5 -->
<g id="edge1" class="edge">
<title>Node4&#45;&gt;Node5</title>
<path fill="none" stroke="#191970" d="M150.1715,-21C158.5396,-21 167.133,-21 175.6825,-21"/>
<polygon fill="#191970" stroke="#191970" points="175.6827,-24.5001 185.6827,-21 175.6826,-17.5001 175.6827,-24.5001"/>
</g>
</g>
</svg>
