<?xml version="1.0" encoding="UTF-8" standalone="no"?>
<!DOCTYPE svg PUBLIC "-//W3C//DTD SVG 1.1//EN"
 "http://www.w3.org/Graphics/SVG/1.1/DTD/svg11.dtd">
<!-- Generated by graphviz version 2.40.1 (20161225.0304)
 -->
<!-- Title: qtsdl::GuiListModel::data Pages: 1 -->
<svg width="288pt" height="57pt"
 viewBox="0.00 0.00 288.00 57.00" xmlns="http://www.w3.org/2000/svg" xmlns:xlink="http://www.w3.org/1999/xlink">
<g id="graph0" class="graph" transform="scale(1 1) rotate(0) translate(4 53)">
<title>qtsdl::GuiListModel::data</title>
<polygon fill="#ffffff" stroke="transparent" points="-4,4 -4,-53 284,-53 284,4 -4,4"/>
<!-- Node9 -->
<g id="node1" class="node">
<title>Node9</title>
<polygon fill="#bfbfbf" stroke="#000000" points="0,-.5 0,-30.5 101,-30.5 101,-.5 0,-.5"/>
<text text-anchor="start" x="8" y="-18.5" font-family="Helvetica,sans-Serif" font-size="10.00" fill="#000000">qtsdl::GuiListModel</text>
<text text-anchor="middle" x="50.5" y="-7.5" font-family="Helvetica,sans-Serif" font-size="10.00" fill="#000000">::data</text>
</g>
<!-- Node10 -->
<g id="node2" class="node">
<title>Node10</title>
<g id="a_node2"><a xlink:href="../../db/d7d/classopenage_1_1convert_1_1peresource_1_1_p_e_resources.xhtml#a4bd0e2f364021fe2b7645f380723bca0" target="_top" xlink:title="reads the directory that&#39;s currently pointed at by self.data. ">
<polygon fill="#ffffff" stroke="#000000" points="137,-.5 137,-30.5 280,-30.5 280,-.5 137,-.5"/>
<text text-anchor="start" x="145" y="-18.5" font-family="Helvetica,sans-Serif" font-size="10.00" fill="#000000">openage.convert.peresource.</text>
<text text-anchor="middle" x="208.5" y="-7.5" font-family="Helvetica,sans-Serif" font-size="10.00" fill="#000000">PEResources.read_directory</text>
</a>
</g>
</g>
<!-- Node9&#45;&gt;Node10 -->
<g id="edge1" class="edge">
<title>Node9&#45;&gt;Node10</title>
<path fill="none" stroke="#191970" d="M111.6088,-15.5C119.8366,-15.5 128.3377,-15.5 136.7291,-15.5"/>
<polygon fill="#191970" stroke="#191970" points="111.3619,-12.0001 101.3619,-15.5 111.3619,-19.0001 111.3619,-12.0001"/>
</g>
<!-- Node10&#45;&gt;Node10 -->
<g id="edge2" class="edge">
<title>Node10&#45;&gt;Node10</title>
<path fill="none" stroke="#191970" d="M180.4253,-40.9579C183.9098,-45.679 193.268,-49 208.5,-49 233.4961,-49 242.6743,-40.0566 236.0348,-30.659"/>
<polygon fill="#191970" stroke="#191970" points="183.9368,-40.8286 180.9652,-30.659 176.9464,-40.462 183.9368,-40.8286"/>
</g>
</g>
</svg>
