<?xml version="1.0" encoding="UTF-8" standalone="no"?>
<!DOCTYPE svg PUBLIC "-//W3C//DTD SVG 1.1//EN"
 "http://www.w3.org/Graphics/SVG/1.1/DTD/svg11.dtd">
<!-- Generated by graphviz version 2.40.1 (20161225.0304)
 -->
<!-- Title: qtsdl::GuiListModel::on_property_changed Pages: 1 -->
<svg width="300pt" height="50pt"
 viewBox="0.00 0.00 300.00 50.00" xmlns="http://www.w3.org/2000/svg" xmlns:xlink="http://www.w3.org/1999/xlink">
<g id="graph0" class="graph" transform="scale(1 1) rotate(0) translate(4 46)">
<title>qtsdl::GuiListModel::on_property_changed</title>
<polygon fill="#ffffff" stroke="transparent" points="-4,4 -4,-46 296,-46 296,4 -4,4"/>
<!-- Node14 -->
<g id="node1" class="node">
<title>Node14</title>
<polygon fill="#bfbfbf" stroke="#000000" points="0,-6 0,-36 116,-36 116,-6 0,-6"/>
<text text-anchor="start" x="8" y="-24" font-family="Helvetica,sans-Serif" font-size="10.00" fill="#000000">qtsdl::GuiListModel</text>
<text text-anchor="middle" x="58" y="-13" font-family="Helvetica,sans-Serif" font-size="10.00" fill="#000000">::on_property_changed</text>
</g>
<!-- Node15 -->
<g id="node2" class="node">
<title>Node15</title>
<g id="a_node2"><a xlink:href="../../d6/d56/classqtsdl_1_1_gui_item_list_model.xhtml#a0e965b2d5161f95e8118b197ac2f0f42" target="_top" xlink:title="qtsdl::GuiItemListModel\l\&lt; GeneratorLink \&gt;::establish\l_to_gui_propagation">
<polygon fill="#ffffff" stroke="#000000" points="152,-.5 152,-41.5 292,-41.5 292,-.5 152,-.5"/>
<text text-anchor="start" x="160" y="-29.5" font-family="Helvetica,sans-Serif" font-size="10.00" fill="#000000">qtsdl::GuiItemListModel</text>
<text text-anchor="start" x="160" y="-18.5" font-family="Helvetica,sans-Serif" font-size="10.00" fill="#000000">&lt; GeneratorLink &gt;::establish</text>
<text text-anchor="middle" x="222" y="-7.5" font-family="Helvetica,sans-Serif" font-size="10.00" fill="#000000">_to_gui_propagation</text>
</a>
</g>
</g>
<!-- Node14&#45;&gt;Node15 -->
<g id="edge1" class="edge">
<title>Node14&#45;&gt;Node15</title>
<path fill="none" stroke="#191970" d="M126.4083,-21C134.8098,-21 143.4071,-21 151.8341,-21"/>
<polygon fill="#191970" stroke="#191970" points="126.2821,-17.5001 116.282,-21 126.282,-24.5001 126.2821,-17.5001"/>
</g>
</g>
</svg>
