<?xml version="1.0" encoding="UTF-8" standalone="no"?>
<!DOCTYPE svg PUBLIC "-//W3C//DTD SVG 1.1//EN"
 "http://www.w3.org/Graphics/SVG/1.1/DTD/svg11.dtd">
<!-- Generated by graphviz version 2.40.1 (20161225.0304)
 -->
<!-- Title: openage::job::Worker::notify Pages: 1 -->
<!--zoomable 88 -->
<svg id="main" version="1.1" xmlns="http://www.w3.org/2000/svg" xmlns:xlink="http://www.w3.org/1999/xlink" xml:space="preserve" onload="init(evt)">
<style type="text/css"><![CDATA[
.edge:hover path { stroke: red; }
.edge:hover polygon { stroke: red; fill: red; }
]]></style>
<script type="text/javascript"><![CDATA[
var edges = document.getElementsByTagName('g');
if (edges && edges.length) {
  for (var i=0;i<edges.length;i++) {
    if (edges[i].id.substr(0,4)=='edge') {
      edges[i].setAttribute('class','edge');
    }
  }
}
]]></script>
        <defs>
                <circle id="rim" cx="0" cy="0" r="7"/>
                <circle id="rim2" cx="0" cy="0" r="3.5"/>
                <g id="zoomPlus">
                        <use xlink:href="#rim" fill="#404040">
                                <set attributeName="fill" to="#808080" begin="zoomplus.mouseover" end="zoomplus.mouseout"/>
                        </use>
                        <path d="M-4,0h8M0,-4v8" fill="none" stroke="white" stroke-width="1.5" pointer-events="none"/>
                </g>
                <g id="zoomMin">
                        <use xlink:href="#rim" fill="#404040">
                                <set attributeName="fill" to="#808080" begin="zoomminus.mouseover" end="zoomminus.mouseout"/>
                        </use>
                        <path d="M-4,0h8" fill="none" stroke="white" stroke-width="1.5" pointer-events="none"/>
                </g>
                <g id="dirArrow">
                        <path fill="none" stroke="white" stroke-width="1.5" d="M0,-3.0v7 M-2.5,-0.5L0,-3.0L2.5,-0.5"/>
                </g>
               <g id="resetDef">
                       <use xlink:href="#rim2" fill="#404040">
                               <set attributeName="fill" to="#808080" begin="reset.mouseover" end="reset.mouseout"/>
                       </use>
               </g>
        </defs>

<script type="text/javascript">
var viewWidth = 1038;
var viewHeight = 88;
var sectionId = 'dynsection-5';
</script>
<script xlink:href="../../svgpan.js"/>
<svg id="graph" class="graph">
<g id="viewport">
<title>openage::job::Worker::notify</title>
<polygon fill="#ffffff" stroke="transparent" points="-4,4 -4,-84 1034,-84 1034,4 -4,4"/>
<!-- Node19 -->
<g id="node1" class="node">
<title>Node19</title>
<polygon fill="#bfbfbf" stroke="#000000" points="0,-24.5 0,-54.5 110,-54.5 110,-24.5 0,-24.5"/>
<text text-anchor="start" x="8" y="-42.5" font-family="Helvetica,sans-Serif" font-size="10.00" fill="#000000">openage::job::Worker</text>
<text text-anchor="middle" x="55" y="-31.5" font-family="Helvetica,sans-Serif" font-size="10.00" fill="#000000">::notify</text>
</g>
<!-- Node20 -->
<g id="node2" class="node">
<title>Node20</title>
<g id="a_node2"><a xlink:href="../../d5/d79/classopenage_1_1job_1_1_worker.xhtml#ace257fda681faf0b5c87e9296da18b7c" target="_top" xlink:title="Adds the given job to the internal pending job queue. ">
<polygon fill="#ffffff" stroke="#000000" points="146,-49.5 146,-79.5 256,-79.5 256,-49.5 146,-49.5"/>
<text text-anchor="start" x="154" y="-67.5" font-family="Helvetica,sans-Serif" font-size="10.00" fill="#000000">openage::job::Worker</text>
<text text-anchor="middle" x="201" y="-56.5" font-family="Helvetica,sans-Serif" font-size="10.00" fill="#000000">::enqueue</text>
</a>
</g>
</g>
<!-- Node19&#45;&gt;Node20 -->
<g id="edge1" class="edge">
<title>Node19&#45;&gt;Node20</title>
<path fill="none" stroke="#191970" d="M120.1314,-50.6526C128.6759,-52.1157 137.3658,-53.6037 145.7256,-55.0352"/>
<polygon fill="#191970" stroke="#191970" points="120.6436,-47.1895 110.1963,-48.9514 119.4621,-54.0891 120.6436,-47.1895"/>
</g>
<!-- Node25 -->
<g id="node7" class="node">
<title>Node25</title>
<g id="a_node7"><a xlink:href="../../d5/d79/classopenage_1_1job_1_1_worker.xhtml#ab80cb2f4e936dc069dadf979b90bcfc6" target="_top" xlink:title="Stops this worker. ">
<polygon fill="#ffffff" stroke="#000000" points="146,-.5 146,-30.5 256,-30.5 256,-.5 146,-.5"/>
<text text-anchor="start" x="154" y="-18.5" font-family="Helvetica,sans-Serif" font-size="10.00" fill="#000000">openage::job::Worker</text>
<text text-anchor="middle" x="201" y="-7.5" font-family="Helvetica,sans-Serif" font-size="10.00" fill="#000000">::stop</text>
</a>
</g>
</g>
<!-- Node19&#45;&gt;Node25 -->
<g id="edge7" class="edge">
<title>Node19&#45;&gt;Node25</title>
<path fill="none" stroke="#191970" d="M120.1314,-28.7935C128.6759,-27.3889 137.3658,-25.9604 145.7256,-24.5862"/>
<polygon fill="#191970" stroke="#191970" points="119.4962,-25.3508 110.1963,-30.4266 120.6317,-32.2581 119.4962,-25.3508"/>
</g>
<!-- Node21 -->
<g id="node3" class="node">
<title>Node21</title>
<g id="a_node3"><a xlink:href="../../d1/d28/classopenage_1_1job_1_1_job_group.xhtml#a793449eefa0dcc327cd2dc8bdd4144bc" target="_top" xlink:title="Enqueues the given function into the job group&#39;s worker thread. ">
<polygon fill="#ffffff" stroke="#000000" points="292,-49.5 292,-79.5 412,-79.5 412,-49.5 292,-49.5"/>
<text text-anchor="start" x="300" y="-67.5" font-family="Helvetica,sans-Serif" font-size="10.00" fill="#000000">openage::job::JobGroup</text>
<text text-anchor="middle" x="352" y="-56.5" font-family="Helvetica,sans-Serif" font-size="10.00" fill="#000000">::enqueue</text>
</a>
</g>
</g>
<!-- Node20&#45;&gt;Node21 -->
<g id="edge2" class="edge">
<title>Node20&#45;&gt;Node21</title>
<path fill="none" stroke="#191970" d="M266.51,-64.5C274.9154,-64.5 283.4888,-64.5 291.8038,-64.5"/>
<polygon fill="#191970" stroke="#191970" points="266.3694,-61.0001 256.3694,-64.5 266.3694,-68.0001 266.3694,-61.0001"/>
</g>
<!-- Node22 -->
<g id="node4" class="node">
<title>Node22</title>
<g id="a_node4"><a xlink:href="../../d4/de5/classopenage_1_1audio_1_1_dynamic_resource.xhtml#a9541b40c31cd35aba1e736383e8c6424" target="_top" xlink:title="Load a single chunk in the background (through the job manager). ">
<polygon fill="#ffffff" stroke="#000000" points="448,-49.5 448,-79.5 618,-79.5 618,-49.5 448,-49.5"/>
<text text-anchor="start" x="456" y="-67.5" font-family="Helvetica,sans-Serif" font-size="10.00" fill="#000000">openage::audio::DynamicResource</text>
<text text-anchor="middle" x="533" y="-56.5" font-family="Helvetica,sans-Serif" font-size="10.00" fill="#000000">::load_chunk_async</text>
</a>
</g>
</g>
<!-- Node21&#45;&gt;Node22 -->
<g id="edge3" class="edge">
<title>Node21&#45;&gt;Node22</title>
<path fill="none" stroke="#191970" d="M422.1796,-64.5C430.6282,-64.5 439.3259,-64.5 447.9572,-64.5"/>
<polygon fill="#191970" stroke="#191970" points="422.019,-61.0001 412.019,-64.5 422.0189,-68.0001 422.019,-61.0001"/>
</g>
<!-- Node23 -->
<g id="node5" class="node">
<title>Node23</title>
<g id="a_node5"><a xlink:href="../../d4/de5/classopenage_1_1audio_1_1_dynamic_resource.xhtml#a92355342f8790b7d89431544dd0c5ac0" target="_top" xlink:title="Returns a pointer to the sample buffer at the given position and the number of int16_t values that ar...">
<polygon fill="#ffffff" stroke="#000000" points="860,-49.5 860,-79.5 1030,-79.5 1030,-49.5 860,-49.5"/>
<text text-anchor="start" x="868" y="-67.5" font-family="Helvetica,sans-Serif" font-size="10.00" fill="#000000">openage::audio::DynamicResource</text>
<text text-anchor="middle" x="945" y="-56.5" font-family="Helvetica,sans-Serif" font-size="10.00" fill="#000000">::get_data</text>
</a>
</g>
</g>
<!-- Node22&#45;&gt;Node23 -->
<g id="edge4" class="edge">
<title>Node22&#45;&gt;Node23</title>
<path fill="none" stroke="#191970" d="M628.4182,-67.0866C637.0676,-67.2544 645.6938,-67.397 654,-67.5 729.5498,-68.4364 748.4502,-68.4364 824,-67.5 835.5565,-67.3568 847.7324,-67.1366 859.7281,-66.8792"/>
<polygon fill="#191970" stroke="#191970" points="628.3414,-63.5844 618.2719,-66.8792 628.1982,-70.583 628.3414,-63.5844"/>
</g>
<!-- Node24 -->
<g id="node6" class="node">
<title>Node24</title>
<g id="a_node6"><a xlink:href="../../d4/de5/classopenage_1_1audio_1_1_dynamic_resource.xhtml#a14623118dce385ac89884b64ba1bf2fb" target="_top" xlink:title="Start to load audio chunks beginning at the given chunk index. ">
<polygon fill="#ffffff" stroke="#000000" points="654,-27.5 654,-57.5 824,-57.5 824,-27.5 654,-27.5"/>
<text text-anchor="start" x="662" y="-45.5" font-family="Helvetica,sans-Serif" font-size="10.00" fill="#000000">openage::audio::DynamicResource</text>
<text text-anchor="middle" x="739" y="-34.5" font-family="Helvetica,sans-Serif" font-size="10.00" fill="#000000">::start_preloading</text>
</a>
</g>
</g>
<!-- Node22&#45;&gt;Node24 -->
<g id="edge5" class="edge">
<title>Node22&#45;&gt;Node24</title>
<path fill="none" stroke="#191970" d="M628.2357,-54.3292C636.7605,-53.4188 645.3567,-52.5007 653.7889,-51.6002"/>
<polygon fill="#191970" stroke="#191970" points="627.8468,-50.8507 618.2751,-55.393 628.5903,-57.8111 627.8468,-50.8507"/>
</g>
<!-- Node24&#45;&gt;Node23 -->
<g id="edge6" class="edge">
<title>Node24&#45;&gt;Node23</title>
<path fill="none" stroke="#191970" d="M834.2357,-52.6708C842.7605,-53.5812 851.3567,-54.4993 859.7889,-55.3998"/>
<polygon fill="#191970" stroke="#191970" points="834.5903,-49.1889 824.2751,-51.607 833.8468,-56.1493 834.5903,-49.1889"/>
</g>
</g>
</svg>
        <g id="navigator" transform="translate(0 0)" fill="#404254">
                <rect fill="#f2f5e9" fill-opacity="0.5" stroke="#606060" stroke-width=".5" x="0" y="0" width="60" height="60"/>
                <use id="zoomplus" xlink:href="#zoomPlus" x="17" y="9" onmousedown="handleZoom(evt,'in')"/>
                <use id="zoomminus" xlink:href="#zoomMin" x="42" y="9" onmousedown="handleZoom(evt,'out')"/>
                <use id="reset" xlink:href="#resetDef" x="30" y="36" onmousedown="handleReset()"/>
                <g id="arrowUp" xlink:href="#dirArrow" transform="translate(30 24)" onmousedown="handlePan(0,-1)">
                  <use xlink:href="#rim" fill="#404040">
                        <set attributeName="fill" to="#808080" begin="arrowUp.mouseover" end="arrowUp.mouseout"/>
                  </use>
                  <path fill="none" stroke="white" stroke-width="1.5" d="M0,-3.0v7 M-2.5,-0.5L0,-3.0L2.5,-0.5"/>
                </g>
                <g id="arrowRight" xlink:href="#dirArrow" transform="rotate(90) translate(36 -43)" onmousedown="handlePan(1,0)">
                  <use xlink:href="#rim" fill="#404040">
                        <set attributeName="fill" to="#808080" begin="arrowRight.mouseover" end="arrowRight.mouseout"/>
                  </use>
                  <path fill="none" stroke="white" stroke-width="1.5" d="M0,-3.0v7 M-2.5,-0.5L0,-3.0L2.5,-0.5"/>
                </g>
                <g id="arrowDown" xlink:href="#dirArrow" transform="rotate(180) translate(-30 -48)" onmousedown="handlePan(0,1)">
                  <use xlink:href="#rim" fill="#404040">
                        <set attributeName="fill" to="#808080" begin="arrowDown.mouseover" end="arrowDown.mouseout"/>
                  </use>
                  <path fill="none" stroke="white" stroke-width="1.5" d="M0,-3.0v7 M-2.5,-0.5L0,-3.0L2.5,-0.5"/>
                </g>
                <g id="arrowLeft" xlink:href="#dirArrow" transform="rotate(270) translate(-36 17)" onmousedown="handlePan(-1,0)">
                  <use xlink:href="#rim" fill="#404040">
                        <set attributeName="fill" to="#808080" begin="arrowLeft.mouseover" end="arrowLeft.mouseout"/>
                  </use>
                  <path fill="none" stroke="white" stroke-width="1.5" d="M0,-3.0v7 M-2.5,-0.5L0,-3.0L2.5,-0.5"/>
                </g>
        </g>
        <svg viewBox="0 0 15 15" width="100%" height="30px" preserveAspectRatio="xMaxYMin meet">
         <g id="arrow_out" transform="scale(0.3 0.3)">
          <a xlink:href="classopenage_1_1job_1_1_worker_a3a1cffa81bce40320896181ac63205cb_icgraph_org.svg" target="_base">
           <rect id="button" ry="5" rx="5" y="6" x="6" height="38" width="38"
                fill="#f2f5e9" fill-opacity="0.5" stroke="#606060" stroke-width="1.0"/>
           <path id="arrow"
             d="M 11.500037,31.436501 C 11.940474,20.09759 22.043105,11.32322 32.158766,21.979434 L 37.068811,17.246167 C 37.068811,17.246167 37.088388,32 37.088388,32 L 22.160133,31.978069 C 22.160133,31.978069 26.997745,27.140456 26.997745,27.140456 C 18.528582,18.264221 13.291696,25.230495 11.500037,31.436501 z"
             style="fill:#404040;"/>
          </a>
         </g>
        </svg>
</svg>
