<?xml version="1.0" encoding="UTF-8" standalone="no"?>
<!DOCTYPE svg PUBLIC "-//W3C//DTD SVG 1.1//EN"
 "http://www.w3.org/Graphics/SVG/1.1/DTD/svg11.dtd">
<!-- Generated by graphviz version 2.40.1 (20161225.0304)
 -->
<!-- Title: openage::GameSpecSignals::game_spec_loaded Pages: 1 -->
<svg width="329pt" height="39pt"
 viewBox="0.00 0.00 329.00 39.00" xmlns="http://www.w3.org/2000/svg" xmlns:xlink="http://www.w3.org/1999/xlink">
<g id="graph0" class="graph" transform="scale(1 1) rotate(0) translate(4 35)">
<title>openage::GameSpecSignals::game_spec_loaded</title>
<polygon fill="#ffffff" stroke="transparent" points="-4,4 -4,-35 325,-35 325,4 -4,4"/>
<!-- Node1 -->
<g id="node1" class="node">
<title>Node1</title>
<polygon fill="#bfbfbf" stroke="#000000" points="0,-.5 0,-30.5 140,-30.5 140,-.5 0,-.5"/>
<text text-anchor="start" x="8" y="-18.5" font-family="Helvetica,sans-Serif" font-size="10.00" fill="#000000">openage::GameSpecSignals</text>
<text text-anchor="middle" x="70" y="-7.5" font-family="Helvetica,sans-Serif" font-size="10.00" fill="#000000">::game_spec_loaded</text>
</g>
<!-- Node2 -->
<g id="node2" class="node">
<title>Node2</title>
<g id="a_node2"><a xlink:href="../../d2/d90/classopenage_1_1gui_1_1_game_spec_link.xhtml#aa2749ef2e6877074640f1a74b3d59eb5" target="_top" xlink:title="openage::gui::GameSpecLink\l::on_core_adopted">
<polygon fill="#ffffff" stroke="#000000" points="176,-.5 176,-30.5 321,-30.5 321,-.5 176,-.5"/>
<text text-anchor="start" x="184" y="-18.5" font-family="Helvetica,sans-Serif" font-size="10.00" fill="#000000">openage::gui::GameSpecLink</text>
<text text-anchor="middle" x="248.5" y="-7.5" font-family="Helvetica,sans-Serif" font-size="10.00" fill="#000000">::on_core_adopted</text>
</a>
</g>
</g>
<!-- Node1&#45;&gt;Node2 -->
<g id="edge1" class="edge">
<title>Node1&#45;&gt;Node2</title>
<path fill="none" stroke="#191970" d="M150.2951,-15.5C158.7673,-15.5 167.3482,-15.5 175.7283,-15.5"/>
<polygon fill="#191970" stroke="#191970" points="150.0356,-12.0001 140.0356,-15.5 150.0356,-19.0001 150.0356,-12.0001"/>
</g>
</g>
</svg>
