<?xml version="1.0" encoding="UTF-8" standalone="no"?>
<!DOCTYPE svg PUBLIC "-//W3C//DTD SVG 1.1//EN"
 "http://www.w3.org/Graphics/SVG/1.1/DTD/svg11.dtd">
<!-- Generated by graphviz version 2.40.1 (20161225.0304)
 -->
<!-- Title: openage::curve::Queue::queue_wrapper::queue_wrapper Pages: 1 -->
<svg width="1874pt" height="610pt"
 viewBox="0.00 0.00 1874.00 609.50" xmlns="http://www.w3.org/2000/svg" xmlns:xlink="http://www.w3.org/1999/xlink">
<g id="graph0" class="graph" transform="scale(1 1) rotate(0) translate(4 605.5)">
<title>openage::curve::Queue::queue_wrapper::queue_wrapper</title>
<polygon fill="#ffffff" stroke="transparent" points="-4,4 -4,-605.5 1870,-605.5 1870,4 -4,4"/>
<!-- Node1 -->
<g id="node1" class="node">
<title>Node1</title>
<polygon fill="#bfbfbf" stroke="#000000" points="0,-442.5 0,-483.5 121,-483.5 121,-442.5 0,-442.5"/>
<text text-anchor="start" x="8" y="-471.5" font-family="Helvetica,sans-Serif" font-size="10.00" fill="#000000">openage::curve::Queue</text>
<text text-anchor="start" x="8" y="-460.5" font-family="Helvetica,sans-Serif" font-size="10.00" fill="#000000">::queue_wrapper::queue</text>
<text text-anchor="middle" x="60.5" y="-449.5" font-family="Helvetica,sans-Serif" font-size="10.00" fill="#000000">_wrapper</text>
</g>
<!-- Node2 -->
<g id="node2" class="node">
<title>Node2</title>
<g id="a_node2"><a xlink:href="../../df/d88/classopenage_1_1curve_1_1_queue.xhtml#ae7d94b0875221550e5af663a64ea2aec" target="_top" xlink:title="openage::curve::Queue\l::insert">
<polygon fill="#ffffff" stroke="#000000" points="157,-448 157,-478 275,-478 275,-448 157,-448"/>
<text text-anchor="start" x="165" y="-466" font-family="Helvetica,sans-Serif" font-size="10.00" fill="#000000">openage::curve::Queue</text>
<text text-anchor="middle" x="216" y="-455" font-family="Helvetica,sans-Serif" font-size="10.00" fill="#000000">::insert</text>
</a>
</g>
</g>
<!-- Node1&#45;&gt;Node2 -->
<g id="edge1" class="edge">
<title>Node1&#45;&gt;Node2</title>
<path fill="none" stroke="#191970" d="M131.1006,-463C139.717,-463 148.4515,-463 156.876,-463"/>
<polygon fill="#191970" stroke="#191970" points="131.0657,-459.5001 121.0656,-463 131.0656,-466.5001 131.0657,-459.5001"/>
</g>
<!-- Node3 -->
<g id="node3" class="node">
<title>Node3</title>
<g id="a_node3"><a xlink:href="../../d5/d9d/namespaceopenage_1_1curve_1_1tests.xhtml#ae4b27fadf76c2a10960f6b7e7ff7c724" target="_top" xlink:title="openage::curve::tests\l::test_queue">
<polygon fill="#ffffff" stroke="#000000" points="311,-448 311,-478 422,-478 422,-448 311,-448"/>
<text text-anchor="start" x="319" y="-466" font-family="Helvetica,sans-Serif" font-size="10.00" fill="#000000">openage::curve::tests</text>
<text text-anchor="middle" x="366.5" y="-455" font-family="Helvetica,sans-Serif" font-size="10.00" fill="#000000">::test_queue</text>
</a>
</g>
</g>
<!-- Node2&#45;&gt;Node3 -->
<g id="edge2" class="edge">
<title>Node2&#45;&gt;Node3</title>
<path fill="none" stroke="#191970" d="M285.2986,-463C293.7659,-463 302.3342,-463 310.5713,-463"/>
<polygon fill="#191970" stroke="#191970" points="285.0497,-459.5001 275.0496,-463 285.0496,-466.5001 285.0497,-459.5001"/>
</g>
<!-- Node4 -->
<g id="node4" class="node">
<title>Node4</title>
<g id="a_node4"><a xlink:href="../../d5/d9d/namespaceopenage_1_1curve_1_1tests.xhtml#afc4e799a037edab37e1e35a74da593b7" target="_top" xlink:title="openage::curve::tests\l::container">
<polygon fill="#ffffff" stroke="#000000" points="458,-448 458,-478 569,-478 569,-448 458,-448"/>
<text text-anchor="start" x="466" y="-466" font-family="Helvetica,sans-Serif" font-size="10.00" fill="#000000">openage::curve::tests</text>
<text text-anchor="middle" x="513.5" y="-455" font-family="Helvetica,sans-Serif" font-size="10.00" fill="#000000">::container</text>
</a>
</g>
</g>
<!-- Node3&#45;&gt;Node4 -->
<g id="edge3" class="edge">
<title>Node3&#45;&gt;Node4</title>
<path fill="none" stroke="#191970" d="M432.0775,-463C440.6805,-463 449.4299,-463 457.847,-463"/>
<polygon fill="#191970" stroke="#191970" points="432.0744,-459.5001 422.0744,-463 432.0744,-466.5001 432.0744,-459.5001"/>
</g>
<!-- Node5 -->
<g id="node5" class="node">
<title>Node5</title>
<g id="a_node5"><a xlink:href="../../d8/d06/classopenage_1_1_action_mode.xhtml#a3865e557756044d8183a3d24cd5b8ab4" target="_top" xlink:title="places hovering building ">
<polygon fill="#ffffff" stroke="#000000" points="607.5,-571 607.5,-601 718.5,-601 718.5,-571 607.5,-571"/>
<text text-anchor="start" x="615.5" y="-589" font-family="Helvetica,sans-Serif" font-size="10.00" fill="#000000">openage::ActionMode</text>
<text text-anchor="middle" x="663" y="-578" font-family="Helvetica,sans-Serif" font-size="10.00" fill="#000000">::place_selection</text>
</a>
</g>
</g>
<!-- Node4&#45;&gt;Node5 -->
<g id="edge4" class="edge">
<title>Node4&#45;&gt;Node5</title>
<path fill="none" stroke="#191970" d="M530.3968,-486.4821C547.2184,-508.4598 574.8247,-540.9753 605,-562 609.7388,-565.3018 615.0015,-568.2651 620.3679,-570.8886"/>
<polygon fill="#191970" stroke="#191970" points="533.0882,-484.2373 524.2873,-478.3386 527.4888,-488.4382 533.0882,-484.2373"/>
</g>
<!-- Node7 -->
<g id="node7" class="node">
<title>Node7</title>
<g id="a_node7"><a xlink:href="../../db/d42/classopenage_1_1_editor_mode.xhtml#a1430647b024d4c9e7021756a6fa9700d" target="_top" xlink:title="openage::EditorMode\l::paint_entity_at">
<polygon fill="#ffffff" stroke="#000000" points="608.5,-522 608.5,-552 717.5,-552 717.5,-522 608.5,-522"/>
<text text-anchor="start" x="616.5" y="-540" font-family="Helvetica,sans-Serif" font-size="10.00" fill="#000000">openage::EditorMode</text>
<text text-anchor="middle" x="663" y="-529" font-family="Helvetica,sans-Serif" font-size="10.00" fill="#000000">::paint_entity_at</text>
</a>
</g>
</g>
<!-- Node4&#45;&gt;Node7 -->
<g id="edge6" class="edge">
<title>Node4&#45;&gt;Node7</title>
<path fill="none" stroke="#191970" d="M548.4788,-483.2676C565.3393,-492.7381 585.9859,-503.9035 605,-513 611.3898,-516.0569 618.2739,-519.1087 624.9894,-521.961"/>
<polygon fill="#191970" stroke="#191970" points="549.9624,-480.0855 539.5358,-478.2045 546.5136,-486.1771 549.9624,-480.0855"/>
</g>
<!-- Node9 -->
<g id="node9" class="node">
<title>Node9</title>
<g id="a_node9"><a xlink:href="../../d5/d62/classopenage_1_1_train_action.xhtml#af5515a9c445b00f4dd69348e7177c94c" target="_top" xlink:title="each action has its own update functionality which gets called when this is the active action ...">
<polygon fill="#ffffff" stroke="#000000" points="608.5,-473 608.5,-503 717.5,-503 717.5,-473 608.5,-473"/>
<text text-anchor="start" x="616.5" y="-491" font-family="Helvetica,sans-Serif" font-size="10.00" fill="#000000">openage::TrainAction</text>
<text text-anchor="middle" x="663" y="-480" font-family="Helvetica,sans-Serif" font-size="10.00" fill="#000000">::update</text>
</a>
</g>
</g>
<!-- Node4&#45;&gt;Node9 -->
<g id="edge8" class="edge">
<title>Node4&#45;&gt;Node9</title>
<path fill="none" stroke="#191970" d="M579.1875,-473.9845C588.9009,-475.6088 598.8214,-477.2678 608.2799,-478.8495"/>
<polygon fill="#191970" stroke="#191970" points="579.6086,-470.5064 569.1683,-472.3091 578.454,-477.4106 579.6086,-470.5064"/>
</g>
<!-- Node10 -->
<g id="node10" class="node">
<title>Node10</title>
<g id="a_node10"><a xlink:href="../../d7/d12/classopenage_1_1_attack_action.xhtml#a1a76ce122961d9e09c526b8d0f2f513f" target="_top" xlink:title="add a projectile game object which moves towards the target ">
<polygon fill="#ffffff" stroke="#000000" points="605,-424 605,-454 721,-454 721,-424 605,-424"/>
<text text-anchor="start" x="613" y="-442" font-family="Helvetica,sans-Serif" font-size="10.00" fill="#000000">openage::AttackAction</text>
<text text-anchor="middle" x="663" y="-431" font-family="Helvetica,sans-Serif" font-size="10.00" fill="#000000">::fire_projectile</text>
</a>
</g>
</g>
<!-- Node4&#45;&gt;Node10 -->
<g id="edge9" class="edge">
<title>Node4&#45;&gt;Node10</title>
<path fill="none" stroke="#191970" d="M579.1039,-452.4683C587.6543,-451.0956 596.3668,-449.697 604.7847,-448.3456"/>
<polygon fill="#191970" stroke="#191970" points="578.4871,-449.0224 569.1683,-454.0633 579.5967,-455.9339 578.4871,-449.0224"/>
</g>
<!-- Node13 -->
<g id="node13" class="node">
<title>Node13</title>
<g id="a_node13"><a xlink:href="../../dd/d68/classopenage_1_1pyinterface_1_1_py_object_ref.xhtml#a54af3d98bf36729efd5a013bc124a2e9" target="_top" xlink:title="obj(args...) ">
<polygon fill="#ffffff" stroke="#000000" points="609.5,-375 609.5,-405 716.5,-405 716.5,-375 609.5,-375"/>
<text text-anchor="start" x="617.5" y="-393" font-family="Helvetica,sans-Serif" font-size="10.00" fill="#000000">openage::pyinterface</text>
<text text-anchor="middle" x="663" y="-382" font-family="Helvetica,sans-Serif" font-size="10.00" fill="#000000">::PyObjectRef::call</text>
</a>
</g>
</g>
<!-- Node4&#45;&gt;Node13 -->
<g id="edge12" class="edge">
<title>Node4&#45;&gt;Node13</title>
<path fill="none" stroke="#191970" d="M549.7298,-443.1823C566.4117,-434.2679 586.5573,-423.7965 605,-415 612.0268,-411.6485 619.6173,-408.233 626.9182,-405.0469"/>
<polygon fill="#191970" stroke="#191970" points="548.0028,-440.137 540.8513,-447.9541 551.3167,-446.3029 548.0028,-440.137"/>
</g>
<!-- Node16 -->
<g id="node16" class="node">
<title>Node16</title>
<g id="a_node16"><a xlink:href="../../de/d60/namespaceopenage_1_1util.xhtml#ac6f34c002692bc844cd70de03e10bc5d" target="_top" xlink:title="std::for_each except just on containers. ">
<polygon fill="#ffffff" stroke="#000000" points="605,-181.5 605,-200.5 721,-200.5 721,-181.5 605,-181.5"/>
<text text-anchor="middle" x="663" y="-188.5" font-family="Helvetica,sans-Serif" font-size="10.00" fill="#000000">openage::util::for_each</text>
</a>
</g>
</g>
<!-- Node4&#45;&gt;Node16 -->
<g id="edge15" class="edge">
<title>Node4&#45;&gt;Node16</title>
<path fill="none" stroke="#191970" d="M526.732,-438.9257C558.2687,-381.548 636.7942,-238.6788 657.7761,-200.5044"/>
<polygon fill="#191970" stroke="#191970" points="523.5002,-437.5393 521.7507,-447.9887 529.6347,-440.911 523.5002,-437.5393"/>
</g>
<!-- Node6 -->
<g id="node6" class="node">
<title>Node6</title>
<g id="a_node6"><a xlink:href="../../d8/d06/classopenage_1_1_action_mode.xhtml#a43f98279255b857ee8fa9943117271e8" target="_top" xlink:title="Called after GameControl has been set by QML from set_game_control. ">
<polygon fill="#ffffff" stroke="#000000" points="788.5,-571 788.5,-601 904.5,-601 904.5,-571 788.5,-571"/>
<text text-anchor="start" x="796.5" y="-589" font-family="Helvetica,sans-Serif" font-size="10.00" fill="#000000">openage::ActionMode</text>
<text text-anchor="middle" x="846.5" y="-578" font-family="Helvetica,sans-Serif" font-size="10.00" fill="#000000">::on_game_control_set</text>
</a>
</g>
</g>
<!-- Node5&#45;&gt;Node6 -->
<g id="edge5" class="edge">
<title>Node5&#45;&gt;Node6</title>
<path fill="none" stroke="#191970" d="M728.5703,-586C748.064,-586 769.2784,-586 788.2711,-586"/>
<polygon fill="#191970" stroke="#191970" points="728.5541,-582.5001 718.554,-586 728.554,-589.5001 728.5541,-582.5001"/>
</g>
<!-- Node8 -->
<g id="node8" class="node">
<title>Node8</title>
<g id="a_node8"><a xlink:href="../../db/d42/classopenage_1_1_editor_mode.xhtml#a29b4d3a8c32153ccdc566f60fcdacf7f" target="_top" xlink:title="Called after GameControl has been set by QML from set_game_control. ">
<polygon fill="#ffffff" stroke="#000000" points="788.5,-522 788.5,-552 904.5,-552 904.5,-522 788.5,-522"/>
<text text-anchor="start" x="796.5" y="-540" font-family="Helvetica,sans-Serif" font-size="10.00" fill="#000000">openage::EditorMode</text>
<text text-anchor="middle" x="846.5" y="-529" font-family="Helvetica,sans-Serif" font-size="10.00" fill="#000000">::on_game_control_set</text>
</a>
</g>
</g>
<!-- Node7&#45;&gt;Node8 -->
<g id="edge7" class="edge">
<title>Node7&#45;&gt;Node8</title>
<path fill="none" stroke="#191970" d="M727.697,-537C747.4452,-537 769.0297,-537 788.3183,-537"/>
<polygon fill="#191970" stroke="#191970" points="727.5593,-533.5001 717.5592,-537 727.5592,-540.5001 727.5593,-533.5001"/>
</g>
<!-- Node11 -->
<g id="node11" class="node">
<title>Node11</title>
<g id="a_node11"><a xlink:href="../../d7/d12/classopenage_1_1_attack_action.xhtml#ae6ce05cd88d0f3000950c6d39421c24c" target="_top" xlink:title="use attack action ">
<polygon fill="#ffffff" stroke="#000000" points="788.5,-449 788.5,-479 904.5,-479 904.5,-449 788.5,-449"/>
<text text-anchor="start" x="796.5" y="-467" font-family="Helvetica,sans-Serif" font-size="10.00" fill="#000000">openage::AttackAction</text>
<text text-anchor="middle" x="846.5" y="-456" font-family="Helvetica,sans-Serif" font-size="10.00" fill="#000000">::attack</text>
</a>
</g>
</g>
<!-- Node10&#45;&gt;Node11 -->
<g id="edge10" class="edge">
<title>Node10&#45;&gt;Node11</title>
<path fill="none" stroke="#191970" d="M731.0281,-448.2681C749.8081,-450.8267 770.0118,-453.5793 788.1873,-456.0555"/>
<polygon fill="#191970" stroke="#191970" points="731.4415,-444.7922 721.0605,-446.9102 730.4965,-451.7281 731.4415,-444.7922"/>
</g>
<!-- Node12 -->
<g id="node12" class="node">
<title>Node12</title>
<g id="a_node12"><a xlink:href="../../d7/d12/classopenage_1_1_attack_action.xhtml#af3e4ae03273bd3d6ea4b5a196ce6351c" target="_top" xlink:title="Control units action when in range of the target. ">
<polygon fill="#ffffff" stroke="#000000" points="1004,-449 1004,-479 1120,-479 1120,-449 1004,-449"/>
<text text-anchor="start" x="1012" y="-467" font-family="Helvetica,sans-Serif" font-size="10.00" fill="#000000">openage::AttackAction</text>
<text text-anchor="middle" x="1062" y="-456" font-family="Helvetica,sans-Serif" font-size="10.00" fill="#000000">::update_in_range</text>
</a>
</g>
</g>
<!-- Node11&#45;&gt;Node12 -->
<g id="edge11" class="edge">
<title>Node11&#45;&gt;Node12</title>
<path fill="none" stroke="#191970" d="M914.868,-464C943.4961,-464 976.4249,-464 1003.8628,-464"/>
<polygon fill="#191970" stroke="#191970" points="914.5336,-460.5001 904.5335,-464 914.5335,-467.5001 914.5336,-460.5001"/>
</g>
<!-- Node14 -->
<g id="node14" class="node">
<title>Node14</title>
<g id="a_node14"><a xlink:href="../../d1/d18/namespaceopenage_1_1pyinterface_1_1tests.xhtml#ad69d94519ba25682897d8da53beb86df" target="_top" xlink:title="openage::pyinterface\l::tests::pyobject">
<polygon fill="#ffffff" stroke="#000000" points="793,-400 793,-430 900,-430 900,-400 793,-400"/>
<text text-anchor="start" x="801" y="-418" font-family="Helvetica,sans-Serif" font-size="10.00" fill="#000000">openage::pyinterface</text>
<text text-anchor="middle" x="846.5" y="-407" font-family="Helvetica,sans-Serif" font-size="10.00" fill="#000000">::tests::pyobject</text>
</a>
</g>
</g>
<!-- Node13&#45;&gt;Node14 -->
<g id="edge13" class="edge">
<title>Node13&#45;&gt;Node14</title>
<path fill="none" stroke="#191970" d="M726.6348,-398.6696C748.2308,-401.6118 772.1272,-404.8675 792.8643,-407.6927"/>
<polygon fill="#191970" stroke="#191970" points="726.9501,-395.1803 716.5691,-397.2982 726.005,-402.1162 726.9501,-395.1803"/>
</g>
<!-- Node15 -->
<g id="node15" class="node">
<title>Node15</title>
<g id="a_node15"><a xlink:href="../../d1/d18/namespaceopenage_1_1pyinterface_1_1tests.xhtml#a0f930d1710b53aa90f3e05e85aa5d544" target="_top" xlink:title="openage::pyinterface\l::tests::pyobject_demo">
<polygon fill="#ffffff" stroke="#000000" points="788.5,-351 788.5,-381 904.5,-381 904.5,-351 788.5,-351"/>
<text text-anchor="start" x="796.5" y="-369" font-family="Helvetica,sans-Serif" font-size="10.00" fill="#000000">openage::pyinterface</text>
<text text-anchor="middle" x="846.5" y="-358" font-family="Helvetica,sans-Serif" font-size="10.00" fill="#000000">::tests::pyobject_demo</text>
</a>
</g>
</g>
<!-- Node13&#45;&gt;Node15 -->
<g id="edge14" class="edge">
<title>Node13&#45;&gt;Node15</title>
<path fill="none" stroke="#191970" d="M726.5522,-381.688C746.6274,-379.0624 768.6976,-376.1758 788.3735,-373.6024"/>
<polygon fill="#191970" stroke="#191970" points="726.0307,-378.2263 716.5691,-382.9937 726.9386,-385.1672 726.0307,-378.2263"/>
</g>
<!-- Node17 -->
<g id="node17" class="node">
<title>Node17</title>
<g id="a_node17"><a xlink:href="../../db/d42/classopenage_1_1_editor_mode.xhtml#a8bc3906c89a7ecceff2c24512c5be24b" target="_top" xlink:title="openage::EditorMode\l::announce_category\l_content">
<polygon fill="#ffffff" stroke="#000000" points="792,-290.5 792,-331.5 901,-331.5 901,-290.5 792,-290.5"/>
<text text-anchor="start" x="800" y="-319.5" font-family="Helvetica,sans-Serif" font-size="10.00" fill="#000000">openage::EditorMode</text>
<text text-anchor="start" x="800" y="-308.5" font-family="Helvetica,sans-Serif" font-size="10.00" fill="#000000">::announce_category</text>
<text text-anchor="middle" x="846.5" y="-297.5" font-family="Helvetica,sans-Serif" font-size="10.00" fill="#000000">_content</text>
</a>
</g>
</g>
<!-- Node16&#45;&gt;Node17 -->
<g id="edge16" class="edge">
<title>Node16&#45;&gt;Node17</title>
<path fill="none" stroke="#191970" d="M676.9049,-208.3209C693.8671,-228.4042 724.3441,-261.2674 757,-281 767.6598,-287.4413 779.8784,-292.7021 791.7908,-296.9156"/>
<polygon fill="#191970" stroke="#191970" points="679.5663,-206.047 670.4959,-200.5718 674.1721,-210.5084 679.5663,-206.047"/>
</g>
<!-- Node18 -->
<g id="node18" class="node">
<title>Node18</title>
<g id="a_node18"><a xlink:href="../../d1/dd2/classqtsdl_1_1_qml_engine_with_singleton_items_info.xhtml#acfc796de1ec7a3ddc546a31718edc8a2" target="_top" xlink:title="qtsdl::QmlEngineWithSingleton\lItemsInfo::QmlEngineWithSingleton\lItemsInfo">
<polygon fill="#ffffff" stroke="#000000" points="760,-230.5 760,-271.5 933,-271.5 933,-230.5 760,-230.5"/>
<text text-anchor="start" x="768" y="-259.5" font-family="Helvetica,sans-Serif" font-size="10.00" fill="#000000">qtsdl::QmlEngineWithSingleton</text>
<text text-anchor="start" x="768" y="-248.5" font-family="Helvetica,sans-Serif" font-size="10.00" fill="#000000">ItemsInfo::QmlEngineWithSingleton</text>
<text text-anchor="middle" x="846.5" y="-237.5" font-family="Helvetica,sans-Serif" font-size="10.00" fill="#000000">ItemsInfo</text>
</a>
</g>
</g>
<!-- Node16&#45;&gt;Node18 -->
<g id="edge17" class="edge">
<title>Node16&#45;&gt;Node18</title>
<path fill="none" stroke="#191970" d="M701.7909,-203.6837C725.564,-211.4569 756.5504,-221.5887 783.7477,-230.4816"/>
<polygon fill="#191970" stroke="#191970" points="702.6687,-200.2884 692.0761,-200.5072 700.4932,-206.9418 702.6687,-200.2884"/>
</g>
<!-- Node19 -->
<g id="node19" class="node">
<title>Node19</title>
<g id="a_node19"><a xlink:href="../../d1/dd2/classqtsdl_1_1_qml_engine_with_singleton_items_info.xhtml#a3ed9ffd383a3ff97dd595ce3c555a1c5" target="_top" xlink:title="qtsdl::QmlEngineWithSingleton\lItemsInfo::~QmlEngineWithSingleton\lItemsInfo">
<polygon fill="#ffffff" stroke="#000000" points="757,-170.5 757,-211.5 936,-211.5 936,-170.5 757,-170.5"/>
<text text-anchor="start" x="765" y="-199.5" font-family="Helvetica,sans-Serif" font-size="10.00" fill="#000000">qtsdl::QmlEngineWithSingleton</text>
<text text-anchor="start" x="765" y="-188.5" font-family="Helvetica,sans-Serif" font-size="10.00" fill="#000000">ItemsInfo::~QmlEngineWithSingleton</text>
<text text-anchor="middle" x="846.5" y="-177.5" font-family="Helvetica,sans-Serif" font-size="10.00" fill="#000000">ItemsInfo</text>
</a>
</g>
</g>
<!-- Node16&#45;&gt;Node19 -->
<g id="edge18" class="edge">
<title>Node16&#45;&gt;Node19</title>
<path fill="none" stroke="#191970" d="M731.1682,-191C739.5873,-191 748.2906,-191 756.9674,-191"/>
<polygon fill="#191970" stroke="#191970" points="731.0606,-187.5001 721.0605,-191 731.0605,-194.5001 731.0606,-187.5001"/>
</g>
<!-- Node20 -->
<g id="node20" class="node">
<title>Node20</title>
<g id="a_node20"><a xlink:href="../../da/d61/classqtsdl_1_1_gui_live_reloader.xhtml#a53357cda7b2c3adde79a0fc5516d1724" target="_top" xlink:title="qtsdl::GuiLiveReloader\l::init_persistent_items">
<polygon fill="#ffffff" stroke="#000000" points="788.5,-121 788.5,-151 904.5,-151 904.5,-121 788.5,-121"/>
<text text-anchor="start" x="796.5" y="-139" font-family="Helvetica,sans-Serif" font-size="10.00" fill="#000000">qtsdl::GuiLiveReloader</text>
<text text-anchor="middle" x="846.5" y="-128" font-family="Helvetica,sans-Serif" font-size="10.00" fill="#000000">::init_persistent_items</text>
</a>
</g>
</g>
<!-- Node16&#45;&gt;Node20 -->
<g id="edge19" class="edge">
<title>Node16&#45;&gt;Node20</title>
<path fill="none" stroke="#191970" d="M701.693,-178.3005C718.626,-172.8338 738.7533,-166.4581 757,-161 768.1285,-157.6711 780.0769,-154.2372 791.5036,-151.0206"/>
<polygon fill="#191970" stroke="#191970" points="700.5639,-174.9871 692.1306,-181.4004 702.7226,-181.646 700.5639,-174.9871"/>
</g>
<!-- Node29 -->
<g id="node29" class="node">
<title>Node29</title>
<g id="a_node29"><a xlink:href="../../dc/d7b/classqtsdl_1_1_recursive_directory_watcher_worker.xhtml#a9722ee9e0a60a9f437b86c7902641767" target="_top" xlink:title="qtsdl::RecursiveDirectory\lWatcherWorker::onRootDirsPaths\lChanged">
<polygon fill="#ffffff" stroke="#000000" points="763.5,-60.5 763.5,-101.5 929.5,-101.5 929.5,-60.5 763.5,-60.5"/>
<text text-anchor="start" x="771.5" y="-89.5" font-family="Helvetica,sans-Serif" font-size="10.00" fill="#000000">qtsdl::RecursiveDirectory</text>
<text text-anchor="start" x="771.5" y="-78.5" font-family="Helvetica,sans-Serif" font-size="10.00" fill="#000000">WatcherWorker::onRootDirsPaths</text>
<text text-anchor="middle" x="846.5" y="-67.5" font-family="Helvetica,sans-Serif" font-size="10.00" fill="#000000">Changed</text>
</a>
</g>
</g>
<!-- Node16&#45;&gt;Node29 -->
<g id="edge28" class="edge">
<title>Node16&#45;&gt;Node29</title>
<path fill="none" stroke="#191970" d="M679.1522,-173.8104C696.7837,-155.9274 726.5821,-128.1854 757,-111 763.1353,-107.5337 769.7346,-104.3855 776.469,-101.5462"/>
<polygon fill="#191970" stroke="#191970" points="676.3842,-171.638 671.9489,-181.2598 681.4164,-176.5039 676.3842,-171.638"/>
</g>
<!-- Node31 -->
<g id="node31" class="node">
<title>Node31</title>
<g id="a_node31"><a xlink:href="../../da/d1c/classopenage_1_1gui_1_1_gui_filled_texture_handles.xhtml#a08b5dcae915c7b1cb98cf3763f4b2361" target="_top" xlink:title="openage::gui::GuiFilledTexture\lHandles::fill_all_handles\l_with_texture">
<polygon fill="#ffffff" stroke="#000000" points="772,-.5 772,-41.5 921,-41.5 921,-.5 772,-.5"/>
<text text-anchor="start" x="780" y="-29.5" font-family="Helvetica,sans-Serif" font-size="10.00" fill="#000000">openage::gui::GuiFilledTexture</text>
<text text-anchor="start" x="780" y="-18.5" font-family="Helvetica,sans-Serif" font-size="10.00" fill="#000000">Handles::fill_all_handles</text>
<text text-anchor="middle" x="846.5" y="-7.5" font-family="Helvetica,sans-Serif" font-size="10.00" fill="#000000">_with_texture</text>
</a>
</g>
</g>
<!-- Node16&#45;&gt;Node31 -->
<g id="edge30" class="edge">
<title>Node16&#45;&gt;Node31</title>
<path fill="none" stroke="#191970" d="M670.8995,-171.8915C684.2559,-141.8696 714.1008,-83.7114 757,-51 761.5611,-47.5221 766.5479,-44.4345 771.7588,-41.6953"/>
<polygon fill="#191970" stroke="#191970" points="667.6103,-170.6805 666.8685,-181.2493 674.0392,-173.4499 667.6103,-170.6805"/>
</g>
<!-- Node21 -->
<g id="node21" class="node">
<title>Node21</title>
<g id="a_node21"><a xlink:href="../../d4/d96/classqtsdl_1_1_gui_subtree_impl.xhtml#a766c2b35a935c60fcbfcc6758d908ecb" target="_top" xlink:title="qtsdl::GuiSubtreeImpl\l::init_persistent_items">
<polygon fill="#ffffff" stroke="#000000" points="1005.5,-121 1005.5,-151 1118.5,-151 1118.5,-121 1005.5,-121"/>
<text text-anchor="start" x="1013.5" y="-139" font-family="Helvetica,sans-Serif" font-size="10.00" fill="#000000">qtsdl::GuiSubtreeImpl</text>
<text text-anchor="middle" x="1062" y="-128" font-family="Helvetica,sans-Serif" font-size="10.00" fill="#000000">::init_persistent_items</text>
</a>
</g>
</g>
<!-- Node20&#45;&gt;Node21 -->
<g id="edge20" class="edge">
<title>Node20&#45;&gt;Node21</title>
<path fill="none" stroke="#191970" d="M914.6561,-136C943.8537,-136 977.5566,-136 1005.3541,-136"/>
<polygon fill="#191970" stroke="#191970" points="914.5336,-132.5001 904.5335,-136 914.5335,-139.5001 914.5336,-132.5001"/>
</g>
<!-- Node22 -->
<g id="node22" class="node">
<title>Node22</title>
<g id="a_node22"><a xlink:href="../../d4/d96/classqtsdl_1_1_gui_subtree_impl.xhtml#aed216357736342148f86afb0d73f3fdd" target="_top" xlink:title="qtsdl::GuiSubtreeImpl\l::component_status_changed">
<polygon fill="#ffffff" stroke="#000000" points="1188,-121 1188,-151 1333,-151 1333,-121 1188,-121"/>
<text text-anchor="start" x="1196" y="-139" font-family="Helvetica,sans-Serif" font-size="10.00" fill="#000000">qtsdl::GuiSubtreeImpl</text>
<text text-anchor="middle" x="1260.5" y="-128" font-family="Helvetica,sans-Serif" font-size="10.00" fill="#000000">::component_status_changed</text>
</a>
</g>
</g>
<!-- Node21&#45;&gt;Node22 -->
<g id="edge21" class="edge">
<title>Node21&#45;&gt;Node22</title>
<path fill="none" stroke="#191970" d="M1128.674,-136C1147.6849,-136 1168.4894,-136 1187.8384,-136"/>
<polygon fill="#191970" stroke="#191970" points="1128.6165,-132.5001 1118.6165,-136 1128.6165,-139.5001 1128.6165,-132.5001"/>
</g>
<!-- Node23 -->
<g id="node23" class="node">
<title>Node23</title>
<g id="a_node23"><a xlink:href="../../d4/d96/classqtsdl_1_1_gui_subtree_impl.xhtml#aea9b559c07846786ebcf6c41ef58ff78" target="_top" xlink:title="qtsdl::GuiSubtreeImpl\l::onEngineReloaded">
<polygon fill="#ffffff" stroke="#000000" points="1369,-146 1369,-176 1480,-176 1480,-146 1369,-146"/>
<text text-anchor="start" x="1377" y="-164" font-family="Helvetica,sans-Serif" font-size="10.00" fill="#000000">qtsdl::GuiSubtreeImpl</text>
<text text-anchor="middle" x="1424.5" y="-153" font-family="Helvetica,sans-Serif" font-size="10.00" fill="#000000">::onEngineReloaded</text>
</a>
</g>
</g>
<!-- Node22&#45;&gt;Node23 -->
<g id="edge22" class="edge">
<title>Node22&#45;&gt;Node23</title>
<path fill="none" stroke="#191970" d="M1343.3872,-148.6352C1351.919,-149.9358 1360.438,-151.2345 1368.5747,-152.4748"/>
<polygon fill="#191970" stroke="#191970" points="1343.8011,-145.158 1333.3879,-147.111 1342.7462,-152.078 1343.8011,-145.158"/>
</g>
<!-- Node28 -->
<g id="node28" class="node">
<title>Node28</title>
<g id="a_node28"><a xlink:href="../../d4/d96/classqtsdl_1_1_gui_subtree_impl.xhtml#a903d02ad6f5349af96add80f99ddf345" target="_top" xlink:title="qtsdl::GuiSubtreeImpl\l::attach_to">
<polygon fill="#ffffff" stroke="#000000" points="1369,-97 1369,-127 1480,-127 1480,-97 1369,-97"/>
<text text-anchor="start" x="1377" y="-115" font-family="Helvetica,sans-Serif" font-size="10.00" fill="#000000">qtsdl::GuiSubtreeImpl</text>
<text text-anchor="middle" x="1424.5" y="-104" font-family="Helvetica,sans-Serif" font-size="10.00" fill="#000000">::attach_to</text>
</a>
</g>
</g>
<!-- Node22&#45;&gt;Node28 -->
<g id="edge27" class="edge">
<title>Node22&#45;&gt;Node28</title>
<path fill="none" stroke="#191970" d="M1343.3872,-123.8702C1351.919,-122.6216 1360.438,-121.3749 1368.5747,-120.1842"/>
<polygon fill="#191970" stroke="#191970" points="1342.7756,-120.4223 1333.3879,-125.3335 1343.7893,-127.3485 1342.7756,-120.4223"/>
</g>
<!-- Node24 -->
<g id="node24" class="node">
<title>Node24</title>
<g id="a_node24"><a xlink:href="../../dd/d89/classqtsdl_1_1_gui_engine_impl_connection.xhtml#af9d75573df9d5f7b433c54eb6f2690fa" target="_top" xlink:title="qtsdl::GuiEngineImplConnection\l::GuiEngineImplConnection">
<polygon fill="#ffffff" stroke="#000000" points="1516,-170 1516,-200 1673,-200 1673,-170 1516,-170"/>
<text text-anchor="start" x="1524" y="-188" font-family="Helvetica,sans-Serif" font-size="10.00" fill="#000000">qtsdl::GuiEngineImplConnection</text>
<text text-anchor="middle" x="1594.5" y="-177" font-family="Helvetica,sans-Serif" font-size="10.00" fill="#000000">::GuiEngineImplConnection</text>
</a>
</g>
</g>
<!-- Node23&#45;&gt;Node24 -->
<g id="edge23" class="edge">
<title>Node23&#45;&gt;Node24</title>
<path fill="none" stroke="#191970" d="M1490.2517,-170.2826C1498.6484,-171.468 1507.3096,-172.6908 1515.8837,-173.9012"/>
<polygon fill="#191970" stroke="#191970" points="1490.5555,-166.7909 1480.1644,-168.8585 1489.5769,-173.7221 1490.5555,-166.7909"/>
</g>
<!-- Node25 -->
<g id="node25" class="node">
<title>Node25</title>
<g id="a_node25"><a xlink:href="../../dd/d89/classqtsdl_1_1_gui_engine_impl_connection.xhtml#ac2ef61bcd0cdb991b399a29eeb5ec74c" target="_top" xlink:title="qtsdl::GuiEngineImplConnection\l::disconnect">
<polygon fill="#ffffff" stroke="#000000" points="1516,-121 1516,-151 1673,-151 1673,-121 1516,-121"/>
<text text-anchor="start" x="1524" y="-139" font-family="Helvetica,sans-Serif" font-size="10.00" fill="#000000">qtsdl::GuiEngineImplConnection</text>
<text text-anchor="middle" x="1594.5" y="-128" font-family="Helvetica,sans-Serif" font-size="10.00" fill="#000000">::disconnect</text>
</a>
</g>
</g>
<!-- Node23&#45;&gt;Node25 -->
<g id="edge24" class="edge">
<title>Node23&#45;&gt;Node25</title>
<path fill="none" stroke="#191970" d="M1490.2517,-151.3306C1498.6484,-150.0958 1507.3096,-148.8221 1515.8837,-147.5612"/>
<polygon fill="#191970" stroke="#191970" points="1489.5487,-147.8963 1480.1644,-152.8141 1490.5672,-154.8218 1489.5487,-147.8963"/>
</g>
<!-- Node26 -->
<g id="node26" class="node">
<title>Node26</title>
<g id="a_node26"><a xlink:href="../../dd/d89/classqtsdl_1_1_gui_engine_impl_connection.xhtml#a838d04049e7a234096ddc630de0fee59" target="_top" xlink:title="qtsdl::GuiEngineImplConnection\l::~GuiEngineImplConnection">
<polygon fill="#ffffff" stroke="#000000" points="1709,-146 1709,-176 1866,-176 1866,-146 1709,-146"/>
<text text-anchor="start" x="1717" y="-164" font-family="Helvetica,sans-Serif" font-size="10.00" fill="#000000">qtsdl::GuiEngineImplConnection</text>
<text text-anchor="middle" x="1787.5" y="-153" font-family="Helvetica,sans-Serif" font-size="10.00" fill="#000000">::~GuiEngineImplConnection</text>
</a>
</g>
</g>
<!-- Node25&#45;&gt;Node26 -->
<g id="edge25" class="edge">
<title>Node25&#45;&gt;Node26</title>
<path fill="none" stroke="#191970" d="M1683.0225,-147.4666C1691.607,-148.5786 1700.2762,-149.7016 1708.7559,-150.8"/>
<polygon fill="#191970" stroke="#191970" points="1683.3673,-143.9821 1673.0005,-146.1685 1682.468,-150.9241 1683.3673,-143.9821"/>
</g>
<!-- Node27 -->
<g id="node27" class="node">
<title>Node27</title>
<g id="a_node27"><a xlink:href="../../dd/d89/classqtsdl_1_1_gui_engine_impl_connection.xhtml#a3de39e1c4b2cc6b97f38d9c1217d5de5" target="_top" xlink:title="qtsdl::GuiEngineImplConnection\l::operator=">
<polygon fill="#ffffff" stroke="#000000" points="1709,-97 1709,-127 1866,-127 1866,-97 1709,-97"/>
<text text-anchor="start" x="1717" y="-115" font-family="Helvetica,sans-Serif" font-size="10.00" fill="#000000">qtsdl::GuiEngineImplConnection</text>
<text text-anchor="middle" x="1787.5" y="-104" font-family="Helvetica,sans-Serif" font-size="10.00" fill="#000000">::operator=</text>
</a>
</g>
</g>
<!-- Node25&#45;&gt;Node27 -->
<g id="edge26" class="edge">
<title>Node25&#45;&gt;Node27</title>
<path fill="none" stroke="#191970" d="M1683.0225,-124.992C1691.607,-123.9245 1700.2762,-122.8465 1708.7559,-121.792"/>
<polygon fill="#191970" stroke="#191970" points="1682.4921,-121.5309 1673.0005,-126.2383 1683.356,-128.4774 1682.4921,-121.5309"/>
</g>
<!-- Node30 -->
<g id="node30" class="node">
<title>Node30</title>
<g id="a_node30"><a xlink:href="../../d3/dea/classqtsdl_1_1_recursive_directory_watcher.xhtml#a783cc986da8f9ed63ac735b00f119404" target="_top" xlink:title="qtsdl::RecursiveDirectory\lWatcher::RecursiveDirectoryWatcher">
<polygon fill="#ffffff" stroke="#000000" points="972,-66 972,-96 1152,-96 1152,-66 972,-66"/>
<text text-anchor="start" x="980" y="-84" font-family="Helvetica,sans-Serif" font-size="10.00" fill="#000000">qtsdl::RecursiveDirectory</text>
<text text-anchor="middle" x="1062" y="-73" font-family="Helvetica,sans-Serif" font-size="10.00" fill="#000000">Watcher::RecursiveDirectoryWatcher</text>
</a>
</g>
</g>
<!-- Node29&#45;&gt;Node30 -->
<g id="edge29" class="edge">
<title>Node29&#45;&gt;Node30</title>
<path fill="none" stroke="#191970" d="M939.6767,-81C950.3578,-81 961.2336,-81 971.8737,-81"/>
<polygon fill="#191970" stroke="#191970" points="939.5097,-77.5001 929.5097,-81 939.5096,-84.5001 939.5097,-77.5001"/>
</g>
</g>
</svg>
