<?xml version="1.0" encoding="UTF-8" standalone="no"?>
<!DOCTYPE svg PUBLIC "-//W3C//DTD SVG 1.1//EN"
 "http://www.w3.org/Graphics/SVG/1.1/DTD/svg11.dtd">
<!-- Generated by graphviz version 2.40.1 (20161225.0304)
 -->
<!-- Title: openage::renderer::vulkan::VlkWindow::~VlkWindow Pages: 1 -->
<svg width="416pt" height="50pt"
 viewBox="0.00 0.00 416.00 50.00" xmlns="http://www.w3.org/2000/svg" xmlns:xlink="http://www.w3.org/1999/xlink">
<g id="graph0" class="graph" transform="scale(1 1) rotate(0) translate(4 46)">
<title>openage::renderer::vulkan::VlkWindow::~VlkWindow</title>
<polygon fill="#ffffff" stroke="transparent" points="-4,4 -4,-46 412,-46 412,4 -4,4"/>
<!-- Node17 -->
<g id="node1" class="node">
<title>Node17</title>
<polygon fill="#bfbfbf" stroke="#000000" points="0,-.5 0,-41.5 107,-41.5 107,-.5 0,-.5"/>
<text text-anchor="start" x="8" y="-29.5" font-family="Helvetica,sans-Serif" font-size="10.00" fill="#000000">openage::renderer::</text>
<text text-anchor="start" x="8" y="-18.5" font-family="Helvetica,sans-Serif" font-size="10.00" fill="#000000">vulkan::VlkWindow::</text>
<text text-anchor="middle" x="53.5" y="-7.5" font-family="Helvetica,sans-Serif" font-size="10.00" fill="#000000">~VlkWindow</text>
</g>
<!-- Node18 -->
<g id="node2" class="node">
<title>Node18</title>
<g id="a_node2"><a xlink:href="../../d7/d6c/classopenage_1_1renderer_1_1vulkan_1_1_vlk_loader.xhtml#aac68635f78581d8bc631eae1d887313a" target="_top" xlink:title="Part of VK_EXT_debug_report, destroys the debug callback object. ">
<polygon fill="#ffffff" stroke="#000000" points="143,-.5 143,-41.5 289,-41.5 289,-.5 143,-.5"/>
<text text-anchor="start" x="151" y="-29.5" font-family="Helvetica,sans-Serif" font-size="10.00" fill="#000000">openage::renderer::</text>
<text text-anchor="start" x="151" y="-18.5" font-family="Helvetica,sans-Serif" font-size="10.00" fill="#000000">vulkan::VlkLoader::vkDestroy</text>
<text text-anchor="middle" x="216" y="-7.5" font-family="Helvetica,sans-Serif" font-size="10.00" fill="#000000">DebugReportCallbackEXT</text>
</a>
</g>
</g>
<!-- Node17&#45;&gt;Node18 -->
<g id="edge1" class="edge">
<title>Node17&#45;&gt;Node18</title>
<path fill="none" stroke="#191970" d="M107.1589,-21C115.3982,-21 124.0671,-21 132.7663,-21"/>
<polygon fill="#191970" stroke="#191970" points="132.9684,-24.5001 142.9684,-21 132.9683,-17.5001 132.9684,-24.5001"/>
</g>
<!-- Node19 -->
<g id="node3" class="node">
<title>Node19</title>
<g id="a_node3"><a xlink:href="../../dd/d1a/namespaceopenage_1_1log.xhtml#ab6b4b10be67af93ab6c4d5a36139736e" target="_top" xlink:title="error message ">
<polygon fill="#ffffff" stroke="#000000" points="325,-11.5 325,-30.5 408,-30.5 408,-11.5 325,-11.5"/>
<text text-anchor="middle" x="366.5" y="-18.5" font-family="Helvetica,sans-Serif" font-size="10.00" fill="#000000">openage.log.err</text>
</a>
</g>
</g>
<!-- Node18&#45;&gt;Node19 -->
<g id="edge2" class="edge">
<title>Node18&#45;&gt;Node19</title>
<path fill="none" stroke="#191970" d="M289.0457,-21C297.6818,-21 306.3566,-21 314.6147,-21"/>
<polygon fill="#191970" stroke="#191970" points="314.8178,-24.5001 324.8178,-21 314.8178,-17.5001 314.8178,-24.5001"/>
</g>
</g>
</svg>
