<?xml version="1.0" encoding="UTF-8" standalone="no"?>
<!DOCTYPE svg PUBLIC "-//W3C//DTD SVG 1.1//EN"
 "http://www.w3.org/Graphics/SVG/1.1/DTD/svg11.dtd">
<!-- Generated by graphviz version 2.40.1 (20161225.0304)
 -->
<!-- Title: openage::ResourceBundle::clone Pages: 1 -->
<!--zoomable 264 -->
<svg id="main" version="1.1" xmlns="http://www.w3.org/2000/svg" xmlns:xlink="http://www.w3.org/1999/xlink" xml:space="preserve" onload="init(evt)">
<style type="text/css"><![CDATA[
.edge:hover path { stroke: red; }
.edge:hover polygon { stroke: red; fill: red; }
]]></style>
<script type="text/javascript"><![CDATA[
var edges = document.getElementsByTagName('g');
if (edges && edges.length) {
  for (var i=0;i<edges.length;i++) {
    if (edges[i].id.substr(0,4)=='edge') {
      edges[i].setAttribute('class','edge');
    }
  }
}
]]></script>
        <defs>
                <circle id="rim" cx="0" cy="0" r="7"/>
                <circle id="rim2" cx="0" cy="0" r="3.5"/>
                <g id="zoomPlus">
                        <use xlink:href="#rim" fill="#404040">
                                <set attributeName="fill" to="#808080" begin="zoomplus.mouseover" end="zoomplus.mouseout"/>
                        </use>
                        <path d="M-4,0h8M0,-4v8" fill="none" stroke="white" stroke-width="1.5" pointer-events="none"/>
                </g>
                <g id="zoomMin">
                        <use xlink:href="#rim" fill="#404040">
                                <set attributeName="fill" to="#808080" begin="zoomminus.mouseover" end="zoomminus.mouseout"/>
                        </use>
                        <path d="M-4,0h8" fill="none" stroke="white" stroke-width="1.5" pointer-events="none"/>
                </g>
                <g id="dirArrow">
                        <path fill="none" stroke="white" stroke-width="1.5" d="M0,-3.0v7 M-2.5,-0.5L0,-3.0L2.5,-0.5"/>
                </g>
               <g id="resetDef">
                       <use xlink:href="#rim2" fill="#404040">
                               <set attributeName="fill" to="#808080" begin="reset.mouseover" end="reset.mouseout"/>
                       </use>
               </g>
        </defs>

<script type="text/javascript">
var viewWidth = 646;
var viewHeight = 264;
var sectionId = 'dynsection-4';
</script>
<script xlink:href="../../svgpan.js"/>
<svg id="graph" class="graph">
<g id="viewport">
<title>openage::ResourceBundle::clone</title>
<polygon fill="#ffffff" stroke="transparent" points="-4,4 -4,-260 642,-260 642,4 -4,4"/>
<!-- Node24 -->
<g id="node1" class="node">
<title>Node24</title>
<polygon fill="#bfbfbf" stroke="#000000" points="0,-90.5 0,-120.5 131,-120.5 131,-90.5 0,-90.5"/>
<text text-anchor="start" x="8" y="-108.5" font-family="Helvetica,sans-Serif" font-size="10.00" fill="#000000">openage::ResourceBundle</text>
<text text-anchor="middle" x="65.5" y="-97.5" font-family="Helvetica,sans-Serif" font-size="10.00" fill="#000000">::clone</text>
</g>
<!-- Node25 -->
<g id="node2" class="node">
<title>Node25</title>
<g id="a_node2"><a xlink:href="../../d8/d5b/classopenage_1_1_resource_cost.xhtml#a916923be9959f675aadb992258068e32" target="_top" xlink:title="Returns the cost. ">
<polygon fill="#ffffff" stroke="#000000" points="167,-118 167,-137 309,-137 309,-118 167,-118"/>
<text text-anchor="middle" x="238" y="-125" font-family="Helvetica,sans-Serif" font-size="10.00" fill="#000000">openage::ResourceCost::get</text>
</a>
</g>
</g>
<!-- Node24&#45;&gt;Node25 -->
<g id="edge1" class="edge">
<title>Node24&#45;&gt;Node25</title>
<path fill="none" stroke="#191970" d="M141.3904,-115.1788C149.8113,-116.2527 158.3659,-117.3438 166.7268,-118.4101"/>
<polygon fill="#191970" stroke="#191970" points="141.5694,-111.6733 131.2069,-113.88 140.6838,-118.6171 141.5694,-111.6733"/>
</g>
<!-- Node34 -->
<g id="node11" class="node">
<title>Node34</title>
<g id="a_node11"><a xlink:href="../../da/dd8/classopenage_1_1_idle_action.xhtml#a90d182b9575459830744488f776a2f4e" target="_top" xlink:title="each action has its own update functionality which gets called when this is the active action ...">
<polygon fill="#ffffff" stroke="#000000" points="186.5,-68.5 186.5,-98.5 289.5,-98.5 289.5,-68.5 186.5,-68.5"/>
<text text-anchor="start" x="194.5" y="-86.5" font-family="Helvetica,sans-Serif" font-size="10.00" fill="#000000">openage::IdleAction</text>
<text text-anchor="middle" x="238" y="-75.5" font-family="Helvetica,sans-Serif" font-size="10.00" fill="#000000">::update</text>
</a>
</g>
</g>
<!-- Node24&#45;&gt;Node34 -->
<g id="edge10" class="edge">
<title>Node24&#45;&gt;Node34</title>
<path fill="none" stroke="#191970" d="M141.1674,-95.8497C156.4546,-93.9 172.192,-91.8929 186.4196,-90.0784"/>
<polygon fill="#191970" stroke="#191970" points="140.6838,-92.3829 131.2069,-97.12 141.5694,-99.3267 140.6838,-92.3829"/>
</g>
<!-- Node26 -->
<g id="node3" class="node">
<title>Node26</title>
<g id="a_node3"><a xlink:href="../../d8/d06/classopenage_1_1_action_mode.xhtml#a3865e557756044d8183a3d24cd5b8ab4" target="_top" xlink:title="places hovering building ">
<polygon fill="#ffffff" stroke="#000000" points="358.5,-225.5 358.5,-255.5 469.5,-255.5 469.5,-225.5 358.5,-225.5"/>
<text text-anchor="start" x="366.5" y="-243.5" font-family="Helvetica,sans-Serif" font-size="10.00" fill="#000000">openage::ActionMode</text>
<text text-anchor="middle" x="414" y="-232.5" font-family="Helvetica,sans-Serif" font-size="10.00" fill="#000000">::place_selection</text>
</a>
</g>
</g>
<!-- Node25&#45;&gt;Node26 -->
<g id="edge2" class="edge">
<title>Node25&#45;&gt;Node26</title>
<path fill="none" stroke="#191970" d="M254.839,-144.4994C274.8365,-163.8966 309.9195,-195.5102 345,-215.5 351.5314,-219.2217 358.7172,-222.5559 365.9088,-225.4834"/>
<polygon fill="#191970" stroke="#191970" points="257.0514,-141.7658 247.4719,-137.2399 252.1382,-146.7518 257.0514,-141.7658"/>
</g>
<!-- Node28 -->
<g id="node5" class="node">
<title>Node28</title>
<g id="a_node5"><a xlink:href="../../d8/d47/classopenage_1_1_player.xhtml#a4909a76cf5b65e544b1a62dc21147d77" target="_top" xlink:title="Check if the player can make a new unit of the given type. ">
<polygon fill="#ffffff" stroke="#000000" points="345,-187 345,-206 483,-206 483,-187 345,-187"/>
<text text-anchor="middle" x="414" y="-194" font-family="Helvetica,sans-Serif" font-size="10.00" fill="#000000">openage::Player::can_make</text>
</a>
</g>
</g>
<!-- Node25&#45;&gt;Node28 -->
<g id="edge4" class="edge">
<title>Node25&#45;&gt;Node28</title>
<path fill="none" stroke="#191970" d="M265.7055,-141.5557C287.0327,-152.0382 317.43,-166.2551 345,-176.5 355.2882,-180.3231 366.6566,-183.881 377.1469,-186.9044"/>
<polygon fill="#191970" stroke="#191970" points="267.1009,-138.3409 256.5874,-137.0299 263.9886,-144.611 267.1009,-138.3409"/>
</g>
<!-- Node29 -->
<g id="node6" class="node">
<title>Node29</title>
<g id="a_node6"><a xlink:href="../../d8/d47/classopenage_1_1_player.xhtml#a69c98ddc434aed6aceec5dbb4931f064" target="_top" xlink:title="Called when a unit is created and active. ">
<polygon fill="#ffffff" stroke="#000000" points="354.5,-137.5 354.5,-167.5 473.5,-167.5 473.5,-137.5 354.5,-137.5"/>
<text text-anchor="start" x="362.5" y="-155.5" font-family="Helvetica,sans-Serif" font-size="10.00" fill="#000000">openage::Player::active</text>
<text text-anchor="middle" x="414" y="-144.5" font-family="Helvetica,sans-Serif" font-size="10.00" fill="#000000">_unit_added</text>
</a>
</g>
</g>
<!-- Node25&#45;&gt;Node29 -->
<g id="edge5" class="edge">
<title>Node25&#45;&gt;Node29</title>
<path fill="none" stroke="#191970" d="M315.0309,-138.4419C328.2069,-140.3135 341.7161,-142.2324 354.3521,-144.0273"/>
<polygon fill="#191970" stroke="#191970" points="315.433,-134.964 305.0401,-137.0227 314.4485,-141.8944 315.433,-134.964"/>
</g>
<!-- Node31 -->
<g id="node8" class="node">
<title>Node31</title>
<g id="a_node8"><a xlink:href="../../d8/d47/classopenage_1_1_player.xhtml#ad3f9e5b486a9d6b07402596e3eabca82" target="_top" xlink:title="Called when a unit is destroyed. ">
<polygon fill="#ffffff" stroke="#000000" points="354.5,-88.5 354.5,-118.5 473.5,-118.5 473.5,-88.5 354.5,-88.5"/>
<text text-anchor="start" x="362.5" y="-106.5" font-family="Helvetica,sans-Serif" font-size="10.00" fill="#000000">openage::Player::active</text>
<text text-anchor="middle" x="414" y="-95.5" font-family="Helvetica,sans-Serif" font-size="10.00" fill="#000000">_unit_removed</text>
</a>
</g>
</g>
<!-- Node25&#45;&gt;Node31 -->
<g id="edge7" class="edge">
<title>Node25&#45;&gt;Node31</title>
<path fill="none" stroke="#191970" d="M318.0439,-116.5849C330.3074,-114.9126 342.7786,-113.212 354.4945,-111.6144"/>
<polygon fill="#191970" stroke="#191970" points="317.248,-113.161 307.8126,-117.9801 318.1939,-120.0968 317.248,-113.161"/>
</g>
<!-- Node32 -->
<g id="node9" class="node">
<title>Node32</title>
<g id="a_node9"><a xlink:href="../../d8/d47/classopenage_1_1_player.xhtml#a2d3f269dc4b0acd1972e4d0a32f97c2f" target="_top" xlink:title="Called when a unit is killed by this player. ">
<polygon fill="#ffffff" stroke="#000000" points="345.5,-50 345.5,-69 482.5,-69 482.5,-50 345.5,-50"/>
<text text-anchor="middle" x="414" y="-57" font-family="Helvetica,sans-Serif" font-size="10.00" fill="#000000">openage::Player::killed_unit</text>
</a>
</g>
</g>
<!-- Node25&#45;&gt;Node32 -->
<g id="edge8" class="edge">
<title>Node25&#45;&gt;Node32</title>
<path fill="none" stroke="#191970" d="M292.3317,-114.6751C298.0882,-112.5902 303.7508,-110.2085 309,-107.5 327.2584,-98.0791 326.714,-87.8673 345,-78.5 352.4092,-74.7045 360.6664,-71.5943 368.8203,-69.0706"/>
<polygon fill="#191970" stroke="#191970" points="290.9954,-111.4309 282.6115,-117.9086 293.205,-118.073 290.9954,-111.4309"/>
</g>
<!-- Node33 -->
<g id="node10" class="node">
<title>Node33</title>
<g id="a_node10"><a xlink:href="../../db/da0/classopenage_1_1_repair_action.xhtml#a30a410ac792adbc34048d4af46a770e2" target="_top" xlink:title="openage::RepairAction\l::RepairAction">
<polygon fill="#ffffff" stroke="#000000" points="356,-.5 356,-30.5 472,-30.5 472,-.5 356,-.5"/>
<text text-anchor="start" x="364" y="-18.5" font-family="Helvetica,sans-Serif" font-size="10.00" fill="#000000">openage::RepairAction</text>
<text text-anchor="middle" x="414" y="-7.5" font-family="Helvetica,sans-Serif" font-size="10.00" fill="#000000">::RepairAction</text>
</a>
</g>
</g>
<!-- Node25&#45;&gt;Node33 -->
<g id="edge9" class="edge">
<title>Node25&#45;&gt;Node33</title>
<path fill="none" stroke="#191970" d="M300.0357,-113.4756C303.2027,-111.714 306.2188,-109.7314 309,-107.5 335.3666,-86.3453 319.4233,-62.6032 345,-40.5 349.4345,-36.6677 354.5032,-33.4055 359.835,-30.6322"/>
<polygon fill="#191970" stroke="#191970" points="298.3078,-110.4216 290.7805,-117.8776 301.3145,-116.743 298.3078,-110.4216"/>
</g>
<!-- Node27 -->
<g id="node4" class="node">
<title>Node27</title>
<g id="a_node4"><a xlink:href="../../d8/d06/classopenage_1_1_action_mode.xhtml#a43f98279255b857ee8fa9943117271e8" target="_top" xlink:title="Called after GameControl has been set by QML from set_game_control. ">
<polygon fill="#ffffff" stroke="#000000" points="520.5,-225.5 520.5,-255.5 636.5,-255.5 636.5,-225.5 520.5,-225.5"/>
<text text-anchor="start" x="528.5" y="-243.5" font-family="Helvetica,sans-Serif" font-size="10.00" fill="#000000">openage::ActionMode</text>
<text text-anchor="middle" x="578.5" y="-232.5" font-family="Helvetica,sans-Serif" font-size="10.00" fill="#000000">::on_game_control_set</text>
</a>
</g>
</g>
<!-- Node26&#45;&gt;Node27 -->
<g id="edge3" class="edge">
<title>Node26&#45;&gt;Node27</title>
<path fill="none" stroke="#191970" d="M479.8003,-240.5C493.2061,-240.5 507.2198,-240.5 520.3371,-240.5"/>
<polygon fill="#191970" stroke="#191970" points="479.6922,-237.0001 469.6922,-240.5 479.6922,-244.0001 479.6922,-237.0001"/>
</g>
<!-- Node30 -->
<g id="node7" class="node">
<title>Node30</title>
<g id="a_node7"><a xlink:href="../../d2/d82/classopenage_1_1_unit_container.xhtml#a9ef13f975890f222c360b8a5e3242939" target="_top" xlink:title="adds a new unit to the container and initialises using a unit type ">
<polygon fill="#ffffff" stroke="#000000" points="519,-137.5 519,-167.5 638,-167.5 638,-137.5 519,-137.5"/>
<text text-anchor="start" x="527" y="-155.5" font-family="Helvetica,sans-Serif" font-size="10.00" fill="#000000">openage::UnitContainer</text>
<text text-anchor="middle" x="578.5" y="-144.5" font-family="Helvetica,sans-Serif" font-size="10.00" fill="#000000">::new_unit</text>
</a>
</g>
</g>
<!-- Node29&#45;&gt;Node30 -->
<g id="edge6" class="edge">
<title>Node29&#45;&gt;Node30</title>
<path fill="none" stroke="#191970" d="M483.9787,-152.5C495.6264,-152.5 507.6098,-152.5 518.9664,-152.5"/>
<polygon fill="#191970" stroke="#191970" points="483.8537,-149.0001 473.8536,-152.5 483.8536,-156.0001 483.8537,-149.0001"/>
</g>
</g>
</svg>
        <g id="navigator" transform="translate(0 0)" fill="#404254">
                <rect fill="#f2f5e9" fill-opacity="0.5" stroke="#606060" stroke-width=".5" x="0" y="0" width="60" height="60"/>
                <use id="zoomplus" xlink:href="#zoomPlus" x="17" y="9" onmousedown="handleZoom(evt,'in')"/>
                <use id="zoomminus" xlink:href="#zoomMin" x="42" y="9" onmousedown="handleZoom(evt,'out')"/>
                <use id="reset" xlink:href="#resetDef" x="30" y="36" onmousedown="handleReset()"/>
                <g id="arrowUp" xlink:href="#dirArrow" transform="translate(30 24)" onmousedown="handlePan(0,-1)">
                  <use xlink:href="#rim" fill="#404040">
                        <set attributeName="fill" to="#808080" begin="arrowUp.mouseover" end="arrowUp.mouseout"/>
                  </use>
                  <path fill="none" stroke="white" stroke-width="1.5" d="M0,-3.0v7 M-2.5,-0.5L0,-3.0L2.5,-0.5"/>
                </g>
                <g id="arrowRight" xlink:href="#dirArrow" transform="rotate(90) translate(36 -43)" onmousedown="handlePan(1,0)">
                  <use xlink:href="#rim" fill="#404040">
                        <set attributeName="fill" to="#808080" begin="arrowRight.mouseover" end="arrowRight.mouseout"/>
                  </use>
                  <path fill="none" stroke="white" stroke-width="1.5" d="M0,-3.0v7 M-2.5,-0.5L0,-3.0L2.5,-0.5"/>
                </g>
                <g id="arrowDown" xlink:href="#dirArrow" transform="rotate(180) translate(-30 -48)" onmousedown="handlePan(0,1)">
                  <use xlink:href="#rim" fill="#404040">
                        <set attributeName="fill" to="#808080" begin="arrowDown.mouseover" end="arrowDown.mouseout"/>
                  </use>
                  <path fill="none" stroke="white" stroke-width="1.5" d="M0,-3.0v7 M-2.5,-0.5L0,-3.0L2.5,-0.5"/>
                </g>
                <g id="arrowLeft" xlink:href="#dirArrow" transform="rotate(270) translate(-36 17)" onmousedown="handlePan(-1,0)">
                  <use xlink:href="#rim" fill="#404040">
                        <set attributeName="fill" to="#808080" begin="arrowLeft.mouseover" end="arrowLeft.mouseout"/>
                  </use>
                  <path fill="none" stroke="white" stroke-width="1.5" d="M0,-3.0v7 M-2.5,-0.5L0,-3.0L2.5,-0.5"/>
                </g>
        </g>
        <svg viewBox="0 0 15 15" width="100%" height="30px" preserveAspectRatio="xMaxYMin meet">
         <g id="arrow_out" transform="scale(0.3 0.3)">
          <a xlink:href="classopenage_1_1_resource_bundle_aec4c3c3cae1b78ff42a0bc533929e51c_icgraph_org.svg" target="_base">
           <rect id="button" ry="5" rx="5" y="6" x="6" height="38" width="38"
                fill="#f2f5e9" fill-opacity="0.5" stroke="#606060" stroke-width="1.0"/>
           <path id="arrow"
             d="M 11.500037,31.436501 C 11.940474,20.09759 22.043105,11.32322 32.158766,21.979434 L 37.068811,17.246167 C 37.068811,17.246167 37.088388,32 37.088388,32 L 22.160133,31.978069 C 22.160133,31.978069 26.997745,27.140456 26.997745,27.140456 C 18.528582,18.264221 13.291696,25.230495 11.500037,31.436501 z"
             style="fill:#404040;"/>
          </a>
         </g>
        </svg>
</svg>
