<?xml version="1.0" encoding="UTF-8" standalone="no"?>
<!DOCTYPE svg PUBLIC "-//W3C//DTD SVG 1.1//EN"
 "http://www.w3.org/Graphics/SVG/1.1/DTD/svg11.dtd">
<!-- Generated by graphviz version 2.40.1 (20161225.0304)
 -->
<!-- Title: openage::ResourceBundle::set Pages: 1 -->
<svg width="506pt" height="107pt"
 viewBox="0.00 0.00 506.00 107.00" xmlns="http://www.w3.org/2000/svg" xmlns:xlink="http://www.w3.org/1999/xlink">
<g id="graph0" class="graph" transform="scale(1 1) rotate(0) translate(4 103)">
<title>openage::ResourceBundle::set</title>
<polygon fill="#ffffff" stroke="transparent" points="-4,4 -4,-103 502,-103 502,4 -4,4"/>
<!-- Node146 -->
<g id="node1" class="node">
<title>Node146</title>
<polygon fill="#bfbfbf" stroke="#000000" points="0,-52 0,-71 151,-71 151,-52 0,-52"/>
<text text-anchor="middle" x="75.5" y="-59" font-family="Helvetica,sans-Serif" font-size="10.00" fill="#000000">openage::ResourceBundle::set</text>
</g>
<!-- Node147 -->
<g id="node2" class="node">
<title>Node147</title>
<g id="a_node2"><a xlink:href="../../d8/d5b/classopenage_1_1_resource_cost.xhtml#a3d62f67492a228892cf2d358548866fe" target="_top" xlink:title="Constant cost. ">
<polygon fill="#ffffff" stroke="#000000" points="197,-68.5 197,-98.5 319,-98.5 319,-68.5 197,-68.5"/>
<text text-anchor="start" x="205" y="-86.5" font-family="Helvetica,sans-Serif" font-size="10.00" fill="#000000">openage::ResourceCost</text>
<text text-anchor="middle" x="258" y="-75.5" font-family="Helvetica,sans-Serif" font-size="10.00" fill="#000000">::ResourceCost</text>
</a>
</g>
</g>
<!-- Node146&#45;&gt;Node147 -->
<g id="edge1" class="edge">
<title>Node146&#45;&gt;Node147</title>
<path fill="none" stroke="#191970" d="M161.1544,-71.8255C173.2461,-73.2831 185.4693,-74.7566 196.9705,-76.143"/>
<polygon fill="#191970" stroke="#191970" points="161.3941,-68.3291 151.0471,-70.607 160.5563,-75.2788 161.3941,-68.3291"/>
</g>
<!-- Node148 -->
<g id="node3" class="node">
<title>Node148</title>
<g id="a_node3"><a xlink:href="../../d8/d5b/classopenage_1_1_resource_cost.xhtml#a3eefe52413dfb71d8a1bef9a5705f78e" target="_top" xlink:title="openage::ResourceCost::set">
<polygon fill="#ffffff" stroke="#000000" points="187,-30 187,-49 329,-49 329,-30 187,-30"/>
<text text-anchor="middle" x="258" y="-37" font-family="Helvetica,sans-Serif" font-size="10.00" fill="#000000">openage::ResourceCost::set</text>
</a>
</g>
</g>
<!-- Node146&#45;&gt;Node148 -->
<g id="edge2" class="edge">
<title>Node146&#45;&gt;Node148</title>
<path fill="none" stroke="#191970" d="M161.1265,-51.1779C169.7549,-50.1378 178.4505,-49.0895 186.9034,-48.0706"/>
<polygon fill="#191970" stroke="#191970" points="160.5563,-47.7212 151.0471,-52.393 161.3941,-54.6709 160.5563,-47.7212"/>
</g>
<!-- Node149 -->
<g id="node4" class="node">
<title>Node149</title>
<g id="a_node4"><a xlink:href="../../d2/d60/classopenage_1_1_object_producer.xhtml#ac48ac7bb1028265411af4f2b34f6ddf7" target="_top" xlink:title="openage::ObjectProducer\l::ObjectProducer">
<polygon fill="#ffffff" stroke="#000000" points="368,-49.5 368,-79.5 495,-79.5 495,-49.5 368,-49.5"/>
<text text-anchor="start" x="376" y="-67.5" font-family="Helvetica,sans-Serif" font-size="10.00" fill="#000000">openage::ObjectProducer</text>
<text text-anchor="middle" x="431.5" y="-56.5" font-family="Helvetica,sans-Serif" font-size="10.00" fill="#000000">::ObjectProducer</text>
</a>
</g>
</g>
<!-- Node148&#45;&gt;Node149 -->
<g id="edge3" class="edge">
<title>Node148&#45;&gt;Node149</title>
<path fill="none" stroke="#191970" d="M334.2983,-50.494C345.5125,-52.1099 356.9632,-53.7598 367.886,-55.3337"/>
<polygon fill="#191970" stroke="#191970" points="334.4848,-46.9848 324.0879,-49.0227 333.4864,-53.9132 334.4848,-46.9848"/>
</g>
<!-- Node150 -->
<g id="node5" class="node">
<title>Node150</title>
<g id="a_node5"><a xlink:href="../../d4/d85/classopenage_1_1_building_producer.xhtml#a6d0dd9c83e5908300c7c4cad09c43555" target="_top" xlink:title="openage::BuildingProducer\l::BuildingProducer">
<polygon fill="#ffffff" stroke="#000000" points="365,-.5 365,-30.5 498,-30.5 498,-.5 365,-.5"/>
<text text-anchor="start" x="373" y="-18.5" font-family="Helvetica,sans-Serif" font-size="10.00" fill="#000000">openage::BuildingProducer</text>
<text text-anchor="middle" x="431.5" y="-7.5" font-family="Helvetica,sans-Serif" font-size="10.00" fill="#000000">::BuildingProducer</text>
</a>
</g>
</g>
<!-- Node148&#45;&gt;Node150 -->
<g id="edge4" class="edge">
<title>Node148&#45;&gt;Node150</title>
<path fill="none" stroke="#191970" d="M337.0978,-28.5585C346.4004,-27.2717 355.8214,-25.9685 364.9282,-24.7088"/>
<polygon fill="#191970" stroke="#191970" points="336.4964,-25.1083 327.0703,-29.9456 337.4556,-32.0423 336.4964,-25.1083"/>
</g>
</g>
</svg>
