<?xml version="1.0" encoding="UTF-8" standalone="no"?>
<!DOCTYPE svg PUBLIC "-//W3C//DTD SVG 1.1//EN"
 "http://www.w3.org/Graphics/SVG/1.1/DTD/svg11.dtd">
<!-- Generated by graphviz version 2.40.1 (20161225.0304)
 -->
<!-- Title: openage::ResourceBundle::operator&#45;= Pages: 1 -->
<svg width="326pt" height="78pt"
 viewBox="0.00 0.00 326.00 77.50" xmlns="http://www.w3.org/2000/svg" xmlns:xlink="http://www.w3.org/1999/xlink">
<g id="graph0" class="graph" transform="scale(1 1) rotate(0) translate(4 73.5)">
<title>openage::ResourceBundle::operator&#45;=</title>
<polygon fill="#ffffff" stroke="transparent" points="-4,4 -4,-73.5 322,-73.5 322,4 -4,4"/>
<!-- Node126 -->
<g id="node1" class="node">
<title>Node126</title>
<polygon fill="#bfbfbf" stroke="#000000" points="0,-17 0,-47 131,-47 131,-17 0,-17"/>
<text text-anchor="start" x="8" y="-35" font-family="Helvetica,sans-Serif" font-size="10.00" fill="#000000">openage::ResourceBundle</text>
<text text-anchor="middle" x="65.5" y="-24" font-family="Helvetica,sans-Serif" font-size="10.00" fill="#000000">::operator&#45;=</text>
</g>
<!-- Node127 -->
<g id="node2" class="node">
<title>Node127</title>
<g id="a_node2"><a xlink:href="../../d2/de9/classopenage_1_1_resource_bundle.xhtml#aa924f0f6be55a8f92daa10f7701b144d" target="_top" xlink:title="openage::ResourceBundle\l::expand">
<polygon fill="#ffffff" stroke="#000000" points="177,-39 177,-69 308,-69 308,-39 177,-39"/>
<text text-anchor="start" x="185" y="-57" font-family="Helvetica,sans-Serif" font-size="10.00" fill="#000000">openage::ResourceBundle</text>
<text text-anchor="middle" x="242.5" y="-46" font-family="Helvetica,sans-Serif" font-size="10.00" fill="#000000">::expand</text>
</a>
</g>
</g>
<!-- Node126&#45;&gt;Node127 -->
<g id="edge1" class="edge">
<title>Node126&#45;&gt;Node127</title>
<path fill="none" stroke="#191970" d="M131.1567,-40.1607C142.8398,-41.6129 155.093,-43.1358 167.0233,-44.6187"/>
<polygon fill="#191970" stroke="#191970" points="166.5939,-48.0922 176.9493,-45.8525 167.4574,-41.1457 166.5939,-48.0922"/>
</g>
<!-- Node128 -->
<g id="node3" class="node">
<title>Node128</title>
<g id="a_node3"><a xlink:href="../../d2/de9/classopenage_1_1_resource_bundle.xhtml#a85c59861409e505a3c5fb020a73ef1c2" target="_top" xlink:title="openage::ResourceBundle::get">
<polygon fill="#ffffff" stroke="#000000" points="167,-.5 167,-19.5 318,-19.5 318,-.5 167,-.5"/>
<text text-anchor="middle" x="242.5" y="-7.5" font-family="Helvetica,sans-Serif" font-size="10.00" fill="#000000">openage::ResourceBundle::get</text>
</a>
</g>
</g>
<!-- Node126&#45;&gt;Node128 -->
<g id="edge2" class="edge">
<title>Node126&#45;&gt;Node128</title>
<path fill="none" stroke="#191970" d="M131.1567,-23.8393C139.5009,-22.8021 148.1359,-21.7289 156.7364,-20.6599"/>
<polygon fill="#191970" stroke="#191970" points="157.3053,-24.1162 166.7973,-19.4094 156.4419,-17.1696 157.3053,-24.1162"/>
</g>
</g>
</svg>
