<?xml version="1.0" encoding="UTF-8" standalone="no"?>
<!DOCTYPE svg PUBLIC "-//W3C//DTD SVG 1.1//EN"
 "http://www.w3.org/Graphics/SVG/1.1/DTD/svg11.dtd">
<!-- Generated by graphviz version 2.40.1 (20161225.0304)
 -->
<!-- Title: qtsdl::GuiSubtreeImpl::attach_to Pages: 1 -->
<svg width="419pt" height="88pt"
 viewBox="0.00 0.00 419.00 88.00" xmlns="http://www.w3.org/2000/svg" xmlns:xlink="http://www.w3.org/1999/xlink">
<g id="graph0" class="graph" transform="scale(1 1) rotate(0) translate(4 84)">
<title>qtsdl::GuiSubtreeImpl::attach_to</title>
<polygon fill="#ffffff" stroke="transparent" points="-4,4 -4,-84 415,-84 415,4 -4,4"/>
<!-- Node15 -->
<g id="node1" class="node">
<title>Node15</title>
<polygon fill="#bfbfbf" stroke="#000000" points="0,-24.5 0,-54.5 111,-54.5 111,-24.5 0,-24.5"/>
<text text-anchor="start" x="8" y="-42.5" font-family="Helvetica,sans-Serif" font-size="10.00" fill="#000000">qtsdl::GuiSubtreeImpl</text>
<text text-anchor="middle" x="55.5" y="-31.5" font-family="Helvetica,sans-Serif" font-size="10.00" fill="#000000">::attach_to</text>
</g>
<!-- Node16 -->
<g id="node2" class="node">
<title>Node16</title>
<g id="a_node2"><a xlink:href="../../d4/d96/classqtsdl_1_1_gui_subtree_impl.xhtml#a0d640fea6bcc3a7bb7fc62370c268426" target="_top" xlink:title="qtsdl::GuiSubtreeImpl\l::on_resized">
<polygon fill="#ffffff" stroke="#000000" points="147,-49.5 147,-79.5 258,-79.5 258,-49.5 147,-49.5"/>
<text text-anchor="start" x="155" y="-67.5" font-family="Helvetica,sans-Serif" font-size="10.00" fill="#000000">qtsdl::GuiSubtreeImpl</text>
<text text-anchor="middle" x="202.5" y="-56.5" font-family="Helvetica,sans-Serif" font-size="10.00" fill="#000000">::on_resized</text>
</a>
</g>
</g>
<!-- Node15&#45;&gt;Node16 -->
<g id="edge1" class="edge">
<title>Node15&#45;&gt;Node16</title>
<path fill="none" stroke="#191970" d="M111.0744,-48.9514C119.4894,-50.3826 128.2383,-51.8705 136.8421,-53.3337"/>
<polygon fill="#191970" stroke="#191970" points="136.4017,-56.809 146.847,-55.0352 137.5754,-49.9081 136.4017,-56.809"/>
</g>
<!-- Node17 -->
<g id="node3" class="node">
<title>Node17</title>
<g id="a_node3"><a xlink:href="../../d4/d96/classqtsdl_1_1_gui_subtree_impl.xhtml#a810b181409e571b440ab128d2c073703" target="_top" xlink:title="qtsdl::GuiSubtreeImpl\l::reparent_root">
<polygon fill="#ffffff" stroke="#000000" points="147,-.5 147,-30.5 258,-30.5 258,-.5 147,-.5"/>
<text text-anchor="start" x="155" y="-18.5" font-family="Helvetica,sans-Serif" font-size="10.00" fill="#000000">qtsdl::GuiSubtreeImpl</text>
<text text-anchor="middle" x="202.5" y="-7.5" font-family="Helvetica,sans-Serif" font-size="10.00" fill="#000000">::reparent_root</text>
</a>
</g>
</g>
<!-- Node15&#45;&gt;Node17 -->
<g id="edge2" class="edge">
<title>Node15&#45;&gt;Node17</title>
<path fill="none" stroke="#191970" d="M111.0744,-30.4266C119.4894,-29.0528 128.2383,-27.6244 136.8421,-26.2197"/>
<polygon fill="#191970" stroke="#191970" points="137.5417,-29.6519 146.847,-24.5862 136.4137,-22.7433 137.5417,-29.6519"/>
</g>
<!-- Node18 -->
<g id="node4" class="node">
<title>Node18</title>
<g id="a_node4"><a xlink:href="../../dd/db2/classqtsdl_1_1_gui_renderer_impl.xhtml#a6c76b7a4a79a481cf8962e268ae56bb4" target="_top" xlink:title="qtsdl::GuiRendererImpl\l::get_window">
<polygon fill="#ffffff" stroke="#000000" points="294,-.5 294,-30.5 411,-30.5 411,-.5 294,-.5"/>
<text text-anchor="start" x="302" y="-18.5" font-family="Helvetica,sans-Serif" font-size="10.00" fill="#000000">qtsdl::GuiRendererImpl</text>
<text text-anchor="middle" x="352.5" y="-7.5" font-family="Helvetica,sans-Serif" font-size="10.00" fill="#000000">::get_window</text>
</a>
</g>
</g>
<!-- Node17&#45;&gt;Node18 -->
<g id="edge3" class="edge">
<title>Node17&#45;&gt;Node18</title>
<path fill="none" stroke="#191970" d="M258.3545,-15.5C266.5857,-15.5 275.1467,-15.5 283.6035,-15.5"/>
<polygon fill="#191970" stroke="#191970" points="283.8381,-19.0001 293.8381,-15.5 283.8381,-12.0001 283.8381,-19.0001"/>
</g>
</g>
</svg>
