<?xml version="1.0" encoding="UTF-8" standalone="no"?>
<!DOCTYPE svg PUBLIC "-//W3C//DTD SVG 1.1//EN"
 "http://www.w3.org/Graphics/SVG/1.1/DTD/svg11.dtd">
<!-- Generated by graphviz version 2.40.1 (20161225.0304)
 -->
<!-- Title: qtsdl::GuiSubtreeImpl::onEngineReloaded Pages: 1 -->
<svg width="505pt" height="112pt"
 viewBox="0.00 0.00 505.00 112.00" xmlns="http://www.w3.org/2000/svg" xmlns:xlink="http://www.w3.org/1999/xlink">
<g id="graph0" class="graph" transform="scale(1 1) rotate(0) translate(4 108)">
<title>qtsdl::GuiSubtreeImpl::onEngineReloaded</title>
<polygon fill="#ffffff" stroke="transparent" points="-4,4 -4,-108 501,-108 501,4 -4,4"/>
<!-- Node155 -->
<g id="node1" class="node">
<title>Node155</title>
<polygon fill="#bfbfbf" stroke="#000000" points="0,-24.5 0,-54.5 111,-54.5 111,-24.5 0,-24.5"/>
<text text-anchor="start" x="8" y="-42.5" font-family="Helvetica,sans-Serif" font-size="10.00" fill="#000000">qtsdl::GuiSubtreeImpl</text>
<text text-anchor="middle" x="55.5" y="-31.5" font-family="Helvetica,sans-Serif" font-size="10.00" fill="#000000">::onEngineReloaded</text>
</g>
<!-- Node156 -->
<g id="node2" class="node">
<title>Node156</title>
<g id="a_node2"><a xlink:href="../../dd/d89/classqtsdl_1_1_gui_engine_impl_connection.xhtml#ac2ef61bcd0cdb991b399a29eeb5ec74c" target="_top" xlink:title="qtsdl::GuiEngineImplConnection\l::disconnect">
<polygon fill="#ffffff" stroke="#000000" points="147,-49.5 147,-79.5 304,-79.5 304,-49.5 147,-49.5"/>
<text text-anchor="start" x="155" y="-67.5" font-family="Helvetica,sans-Serif" font-size="10.00" fill="#000000">qtsdl::GuiEngineImplConnection</text>
<text text-anchor="middle" x="225.5" y="-56.5" font-family="Helvetica,sans-Serif" font-size="10.00" fill="#000000">::disconnect</text>
</a>
</g>
</g>
<!-- Node155&#45;&gt;Node156 -->
<g id="edge1" class="edge">
<title>Node155&#45;&gt;Node156</title>
<path fill="none" stroke="#191970" d="M121.2517,-49.1694C129.6484,-50.4042 138.3096,-51.6779 146.8837,-52.9388"/>
<polygon fill="#191970" stroke="#191970" points="121.5672,-45.6782 111.1644,-47.6859 120.5487,-52.6037 121.5672,-45.6782"/>
</g>
<!-- Node159 -->
<g id="node5" class="node">
<title>Node159</title>
<g id="a_node5"><a xlink:href="../../dd/d89/classqtsdl_1_1_gui_engine_impl_connection.xhtml#af9d75573df9d5f7b433c54eb6f2690fa" target="_top" xlink:title="qtsdl::GuiEngineImplConnection\l::GuiEngineImplConnection">
<polygon fill="#ffffff" stroke="#000000" points="147,-.5 147,-30.5 304,-30.5 304,-.5 147,-.5"/>
<text text-anchor="start" x="155" y="-18.5" font-family="Helvetica,sans-Serif" font-size="10.00" fill="#000000">qtsdl::GuiEngineImplConnection</text>
<text text-anchor="middle" x="225.5" y="-7.5" font-family="Helvetica,sans-Serif" font-size="10.00" fill="#000000">::GuiEngineImplConnection</text>
</a>
</g>
</g>
<!-- Node155&#45;&gt;Node159 -->
<g id="edge4" class="edge">
<title>Node155&#45;&gt;Node159</title>
<path fill="none" stroke="#191970" d="M121.2517,-30.2174C129.6484,-29.032 138.3096,-27.8092 146.8837,-26.5988"/>
<polygon fill="#191970" stroke="#191970" points="120.5769,-26.7779 111.1644,-31.6415 121.5555,-33.7091 120.5769,-26.7779"/>
</g>
<!-- Node157 -->
<g id="node3" class="node">
<title>Node157</title>
<g id="a_node3"><a xlink:href="../../dd/d89/classqtsdl_1_1_gui_engine_impl_connection.xhtml#a3de39e1c4b2cc6b97f38d9c1217d5de5" target="_top" xlink:title="qtsdl::GuiEngineImplConnection\l::operator=">
<polygon fill="#ffffff" stroke="#000000" points="340,-73.5 340,-103.5 497,-103.5 497,-73.5 340,-73.5"/>
<text text-anchor="start" x="348" y="-91.5" font-family="Helvetica,sans-Serif" font-size="10.00" fill="#000000">qtsdl::GuiEngineImplConnection</text>
<text text-anchor="middle" x="418.5" y="-80.5" font-family="Helvetica,sans-Serif" font-size="10.00" fill="#000000">::operator=</text>
</a>
</g>
</g>
<!-- Node156&#45;&gt;Node157 -->
<g id="edge2" class="edge">
<title>Node156&#45;&gt;Node157</title>
<path fill="none" stroke="#191970" d="M314.0225,-75.508C322.607,-76.5755 331.2762,-77.6535 339.7559,-78.708"/>
<polygon fill="#191970" stroke="#191970" points="314.356,-72.0226 304.0005,-74.2617 313.4921,-78.9691 314.356,-72.0226"/>
</g>
<!-- Node158 -->
<g id="node4" class="node">
<title>Node158</title>
<g id="a_node4"><a xlink:href="../../dd/d89/classqtsdl_1_1_gui_engine_impl_connection.xhtml#a838d04049e7a234096ddc630de0fee59" target="_top" xlink:title="qtsdl::GuiEngineImplConnection\l::~GuiEngineImplConnection">
<polygon fill="#ffffff" stroke="#000000" points="340,-24.5 340,-54.5 497,-54.5 497,-24.5 340,-24.5"/>
<text text-anchor="start" x="348" y="-42.5" font-family="Helvetica,sans-Serif" font-size="10.00" fill="#000000">qtsdl::GuiEngineImplConnection</text>
<text text-anchor="middle" x="418.5" y="-31.5" font-family="Helvetica,sans-Serif" font-size="10.00" fill="#000000">::~GuiEngineImplConnection</text>
</a>
</g>
</g>
<!-- Node156&#45;&gt;Node158 -->
<g id="edge3" class="edge">
<title>Node156&#45;&gt;Node158</title>
<path fill="none" stroke="#191970" d="M314.0225,-53.0334C322.607,-51.9214 331.2762,-50.7984 339.7559,-49.7"/>
<polygon fill="#191970" stroke="#191970" points="313.468,-49.5759 304.0005,-54.3315 314.3673,-56.5179 313.468,-49.5759"/>
</g>
</g>
</svg>
