<?xml version="1.0" encoding="UTF-8" standalone="no"?>
<!DOCTYPE svg PUBLIC "-//W3C//DTD SVG 1.1//EN"
 "http://www.w3.org/Graphics/SVG/1.1/DTD/svg11.dtd">
<!-- Generated by graphviz version 2.40.1 (20161225.0304)
 -->
<!-- Title: qtsdl::GuiSubtreeImpl::reparent_root Pages: 1 -->
<svg width="833pt" height="136pt"
 viewBox="0.00 0.00 833.00 136.00" xmlns="http://www.w3.org/2000/svg" xmlns:xlink="http://www.w3.org/1999/xlink">
<g id="graph0" class="graph" transform="scale(1 1) rotate(0) translate(4 132)">
<title>qtsdl::GuiSubtreeImpl::reparent_root</title>
<polygon fill="#ffffff" stroke="transparent" points="-4,4 -4,-132 829,-132 829,4 -4,4"/>
<!-- Node166 -->
<g id="node1" class="node">
<title>Node166</title>
<polygon fill="#bfbfbf" stroke="#000000" points="0,-72.5 0,-102.5 111,-102.5 111,-72.5 0,-72.5"/>
<text text-anchor="start" x="8" y="-90.5" font-family="Helvetica,sans-Serif" font-size="10.00" fill="#000000">qtsdl::GuiSubtreeImpl</text>
<text text-anchor="middle" x="55.5" y="-79.5" font-family="Helvetica,sans-Serif" font-size="10.00" fill="#000000">::reparent_root</text>
</g>
<!-- Node167 -->
<g id="node2" class="node">
<title>Node167</title>
<g id="a_node2"><a xlink:href="../../d4/d96/classqtsdl_1_1_gui_subtree_impl.xhtml#aee5a3d8f253ea34f7c49a6709b5e1e8f" target="_top" xlink:title="qtsdl::GuiSubtreeImpl\l::attach_to">
<polygon fill="#ffffff" stroke="#000000" points="164,-97.5 164,-127.5 275,-127.5 275,-97.5 164,-97.5"/>
<text text-anchor="start" x="172" y="-115.5" font-family="Helvetica,sans-Serif" font-size="10.00" fill="#000000">qtsdl::GuiSubtreeImpl</text>
<text text-anchor="middle" x="219.5" y="-104.5" font-family="Helvetica,sans-Serif" font-size="10.00" fill="#000000">::attach_to</text>
</a>
</g>
</g>
<!-- Node166&#45;&gt;Node167 -->
<g id="edge1" class="edge">
<title>Node166&#45;&gt;Node167</title>
<path fill="none" stroke="#191970" d="M121.1565,-97.5086C135.2713,-99.6603 150.0596,-101.9146 163.7554,-104.0023"/>
<polygon fill="#191970" stroke="#191970" points="121.4362,-94.0109 111.0229,-95.9639 120.3812,-100.931 121.4362,-94.0109"/>
</g>
<!-- Node168 -->
<g id="node3" class="node">
<title>Node168</title>
<g id="a_node3"><a xlink:href="../../d4/d96/classqtsdl_1_1_gui_subtree_impl.xhtml#aed216357736342148f86afb0d73f3fdd" target="_top" xlink:title="qtsdl::GuiSubtreeImpl\l::component_status_changed">
<polygon fill="#ffffff" stroke="#000000" points="147,-48.5 147,-78.5 292,-78.5 292,-48.5 147,-48.5"/>
<text text-anchor="start" x="155" y="-66.5" font-family="Helvetica,sans-Serif" font-size="10.00" fill="#000000">qtsdl::GuiSubtreeImpl</text>
<text text-anchor="middle" x="219.5" y="-55.5" font-family="Helvetica,sans-Serif" font-size="10.00" fill="#000000">::component_status_changed</text>
</a>
</g>
</g>
<!-- Node166&#45;&gt;Node168 -->
<g id="edge2" class="edge">
<title>Node166&#45;&gt;Node168</title>
<path fill="none" stroke="#191970" d="M121.1857,-77.8875C129.6361,-76.6508 138.3275,-75.3789 146.8809,-74.1272"/>
<polygon fill="#191970" stroke="#191970" points="120.4107,-74.4635 111.0229,-79.3747 121.4244,-81.3897 120.4107,-74.4635"/>
</g>
<!-- Node169 -->
<g id="node4" class="node">
<title>Node169</title>
<g id="a_node4"><a xlink:href="../../d4/d96/classqtsdl_1_1_gui_subtree_impl.xhtml#a903d02ad6f5349af96add80f99ddf345" target="_top" xlink:title="qtsdl::GuiSubtreeImpl\l::attach_to">
<polygon fill="#ffffff" stroke="#000000" points="328,-73.5 328,-103.5 439,-103.5 439,-73.5 328,-73.5"/>
<text text-anchor="start" x="336" y="-91.5" font-family="Helvetica,sans-Serif" font-size="10.00" fill="#000000">qtsdl::GuiSubtreeImpl</text>
<text text-anchor="middle" x="383.5" y="-80.5" font-family="Helvetica,sans-Serif" font-size="10.00" fill="#000000">::attach_to</text>
</a>
</g>
</g>
<!-- Node168&#45;&gt;Node169 -->
<g id="edge3" class="edge">
<title>Node168&#45;&gt;Node169</title>
<path fill="none" stroke="#191970" d="M302.3872,-76.1352C310.919,-77.4358 319.438,-78.7345 327.5747,-79.9748"/>
<polygon fill="#191970" stroke="#191970" points="302.8011,-72.658 292.3879,-74.611 301.7462,-79.578 302.8011,-72.658"/>
</g>
<!-- Node170 -->
<g id="node5" class="node">
<title>Node170</title>
<g id="a_node5"><a xlink:href="../../d4/d96/classqtsdl_1_1_gui_subtree_impl.xhtml#aea9b559c07846786ebcf6c41ef58ff78" target="_top" xlink:title="qtsdl::GuiSubtreeImpl\l::onEngineReloaded">
<polygon fill="#ffffff" stroke="#000000" points="328,-24.5 328,-54.5 439,-54.5 439,-24.5 328,-24.5"/>
<text text-anchor="start" x="336" y="-42.5" font-family="Helvetica,sans-Serif" font-size="10.00" fill="#000000">qtsdl::GuiSubtreeImpl</text>
<text text-anchor="middle" x="383.5" y="-31.5" font-family="Helvetica,sans-Serif" font-size="10.00" fill="#000000">::onEngineReloaded</text>
</a>
</g>
</g>
<!-- Node168&#45;&gt;Node170 -->
<g id="edge4" class="edge">
<title>Node168&#45;&gt;Node170</title>
<path fill="none" stroke="#191970" d="M302.3872,-51.3702C310.919,-50.1216 319.438,-48.8749 327.5747,-47.6842"/>
<polygon fill="#191970" stroke="#191970" points="301.7756,-47.9223 292.3879,-52.8335 302.7893,-54.8485 301.7756,-47.9223"/>
</g>
<!-- Node171 -->
<g id="node6" class="node">
<title>Node171</title>
<g id="a_node6"><a xlink:href="../../dd/d89/classqtsdl_1_1_gui_engine_impl_connection.xhtml#ac2ef61bcd0cdb991b399a29eeb5ec74c" target="_top" xlink:title="qtsdl::GuiEngineImplConnection\l::disconnect">
<polygon fill="#ffffff" stroke="#000000" points="475,-49.5 475,-79.5 632,-79.5 632,-49.5 475,-49.5"/>
<text text-anchor="start" x="483" y="-67.5" font-family="Helvetica,sans-Serif" font-size="10.00" fill="#000000">qtsdl::GuiEngineImplConnection</text>
<text text-anchor="middle" x="553.5" y="-56.5" font-family="Helvetica,sans-Serif" font-size="10.00" fill="#000000">::disconnect</text>
</a>
</g>
</g>
<!-- Node170&#45;&gt;Node171 -->
<g id="edge5" class="edge">
<title>Node170&#45;&gt;Node171</title>
<path fill="none" stroke="#191970" d="M449.2517,-49.1694C457.6484,-50.4042 466.3096,-51.6779 474.8837,-52.9388"/>
<polygon fill="#191970" stroke="#191970" points="449.5672,-45.6782 439.1644,-47.6859 448.5487,-52.6037 449.5672,-45.6782"/>
</g>
<!-- Node174 -->
<g id="node9" class="node">
<title>Node174</title>
<g id="a_node9"><a xlink:href="../../dd/d89/classqtsdl_1_1_gui_engine_impl_connection.xhtml#af9d75573df9d5f7b433c54eb6f2690fa" target="_top" xlink:title="qtsdl::GuiEngineImplConnection\l::GuiEngineImplConnection">
<polygon fill="#ffffff" stroke="#000000" points="475,-.5 475,-30.5 632,-30.5 632,-.5 475,-.5"/>
<text text-anchor="start" x="483" y="-18.5" font-family="Helvetica,sans-Serif" font-size="10.00" fill="#000000">qtsdl::GuiEngineImplConnection</text>
<text text-anchor="middle" x="553.5" y="-7.5" font-family="Helvetica,sans-Serif" font-size="10.00" fill="#000000">::GuiEngineImplConnection</text>
</a>
</g>
</g>
<!-- Node170&#45;&gt;Node174 -->
<g id="edge8" class="edge">
<title>Node170&#45;&gt;Node174</title>
<path fill="none" stroke="#191970" d="M449.2517,-30.2174C457.6484,-29.032 466.3096,-27.8092 474.8837,-26.5988"/>
<polygon fill="#191970" stroke="#191970" points="448.5769,-26.7779 439.1644,-31.6415 449.5555,-33.7091 448.5769,-26.7779"/>
</g>
<!-- Node172 -->
<g id="node7" class="node">
<title>Node172</title>
<g id="a_node7"><a xlink:href="../../dd/d89/classqtsdl_1_1_gui_engine_impl_connection.xhtml#a3de39e1c4b2cc6b97f38d9c1217d5de5" target="_top" xlink:title="qtsdl::GuiEngineImplConnection\l::operator=">
<polygon fill="#ffffff" stroke="#000000" points="668,-73.5 668,-103.5 825,-103.5 825,-73.5 668,-73.5"/>
<text text-anchor="start" x="676" y="-91.5" font-family="Helvetica,sans-Serif" font-size="10.00" fill="#000000">qtsdl::GuiEngineImplConnection</text>
<text text-anchor="middle" x="746.5" y="-80.5" font-family="Helvetica,sans-Serif" font-size="10.00" fill="#000000">::operator=</text>
</a>
</g>
</g>
<!-- Node171&#45;&gt;Node172 -->
<g id="edge6" class="edge">
<title>Node171&#45;&gt;Node172</title>
<path fill="none" stroke="#191970" d="M642.0225,-75.508C650.607,-76.5755 659.2762,-77.6535 667.7559,-78.708"/>
<polygon fill="#191970" stroke="#191970" points="642.356,-72.0226 632.0005,-74.2617 641.4921,-78.9691 642.356,-72.0226"/>
</g>
<!-- Node173 -->
<g id="node8" class="node">
<title>Node173</title>
<g id="a_node8"><a xlink:href="../../dd/d89/classqtsdl_1_1_gui_engine_impl_connection.xhtml#a838d04049e7a234096ddc630de0fee59" target="_top" xlink:title="qtsdl::GuiEngineImplConnection\l::~GuiEngineImplConnection">
<polygon fill="#ffffff" stroke="#000000" points="668,-24.5 668,-54.5 825,-54.5 825,-24.5 668,-24.5"/>
<text text-anchor="start" x="676" y="-42.5" font-family="Helvetica,sans-Serif" font-size="10.00" fill="#000000">qtsdl::GuiEngineImplConnection</text>
<text text-anchor="middle" x="746.5" y="-31.5" font-family="Helvetica,sans-Serif" font-size="10.00" fill="#000000">::~GuiEngineImplConnection</text>
</a>
</g>
</g>
<!-- Node171&#45;&gt;Node173 -->
<g id="edge7" class="edge">
<title>Node171&#45;&gt;Node173</title>
<path fill="none" stroke="#191970" d="M642.0225,-53.0334C650.607,-51.9214 659.2762,-50.7984 667.7559,-49.7"/>
<polygon fill="#191970" stroke="#191970" points="641.468,-49.5759 632.0005,-54.3315 642.3673,-56.5179 641.468,-49.5759"/>
</g>
</g>
</svg>
