<?xml version="1.0" encoding="UTF-8" standalone="no"?>
<!DOCTYPE svg PUBLIC "-//W3C//DTD SVG 1.1//EN"
 "http://www.w3.org/Graphics/SVG/1.1/DTD/svg11.dtd">
<!-- Generated by graphviz version 2.40.1 (20161225.0304)
 -->
<!-- Title: qtsdl::GuiSubtreeImpl::init_persistent_items Pages: 1 -->
<!--zoomable 136 -->
<svg id="main" version="1.1" xmlns="http://www.w3.org/2000/svg" xmlns:xlink="http://www.w3.org/1999/xlink" xml:space="preserve" onload="init(evt)">
<style type="text/css"><![CDATA[
.edge:hover path { stroke: red; }
.edge:hover polygon { stroke: red; fill: red; }
]]></style>
<script type="text/javascript"><![CDATA[
var edges = document.getElementsByTagName('g');
if (edges && edges.length) {
  for (var i=0;i<edges.length;i++) {
    if (edges[i].id.substr(0,4)=='edge') {
      edges[i].setAttribute('class','edge');
    }
  }
}
]]></script>
        <defs>
                <circle id="rim" cx="0" cy="0" r="7"/>
                <circle id="rim2" cx="0" cy="0" r="3.5"/>
                <g id="zoomPlus">
                        <use xlink:href="#rim" fill="#404040">
                                <set attributeName="fill" to="#808080" begin="zoomplus.mouseover" end="zoomplus.mouseout"/>
                        </use>
                        <path d="M-4,0h8M0,-4v8" fill="none" stroke="white" stroke-width="1.5" pointer-events="none"/>
                </g>
                <g id="zoomMin">
                        <use xlink:href="#rim" fill="#404040">
                                <set attributeName="fill" to="#808080" begin="zoomminus.mouseover" end="zoomminus.mouseout"/>
                        </use>
                        <path d="M-4,0h8" fill="none" stroke="white" stroke-width="1.5" pointer-events="none"/>
                </g>
                <g id="dirArrow">
                        <path fill="none" stroke="white" stroke-width="1.5" d="M0,-3.0v7 M-2.5,-0.5L0,-3.0L2.5,-0.5"/>
                </g>
               <g id="resetDef">
                       <use xlink:href="#rim2" fill="#404040">
                               <set attributeName="fill" to="#808080" begin="reset.mouseover" end="reset.mouseout"/>
                       </use>
               </g>
        </defs>

<script type="text/javascript">
var viewWidth = 835;
var viewHeight = 136;
var sectionId = 'dynsection-11';
</script>
<script xlink:href="../../svgpan.js"/>
<svg id="graph" class="graph">
<g id="viewport">
<title>qtsdl::GuiSubtreeImpl::init_persistent_items</title>
<polygon fill="#ffffff" stroke="transparent" points="-4,4 -4,-132 831,-132 831,4 -4,4"/>
<!-- Node112 -->
<g id="node1" class="node">
<title>Node112</title>
<polygon fill="#bfbfbf" stroke="#000000" points="0,-72.5 0,-102.5 113,-102.5 113,-72.5 0,-72.5"/>
<text text-anchor="start" x="8" y="-90.5" font-family="Helvetica,sans-Serif" font-size="10.00" fill="#000000">qtsdl::GuiSubtreeImpl</text>
<text text-anchor="middle" x="56.5" y="-79.5" font-family="Helvetica,sans-Serif" font-size="10.00" fill="#000000">::init_persistent_items</text>
</g>
<!-- Node113 -->
<g id="node2" class="node">
<title>Node113</title>
<g id="a_node2"><a xlink:href="../../d4/d96/classqtsdl_1_1_gui_subtree_impl.xhtml#aed216357736342148f86afb0d73f3fdd" target="_top" xlink:title="qtsdl::GuiSubtreeImpl\l::component_status_changed">
<polygon fill="#ffffff" stroke="#000000" points="149,-72.5 149,-102.5 294,-102.5 294,-72.5 149,-72.5"/>
<text text-anchor="start" x="157" y="-90.5" font-family="Helvetica,sans-Serif" font-size="10.00" fill="#000000">qtsdl::GuiSubtreeImpl</text>
<text text-anchor="middle" x="221.5" y="-79.5" font-family="Helvetica,sans-Serif" font-size="10.00" fill="#000000">::component_status_changed</text>
</a>
</g>
</g>
<!-- Node112&#45;&gt;Node113 -->
<g id="edge1" class="edge">
<title>Node112&#45;&gt;Node113</title>
<path fill="none" stroke="#191970" d="M123.3869,-87.5C131.7809,-87.5 140.3987,-87.5 148.8754,-87.5"/>
<polygon fill="#191970" stroke="#191970" points="123.2837,-84.0001 113.2836,-87.5 123.2836,-91.0001 123.2837,-84.0001"/>
</g>
<!-- Node114 -->
<g id="node3" class="node">
<title>Node114</title>
<g id="a_node3"><a xlink:href="../../d4/d96/classqtsdl_1_1_gui_subtree_impl.xhtml#a903d02ad6f5349af96add80f99ddf345" target="_top" xlink:title="qtsdl::GuiSubtreeImpl\l::attach_to">
<polygon fill="#ffffff" stroke="#000000" points="330,-97.5 330,-127.5 441,-127.5 441,-97.5 330,-97.5"/>
<text text-anchor="start" x="338" y="-115.5" font-family="Helvetica,sans-Serif" font-size="10.00" fill="#000000">qtsdl::GuiSubtreeImpl</text>
<text text-anchor="middle" x="385.5" y="-104.5" font-family="Helvetica,sans-Serif" font-size="10.00" fill="#000000">::attach_to</text>
</a>
</g>
</g>
<!-- Node113&#45;&gt;Node114 -->
<g id="edge2" class="edge">
<title>Node113&#45;&gt;Node114</title>
<path fill="none" stroke="#191970" d="M304.3872,-100.1352C312.919,-101.4358 321.438,-102.7345 329.5747,-103.9748"/>
<polygon fill="#191970" stroke="#191970" points="304.8011,-96.658 294.3879,-98.611 303.7462,-103.578 304.8011,-96.658"/>
</g>
<!-- Node115 -->
<g id="node4" class="node">
<title>Node115</title>
<g id="a_node4"><a xlink:href="../../d4/d96/classqtsdl_1_1_gui_subtree_impl.xhtml#aea9b559c07846786ebcf6c41ef58ff78" target="_top" xlink:title="qtsdl::GuiSubtreeImpl\l::onEngineReloaded">
<polygon fill="#ffffff" stroke="#000000" points="330,-48.5 330,-78.5 441,-78.5 441,-48.5 330,-48.5"/>
<text text-anchor="start" x="338" y="-66.5" font-family="Helvetica,sans-Serif" font-size="10.00" fill="#000000">qtsdl::GuiSubtreeImpl</text>
<text text-anchor="middle" x="385.5" y="-55.5" font-family="Helvetica,sans-Serif" font-size="10.00" fill="#000000">::onEngineReloaded</text>
</a>
</g>
</g>
<!-- Node113&#45;&gt;Node115 -->
<g id="edge3" class="edge">
<title>Node113&#45;&gt;Node115</title>
<path fill="none" stroke="#191970" d="M304.3872,-75.3702C312.919,-74.1216 321.438,-72.8749 329.5747,-71.6842"/>
<polygon fill="#191970" stroke="#191970" points="303.7756,-71.9223 294.3879,-76.8335 304.7893,-78.8485 303.7756,-71.9223"/>
</g>
<!-- Node116 -->
<g id="node5" class="node">
<title>Node116</title>
<g id="a_node5"><a xlink:href="../../dd/d89/classqtsdl_1_1_gui_engine_impl_connection.xhtml#af9d75573df9d5f7b433c54eb6f2690fa" target="_top" xlink:title="qtsdl::GuiEngineImplConnection\l::GuiEngineImplConnection">
<polygon fill="#ffffff" stroke="#000000" points="477,-73.5 477,-103.5 634,-103.5 634,-73.5 477,-73.5"/>
<text text-anchor="start" x="485" y="-91.5" font-family="Helvetica,sans-Serif" font-size="10.00" fill="#000000">qtsdl::GuiEngineImplConnection</text>
<text text-anchor="middle" x="555.5" y="-80.5" font-family="Helvetica,sans-Serif" font-size="10.00" fill="#000000">::GuiEngineImplConnection</text>
</a>
</g>
</g>
<!-- Node115&#45;&gt;Node116 -->
<g id="edge4" class="edge">
<title>Node115&#45;&gt;Node116</title>
<path fill="none" stroke="#191970" d="M451.2517,-73.1694C459.6484,-74.4042 468.3096,-75.6779 476.8837,-76.9388"/>
<polygon fill="#191970" stroke="#191970" points="451.5672,-69.6782 441.1644,-71.6859 450.5487,-76.6037 451.5672,-69.6782"/>
</g>
<!-- Node117 -->
<g id="node6" class="node">
<title>Node117</title>
<g id="a_node6"><a xlink:href="../../dd/d89/classqtsdl_1_1_gui_engine_impl_connection.xhtml#ac2ef61bcd0cdb991b399a29eeb5ec74c" target="_top" xlink:title="qtsdl::GuiEngineImplConnection\l::disconnect">
<polygon fill="#ffffff" stroke="#000000" points="477,-24.5 477,-54.5 634,-54.5 634,-24.5 477,-24.5"/>
<text text-anchor="start" x="485" y="-42.5" font-family="Helvetica,sans-Serif" font-size="10.00" fill="#000000">qtsdl::GuiEngineImplConnection</text>
<text text-anchor="middle" x="555.5" y="-31.5" font-family="Helvetica,sans-Serif" font-size="10.00" fill="#000000">::disconnect</text>
</a>
</g>
</g>
<!-- Node115&#45;&gt;Node117 -->
<g id="edge5" class="edge">
<title>Node115&#45;&gt;Node117</title>
<path fill="none" stroke="#191970" d="M451.2517,-54.2174C459.6484,-53.032 468.3096,-51.8092 476.8837,-50.5988"/>
<polygon fill="#191970" stroke="#191970" points="450.5769,-50.7779 441.1644,-55.6415 451.5555,-57.7091 450.5769,-50.7779"/>
</g>
<!-- Node118 -->
<g id="node7" class="node">
<title>Node118</title>
<g id="a_node7"><a xlink:href="../../dd/d89/classqtsdl_1_1_gui_engine_impl_connection.xhtml#a3de39e1c4b2cc6b97f38d9c1217d5de5" target="_top" xlink:title="qtsdl::GuiEngineImplConnection\l::operator=">
<polygon fill="#ffffff" stroke="#000000" points="670,-49.5 670,-79.5 827,-79.5 827,-49.5 670,-49.5"/>
<text text-anchor="start" x="678" y="-67.5" font-family="Helvetica,sans-Serif" font-size="10.00" fill="#000000">qtsdl::GuiEngineImplConnection</text>
<text text-anchor="middle" x="748.5" y="-56.5" font-family="Helvetica,sans-Serif" font-size="10.00" fill="#000000">::operator=</text>
</a>
</g>
</g>
<!-- Node117&#45;&gt;Node118 -->
<g id="edge6" class="edge">
<title>Node117&#45;&gt;Node118</title>
<path fill="none" stroke="#191970" d="M644.0225,-50.9666C652.607,-52.0786 661.2762,-53.2016 669.7559,-54.3"/>
<polygon fill="#191970" stroke="#191970" points="644.3673,-47.4821 634.0005,-49.6685 643.468,-54.4241 644.3673,-47.4821"/>
</g>
<!-- Node119 -->
<g id="node8" class="node">
<title>Node119</title>
<g id="a_node8"><a xlink:href="../../dd/d89/classqtsdl_1_1_gui_engine_impl_connection.xhtml#a838d04049e7a234096ddc630de0fee59" target="_top" xlink:title="qtsdl::GuiEngineImplConnection\l::~GuiEngineImplConnection">
<polygon fill="#ffffff" stroke="#000000" points="670,-.5 670,-30.5 827,-30.5 827,-.5 670,-.5"/>
<text text-anchor="start" x="678" y="-18.5" font-family="Helvetica,sans-Serif" font-size="10.00" fill="#000000">qtsdl::GuiEngineImplConnection</text>
<text text-anchor="middle" x="748.5" y="-7.5" font-family="Helvetica,sans-Serif" font-size="10.00" fill="#000000">::~GuiEngineImplConnection</text>
</a>
</g>
</g>
<!-- Node117&#45;&gt;Node119 -->
<g id="edge7" class="edge">
<title>Node117&#45;&gt;Node119</title>
<path fill="none" stroke="#191970" d="M644.0225,-28.492C652.607,-27.4245 661.2762,-26.3465 669.7559,-25.292"/>
<polygon fill="#191970" stroke="#191970" points="643.4921,-25.0309 634.0005,-29.7383 644.356,-31.9774 643.4921,-25.0309"/>
</g>
</g>
</svg>
        <g id="navigator" transform="translate(0 0)" fill="#404254">
                <rect fill="#f2f5e9" fill-opacity="0.5" stroke="#606060" stroke-width=".5" x="0" y="0" width="60" height="60"/>
                <use id="zoomplus" xlink:href="#zoomPlus" x="17" y="9" onmousedown="handleZoom(evt,'in')"/>
                <use id="zoomminus" xlink:href="#zoomMin" x="42" y="9" onmousedown="handleZoom(evt,'out')"/>
                <use id="reset" xlink:href="#resetDef" x="30" y="36" onmousedown="handleReset()"/>
                <g id="arrowUp" xlink:href="#dirArrow" transform="translate(30 24)" onmousedown="handlePan(0,-1)">
                  <use xlink:href="#rim" fill="#404040">
                        <set attributeName="fill" to="#808080" begin="arrowUp.mouseover" end="arrowUp.mouseout"/>
                  </use>
                  <path fill="none" stroke="white" stroke-width="1.5" d="M0,-3.0v7 M-2.5,-0.5L0,-3.0L2.5,-0.5"/>
                </g>
                <g id="arrowRight" xlink:href="#dirArrow" transform="rotate(90) translate(36 -43)" onmousedown="handlePan(1,0)">
                  <use xlink:href="#rim" fill="#404040">
                        <set attributeName="fill" to="#808080" begin="arrowRight.mouseover" end="arrowRight.mouseout"/>
                  </use>
                  <path fill="none" stroke="white" stroke-width="1.5" d="M0,-3.0v7 M-2.5,-0.5L0,-3.0L2.5,-0.5"/>
                </g>
                <g id="arrowDown" xlink:href="#dirArrow" transform="rotate(180) translate(-30 -48)" onmousedown="handlePan(0,1)">
                  <use xlink:href="#rim" fill="#404040">
                        <set attributeName="fill" to="#808080" begin="arrowDown.mouseover" end="arrowDown.mouseout"/>
                  </use>
                  <path fill="none" stroke="white" stroke-width="1.5" d="M0,-3.0v7 M-2.5,-0.5L0,-3.0L2.5,-0.5"/>
                </g>
                <g id="arrowLeft" xlink:href="#dirArrow" transform="rotate(270) translate(-36 17)" onmousedown="handlePan(-1,0)">
                  <use xlink:href="#rim" fill="#404040">
                        <set attributeName="fill" to="#808080" begin="arrowLeft.mouseover" end="arrowLeft.mouseout"/>
                  </use>
                  <path fill="none" stroke="white" stroke-width="1.5" d="M0,-3.0v7 M-2.5,-0.5L0,-3.0L2.5,-0.5"/>
                </g>
        </g>
        <svg viewBox="0 0 15 15" width="100%" height="30px" preserveAspectRatio="xMaxYMin meet">
         <g id="arrow_out" transform="scale(0.3 0.3)">
          <a xlink:href="classqtsdl_1_1_gui_subtree_impl_a766c2b35a935c60fcbfcc6758d908ecb_icgraph_org.svg" target="_base">
           <rect id="button" ry="5" rx="5" y="6" x="6" height="38" width="38"
                fill="#f2f5e9" fill-opacity="0.5" stroke="#606060" stroke-width="1.0"/>
           <path id="arrow"
             d="M 11.500037,31.436501 C 11.940474,20.09759 22.043105,11.32322 32.158766,21.979434 L 37.068811,17.246167 C 37.068811,17.246167 37.088388,32 37.088388,32 L 22.160133,31.978069 C 22.160133,31.978069 26.997745,27.140456 26.997745,27.140456 C 18.528582,18.264221 13.291696,25.230495 11.500037,31.436501 z"
             style="fill:#404040;"/>
          </a>
         </g>
        </svg>
</svg>
