<?xml version="1.0" encoding="UTF-8" standalone="no"?>
<!DOCTYPE svg PUBLIC "-//W3C//DTD SVG 1.1//EN"
 "http://www.w3.org/Graphics/SVG/1.1/DTD/svg11.dtd">
<!-- Generated by graphviz version 2.40.1 (20161225.0304)
 -->
<!-- Title: qtsdl::GuiSubtreeImpl::component_status_changed Pages: 1 -->
<svg width="1652pt" height="488pt"
 viewBox="0.00 0.00 1652.00 488.04" xmlns="http://www.w3.org/2000/svg" xmlns:xlink="http://www.w3.org/1999/xlink">
<g id="graph0" class="graph" transform="scale(1 1) rotate(0) translate(4 484.0399)">
<title>qtsdl::GuiSubtreeImpl::component_status_changed</title>
<polygon fill="#ffffff" stroke="transparent" points="-4,4 -4,-484.0399 1648,-484.0399 1648,4 -4,4"/>
<!-- Node50 -->
<g id="node1" class="node">
<title>Node50</title>
<polygon fill="#bfbfbf" stroke="#000000" points="0,-270.5 0,-300.5 145,-300.5 145,-270.5 0,-270.5"/>
<text text-anchor="start" x="8" y="-288.5" font-family="Helvetica,sans-Serif" font-size="10.00" fill="#000000">qtsdl::GuiSubtreeImpl</text>
<text text-anchor="middle" x="72.5" y="-277.5" font-family="Helvetica,sans-Serif" font-size="10.00" fill="#000000">::component_status_changed</text>
</g>
<!-- Node51 -->
<g id="node2" class="node">
<title>Node51</title>
<g id="a_node2"><a xlink:href="../../d4/d96/classqtsdl_1_1_gui_subtree_impl.xhtml#a766c2b35a935c60fcbfcc6758d908ecb" target="_top" xlink:title="qtsdl::GuiSubtreeImpl\l::init_persistent_items">
<polygon fill="#ffffff" stroke="#000000" points="203,-343.5 203,-373.5 316,-373.5 316,-343.5 203,-343.5"/>
<text text-anchor="start" x="211" y="-361.5" font-family="Helvetica,sans-Serif" font-size="10.00" fill="#000000">qtsdl::GuiSubtreeImpl</text>
<text text-anchor="middle" x="259.5" y="-350.5" font-family="Helvetica,sans-Serif" font-size="10.00" fill="#000000">::init_persistent_items</text>
</a>
</g>
</g>
<!-- Node50&#45;&gt;Node51 -->
<g id="edge1" class="edge">
<title>Node50&#45;&gt;Node51</title>
<path fill="none" stroke="#191970" d="M111.2465,-300.6256C140.3315,-311.9797 180.3306,-327.5943 211.4517,-339.7432"/>
<polygon fill="#191970" stroke="#191970" points="210.215,-343.0176 220.8031,-343.3937 212.7605,-336.4968 210.215,-343.0176"/>
</g>
<!-- Node72 -->
<g id="node23" class="node">
<title>Node72</title>
<g id="a_node23"><a xlink:href="../../d4/d96/classqtsdl_1_1_gui_subtree_impl.xhtml#a810b181409e571b440ab128d2c073703" target="_top" xlink:title="qtsdl::GuiSubtreeImpl\l::reparent_root">
<polygon fill="#ffffff" stroke="#000000" points="204,-270.5 204,-300.5 315,-300.5 315,-270.5 204,-270.5"/>
<text text-anchor="start" x="212" y="-288.5" font-family="Helvetica,sans-Serif" font-size="10.00" fill="#000000">qtsdl::GuiSubtreeImpl</text>
<text text-anchor="middle" x="259.5" y="-277.5" font-family="Helvetica,sans-Serif" font-size="10.00" fill="#000000">::reparent_root</text>
</a>
</g>
</g>
<!-- Node50&#45;&gt;Node72 -->
<g id="edge31" class="edge">
<title>Node50&#45;&gt;Node72</title>
<path fill="none" stroke="#191970" d="M145.0667,-285.5C161.068,-285.5 177.9315,-285.5 193.6495,-285.5"/>
<polygon fill="#191970" stroke="#191970" points="193.7925,-289.0001 203.7924,-285.5 193.7924,-282.0001 193.7925,-289.0001"/>
</g>
<!-- Node74 -->
<g id="node25" class="node">
<title>Node74</title>
<g id="a_node25"><a xlink:href="../../dd/d89/classqtsdl_1_1_gui_engine_impl_connection.xhtml#a53fe06a5892eaa14cf0a9f4b8d0004a6" target="_top" xlink:title="qtsdl::GuiEngineImplConnection\l::rootContext">
<polygon fill="#ffffff" stroke="#000000" points="181,-221.5 181,-251.5 338,-251.5 338,-221.5 181,-221.5"/>
<text text-anchor="start" x="189" y="-239.5" font-family="Helvetica,sans-Serif" font-size="10.00" fill="#000000">qtsdl::GuiEngineImplConnection</text>
<text text-anchor="middle" x="259.5" y="-228.5" font-family="Helvetica,sans-Serif" font-size="10.00" fill="#000000">::rootContext</text>
</a>
</g>
</g>
<!-- Node50&#45;&gt;Node74 -->
<g id="edge33" class="edge">
<title>Node50&#45;&gt;Node74</title>
<path fill="none" stroke="#191970" d="M129.877,-270.4654C149.6216,-265.2917 171.9058,-259.4525 192.3578,-254.0934"/>
<polygon fill="#191970" stroke="#191970" points="193.4453,-257.4267 202.2315,-251.5062 191.6709,-250.6553 193.4453,-257.4267"/>
</g>
<!-- Node52 -->
<g id="node3" class="node">
<title>Node52</title>
<g id="a_node3"><a xlink:href="../../d0/dc9/classqtsdl_1_1_gui_live_reloader_attached_property.xhtml#a1e2ea1273c82c7769b0c4a56628112fa" target="_top" xlink:title="qtsdl::GuiLiveReloaderAttached\lProperty::get_attachee">
<polygon fill="#ffffff" stroke="#000000" points="374,-319.5 374,-349.5 529,-349.5 529,-319.5 374,-319.5"/>
<text text-anchor="start" x="382" y="-337.5" font-family="Helvetica,sans-Serif" font-size="10.00" fill="#000000">qtsdl::GuiLiveReloaderAttached</text>
<text text-anchor="middle" x="451.5" y="-326.5" font-family="Helvetica,sans-Serif" font-size="10.00" fill="#000000">Property::get_attachee</text>
</a>
</g>
</g>
<!-- Node51&#45;&gt;Node52 -->
<g id="edge2" class="edge">
<title>Node51&#45;&gt;Node52</title>
<path fill="none" stroke="#191970" d="M316.0679,-351.429C331.0909,-349.5511 347.6732,-347.4783 363.9306,-345.4462"/>
<polygon fill="#191970" stroke="#191970" points="364.5056,-348.9016 373.9943,-344.1882 363.6373,-341.9557 364.5056,-348.9016"/>
</g>
<!-- Node53 -->
<g id="node4" class="node">
<title>Node53</title>
<g id="a_node4"><a xlink:href="../../d3/d71/classqtsdl_1_1_gui_item_base.xhtml#a0567d09e763a08648aad1675201b75b8" target="_top" xlink:title="Set up signal to be able to run code in the game logic thread. ">
<polygon fill="#ffffff" stroke="#000000" points="385.5,-417.5 385.5,-447.5 517.5,-447.5 517.5,-417.5 385.5,-417.5"/>
<text text-anchor="start" x="393.5" y="-435.5" font-family="Helvetica,sans-Serif" font-size="10.00" fill="#000000">qtsdl::GuiItemBase</text>
<text text-anchor="middle" x="451.5" y="-424.5" font-family="Helvetica,sans-Serif" font-size="10.00" fill="#000000">::set_game_logic_callback</text>
</a>
</g>
</g>
<!-- Node51&#45;&gt;Node53 -->
<g id="edge3" class="edge">
<title>Node51&#45;&gt;Node53</title>
<path fill="none" stroke="#191970" d="M291.6796,-373.7001C314.4123,-384.1535 345.74,-397.9912 374,-408.5 379.1983,-410.433 384.6309,-412.3392 390.1028,-414.1811"/>
<polygon fill="#191970" stroke="#191970" points="389.3596,-417.621 399.9525,-417.4188 391.5456,-410.971 389.3596,-417.621"/>
</g>
<!-- Node54 -->
<g id="node5" class="node">
<title>Node54</title>
<g id="a_node5"><a xlink:href="../../da/d61/classqtsdl_1_1_gui_live_reloader.xhtml#a53357cda7b2c3adde79a0fc5516d1724" target="_top" xlink:title="qtsdl::GuiLiveReloader\l::init_persistent_items">
<polygon fill="#ffffff" stroke="#000000" points="393.5,-368.5 393.5,-398.5 509.5,-398.5 509.5,-368.5 393.5,-368.5"/>
<text text-anchor="start" x="401.5" y="-386.5" font-family="Helvetica,sans-Serif" font-size="10.00" fill="#000000">qtsdl::GuiLiveReloader</text>
<text text-anchor="middle" x="451.5" y="-375.5" font-family="Helvetica,sans-Serif" font-size="10.00" fill="#000000">::init_persistent_items</text>
</a>
</g>
</g>
<!-- Node51&#45;&gt;Node54 -->
<g id="edge4" class="edge">
<title>Node51&#45;&gt;Node54</title>
<path fill="none" stroke="#191970" d="M316.0679,-365.8656C337.1713,-368.6134 361.3517,-371.7619 383.386,-374.631"/>
<polygon fill="#191970" stroke="#191970" points="382.9718,-378.1065 393.34,-375.9271 383.8757,-371.1651 382.9718,-378.1065"/>
</g>
<!-- Node55 -->
<g id="node6" class="node">
<title>Node55</title>
<g id="a_node6"><a xlink:href="../../de/d60/namespaceopenage_1_1util.xhtml#ac6f34c002692bc844cd70de03e10bc5d" target="_top" xlink:title="std::for_each except just on containers. ">
<polygon fill="#ffffff" stroke="#000000" points="565,-374 565,-393 681,-393 681,-374 565,-374"/>
<text text-anchor="middle" x="623" y="-381" font-family="Helvetica,sans-Serif" font-size="10.00" fill="#000000">openage::util::for_each</text>
</a>
</g>
</g>
<!-- Node54&#45;&gt;Node55 -->
<g id="edge5" class="edge">
<title>Node54&#45;&gt;Node55</title>
<path fill="none" stroke="#191970" d="M509.5621,-383.5C524.0897,-383.5 539.8051,-383.5 554.776,-383.5"/>
<polygon fill="#191970" stroke="#191970" points="554.9978,-387.0001 564.9977,-383.5 554.9977,-380.0001 554.9978,-387.0001"/>
</g>
<!-- Node56 -->
<g id="node7" class="node">
<title>Node56</title>
<g id="a_node7"><a xlink:href="../../d5/d9d/namespaceopenage_1_1curve_1_1tests.xhtml#afc4e799a037edab37e1e35a74da593b7" target="_top" xlink:title="openage::curve::tests\l::container">
<polygon fill="#ffffff" stroke="#000000" points="717,-368.5 717,-398.5 828,-398.5 828,-368.5 717,-368.5"/>
<text text-anchor="start" x="725" y="-386.5" font-family="Helvetica,sans-Serif" font-size="10.00" fill="#000000">openage::curve::tests</text>
<text text-anchor="middle" x="772.5" y="-375.5" font-family="Helvetica,sans-Serif" font-size="10.00" fill="#000000">::container</text>
</a>
</g>
</g>
<!-- Node55&#45;&gt;Node56 -->
<g id="edge6" class="edge">
<title>Node55&#45;&gt;Node56</title>
<path fill="none" stroke="#191970" d="M681.2287,-383.5C689.5055,-383.5 698.0667,-383.5 706.4785,-383.5"/>
<polygon fill="#191970" stroke="#191970" points="706.6358,-387.0001 716.6357,-383.5 706.6357,-380.0001 706.6358,-387.0001"/>
</g>
<!-- Node57 -->
<g id="node8" class="node">
<title>Node57</title>
<g id="a_node8"><a xlink:href="../../d5/d9d/namespaceopenage_1_1curve_1_1tests.xhtml#a994d019a14acd704605a0ccff85558c8" target="_top" xlink:title="openage::curve::tests\l::test_list">
<polygon fill="#ffffff" stroke="#000000" points="864,-417.5 864,-447.5 975,-447.5 975,-417.5 864,-417.5"/>
<text text-anchor="start" x="872" y="-435.5" font-family="Helvetica,sans-Serif" font-size="10.00" fill="#000000">openage::curve::tests</text>
<text text-anchor="middle" x="919.5" y="-424.5" font-family="Helvetica,sans-Serif" font-size="10.00" fill="#000000">::test_list</text>
</a>
</g>
</g>
<!-- Node56&#45;&gt;Node57 -->
<g id="edge7" class="edge">
<title>Node56&#45;&gt;Node57</title>
<path fill="none" stroke="#191970" d="M817.8043,-398.6014C832.5442,-403.5147 849.0672,-409.0224 864.4398,-414.1466"/>
<polygon fill="#191970" stroke="#191970" points="863.7516,-417.6065 874.3453,-417.4484 865.9653,-410.9657 863.7516,-417.6065"/>
</g>
<!-- Node58 -->
<g id="node9" class="node">
<title>Node58</title>
<g id="a_node9"><a xlink:href="../../d5/d9d/namespaceopenage_1_1curve_1_1tests.xhtml#aafe8d47259322a390c43cae62d308296" target="_top" xlink:title="openage::curve::tests\l::test_map">
<polygon fill="#ffffff" stroke="#000000" points="1170,-123.5 1170,-153.5 1281,-153.5 1281,-123.5 1170,-123.5"/>
<text text-anchor="start" x="1178" y="-141.5" font-family="Helvetica,sans-Serif" font-size="10.00" fill="#000000">openage::curve::tests</text>
<text text-anchor="middle" x="1225.5" y="-130.5" font-family="Helvetica,sans-Serif" font-size="10.00" fill="#000000">::test_map</text>
</a>
</g>
</g>
<!-- Node56&#45;&gt;Node58 -->
<g id="edge8" class="edge">
<title>Node56&#45;&gt;Node58</title>
<path fill="none" stroke="#191970" d="M800.4953,-368.359C878.93,-325.9385 1100.832,-205.9253 1188.861,-158.3158"/>
<polygon fill="#191970" stroke="#191970" points="1190.5606,-161.3757 1197.6915,-153.5399 1187.2305,-155.2186 1190.5606,-161.3757"/>
</g>
<!-- Node65 -->
<g id="node16" class="node">
<title>Node65</title>
<g id="a_node16"><a xlink:href="../../d5/d9d/namespaceopenage_1_1curve_1_1tests.xhtml#ae4b27fadf76c2a10960f6b7e7ff7c724" target="_top" xlink:title="openage::curve::tests\l::test_queue">
<polygon fill="#ffffff" stroke="#000000" points="864,-368.5 864,-398.5 975,-398.5 975,-368.5 864,-368.5"/>
<text text-anchor="start" x="872" y="-386.5" font-family="Helvetica,sans-Serif" font-size="10.00" fill="#000000">openage::curve::tests</text>
<text text-anchor="middle" x="919.5" y="-375.5" font-family="Helvetica,sans-Serif" font-size="10.00" fill="#000000">::test_queue</text>
</a>
</g>
</g>
<!-- Node56&#45;&gt;Node65 -->
<g id="edge18" class="edge">
<title>Node56&#45;&gt;Node65</title>
<path fill="none" stroke="#191970" d="M828.0744,-383.5C836.4894,-383.5 845.2383,-383.5 853.8421,-383.5"/>
<polygon fill="#191970" stroke="#191970" points="853.8471,-387.0001 863.847,-383.5 853.847,-380.0001 853.8471,-387.0001"/>
</g>
<!-- Node59 -->
<g id="node10" class="node">
<title>Node59</title>
<g id="a_node10"><a xlink:href="../../dd/dcf/classopenage_1_1curve_1_1_unordered_map.xhtml#ab7e91da88c63f0bc632cf38572706fc5" target="_top" xlink:title="openage::curve::Unordered\lMap::at">
<polygon fill="#ffffff" stroke="#000000" points="1325,-49.5 1325,-79.5 1459,-79.5 1459,-49.5 1325,-49.5"/>
<text text-anchor="start" x="1333" y="-67.5" font-family="Helvetica,sans-Serif" font-size="10.00" fill="#000000">openage::curve::Unordered</text>
<text text-anchor="middle" x="1392" y="-56.5" font-family="Helvetica,sans-Serif" font-size="10.00" fill="#000000">Map::at</text>
</a>
</g>
</g>
<!-- Node58&#45;&gt;Node59 -->
<g id="edge9" class="edge">
<title>Node58&#45;&gt;Node59</title>
<path fill="none" stroke="#191970" d="M1252.0242,-123.4043C1271.1286,-112.8681 1297.7121,-98.8884 1322,-88.5 1326.3483,-86.6401 1330.8936,-84.8189 1335.4891,-83.0636"/>
<polygon fill="#191970" stroke="#191970" points="1336.7835,-86.3166 1344.9459,-79.5621 1334.3528,-79.7522 1336.7835,-86.3166"/>
</g>
<!-- Node61 -->
<g id="node12" class="node">
<title>Node61</title>
<g id="a_node12"><a xlink:href="../../dd/dcf/classopenage_1_1curve_1_1_unordered_map.xhtml#a3d59e255c6113d5e517ba2f69e6927ea" target="_top" xlink:title="openage::curve::Unordered\lMap::begin">
<polygon fill="#ffffff" stroke="#000000" points="1325,-.5 1325,-30.5 1459,-30.5 1459,-.5 1325,-.5"/>
<text text-anchor="start" x="1333" y="-18.5" font-family="Helvetica,sans-Serif" font-size="10.00" fill="#000000">openage::curve::Unordered</text>
<text text-anchor="middle" x="1392" y="-7.5" font-family="Helvetica,sans-Serif" font-size="10.00" fill="#000000">Map::begin</text>
</a>
</g>
</g>
<!-- Node58&#45;&gt;Node61 -->
<g id="edge11" class="edge">
<title>Node58&#45;&gt;Node61</title>
<path fill="none" stroke="#191970" d="M1236.5859,-123.2543C1252.9815,-101.7231 1285.6962,-62.4757 1322,-39.5 1324.5766,-37.8694 1327.2771,-36.3348 1330.0564,-34.8925"/>
<polygon fill="#191970" stroke="#191970" points="1331.6009,-38.0338 1339.1457,-30.5955 1328.6091,-31.7053 1331.6009,-38.0338"/>
</g>
<!-- Node62 -->
<g id="node13" class="node">
<title>Node62</title>
<g id="a_node13"><a xlink:href="../../dd/dcf/classopenage_1_1curve_1_1_unordered_map.xhtml#a74e9ff15f6b3176742a166d7e7c7b5f2" target="_top" xlink:title="openage::curve::Unordered\lMap::between">
<polygon fill="#ffffff" stroke="#000000" points="1325,-196.5 1325,-226.5 1459,-226.5 1459,-196.5 1325,-196.5"/>
<text text-anchor="start" x="1333" y="-214.5" font-family="Helvetica,sans-Serif" font-size="10.00" fill="#000000">openage::curve::Unordered</text>
<text text-anchor="middle" x="1392" y="-203.5" font-family="Helvetica,sans-Serif" font-size="10.00" fill="#000000">Map::between</text>
</a>
</g>
</g>
<!-- Node58&#45;&gt;Node62 -->
<g id="edge13" class="edge">
<title>Node58&#45;&gt;Node62</title>
<path fill="none" stroke="#191970" d="M1253.797,-153.6851C1272.8126,-163.6122 1298.5839,-176.5363 1322,-186.5 1327.0466,-188.6473 1332.3468,-190.7707 1337.6774,-192.8189"/>
<polygon fill="#191970" stroke="#191970" points="1336.6648,-196.1772 1347.257,-196.4134 1339.124,-189.6234 1336.6648,-196.1772"/>
</g>
<!-- Node63 -->
<g id="node14" class="node">
<title>Node63</title>
<g id="a_node14"><a xlink:href="../../dd/dcf/classopenage_1_1curve_1_1_unordered_map.xhtml#af9481e8e9e7cba29a319bd1bea5be0c8" target="_top" xlink:title="openage::curve::Unordered\lMap::end">
<polygon fill="#ffffff" stroke="#000000" points="1325,-147.5 1325,-177.5 1459,-177.5 1459,-147.5 1325,-147.5"/>
<text text-anchor="start" x="1333" y="-165.5" font-family="Helvetica,sans-Serif" font-size="10.00" fill="#000000">openage::curve::Unordered</text>
<text text-anchor="middle" x="1392" y="-154.5" font-family="Helvetica,sans-Serif" font-size="10.00" fill="#000000">Map::end</text>
</a>
</g>
</g>
<!-- Node58&#45;&gt;Node63 -->
<g id="edge14" class="edge">
<title>Node58&#45;&gt;Node63</title>
<path fill="none" stroke="#191970" d="M1281.4053,-146.5584C1292.2194,-148.1172 1303.7261,-149.7758 1315.0751,-151.4117"/>
<polygon fill="#191970" stroke="#191970" points="1314.5895,-154.8778 1324.9866,-152.8404 1315.5882,-147.9494 1314.5895,-154.8778"/>
</g>
<!-- Node64 -->
<g id="node15" class="node">
<title>Node64</title>
<g id="a_node15"><a xlink:href="../../dd/dcf/classopenage_1_1curve_1_1_unordered_map.xhtml#af1b1051f0bf23fc91b3f153b8a9ba2df" target="_top" xlink:title="openage::curve::Unordered\lMap::insert">
<polygon fill="#ffffff" stroke="#000000" points="1325,-98.5 1325,-128.5 1459,-128.5 1459,-98.5 1325,-98.5"/>
<text text-anchor="start" x="1333" y="-116.5" font-family="Helvetica,sans-Serif" font-size="10.00" fill="#000000">openage::curve::Unordered</text>
<text text-anchor="middle" x="1392" y="-105.5" font-family="Helvetica,sans-Serif" font-size="10.00" fill="#000000">Map::insert</text>
</a>
</g>
</g>
<!-- Node58&#45;&gt;Node64 -->
<g id="edge16" class="edge">
<title>Node58&#45;&gt;Node64</title>
<path fill="none" stroke="#191970" d="M1281.4053,-130.1058C1292.2194,-128.4821 1303.7261,-126.7543 1315.0751,-125.0503"/>
<polygon fill="#191970" stroke="#191970" points="1315.6171,-128.5082 1324.9866,-123.5621 1314.5777,-121.5858 1315.6171,-128.5082"/>
</g>
<!-- Node60 -->
<g id="node11" class="node">
<title>Node60</title>
<g id="a_node11"><a xlink:href="../../de/d06/namespaceopenage_1_1console_1_1tests.xhtml#a46ebd3333dc9196558ac9aced828d117" target="_top" xlink:title="openage::console::tests::max">
<polygon fill="#ffffff" stroke="#000000" points="1498,-153 1498,-172 1644,-172 1644,-153 1498,-153"/>
<text text-anchor="middle" x="1571" y="-160" font-family="Helvetica,sans-Serif" font-size="10.00" fill="#000000">openage::console::tests::max</text>
</a>
</g>
</g>
<!-- Node59&#45;&gt;Node60 -->
<g id="edge10" class="edge">
<title>Node59&#45;&gt;Node60</title>
<path fill="none" stroke="#191970" d="M1441.2593,-79.5271C1448.3453,-82.2216 1455.4492,-85.227 1462,-88.5 1495.2687,-105.1224 1530.2483,-130.482 1551.3444,-146.7742"/>
<polygon fill="#191970" stroke="#191970" points="1549.1999,-149.5404 1559.2327,-152.9454 1553.5132,-144.027 1549.1999,-149.5404"/>
</g>
<!-- Node61&#45;&gt;Node60 -->
<g id="edge12" class="edge">
<title>Node61&#45;&gt;Node60</title>
<path fill="none" stroke="#191970" d="M1445.3782,-30.5109C1451.2011,-33.0978 1456.869,-36.0794 1462,-39.5 1504.9226,-68.1139 1541.5842,-117.6603 1559.4197,-144.3007"/>
<polygon fill="#191970" stroke="#191970" points="1556.7089,-146.55 1565.1157,-152.9981 1562.5649,-142.7149 1556.7089,-146.55"/>
</g>
<!-- Node63&#45;&gt;Node60 -->
<g id="edge15" class="edge">
<title>Node63&#45;&gt;Node60</title>
<path fill="none" stroke="#191970" d="M1459.1623,-162.5C1468.4145,-162.5 1478.007,-162.5 1487.5087,-162.5"/>
<polygon fill="#191970" stroke="#191970" points="1487.7632,-166.0001 1497.7632,-162.5 1487.7631,-159.0001 1487.7632,-166.0001"/>
</g>
<!-- Node64&#45;&gt;Node60 -->
<g id="edge17" class="edge">
<title>Node64&#45;&gt;Node60</title>
<path fill="none" stroke="#191970" d="M1447.1665,-128.6014C1472.6034,-135.5646 1502.4015,-143.7216 1526.3923,-150.2889"/>
<polygon fill="#191970" stroke="#191970" points="1525.7196,-153.7335 1536.2889,-152.9981 1527.5678,-146.9819 1525.7196,-153.7335"/>
</g>
<!-- Node66 -->
<g id="node17" class="node">
<title>Node66</title>
<g id="a_node17"><a xlink:href="../../df/d88/classopenage_1_1curve_1_1_queue.xhtml#acbff846f0aad39b82c1dbffe83f80fba" target="_top" xlink:title="openage::curve::Queue\l::begin">
<polygon fill="#ffffff" stroke="#000000" points="1166.5,-393.5 1166.5,-423.5 1284.5,-423.5 1284.5,-393.5 1166.5,-393.5"/>
<text text-anchor="start" x="1174.5" y="-411.5" font-family="Helvetica,sans-Serif" font-size="10.00" fill="#000000">openage::curve::Queue</text>
<text text-anchor="middle" x="1225.5" y="-400.5" font-family="Helvetica,sans-Serif" font-size="10.00" fill="#000000">::begin</text>
</a>
</g>
</g>
<!-- Node65&#45;&gt;Node66 -->
<g id="edge19" class="edge">
<title>Node65&#45;&gt;Node66</title>
<path fill="none" stroke="#191970" d="M975.2693,-388.0563C1026.2264,-392.2195 1101.7529,-398.3899 1156.4932,-402.8622"/>
<polygon fill="#191970" stroke="#191970" points="1156.2101,-406.3506 1166.4619,-403.6766 1156.7801,-399.3739 1156.2101,-406.3506"/>
</g>
<!-- Node67 -->
<g id="node18" class="node">
<title>Node67</title>
<g id="a_node18"><a xlink:href="../../df/d88/classopenage_1_1curve_1_1_queue.xhtml#a3a60297cec80ae6d759ea3567922db8e" target="_top" xlink:title="openage::curve::Queue::end">
<polygon fill="#ffffff" stroke="#000000" points="1322,-421 1322,-440 1462,-440 1462,-421 1322,-421"/>
<text text-anchor="middle" x="1392" y="-428" font-family="Helvetica,sans-Serif" font-size="10.00" fill="#000000">openage::curve::Queue::end</text>
</a>
</g>
</g>
<!-- Node65&#45;&gt;Node67 -->
<g id="edge26" class="edge">
<title>Node65&#45;&gt;Node67</title>
<path fill="none" stroke="#191970" d="M959.0152,-398.5385C964.6271,-401.4475 970.136,-404.7704 975,-408.5 995.051,-423.8745 988.167,-441.6799 1011,-452.5 1127.4166,-507.6674 1286.78,-466.342 1356.6945,-443.2759"/>
<polygon fill="#191970" stroke="#191970" points="1357.9893,-446.5329 1366.345,-440.0188 1355.7508,-439.9005 1357.9893,-446.5329"/>
</g>
<!-- Node68 -->
<g id="node19" class="node">
<title>Node68</title>
<g id="a_node19"><a xlink:href="../../df/d88/classopenage_1_1curve_1_1_queue.xhtml#a3ba35a56fa550d939d0d16c71c63e56c" target="_top" xlink:title="openage::curve::Queue\l::between">
<polygon fill="#ffffff" stroke="#000000" points="1011,-412.5 1011,-442.5 1129,-442.5 1129,-412.5 1011,-412.5"/>
<text text-anchor="start" x="1019" y="-430.5" font-family="Helvetica,sans-Serif" font-size="10.00" fill="#000000">openage::curve::Queue</text>
<text text-anchor="middle" x="1070" y="-419.5" font-family="Helvetica,sans-Serif" font-size="10.00" fill="#000000">::between</text>
</a>
</g>
</g>
<!-- Node65&#45;&gt;Node68 -->
<g id="edge23" class="edge">
<title>Node65&#45;&gt;Node68</title>
<path fill="none" stroke="#191970" d="M970.8726,-398.5192C983.0343,-402.0748 996.1243,-405.9018 1008.6783,-409.5721"/>
<polygon fill="#191970" stroke="#191970" points="1008.0232,-413.027 1018.6035,-412.4738 1009.9875,-406.3082 1008.0232,-413.027"/>
</g>
<!-- Node69 -->
<g id="node20" class="node">
<title>Node69</title>
<g id="a_node20"><a xlink:href="../../df/d88/classopenage_1_1curve_1_1_queue.xhtml#ae7d94b0875221550e5af663a64ea2aec" target="_top" xlink:title="openage::curve::Queue\l::insert">
<polygon fill="#ffffff" stroke="#000000" points="1011,-316.5 1011,-346.5 1129,-346.5 1129,-316.5 1011,-316.5"/>
<text text-anchor="start" x="1019" y="-334.5" font-family="Helvetica,sans-Serif" font-size="10.00" fill="#000000">openage::curve::Queue</text>
<text text-anchor="middle" x="1070" y="-323.5" font-family="Helvetica,sans-Serif" font-size="10.00" fill="#000000">::insert</text>
</a>
</g>
</g>
<!-- Node65&#45;&gt;Node69 -->
<g id="edge27" class="edge">
<title>Node65&#45;&gt;Node69</title>
<path fill="none" stroke="#191970" d="M963.0308,-368.4594C979.878,-362.6385 999.3215,-355.9205 1016.9729,-349.8216"/>
<polygon fill="#191970" stroke="#191970" points="1018.2583,-353.0806 1026.567,-346.5068 1015.9722,-346.4644 1018.2583,-353.0806"/>
</g>
<!-- Node66&#45;&gt;Node60 -->
<g id="edge22" class="edge">
<title>Node66&#45;&gt;Node60</title>
<path fill="none" stroke="#191970" d="M1266.6798,-393.46C1273.2421,-390.6951 1279.8804,-387.672 1286,-384.5 1368.958,-341.4997 1389.1941,-328.0693 1462,-269.5 1497.9095,-240.6123 1535.2993,-201.632 1555.6089,-179.5769"/>
<polygon fill="#191970" stroke="#191970" points="1558.3603,-181.7543 1562.5177,-172.0092 1553.1906,-177.0347 1558.3603,-181.7543"/>
</g>
<!-- Node66&#45;&gt;Node67 -->
<g id="edge20" class="edge">
<title>Node66&#45;&gt;Node67</title>
<path fill="none" stroke="#191970" d="M1284.6705,-416.3183C1293.5253,-417.4883 1302.7779,-418.7109 1311.9778,-419.9265"/>
<polygon fill="#191970" stroke="#191970" points="1311.5463,-423.3998 1321.9187,-421.24 1312.4634,-416.4601 1311.5463,-423.3998"/>
</g>
<!-- Node67&#45;&gt;Node60 -->
<g id="edge21" class="edge">
<title>Node67&#45;&gt;Node60</title>
<path fill="none" stroke="#191970" d="M1404.5576,-420.9767C1419.5537,-409.1558 1444.768,-387.8139 1462,-365.5 1509.3993,-304.1221 1547.518,-219.29 1563.2299,-181.7248"/>
<polygon fill="#191970" stroke="#191970" points="1566.6426,-182.6295 1567.2152,-172.0501 1560.1702,-179.9633 1566.6426,-182.6295"/>
</g>
<!-- Node68&#45;&gt;Node66 -->
<g id="edge24" class="edge">
<title>Node68&#45;&gt;Node66</title>
<path fill="none" stroke="#191970" d="M1129.2315,-420.2627C1138.0866,-419.1807 1147.2819,-418.0572 1156.3209,-416.9528"/>
<polygon fill="#191970" stroke="#191970" points="1156.9316,-420.4043 1166.4332,-415.7172 1156.0825,-413.4559 1156.9316,-420.4043"/>
</g>
<!-- Node68&#45;&gt;Node67 -->
<g id="edge25" class="edge">
<title>Node68&#45;&gt;Node67</title>
<path fill="none" stroke="#191970" d="M1129.011,-431.8068C1140.9191,-432.5126 1153.355,-433.1326 1165,-433.5 1213.6872,-435.036 1268.2724,-434.3896 1311.7129,-433.3101"/>
<polygon fill="#191970" stroke="#191970" points="1312.0318,-436.8031 1321.9369,-433.0431 1311.8489,-429.8055 1312.0318,-436.8031"/>
</g>
<!-- Node69&#45;&gt;Node60 -->
<g id="edge28" class="edge">
<title>Node69&#45;&gt;Node60</title>
<path fill="none" stroke="#191970" d="M1089.5483,-316.4673C1107.9611,-303.1407 1136.8493,-284.3154 1165,-274.5 1290.7108,-230.668 1337.4171,-282.4419 1462,-235.5 1497.216,-222.2309 1532.3815,-195.6789 1552.8906,-178.5187"/>
<polygon fill="#191970" stroke="#191970" points="1555.1667,-181.1776 1560.4948,-172.02 1550.6189,-175.8561 1555.1667,-181.1776"/>
</g>
<!-- Node70 -->
<g id="node21" class="node">
<title>Node70</title>
<g id="a_node21"><a xlink:href="../../d4/d69/structopenage_1_1curve_1_1_queue_1_1queue__wrapper.xhtml#a9f13d26ca7d8cc64b9b4d003c7d18873" target="_top" xlink:title="openage::curve::Queue\l::queue_wrapper::queue\l_wrapper">
<polygon fill="#ffffff" stroke="#000000" points="1165,-284 1165,-325 1286,-325 1286,-284 1165,-284"/>
<text text-anchor="start" x="1173" y="-313" font-family="Helvetica,sans-Serif" font-size="10.00" fill="#000000">openage::curve::Queue</text>
<text text-anchor="start" x="1173" y="-302" font-family="Helvetica,sans-Serif" font-size="10.00" fill="#000000">::queue_wrapper::queue</text>
<text text-anchor="middle" x="1225.5" y="-291" font-family="Helvetica,sans-Serif" font-size="10.00" fill="#000000">_wrapper</text>
</a>
</g>
</g>
<!-- Node69&#45;&gt;Node70 -->
<g id="edge29" class="edge">
<title>Node69&#45;&gt;Node70</title>
<path fill="none" stroke="#191970" d="M1129.2315,-321.2154C1137.6212,-319.7587 1146.3164,-318.2489 1154.8946,-316.7595"/>
<polygon fill="#191970" stroke="#191970" points="1155.6318,-320.1839 1164.8856,-315.0247 1154.4343,-313.2871 1155.6318,-320.1839"/>
</g>
<!-- Node71 -->
<g id="node22" class="node">
<title>Node71</title>
<g id="a_node22"><a xlink:href="../../d4/d69/structopenage_1_1curve_1_1_queue_1_1queue__wrapper.xhtml#ac9a915e29db89fbd0731899d845db899" target="_top" xlink:title="openage::curve::Queue\l::queue_wrapper::time">
<polygon fill="#ffffff" stroke="#000000" points="1166.5,-344.5 1166.5,-374.5 1284.5,-374.5 1284.5,-344.5 1166.5,-344.5"/>
<text text-anchor="start" x="1174.5" y="-362.5" font-family="Helvetica,sans-Serif" font-size="10.00" fill="#000000">openage::curve::Queue</text>
<text text-anchor="middle" x="1225.5" y="-351.5" font-family="Helvetica,sans-Serif" font-size="10.00" fill="#000000">::queue_wrapper::time</text>
</a>
</g>
</g>
<!-- Node69&#45;&gt;Node71 -->
<g id="edge30" class="edge">
<title>Node69&#45;&gt;Node71</title>
<path fill="none" stroke="#191970" d="M1129.2315,-342.1655C1138.0866,-343.76 1147.2819,-345.4157 1156.3209,-347.0433"/>
<polygon fill="#191970" stroke="#191970" points="1155.9712,-350.5366 1166.4332,-348.8642 1157.2118,-343.6474 1155.9712,-350.5366"/>
</g>
<!-- Node73 -->
<g id="node24" class="node">
<title>Node73</title>
<g id="a_node24"><a xlink:href="../../dd/db2/classqtsdl_1_1_gui_renderer_impl.xhtml#a6c76b7a4a79a481cf8962e268ae56bb4" target="_top" xlink:title="qtsdl::GuiRendererImpl\l::get_window">
<polygon fill="#ffffff" stroke="#000000" points="393,-270.5 393,-300.5 510,-300.5 510,-270.5 393,-270.5"/>
<text text-anchor="start" x="401" y="-288.5" font-family="Helvetica,sans-Serif" font-size="10.00" fill="#000000">qtsdl::GuiRendererImpl</text>
<text text-anchor="middle" x="451.5" y="-277.5" font-family="Helvetica,sans-Serif" font-size="10.00" fill="#000000">::get_window</text>
</a>
</g>
</g>
<!-- Node72&#45;&gt;Node73 -->
<g id="edge32" class="edge">
<title>Node72&#45;&gt;Node73</title>
<path fill="none" stroke="#191970" d="M315.0344,-285.5C336.1637,-285.5 360.4943,-285.5 382.7067,-285.5"/>
<polygon fill="#191970" stroke="#191970" points="382.7442,-289.0001 392.7442,-285.5 382.7441,-282.0001 382.7442,-289.0001"/>
</g>
<!-- Node75 -->
<g id="node26" class="node">
<title>Node75</title>
<g id="a_node26"><a xlink:href="../../de/d58/classqtsdl_1_1_gui_engine_impl.xhtml#af1dc911943688d3c296909af70dfc62e" target="_top" xlink:title="qtsdl::GuiEngineImpl\l::get_qml_engine">
<polygon fill="#ffffff" stroke="#000000" points="398,-221.5 398,-251.5 505,-251.5 505,-221.5 398,-221.5"/>
<text text-anchor="start" x="406" y="-239.5" font-family="Helvetica,sans-Serif" font-size="10.00" fill="#000000">qtsdl::GuiEngineImpl</text>
<text text-anchor="middle" x="451.5" y="-228.5" font-family="Helvetica,sans-Serif" font-size="10.00" fill="#000000">::get_qml_engine</text>
</a>
</g>
</g>
<!-- Node74&#45;&gt;Node75 -->
<g id="edge34" class="edge">
<title>Node74&#45;&gt;Node75</title>
<path fill="none" stroke="#191970" d="M338.1477,-236.5C354.6286,-236.5 371.8151,-236.5 387.6766,-236.5"/>
<polygon fill="#191970" stroke="#191970" points="387.8877,-240.0001 397.8877,-236.5 387.8877,-233.0001 387.8877,-240.0001"/>
</g>
</g>
</svg>
