<?xml version="1.0" encoding="UTF-8" standalone="no"?>
<!DOCTYPE svg PUBLIC "-//W3C//DTD SVG 1.1//EN"
 "http://www.w3.org/Graphics/SVG/1.1/DTD/svg11.dtd">
<!-- Generated by graphviz version 2.40.1 (20161225.0304)
 -->
<!-- Title: qtsdl::GuiSubtreeImpl::destroy_root Pages: 1 -->
<svg width="652pt" height="136pt"
 viewBox="0.00 0.00 652.00 136.00" xmlns="http://www.w3.org/2000/svg" xmlns:xlink="http://www.w3.org/1999/xlink">
<g id="graph0" class="graph" transform="scale(1 1) rotate(0) translate(4 132)">
<title>qtsdl::GuiSubtreeImpl::destroy_root</title>
<polygon fill="#ffffff" stroke="transparent" points="-4,4 -4,-132 648,-132 648,4 -4,4"/>
<!-- Node84 -->
<g id="node1" class="node">
<title>Node84</title>
<polygon fill="#bfbfbf" stroke="#000000" points="0,-72.5 0,-102.5 111,-102.5 111,-72.5 0,-72.5"/>
<text text-anchor="start" x="8" y="-90.5" font-family="Helvetica,sans-Serif" font-size="10.00" fill="#000000">qtsdl::GuiSubtreeImpl</text>
<text text-anchor="middle" x="55.5" y="-79.5" font-family="Helvetica,sans-Serif" font-size="10.00" fill="#000000">::destroy_root</text>
</g>
<!-- Node85 -->
<g id="node2" class="node">
<title>Node85</title>
<g id="a_node2"><a xlink:href="../../d4/d96/classqtsdl_1_1_gui_subtree_impl.xhtml#a903d02ad6f5349af96add80f99ddf345" target="_top" xlink:title="qtsdl::GuiSubtreeImpl\l::attach_to">
<polygon fill="#ffffff" stroke="#000000" points="147,-97.5 147,-127.5 258,-127.5 258,-97.5 147,-97.5"/>
<text text-anchor="start" x="155" y="-115.5" font-family="Helvetica,sans-Serif" font-size="10.00" fill="#000000">qtsdl::GuiSubtreeImpl</text>
<text text-anchor="middle" x="202.5" y="-104.5" font-family="Helvetica,sans-Serif" font-size="10.00" fill="#000000">::attach_to</text>
</a>
</g>
</g>
<!-- Node84&#45;&gt;Node85 -->
<g id="edge1" class="edge">
<title>Node84&#45;&gt;Node85</title>
<path fill="none" stroke="#191970" d="M121.0775,-98.6526C129.6805,-100.1157 138.4299,-101.6037 146.847,-103.0352"/>
<polygon fill="#191970" stroke="#191970" points="121.5197,-95.1777 111.0744,-96.9514 120.346,-102.0786 121.5197,-95.1777"/>
</g>
<!-- Node86 -->
<g id="node3" class="node">
<title>Node86</title>
<g id="a_node3"><a xlink:href="../../d4/d96/classqtsdl_1_1_gui_subtree_impl.xhtml#aea9b559c07846786ebcf6c41ef58ff78" target="_top" xlink:title="qtsdl::GuiSubtreeImpl\l::onEngineReloaded">
<polygon fill="#ffffff" stroke="#000000" points="147,-48.5 147,-78.5 258,-78.5 258,-48.5 147,-48.5"/>
<text text-anchor="start" x="155" y="-66.5" font-family="Helvetica,sans-Serif" font-size="10.00" fill="#000000">qtsdl::GuiSubtreeImpl</text>
<text text-anchor="middle" x="202.5" y="-55.5" font-family="Helvetica,sans-Serif" font-size="10.00" fill="#000000">::onEngineReloaded</text>
</a>
</g>
</g>
<!-- Node84&#45;&gt;Node86 -->
<g id="edge2" class="edge">
<title>Node84&#45;&gt;Node86</title>
<path fill="none" stroke="#191970" d="M121.0775,-76.7935C129.6805,-75.3889 138.4299,-73.9604 146.847,-72.5862"/>
<polygon fill="#191970" stroke="#191970" points="120.3797,-73.361 111.0744,-78.4266 121.5077,-80.2695 120.3797,-73.361"/>
</g>
<!-- Node87 -->
<g id="node4" class="node">
<title>Node87</title>
<g id="a_node4"><a xlink:href="../../dd/d89/classqtsdl_1_1_gui_engine_impl_connection.xhtml#af9d75573df9d5f7b433c54eb6f2690fa" target="_top" xlink:title="qtsdl::GuiEngineImplConnection\l::GuiEngineImplConnection">
<polygon fill="#ffffff" stroke="#000000" points="294,-73.5 294,-103.5 451,-103.5 451,-73.5 294,-73.5"/>
<text text-anchor="start" x="302" y="-91.5" font-family="Helvetica,sans-Serif" font-size="10.00" fill="#000000">qtsdl::GuiEngineImplConnection</text>
<text text-anchor="middle" x="372.5" y="-80.5" font-family="Helvetica,sans-Serif" font-size="10.00" fill="#000000">::GuiEngineImplConnection</text>
</a>
</g>
</g>
<!-- Node86&#45;&gt;Node87 -->
<g id="edge3" class="edge">
<title>Node86&#45;&gt;Node87</title>
<path fill="none" stroke="#191970" d="M268.2517,-73.1694C276.6484,-74.4042 285.3096,-75.6779 293.8837,-76.9388"/>
<polygon fill="#191970" stroke="#191970" points="268.5672,-69.6782 258.1644,-71.6859 267.5487,-76.6037 268.5672,-69.6782"/>
</g>
<!-- Node88 -->
<g id="node5" class="node">
<title>Node88</title>
<g id="a_node5"><a xlink:href="../../dd/d89/classqtsdl_1_1_gui_engine_impl_connection.xhtml#ac2ef61bcd0cdb991b399a29eeb5ec74c" target="_top" xlink:title="qtsdl::GuiEngineImplConnection\l::disconnect">
<polygon fill="#ffffff" stroke="#000000" points="294,-24.5 294,-54.5 451,-54.5 451,-24.5 294,-24.5"/>
<text text-anchor="start" x="302" y="-42.5" font-family="Helvetica,sans-Serif" font-size="10.00" fill="#000000">qtsdl::GuiEngineImplConnection</text>
<text text-anchor="middle" x="372.5" y="-31.5" font-family="Helvetica,sans-Serif" font-size="10.00" fill="#000000">::disconnect</text>
</a>
</g>
</g>
<!-- Node86&#45;&gt;Node88 -->
<g id="edge4" class="edge">
<title>Node86&#45;&gt;Node88</title>
<path fill="none" stroke="#191970" d="M268.2517,-54.2174C276.6484,-53.032 285.3096,-51.8092 293.8837,-50.5988"/>
<polygon fill="#191970" stroke="#191970" points="267.5769,-50.7779 258.1644,-55.6415 268.5555,-57.7091 267.5769,-50.7779"/>
</g>
<!-- Node89 -->
<g id="node6" class="node">
<title>Node89</title>
<g id="a_node6"><a xlink:href="../../dd/d89/classqtsdl_1_1_gui_engine_impl_connection.xhtml#a3de39e1c4b2cc6b97f38d9c1217d5de5" target="_top" xlink:title="qtsdl::GuiEngineImplConnection\l::operator=">
<polygon fill="#ffffff" stroke="#000000" points="487,-49.5 487,-79.5 644,-79.5 644,-49.5 487,-49.5"/>
<text text-anchor="start" x="495" y="-67.5" font-family="Helvetica,sans-Serif" font-size="10.00" fill="#000000">qtsdl::GuiEngineImplConnection</text>
<text text-anchor="middle" x="565.5" y="-56.5" font-family="Helvetica,sans-Serif" font-size="10.00" fill="#000000">::operator=</text>
</a>
</g>
</g>
<!-- Node88&#45;&gt;Node89 -->
<g id="edge5" class="edge">
<title>Node88&#45;&gt;Node89</title>
<path fill="none" stroke="#191970" d="M461.0225,-50.9666C469.607,-52.0786 478.2762,-53.2016 486.7559,-54.3"/>
<polygon fill="#191970" stroke="#191970" points="461.3673,-47.4821 451.0005,-49.6685 460.468,-54.4241 461.3673,-47.4821"/>
</g>
<!-- Node90 -->
<g id="node7" class="node">
<title>Node90</title>
<g id="a_node7"><a xlink:href="../../dd/d89/classqtsdl_1_1_gui_engine_impl_connection.xhtml#a838d04049e7a234096ddc630de0fee59" target="_top" xlink:title="qtsdl::GuiEngineImplConnection\l::~GuiEngineImplConnection">
<polygon fill="#ffffff" stroke="#000000" points="487,-.5 487,-30.5 644,-30.5 644,-.5 487,-.5"/>
<text text-anchor="start" x="495" y="-18.5" font-family="Helvetica,sans-Serif" font-size="10.00" fill="#000000">qtsdl::GuiEngineImplConnection</text>
<text text-anchor="middle" x="565.5" y="-7.5" font-family="Helvetica,sans-Serif" font-size="10.00" fill="#000000">::~GuiEngineImplConnection</text>
</a>
</g>
</g>
<!-- Node88&#45;&gt;Node90 -->
<g id="edge6" class="edge">
<title>Node88&#45;&gt;Node90</title>
<path fill="none" stroke="#191970" d="M461.0225,-28.492C469.607,-27.4245 478.2762,-26.3465 486.7559,-25.292"/>
<polygon fill="#191970" stroke="#191970" points="460.4921,-25.0309 451.0005,-29.7383 461.356,-31.9774 460.4921,-25.0309"/>
</g>
</g>
</svg>
