<?xml version="1.0" encoding="UTF-8" standalone="no"?>
<!DOCTYPE svg PUBLIC "-//W3C//DTD SVG 1.1//EN"
 "http://www.w3.org/Graphics/SVG/1.1/DTD/svg11.dtd">
<!-- Generated by graphviz version 2.40.1 (20161225.0304)
 -->
<!-- Title: openage::util::CSVCollection::CSVCollection Pages: 1 -->
<svg width="648pt" height="279pt"
 viewBox="0.00 0.00 648.00 279.00" xmlns="http://www.w3.org/2000/svg" xmlns:xlink="http://www.w3.org/1999/xlink">
<g id="graph0" class="graph" transform="scale(1 1) rotate(0) translate(4 275)">
<title>openage::util::CSVCollection::CSVCollection</title>
<polygon fill="#ffffff" stroke="transparent" points="-4,4 -4,-275 644,-275 644,4 -4,4"/>
<!-- Node0 -->
<g id="node1" class="node">
<title>Node0</title>
<polygon fill="#bfbfbf" stroke="#000000" points="0,-144.5 0,-174.5 143,-174.5 143,-144.5 0,-144.5"/>
<text text-anchor="start" x="8" y="-162.5" font-family="Helvetica,sans-Serif" font-size="10.00" fill="#000000">openage::util::CSVCollection</text>
<text text-anchor="middle" x="71.5" y="-151.5" font-family="Helvetica,sans-Serif" font-size="10.00" fill="#000000">::CSVCollection</text>
</g>
<!-- Node1 -->
<g id="node2" class="node">
<title>Node1</title>
<g id="a_node2"><a xlink:href="../../dd/d1a/namespaceopenage_1_1log.xhtml#a0eff614e7d6e818746700ed9d29e583f" target="_top" xlink:title="Convenience method that makes use of the &#39;general&#39; LogSource. ">
<polygon fill="#ffffff" stroke="#000000" points="182.5,-197 182.5,-216 273.5,-216 273.5,-197 182.5,-197"/>
<text text-anchor="middle" x="228" y="-204" font-family="Helvetica,sans-Serif" font-size="10.00" fill="#000000">openage::log::log</text>
</a>
</g>
</g>
<!-- Node0&#45;&gt;Node1 -->
<g id="edge1" class="edge">
<title>Node0&#45;&gt;Node1</title>
<path fill="none" stroke="#191970" d="M121.4479,-174.5003C142.4159,-180.7974 166.5174,-188.0356 186.4887,-194.0333"/>
<polygon fill="#191970" stroke="#191970" points="185.6382,-197.4323 196.2224,-196.9566 187.6517,-190.7281 185.6382,-197.4323"/>
</g>
<!-- Node7 -->
<g id="node8" class="node">
<title>Node7</title>
<g id="a_node8"><a xlink:href="../../dd/dc1/classopenage_1_1util_1_1_path.xhtml#a5b429e300ae4a048dbbd1a733bc1452a" target="_top" xlink:title="openage::util::Path\l::open">
<polygon fill="#ffffff" stroke="#000000" points="179,-98.5 179,-128.5 277,-128.5 277,-98.5 179,-98.5"/>
<text text-anchor="start" x="187" y="-116.5" font-family="Helvetica,sans-Serif" font-size="10.00" fill="#000000">openage::util::Path</text>
<text text-anchor="middle" x="228" y="-105.5" font-family="Helvetica,sans-Serif" font-size="10.00" fill="#000000">::open</text>
</a>
</g>
</g>
<!-- Node0&#45;&gt;Node7 -->
<g id="edge7" class="edge">
<title>Node0&#45;&gt;Node7</title>
<path fill="none" stroke="#191970" d="M122.744,-144.4379C137.5155,-140.0961 153.7505,-135.3241 168.9545,-130.8552"/>
<polygon fill="#191970" stroke="#191970" points="170.1639,-134.1479 178.771,-127.9699 168.1898,-127.432 170.1639,-134.1479"/>
</g>
<!-- Node2 -->
<g id="node3" class="node">
<title>Node2</title>
<g id="a_node3"><a xlink:href="../../dd/d1a/namespaceopenage_1_1log.xhtml#a3fbb0c225d01e222648ec28a43507188" target="_top" xlink:title="Returns a reference to a general named log source, for use by log::log(). ">
<polygon fill="#ffffff" stroke="#000000" points="329.5,-235.5 329.5,-265.5 439.5,-265.5 439.5,-235.5 329.5,-235.5"/>
<text text-anchor="start" x="337.5" y="-253.5" font-family="Helvetica,sans-Serif" font-size="10.00" fill="#000000">openage::log::general</text>
<text text-anchor="middle" x="384.5" y="-242.5" font-family="Helvetica,sans-Serif" font-size="10.00" fill="#000000">_source</text>
</a>
</g>
</g>
<!-- Node1&#45;&gt;Node2 -->
<g id="edge2" class="edge">
<title>Node1&#45;&gt;Node2</title>
<path fill="none" stroke="#191970" d="M261.9582,-216.0473C279.2636,-220.9128 300.8785,-226.9898 321.116,-232.6796"/>
<polygon fill="#191970" stroke="#191970" points="320.3412,-236.0974 330.9152,-235.4346 322.2358,-229.3586 320.3412,-236.0974"/>
</g>
<!-- Node3 -->
<g id="node4" class="node">
<title>Node3</title>
<g id="a_node4"><a xlink:href="../../de/de3/classopenage_1_1log_1_1_log_source.xhtml#a5640099e20af4cd368c767dbcef3a1df" target="_top" xlink:title="Logs a message (get one via MSG(level)). ">
<polygon fill="#ffffff" stroke="#000000" points="313,-197 313,-216 456,-216 456,-197 313,-197"/>
<text text-anchor="middle" x="384.5" y="-204" font-family="Helvetica,sans-Serif" font-size="10.00" fill="#000000">openage::log::LogSource::log</text>
</a>
</g>
</g>
<!-- Node1&#45;&gt;Node3 -->
<g id="edge3" class="edge">
<title>Node1&#45;&gt;Node3</title>
<path fill="none" stroke="#191970" d="M273.687,-206.5C282.8895,-206.5 292.8234,-206.5 302.8319,-206.5"/>
<polygon fill="#191970" stroke="#191970" points="302.8411,-210.0001 312.8411,-206.5 302.8411,-203.0001 302.8411,-210.0001"/>
</g>
<!-- Node4 -->
<g id="node5" class="node">
<title>Node4</title>
<g id="a_node5"><a xlink:href="../../dd/d1a/namespaceopenage_1_1log.xhtml#a3d2885be9c3a09b9ff7ee8764b2e5f39" target="_top" xlink:title="Returns a reference to the global stdout logsink object; Initializes the object if needed...">
<polygon fill="#ffffff" stroke="#000000" points="514,-240.5 514,-270.5 618,-270.5 618,-240.5 514,-240.5"/>
<text text-anchor="start" x="522" y="-258.5" font-family="Helvetica,sans-Serif" font-size="10.00" fill="#000000">openage::log::global</text>
<text text-anchor="middle" x="566" y="-247.5" font-family="Helvetica,sans-Serif" font-size="10.00" fill="#000000">_stdoutsink</text>
</a>
</g>
</g>
<!-- Node3&#45;&gt;Node4 -->
<g id="edge4" class="edge">
<title>Node3&#45;&gt;Node4</title>
<path fill="none" stroke="#191970" d="M419.9259,-216.064C443.8272,-222.5167 476.008,-231.2046 504.0812,-238.7836"/>
<polygon fill="#191970" stroke="#191970" points="503.2527,-242.1852 513.8194,-241.4127 505.0773,-235.4272 503.2527,-242.1852"/>
</g>
<!-- Node5 -->
<g id="node6" class="node">
<title>Node5</title>
<g id="a_node6"><a xlink:href="../../d0/d58/classopenage_1_1log_1_1_log_sink_list.xhtml#a2d47416fab12651553b4b58c86fd6f84" target="_top" xlink:title="openage::log::LogSinkList\l::instance">
<polygon fill="#ffffff" stroke="#000000" points="501.5,-191.5 501.5,-221.5 630.5,-221.5 630.5,-191.5 501.5,-191.5"/>
<text text-anchor="start" x="509.5" y="-209.5" font-family="Helvetica,sans-Serif" font-size="10.00" fill="#000000">openage::log::LogSinkList</text>
<text text-anchor="middle" x="566" y="-198.5" font-family="Helvetica,sans-Serif" font-size="10.00" fill="#000000">::instance</text>
</a>
</g>
</g>
<!-- Node3&#45;&gt;Node5 -->
<g id="edge5" class="edge">
<title>Node3&#45;&gt;Node5</title>
<path fill="none" stroke="#191970" d="M456.2336,-206.5C467.7292,-206.5 479.651,-206.5 491.2157,-206.5"/>
<polygon fill="#191970" stroke="#191970" points="491.267,-210.0001 501.267,-206.5 491.267,-203.0001 491.267,-210.0001"/>
</g>
<!-- Node6 -->
<g id="node7" class="node">
<title>Node6</title>
<g id="a_node7"><a xlink:href="../../d0/d58/classopenage_1_1log_1_1_log_sink_list.xhtml#a8456b84ab55e1fe151c51438c5bfebdd" target="_top" xlink:title="openage::log::LogSinkList::log">
<polygon fill="#ffffff" stroke="#000000" points="492,-153 492,-172 640,-172 640,-153 492,-153"/>
<text text-anchor="middle" x="566" y="-160" font-family="Helvetica,sans-Serif" font-size="10.00" fill="#000000">openage::log::LogSinkList::log</text>
</a>
</g>
</g>
<!-- Node3&#45;&gt;Node6 -->
<g id="edge6" class="edge">
<title>Node3&#45;&gt;Node6</title>
<path fill="none" stroke="#191970" d="M423.8828,-196.9527C451.1156,-190.3508 487.5503,-181.5181 516.7102,-174.449"/>
<polygon fill="#191970" stroke="#191970" points="517.8002,-177.7863 526.6941,-172.0287 516.1509,-170.9833 517.8002,-177.7863"/>
</g>
<!-- Node8 -->
<g id="node9" class="node">
<title>Node8</title>
<g id="a_node9"><a xlink:href="../../dd/dc1/classopenage_1_1util_1_1_path.xhtml#a5a01e1d52b588996b036fb52b81f3d8a" target="_top" xlink:title="openage::util::Path\l::open_r">
<polygon fill="#ffffff" stroke="#000000" points="335.5,-147.5 335.5,-177.5 433.5,-177.5 433.5,-147.5 335.5,-147.5"/>
<text text-anchor="start" x="343.5" y="-165.5" font-family="Helvetica,sans-Serif" font-size="10.00" fill="#000000">openage::util::Path</text>
<text text-anchor="middle" x="384.5" y="-154.5" font-family="Helvetica,sans-Serif" font-size="10.00" fill="#000000">::open_r</text>
</a>
</g>
</g>
<!-- Node7&#45;&gt;Node8 -->
<g id="edge8" class="edge">
<title>Node7&#45;&gt;Node8</title>
<path fill="none" stroke="#191970" d="M276.2322,-128.6014C292.2235,-133.6083 310.1863,-139.2324 326.8153,-144.439"/>
<polygon fill="#191970" stroke="#191970" points="325.8381,-147.8005 336.4271,-147.4484 327.9297,-141.1203 325.8381,-147.8005"/>
</g>
<!-- Node9 -->
<g id="node10" class="node">
<title>Node9</title>
<g id="a_node10"><a xlink:href="../../dd/dc1/classopenage_1_1util_1_1_path.xhtml#aa490b4ca4f053611b439d4b3956b2451" target="_top" xlink:title="openage::util::Path\l::open_w">
<polygon fill="#ffffff" stroke="#000000" points="335.5,-98.5 335.5,-128.5 433.5,-128.5 433.5,-98.5 335.5,-98.5"/>
<text text-anchor="start" x="343.5" y="-116.5" font-family="Helvetica,sans-Serif" font-size="10.00" fill="#000000">openage::util::Path</text>
<text text-anchor="middle" x="384.5" y="-105.5" font-family="Helvetica,sans-Serif" font-size="10.00" fill="#000000">::open_w</text>
</a>
</g>
</g>
<!-- Node7&#45;&gt;Node9 -->
<g id="edge9" class="edge">
<title>Node7&#45;&gt;Node9</title>
<path fill="none" stroke="#191970" d="M277.0882,-113.5C292.3097,-113.5 309.2492,-113.5 325.0929,-113.5"/>
<polygon fill="#191970" stroke="#191970" points="325.3172,-117.0001 335.3171,-113.5 325.3171,-110.0001 325.3172,-117.0001"/>
</g>
<!-- Node10 -->
<g id="node11" class="node">
<title>Node10</title>
<g id="a_node11"><a xlink:href="../../dd/dc1/classopenage_1_1util_1_1_path.xhtml#ab7d7932d536db76983f9770016f724f2" target="_top" xlink:title="openage::util::Path\l::open_a">
<polygon fill="#ffffff" stroke="#000000" points="335.5,-49.5 335.5,-79.5 433.5,-79.5 433.5,-49.5 335.5,-49.5"/>
<text text-anchor="start" x="343.5" y="-67.5" font-family="Helvetica,sans-Serif" font-size="10.00" fill="#000000">openage::util::Path</text>
<text text-anchor="middle" x="384.5" y="-56.5" font-family="Helvetica,sans-Serif" font-size="10.00" fill="#000000">::open_a</text>
</a>
</g>
</g>
<!-- Node7&#45;&gt;Node10 -->
<g id="edge10" class="edge">
<title>Node7&#45;&gt;Node10</title>
<path fill="none" stroke="#191970" d="M276.2322,-98.3986C292.2235,-93.3917 310.1863,-87.7676 326.8153,-82.561"/>
<polygon fill="#191970" stroke="#191970" points="327.9297,-85.8797 336.4271,-79.5516 325.8381,-79.1995 327.9297,-85.8797"/>
</g>
<!-- Node11 -->
<g id="node12" class="node">
<title>Node11</title>
<g id="a_node12"><a xlink:href="../../dd/dc1/classopenage_1_1util_1_1_path.xhtml#a483f9f4a7f9758fb98d8d457d53e1616" target="_top" xlink:title="openage::util::Path\l::open_ar">
<polygon fill="#ffffff" stroke="#000000" points="335.5,-.5 335.5,-30.5 433.5,-30.5 433.5,-.5 335.5,-.5"/>
<text text-anchor="start" x="343.5" y="-18.5" font-family="Helvetica,sans-Serif" font-size="10.00" fill="#000000">openage::util::Path</text>
<text text-anchor="middle" x="384.5" y="-7.5" font-family="Helvetica,sans-Serif" font-size="10.00" fill="#000000">::open_ar</text>
</a>
</g>
</g>
<!-- Node7&#45;&gt;Node11 -->
<g id="edge11" class="edge">
<title>Node7&#45;&gt;Node11</title>
<path fill="none" stroke="#191970" d="M241.6797,-98.4773C257.4426,-81.9638 284.8154,-55.6407 313,-39.5 317.1154,-37.1432 321.4974,-34.9729 325.9883,-32.9835"/>
<polygon fill="#191970" stroke="#191970" points="327.3905,-36.1914 335.3089,-29.1522 324.7291,-29.717 327.3905,-36.1914"/>
</g>
</g>
</svg>
