<?xml version="1.0" encoding="UTF-8" standalone="no"?>
<!DOCTYPE svg PUBLIC "-//W3C//DTD SVG 1.1//EN"
 "http://www.w3.org/Graphics/SVG/1.1/DTD/svg11.dtd">
<!-- Generated by graphviz version 2.40.1 (20161225.0304)
 -->
<!-- Title: qtsdl::GuiItemListModel::do_initial_to_gui_propagation Pages: 1 -->
<svg width="312pt" height="50pt"
 viewBox="0.00 0.00 312.00 50.00" xmlns="http://www.w3.org/2000/svg" xmlns:xlink="http://www.w3.org/1999/xlink">
<g id="graph0" class="graph" transform="scale(1 1) rotate(0) translate(4 46)">
<title>qtsdl::GuiItemListModel::do_initial_to_gui_propagation</title>
<polygon fill="#ffffff" stroke="transparent" points="-4,4 -4,-46 308,-46 308,4 -4,4"/>
<!-- Node3 -->
<g id="node1" class="node">
<title>Node3</title>
<polygon fill="#bfbfbf" stroke="#000000" points="0,-6 0,-36 148,-36 148,-6 0,-6"/>
<text text-anchor="start" x="8" y="-24" font-family="Helvetica,sans-Serif" font-size="10.00" fill="#000000">qtsdl::GuiItemListModel</text>
<text text-anchor="middle" x="74" y="-13" font-family="Helvetica,sans-Serif" font-size="10.00" fill="#000000">::do_initial_to_gui_propagation</text>
</g>
<!-- Node4 -->
<g id="node2" class="node">
<title>Node4</title>
<g id="a_node2"><a xlink:href="../../d6/d56/classqtsdl_1_1_gui_item_list_model.xhtml#a2bb2830338cd9848f3ba28659a68e2d1" target="_top" xlink:title="qtsdl::GuiItemListModel\l\&lt; GeneratorLink \&gt;::on\l_core_adopted">
<polygon fill="#ffffff" stroke="#000000" points="184,-.5 184,-41.5 304,-41.5 304,-.5 184,-.5"/>
<text text-anchor="start" x="192" y="-29.5" font-family="Helvetica,sans-Serif" font-size="10.00" fill="#000000">qtsdl::GuiItemListModel</text>
<text text-anchor="start" x="192" y="-18.5" font-family="Helvetica,sans-Serif" font-size="10.00" fill="#000000">&lt; GeneratorLink &gt;::on</text>
<text text-anchor="middle" x="244" y="-7.5" font-family="Helvetica,sans-Serif" font-size="10.00" fill="#000000">_core_adopted</text>
</a>
</g>
</g>
<!-- Node3&#45;&gt;Node4 -->
<g id="edge1" class="edge">
<title>Node3&#45;&gt;Node4</title>
<path fill="none" stroke="#191970" d="M158.2346,-21C166.916,-21 175.6081,-21 183.9485,-21"/>
<polygon fill="#191970" stroke="#191970" points="158.07,-17.5001 148.0699,-21 158.0699,-24.5001 158.07,-17.5001"/>
</g>
</g>
</svg>
