<?xml version="1.0" encoding="UTF-8" standalone="no"?>
<!DOCTYPE svg PUBLIC "-//W3C//DTD SVG 1.1//EN"
 "http://www.w3.org/Graphics/SVG/1.1/DTD/svg11.dtd">
<!-- Generated by graphviz version 2.40.1 (20161225.0304)
 -->
<!-- Title: qtsdl::GuiItemListModel::on_core_adopted Pages: 1 -->
<svg width="517pt" height="39pt"
 viewBox="0.00 0.00 517.00 39.00" xmlns="http://www.w3.org/2000/svg" xmlns:xlink="http://www.w3.org/1999/xlink">
<g id="graph0" class="graph" transform="scale(1 1) rotate(0) translate(4 35)">
<title>qtsdl::GuiItemListModel::on_core_adopted</title>
<polygon fill="#ffffff" stroke="transparent" points="-4,4 -4,-35 513,-35 513,4 -4,4"/>
<!-- Node12 -->
<g id="node1" class="node">
<title>Node12</title>
<polygon fill="#bfbfbf" stroke="#000000" points="0,-.5 0,-30.5 120,-30.5 120,-.5 0,-.5"/>
<text text-anchor="start" x="8" y="-18.5" font-family="Helvetica,sans-Serif" font-size="10.00" fill="#000000">qtsdl::GuiItemListModel</text>
<text text-anchor="middle" x="60" y="-7.5" font-family="Helvetica,sans-Serif" font-size="10.00" fill="#000000">::on_core_adopted</text>
</g>
<!-- Node13 -->
<g id="node2" class="node">
<title>Node13</title>
<g id="a_node2"><a xlink:href="../../d6/d56/classqtsdl_1_1_gui_item_list_model.xhtml#aca239fddd00b3178a7984f4523bfc09a" target="_top" xlink:title="qtsdl::GuiItemListModel\l\&lt; GeneratorLink \&gt;::GuiItemListModel">
<polygon fill="#ffffff" stroke="#000000" points="156,-.5 156,-30.5 334,-30.5 334,-.5 156,-.5"/>
<text text-anchor="start" x="164" y="-18.5" font-family="Helvetica,sans-Serif" font-size="10.00" fill="#000000">qtsdl::GuiItemListModel</text>
<text text-anchor="middle" x="245" y="-7.5" font-family="Helvetica,sans-Serif" font-size="10.00" fill="#000000">&lt; GeneratorLink &gt;::GuiItemListModel</text>
</a>
</g>
</g>
<!-- Node12&#45;&gt;Node13 -->
<g id="edge1" class="edge">
<title>Node12&#45;&gt;Node13</title>
<path fill="none" stroke="#191970" d="M130.114,-15.5C138.4749,-15.5 147.0954,-15.5 155.6794,-15.5"/>
<polygon fill="#191970" stroke="#191970" points="130.0642,-12.0001 120.0642,-15.5 130.0642,-19.0001 130.0642,-12.0001"/>
</g>
<!-- Node14 -->
<g id="node3" class="node">
<title>Node14</title>
<g id="a_node3"><a xlink:href="../../df/d75/classopenage_1_1gui_1_1_generator_link.xhtml#af6c3069ee8314d5b4ac0df5954e36d63" target="_top" xlink:title="openage::gui::GeneratorLink\l::GeneratorLink">
<polygon fill="#ffffff" stroke="#000000" points="370,-.5 370,-30.5 509,-30.5 509,-.5 370,-.5"/>
<text text-anchor="start" x="378" y="-18.5" font-family="Helvetica,sans-Serif" font-size="10.00" fill="#000000">openage::gui::GeneratorLink</text>
<text text-anchor="middle" x="439.5" y="-7.5" font-family="Helvetica,sans-Serif" font-size="10.00" fill="#000000">::GeneratorLink</text>
</a>
</g>
</g>
<!-- Node13&#45;&gt;Node14 -->
<g id="edge2" class="edge">
<title>Node13&#45;&gt;Node14</title>
<path fill="none" stroke="#191970" d="M344.4139,-15.5C353.0512,-15.5 361.6657,-15.5 369.9848,-15.5"/>
<polygon fill="#191970" stroke="#191970" points="344.2804,-12.0001 334.2804,-15.5 344.2804,-19.0001 344.2804,-12.0001"/>
</g>
</g>
</svg>
