<?xml version="1.0" encoding="UTF-8" standalone="no"?>
<!DOCTYPE svg PUBLIC "-//W3C//DTD SVG 1.1//EN"
 "http://www.w3.org/Graphics/SVG/1.1/DTD/svg11.dtd">
<!-- Generated by graphviz version 2.40.1 (20161225.0304)
 -->
<!-- Title: openage::renderer::vulkan::VlkRenderer::do_the_thing Pages: 1 -->
<svg width="401pt" height="322pt"
 viewBox="0.00 0.00 401.00 322.00" xmlns="http://www.w3.org/2000/svg" xmlns:xlink="http://www.w3.org/1999/xlink">
<g id="graph0" class="graph" transform="scale(1 1) rotate(0) translate(4 318)">
<title>openage::renderer::vulkan::VlkRenderer::do_the_thing</title>
<polygon fill="#ffffff" stroke="transparent" points="-4,4 -4,-318 397,-318 397,4 -4,4"/>
<!-- Node10 -->
<g id="node1" class="node">
<title>Node10</title>
<polygon fill="#bfbfbf" stroke="#000000" points="0,-136.5 0,-177.5 105,-177.5 105,-136.5 0,-136.5"/>
<text text-anchor="start" x="8" y="-165.5" font-family="Helvetica,sans-Serif" font-size="10.00" fill="#000000">openage::renderer::</text>
<text text-anchor="start" x="8" y="-154.5" font-family="Helvetica,sans-Serif" font-size="10.00" fill="#000000">vulkan::VlkRenderer</text>
<text text-anchor="middle" x="52.5" y="-143.5" font-family="Helvetica,sans-Serif" font-size="10.00" fill="#000000">::do_the_thing</text>
</g>
<!-- Node11 -->
<g id="node2" class="node">
<title>Node11</title>
<g id="a_node2"><a xlink:href="../../dd/d1a/namespaceopenage_1_1log.xhtml#ab6b4b10be67af93ab6c4d5a36139736e" target="_top" xlink:title="error message ">
<polygon fill="#ffffff" stroke="#000000" points="173,-294.5 173,-313.5 256,-313.5 256,-294.5 173,-294.5"/>
<text text-anchor="middle" x="214.5" y="-301.5" font-family="Helvetica,sans-Serif" font-size="10.00" fill="#000000">openage.log.err</text>
</a>
</g>
</g>
<!-- Node10&#45;&gt;Node11 -->
<g id="edge1" class="edge">
<title>Node10&#45;&gt;Node11</title>
<path fill="none" stroke="#191970" d="M61.1589,-177.7413C74.1845,-206.3436 101.5673,-257.4742 141,-285 147.6845,-289.6661 155.4294,-293.1865 163.3322,-295.8426"/>
<polygon fill="#191970" stroke="#191970" points="162.4087,-299.2191 172.9894,-298.6726 164.3773,-292.5016 162.4087,-299.2191"/>
</g>
<!-- Node12 -->
<g id="node3" class="node">
<title>Node12</title>
<g id="a_node3"><a xlink:href="../../d6/d0a/classopenage_1_1renderer_1_1vulkan_1_1_vlk_graphics_device.xhtml#a5d8a1353bad85bd21c733fc21d8bef76" target="_top" xlink:title="Given a physical device and a surface, checks whether the device is capable of presenting to the surf...">
<polygon fill="#ffffff" stroke="#000000" points="141,-234.5 141,-275.5 288,-275.5 288,-234.5 141,-234.5"/>
<text text-anchor="start" x="149" y="-263.5" font-family="Helvetica,sans-Serif" font-size="10.00" fill="#000000">openage::renderer::</text>
<text text-anchor="start" x="149" y="-252.5" font-family="Helvetica,sans-Serif" font-size="10.00" fill="#000000">vulkan::VlkGraphicsDevice</text>
<text text-anchor="middle" x="214.5" y="-241.5" font-family="Helvetica,sans-Serif" font-size="10.00" fill="#000000">::find_device_surface_support</text>
</a>
</g>
</g>
<!-- Node10&#45;&gt;Node12 -->
<g id="edge2" class="edge">
<title>Node10&#45;&gt;Node12</title>
<path fill="none" stroke="#191970" d="M78.7976,-177.5593C95.9878,-190.5299 119.2144,-207.1906 141,-220 146.73,-223.3691 152.8353,-226.6816 158.9847,-229.8446"/>
<polygon fill="#191970" stroke="#191970" points="157.4795,-233.0051 167.9872,-234.3609 160.6184,-226.7483 157.4795,-233.0051"/>
</g>
<!-- Node13 -->
<g id="node4" class="node">
<title>Node13</title>
<g id="a_node4"><a xlink:href="../../d8/d3c/util_8h.xhtml#a856371a624dd7d99cc9da19f0d7889f0" target="_top" xlink:title="vk_do_ritual">
<polygon fill="#ffffff" stroke="#000000" points="324,-220.5 324,-239.5 393,-239.5 393,-220.5 324,-220.5"/>
<text text-anchor="middle" x="358.5" y="-227.5" font-family="Helvetica,sans-Serif" font-size="10.00" fill="#000000">vk_do_ritual</text>
</a>
</g>
</g>
<!-- Node10&#45;&gt;Node13 -->
<g id="edge8" class="edge">
<title>Node10&#45;&gt;Node13</title>
<path fill="none" stroke="#191970" d="M105.0334,-176.0752C116.7811,-179.9851 129.2446,-183.8601 141,-187 200.0434,-202.7704 269.5104,-215.5191 313.7607,-222.9281"/>
<polygon fill="#191970" stroke="#191970" points="313.4612,-226.4261 323.8985,-224.6059 314.6042,-219.52 313.4612,-226.4261"/>
</g>
<!-- Node14 -->
<g id="node5" class="node">
<title>Node14</title>
<g id="a_node5"><a xlink:href="../../d6/d0a/classopenage_1_1renderer_1_1vulkan_1_1_vlk_graphics_device.xhtml#a19d43547d0fa2d45ae1b9299637c2f8e" target="_top" xlink:title="openage::renderer::\lvulkan::VlkGraphicsDevice\l::get_device">
<polygon fill="#ffffff" stroke="#000000" points="147,-136.5 147,-177.5 282,-177.5 282,-136.5 147,-136.5"/>
<text text-anchor="start" x="155" y="-165.5" font-family="Helvetica,sans-Serif" font-size="10.00" fill="#000000">openage::renderer::</text>
<text text-anchor="start" x="155" y="-154.5" font-family="Helvetica,sans-Serif" font-size="10.00" fill="#000000">vulkan::VlkGraphicsDevice</text>
<text text-anchor="middle" x="214.5" y="-143.5" font-family="Helvetica,sans-Serif" font-size="10.00" fill="#000000">::get_device</text>
</a>
</g>
</g>
<!-- Node10&#45;&gt;Node14 -->
<g id="edge4" class="edge">
<title>Node10&#45;&gt;Node14</title>
<path fill="none" stroke="#191970" d="M105.0968,-157C115.1787,-157 125.9328,-157 136.6145,-157"/>
<polygon fill="#191970" stroke="#191970" points="136.8094,-160.5001 146.8093,-157 136.8093,-153.5001 136.8094,-160.5001"/>
</g>
<!-- Node15 -->
<g id="node6" class="node">
<title>Node15</title>
<g id="a_node6"><a xlink:href="../../d6/d0a/classopenage_1_1renderer_1_1vulkan_1_1_vlk_graphics_device.xhtml#a94443fbae944ba5163514c6ea7397099" target="_top" xlink:title="openage::renderer::\lvulkan::VlkGraphicsDevice\l::get_queue">
<polygon fill="#ffffff" stroke="#000000" points="147,-76.5 147,-117.5 282,-117.5 282,-76.5 147,-76.5"/>
<text text-anchor="start" x="155" y="-105.5" font-family="Helvetica,sans-Serif" font-size="10.00" fill="#000000">openage::renderer::</text>
<text text-anchor="start" x="155" y="-94.5" font-family="Helvetica,sans-Serif" font-size="10.00" fill="#000000">vulkan::VlkGraphicsDevice</text>
<text text-anchor="middle" x="214.5" y="-83.5" font-family="Helvetica,sans-Serif" font-size="10.00" fill="#000000">::get_queue</text>
</a>
</g>
</g>
<!-- Node10&#45;&gt;Node15 -->
<g id="edge5" class="edge">
<title>Node10&#45;&gt;Node15</title>
<path fill="none" stroke="#191970" d="M105.0968,-137.5197C119.269,-132.2707 134.7696,-126.5298 149.5303,-121.0629"/>
<polygon fill="#191970" stroke="#191970" points="150.9401,-124.2731 159.102,-117.5178 148.5088,-117.7089 150.9401,-124.2731"/>
</g>
<!-- Node16 -->
<g id="node7" class="node">
<title>Node16</title>
<g id="a_node7"><a xlink:href="../../dd/d1a/namespaceopenage_1_1log.xhtml#a403182e8d0c54bd49bea6934c3cb1e28" target="_top" xlink:title="info message ">
<polygon fill="#ffffff" stroke="#000000" points="170.5,-38.5 170.5,-57.5 258.5,-57.5 258.5,-38.5 170.5,-38.5"/>
<text text-anchor="middle" x="214.5" y="-45.5" font-family="Helvetica,sans-Serif" font-size="10.00" fill="#000000">openage.log.info</text>
</a>
</g>
</g>
<!-- Node10&#45;&gt;Node16 -->
<g id="edge6" class="edge">
<title>Node10&#45;&gt;Node16</title>
<path fill="none" stroke="#191970" d="M67.3923,-136.3019C83.3164,-115.6848 110.4419,-84.634 141,-67 146.9824,-63.5477 153.5957,-60.7127 160.3308,-58.3868"/>
<polygon fill="#191970" stroke="#191970" points="161.7044,-61.6258 170.2264,-55.3309 159.6388,-54.9375 161.7044,-61.6258"/>
</g>
<!-- Node17 -->
<g id="node8" class="node">
<title>Node17</title>
<g id="a_node8"><a xlink:href="../../de/d06/namespaceopenage_1_1console_1_1tests.xhtml#a46ebd3333dc9196558ac9aced828d117" target="_top" xlink:title="openage::console::tests::max">
<polygon fill="#ffffff" stroke="#000000" points="141.5,-.5 141.5,-19.5 287.5,-19.5 287.5,-.5 141.5,-.5"/>
<text text-anchor="middle" x="214.5" y="-7.5" font-family="Helvetica,sans-Serif" font-size="10.00" fill="#000000">openage::console::tests::max</text>
</a>
</g>
</g>
<!-- Node10&#45;&gt;Node17 -->
<g id="edge7" class="edge">
<title>Node10&#45;&gt;Node17</title>
<path fill="none" stroke="#191970" d="M61.1589,-136.2587C74.1845,-107.6564 101.5673,-56.5258 141,-29 143.842,-27.0162 146.8756,-25.2394 150.0316,-23.6481"/>
<polygon fill="#191970" stroke="#191970" points="151.4359,-26.8542 159.1921,-19.6367 148.6279,-20.442 151.4359,-26.8542"/>
</g>
<!-- Node12&#45;&gt;Node13 -->
<g id="edge3" class="edge">
<title>Node12&#45;&gt;Node13</title>
<path fill="none" stroke="#191970" d="M288.1874,-242.2071C296.9451,-240.6866 305.6695,-239.172 313.842,-237.7531"/>
<polygon fill="#191970" stroke="#191970" points="314.6056,-241.173 323.8595,-236.014 313.4082,-234.2762 314.6056,-241.173"/>
</g>
</g>
</svg>
