<?xml version="1.0" encoding="UTF-8" standalone="no"?>
<!DOCTYPE svg PUBLIC "-//W3C//DTD SVG 1.1//EN"
 "http://www.w3.org/Graphics/SVG/1.1/DTD/svg11.dtd">
<!-- Generated by graphviz version 2.40.1 (20161225.0304)
 -->
<!-- Title: openage::curve::KeyframeContainer::dump Pages: 1 -->
<svg width="300pt" height="39pt"
 viewBox="0.00 0.00 300.00 39.00" xmlns="http://www.w3.org/2000/svg" xmlns:xlink="http://www.w3.org/1999/xlink">
<g id="graph0" class="graph" transform="scale(1 1) rotate(0) translate(4 35)">
<title>openage::curve::KeyframeContainer::dump</title>
<polygon fill="#ffffff" stroke="transparent" points="-4,4 -4,-35 296,-35 296,4 -4,4"/>
<!-- Node10 -->
<g id="node1" class="node">
<title>Node10</title>
<polygon fill="#bfbfbf" stroke="#000000" points="0,-.5 0,-30.5 131,-30.5 131,-.5 0,-.5"/>
<text text-anchor="start" x="8" y="-18.5" font-family="Helvetica,sans-Serif" font-size="10.00" fill="#000000">openage::curve::Keyframe</text>
<text text-anchor="middle" x="65.5" y="-7.5" font-family="Helvetica,sans-Serif" font-size="10.00" fill="#000000">Container::dump</text>
</g>
<!-- Node11 -->
<g id="node2" class="node">
<title>Node11</title>
<g id="a_node2"><a xlink:href="../../d8/d76/classopenage_1_1convert_1_1texture_1_1_texture.xhtml#a5ab6d4ff626d130203d59cdafc830f0d" target="_top" xlink:title="openage.convert.texture.\lTexture.save">
<polygon fill="#ffffff" stroke="#000000" points="167,-.5 167,-30.5 292,-30.5 292,-.5 167,-.5"/>
<text text-anchor="start" x="175" y="-18.5" font-family="Helvetica,sans-Serif" font-size="10.00" fill="#000000">openage.convert.texture.</text>
<text text-anchor="middle" x="229.5" y="-7.5" font-family="Helvetica,sans-Serif" font-size="10.00" fill="#000000">Texture.save</text>
</a>
</g>
</g>
<!-- Node10&#45;&gt;Node11 -->
<g id="edge1" class="edge">
<title>Node10&#45;&gt;Node11</title>
<path fill="none" stroke="#191970" d="M141.2726,-15.5C149.857,-15.5 158.5328,-15.5 166.9211,-15.5"/>
<polygon fill="#191970" stroke="#191970" points="141.2601,-12.0001 131.2601,-15.5 141.2601,-19.0001 141.2601,-12.0001"/>
</g>
</g>
</svg>
