<?xml version="1.0" encoding="UTF-8" standalone="no"?>
<!DOCTYPE svg PUBLIC "-//W3C//DTD SVG 1.1//EN"
 "http://www.w3.org/Graphics/SVG/1.1/DTD/svg11.dtd">
<!-- Generated by graphviz version 2.40.1 (20161225.0304)
 -->
<!-- Title: openage::event::EventQueue::reenqueue Pages: 1 -->
<svg width="477pt" height="88pt"
 viewBox="0.00 0.00 477.00 88.00" xmlns="http://www.w3.org/2000/svg" xmlns:xlink="http://www.w3.org/1999/xlink">
<g id="graph0" class="graph" transform="scale(1 1) rotate(0) translate(4 84)">
<title>openage::event::EventQueue::reenqueue</title>
<polygon fill="#ffffff" stroke="transparent" points="-4,4 -4,-84 473,-84 473,4 -4,4"/>
<!-- Node51 -->
<g id="node1" class="node">
<title>Node51</title>
<polygon fill="#bfbfbf" stroke="#000000" points="0,-24.5 0,-54.5 143,-54.5 143,-24.5 0,-24.5"/>
<text text-anchor="start" x="8" y="-42.5" font-family="Helvetica,sans-Serif" font-size="10.00" fill="#000000">openage::event::EventQueue</text>
<text text-anchor="middle" x="71.5" y="-31.5" font-family="Helvetica,sans-Serif" font-size="10.00" fill="#000000">::reenqueue</text>
</g>
<!-- Node52 -->
<g id="node2" class="node">
<title>Node52</title>
<g id="a_node2"><a xlink:href="../../d1/d17/classopenage_1_1event_1_1_event_store.xhtml#ae17679f5da2da238bc0f423befda3850" target="_top" xlink:title="openage::event::EventStore\l::push">
<polygon fill="#ffffff" stroke="#000000" points="179,-24.5 179,-54.5 317,-54.5 317,-24.5 179,-24.5"/>
<text text-anchor="start" x="187" y="-42.5" font-family="Helvetica,sans-Serif" font-size="10.00" fill="#000000">openage::event::EventStore</text>
<text text-anchor="middle" x="248" y="-31.5" font-family="Helvetica,sans-Serif" font-size="10.00" fill="#000000">::push</text>
</a>
</g>
</g>
<!-- Node51&#45;&gt;Node52 -->
<g id="edge1" class="edge">
<title>Node51&#45;&gt;Node52</title>
<path fill="none" stroke="#191970" d="M143.0349,-39.5C151.5514,-39.5 160.2835,-39.5 168.8981,-39.5"/>
<polygon fill="#191970" stroke="#191970" points="168.937,-43.0001 178.9369,-39.5 168.9369,-36.0001 168.937,-43.0001"/>
</g>
<!-- Node53 -->
<g id="node3" class="node">
<title>Node53</title>
<g id="a_node3"><a xlink:href="../../dc/dfd/classopenage_1_1datastructure_1_1_pairing_heap.xhtml#a75e9e7602b59aeee47a2fd84a10c8f74" target="_top" xlink:title="adds the given item to the heap. ">
<polygon fill="#ffffff" stroke="#000000" points="353,-49.5 353,-79.5 469,-79.5 469,-49.5 353,-49.5"/>
<text text-anchor="start" x="361" y="-67.5" font-family="Helvetica,sans-Serif" font-size="10.00" fill="#000000">openage::datastructure</text>
<text text-anchor="middle" x="411" y="-56.5" font-family="Helvetica,sans-Serif" font-size="10.00" fill="#000000">::PairingHeap::push</text>
</a>
</g>
</g>
<!-- Node52&#45;&gt;Node53 -->
<g id="edge2" class="edge">
<title>Node52&#45;&gt;Node53</title>
<path fill="none" stroke="#191970" d="M317.1267,-50.1023C325.6707,-51.4127 334.4005,-52.7516 342.9285,-54.0596"/>
<polygon fill="#191970" stroke="#191970" points="342.4088,-57.5207 352.8238,-55.5773 343.4701,-50.6016 342.4088,-57.5207"/>
</g>
<!-- Node54 -->
<g id="node4" class="node">
<title>Node54</title>
<g id="a_node4"><a xlink:href="../../dc/dfd/classopenage_1_1datastructure_1_1_pairing_heap.xhtml#a45599db3b89b27ad5c53ca900a67df85" target="_top" xlink:title="openage::datastructure\l::PairingHeap::size">
<polygon fill="#ffffff" stroke="#000000" points="353,-.5 353,-30.5 469,-30.5 469,-.5 353,-.5"/>
<text text-anchor="start" x="361" y="-18.5" font-family="Helvetica,sans-Serif" font-size="10.00" fill="#000000">openage::datastructure</text>
<text text-anchor="middle" x="411" y="-7.5" font-family="Helvetica,sans-Serif" font-size="10.00" fill="#000000">::PairingHeap::size</text>
</a>
</g>
</g>
<!-- Node52&#45;&gt;Node54 -->
<g id="edge3" class="edge">
<title>Node52&#45;&gt;Node54</title>
<path fill="none" stroke="#191970" d="M317.1267,-29.3218C325.6707,-28.0638 334.4005,-26.7785 342.9285,-25.5228"/>
<polygon fill="#191970" stroke="#191970" points="343.4404,-28.9853 352.8238,-24.0658 342.4206,-22.0599 343.4404,-28.9853"/>
</g>
</g>
</svg>
