<?xml version="1.0" encoding="UTF-8" standalone="no"?>
<!DOCTYPE svg PUBLIC "-//W3C//DTD SVG 1.1//EN"
 "http://www.w3.org/Graphics/SVG/1.1/DTD/svg11.dtd">
<!-- Generated by graphviz version 2.40.1 (20161225.0304)
 -->
<!-- Title: /mnt/c/Users/Jameson/Desktop/git/openage&#45;new&#45;doc&#45;system/libopenage/input/input_context.h Pages: 1 -->
<svg width="1199pt" height="733pt"
 viewBox="0.00 0.00 1198.55 733.45" xmlns="http://www.w3.org/2000/svg" xmlns:xlink="http://www.w3.org/1999/xlink">
<g id="graph0" class="graph" transform="scale(1 1) rotate(0) translate(4 729.4516)">
<title>/mnt/c/Users/Jameson/Desktop/git/openage&#45;new&#45;doc&#45;system/libopenage/input/input_context.h</title>
<polygon fill="#ffffff" stroke="transparent" points="-4,4 -4,-729.4516 1194.5535,-729.4516 1194.5535,4 -4,4"/>
<!-- Node0 -->
<g id="node1" class="node">
<title>Node0</title>
<polygon fill="#bfbfbf" stroke="#000000" points="418,-672.9516 418,-724.9516 559,-724.9516 559,-672.9516 418,-672.9516"/>
<text text-anchor="start" x="426" y="-712.9516" font-family="Helvetica,sans-Serif" font-size="10.00" fill="#000000">/mnt/c/Users/Jameson</text>
<text text-anchor="start" x="426" y="-701.9516" font-family="Helvetica,sans-Serif" font-size="10.00" fill="#000000">/Desktop/git/openage</text>
<text text-anchor="start" x="426" y="-690.9516" font-family="Helvetica,sans-Serif" font-size="10.00" fill="#000000">&#45;new&#45;doc&#45;system/libopenage</text>
<text text-anchor="middle" x="488.5" y="-679.9516" font-family="Helvetica,sans-Serif" font-size="10.00" fill="#000000">/input/input_context.h</text>
</g>
<!-- Node1 -->
<g id="node2" class="node">
<title>Node1</title>
<polygon fill="#ffffff" stroke="#bfbfbf" points="0,-112.9516 0,-131.9516 59,-131.9516 59,-112.9516 0,-112.9516"/>
<text text-anchor="middle" x="29.5" y="-119.9516" font-family="Helvetica,sans-Serif" font-size="10.00" fill="#000000">functional</text>
</g>
<!-- Node0&#45;&gt;Node1 -->
<g id="edge1" class="edge">
<title>Node0&#45;&gt;Node1</title>
<path fill="none" stroke="#191970" d="M417.8604,-694.6103C285.0786,-684.5028 11.5,-653.5899 11.5,-570.4516 11.5,-570.4516 11.5,-570.4516 11.5,-234.4516 11.5,-201.5989 19.1431,-164.0045 24.4684,-141.7978"/>
<polygon fill="#191970" stroke="#191970" points="27.8987,-142.5068 26.921,-131.9571 21.1065,-140.8139 27.8987,-142.5068"/>
</g>
<!-- Node2 -->
<g id="node3" class="node">
<title>Node2</title>
<polygon fill="#ffffff" stroke="#bfbfbf" points="103,-616.9516 103,-635.9516 144,-635.9516 144,-616.9516 103,-616.9516"/>
<text text-anchor="middle" x="123.5" y="-623.9516" font-family="Helvetica,sans-Serif" font-size="10.00" fill="#000000">stack</text>
</g>
<!-- Node0&#45;&gt;Node2 -->
<g id="edge2" class="edge">
<title>Node0&#45;&gt;Node2</title>
<path fill="none" stroke="#191970" d="M417.9384,-687.5048C350.8525,-676.1703 247.295,-657.499 158.5,-636.4516 157.0396,-636.1055 155.5489,-635.7375 154.0461,-635.3546"/>
<polygon fill="#191970" stroke="#191970" points="154.7123,-631.9094 144.1461,-632.6879 152.8916,-638.6685 154.7123,-631.9094"/>
</g>
<!-- Node3 -->
<g id="node4" class="node">
<title>Node3</title>
<polygon fill="#ffffff" stroke="#bfbfbf" points="473,-504.9516 473,-523.9516 556,-523.9516 556,-504.9516 473,-504.9516"/>
<text text-anchor="middle" x="514.5" y="-511.9516" font-family="Helvetica,sans-Serif" font-size="10.00" fill="#000000">unordered_map</text>
</g>
<!-- Node0&#45;&gt;Node3 -->
<g id="edge3" class="edge">
<title>Node0&#45;&gt;Node3</title>
<path fill="none" stroke="#191970" d="M492.17,-672.9086C497.4269,-635.6051 506.9857,-567.774 511.7074,-534.2683"/>
<polygon fill="#191970" stroke="#191970" points="515.1803,-534.7057 513.11,-524.3151 508.2488,-533.7288 515.1803,-534.7057"/>
</g>
<!-- Node4 -->
<g id="node5" class="node">
<title>Node4</title>
<polygon fill="#ffffff" stroke="#bfbfbf" points="1012.5,-112.9516 1012.5,-131.9516 1056.5,-131.9516 1056.5,-112.9516 1012.5,-112.9516"/>
<text text-anchor="middle" x="1034.5" y="-119.9516" font-family="Helvetica,sans-Serif" font-size="10.00" fill="#000000">vector</text>
</g>
<!-- Node0&#45;&gt;Node4 -->
<g id="edge4" class="edge">
<title>Node0&#45;&gt;Node4</title>
<path fill="none" stroke="#191970" d="M559.1492,-692.3483C721.2208,-675.566 1111.6563,-625.2849 1187.5,-524.4516 1192.8432,-517.3479 1189.0274,-513.2083 1187.5,-504.4516 1170.1305,-404.8746 1110.5,-391.5322 1110.5,-290.4516 1110.5,-290.4516 1110.5,-290.4516 1110.5,-234.4516 1110.5,-194.6878 1077.2929,-158.5558 1054.7792,-138.6286"/>
<polygon fill="#191970" stroke="#191970" points="1056.9317,-135.8644 1047.0499,-132.0434 1052.3921,-141.1928 1056.9317,-135.8644"/>
</g>
<!-- Node5 -->
<g id="node6" class="node">
<title>Node5</title>
<g id="a_node6"><a xlink:href="../../d9/d00/input_2action_8h.xhtml" target="_top" xlink:title="action.h">
<polygon fill="#ffffff" stroke="#000000" points="548,-616.9516 548,-635.9516 599,-635.9516 599,-616.9516 548,-616.9516"/>
<text text-anchor="middle" x="573.5" y="-623.9516" font-family="Helvetica,sans-Serif" font-size="10.00" fill="#000000">action.h</text>
</a>
</g>
</g>
<!-- Node0&#45;&gt;Node5 -->
<g id="edge5" class="edge">
<title>Node0&#45;&gt;Node5</title>
<path fill="none" stroke="#191970" d="M519.187,-672.7775C531.044,-662.6641 544.2337,-651.4141 554.6458,-642.5331"/>
<polygon fill="#191970" stroke="#191970" points="556.9852,-645.1381 562.3222,-635.9856 552.4425,-639.8122 556.9852,-645.1381"/>
</g>
<!-- Node45 -->
<g id="node46" class="node">
<title>Node45</title>
<g id="a_node46"><a xlink:href="../../d9/d15/input_2event_8h.xhtml" target="_top" xlink:title="event.h">
<polygon fill="#ffffff" stroke="#000000" points="935,-560.9516 935,-579.9516 984,-579.9516 984,-560.9516 935,-560.9516"/>
<text text-anchor="middle" x="959.5" y="-567.9516" font-family="Helvetica,sans-Serif" font-size="10.00" fill="#000000">event.h</text>
</a>
</g>
</g>
<!-- Node0&#45;&gt;Node45 -->
<g id="edge77" class="edge">
<title>Node0&#45;&gt;Node45</title>
<path fill="none" stroke="#191970" d="M559.0135,-679.7139C661.6744,-651.7055 848.3973,-600.7631 925.151,-579.8229"/>
<polygon fill="#191970" stroke="#191970" points="926.0805,-583.1973 934.8067,-577.1886 924.238,-576.4441 926.0805,-583.1973"/>
</g>
<!-- Node5&#45;&gt;Node1 -->
<g id="edge6" class="edge">
<title>Node5&#45;&gt;Node1</title>
<path fill="none" stroke="#191970" d="M547.8717,-625.0393C442.6684,-617.7434 49.5,-575.1767 49.5,-346.4516 49.5,-346.4516 49.5,-346.4516 49.5,-234.4516 49.5,-201.671 41.0945,-164.3221 35.1819,-142.1049"/>
<polygon fill="#191970" stroke="#191970" points="38.491,-140.9394 32.4511,-132.2348 31.7445,-142.8061 38.491,-140.9394"/>
</g>
<!-- Node5&#45;&gt;Node3 -->
<g id="edge7" class="edge">
<title>Node5&#45;&gt;Node3</title>
<path fill="none" stroke="#191970" d="M568.4697,-616.9026C558.6727,-598.305 536.8841,-556.9435 524.191,-532.848"/>
<polygon fill="#191970" stroke="#191970" points="527.275,-531.1927 519.5176,-523.9765 521.0817,-534.4553 527.275,-531.1927"/>
</g>
<!-- Node5&#45;&gt;Node4 -->
<g id="edge8" class="edge">
<title>Node5&#45;&gt;Node4</title>
<path fill="none" stroke="#191970" d="M593.2027,-616.9172C611.7545,-607.8398 640.2392,-593.6441 664.5,-580.4516 832.292,-489.21 886.0391,-460.3489 990.5,-300.4516 1023.3484,-250.1709 1031.6777,-177.32 1033.7868,-142.4782"/>
<polygon fill="#191970" stroke="#191970" points="1037.2964,-142.3662 1034.2901,-132.2069 1030.3048,-142.0236 1037.2964,-142.3662"/>
</g>
<!-- Node6 -->
<g id="node7" class="node">
<title>Node6</title>
<g id="a_node7"><a xlink:href="../../dd/dcd/pixel_8h.xhtml" target="_top" xlink:title="../coord/pixel.h">
<polygon fill="#ffffff" stroke="#000000" points="575,-560.9516 575,-579.9516 656,-579.9516 656,-560.9516 575,-560.9516"/>
<text text-anchor="middle" x="615.5" y="-567.9516" font-family="Helvetica,sans-Serif" font-size="10.00" fill="#000000">../coord/pixel.h</text>
</a>
</g>
</g>
<!-- Node5&#45;&gt;Node6 -->
<g id="edge9" class="edge">
<title>Node5&#45;&gt;Node6</title>
<path fill="none" stroke="#191970" d="M580.8158,-616.6972C586.7179,-608.8278 595.1742,-597.5526 602.2594,-588.1058"/>
<polygon fill="#191970" stroke="#191970" points="605.068,-590.1943 608.268,-580.0943 599.4679,-585.9943 605.068,-590.1943"/>
</g>
<!-- Node5&#45;&gt;Node45 -->
<g id="edge71" class="edge">
<title>Node5&#45;&gt;Node45</title>
<path fill="none" stroke="#191970" d="M599.3535,-624.0889C657.2284,-618.5678 801.4776,-603.5148 920.5,-580.4516 921.9582,-580.1691 923.4431,-579.8645 924.9401,-579.5436"/>
<polygon fill="#191970" stroke="#191970" points="925.8923,-582.9157 934.843,-577.2468 924.3108,-576.0967 925.8923,-582.9157"/>
</g>
<!-- Node7 -->
<g id="node8" class="node">
<title>Node7</title>
<polygon fill="#ffffff" stroke="#bfbfbf" points="574,-504.9516 574,-523.9516 657,-523.9516 657,-504.9516 574,-504.9516"/>
<text text-anchor="middle" x="615.5" y="-511.9516" font-family="Helvetica,sans-Serif" font-size="10.00" fill="#000000">coord_xy.gen.h</text>
</g>
<!-- Node6&#45;&gt;Node7 -->
<g id="edge10" class="edge">
<title>Node6&#45;&gt;Node7</title>
<path fill="none" stroke="#191970" d="M615.5,-560.6972C615.5,-553.3899 615.5,-543.146 615.5,-534.1562"/>
<polygon fill="#191970" stroke="#191970" points="619.0001,-534.0943 615.5,-524.0943 612.0001,-534.0943 619.0001,-534.0943"/>
</g>
<!-- Node8 -->
<g id="node9" class="node">
<title>Node8</title>
<g id="a_node9"><a xlink:href="../../db/d40/declarations_8h.xhtml" target="_top" xlink:title="declarations.h">
<polygon fill="#ffffff" stroke="#000000" points="675,-504.9516 675,-523.9516 752,-523.9516 752,-504.9516 675,-504.9516"/>
<text text-anchor="middle" x="713.5" y="-511.9516" font-family="Helvetica,sans-Serif" font-size="10.00" fill="#000000">declarations.h</text>
</a>
</g>
</g>
<!-- Node6&#45;&gt;Node8 -->
<g id="edge11" class="edge">
<title>Node6&#45;&gt;Node8</title>
<path fill="none" stroke="#191970" d="M632.5703,-560.6972C647.747,-552.0248 670.1621,-539.2161 687.5563,-529.2766"/>
<polygon fill="#191970" stroke="#191970" points="689.6794,-532.0946 696.6253,-524.0943 686.2064,-526.0169 689.6794,-532.0946"/>
</g>
<!-- Node9 -->
<g id="node10" class="node">
<title>Node9</title>
<polygon fill="#ffffff" stroke="#bfbfbf" points="808.5,-224.9516 808.5,-243.9516 854.5,-243.9516 854.5,-224.9516 808.5,-224.9516"/>
<text text-anchor="middle" x="831.5" y="-231.9516" font-family="Helvetica,sans-Serif" font-size="10.00" fill="#000000">cstdint</text>
</g>
<!-- Node8&#45;&gt;Node9 -->
<g id="edge12" class="edge">
<title>Node8&#45;&gt;Node9</title>
<path fill="none" stroke="#191970" d="M719.2517,-504.7594C733.4915,-480.4682 770.9365,-414.7532 794.5,-356.4516 808.7406,-321.2172 820.5232,-278.3645 826.7388,-253.9635"/>
<polygon fill="#191970" stroke="#191970" points="830.1637,-254.6944 829.1917,-244.1442 823.3724,-252.9978 830.1637,-254.6944"/>
</g>
<!-- Node10 -->
<g id="node11" class="node">
<title>Node10</title>
<g id="a_node11"><a xlink:href="../../de/d62/fixed__point_8h.xhtml" target="_top" xlink:title="../util/fixed_point.h">
<polygon fill="#ffffff" stroke="#000000" points="326,-448.9516 326,-467.9516 423,-467.9516 423,-448.9516 326,-448.9516"/>
<text text-anchor="middle" x="374.5" y="-455.9516" font-family="Helvetica,sans-Serif" font-size="10.00" fill="#000000">../util/fixed_point.h</text>
</a>
</g>
</g>
<!-- Node8&#45;&gt;Node10 -->
<g id="edge13" class="edge">
<title>Node8&#45;&gt;Node10</title>
<path fill="none" stroke="#191970" d="M674.7591,-506.212C671.6301,-505.598 668.5143,-505.0035 665.5,-504.4516 585.289,-489.7656 492.123,-475.531 433.2464,-466.8813"/>
<polygon fill="#191970" stroke="#191970" points="433.4239,-463.3701 423.0224,-465.3848 432.4101,-470.2963 433.4239,-463.3701"/>
</g>
<!-- Node11 -->
<g id="node12" class="node">
<title>Node11</title>
<polygon fill="#ffffff" stroke="#bfbfbf" points="177.5,-336.9516 177.5,-355.9516 233.5,-355.9516 233.5,-336.9516 177.5,-336.9516"/>
<text text-anchor="middle" x="205.5" y="-343.9516" font-family="Helvetica,sans-Serif" font-size="10.00" fill="#000000">algorithm</text>
</g>
<!-- Node10&#45;&gt;Node11 -->
<g id="edge14" class="edge">
<title>Node10&#45;&gt;Node11</title>
<path fill="none" stroke="#191970" d="M360.0912,-448.9026C330.7815,-429.4784 264.0017,-385.222 228.5708,-361.7411"/>
<polygon fill="#191970" stroke="#191970" points="230.1415,-358.5833 219.8724,-355.9765 226.2745,-364.4183 230.1415,-358.5833"/>
</g>
<!-- Node12 -->
<g id="node13" class="node">
<title>Node12</title>
<polygon fill="#ffffff" stroke="#bfbfbf" points="416,-392.9516 416,-411.9516 461,-411.9516 461,-392.9516 416,-392.9516"/>
<text text-anchor="middle" x="438.5" y="-399.9516" font-family="Helvetica,sans-Serif" font-size="10.00" fill="#000000">climits</text>
</g>
<!-- Node10&#45;&gt;Node12 -->
<g id="edge15" class="edge">
<title>Node10&#45;&gt;Node12</title>
<path fill="none" stroke="#191970" d="M385.6479,-448.6972C395.0087,-440.5066 408.5858,-428.6266 419.6349,-418.9586"/>
<polygon fill="#191970" stroke="#191970" points="422.2588,-421.3134 427.4798,-412.0943 417.6492,-416.0454 422.2588,-421.3134"/>
</g>
<!-- Node13 -->
<g id="node14" class="node">
<title>Node13</title>
<polygon fill="#ffffff" stroke="#bfbfbf" points="251.5,-336.9516 251.5,-355.9516 295.5,-355.9516 295.5,-336.9516 251.5,-336.9516"/>
<text text-anchor="middle" x="273.5" y="-343.9516" font-family="Helvetica,sans-Serif" font-size="10.00" fill="#000000">cmath</text>
</g>
<!-- Node10&#45;&gt;Node13 -->
<g id="edge16" class="edge">
<title>Node10&#45;&gt;Node13</title>
<path fill="none" stroke="#191970" d="M365.8888,-448.9026C348.8196,-429.9743 310.4859,-387.4657 288.9457,-363.5795"/>
<polygon fill="#191970" stroke="#191970" points="291.3856,-361.0589 282.0894,-355.9765 286.1872,-365.7468 291.3856,-361.0589"/>
</g>
<!-- Node14 -->
<g id="node15" class="node">
<title>Node14</title>
<polygon fill="#ffffff" stroke="#bfbfbf" points="229.5,-112.9516 229.5,-131.9516 279.5,-131.9516 279.5,-112.9516 229.5,-112.9516"/>
<text text-anchor="middle" x="254.5" y="-119.9516" font-family="Helvetica,sans-Serif" font-size="10.00" fill="#000000">iomanip</text>
</g>
<!-- Node10&#45;&gt;Node14 -->
<g id="edge17" class="edge">
<title>Node10&#45;&gt;Node14</title>
<path fill="none" stroke="#191970" d="M325.6155,-449.7476C276.1106,-438.0286 202.1873,-411.8658 168.5,-356.4516 123.1611,-281.8711 202.6141,-179.5901 238.3898,-139.5265"/>
<polygon fill="#191970" stroke="#191970" points="241.1447,-141.6999 245.3004,-131.954 235.9742,-136.9812 241.1447,-141.6999"/>
</g>
<!-- Node15 -->
<g id="node16" class="node">
<title>Node15</title>
<polygon fill="#ffffff" stroke="#bfbfbf" points="479.5,-392.9516 479.5,-411.9516 519.5,-411.9516 519.5,-392.9516 479.5,-392.9516"/>
<text text-anchor="middle" x="499.5" y="-399.9516" font-family="Helvetica,sans-Serif" font-size="10.00" fill="#000000">limits</text>
</g>
<!-- Node10&#45;&gt;Node15 -->
<g id="edge18" class="edge">
<title>Node10&#45;&gt;Node15</title>
<path fill="none" stroke="#191970" d="M395.9883,-448.8249C416.3883,-439.6857 447.2252,-425.8708 469.9375,-415.6956"/>
<polygon fill="#191970" stroke="#191970" points="471.4248,-418.8646 479.1199,-411.5819 468.5628,-412.4763 471.4248,-418.8646"/>
</g>
<!-- Node16 -->
<g id="node17" class="node">
<title>Node16</title>
<polygon fill="#ffffff" stroke="#bfbfbf" points="77.5,-392.9516 77.5,-411.9516 129.5,-411.9516 129.5,-392.9516 77.5,-392.9516"/>
<text text-anchor="middle" x="103.5" y="-399.9516" font-family="Helvetica,sans-Serif" font-size="10.00" fill="#000000">ostream</text>
</g>
<!-- Node10&#45;&gt;Node16 -->
<g id="edge19" class="edge">
<title>Node10&#45;&gt;Node16</title>
<path fill="none" stroke="#191970" d="M325.6848,-449.4417C278.8317,-440.6263 206.1416,-426.5102 143.5,-412.4516 142.2428,-412.1695 140.9646,-411.8776 139.6747,-411.5787"/>
<polygon fill="#191970" stroke="#191970" points="140.2465,-408.1168 129.7068,-409.1962 138.6192,-414.9251 140.2465,-408.1168"/>
</g>
<!-- Node17 -->
<g id="node18" class="node">
<title>Node17</title>
<polygon fill="#ffffff" stroke="#bfbfbf" points="716.5,-168.9516 716.5,-187.9516 778.5,-187.9516 778.5,-168.9516 716.5,-168.9516"/>
<text text-anchor="middle" x="747.5" y="-175.9516" font-family="Helvetica,sans-Serif" font-size="10.00" fill="#000000">type_traits</text>
</g>
<!-- Node10&#45;&gt;Node17 -->
<g id="edge20" class="edge">
<title>Node10&#45;&gt;Node17</title>
<path fill="none" stroke="#191970" d="M423.2092,-452.8494C550.3575,-437.5713 882.5,-393.1883 882.5,-346.4516 882.5,-346.4516 882.5,-346.4516 882.5,-290.4516 882.5,-259.927 884.0098,-247.0592 863.5,-224.4516 844.1173,-203.0864 813.5152,-191.5019 788.6087,-185.3037"/>
<polygon fill="#191970" stroke="#191970" points="789.2109,-181.8512 778.6826,-183.037 787.6525,-188.6755 789.2109,-181.8512"/>
</g>
<!-- Node18 -->
<g id="node19" class="node">
<title>Node18</title>
<g id="a_node19"><a xlink:href="../../d4/d08/misc_8h.xhtml" target="_top" xlink:title="misc.h">
<polygon fill="#ffffff" stroke="#000000" points="351.5,-392.9516 351.5,-411.9516 397.5,-411.9516 397.5,-392.9516 351.5,-392.9516"/>
<text text-anchor="middle" x="374.5" y="-399.9516" font-family="Helvetica,sans-Serif" font-size="10.00" fill="#000000">misc.h</text>
</a>
</g>
</g>
<!-- Node10&#45;&gt;Node18 -->
<g id="edge21" class="edge">
<title>Node10&#45;&gt;Node18</title>
<path fill="none" stroke="#191970" d="M374.5,-448.6972C374.5,-441.3899 374.5,-431.146 374.5,-422.1562"/>
<polygon fill="#191970" stroke="#191970" points="378.0001,-422.0943 374.5,-412.0943 371.0001,-422.0943 378.0001,-422.0943"/>
</g>
<!-- Node18&#45;&gt;Node4 -->
<g id="edge27" class="edge">
<title>Node18&#45;&gt;Node4</title>
<path fill="none" stroke="#191970" d="M397.7734,-394.567C400.6884,-393.761 403.6474,-393.0282 406.5,-392.4516 531.403,-367.2076 880.1097,-388.213 972.5,-300.4516 978.5002,-294.752 1013.7406,-186.8854 1028.2562,-141.898"/>
<polygon fill="#191970" stroke="#191970" points="1031.6631,-142.7365 1031.396,-132.1451 1024.9999,-140.5914 1031.6631,-142.7365"/>
</g>
<!-- Node18&#45;&gt;Node11 -->
<g id="edge22" class="edge">
<title>Node18&#45;&gt;Node11</title>
<path fill="none" stroke="#191970" d="M351.3556,-394.7825C323.583,-385.5797 276.6251,-370.0197 243.5051,-359.045"/>
<polygon fill="#191970" stroke="#191970" points="244.3006,-355.6215 233.7073,-355.7984 242.0988,-362.2663 244.3006,-355.6215"/>
</g>
<!-- Node18&#45;&gt;Node13 -->
<g id="edge24" class="edge">
<title>Node18&#45;&gt;Node13</title>
<path fill="none" stroke="#191970" d="M356.9071,-392.6972C341.121,-383.9445 317.7361,-370.9786 299.7413,-361.0013"/>
<polygon fill="#191970" stroke="#191970" points="301.3341,-357.8824 290.8913,-356.0943 297.9397,-364.0044 301.3341,-357.8824"/>
</g>
<!-- Node19 -->
<g id="node20" class="node">
<title>Node19</title>
<polygon fill="#ffffff" stroke="#bfbfbf" points="704.5,-336.9516 704.5,-355.9516 752.5,-355.9516 752.5,-336.9516 704.5,-336.9516"/>
<text text-anchor="middle" x="728.5" y="-343.9516" font-family="Helvetica,sans-Serif" font-size="10.00" fill="#000000">limits.h</text>
</g>
<!-- Node18&#45;&gt;Node19 -->
<g id="edge23" class="edge">
<title>Node18&#45;&gt;Node19</title>
<path fill="none" stroke="#191970" d="M397.7909,-394.6503C400.7029,-393.83 403.6564,-393.0711 406.5,-392.4516 530.8168,-365.3708 565.5985,-380.6937 690.5,-356.4516 691.7808,-356.203 693.0823,-355.9358 694.3942,-355.654"/>
<polygon fill="#191970" stroke="#191970" points="695.5541,-358.9768 704.4869,-353.2798 693.9511,-352.1628 695.5541,-358.9768"/>
</g>
<!-- Node20 -->
<g id="node21" class="node">
<title>Node20</title>
<polygon fill="#ffffff" stroke="#bfbfbf" points="351.5,-336.9516 351.5,-355.9516 397.5,-355.9516 397.5,-336.9516 351.5,-336.9516"/>
<text text-anchor="middle" x="374.5" y="-343.9516" font-family="Helvetica,sans-Serif" font-size="10.00" fill="#000000">cstring</text>
</g>
<!-- Node18&#45;&gt;Node20 -->
<g id="edge25" class="edge">
<title>Node18&#45;&gt;Node20</title>
<path fill="none" stroke="#191970" d="M374.5,-392.6972C374.5,-385.3899 374.5,-375.146 374.5,-366.1562"/>
<polygon fill="#191970" stroke="#191970" points="378.0001,-366.0943 374.5,-356.0943 371.0001,-366.0943 378.0001,-366.0943"/>
</g>
<!-- Node21 -->
<g id="node22" class="node">
<title>Node21</title>
<polygon fill="#ffffff" stroke="#bfbfbf" points="824,-.9516 824,-19.9516 865,-19.9516 865,-.9516 824,-.9516"/>
<text text-anchor="middle" x="844.5" y="-7.9516" font-family="Helvetica,sans-Serif" font-size="10.00" fill="#000000">string</text>
</g>
<!-- Node18&#45;&gt;Node21 -->
<g id="edge26" class="edge">
<title>Node18&#45;&gt;Node21</title>
<path fill="none" stroke="#191970" d="M397.8347,-394.8363C400.7392,-393.9841 403.679,-393.1668 406.5,-392.4516 412.9345,-390.8203 869.4739,-303.2354 875.5,-300.4516 918.2854,-280.6868 958.5,-281.5816 958.5,-234.4516 958.5,-234.4516 958.5,-234.4516 958.5,-122.4516 958.5,-75.1536 907.9485,-41.1833 874.1708,-23.7641"/>
<polygon fill="#191970" stroke="#191970" points="875.659,-20.5955 865.1445,-19.2926 872.5516,-26.868 875.659,-20.5955"/>
</g>
<!-- Node22 -->
<g id="node23" class="node">
<title>Node22</title>
<polygon fill="#ffffff" stroke="#bfbfbf" points="761.5,-112.9516 761.5,-131.9516 813.5,-131.9516 813.5,-112.9516 761.5,-112.9516"/>
<text text-anchor="middle" x="787.5" y="-119.9516" font-family="Helvetica,sans-Serif" font-size="10.00" fill="#000000">memory</text>
</g>
<!-- Node18&#45;&gt;Node22 -->
<g id="edge28" class="edge">
<title>Node18&#45;&gt;Node22</title>
<path fill="none" stroke="#191970" d="M397.7763,-394.5811C400.6908,-393.7727 403.6489,-393.0354 406.5,-392.4516 484.1816,-376.5451 701.2561,-408.0086 761.5,-356.4516 776.1605,-343.9051 803.0354,-207.5898 805.5,-188.4516 806.6353,-179.6355 807.1481,-177.1864 805.5,-168.4516 803.7559,-159.2082 800.2019,-149.4409 796.7091,-141.2956"/>
<polygon fill="#191970" stroke="#191970" points="799.8024,-139.6439 792.4585,-132.0073 793.4372,-142.5568 799.8024,-139.6439"/>
</g>
<!-- Node23 -->
<g id="node24" class="node">
<title>Node23</title>
<g id="a_node24"><a xlink:href="../../d7/dce/error_2error_8h.xhtml" target="_top" xlink:title="../error/error.h">
<polygon fill="#ffffff" stroke="#000000" points="415.5,-336.9516 415.5,-355.9516 491.5,-355.9516 491.5,-336.9516 415.5,-336.9516"/>
<text text-anchor="middle" x="453.5" y="-343.9516" font-family="Helvetica,sans-Serif" font-size="10.00" fill="#000000">../error/error.h</text>
</a>
</g>
</g>
<!-- Node18&#45;&gt;Node23 -->
<g id="edge29" class="edge">
<title>Node18&#45;&gt;Node23</title>
<path fill="none" stroke="#191970" d="M388.2607,-392.6972C400.1552,-384.2657 417.565,-371.9245 431.4085,-362.1114"/>
<polygon fill="#191970" stroke="#191970" points="433.7628,-364.7328 439.8969,-356.0943 429.7146,-359.022 433.7628,-364.7328"/>
</g>
<!-- Node26 -->
<g id="node27" class="node">
<title>Node26</title>
<g id="a_node27"><a xlink:href="../../d4/dd1/compiler_8h.xhtml" target="_top" xlink:title="../util/compiler.h">
<polygon fill="#ffffff" stroke="#000000" points="158.5,-56.9516 158.5,-75.9516 244.5,-75.9516 244.5,-56.9516 158.5,-56.9516"/>
<text text-anchor="middle" x="201.5" y="-63.9516" font-family="Helvetica,sans-Serif" font-size="10.00" fill="#000000">../util/compiler.h</text>
</a>
</g>
</g>
<!-- Node18&#45;&gt;Node26 -->
<g id="edge70" class="edge">
<title>Node18&#45;&gt;Node26</title>
<path fill="none" stroke="#191970" d="M366.9418,-392.8916C355.1189,-378.5649 330.8587,-351.595 304.5,-336.4516 255.4803,-308.2893 216.349,-345.7318 182.5,-300.4516 133.5773,-235.0072 172.9276,-128.565 192.3004,-85.4672"/>
<polygon fill="#191970" stroke="#191970" points="195.5865,-86.7009 196.6243,-76.1571 189.2377,-83.7524 195.5865,-86.7009"/>
</g>
<!-- Node23&#45;&gt;Node21 -->
<g id="edge33" class="edge">
<title>Node23&#45;&gt;Node21</title>
<path fill="none" stroke="#191970" d="M491.7166,-345.4399C603.2498,-341.4612 920.5,-322.4127 920.5,-234.4516 920.5,-234.4516 920.5,-234.4516 920.5,-122.4516 920.5,-82.6878 887.2929,-46.5558 864.7792,-26.6286"/>
<polygon fill="#191970" stroke="#191970" points="866.9317,-23.8644 857.0499,-20.0434 862.3921,-29.1928 866.9317,-23.8644"/>
</g>
<!-- Node23&#45;&gt;Node22 -->
<g id="edge31" class="edge">
<title>Node23&#45;&gt;Node22</title>
<path fill="none" stroke="#191970" d="M491.6295,-341.5495C564.255,-329.9264 721.0976,-293.3209 787.5,-188.4516 796.1095,-174.8546 795.2719,-156.3107 792.7618,-142.341"/>
<polygon fill="#191970" stroke="#191970" points="796.1178,-141.307 790.5388,-132.3 789.2833,-142.8202 796.1178,-141.307"/>
</g>
<!-- Node24 -->
<g id="node25" class="node">
<title>Node24</title>
<polygon fill="#ffffff" stroke="#bfbfbf" points="375.5,-56.9516 375.5,-75.9516 429.5,-75.9516 429.5,-56.9516 375.5,-56.9516"/>
<text text-anchor="middle" x="402.5" y="-63.9516" font-family="Helvetica,sans-Serif" font-size="10.00" fill="#000000">iostream</text>
</g>
<!-- Node23&#45;&gt;Node24 -->
<g id="edge30" class="edge">
<title>Node23&#45;&gt;Node24</title>
<path fill="none" stroke="#191970" d="M419.9751,-336.8906C376.0555,-322.9027 298.8451,-293.1018 249.5,-244.4516 229.541,-224.7737 227.1328,-215.6837 220.5,-188.4516 202.6707,-115.2508 324.6189,-182.9843 380.5,-132.4516 393.4926,-120.7026 398.8248,-101.0829 401.0063,-86.2813"/>
<polygon fill="#191970" stroke="#191970" points="404.5105,-86.4369 402.135,-76.1118 397.5532,-85.6647 404.5105,-86.4369"/>
</g>
<!-- Node25 -->
<g id="node26" class="node">
<title>Node25</title>
<polygon fill="#ffffff" stroke="#bfbfbf" points="192,-280.9516 192,-299.9516 251,-299.9516 251,-280.9516 192,-280.9516"/>
<text text-anchor="middle" x="221.5" y="-287.9516" font-family="Helvetica,sans-Serif" font-size="10.00" fill="#000000">stdexcept</text>
</g>
<!-- Node23&#45;&gt;Node25 -->
<g id="edge32" class="edge">
<title>Node23&#45;&gt;Node25</title>
<path fill="none" stroke="#191970" d="M415.4497,-337.2671C372.8443,-326.983 304.1275,-310.3962 260.9573,-299.9758"/>
<polygon fill="#191970" stroke="#191970" points="261.6358,-296.5391 251.0937,-297.5949 259.9933,-303.3437 261.6358,-296.5391"/>
</g>
<!-- Node23&#45;&gt;Node26 -->
<g id="edge34" class="edge">
<title>Node23&#45;&gt;Node26</title>
<path fill="none" stroke="#191970" d="M415.1565,-337.4752C374.8493,-327.6793 314.4329,-311.8707 293.5,-300.4516 260.3198,-282.3515 249.2063,-276.7039 229.5,-244.4516 198.727,-194.087 198.1046,-121.2759 199.9058,-86.4608"/>
<polygon fill="#191970" stroke="#191970" points="203.4168,-86.4029 200.5695,-76.1979 196.4314,-85.9511 203.4168,-86.4029"/>
</g>
<!-- Node29 -->
<g id="node30" class="node">
<title>Node29</title>
<g id="a_node30"><a xlink:href="../../d2/d0d/message_8h.xhtml" target="_top" xlink:title="../log/message.h">
<polygon fill="#ffffff" stroke="#000000" points="413,-280.9516 413,-299.9516 502,-299.9516 502,-280.9516 413,-280.9516"/>
<text text-anchor="middle" x="457.5" y="-287.9516" font-family="Helvetica,sans-Serif" font-size="10.00" fill="#000000">../log/message.h</text>
</a>
</g>
</g>
<!-- Node23&#45;&gt;Node29 -->
<g id="edge39" class="edge">
<title>Node23&#45;&gt;Node29</title>
<path fill="none" stroke="#191970" d="M454.1967,-336.6972C454.7187,-329.3899 455.4504,-319.146 456.0925,-310.1562"/>
<polygon fill="#191970" stroke="#191970" points="459.5898,-310.3183 456.8112,-300.0943 452.6076,-309.8195 459.5898,-310.3183"/>
</g>
<!-- Node26&#45;&gt;Node21 -->
<g id="edge36" class="edge">
<title>Node26&#45;&gt;Node21</title>
<path fill="none" stroke="#191970" d="M244.516,-61.7292C260.7941,-59.9932 279.4942,-58.0602 296.5,-56.4516 493.185,-37.8469 729.9536,-19.2638 813.4952,-12.8233"/>
<polygon fill="#191970" stroke="#191970" points="813.8792,-16.3042 823.5813,-12.0474 813.3422,-9.3248 813.8792,-16.3042"/>
</g>
<!-- Node27 -->
<g id="node28" class="node">
<title>Node27</title>
<polygon fill="#ffffff" stroke="#bfbfbf" points="219.5,-.9516 219.5,-19.9516 269.5,-19.9516 269.5,-.9516 219.5,-.9516"/>
<text text-anchor="middle" x="244.5" y="-7.9516" font-family="Helvetica,sans-Serif" font-size="10.00" fill="#000000">ciso646</text>
</g>
<!-- Node26&#45;&gt;Node27 -->
<g id="edge35" class="edge">
<title>Node26&#45;&gt;Node27</title>
<path fill="none" stroke="#191970" d="M208.99,-56.6972C215.0326,-48.8278 223.6903,-37.5526 230.9441,-28.1058"/>
<polygon fill="#191970" stroke="#191970" points="233.7815,-30.1574 237.0958,-20.0943 228.2295,-25.8942 233.7815,-30.1574"/>
</g>
<!-- Node28 -->
<g id="node29" class="node">
<title>Node28</title>
<g id="a_node29"><a xlink:href="../../d8/d39/signal_8h.xhtml" target="_top" xlink:title="signal.h">
<polygon fill="#ffffff" stroke="#000000" points="133.5,-.9516 133.5,-19.9516 183.5,-19.9516 183.5,-.9516 133.5,-.9516"/>
<text text-anchor="middle" x="158.5" y="-7.9516" font-family="Helvetica,sans-Serif" font-size="10.00" fill="#000000">signal.h</text>
</a>
</g>
</g>
<!-- Node26&#45;&gt;Node28 -->
<g id="edge37" class="edge">
<title>Node26&#45;&gt;Node28</title>
<path fill="none" stroke="#191970" d="M194.01,-56.6972C187.9674,-48.8278 179.3097,-37.5526 172.0559,-28.1058"/>
<polygon fill="#191970" stroke="#191970" points="174.7705,-25.8942 165.9042,-20.0943 169.2185,-30.1574 174.7705,-25.8942"/>
</g>
<!-- Node28&#45;&gt;Node28 -->
<g id="edge38" class="edge">
<title>Node28&#45;&gt;Node28</title>
<path fill="none" stroke="#191970" d="M177.0634,-20.0262C189.4465,-22.7213 201.5,-19.5298 201.5,-10.4516 201.5,-3.9267 195.2731,-.4429 187.1726,0"/>
<polygon fill="#191970" stroke="#191970" points="186.7234,3.4743 177.0634,-.877 187.3285,-3.4995 186.7234,3.4743"/>
</g>
<!-- Node29&#45;&gt;Node9 -->
<g id="edge40" class="edge">
<title>Node29&#45;&gt;Node9</title>
<path fill="none" stroke="#191970" d="M502.2417,-283.7523C578.2518,-272.3712 730.8954,-249.5154 798.2573,-239.4291"/>
<polygon fill="#191970" stroke="#191970" points="798.9401,-242.866 808.3115,-237.9237 797.9034,-235.9432 798.9401,-242.866"/>
</g>
<!-- Node29&#45;&gt;Node21 -->
<g id="edge41" class="edge">
<title>Node29&#45;&gt;Node21</title>
<path fill="none" stroke="#191970" d="M502.247,-287.5739C571.0585,-280.9591 703.6671,-259.2642 787.5,-188.4516 835.3499,-148.0334 843.4473,-67.3647 844.5357,-30.1257"/>
<polygon fill="#191970" stroke="#191970" points="848.0363,-30.1064 844.6847,-20.0556 841.0371,-30.0027 848.0363,-30.1064"/>
</g>
<!-- Node30 -->
<g id="node31" class="node">
<title>Node30</title>
<polygon fill="#ffffff" stroke="#bfbfbf" points="273,-224.9516 273,-243.9516 324,-243.9516 324,-224.9516 273,-224.9516"/>
<text text-anchor="middle" x="298.5" y="-231.9516" font-family="Helvetica,sans-Serif" font-size="10.00" fill="#000000">config.h</text>
</g>
<!-- Node29&#45;&gt;Node30 -->
<g id="edge42" class="edge">
<title>Node29&#45;&gt;Node30</title>
<path fill="none" stroke="#191970" d="M430.1669,-280.8249C403.5594,-271.4537 362.9938,-257.1664 333.9239,-246.928"/>
<polygon fill="#191970" stroke="#191970" points="334.7575,-243.5109 324.1627,-243.4901 332.4321,-250.1134 334.7575,-243.5109"/>
</g>
<!-- Node31 -->
<g id="node32" class="node">
<title>Node31</title>
<g id="a_node32"><a xlink:href="../../d1/d06/constexpr_8h.xhtml" target="_top" xlink:title="../util/constexpr.h">
<polygon fill="#ffffff" stroke="#000000" points="416.5,-224.9516 416.5,-243.9516 508.5,-243.9516 508.5,-224.9516 416.5,-224.9516"/>
<text text-anchor="middle" x="462.5" y="-231.9516" font-family="Helvetica,sans-Serif" font-size="10.00" fill="#000000">../util/constexpr.h</text>
</a>
</g>
</g>
<!-- Node29&#45;&gt;Node31 -->
<g id="edge43" class="edge">
<title>Node29&#45;&gt;Node31</title>
<path fill="none" stroke="#191970" d="M458.3709,-280.6972C459.0234,-273.3899 459.938,-263.146 460.7407,-254.1562"/>
<polygon fill="#191970" stroke="#191970" points="464.2358,-254.366 461.639,-244.0943 457.2635,-253.7434 464.2358,-254.366"/>
</g>
<!-- Node33 -->
<g id="node34" class="node">
<title>Node33</title>
<g id="a_node34"><a xlink:href="../../de/d65/stringformatter_8h.xhtml" target="_top" xlink:title="../util/stringformatter.h">
<polygon fill="#ffffff" stroke="#000000" points="530,-224.9516 530,-243.9516 643,-243.9516 643,-224.9516 530,-224.9516"/>
<text text-anchor="middle" x="586.5" y="-231.9516" font-family="Helvetica,sans-Serif" font-size="10.00" fill="#000000">../util/stringformatter.h</text>
</a>
</g>
</g>
<!-- Node29&#45;&gt;Node33 -->
<g id="edge45" class="edge">
<title>Node29&#45;&gt;Node33</title>
<path fill="none" stroke="#191970" d="M479.6759,-280.8249C500.4766,-271.7951 531.7917,-258.201 555.1458,-248.0627"/>
<polygon fill="#191970" stroke="#191970" points="556.8343,-251.1454 564.6135,-243.9528 554.0468,-244.7243 556.8343,-251.1454"/>
</g>
<!-- Node39 -->
<g id="node40" class="node">
<title>Node39</title>
<g id="a_node40"><a xlink:href="../../d3/d4e/logsink_8h.xhtml" target="_top" xlink:title="logsink.h">
<polygon fill="#ffffff" stroke="#000000" points="342.5,-224.9516 342.5,-243.9516 398.5,-243.9516 398.5,-224.9516 342.5,-224.9516"/>
<text text-anchor="middle" x="370.5" y="-231.9516" font-family="Helvetica,sans-Serif" font-size="10.00" fill="#000000">logsink.h</text>
</a>
</g>
</g>
<!-- Node29&#45;&gt;Node39 -->
<g id="edge61" class="edge">
<title>Node29&#45;&gt;Node39</title>
<path fill="none" stroke="#191970" d="M442.3458,-280.6972C428.9973,-272.1051 409.3414,-259.453 393.9617,-249.5534"/>
<polygon fill="#191970" stroke="#191970" points="395.7836,-246.5638 385.4806,-244.0943 391.9949,-252.4498 395.7836,-246.5638"/>
</g>
<!-- Node42 -->
<g id="node43" class="node">
<title>Node42</title>
<g id="a_node43"><a xlink:href="../../de/d09/level_8h.xhtml" target="_top" xlink:title="level.h">
<polygon fill="#ffffff" stroke="#000000" points="230,-168.9516 230,-187.9516 275,-187.9516 275,-168.9516 230,-168.9516"/>
<text text-anchor="middle" x="252.5" y="-175.9516" font-family="Helvetica,sans-Serif" font-size="10.00" fill="#000000">level.h</text>
</a>
</g>
</g>
<!-- Node29&#45;&gt;Node42 -->
<g id="edge69" class="edge">
<title>Node29&#45;&gt;Node42</title>
<path fill="none" stroke="#191970" d="M412.8814,-285.5864C362.0833,-279.1017 283.5299,-265.8849 263.5,-244.4516 252.1233,-232.2778 250.0421,-213.0261 250.4113,-198.4498"/>
<polygon fill="#191970" stroke="#191970" points="253.9079,-198.6136 251.058,-188.4093 246.9224,-198.1636 253.9079,-198.6136"/>
</g>
<!-- Node32 -->
<g id="node33" class="node">
<title>Node32</title>
<polygon fill="#ffffff" stroke="#bfbfbf" points="403,-168.9516 403,-187.9516 448,-187.9516 448,-168.9516 403,-168.9516"/>
<text text-anchor="middle" x="425.5" y="-175.9516" font-family="Helvetica,sans-Serif" font-size="10.00" fill="#000000">cstdlib</text>
</g>
<!-- Node31&#45;&gt;Node32 -->
<g id="edge44" class="edge">
<title>Node31&#45;&gt;Node32</title>
<path fill="none" stroke="#191970" d="M456.0551,-224.6972C450.9618,-216.9884 443.7092,-206.0114 437.548,-196.6864"/>
<polygon fill="#191970" stroke="#191970" points="440.3038,-194.5083 431.8711,-188.0943 434.4635,-198.3671 440.3038,-194.5083"/>
</g>
<!-- Node33&#45;&gt;Node17 -->
<g id="edge48" class="edge">
<title>Node33&#45;&gt;Node17</title>
<path fill="none" stroke="#191970" d="M614.1769,-224.8249C640.8328,-215.5533 681.3238,-201.4695 710.6884,-191.2557"/>
<polygon fill="#191970" stroke="#191970" points="711.8891,-194.5438 720.1843,-187.9528 709.5895,-187.9323 711.8891,-194.5438"/>
</g>
<!-- Node33&#45;&gt;Node22 -->
<g id="edge47" class="edge">
<title>Node33&#45;&gt;Node22</title>
<path fill="none" stroke="#191970" d="M586.4342,-224.8768C586.8774,-210.5309 589.8988,-183.5361 605.5,-168.4516 652.6165,-122.8957 684.9796,-148.5908 748.5,-132.4516 749.5501,-132.1848 750.6159,-131.9137 751.6919,-131.6397"/>
<polygon fill="#191970" stroke="#191970" points="752.6678,-135.0029 761.491,-129.1375 750.9359,-128.2205 752.6678,-135.0029"/>
</g>
<!-- Node33&#45;&gt;Node26 -->
<g id="edge49" class="edge">
<title>Node33&#45;&gt;Node26</title>
<path fill="none" stroke="#191970" d="M567.3102,-224.792C548.8823,-215.5061 520.2672,-201.0619 495.5,-188.4516 478.1409,-179.6132 475.0355,-174.4425 456.5,-168.4516 355.5402,-135.8203 300.2027,-202.4884 220.5,-132.4516 207.5097,-121.0367 203.14,-101.3725 201.7926,-86.4697"/>
<polygon fill="#191970" stroke="#191970" points="205.2741,-86.0213 201.2586,-76.2169 198.2835,-86.3855 205.2741,-86.0213"/>
</g>
<!-- Node34 -->
<g id="node35" class="node">
<title>Node34</title>
<polygon fill="#ffffff" stroke="#bfbfbf" points="614.5,-168.9516 614.5,-187.9516 660.5,-187.9516 660.5,-168.9516 614.5,-168.9516"/>
<text text-anchor="middle" x="637.5" y="-175.9516" font-family="Helvetica,sans-Serif" font-size="10.00" fill="#000000">atomic</text>
</g>
<!-- Node33&#45;&gt;Node34 -->
<g id="edge46" class="edge">
<title>Node33&#45;&gt;Node34</title>
<path fill="none" stroke="#191970" d="M595.3835,-224.6972C602.6966,-216.6672 613.2391,-205.091 621.9467,-195.5298"/>
<polygon fill="#191970" stroke="#191970" points="624.5727,-197.8444 628.7183,-188.0943 619.3972,-193.1311 624.5727,-197.8444"/>
</g>
<!-- Node35 -->
<g id="node36" class="node">
<title>Node35</title>
<g id="a_node36"><a xlink:href="../../dc/dcf/externalsstream_8h.xhtml" target="_top" xlink:title="externalsstream.h">
<polygon fill="#ffffff" stroke="#000000" points="645,-112.9516 645,-131.9516 740,-131.9516 740,-112.9516 645,-112.9516"/>
<text text-anchor="middle" x="692.5" y="-119.9516" font-family="Helvetica,sans-Serif" font-size="10.00" fill="#000000">externalsstream.h</text>
</a>
</g>
</g>
<!-- Node33&#45;&gt;Node35 -->
<g id="edge50" class="edge">
<title>Node33&#45;&gt;Node35</title>
<path fill="none" stroke="#191970" d="M614.5995,-224.9011C632.5428,-217.4995 655.0655,-205.5881 669.5,-188.4516 680.6029,-175.2704 686.4656,-156.3996 689.485,-142.2099"/>
<polygon fill="#191970" stroke="#191970" points="692.9902,-142.4976 691.3427,-132.0317 686.104,-141.2407 692.9902,-142.4976"/>
</g>
<!-- Node36 -->
<g id="node37" class="node">
<title>Node36</title>
<g id="a_node37"><a xlink:href="../../d6/d90/strings_8h.xhtml" target="_top" xlink:title="strings.h">
<polygon fill="#ffffff" stroke="#000000" points="504.5,-168.9516 504.5,-187.9516 558.5,-187.9516 558.5,-168.9516 504.5,-168.9516"/>
<text text-anchor="middle" x="531.5" y="-175.9516" font-family="Helvetica,sans-Serif" font-size="10.00" fill="#000000">strings.h</text>
</a>
</g>
</g>
<!-- Node33&#45;&gt;Node36 -->
<g id="edge53" class="edge">
<title>Node33&#45;&gt;Node36</title>
<path fill="none" stroke="#191970" d="M576.9197,-224.6972C568.9542,-216.5869 557.4359,-204.8591 547.9921,-195.2435"/>
<polygon fill="#191970" stroke="#191970" points="550.4747,-192.7763 540.9705,-188.0943 545.4805,-197.6813 550.4747,-192.7763"/>
</g>
<!-- Node35&#45;&gt;Node21 -->
<g id="edge52" class="edge">
<title>Node35&#45;&gt;Node21</title>
<path fill="none" stroke="#191970" d="M705.4594,-112.9026C731.7086,-93.5611 791.3726,-49.5982 823.3416,-26.042"/>
<polygon fill="#191970" stroke="#191970" points="825.599,-28.7263 831.5734,-19.9765 821.4466,-23.0908 825.599,-28.7263"/>
</g>
<!-- Node35&#45;&gt;Node24 -->
<g id="edge51" class="edge">
<title>Node35&#45;&gt;Node24</title>
<path fill="none" stroke="#191970" d="M644.9371,-113.2671C587.3908,-102.1547 491.7355,-83.6833 439.4374,-73.5844"/>
<polygon fill="#191970" stroke="#191970" points="440.0622,-70.1404 429.58,-71.6809 438.735,-77.0135 440.0622,-70.1404"/>
</g>
<!-- Node36&#45;&gt;Node1 -->
<g id="edge55" class="edge">
<title>Node36&#45;&gt;Node1</title>
<path fill="none" stroke="#191970" d="M504.4433,-174.6764C490.1901,-172.7301 472.4109,-170.3691 456.5,-168.4516 314.0397,-151.2835 144.4584,-133.9318 69.0411,-126.3746"/>
<polygon fill="#191970" stroke="#191970" points="69.3356,-122.8867 59.037,-125.3744 68.6391,-129.852 69.3356,-122.8867"/>
</g>
<!-- Node36&#45;&gt;Node4 -->
<g id="edge60" class="edge">
<title>Node36&#45;&gt;Node4</title>
<path fill="none" stroke="#191970" d="M558.5403,-174.6159C572.5439,-172.6756 589.9274,-170.3384 605.5,-168.4516 753.3285,-150.5411 930.2617,-132.7083 1001.9541,-125.6329"/>
<polygon fill="#191970" stroke="#191970" points="1002.5359,-129.0926 1012.1449,-124.6297 1001.8501,-122.1263 1002.5359,-129.0926"/>
</g>
<!-- Node36&#45;&gt;Node14 -->
<g id="edge56" class="edge">
<title>Node36&#45;&gt;Node14</title>
<path fill="none" stroke="#191970" d="M504.2074,-171.5417C499.6416,-170.4586 494.9448,-169.3888 490.5,-168.4516 404.3193,-150.2811 378.9828,-153.1214 289.424,-132.4711"/>
<polygon fill="#191970" stroke="#191970" points="290.2034,-129.059 279.6689,-130.1885 288.6085,-135.8749 290.2034,-129.059"/>
</g>
<!-- Node36&#45;&gt;Node21 -->
<g id="edge59" class="edge">
<title>Node36&#45;&gt;Node21</title>
<path fill="none" stroke="#191970" d="M520.1258,-168.9199C505.5608,-155.5535 483.7534,-130.8206 497.5,-112.4516 536.1271,-60.8359 736.0439,-26.398 813.6519,-14.7897"/>
<polygon fill="#191970" stroke="#191970" points="814.3767,-18.2209 823.7615,-13.3039 813.3588,-11.2953 814.3767,-18.2209"/>
</g>
<!-- Node36&#45;&gt;Node22 -->
<g id="edge57" class="edge">
<title>Node36&#45;&gt;Node22</title>
<path fill="none" stroke="#191970" d="M558.8137,-171.6389C563.377,-170.544 568.0674,-169.4452 572.5,-168.4516 650.4088,-150.9891 670.6954,-150.3724 748.5,-132.4516 749.394,-132.2457 750.2989,-132.0346 751.2111,-131.8194"/>
<polygon fill="#191970" stroke="#191970" points="752.2236,-135.1752 761.1098,-129.4058 750.5653,-128.3744 752.2236,-135.1752"/>
</g>
<!-- Node37 -->
<g id="node38" class="node">
<title>Node37</title>
<polygon fill="#ffffff" stroke="#bfbfbf" points="507,-112.9516 507,-131.9516 556,-131.9516 556,-112.9516 507,-112.9516"/>
<text text-anchor="middle" x="531.5" y="-119.9516" font-family="Helvetica,sans-Serif" font-size="10.00" fill="#000000">cstdarg</text>
</g>
<!-- Node36&#45;&gt;Node37 -->
<g id="edge54" class="edge">
<title>Node36&#45;&gt;Node37</title>
<path fill="none" stroke="#191970" d="M531.5,-168.6972C531.5,-161.3899 531.5,-151.146 531.5,-142.1562"/>
<polygon fill="#191970" stroke="#191970" points="535.0001,-142.0943 531.5,-132.0943 528.0001,-142.0943 535.0001,-142.0943"/>
</g>
<!-- Node38 -->
<g id="node39" class="node">
<title>Node38</title>
<polygon fill="#ffffff" stroke="#bfbfbf" points="574.5,-112.9516 574.5,-131.9516 626.5,-131.9516 626.5,-112.9516 574.5,-112.9516"/>
<text text-anchor="middle" x="600.5" y="-119.9516" font-family="Helvetica,sans-Serif" font-size="10.00" fill="#000000">sstream</text>
</g>
<!-- Node36&#45;&gt;Node38 -->
<g id="edge58" class="edge">
<title>Node36&#45;&gt;Node38</title>
<path fill="none" stroke="#191970" d="M543.5189,-168.6972C553.7098,-160.4263 568.5362,-148.3933 580.5107,-138.6749"/>
<polygon fill="#191970" stroke="#191970" points="583.0598,-141.1136 588.6188,-132.0943 578.6486,-135.6784 583.0598,-141.1136"/>
</g>
<!-- Node40 -->
<g id="node41" class="node">
<title>Node40</title>
<polygon fill="#ffffff" stroke="#bfbfbf" points="356,-168.9516 356,-187.9516 385,-187.9516 385,-168.9516 356,-168.9516"/>
<text text-anchor="middle" x="370.5" y="-175.9516" font-family="Helvetica,sans-Serif" font-size="10.00" fill="#000000">list</text>
</g>
<!-- Node39&#45;&gt;Node40 -->
<g id="edge62" class="edge">
<title>Node39&#45;&gt;Node40</title>
<path fill="none" stroke="#191970" d="M370.5,-224.6972C370.5,-217.3899 370.5,-207.146 370.5,-198.1562"/>
<polygon fill="#191970" stroke="#191970" points="374.0001,-198.0943 370.5,-188.0943 367.0001,-198.0943 374.0001,-198.0943"/>
</g>
<!-- Node41 -->
<g id="node42" class="node">
<title>Node41</title>
<polygon fill="#ffffff" stroke="#bfbfbf" points="293.5,-168.9516 293.5,-187.9516 337.5,-187.9516 337.5,-168.9516 293.5,-168.9516"/>
<text text-anchor="middle" x="315.5" y="-175.9516" font-family="Helvetica,sans-Serif" font-size="10.00" fill="#000000">mutex</text>
</g>
<!-- Node39&#45;&gt;Node41 -->
<g id="edge63" class="edge">
<title>Node39&#45;&gt;Node41</title>
<path fill="none" stroke="#191970" d="M360.9197,-224.6972C352.9542,-216.5869 341.4359,-204.8591 331.9921,-195.2435"/>
<polygon fill="#191970" stroke="#191970" points="334.4747,-192.7763 324.9705,-188.0943 329.4805,-197.6813 334.4747,-192.7763"/>
</g>
<!-- Node39&#45;&gt;Node42 -->
<g id="edge64" class="edge">
<title>Node39&#45;&gt;Node42</title>
<path fill="none" stroke="#191970" d="M350.2151,-224.8249C331.3579,-215.8757 303.054,-202.4434 281.7545,-192.3351"/>
<polygon fill="#191970" stroke="#191970" points="283.0551,-189.0783 272.5202,-187.9528 280.0539,-195.4022 283.0551,-189.0783"/>
</g>
<!-- Node43 -->
<g id="node44" class="node">
<title>Node43</title>
<g id="a_node44"><a xlink:href="../../d0/d9b/enum_8h.xhtml" target="_top" xlink:title="../util/enum.h">
<polygon fill="#ffffff" stroke="#000000" points="297.5,-112.9516 297.5,-131.9516 371.5,-131.9516 371.5,-112.9516 297.5,-112.9516"/>
<text text-anchor="middle" x="334.5" y="-119.9516" font-family="Helvetica,sans-Serif" font-size="10.00" fill="#000000">../util/enum.h</text>
</a>
</g>
</g>
<!-- Node42&#45;&gt;Node43 -->
<g id="edge65" class="edge">
<title>Node42&#45;&gt;Node43</title>
<path fill="none" stroke="#191970" d="M266.7833,-168.6972C279.247,-160.1854 297.5451,-147.6891 311.9792,-137.8317"/>
<polygon fill="#191970" stroke="#191970" points="314.0962,-140.6243 320.3804,-132.0943 310.1485,-134.8437 314.0962,-140.6243"/>
</g>
<!-- Node43&#45;&gt;Node24 -->
<g id="edge66" class="edge">
<title>Node43&#45;&gt;Node24</title>
<path fill="none" stroke="#191970" d="M346.3447,-112.6972C356.388,-104.4263 370.9995,-92.3933 382.8004,-82.6749"/>
<polygon fill="#191970" stroke="#191970" points="385.2967,-85.1532 390.791,-76.0943 380.8467,-79.7497 385.2967,-85.1532"/>
</g>
<!-- Node43&#45;&gt;Node26 -->
<g id="edge68" class="edge">
<title>Node43&#45;&gt;Node26</title>
<path fill="none" stroke="#191970" d="M311.6365,-112.8249C290.095,-103.7548 257.6162,-90.0795 233.5044,-79.9272"/>
<polygon fill="#191970" stroke="#191970" points="234.6397,-76.6077 224.0652,-75.9528 231.9233,-83.0591 234.6397,-76.6077"/>
</g>
<!-- Node44 -->
<g id="node45" class="node">
<title>Node44</title>
<polygon fill="#ffffff" stroke="#bfbfbf" points="306,-56.9516 306,-75.9516 357,-75.9516 357,-56.9516 306,-56.9516"/>
<text text-anchor="middle" x="331.5" y="-63.9516" font-family="Helvetica,sans-Serif" font-size="10.00" fill="#000000">typeinfo</text>
</g>
<!-- Node43&#45;&gt;Node44 -->
<g id="edge67" class="edge">
<title>Node43&#45;&gt;Node44</title>
<path fill="none" stroke="#191970" d="M333.9774,-112.6972C333.586,-105.3899 333.0372,-95.146 332.5556,-86.1562"/>
<polygon fill="#191970" stroke="#191970" points="336.0466,-85.8927 332.0166,-76.0943 329.0566,-86.2673 336.0466,-85.8927"/>
</g>
<!-- Node45&#45;&gt;Node3 -->
<g id="edge72" class="edge">
<title>Node45&#45;&gt;Node3</title>
<path fill="none" stroke="#191970" d="M934.9062,-568.2903C874.0676,-562.7948 711.4825,-547.2021 566.1831,-524.6224"/>
<polygon fill="#191970" stroke="#191970" points="566.618,-521.1479 556.1963,-523.055 565.5326,-528.0633 566.618,-521.1479"/>
</g>
<!-- Node45&#45;&gt;Node4 -->
<g id="edge74" class="edge">
<title>Node45&#45;&gt;Node4</title>
<path fill="none" stroke="#191970" d="M984.2294,-564.4469C1005.5478,-558.0199 1035.6346,-545.7486 1053.5,-524.4516 1073.1177,-501.0658 1072.5,-488.9763 1072.5,-458.4516 1072.5,-458.4516 1072.5,-458.4516 1072.5,-234.4516 1072.5,-200.0634 1056.2366,-162.7348 1044.989,-141.0307"/>
<polygon fill="#191970" stroke="#191970" points="1047.931,-139.1121 1040.107,-131.9682 1041.7683,-142.432 1047.931,-139.1121"/>
</g>
<!-- Node45&#45;&gt;Node21 -->
<g id="edge75" class="edge">
<title>Node45&#45;&gt;Node21</title>
<path fill="none" stroke="#191970" d="M958.1955,-560.626C956.8473,-547.3419 955.8807,-523.1635 963.5,-504.4516 1010.9136,-388.0104 1148.5,-416.176 1148.5,-290.4516 1148.5,-290.4516 1148.5,-290.4516 1148.5,-122.4516 1148.5,-64.7037 952.9092,-27.5371 875.5008,-15.0891"/>
<polygon fill="#191970" stroke="#191970" points="875.818,-11.596 865.3952,-13.4971 874.7286,-18.5107 875.818,-11.596"/>
</g>
<!-- Node46 -->
<g id="node47" class="node">
<title>Node46</title>
<polygon fill="#ffffff" stroke="#bfbfbf" points="1100.5,-504.9516 1100.5,-523.9516 1178.5,-523.9516 1178.5,-504.9516 1100.5,-504.9516"/>
<text text-anchor="middle" x="1139.5" y="-511.9516" font-family="Helvetica,sans-Serif" font-size="10.00" fill="#000000">unordered_set</text>
</g>
<!-- Node45&#45;&gt;Node46 -->
<g id="edge73" class="edge">
<title>Node45&#45;&gt;Node46</title>
<path fill="none" stroke="#191970" d="M984.1508,-562.7825C1013.6833,-553.5946 1063.5839,-538.07 1098.8502,-527.0982"/>
<polygon fill="#191970" stroke="#191970" points="1100.3236,-530.3054 1108.8324,-523.9927 1098.2441,-523.6214 1100.3236,-530.3054"/>
</g>
<!-- Node47 -->
<g id="node48" class="node">
<title>Node47</title>
<polygon fill="#ffffff" stroke="#bfbfbf" points="972.5,-504.9516 972.5,-523.9516 1044.5,-523.9516 1044.5,-504.9516 972.5,-504.9516"/>
<text text-anchor="middle" x="1008.5" y="-511.9516" font-family="Helvetica,sans-Serif" font-size="10.00" fill="#000000">SDL2/SDL.h</text>
</g>
<!-- Node45&#45;&gt;Node47 -->
<g id="edge76" class="edge">
<title>Node45&#45;&gt;Node47</title>
<path fill="none" stroke="#191970" d="M968.0351,-560.6972C974.9912,-552.7475 984.9883,-541.3222 993.3051,-531.8172"/>
<polygon fill="#191970" stroke="#191970" points="996.1116,-533.9249 1000.0627,-524.0943 990.8436,-529.3153 996.1116,-533.9249"/>
</g>
</g>
</svg>
