<?xml version="1.0" encoding="UTF-8" standalone="no"?>
<!DOCTYPE svg PUBLIC "-//W3C//DTD SVG 1.1//EN"
 "http://www.w3.org/Graphics/SVG/1.1/DTD/svg11.dtd">
<!-- Generated by graphviz version 2.40.1 (20161225.0304)
 -->
<!-- Title: openage::util::fslike::Python::writable Pages: 1 -->
<svg width="282pt" height="88pt"
 viewBox="0.00 0.00 282.00 88.00" xmlns="http://www.w3.org/2000/svg" xmlns:xlink="http://www.w3.org/1999/xlink">
<g id="graph0" class="graph" transform="scale(1 1) rotate(0) translate(4 84)">
<title>openage::util::fslike::Python::writable</title>
<polygon fill="#ffffff" stroke="transparent" points="-4,4 -4,-84 278,-84 278,4 -4,4"/>
<!-- Node58 -->
<g id="node1" class="node">
<title>Node58</title>
<polygon fill="#bfbfbf" stroke="#000000" points="0,-24.5 0,-54.5 101,-54.5 101,-24.5 0,-24.5"/>
<text text-anchor="start" x="8" y="-42.5" font-family="Helvetica,sans-Serif" font-size="10.00" fill="#000000">openage::util::fslike</text>
<text text-anchor="middle" x="50.5" y="-31.5" font-family="Helvetica,sans-Serif" font-size="10.00" fill="#000000">::Python::writable</text>
</g>
<!-- Node59 -->
<g id="node2" class="node">
<title>Node59</title>
<g id="a_node2"><a xlink:href="../../db/d90/classopenage_1_1util_1_1fslike_1_1wrapper_1_1_wrapper.xhtml#a9477182385b8db4a3b2874a9360b690f" target="_top" xlink:title="openage.util.fslike.wrapper.\lWrapper.resolve_w">
<polygon fill="#ffffff" stroke="#000000" points="137.5,-49.5 137.5,-79.5 273.5,-79.5 273.5,-49.5 137.5,-49.5"/>
<text text-anchor="start" x="145.5" y="-67.5" font-family="Helvetica,sans-Serif" font-size="10.00" fill="#000000">openage.util.fslike.wrapper.</text>
<text text-anchor="middle" x="205.5" y="-56.5" font-family="Helvetica,sans-Serif" font-size="10.00" fill="#000000">Wrapper.resolve_w</text>
</a>
</g>
</g>
<!-- Node58&#45;&gt;Node59 -->
<g id="edge1" class="edge">
<title>Node58&#45;&gt;Node59</title>
<path fill="none" stroke="#191970" d="M111.1994,-49.2902C119.8093,-50.6789 128.7099,-52.1145 137.4478,-53.5238"/>
<polygon fill="#191970" stroke="#191970" points="111.6826,-45.823 101.2528,-47.6859 110.5679,-52.7337 111.6826,-45.823"/>
</g>
<!-- Node60 -->
<g id="node3" class="node">
<title>Node60</title>
<g id="a_node3"><a xlink:href="../../d3/d76/classopenage_1_1util_1_1fslike_1_1abstract_1_1_f_s_like_object.xhtml#a255427aef3f55eea705114af7d7c107f" target="_top" xlink:title="Returns a new flattened path. ">
<polygon fill="#ffffff" stroke="#000000" points="137,-.5 137,-30.5 274,-30.5 274,-.5 137,-.5"/>
<text text-anchor="start" x="145" y="-18.5" font-family="Helvetica,sans-Serif" font-size="10.00" fill="#000000">openage.util.fslike.abstract.</text>
<text text-anchor="middle" x="205.5" y="-7.5" font-family="Helvetica,sans-Serif" font-size="10.00" fill="#000000">FSLikeObject.resolve_w</text>
</a>
</g>
</g>
<!-- Node58&#45;&gt;Node60 -->
<g id="edge2" class="edge">
<title>Node58&#45;&gt;Node60</title>
<path fill="none" stroke="#191970" d="M111.3216,-30.0825C119.7106,-28.7835 128.3733,-27.4422 136.8908,-26.1234"/>
<polygon fill="#191970" stroke="#191970" points="110.5995,-26.6525 101.2528,-31.6415 111.6706,-33.5701 110.5995,-26.6525"/>
</g>
</g>
</svg>
