<?xml version="1.0" encoding="UTF-8" standalone="no"?>
<!DOCTYPE svg PUBLIC "-//W3C//DTD SVG 1.1//EN"
 "http://www.w3.org/Graphics/SVG/1.1/DTD/svg11.dtd">
<!-- Generated by graphviz version 2.40.1 (20161225.0304)
 -->
<!-- Title: /mnt/c/Users/Jameson/Desktop/git/openage&#45;new&#45;doc&#45;system/libopenage/util/enum.h Pages: 1 -->
<svg width="288pt" height="173pt"
 viewBox="0.00 0.00 288.00 173.45" xmlns="http://www.w3.org/2000/svg" xmlns:xlink="http://www.w3.org/1999/xlink">
<g id="graph0" class="graph" transform="scale(1 1) rotate(0) translate(4 169.4516)">
<title>/mnt/c/Users/Jameson/Desktop/git/openage&#45;new&#45;doc&#45;system/libopenage/util/enum.h</title>
<polygon fill="#ffffff" stroke="transparent" points="-4,4 -4,-169.4516 284,-169.4516 284,4 -4,4"/>
<!-- Node0 -->
<g id="node1" class="node">
<title>Node0</title>
<polygon fill="#bfbfbf" stroke="#000000" points="27.5,-112.9516 27.5,-164.9516 168.5,-164.9516 168.5,-112.9516 27.5,-112.9516"/>
<text text-anchor="start" x="35.5" y="-152.9516" font-family="Helvetica,sans-Serif" font-size="10.00" fill="#000000">/mnt/c/Users/Jameson</text>
<text text-anchor="start" x="35.5" y="-141.9516" font-family="Helvetica,sans-Serif" font-size="10.00" fill="#000000">/Desktop/git/openage</text>
<text text-anchor="start" x="35.5" y="-130.9516" font-family="Helvetica,sans-Serif" font-size="10.00" fill="#000000">&#45;new&#45;doc&#45;system/libopenage</text>
<text text-anchor="middle" x="98" y="-119.9516" font-family="Helvetica,sans-Serif" font-size="10.00" fill="#000000">/util/enum.h</text>
</g>
<!-- Node1 -->
<g id="node2" class="node">
<title>Node1</title>
<polygon fill="#ffffff" stroke="#bfbfbf" points="0,-56.9516 0,-75.9516 54,-75.9516 54,-56.9516 0,-56.9516"/>
<text text-anchor="middle" x="27" y="-63.9516" font-family="Helvetica,sans-Serif" font-size="10.00" fill="#000000">iostream</text>
</g>
<!-- Node0&#45;&gt;Node1 -->
<g id="edge1" class="edge">
<title>Node0&#45;&gt;Node1</title>
<path fill="none" stroke="#191970" d="M72.3674,-112.7775C62.7574,-102.9645 52.0995,-92.0814 43.5298,-83.3307"/>
<polygon fill="#191970" stroke="#191970" points="45.8342,-80.6814 36.3367,-75.9856 40.8329,-85.5791 45.8342,-80.6814"/>
</g>
<!-- Node2 -->
<g id="node3" class="node">
<title>Node2</title>
<polygon fill="#ffffff" stroke="#bfbfbf" points="72.5,-56.9516 72.5,-75.9516 123.5,-75.9516 123.5,-56.9516 72.5,-56.9516"/>
<text text-anchor="middle" x="98" y="-63.9516" font-family="Helvetica,sans-Serif" font-size="10.00" fill="#000000">typeinfo</text>
</g>
<!-- Node0&#45;&gt;Node2 -->
<g id="edge2" class="edge">
<title>Node0&#45;&gt;Node2</title>
<path fill="none" stroke="#191970" d="M98,-112.7775C98,-103.9658 98,-94.2913 98,-86.0727"/>
<polygon fill="#191970" stroke="#191970" points="101.5001,-85.9856 98,-75.9856 94.5001,-85.9857 101.5001,-85.9856"/>
</g>
<!-- Node3 -->
<g id="node4" class="node">
<title>Node3</title>
<g id="a_node4"><a xlink:href="../../d4/dd1/compiler_8h.xhtml" target="_top" xlink:title="compiler.h">
<polygon fill="#ffffff" stroke="#000000" points="142,-56.9516 142,-75.9516 204,-75.9516 204,-56.9516 142,-56.9516"/>
<text text-anchor="middle" x="173" y="-63.9516" font-family="Helvetica,sans-Serif" font-size="10.00" fill="#000000">compiler.h</text>
</a>
</g>
</g>
<!-- Node0&#45;&gt;Node3 -->
<g id="edge3" class="edge">
<title>Node0&#45;&gt;Node3</title>
<path fill="none" stroke="#191970" d="M125.0767,-112.7775C135.3317,-102.8643 146.7163,-91.8592 155.8153,-83.0635"/>
<polygon fill="#191970" stroke="#191970" points="158.3799,-85.4524 163.1372,-75.9856 153.5147,-80.4194 158.3799,-85.4524"/>
</g>
<!-- Node4 -->
<g id="node5" class="node">
<title>Node4</title>
<polygon fill="#ffffff" stroke="#bfbfbf" points="84,-.9516 84,-19.9516 134,-19.9516 134,-.9516 84,-.9516"/>
<text text-anchor="middle" x="109" y="-7.9516" font-family="Helvetica,sans-Serif" font-size="10.00" fill="#000000">ciso646</text>
</g>
<!-- Node3&#45;&gt;Node4 -->
<g id="edge4" class="edge">
<title>Node3&#45;&gt;Node4</title>
<path fill="none" stroke="#191970" d="M161.8521,-56.6972C152.4913,-48.5066 138.9142,-36.6266 127.8651,-26.9586"/>
<polygon fill="#191970" stroke="#191970" points="129.8508,-24.0454 120.0202,-20.0943 125.2412,-29.3134 129.8508,-24.0454"/>
</g>
<!-- Node5 -->
<g id="node6" class="node">
<title>Node5</title>
<polygon fill="#ffffff" stroke="#bfbfbf" points="152.5,-.9516 152.5,-19.9516 193.5,-19.9516 193.5,-.9516 152.5,-.9516"/>
<text text-anchor="middle" x="173" y="-7.9516" font-family="Helvetica,sans-Serif" font-size="10.00" fill="#000000">string</text>
</g>
<!-- Node3&#45;&gt;Node5 -->
<g id="edge5" class="edge">
<title>Node3&#45;&gt;Node5</title>
<path fill="none" stroke="#191970" d="M173,-56.6972C173,-49.3899 173,-39.146 173,-30.1562"/>
<polygon fill="#191970" stroke="#191970" points="176.5001,-30.0943 173,-20.0943 169.5001,-30.0943 176.5001,-30.0943"/>
</g>
<!-- Node6 -->
<g id="node7" class="node">
<title>Node6</title>
<g id="a_node7"><a xlink:href="../../d8/d39/signal_8h.xhtml" target="_top" xlink:title="signal.h">
<polygon fill="#ffffff" stroke="#000000" points="212,-.9516 212,-19.9516 262,-19.9516 262,-.9516 212,-.9516"/>
<text text-anchor="middle" x="237" y="-7.9516" font-family="Helvetica,sans-Serif" font-size="10.00" fill="#000000">signal.h</text>
</a>
</g>
</g>
<!-- Node3&#45;&gt;Node6 -->
<g id="edge6" class="edge">
<title>Node3&#45;&gt;Node6</title>
<path fill="none" stroke="#191970" d="M184.1479,-56.6972C193.5087,-48.5066 207.0858,-36.6266 218.1349,-26.9586"/>
<polygon fill="#191970" stroke="#191970" points="220.7588,-29.3134 225.9798,-20.0943 216.1492,-24.0454 220.7588,-29.3134"/>
</g>
<!-- Node6&#45;&gt;Node6 -->
<g id="edge7" class="edge">
<title>Node6&#45;&gt;Node6</title>
<path fill="none" stroke="#191970" d="M255.5634,-20.0262C267.9465,-22.7213 280,-19.5298 280,-10.4516 280,-3.9267 273.7731,-.4429 265.6726,0"/>
<polygon fill="#191970" stroke="#191970" points="265.2234,3.4743 255.5634,-.877 265.8285,-3.4995 265.2234,3.4743"/>
</g>
</g>
</svg>
