<?xml version="1.0" encoding="UTF-8" standalone="no"?>
<!DOCTYPE svg PUBLIC "-//W3C//DTD SVG 1.1//EN"
 "http://www.w3.org/Graphics/SVG/1.1/DTD/svg11.dtd">
<!-- Generated by graphviz version 2.40.1 (20161225.0304)
 -->
<!-- Title: openage::coord::camgame::to_viewport Pages: 1 -->
<!--zoomable 209 -->
<svg id="main" version="1.1" xmlns="http://www.w3.org/2000/svg" xmlns:xlink="http://www.w3.org/1999/xlink" xml:space="preserve" onload="init(evt)">
<style type="text/css"><![CDATA[
.edge:hover path { stroke: red; }
.edge:hover polygon { stroke: red; fill: red; }
]]></style>
<script type="text/javascript"><![CDATA[
var edges = document.getElementsByTagName('g');
if (edges && edges.length) {
  for (var i=0;i<edges.length;i++) {
    if (edges[i].id.substr(0,4)=='edge') {
      edges[i].setAttribute('class','edge');
    }
  }
}
]]></script>
        <defs>
                <circle id="rim" cx="0" cy="0" r="7"/>
                <circle id="rim2" cx="0" cy="0" r="3.5"/>
                <g id="zoomPlus">
                        <use xlink:href="#rim" fill="#404040">
                                <set attributeName="fill" to="#808080" begin="zoomplus.mouseover" end="zoomplus.mouseout"/>
                        </use>
                        <path d="M-4,0h8M0,-4v8" fill="none" stroke="white" stroke-width="1.5" pointer-events="none"/>
                </g>
                <g id="zoomMin">
                        <use xlink:href="#rim" fill="#404040">
                                <set attributeName="fill" to="#808080" begin="zoomminus.mouseover" end="zoomminus.mouseout"/>
                        </use>
                        <path d="M-4,0h8" fill="none" stroke="white" stroke-width="1.5" pointer-events="none"/>
                </g>
                <g id="dirArrow">
                        <path fill="none" stroke="white" stroke-width="1.5" d="M0,-3.0v7 M-2.5,-0.5L0,-3.0L2.5,-0.5"/>
                </g>
               <g id="resetDef">
                       <use xlink:href="#rim2" fill="#404040">
                               <set attributeName="fill" to="#808080" begin="reset.mouseover" end="reset.mouseout"/>
                       </use>
               </g>
        </defs>

<script type="text/javascript">
var viewWidth = 597;
var viewHeight = 209;
var sectionId = 'dynsection-7';
</script>
<script xlink:href="../../svgpan.js"/>
<svg id="graph" class="graph">
<g id="viewport">
<title>openage::coord::camgame::to_viewport</title>
<polygon fill="#ffffff" stroke="transparent" points="-4,4 -4,-205 593,-205 593,4 -4,4"/>
<!-- Node21 -->
<g id="node1" class="node">
<title>Node21</title>
<polygon fill="#bfbfbf" stroke="#000000" points="0,-110 0,-140 132,-140 132,-110 0,-110"/>
<text text-anchor="start" x="8" y="-128" font-family="Helvetica,sans-Serif" font-size="10.00" fill="#000000">openage::coord::camgame</text>
<text text-anchor="middle" x="66" y="-117" font-family="Helvetica,sans-Serif" font-size="10.00" fill="#000000">::to_viewport</text>
</g>
<!-- Node22 -->
<g id="node2" class="node">
<title>Node22</title>
<g id="a_node2"><a xlink:href="../../d4/d5b/classopenage_1_1_texture.xhtml#a6537758244bbe7b99bda2de4a337fb4d" target="_top" xlink:title="Draws the texture at game coordinates. ">
<polygon fill="#ffffff" stroke="#000000" points="168,-181.5 168,-200.5 287,-200.5 287,-181.5 168,-181.5"/>
<text text-anchor="middle" x="227.5" y="-188.5" font-family="Helvetica,sans-Serif" font-size="10.00" fill="#000000">openage::Texture::draw</text>
</a>
</g>
</g>
<!-- Node21&#45;&gt;Node22 -->
<g id="edge1" class="edge">
<title>Node21&#45;&gt;Node22</title>
<path fill="none" stroke="#191970" d="M105.4831,-144.567C124.1994,-153.486 147.0097,-163.848 168,-172 176.6931,-175.3761 186.2603,-178.6281 195.1333,-181.4584"/>
<polygon fill="#191970" stroke="#191970" points="106.9048,-141.367 96.3758,-140.1876 103.8712,-147.6756 106.9048,-141.367"/>
</g>
<!-- Node23 -->
<g id="node3" class="node">
<title>Node23</title>
<g id="a_node3"><a xlink:href="../../d9/de2/classopenage_1_1_unit_selection.xhtml#a0a21b9382975a037b94a1331628b320c" target="_top" xlink:title="execute the drawing action. ">
<polygon fill="#ffffff" stroke="#000000" points="323.5,-88 323.5,-118 441.5,-118 441.5,-88 323.5,-88"/>
<text text-anchor="start" x="331.5" y="-106" font-family="Helvetica,sans-Serif" font-size="10.00" fill="#000000">openage::UnitSelection</text>
<text text-anchor="middle" x="382.5" y="-95" font-family="Helvetica,sans-Serif" font-size="10.00" fill="#000000">::on_drawhud</text>
</a>
</g>
</g>
<!-- Node21&#45;&gt;Node23 -->
<g id="edge2" class="edge">
<title>Node21&#45;&gt;Node23</title>
<path fill="none" stroke="#191970" d="M142.5101,-119.6818C198.1397,-115.8149 272.3449,-110.6569 323.4378,-107.1054"/>
<polygon fill="#191970" stroke="#191970" points="142.082,-116.203 132.3488,-120.3881 142.5674,-123.1861 142.082,-116.203"/>
</g>
<!-- Node25 -->
<g id="node5" class="node">
<title>Node25</title>
<g id="a_node5"><a xlink:href="../../d5/d10/structopenage_1_1coord_1_1tile.xhtml#a3f2be2b38a339e563ea0fa96733250ec" target="_top" xlink:title="openage::coord::tile\l::to_viewport">
<polygon fill="#ffffff" stroke="#000000" points="176.5,-132 176.5,-162 278.5,-162 278.5,-132 176.5,-132"/>
<text text-anchor="start" x="184.5" y="-150" font-family="Helvetica,sans-Serif" font-size="10.00" fill="#000000">openage::coord::tile</text>
<text text-anchor="middle" x="227.5" y="-139" font-family="Helvetica,sans-Serif" font-size="10.00" fill="#000000">::to_viewport</text>
</a>
</g>
</g>
<!-- Node21&#45;&gt;Node25 -->
<g id="edge4" class="edge">
<title>Node21&#45;&gt;Node25</title>
<path fill="none" stroke="#191970" d="M142.1796,-135.3774C153.6506,-136.94 165.2449,-138.5194 176.0327,-139.989"/>
<polygon fill="#191970" stroke="#191970" points="142.5351,-131.8936 132.1542,-134.0117 141.5903,-138.8295 142.5351,-131.8936"/>
</g>
<!-- Node27 -->
<g id="node7" class="node">
<title>Node27</title>
<g id="a_node7"><a xlink:href="../../d2/da4/structopenage_1_1coord_1_1phys3.xhtml#afb7742fe4e2f67064992aed454d75ef2" target="_top" xlink:title="openage::coord::phys3\l::to_viewport">
<polygon fill="#ffffff" stroke="#000000" points="169.5,-42 169.5,-72 285.5,-72 285.5,-42 169.5,-42"/>
<text text-anchor="start" x="177.5" y="-60" font-family="Helvetica,sans-Serif" font-size="10.00" fill="#000000">openage::coord::phys3</text>
<text text-anchor="middle" x="227.5" y="-49" font-family="Helvetica,sans-Serif" font-size="10.00" fill="#000000">::to_viewport</text>
</a>
</g>
</g>
<!-- Node21&#45;&gt;Node27 -->
<g id="edge6" class="edge">
<title>Node21&#45;&gt;Node27</title>
<path fill="none" stroke="#191970" d="M111.2808,-105.9344C136.7312,-95.2184 168.048,-82.0324 191.7581,-72.0492"/>
<polygon fill="#191970" stroke="#191970" points="109.7002,-102.8022 101.8421,-109.9086 112.4167,-109.2537 109.7002,-102.8022"/>
</g>
<!-- Node24 -->
<g id="node4" class="node">
<title>Node24</title>
<g id="a_node4"><a xlink:href="../../d8/d06/classopenage_1_1_action_mode.xhtml#aab55848d4a5495b982df54fe1d41865b" target="_top" xlink:title="Display this mode. ">
<polygon fill="#ffffff" stroke="#000000" points="478,-63 478,-93 589,-93 589,-63 478,-63"/>
<text text-anchor="start" x="486" y="-81" font-family="Helvetica,sans-Serif" font-size="10.00" fill="#000000">openage::ActionMode</text>
<text text-anchor="middle" x="533.5" y="-70" font-family="Helvetica,sans-Serif" font-size="10.00" fill="#000000">::render</text>
</a>
</g>
</g>
<!-- Node23&#45;&gt;Node24 -->
<g id="edge3" class="edge">
<title>Node23&#45;&gt;Node24</title>
<path fill="none" stroke="#191970" d="M451.8908,-91.5115C460.5993,-90.0696 469.417,-88.6098 477.8763,-87.2092"/>
<polygon fill="#191970" stroke="#191970" points="451.0398,-88.1046 441.7458,-93.1911 452.1832,-95.0106 451.0398,-88.1046"/>
</g>
<!-- Node26 -->
<g id="node6" class="node">
<title>Node26</title>
<g id="a_node6"><a xlink:href="../../d4/d5b/classopenage_1_1_texture.xhtml#ac79ebb1a99e21faf9ed7faacdf0d68d5" target="_top" xlink:title="Draws the texture at tile coordinates. ">
<polygon fill="#ffffff" stroke="#000000" points="323,-137.5 323,-156.5 442,-156.5 442,-137.5 323,-137.5"/>
<text text-anchor="middle" x="382.5" y="-144.5" font-family="Helvetica,sans-Serif" font-size="10.00" fill="#000000">openage::Texture::draw</text>
</a>
</g>
</g>
<!-- Node25&#45;&gt;Node26 -->
<g id="edge5" class="edge">
<title>Node25&#45;&gt;Node26</title>
<path fill="none" stroke="#191970" d="M288.7918,-147C299.9751,-147 311.6297,-147 322.767,-147"/>
<polygon fill="#191970" stroke="#191970" points="288.6824,-143.5001 278.6824,-147 288.6823,-150.5001 288.6824,-143.5001"/>
</g>
<!-- Node27&#45;&gt;Node23 -->
<g id="edge10" class="edge">
<title>Node27&#45;&gt;Node23</title>
<path fill="none" stroke="#191970" d="M288.1223,-74.9911C302.6073,-79.2899 317.9191,-83.8341 331.898,-87.9826"/>
<polygon fill="#191970" stroke="#191970" points="288.8353,-71.5519 278.2528,-72.0621 286.8437,-78.2626 288.8353,-71.5519"/>
</g>
<!-- Node28 -->
<g id="node8" class="node">
<title>Node28</title>
<g id="a_node8"><a xlink:href="../../d2/da4/structopenage_1_1coord_1_1phys3.xhtml#a851739e9304a9ed9f55f51ef99c814e7" target="_top" xlink:title="openage::coord::phys3\l::to_camhud">
<polygon fill="#ffffff" stroke="#000000" points="324.5,-39 324.5,-69 440.5,-69 440.5,-39 324.5,-39"/>
<text text-anchor="start" x="332.5" y="-57" font-family="Helvetica,sans-Serif" font-size="10.00" fill="#000000">openage::coord::phys3</text>
<text text-anchor="middle" x="382.5" y="-46" font-family="Helvetica,sans-Serif" font-size="10.00" fill="#000000">::to_camhud</text>
</a>
</g>
</g>
<!-- Node27&#45;&gt;Node28 -->
<g id="edge7" class="edge">
<title>Node27&#45;&gt;Node28</title>
<path fill="none" stroke="#191970" d="M295.8474,-55.6771C305.3307,-55.4936 314.9993,-55.3065 324.2746,-55.1269"/>
<polygon fill="#191970" stroke="#191970" points="295.5876,-52.1814 285.6573,-55.8744 295.7232,-59.1801 295.5876,-52.1814"/>
</g>
<!-- Node29 -->
<g id="node9" class="node">
<title>Node29</title>
<g id="a_node9"><a xlink:href="../../d4/d5b/classopenage_1_1_texture.xhtml#a67031aa8a376335fe775cf819b22900c" target="_top" xlink:title="Draws the texture at phys coordinates. ">
<polygon fill="#ffffff" stroke="#000000" points="323,-.5 323,-19.5 442,-19.5 442,-.5 323,-.5"/>
<text text-anchor="middle" x="382.5" y="-7.5" font-family="Helvetica,sans-Serif" font-size="10.00" fill="#000000">openage::Texture::draw</text>
</a>
</g>
</g>
<!-- Node27&#45;&gt;Node29 -->
<g id="edge9" class="edge">
<title>Node27&#45;&gt;Node29</title>
<path fill="none" stroke="#191970" d="M286.5438,-39.0964C308.4762,-32.4459 332.5024,-25.1606 351.0269,-19.5434"/>
<polygon fill="#191970" stroke="#191970" points="285.5232,-35.7484 276.9691,-41.9997 287.5545,-42.4472 285.5232,-35.7484"/>
</g>
<!-- Node28&#45;&gt;Node24 -->
<g id="edge8" class="edge">
<title>Node28&#45;&gt;Node24</title>
<path fill="none" stroke="#191970" d="M450.9319,-64.8766C459.9094,-66.3035 469.0214,-67.7517 477.7541,-69.1397"/>
<polygon fill="#191970" stroke="#191970" points="451.306,-61.3922 440.8805,-63.279 450.2072,-68.3054 451.306,-61.3922"/>
</g>
</g>
</svg>
        <g id="navigator" transform="translate(0 0)" fill="#404254">
                <rect fill="#f2f5e9" fill-opacity="0.5" stroke="#606060" stroke-width=".5" x="0" y="0" width="60" height="60"/>
                <use id="zoomplus" xlink:href="#zoomPlus" x="17" y="9" onmousedown="handleZoom(evt,'in')"/>
                <use id="zoomminus" xlink:href="#zoomMin" x="42" y="9" onmousedown="handleZoom(evt,'out')"/>
                <use id="reset" xlink:href="#resetDef" x="30" y="36" onmousedown="handleReset()"/>
                <g id="arrowUp" xlink:href="#dirArrow" transform="translate(30 24)" onmousedown="handlePan(0,-1)">
                  <use xlink:href="#rim" fill="#404040">
                        <set attributeName="fill" to="#808080" begin="arrowUp.mouseover" end="arrowUp.mouseout"/>
                  </use>
                  <path fill="none" stroke="white" stroke-width="1.5" d="M0,-3.0v7 M-2.5,-0.5L0,-3.0L2.5,-0.5"/>
                </g>
                <g id="arrowRight" xlink:href="#dirArrow" transform="rotate(90) translate(36 -43)" onmousedown="handlePan(1,0)">
                  <use xlink:href="#rim" fill="#404040">
                        <set attributeName="fill" to="#808080" begin="arrowRight.mouseover" end="arrowRight.mouseout"/>
                  </use>
                  <path fill="none" stroke="white" stroke-width="1.5" d="M0,-3.0v7 M-2.5,-0.5L0,-3.0L2.5,-0.5"/>
                </g>
                <g id="arrowDown" xlink:href="#dirArrow" transform="rotate(180) translate(-30 -48)" onmousedown="handlePan(0,1)">
                  <use xlink:href="#rim" fill="#404040">
                        <set attributeName="fill" to="#808080" begin="arrowDown.mouseover" end="arrowDown.mouseout"/>
                  </use>
                  <path fill="none" stroke="white" stroke-width="1.5" d="M0,-3.0v7 M-2.5,-0.5L0,-3.0L2.5,-0.5"/>
                </g>
                <g id="arrowLeft" xlink:href="#dirArrow" transform="rotate(270) translate(-36 17)" onmousedown="handlePan(-1,0)">
                  <use xlink:href="#rim" fill="#404040">
                        <set attributeName="fill" to="#808080" begin="arrowLeft.mouseover" end="arrowLeft.mouseout"/>
                  </use>
                  <path fill="none" stroke="white" stroke-width="1.5" d="M0,-3.0v7 M-2.5,-0.5L0,-3.0L2.5,-0.5"/>
                </g>
        </g>
        <svg viewBox="0 0 15 15" width="100%" height="30px" preserveAspectRatio="xMaxYMin meet">
         <g id="arrow_out" transform="scale(0.3 0.3)">
          <a xlink:href="structopenage_1_1coord_1_1camgame_a3fc238716b4f13031e53b8cb1d8c3a44_icgraph_org.svg" target="_base">
           <rect id="button" ry="5" rx="5" y="6" x="6" height="38" width="38"
                fill="#f2f5e9" fill-opacity="0.5" stroke="#606060" stroke-width="1.0"/>
           <path id="arrow"
             d="M 11.500037,31.436501 C 11.940474,20.09759 22.043105,11.32322 32.158766,21.979434 L 37.068811,17.246167 C 37.068811,17.246167 37.088388,32 37.088388,32 L 22.160133,31.978069 C 22.160133,31.978069 26.997745,27.140456 26.997745,27.140456 C 18.528582,18.264221 13.291696,25.230495 11.500037,31.436501 z"
             style="fill:#404040;"/>
          </a>
         </g>
        </svg>
</svg>
