<?xml version="1.0" encoding="UTF-8" standalone="no"?>
<!DOCTYPE svg PUBLIC "-//W3C//DTD SVG 1.1//EN"
 "http://www.w3.org/Graphics/SVG/1.1/DTD/svg11.dtd">
<!-- Generated by graphviz version 2.40.1 (20161225.0304)
 -->
<!-- Title: openage::gui::CategoryContentsListModel::on_categories_content_changed Pages: 1 -->
<svg width="330pt" height="50pt"
 viewBox="0.00 0.00 330.00 50.00" xmlns="http://www.w3.org/2000/svg" xmlns:xlink="http://www.w3.org/1999/xlink">
<g id="graph0" class="graph" transform="scale(1 1) rotate(0) translate(4 46)">
<title>openage::gui::CategoryContentsListModel::on_categories_content_changed</title>
<polygon fill="#ffffff" stroke="transparent" points="-4,4 -4,-46 326,-46 326,4 -4,4"/>
<!-- Node11 -->
<g id="node1" class="node">
<title>Node11</title>
<polygon fill="#bfbfbf" stroke="#000000" points="0,-.5 0,-41.5 158,-41.5 158,-.5 0,-.5"/>
<text text-anchor="start" x="8" y="-29.5" font-family="Helvetica,sans-Serif" font-size="10.00" fill="#000000">openage::gui::CategoryContents</text>
<text text-anchor="start" x="8" y="-18.5" font-family="Helvetica,sans-Serif" font-size="10.00" fill="#000000">ListModel::on_categories</text>
<text text-anchor="middle" x="79" y="-7.5" font-family="Helvetica,sans-Serif" font-size="10.00" fill="#000000">_content_changed</text>
</g>
<!-- Node12 -->
<g id="node2" class="node">
<title>Node12</title>
<g id="a_node2"><a xlink:href="../../db/dbd/classopenage_1_1gui_1_1_editor_mode_link.xhtml#a4604a1e7eae32183404c1e4f8bf5f808" target="_top" xlink:title="openage::gui::EditorMode\lLink::announce_category\l_content">
<polygon fill="#ffffff" stroke="#000000" points="194,-.5 194,-41.5 322,-41.5 322,-.5 194,-.5"/>
<text text-anchor="start" x="202" y="-29.5" font-family="Helvetica,sans-Serif" font-size="10.00" fill="#000000">openage::gui::EditorMode</text>
<text text-anchor="start" x="202" y="-18.5" font-family="Helvetica,sans-Serif" font-size="10.00" fill="#000000">Link::announce_category</text>
<text text-anchor="middle" x="258" y="-7.5" font-family="Helvetica,sans-Serif" font-size="10.00" fill="#000000">_content</text>
</a>
</g>
</g>
<!-- Node11&#45;&gt;Node12 -->
<g id="edge1" class="edge">
<title>Node11&#45;&gt;Node12</title>
<path fill="none" stroke="#191970" d="M158.0331,-21C166.5557,-21 175.2067,-21 183.6713,-21"/>
<polygon fill="#191970" stroke="#191970" points="183.8825,-24.5001 193.8825,-21 183.8824,-17.5001 183.8825,-24.5001"/>
</g>
</g>
</svg>
