<?xml version="1.0" encoding="UTF-8" standalone="no"?>
<!DOCTYPE svg PUBLIC "-//W3C//DTD SVG 1.1//EN"
 "http://www.w3.org/Graphics/SVG/1.1/DTD/svg11.dtd">
<!-- Generated by graphviz version 2.40.1 (20161225.0304)
 -->
<!-- Title: /mnt/c/Users/Jameson/Desktop/git/openage&#45;new&#45;doc&#45;system/libopenage/renderer/vulkan/graphics_device.h Pages: 1 -->
<svg width="691pt" height="261pt"
 viewBox="0.00 0.00 690.50 261.00" xmlns="http://www.w3.org/2000/svg" xmlns:xlink="http://www.w3.org/1999/xlink">
<g id="graph0" class="graph" transform="scale(1 1) rotate(0) translate(4 257)">
<title>/mnt/c/Users/Jameson/Desktop/git/openage&#45;new&#45;doc&#45;system/libopenage/renderer/vulkan/graphics_device.h</title>
<polygon fill="#ffffff" stroke="transparent" points="-4,4 -4,-257 686.5,-257 686.5,4 -4,4"/>
<!-- Node4 -->
<g id="node1" class="node">
<title>Node4</title>
<polygon fill="#bfbfbf" stroke="#000000" points="272,-189.5 272,-252.5 413,-252.5 413,-189.5 272,-189.5"/>
<text text-anchor="start" x="280" y="-240.5" font-family="Helvetica,sans-Serif" font-size="10.00" fill="#000000">/mnt/c/Users/Jameson</text>
<text text-anchor="start" x="280" y="-229.5" font-family="Helvetica,sans-Serif" font-size="10.00" fill="#000000">/Desktop/git/openage</text>
<text text-anchor="start" x="280" y="-218.5" font-family="Helvetica,sans-Serif" font-size="10.00" fill="#000000">&#45;new&#45;doc&#45;system/libopenage</text>
<text text-anchor="start" x="280" y="-207.5" font-family="Helvetica,sans-Serif" font-size="10.00" fill="#000000">/renderer/vulkan/graphics</text>
<text text-anchor="middle" x="342.5" y="-196.5" font-family="Helvetica,sans-Serif" font-size="10.00" fill="#000000">_device.h</text>
</g>
<!-- Node5 -->
<g id="node2" class="node">
<title>Node5</title>
<g id="a_node2"><a xlink:href="../../da/db7/graphics__device_8cpp.xhtml" target="_top" xlink:title="/mnt/c/Users/Jameson\l/Desktop/git/openage\l&#45;new&#45;doc&#45;system/libopenage\l/renderer/vulkan/graphics\l_device.cpp">
<polygon fill="#ffffff" stroke="#000000" points="0,-89.5 0,-152.5 141,-152.5 141,-89.5 0,-89.5"/>
<text text-anchor="start" x="8" y="-140.5" font-family="Helvetica,sans-Serif" font-size="10.00" fill="#000000">/mnt/c/Users/Jameson</text>
<text text-anchor="start" x="8" y="-129.5" font-family="Helvetica,sans-Serif" font-size="10.00" fill="#000000">/Desktop/git/openage</text>
<text text-anchor="start" x="8" y="-118.5" font-family="Helvetica,sans-Serif" font-size="10.00" fill="#000000">&#45;new&#45;doc&#45;system/libopenage</text>
<text text-anchor="start" x="8" y="-107.5" font-family="Helvetica,sans-Serif" font-size="10.00" fill="#000000">/renderer/vulkan/graphics</text>
<text text-anchor="middle" x="70.5" y="-96.5" font-family="Helvetica,sans-Serif" font-size="10.00" fill="#000000">_device.cpp</text>
</a>
</g>
</g>
<!-- Node4&#45;&gt;Node5 -->
<g id="edge1" class="edge">
<title>Node4&#45;&gt;Node5</title>
<path fill="none" stroke="#191970" d="M262.009,-193.5699C227.268,-181.4911 186.2483,-166.908 149.5,-153 146.7321,-151.9524 143.9144,-150.8732 141.0718,-149.7737"/>
<polygon fill="#191970" stroke="#191970" points="261.0377,-196.9375 271.6325,-196.9077 263.3315,-190.324 261.0377,-196.9375"/>
</g>
<!-- Node6 -->
<g id="node3" class="node">
<title>Node6</title>
<g id="a_node3"><a xlink:href="../../d6/de5/vulkan_2render__target_8h.xhtml" target="_top" xlink:title="/mnt/c/Users/Jameson\l/Desktop/git/openage\l&#45;new&#45;doc&#45;system/libopenage\l/renderer/vulkan/render_target.h">
<polygon fill="#ffffff" stroke="#000000" points="159,-95 159,-147 314,-147 314,-95 159,-95"/>
<text text-anchor="start" x="167" y="-135" font-family="Helvetica,sans-Serif" font-size="10.00" fill="#000000">/mnt/c/Users/Jameson</text>
<text text-anchor="start" x="167" y="-124" font-family="Helvetica,sans-Serif" font-size="10.00" fill="#000000">/Desktop/git/openage</text>
<text text-anchor="start" x="167" y="-113" font-family="Helvetica,sans-Serif" font-size="10.00" fill="#000000">&#45;new&#45;doc&#45;system/libopenage</text>
<text text-anchor="middle" x="236.5" y="-102" font-family="Helvetica,sans-Serif" font-size="10.00" fill="#000000">/renderer/vulkan/render_target.h</text>
</a>
</g>
</g>
<!-- Node4&#45;&gt;Node6 -->
<g id="edge2" class="edge">
<title>Node4&#45;&gt;Node6</title>
<path fill="none" stroke="#191970" d="M301.3458,-182.1752C288.8817,-170.4167 275.4965,-157.7892 264.1426,-147.078"/>
<polygon fill="#191970" stroke="#191970" points="299.2852,-185.043 308.9609,-189.3594 304.0888,-179.9513 299.2852,-185.043"/>
</g>
<!-- Node7 -->
<g id="node4" class="node">
<title>Node7</title>
<g id="a_node4"><a xlink:href="../../d2/dfa/vulkan_2renderer_8cpp.xhtml" target="_top" xlink:title="/mnt/c/Users/Jameson\l/Desktop/git/openage\l&#45;new&#45;doc&#45;system/libopenage\l/renderer/vulkan/renderer.cpp">
<polygon fill="#ffffff" stroke="#000000" points="271,-.5 271,-52.5 414,-52.5 414,-.5 271,-.5"/>
<text text-anchor="start" x="279" y="-40.5" font-family="Helvetica,sans-Serif" font-size="10.00" fill="#000000">/mnt/c/Users/Jameson</text>
<text text-anchor="start" x="279" y="-29.5" font-family="Helvetica,sans-Serif" font-size="10.00" fill="#000000">/Desktop/git/openage</text>
<text text-anchor="start" x="279" y="-18.5" font-family="Helvetica,sans-Serif" font-size="10.00" fill="#000000">&#45;new&#45;doc&#45;system/libopenage</text>
<text text-anchor="middle" x="342.5" y="-7.5" font-family="Helvetica,sans-Serif" font-size="10.00" fill="#000000">/renderer/vulkan/renderer.cpp</text>
</a>
</g>
</g>
<!-- Node4&#45;&gt;Node7 -->
<g id="edge6" class="edge">
<title>Node4&#45;&gt;Node7</title>
<path fill="none" stroke="#191970" d="M342.5,-178.9697C342.5,-140.5464 342.5,-84.9224 342.5,-52.5592"/>
<polygon fill="#191970" stroke="#191970" points="339.0001,-179.3173 342.5,-189.3173 346.0001,-179.3174 339.0001,-179.3173"/>
</g>
<!-- Node8 -->
<g id="node5" class="node">
<title>Node8</title>
<g id="a_node5"><a xlink:href="../../d8/dba/vulkan_2renderer_8h.xhtml" target="_top" xlink:title="/mnt/c/Users/Jameson\l/Desktop/git/openage\l&#45;new&#45;doc&#45;system/libopenage\l/renderer/vulkan/renderer.h">
<polygon fill="#ffffff" stroke="#000000" points="371,-95 371,-147 512,-147 512,-95 371,-95"/>
<text text-anchor="start" x="379" y="-135" font-family="Helvetica,sans-Serif" font-size="10.00" fill="#000000">/mnt/c/Users/Jameson</text>
<text text-anchor="start" x="379" y="-124" font-family="Helvetica,sans-Serif" font-size="10.00" fill="#000000">/Desktop/git/openage</text>
<text text-anchor="start" x="379" y="-113" font-family="Helvetica,sans-Serif" font-size="10.00" fill="#000000">&#45;new&#45;doc&#45;system/libopenage</text>
<text text-anchor="middle" x="441.5" y="-102" font-family="Helvetica,sans-Serif" font-size="10.00" fill="#000000">/renderer/vulkan/renderer.h</text>
</a>
</g>
</g>
<!-- Node4&#45;&gt;Node8 -->
<g id="edge4" class="edge">
<title>Node4&#45;&gt;Node8</title>
<path fill="none" stroke="#191970" d="M380.9365,-182.1752C392.5774,-170.4167 405.0787,-157.7892 415.6828,-147.078"/>
<polygon fill="#191970" stroke="#191970" points="378.3724,-179.7904 373.8242,-189.3594 383.347,-184.7153 378.3724,-179.7904"/>
</g>
<!-- Node9 -->
<g id="node6" class="node">
<title>Node9</title>
<g id="a_node6"><a xlink:href="../../da/d71/windowvk_8cpp.xhtml" target="_top" xlink:title="/mnt/c/Users/Jameson\l/Desktop/git/openage\l&#45;new&#45;doc&#45;system/libopenage\l/renderer/vulkan/windowvk.cpp">
<polygon fill="#ffffff" stroke="#000000" points="530.5,-95 530.5,-147 682.5,-147 682.5,-95 530.5,-95"/>
<text text-anchor="start" x="538.5" y="-135" font-family="Helvetica,sans-Serif" font-size="10.00" fill="#000000">/mnt/c/Users/Jameson</text>
<text text-anchor="start" x="538.5" y="-124" font-family="Helvetica,sans-Serif" font-size="10.00" fill="#000000">/Desktop/git/openage</text>
<text text-anchor="start" x="538.5" y="-113" font-family="Helvetica,sans-Serif" font-size="10.00" fill="#000000">&#45;new&#45;doc&#45;system/libopenage</text>
<text text-anchor="middle" x="606.5" y="-102" font-family="Helvetica,sans-Serif" font-size="10.00" fill="#000000">/renderer/vulkan/windowvk.cpp</text>
</a>
</g>
</g>
<!-- Node4&#45;&gt;Node9 -->
<g id="edge7" class="edge">
<title>Node4&#45;&gt;Node9</title>
<path fill="none" stroke="#191970" d="M422.9282,-190.5348C459.6422,-176.628 502.6719,-160.3288 537.8397,-147.0077"/>
<polygon fill="#191970" stroke="#191970" points="421.3589,-187.3864 413.2472,-194.2018 423.8386,-193.9326 421.3589,-187.3864"/>
</g>
<!-- Node6&#45;&gt;Node7 -->
<g id="edge3" class="edge">
<title>Node6&#45;&gt;Node7</title>
<path fill="none" stroke="#191970" d="M273.5706,-87.9512C286.4763,-76.4457 300.7712,-63.7016 312.9819,-52.8157"/>
<polygon fill="#191970" stroke="#191970" points="270.8809,-85.6602 265.7456,-94.9273 275.5391,-90.8853 270.8809,-85.6602"/>
</g>
<!-- Node8&#45;&gt;Node7 -->
<g id="edge5" class="edge">
<title>Node8&#45;&gt;Node7</title>
<path fill="none" stroke="#191970" d="M406.8775,-87.9512C394.824,-76.4457 381.4731,-63.7016 370.0688,-52.8157"/>
<polygon fill="#191970" stroke="#191970" points="404.5355,-90.5543 414.1857,-94.9273 409.3688,-85.4908 404.5355,-90.5543"/>
</g>
</g>
</svg>
