<?xml version="1.0" encoding="UTF-8" standalone="no"?>
<!DOCTYPE svg PUBLIC "-//W3C//DTD SVG 1.1//EN"
 "http://www.w3.org/Graphics/SVG/1.1/DTD/svg11.dtd">
<!-- Generated by graphviz version 2.40.1 (20161225.0304)
 -->
<!-- Title: /mnt/c/Users/Jameson/Desktop/git/openage&#45;new&#45;doc&#45;system/libopenage/gui/guisys/link/gui_singleton_item.h Pages: 1 -->
<svg width="245pt" height="240pt"
 viewBox="0.00 0.00 244.50 240.00" xmlns="http://www.w3.org/2000/svg" xmlns:xlink="http://www.w3.org/1999/xlink">
<g id="graph0" class="graph" transform="scale(1 1) rotate(0) translate(4 236)">
<title>/mnt/c/Users/Jameson/Desktop/git/openage&#45;new&#45;doc&#45;system/libopenage/gui/guisys/link/gui_singleton_item.h</title>
<polygon fill="#ffffff" stroke="transparent" points="-4,4 -4,-236 240.5,-236 240.5,4 -4,4"/>
<!-- Node0 -->
<g id="node1" class="node">
<title>Node0</title>
<polygon fill="#bfbfbf" stroke="#000000" points="0,-179.5 0,-231.5 174,-231.5 174,-179.5 0,-179.5"/>
<text text-anchor="start" x="8" y="-219.5" font-family="Helvetica,sans-Serif" font-size="10.00" fill="#000000">/mnt/c/Users/Jameson</text>
<text text-anchor="start" x="8" y="-208.5" font-family="Helvetica,sans-Serif" font-size="10.00" fill="#000000">/Desktop/git/openage</text>
<text text-anchor="start" x="8" y="-197.5" font-family="Helvetica,sans-Serif" font-size="10.00" fill="#000000">&#45;new&#45;doc&#45;system/libopenage</text>
<text text-anchor="middle" x="87" y="-186.5" font-family="Helvetica,sans-Serif" font-size="10.00" fill="#000000">/gui/guisys/link/gui_singleton_item.h</text>
</g>
<!-- Node1 -->
<g id="node2" class="node">
<title>Node1</title>
<polygon fill="#ffffff" stroke="#bfbfbf" points="17.5,-123.5 17.5,-142.5 70.5,-142.5 70.5,-123.5 17.5,-123.5"/>
<text text-anchor="middle" x="44" y="-130.5" font-family="Helvetica,sans-Serif" font-size="10.00" fill="#000000">QObject</text>
</g>
<!-- Node0&#45;&gt;Node1 -->
<g id="edge1" class="edge">
<title>Node0&#45;&gt;Node1</title>
<path fill="none" stroke="#191970" d="M71.476,-179.3258C65.9528,-170.0135 59.8581,-159.7375 54.815,-151.2347"/>
<polygon fill="#191970" stroke="#191970" points="57.7663,-149.3495 49.6546,-142.534 51.7456,-152.9205 57.7663,-149.3495"/>
</g>
<!-- Node2 -->
<g id="node3" class="node">
<title>Node2</title>
<g id="a_node3"><a xlink:href="../../d3/d7f/gui__item__link_8h.xhtml" target="_top" xlink:title="gui_item_link.h">
<polygon fill="#ffffff" stroke="#000000" points="89,-123.5 89,-142.5 171,-142.5 171,-123.5 89,-123.5"/>
<text text-anchor="middle" x="130" y="-130.5" font-family="Helvetica,sans-Serif" font-size="10.00" fill="#000000">gui_item_link.h</text>
</a>
</g>
</g>
<!-- Node0&#45;&gt;Node2 -->
<g id="edge2" class="edge">
<title>Node0&#45;&gt;Node2</title>
<path fill="none" stroke="#191970" d="M102.524,-179.3258C108.0472,-170.0135 114.1419,-159.7375 119.185,-151.2347"/>
<polygon fill="#191970" stroke="#191970" points="122.2544,-152.9205 124.3454,-142.534 116.2337,-149.3495 122.2544,-152.9205"/>
</g>
<!-- Node3 -->
<g id="node4" class="node">
<title>Node3</title>
<polygon fill="#ffffff" stroke="#bfbfbf" points="47,-62 47,-81 109,-81 109,-62 47,-62"/>
<text text-anchor="middle" x="78" y="-69" font-family="Helvetica,sans-Serif" font-size="10.00" fill="#000000">type_traits</text>
</g>
<!-- Node2&#45;&gt;Node3 -->
<g id="edge3" class="edge">
<title>Node2&#45;&gt;Node3</title>
<path fill="none" stroke="#191970" d="M121.875,-123.3906C114.1358,-114.2376 102.3013,-100.2409 92.8728,-89.09"/>
<polygon fill="#191970" stroke="#191970" points="95.3689,-86.6213 86.2396,-81.2449 90.0235,-91.1409 95.3689,-86.6213"/>
</g>
<!-- Node4 -->
<g id="node5" class="node">
<title>Node4</title>
<g id="a_node5"><a xlink:href="../../d6/da8/qtsdl__checked__static__cast_8h.xhtml" target="_top" xlink:title="qtsdl_checked_static\l_cast.h">
<polygon fill="#ffffff" stroke="#000000" points="127.5,-56.5 127.5,-86.5 236.5,-86.5 236.5,-56.5 127.5,-56.5"/>
<text text-anchor="start" x="135.5" y="-74.5" font-family="Helvetica,sans-Serif" font-size="10.00" fill="#000000">qtsdl_checked_static</text>
<text text-anchor="middle" x="182" y="-63.5" font-family="Helvetica,sans-Serif" font-size="10.00" fill="#000000">_cast.h</text>
</a>
</g>
</g>
<!-- Node2&#45;&gt;Node4 -->
<g id="edge4" class="edge">
<title>Node2&#45;&gt;Node4</title>
<path fill="none" stroke="#191970" d="M138.125,-123.3906C144.7064,-115.6068 154.2496,-104.3202 162.756,-94.2597"/>
<polygon fill="#191970" stroke="#191970" points="165.4954,-96.4407 169.2794,-86.5446 160.15,-91.921 165.4954,-96.4407"/>
</g>
<!-- Node5 -->
<g id="node6" class="node">
<title>Node5</title>
<polygon fill="#ffffff" stroke="#bfbfbf" points="157.5,-.5 157.5,-19.5 206.5,-19.5 206.5,-.5 157.5,-.5"/>
<text text-anchor="middle" x="182" y="-7.5" font-family="Helvetica,sans-Serif" font-size="10.00" fill="#000000">cassert</text>
</g>
<!-- Node4&#45;&gt;Node5 -->
<g id="edge5" class="edge">
<title>Node4&#45;&gt;Node5</title>
<path fill="none" stroke="#191970" d="M182,-56.2977C182,-48.3834 182,-38.6043 182,-30.0759"/>
<polygon fill="#191970" stroke="#191970" points="185.5001,-29.8469 182,-19.8469 178.5001,-29.847 185.5001,-29.8469"/>
</g>
</g>
</svg>
